<svg xmlns="http://www.w3.org/2000/svg" xmlns:xlink="http://www.w3.org/1999/xlink" width="3000" zoomAndPan="magnify" viewBox="0 0 2250 2250.000011" height="3000" preserveAspectRatio="xMidYMid meet" version="1.0"><defs><clipPath id="7b27ab5840"><path d="M 726 823.234375 L 2059.023438 823.234375 L 2059.023438 1832.304688 L 726 1832.304688 Z M 726 823.234375 " clip-rule="nonzero"/></clipPath><clipPath id="616d89091f"><path d="M 893 1003.027344 L 1423 1003.027344 L 1423 1832.304688 L 893 1832.304688 Z M 893 1003.027344 " clip-rule="nonzero"/></clipPath><clipPath id="f099fb1701"><path d="M 2046.128906 1050.316406 C 1961.855469 750.425781 1527.699219 810.300781 1304.445312 880.941406 C 1150.992188 929.5 1001.789062 1009.554688 885.144531 1121.578125 C 803.917969 1199.589844 739.742188 1303.378906 730.667969 1413.253906 C 715.441406 1515.789062 744.269531 1618.828125 842.007812 1699.34375 C 1063.144531 1881.5 1421.425781 1861.6875 1660.511719 1729.277344 C 1777.949219 1664.238281 1878.65625 1569.539062 1952.261719 1457.417969 C 2029.015625 1340.503906 2085.53125 1190.539062 2046.128906 1050.316406 Z M 2046.128906 1050.316406 " clip-rule="nonzero"/></clipPath><clipPath id="aef4fe7344"><path d="M 1262.285156 824 L 1831 824 L 1831 1742 L 1262.285156 1742 Z M 1262.285156 824 " clip-rule="nonzero"/></clipPath><clipPath id="83d1d513bd"><path d="M 2046.128906 1050.316406 C 1961.855469 750.425781 1527.699219 810.300781 1304.445312 880.941406 C 1150.992188 929.5 1001.789062 1009.554688 885.144531 1121.578125 C 803.917969 1199.589844 739.742188 1303.378906 730.667969 1413.253906 C 715.441406 1515.789062 744.269531 1618.828125 842.007812 1699.34375 C 1063.144531 1881.5 1421.425781 1861.6875 1660.511719 1729.277344 C 1777.949219 1664.238281 1878.65625 1569.539062 1952.261719 1457.417969 C 2029.015625 1340.503906 2085.53125 1190.539062 2046.128906 1050.316406 Z M 2046.128906 1050.316406 " clip-rule="nonzero"/></clipPath></defs><path fill="#99c1a9" d="M 1224.910156 1036.925781 C 1224.863281 1036.800781 1224.820312 1036.667969 1224.785156 1036.535156 C 1223.132812 1031.582031 1221.320312 1026.660156 1219.363281 1021.75 C 1218.820312 1020.363281 1218.304688 1018.960938 1217.726562 1017.582031 C 1215.53125 1012.273438 1213.148438 1007.019531 1210.625 1001.785156 C 1210.574219 1001.675781 1210.527344 1001.570312 1210.472656 1001.464844 C 1159.953125 897.121094 1047.414062 807.347656 958.679688 757.5625 C 870.085938 707.859375 772.355469 674.71875 671.210938 663.878906 C 576.007812 653.683594 455.601562 659.710938 373.175781 714.375 C 190.960938 835.210938 292.710938 1083.199219 428.535156 1192.53125 C 599.5 1330.148438 837.402344 1346.949219 1046.257812 1309.824219 C 1143.933594 1292.453125 1226.75 1238.019531 1235.992188 1131.980469 C 1236.152344 1130.183594 1236.117188 1128.414062 1236.234375 1126.617188 C 1238.910156 1096.1875 1234.589844 1066.128906 1224.910156 1036.925781 " fill-opacity="1" fill-rule="nonzero"/><g clip-path=""><path fill="#ffcb51" d="M 2046.128906 1050.316406 C 1961.855469 750.425781 1527.699219 810.300781 1304.445312 880.941406 C 1150.992188 929.5 1001.789062 1009.554688 885.144531 1121.578125 C 803.917969 1199.589844 739.742188 1303.378906 730.667969 1413.253906 C 715.441406 1515.789062 744.269531 1618.828125 842.007812 1699.34375 C 1063.144531 1881.5 1421.425781 1861.6875 1660.511719 1729.277344 C 1777.949219 1664.238281 1878.65625 1569.539062 1952.261719 1457.417969 C 2029.015625 1340.503906 2085.53125 1190.539062 2046.128906 1050.316406 " fill-opacity="1" fill-rule="nonzero"/></g><g clip-path=""><g clip-path=""><path fill="#494038" d="M 1069.757812 1037.203125 C 1039.246094 1014.015625 1003.761719 993.144531 964.890625 1008.15625 C 921.578125 1024.890625 904.75 1070.328125 893.78125 1111.699219 C 890.136719 1125.445312 899.988281 1134.574219 910.734375 1135.792969 C 1011.511719 1220.054688 1100.859375 1310.652344 1164.121094 1427.441406 C 1229.328125 1547.804688 1262.882812 1680.285156 1262.027344 1817.03125 C 1261.964844 1827.628906 1270.695312 1835.175781 1280.785156 1835.789062 C 1321.101562 1838.242188 1361.429688 1840.703125 1401.757812 1843.167969 C 1412.308594 1843.808594 1419.730469 1834.082031 1420.386719 1824.523438 C 1434.457031 1621.972656 1378.28125 1418.070312 1266.179688 1248.972656 C 1212.707031 1168.3125 1146.886719 1095.796875 1069.757812 1037.203125 " fill-opacity="1" fill-rule="nonzero"/></g></g><g clip-path=""><g clip-path=""><path fill="#494038" d="M 1827.164062 1550.835938 C 1813.15625 1428.046875 1781.132812 1307.914062 1732.476562 1194.335938 C 1685.585938 1084.871094 1623.679688 962.054688 1531.566406 883.316406 C 1454.820312 817.722656 1338.40625 793.0625 1270.765625 883.5625 C 1269.664062 885.03125 1268.890625 886.488281 1268.277344 887.929688 C 1263.21875 890.753906 1260.480469 897.609375 1265.796875 903.203125 C 1481.558594 1129.933594 1617.386719 1409.667969 1636.550781 1724.128906 C 1637.324219 1736.832031 1647.394531 1743.359375 1659.375 1741.519531 C 1708.714844 1733.953125 1761.921875 1724.226562 1798.074219 1686.496094 C 1834.445312 1648.546875 1832.746094 1599.730469 1827.164062 1550.835938 " fill-opacity="1" fill-rule="nonzero"/></g></g><path fill="#494038" d="M 1883.769531 1103.273438 C 1881.625 1095.617188 1877.75 1088.96875 1872.152344 1083.332031 C 1869.101562 1080.96875 1866.054688 1078.621094 1863.003906 1076.265625 C 1855.957031 1072.175781 1848.355469 1070.113281 1840.195312 1070.085938 C 1833.972656 1069.855469 1828.167969 1071.152344 1822.785156 1073.980469 C 1817.183594 1075.800781 1812.332031 1078.921875 1808.242188 1083.332031 C 1803.832031 1087.421875 1800.722656 1092.265625 1798.898438 1097.875 C 1796.0625 1103.265625 1794.765625 1109.070312 1795.007812 1115.285156 C 1795.539062 1119.292969 1796.082031 1123.300781 1796.617188 1127.304688 C 1798.765625 1134.957031 1802.640625 1141.605469 1808.242188 1147.253906 C 1811.289062 1149.609375 1814.339844 1151.953125 1817.386719 1154.320312 C 1824.4375 1158.398438 1832.035156 1160.460938 1840.195312 1160.488281 C 1846.417969 1160.71875 1852.222656 1159.421875 1857.609375 1156.59375 C 1863.207031 1154.773438 1868.0625 1151.660156 1872.152344 1147.253906 C 1876.558594 1143.152344 1879.671875 1138.308594 1881.492188 1132.707031 C 1884.328125 1127.3125 1885.625 1121.515625 1885.386719 1115.285156 C 1884.851562 1111.28125 1884.308594 1107.28125 1883.769531 1103.273438 " fill-opacity="1" fill-rule="nonzero"/><path fill="#494038" d="M 861.410156 1443.65625 C 843.101562 1433.796875 820.230469 1438.109375 805.792969 1454.101562 C 772.84375 1490.515625 712.675781 1558.3125 679.726562 1603.199219 C 676.09375 1608.148438 675.078125 1614.320312 676.925781 1620.152344 C 678.769531 1625.957031 683.148438 1630.402344 688.945312 1632.339844 C 703.140625 1637.078125 725.371094 1642.066406 755.957031 1642.066406 C 790.371094 1642.066406 835.375 1635.746094 891.453125 1615.625 C 910.21875 1608.886719 923.195312 1590.804688 923.746094 1570.605469 C 924.660156 1536.203125 917.789062 1473.980469 861.410156 1443.65625 " fill-opacity="1" fill-rule="nonzero"/><path fill="#b1dfc4" d="M 1437.042969 875.742188 C 1403.808594 774.011719 1321.847656 676.460938 1251.335938 615.164062 C 1174.742188 548.585938 1085.902344 495.414062 989.121094 464.09375 C 898.023438 434.613281 784.335938 417.296875 691.230469 447.796875 C 608.859375 474.78125 553.046875 551.742188 540.167969 635.789062 C 524.90625 735.332031 563.429688 835.398438 623.230469 913.808594 C 759.582031 1092.558594 992.234375 1158.230469 1208.164062 1165.628906 C 1309.03125 1169.085938 1406.65625 1139.242188 1441.007812 1035.066406 C 1458.5625 981.835938 1454.894531 926.664062 1437.042969 875.742188 " fill-opacity="1" fill-rule="nonzero"/></svg>