<svg xmlns="http://www.w3.org/2000/svg" xmlns:xlink="http://www.w3.org/1999/xlink" width="3000" zoomAndPan="magnify" viewBox="0 0 2250 2250.000011" height="3000" preserveAspectRatio="xMidYMid meet" version="1.0"><defs><clipPath id="b36501a66d"><path d="M 415 593 L 1907 593 L 1907 2084.835938 L 415 2084.835938 Z M 415 593 " clip-rule="nonzero"/></clipPath></defs><path fill="#e6eaee" d="M 1259.132812 308.71875 L 1161.46875 601.847656 L 1063.792969 308.71875 Z M 1259.132812 308.71875 " fill-opacity="1" fill-rule="nonzero"/><path fill="#cdd3da" d="M 1063.792969 308.71875 L 1161.46875 601.847656 L 868.453125 308.71875 Z M 1063.792969 308.71875 " fill-opacity="1" fill-rule="nonzero"/><path fill="#aab5bd" d="M 1259.132812 308.71875 L 1161.46875 601.847656 L 1454.574219 308.71875 Z M 1259.132812 308.71875 " fill-opacity="1" fill-rule="nonzero"/><path fill="#e6eaee" d="M 868.453125 308.71875 L 990.554688 186.617188 L 1063.792969 308.71875 Z M 868.453125 308.71875 " fill-opacity="1" fill-rule="nonzero"/><path fill="#cdd3da" d="M 1063.792969 308.71875 L 1161.46875 186.617188 L 1259.132812 308.71875 Z M 1063.792969 308.71875 " fill-opacity="1" fill-rule="nonzero"/><path fill="#aab5bd" d="M 990.554688 186.617188 L 1063.792969 308.71875 L 1161.46875 186.617188 Z M 990.554688 186.617188 " fill-opacity="1" fill-rule="nonzero"/><path fill="#aab5bd" d="M 1332.496094 186.617188 L 1259.132812 308.71875 L 1161.46875 186.617188 Z M 1332.496094 186.617188 " fill-opacity="1" fill-rule="nonzero"/><path fill="#e6eaee" d="M 1454.574219 308.71875 L 1332.496094 186.617188 L 1259.132812 308.71875 Z M 1454.574219 308.71875 " fill-opacity="1" fill-rule="nonzero"/><path fill="#ffd160" d="M 1197.640625 613.492188 L 1173.808594 589.621094 L 1313.203125 450.136719 L 1337.140625 474.0625 Z M 1197.640625 613.492188 " fill-opacity="1" fill-rule="nonzero"/><path fill="#ffd160" d="M 1125.363281 613.492188 L 985.957031 474.0625 L 1009.789062 450.136719 L 1149.277344 589.621094 Z M 1125.363281 613.492188 " fill-opacity="1" fill-rule="nonzero"/><g clip-path=""><path fill="#ffd160" d="M 1161.160156 2084.839844 C 749.980469 2084.839844 415.347656 1750.207031 415.347656 1339.007812 C 415.347656 927.703125 749.957031 593.265625 1161.160156 593.265625 C 1572.328125 593.265625 1906.949219 927.691406 1906.949219 1339.007812 C 1906.949219 1750.207031 1572.339844 2084.839844 1161.160156 2084.839844 Z M 1161.160156 728.882812 C 824.699219 728.882812 550.953125 1002.480469 550.953125 1339.007812 C 550.953125 1675.441406 824.710938 1949.167969 1161.160156 1949.167969 C 1497.640625 1949.167969 1771.378906 1675.453125 1771.378906 1339.007812 C 1771.402344 1002.480469 1497.640625 728.882812 1161.160156 728.882812 Z M 1161.160156 728.882812 " fill-opacity="1" fill-rule="nonzero"/></g><path fill="#f7b64d" d="M 1161.160156 680.929688 C 797.648438 680.929688 503.078125 975.53125 503.078125 1339.007812 C 503.078125 1702.402344 797.648438 1997.015625 1161.160156 1997.015625 C 1524.660156 1997.015625 1819.261719 1702.402344 1819.261719 1339.007812 C 1819.261719 975.53125 1524.660156 680.929688 1161.160156 680.929688 Z M 1161.160156 1949.144531 C 824.222656 1949.144531 550.953125 1676.023438 550.953125 1339.007812 C 550.953125 1001.933594 824.230469 728.871094 1161.160156 728.871094 C 1498.132812 728.871094 1771.378906 1001.933594 1771.378906 1339.007812 C 1771.402344 1676.046875 1498.132812 1949.144531 1161.160156 1949.144531 Z M 1161.160156 1949.144531 " fill-opacity="1" fill-rule="nonzero"/><path fill="#ffd160" d="M 1053.015625 541.625 L 1270.089844 541.625 L 1270.089844 605.59375 L 1053.015625 605.59375 Z M 1053.015625 541.625 " fill-opacity="1" fill-rule="nonzero"/><path fill="#cdd3da" d="M 615.457031 680.824219 C 567.574219 680.824219 528.695312 719.785156 528.695312 767.613281 C 528.695312 719.785156 489.863281 680.824219 441.917969 680.824219 C 489.863281 680.824219 528.695312 641.855469 528.695312 594.039062 C 528.695312 641.855469 567.574219 680.824219 615.457031 680.824219 Z M 615.457031 680.824219 " fill-opacity="1" fill-rule="nonzero"/><path fill="#cdd3da" d="M 1390.984375 -4.691406 C 1357.445312 -4.691406 1330.234375 22.554688 1330.234375 56 C 1330.234375 22.554688 1303.078125 -4.691406 1269.566406 -4.691406 C 1303.089844 -4.691406 1330.234375 -31.996094 1330.234375 -65.429688 C 1330.246094 -31.996094 1357.46875 -4.691406 1390.984375 -4.691406 Z M 1390.984375 -4.691406 " fill-opacity="1" fill-rule="nonzero"/><path fill="#cdd3da" d="M 1750.992188 330.40625 C 1715.914062 330.40625 1687.492188 358.886719 1687.492188 393.894531 C 1687.492188 358.898438 1659.070312 330.40625 1624.003906 330.40625 C 1659.058594 330.40625 1687.492188 301.882812 1687.492188 266.882812 C 1687.492188 301.882812 1715.914062 330.40625 1750.992188 330.40625 Z M 1750.992188 330.40625 " fill-opacity="1" fill-rule="nonzero"/><path fill="#cdd3da" d="M 372.175781 416.734375 C 350.328125 416.734375 332.589844 434.507812 332.589844 456.332031 C 332.589844 434.507812 314.839844 416.734375 292.957031 416.734375 C 314.839844 416.734375 332.589844 398.90625 332.589844 377.105469 C 332.578125 398.917969 350.316406 416.734375 372.175781 416.734375 Z M 372.175781 416.734375 " fill-opacity="1" fill-rule="nonzero"/><path fill="#cdd3da" d="M 1957.1875 790.578125 C 1935.292969 790.578125 1917.554688 808.375 1917.554688 830.199219 C 1917.554688 808.375 1899.804688 790.578125 1877.945312 790.578125 C 1899.828125 790.578125 1917.554688 772.792969 1917.554688 750.945312 C 1917.566406 772.78125 1935.292969 790.578125 1957.1875 790.578125 Z M 1957.1875 790.578125 " fill-opacity="1" fill-rule="nonzero"/></svg>