<svg xmlns="http://www.w3.org/2000/svg" xmlns:xlink="http://www.w3.org/1999/xlink" width="3000" zoomAndPan="magnify" viewBox="0 0 2250 2250.000011" height="3000" preserveAspectRatio="xMidYMid meet" version="1.0"><defs><clipPath id="d636059685"><path d="M 269.441406 0 L 1980.929688 0 L 1980.929688 1925 L 269.441406 1925 Z M 269.441406 0 " clip-rule="nonzero"/></clipPath></defs><g clip-path=""><path fill="#000000" d="M 1792.707031 1174.128906 L 1980.921875 1346.746094 L 1812.398438 1139.5625 L 1806.582031 1132.417969 L 1794.917969 1133.738281 L 1568.628906 1159.417969 C 1563.027344 1113.789062 1549.234375 1073.480469 1528.609375 1038.410156 L 1692.851562 959.753906 L 1980.921875 1080.355469 L 1700.894531 921.039062 L 1694.289062 917.28125 L 1684.945312 920.5 L 1490.550781 987.332031 C 1412.15625 902.75 1284 860.417969 1138.339844 858.023438 L 1138.339844 0.707031 L 1112.03125 0.707031 L 1112.03125 858.023438 C 966.367188 860.417969 838.214844 902.75 759.820312 987.332031 L 565.433594 920.5 L 556.082031 917.28125 L 549.476562 921.039062 L 269.449219 1080.355469 L 557.519531 959.753906 L 721.761719 1038.410156 C 701.136719 1073.480469 687.34375 1113.789062 681.742188 1159.417969 L 455.453125 1133.738281 L 443.789062 1132.417969 L 437.96875 1139.5625 L 269.449219 1346.746094 L 457.664062 1174.128906 L 679.367188 1226.117188 C 681.117188 1264.546875 687.960938 1303.683594 699.265625 1342.253906 L 469.554688 1433.976562 L 458.429688 1438.417969 L 456.761719 1447.234375 L 415.015625 1667.808594 L 490.011719 1468.898438 L 724.605469 1411.441406 C 737.652344 1441.0625 753.257812 1469.828125 771.089844 1497.101562 L 570.261719 1657.890625 L 555.675781 1669.574219 L 564.011719 1683.03125 L 713.464844 1924.4375 L 606.03125 1682.070312 L 817.488281 1560.734375 L 810.664062 1550.714844 C 891.34375 1647.675781 1002.472656 1715.21875 1125.183594 1715.21875 C 1247.898438 1715.21875 1359.027344 1647.675781 1439.707031 1550.714844 L 1432.882812 1560.734375 L 1644.339844 1682.070312 L 1536.90625 1924.4375 L 1686.359375 1683.03125 L 1694.695312 1669.574219 L 1680.109375 1657.890625 L 1479.28125 1497.101562 C 1497.113281 1469.828125 1512.71875 1441.0625 1525.765625 1411.441406 L 1760.359375 1468.898438 L 1835.355469 1667.808594 L 1793.609375 1447.234375 L 1791.9375 1438.417969 L 1780.820312 1433.976562 L 1551.105469 1342.253906 C 1562.410156 1303.683594 1569.253906 1264.546875 1571.003906 1226.117188 L 1792.707031 1174.128906 " fill-opacity="1" fill-rule="nonzero"/></g><path fill="#ffffff" d="M 1364.949219 1534.417969 C 1343.355469 1597.929688 1279.027344 1633.511719 1221.273438 1613.882812 C 1163.515625 1594.253906 1134.199219 1526.863281 1155.792969 1463.34375 C 1177.390625 1399.839844 1241.71875 1364.257812 1299.472656 1383.886719 C 1357.230469 1403.503906 1386.539062 1470.902344 1364.949219 1534.417969 " fill-opacity="1" fill-rule="nonzero"/><path fill="#000000" d="M 1277.410156 1571.953125 C 1269.652344 1594.757812 1246.558594 1607.535156 1225.828125 1600.484375 C 1205.089844 1593.4375 1194.566406 1569.238281 1202.324219 1546.441406 C 1210.074219 1523.640625 1233.164062 1510.867188 1253.90625 1517.914062 C 1274.636719 1524.957031 1285.160156 1549.152344 1277.410156 1571.953125 " fill-opacity="1" fill-rule="nonzero"/><path fill="#ffffff" d="M 885.417969 1534.417969 C 907.015625 1597.929688 971.34375 1633.511719 1029.097656 1613.882812 C 1086.855469 1594.253906 1116.171875 1526.863281 1094.578125 1463.34375 C 1072.980469 1399.839844 1008.660156 1364.257812 950.898438 1383.886719 C 893.140625 1403.503906 863.824219 1470.902344 885.417969 1534.417969 " fill-opacity="1" fill-rule="nonzero"/><path fill="#000000" d="M 972.960938 1571.953125 C 980.71875 1594.757812 1003.808594 1607.535156 1024.542969 1600.484375 C 1045.28125 1593.4375 1055.804688 1569.238281 1048.046875 1546.441406 C 1040.296875 1523.640625 1017.207031 1510.867188 996.464844 1517.914062 C 975.734375 1524.957031 965.210938 1549.152344 972.960938 1571.953125 " fill-opacity="1" fill-rule="nonzero"/></svg>