<svg xmlns="http://www.w3.org/2000/svg" xmlns:xlink="http://www.w3.org/1999/xlink" width="3000" zoomAndPan="magnify" viewBox="0 0 2250 2250.000011" height="3000" preserveAspectRatio="xMidYMid meet" version="1.0"><defs><clipPath id="3b9be6f9ca"><path d="M 29.113281 49.160156 L 2221 49.160156 L 2221 1508 L 29.113281 1508 Z M 29.113281 49.160156 " clip-rule="nonzero"/></clipPath><clipPath id="0929188e77"><path d="M 752 342 L 1629 342 L 1629 2199.953125 L 752 2199.953125 Z M 752 342 " clip-rule="nonzero"/></clipPath></defs><g clip-path=""><path fill="#94b73d" d="M 2220.445312 1000.472656 C 2220.445312 908.925781 2169.152344 828.960938 2093.59375 788.703125 C 2107.382812 758.371094 2115.65625 724.179688 2115.65625 688.332031 C 2115.65625 555.976562 2008.109375 448.4375 1875.746094 448.4375 C 1869.679688 448.4375 1863.613281 448.988281 1858.097656 448.988281 C 1834.382812 340.898438 1738.417969 260.378906 1623.699219 260.378906 C 1601.640625 260.378906 1580.679688 263.136719 1560.273438 268.652344 C 1538.214844 158.90625 1441.148438 76.183594 1325.328125 76.183594 C 1255.285156 76.183594 1192.410156 105.964844 1148.289062 153.941406 C 1104.71875 91.074219 1031.917969 49.160156 949.191406 49.160156 C 827.855469 49.160156 728.03125 139.054688 711.484375 255.96875 C 671.777344 226.738281 622.691406 209.09375 569.191406 209.09375 C 436.828125 209.09375 329.28125 316.632812 329.28125 448.988281 C 329.28125 460.570312 330.382812 471.597656 331.488281 482.078125 C 211.257812 494.761719 117.496094 596.785156 117.496094 720.871094 C 117.496094 746.238281 121.359375 770.503906 129.078125 793.667969 C 68.964844 837.234375 29.804688 907.824219 29.804688 987.789062 C 29.804688 1111.875 124.117188 1214.449219 245.449219 1226.582031 C 243.246094 1239.820312 241.589844 1253.605469 241.589844 1267.945312 C 241.589844 1400.300781 349.136719 1507.839844 481.5 1507.839844 C 613.867188 1507.839844 721.414062 1400.300781 721.414062 1267.945312 C 721.414062 1267.394531 721.414062 1266.839844 721.414062 1266.289062 C 751.746094 1262.429688 779.320312 1250.847656 802.484375 1233.753906 C 814.066406 1318.128906 886.316406 1383.203125 974.007812 1383.203125 C 1034.125 1383.203125 1086.519531 1352.875 1117.957031 1306.546875 C 1149.390625 1341.292969 1195.167969 1362.800781 1245.910156 1362.800781 C 1329.738281 1362.800781 1399.78125 1303.238281 1415.777344 1223.824219 C 1430.117188 1227.6875 1445.558594 1229.890625 1461.554688 1229.890625 C 1470.378906 1229.890625 1479.753906 1229.339844 1488.027344 1227.6875 C 1516.152344 1316.476562 1593.917969 1382.652344 1688.78125 1393.683594 C 1731.246094 1462.066406 1806.804688 1507.289062 1892.84375 1507.289062 C 2025.207031 1507.289062 2132.753906 1399.75 2132.753906 1267.394531 C 2132.753906 1242.023438 2128.894531 1217.757812 2121.722656 1194.597656 C 2181.289062 1151.03125 2220.445312 1080.4375 2220.445312 1000.472656 Z M 2220.445312 1000.472656 " fill-opacity="1" fill-rule="nonzero"/></g><g clip-path=""><path fill="#592611" d="M 1137.808594 1149.375 C 1136.707031 1010.402344 1087.070312 874.734375 1092.585938 740.722656 C 1098.101562 601.75 1212.816406 544.945312 1324.222656 505.792969 C 1266.316406 481.527344 1158.769531 519.578125 1122.917969 571.96875 C 1111.890625 501.929688 1107.476562 398.804688 1067.765625 342 C 992.210938 528.402344 1036.332031 788.703125 1023.09375 989.445312 C 950.292969 905.066406 921.613281 669.03125 761.121094 681.164062 C 733.546875 776.019531 881.90625 869.773438 918.304688 958.5625 C 870.324219 960.214844 825.648438 972.898438 790.902344 1003.78125 C 930.4375 1009.296875 980.074219 1071.0625 992.761719 1203.421875 C 1002.6875 1310.410156 992.761719 1419.601562 986.695312 1527.140625 C 980.628906 1636.335938 959.117188 1731.742188 912.789062 1831.5625 C 889.074219 1882.300781 873.082031 1940.207031 842.746094 1988.734375 C 816.824219 2030.648438 771.601562 2067.597656 752.847656 2108.410156 C 827.855469 2118.335938 876.941406 2022.375 946.984375 2012.449219 C 943.675781 2080.28125 879.148438 2134.328125 873.632812 2199.957031 C 1005.445312 2181.757812 1063.90625 1984.324219 1136.707031 1898.292969 C 1233.222656 2012.449219 1271.277344 2068.703125 1378.824219 2063.1875 C 1347.941406 1947.375 1227.707031 1866.304688 1192.410156 1744.980469 C 1163.730469 1646.261719 1188 1524.9375 1183.035156 1421.257812 C 1176.417969 1292.210938 1190.757812 1250.847656 1319.261719 1200.113281 C 1420.742188 1159.851562 1519.460938 1122.351562 1628.664062 1140.550781 C 1627.558594 1066.101562 1486.921875 1084.851562 1432.875 1088.710938 C 1348.492188 1095.328125 1296.648438 1135.585938 1229.914062 1186.324219 C 1228.257812 1089.261719 1383.789062 1014.261719 1424.050781 930.988281 C 1273.484375 896.792969 1244.253906 1127.316406 1144.980469 1164.265625 Z M 1137.808594 1149.375 " fill-opacity="1" fill-rule="nonzero"/></g><path fill="#b5d06d" d="M 506.320312 626.015625 C 414.765625 518.476562 338.105469 703.773438 338.105469 703.773438 C 313.289062 774.363281 355.753906 783.738281 453.375 784.292969 C 557.058594 784.84375 602.835938 739.070312 506.320312 626.015625 Z M 506.320312 626.015625 " fill-opacity="1" fill-rule="nonzero"/><path fill="#b5d06d" d="M 315.492188 959.664062 C 243.246094 875.285156 183.128906 1020.878906 183.128906 1020.878906 C 163.824219 1076.578125 197.46875 1083.75 274.128906 1084.300781 C 355.753906 1084.851562 392.15625 1049.003906 315.492188 959.664062 Z M 315.492188 959.664062 " fill-opacity="1" fill-rule="nonzero"/><path fill="#b5d06d" d="M 493.082031 1205.625 C 420.832031 1121.25 360.71875 1266.839844 360.71875 1266.839844 C 341.414062 1322.542969 375.058594 1329.710938 451.71875 1330.261719 C 533.894531 1331.363281 569.746094 1294.96875 493.082031 1205.625 Z M 493.082031 1205.625 " fill-opacity="1" fill-rule="nonzero"/><path fill="#b5d06d" d="M 905.070312 481.527344 C 878.597656 378.949219 766.085938 478.21875 766.085938 478.21875 C 726.375 517.371094 751.746094 537.777344 816.824219 570.867188 C 886.867188 605.609375 932.644531 590.167969 905.070312 481.527344 Z M 905.070312 481.527344 " fill-opacity="1" fill-rule="nonzero"/><path fill="#b5d06d" d="M 654.128906 367.917969 C 627.652344 265.34375 515.144531 364.609375 515.144531 364.609375 C 475.433594 403.765625 500.804688 424.171875 565.882812 457.261719 C 635.925781 492.003906 681.703125 476.011719 654.128906 367.917969 Z M 654.128906 367.917969 " fill-opacity="1" fill-rule="nonzero"/><path fill="#b5d06d" d="M 1034.125 262.585938 C 1007.652344 160.007812 895.140625 259.277344 895.140625 259.277344 C 855.433594 298.433594 880.800781 318.835938 945.882812 351.925781 C 1015.925781 386.671875 1062.253906 370.675781 1034.125 262.585938 Z M 1034.125 262.585938 " fill-opacity="1" fill-rule="nonzero"/><path fill="#b5d06d" d="M 517.902344 865.910156 C 406.496094 910.582031 534.445312 1022.53125 534.445312 1022.53125 C 584.085938 1061.6875 603.9375 1030.253906 630.964844 951.941406 C 659.640625 868.117188 635.375 819.035156 517.902344 865.910156 Z M 517.902344 865.910156 " fill-opacity="1" fill-rule="nonzero"/><path fill="#b5d06d" d="M 1809.011719 1163.714844 C 1697.605469 1208.382812 1825.554688 1320.335938 1825.554688 1320.335938 C 1875.195312 1359.492188 1895.046875 1328.054688 1922.074219 1249.746094 C 1951.304688 1166.472656 1927.035156 1116.835938 1809.011719 1163.714844 Z M 1809.011719 1163.714844 " fill-opacity="1" fill-rule="nonzero"/><path fill="#b5d06d" d="M 1864.714844 643.109375 C 1753.308594 687.78125 1881.261719 799.734375 1881.261719 799.734375 C 1930.898438 838.886719 1950.75 807.453125 1977.777344 729.144531 C 2007.007812 645.867188 1982.738281 596.234375 1864.714844 643.109375 Z M 1864.714844 643.109375 " fill-opacity="1" fill-rule="nonzero"/><path fill="#b5d06d" d="M 1610.464844 865.910156 C 1499.054688 910.582031 1627.007812 1022.53125 1627.007812 1022.53125 C 1676.644531 1061.6875 1696.5 1030.253906 1723.523438 951.941406 C 1752.753906 868.117188 1727.9375 819.035156 1610.464844 865.910156 Z M 1610.464844 865.910156 " fill-opacity="1" fill-rule="nonzero"/><path fill="#b5d06d" d="M 1225.503906 700.464844 C 1114.09375 745.136719 1242.046875 857.085938 1242.046875 857.085938 C 1291.683594 896.242188 1311.539062 864.808594 1338.5625 786.496094 C 1367.242188 703.222656 1342.976562 653.589844 1225.503906 700.464844 Z M 1225.503906 700.464844 " fill-opacity="1" fill-rule="nonzero"/><path fill="#b5d06d" d="M 1555.3125 547.152344 C 1443.90625 591.824219 1571.855469 703.773438 1571.855469 703.773438 C 1621.492188 742.929688 1641.347656 711.496094 1668.375 633.183594 C 1697.050781 549.910156 1672.785156 500.277344 1555.3125 547.152344 Z M 1555.3125 547.152344 " fill-opacity="1" fill-rule="nonzero"/><path fill="#b5d06d" d="M 1310.4375 259.828125 C 1199.027344 304.5 1326.980469 416.449219 1326.980469 416.449219 C 1376.617188 455.605469 1396.472656 424.171875 1423.5 345.859375 C 1452.175781 262.585938 1427.910156 212.953125 1310.4375 259.828125 Z M 1310.4375 259.828125 " fill-opacity="1" fill-rule="nonzero"/></svg>