<svg xmlns="http://www.w3.org/2000/svg" xmlns:xlink="http://www.w3.org/1999/xlink" width="3000" zoomAndPan="magnify" viewBox="0 0 2250 2250.000011" height="3000" preserveAspectRatio="xMidYMid meet" version="1.0"><defs><clipPath id="33b1f00d7c"><path d="M 453 1581 L 1856 1581 L 1856 2248.953125 L 453 2248.953125 Z M 453 1581 " clip-rule="nonzero"/></clipPath><clipPath id="44e16883ab"><path d="M 1160 1604 L 1856 1604 L 1856 2248.953125 L 1160 2248.953125 Z M 1160 1604 " clip-rule="nonzero"/></clipPath><clipPath id="c23e294ca5"><path d="M 453 1604 L 1149 1604 L 1149 2248.953125 L 453 2248.953125 Z M 453 1604 " clip-rule="nonzero"/></clipPath></defs><path fill="#fcc2ac" d="M 1571.832031 1351.015625 C 1571.832031 1353.472656 1571.878906 1355.929688 1571.96875 1358.382812 C 1572.0625 1360.839844 1572.199219 1363.289062 1572.378906 1365.734375 C 1572.5625 1368.179688 1572.789062 1370.621094 1573.0625 1373.050781 C 1573.335938 1375.480469 1573.652344 1377.902344 1574.015625 1380.3125 C 1574.375 1382.722656 1574.78125 1385.121094 1575.234375 1387.507812 C 1575.683594 1389.890625 1576.179688 1392.257812 1576.71875 1394.609375 C 1577.257812 1396.960938 1577.839844 1399.296875 1578.464844 1401.609375 C 1579.09375 1403.925781 1579.761719 1406.21875 1580.46875 1408.488281 C 1581.179688 1410.757812 1581.933594 1413.003906 1582.726562 1415.226562 C 1583.519531 1417.449219 1584.355469 1419.644531 1585.230469 1421.8125 C 1586.105469 1423.980469 1587.023438 1426.117188 1587.976562 1428.226562 C 1588.929688 1430.332031 1589.921875 1432.410156 1590.957031 1434.453125 C 1591.988281 1436.496094 1593.054688 1438.503906 1594.164062 1440.480469 C 1595.269531 1442.453125 1596.410156 1444.390625 1597.589844 1446.292969 C 1598.765625 1448.191406 1599.980469 1450.050781 1601.226562 1451.875 C 1602.472656 1453.695312 1603.753906 1455.472656 1605.066406 1457.210938 C 1606.378906 1458.949219 1607.722656 1460.644531 1609.097656 1462.296875 C 1610.476562 1463.945312 1611.882812 1465.550781 1613.316406 1467.109375 C 1614.75 1468.667969 1616.214844 1470.179688 1617.707031 1471.644531 C 1619.199219 1473.109375 1620.714844 1474.523438 1622.257812 1475.890625 C 1623.804688 1477.253906 1625.371094 1478.570312 1626.964844 1479.832031 C 1628.558594 1481.097656 1630.171875 1482.308594 1631.808594 1483.464844 C 1633.449219 1484.625 1635.105469 1485.730469 1636.785156 1486.78125 C 1638.464844 1487.832031 1640.160156 1488.828125 1641.875 1489.769531 C 1643.589844 1490.707031 1645.324219 1491.59375 1647.070312 1492.421875 C 1648.820312 1493.25 1650.582031 1494.019531 1652.359375 1494.734375 C 1654.136719 1495.445312 1655.925781 1496.101562 1657.726562 1496.699219 C 1659.527344 1497.296875 1661.339844 1497.835938 1663.160156 1498.316406 C 1664.980469 1498.792969 1666.8125 1499.214844 1668.648438 1499.574219 C 1670.484375 1499.9375 1672.328125 1500.238281 1674.175781 1500.476562 C 1676.023438 1500.71875 1677.875 1500.898438 1679.726562 1501.019531 C 1681.582031 1501.140625 1683.4375 1501.199219 1685.296875 1501.199219 C 1687.152344 1501.199219 1689.007812 1501.140625 1690.863281 1501.019531 C 1692.71875 1500.898438 1694.570312 1500.71875 1696.417969 1500.476562 C 1698.265625 1500.238281 1700.105469 1499.9375 1701.945312 1499.574219 C 1703.78125 1499.214844 1705.609375 1498.792969 1707.429688 1498.316406 C 1709.253906 1497.835938 1711.0625 1497.296875 1712.863281 1496.699219 C 1714.664062 1496.101562 1716.457031 1495.445312 1718.230469 1494.734375 C 1720.007812 1494.019531 1721.773438 1493.25 1723.519531 1492.421875 C 1725.269531 1491.59375 1727 1490.707031 1728.714844 1489.769531 C 1730.429688 1488.828125 1732.128906 1487.832031 1733.808594 1486.78125 C 1735.484375 1485.730469 1737.144531 1484.625 1738.78125 1483.464844 C 1740.417969 1482.308594 1742.035156 1481.097656 1743.625 1479.832031 C 1745.21875 1478.570312 1746.789062 1477.253906 1748.332031 1475.890625 C 1749.875 1474.523438 1751.394531 1473.109375 1752.886719 1471.644531 C 1754.375 1470.179688 1755.839844 1468.667969 1757.273438 1467.109375 C 1758.710938 1465.550781 1760.117188 1463.945312 1761.492188 1462.292969 C 1762.867188 1460.644531 1764.210938 1458.949219 1765.527344 1457.210938 C 1766.839844 1455.472656 1768.117188 1453.695312 1769.367188 1451.871094 C 1770.613281 1450.050781 1771.824219 1448.191406 1773.003906 1446.292969 C 1774.179688 1444.390625 1775.324219 1442.453125 1776.429688 1440.480469 C 1777.535156 1438.503906 1778.605469 1436.496094 1779.636719 1434.453125 C 1780.667969 1432.410156 1781.660156 1430.332031 1782.617188 1428.226562 C 1783.570312 1426.117188 1784.484375 1423.980469 1785.359375 1421.8125 C 1786.234375 1419.644531 1787.070312 1417.449219 1787.863281 1415.226562 C 1788.65625 1413.003906 1789.410156 1410.757812 1790.121094 1408.488281 C 1790.832031 1406.214844 1791.5 1403.925781 1792.125 1401.609375 C 1792.75 1399.296875 1793.332031 1396.960938 1793.871094 1394.609375 C 1794.410156 1392.257812 1794.90625 1389.890625 1795.355469 1387.503906 C 1795.808594 1385.121094 1796.214844 1382.722656 1796.578125 1380.3125 C 1796.941406 1377.902344 1797.257812 1375.480469 1797.53125 1373.050781 C 1797.800781 1370.621094 1798.03125 1368.179688 1798.210938 1365.734375 C 1798.394531 1363.289062 1798.53125 1360.835938 1798.621094 1358.382812 C 1798.710938 1355.929688 1798.757812 1353.472656 1798.757812 1351.011719 C 1798.757812 1348.554688 1798.710938 1346.097656 1798.621094 1343.644531 C 1798.53125 1341.1875 1798.394531 1338.738281 1798.210938 1336.292969 C 1798.03125 1333.847656 1797.800781 1331.40625 1797.53125 1328.976562 C 1797.257812 1326.546875 1796.941406 1324.125 1796.578125 1321.714844 C 1796.214844 1319.304688 1795.808594 1316.90625 1795.359375 1314.519531 C 1794.90625 1312.136719 1794.410156 1309.769531 1793.871094 1307.417969 C 1793.332031 1305.066406 1792.75 1302.730469 1792.125 1300.417969 C 1791.5 1298.101562 1790.832031 1295.808594 1790.121094 1293.539062 C 1789.410156 1291.269531 1788.660156 1289.023438 1787.863281 1286.800781 C 1787.070312 1284.578125 1786.234375 1282.382812 1785.359375 1280.214844 C 1784.484375 1278.046875 1783.570312 1275.910156 1782.617188 1273.800781 C 1781.660156 1271.695312 1780.667969 1269.617188 1779.636719 1267.574219 C 1778.605469 1265.53125 1777.535156 1263.523438 1776.429688 1261.546875 C 1775.324219 1259.574219 1774.179688 1257.636719 1773.003906 1255.734375 C 1771.824219 1253.835938 1770.613281 1251.976562 1769.367188 1250.15625 C 1768.117188 1248.332031 1766.839844 1246.554688 1765.523438 1244.816406 C 1764.210938 1243.078125 1762.867188 1241.382812 1761.492188 1239.734375 C 1760.117188 1238.082031 1758.710938 1236.476562 1757.273438 1234.917969 C 1755.839844 1233.359375 1754.375 1231.847656 1752.886719 1230.382812 C 1751.394531 1228.917969 1749.875 1227.503906 1748.332031 1226.136719 C 1746.789062 1224.773438 1745.21875 1223.457031 1743.625 1222.195312 C 1742.035156 1220.929688 1740.417969 1219.71875 1738.78125 1218.5625 C 1737.144531 1217.402344 1735.484375 1216.296875 1733.808594 1215.246094 C 1732.128906 1214.195312 1730.429688 1213.199219 1728.714844 1212.257812 C 1727 1211.320312 1725.269531 1210.433594 1723.519531 1209.605469 C 1721.773438 1208.777344 1720.007812 1208.007812 1718.230469 1207.292969 C 1716.457031 1206.582031 1714.664062 1205.925781 1712.863281 1205.328125 C 1711.0625 1204.730469 1709.253906 1204.191406 1707.429688 1203.710938 C 1705.609375 1203.234375 1703.78125 1202.8125 1701.945312 1202.453125 C 1700.105469 1202.089844 1698.265625 1201.789062 1696.417969 1201.550781 C 1694.570312 1201.308594 1692.71875 1201.128906 1690.863281 1201.007812 C 1689.007812 1200.886719 1687.152344 1200.828125 1685.296875 1200.828125 C 1683.4375 1200.828125 1681.582031 1200.886719 1679.726562 1201.007812 C 1677.875 1201.128906 1676.023438 1201.308594 1674.175781 1201.550781 C 1672.328125 1201.789062 1670.484375 1202.089844 1668.648438 1202.453125 C 1666.8125 1202.8125 1664.980469 1203.234375 1663.160156 1203.710938 C 1661.339844 1204.191406 1659.527344 1204.730469 1657.726562 1205.328125 C 1655.925781 1205.925781 1654.136719 1206.582031 1652.359375 1207.292969 C 1650.582031 1208.007812 1648.820312 1208.777344 1647.070312 1209.605469 C 1645.324219 1210.433594 1643.589844 1211.320312 1641.875 1212.257812 C 1640.160156 1213.199219 1638.464844 1214.195312 1636.785156 1215.246094 C 1635.105469 1216.296875 1633.449219 1217.402344 1631.808594 1218.5625 C 1630.171875 1219.71875 1628.558594 1220.929688 1626.964844 1222.195312 C 1625.371094 1223.457031 1623.804688 1224.773438 1622.257812 1226.136719 C 1620.714844 1227.503906 1619.199219 1228.917969 1617.707031 1230.382812 C 1616.214844 1231.847656 1614.75 1233.359375 1613.316406 1234.917969 C 1611.882812 1236.476562 1610.476562 1238.082031 1609.097656 1239.734375 C 1607.722656 1241.382812 1606.378906 1243.078125 1605.066406 1244.816406 C 1603.753906 1246.554688 1602.472656 1248.332031 1601.226562 1250.15625 C 1599.980469 1251.976562 1598.765625 1253.835938 1597.589844 1255.734375 C 1596.410156 1257.636719 1595.269531 1259.574219 1594.164062 1261.546875 C 1593.054688 1263.523438 1591.988281 1265.53125 1590.957031 1267.574219 C 1589.921875 1269.617188 1588.929688 1271.695312 1587.976562 1273.800781 C 1587.023438 1275.910156 1586.105469 1278.046875 1585.230469 1280.214844 C 1584.355469 1282.382812 1583.519531 1284.578125 1582.726562 1286.800781 C 1581.933594 1289.023438 1581.179688 1291.269531 1580.46875 1293.539062 C 1579.761719 1295.808594 1579.09375 1298.101562 1578.464844 1300.417969 C 1577.839844 1302.730469 1577.257812 1305.066406 1576.71875 1307.417969 C 1576.179688 1309.769531 1575.683594 1312.136719 1575.234375 1314.519531 C 1574.78125 1316.90625 1574.375 1319.300781 1574.015625 1321.714844 C 1573.652344 1324.125 1573.335938 1326.546875 1573.0625 1328.976562 C 1572.789062 1331.40625 1572.5625 1333.847656 1572.378906 1336.292969 C 1572.199219 1338.738281 1572.0625 1341.1875 1571.96875 1343.644531 C 1571.878906 1346.097656 1571.832031 1348.554688 1571.832031 1351.011719 Z M 1571.832031 1351.015625 " fill-opacity="1" fill-rule="evenodd"/><path fill="#f3b493" d="M 1725.007812 1291.605469 L 1719 1296.945312 C 1744.046875 1325.128906 1749.25 1345.78125 1745.703125 1363.328125 C 1742.15625 1380.871094 1729.183594 1396.101562 1715.628906 1411.796875 L 1721.707031 1417.054688 C 1735.257812 1401.367188 1749.476562 1385.242188 1753.585938 1364.917969 C 1757.691406 1344.589844 1751.007812 1320.859375 1725.007812 1291.605469 Z M 1725.007812 1291.605469 " fill-opacity="1" fill-rule="nonzero"/><path fill="#fcc2ac" d="M 740.890625 1351.015625 C 740.890625 1353.472656 740.84375 1355.929688 740.753906 1358.382812 C 740.664062 1360.839844 740.527344 1363.289062 740.34375 1365.734375 C 740.160156 1368.179688 739.933594 1370.621094 739.664062 1373.050781 C 739.390625 1375.480469 739.074219 1377.902344 738.710938 1380.3125 C 738.347656 1382.722656 737.941406 1385.121094 737.488281 1387.507812 C 737.039062 1389.890625 736.542969 1392.257812 736.003906 1394.609375 C 735.464844 1396.960938 734.882812 1399.296875 734.257812 1401.609375 C 733.632812 1403.925781 732.964844 1406.21875 732.253906 1408.488281 C 731.542969 1410.757812 730.789062 1413.003906 729.996094 1415.226562 C 729.203125 1417.449219 728.367188 1419.644531 727.492188 1421.8125 C 726.617188 1423.980469 725.703125 1426.117188 724.746094 1428.226562 C 723.792969 1430.332031 722.800781 1432.410156 721.769531 1434.453125 C 720.738281 1436.496094 719.667969 1438.503906 718.5625 1440.480469 C 717.457031 1442.453125 716.3125 1444.390625 715.136719 1446.292969 C 713.957031 1448.191406 712.746094 1450.050781 711.5 1451.875 C 710.25 1453.695312 708.972656 1455.472656 707.65625 1457.210938 C 706.34375 1458.949219 705 1460.644531 703.625 1462.296875 C 702.25 1463.945312 700.84375 1465.550781 699.40625 1467.109375 C 697.972656 1468.667969 696.507812 1470.179688 695.019531 1471.644531 C 693.527344 1473.109375 692.007812 1474.523438 690.464844 1475.890625 C 688.921875 1477.253906 687.351562 1478.570312 685.757812 1479.832031 C 684.167969 1481.097656 682.550781 1482.308594 680.914062 1483.464844 C 679.277344 1484.625 677.617188 1485.730469 675.941406 1486.78125 C 674.261719 1487.832031 672.5625 1488.828125 670.847656 1489.769531 C 669.132812 1490.707031 667.402344 1491.59375 665.652344 1492.421875 C 663.902344 1493.25 662.140625 1494.019531 660.363281 1494.734375 C 658.585938 1495.445312 656.796875 1496.101562 654.996094 1496.699219 C 653.195312 1497.296875 651.386719 1497.835938 649.5625 1498.316406 C 647.742188 1498.792969 645.914062 1499.214844 644.078125 1499.574219 C 642.238281 1499.9375 640.398438 1500.238281 638.550781 1500.476562 C 636.703125 1500.71875 634.851562 1500.898438 632.996094 1501.019531 C 631.140625 1501.140625 629.285156 1501.199219 627.429688 1501.199219 C 625.570312 1501.199219 623.714844 1501.140625 621.859375 1501.019531 C 620.007812 1500.898438 618.15625 1500.71875 616.308594 1500.476562 C 614.460938 1500.238281 612.617188 1499.9375 610.78125 1499.574219 C 608.941406 1499.214844 607.113281 1498.792969 605.292969 1498.316406 C 603.472656 1497.835938 601.660156 1497.296875 599.859375 1496.699219 C 598.058594 1496.101562 596.269531 1495.445312 594.492188 1494.734375 C 592.714844 1494.019531 590.953125 1493.25 589.203125 1492.421875 C 587.457031 1491.59375 585.722656 1490.707031 584.007812 1489.769531 C 582.292969 1488.828125 580.59375 1487.832031 578.917969 1486.78125 C 577.238281 1485.730469 575.582031 1484.625 573.941406 1483.464844 C 572.304688 1482.308594 570.691406 1481.097656 569.097656 1479.832031 C 567.503906 1478.570312 565.9375 1477.253906 564.390625 1475.890625 C 562.847656 1474.523438 561.332031 1473.109375 559.839844 1471.644531 C 558.347656 1470.179688 556.882812 1468.667969 555.449219 1467.109375 C 554.011719 1465.550781 552.609375 1463.945312 551.230469 1462.296875 C 549.855469 1460.644531 548.511719 1458.949219 547.199219 1457.210938 C 545.886719 1455.472656 544.605469 1453.695312 543.359375 1451.875 C 542.113281 1450.050781 540.898438 1448.191406 539.722656 1446.292969 C 538.542969 1444.390625 537.402344 1442.453125 536.292969 1440.480469 C 535.1875 1438.503906 534.121094 1436.496094 533.089844 1434.453125 C 532.054688 1432.410156 531.0625 1430.332031 530.109375 1428.226562 C 529.152344 1426.117188 528.238281 1423.980469 527.363281 1421.8125 C 526.488281 1419.644531 525.652344 1417.449219 524.859375 1415.226562 C 524.066406 1413.003906 523.3125 1410.757812 522.601562 1408.488281 C 521.890625 1406.21875 521.222656 1403.925781 520.597656 1401.609375 C 519.972656 1399.296875 519.390625 1396.960938 518.851562 1394.609375 C 518.3125 1392.257812 517.816406 1389.890625 517.367188 1387.507812 C 516.914062 1385.121094 516.507812 1382.722656 516.144531 1380.3125 C 515.785156 1377.902344 515.464844 1375.480469 515.195312 1373.050781 C 514.921875 1370.621094 514.695312 1368.179688 514.511719 1365.734375 C 514.332031 1363.289062 514.195312 1360.835938 514.101562 1358.382812 C 514.011719 1355.929688 513.964844 1353.472656 513.964844 1351.011719 C 513.964844 1348.554688 514.011719 1346.097656 514.101562 1343.644531 C 514.195312 1341.1875 514.332031 1338.738281 514.511719 1336.292969 C 514.695312 1333.847656 514.921875 1331.40625 515.195312 1328.976562 C 515.464844 1326.546875 515.785156 1324.125 516.144531 1321.714844 C 516.507812 1319.300781 516.914062 1316.90625 517.367188 1314.519531 C 517.816406 1312.136719 518.3125 1309.769531 518.851562 1307.417969 C 519.390625 1305.066406 519.972656 1302.730469 520.597656 1300.417969 C 521.222656 1298.101562 521.890625 1295.808594 522.601562 1293.539062 C 523.3125 1291.269531 524.066406 1289.023438 524.859375 1286.800781 C 525.652344 1284.578125 526.488281 1282.382812 527.363281 1280.214844 C 528.238281 1278.046875 529.152344 1275.910156 530.109375 1273.800781 C 531.0625 1271.695312 532.054688 1269.617188 533.089844 1267.574219 C 534.121094 1265.53125 535.1875 1263.523438 536.292969 1261.546875 C 537.402344 1259.574219 538.542969 1257.636719 539.722656 1255.734375 C 540.898438 1253.835938 542.113281 1251.976562 543.359375 1250.15625 C 544.605469 1248.332031 545.886719 1246.554688 547.199219 1244.816406 C 548.511719 1243.078125 549.855469 1241.382812 551.230469 1239.734375 C 552.609375 1238.082031 554.011719 1236.476562 555.449219 1234.917969 C 556.882812 1233.359375 558.347656 1231.847656 559.839844 1230.382812 C 561.332031 1228.917969 562.847656 1227.503906 564.390625 1226.136719 C 565.9375 1224.773438 567.503906 1223.457031 569.097656 1222.195312 C 570.691406 1220.929688 572.304688 1219.71875 573.941406 1218.5625 C 575.582031 1217.402344 577.238281 1216.296875 578.917969 1215.246094 C 580.59375 1214.195312 582.292969 1213.199219 584.007812 1212.257812 C 585.722656 1211.320312 587.457031 1210.433594 589.203125 1209.605469 C 590.953125 1208.777344 592.714844 1208.007812 594.492188 1207.292969 C 596.269531 1206.582031 598.058594 1205.925781 599.859375 1205.328125 C 601.660156 1204.730469 603.472656 1204.191406 605.292969 1203.710938 C 607.113281 1203.234375 608.941406 1202.8125 610.78125 1202.453125 C 612.617188 1202.089844 614.460938 1201.789062 616.308594 1201.550781 C 618.15625 1201.308594 620.007812 1201.128906 621.859375 1201.007812 C 623.714844 1200.886719 625.570312 1200.828125 627.429688 1200.828125 C 629.285156 1200.828125 631.140625 1200.886719 632.996094 1201.007812 C 634.851562 1201.128906 636.703125 1201.308594 638.550781 1201.550781 C 640.398438 1201.789062 642.238281 1202.089844 644.078125 1202.453125 C 645.914062 1202.8125 647.742188 1203.234375 649.5625 1203.710938 C 651.386719 1204.191406 653.195312 1204.730469 654.996094 1205.328125 C 656.796875 1205.925781 658.585938 1206.582031 660.363281 1207.292969 C 662.140625 1208.007812 663.902344 1208.777344 665.652344 1209.605469 C 667.402344 1210.433594 669.132812 1211.320312 670.847656 1212.257812 C 672.5625 1213.199219 674.261719 1214.195312 675.941406 1215.246094 C 677.617188 1216.296875 679.277344 1217.402344 680.914062 1218.5625 C 682.550781 1219.71875 684.167969 1220.929688 685.757812 1222.195312 C 687.351562 1223.457031 688.921875 1224.773438 690.464844 1226.136719 C 692.007812 1227.503906 693.527344 1228.917969 695.019531 1230.382812 C 696.507812 1231.847656 697.972656 1233.359375 699.40625 1234.917969 C 700.84375 1236.476562 702.25 1238.082031 703.625 1239.734375 C 705 1241.382812 706.34375 1243.078125 707.65625 1244.816406 C 708.972656 1246.554688 710.25 1248.332031 711.5 1250.15625 C 712.746094 1251.976562 713.957031 1253.835938 715.136719 1255.734375 C 716.3125 1257.636719 717.457031 1259.574219 718.5625 1261.546875 C 719.667969 1263.523438 720.738281 1265.53125 721.769531 1267.574219 C 722.800781 1269.617188 723.792969 1271.695312 724.746094 1273.800781 C 725.703125 1275.910156 726.617188 1278.046875 727.492188 1280.214844 C 728.367188 1282.382812 729.203125 1284.578125 729.996094 1286.800781 C 730.789062 1289.023438 731.542969 1291.269531 732.253906 1293.539062 C 732.964844 1295.808594 733.632812 1298.101562 734.257812 1300.417969 C 734.882812 1302.730469 735.464844 1305.066406 736.003906 1307.417969 C 736.542969 1309.769531 737.039062 1312.136719 737.488281 1314.519531 C 737.941406 1316.90625 738.347656 1319.300781 738.710938 1321.714844 C 739.074219 1324.125 739.390625 1326.546875 739.664062 1328.976562 C 739.933594 1331.40625 740.160156 1333.847656 740.34375 1336.292969 C 740.527344 1338.738281 740.664062 1341.1875 740.753906 1343.644531 C 740.84375 1346.097656 740.890625 1348.554688 740.890625 1351.011719 Z M 740.890625 1351.015625 " fill-opacity="1" fill-rule="evenodd"/><g clip-path=""><path fill="#ffb380" d="M 1154.4375 1581.304688 C 966.636719 1581.398438 794.8125 1658.582031 667.929688 1785.273438 C 549.21875 1903.804688 469.84375 2065.675781 453.527344 2248.316406 L 1855.65625 2248.316406 C 1821.886719 1870.339844 1518.058594 1581.332031 1154.4375 1581.304688 Z M 1154.4375 1581.304688 " fill-opacity="1" fill-rule="evenodd"/></g><path fill="#ff9955" d="M 920.769531 1824.566406 C 971.4375 1598.53125 920.324219 1843.230469 915.4375 1867.230469 C 1050.660156 1940.757812 1209.863281 1946.390625 1419.363281 1875.230469 L 1414.226562 1747.65625 C 1249.742188 1773.292969 1364.742188 541.097656 920.769531 1824.566406 Z M 920.769531 1824.566406 " fill-opacity="1" fill-rule="nonzero"/><g clip-path=""><path fill="#aa0000" d="M 1362.234375 1613.902344 C 1434.289062 1613.941406 1296.515625 1592.726562 1362.234375 1613.902344 C 1467.789062 1647.917969 1563.054688 1707.195312 1641.253906 1785.273438 C 1759.964844 1903.804688 1839.339844 2065.675781 1855.65625 2248.316406 L 1160.75 2248.316406 L 1312.011719 2248.316406 Z M 1362.234375 1613.902344 " fill-opacity="1" fill-rule="evenodd"/></g><g clip-path=""><path fill="#aa0000" d="M 946.953125 1613.902344 C 874.894531 1613.941406 1012.671875 1592.726562 946.953125 1613.902344 C 841.394531 1647.917969 746.128906 1707.195312 667.929688 1785.273438 C 549.21875 1903.804688 469.84375 2065.675781 453.527344 2248.316406 L 1148.4375 2248.316406 L 1019.652344 2248.316406 Z M 946.953125 1613.902344 " fill-opacity="1" fill-rule="evenodd"/></g><path fill="#fcc2ac" d="M 1688.765625 1274.476562 C 1688.765625 1608.140625 1467.367188 1878.625 1154.59375 1878.625 C 841.816406 1878.625 620.417969 1608.140625 620.417969 1274.476562 C 620.417969 940.8125 841.816406 670.328125 1154.59375 670.328125 C 1467.367188 670.328125 1688.765625 940.8125 1688.765625 1274.476562 Z M 1688.765625 1274.476562 " fill-opacity="1" fill-rule="evenodd"/><path fill="#000000" d="M 1193.753906 1464.054688 C 1191.675781 1483.34375 1193.257812 1503.09375 1184.484375 1516.671875 C 1180.101562 1523.460938 1173.234375 1529.074219 1161.207031 1532.882812 C 1149.175781 1536.695312 1132.011719 1538.527344 1107.863281 1537.238281 L 1107.4375 1545.261719 C 1132.1875 1546.582031 1150.226562 1544.796875 1163.632812 1540.550781 C 1177.035156 1536.300781 1185.828125 1529.410156 1191.238281 1521.035156 C 1202.0625 1504.28125 1199.792969 1483.042969 1201.746094 1464.921875 Z M 1193.753906 1464.054688 " fill-opacity="1" fill-rule="nonzero"/><path fill="#000000" d="M 969.058594 1326.394531 C 969.058594 1327.785156 969.039062 1329.175781 969.007812 1330.5625 C 968.972656 1331.953125 968.921875 1333.339844 968.851562 1334.722656 C 968.785156 1336.105469 968.699219 1337.484375 968.597656 1338.859375 C 968.496094 1340.234375 968.375 1341.605469 968.242188 1342.96875 C 968.105469 1344.332031 967.953125 1345.6875 967.785156 1347.039062 C 967.617188 1348.386719 967.429688 1349.726562 967.230469 1351.058594 C 967.027344 1352.386719 966.808594 1353.707031 966.574219 1355.015625 C 966.339844 1356.324219 966.089844 1357.621094 965.824219 1358.90625 C 965.558594 1360.191406 965.277344 1361.460938 964.980469 1362.71875 C 964.683594 1363.976562 964.371094 1365.21875 964.042969 1366.445312 C 963.714844 1367.671875 963.371094 1368.878906 963.015625 1370.070312 C 962.65625 1371.265625 962.285156 1372.4375 961.898438 1373.59375 C 961.511719 1374.75 961.113281 1375.886719 960.699219 1377.003906 C 960.285156 1378.121094 959.855469 1379.21875 959.417969 1380.292969 C 958.976562 1381.367188 958.519531 1382.417969 958.054688 1383.449219 C 957.585938 1384.480469 957.109375 1385.488281 956.617188 1386.46875 C 956.125 1387.453125 955.621094 1388.410156 955.105469 1389.34375 C 954.59375 1390.277344 954.066406 1391.1875 953.527344 1392.070312 C 952.992188 1392.949219 952.441406 1393.804688 951.886719 1394.632812 C 951.328125 1395.460938 950.757812 1396.261719 950.179688 1397.035156 C 949.601562 1397.808594 949.015625 1398.550781 948.417969 1399.265625 C 947.824219 1399.980469 947.21875 1400.667969 946.605469 1401.320312 C 945.992188 1401.976562 945.371094 1402.601562 944.742188 1403.195312 C 944.113281 1403.789062 943.480469 1404.355469 942.835938 1404.886719 C 942.195312 1405.417969 941.546875 1405.917969 940.890625 1406.386719 C 940.238281 1406.855469 939.578125 1407.292969 938.914062 1407.695312 C 938.246094 1408.097656 937.578125 1408.46875 936.902344 1408.808594 C 936.230469 1409.144531 935.550781 1409.449219 934.871094 1409.722656 C 934.1875 1409.992188 933.503906 1410.230469 932.816406 1410.433594 C 932.128906 1410.636719 931.4375 1410.808594 930.746094 1410.945312 C 930.054688 1411.082031 929.363281 1411.183594 928.667969 1411.25 C 927.972656 1411.320312 927.277344 1411.351562 926.582031 1411.351562 C 925.886719 1411.351562 925.191406 1411.320312 924.5 1411.25 C 923.804688 1411.183594 923.113281 1411.082031 922.417969 1410.945312 C 921.726562 1410.808594 921.039062 1410.636719 920.351562 1410.433594 C 919.664062 1410.230469 918.976562 1409.992188 918.296875 1409.722656 C 917.613281 1409.449219 916.9375 1409.144531 916.261719 1408.808594 C 915.589844 1408.46875 914.917969 1408.097656 914.253906 1407.695312 C 913.589844 1407.292969 912.929688 1406.855469 912.273438 1406.386719 C 911.617188 1405.917969 910.972656 1405.417969 910.328125 1404.886719 C 909.6875 1404.355469 909.050781 1403.789062 908.421875 1403.195312 C 907.792969 1402.601562 907.171875 1401.976562 906.5625 1401.320312 C 905.949219 1400.667969 905.34375 1399.980469 904.746094 1399.265625 C 904.148438 1398.550781 903.5625 1397.808594 902.984375 1397.035156 C 902.40625 1396.261719 901.839844 1395.460938 901.28125 1394.632812 C 900.722656 1393.804688 900.175781 1392.949219 899.636719 1392.070312 C 899.101562 1391.1875 898.574219 1390.277344 898.058594 1389.34375 C 897.542969 1388.410156 897.039062 1387.453125 896.546875 1386.46875 C 896.058594 1385.488281 895.578125 1384.480469 895.113281 1383.449219 C 894.644531 1382.417969 894.191406 1381.367188 893.75 1380.292969 C 893.308594 1379.21875 892.882812 1378.121094 892.46875 1377.003906 C 892.054688 1375.886719 891.652344 1374.75 891.265625 1373.59375 C 890.878906 1372.4375 890.507812 1371.265625 890.152344 1370.074219 C 889.792969 1368.878906 889.453125 1367.671875 889.125 1366.445312 C 888.796875 1365.21875 888.484375 1363.976562 888.1875 1362.71875 C 887.890625 1361.460938 887.609375 1360.191406 887.339844 1358.90625 C 887.074219 1357.621094 886.824219 1356.324219 886.589844 1355.015625 C 886.355469 1353.707031 886.140625 1352.386719 885.9375 1351.058594 C 885.734375 1349.726562 885.550781 1348.386719 885.382812 1347.039062 C 885.210938 1345.6875 885.058594 1344.332031 884.925781 1342.96875 C 884.789062 1341.605469 884.671875 1340.238281 884.566406 1338.859375 C 884.464844 1337.484375 884.382812 1336.105469 884.3125 1334.722656 C 884.246094 1333.339844 884.195312 1331.953125 884.160156 1330.5625 C 884.125 1329.175781 884.109375 1327.785156 884.109375 1326.394531 C 884.109375 1325.003906 884.125 1323.613281 884.160156 1322.226562 C 884.195312 1320.835938 884.246094 1319.453125 884.3125 1318.066406 C 884.382812 1316.683594 884.464844 1315.304688 884.566406 1313.929688 C 884.671875 1312.554688 884.789062 1311.183594 884.925781 1309.820312 C 885.058594 1308.457031 885.210938 1307.101562 885.382812 1305.75 C 885.550781 1304.402344 885.734375 1303.0625 885.9375 1301.734375 C 886.140625 1300.402344 886.355469 1299.082031 886.589844 1297.773438 C 886.824219 1296.464844 887.074219 1295.167969 887.339844 1293.882812 C 887.605469 1292.597656 887.890625 1291.328125 888.1875 1290.070312 C 888.484375 1288.8125 888.796875 1287.570312 889.125 1286.347656 C 889.453125 1285.121094 889.792969 1283.910156 890.152344 1282.71875 C 890.507812 1281.523438 890.878906 1280.351562 891.265625 1279.195312 C 891.652344 1278.039062 892.054688 1276.902344 892.46875 1275.785156 C 892.882812 1274.667969 893.308594 1273.574219 893.75 1272.496094 C 894.191406 1271.421875 894.644531 1270.371094 895.113281 1269.339844 C 895.578125 1268.308594 896.058594 1267.304688 896.550781 1266.320312 C 897.039062 1265.335938 897.542969 1264.378906 898.058594 1263.445312 C 898.574219 1262.511719 899.101562 1261.601562 899.636719 1260.722656 C 900.175781 1259.839844 900.722656 1258.984375 901.28125 1258.15625 C 901.839844 1257.328125 902.40625 1256.527344 902.984375 1255.753906 C 903.5625 1254.980469 904.148438 1254.238281 904.746094 1253.523438 C 905.34375 1252.808594 905.949219 1252.125 906.5625 1251.46875 C 907.171875 1250.8125 907.792969 1250.1875 908.421875 1249.59375 C 909.050781 1249 909.6875 1248.4375 910.328125 1247.902344 C 910.96875 1247.371094 911.617188 1246.871094 912.273438 1246.402344 C 912.929688 1245.933594 913.589844 1245.5 914.253906 1245.09375 C 914.917969 1244.691406 915.589844 1244.320312 916.261719 1243.984375 C 916.9375 1243.644531 917.613281 1243.339844 918.296875 1243.070312 C 918.976562 1242.796875 919.664062 1242.558594 920.351562 1242.355469 C 921.039062 1242.152344 921.726562 1241.980469 922.417969 1241.84375 C 923.113281 1241.710938 923.804688 1241.605469 924.5 1241.539062 C 925.191406 1241.46875 925.886719 1241.4375 926.582031 1241.4375 C 927.277344 1241.4375 927.972656 1241.46875 928.667969 1241.539062 C 929.359375 1241.605469 930.054688 1241.710938 930.746094 1241.84375 C 931.4375 1241.980469 932.128906 1242.152344 932.816406 1242.355469 C 933.503906 1242.558594 934.1875 1242.796875 934.871094 1243.070312 C 935.550781 1243.339844 936.230469 1243.644531 936.902344 1243.984375 C 937.578125 1244.320312 938.246094 1244.691406 938.914062 1245.09375 C 939.578125 1245.5 940.238281 1245.933594 940.890625 1246.402344 C 941.546875 1246.871094 942.195312 1247.371094 942.835938 1247.902344 C 943.480469 1248.4375 944.113281 1249 944.742188 1249.59375 C 945.371094 1250.1875 945.992188 1250.8125 946.605469 1251.46875 C 947.21875 1252.125 947.824219 1252.808594 948.417969 1253.523438 C 949.015625 1254.238281 949.601562 1254.980469 950.179688 1255.753906 C 950.757812 1256.527344 951.328125 1257.328125 951.886719 1258.15625 C 952.441406 1258.984375 952.992188 1259.839844 953.527344 1260.722656 C 954.066406 1261.601562 954.59375 1262.511719 955.105469 1263.445312 C 955.621094 1264.378906 956.125 1265.335938 956.617188 1266.320312 C 957.109375 1267.304688 957.585938 1268.308594 958.054688 1269.339844 C 958.519531 1270.371094 958.976562 1271.421875 959.417969 1272.496094 C 959.855469 1273.574219 960.285156 1274.667969 960.699219 1275.785156 C 961.113281 1276.902344 961.511719 1278.039062 961.898438 1279.195312 C 962.285156 1280.351562 962.65625 1281.523438 963.015625 1282.71875 C 963.371094 1283.910156 963.714844 1285.121094 964.042969 1286.347656 C 964.371094 1287.570312 964.683594 1288.8125 964.980469 1290.070312 C 965.277344 1291.328125 965.558594 1292.597656 965.824219 1293.882812 C 966.089844 1295.167969 966.339844 1296.464844 966.574219 1297.773438 C 966.808594 1299.082031 967.027344 1300.402344 967.230469 1301.734375 C 967.429688 1303.0625 967.617188 1304.402344 967.785156 1305.75 C 967.953125 1307.101562 968.105469 1308.457031 968.242188 1309.820312 C 968.375 1311.183594 968.496094 1312.554688 968.597656 1313.929688 C 968.699219 1315.304688 968.785156 1316.683594 968.851562 1318.066406 C 968.921875 1319.453125 968.972656 1320.835938 969.007812 1322.226562 C 969.039062 1323.613281 969.058594 1325.003906 969.058594 1326.394531 Z M 969.058594 1326.394531 " fill-opacity="1" fill-rule="evenodd"/><path fill="#ffffff" d="M 947.367188 1288.15625 C 947.367188 1288.964844 947.347656 1289.769531 947.304688 1290.570312 C 947.265625 1291.375 947.203125 1292.171875 947.121094 1292.960938 C 947.042969 1293.753906 946.941406 1294.535156 946.820312 1295.304688 C 946.699219 1296.078125 946.558594 1296.835938 946.398438 1297.582031 C 946.242188 1298.324219 946.0625 1299.054688 945.867188 1299.765625 C 945.671875 1300.476562 945.457031 1301.167969 945.226562 1301.835938 C 944.996094 1302.507812 944.75 1303.15625 944.484375 1303.777344 C 944.222656 1304.402344 943.941406 1305 943.648438 1305.570312 C 943.355469 1306.140625 943.046875 1306.679688 942.726562 1307.191406 C 942.40625 1307.703125 942.070312 1308.183594 941.726562 1308.632812 C 941.378906 1309.078125 941.023438 1309.492188 940.65625 1309.875 C 940.289062 1310.253906 939.914062 1310.597656 939.53125 1310.90625 C 939.148438 1311.214844 938.757812 1311.484375 938.359375 1311.71875 C 937.960938 1311.953125 937.558594 1312.148438 937.148438 1312.308594 C 936.742188 1312.464844 936.332031 1312.582031 935.917969 1312.660156 C 935.503906 1312.742188 935.089844 1312.78125 934.675781 1312.78125 C 934.257812 1312.78125 933.84375 1312.742188 933.429688 1312.660156 C 933.015625 1312.582031 932.605469 1312.464844 932.199219 1312.308594 C 931.789062 1312.148438 931.386719 1311.953125 930.988281 1311.71875 C 930.59375 1311.488281 930.199219 1311.214844 929.816406 1310.90625 C 929.433594 1310.597656 929.058594 1310.253906 928.691406 1309.875 C 928.324219 1309.492188 927.96875 1309.078125 927.621094 1308.632812 C 927.277344 1308.183594 926.945312 1307.703125 926.621094 1307.191406 C 926.300781 1306.679688 925.992188 1306.140625 925.699219 1305.570312 C 925.40625 1305 925.125 1304.402344 924.863281 1303.777344 C 924.597656 1303.15625 924.351562 1302.507812 924.121094 1301.835938 C 923.890625 1301.167969 923.675781 1300.476562 923.480469 1299.765625 C 923.285156 1299.054688 923.105469 1298.324219 922.949219 1297.582031 C 922.789062 1296.835938 922.648438 1296.078125 922.527344 1295.304688 C 922.40625 1294.535156 922.308594 1293.753906 922.226562 1292.960938 C 922.144531 1292.171875 922.082031 1291.375 922.042969 1290.570312 C 922.003906 1289.769531 921.980469 1288.964844 921.980469 1288.15625 C 921.980469 1287.351562 922.003906 1286.546875 922.042969 1285.746094 C 922.082031 1284.941406 922.144531 1284.144531 922.226562 1283.355469 C 922.308594 1282.5625 922.40625 1281.78125 922.527344 1281.011719 C 922.648438 1280.238281 922.789062 1279.480469 922.949219 1278.734375 C 923.105469 1277.992188 923.285156 1277.261719 923.480469 1276.550781 C 923.675781 1275.839844 923.890625 1275.148438 924.121094 1274.480469 C 924.351562 1273.808594 924.597656 1273.160156 924.863281 1272.539062 C 925.125 1271.914062 925.40625 1271.316406 925.699219 1270.746094 C 925.992188 1270.175781 926.300781 1269.636719 926.621094 1269.125 C 926.945312 1268.613281 927.277344 1268.132812 927.621094 1267.683594 C 927.96875 1267.238281 928.324219 1266.824219 928.691406 1266.441406 C 929.058594 1266.0625 929.433594 1265.71875 929.816406 1265.410156 C 930.203125 1265.101562 930.59375 1264.828125 930.988281 1264.597656 C 931.386719 1264.363281 931.789062 1264.164062 932.199219 1264.007812 C 932.605469 1263.851562 933.015625 1263.734375 933.429688 1263.652344 C 933.84375 1263.574219 934.257812 1263.535156 934.675781 1263.535156 C 935.089844 1263.535156 935.503906 1263.574219 935.917969 1263.652344 C 936.332031 1263.734375 936.742188 1263.851562 937.148438 1264.007812 C 937.558594 1264.164062 937.960938 1264.363281 938.359375 1264.597656 C 938.757812 1264.828125 939.148438 1265.101562 939.53125 1265.410156 C 939.914062 1265.71875 940.289062 1266.0625 940.65625 1266.441406 C 941.023438 1266.824219 941.378906 1267.238281 941.726562 1267.683594 C 942.070312 1268.132812 942.40625 1268.613281 942.726562 1269.125 C 943.046875 1269.636719 943.355469 1270.175781 943.648438 1270.746094 C 943.941406 1271.316406 944.222656 1271.914062 944.484375 1272.539062 C 944.75 1273.160156 944.996094 1273.808594 945.226562 1274.480469 C 945.457031 1275.148438 945.671875 1275.839844 945.867188 1276.550781 C 946.0625 1277.261719 946.242188 1277.992188 946.398438 1278.734375 C 946.558594 1279.480469 946.699219 1280.238281 946.820312 1281.011719 C 946.941406 1281.78125 947.042969 1282.5625 947.121094 1283.355469 C 947.203125 1284.144531 947.265625 1284.941406 947.304688 1285.746094 C 947.347656 1286.546875 947.367188 1287.351562 947.367188 1288.15625 Z M 947.367188 1288.15625 " fill-opacity="1" fill-rule="evenodd"/><path fill="#e6e6e6" d="M 914.191406 1134.273438 C 872.824219 1138.714844 850.136719 1156.964844 805.421875 1193.078125 L 804.414062 1215.515625 C 886.824219 1148.960938 950.867188 1153.882812 1024.03125 1181.035156 L 1034.59375 1152.550781 C 995.507812 1138.046875 955.5625 1129.828125 914.191406 1134.273438 Z M 914.191406 1134.273438 " fill-opacity="1" fill-rule="nonzero"/><path fill="#e6e6e6" d="M 1394.992188 1134.273438 C 1436.363281 1138.714844 1459.050781 1156.964844 1503.761719 1193.078125 L 1504.769531 1215.515625 C 1422.359375 1148.960938 1358.320312 1153.882812 1285.152344 1181.035156 L 1274.589844 1152.550781 C 1313.675781 1138.046875 1353.621094 1129.828125 1394.992188 1134.273438 Z M 1394.992188 1134.273438 " fill-opacity="1" fill-rule="nonzero"/><path fill="#000000" d="M 1432.15625 1326.394531 C 1432.15625 1327.785156 1432.140625 1329.175781 1432.105469 1330.5625 C 1432.070312 1331.953125 1432.019531 1333.339844 1431.953125 1334.722656 C 1431.882812 1336.105469 1431.796875 1337.484375 1431.695312 1338.859375 C 1431.59375 1340.234375 1431.476562 1341.605469 1431.339844 1342.96875 C 1431.203125 1344.332031 1431.050781 1345.6875 1430.882812 1347.039062 C 1430.714844 1348.386719 1430.527344 1349.726562 1430.328125 1351.058594 C 1430.125 1352.386719 1429.90625 1353.707031 1429.671875 1355.015625 C 1429.4375 1356.324219 1429.1875 1357.621094 1428.921875 1358.90625 C 1428.65625 1360.191406 1428.375 1361.460938 1428.078125 1362.71875 C 1427.78125 1363.976562 1427.46875 1365.21875 1427.140625 1366.445312 C 1426.8125 1367.671875 1426.46875 1368.878906 1426.113281 1370.070312 C 1425.753906 1371.265625 1425.382812 1372.4375 1424.996094 1373.59375 C 1424.609375 1374.75 1424.210938 1375.886719 1423.796875 1377.003906 C 1423.382812 1378.121094 1422.957031 1379.21875 1422.515625 1380.292969 C 1422.074219 1381.367188 1421.621094 1382.417969 1421.152344 1383.449219 C 1420.6875 1384.480469 1420.207031 1385.488281 1419.714844 1386.46875 C 1419.222656 1387.453125 1418.71875 1388.410156 1418.203125 1389.34375 C 1417.691406 1390.277344 1417.164062 1391.1875 1416.625 1392.070312 C 1416.089844 1392.949219 1415.542969 1393.804688 1414.984375 1394.632812 C 1414.425781 1395.460938 1413.855469 1396.261719 1413.277344 1397.035156 C 1412.699219 1397.808594 1412.113281 1398.550781 1411.515625 1399.265625 C 1410.921875 1399.980469 1410.316406 1400.667969 1409.703125 1401.320312 C 1409.089844 1401.976562 1408.46875 1402.601562 1407.839844 1403.195312 C 1407.210938 1403.789062 1406.578125 1404.355469 1405.933594 1404.886719 C 1405.292969 1405.417969 1404.644531 1405.917969 1403.992188 1406.386719 C 1403.335938 1406.855469 1402.675781 1407.292969 1402.011719 1407.695312 C 1401.34375 1408.097656 1400.675781 1408.46875 1400 1408.808594 C 1399.328125 1409.144531 1398.648438 1409.449219 1397.96875 1409.722656 C 1397.285156 1409.992188 1396.601562 1410.230469 1395.914062 1410.433594 C 1395.226562 1410.636719 1394.535156 1410.808594 1393.84375 1410.945312 C 1393.152344 1411.082031 1392.460938 1411.183594 1391.765625 1411.25 C 1391.070312 1411.320312 1390.375 1411.351562 1389.679688 1411.351562 C 1388.984375 1411.351562 1388.292969 1411.320312 1387.597656 1411.25 C 1386.902344 1411.183594 1386.210938 1411.082031 1385.519531 1410.945312 C 1384.828125 1410.808594 1384.136719 1410.636719 1383.449219 1410.433594 C 1382.761719 1410.230469 1382.078125 1409.992188 1381.394531 1409.722656 C 1380.714844 1409.449219 1380.035156 1409.144531 1379.359375 1408.808594 C 1378.6875 1408.46875 1378.015625 1408.097656 1377.351562 1407.695312 C 1376.6875 1407.292969 1376.027344 1406.855469 1375.371094 1406.386719 C 1374.71875 1405.917969 1374.070312 1405.417969 1373.425781 1404.886719 C 1372.785156 1404.355469 1372.148438 1403.789062 1371.519531 1403.195312 C 1370.890625 1402.601562 1370.273438 1401.976562 1369.660156 1401.320312 C 1369.046875 1400.667969 1368.441406 1399.980469 1367.84375 1399.265625 C 1367.25 1398.550781 1366.660156 1397.808594 1366.082031 1397.035156 C 1365.503906 1396.261719 1364.9375 1395.460938 1364.378906 1394.632812 C 1363.820312 1393.804688 1363.273438 1392.949219 1362.734375 1392.070312 C 1362.199219 1391.1875 1361.671875 1390.277344 1361.15625 1389.34375 C 1360.640625 1388.410156 1360.140625 1387.453125 1359.648438 1386.46875 C 1359.15625 1385.488281 1358.675781 1384.480469 1358.210938 1383.449219 C 1357.742188 1382.417969 1357.289062 1381.367188 1356.847656 1380.292969 C 1356.40625 1379.21875 1355.980469 1378.121094 1355.566406 1377.003906 C 1355.152344 1375.886719 1354.75 1374.75 1354.363281 1373.59375 C 1353.980469 1372.4375 1353.605469 1371.265625 1353.25 1370.074219 C 1352.890625 1368.878906 1352.550781 1367.671875 1352.222656 1366.445312 C 1351.894531 1365.21875 1351.582031 1363.976562 1351.285156 1362.71875 C 1350.988281 1361.460938 1350.707031 1360.191406 1350.441406 1358.90625 C 1350.171875 1357.621094 1349.921875 1356.324219 1349.6875 1355.015625 C 1349.457031 1353.707031 1349.238281 1352.386719 1349.035156 1351.058594 C 1348.832031 1349.726562 1348.648438 1348.386719 1348.480469 1347.039062 C 1348.308594 1345.6875 1348.160156 1344.332031 1348.023438 1342.96875 C 1347.886719 1341.605469 1347.769531 1340.238281 1347.667969 1338.859375 C 1347.5625 1337.484375 1347.480469 1336.105469 1347.410156 1334.722656 C 1347.34375 1333.339844 1347.292969 1331.953125 1347.257812 1330.5625 C 1347.222656 1329.175781 1347.207031 1327.785156 1347.207031 1326.394531 C 1347.207031 1325.003906 1347.222656 1323.613281 1347.257812 1322.226562 C 1347.292969 1320.835938 1347.34375 1319.453125 1347.410156 1318.066406 C 1347.480469 1316.683594 1347.5625 1315.304688 1347.667969 1313.929688 C 1347.769531 1312.554688 1347.886719 1311.183594 1348.023438 1309.820312 C 1348.160156 1308.457031 1348.308594 1307.101562 1348.480469 1305.75 C 1348.648438 1304.402344 1348.832031 1303.0625 1349.035156 1301.734375 C 1349.238281 1300.402344 1349.457031 1299.082031 1349.6875 1297.773438 C 1349.921875 1296.464844 1350.171875 1295.167969 1350.441406 1293.882812 C 1350.707031 1292.597656 1350.988281 1291.328125 1351.285156 1290.070312 C 1351.582031 1288.8125 1351.894531 1287.570312 1352.222656 1286.347656 C 1352.550781 1285.121094 1352.890625 1283.910156 1353.25 1282.71875 C 1353.605469 1281.523438 1353.980469 1280.351562 1354.363281 1279.195312 C 1354.75 1278.039062 1355.152344 1276.902344 1355.566406 1275.785156 C 1355.980469 1274.667969 1356.40625 1273.574219 1356.847656 1272.496094 C 1357.289062 1271.421875 1357.742188 1270.371094 1358.210938 1269.339844 C 1358.675781 1268.308594 1359.15625 1267.304688 1359.648438 1266.320312 C 1360.140625 1265.335938 1360.640625 1264.378906 1361.15625 1263.445312 C 1361.671875 1262.511719 1362.199219 1261.601562 1362.734375 1260.722656 C 1363.273438 1259.839844 1363.820312 1258.984375 1364.378906 1258.15625 C 1364.9375 1257.328125 1365.503906 1256.527344 1366.082031 1255.753906 C 1366.660156 1254.980469 1367.25 1254.238281 1367.84375 1253.523438 C 1368.441406 1252.808594 1369.046875 1252.125 1369.660156 1251.46875 C 1370.273438 1250.8125 1370.894531 1250.1875 1371.519531 1249.59375 C 1372.148438 1249 1372.785156 1248.4375 1373.425781 1247.902344 C 1374.070312 1247.371094 1374.71875 1246.871094 1375.371094 1246.402344 C 1376.027344 1245.933594 1376.6875 1245.5 1377.351562 1245.09375 C 1378.015625 1244.691406 1378.6875 1244.320312 1379.359375 1243.984375 C 1380.035156 1243.644531 1380.714844 1243.339844 1381.394531 1243.070312 C 1382.078125 1242.796875 1382.761719 1242.558594 1383.449219 1242.355469 C 1384.136719 1242.152344 1384.828125 1241.980469 1385.519531 1241.847656 C 1386.210938 1241.710938 1386.902344 1241.605469 1387.597656 1241.539062 C 1388.292969 1241.46875 1388.984375 1241.4375 1389.679688 1241.4375 C 1390.375 1241.4375 1391.070312 1241.46875 1391.765625 1241.539062 C 1392.460938 1241.605469 1393.152344 1241.710938 1393.84375 1241.84375 C 1394.535156 1241.980469 1395.226562 1242.152344 1395.914062 1242.355469 C 1396.601562 1242.558594 1397.285156 1242.796875 1397.96875 1243.070312 C 1398.648438 1243.339844 1399.328125 1243.644531 1400 1243.984375 C 1400.675781 1244.320312 1401.34375 1244.691406 1402.011719 1245.09375 C 1402.675781 1245.5 1403.335938 1245.933594 1403.992188 1246.402344 C 1404.644531 1246.871094 1405.292969 1247.371094 1405.9375 1247.902344 C 1406.578125 1248.4375 1407.214844 1249 1407.839844 1249.59375 C 1408.46875 1250.1875 1409.089844 1250.8125 1409.703125 1251.46875 C 1410.316406 1252.125 1410.921875 1252.808594 1411.515625 1253.523438 C 1412.113281 1254.238281 1412.699219 1254.980469 1413.277344 1255.753906 C 1413.855469 1256.527344 1414.425781 1257.328125 1414.984375 1258.15625 C 1415.542969 1258.984375 1416.089844 1259.839844 1416.628906 1260.722656 C 1417.164062 1261.601562 1417.691406 1262.511719 1418.207031 1263.445312 C 1418.71875 1264.378906 1419.222656 1265.335938 1419.714844 1266.320312 C 1420.207031 1267.304688 1420.6875 1268.308594 1421.152344 1269.339844 C 1421.621094 1270.371094 1422.074219 1271.421875 1422.515625 1272.496094 C 1422.957031 1273.574219 1423.382812 1274.667969 1423.796875 1275.785156 C 1424.210938 1276.902344 1424.613281 1278.039062 1424.996094 1279.195312 C 1425.382812 1280.351562 1425.753906 1281.523438 1426.113281 1282.71875 C 1426.46875 1283.910156 1426.8125 1285.121094 1427.140625 1286.347656 C 1427.46875 1287.570312 1427.78125 1288.8125 1428.078125 1290.070312 C 1428.375 1291.328125 1428.65625 1292.597656 1428.921875 1293.882812 C 1429.1875 1295.167969 1429.4375 1296.464844 1429.671875 1297.773438 C 1429.90625 1299.082031 1430.125 1300.402344 1430.328125 1301.734375 C 1430.527344 1303.0625 1430.714844 1304.402344 1430.882812 1305.75 C 1431.050781 1307.101562 1431.203125 1308.457031 1431.339844 1309.820312 C 1431.476562 1311.183594 1431.59375 1312.554688 1431.695312 1313.929688 C 1431.796875 1315.304688 1431.882812 1316.683594 1431.953125 1318.066406 C 1432.019531 1319.453125 1432.070312 1320.835938 1432.105469 1322.226562 C 1432.140625 1323.613281 1432.15625 1325.003906 1432.15625 1326.394531 Z M 1432.15625 1326.394531 " fill-opacity="1" fill-rule="evenodd"/><path fill="#ffffff" d="M 1410.464844 1288.15625 C 1410.464844 1288.964844 1410.445312 1289.769531 1410.402344 1290.570312 C 1410.363281 1291.375 1410.300781 1292.171875 1410.21875 1292.960938 C 1410.140625 1293.753906 1410.039062 1294.535156 1409.917969 1295.304688 C 1409.796875 1296.078125 1409.65625 1296.835938 1409.5 1297.582031 C 1409.339844 1298.324219 1409.160156 1299.054688 1408.964844 1299.765625 C 1408.769531 1300.476562 1408.554688 1301.167969 1408.324219 1301.835938 C 1408.09375 1302.507812 1407.847656 1303.15625 1407.582031 1303.777344 C 1407.320312 1304.402344 1407.039062 1305 1406.746094 1305.570312 C 1406.453125 1306.140625 1406.144531 1306.679688 1405.824219 1307.191406 C 1405.503906 1307.703125 1405.167969 1308.183594 1404.824219 1308.628906 C 1404.476562 1309.078125 1404.121094 1309.492188 1403.753906 1309.875 C 1403.386719 1310.253906 1403.011719 1310.597656 1402.628906 1310.90625 C 1402.246094 1311.214844 1401.855469 1311.484375 1401.457031 1311.71875 C 1401.058594 1311.953125 1400.65625 1312.148438 1400.25 1312.308594 C 1399.839844 1312.464844 1399.429688 1312.582031 1399.015625 1312.660156 C 1398.601562 1312.742188 1398.1875 1312.78125 1397.773438 1312.78125 C 1397.355469 1312.78125 1396.941406 1312.742188 1396.527344 1312.660156 C 1396.113281 1312.582031 1395.703125 1312.464844 1395.296875 1312.308594 C 1394.886719 1312.148438 1394.484375 1311.953125 1394.089844 1311.71875 C 1393.691406 1311.488281 1393.300781 1311.214844 1392.914062 1310.90625 C 1392.53125 1310.597656 1392.15625 1310.253906 1391.789062 1309.875 C 1391.421875 1309.492188 1391.066406 1309.078125 1390.722656 1308.632812 C 1390.375 1308.183594 1390.042969 1307.703125 1389.71875 1307.191406 C 1389.398438 1306.679688 1389.089844 1306.140625 1388.796875 1305.570312 C 1388.503906 1305 1388.226562 1304.402344 1387.960938 1303.777344 C 1387.699219 1303.15625 1387.449219 1302.507812 1387.21875 1301.835938 C 1386.988281 1301.167969 1386.773438 1300.476562 1386.578125 1299.765625 C 1386.382812 1299.054688 1386.207031 1298.324219 1386.046875 1297.582031 C 1385.886719 1296.835938 1385.746094 1296.078125 1385.625 1295.304688 C 1385.507812 1294.535156 1385.40625 1293.753906 1385.324219 1292.960938 C 1385.242188 1292.171875 1385.183594 1291.375 1385.140625 1290.570312 C 1385.101562 1289.769531 1385.082031 1288.964844 1385.082031 1288.15625 C 1385.082031 1287.351562 1385.101562 1286.546875 1385.140625 1285.746094 C 1385.183594 1284.941406 1385.242188 1284.144531 1385.324219 1283.355469 C 1385.40625 1282.5625 1385.507812 1281.78125 1385.628906 1281.011719 C 1385.746094 1280.238281 1385.886719 1279.480469 1386.046875 1278.734375 C 1386.207031 1277.992188 1386.382812 1277.261719 1386.578125 1276.550781 C 1386.773438 1275.839844 1386.988281 1275.148438 1387.21875 1274.480469 C 1387.449219 1273.808594 1387.699219 1273.160156 1387.960938 1272.539062 C 1388.226562 1271.914062 1388.503906 1271.316406 1388.796875 1270.746094 C 1389.089844 1270.175781 1389.398438 1269.636719 1389.71875 1269.125 C 1390.042969 1268.613281 1390.375 1268.132812 1390.722656 1267.683594 C 1391.066406 1267.238281 1391.421875 1266.824219 1391.789062 1266.441406 C 1392.15625 1266.0625 1392.53125 1265.71875 1392.914062 1265.410156 C 1393.300781 1265.101562 1393.691406 1264.828125 1394.089844 1264.597656 C 1394.484375 1264.363281 1394.886719 1264.164062 1395.296875 1264.007812 C 1395.703125 1263.851562 1396.113281 1263.734375 1396.527344 1263.652344 C 1396.941406 1263.574219 1397.355469 1263.535156 1397.773438 1263.535156 C 1398.1875 1263.535156 1398.601562 1263.574219 1399.015625 1263.652344 C 1399.429688 1263.734375 1399.839844 1263.851562 1400.25 1264.007812 C 1400.65625 1264.164062 1401.058594 1264.363281 1401.457031 1264.597656 C 1401.855469 1264.828125 1402.246094 1265.101562 1402.628906 1265.410156 C 1403.011719 1265.71875 1403.390625 1266.0625 1403.753906 1266.441406 C 1404.121094 1266.824219 1404.476562 1267.238281 1404.824219 1267.683594 C 1405.167969 1268.132812 1405.503906 1268.613281 1405.824219 1269.125 C 1406.144531 1269.636719 1406.453125 1270.175781 1406.746094 1270.746094 C 1407.039062 1271.316406 1407.320312 1271.914062 1407.582031 1272.539062 C 1407.847656 1273.160156 1408.09375 1273.808594 1408.324219 1274.480469 C 1408.554688 1275.148438 1408.769531 1275.839844 1408.964844 1276.550781 C 1409.160156 1277.261719 1409.339844 1277.992188 1409.5 1278.734375 C 1409.65625 1279.480469 1409.796875 1280.238281 1409.917969 1281.011719 C 1410.039062 1281.78125 1410.140625 1282.5625 1410.21875 1283.355469 C 1410.300781 1284.144531 1410.363281 1284.941406 1410.402344 1285.746094 C 1410.445312 1286.546875 1410.464844 1287.351562 1410.464844 1288.15625 Z M 1410.464844 1288.15625 " fill-opacity="1" fill-rule="evenodd"/><path fill="#000000" d="M 1294.660156 1682.421875 C 1203.8125 1730.039062 1104.3125 1736.640625 1014.957031 1682.542969 L 1010.792969 1689.417969 C 1102.667969 1745.042969 1205.667969 1738.148438 1298.394531 1689.542969 Z M 1294.660156 1682.421875 " fill-opacity="1" fill-rule="nonzero"/><path fill="#f3b493" d="M 930.09375 1510.761719 C 930.09375 1511.5 930.054688 1512.234375 929.976562 1512.972656 C 929.902344 1513.707031 929.789062 1514.445312 929.636719 1515.179688 C 929.480469 1515.910156 929.292969 1516.644531 929.0625 1517.371094 C 928.835938 1518.101562 928.570312 1518.828125 928.265625 1519.550781 C 927.960938 1520.273438 927.621094 1520.992188 927.242188 1521.710938 C 926.863281 1522.425781 926.449219 1523.136719 925.996094 1523.839844 C 925.546875 1524.546875 925.058594 1525.246094 924.53125 1525.941406 C 924.007812 1526.632812 923.449219 1527.324219 922.851562 1528.003906 C 922.257812 1528.683594 921.625 1529.359375 920.960938 1530.027344 C 920.296875 1530.691406 919.597656 1531.351562 918.863281 1532 C 918.128906 1532.652344 917.363281 1533.292969 916.5625 1533.925781 C 915.761719 1534.558594 914.929688 1535.179688 914.0625 1535.792969 C 913.199219 1536.40625 912.304688 1537.007812 911.375 1537.601562 C 910.449219 1538.195312 909.492188 1538.773438 908.503906 1539.34375 C 907.515625 1539.914062 906.5 1540.472656 905.453125 1541.019531 C 904.410156 1541.566406 903.335938 1542.097656 902.234375 1542.621094 C 901.136719 1543.140625 900.007812 1543.652344 898.855469 1544.144531 C 897.703125 1544.640625 896.523438 1545.121094 895.320312 1545.589844 C 894.117188 1546.058594 892.890625 1546.511719 891.640625 1546.949219 C 890.390625 1547.390625 889.117188 1547.816406 887.824219 1548.222656 C 886.53125 1548.632812 885.214844 1549.027344 883.878906 1549.40625 C 882.542969 1549.785156 881.191406 1550.148438 879.820312 1550.496094 C 878.445312 1550.84375 877.054688 1551.175781 875.648438 1551.492188 C 874.242188 1551.808594 872.820312 1552.105469 871.382812 1552.386719 C 869.941406 1552.671875 868.492188 1552.933594 867.027344 1553.183594 C 865.558594 1553.433594 864.082031 1553.664062 862.59375 1553.878906 C 861.105469 1554.089844 859.605469 1554.289062 858.09375 1554.46875 C 856.585938 1554.644531 855.066406 1554.808594 853.539062 1554.953125 C 852.011719 1555.09375 850.480469 1555.222656 848.941406 1555.328125 C 847.398438 1555.4375 845.855469 1555.527344 844.308594 1555.601562 C 842.757812 1555.671875 841.207031 1555.726562 839.652344 1555.761719 C 838.097656 1555.800781 836.542969 1555.816406 834.984375 1555.816406 C 833.429688 1555.816406 831.871094 1555.800781 830.316406 1555.761719 C 828.761719 1555.726562 827.210938 1555.671875 825.664062 1555.601562 C 824.113281 1555.527344 822.570312 1555.4375 821.03125 1555.328125 C 819.488281 1555.222656 817.957031 1555.09375 816.429688 1554.953125 C 814.902344 1554.808594 813.386719 1554.644531 811.875 1554.46875 C 810.367188 1554.289062 808.867188 1554.089844 807.375 1553.878906 C 805.886719 1553.664062 804.410156 1553.433594 802.945312 1553.183594 C 801.476562 1552.933594 800.027344 1552.671875 798.589844 1552.386719 C 797.152344 1552.105469 795.726562 1551.808594 794.320312 1551.492188 C 792.914062 1551.175781 791.523438 1550.84375 790.152344 1550.496094 C 788.777344 1550.148438 787.425781 1549.785156 786.089844 1549.40625 C 784.753906 1549.027344 783.441406 1548.632812 782.144531 1548.222656 C 780.851562 1547.816406 779.578125 1547.390625 778.328125 1546.949219 C 777.078125 1546.511719 775.851562 1546.058594 774.648438 1545.589844 C 773.445312 1545.121094 772.265625 1544.640625 771.113281 1544.144531 C 769.960938 1543.652344 768.832031 1543.140625 767.734375 1542.621094 C 766.632812 1542.097656 765.558594 1541.566406 764.515625 1541.019531 C 763.46875 1540.472656 762.453125 1539.914062 761.464844 1539.34375 C 760.476562 1538.773438 759.519531 1538.195312 758.59375 1537.601562 C 757.667969 1537.007812 756.769531 1536.40625 755.90625 1535.792969 C 755.039062 1535.179688 754.207031 1534.558594 753.40625 1533.925781 C 752.609375 1533.292969 751.839844 1532.652344 751.105469 1532 C 750.375 1531.351562 749.671875 1530.691406 749.007812 1530.023438 C 748.34375 1529.359375 747.710938 1528.683594 747.117188 1528.003906 C 746.519531 1527.324219 745.960938 1526.632812 745.4375 1525.941406 C 744.910156 1525.246094 744.425781 1524.546875 743.972656 1523.839844 C 743.519531 1523.136719 743.105469 1522.425781 742.726562 1521.710938 C 742.347656 1520.992188 742.007812 1520.273438 741.703125 1519.550781 C 741.402344 1518.828125 741.132812 1518.101562 740.90625 1517.371094 C 740.679688 1516.644531 740.488281 1515.910156 740.335938 1515.179688 C 740.183594 1514.445312 740.066406 1513.707031 739.992188 1512.972656 C 739.914062 1512.234375 739.875 1511.5 739.875 1510.761719 C 739.875 1510.023438 739.914062 1509.285156 739.992188 1508.550781 C 740.066406 1507.8125 740.183594 1507.078125 740.335938 1506.34375 C 740.488281 1505.613281 740.679688 1504.878906 740.90625 1504.152344 C 741.132812 1503.421875 741.402344 1502.695312 741.703125 1501.972656 C 742.007812 1501.25 742.347656 1500.527344 742.726562 1499.8125 C 743.105469 1499.097656 743.519531 1498.386719 743.972656 1497.683594 C 744.425781 1496.976562 744.910156 1496.277344 745.4375 1495.582031 C 745.960938 1494.886719 746.519531 1494.199219 747.117188 1493.519531 C 747.710938 1492.839844 748.34375 1492.164062 749.007812 1491.496094 C 749.671875 1490.832031 750.375 1490.171875 751.105469 1489.523438 C 751.839844 1488.871094 752.609375 1488.230469 753.40625 1487.597656 C 754.207031 1486.964844 755.039062 1486.34375 755.90625 1485.730469 C 756.769531 1485.117188 757.667969 1484.515625 758.59375 1483.921875 C 759.519531 1483.328125 760.476562 1482.75 761.464844 1482.179688 C 762.453125 1481.609375 763.46875 1481.050781 764.515625 1480.503906 C 765.558594 1479.957031 766.632812 1479.421875 767.734375 1478.902344 C 768.832031 1478.378906 769.960938 1477.871094 771.113281 1477.378906 C 772.265625 1476.882812 773.445312 1476.402344 774.648438 1475.933594 C 775.851562 1475.464844 777.078125 1475.011719 778.328125 1474.570312 C 779.578125 1474.132812 780.851562 1473.707031 782.144531 1473.296875 C 783.441406 1472.890625 784.753906 1472.496094 786.089844 1472.117188 C 787.425781 1471.738281 788.777344 1471.375 790.152344 1471.027344 C 791.523438 1470.679688 792.914062 1470.347656 794.320312 1470.03125 C 795.726562 1469.714844 797.152344 1469.417969 798.589844 1469.136719 C 800.027344 1468.851562 801.476562 1468.585938 802.945312 1468.339844 C 804.410156 1468.089844 805.886719 1467.859375 807.375 1467.644531 C 808.867188 1467.429688 810.367188 1467.234375 811.875 1467.054688 C 813.386719 1466.875 814.902344 1466.714844 816.429688 1466.570312 C 817.957031 1466.425781 819.488281 1466.300781 821.03125 1466.191406 C 822.570312 1466.085938 824.113281 1465.996094 825.664062 1465.921875 C 827.210938 1465.851562 828.761719 1465.796875 830.316406 1465.757812 C 831.871094 1465.722656 833.429688 1465.707031 834.984375 1465.707031 C 836.542969 1465.707031 838.097656 1465.722656 839.652344 1465.761719 C 841.207031 1465.796875 842.757812 1465.851562 844.308594 1465.921875 C 845.855469 1465.996094 847.402344 1466.085938 848.941406 1466.191406 C 850.480469 1466.300781 852.011719 1466.425781 853.539062 1466.570312 C 855.066406 1466.714844 856.585938 1466.875 858.09375 1467.054688 C 859.605469 1467.234375 861.105469 1467.429688 862.59375 1467.644531 C 864.082031 1467.859375 865.558594 1468.089844 867.027344 1468.339844 C 868.492188 1468.585938 869.941406 1468.851562 871.382812 1469.136719 C 872.820312 1469.417969 874.242188 1469.714844 875.648438 1470.03125 C 877.054688 1470.347656 878.445312 1470.679688 879.816406 1471.027344 C 881.191406 1471.375 882.542969 1471.738281 883.878906 1472.117188 C 885.214844 1472.496094 886.53125 1472.890625 887.824219 1473.296875 C 889.117188 1473.707031 890.390625 1474.132812 891.640625 1474.570312 C 892.890625 1475.011719 894.117188 1475.464844 895.320312 1475.933594 C 896.523438 1476.402344 897.703125 1476.882812 898.855469 1477.378906 C 900.007812 1477.871094 901.136719 1478.378906 902.234375 1478.902344 C 903.335938 1479.421875 904.410156 1479.957031 905.457031 1480.503906 C 906.5 1481.050781 907.515625 1481.609375 908.503906 1482.179688 C 909.492188 1482.75 910.449219 1483.328125 911.375 1483.921875 C 912.304688 1484.515625 913.199219 1485.117188 914.0625 1485.730469 C 914.929688 1486.34375 915.761719 1486.964844 916.5625 1487.597656 C 917.363281 1488.230469 918.128906 1488.871094 918.863281 1489.523438 C 919.597656 1490.171875 920.296875 1490.832031 920.960938 1491.496094 C 921.625 1492.164062 922.257812 1492.839844 922.851562 1493.519531 C 923.449219 1494.199219 924.007812 1494.886719 924.53125 1495.582031 C 925.058594 1496.277344 925.546875 1496.976562 925.996094 1497.683594 C 926.449219 1498.386719 926.863281 1499.097656 927.242188 1499.8125 C 927.621094 1500.527344 927.960938 1501.25 928.265625 1501.972656 C 928.570312 1502.695312 928.835938 1503.421875 929.0625 1504.152344 C 929.292969 1504.878906 929.480469 1505.613281 929.636719 1506.34375 C 929.789062 1507.078125 929.902344 1507.8125 929.976562 1508.550781 C 930.054688 1509.285156 930.09375 1510.023438 930.09375 1510.761719 Z M 930.09375 1510.761719 " fill-opacity="1" fill-rule="evenodd"/><path fill="#f3b493" d="M 1569.308594 1510.761719 C 1569.308594 1511.5 1569.269531 1512.234375 1569.195312 1512.972656 C 1569.117188 1513.707031 1569.003906 1514.445312 1568.851562 1515.179688 C 1568.699219 1515.910156 1568.507812 1516.644531 1568.277344 1517.371094 C 1568.050781 1518.101562 1567.785156 1518.828125 1567.480469 1519.550781 C 1567.175781 1520.273438 1566.835938 1520.992188 1566.457031 1521.710938 C 1566.078125 1522.425781 1565.664062 1523.136719 1565.210938 1523.839844 C 1564.761719 1524.546875 1564.273438 1525.246094 1563.75 1525.941406 C 1563.222656 1526.632812 1562.664062 1527.324219 1562.066406 1528.003906 C 1561.472656 1528.683594 1560.84375 1529.359375 1560.175781 1530.027344 C 1559.511719 1530.691406 1558.8125 1531.351562 1558.078125 1532 C 1557.34375 1532.652344 1556.578125 1533.292969 1555.777344 1533.925781 C 1554.976562 1534.558594 1554.144531 1535.179688 1553.28125 1535.792969 C 1552.414062 1536.40625 1551.519531 1537.007812 1550.589844 1537.601562 C 1549.664062 1538.195312 1548.707031 1538.773438 1547.71875 1539.34375 C 1546.730469 1539.914062 1545.714844 1540.472656 1544.671875 1541.019531 C 1543.625 1541.566406 1542.550781 1542.097656 1541.453125 1542.621094 C 1540.351562 1543.140625 1539.222656 1543.652344 1538.070312 1544.144531 C 1536.917969 1544.640625 1535.738281 1545.121094 1534.535156 1545.589844 C 1533.332031 1546.058594 1532.105469 1546.511719 1530.855469 1546.949219 C 1529.605469 1547.390625 1528.332031 1547.816406 1527.039062 1548.222656 C 1525.746094 1548.632812 1524.429688 1549.027344 1523.09375 1549.40625 C 1521.761719 1549.785156 1520.40625 1550.148438 1519.035156 1550.496094 C 1517.660156 1550.84375 1516.269531 1551.175781 1514.863281 1551.492188 C 1513.457031 1551.808594 1512.035156 1552.105469 1510.597656 1552.386719 C 1509.160156 1552.671875 1507.707031 1552.933594 1506.242188 1553.183594 C 1504.777344 1553.433594 1503.296875 1553.664062 1501.808594 1553.878906 C 1500.320312 1554.089844 1498.820312 1554.289062 1497.308594 1554.46875 C 1495.800781 1554.644531 1494.28125 1554.808594 1492.753906 1554.953125 C 1491.226562 1555.09375 1489.695312 1555.222656 1488.15625 1555.328125 C 1486.617188 1555.4375 1485.070312 1555.527344 1483.523438 1555.601562 C 1481.972656 1555.671875 1480.421875 1555.726562 1478.867188 1555.761719 C 1477.3125 1555.800781 1475.757812 1555.816406 1474.199219 1555.816406 C 1472.644531 1555.816406 1471.089844 1555.800781 1469.535156 1555.761719 C 1467.980469 1555.726562 1466.425781 1555.671875 1464.878906 1555.601562 C 1463.328125 1555.527344 1461.785156 1555.4375 1460.246094 1555.328125 C 1458.707031 1555.222656 1457.171875 1555.09375 1455.644531 1554.953125 C 1454.117188 1554.808594 1452.601562 1554.644531 1451.089844 1554.46875 C 1449.582031 1554.289062 1448.082031 1554.089844 1446.589844 1553.878906 C 1445.101562 1553.664062 1443.625 1553.433594 1442.160156 1553.183594 C 1440.695312 1552.933594 1439.242188 1552.671875 1437.804688 1552.386719 C 1436.367188 1552.105469 1434.941406 1551.808594 1433.535156 1551.492188 C 1432.128906 1551.175781 1430.738281 1550.84375 1429.367188 1550.496094 C 1427.992188 1550.148438 1426.640625 1549.785156 1425.304688 1549.40625 C 1423.96875 1549.027344 1422.65625 1548.632812 1421.359375 1548.222656 C 1420.066406 1547.816406 1418.792969 1547.390625 1417.542969 1546.949219 C 1416.292969 1546.511719 1415.066406 1546.058594 1413.863281 1545.589844 C 1412.660156 1545.121094 1411.484375 1544.640625 1410.328125 1544.144531 C 1409.175781 1543.652344 1408.050781 1543.140625 1406.949219 1542.621094 C 1405.847656 1542.097656 1404.773438 1541.566406 1403.730469 1541.019531 C 1402.683594 1540.472656 1401.667969 1539.914062 1400.679688 1539.34375 C 1399.691406 1538.773438 1398.734375 1538.195312 1397.808594 1537.601562 C 1396.882812 1537.007812 1395.984375 1536.40625 1395.121094 1535.792969 C 1394.257812 1535.179688 1393.421875 1534.558594 1392.625 1533.925781 C 1391.824219 1533.292969 1391.054688 1532.652344 1390.324219 1532 C 1389.589844 1531.351562 1388.890625 1530.691406 1388.222656 1530.023438 C 1387.558594 1529.359375 1386.925781 1528.683594 1386.332031 1528.003906 C 1385.734375 1527.324219 1385.175781 1526.632812 1384.652344 1525.941406 C 1384.128906 1525.246094 1383.640625 1524.546875 1383.1875 1523.839844 C 1382.734375 1523.136719 1382.320312 1522.425781 1381.941406 1521.710938 C 1381.5625 1520.992188 1381.222656 1520.273438 1380.917969 1519.550781 C 1380.617188 1518.828125 1380.351562 1518.101562 1380.121094 1517.371094 C 1379.894531 1516.644531 1379.703125 1515.910156 1379.550781 1515.179688 C 1379.398438 1514.445312 1379.285156 1513.707031 1379.207031 1512.972656 C 1379.128906 1512.234375 1379.09375 1511.5 1379.09375 1510.761719 C 1379.09375 1510.023438 1379.128906 1509.285156 1379.207031 1508.550781 C 1379.28125 1507.8125 1379.398438 1507.078125 1379.550781 1506.34375 C 1379.703125 1505.613281 1379.894531 1504.878906 1380.121094 1504.152344 C 1380.351562 1503.421875 1380.617188 1502.695312 1380.917969 1501.972656 C 1381.222656 1501.25 1381.5625 1500.527344 1381.941406 1499.8125 C 1382.320312 1499.097656 1382.734375 1498.386719 1383.1875 1497.683594 C 1383.640625 1496.976562 1384.128906 1496.277344 1384.652344 1495.582031 C 1385.175781 1494.886719 1385.734375 1494.199219 1386.332031 1493.519531 C 1386.925781 1492.839844 1387.558594 1492.164062 1388.222656 1491.496094 C 1388.890625 1490.832031 1389.589844 1490.171875 1390.324219 1489.523438 C 1391.054688 1488.871094 1391.824219 1488.230469 1392.625 1487.597656 C 1393.421875 1486.964844 1394.253906 1486.34375 1395.121094 1485.730469 C 1395.984375 1485.117188 1396.882812 1484.515625 1397.808594 1483.921875 C 1398.734375 1483.328125 1399.691406 1482.75 1400.679688 1482.179688 C 1401.667969 1481.609375 1402.683594 1481.050781 1403.730469 1480.503906 C 1404.773438 1479.957031 1405.847656 1479.421875 1406.949219 1478.902344 C 1408.050781 1478.378906 1409.175781 1477.871094 1410.328125 1477.378906 C 1411.484375 1476.882812 1412.660156 1476.402344 1413.863281 1475.933594 C 1415.066406 1475.464844 1416.292969 1475.011719 1417.542969 1474.570312 C 1418.792969 1474.132812 1420.066406 1473.707031 1421.359375 1473.296875 C 1422.65625 1472.890625 1423.96875 1472.496094 1425.304688 1472.117188 C 1426.640625 1471.738281 1427.992188 1471.375 1429.367188 1471.027344 C 1430.738281 1470.679688 1432.128906 1470.347656 1433.535156 1470.03125 C 1434.945312 1469.714844 1436.367188 1469.417969 1437.804688 1469.136719 C 1439.242188 1468.851562 1440.695312 1468.585938 1442.160156 1468.339844 C 1443.625 1468.089844 1445.101562 1467.859375 1446.59375 1467.644531 C 1448.082031 1467.429688 1449.582031 1467.234375 1451.089844 1467.054688 C 1452.601562 1466.875 1454.117188 1466.714844 1455.644531 1466.570312 C 1457.171875 1466.425781 1458.707031 1466.300781 1460.246094 1466.191406 C 1461.785156 1466.085938 1463.328125 1465.996094 1464.878906 1465.921875 C 1466.425781 1465.851562 1467.980469 1465.796875 1469.535156 1465.757812 C 1471.089844 1465.722656 1472.644531 1465.707031 1474.199219 1465.707031 C 1475.757812 1465.707031 1477.3125 1465.722656 1478.867188 1465.761719 C 1480.421875 1465.796875 1481.972656 1465.851562 1483.523438 1465.921875 C 1485.070312 1465.996094 1486.617188 1466.085938 1488.15625 1466.191406 C 1489.695312 1466.300781 1491.226562 1466.425781 1492.753906 1466.570312 C 1494.28125 1466.714844 1495.800781 1466.875 1497.308594 1467.054688 C 1498.820312 1467.234375 1500.320312 1467.429688 1501.808594 1467.644531 C 1503.296875 1467.859375 1504.773438 1468.089844 1506.242188 1468.339844 C 1507.707031 1468.585938 1509.15625 1468.851562 1510.597656 1469.136719 C 1512.035156 1469.417969 1513.457031 1469.714844 1514.863281 1470.03125 C 1516.269531 1470.347656 1517.660156 1470.679688 1519.035156 1471.027344 C 1520.40625 1471.375 1521.761719 1471.738281 1523.09375 1472.117188 C 1524.429688 1472.496094 1525.746094 1472.890625 1527.039062 1473.296875 C 1528.332031 1473.707031 1529.605469 1474.132812 1530.855469 1474.570312 C 1532.105469 1475.011719 1533.332031 1475.464844 1534.535156 1475.933594 C 1535.738281 1476.402344 1536.917969 1476.882812 1538.070312 1477.378906 C 1539.222656 1477.871094 1540.351562 1478.378906 1541.453125 1478.902344 C 1542.550781 1479.421875 1543.625 1479.957031 1544.671875 1480.503906 C 1545.714844 1481.050781 1546.730469 1481.609375 1547.71875 1482.179688 C 1548.707031 1482.75 1549.664062 1483.328125 1550.589844 1483.921875 C 1551.519531 1484.515625 1552.414062 1485.117188 1553.28125 1485.730469 C 1554.144531 1486.34375 1554.976562 1486.964844 1555.777344 1487.597656 C 1556.578125 1488.230469 1557.34375 1488.871094 1558.078125 1489.523438 C 1558.8125 1490.171875 1559.511719 1490.832031 1560.175781 1491.496094 C 1560.84375 1492.164062 1561.472656 1492.839844 1562.066406 1493.519531 C 1562.664062 1494.199219 1563.222656 1494.886719 1563.75 1495.582031 C 1564.273438 1496.277344 1564.761719 1496.976562 1565.210938 1497.683594 C 1565.664062 1498.386719 1566.078125 1499.097656 1566.457031 1499.8125 C 1566.835938 1500.527344 1567.175781 1501.25 1567.480469 1501.972656 C 1567.785156 1502.695312 1568.050781 1503.421875 1568.277344 1504.152344 C 1568.507812 1504.878906 1568.699219 1505.613281 1568.851562 1506.34375 C 1569.003906 1507.078125 1569.117188 1507.8125 1569.195312 1508.550781 C 1569.269531 1509.285156 1569.308594 1510.023438 1569.308594 1510.761719 Z M 1569.308594 1510.761719 " fill-opacity="1" fill-rule="evenodd"/><path fill="#f3b493" d="M 587.71875 1291.605469 C 561.71875 1320.859375 555.03125 1344.589844 559.140625 1364.917969 C 563.25 1385.242188 577.464844 1401.367188 591.015625 1417.054688 L 597.097656 1411.796875 C 583.539062 1396.101562 570.5625 1380.871094 567.015625 1363.328125 C 563.472656 1345.78125 568.679688 1325.128906 593.726562 1296.945312 Z M 587.71875 1291.605469 " fill-opacity="1" fill-rule="nonzero"/><path fill="#f3b493" d="M 1002.222656 1540.738281 C 986.214844 1528.914062 866.5625 1664.472656 884.386719 1726.453125 L 891.921875 1752.664062 C 898.09375 1638.625 1003.578125 1541.230469 1008.09375 1546.253906 Z M 1002.222656 1540.738281 " fill-opacity="1" fill-rule="nonzero"/><path fill="#f3b493" d="M 1154.847656 1015.773438 C 1091.453125 1014.011719 1027.976562 1023.273438 964.5 1048.910156 L 967.511719 1056.367188 C 1092.261719 1005.980469 1217.007812 1019.832031 1342.429688 1056.5 L 1344.683594 1048.785156 C 1281.546875 1030.324219 1218.238281 1017.535156 1154.847656 1015.773438 Z M 1154.847656 1015.773438 " fill-opacity="1" fill-rule="nonzero"/><path fill="#f3b493" d="M 1154.839844 962.46875 C 1096.980469 960.695312 1039.039062 970.015625 981.117188 995.8125 L 984.246094 1002.84375 C 1097.871094 952.234375 1211.414062 966.144531 1325.707031 1002.988281 L 1328.066406 995.664062 C 1270.480469 977.101562 1212.703125 964.238281 1154.839844 962.46875 Z M 1154.839844 962.46875 " fill-opacity="1" fill-rule="nonzero"/><path fill="#f3b493" d="M 1303.925781 1535.730469 C 1319.933594 1523.90625 1439.585938 1659.46875 1421.761719 1721.449219 L 1414.226562 1747.65625 C 1408.054688 1633.617188 1302.570312 1536.226562 1298.050781 1541.25 Z M 1303.925781 1535.730469 " fill-opacity="1" fill-rule="nonzero"/><path fill="#f2f2f2" d="M 1281.496094 782.324219 C 1159.109375 994.410156 1014.5625 1189.878906 734.746094 1110.535156 C 777.046875 1338.972656 411.621094 1345.203125 527.011719 1115.644531 C 190.71875 994.40625 747.640625 354.070312 805.742188 696.039062 C 723.398438 510.339844 1005.257812 396.46875 1134.441406 538.269531 C 1323.902344 325.984375 1544.363281 565.90625 1560.527344 693.960938 C 1782.699219 563.472656 1943.539062 1035.371094 1749.0625 1102.121094 C 1906.460938 1315.769531 1653.726562 1359.390625 1613.316406 1304.09375 C 1590.695312 1266.226562 1526.59375 1106.328125 1556.757812 1076.871094 C 1432.902344 1045.167969 1335.734375 959.601562 1281.496094 782.324219 Z M 1281.496094 782.324219 " fill-opacity="1" fill-rule="nonzero"/><path fill="#e6e6e6" d="M 1286.832031 731.65625 C 1164.441406 943.742188 993.234375 1168.546875 713.417969 1089.203125 C 755.71875 1317.636719 448.949219 1305.207031 527.011719 1115.644531 C 411.625 1345.203125 777.046875 1338.972656 734.75 1110.535156 C 1014.566406 1189.878906 1159.109375 994.40625 1281.496094 782.324219 C 1335.734375 959.597656 1432.90625 1045.167969 1556.757812 1076.871094 C 1526.59375 1106.328125 1590.695312 1266.226562 1613.316406 1304.09375 C 1653.726562 1359.390625 1906.460938 1315.765625 1749.066406 1102.117188 C 1869.132812 1291.769531 1669.726562 1324.722656 1629.316406 1269.429688 C 1606.695312 1231.558594 1566.585938 1090.328125 1596.753906 1060.875 C 1472.898438 1029.167969 1341.066406 908.933594 1286.832031 731.65625 Z M 1286.832031 731.65625 " fill-opacity="1" fill-rule="nonzero"/></svg>