<svg xmlns="http://www.w3.org/2000/svg" xmlns:xlink="http://www.w3.org/1999/xlink" width="3000" zoomAndPan="magnify" viewBox="0 0 2250 2250.000011" height="3000" preserveAspectRatio="xMidYMid meet" version="1.0"><path fill="#6a9ed4" d="M 1347.394531 683.949219 C 1353.425781 680.082031 1361.300781 681.59375 1365.585938 687.167969 C 1368.5 685.328125 1371.398438 683.511719 1374.289062 681.691406 C 1343.933594 672.289062 1312.625 662.703125 1280.921875 653.085938 C 1280.671875 677.714844 1280.449219 702.339844 1280.257812 727.023438 Z M 1347.394531 683.949219 " fill-opacity="1" fill-rule="nonzero"/><path fill="#6a9ed4" d="M 1106.75 822.65625 C 1106.820312 748.996094 1107.007812 675.144531 1107.320312 601.214844 C 1072.171875 590.859375 1037.925781 580.847656 1005.40625 571.414062 C 1004.925781 635.132812 1004.546875 699.054688 1004.375 763.234375 Z M 1106.75 822.65625 " fill-opacity="1" fill-rule="nonzero"/><path fill="#6a9ed4" d="M 637.699219 582.070312 L 589.554688 593.332031 C 582.1875 595.0625 574.828125 590.484375 573.109375 583.117188 C 571.386719 575.75 575.960938 568.386719 583.320312 566.664062 L 636.757812 554.164062 C 640.152344 553.375 643.726562 553.898438 646.746094 555.648438 L 646.84375 555.703125 C 646.710938 538.921875 646.558594 522.261719 646.371094 505.722656 C 588.828125 514.773438 531.917969 532.707031 536.324219 559.175781 C 538.15625 570.167969 581.804688 604.042969 647.253906 649.125 C 647.230469 628.503906 647.164062 607.945312 647.054688 587.496094 Z M 637.699219 582.070312 " fill-opacity="1" fill-rule="nonzero"/><path fill="#6a9ed4" d="M 859.109375 678.914062 C 858.933594 628.828125 858.644531 578.949219 858.234375 529.296875 C 825.789062 520.171875 799.128906 512.824219 780.285156 507.808594 C 779.40625 549.164062 778.902344 590.667969 778.683594 632.234375 Z M 859.109375 678.914062 " fill-opacity="1" fill-rule="nonzero"/><path fill="#6a9ed4" d="M 983.886719 751.339844 C 984.074219 689.15625 984.441406 627.207031 984.914062 565.472656 C 946.1875 554.273438 910.296875 544.003906 878.8125 535.097656 C 879.230469 586.789062 879.515625 638.710938 879.675781 690.851562 Z M 983.886719 751.339844 " fill-opacity="1" fill-rule="nonzero"/><path fill="#6a9ed4" d="M 758.214844 620.355469 C 758.480469 580.992188 758.976562 541.683594 759.835938 502.515625 C 755.660156 501.484375 752.515625 500.761719 750.792969 500.460938 C 735.210938 497.707031 702.316406 498.558594 666.875 502.871094 C 667.121094 524.269531 667.320312 545.882812 667.464844 567.679688 Z M 758.214844 620.355469 " fill-opacity="1" fill-rule="nonzero"/><path fill="#6a9ed4" d="M 1259.621094 740.261719 C 1259.851562 709.089844 1260.128906 677.980469 1260.449219 646.886719 C 1241.320312 641.109375 1222.113281 635.332031 1202.929688 629.597656 C 1202.761719 678.679688 1202.644531 727.796875 1202.570312 776.863281 Z M 1259.621094 740.261719 " fill-opacity="1" fill-rule="nonzero"/><path fill="#6a9ed4" d="M 879.773438 722.578125 C 879.828125 748.554688 879.867188 774.511719 879.855469 800.546875 C 914.476562 822.28125 949.484375 844.011719 983.734375 865.070312 C 983.738281 837.691406 983.738281 810.316406 983.804688 782.960938 Z M 879.773438 722.578125 " fill-opacity="1" fill-rule="nonzero"/><path fill="#6a9ed4" d="M 1030.980469 886.957031 L 1093.671875 846.734375 L 1004.332031 794.875 C 1004.277344 822.460938 1004.261719 850.058594 1004.261719 877.660156 C 1011.808594 882.28125 1019.285156 886.851562 1026.722656 891.378906 C 1027.769531 889.664062 1029.167969 888.121094 1030.980469 886.957031 Z M 1030.980469 886.957031 " fill-opacity="1" fill-rule="nonzero"/><path fill="#6a9ed4" d="M 758.035156 651.914062 L 667.648438 599.453125 C 667.742188 620.617188 667.808594 641.859375 667.8125 663.175781 C 695.269531 681.789062 725.792969 701.957031 758.1875 722.980469 C 758.042969 699.289062 757.964844 675.621094 758.035156 651.914062 Z M 758.035156 651.914062 " fill-opacity="1" fill-rule="nonzero"/><path fill="#6a9ed4" d="M 1182.027344 790.046875 C 1182.101562 734.546875 1182.226562 679 1182.421875 623.476562 C 1164.105469 618.015625 1145.878906 612.605469 1127.828125 607.269531 C 1127.527344 680.019531 1127.355469 752.6875 1127.285156 825.167969 Z M 1182.027344 790.046875 " fill-opacity="1" fill-rule="nonzero"/><path fill="#6a9ed4" d="M 859.199219 710.636719 L 778.492188 663.792969 C 778.460938 687.980469 778.601562 712.148438 778.796875 736.3125 C 804.847656 753.101562 831.894531 770.324219 859.339844 787.636719 C 859.339844 761.914062 859.265625 736.292969 859.199219 710.636719 Z M 859.199219 710.636719 " fill-opacity="1" fill-rule="nonzero"/><path fill="#8ab5e1" d="M 1280.253906 727.023438 C 1280.449219 702.34375 1280.664062 677.714844 1280.917969 653.085938 C 1274.109375 651.023438 1267.285156 648.953125 1260.449219 646.886719 C 1260.128906 677.980469 1259.851562 709.089844 1259.621094 740.261719 Z M 1280.253906 727.023438 " fill-opacity="1" fill-rule="nonzero"/><path fill="#8ab5e1" d="M 1202.570312 776.867188 C 1202.644531 727.800781 1202.761719 678.683594 1202.929688 629.601562 C 1196.089844 627.554688 1189.25 625.515625 1182.421875 623.476562 C 1182.226562 679 1182.101562 734.546875 1182.027344 790.046875 Z M 1202.570312 776.867188 " fill-opacity="1" fill-rule="nonzero"/><path fill="#8ab5e1" d="M 1119.59375 830.105469 L 1127.289062 825.167969 C 1127.355469 752.6875 1127.53125 680.019531 1127.832031 607.269531 C 1120.964844 605.238281 1114.132812 603.21875 1107.324219 601.214844 C 1107.007812 675.144531 1106.828125 748.996094 1106.757812 822.65625 Z M 1119.59375 830.105469 " fill-opacity="1" fill-rule="nonzero"/><path fill="#8ab5e1" d="M 1004.375 763.234375 C 1004.550781 699.054688 1004.929688 635.125 1005.40625 571.414062 C 998.496094 569.410156 991.660156 567.433594 984.917969 565.476562 C 984.445312 627.210938 984.078125 689.160156 983.894531 751.34375 Z M 1004.375 763.234375 " fill-opacity="1" fill-rule="nonzero"/><path fill="#8ab5e1" d="M 983.804688 782.960938 C 983.742188 810.316406 983.738281 837.691406 983.734375 865.070312 C 990.609375 869.296875 997.453125 873.496094 1004.257812 877.664062 C 1004.25 850.0625 1004.269531 822.464844 1004.328125 794.878906 Z M 983.804688 782.960938 " fill-opacity="1" fill-rule="nonzero"/><path fill="#8ab5e1" d="M 879.773438 722.578125 L 859.199219 710.636719 C 859.265625 736.292969 859.339844 761.914062 859.339844 787.632812 C 866.160156 791.933594 872.996094 796.238281 879.855469 800.542969 C 879.867188 774.511719 879.828125 748.554688 879.773438 722.578125 Z M 879.773438 722.578125 " fill-opacity="1" fill-rule="nonzero"/><path fill="#8ab5e1" d="M 879.679688 690.851562 C 879.519531 638.710938 879.234375 586.789062 878.816406 535.097656 C 871.703125 533.085938 864.886719 531.167969 858.238281 529.292969 C 858.652344 578.949219 858.9375 628.824219 859.113281 678.910156 Z M 879.679688 690.851562 " fill-opacity="1" fill-rule="nonzero"/><path fill="#8ab5e1" d="M 778.496094 663.792969 L 758.035156 651.914062 C 757.96875 675.617188 758.042969 699.289062 758.1875 722.980469 C 764.988281 727.390625 771.847656 731.835938 778.804688 736.3125 C 778.605469 712.148438 778.464844 687.984375 778.496094 663.792969 Z M 778.496094 663.792969 " fill-opacity="1" fill-rule="nonzero"/><path fill="#8ab5e1" d="M 778.683594 632.234375 C 778.902344 590.667969 779.40625 549.160156 780.285156 507.808594 C 771.820312 505.554688 764.957031 503.773438 759.839844 502.519531 C 758.980469 541.683594 758.484375 580.992188 758.21875 620.359375 Z M 778.683594 632.234375 " fill-opacity="1" fill-rule="nonzero"/><path fill="#8ab5e1" d="M 647.054688 587.5 C 647.164062 607.949219 647.230469 628.507812 647.253906 649.128906 C 653.890625 653.699219 660.746094 658.382812 667.8125 663.175781 C 667.808594 641.859375 667.742188 620.617188 667.648438 599.453125 Z M 647.054688 587.5 " fill-opacity="1" fill-rule="nonzero"/><path fill="#8ab5e1" d="M 667.464844 567.683594 C 667.320312 545.882812 667.121094 524.269531 666.875 502.875 C 660.09375 503.699219 653.234375 504.652344 646.367188 505.734375 C 646.550781 522.265625 646.707031 538.929688 646.839844 555.714844 Z M 667.464844 567.683594 " fill-opacity="1" fill-rule="nonzero"/><path fill="#8ab5e1" d="M 1241.160156 1241.695312 L 1368.773438 1103.222656 C 1368.757812 1103.191406 1368.738281 1103.15625 1368.722656 1103.128906 C 1369.601562 1102.242188 1370.445312 1101.328125 1371.324219 1100.457031 C 1386.324219 1085.523438 1401.351562 1071.875 1416.65625 1058.953125 C 1423.433594 1053.226562 1430.265625 1047.617188 1437.195312 1042.179688 C 1461.082031 1023.40625 1485.972656 1006.066406 1512.988281 988.792969 C 1513.5 988.464844 1514.019531 988.148438 1514.535156 987.824219 C 1521.332031 983.488281 1528.183594 979.230469 1535.070312 975.015625 C 1569.648438 953.863281 1605.363281 934.289062 1642.121094 917.21875 C 1647.878906 914.542969 1653.667969 911.953125 1659.476562 909.40625 C 1657.523438 902.742188 1660.832031 895.554688 1667.40625 892.886719 C 1674.394531 890.058594 1682.398438 893.425781 1685.234375 900.4375 L 1722.183594 991.640625 C 1722.949219 993.523438 1723.230469 995.472656 1723.144531 997.378906 C 1976.117188 859.394531 2164.863281 736.496094 2194.363281 674.039062 C 2208.917969 643.203125 2200.855469 602.664062 2177.878906 577.535156 C 2164.464844 562.976562 2149.339844 548.628906 2134.429688 535.425781 C 2105.277344 572.332031 2062.347656 604.847656 2023.75 631.054688 C 2011.523438 603.976562 2001.546875 575.191406 1989.796875 547.152344 C 2024.453125 524.28125 2052.144531 502.753906 2070.925781 483.96875 C 1993.941406 433.433594 1860.734375 424.4375 1649.113281 518.300781 C 1612.175781 534.675781 1507.644531 597.882812 1374.285156 681.707031 C 1371.394531 683.527344 1368.496094 685.34375 1365.578125 687.183594 C 1365.816406 687.492188 1366.09375 687.765625 1366.308594 688.097656 C 1370.390625 694.464844 1368.535156 702.9375 1362.171875 707.019531 L 1045.757812 910.027344 C 1043.476562 911.496094 1040.914062 912.199219 1038.382812 912.199219 C 1033.875 912.199219 1029.457031 909.972656 1026.847656 905.890625 C 1026.527344 905.390625 1026.304688 904.859375 1026.058594 904.335938 C 722.8125 1100.457031 425.464844 1296.984375 425.464844 1296.984375 C 425.464844 1296.984375 300.792969 1088.28125 208.742188 1103.136719 C 112.066406 1118.742188 76.238281 1312.707031 76.238281 1312.707031 C 76.238281 1312.707031 40.347656 1571.371094 110.339844 1635.105469 C 179.851562 1698.328125 725.25 1486.746094 1241.160156 1241.695312 Z M 1822.191406 641.535156 C 1829.292969 638.921875 1837.15625 642.558594 1839.765625 649.660156 L 1868.28125 727.242188 C 1870.890625 734.34375 1867.257812 742.214844 1860.152344 744.828125 C 1858.597656 745.40625 1857 745.671875 1855.429688 745.671875 C 1851.824219 745.671875 1848.457031 744.117188 1845.910156 741.601562 L 1771.273438 781.726562 C 1766.183594 759.277344 1761.492188 736.722656 1756.363281 714.308594 C 1754.96875 708.21875 1753.304688 702.167969 1751.558594 696.125 L 1813.847656 658.253906 C 1811.8125 651.394531 1815.371094 644.039062 1822.191406 641.535156 Z M 1204.5625 1087.6875 C 1203.632812 1087.878906 1202.699219 1087.976562 1201.785156 1087.976562 C 1201.734375 1087.976562 1201.691406 1087.960938 1201.640625 1087.960938 L 1129.195312 1126.902344 C 1125.128906 1111.972656 1120.917969 1097.082031 1116.601562 1082.214844 L 1181.351562 1042.839844 L 1181.203125 1042.101562 C 1179.675781 1034.695312 1184.445312 1027.453125 1191.851562 1025.925781 C 1199.25 1024.410156 1206.496094 1029.171875 1208.023438 1036.578125 L 1215.207031 1071.507812 C 1216.738281 1078.921875 1211.96875 1086.164062 1204.5625 1087.6875 Z M 1563.324219 905.875 C 1562.402344 906.066406 1561.476562 906.15625 1560.570312 906.15625 C 1556.28125 906.15625 1552.332031 904.101562 1549.78125 900.796875 L 1438.167969 960.796875 C 1433.882812 938.289062 1430.414062 915.648438 1428.042969 892.835938 L 1533.585938 828.664062 L 1533.359375 827.558594 C 1531.84375 820.144531 1536.621094 812.90625 1544.03125 811.398438 C 1551.46875 809.855469 1558.671875 814.660156 1560.1875 822.074219 L 1573.996094 889.714844 C 1575.515625 897.132812 1570.734375 904.367188 1563.324219 905.875 Z M 1675.9375 742.113281 C 1675.511719 740.722656 1675.117188 739.3125 1674.6875 737.921875 C 1672.441406 730.695312 1676.472656 723.019531 1683.695312 720.78125 C 1690.921875 718.53125 1698.589844 722.574219 1700.828125 729.789062 C 1708.449219 754.320312 1715.054688 779.492188 1720.457031 804.617188 C 1722.050781 812.007812 1717.351562 819.296875 1709.953125 820.886719 C 1708.984375 821.097656 1708.015625 821.199219 1707.058594 821.199219 C 1704.824219 821.199219 1702.679688 820.628906 1700.769531 819.628906 L 1629.886719 857.730469 C 1623.265625 832.78125 1616.050781 807.992188 1607.941406 783.453125 Z M 1347.4375 941.859375 L 1346.441406 937.707031 C 1344.675781 930.351562 1349.207031 922.960938 1356.5625 921.191406 C 1363.917969 919.433594 1371.304688 923.964844 1373.070312 931.316406 L 1386.507812 987.402344 C 1388.273438 994.757812 1383.742188 1002.152344 1376.386719 1003.914062 C 1375.3125 1004.167969 1374.246094 1004.296875 1373.1875 1004.296875 C 1369.726562 1004.296875 1366.480469 1002.9375 1364 1000.679688 L 1269.679688 1051.382812 C 1265.558594 1033.042969 1261.664062 1014.660156 1258.023438 996.230469 Z M 1047.746094 1124.085938 L 1047.585938 1122.960938 C 1046.523438 1115.472656 1051.734375 1108.535156 1059.21875 1107.476562 C 1066.734375 1106.390625 1073.636719 1111.625 1074.695312 1119.113281 L 1079.003906 1149.472656 C 1080.066406 1156.960938 1074.855469 1163.898438 1067.371094 1164.957031 C 1066.71875 1165.050781 1066.070312 1165.097656 1065.433594 1165.097656 C 1063.585938 1165.097656 1061.820312 1164.691406 1060.1875 1164.007812 L 989.023438 1202.265625 C 985.707031 1190.066406 982.597656 1177.808594 979.621094 1165.515625 Z M 909.179688 1197.078125 C 916.117188 1194.070312 924.175781 1197.273438 927.179688 1204.214844 L 934.222656 1220.507812 C 937.21875 1227.449219 934.027344 1235.507812 927.089844 1238.511719 C 925.320312 1239.273438 923.472656 1239.636719 921.660156 1239.636719 C 921.078125 1239.636719 920.523438 1239.460938 919.945312 1239.386719 L 887.910156 1256.605469 L 875.585938 1228.753906 L 901.40625 1213.054688 C 899.742188 1206.644531 902.902344 1199.796875 909.179688 1197.078125 Z M 108.199219 1248.246094 L 163.460938 1238.445312 C 170.914062 1237.128906 178.007812 1242.097656 179.328125 1249.539062 C 180.648438 1256.988281 175.683594 1264.09375 168.238281 1265.414062 L 112.980469 1275.214844 C 112.171875 1275.359375 111.363281 1275.429688 110.574219 1275.429688 C 104.058594 1275.429688 98.289062 1270.765625 97.109375 1264.121094 C 95.789062 1256.671875 100.761719 1249.566406 108.199219 1248.246094 Z M 85.886719 1347.007812 L 176.425781 1329.402344 C 183.863281 1327.949219 191.035156 1332.808594 192.476562 1340.238281 C 193.917969 1347.660156 189.074219 1354.847656 181.648438 1356.292969 L 91.105469 1373.894531 C 90.222656 1374.066406 89.351562 1374.152344 88.480469 1374.152344 C 82.054688 1374.152344 76.328125 1369.605469 75.058594 1363.0625 C 73.617188 1355.640625 78.464844 1348.453125 85.886719 1347.007812 Z M 88.480469 1491.039062 C 81.449219 1491.039062 75.464844 1485.644531 74.855469 1478.503906 C 74.214844 1470.964844 79.800781 1464.339844 87.335938 1463.699219 C 117.796875 1461.101562 148.488281 1456.980469 178.5625 1451.4375 C 185.984375 1450.074219 193.136719 1454.984375 194.503906 1462.429688 C 195.875 1469.867188 190.960938 1477.007812 183.519531 1478.378906 C 152.582031 1484.082031 121.003906 1488.328125 89.65625 1490.996094 C 89.265625 1491.023438 88.871094 1491.039062 88.480469 1491.039062 Z M 88.480469 1491.039062 " fill-opacity="1" fill-rule="nonzero"/><path fill="#8ab5e1" d="M 1400.015625 1164.71875 L 1241.550781 1241.515625 C 1294.878906 1216.183594 1347.878906 1190.496094 1400.015625 1164.71875 Z M 1400.015625 1164.71875 " fill-opacity="1" fill-rule="nonzero"/><path fill="#c1d2ee" d="M 1915.316406 1817.777344 C 1915.203125 1741.5625 1915.4375 1665.191406 1915.863281 1588.867188 C 1899.140625 1536 1880.078125 1477.46875 1860.148438 1417.554688 L 1860.148438 1800.945312 C 1879.570312 1807.925781 1898.507812 1813.847656 1915.316406 1817.777344 Z M 1915.316406 1817.777344 " fill-opacity="1" fill-rule="nonzero"/><path fill="#c1d2ee" d="M 1976.234375 1809.25 C 1978.035156 1798.011719 1961.800781 1737.867188 1936.035156 1653.632812 C 1935.835938 1709.6875 1935.753906 1765.742188 1935.851562 1821.691406 C 1958.558594 1824.765625 1974.207031 1821.894531 1976.234375 1809.25 Z M 1976.234375 1809.25 " fill-opacity="1" fill-rule="nonzero"/><path fill="#c1d2ee" d="M 1709.5 1010.472656 C 1704.089844 1010.472656 1698.960938 1007.242188 1696.808594 1001.914062 L 1662.648438 917.605469 L 1662.648438 1465.542969 C 1669.4375 1479.738281 1676.152344 1493.902344 1682.804688 1507.949219 C 1706.878906 1558.78125 1731.769531 1611.335938 1757.714844 1659.304688 C 1761.3125 1665.953125 1758.839844 1674.265625 1752.1875 1677.867188 C 1750.117188 1678.992188 1747.882812 1679.523438 1745.683594 1679.523438 C 1740.820312 1679.523438 1736.109375 1676.921875 1733.632812 1672.34375 C 1708.984375 1626.78125 1685.445312 1577.476562 1662.644531 1529.359375 L 1662.644531 1648 C 1694.828125 1701.757812 1719.226562 1737.566406 1730.167969 1743.542969 C 1738.921875 1748.328125 1750.730469 1754.308594 1764.449219 1760.832031 L 1764.449219 1138.742188 C 1746.890625 1089.285156 1730.640625 1044.628906 1716.882812 1008.273438 C 1716.175781 1008.726562 1715.433594 1009.136719 1714.628906 1009.464844 C 1712.957031 1010.144531 1711.214844 1010.472656 1709.5 1010.472656 Z M 1709.5 1010.472656 " fill-opacity="1" fill-rule="nonzero"/><path fill="#c1d2ee" d="M 1839.609375 1793.261719 L 1839.609375 1356.242188 C 1821.324219 1302.019531 1802.769531 1247.933594 1784.992188 1197.0625 L 1784.992188 1770.324219 C 1802.011719 1777.996094 1820.722656 1785.933594 1839.609375 1793.261719 Z M 1839.609375 1793.261719 " fill-opacity="1" fill-rule="nonzero"/><path fill="#c1d2ee" d="M 1577.578125 1357.765625 C 1573.953125 1351.125 1576.390625 1342.804688 1583.019531 1339.171875 C 1589.664062 1335.546875 1597.976562 1337.988281 1601.605469 1344.617188 C 1615.566406 1370.15625 1629.011719 1396.5625 1642.113281 1423.183594 L 1642.113281 917.210938 C 1605.355469 934.285156 1569.640625 953.855469 1535.066406 975.003906 L 1535.066406 1420.015625 C 1573.410156 1491.289062 1610.460938 1558.511719 1642.113281 1613.105469 L 1642.113281 1486.101562 C 1621.457031 1442.75 1600.136719 1399.015625 1577.578125 1357.765625 Z M 1577.578125 1357.765625 " fill-opacity="1" fill-rule="nonzero"/><path fill="#c1d2ee" d="M 1514.535156 987.816406 C 1514.019531 988.144531 1513.5 988.460938 1512.988281 988.785156 C 1485.972656 1006.0625 1461.082031 1023.398438 1437.195312 1042.171875 L 1437.195312 1235.148438 C 1462.398438 1283.378906 1488.582031 1333.09375 1514.53125 1381.695312 L 1514.53125 987.816406 Z M 1514.535156 987.816406 " fill-opacity="1" fill-rule="nonzero"/><path fill="#c1d2ee" d="M 1368.722656 1103.128906 C 1368.738281 1103.15625 1368.757812 1103.191406 1368.773438 1103.222656 L 1371.324219 1100.457031 C 1370.445312 1101.328125 1369.601562 1102.242188 1368.722656 1103.128906 Z M 1368.722656 1103.128906 " fill-opacity="1" fill-rule="nonzero"/><path fill="#c1d2ee" d="M 1416.65625 1058.953125 C 1401.351562 1071.875 1386.324219 1085.523438 1371.324219 1100.457031 L 1400.441406 1164.515625 C 1405.773438 1174.792969 1411.183594 1185.222656 1416.65625 1195.753906 Z M 1416.65625 1058.953125 " fill-opacity="1" fill-rule="nonzero"/><path fill="#93aedb" d="M 1935.851562 1821.6875 C 1935.757812 1765.734375 1935.835938 1709.6875 1936.035156 1653.628906 C 1929.824219 1633.328125 1923.058594 1611.625 1915.863281 1588.867188 C 1915.4375 1665.191406 1915.203125 1741.5625 1915.316406 1817.777344 C 1922.613281 1819.484375 1929.519531 1820.828125 1935.851562 1821.6875 Z M 1935.851562 1821.6875 " fill-opacity="1" fill-rule="nonzero"/><path fill="#93aedb" d="M 1860.148438 1800.945312 L 1860.148438 1417.554688 C 1853.382812 1397.210938 1846.519531 1376.730469 1839.609375 1356.242188 L 1839.609375 1793.261719 C 1846.464844 1795.925781 1853.332031 1798.496094 1860.148438 1800.945312 Z M 1860.148438 1800.945312 " fill-opacity="1" fill-rule="nonzero"/><path fill="#93aedb" d="M 1785 1770.324219 L 1785 1197.0625 C 1778.003906 1177.050781 1771.144531 1157.554688 1764.460938 1138.746094 L 1764.460938 1760.832031 C 1770.910156 1763.898438 1777.816406 1767.085938 1785 1770.324219 Z M 1785 1770.324219 " fill-opacity="1" fill-rule="nonzero"/><path fill="#93aedb" d="M 1642.113281 1423.1875 C 1649.046875 1437.28125 1655.894531 1451.417969 1662.652344 1465.546875 L 1662.652344 917.605469 L 1659.855469 910.710938 C 1659.679688 910.277344 1659.601562 909.832031 1659.46875 909.394531 C 1653.660156 911.945312 1647.875 914.539062 1642.113281 917.210938 Z M 1642.113281 1423.1875 " fill-opacity="1" fill-rule="nonzero"/><path fill="#93aedb" d="M 1658.066406 1519.679688 C 1652.796875 1508.5625 1647.46875 1497.332031 1642.113281 1486.109375 L 1642.113281 1613.109375 C 1649.253906 1625.417969 1656.113281 1637.074219 1662.652344 1648 L 1662.652344 1529.359375 C 1661.121094 1526.128906 1659.589844 1522.894531 1658.066406 1519.679688 Z M 1658.066406 1519.679688 " fill-opacity="1" fill-rule="nonzero"/><path fill="#93aedb" d="M 1535.066406 975.011719 C 1528.179688 979.222656 1521.324219 983.488281 1514.527344 987.816406 L 1514.527344 1381.695312 C 1521.402344 1394.5625 1528.253906 1407.355469 1535.066406 1420.015625 Z M 1535.066406 975.011719 " fill-opacity="1" fill-rule="nonzero"/><path fill="#93aedb" d="M 1437.195312 1042.179688 C 1430.273438 1047.621094 1423.4375 1053.230469 1416.65625 1058.953125 L 1416.65625 1195.746094 C 1423.410156 1208.734375 1430.261719 1221.882812 1437.195312 1235.148438 Z M 1437.195312 1042.179688 " fill-opacity="1" fill-rule="nonzero"/><path fill="#ffffff" d="M 2023.757812 631.042969 C 2062.351562 604.835938 2105.277344 572.324219 2134.433594 535.414062 C 2118.953125 521.710938 2103.753906 509.289062 2091.125 499.085938 C 2089.054688 497.371094 2086.988281 495.800781 2085.058594 494.234375 C 2080.566406 490.660156 2075.855469 487.238281 2070.933594 483.957031 C 2052.152344 502.746094 2024.460938 524.277344 1989.804688 547.140625 C 2001.550781 575.179688 2011.527344 603.96875 2023.757812 631.042969 Z M 2023.757812 631.042969 " fill-opacity="1" fill-rule="nonzero"/><path fill="#16213d" d="M 1038.382812 912.1875 C 1040.914062 912.1875 1043.476562 911.484375 1045.757812 910.019531 L 1362.171875 707.007812 C 1368.535156 702.925781 1370.390625 694.453125 1366.308594 688.085938 C 1366.09375 687.75 1365.820312 687.476562 1365.578125 687.171875 C 1361.296875 681.597656 1353.421875 680.085938 1347.390625 683.953125 L 1280.25 727.027344 L 1259.617188 740.265625 L 1202.566406 776.867188 L 1182.019531 790.050781 L 1127.28125 825.171875 L 1119.582031 830.109375 L 1120.382812 830.570312 C 1126.917969 834.367188 1129.148438 842.75 1125.351562 849.292969 C 1122.8125 853.671875 1118.21875 856.121094 1113.492188 856.121094 C 1111.160156 856.121094 1108.800781 855.523438 1106.636719 854.265625 L 1093.664062 846.738281 L 1030.96875 886.960938 C 1029.15625 888.125 1027.757812 889.664062 1026.707031 891.390625 C 1024.363281 895.246094 1024.03125 900.09375 1026.042969 904.332031 C 1026.289062 904.855469 1026.511719 905.386719 1026.832031 905.882812 C 1029.457031 909.957031 1033.875 912.1875 1038.382812 912.1875 Z M 1038.382812 912.1875 " fill-opacity="1" fill-rule="nonzero"/><path fill="#16213d" d="M 1722.183594 991.628906 L 1685.234375 900.425781 C 1682.398438 893.410156 1674.394531 890.042969 1667.40625 892.878906 C 1660.832031 895.542969 1657.523438 902.730469 1659.476562 909.394531 C 1659.605469 909.835938 1659.6875 910.277344 1659.863281 910.710938 L 1662.660156 917.605469 L 1696.816406 1001.914062 C 1698.96875 1007.242188 1704.101562 1010.472656 1709.507812 1010.472656 C 1711.226562 1010.472656 1712.960938 1010.144531 1714.644531 1009.46875 C 1715.453125 1009.140625 1716.195312 1008.730469 1716.898438 1008.277344 C 1720.683594 1005.847656 1722.953125 1001.742188 1723.148438 997.375 C 1723.230469 995.460938 1722.949219 993.511719 1722.183594 991.628906 Z M 1722.183594 991.628906 " fill-opacity="1" fill-rule="nonzero"/><path fill="#16213d" d="M 1004.375 763.234375 L 983.894531 751.34375 L 879.679688 690.859375 L 859.109375 678.914062 L 778.675781 632.234375 L 758.214844 620.355469 L 667.464844 567.683594 L 646.839844 555.710938 L 646.742188 555.65625 C 643.71875 553.902344 640.144531 553.378906 636.753906 554.167969 L 583.316406 566.667969 C 575.957031 568.390625 571.382812 575.757812 573.105469 583.121094 C 574.820312 590.488281 582.179688 595.070312 589.550781 593.335938 L 637.695312 582.078125 L 647.050781 587.503906 L 667.640625 599.457031 L 758.027344 651.921875 L 778.492188 663.796875 L 859.199219 710.640625 L 879.773438 722.582031 L 983.804688 782.964844 L 1004.332031 794.878906 L 1093.671875 846.738281 L 1106.644531 854.265625 C 1108.808594 855.523438 1111.167969 856.121094 1113.503906 856.121094 C 1118.226562 856.121094 1122.820312 853.671875 1125.363281 849.292969 C 1129.15625 842.75 1126.929688 834.367188 1120.390625 830.570312 L 1119.59375 830.109375 L 1106.757812 822.65625 Z M 1004.375 763.234375 " fill-opacity="1" fill-rule="nonzero"/><path fill="#16213d" d="M 1601.605469 1344.621094 C 1597.976562 1337.992188 1589.664062 1335.550781 1583.019531 1339.175781 C 1576.390625 1342.808594 1573.953125 1351.128906 1577.578125 1357.769531 C 1600.136719 1399.023438 1621.453125 1442.757812 1642.113281 1486.109375 C 1647.46875 1497.332031 1652.796875 1508.558594 1658.066406 1519.679688 C 1659.585938 1522.894531 1661.121094 1526.128906 1662.648438 1529.359375 C 1685.449219 1577.480469 1708.992188 1626.785156 1733.636719 1672.34375 C 1736.109375 1676.921875 1740.820312 1679.523438 1745.691406 1679.523438 C 1747.886719 1679.523438 1750.121094 1678.992188 1752.191406 1677.867188 C 1758.84375 1674.269531 1761.316406 1665.953125 1757.71875 1659.304688 C 1731.773438 1611.335938 1706.882812 1558.773438 1682.808594 1507.949219 C 1676.15625 1493.90625 1669.441406 1479.738281 1662.652344 1465.542969 C 1655.894531 1451.414062 1649.054688 1437.277344 1642.117188 1423.183594 C 1629.011719 1396.5625 1615.566406 1370.15625 1601.605469 1344.621094 Z M 1601.605469 1344.621094 " fill-opacity="1" fill-rule="nonzero"/><path fill="#ffffff" d="M 1756.363281 714.3125 C 1761.492188 736.726562 1766.183594 759.28125 1771.273438 781.730469 L 1845.910156 741.609375 C 1844.519531 740.238281 1843.300781 738.660156 1842.582031 736.699219 L 1814.066406 659.117188 C 1813.960938 658.835938 1813.929688 658.546875 1813.847656 658.257812 L 1751.558594 696.132812 C 1753.304688 702.179688 1754.96875 708.226562 1756.363281 714.3125 Z M 1756.363281 714.3125 " fill-opacity="1" fill-rule="nonzero"/><path fill="#ffffff" d="M 1629.894531 857.730469 L 1700.777344 819.628906 C 1697.289062 817.808594 1694.585938 814.53125 1693.699219 810.382812 C 1688.769531 787.46875 1682.78125 764.542969 1675.941406 742.113281 L 1607.957031 783.453125 C 1616.058594 807.992188 1623.273438 832.78125 1629.894531 857.730469 Z M 1629.894531 857.730469 " fill-opacity="1" fill-rule="nonzero"/><path fill="#ffffff" d="M 1533.589844 828.667969 L 1428.046875 892.84375 C 1430.414062 915.652344 1433.886719 938.289062 1438.175781 960.804688 L 1549.785156 900.800781 C 1548.546875 899.199219 1547.605469 897.320312 1547.175781 895.203125 Z M 1533.589844 828.667969 " fill-opacity="1" fill-rule="nonzero"/><path fill="#ffffff" d="M 1269.675781 1051.382812 L 1363.992188 1000.679688 C 1362.035156 998.894531 1360.539062 996.5625 1359.875 993.789062 L 1347.429688 941.863281 L 1258.019531 996.230469 C 1261.660156 1014.660156 1265.554688 1033.042969 1269.675781 1051.382812 Z M 1269.675781 1051.382812 " fill-opacity="1" fill-rule="nonzero"/><path fill="#ffffff" d="M 1188.390625 1077.039062 L 1181.359375 1042.847656 L 1116.605469 1082.21875 C 1120.921875 1097.082031 1125.136719 1111.976562 1129.203125 1126.90625 L 1201.644531 1087.964844 C 1195.339844 1087.890625 1189.710938 1083.460938 1188.390625 1077.039062 Z M 1188.390625 1077.039062 " fill-opacity="1" fill-rule="nonzero"/><path fill="#ffffff" d="M 1060.183594 1164.007812 C 1055.878906 1162.203125 1052.59375 1158.277344 1051.894531 1153.320312 L 1047.746094 1124.085938 L 979.617188 1165.515625 C 982.59375 1177.808594 985.699219 1190.066406 989.019531 1202.265625 Z M 1060.183594 1164.007812 " fill-opacity="1" fill-rule="nonzero"/><path fill="#ffffff" d="M 909.089844 1231.375 L 902.046875 1215.082031 C 901.761719 1214.421875 901.582031 1213.742188 901.40625 1213.0625 L 875.585938 1228.765625 L 887.910156 1256.617188 L 919.945312 1239.394531 C 915.316406 1238.796875 911.078125 1235.980469 909.089844 1231.375 Z M 909.089844 1231.375 " fill-opacity="1" fill-rule="nonzero"/><path fill="#16213d" d="M 1363.992188 1000.679688 C 1366.472656 1002.9375 1369.722656 1004.296875 1373.179688 1004.296875 C 1374.234375 1004.296875 1375.308594 1004.167969 1376.382812 1003.914062 C 1383.738281 1002.152344 1388.265625 994.757812 1386.503906 987.402344 L 1373.066406 931.316406 C 1371.296875 923.964844 1363.917969 919.433594 1356.558594 921.191406 C 1349.203125 922.960938 1344.671875 930.351562 1346.4375 937.707031 L 1347.429688 941.859375 L 1359.875 993.785156 C 1360.542969 996.554688 1362.035156 998.894531 1363.992188 1000.679688 Z M 1363.992188 1000.679688 " fill-opacity="1" fill-rule="nonzero"/><path fill="#16213d" d="M 1574 889.71875 L 1560.191406 822.078125 C 1558.675781 814.671875 1551.472656 809.859375 1544.039062 811.402344 C 1536.632812 812.914062 1531.855469 820.148438 1533.363281 827.5625 L 1533.589844 828.667969 L 1547.171875 895.203125 C 1547.601562 897.320312 1548.542969 899.199219 1549.78125 900.800781 C 1552.332031 904.101562 1556.28125 906.160156 1560.570312 906.160156 C 1561.472656 906.160156 1562.398438 906.070312 1563.324219 905.878906 C 1570.734375 904.367188 1575.515625 897.132812 1574 889.71875 Z M 1574 889.71875 " fill-opacity="1" fill-rule="nonzero"/><path fill="#16213d" d="M 1842.582031 736.695312 C 1843.300781 738.65625 1844.519531 740.230469 1845.910156 741.601562 C 1848.460938 744.113281 1851.824219 745.671875 1855.429688 745.671875 C 1857 745.671875 1858.59375 745.398438 1860.152344 744.828125 C 1867.253906 742.21875 1870.890625 734.34375 1868.28125 727.242188 L 1839.765625 649.660156 C 1837.160156 642.558594 1829.296875 638.921875 1822.191406 641.535156 C 1815.378906 644.039062 1811.8125 651.394531 1813.847656 658.257812 C 1813.929688 658.546875 1813.960938 658.832031 1814.066406 659.117188 Z M 1842.582031 736.695312 " fill-opacity="1" fill-rule="nonzero"/><path fill="#16213d" d="M 1208.027344 1036.582031 C 1206.5 1029.175781 1199.257812 1024.414062 1191.855469 1025.929688 C 1184.449219 1027.457031 1179.683594 1034.699219 1181.207031 1042.109375 L 1181.359375 1042.847656 L 1188.390625 1077.039062 C 1189.71875 1083.460938 1195.339844 1087.890625 1201.640625 1087.960938 C 1201.691406 1087.960938 1201.734375 1087.976562 1201.785156 1087.976562 C 1202.699219 1087.976562 1203.632812 1087.878906 1204.5625 1087.6875 C 1211.96875 1086.164062 1216.738281 1078.921875 1215.210938 1071.511719 Z M 1208.027344 1036.582031 " fill-opacity="1" fill-rule="nonzero"/><path fill="#16213d" d="M 1060.183594 1164.007812 C 1061.8125 1164.691406 1063.582031 1165.097656 1065.429688 1165.097656 C 1066.066406 1165.097656 1066.714844 1165.050781 1067.367188 1164.957031 C 1074.851562 1163.898438 1080.0625 1156.964844 1079 1149.472656 L 1074.691406 1119.113281 C 1073.632812 1111.625 1066.734375 1106.390625 1059.214844 1107.476562 C 1051.726562 1108.535156 1046.515625 1115.46875 1047.582031 1122.960938 L 1047.742188 1124.085938 L 1051.890625 1153.320312 C 1052.59375 1158.277344 1055.878906 1162.203125 1060.183594 1164.007812 Z M 1060.183594 1164.007812 " fill-opacity="1" fill-rule="nonzero"/><path fill="#16213d" d="M 902.046875 1215.082031 L 909.089844 1231.375 C 911.078125 1235.976562 915.316406 1238.792969 919.949219 1239.390625 C 920.527344 1239.464844 921.078125 1239.640625 921.667969 1239.640625 C 923.480469 1239.640625 925.320312 1239.28125 927.09375 1238.515625 C 934.035156 1235.511719 937.230469 1227.453125 934.226562 1220.511719 L 927.183594 1204.21875 C 924.179688 1197.273438 916.117188 1194.070312 909.1875 1197.082031 C 902.90625 1199.800781 899.746094 1206.652344 901.410156 1213.070312 C 901.582031 1213.742188 901.761719 1214.421875 902.046875 1215.082031 Z M 902.046875 1215.082031 " fill-opacity="1" fill-rule="nonzero"/><path fill="#16213d" d="M 194.503906 1462.421875 C 193.140625 1454.980469 185.992188 1450.074219 178.5625 1451.433594 C 148.488281 1456.972656 117.796875 1461.101562 87.335938 1463.695312 C 79.800781 1464.335938 74.214844 1470.960938 74.855469 1478.5 C 75.464844 1485.640625 81.441406 1491.035156 88.480469 1491.035156 C 88.871094 1491.035156 89.265625 1491.019531 89.65625 1490.984375 C 120.996094 1488.316406 152.574219 1484.074219 183.519531 1478.367188 C 190.957031 1477.003906 195.875 1469.867188 194.503906 1462.421875 Z M 194.503906 1462.421875 " fill-opacity="1" fill-rule="nonzero"/><path fill="#16213d" d="M 110.574219 1275.429688 C 111.367188 1275.429688 112.171875 1275.359375 112.980469 1275.214844 L 168.238281 1265.414062 C 175.683594 1264.09375 180.648438 1256.988281 179.328125 1249.539062 C 178.007812 1242.097656 170.914062 1237.128906 163.460938 1238.445312 L 108.199219 1248.246094 C 100.757812 1249.566406 95.789062 1256.671875 97.109375 1264.121094 C 98.289062 1270.765625 104.058594 1275.429688 110.574219 1275.429688 Z M 110.574219 1275.429688 " fill-opacity="1" fill-rule="nonzero"/><path fill="#16213d" d="M 88.484375 1374.152344 C 89.351562 1374.152344 90.226562 1374.066406 91.113281 1373.894531 L 181.652344 1356.292969 C 189.078125 1354.847656 193.921875 1347.660156 192.484375 1340.238281 C 191.042969 1332.808594 183.867188 1327.949219 176.433594 1329.402344 L 85.890625 1347.007812 C 78.464844 1348.453125 73.621094 1355.640625 75.0625 1363.0625 C 76.328125 1369.605469 82.058594 1374.152344 88.484375 1374.152344 Z M 88.484375 1374.152344 " fill-opacity="1" fill-rule="nonzero"/><path fill="#16213d" d="M 1371.324219 1100.457031 L 1368.773438 1103.222656 L 1241.160156 1241.695312 L 1241.15625 1241.699219 L 1241.550781 1241.511719 L 1400.015625 1164.71875 L 1400.441406 1164.515625 Z M 1371.324219 1100.457031 " fill-opacity="1" fill-rule="nonzero"/><path fill="#16213d" d="M 1693.699219 810.382812 C 1694.59375 814.53125 1697.289062 817.808594 1700.777344 819.628906 C 1702.691406 820.621094 1704.835938 821.199219 1707.066406 821.199219 C 1708.023438 821.199219 1708.992188 821.097656 1709.964844 820.886719 C 1717.359375 819.296875 1722.058594 812.007812 1720.46875 804.617188 C 1715.0625 779.492188 1708.457031 754.320312 1700.839844 729.789062 C 1698.597656 722.574219 1690.933594 718.53125 1683.703125 720.78125 C 1676.484375 723.023438 1672.449219 730.699219 1674.695312 737.921875 C 1675.128906 739.3125 1675.527344 740.71875 1675.945312 742.113281 C 1682.773438 764.539062 1688.765625 787.46875 1693.699219 810.382812 Z M 1693.699219 810.382812 " fill-opacity="1" fill-rule="nonzero"/></svg>