<svg xmlns="http://www.w3.org/2000/svg" xmlns:xlink="http://www.w3.org/1999/xlink" width="3000" zoomAndPan="magnify" viewBox="0 0 2250 2250.000011" height="3000" preserveAspectRatio="xMidYMid meet" version="1.0"><path fill="#284e65" d="M 1772.867188 1246.015625 C 1653.777344 1234.367188 1685.167969 1339.296875 1506.992188 1491.035156 C 1473.410156 1519.636719 1436.617188 1544.5625 1397.1875 1565.972656 C 1428.097656 1582.332031 1462.292969 1597.386719 1478.886719 1604.113281 C 1510.378906 1616.878906 1575.300781 1685.359375 1414.984375 1725.496094 C 1330.4375 1746.660156 1202.308594 1698.714844 1131.566406 1652.644531 C 1119.457031 1654.53125 1107.28125 1656.28125 1094.976562 1657.742188 C 937.382812 1676.4375 839.003906 1587.804688 696.457031 1537.863281 C 281.628906 1375.480469 232.636719 1171.667969 212.9375 1055.617188 C 192.589844 935.734375 138.171875 877.996094 117.890625 792.632812 C 117.527344 791.09375 117.105469 789.402344 116.65625 787.644531 C 113.90625 776.035156 107.488281 745.699219 107.738281 715.980469 C 127.964844 615.003906 294.164062 442.636719 622.804688 514.882812 C 1021.878906 602.605469 1067.121094 896.53125 1201.128906 1074.085938 C 1335.136719 1251.640625 1531.578125 1229.089844 1546.328125 1207.8125 C 1571.039062 1172.160156 1542.390625 1124.96875 1507.085938 1098.214844 C 1458.3125 1061.25 1403.59375 928.40625 1449.664062 829.929688 C 1495.734375 731.453125 1586.535156 646.96875 1580.808594 717.9375 C 1575.082031 788.910156 1625.640625 873.292969 1654.941406 903.117188 C 1683.320312 932.003906 1756 998.910156 1731.476562 1075.085938 C 1757.128906 1011.085938 1840.734375 985.257812 1956.386719 976.136719 C 2076.425781 966.667969 2092.558594 872.003906 2116.253906 882.410156 C 2139.949219 892.816406 2152.503906 923.765625 2131.613281 1027.644531 C 2108.0625 1144.789062 1921.917969 1260.59375 1772.867188 1246.015625 Z M 1772.867188 1246.015625 C 1653.777344 1234.367188 1685.167969 1339.296875 1506.992188 1491.035156 C 1473.410156 1519.636719 1436.617188 1544.5625 1397.1875 1565.972656 C 1428.097656 1582.332031 1462.292969 1597.386719 1478.886719 1604.113281 C 1510.378906 1616.878906 1575.300781 1685.359375 1414.984375 1725.496094 C 1330.4375 1746.660156 1202.308594 1698.714844 1131.566406 1652.644531 C 1119.457031 1654.53125 1107.28125 1656.28125 1094.976562 1657.742188 C 937.382812 1676.4375 839.003906 1587.804688 696.457031 1537.863281 C 281.628906 1375.480469 232.636719 1171.667969 212.9375 1055.617188 C 192.589844 935.734375 138.171875 877.996094 117.890625 792.632812 C 117.527344 791.09375 117.105469 789.402344 116.65625 787.644531 C 113.90625 776.035156 107.488281 745.699219 107.738281 715.980469 C 127.964844 615.003906 294.164062 442.636719 622.804688 514.882812 C 1021.878906 602.605469 1067.121094 896.53125 1201.128906 1074.085938 C 1335.136719 1251.640625 1531.578125 1229.089844 1546.328125 1207.8125 C 1571.039062 1172.160156 1542.390625 1124.96875 1507.085938 1098.214844 C 1458.3125 1061.25 1403.59375 928.40625 1449.664062 829.929688 C 1495.734375 731.453125 1586.535156 646.96875 1580.808594 717.9375 C 1575.082031 788.910156 1625.640625 873.292969 1654.941406 903.117188 C 1683.320312 932.003906 1756 998.910156 1731.476562 1075.085938 C 1757.128906 1011.085938 1840.734375 985.257812 1956.386719 976.136719 C 2076.425781 966.667969 2092.558594 872.003906 2116.253906 882.410156 C 2139.949219 892.816406 2152.503906 923.765625 2131.613281 1027.644531 C 2108.0625 1144.789062 1921.917969 1260.59375 1772.867188 1246.015625 Z M 1772.867188 1246.015625 " fill-opacity="1" fill-rule="nonzero"/><path fill="#f9f1e9" d="M 1094.976562 1657.742188 C 942.285156 1673.289062 778.777344 1656.507812 641.460938 1608.394531 C 226.628906 1446.015625 137.363281 1166.574219 117.664062 1050.523438 C 97.777344 933.34375 135.132812 874.925781 117.890625 792.632812 L 117.929688 792.617188 C 117.929688 792.617188 152.683594 689.996094 321.304688 696.210938 C 507.164062 703.058594 715.554688 956.953125 763.386719 1195.585938 C 811.214844 1434.21875 869.535156 1592.65625 1094.976562 1657.742188 Z M 1094.976562 1657.742188 " fill-opacity="1" fill-rule="nonzero"/><path fill="#f9f1e9" d="M 1094.976562 1657.742188 C 942.285156 1673.289062 778.777344 1656.507812 641.460938 1608.394531 C 226.628906 1446.015625 137.363281 1166.574219 117.664062 1050.523438 C 97.777344 933.34375 135.132812 874.925781 117.890625 792.632812 L 117.929688 792.617188 C 117.929688 792.617188 152.683594 689.996094 321.304688 696.210938 C 507.164062 703.058594 715.554688 956.953125 763.386719 1195.585938 C 811.214844 1434.21875 869.535156 1592.65625 1094.976562 1657.742188 Z M 1094.976562 1657.742188 " fill-opacity="1" fill-rule="nonzero"/><path fill="#f1f1f2" d="M 1007.582031 1067.34375 C 966.332031 1052.742188 920.949219 1062.410156 892.90625 1143.40625 C 864.859375 1224.40625 913.976562 1256.507812 947.183594 1266.574219 C 980.386719 1276.640625 1035.628906 1270.800781 1056.964844 1191.371094 C 1078.300781 1111.941406 1042.992188 1079.875 1007.582031 1067.34375 Z M 1007.582031 1067.34375 C 966.332031 1052.742188 920.949219 1062.410156 892.90625 1143.40625 C 864.859375 1224.40625 913.976562 1256.507812 947.183594 1266.574219 C 980.386719 1276.640625 1035.628906 1270.800781 1056.964844 1191.371094 C 1078.300781 1111.941406 1042.992188 1079.875 1007.582031 1067.34375 Z M 1007.582031 1067.34375 " fill-opacity="1" fill-rule="nonzero"/><path fill="#231f20" d="M 1056.972656 1192.210938 C 1040.441406 1253.765625 1003.691406 1272.671875 972.316406 1270.285156 C 945.339844 1257.277344 914.863281 1227.699219 934.3125 1171.011719 C 957.269531 1104.109375 1000.246094 1098.5625 1035.425781 1111.113281 C 1044.925781 1114.503906 1053.992188 1119.304688 1061.414062 1126.332031 C 1066.734375 1142.785156 1064.140625 1165.535156 1056.972656 1192.210938 Z M 1056.972656 1192.210938 " fill-opacity="1" fill-rule="nonzero"/><path fill="#284e65" d="M 916.675781 1661.378906 C 910.257812 1661.003906 903.84375 1660.558594 897.441406 1660.074219 C 749.632812 1553.828125 680.851562 1403.867188 682.484375 1194.699219 C 683.378906 1079.925781 665.0625 989.273438 646.261719 926.816406 C 652.367188 935.722656 658.320312 944.777344 664.089844 953.972656 C 679.84375 1015.007812 693.175781 1096.105469 692.40625 1194.78125 C 690.75 1406.542969 762.429688 1556.535156 916.675781 1661.378906 Z M 726.550781 1633.390625 C 557.035156 1497.40625 554.28125 1341.546875 550.0625 1090.785156 C 546.832031 898.765625 510.34375 802.492188 480.679688 755.667969 C 472.710938 750.21875 464.6875 745.105469 456.628906 740.320312 C 485.144531 773.632812 536.335938 864.65625 540.144531 1090.949219 C 544.136719 1328.199219 547.003906 1491 704.28125 1627.660156 C 711.660156 1629.644531 719.070312 1631.574219 726.550781 1633.390625 Z M 398.429688 1088.648438 C 400.183594 849.199219 335.828125 739.207031 299.203125 696.089844 C 294.667969 696.183594 290.238281 696.351562 285.917969 696.609375 C 319.207031 733.441406 390.324219 841.238281 388.511719 1088.574219 C 387.289062 1254.867188 401.648438 1354.957031 438.0625 1434.042969 C 460.210938 1482.144531 490.816406 1522.921875 533.910156 1560.242188 C 547.820312 1567.332031 562.234375 1574.269531 577.078125 1581.070312 C 423.300781 1470.234375 396.632812 1333.515625 398.429688 1088.648438 Z M 230.242188 1051.757812 C 240.449219 853.242188 205.367188 763.121094 180.90625 725.128906 C 177.847656 726.878906 174.9375 728.671875 172.148438 730.492188 C 195.164062 766.558594 230.429688 854.953125 220.335938 1051.25 C 214.601562 1162.730469 230.582031 1262.785156 267.828125 1348.625 C 270.589844 1354.992188 273.472656 1361.28125 276.472656 1367.492188 C 284.164062 1376.050781 292.207031 1384.605469 300.640625 1393.140625 C 247.035156 1299.101562 223.386719 1185.070312 230.242188 1051.757812 Z M 230.242188 1051.757812 " fill-opacity="0.2" fill-rule="nonzero"/><path fill="#163349" d="M 1397.1875 1565.972656 C 1385.554688 1557.984375 1328.785156 1517.425781 1287.167969 1470.800781 C 1285.339844 1468.757812 1285.523438 1465.621094 1287.5625 1463.796875 C 1289.605469 1461.972656 1292.726562 1462.15625 1294.566406 1464.191406 C 1340.03125 1515.125 1403.445312 1557.992188 1404.09375 1558.417969 C 1404.761719 1558.863281 1406.484375 1559.917969 1406.855469 1560.570312 C 1403.8125 1562.285156 1400.261719 1564.300781 1397.1875 1565.972656 Z M 1130.214844 1652.84375 C 1117.109375 1645.265625 1031.40625 1595.121094 987.945312 1555.453125 C 985.917969 1553.609375 982.785156 1553.746094 980.9375 1555.773438 C 979.09375 1557.796875 979.234375 1560.933594 981.257812 1562.777344 C 1019.273438 1597.476562 1086.679688 1638.695312 1114.542969 1655.175781 C 1119.785156 1654.433594 1125.003906 1653.652344 1130.214844 1652.84375 Z M 1055.316406 1693.964844 C 1048.042969 1687.089844 1036.574219 1675.777344 1023.890625 1662.53125 C 930.636719 1662.066406 828.875 1653.066406 741.355469 1636.851562 C 795.84375 1700.148438 873.988281 1773.09375 951.6875 1783.84375 C 1115.390625 1806.488281 1080.019531 1717.296875 1055.316406 1693.964844 Z M 1055.316406 1693.964844 " fill-opacity="1" fill-rule="nonzero"/><path fill="#163349" d="M 871.851562 742.398438 C 832.40625 687.363281 878.078125 679.164062 902.777344 702.914062 C 948.988281 747.355469 911.292969 797.433594 871.851562 742.398438 Z M 785.757812 623.84375 C 764.480469 613.683594 736.425781 628.9375 774.117188 656.332031 C 811.804688 683.730469 825.570312 642.851562 785.757812 623.84375 Z M 806.074219 707.886719 C 788.480469 695.292969 760.6875 704.574219 790.34375 735.375 C 820.003906 766.171875 838.996094 731.445312 806.074219 707.886719 Z M 1373.605469 1261.058594 C 1425.152344 1283.988281 1395.78125 1309.132812 1368.019531 1302.472656 C 1316.074219 1290.015625 1322.058594 1238.132812 1373.605469 1261.058594 Z M 1489.222656 1344.675781 C 1510.398438 1340.226562 1522.355469 1313.476562 1479.609375 1314.5 C 1436.867188 1315.523438 1449.605469 1352.996094 1489.222656 1344.675781 Z M 1464.84375 1290.433594 C 1478.855469 1289.019531 1488.441406 1272.535156 1460.707031 1270.242188 C 1432.972656 1267.945312 1438.625 1293.082031 1464.84375 1290.433594 Z M 1464.84375 1290.433594 " fill-opacity="0.5" fill-rule="nonzero"/></svg>