<?xml version="1.0" encoding="UTF-8"?>
<!DOCTYPE svg PUBLIC "-//W3C//DTD SVG 1.1//EN" "http://www.w3.org/Graphics/SVG/1.1/DTD/svg11.dtd">
<svg xmlns="http://www.w3.org/2000/svg" version="1.1" width="3000px" height="3000px" style="shape-rendering:geometricPrecision; text-rendering:geometricPrecision; image-rendering:optimizeQuality; fill-rule:evenodd; clip-rule:evenodd" xmlns:xlink="http://www.w3.org/1999/xlink">
<g><path style="opacity:0.997" fill="#e5e6e7" d="M 935.5,517.5 C 910.833,517.5 886.167,517.5 861.5,517.5C 861.667,479.165 861.5,440.832 861,402.5C 857.05,386.216 846.883,376.383 830.5,373C 748.833,372.333 667.167,372.333 585.5,373C 568.117,376.05 557.617,386.217 554,403.5C 553.5,671.833 553.333,940.166 553.5,1208.5C 553.5,1233.17 553.5,1257.83 553.5,1282.5C 553.5,1367.17 553.5,1451.83 553.5,1536.5C 528.833,1536.5 504.167,1536.5 479.5,1536.5C 479.333,1157.17 479.5,777.833 480,398.5C 485.588,356.46 507.422,326.293 545.5,308C 552.924,304.894 560.591,302.56 568.5,301C 659.141,299.351 749.807,299.018 840.5,300C 894.243,310.409 925.743,342.576 935,396.5C 935.5,436.832 935.667,477.165 935.5,517.5 Z"/></g>
<g><path style="opacity:0.993" fill="#d0d3d3" d="M 861.5,517.5 C 886.167,517.5 910.833,517.5 935.5,517.5C 951.503,517.333 967.503,517.5 983.5,518C 1030.38,525.515 1061.55,551.681 1077,596.5C 1079.31,604.676 1080.64,613.009 1081,621.5C 1081.5,635.163 1081.67,648.829 1081.5,662.5C 959.736,663.832 838.069,663.832 716.5,662.5C 716.333,645.83 716.5,629.163 717,612.5C 727.525,558.308 760.025,526.808 814.5,518C 830.163,517.5 845.83,517.333 861.5,517.5 Z"/></g>
<g><path style="opacity:0.999" fill="#a9aeb1" d="M 716.5,662.5 C 838.069,663.832 959.736,663.832 1081.5,662.5C 1092.39,661.863 1103.06,663.03 1113.5,666C 1132.1,675.709 1138.93,690.875 1134,711.5C 1128.8,724.702 1119.3,732.868 1105.5,736C 967.833,736.667 830.167,736.667 692.5,736C 667.122,728.753 657.622,712.253 664,686.5C 670.677,671.579 682.177,663.745 698.5,663C 704.491,662.501 710.491,662.334 716.5,662.5 Z"/></g>
<g><path style="opacity:0.993" fill="#aaaeb1" d="M 626.5,1282.5 C 626.823,1257.76 626.49,1233.09 625.5,1208.5C 642.977,1197.26 660.31,1185.76 677.5,1174C 697.206,1171.46 714.372,1176.96 729,1190.5C 731.81,1194.45 733.81,1198.79 735,1203.5C 735.667,1231.5 735.667,1259.5 735,1287.5C 733.22,1294.95 729.386,1301.11 723.5,1306C 709.856,1315.1 694.856,1319.1 678.5,1318C 660.927,1306.39 643.594,1294.56 626.5,1282.5 Z"/></g>
<g><path style="opacity:0.992" fill="#cfd2d2" d="M 553.5,1208.5 C 577.5,1208.5 601.5,1208.5 625.5,1208.5C 626.49,1233.09 626.823,1257.76 626.5,1282.5C 602.167,1282.5 577.833,1282.5 553.5,1282.5C 553.5,1257.83 553.5,1233.17 553.5,1208.5 Z"/></g>
<g><path style="opacity:0.998" fill="#50a7d1" d="M 2517.5,1536.5 C 2317.67,1536.17 2118,1536.5 1918.5,1537.5C 1489.76,1537.83 1061.1,1537.5 632.5,1536.5C 644.186,1498.31 669.52,1474.81 708.5,1466C 722.488,1463.76 736.488,1462.93 750.5,1463.5C 751.167,1463.17 751.833,1462.83 752.5,1462.5C 761.024,1434.9 779.357,1417.73 807.5,1411C 819.588,1409.29 831.588,1408.12 843.5,1407.5C 862.797,1343.04 905.13,1302.54 970.5,1286C 1014.47,1277.83 1057.14,1282.33 1098.5,1299.5C 1137.56,1257.05 1180.89,1252.22 1228.5,1285C 1233.35,1289.36 1238.35,1293.52 1243.5,1297.5C 1251.83,1251.34 1278.83,1222.84 1324.5,1212C 1372.97,1201.84 1412.47,1216.01 1443,1254.5C 1455.78,1273.17 1462.78,1293.83 1464,1316.5C 1472.93,1307.51 1483.76,1302.35 1496.5,1301C 1532.57,1294.63 1560.73,1306.46 1581,1336.5C 1587.14,1347.71 1590.47,1359.71 1591,1372.5C 1615.98,1355.47 1643.14,1350.63 1672.5,1358C 1682.31,1361.15 1691.15,1365.99 1699,1372.5C 1715.37,1331.9 1745.2,1314.4 1788.5,1320C 1810.59,1325.46 1829.09,1336.63 1844,1353.5C 1845.8,1338.75 1851.47,1325.75 1861,1314.5C 1886.18,1284.75 1917.34,1275.58 1954.5,1287C 1969.72,1294.03 1982.89,1303.87 1994,1316.5C 1999.01,1323 2004.17,1329.34 2009.5,1335.5C 2053.04,1310.14 2094.7,1312.98 2134.5,1344C 2158.93,1366.03 2171.6,1393.53 2172.5,1426.5C 2210.37,1416.01 2240.04,1427.01 2261.5,1459.5C 2302.58,1415.64 2352.58,1400.48 2411.5,1414C 2471.31,1433.64 2506.64,1474.47 2517.5,1536.5 Z"/></g>
<g><path style="opacity:1" fill="#9dc7ef" d="M 1448.5,1391.5 C 1473.87,1390.78 1495.71,1399.11 1514,1416.5C 1519.98,1428.09 1517.48,1437.26 1506.5,1444C 1502.9,1445.28 1499.24,1445.61 1495.5,1445C 1486.87,1440.01 1478.2,1435.01 1469.5,1430C 1459.81,1426.14 1450.48,1426.81 1441.5,1432C 1433.27,1438.64 1427.1,1446.81 1423,1456.5C 1415.4,1464.23 1406.9,1465.4 1397.5,1460C 1391.2,1453.98 1389.37,1446.81 1392,1438.5C 1403.27,1413.37 1422.1,1397.7 1448.5,1391.5 Z"/></g>
<g><path style="opacity:1" fill="#9dc7ef" d="M 1966.5,1409.5 C 1990.89,1408.78 2010.39,1418.11 2025,1437.5C 2028.72,1448.01 2025.89,1456.18 2016.5,1462C 2009.28,1464.57 2002.61,1463.57 1996.5,1459C 1980.63,1441.05 1964.63,1441.05 1948.5,1459C 1935.42,1467.08 1925.59,1464.25 1919,1450.5C 1917.93,1445.23 1918.6,1440.23 1921,1435.5C 1933.2,1421.49 1948.37,1412.82 1966.5,1409.5 Z"/></g>
<g><path style="opacity:1" fill="#9dc7ef" d="M 1039.5,1427.5 C 1062.01,1427.01 1080.51,1435.34 1095,1452.5C 1099.67,1460.17 1099.67,1467.83 1095,1475.5C 1087.11,1482.37 1078.61,1483.21 1069.5,1478C 1052.99,1458.8 1036.32,1458.8 1019.5,1478C 1006.46,1485.19 996.955,1482.02 991,1468.5C 989.775,1462.73 990.775,1457.4 994,1452.5C 1006.57,1439.3 1021.73,1430.97 1039.5,1427.5 Z"/></g>
<g><path style="opacity:0.996" fill="#d0d3d2" d="M 479.5,1536.5 C 504.167,1536.5 528.833,1536.5 553.5,1536.5C 579.833,1536.5 606.167,1536.5 632.5,1536.5C 1061.1,1537.5 1489.76,1537.83 1918.5,1537.5C 1918.5,1603.83 1918.5,1670.17 1918.5,1736.5C 1918.17,1736.5 1917.83,1736.5 1917.5,1736.5C 1917.5,1718.5 1917.5,1700.5 1917.5,1682.5C 1432.17,1682.5 946.833,1682.5 461.5,1682.5C 427.339,1686.97 400.505,1675.3 381,1647.5C 365.063,1617.26 367.397,1588.59 388,1561.5C 400.366,1548.23 415.532,1540.07 433.5,1537C 448.83,1536.5 464.163,1536.33 479.5,1536.5 Z"/></g>
<g><path style="opacity:0.995" fill="#cfd2d2" d="M 1918.5,1537.5 C 2118,1536.5 2317.67,1536.17 2517.5,1536.5C 2533.17,1536.33 2548.84,1536.5 2564.5,1537C 2599.33,1543.83 2620.17,1564.67 2627,1599.5C 2629.3,1637.84 2612.8,1664.34 2577.5,1679C 2564.03,1682.15 2550.36,1683.31 2536.5,1682.5C 2463.83,1682.5 2391.17,1682.5 2318.5,1682.5C 2318.5,1694.17 2318.5,1705.83 2318.5,1717.5C 2318.5,1723.83 2318.5,1730.17 2318.5,1736.5C 2318.17,1736.5 2317.83,1736.5 2317.5,1736.5C 2317.5,1670.17 2317.5,1603.83 2317.5,1537.5C 2184.5,1537.5 2051.5,1537.5 1918.5,1537.5 Z"/></g>
<g><path style="opacity:1" fill="#fed385" d="M 1918.5,1537.5 C 2051.5,1537.5 2184.5,1537.5 2317.5,1537.5C 2317.5,1603.83 2317.5,1670.17 2317.5,1736.5C 2184.5,1736.5 2051.5,1736.5 1918.5,1736.5C 1918.5,1670.17 1918.5,1603.83 1918.5,1537.5 Z"/></g>
<g><path style="opacity:0.999" fill="#e5e6e6" d="M 461.5,1682.5 C 946.833,1682.5 1432.17,1682.5 1917.5,1682.5C 1917.5,1700.5 1917.5,1718.5 1917.5,1736.5C 1917.17,1761.01 1917.5,1785.34 1918.5,1809.5C 1918.5,1833.83 1918.5,1858.17 1918.5,1882.5C 1917.17,1906.5 1917.17,1930.5 1918.5,1954.5C 1918.33,1976.17 1918.5,1997.84 1919,2019.5C 1924.33,2042.68 1938.5,2057.18 1961.5,2063C 2065.5,2063.67 2169.5,2063.67 2273.5,2063C 2296.89,2057.95 2311.39,2043.78 2317,2020.5C 2317.5,1998.5 2317.67,1976.5 2317.5,1954.5C 2318.83,1930.5 2318.83,1906.5 2317.5,1882.5C 2317.5,1858.17 2317.5,1833.83 2317.5,1809.5C 2317.83,1809.5 2318.17,1809.5 2318.5,1809.5C 2319.33,1802.34 2319.83,1795.01 2320,1787.5C 2386.99,1812.33 2454.16,1836.66 2521.5,1860.5C 2521.34,1862.86 2521.5,1865.19 2522,1867.5C 2522.33,1865.5 2522.67,1863.5 2523,1861.5C 2523.38,1860.94 2523.88,1860.61 2524.5,1860.5C 2512.4,1955.6 2484.23,2045.6 2440,2130.5C 2361.29,2273.67 2241.79,2362.67 2081.5,2397.5C 2044.93,2403.9 2008.27,2408.23 1971.5,2410.5C 1656.43,2410.83 1341.43,2410.5 1026.5,2409.5C 989.494,2408.53 952.827,2404.53 916.5,2397.5C 756.203,2362.67 636.703,2273.67 558,2130.5C 517.602,2052.97 490.602,1970.97 477,1884.5C 466.302,1817.59 461.135,1750.26 461.5,1682.5 Z"/></g>
<g><path style="opacity:0.997" fill="#eeefef" d="M 2536.5,1682.5 C 2536.72,1716.38 2535.39,1750.05 2532.5,1783.5C 2464.3,1758.47 2393.3,1732.8 2319.5,1706.5C 2319.81,1710.37 2319.48,1714.04 2318.5,1717.5C 2318.5,1705.83 2318.5,1694.17 2318.5,1682.5C 2391.17,1682.5 2463.83,1682.5 2536.5,1682.5 Z"/></g>
<g><path style="opacity:0.998" fill="#eaebeb" d="M 2532.5,1783.5 C 2531.09,1809.31 2528.42,1834.98 2524.5,1860.5C 2523.88,1860.61 2523.38,1860.94 2523,1861.5C 2522.67,1863.5 2522.33,1865.5 2522,1867.5C 2521.5,1865.19 2521.34,1862.86 2521.5,1860.5C 2454.16,1836.66 2386.99,1812.33 2320,1787.5C 2319.83,1795.01 2319.33,1802.34 2318.5,1809.5C 2318.5,1785.17 2318.5,1760.83 2318.5,1736.5C 2318.5,1730.17 2318.5,1723.83 2318.5,1717.5C 2319.48,1714.04 2319.81,1710.37 2319.5,1706.5C 2393.3,1732.8 2464.3,1758.47 2532.5,1783.5 Z"/></g>
<g><path style="opacity:1" fill="#fb9e4b" d="M 1917.5,1736.5 C 1917.83,1736.5 1918.17,1736.5 1918.5,1736.5C 2051.5,1736.5 2184.5,1736.5 2317.5,1736.5C 2317.83,1736.5 2318.17,1736.5 2318.5,1736.5C 2318.5,1760.83 2318.5,1785.17 2318.5,1809.5C 2318.17,1809.5 2317.83,1809.5 2317.5,1809.5C 2184.5,1809.5 2051.5,1809.5 1918.5,1809.5C 1917.5,1785.34 1917.17,1761.01 1917.5,1736.5 Z"/></g>
<g><path style="opacity:1" fill="#fed284" d="M 1918.5,1809.5 C 2051.5,1809.5 2184.5,1809.5 2317.5,1809.5C 2317.5,1833.83 2317.5,1858.17 2317.5,1882.5C 2184.5,1882.5 2051.5,1882.5 1918.5,1882.5C 1918.5,1858.17 1918.5,1833.83 1918.5,1809.5 Z"/></g>
<g><path style="opacity:1" fill="#fa9e4b" d="M 1918.5,1882.5 C 2051.5,1882.5 2184.5,1882.5 2317.5,1882.5C 2318.83,1906.5 2318.83,1930.5 2317.5,1954.5C 2184.5,1954.5 2051.5,1954.5 1918.5,1954.5C 1917.17,1930.5 1917.17,1906.5 1918.5,1882.5 Z"/></g>
<g><path style="opacity:1" fill="#fed284" d="M 1918.5,1954.5 C 2051.5,1954.5 2184.5,1954.5 2317.5,1954.5C 2317.67,1976.5 2317.5,1998.5 2317,2020.5C 2311.39,2043.78 2296.89,2057.95 2273.5,2063C 2169.5,2063.67 2065.5,2063.67 1961.5,2063C 1938.5,2057.18 1924.33,2042.68 1919,2019.5C 1918.5,1997.84 1918.33,1976.17 1918.5,1954.5 Z"/></g>
<g><path style="opacity:0.999" fill="#aaaeb1" d="M 916.5,2397.5 C 952.827,2404.53 989.494,2408.53 1026.5,2409.5C 1026.67,2442.5 1026.5,2475.5 1026,2508.5C 1017.99,2542.48 996.495,2557.98 961.5,2555C 937.333,2549.5 922.5,2534.67 917,2510.5C 916.5,2472.83 916.333,2435.17 916.5,2397.5 Z"/></g>
<g><path style="opacity:0.999" fill="#aaaeb1" d="M 2081.5,2397.5 C 2081.97,2436.87 2081.47,2476.21 2080,2515.5C 2069.13,2545.01 2047.97,2558.17 2016.5,2555C 1991.46,2549.29 1976.63,2533.79 1972,2508.5C 1971.5,2475.84 1971.33,2443.17 1971.5,2410.5C 2008.27,2408.23 2044.93,2403.9 2081.5,2397.5 Z"/></g>
</svg>
