<svg xmlns="http://www.w3.org/2000/svg" xmlns:xlink="http://www.w3.org/1999/xlink" width="3000" zoomAndPan="magnify" viewBox="0 0 2250 2250.000011" height="3000" preserveAspectRatio="xMidYMid meet" version="1.0"><defs><clipPath id="8762b34759"><path d="M 434.019531 586 L 1815.652344 586 L 1815.652344 2164.890625 L 434.019531 2164.890625 Z M 434.019531 586 " clip-rule="nonzero"/></clipPath><clipPath id="4b35a0a39f"><path d="M 434.019531 586 L 786 586 L 786 2164.890625 L 434.019531 2164.890625 Z M 434.019531 586 " clip-rule="nonzero"/></clipPath></defs><path fill="#eaeaed" d="M 835.433594 611.050781 C 832.730469 469.714844 848.25 130.976562 1060.363281 144.316406 C 1268.816406 157.480469 1367.945312 472.15625 1401.683594 611.050781 L 1375.703125 611.050781 C 1342.921875 476.167969 1249.027344 242.058594 1115.289062 184.859375 C 889.921875 106.300781 857.140625 423.066406 869.957031 611.050781 Z M 835.433594 611.050781 " fill-opacity="1" fill-rule="evenodd"/><path fill="#e3c04d" d="M 559.761719 586.289062 L 1533.589844 576.960938 L 1792.960938 613.320312 L 785.738281 613.320312 Z M 559.761719 586.289062 " fill-opacity="1" fill-rule="evenodd"/><g clip-path=""><path fill="#fad55c" d="M 559.761719 586.289062 L 788.789062 608.4375 L 1803.160156 613.40625 L 1815.453125 2007.074219 L 776.410156 2164.894531 L 434.21875 1975.078125 Z M 559.761719 586.289062 " fill-opacity="1" fill-rule="evenodd"/></g><g clip-path=""><path fill="#e3c04d" d="M 559.761719 586.289062 L 785.738281 608.175781 L 785.738281 2163.496094 L 776.410156 2164.894531 L 434.21875 1975.078125 Z M 559.761719 586.289062 " fill-opacity="1" fill-rule="evenodd"/></g><path fill="#e3c04d" d="M 964.203125 758.578125 C 964.203125 760.273438 964.117188 761.960938 963.945312 763.648438 C 963.773438 765.332031 963.515625 767.007812 963.171875 768.667969 C 962.832031 770.328125 962.40625 771.96875 961.898438 773.589844 C 961.386719 775.210938 960.796875 776.800781 960.128906 778.367188 C 959.457031 779.929688 958.707031 781.460938 957.882812 782.953125 C 957.054688 784.445312 956.15625 785.898438 955.179688 787.304688 C 954.207031 788.714844 953.164062 790.070312 952.050781 791.378906 C 950.9375 792.691406 949.761719 793.941406 948.523438 795.140625 C 947.285156 796.335938 945.988281 797.472656 944.632812 798.546875 C 943.277344 799.621094 941.871094 800.628906 940.410156 801.570312 C 938.953125 802.511719 937.453125 803.378906 935.90625 804.179688 C 934.359375 804.976562 932.777344 805.699219 931.15625 806.347656 C 929.539062 806.996094 927.886719 807.566406 926.210938 808.058594 C 924.535156 808.550781 922.835938 808.960938 921.113281 809.289062 C 919.394531 809.621094 917.664062 809.871094 915.917969 810.035156 C 914.175781 810.203125 912.425781 810.285156 910.671875 810.285156 C 908.917969 810.285156 907.167969 810.203125 905.425781 810.035156 C 903.679688 809.871094 901.949219 809.621094 900.230469 809.289062 C 898.507812 808.960938 896.8125 808.550781 895.132812 808.058594 C 893.457031 807.566406 891.804688 806.996094 890.1875 806.347656 C 888.566406 805.699219 886.984375 804.976562 885.4375 804.179688 C 883.890625 803.378906 882.390625 802.511719 880.933594 801.570312 C 879.472656 800.628906 878.066406 799.621094 876.710938 798.546875 C 875.359375 797.472656 874.058594 796.335938 872.820312 795.140625 C 871.582031 793.941406 870.40625 792.691406 869.292969 791.378906 C 868.179688 790.070312 867.136719 788.714844 866.164062 787.304688 C 865.1875 785.898438 864.289062 784.445312 863.460938 782.953125 C 862.636719 781.460938 861.886719 779.929688 861.214844 778.367188 C 860.546875 776.800781 859.957031 775.210938 859.445312 773.589844 C 858.9375 771.96875 858.511719 770.328125 858.171875 768.667969 C 857.828125 767.007812 857.570312 765.332031 857.398438 763.648438 C 857.226562 761.960938 857.140625 760.273438 857.140625 758.578125 C 857.140625 756.886719 857.226562 755.195312 857.398438 753.511719 C 857.570312 751.828125 857.828125 750.152344 858.171875 748.492188 C 858.511719 746.832031 858.9375 745.191406 859.445312 743.570312 C 859.957031 741.949219 860.546875 740.359375 861.214844 738.792969 C 861.886719 737.230469 862.636719 735.699219 863.460938 734.207031 C 864.289062 732.710938 865.1875 731.261719 866.164062 729.855469 C 867.136719 728.445312 868.179688 727.085938 869.292969 725.777344 C 870.40625 724.46875 871.582031 723.214844 872.820312 722.019531 C 874.058594 720.820312 875.359375 719.6875 876.710938 718.613281 C 878.066406 717.539062 879.472656 716.53125 880.933594 715.589844 C 882.390625 714.648438 883.890625 713.777344 885.4375 712.980469 C 886.984375 712.183594 888.566406 711.457031 890.1875 710.8125 C 891.804688 710.164062 893.457031 709.59375 895.132812 709.101562 C 896.8125 708.609375 898.507812 708.199219 900.230469 707.867188 C 901.949219 707.539062 903.679688 707.289062 905.425781 707.125 C 907.167969 706.957031 908.917969 706.875 910.671875 706.875 C 912.425781 706.875 914.175781 706.957031 915.917969 707.125 C 917.664062 707.289062 919.394531 707.539062 921.113281 707.867188 C 922.835938 708.199219 924.535156 708.609375 926.210938 709.101562 C 927.886719 709.59375 929.539062 710.164062 931.15625 710.8125 C 932.777344 711.457031 934.359375 712.183594 935.90625 712.980469 C 937.453125 713.777344 938.953125 714.648438 940.410156 715.589844 C 941.871094 716.53125 943.277344 717.539062 944.632812 718.613281 C 945.988281 719.6875 947.285156 720.820312 948.523438 722.019531 C 949.761719 723.214844 950.9375 724.46875 952.050781 725.777344 C 953.164062 727.085938 954.207031 728.445312 955.179688 729.855469 C 956.15625 731.261719 957.054688 732.710938 957.882812 734.207031 C 958.707031 735.699219 959.457031 737.230469 960.128906 738.792969 C 960.796875 740.359375 961.386719 741.949219 961.898438 743.570312 C 962.40625 745.191406 962.832031 746.832031 963.171875 748.492188 C 963.515625 750.152344 963.773438 751.828125 963.945312 753.511719 C 964.117188 755.195312 964.203125 756.886719 964.203125 758.578125 Z M 964.203125 758.578125 " fill-opacity="1" fill-rule="nonzero"/><path fill="#e3c04d" d="M 1668.113281 748.8125 C 1668.113281 750.328125 1668.039062 751.835938 1667.882812 753.34375 C 1667.730469 754.851562 1667.5 756.34375 1667.195312 757.828125 C 1666.890625 759.3125 1666.511719 760.78125 1666.058594 762.230469 C 1665.601562 763.675781 1665.074219 765.101562 1664.476562 766.5 C 1663.878906 767.898438 1663.210938 769.261719 1662.472656 770.597656 C 1661.734375 771.933594 1660.929688 773.230469 1660.0625 774.488281 C 1659.191406 775.746094 1658.261719 776.960938 1657.269531 778.128906 C 1656.277344 779.300781 1655.226562 780.421875 1654.121094 781.492188 C 1653.015625 782.5625 1651.855469 783.574219 1650.648438 784.535156 C 1649.4375 785.496094 1648.183594 786.398438 1646.882812 787.238281 C 1645.582031 788.078125 1644.238281 788.855469 1642.859375 789.570312 C 1641.480469 790.28125 1640.066406 790.929688 1638.621094 791.507812 C 1637.175781 792.085938 1635.703125 792.597656 1634.207031 793.035156 C 1632.710938 793.476562 1631.191406 793.84375 1629.660156 794.136719 C 1628.125 794.433594 1626.578125 794.65625 1625.019531 794.804688 C 1623.464844 794.953125 1621.902344 795.027344 1620.339844 795.027344 C 1618.773438 795.027344 1617.210938 794.953125 1615.65625 794.804688 C 1614.097656 794.65625 1612.550781 794.433594 1611.015625 794.136719 C 1609.484375 793.84375 1607.964844 793.476562 1606.46875 793.035156 C 1604.972656 792.597656 1603.5 792.085938 1602.054688 791.507812 C 1600.609375 790.929688 1599.195312 790.28125 1597.816406 789.570312 C 1596.4375 788.855469 1595.097656 788.078125 1593.792969 787.238281 C 1592.492188 786.398438 1591.238281 785.496094 1590.027344 784.535156 C 1588.820312 783.574219 1587.660156 782.5625 1586.554688 781.492188 C 1585.449219 780.421875 1584.398438 779.300781 1583.40625 778.128906 C 1582.414062 776.960938 1581.484375 775.746094 1580.613281 774.488281 C 1579.746094 773.230469 1578.941406 771.933594 1578.203125 770.597656 C 1577.464844 769.261719 1576.796875 767.898438 1576.199219 766.5 C 1575.601562 765.101562 1575.074219 763.675781 1574.621094 762.230469 C 1574.164062 760.78125 1573.785156 759.3125 1573.480469 757.828125 C 1573.175781 756.34375 1572.945312 754.851562 1572.792969 753.34375 C 1572.640625 751.835938 1572.5625 750.328125 1572.5625 748.8125 C 1572.5625 747.300781 1572.640625 745.789062 1572.792969 744.285156 C 1572.945312 742.777344 1573.175781 741.285156 1573.480469 739.796875 C 1573.785156 738.3125 1574.164062 736.847656 1574.621094 735.398438 C 1575.074219 733.953125 1575.601562 732.527344 1576.199219 731.128906 C 1576.796875 729.730469 1577.464844 728.363281 1578.203125 727.03125 C 1578.941406 725.695312 1579.746094 724.398438 1580.613281 723.140625 C 1581.484375 721.882812 1582.414062 720.667969 1583.40625 719.496094 C 1584.398438 718.328125 1585.449219 717.207031 1586.554688 716.136719 C 1587.660156 715.066406 1588.820312 714.050781 1590.03125 713.09375 C 1591.238281 712.132812 1592.492188 711.230469 1593.792969 710.390625 C 1595.097656 709.550781 1596.4375 708.773438 1597.816406 708.058594 C 1599.195312 707.347656 1600.609375 706.699219 1602.054688 706.121094 C 1603.5 705.542969 1604.972656 705.03125 1606.46875 704.59375 C 1607.964844 704.152344 1609.484375 703.785156 1611.015625 703.492188 C 1612.550781 703.195312 1614.097656 702.972656 1615.65625 702.824219 C 1617.210938 702.675781 1618.773438 702.601562 1620.339844 702.601562 C 1621.902344 702.601562 1623.464844 702.675781 1625.019531 702.824219 C 1626.578125 702.972656 1628.125 703.195312 1629.660156 703.492188 C 1631.191406 703.785156 1632.710938 704.152344 1634.207031 704.59375 C 1635.703125 705.03125 1637.175781 705.542969 1638.621094 706.121094 C 1640.066406 706.699219 1641.480469 707.347656 1642.859375 708.058594 C 1644.238281 708.773438 1645.578125 709.550781 1646.878906 710.390625 C 1648.183594 711.230469 1649.4375 712.132812 1650.648438 713.09375 C 1651.855469 714.050781 1653.015625 715.066406 1654.121094 716.136719 C 1655.226562 717.207031 1656.277344 718.328125 1657.269531 719.496094 C 1658.261719 720.667969 1659.191406 721.882812 1660.0625 723.140625 C 1660.929688 724.398438 1661.734375 725.695312 1662.472656 727.03125 C 1663.210938 728.363281 1663.878906 729.730469 1664.476562 731.128906 C 1665.074219 732.527344 1665.601562 733.953125 1666.058594 735.398438 C 1666.511719 736.847656 1666.890625 738.3125 1667.195312 739.796875 C 1667.5 741.285156 1667.730469 742.777344 1667.882812 744.285156 C 1668.039062 745.789062 1668.113281 747.300781 1668.113281 748.8125 Z M 1668.113281 748.8125 " fill-opacity="1" fill-rule="nonzero"/><path fill="#f8f8f8" d="M 881.117188 738.960938 C 881.117188 738.960938 820.785156 102.464844 1175.359375 122.167969 C 1529.84375 141.875 1645.535156 743.84375 1645.535156 743.84375 L 1608.65625 744.976562 C 1596.015625 625.351562 1459.746094 249.554688 1248.070312 169.511719 C 916.339844 67.324219 899.773438 536.765625 930.984375 735.300781 Z M 881.117188 738.960938 " fill-opacity="1" fill-rule="evenodd"/></svg>