<svg xmlns="http://www.w3.org/2000/svg" xmlns:xlink="http://www.w3.org/1999/xlink" width="3000" zoomAndPan="magnify" viewBox="0 0 2250 2250.000011" height="3000" preserveAspectRatio="xMidYMid meet" version="1.0"><defs><clipPath id="9c0e2f5396"><path d="M 228 1616 L 2106 1616 L 2106 2024.101562 L 228 2024.101562 Z M 228 1616 " clip-rule="nonzero"/></clipPath></defs><path fill="#a46638" d="M 261.761719 802.171875 C 263.671875 656.613281 255.75 657.757812 239.523438 521.554688 C 236.183594 493.96875 263.386719 472.113281 289.25 482.417969 C 347.664062 505.804688 449.410156 511.816406 601.171875 406.25 C 861.453125 225.1875 963.199219 349.652344 963.199219 349.652344 C 963.199219 349.652344 963.199219 428.875 1031.0625 813.53125 C 1050.152344 921.671875 1110.570312 1014.925781 1198.761719 1079.640625 C 1294.589844 1149.890625 1384.976562 1212.980469 1502.28125 1244.382812 C 1638.675781 1280.941406 1780.316406 1297.835938 1921.484375 1294.207031 C 1940.859375 1293.730469 1960.808594 1292.964844 1979.039062 1299.648438 C 1998.222656 1306.617188 2013.589844 1321.316406 2026.570312 1337.160156 C 2076.203125 1397.769531 2105.886719 1499.324219 2105.886719 1577.210938 C 2105.886719 1672.183594 2061.027344 1784.046875 1984.957031 1844.847656 C 1895.042969 1916.53125 1732.5 1906.316406 1625.121094 1893.144531 C 1502.378906 1878.160156 1382.496094 1844.65625 1260.132812 1826.523438 C 1103.695312 1803.519531 944.777344 1805.90625 787.578125 1818.886719 C 667.507812 1828.8125 327.621094 1931.898438 279.898438 1820.414062 C 144.078125 1503.621094 259.089844 1005.09375 261.761719 802.171875 " fill-opacity="1" fill-rule="nonzero"/><path fill="#88532d" d="M 261.761719 802.171875 C 261 865.453125 243.246094 968.347656 229.214844 1085.082031 C 330.582031 1093.003906 431.277344 1112.28125 531.113281 1139.484375 C 628.46875 1166.117188 724.011719 1198.757812 819.457031 1231.496094 C 864.222656 1246.863281 908.988281 1262.421875 953.941406 1277.3125 C 982.289062 1286.667969 1014.359375 1301.9375 1045.1875 1297.453125 C 1133.761719 1284.757812 1167.550781 1151.320312 1186.449219 1080.691406 C 1187.214844 1077.730469 1187.882812 1074.773438 1188.644531 1071.8125 C 1105.988281 1007.578125 1049.484375 917.378906 1031.0625 813.53125 C 963.199219 428.875 963.199219 349.652344 963.199219 349.652344 C 963.199219 349.652344 861.453125 225.1875 601.171875 406.253906 C 449.410156 511.816406 347.664062 505.804688 289.25 482.417969 C 263.386719 472.113281 236.183594 493.96875 239.523438 521.554688 C 255.75 657.757812 263.671875 656.613281 261.761719 802.171875 " fill-opacity="1" fill-rule="nonzero"/><path fill="#444041" d="M 635.4375 468.199219 C 638.300781 519.167969 656.242188 635.804688 620.929688 668.542969 C 566.523438 718.941406 446.070312 707.582031 378.972656 706.152344 C 339.550781 705.292969 300.132812 702.617188 260.714844 699.945312 C 257.945312 643.824219 250.597656 615.09375 239.523438 521.554688 C 236.183594 493.96875 263.386719 472.113281 289.25 482.417969 C 347.664062 505.804688 449.410156 511.816406 601.171875 406.253906 C 610.8125 399.570312 620.164062 393.367188 629.421875 387.449219 C 631.714844 414.363281 634.003906 441.378906 635.4375 468.199219 " fill-opacity="1" fill-rule="nonzero"/><g clip-path=""><path fill="#444041" d="M 1859.253906 1743.101562 C 1677.714844 1808.863281 1478.707031 1805.046875 1288.480469 1798.269531 C 1178.8125 1794.355469 1083.082031 1775.171875 879.492188 1763.910156 C 790.539062 1758.945312 702.34375 1778.511719 562.800781 1756.941406 C 442.445312 1746.726562 324.664062 1720.003906 228.070312 1662.542969 L 242.863281 1924.835938 C 244.488281 1973.226562 280.566406 2013.027344 327.90625 2019.996094 L 327.90625 1947.742188 L 378.875 1947.742188 L 378.875 2021.140625 L 452.371094 2021.714844 L 452.371094 1947.742188 L 503.339844 1947.742188 L 503.339844 2022.191406 L 576.832031 2022.765625 L 576.832031 1947.742188 L 627.800781 1947.742188 L 627.800781 2023.242188 L 732.410156 2024.101562 L 732.410156 1899.636719 C 732.410156 1899.636719 855.441406 1865.371094 958.617188 1888.277344 C 1060.460938 1910.898438 1184.921875 1933.613281 1184.921875 1933.613281 L 1196.28125 2024.101562 C 1196.28125 2024.101562 1222.433594 2024.101562 1264.144531 2023.527344 L 1264.144531 1978.859375 L 1315.015625 1978.859375 L 1315.015625 2022.667969 C 1341.644531 2022.097656 1371.328125 2021.332031 1402.730469 2020.28125 L 1402.730469 1970.363281 L 1453.605469 1970.363281 L 1453.605469 2018.375 C 1481.570312 2017.226562 1510.109375 2015.796875 1538.457031 2014.078125 L 1538.457031 1944.878906 L 1589.425781 1944.878906 L 1589.425781 2010.738281 C 1618.917969 2008.542969 1647.550781 2005.964844 1674.277344 2003.007812 L 1674.277344 1922.257812 L 1725.148438 1922.257812 L 1725.148438 1996.515625 C 1738.226562 1994.511719 1750.632812 1992.410156 1761.898438 1990.121094 C 1777.933594 1986.96875 1794.0625 1983.152344 1810.003906 1978.667969 L 1810.003906 1899.636719 L 1860.875 1899.636719 L 1860.875 1962.152344 C 1993.257812 1912.996094 2105.886719 1819.078125 2105.886719 1679.722656 L 2105.886719 1616.726562 C 2032.871094 1673.898438 1942.292969 1713.035156 1859.253906 1743.101562 " fill-opacity="1" fill-rule="nonzero"/></g><path fill="#444041" d="M 879.492188 513.726562 C 879.492188 535.585938 861.742188 553.335938 839.882812 553.335938 C 818.027344 553.335938 800.273438 535.585938 800.273438 513.726562 C 800.273438 491.867188 818.027344 474.117188 839.882812 474.117188 C 861.742188 474.117188 879.492188 491.867188 879.492188 513.726562 " fill-opacity="1" fill-rule="nonzero"/><path fill="#444041" d="M 902.113281 694.695312 C 902.113281 716.648438 884.359375 734.308594 862.503906 734.308594 C 840.648438 734.308594 822.894531 716.648438 822.894531 694.695312 C 822.894531 672.839844 840.648438 655.085938 862.503906 655.085938 C 884.359375 655.085938 902.113281 672.839844 902.113281 694.695312 " fill-opacity="1" fill-rule="nonzero"/><path fill="#444041" d="M 947.355469 887.121094 C 947.355469 908.882812 929.601562 926.636719 907.746094 926.636719 C 885.886719 926.636719 868.136719 908.882812 868.136719 887.121094 C 868.136719 865.167969 885.886719 847.507812 907.746094 847.507812 C 929.601562 847.507812 947.355469 865.167969 947.355469 887.121094 " fill-opacity="1" fill-rule="nonzero"/><path fill="#444041" d="M 1060.460938 1056.730469 C 1060.460938 1078.683594 1042.800781 1096.34375 1020.851562 1096.34375 C 998.992188 1096.34375 981.238281 1078.683594 981.238281 1056.730469 C 981.238281 1034.875 998.992188 1017.214844 1020.851562 1017.214844 C 1042.800781 1017.214844 1060.460938 1034.875 1060.460938 1056.730469 " fill-opacity="1" fill-rule="nonzero"/><path fill="#444041" d="M 1196.28125 1203.816406 C 1196.28125 1225.769531 1178.527344 1243.429688 1156.671875 1243.429688 C 1134.8125 1243.429688 1117.058594 1225.769531 1117.058594 1203.816406 C 1117.058594 1181.960938 1134.8125 1164.207031 1156.671875 1164.207031 C 1178.527344 1164.207031 1196.28125 1181.960938 1196.28125 1203.816406 " fill-opacity="1" fill-rule="nonzero"/><path fill="#444041" d="M 1343.269531 1294.398438 C 1343.269531 1316.257812 1325.609375 1334.007812 1303.753906 1334.007812 C 1281.894531 1334.007812 1264.144531 1316.257812 1264.144531 1294.398438 C 1264.144531 1272.445312 1281.894531 1254.789062 1303.753906 1254.789062 C 1325.609375 1254.789062 1343.269531 1272.445312 1343.269531 1294.398438 " fill-opacity="1" fill-rule="nonzero"/><path stroke-linecap="round" transform="matrix(0.954466, 0, 0, -0.954483, -869.374273, 3195.250967)" fill="none" stroke-linejoin="round" d="M 1784.799876 2815.399795 C 1784.799876 2815.399795 1867.801962 2803.498717 1938.898665 2815.399795 " stroke="#3b3b3b" stroke-width="23.707001" stroke-opacity="1" stroke-miterlimit="10"/><path stroke-linecap="round" transform="matrix(0.954466, 0, 0, -0.954483, -869.374273, 3195.250967)" fill="none" stroke-linejoin="round" d="M 1820.401431 2625.698747 C 1820.401431 2625.698747 1903.399425 2613.801762 1974.50022 2625.698747 " stroke="#3b3b3b" stroke-width="23.707001" stroke-opacity="1" stroke-miterlimit="10"/><path stroke-linecap="round" transform="matrix(0.954466, 0, 0, -0.954483, -869.374273, 3195.250967)" fill="none" stroke-linejoin="round" d="M 1855.998894 2424.198936 C 1855.998894 2424.198936 1938.898665 2424.198936 2010.101776 2436.001792 " stroke="#3b3b3b" stroke-width="23.707001" stroke-opacity="1" stroke-miterlimit="10"/><path stroke-linecap="round" transform="matrix(0.954466, 0, 0, -0.954483, -869.374273, 3195.250967)" fill="none" stroke-linejoin="round" d="M 1974.50022 2246.398966 C 1974.50022 2246.398966 2021.900751 2270.098807 2093.001547 2281.901664 " stroke="#3b3b3b" stroke-width="23.707001" stroke-opacity="1" stroke-miterlimit="10"/><path stroke-linecap="round" transform="matrix(0.954466, 0, 0, -0.954483, -869.374273, 3195.250967)" fill="none" stroke-linejoin="round" d="M 2116.800035 2092.298838 C 2116.800035 2092.298838 2211.601096 2139.698521 2235.301361 2163.398363 " stroke="#3b3b3b" stroke-width="23.707001" stroke-opacity="1" stroke-miterlimit="10"/><path stroke-linecap="round" transform="matrix(0.954466, 0, 0, -0.954483, -869.374273, 3195.250967)" fill="none" stroke-linejoin="round" d="M 2270.898824 1997.499471 C 2270.898824 1997.499471 2377.49886 2068.598996 2377.49886 2092.298838 " stroke="#3b3b3b" stroke-width="23.707001" stroke-opacity="1" stroke-miterlimit="10"/></svg>