<svg xmlns="http://www.w3.org/2000/svg" xmlns:xlink="http://www.w3.org/1999/xlink" width="3000" zoomAndPan="magnify" viewBox="0 0 2250 2250.000011" height="3000" preserveAspectRatio="xMidYMid meet" version="1.0"><path fill="#79aebc" d="M 308.09375 1929.675781 C 307.820312 1929.675781 307.550781 1929.660156 307.277344 1929.621094 C 303.699219 1929.175781 301.15625 1925.917969 301.605469 1922.335938 L 321.058594 1766.019531 C 321.5 1762.433594 324.699219 1759.871094 328.347656 1760.34375 C 331.929688 1760.789062 334.472656 1764.050781 334.023438 1767.628906 L 314.5625 1923.945312 C 314.160156 1927.25 311.34375 1929.675781 308.09375 1929.675781 " fill-opacity="1" fill-rule="nonzero"/><path fill="#79aebc" d="M 235.898438 1938.265625 C 235.300781 1938.265625 234.691406 1938.1875 234.082031 1938.007812 C 230.617188 1937 228.617188 1933.382812 229.621094 1929.917969 L 281.605469 1750.085938 C 282.613281 1746.613281 286.242188 1744.605469 289.699219 1745.621094 C 293.160156 1746.628906 295.160156 1750.25 294.160156 1753.710938 L 242.171875 1933.546875 C 241.34375 1936.40625 238.730469 1938.265625 235.898438 1938.265625 " fill-opacity="1" fill-rule="nonzero"/><path fill="#79aebc" d="M 202.945312 1893.472656 C 202.148438 1893.472656 201.347656 1893.324219 200.5625 1893.015625 C 197.203125 1891.699219 195.546875 1887.910156 196.867188 1884.554688 L 253.53125 1740.136719 C 254.851562 1736.785156 258.644531 1735.132812 262.003906 1736.441406 C 265.359375 1737.757812 267.015625 1741.554688 265.695312 1744.910156 L 209.027344 1889.320312 C 208.019531 1891.898438 205.558594 1893.472656 202.945312 1893.472656 " fill-opacity="1" fill-rule="nonzero"/><path fill="#79aebc" d="M 344 1972.804688 C 343.75 1972.804688 343.5 1972.789062 343.238281 1972.757812 C 339.65625 1972.339844 337.085938 1969.101562 337.503906 1965.519531 L 358.796875 1782.351562 C 359.21875 1778.773438 362.46875 1776.1875 366.046875 1776.625 C 369.628906 1777.035156 372.203125 1780.277344 371.78125 1783.867188 L 350.484375 1967.019531 C 350.09375 1970.351562 347.273438 1972.804688 344 1972.804688 " fill-opacity="1" fill-rule="nonzero"/><path fill="#79aebc" d="M 381.738281 1942.425781 C 381.246094 1942.425781 380.734375 1942.367188 380.226562 1942.253906 C 376.71875 1941.414062 374.546875 1937.890625 375.382812 1934.382812 L 408.0625 1796.910156 C 408.890625 1793.398438 412.421875 1791.210938 415.925781 1792.066406 C 419.4375 1792.898438 421.609375 1796.417969 420.773438 1799.921875 L 388.089844 1937.398438 C 387.378906 1940.402344 384.699219 1942.425781 381.738281 1942.425781 " fill-opacity="1" fill-rule="nonzero"/><path fill="#79aebc" d="M 396.703125 2018.316406 C 395.984375 2018.316406 395.25 2018.195312 394.535156 2017.9375 C 391.128906 2016.746094 389.34375 2013.011719 390.539062 2009.613281 L 461.457031 1808.375 C 462.660156 1804.96875 466.398438 1803.179688 469.789062 1804.382812 C 473.199219 1805.582031 474.988281 1809.3125 473.785156 1812.710938 L 402.867188 2013.953125 C 401.917969 2016.636719 399.398438 2018.316406 396.703125 2018.316406 " fill-opacity="1" fill-rule="nonzero"/><path fill="#79aebc" d="M 463.152344 1988.261719 C 462.5 1988.261719 461.828125 1988.160156 461.167969 1987.953125 C 457.730469 1986.859375 455.832031 1983.175781 456.921875 1979.738281 L 503.648438 1833.023438 C 504.738281 1829.585938 508.40625 1827.683594 511.855469 1828.78125 C 515.292969 1829.875 517.191406 1833.546875 516.101562 1836.984375 L 469.378906 1983.707031 C 468.496094 1986.484375 465.921875 1988.261719 463.152344 1988.261719 " fill-opacity="1" fill-rule="nonzero"/><path fill="#79aebc" d="M 490.605469 2036.605469 C 489.648438 2036.605469 488.683594 2036.394531 487.769531 2035.953125 C 484.519531 2034.375 483.160156 2030.476562 484.726562 2027.222656 L 567.515625 1856.1875 C 569.097656 1852.9375 573.015625 1851.589844 576.246094 1853.164062 C 579.496094 1854.726562 580.855469 1858.636719 579.28125 1861.878906 L 496.496094 2032.914062 C 495.367188 2035.246094 493.035156 2036.605469 490.605469 2036.605469 " fill-opacity="1" fill-rule="nonzero"/><path fill="#79aebc" d="M 560.398438 2034.058594 C 559.710938 2034.058594 559.007812 2033.953125 558.316406 2033.71875 C 554.898438 2032.574219 553.050781 2028.867188 554.203125 2025.449219 L 604.121094 1876.914062 C 605.273438 1873.492188 608.976562 1871.652344 612.394531 1872.800781 C 615.816406 1873.953125 617.65625 1877.652344 616.511719 1881.070312 L 566.59375 2029.609375 C 565.671875 2032.335938 563.128906 2034.058594 560.398438 2034.058594 " fill-opacity="1" fill-rule="nonzero"/><path fill="#79aebc" d="M 615.019531 2012.003906 C 614.5625 2012.003906 614.09375 2011.957031 613.632812 2011.851562 C 610.105469 2011.09375 607.863281 2007.613281 608.625 2004.085938 L 635.234375 1880.933594 C 635.992188 1877.414062 639.5 1875.179688 642.996094 1875.933594 C 646.519531 1876.695312 648.761719 1880.171875 648.003906 1883.699219 L 621.398438 2006.851562 C 620.734375 2009.90625 618.023438 2012.003906 615.019531 2012.003906 " fill-opacity="1" fill-rule="nonzero"/><path fill="#79aebc" d="M 631.761719 2065.144531 C 630.925781 2065.144531 630.070312 2064.980469 629.242188 2064.636719 C 625.914062 2063.242188 624.347656 2059.417969 625.738281 2056.085938 C 648.667969 2001.289062 685.332031 1911.617188 687.59375 1900.742188 C 687.492188 1898.375 688.691406 1896.027344 690.890625 1894.773438 C 694.003906 1892.992188 698.015625 1894.078125 699.800781 1897.222656 C 701.75 1900.648438 703.585938 1903.878906 637.792969 2061.128906 C 636.75 2063.640625 634.316406 2065.144531 631.761719 2065.144531 M 688.445312 1903.683594 L 688.488281 1903.683594 Z M 688.4375 1903.675781 C 688.4375 1903.675781 688.4375 1903.675781 688.441406 1903.675781 C 688.4375 1903.675781 688.4375 1903.675781 688.4375 1903.675781 " fill-opacity="1" fill-rule="nonzero"/><path fill="#79aebc" d="M 687.832031 2042.261719 C 687.035156 2042.261719 686.226562 2042.117188 685.441406 2041.816406 C 682.085938 2040.488281 680.433594 2036.695312 681.753906 2033.335938 L 726.457031 1919.726562 C 727.773438 1916.375 731.589844 1914.726562 734.925781 1916.042969 C 738.285156 1917.359375 739.933594 1921.148438 738.613281 1924.515625 L 693.914062 2038.117188 C 692.898438 2040.691406 690.4375 2042.261719 687.832031 2042.261719 " fill-opacity="1" fill-rule="nonzero"/><path fill="#79aebc" d="M 720.144531 2078.894531 C 719.449219 2078.894531 718.746094 2078.78125 718.046875 2078.542969 C 714.625 2077.382812 712.800781 2073.675781 713.964844 2070.257812 L 761.375 1930.824219 C 762.535156 1927.410156 766.246094 1925.578125 769.660156 1926.734375 C 773.078125 1927.894531 774.90625 1931.609375 773.746094 1935.023438 L 726.332031 2074.460938 C 725.410156 2077.179688 722.871094 2078.894531 720.144531 2078.894531 " fill-opacity="1" fill-rule="nonzero"/><path fill="#79aebc" d="M 1714.144531 1657.03125 C 1712.785156 1657.03125 1711.417969 1656.605469 1710.242188 1655.738281 L 1583.894531 1561.632812 C 1581.003906 1559.476562 1580.402344 1555.382812 1582.554688 1552.496094 C 1584.714844 1549.601562 1588.808594 1549.007812 1591.707031 1551.160156 L 1718.050781 1645.261719 C 1720.949219 1647.417969 1721.542969 1651.511719 1719.386719 1654.402344 C 1718.101562 1656.121094 1716.136719 1657.03125 1714.144531 1657.03125 " fill-opacity="1" fill-rule="nonzero"/><path fill="#79aebc" d="M 1685.976562 1724.03125 C 1684.273438 1724.03125 1682.574219 1723.371094 1681.296875 1722.0625 L 1550.550781 1588.058594 C 1548.035156 1585.476562 1548.085938 1581.339844 1550.667969 1578.824219 C 1553.25 1576.308594 1557.390625 1576.351562 1559.910156 1578.9375 L 1690.648438 1712.9375 C 1693.164062 1715.519531 1693.121094 1719.65625 1690.539062 1722.175781 C 1689.265625 1723.417969 1687.621094 1724.03125 1685.976562 1724.03125 " fill-opacity="1" fill-rule="nonzero"/><path fill="#79aebc" d="M 1630.746094 1730.558594 C 1628.839844 1730.558594 1626.953125 1729.730469 1625.660156 1728.136719 L 1528.042969 1607.558594 C 1525.769531 1604.753906 1526.207031 1600.640625 1529.015625 1598.367188 C 1531.820312 1596.097656 1535.929688 1596.53125 1538.203125 1599.339844 L 1635.820312 1719.914062 C 1638.089844 1722.722656 1637.65625 1726.835938 1634.847656 1729.109375 C 1633.640625 1730.085938 1632.1875 1730.558594 1630.746094 1730.558594 " fill-opacity="1" fill-rule="nonzero"/><path fill="#79aebc" d="M 1769.390625 1647.113281 C 1768.042969 1647.113281 1766.695312 1646.699219 1765.527344 1645.847656 L 1616.738281 1536.882812 C 1613.832031 1534.75 1613.199219 1530.664062 1615.335938 1527.753906 C 1617.464844 1524.839844 1621.542969 1524.207031 1624.464844 1526.347656 L 1773.253906 1635.304688 C 1776.164062 1637.4375 1776.789062 1641.53125 1774.660156 1644.433594 C 1773.378906 1646.1875 1771.402344 1647.113281 1769.390625 1647.113281 " fill-opacity="1" fill-rule="nonzero"/><path fill="#79aebc" d="M 1761.609375 1599.300781 C 1760.011719 1599.300781 1758.414062 1598.714844 1757.152344 1597.546875 L 1653.722656 1501.246094 C 1651.085938 1498.789062 1650.941406 1494.660156 1653.394531 1492.011719 C 1655.863281 1489.371094 1660 1489.234375 1662.628906 1491.691406 L 1766.058594 1587.988281 C 1768.703125 1590.445312 1768.84375 1594.582031 1766.386719 1597.21875 C 1765.105469 1598.601562 1763.351562 1599.300781 1761.609375 1599.300781 " fill-opacity="1" fill-rule="nonzero"/><path fill="#79aebc" d="M 1835.007812 1623.761719 C 1833.179688 1623.761719 1831.367188 1623 1830.070312 1621.511719 L 1690.066406 1460.480469 C 1687.695312 1457.757812 1687.984375 1453.636719 1690.707031 1451.269531 C 1693.429688 1448.894531 1697.550781 1449.191406 1699.921875 1451.914062 L 1839.933594 1612.945312 C 1842.304688 1615.667969 1842.007812 1619.789062 1839.289062 1622.160156 C 1838.050781 1623.234375 1836.527344 1623.761719 1835.007812 1623.761719 " fill-opacity="1" fill-rule="nonzero"/><path fill="#79aebc" d="M 1841.675781 1551.152344 C 1839.921875 1551.152344 1838.164062 1550.441406 1836.875 1549.050781 L 1732.339844 1435.980469 C 1729.890625 1433.335938 1730.054688 1429.199219 1732.699219 1426.742188 C 1735.359375 1424.304688 1739.480469 1424.464844 1741.9375 1427.117188 L 1846.476562 1540.183594 C 1848.925781 1542.832031 1848.765625 1546.960938 1846.113281 1549.414062 C 1844.851562 1550.578125 1843.261719 1551.152344 1841.675781 1551.152344 " fill-opacity="1" fill-rule="nonzero"/><path fill="#79aebc" d="M 1897.285156 1551.152344 C 1895.207031 1551.152344 1893.171875 1550.15625 1891.902344 1548.324219 L 1784.027344 1391.894531 C 1781.976562 1388.925781 1782.726562 1384.855469 1785.703125 1382.804688 C 1788.664062 1380.757812 1792.742188 1381.5 1794.792969 1384.476562 L 1902.660156 1540.910156 C 1904.703125 1543.878906 1903.957031 1547.949219 1900.992188 1549.992188 C 1899.859375 1550.773438 1898.566406 1551.152344 1897.285156 1551.152344 " fill-opacity="1" fill-rule="nonzero"/><path fill="#79aebc" d="M 1929.535156 1489.222656 C 1927.742188 1489.222656 1925.957031 1488.496094 1924.664062 1487.050781 L 1820.128906 1370.304688 C 1817.71875 1367.621094 1817.949219 1363.484375 1820.632812 1361.082031 C 1823.328125 1358.671875 1827.453125 1358.902344 1829.855469 1361.59375 L 1934.394531 1478.335938 C 1936.808594 1481.023438 1936.578125 1485.15625 1933.890625 1487.566406 C 1932.640625 1488.679688 1931.082031 1489.222656 1929.535156 1489.222656 " fill-opacity="1" fill-rule="nonzero"/><path fill="#79aebc" d="M 1937.3125 1430.851562 C 1935.765625 1430.851562 1934.210938 1430.300781 1932.964844 1429.191406 L 1838.996094 1345.242188 C 1836.300781 1342.835938 1836.066406 1338.710938 1838.476562 1336.019531 C 1840.871094 1333.335938 1845 1333.09375 1847.699219 1335.5 L 1941.667969 1419.445312 C 1944.359375 1421.855469 1944.59375 1425.980469 1942.183594 1428.675781 C 1940.894531 1430.117188 1939.109375 1430.851562 1937.3125 1430.851562 " fill-opacity="1" fill-rule="nonzero"/><path fill="#79aebc" d="M 1991.816406 1442.523438 C 1989.859375 1442.523438 1987.925781 1441.652344 1986.644531 1439.984375 C 1950.292969 1392.988281 1890.40625 1316.835938 1882.070312 1309.492188 C 1879.960938 1308.410156 1878.515625 1306.214844 1878.515625 1303.683594 C 1878.515625 1300.070312 1881.441406 1297.148438 1885.050781 1297.148438 C 1888.980469 1297.148438 1892.703125 1297.148438 1996.972656 1431.996094 C 1999.1875 1434.851562 1998.664062 1438.957031 1995.804688 1441.160156 C 1994.613281 1442.085938 1993.210938 1442.523438 1991.816406 1442.523438 M 1885.050781 1310.210938 L 1885.089844 1310.210938 Z M 1885.050781 1310.210938 " fill-opacity="1" fill-rule="nonzero"/><path fill="#79aebc" d="M 1999.597656 1382.488281 C 1997.691406 1382.488281 1995.804688 1381.65625 1994.511719 1380.0625 L 1917.777344 1285.089844 C 1915.503906 1282.289062 1915.945312 1278.175781 1918.75 1275.90625 C 1921.5625 1273.640625 1925.671875 1274.078125 1927.941406 1276.882812 L 2004.675781 1371.84375 C 2006.945312 1374.65625 2006.507812 1378.765625 2003.695312 1381.035156 C 2002.492188 1382.007812 2001.042969 1382.488281 1999.597656 1382.488281 " fill-opacity="1" fill-rule="nonzero"/><path fill="#79aebc" d="M 2047.421875 1372.480469 C 2045.617188 1372.480469 2043.824219 1371.738281 2042.535156 1370.289062 L 1944.664062 1260.207031 C 1942.261719 1257.511719 1942.511719 1253.386719 1945.207031 1250.984375 C 1947.902344 1248.582031 1952.039062 1248.839844 1954.429688 1251.527344 L 2052.300781 1361.601562 C 2054.699219 1364.304688 2054.453125 1368.4375 2051.757812 1370.824219 C 2050.515625 1371.933594 2048.964844 1372.480469 2047.421875 1372.480469 " fill-opacity="1" fill-rule="nonzero"/><path fill="#ad251e" d="M 642.734375 183.414062 L 1697.007812 183.414062 L 1697.007812 614.820312 L 642.734375 614.820312 Z M 642.734375 183.414062 " fill-opacity="1" fill-rule="nonzero"/><path fill="#d53020" d="M 1825.417969 643.800781 C 1633.367188 770.652344 1466.371094 929.339844 1325.292969 1092.34375 C 1219.84375 1214.191406 1128.9375 1338.4375 1052.84375 1453.582031 C 1052.226562 1454.449219 1051.660156 1455.316406 1051.097656 1456.1875 C 1045.960938 1463.984375 1040.863281 1471.78125 1035.851562 1479.484375 C 1027.621094 1492.207031 1019.5625 1504.789062 1011.71875 1517.199219 C 1009.328125 1520.945312 1006.976562 1524.695312 1004.625 1528.390625 C 957.273438 1603.859375 916.855469 1673.890625 883.53125 1734.898438 C 878.4375 1744.171875 873.5625 1753.234375 868.8125 1762.074219 C 801.644531 1887.492188 767.410156 1968.40625 767.410156 1968.40625 L 240.019531 1752.578125 C 274.90625 1660.648438 315.984375 1571.984375 361.761719 1486.761719 C 364.289062 1482.101562 366.765625 1477.441406 369.292969 1472.824219 C 401.222656 1414.382812 435.324219 1357.597656 471.175781 1302.460938 C 473.574219 1298.71875 476.007812 1295.019531 478.449219 1291.359375 C 485.902344 1279.988281 493.433594 1268.671875 501.101562 1257.476562 C 506.894531 1248.855469 512.777344 1240.316406 518.738281 1231.832031 C 582.246094 1140.289062 650.285156 1053.761719 720.453125 972.546875 C 772.59375 912.144531 825.953125 854.65625 879.4375 800.222656 C 1180.417969 494.34375 1487.71875 285.265625 1629.535156 195.859375 C 1671.613281 169.339844 1727.410156 186.800781 1747.011719 232.527344 L 1865.886719 510.148438 C 1886.617188 558.613281 1869.414062 614.707031 1825.417969 643.800781 " fill-opacity="1" fill-rule="nonzero"/><path fill="#ad251e" d="M 1325.277344 1092.355469 C 1219.035156 1215.117188 1127.527344 1340.316406 1051.082031 1456.203125 C 958.210938 1186.5 795.402344 1032.386719 720.441406 972.546875 C 772.574219 912.152344 825.929688 854.664062 879.421875 800.226562 L 1103.21875 818.910156 Z M 1325.277344 1092.355469 " fill-opacity="1" fill-rule="nonzero"/><path fill="#d53020" d="M 1966.238281 1265.882812 L 1514.722656 1632.777344 C 1514.722656 1632.777344 1502.441406 1610.085938 1477.824219 1570.761719 C 1469.90625 1558.042969 1460.667969 1543.589844 1450.171875 1527.605469 C 1427.605469 1493.335938 1399.167969 1452.050781 1364.796875 1405.667969 C 1361.53125 1401.234375 1358.175781 1396.746094 1354.777344 1392.171875 C 1315.492188 1339.785156 1268.972656 1281.515625 1215.21875 1219.984375 C 1212.390625 1216.71875 1209.515625 1213.449219 1206.601562 1210.183594 C 1200.148438 1202.871094 1193.574219 1195.46875 1186.867188 1188.019531 C 1180.160156 1180.53125 1173.324219 1172.996094 1166.394531 1165.410156 C 996.519531 980.292969 764.53125 774.4375 470.347656 616.363281 C 421.957031 590.359375 405.445312 529 434.371094 482.316406 L 594.007812 224.382812 C 617.621094 186.28125 666.355469 172.5625 706.429688 192.636719 C 861.054688 270.199219 1229.203125 436.730469 1597.261719 808.320312 C 1604.40625 815.507812 1611.546875 822.824219 1618.699219 830.1875 C 1625.792969 837.457031 1632.855469 844.855469 1639.902344 852.304688 C 1642.914062 855.441406 1645.921875 858.621094 1648.882812 861.796875 C 1706.5 923.03125 1763.824219 989.484375 1820.058594 1061.511719 C 1825.542969 1068.476562 1830.945312 1075.496094 1836.347656 1082.550781 C 1859.742188 1112.980469 1882.867188 1144.429688 1905.777344 1176.871094 C 1915.628906 1190.804688 1925.429688 1204.914062 1935.136719 1219.242188 C 1945.589844 1234.570312 1955.960938 1250.121094 1966.238281 1265.882812 " fill-opacity="1" fill-rule="nonzero"/><path fill="#d53020" d="M 1503.597656 233.921875 L 836.339844 233.921875 C 832.726562 233.921875 829.804688 231 829.804688 227.390625 C 829.804688 223.785156 832.726562 220.855469 836.339844 220.855469 L 1503.597656 220.855469 C 1507.207031 220.855469 1510.132812 223.785156 1510.132812 227.390625 C 1510.132812 231 1507.207031 233.921875 1503.597656 233.921875 " fill-opacity="1" fill-rule="nonzero"/><path fill="#79aebc" d="M 1813.65625 1218.113281 C 1815.835938 1220.851562 1815.394531 1224.820312 1812.738281 1227.082031 C 1810.042969 1229.347656 1806.082031 1229.078125 1803.726562 1226.515625 C 1802.722656 1225.476562 1707.160156 1123.136719 1650.226562 1165.597656 C 1593.121094 1208.140625 1659.375 1326.199219 1660.070312 1327.417969 C 1661.722656 1330.292969 1660.941406 1333.90625 1658.285156 1335.910156 C 1655.632812 1337.871094 1651.882812 1337.519531 1649.621094 1335.125 C 1648.75 1334.214844 1561.671875 1242.847656 1507.539062 1276.464844 C 1453.695312 1309.914062 1501.351562 1417.652344 1501.832031 1418.742188 C 1503.085938 1421.527344 1502.226562 1424.832031 1499.777344 1426.664062 C 1497.292969 1428.488281 1493.902344 1428.359375 1491.59375 1426.3125 C 1469.332031 1406.765625 1405.128906 1361.429688 1375.511719 1385.640625 C 1369.105469 1390.910156 1365.839844 1397.832031 1364.792969 1405.675781 C 1361.527344 1401.230469 1358.179688 1396.746094 1354.777344 1392.171875 C 1357.304688 1385.992188 1361.308594 1380.375 1367.238281 1375.539062 C 1399.339844 1349.273438 1452.996094 1381.066406 1481.402344 1401.667969 C 1469.25 1365.21875 1453.519531 1294.625 1500.65625 1265.359375 C 1544.167969 1238.359375 1601.136719 1275.460938 1633.636719 1302.511719 C 1616.296875 1261.179688 1595.957031 1189.761719 1642.390625 1155.097656 C 1684.292969 1123.917969 1739.699219 1155.183594 1775.980469 1183.664062 C 1756.03125 1147.082031 1737.90625 1096.21875 1771.449219 1069.792969 C 1786.523438 1057.898438 1803.417969 1056.765625 1820.0625 1061.511719 C 1825.542969 1068.476562 1830.953125 1075.492188 1836.347656 1082.546875 C 1816.878906 1071.523438 1796.191406 1066.910156 1779.507812 1080.023438 C 1742.4375 1109.28125 1791.574219 1189.628906 1813.65625 1218.113281 " fill-opacity="1" fill-rule="nonzero"/><path fill="#ffb191" d="M 1362.980469 1279.597656 C 1359.148438 1279.597656 1355.34375 1278.703125 1351.816406 1276.945312 C 1345.8125 1273.957031 1341.335938 1268.8125 1339.203125 1262.449219 C 1337.078125 1256.089844 1337.542969 1249.289062 1340.539062 1243.289062 C 1343.53125 1237.28125 1348.679688 1232.8125 1355.039062 1230.679688 C 1361.40625 1228.542969 1368.199219 1229.015625 1374.203125 1232.015625 C 1380.207031 1235 1384.6875 1240.152344 1386.816406 1246.507812 C 1388.941406 1252.859375 1388.472656 1259.671875 1385.480469 1265.667969 C 1382.488281 1271.675781 1377.339844 1276.15625 1370.980469 1278.28125 C 1368.363281 1279.152344 1365.667969 1279.597656 1362.980469 1279.597656 M 1363.023438 1242.441406 C 1361.738281 1242.441406 1360.445312 1242.644531 1359.1875 1243.066406 C 1356.140625 1244.089844 1353.667969 1246.234375 1352.230469 1249.113281 C 1350.800781 1251.988281 1350.574219 1255.257812 1351.59375 1258.296875 C 1352.617188 1261.347656 1354.761719 1263.820312 1357.644531 1265.253906 C 1360.511719 1266.6875 1363.777344 1266.914062 1366.832031 1265.890625 C 1369.875 1264.871094 1372.351562 1262.722656 1373.789062 1259.847656 C 1375.21875 1256.964844 1375.449219 1253.703125 1374.425781 1250.660156 C 1373.402344 1247.605469 1371.257812 1245.144531 1368.375 1243.710938 C 1366.683594 1242.863281 1364.863281 1242.441406 1363.023438 1242.441406 " fill-opacity="1" fill-rule="nonzero"/><path fill="#ffb191" d="M 1383.164062 1321.191406 C 1380.429688 1321.191406 1377.886719 1319.464844 1376.960938 1316.730469 L 1335.25 1192.179688 C 1334.101562 1188.753906 1335.949219 1185.050781 1339.367188 1183.910156 C 1342.824219 1182.761719 1346.5 1184.613281 1347.648438 1188.027344 L 1389.363281 1312.582031 C 1390.507812 1316 1388.660156 1319.703125 1385.242188 1320.847656 C 1384.546875 1321.082031 1383.84375 1321.191406 1383.164062 1321.191406 " fill-opacity="1" fill-rule="nonzero"/><path fill="#ffb191" d="M 1301.511719 1281.601562 C 1298.761719 1281.601562 1296.207031 1279.863281 1295.300781 1277.109375 C 1294.175781 1273.683594 1296.035156 1269.992188 1299.46875 1268.871094 L 1424.269531 1227.828125 C 1427.699219 1226.691406 1431.390625 1228.5625 1432.511719 1231.996094 C 1433.644531 1235.417969 1431.777344 1239.109375 1428.34375 1240.234375 L 1303.554688 1281.273438 C 1302.875 1281.5 1302.183594 1281.601562 1301.511719 1281.601562 " fill-opacity="1" fill-rule="nonzero"/><path fill="#ffb191" d="M 1335.835938 1313.960938 C 1334.738281 1313.960938 1333.625 1313.691406 1332.605469 1313.097656 C 1329.472656 1311.316406 1328.371094 1307.320312 1330.15625 1304.191406 L 1395.175781 1190.054688 C 1396.957031 1186.914062 1400.9375 1185.828125 1404.085938 1187.613281 C 1407.222656 1189.394531 1408.316406 1193.390625 1406.527344 1196.519531 L 1341.519531 1310.660156 C 1340.308594 1312.773438 1338.101562 1313.960938 1335.835938 1313.960938 " fill-opacity="1" fill-rule="nonzero"/><path fill="#ffb191" d="M 1420.164062 1285.726562 C 1419.300781 1285.726562 1418.425781 1285.554688 1417.578125 1285.191406 L 1296.929688 1233.214844 C 1293.613281 1231.785156 1292.089844 1227.949219 1293.515625 1224.632812 C 1294.941406 1221.3125 1298.789062 1219.789062 1302.097656 1221.222656 L 1422.753906 1273.191406 C 1426.0625 1274.621094 1427.59375 1278.460938 1426.167969 1281.773438 C 1425.101562 1284.253906 1422.695312 1285.726562 1420.164062 1285.726562 " fill-opacity="1" fill-rule="nonzero"/><path fill="#ffb191" d="M 1519.363281 1168.035156 C 1515.527344 1168.035156 1511.71875 1167.148438 1508.195312 1165.386719 C 1502.1875 1162.394531 1497.707031 1157.25 1495.574219 1150.886719 C 1491.179688 1137.769531 1498.285156 1123.515625 1511.414062 1119.113281 C 1524.542969 1114.726562 1538.792969 1121.824219 1543.191406 1134.949219 C 1545.324219 1141.304688 1544.851562 1148.117188 1541.855469 1154.113281 C 1538.863281 1160.121094 1533.71875 1164.589844 1527.359375 1166.714844 C 1524.734375 1167.597656 1522.042969 1168.035156 1519.363281 1168.035156 M 1519.375 1130.886719 C 1518.109375 1130.886719 1516.828125 1131.082031 1515.566406 1131.503906 C 1509.269531 1133.613281 1505.863281 1140.453125 1507.972656 1146.742188 C 1508.988281 1149.789062 1511.136719 1152.257812 1514.019531 1153.699219 C 1516.890625 1155.125 1520.152344 1155.355469 1523.207031 1154.335938 C 1526.253906 1153.308594 1528.722656 1151.164062 1530.164062 1148.292969 C 1531.597656 1145.410156 1531.824219 1142.144531 1530.804688 1139.101562 C 1529.109375 1134.066406 1524.40625 1130.886719 1519.375 1130.886719 " fill-opacity="1" fill-rule="nonzero"/><path fill="#ffb191" d="M 1539.542969 1209.625 C 1536.804688 1209.625 1534.261719 1207.90625 1533.34375 1205.171875 L 1491.628906 1080.617188 C 1490.476562 1077.199219 1492.320312 1073.496094 1495.742188 1072.351562 C 1499.1875 1071.199219 1502.875 1073.058594 1504.015625 1076.46875 L 1545.734375 1201.019531 C 1546.882812 1204.441406 1545.039062 1208.140625 1541.617188 1209.292969 C 1540.921875 1209.523438 1540.222656 1209.625 1539.542969 1209.625 " fill-opacity="1" fill-rule="nonzero"/><path fill="#ffb191" d="M 1457.886719 1170.042969 C 1455.132812 1170.042969 1452.582031 1168.300781 1451.675781 1165.550781 C 1450.546875 1162.125 1452.410156 1158.429688 1455.839844 1157.3125 L 1580.644531 1116.269531 C 1584.074219 1115.136719 1587.761719 1117.003906 1588.886719 1120.4375 C 1590.019531 1123.859375 1588.152344 1127.554688 1584.722656 1128.675781 L 1459.925781 1169.714844 C 1459.246094 1169.941406 1458.558594 1170.042969 1457.886719 1170.042969 " fill-opacity="1" fill-rule="nonzero"/><path fill="#ffb191" d="M 1492.210938 1202.402344 C 1491.113281 1202.402344 1490 1202.128906 1488.984375 1201.542969 C 1485.847656 1199.757812 1484.746094 1195.765625 1486.53125 1192.636719 L 1551.550781 1078.5 C 1553.332031 1075.359375 1557.3125 1074.265625 1560.460938 1076.050781 C 1563.59375 1077.839844 1564.695312 1081.828125 1562.902344 1084.964844 L 1497.894531 1199.101562 C 1496.6875 1201.21875 1494.476562 1202.402344 1492.210938 1202.402344 " fill-opacity="1" fill-rule="nonzero"/><path fill="#ffb191" d="M 1576.539062 1174.167969 C 1575.675781 1174.167969 1574.800781 1173.996094 1573.953125 1173.628906 L 1453.304688 1121.660156 C 1449.984375 1120.230469 1448.464844 1116.390625 1449.886719 1113.074219 C 1451.316406 1109.753906 1455.148438 1108.230469 1458.476562 1109.664062 L 1579.128906 1161.636719 C 1582.441406 1163.0625 1583.96875 1166.90625 1582.546875 1170.21875 C 1581.480469 1172.695312 1579.066406 1174.167969 1576.539062 1174.167969 " fill-opacity="1" fill-rule="nonzero"/><path fill="#ffb191" d="M 1671.164062 1055.476562 C 1667.324219 1055.476562 1663.519531 1054.585938 1659.992188 1052.824219 C 1653.984375 1049.832031 1649.507812 1044.679688 1647.378906 1038.324219 C 1642.980469 1025.207031 1650.082031 1010.949219 1663.210938 1006.554688 C 1676.332031 1002.167969 1690.597656 1009.269531 1694.992188 1022.390625 C 1697.121094 1028.75 1696.652344 1035.550781 1693.660156 1041.550781 C 1690.664062 1047.554688 1685.519531 1052.035156 1679.160156 1054.15625 C 1676.535156 1055.035156 1673.84375 1055.476562 1671.164062 1055.476562 M 1671.175781 1018.320312 C 1669.910156 1018.320312 1668.628906 1018.523438 1667.363281 1018.941406 C 1661.070312 1021.050781 1657.660156 1027.890625 1659.769531 1034.179688 C 1660.789062 1037.230469 1662.933594 1039.703125 1665.820312 1041.132812 C 1668.695312 1042.558594 1671.957031 1042.796875 1675.007812 1041.769531 C 1678.058594 1040.753906 1680.523438 1038.601562 1681.964844 1035.726562 C 1683.394531 1032.847656 1683.621094 1029.582031 1682.605469 1026.535156 C 1680.910156 1021.507812 1676.207031 1018.320312 1671.175781 1018.320312 " fill-opacity="1" fill-rule="nonzero"/><path fill="#ffb191" d="M 1691.339844 1097.070312 C 1688.605469 1097.070312 1686.0625 1095.34375 1685.144531 1092.609375 L 1643.425781 968.054688 C 1642.277344 964.640625 1644.121094 960.941406 1647.542969 959.789062 C 1650.976562 958.644531 1654.667969 960.488281 1655.816406 963.90625 L 1697.535156 1088.460938 C 1698.683594 1091.882812 1696.839844 1095.582031 1693.417969 1096.726562 C 1692.722656 1096.960938 1692.023438 1097.070312 1691.339844 1097.070312 " fill-opacity="1" fill-rule="nonzero"/><path fill="#ffb191" d="M 1609.6875 1057.488281 C 1606.933594 1057.488281 1604.378906 1055.742188 1603.472656 1052.992188 C 1602.347656 1049.558594 1604.210938 1045.871094 1607.640625 1044.746094 L 1732.445312 1003.707031 C 1735.878906 1002.574219 1739.566406 1004.441406 1740.6875 1007.867188 C 1741.820312 1011.300781 1739.953125 1014.988281 1736.523438 1016.113281 L 1611.726562 1057.152344 C 1611.046875 1057.375 1610.355469 1057.488281 1609.6875 1057.488281 " fill-opacity="1" fill-rule="nonzero"/><path fill="#ffb191" d="M 1644.011719 1089.839844 C 1642.914062 1089.839844 1641.800781 1089.5625 1640.785156 1088.980469 C 1637.648438 1087.195312 1636.550781 1083.203125 1638.332031 1080.070312 L 1703.347656 965.933594 C 1705.125 962.796875 1709.121094 961.707031 1712.261719 963.488281 C 1715.398438 965.277344 1716.492188 969.265625 1714.703125 972.398438 L 1649.695312 1086.542969 C 1648.484375 1088.65625 1646.277344 1089.839844 1644.011719 1089.839844 " fill-opacity="1" fill-rule="nonzero"/><path fill="#ffb191" d="M 1728.339844 1061.597656 C 1727.476562 1061.597656 1726.601562 1061.433594 1725.753906 1061.070312 L 1605.105469 1009.097656 C 1601.785156 1007.667969 1600.261719 1003.824219 1601.6875 1000.507812 C 1603.121094 997.199219 1606.964844 995.660156 1610.273438 997.09375 L 1730.929688 1049.066406 C 1734.238281 1050.496094 1735.769531 1054.339844 1734.34375 1057.652344 C 1733.277344 1060.121094 1730.871094 1061.597656 1728.339844 1061.597656 " fill-opacity="1" fill-rule="nonzero"/><path fill="#79aebc" d="M 1571.640625 1351.636719 C 1571.640625 1361.691406 1563.488281 1369.839844 1553.429688 1369.839844 C 1543.378906 1369.839844 1535.230469 1361.691406 1535.230469 1351.636719 C 1535.230469 1341.582031 1543.378906 1333.433594 1553.429688 1333.433594 C 1563.488281 1333.433594 1571.640625 1341.582031 1571.640625 1351.636719 " fill-opacity="1" fill-rule="nonzero"/><path fill="#79aebc" d="M 1727.234375 1245.417969 C 1727.234375 1255.472656 1719.085938 1263.621094 1709.023438 1263.621094 C 1698.972656 1263.621094 1690.820312 1255.472656 1690.820312 1245.417969 C 1690.820312 1235.371094 1698.972656 1227.21875 1709.023438 1227.21875 C 1719.085938 1227.21875 1727.234375 1235.371094 1727.234375 1245.417969 " fill-opacity="1" fill-rule="nonzero"/><path fill="#79aebc" d="M 1856.640625 1149.425781 C 1856.640625 1159.480469 1848.488281 1167.632812 1838.433594 1167.632812 C 1828.382812 1167.632812 1820.230469 1159.480469 1820.230469 1149.425781 C 1820.230469 1139.375 1828.382812 1131.230469 1838.433594 1131.230469 C 1848.488281 1131.230469 1856.640625 1139.375 1856.640625 1149.425781 " fill-opacity="1" fill-rule="nonzero"/><path fill="#79aebc" d="M 1456.578125 1457.242188 C 1456.578125 1467.296875 1448.425781 1475.445312 1438.371094 1475.445312 C 1428.320312 1475.445312 1420.167969 1467.296875 1420.167969 1457.242188 C 1420.167969 1447.183594 1428.320312 1439.039062 1438.371094 1439.039062 C 1448.425781 1439.039062 1456.578125 1447.183594 1456.578125 1457.242188 " fill-opacity="1" fill-rule="nonzero"/><path fill="#ffb191" d="M 1905.792969 1176.871094 L 1450.179688 1527.605469 C 1460.683594 1543.597656 1469.917969 1558.042969 1477.839844 1570.757812 L 1935.148438 1219.242188 Z M 1905.792969 1176.871094 " fill-opacity="1" fill-rule="nonzero"/><path fill="#ad251e" d="M 1636.671875 855.414062 C 1634.890625 855.414062 1633.113281 854.679688 1631.824219 853.25 C 1425.035156 624.320312 1148.816406 437.539062 1146.050781 435.683594 C 1143.058594 433.660156 1142.261719 429.605469 1144.273438 426.617188 C 1146.292969 423.617188 1150.355469 422.820312 1153.34375 424.839844 C 1156.125 426.710938 1433.632812 614.339844 1641.519531 844.503906 C 1643.941406 847.175781 1643.730469 851.308594 1641.050781 853.726562 C 1639.804688 854.859375 1638.230469 855.414062 1636.671875 855.414062 " fill-opacity="1" fill-rule="nonzero"/><path fill="#ffb191" d="M 1618.699219 830.1875 L 1186.867188 1188.019531 C 1180.160156 1180.53125 1173.324219 1172.996094 1166.394531 1165.417969 L 1597.261719 808.320312 C 1604.40625 815.507812 1611.546875 822.828125 1618.699219 830.1875 " fill-opacity="1" fill-rule="nonzero"/><path fill="#79aebc" d="M 868.8125 1762.074219 C 873.253906 1731.851562 871.035156 1699.058594 844.726562 1688.34375 C 800.992188 1670.53125 755.339844 1752.925781 741.496094 1786.195312 C 740.140625 1789.417969 736.480469 1791.03125 733.214844 1789.808594 C 729.90625 1788.59375 728.160156 1785.019531 729.207031 1781.667969 C 729.648438 1780.3125 771.503906 1646.714844 706.472656 1618.144531 C 641.226562 1589.535156 571.269531 1705.410156 570.570312 1706.589844 C 568.875 1709.46875 565.347656 1710.59375 562.292969 1709.246094 C 559.289062 1707.898438 557.726562 1704.492188 558.726562 1701.363281 C 559.078125 1700.144531 595.535156 1579.300781 539.566406 1548.855469 C 483.890625 1518.5 413.726562 1613.179688 413.023438 1614.132812 C 411.195312 1616.621094 407.890625 1617.492188 405.097656 1616.230469 C 402.269531 1615.011719 400.699219 1611.957031 401.355469 1608.957031 C 407.367188 1579.953125 415.164062 1501.738281 379.402344 1487.933594 C 373.4375 1485.628906 367.511719 1485.414062 361.761719 1486.761719 C 364.289062 1482.101562 366.765625 1477.441406 369.292969 1472.820312 C 374.132812 1472.914062 379.09375 1473.824219 384.105469 1475.742188 C 422.824219 1490.71875 421.699219 1553.039062 417.773438 1587.925781 C 443.476562 1559.398438 497.140625 1510.84375 545.835938 1537.363281 C 590.832031 1561.875 586.648438 1629.730469 579.15625 1671.316406 C 606.601562 1635.828125 658.648438 1582.871094 711.703125 1606.167969 C 759.527344 1627.203125 759.699219 1690.824219 752.816406 1736.421875 C 774.773438 1701.015625 810.136719 1660.125 849.644531 1676.234375 C 874.257812 1686.253906 882.664062 1709.550781 883.53125 1734.898438 C 878.4375 1744.171875 873.5625 1753.234375 868.8125 1762.074219 " fill-opacity="1" fill-rule="nonzero"/><path fill="#ffb191" d="M 487.816406 1453.027344 C 481.621094 1453.027344 475.726562 1450.777344 471.082031 1446.605469 C 466.09375 1442.132812 463.144531 1435.980469 462.777344 1429.285156 C 462.417969 1422.585938 464.6875 1416.148438 469.164062 1411.164062 C 473.636719 1406.171875 479.792969 1403.222656 486.492188 1402.863281 C 493.265625 1402.523438 499.625 1404.773438 504.617188 1409.246094 C 509.605469 1413.71875 512.558594 1419.875 512.917969 1426.570312 C 513.277344 1433.265625 511.007812 1439.703125 506.535156 1444.695312 C 502.054688 1449.679688 495.90625 1452.628906 489.207031 1452.988281 C 488.742188 1453.015625 488.28125 1453.027344 487.816406 1453.027344 M 487.863281 1415.886719 C 487.644531 1415.886719 487.421875 1415.894531 487.203125 1415.90625 C 483.988281 1416.082031 481.039062 1417.496094 478.886719 1419.890625 C 476.742188 1422.28125 475.65625 1425.367188 475.828125 1428.578125 C 476 1431.789062 477.417969 1434.738281 479.8125 1436.886719 C 482.199219 1439.035156 485.242188 1440.089844 488.5 1439.945312 C 491.710938 1439.773438 494.664062 1438.359375 496.8125 1435.96875 C 498.957031 1433.570312 500.042969 1430.488281 499.875 1427.28125 C 499.703125 1424.0625 498.285156 1421.121094 495.890625 1418.96875 C 493.660156 1416.96875 490.835938 1415.886719 487.863281 1415.886719 " fill-opacity="1" fill-rule="nonzero"/><path fill="#ffb191" d="M 445.457031 1481.691406 C 443.90625 1481.691406 442.34375 1481.144531 441.09375 1480.023438 C 438.414062 1477.613281 438.183594 1473.488281 440.601562 1470.796875 L 528.335938 1373.03125 C 530.742188 1370.355469 534.867188 1370.117188 537.5625 1372.535156 C 540.25 1374.945312 540.472656 1379.082031 538.066406 1381.761719 L 450.320312 1479.523438 C 449.035156 1480.960938 447.25 1481.691406 445.457031 1481.691406 " fill-opacity="1" fill-rule="nonzero"/><path fill="#ffb191" d="M 536.886719 1479.398438 C 535.320312 1479.398438 533.746094 1478.835938 532.5 1477.703125 L 435.183594 1389.460938 C 432.515625 1387.03125 432.3125 1382.90625 434.738281 1380.234375 C 437.15625 1377.554688 441.296875 1377.359375 443.964844 1379.785156 L 541.28125 1468.027344 C 543.949219 1470.449219 544.152344 1474.585938 541.726562 1477.261719 C 540.4375 1478.683594 538.664062 1479.398438 536.886719 1479.398438 " fill-opacity="1" fill-rule="nonzero"/><path fill="#ffb191" d="M 559.757812 1437.152344 L 559.746094 1437.152344 L 428.371094 1436.976562 C 424.765625 1436.972656 421.84375 1434.042969 421.851562 1430.433594 C 421.855469 1426.828125 424.78125 1423.914062 428.382812 1423.914062 L 428.390625 1423.914062 L 559.765625 1424.085938 C 563.371094 1424.089844 566.292969 1427.011719 566.289062 1430.625 C 566.285156 1434.234375 563.359375 1437.152344 559.757812 1437.152344 " fill-opacity="1" fill-rule="nonzero"/><path fill="#ffb191" d="M 494.5625 1496.355469 C 491.277344 1496.355469 488.449219 1493.878906 488.082031 1490.539062 L 473.71875 1359.976562 C 473.320312 1356.390625 475.914062 1353.164062 479.496094 1352.765625 C 483.074219 1352.371094 486.308594 1354.960938 486.707031 1358.539062 L 501.070312 1489.109375 C 501.460938 1492.703125 498.871094 1495.921875 495.289062 1496.316406 C 495.042969 1496.339844 494.804688 1496.355469 494.5625 1496.355469 " fill-opacity="1" fill-rule="nonzero"/><path fill="#ffb191" d="M 669.773438 1524.945312 C 663.796875 1524.945312 657.800781 1522.824219 653.015625 1518.535156 C 642.714844 1509.285156 641.851562 1493.390625 651.097656 1483.089844 C 660.351562 1472.785156 676.246094 1471.933594 686.554688 1481.164062 C 696.851562 1490.410156 697.714844 1506.3125 688.46875 1516.617188 C 683.519531 1522.128906 676.65625 1524.945312 669.773438 1524.945312 M 683.613281 1512.253906 L 683.652344 1512.253906 Z M 669.792969 1487.824219 C 666.488281 1487.824219 663.195312 1489.167969 660.820312 1491.8125 C 656.390625 1496.75 656.804688 1504.382812 661.746094 1508.804688 C 666.675781 1513.238281 674.304688 1512.828125 678.75 1507.894531 C 683.175781 1502.949219 682.765625 1495.320312 677.824219 1490.898438 C 675.527344 1488.835938 672.65625 1487.824219 669.792969 1487.824219 " fill-opacity="1" fill-rule="nonzero"/><path fill="#ffb191" d="M 627.386719 1553.621094 C 625.839844 1553.621094 624.277344 1553.070312 623.027344 1551.945312 C 620.347656 1549.535156 620.117188 1545.410156 622.535156 1542.71875 L 710.265625 1444.957031 C 712.671875 1442.28125 716.796875 1442.046875 719.492188 1444.460938 C 722.183594 1446.867188 722.402344 1451 719.996094 1453.683594 L 632.253906 1551.453125 C 630.96875 1552.890625 629.183594 1553.621094 627.386719 1553.621094 " fill-opacity="1" fill-rule="nonzero"/><path fill="#ffb191" d="M 718.820312 1551.320312 C 717.253906 1551.320312 715.679688 1550.765625 714.429688 1549.632812 L 617.117188 1461.382812 C 614.449219 1458.960938 614.246094 1454.828125 616.671875 1452.160156 C 619.089844 1449.484375 623.230469 1449.289062 625.898438 1451.707031 L 723.210938 1539.949219 C 725.882812 1542.375 726.085938 1546.507812 723.660156 1549.179688 C 722.371094 1550.601562 720.597656 1551.320312 718.820312 1551.320312 " fill-opacity="1" fill-rule="nonzero"/><path fill="#ffb191" d="M 741.691406 1509.074219 L 741.683594 1509.074219 L 610.304688 1508.902344 C 606.699219 1508.902344 603.773438 1505.964844 603.777344 1502.359375 C 603.785156 1498.75 606.714844 1495.835938 610.316406 1495.835938 L 610.324219 1495.835938 L 741.699219 1496.011719 C 745.304688 1496.019531 748.230469 1498.945312 748.226562 1502.550781 C 748.222656 1506.152344 745.296875 1509.074219 741.691406 1509.074219 " fill-opacity="1" fill-rule="nonzero"/><path fill="#ffb191" d="M 676.5 1568.285156 C 673.210938 1568.285156 670.386719 1565.808594 670.015625 1562.460938 L 655.652344 1431.902344 C 655.257812 1428.3125 657.851562 1425.085938 661.433594 1424.695312 C 664.992188 1424.296875 668.242188 1426.886719 668.644531 1430.472656 L 683.003906 1561.035156 C 683.398438 1564.621094 680.808594 1567.847656 677.222656 1568.242188 C 676.980469 1568.269531 676.738281 1568.285156 676.5 1568.285156 " fill-opacity="1" fill-rule="nonzero"/><path fill="#ffb191" d="M 846.773438 1606.425781 C 840.800781 1606.425781 834.808594 1604.324219 830.015625 1600.023438 C 819.722656 1590.78125 818.855469 1574.871094 828.101562 1564.574219 C 837.351562 1554.277344 853.257812 1553.429688 863.558594 1562.660156 C 873.859375 1571.898438 874.71875 1587.796875 865.472656 1598.101562 C 860.523438 1603.617188 853.660156 1606.425781 846.773438 1606.425781 M 860.609375 1593.742188 L 860.65625 1593.742188 Z M 846.792969 1569.3125 C 843.492188 1569.3125 840.195312 1570.660156 837.820312 1573.308594 C 833.398438 1578.242188 833.808594 1585.871094 838.746094 1590.296875 C 843.679688 1594.726562 851.304688 1594.320312 855.75 1589.375 C 857.894531 1586.988281 858.984375 1583.898438 858.808594 1580.6875 C 858.636719 1577.476562 857.222656 1574.527344 854.828125 1572.386719 C 852.53125 1570.328125 849.660156 1569.3125 846.792969 1569.3125 " fill-opacity="1" fill-rule="nonzero"/><path fill="#ffb191" d="M 804.394531 1635.109375 C 802.84375 1635.109375 801.285156 1634.558594 800.035156 1633.433594 C 797.355469 1631.023438 797.125 1626.894531 799.539062 1624.207031 L 887.269531 1526.445312 C 889.679688 1523.765625 893.800781 1523.539062 896.5 1525.949219 C 899.183594 1528.355469 899.40625 1532.484375 897 1535.171875 L 809.261719 1632.941406 C 807.972656 1634.375 806.191406 1635.109375 804.394531 1635.109375 " fill-opacity="1" fill-rule="nonzero"/><path fill="#ffb191" d="M 895.824219 1632.808594 C 894.253906 1632.808594 892.683594 1632.25 891.433594 1631.117188 L 794.121094 1542.871094 C 791.453125 1540.445312 791.246094 1536.320312 793.671875 1533.648438 C 796.09375 1530.96875 800.234375 1530.773438 802.902344 1533.195312 L 900.214844 1621.441406 C 902.886719 1623.863281 903.085938 1627.996094 900.664062 1630.675781 C 899.371094 1632.09375 897.601562 1632.808594 895.824219 1632.808594 " fill-opacity="1" fill-rule="nonzero"/><path fill="#ffb191" d="M 918.695312 1590.558594 L 918.6875 1590.558594 L 787.308594 1590.382812 C 783.703125 1590.382812 780.777344 1587.457031 780.785156 1583.847656 C 780.789062 1580.242188 783.714844 1577.320312 787.316406 1577.320312 L 787.324219 1577.320312 L 918.703125 1577.5 C 922.3125 1577.507812 925.234375 1580.433594 925.230469 1584.042969 C 925.222656 1587.648438 922.296875 1590.558594 918.695312 1590.558594 " fill-opacity="1" fill-rule="nonzero"/><path fill="#ffb191" d="M 853.503906 1649.769531 C 850.214844 1649.769531 847.386719 1647.296875 847.019531 1643.945312 L 832.65625 1513.390625 C 832.261719 1509.800781 834.851562 1506.578125 838.4375 1506.179688 C 841.996094 1505.789062 845.246094 1508.375 845.648438 1511.964844 L 860.007812 1642.523438 C 860.402344 1646.109375 857.8125 1649.335938 854.226562 1649.730469 C 853.980469 1649.753906 853.742188 1649.769531 853.503906 1649.769531 " fill-opacity="1" fill-rule="nonzero"/><path fill="#79aebc" d="M 1011.722656 1517.199219 C 1009.328125 1520.949219 1006.976562 1524.691406 1004.621094 1528.390625 L 471.171875 1302.460938 C 473.570312 1298.71875 476.011719 1295.019531 478.445312 1291.355469 Z M 1011.722656 1517.199219 " fill-opacity="1" fill-rule="nonzero"/><path fill="#79aebc" d="M 505.835938 1641.683594 C 497.09375 1646.648438 485.980469 1643.582031 481.019531 1634.84375 C 476.050781 1626.097656 479.117188 1614.988281 487.859375 1610.023438 C 496.605469 1605.066406 507.71875 1608.125 512.679688 1616.875 C 517.644531 1625.609375 514.582031 1636.71875 505.835938 1641.683594 " fill-opacity="1" fill-rule="nonzero"/><path fill="#79aebc" d="M 675.042969 1724.523438 C 666.300781 1729.484375 655.1875 1726.425781 650.226562 1717.679688 C 645.261719 1708.9375 648.324219 1697.828125 657.066406 1692.863281 C 665.8125 1687.90625 676.925781 1690.964844 681.886719 1699.710938 C 686.851562 1708.449219 683.789062 1719.558594 675.042969 1724.523438 " fill-opacity="1" fill-rule="nonzero"/><path fill="#79aebc" d="M 822.421875 1789.648438 C 813.679688 1794.617188 802.570312 1791.542969 797.609375 1782.804688 C 792.640625 1774.0625 795.703125 1762.957031 804.445312 1757.988281 C 813.191406 1753.027344 824.304688 1756.085938 829.265625 1764.835938 C 834.230469 1773.570312 831.171875 1784.6875 822.421875 1789.648438 " fill-opacity="1" fill-rule="nonzero"/><path fill="#79aebc" d="M 357.175781 1593.78125 C 348.429688 1598.746094 337.316406 1595.679688 332.359375 1586.941406 C 327.390625 1578.195312 330.457031 1567.09375 339.199219 1562.128906 C 347.9375 1557.164062 359.058594 1560.222656 364.019531 1568.972656 C 368.984375 1577.714844 365.917969 1588.824219 357.175781 1593.78125 " fill-opacity="1" fill-rule="nonzero"/><path fill="#ffb191" d="M 823.851562 1848.78125 L 292.683594 1626.1875 L 271.625 1674.066406 L 800.664062 1896.019531 Z M 823.851562 1848.78125 " fill-opacity="1" fill-rule="nonzero"/><path fill="#ffb191" d="M 1052.84375 1453.570312 C 1052.226562 1454.449219 1051.660156 1455.316406 1051.101562 1456.1875 C 1045.960938 1463.984375 1040.867188 1471.78125 1035.855469 1479.484375 L 501.101562 1257.476562 C 506.894531 1248.855469 512.777344 1240.316406 518.734375 1231.828125 Z M 1052.84375 1453.570312 " fill-opacity="1" fill-rule="nonzero"/><path fill="#79aebc" d="M 1648.878906 861.796875 L 1215.21875 1219.984375 C 1212.386719 1216.71875 1209.515625 1213.449219 1206.597656 1210.183594 L 1639.902344 852.304688 C 1642.914062 855.441406 1645.917969 858.621094 1648.878906 861.796875 " fill-opacity="1" fill-rule="nonzero"/><path fill="#ffb191" d="M 752.648438 1202.363281 C 750.828125 1204.09375 749.414062 1205.421875 746.273438 1208.402344 C 753.332031 1210.773438 757.558594 1217.320312 765.898438 1213.59375 C 761.105469 1209.828125 758.257812 1204.527344 752.648438 1202.363281 Z M 752.648438 1202.363281 " fill-opacity="1" fill-rule="nonzero"/><path fill="#ffb191" d="M 822.015625 1839.4375 C 820.988281 1840.03125 819.652344 1841.1875 819.617188 1842.152344 C 819.371094 1848.511719 822.453125 1853.25 829.746094 1859.679688 C 827.496094 1851.011719 826.109375 1845.46875 824.523438 1839.976562 C 824.398438 1839.554688 822.585938 1839.097656 822.015625 1839.4375 Z M 822.015625 1839.4375 " fill-opacity="1" fill-rule="nonzero"/><path fill="#ffb191" d="M 1474.488281 1530.914062 L 1462.109375 1530.914062 L 1462.109375 1538.484375 C 1469.230469 1540.070312 1473.285156 1538.351562 1474.488281 1530.914062 Z M 1474.488281 1530.914062 " fill-opacity="1" fill-rule="nonzero"/><path fill="#ffb191" d="M 1498.726562 1541.785156 C 1495.898438 1536.148438 1495.898438 1536.148438 1481.625 1536.664062 C 1486.824219 1545.152344 1492.808594 1541.238281 1498.726562 1541.785156 Z M 1498.726562 1541.785156 " fill-opacity="1" fill-rule="nonzero"/><path fill="#ffb191" d="M 1398.070312 1329.433594 C 1398.730469 1319.484375 1398.769531 1319.449219 1390.265625 1317.382812 C 1389.160156 1323.335938 1390.523438 1327.472656 1398.070312 1329.433594 Z M 1398.070312 1329.433594 " fill-opacity="1" fill-rule="nonzero"/><path fill="#ffb191" d="M 618.808594 1965.566406 C 622.035156 1965.308594 624.71875 1965.101562 626.835938 1964.9375 L 626.835938 1956.6875 L 618.808594 1956.6875 Z M 618.808594 1965.566406 " fill-opacity="1" fill-rule="nonzero"/><path fill="#ffb191" d="M 390.042969 1783.734375 C 382.734375 1777.613281 382.734375 1777.613281 378.179688 1786.929688 C 383.503906 1790.941406 386.808594 1787.480469 390.042969 1783.734375 Z M 390.042969 1783.734375 " fill-opacity="1" fill-rule="nonzero"/><path fill="#ffb191" d="M 318.308594 1730.769531 L 327.175781 1730.769531 C 326.941406 1727.539062 326.75 1724.878906 326.507812 1721.5 C 321.144531 1723.117188 317.433594 1724.5625 318.308594 1730.769531 Z M 318.308594 1730.769531 " fill-opacity="1" fill-rule="nonzero"/><path fill="#ffb191" d="M 1696.589844 1011.976562 C 1702.328125 1017.371094 1702.328125 1017.371094 1708.070312 1011.976562 C 1702.328125 1007.140625 1702.328125 1007.140625 1696.589844 1011.976562 Z M 1696.589844 1011.976562 " fill-opacity="1" fill-rule="nonzero"/><path fill="#ffb191" d="M 766.09375 1414.03125 C 764.425781 1415.523438 763.164062 1417.46875 759.835938 1421.542969 L 771.589844 1421.542969 C 771.355469 1418.3125 771.164062 1415.660156 770.9375 1412.441406 C 768.621094 1413.160156 767.015625 1413.210938 766.09375 1414.03125 Z M 766.09375 1414.03125 " fill-opacity="1" fill-rule="nonzero"/><path fill="#ffb191" d="M 1591.105469 1378.457031 C 1593.027344 1380.296875 1594.417969 1381.621094 1595.410156 1382.574219 C 1598.179688 1381.148438 1600.667969 1379.871094 1603.148438 1378.59375 C 1597.445312 1373.597656 1597.445312 1373.597656 1591.105469 1378.457031 Z M 1591.105469 1378.457031 " fill-opacity="1" fill-rule="nonzero"/><path fill="#ffb191" d="M 977.457031 960.878906 C 973.871094 963.628906 971.722656 965.277344 968.878906 967.457031 C 971.953125 969.226562 974.523438 970.695312 979.117188 973.332031 C 978.4375 968.25 978.058594 965.398438 977.457031 960.878906 Z M 977.457031 960.878906 " fill-opacity="1" fill-rule="nonzero"/><path fill="#ffb191" d="M 739.304688 1356.507812 L 728.359375 1356.507812 C 730.4375 1360.117188 731.917969 1362.699219 734.03125 1366.382812 C 736.039062 1362.636719 737.429688 1360.023438 739.304688 1356.507812 Z M 739.304688 1356.507812 " fill-opacity="1" fill-rule="nonzero"/><path fill="#ffb191" d="M 753.558594 1112.160156 C 753.3125 1113.195312 754.507812 1115.628906 755.066406 1115.636719 C 757.582031 1115.664062 760.109375 1115.054688 763.511719 1114.542969 C 762.144531 1112.132812 761.320312 1109.910156 760.867188 1109.984375 C 758.339844 1110.390625 754.648438 1107.816406 753.558594 1112.160156 Z M 753.558594 1112.160156 " fill-opacity="1" fill-rule="nonzero"/><path fill="#ffb191" d="M 1621.210938 983.546875 C 1622.332031 983.433594 1623.96875 981.289062 1624.085938 979.960938 C 1624.246094 978.125 1623.195312 976.191406 1621.648438 970.695312 C 1619.492188 975.609375 1618.429688 977.003906 1618.355469 978.457031 C 1618.25 980.578125 1617.222656 983.949219 1621.210938 983.546875 Z M 1621.210938 983.546875 " fill-opacity="1" fill-rule="nonzero"/><path fill="#ffb191" d="M 791.097656 1250.066406 C 796.484375 1258.207031 801.792969 1257.558594 809.042969 1255.679688 C 802.902344 1253.761719 798.3125 1252.328125 791.097656 1250.066406 Z M 791.097656 1250.066406 " fill-opacity="1" fill-rule="nonzero"/><path fill="#ffb191" d="M 1627.132812 839.59375 C 1627.003906 838.292969 1625.304688 837.140625 1623.730469 835.175781 C 1621.335938 837.132812 1619.796875 838.386719 1618.25 839.652344 C 1619.519531 840.636719 1620.6875 842.261719 1622.074219 842.464844 C 1624.164062 842.785156 1627.496094 843.558594 1627.132812 839.59375 Z M 1627.132812 839.59375 " fill-opacity="1" fill-rule="nonzero"/><path fill="#ffb191" d="M 1745.597656 1159.453125 C 1743.816406 1161.585938 1742.597656 1163.0625 1741.367188 1164.53125 C 1742.851562 1165.304688 1744.257812 1166.433594 1745.828125 1166.777344 C 1748.519531 1167.351562 1751.007812 1166.605469 1750.210938 1163.207031 C 1749.921875 1161.964844 1747.78125 1161.152344 1745.597656 1159.453125 Z M 1745.597656 1159.453125 " fill-opacity="1" fill-rule="nonzero"/><path fill="#ffb191" d="M 1016.90625 872.53125 C 1018.328125 872.007812 1019.585938 870.792969 1020.605469 869.601562 C 1020.878906 869.285156 1020.023438 867.28125 1019.730469 867.292969 C 1018.0625 867.347656 1016.277344 867.511719 1014.765625 868.171875 C 1013.523438 868.722656 1012.613281 870.03125 1010.214844 872.234375 C 1014.152344 872.46875 1015.703125 872.980469 1016.90625 872.53125 Z M 1016.90625 872.53125 " fill-opacity="1" fill-rule="nonzero"/><path fill="#ffb191" d="M 1682.378906 1278.472656 C 1681.765625 1278.8125 1681.320312 1280.085938 1681.371094 1280.882812 C 1681.648438 1285.765625 1685.503906 1283.328125 1687.886719 1283.90625 C 1688.265625 1283.996094 1688.746094 1283.691406 1690.695312 1283.148438 C 1689.945312 1282.199219 1689.714844 1281.8125 1689.386719 1281.523438 C 1687.367188 1279.75 1685.894531 1276.535156 1682.378906 1278.472656 Z M 1682.378906 1278.472656 " fill-opacity="1" fill-rule="nonzero"/><path fill="#ffb191" d="M 936.527344 1592.871094 C 943.023438 1591.667969 943.023438 1591.667969 940.730469 1584.695312 C 939.535156 1587.03125 938.289062 1589.4375 936.527344 1592.871094 Z M 936.527344 1592.871094 " fill-opacity="1" fill-rule="nonzero"/><path fill="#ffb191" d="M 567.136719 1722.398438 C 566.835938 1722.183594 564.4375 1723.785156 564.445312 1724.5625 C 564.453125 1725.972656 565.527344 1727.371094 566.632812 1729.847656 C 568.585938 1727.761719 570.300781 1726.527344 570.105469 1726.011719 C 569.574219 1724.601562 568.386719 1723.292969 567.136719 1722.398438 Z M 567.136719 1722.398438 " fill-opacity="1" fill-rule="nonzero"/><path fill="#ffb191" d="M 701.296875 1123.792969 C 704.742188 1124.660156 704.742188 1124.660156 704.546875 1120.542969 Z M 701.296875 1123.792969 " fill-opacity="1" fill-rule="nonzero"/><path fill="#ffb191" d="M 922.65625 1649.609375 C 924.507812 1645.609375 925.460938 1643.5625 926.039062 1642.304688 C 922.261719 1641.359375 922.261719 1641.359375 922.65625 1649.609375 Z M 922.65625 1649.609375 " fill-opacity="1" fill-rule="nonzero"/><path fill="#ffb191" d="M 652.621094 1218.359375 C 653.925781 1219.726562 655.414062 1221.285156 656.933594 1222.878906 C 658.292969 1217.726562 656.132812 1216.992188 652.621094 1218.359375 Z M 652.621094 1218.359375 " fill-opacity="1" fill-rule="nonzero"/><path fill="#ffb191" d="M 1417.066406 849.378906 L 1423.074219 849.378906 L 1423.074219 850.871094 L 1417.066406 850.871094 Z M 1417.066406 849.378906 " fill-opacity="1" fill-rule="nonzero"/><path fill="#ffb191" d="M 1465.859375 1437.046875 L 1467.363281 1437.046875 L 1467.363281 1443.054688 L 1465.859375 1443.054688 Z M 1465.859375 1437.046875 " fill-opacity="1" fill-rule="nonzero"/><path fill="#ffb191" d="M 1096.515625 1407.023438 L 1098.023438 1407.023438 L 1098.023438 1413.027344 L 1096.515625 1413.027344 Z M 1096.515625 1407.023438 " fill-opacity="1" fill-rule="nonzero"/><path fill="#ffb191" d="M 1006.324219 1390.539062 C 1005.871094 1390.355469 1004.808594 1389.792969 1003.683594 1389.613281 C 1003.476562 1389.582031 1002.59375 1391.246094 1002.78125 1391.941406 C 1003.039062 1392.902344 1003.996094 1393.683594 1004.660156 1394.542969 C 1004.996094 1393.714844 1005.339844 1392.890625 1006.324219 1390.539062 Z M 1006.324219 1390.539062 " fill-opacity="1" fill-rule="nonzero"/><path fill="#ffb191" d="M 1358.621094 1085.695312 C 1359.929688 1085.769531 1361.273438 1085.410156 1362.902344 1085.183594 C 1362.210938 1084.082031 1361.773438 1082.871094 1361.417969 1082.886719 C 1360.089844 1082.976562 1358.792969 1083.476562 1357.484375 1083.820312 C 1357.863281 1084.476562 1358.207031 1085.667969 1358.621094 1085.695312 Z M 1358.621094 1085.695312 " fill-opacity="1" fill-rule="nonzero"/><path fill="#ffb191" d="M 1496.722656 1152.457031 C 1499.023438 1151.503906 1499.84375 1151.15625 1500.667969 1150.816406 C 1499.8125 1150.15625 1499.027344 1149.199219 1498.066406 1148.9375 C 1497.371094 1148.757812 1496.4375 1149.515625 1495.609375 1149.863281 C 1496.070312 1150.929688 1496.523438 1151.984375 1496.722656 1152.457031 Z M 1496.722656 1152.457031 " fill-opacity="1" fill-rule="nonzero"/><path fill="#ffb191" d="M 1165.582031 1154.851562 L 1167.085938 1154.851562 L 1167.085938 1160.851562 L 1165.582031 1160.851562 Z M 1165.582031 1154.851562 " fill-opacity="1" fill-rule="nonzero"/><path fill="#ffb191" d="M 921.605469 1161.601562 L 927.609375 1161.601562 L 927.609375 1163.097656 L 921.605469 1163.097656 Z M 921.605469 1161.601562 " fill-opacity="1" fill-rule="nonzero"/><path fill="#ffb191" d="M 1156.292969 1182.882812 C 1156.75 1183.949219 1157.207031 1185.003906 1157.402344 1185.476562 C 1159.699219 1184.523438 1160.527344 1184.183594 1161.355469 1183.84375 C 1160.496094 1183.179688 1159.714844 1182.210938 1158.746094 1181.960938 C 1158.058594 1181.785156 1157.121094 1182.542969 1156.292969 1182.882812 Z M 1156.292969 1182.882812 " fill-opacity="1" fill-rule="nonzero"/><path fill="#ffb191" d="M 1399.664062 1201.296875 C 1398.710938 1198.992188 1398.363281 1198.171875 1398.019531 1197.351562 C 1397.363281 1198.203125 1396.402344 1198.984375 1396.148438 1199.949219 C 1395.964844 1200.636719 1396.730469 1201.578125 1397.070312 1202.402344 C 1398.132812 1201.949219 1399.199219 1201.492188 1399.664062 1201.296875 Z M 1399.664062 1201.296875 " fill-opacity="1" fill-rule="nonzero"/><path fill="#ffb191" d="M 1213.488281 1207.296875 C 1212.535156 1204.996094 1212.191406 1204.179688 1211.847656 1203.355469 C 1211.1875 1204.210938 1210.230469 1204.992188 1209.976562 1205.957031 C 1209.789062 1206.640625 1210.554688 1207.589844 1210.894531 1208.410156 C 1211.960938 1207.945312 1213.019531 1207.496094 1213.488281 1207.296875 Z M 1213.488281 1207.296875 " fill-opacity="1" fill-rule="nonzero"/><path fill="#ffb191" d="M 1356.53125 1243.886719 C 1355.671875 1243.21875 1354.894531 1242.257812 1353.929688 1242.007812 C 1353.238281 1241.824219 1352.300781 1242.585938 1351.480469 1242.929688 C 1351.9375 1243.988281 1352.386719 1245.058594 1352.59375 1245.527344 C 1354.882812 1244.5625 1355.707031 1244.222656 1356.53125 1243.886719 Z M 1356.53125 1243.886719 " fill-opacity="1" fill-rule="nonzero"/><path fill="#ffb191" d="M 1489.015625 1365.605469 C 1487.390625 1365.371094 1486.046875 1365.015625 1484.738281 1365.097656 C 1484.324219 1365.121094 1483.976562 1366.3125 1483.597656 1366.972656 C 1484.914062 1367.316406 1486.207031 1367.8125 1487.539062 1367.894531 C 1487.890625 1367.921875 1488.332031 1366.710938 1489.015625 1365.605469 Z M 1489.015625 1365.605469 " fill-opacity="1" fill-rule="nonzero"/><path fill="#ffb191" d="M 411.230469 1650.273438 C 411.046875 1650.96875 411.8125 1651.902344 412.148438 1652.726562 C 413.214844 1652.277344 414.277344 1651.816406 414.746094 1651.625 C 413.792969 1649.320312 413.445312 1648.496094 413.101562 1647.671875 C 412.441406 1648.535156 411.484375 1649.3125 411.230469 1650.273438 Z M 411.230469 1650.273438 " fill-opacity="1" fill-rule="nonzero"/><path fill="#ffb191" d="M 1576.6875 1651.226562 C 1577.148438 1652.292969 1577.601562 1653.347656 1577.800781 1653.828125 C 1580.09375 1652.863281 1580.917969 1652.519531 1581.742188 1652.175781 C 1580.882812 1651.511719 1580.105469 1650.5625 1579.140625 1650.300781 C 1578.449219 1650.121094 1577.511719 1650.882812 1576.6875 1651.226562 Z M 1576.6875 1651.226562 " fill-opacity="1" fill-rule="nonzero"/><path fill="#ffb191" d="M 414.878906 1662.210938 L 416.382812 1662.210938 L 416.382812 1668.214844 L 414.878906 1668.214844 Z M 414.878906 1662.210938 " fill-opacity="1" fill-rule="nonzero"/><path fill="#ffb191" d="M 1624.730469 1592.132812 C 1626.042969 1592.46875 1627.339844 1592.960938 1628.667969 1593.0625 C 1629.023438 1593.085938 1629.457031 1591.871094 1630.148438 1590.777344 C 1628.523438 1590.542969 1627.183594 1590.183594 1625.867188 1590.257812 C 1625.457031 1590.28125 1625.113281 1591.46875 1624.730469 1592.132812 Z M 1624.730469 1592.132812 " fill-opacity="1" fill-rule="nonzero"/><path fill="#ffb191" d="M 426.894531 1587.15625 L 428.394531 1587.15625 L 428.394531 1593.160156 L 426.894531 1593.160156 Z M 426.894531 1587.15625 " fill-opacity="1" fill-rule="nonzero"/><path fill="#ffb191" d="M 1438.1875 1309.546875 C 1438.273438 1310.875 1438.769531 1312.171875 1439.105469 1313.488281 C 1439.769531 1313.105469 1440.960938 1312.757812 1440.988281 1312.351562 C 1441.070312 1311.03125 1440.707031 1309.699219 1440.476562 1308.066406 C 1439.371094 1308.757812 1438.164062 1309.195312 1438.1875 1309.546875 Z M 1438.1875 1309.546875 " fill-opacity="1" fill-rule="nonzero"/><path fill="#ffb191" d="M 411.230469 1686.148438 C 411.484375 1687.113281 412.441406 1687.890625 413.101562 1688.753906 C 413.445312 1687.929688 413.792969 1687.105469 414.746094 1684.808594 C 414.277344 1684.613281 413.214844 1684.15625 412.148438 1683.707031 C 411.808594 1684.523438 411.046875 1685.464844 411.230469 1686.148438 Z M 411.230469 1686.148438 " fill-opacity="1" fill-rule="nonzero"/><path fill="#ffb191" d="M 456.640625 1577.125 C 457.949219 1577.464844 459.246094 1577.960938 460.578125 1578.050781 C 460.929688 1578.074219 461.375 1576.867188 462.054688 1575.765625 C 460.417969 1575.527344 459.082031 1575.167969 457.78125 1575.242188 C 457.367188 1575.273438 457.027344 1576.457031 456.640625 1577.125 Z M 456.640625 1577.125 " fill-opacity="1" fill-rule="nonzero"/><path fill="#ffb191" d="M 612.316406 1747.023438 L 618.320312 1747.023438 L 618.320312 1748.523438 L 612.316406 1748.523438 Z M 612.316406 1747.023438 " fill-opacity="1" fill-rule="nonzero"/><path fill="#ffb191" d="M 958.113281 1511.070312 C 958.9375 1511.417969 959.871094 1512.175781 960.5625 1512 C 961.527344 1511.738281 962.304688 1510.785156 963.167969 1510.121094 C 962.34375 1509.785156 961.519531 1509.4375 959.21875 1508.480469 C 959.023438 1508.949219 958.570312 1510.011719 958.113281 1511.070312 Z M 958.113281 1511.070312 " fill-opacity="1" fill-rule="nonzero"/><path fill="#ffb191" d="M 617.84375 1478.058594 C 616.980469 1477.394531 616.207031 1476.433594 615.238281 1476.179688 C 614.550781 1475.992188 613.617188 1476.757812 612.789062 1477.09375 C 613.246094 1478.160156 613.703125 1479.222656 613.898438 1479.695312 C 616.195312 1478.734375 617.019531 1478.398438 617.84375 1478.058594 Z M 617.84375 1478.058594 " fill-opacity="1" fill-rule="nonzero"/><path fill="#ffb191" d="M 1116.6875 1465.460938 C 1116.765625 1464.140625 1116.40625 1462.804688 1116.171875 1461.179688 C 1115.066406 1461.867188 1113.859375 1462.308594 1113.882812 1462.664062 C 1113.96875 1463.984375 1114.464844 1465.289062 1114.804688 1466.59375 C 1115.464844 1466.21875 1116.660156 1465.867188 1116.6875 1465.460938 Z M 1116.6875 1465.460938 " fill-opacity="1" fill-rule="nonzero"/><path fill="#ffb191" d="M 954.632812 1446.8125 L 960.632812 1446.8125 L 960.632812 1448.300781 L 954.632812 1448.300781 Z M 954.632812 1446.8125 " fill-opacity="1" fill-rule="nonzero"/><path fill="#ffb191" d="M 1422.085938 999.296875 C 1421.375 999.445312 1420.730469 999.894531 1420.066406 1000.234375 C 1420.402344 1000.5625 1420.730469 1000.898438 1421.136719 1001.300781 C 1421.761719 1000.949219 1422.421875 1000.589844 1423.070312 1000.234375 C 1422.738281 999.894531 1422.328125 999.238281 1422.085938 999.296875 Z M 1422.085938 999.296875 " fill-opacity="1" fill-rule="nonzero"/><path fill="#ffb191" d="M 1330.550781 1206.855469 C 1330.707031 1207.570312 1331.148438 1208.214844 1331.480469 1208.890625 C 1331.824219 1208.546875 1332.480469 1208.140625 1332.425781 1207.898438 C 1332.269531 1207.191406 1331.824219 1206.542969 1331.480469 1205.882812 C 1331.148438 1206.214844 1330.492188 1206.621094 1330.550781 1206.855469 Z M 1330.550781 1206.855469 " fill-opacity="1" fill-rule="nonzero"/><path fill="#ffb191" d="M 627.890625 1543.105469 C 628.046875 1543.816406 628.492188 1544.453125 628.828125 1545.125 C 629.164062 1544.789062 629.824219 1544.382812 629.765625 1544.136719 C 629.617188 1543.425781 629.164062 1542.789062 628.828125 1542.125 C 628.496094 1542.449219 627.835938 1542.867188 627.890625 1543.105469 Z M 627.890625 1543.105469 " fill-opacity="1" fill-rule="nonzero"/><path fill="#ffb191" d="M 1471.117188 1426.539062 C 1470.445312 1426.207031 1469.800781 1425.757812 1469.09375 1425.601562 C 1468.851562 1425.546875 1468.445312 1426.207031 1468.113281 1426.539062 C 1468.765625 1426.90625 1469.417969 1427.261719 1470.046875 1427.605469 C 1470.445312 1427.207031 1470.785156 1426.875 1471.117188 1426.539062 Z M 1471.117188 1426.539062 " fill-opacity="1" fill-rule="nonzero"/><path fill="#ffb191" d="M 1627.261719 1477.585938 C 1627.59375 1477.914062 1628 1478.570312 1628.246094 1478.511719 C 1628.957031 1478.359375 1629.59375 1477.914062 1630.265625 1477.585938 C 1629.933594 1477.242188 1629.59375 1476.910156 1629.199219 1476.511719 C 1628.566406 1476.851562 1627.914062 1477.21875 1627.261719 1477.585938 Z M 1627.261719 1477.585938 " fill-opacity="1" fill-rule="nonzero"/><path fill="#ffb191" d="M 645.347656 1471.570312 C 645.679688 1471.90625 646.082031 1472.566406 646.332031 1472.515625 C 647.042969 1472.351562 647.679688 1471.90625 648.347656 1471.570312 C 648.015625 1471.238281 647.679688 1470.902344 647.28125 1470.507812 C 646.648438 1470.851562 646 1471.214844 645.347656 1471.570312 Z M 645.347656 1471.570312 " fill-opacity="1" fill-rule="nonzero"/><path fill="#ffb191" d="M 829.5 1625.625 C 830.207031 1625.464844 830.847656 1625.015625 831.519531 1624.683594 C 831.1875 1624.355469 830.847656 1624.023438 830.453125 1623.613281 C 829.820312 1623.960938 829.167969 1624.324219 828.515625 1624.683594 C 828.851562 1625.015625 829.253906 1625.671875 829.5 1625.625 Z M 829.5 1625.625 " fill-opacity="1" fill-rule="nonzero"/><path fill="#ffb191" d="M 808.058594 1870.34375 C 808.21875 1871.058594 808.660156 1871.695312 808.996094 1872.359375 C 809.332031 1872.027344 809.664062 1871.695312 810.0625 1871.300781 C 809.71875 1870.660156 809.355469 1870.003906 808.996094 1869.359375 C 808.660156 1869.695312 808 1870.101562 808.058594 1870.34375 Z M 808.058594 1870.34375 " fill-opacity="1" fill-rule="nonzero"/><path fill="#ffb191" d="M 846.535156 1558.636719 C 847.183594 1559 847.835938 1559.355469 848.46875 1559.707031 C 848.867188 1559.300781 849.203125 1558.96875 849.535156 1558.636719 C 848.867188 1558.300781 848.222656 1557.851562 847.511719 1557.699219 C 847.269531 1557.644531 846.867188 1558.296875 846.535156 1558.636719 Z M 846.535156 1558.636719 " fill-opacity="1" fill-rule="nonzero"/><path fill="#ffb191" d="M 815 1872.359375 C 814.648438 1873.011719 814.28125 1873.667969 813.933594 1874.296875 C 814.335938 1874.695312 814.671875 1875.035156 815 1875.359375 C 815.335938 1874.695312 815.785156 1874.054688 815.941406 1873.355469 C 816 1873.101562 815.335938 1872.695312 815 1872.359375 Z M 815 1872.359375 " fill-opacity="1" fill-rule="nonzero"/><path fill="#ffb191" d="M 598.476562 507.8125 C 599.015625 515.183594 606.234375 514.992188 610.023438 518.039062 C 613.160156 516.316406 615.152344 515.222656 617.136719 514.121094 C 609.402344 514.035156 607.164062 500.75 598.476562 507.8125 Z M 598.476562 507.8125 " fill-opacity="1" fill-rule="nonzero"/><path fill="#ffb191" d="M 1037.679688 797.65625 C 1046.945312 796.792969 1053.65625 799.855469 1057.90625 792.695312 C 1051.402344 787.214844 1051.402344 787.214844 1037.679688 797.65625 Z M 1037.679688 797.65625 " fill-opacity="1" fill-rule="nonzero"/><path fill="#ffb191" d="M 774.050781 662.558594 C 776.382812 660.632812 778.792969 658.828125 781.277344 657.175781 C 779.710938 655.691406 778.351562 654.390625 776.679688 652.804688 C 773.421875 654.402344 770.09375 656.035156 766.738281 657.683594 C 769 660.265625 771.316406 662.453125 774.050781 662.558594 Z M 774.050781 662.558594 " fill-opacity="1" fill-rule="nonzero"/><path fill="#ffb191" d="M 1227.386719 488.183594 C 1231.273438 483.746094 1234.109375 481.730469 1234.914062 479.101562 C 1235.355469 477.667969 1232.351562 475.179688 1230.746094 472.941406 C 1226.914062 478.222656 1226.914062 478.222656 1227.386719 488.183594 Z M 1227.386719 488.183594 " fill-opacity="1" fill-rule="nonzero"/><path fill="#ffb191" d="M 1256.71875 306.96875 C 1263.003906 312.132812 1263.003906 312.132812 1268.980469 303.253906 C 1262.851562 300.8125 1259.058594 301.832031 1256.71875 306.96875 Z M 1256.71875 306.96875 " fill-opacity="1" fill-rule="nonzero"/><path fill="#ffb191" d="M 680.222656 623.386719 C 683.453125 623.132812 686.132812 622.925781 688.25 622.761719 L 688.25 614.507812 L 680.222656 614.507812 Z M 680.222656 623.386719 " fill-opacity="1" fill-rule="nonzero"/><path fill="#ffb191" d="M 1409.648438 383.21875 C 1413.132812 382.964844 1415.792969 382.785156 1417.984375 382.621094 L 1417.984375 372.738281 C 1412.183594 375.382812 1408.796875 377.226562 1409.648438 383.21875 Z M 1409.648438 383.21875 " fill-opacity="1" fill-rule="nonzero"/><path fill="#ffb191" d="M 1120.628906 466.957031 L 1120.628906 458.367188 L 1111.421875 458.367188 C 1112.917969 464.167969 1114.59375 467.667969 1120.628906 466.957031 Z M 1120.628906 466.957031 " fill-opacity="1" fill-rule="nonzero"/><path fill="#ffb191" d="M 1275.261719 476.238281 C 1273.9375 478.199219 1271.484375 480.25 1271.589844 482.140625 C 1271.710938 484.195312 1274.203125 486.132812 1277.011719 489.960938 C 1276.023438 483.882812 1282.933594 480.410156 1275.261719 476.238281 Z M 1275.261719 476.238281 " fill-opacity="1" fill-rule="nonzero"/><path fill="#ffb191" d="M 675.238281 662.535156 C 673.660156 662.609375 672.214844 665.304688 669.777344 667.742188 L 682.304688 667.742188 C 683.972656 659.757812 678.183594 662.386719 675.238281 662.535156 Z M 675.238281 662.535156 " fill-opacity="1" fill-rule="nonzero"/><path fill="#ffb191" d="M 495.363281 486.328125 C 491.78125 489.078125 489.625 490.722656 486.789062 492.90625 C 489.855469 494.667969 492.429688 496.140625 497.023438 498.785156 C 496.34375 493.6875 495.96875 490.84375 495.363281 486.328125 Z M 495.363281 486.328125 " fill-opacity="1" fill-rule="nonzero"/><path fill="#ffb191" d="M 1164.753906 560.722656 C 1167.503906 563.011719 1168.941406 564.210938 1171.019531 565.941406 C 1172.773438 563.332031 1177.773438 561.636719 1174.015625 558.070312 C 1172.976562 557.078125 1168.703125 559.496094 1164.753906 560.722656 Z M 1164.753906 560.722656 " fill-opacity="1" fill-rule="nonzero"/><path fill="#ffb191" d="M 997.945312 250.695312 C 1004.4375 249.492188 1004.4375 249.492188 1002.144531 242.523438 C 1000.949219 244.855469 999.703125 247.257812 997.945312 250.695312 Z M 997.945312 250.695312 " fill-opacity="1" fill-rule="nonzero"/><path fill="#ffb191" d="M 1187.597656 837.050781 C 1187.628906 837.667969 1187.664062 838.292969 1187.707031 838.90625 L 1198.679688 838.90625 C 1198.65625 838.042969 1198.632812 837.171875 1198.613281 836.300781 C 1194.941406 836.554688 1191.269531 836.800781 1187.597656 837.050781 Z M 1187.597656 837.050781 " fill-opacity="1" fill-rule="nonzero"/><path fill="#ffb191" d="M 1210.777344 260.023438 C 1212.964844 263.773438 1214.414062 266.261719 1215.863281 268.742188 C 1215.933594 265.3125 1220.378906 259.867188 1210.777344 260.023438 Z M 1210.777344 260.023438 " fill-opacity="1" fill-rule="nonzero"/><path fill="#ffb191" d="M 628.550781 380.226562 C 628.25 380.007812 625.851562 381.609375 625.859375 382.378906 C 625.871094 383.796875 626.941406 385.191406 628.046875 387.671875 C 630.003906 385.585938 631.714844 384.351562 631.519531 383.835938 C 630.988281 382.425781 629.800781 381.113281 628.550781 380.226562 Z M 628.550781 380.226562 " fill-opacity="1" fill-rule="nonzero"/><path fill="#ffb191" d="M 1337.195312 500.289062 C 1336.4375 498.996094 1334.886719 498.167969 1333.652344 497.160156 C 1332.878906 498.148438 1331.328125 499.328125 1331.511719 500.082031 C 1331.851562 501.46875 1333.210938 502.601562 1334.816406 504.738281 C 1336.140625 502.359375 1337.511719 500.824219 1337.195312 500.289062 Z M 1337.195312 500.289062 " fill-opacity="1" fill-rule="nonzero"/><path fill="#ffb191" d="M 1046.777344 773.472656 C 1049.804688 773.257812 1052.433594 773.082031 1055.941406 772.835938 C 1050.496094 767.742188 1050.496094 767.742188 1046.777344 773.472656 Z M 1046.777344 773.472656 " fill-opacity="1" fill-rule="nonzero"/><path fill="#ffb191" d="M 1067.503906 689.796875 C 1068.886719 692.011719 1070.042969 693.855469 1071.5 696.195312 C 1074.914062 688.191406 1071.328125 689.125 1067.503906 689.796875 Z M 1067.503906 689.796875 " fill-opacity="1" fill-rule="nonzero"/><path fill="#ffb191" d="M 1535.429688 429.503906 C 1535.078125 429.15625 1534.75 428.542969 1534.398438 428.527344 C 1533.089844 428.46875 1531.347656 428.128906 1530.578125 428.808594 C 1529.75 429.542969 1529.839844 431.304688 1529.527344 432.617188 C 1530.882812 432.253906 1532.324219 432.058594 1533.582031 431.476562 C 1534.335938 431.128906 1534.824219 430.1875 1535.429688 429.503906 Z M 1535.429688 429.503906 " fill-opacity="1" fill-rule="nonzero"/><path fill="#ffb191" d="M 984.070312 307.4375 C 985.921875 303.433594 986.875 301.378906 987.453125 300.128906 C 983.675781 299.183594 983.675781 299.183594 984.070312 307.4375 Z M 984.070312 307.4375 " fill-opacity="1" fill-rule="nonzero"/><path fill="#ffb191" d="M 692.757812 406.671875 C 697.914062 408.027344 698.644531 405.878906 697.277344 402.367188 C 695.917969 403.664062 694.355469 405.152344 692.757812 406.671875 Z M 692.757812 406.671875 " fill-opacity="1" fill-rule="nonzero"/><path fill="#ffb191" d="M 1319.492188 573.25 C 1321.277344 572.617188 1323.480469 571.832031 1325.679688 571.039062 C 1320.273438 569.332031 1317.835938 570.132812 1319.492188 573.25 Z M 1319.492188 573.25 " fill-opacity="1" fill-rule="nonzero"/><path fill="#ffb191" d="M 1608.191406 528.238281 C 1612.191406 530.082031 1614.246094 531.042969 1615.5 531.621094 C 1616.445312 527.832031 1616.445312 527.832031 1608.191406 528.238281 Z M 1608.191406 528.238281 " fill-opacity="1" fill-rule="nonzero"/><path fill="#ffb191" d="M 704.351562 298.011719 C 704.324219 298.210938 705.996094 299.097656 706.679688 298.914062 C 707.648438 298.65625 708.425781 297.691406 709.285156 297.039062 C 708.457031 296.691406 707.636719 296.351562 705.28125 295.375 C 705.101562 295.824219 704.535156 296.890625 704.351562 298.011719 Z M 704.351562 298.011719 " fill-opacity="1" fill-rule="nonzero"/><path fill="#ffb191" d="M 1638.101562 309.050781 C 1638.5625 310.109375 1639.015625 311.171875 1639.214844 311.644531 C 1641.507812 310.6875 1642.332031 310.339844 1643.15625 310.003906 C 1642.296875 309.335938 1641.519531 308.386719 1640.554688 308.125 C 1639.863281 307.945312 1638.925781 308.703125 1638.101562 309.050781 Z M 1638.101562 309.050781 " fill-opacity="1" fill-rule="nonzero"/><path fill="#ffb191" d="M 1725.183594 319.003906 C 1726.496094 319.347656 1727.789062 319.839844 1729.121094 319.9375 C 1729.472656 319.953125 1729.910156 318.742188 1730.601562 317.644531 C 1728.976562 317.40625 1727.628906 317.058594 1726.316406 317.121094 C 1725.90625 317.148438 1725.5625 318.34375 1725.183594 319.003906 Z M 1725.183594 319.003906 " fill-opacity="1" fill-rule="nonzero"/><path fill="#ffb191" d="M 1686.144531 249.953125 C 1687.457031 250.292969 1688.75 250.785156 1690.082031 250.882812 C 1690.4375 250.90625 1690.871094 249.691406 1691.5625 248.597656 C 1689.9375 248.367188 1688.597656 248.003906 1687.28125 248.074219 C 1686.867188 248.105469 1686.527344 249.292969 1686.144531 249.953125 Z M 1686.144531 249.953125 " fill-opacity="1" fill-rule="nonzero"/><path fill="#ffb191" d="M 1743.203125 334.019531 C 1744.507812 334.363281 1745.808594 334.855469 1747.136719 334.945312 C 1747.488281 334.964844 1747.929688 333.757812 1748.621094 332.65625 C 1746.992188 332.421875 1745.648438 332.066406 1744.335938 332.136719 C 1743.921875 332.167969 1743.574219 333.355469 1743.203125 334.019531 Z M 1743.203125 334.019531 " fill-opacity="1" fill-rule="nonzero"/><path fill="#ffb191" d="M 1334.34375 777.117188 L 1340.34375 777.117188 L 1340.34375 778.617188 L 1334.34375 778.617188 Z M 1334.34375 777.117188 " fill-opacity="1" fill-rule="nonzero"/><path fill="#ffb191" d="M 1142.644531 838.386719 C 1143.949219 838.726562 1145.25 839.214844 1146.570312 839.304688 C 1146.933594 839.335938 1147.371094 838.117188 1148.054688 837.019531 C 1146.429688 836.785156 1145.085938 836.429688 1143.777344 836.507812 C 1143.367188 836.539062 1143.023438 837.726562 1142.644531 838.386719 Z M 1142.644531 838.386719 " fill-opacity="1" fill-rule="nonzero"/><path fill="#ffb191" d="M 673.730469 404.851562 L 679.730469 404.851562 L 679.730469 406.34375 L 673.730469 406.34375 Z M 673.730469 404.851562 " fill-opacity="1" fill-rule="nonzero"/><path fill="#ffb191" d="M 857.648438 181.929688 L 859.152344 181.929688 L 859.152344 187.933594 L 857.648438 187.933594 Z M 857.648438 181.929688 " fill-opacity="1" fill-rule="nonzero"/><path fill="#ffb191" d="M 1165.160156 509.644531 C 1164.503906 510.507812 1163.542969 511.28125 1163.289062 512.25 C 1163.105469 512.933594 1163.867188 513.875 1164.214844 514.699219 C 1165.269531 514.246094 1166.339844 513.789062 1166.804688 513.589844 C 1165.851562 511.289062 1165.503906 510.46875 1165.160156 509.644531 Z M 1165.160156 509.644531 " fill-opacity="1" fill-rule="nonzero"/><path fill="#ffb191" d="M 1179.605469 632.351562 C 1178.277344 632.449219 1176.984375 632.945312 1175.671875 633.285156 C 1176.050781 633.9375 1176.394531 635.136719 1176.804688 635.160156 C 1178.117188 635.234375 1179.457031 634.875 1181.085938 634.652344 C 1180.402344 633.546875 1179.960938 632.335938 1179.605469 632.351562 Z M 1179.605469 632.351562 " fill-opacity="1" fill-rule="nonzero"/><path fill="#ffb191" d="M 1231.691406 259.003906 C 1231.53125 258.296875 1231.078125 257.652344 1230.746094 256.992188 C 1230.414062 257.320312 1229.753906 257.730469 1229.808594 257.976562 C 1229.96875 258.671875 1230.414062 259.320312 1230.746094 259.992188 C 1231.078125 259.664062 1231.738281 259.25 1231.691406 259.003906 Z M 1231.691406 259.003906 " fill-opacity="1" fill-rule="nonzero"/><path fill="#ffb191" d="M 1279.308594 254.546875 C 1278.601562 254.703125 1277.953125 255.152344 1277.292969 255.492188 C 1277.625 255.816406 1278.03125 256.480469 1278.28125 256.425781 C 1278.988281 256.269531 1279.628906 255.816406 1280.292969 255.492188 C 1279.960938 255.152344 1279.550781 254.5 1279.308594 254.546875 Z M 1279.308594 254.546875 " fill-opacity="1" fill-rule="nonzero"/><path fill="#ffb191" d="M 1197.207031 256.425781 C 1197.90625 256.269531 1198.550781 255.816406 1199.21875 255.492188 C 1198.882812 255.152344 1198.476562 254.5 1198.230469 254.546875 C 1197.523438 254.703125 1196.882812 255.152344 1196.214844 255.492188 C 1196.550781 255.816406 1196.957031 256.480469 1197.207031 256.425781 Z M 1197.207031 256.425781 " fill-opacity="1" fill-rule="nonzero"/><path fill="#ffb191" d="M 561.636719 323.59375 C 560.929688 323.75 560.289062 324.195312 559.621094 324.535156 C 559.957031 324.867188 560.289062 325.199219 560.691406 325.609375 C 561.316406 325.257812 561.972656 324.898438 562.625 324.535156 C 562.289062 324.195312 561.882812 323.542969 561.636719 323.59375 Z M 561.636719 323.59375 " fill-opacity="1" fill-rule="nonzero"/><path fill="#ffb191" d="M 1681.679688 329.601562 C 1680.972656 329.761719 1680.335938 330.210938 1679.664062 330.546875 C 1680 330.871094 1680.410156 331.535156 1680.65625 331.480469 C 1681.359375 331.320312 1682.003906 330.875 1682.667969 330.546875 C 1682.332031 330.210938 1681.925781 329.546875 1681.679688 329.601562 Z M 1681.679688 329.601562 " fill-opacity="1" fill-rule="nonzero"/><path fill="#ffb191" d="M 730.347656 351.988281 C 730 351.355469 729.640625 350.699219 729.277344 350.054688 C 728.945312 350.386719 728.289062 350.792969 728.339844 351.039062 C 728.5 351.753906 728.945312 352.382812 729.277344 353.054688 C 729.613281 352.722656 729.945312 352.382812 730.347656 351.988281 Z M 730.347656 351.988281 " fill-opacity="1" fill-rule="nonzero"/><path fill="#ffb191" d="M 1039.636719 397.015625 C 1039.292969 396.390625 1038.929688 395.738281 1038.566406 395.078125 C 1038.234375 395.414062 1037.574219 395.828125 1037.628906 396.074219 C 1037.789062 396.78125 1038.234375 397.425781 1038.566406 398.085938 C 1038.902344 397.761719 1039.238281 397.425781 1039.636719 397.015625 Z M 1039.636719 397.015625 " fill-opacity="1" fill-rule="nonzero"/><path fill="#ffb191" d="M 689.304688 200.929688 C 689.457031 201.636719 689.910156 202.277344 690.242188 202.945312 C 690.574219 202.613281 691.238281 202.203125 691.179688 201.960938 C 691.03125 201.25 690.574219 200.617188 690.242188 199.949219 C 689.910156 200.273438 689.25 200.6875 689.304688 200.929688 Z M 689.304688 200.929688 " fill-opacity="1" fill-rule="nonzero"/><path fill="#ffb191" d="M 1149.671875 560.210938 C 1149.3125 560.855469 1148.953125 561.519531 1148.605469 562.140625 C 1149.003906 562.539062 1149.335938 562.875 1149.671875 563.207031 C 1150.003906 562.539062 1150.453125 561.898438 1150.609375 561.199219 C 1150.667969 560.945312 1150.003906 560.542969 1149.671875 560.210938 Z M 1149.671875 560.210938 " fill-opacity="1" fill-rule="nonzero"/><path fill="#ffb191" d="M 1060.097656 434.683594 C 1059.394531 434.828125 1058.75 435.289062 1058.085938 435.621094 C 1058.421875 435.953125 1058.828125 436.609375 1059.074219 436.546875 C 1059.78125 436.394531 1060.425781 435.953125 1061.085938 435.621094 C 1060.753906 435.289062 1060.347656 434.621094 1060.097656 434.683594 Z M 1060.097656 434.683594 " fill-opacity="1" fill-rule="nonzero"/><path fill="#ffb191" d="M 1066.109375 674.855469 C 1065.402344 675.011719 1064.761719 675.457031 1064.09375 675.792969 C 1064.425781 676.125 1064.761719 676.449219 1065.160156 676.859375 C 1065.785156 676.511719 1066.441406 676.148438 1067.09375 675.792969 C 1066.761719 675.457031 1066.355469 674.792969 1066.109375 674.855469 Z M 1066.109375 674.855469 " fill-opacity="1" fill-rule="nonzero"/><path fill="#ffb191" d="M 1045.511719 430.125 C 1045.355469 429.417969 1044.910156 428.777344 1044.578125 428.113281 C 1044.246094 428.441406 1043.578125 428.859375 1043.636719 429.09375 C 1043.792969 429.800781 1044.246094 430.441406 1044.578125 431.113281 C 1044.910156 430.777344 1045.570312 430.371094 1045.511719 430.125 Z M 1045.511719 430.125 " fill-opacity="1" fill-rule="nonzero"/><path fill="#ffb191" d="M 1327.902344 595.164062 C 1327.5625 594.539062 1327.195312 593.875 1326.835938 593.234375 C 1326.503906 593.5625 1325.839844 593.96875 1325.898438 594.214844 C 1326.054688 594.929688 1326.503906 595.570312 1326.835938 596.230469 C 1327.171875 595.902344 1327.5 595.570312 1327.902344 595.164062 Z M 1327.902344 595.164062 " fill-opacity="1" fill-rule="nonzero"/><path fill="#ffb191" d="M 1553.546875 501.667969 C 1552.882812 501.328125 1552.234375 500.882812 1551.53125 500.726562 C 1551.28125 500.667969 1550.882812 501.328125 1550.542969 501.667969 C 1551.199219 502.023438 1551.851562 502.378906 1552.480469 502.734375 C 1552.882812 502.328125 1553.21875 502 1553.546875 501.667969 Z M 1553.546875 501.667969 " fill-opacity="1" fill-rule="nonzero"/><path fill="#ffb191" d="M 1421.996094 405.078125 C 1422.144531 405.785156 1422.59375 406.429688 1422.929688 407.09375 C 1423.261719 406.761719 1423.921875 406.355469 1423.867188 406.109375 C 1423.710938 405.398438 1423.261719 404.761719 1422.929688 404.089844 C 1422.59375 404.421875 1421.933594 404.835938 1421.996094 405.078125 Z M 1421.996094 405.078125 " fill-opacity="1" fill-rule="nonzero"/><path fill="#ffb191" d="M 1043.636719 624.238281 C 1043.796875 624.941406 1044.238281 625.589844 1044.574219 626.257812 C 1044.910156 625.921875 1045.566406 625.515625 1045.515625 625.265625 C 1045.355469 624.558594 1044.910156 623.914062 1044.574219 623.253906 C 1044.238281 623.582031 1043.578125 623.988281 1043.636719 624.238281 Z M 1043.636719 624.238281 " fill-opacity="1" fill-rule="nonzero"/><path fill="#ffb191" d="M 737.347656 402.078125 C 737.507812 402.78125 737.953125 403.425781 738.289062 404.089844 C 738.625 403.757812 738.960938 403.425781 739.355469 403.023438 C 739.011719 402.398438 738.648438 401.746094 738.289062 401.089844 C 737.953125 401.421875 737.296875 401.828125 737.347656 402.078125 Z M 737.347656 402.078125 " fill-opacity="1" fill-rule="nonzero"/><path fill="#ffb191" d="M 817.863281 282.503906 C 818.511719 282.867188 819.167969 283.222656 819.792969 283.578125 C 820.195312 283.167969 820.527344 282.835938 820.863281 282.503906 C 820.195312 282.164062 819.558594 281.722656 818.851562 281.570312 C 818.605469 281.5 818.195312 282.164062 817.863281 282.503906 Z M 817.863281 282.503906 " fill-opacity="1" fill-rule="nonzero"/><path fill="#ffb191" d="M 890.914062 283.449219 C 891.621094 283.285156 892.261719 282.835938 892.933594 282.503906 C 892.601562 282.171875 892.261719 281.84375 891.867188 281.433594 C 891.234375 281.777344 890.582031 282.148438 889.929688 282.503906 C 890.265625 282.835938 890.667969 283.492188 890.914062 283.449219 Z M 890.914062 283.449219 " fill-opacity="1" fill-rule="nonzero"/><path fill="#ffb191" d="M 1696.691406 476.707031 C 1695.988281 476.863281 1695.34375 477.3125 1694.679688 477.648438 C 1695.015625 477.976562 1695.34375 478.3125 1695.746094 478.71875 C 1696.375 478.371094 1697.03125 478.011719 1697.679688 477.648438 C 1697.347656 477.3125 1696.941406 476.652344 1696.691406 476.707031 Z M 1696.691406 476.707031 " fill-opacity="1" fill-rule="nonzero"/><path fill="#ffb191" d="M 1413.40625 281.570312 C 1413.152344 281.5 1412.753906 282.164062 1412.414062 282.503906 C 1413.066406 282.867188 1413.722656 283.222656 1414.347656 283.578125 C 1414.75 283.167969 1415.089844 282.835938 1415.421875 282.503906 C 1414.75 282.164062 1414.109375 281.722656 1413.40625 281.570312 Z M 1413.40625 281.570312 " fill-opacity="1" fill-rule="nonzero"/><path fill="#ffb191" d="M 907.949219 216.460938 C 908.597656 216.824219 909.25 217.175781 909.882812 217.53125 C 910.28125 217.125 910.617188 216.792969 910.949219 216.460938 C 910.28125 216.121094 909.636719 215.679688 908.929688 215.523438 C 908.683594 215.46875 908.28125 216.121094 907.949219 216.460938 Z M 907.949219 216.460938 " fill-opacity="1" fill-rule="nonzero"/></svg>