<?xml version="1.0" encoding="UTF-8"?>
<!DOCTYPE svg PUBLIC "-//W3C//DTD SVG 1.1//EN" "http://www.w3.org/Graphics/SVG/1.1/DTD/svg11.dtd">
<svg xmlns="http://www.w3.org/2000/svg" version="1.1" width="3000px" height="3000px" style="shape-rendering:geometricPrecision; text-rendering:geometricPrecision; image-rendering:optimizeQuality; fill-rule:evenodd; clip-rule:evenodd" xmlns:xlink="http://www.w3.org/1999/xlink">
<g><path style="opacity:0.995" fill="#a9a8a9" d="M 927.5,696.5 C 923.088,705.663 918.921,714.997 915,724.5C 910.419,737.152 907.586,750.152 906.5,763.5C 905.71,764.609 905.21,765.942 905,767.5C 904.333,778.5 904.333,789.5 905,800.5C 905.198,802.382 905.698,804.048 906.5,805.5C 908.252,824.352 912.418,842.685 919,860.5C 933.865,843.967 949.699,828.467 966.5,814C 974.325,807.918 982.658,802.585 991.5,798C 993.81,797.503 996.143,797.337 998.5,797.5C 993.571,828.937 996.404,859.603 1007,889.5C 1017.42,912.917 1034.25,930.083 1057.5,941C 1058.79,941.49 1060.13,941.657 1061.5,941.5C 1068.66,904.207 1081.16,868.873 1099,835.5C 1105.29,824.763 1113.12,815.263 1122.5,807C 1128.45,802.52 1135.12,800.02 1142.5,799.5C 1147.05,821.077 1155.21,841.077 1167,859.5C 1174.97,871.727 1186.13,878.06 1200.5,878.5C 1198.61,847.602 1202.78,817.602 1213,788.5C 1222.19,764.477 1238.02,746.143 1260.5,733.5C 1261.38,728.874 1262.05,724.207 1262.5,719.5C 1281.8,633.092 1307.64,548.759 1340,466.5C 1349.8,444.129 1359.8,421.796 1370,399.5C 1397.12,343.36 1430.46,291.36 1470,243.5C 1493.72,217.45 1520.22,194.617 1549.5,175C 1565.85,165.322 1582.85,156.989 1600.5,150C 1602.13,149.506 1603.8,149.34 1605.5,149.5C 1609.33,197.102 1612.16,244.768 1614,292.5C 1617.7,408.63 1610.04,523.963 1591,638.5C 1579.41,700.846 1561.41,761.179 1537,819.5C 1515.7,865.727 1487.86,907.227 1453.5,944C 1501.94,1039.37 1531.44,1140.53 1542,1247.5C 1543.73,1271.17 1543.9,1294.83 1542.5,1318.5C 1525.46,1308.8 1508.12,1299.3 1490.5,1290C 1414.52,1254.45 1334.85,1231.45 1251.5,1221C 1109.01,1200.95 968.675,1210.62 830.5,1250C 769.826,1267.84 713.493,1294.51 661.5,1330C 653.65,1336.42 645.65,1342.58 637.5,1348.5C 640.245,1257.75 655.079,1169.08 682,1082.5C 697.305,1033.91 717.472,987.572 742.5,943.5C 715.613,916.781 693.113,886.781 675,853.5C 647.138,799.041 626.472,741.708 613,681.5C 595.468,599.102 585.134,515.769 582,431.5C 581.333,376.167 581.333,320.833 582,265.5C 583.949,227.116 586.615,188.782 590,150.5C 591.388,149.446 592.888,149.28 594.5,150C 624.093,161.972 651.426,177.638 676.5,197C 684.621,204.577 692.954,211.911 701.5,219C 733.36,252.205 761.527,288.372 786,327.5C 818.828,383.484 846.494,441.818 869,502.5C 892.283,566.169 911.783,630.836 927.5,696.5 Z"/></g>
<g><path style="opacity:1" fill="#f0b6b2" d="M 654.5,275.5 C 659.74,279.233 664.574,283.566 669,288.5C 712.748,338.956 748.748,394.623 777,455.5C 824.861,561.766 855.361,672.932 868.5,789C 868.167,791.167 867.833,793.333 867.5,795.5C 838.869,817.965 813.369,843.631 791,872.5C 789.883,874.124 788.383,875.124 786.5,875.5C 782.391,873.234 778.391,870.734 774.5,868C 754.598,849.7 738.431,828.533 726,804.5C 703.024,758.911 684.357,711.578 670,662.5C 655.636,609.342 645.636,555.342 640,500.5C 634.307,432.415 637.307,364.748 649,297.5C 650.524,290.069 652.358,282.735 654.5,275.5 Z"/></g>
<g><path style="opacity:1" fill="#f0b6b2" d="M 1531.5,291.5 C 1533.05,292.23 1533.88,293.563 1534,295.5C 1548.62,365.102 1553.28,435.435 1548,506.5C 1540.27,601.531 1517.93,692.864 1481,780.5C 1468.41,809.693 1452.74,837.027 1434,862.5C 1428.35,869.317 1422.18,875.65 1415.5,881.5C 1389.83,841.994 1359,806.994 1323,776.5C 1337.33,670.176 1366.66,568.176 1411,470.5C 1434.38,420.031 1463.05,373.031 1497,329.5C 1507.81,316.234 1519.31,303.567 1531.5,291.5 Z"/></g>
<g><path style="opacity:0.996" fill="#3d393b" d="M 1262.5,719.5 C 1262.05,724.207 1261.38,728.874 1260.5,733.5C 1238.02,746.143 1222.19,764.477 1213,788.5C 1202.78,817.602 1198.61,847.602 1200.5,878.5C 1186.13,878.06 1174.97,871.727 1167,859.5C 1155.21,841.077 1147.05,821.077 1142.5,799.5C 1135.12,800.02 1128.45,802.52 1122.5,807C 1113.12,815.263 1105.29,824.763 1099,835.5C 1081.16,868.873 1068.66,904.207 1061.5,941.5C 1060.13,941.657 1058.79,941.49 1057.5,941C 1034.25,930.083 1017.42,912.917 1007,889.5C 996.404,859.603 993.571,828.937 998.5,797.5C 996.143,797.337 993.81,797.503 991.5,798C 982.658,802.585 974.325,807.918 966.5,814C 949.699,828.467 933.865,843.967 919,860.5C 912.418,842.685 908.252,824.352 906.5,805.5C 905.196,791.501 905.196,777.501 906.5,763.5C 907.586,750.152 910.419,737.152 915,724.5C 918.921,714.997 923.088,705.663 927.5,696.5C 948.208,665.098 975.874,641.598 1010.5,626C 1039.37,612.679 1069.71,604.345 1101.5,601C 1173.91,594.425 1224.75,623.925 1254,689.5C 1257.17,699.51 1260,709.51 1262.5,719.5 Z"/></g>
<g><path style="opacity:1" fill="#868586" d="M 906.5,763.5 C 905.196,777.501 905.196,791.501 906.5,805.5C 905.698,804.048 905.198,802.382 905,800.5C 904.333,789.5 904.333,778.5 905,767.5C 905.21,765.942 905.71,764.609 906.5,763.5 Z"/></g>
<g><path style="opacity:1" fill="#5a5959" d="M 1257.5,1105.5 C 1251.8,1105.37 1246.13,1105.71 1240.5,1106.5C 1243.53,1104.98 1246.86,1104.31 1250.5,1104.5C 1253.03,1104.5 1255.36,1104.84 1257.5,1105.5 Z"/></g>
<g><path style="opacity:1" fill="#31302f" d="M 1257.5,1105.5 C 1262.86,1106.68 1267.53,1109.18 1271.5,1113C 1281.35,1125.7 1286.35,1140.2 1286.5,1156.5C 1285.93,1169.13 1282.43,1180.8 1276,1191.5C 1261.51,1206.64 1246.51,1207.31 1231,1193.5C 1214.14,1171.95 1210.14,1148.29 1219,1122.5C 1224.6,1115.06 1231.77,1109.73 1240.5,1106.5C 1246.13,1105.71 1251.8,1105.37 1257.5,1105.5 Z"/></g>
<g><path style="opacity:1" fill="#31302f" d="M 874.5,1115.5 C 906.484,1114.98 922.484,1130.82 922.5,1163C 924.303,1180.93 918.969,1196.26 906.5,1209C 887.882,1217.14 873.049,1212.64 862,1195.5C 851.193,1176.27 848.527,1155.94 854,1134.5C 857.866,1124.79 864.699,1118.46 874.5,1115.5 Z"/></g>
<g><path style="opacity:0.998" fill="#e7e7e8" d="M 1542.5,1318.5 C 1542.72,1444.12 1490.39,1540.12 1385.5,1606.5C 1378.69,1608.57 1372.36,1611.74 1366.5,1616C 1345.75,1626.88 1324.42,1636.38 1302.5,1644.5C 1276.84,1653.27 1250.84,1661.1 1224.5,1668C 1139.6,1686.45 1053.93,1694.28 967.5,1691.5C 753.492,1677.16 643.492,1562.83 637.5,1348.5C 645.65,1342.58 653.65,1336.42 661.5,1330C 713.493,1294.51 769.826,1267.84 830.5,1250C 968.675,1210.62 1109.01,1200.95 1251.5,1221C 1334.85,1231.45 1414.52,1254.45 1490.5,1290C 1508.12,1299.3 1525.46,1308.8 1542.5,1318.5 Z"/></g>
<g><path style="opacity:1" fill="#f2aeb2" d="M 1403.5,1312.5 C 1423.93,1311.03 1441.43,1317.36 1456,1331.5C 1472.29,1353.67 1472.62,1376 1457,1398.5C 1439.5,1417.92 1418,1424.75 1392.5,1419C 1381.39,1414.22 1373.22,1406.39 1368,1395.5C 1365.94,1390.38 1363.61,1385.38 1361,1380.5C 1351.72,1355.35 1358.22,1335.52 1380.5,1321C 1388.02,1317.44 1395.69,1314.61 1403.5,1312.5 Z"/></g>
<g><path style="opacity:1" fill="#848383" d="M 1236.5,1342.5 C 1230.8,1342.37 1225.13,1342.71 1219.5,1343.5C 1222.53,1341.98 1225.86,1341.31 1229.5,1341.5C 1232.03,1341.5 1234.36,1341.84 1236.5,1342.5 Z"/></g>
<g><path style="opacity:1" fill="#333231" d="M 1236.5,1342.5 C 1245.66,1344.74 1253.66,1349.08 1260.5,1355.5C 1241.17,1356.83 1221.83,1356.83 1202.5,1355.5C 1207.24,1350.29 1212.91,1346.29 1219.5,1343.5C 1225.13,1342.71 1230.8,1342.37 1236.5,1342.5 Z"/></g>
<g><path style="opacity:1" fill="#888888" d="M 1202.5,1355.5 C 1221.83,1356.83 1241.17,1356.83 1260.5,1355.5C 1261.04,1355.56 1261.38,1355.89 1261.5,1356.5C 1241.5,1357.83 1221.5,1357.83 1201.5,1356.5C 1201.62,1355.89 1201.96,1355.56 1202.5,1355.5 Z"/></g>
<g><path style="opacity:1" fill="#343332" d="M 973.5,1372.5 C 973.611,1373.12 973.944,1373.62 974.5,1374C 954.836,1374.5 935.169,1374.67 915.5,1374.5C 926.175,1360.55 939.842,1356.39 956.5,1362C 962.581,1364.93 968.248,1368.43 973.5,1372.5 Z"/></g>
<g><path style="opacity:1" fill="#f2aeb2" d="M 754.5,1362.5 C 777.199,1359.7 796.699,1366.04 813,1381.5C 823.478,1395.98 826.478,1411.98 822,1429.5C 809.99,1476.26 781.49,1490.76 736.5,1473C 700.81,1450.92 693.644,1421.75 715,1385.5C 725.662,1373.3 738.829,1365.63 754.5,1362.5 Z"/></g>
<g><path style="opacity:1" fill="#c0bfc0" d="M 973.5,1372.5 C 975.048,1372.82 975.715,1373.82 975.5,1375.5C 955.326,1375.83 935.326,1375.5 915.5,1374.5C 935.169,1374.67 954.836,1374.5 974.5,1374C 973.944,1373.62 973.611,1373.12 973.5,1372.5 Z"/></g>
<g><path style="opacity:1" fill="#343332" d="M 1074.5,1548.5 C 1076.51,1549.92 1078.85,1550.59 1081.5,1550.5C 1083.38,1551.34 1085.38,1551.67 1087.5,1551.5C 1091.65,1552.65 1095.98,1552.81 1100.5,1552C 1101.42,1551.72 1102.08,1551.22 1102.5,1550.5C 1112.08,1548.29 1120.25,1543.63 1127,1536.5C 1136.82,1524.53 1144.32,1511.19 1149.5,1496.5C 1150.82,1496.33 1151.99,1496.66 1153,1497.5C 1153.5,1501.15 1153.67,1504.82 1153.5,1508.5C 1152.08,1510.51 1151.41,1512.85 1151.5,1515.5C 1140.77,1552.86 1116.11,1569.2 1077.5,1564.5C 1075.49,1563.08 1073.15,1562.41 1070.5,1562.5C 1049.79,1554.83 1036.62,1540.17 1031,1518.5C 1028.52,1508.63 1027.02,1498.63 1026.5,1488.5C 1028.98,1488.32 1030.81,1489.32 1032,1491.5C 1035.86,1499.09 1038.53,1507.09 1040,1515.5C 1046.86,1531.35 1058.36,1542.35 1074.5,1548.5 Z"/></g>
<g><path style="opacity:1" fill="#999898" d="M 1153.5,1508.5 C 1153.59,1511.15 1152.92,1513.49 1151.5,1515.5C 1151.41,1512.85 1152.08,1510.51 1153.5,1508.5 Z"/></g>
<g><path style="opacity:1" fill="#9d9c9c" d="M 1074.5,1548.5 C 1077.15,1548.41 1079.49,1549.08 1081.5,1550.5C 1078.85,1550.59 1076.51,1549.92 1074.5,1548.5 Z"/></g>
<g><path style="opacity:1" fill="#666564" d="M 1102.5,1550.5 C 1102.08,1551.22 1101.42,1551.72 1100.5,1552C 1095.98,1552.81 1091.65,1552.65 1087.5,1551.5C 1092.54,1551.59 1097.54,1551.25 1102.5,1550.5 Z"/></g>
<g><path style="opacity:1" fill="#7a7a7a" d="M 1070.5,1562.5 C 1073.15,1562.41 1075.49,1563.08 1077.5,1564.5C 1074.85,1564.59 1072.51,1563.92 1070.5,1562.5 Z"/></g>
<g><path style="opacity:0.98" fill="#3d393b" d="M 2012.5,1775.5 C 2004.91,1772.72 1997.24,1769.22 1989.5,1765C 1947.73,1748.73 1904.4,1739.73 1859.5,1738C 1832.1,1737 1804.76,1738 1777.5,1741C 1731.71,1749.69 1685.71,1757.19 1639.5,1763.5C 1634.27,1763.44 1629.27,1764.11 1624.5,1765.5C 1575.89,1771.27 1527.39,1770.61 1479,1763.5C 1432.17,1755.58 1390.33,1737.08 1353.5,1708C 1332.55,1689.9 1315.55,1668.73 1302.5,1644.5C 1324.42,1636.38 1345.75,1626.88 1366.5,1616C 1372.36,1611.74 1378.69,1608.57 1385.5,1606.5C 1397.82,1612.56 1410.82,1614.06 1424.5,1611C 1430.54,1608.76 1436.71,1606.93 1443,1605.5C 1443.5,1605.83 1444,1606.17 1444.5,1606.5C 1433.57,1621.27 1424.07,1636.94 1416,1653.5C 1413.38,1660.64 1412.38,1667.97 1413,1675.5C 1414.12,1678.25 1415.62,1680.75 1417.5,1683C 1426.91,1686.88 1436.57,1687.54 1446.5,1685C 1451.5,1684 1456.5,1683 1461.5,1682C 1474.33,1677.8 1486.99,1673.3 1499.5,1668.5C 1503.13,1683.56 1508.63,1697.9 1516,1711.5C 1519.2,1714.37 1522.04,1717.54 1524.5,1721C 1530.89,1726.35 1538.22,1728.69 1546.5,1728C 1561.49,1724.11 1573.33,1715.94 1582,1703.5C 1590.78,1688.04 1594.61,1671.38 1593.5,1653.5C 1599.4,1666.01 1605.24,1678.67 1611,1691.5C 1616.95,1701.11 1623.28,1710.44 1630,1719.5C 1649.05,1740.88 1670.55,1743.71 1694.5,1728C 1707.92,1715.85 1711.75,1701.01 1706,1683.5C 1701.5,1669.42 1702.5,1669.09 1709,1682.5C 1712.98,1688.48 1717.31,1694.14 1722,1699.5C 1730.9,1709.07 1741.4,1716.24 1753.5,1721C 1764.99,1723.34 1776.32,1722.84 1787.5,1719.5C 1789,1710.21 1790.16,1700.88 1791,1691.5C 1793.81,1680.18 1798.98,1670.18 1806.5,1661.5C 1811,1658.91 1815.66,1656.91 1820.5,1655.5C 1815.77,1675.73 1821.1,1692.56 1836.5,1706C 1861.7,1713.59 1885.36,1710.26 1907.5,1696C 1912.33,1692.5 1916.5,1688.33 1920,1683.5C 1918.22,1706.78 1928.72,1720.95 1951.5,1726C 1971.67,1726.34 1988.5,1733.84 2002,1748.5C 2008.29,1756.42 2011.79,1765.42 2012.5,1775.5 Z"/></g>
<g><path style="opacity:0.998" fill="#9b9b9c" d="M 1302.5,1644.5 C 1315.55,1668.73 1332.55,1689.9 1353.5,1708C 1390.33,1737.08 1432.17,1755.58 1479,1763.5C 1527.39,1770.61 1575.89,1771.27 1624.5,1765.5C 1629.73,1765.56 1634.73,1764.89 1639.5,1763.5C 1685.71,1757.19 1731.71,1749.69 1777.5,1741C 1804.76,1738 1832.1,1737 1859.5,1738C 1904.4,1739.73 1947.73,1748.73 1989.5,1765C 1997.24,1769.22 2004.91,1772.72 2012.5,1775.5C 2031.4,1785.15 2048.74,1797.15 2064.5,1811.5C 2121.87,1782.39 2181.87,1775.89 2244.5,1792C 2267.96,1800.14 2286.8,1814.31 2301,1834.5C 2306.29,1842.07 2310.79,1850.07 2314.5,1858.5C 2305.94,1856.34 2297.27,1854.51 2288.5,1853C 2278.27,1849.86 2271.77,1853.36 2269,1863.5C 2268.5,1872.16 2268.33,1880.83 2268.5,1889.5C 2257.32,1859.02 2235.99,1839.19 2204.5,1830C 2174.04,1822.39 2143.71,1822.72 2113.5,1831C 2108.2,1833.54 2102.87,1835.87 2097.5,1838C 2096.13,1839.34 2094.8,1840.67 2093.5,1842C 2118.61,1874.29 2137.11,1910.12 2149,1949.5C 2170.35,2020.71 2175.35,2093.04 2164,2166.5C 2156.66,2198.96 2145,2229.63 2129,2258.5C 2133.94,2320.09 2138.28,2381.75 2142,2443.5C 2146.05,2546.79 2147.88,2650.13 2147.5,2753.5C 2097.13,2760.21 2046.79,2760.05 1996.5,2753C 1987.46,2751.16 1978.46,2749.16 1969.5,2747C 1956.82,2743.06 1944.82,2737.9 1933.5,2731.5C 1937.52,2669.86 1941.18,2608.2 1944.5,2546.5C 1946.01,2519.85 1946.68,2493.02 1946.5,2466C 1946.5,2447.66 1946.17,2429.5 1945.5,2411.5C 1921.86,2420.83 1898.2,2429.83 1874.5,2438.5C 1837.78,2449.68 1800.44,2458.51 1762.5,2465C 1679.9,2477.52 1596.9,2482.18 1513.5,2479C 1480.81,2477.38 1448.14,2475.38 1415.5,2473C 1369.33,2468.28 1323.33,2462.61 1277.5,2456C 1280.37,2469.72 1282.87,2483.56 1285,2497.5C 1297.32,2582.92 1310.16,2668.25 1323.5,2753.5C 1296.88,2758.11 1270.21,2762.61 1243.5,2767C 1216.51,2769.73 1189.51,2772.4 1162.5,2775C 1147.82,2775.34 1133.16,2775.84 1118.5,2776.5C 1118.72,2773.72 1118.39,2771.05 1117.5,2768.5C 1110.69,2644.93 1106.53,2521.27 1105,2397.5C 1068.81,2375.71 1038.14,2347.71 1013,2313.5C 1012.33,2312.75 1011.5,2312.41 1010.5,2312.5C 979.306,2268.31 957.139,2219.64 944,2166.5C 928.375,2098.37 922.375,2029.37 926,1959.5C 931.508,1868.79 945.342,1779.46 967.5,1691.5C 1053.93,1694.28 1139.6,1686.45 1224.5,1668C 1250.84,1661.1 1276.84,1653.27 1302.5,1644.5 Z"/></g>
<g><path style="opacity:1" fill="#6d6b6d" d="M 1639.5,1763.5 C 1634.73,1764.89 1629.73,1765.56 1624.5,1765.5C 1629.27,1764.11 1634.27,1763.44 1639.5,1763.5 Z"/></g>
<g><path style="opacity:0.985" fill="#3d393b" d="M 2314.5,1858.5 C 2322.45,1861.58 2330.12,1865.42 2337.5,1870C 2339.62,1872.8 2342.29,1874.8 2345.5,1876C 2351.64,1881.81 2357.48,1887.98 2363,1894.5C 2393.27,1936.59 2405.27,1983.59 2399,2035.5C 2396.69,2051.11 2390.36,2064.77 2380,2076.5C 2367.13,2094.67 2363.13,2114.67 2368,2136.5C 2373.54,2158.5 2382.54,2178.83 2395,2197.5C 2402.16,2207.65 2409.66,2217.48 2417.5,2227C 2380.45,2235.36 2347.61,2227.19 2319,2202.5C 2305.43,2187.03 2295.76,2169.36 2290,2149.5C 2285.63,2130.09 2283.3,2110.42 2283,2090.5C 2278.68,2106.3 2277.68,2122.3 2280,2138.5C 2281.74,2141.31 2282.91,2144.31 2283.5,2147.5C 2277.46,2146.29 2272.96,2142.96 2270,2137.5C 2237.65,2100.09 2228.32,2057.42 2242,2009.5C 2244.96,2001.92 2247.63,1994.25 2250,1986.5C 2257.89,1970.05 2265.23,1953.38 2272,1936.5C 2273.09,1931.04 2273.93,1925.54 2274.5,1920C 2273.2,1909.69 2271.2,1899.52 2268.5,1889.5C 2268.33,1880.83 2268.5,1872.16 2269,1863.5C 2271.77,1853.36 2278.27,1849.86 2288.5,1853C 2297.27,1854.51 2305.94,1856.34 2314.5,1858.5 Z"/></g>
<g><path style="opacity:0.991" fill="#727273" d="M 1010.5,2312.5 C 1011.5,2312.41 1012.33,2312.75 1013,2313.5C 1038.14,2347.71 1068.81,2375.71 1105,2397.5C 1106.53,2521.27 1110.69,2644.93 1117.5,2768.5C 1094.71,2764.37 1072.04,2759.54 1049.5,2754C 1025.79,2747.99 1002.12,2741.82 978.5,2735.5C 1001.58,2638.92 1013.25,2540.92 1013.5,2441.5C 1012.79,2398.49 1011.79,2355.49 1010.5,2312.5 Z"/></g>
<g><path style="opacity:0.993" fill="#717172" d="M 1945.5,2411.5 C 1945.6,2456.5 1945.27,2501.5 1944.5,2546.5C 1941.18,2608.2 1937.52,2669.86 1933.5,2731.5C 1932.53,2729.39 1932.2,2727.06 1932.5,2724.5C 1905.48,2726.56 1879.15,2723.39 1853.5,2715C 1843.7,2710.64 1834.03,2706.14 1824.5,2701.5C 1830.56,2626.68 1844.4,2553.35 1866,2481.5C 1869,2467.18 1871.83,2452.85 1874.5,2438.5C 1898.2,2429.83 1921.86,2420.83 1945.5,2411.5 Z"/></g>
<g><path style="opacity:1" fill="#808081" d="M 1945.5,2411.5 C 1946.17,2429.5 1946.5,2447.66 1946.5,2466C 1946.68,2493.02 1946.01,2519.85 1944.5,2546.5C 1945.27,2501.5 1945.6,2456.5 1945.5,2411.5 Z"/></g>
<g><path style="opacity:0.998" fill="#333233" d="M 1824.5,2701.5 C 1834.03,2706.14 1843.7,2710.64 1853.5,2715C 1879.15,2723.39 1905.48,2726.56 1932.5,2724.5C 1932.2,2727.06 1932.53,2729.39 1933.5,2731.5C 1944.82,2737.9 1956.82,2743.06 1969.5,2747C 1978.46,2749.16 1987.46,2751.16 1996.5,2753C 2046.79,2760.05 2097.13,2760.21 2147.5,2753.5C 2147.83,2764.19 2147.5,2774.85 2146.5,2785.5C 2086.62,2815.81 2024.62,2820.98 1960.5,2801C 1955.56,2798.69 1950.56,2796.69 1945.5,2795C 1939.45,2791.59 1933.45,2788.26 1927.5,2785C 1907.65,2785.39 1887.98,2783.73 1868.5,2780C 1860.72,2776.94 1853.05,2773.61 1845.5,2770C 1834.68,2763.04 1827.18,2753.54 1823,2741.5C 1823,2728.16 1823.5,2714.82 1824.5,2701.5 Z"/></g>
<g><path style="opacity:0.999" fill="#333233" d="M 978.5,2735.5 C 1002.12,2741.82 1025.79,2747.99 1049.5,2754C 1072.04,2759.54 1094.71,2764.37 1117.5,2768.5C 1118.39,2771.05 1118.72,2773.72 1118.5,2776.5C 1133.16,2775.84 1147.82,2775.34 1162.5,2775C 1189.51,2772.4 1216.51,2769.73 1243.5,2767C 1270.21,2762.61 1296.88,2758.11 1323.5,2753.5C 1325.56,2769.89 1328.06,2786.22 1331,2802.5C 1331.67,2806.17 1331.67,2809.83 1331,2813.5C 1283.8,2830.43 1235.3,2842.26 1185.5,2849C 1167.83,2849.67 1150.17,2849.67 1132.5,2849C 1129.96,2848.66 1127.46,2848.16 1125,2847.5C 1124.05,2847.09 1123.39,2846.43 1123,2845.5C 1121.77,2834.19 1120.94,2822.86 1120.5,2811.5C 1094.03,2816.13 1067.36,2817.96 1040.5,2817C 1021.69,2816.17 1004.02,2811.5 987.5,2803C 982.525,2799.03 978.691,2794.2 976,2788.5C 976.674,2770.85 977.508,2753.18 978.5,2735.5 Z"/></g>
</svg>
