<?xml version="1.0" encoding="UTF-8"?>
<!DOCTYPE svg PUBLIC "-//W3C//DTD SVG 1.1//EN" "http://www.w3.org/Graphics/SVG/1.1/DTD/svg11.dtd">
<svg xmlns="http://www.w3.org/2000/svg" version="1.1" width="3000px" height="3000px" style="shape-rendering:geometricPrecision; text-rendering:geometricPrecision; image-rendering:optimizeQuality; fill-rule:evenodd; clip-rule:evenodd" xmlns:xlink="http://www.w3.org/1999/xlink">
<g><path style="opacity:0.998" fill="#f1aca1" d="M 2737.5,1677.5 C 2685.12,1684.89 2632.78,1692.55 2580.5,1700.5C 2400.22,1725.77 2219.89,1750.6 2039.5,1775C 2009.96,1779.11 1980.62,1783.61 1951.5,1788.5C 1949.9,1788.23 1948.57,1788.57 1947.5,1789.5C 1935.87,1790.49 1924.54,1792.49 1913.5,1795.5C 1912.5,1795.5 1911.5,1795.5 1910.5,1795.5C 1888.69,1799.73 1867.02,1804.06 1845.5,1808.5C 1828.69,1811.07 1812.02,1813.73 1795.5,1816.5C 1779.68,1817.76 1764.01,1819.09 1748.5,1820.5C 1733.5,1820.67 1718.5,1820.5 1703.5,1820C 1687.16,1818.16 1670.83,1816.33 1654.5,1814.5C 1660.82,1720.24 1661.99,1625.91 1658,1531.5C 1654.13,1427.42 1645.47,1323.75 1632,1220.5C 1629.07,1199.53 1624.74,1178.86 1619,1158.5C 1616.65,1139.06 1613.65,1119.73 1610,1100.5C 1606.84,1082.68 1597,1070.18 1580.5,1063C 1572.29,1060.2 1563.95,1057.86 1555.5,1056C 1486.11,1047.27 1416.45,1043.94 1346.5,1046C 1228.93,1038.07 1111.26,1036.41 993.5,1041C 976.782,1042.5 960.116,1044.34 943.5,1046.5C 943.388,966.475 942.055,886.475 939.5,806.5C 950.505,806.333 961.505,806.5 972.5,807C 973.025,807.692 973.692,808.192 974.5,808.5C 984.122,807.845 993.788,807.512 1003.5,807.5C 1251.82,810.579 1500.16,811.913 1748.5,811.5C 1744.14,1071.5 1739.97,1331.5 1736,1591.5C 1735.19,1666.83 1734.86,1742.17 1735,1817.5C 1736.71,1818.93 1738.05,1818.59 1739,1816.5C 1740.68,1602.82 1743.35,1389.16 1747,1175.5C 1748.92,1039.48 1751.59,903.479 1755,767.5C 1755.87,739.519 1765.71,715.352 1784.5,695C 1793.13,687.351 1803.13,682.351 1814.5,680C 1817.33,677.149 1816.66,675.649 1812.5,675.5C 1796.92,679.041 1784.09,687.041 1774,699.5C 1759.07,719.953 1751.07,742.953 1750,768.5C 1749.5,781.162 1749.33,793.829 1749.5,806.5C 1725.5,806.5 1701.5,806.5 1677.5,806.5C 1669,753.803 1686.5,712.136 1730,681.5C 1730.78,679.681 1730.28,678.348 1728.5,677.5C 1682.8,708.586 1664.13,751.586 1672.5,806.5C 1440.49,807.047 1208.49,805.713 976.5,802.5C 971.981,761.059 984.315,725.559 1013.5,696C 1018.4,691.261 1023.74,687.094 1029.5,683.5C 1030.43,682.311 1030.76,680.978 1030.5,679.5C 1027.07,679.547 1024.07,680.713 1021.5,683C 983.889,713.983 967.222,753.816 971.5,802.5C 960.846,801.85 950.179,801.516 939.5,801.5C 938.757,781.173 940.923,761.173 946,741.5C 954.511,712.989 972.678,693.489 1000.5,683C 1021.25,675.48 1042.58,670.48 1064.5,668C 1150.81,665.322 1237.14,664.156 1323.5,664.5C 1478.34,665.219 1633.17,666.219 1788,667.5C 2029.18,665.578 2270.34,662.745 2511.5,659C 2609.5,658.333 2707.5,658.333 2805.5,659C 2808,660.167 2809.83,662 2811,664.5C 2814.66,695.716 2816.99,727.049 2818,758.5C 2818.89,782.827 2819.56,807.16 2820,831.5C 2821.21,977.524 2822.37,1123.52 2823.5,1269.5C 2822.55,1395.36 2821.05,1521.03 2819,1646.5C 2818.67,1650.83 2818.33,1655.17 2818,1659.5C 2810.53,1663 2802.69,1665.5 2794.5,1667C 2775.52,1670.72 2756.52,1674.22 2737.5,1677.5 Z"/></g>
<g><path style="opacity:1" fill="#f3e2d1" d="M 939.5,806.5 C 938.167,804.833 938.167,803.167 939.5,801.5C 950.179,801.516 960.846,801.85 971.5,802.5C 967.222,753.816 983.889,713.983 1021.5,683C 1024.07,680.713 1027.07,679.547 1030.5,679.5C 1030.76,680.978 1030.43,682.311 1029.5,683.5C 1023.74,687.094 1018.4,691.261 1013.5,696C 984.315,725.559 971.981,761.059 976.5,802.5C 1208.49,805.713 1440.49,807.047 1672.5,806.5C 1664.13,751.586 1682.8,708.586 1728.5,677.5C 1730.28,678.348 1730.78,679.681 1730,681.5C 1686.5,712.136 1669,753.803 1677.5,806.5C 1701.5,806.5 1725.5,806.5 1749.5,806.5C 1749.33,793.829 1749.5,781.162 1750,768.5C 1751.07,742.953 1759.07,719.953 1774,699.5C 1784.09,687.041 1796.92,679.041 1812.5,675.5C 1816.66,675.649 1817.33,677.149 1814.5,680C 1803.13,682.351 1793.13,687.351 1784.5,695C 1765.71,715.352 1755.87,739.519 1755,767.5C 1751.59,903.479 1748.92,1039.48 1747,1175.5C 1743.35,1389.16 1740.68,1602.82 1739,1816.5C 1738.05,1818.59 1736.71,1818.93 1735,1817.5C 1734.86,1742.17 1735.19,1666.83 1736,1591.5C 1739.97,1331.5 1744.14,1071.5 1748.5,811.5C 1500.16,811.913 1251.82,810.579 1003.5,807.5C 993.788,807.512 984.122,807.845 974.5,808.5C 973.692,808.192 973.025,807.692 972.5,807C 961.505,806.5 950.505,806.333 939.5,806.5 Z"/></g>
<g><path style="opacity:1" fill="#f3e5d4" d="M 2712.5,708.5 C 2734.17,708.5 2755.83,708.5 2777.5,708.5C 2781.39,875.479 2784.22,1042.48 2786,1209.5C 2787.75,1343.16 2788.42,1476.83 2788,1610.5C 2782,1616.59 2774.83,1620.75 2766.5,1623C 2727.14,1634.67 2687.14,1643.67 2646.5,1650C 2537.15,1667.5 2427.48,1682.84 2317.5,1696C 2141.84,1716.5 1966.18,1736.67 1790.5,1756.5C 1788.99,1698.17 1787.66,1639.84 1786.5,1581.5C 1789.75,1304.49 1793.75,1027.49 1798.5,750.5C 2103.13,732.664 2407.79,718.664 2712.5,708.5 Z"/></g>
<g><path style="opacity:0.999" fill="#5f95d6" d="M 1654.5,1814.5 C 1653.5,1829.83 1652.5,1845.17 1651.5,1860.5C 1650.53,1862.61 1650.2,1864.94 1650.5,1867.5C 1654.04,1867.81 1657.38,1867.48 1660.5,1866.5C 1672.17,1865.73 1683.83,1864.9 1695.5,1864C 1715.18,1860.43 1734.85,1856.93 1754.5,1853.5C 1750.96,1842.79 1748.96,1831.79 1748.5,1820.5C 1764.01,1819.09 1779.68,1817.76 1795.5,1816.5C 1795.5,1820.83 1795.5,1825.17 1795.5,1829.5C 1795.5,1834.5 1795.5,1839.5 1795.5,1844.5C 1797.1,1844.77 1798.43,1844.43 1799.5,1843.5C 1819.8,1841.39 1840.13,1839.56 1860.5,1838C 1877.06,1835.01 1893.73,1832.85 1910.5,1831.5C 1912.17,1831.5 1913.83,1831.5 1915.5,1831.5C 1915.83,1819.32 1915.5,1807.32 1914.5,1795.5C 1914.17,1795.5 1913.83,1795.5 1913.5,1795.5C 1924.54,1792.49 1935.87,1790.49 1947.5,1789.5C 1947.12,1801.27 1947.95,1812.93 1950,1824.5C 1951.86,1829.19 1955.36,1831.52 1960.5,1831.5C 2019.02,1820.36 2077.69,1810.19 2136.5,1801C 2141.6,1807.62 2144.77,1815.12 2146,1823.5C 2146.78,1829.67 2147.61,1835.84 2148.5,1842C 2148.7,1848.94 2145.36,1852.94 2138.5,1854C 2076.46,1867.15 2014.13,1878.82 1951.5,1889C 1850.65,1909.41 1748.98,1924.41 1646.5,1934C 1645.19,1959.6 1642.52,1985.1 1638.5,2010.5C 1633.73,2033.88 1622.4,2053.38 1604.5,2069C 1582.68,2084.91 1558.68,2096.58 1532.5,2104C 1491.94,2115.21 1450.61,2120.05 1408.5,2118.5C 1375.84,2117.58 1343.17,2116.91 1310.5,2116.5C 1308.35,2099.95 1305.69,2083.62 1302.5,2067.5C 1298.2,2021.29 1285.37,1977.62 1264,1936.5C 1248.98,1909.24 1226.48,1891.41 1196.5,1883C 1111.48,1865.1 1046.65,1893.27 1002,1967.5C 986.299,1995.26 973.299,2024.26 963,2054.5C 955.182,2079.96 946.182,2104.96 936,2129.5C 929.677,2140 920.844,2147.33 909.5,2151.5C 904.613,2152.98 899.613,2154.15 894.5,2155C 814.297,2154.23 734.297,2149.73 654.5,2141.5C 620.009,2137.17 585.342,2133 550.5,2129C 493.999,2119.04 437.333,2110.04 380.5,2102C 364.531,2100.5 348.531,2099.67 332.5,2099.5C 314.802,2099.86 297.135,2099.36 279.5,2098C 257.782,2096.06 239.949,2086.89 226,2070.5C 217,2055.17 208,2039.83 199,2024.5C 193.499,2010.52 194.832,1997.19 203,1984.5C 210.716,1974.57 215.549,1963.4 217.5,1951C 217.595,1945.95 216.095,1941.45 213,1937.5C 206.151,1932.41 199.484,1927.07 193,1921.5C 185.984,1910.62 182.818,1898.62 183.5,1885.5C 184.792,1862.41 188.459,1839.75 194.5,1817.5C 201.055,1831.23 210.722,1842.4 223.5,1851C 229.732,1853.01 234.232,1851.17 237,1845.5C 237.889,1815.05 240.222,1784.72 244,1754.5C 245.915,1740.5 243.248,1727.5 236,1715.5C 231.692,1710.66 226.525,1707.33 220.5,1705.5C 230.401,1676.77 247.734,1653.6 272.5,1636C 299.362,1619.4 327.028,1604.06 355.5,1590C 365.767,1584.06 375.767,1577.73 385.5,1571C 432.542,1530.63 474.709,1485.79 512,1436.5C 546.72,1389.45 581.054,1342.11 615,1294.5C 651.03,1244.73 691.197,1198.23 735.5,1155C 765.296,1127.53 797.629,1103.53 832.5,1083C 867.55,1064.93 904.55,1052.76 943.5,1046.5C 960.116,1044.34 976.782,1042.5 993.5,1041C 1111.26,1036.41 1228.93,1038.07 1346.5,1046C 1416.45,1043.94 1486.11,1047.27 1555.5,1056C 1563.95,1057.86 1572.29,1060.2 1580.5,1063C 1597,1070.18 1606.84,1082.68 1610,1100.5C 1613.65,1119.73 1616.65,1139.06 1619,1158.5C 1624.74,1178.86 1629.07,1199.53 1632,1220.5C 1645.47,1323.75 1654.13,1427.42 1658,1531.5C 1661.99,1625.91 1660.82,1720.24 1654.5,1814.5 Z"/></g>
<g><path style="opacity:1" fill="#ede2d5" d="M 961.5,1098.5 C 968.991,1097.99 973.824,1101.33 976,1108.5C 977.606,1123.89 970.773,1131.06 955.5,1130C 953,1128.83 951.167,1127 950,1124.5C 946.498,1112.51 950.331,1103.84 961.5,1098.5 Z"/></g>
<g><path style="opacity:1" fill="#ebe1d5" d="M 1009.5,1102.5 C 1019.98,1101.98 1025.31,1106.98 1025.5,1117.5C 1024.07,1131.11 1016.73,1136.27 1003.5,1133C 996.989,1126.75 995.823,1119.58 1000,1111.5C 1002.41,1107.59 1005.57,1104.59 1009.5,1102.5 Z"/></g>
<g><path style="opacity:1" fill="#6497d6" d="M 962.5,1103.5 C 968.539,1103.72 971.539,1106.89 971.5,1113C 971.005,1124.06 965.671,1127.89 955.5,1124.5C 950.806,1115.25 953.139,1108.25 962.5,1103.5 Z"/></g>
<g><path style="opacity:1" fill="#ebe1d5" d="M 1055.5,1105.5 C 1065.7,1104.87 1071.04,1109.7 1071.5,1120C 1071.19,1130.48 1065.86,1136.31 1055.5,1137.5C 1047.18,1136.42 1043.18,1131.58 1043.5,1123C 1044.16,1114.85 1048.16,1109.02 1055.5,1105.5 Z"/></g>
<g><path style="opacity:1" fill="#6296d7" d="M 1010.5,1107.5 C 1014.79,1106.54 1017.96,1107.87 1020,1111.5C 1022.01,1118.68 1020.17,1124.51 1014.5,1129C 1011.5,1129.67 1008.5,1129.67 1005.5,1129C 1000.27,1120.19 1001.94,1113.02 1010.5,1107.5 Z"/></g>
<g><path style="opacity:1" fill="#6196d6" d="M 1056.5,1110.5 C 1059.97,1109.87 1062.8,1110.87 1065,1113.5C 1069.19,1126.29 1064.69,1132.45 1051.5,1132C 1046.29,1123.22 1047.96,1116.05 1056.5,1110.5 Z"/></g>
<g><path style="opacity:1" fill="#ece1d5" d="M 1550.5,1127.5 C 1552.53,1127.34 1554.53,1127.5 1556.5,1128C 1557.83,1129.33 1557.83,1130.67 1556.5,1132C 1518.01,1135.37 1480.34,1142.71 1443.5,1154C 1406.05,1167.3 1374.55,1189.14 1349,1219.5C 1307.87,1271.06 1271.21,1325.73 1239,1383.5C 1237.9,1386.04 1236.23,1386.71 1234,1385.5C 1233.74,1382.98 1234.41,1380.65 1236,1378.5C 1269.03,1320.49 1306.36,1265.49 1348,1213.5C 1385.99,1171.42 1433.16,1145.92 1489.5,1137C 1509.97,1133.74 1530.3,1130.57 1550.5,1127.5 Z"/></g>
<g><path style="opacity:1" fill="#f3e5d5" d="M 797.5,1157.5 C 848.466,1161.04 899.466,1164.21 950.5,1167C 1046.77,1171.69 1143.11,1174.02 1239.5,1174C 1248.25,1175.03 1256.09,1178.19 1263,1183.5C 1264.59,1185.67 1265.92,1188 1267,1190.5C 1268.51,1203.28 1266.84,1215.62 1262,1227.5C 1252.08,1251.34 1240.08,1274.01 1226,1295.5C 1188.9,1352.04 1150.57,1407.7 1111,1462.5C 1096.92,1489.22 1081.25,1514.89 1064,1539.5C 1052.64,1553.18 1038.14,1558.34 1020.5,1555C 900.727,1542.35 780.727,1532.02 660.5,1524C 631.508,1522.45 602.508,1521.12 573.5,1520C 559.683,1520.4 548.183,1515.57 539,1505.5C 532.704,1496.64 531.037,1486.98 534,1476.5C 537.94,1465.29 542.94,1454.62 549,1444.5C 596.387,1380.11 643.387,1315.45 690,1250.5C 703.193,1228.78 717.859,1208.11 734,1188.5C 750.976,1169.43 772.142,1159.09 797.5,1157.5 Z"/></g>
<g><path style="opacity:1" fill="#f3e5d5" d="M 1514.5,1192.5 C 1531.19,1189.87 1539.52,1196.87 1539.5,1213.5C 1538.13,1285.91 1534.97,1358.25 1530,1430.5C 1529.1,1445.59 1526.1,1460.26 1521,1474.5C 1515.56,1489.27 1506.39,1501.1 1493.5,1510C 1460.5,1526.11 1426.66,1540.28 1392,1552.5C 1392.89,1530.5 1394.22,1508.5 1396,1486.5C 1398.79,1428.51 1399.13,1370.51 1397,1312.5C 1395.57,1288.14 1394.23,1263.81 1393,1239.5C 1429.18,1212.72 1469.68,1197.05 1514.5,1192.5 Z"/></g>
<g><path style="opacity:1" fill="#f3e5d5" d="M 1328.5,1564.5 C 1327.83,1564.5 1327.5,1564.17 1327.5,1563.5C 1331.31,1542.68 1332.47,1521.68 1331,1500.5C 1328.55,1474.38 1314.38,1459.88 1288.5,1457C 1281.84,1456.5 1275.17,1456.33 1268.5,1456.5C 1267.61,1455.89 1266.61,1455.56 1265.5,1455.5C 1270,1428.49 1279.17,1403.16 1293,1379.5C 1310,1351.83 1327,1324.17 1344,1296.5C 1351.84,1284.81 1360.18,1273.48 1369,1262.5C 1368.79,1346.16 1368.46,1429.83 1368,1513.5C 1367.83,1528.84 1367.33,1544.18 1366.5,1559.5C 1354.01,1562.47 1341.34,1564.14 1328.5,1564.5 Z"/></g>
<g><path style="opacity:1" fill="#ebe1d5" d="M 1601.5,1419.5 C 1603.14,1419.29 1604.64,1419.62 1606,1420.5C 1610.17,1494.11 1611.51,1567.78 1610,1641.5C 1604.32,1673.24 1598.32,1704.9 1592,1736.5C 1591.33,1746.5 1591.33,1756.5 1592,1766.5C 1594.1,1799.64 1595.6,1832.81 1596.5,1866C 1596.41,1881.51 1595.91,1897.01 1595,1912.5C 1591.96,1933.76 1589.3,1955.09 1587,1976.5C 1584.46,1996.8 1579.46,2016.46 1572,2035.5C 1564.88,2051.62 1552.71,2061.46 1535.5,2065C 1484.64,2069.62 1433.8,2074.45 1383,2079.5C 1368.21,2081.02 1355.54,2076.69 1345,2066.5C 1340.82,2060.45 1338.15,2053.78 1337,2046.5C 1336.62,2017.28 1333.96,1988.28 1329,1959.5C 1322.78,1929.75 1311.12,1902.41 1294,1877.5C 1290.85,1873.38 1287.35,1869.55 1283.5,1866C 1269.39,1855.19 1255.56,1844.03 1242,1832.5C 1234.45,1824.94 1229.45,1815.94 1227,1805.5C 1225.51,1791.54 1224.51,1777.54 1224,1763.5C 1222.37,1723.51 1221.71,1683.51 1222,1643.5C 1223.36,1642.62 1224.86,1642.29 1226.5,1642.5C 1226.23,1697.24 1228.07,1751.91 1232,1806.5C 1234.12,1814.07 1237.78,1820.73 1243,1826.5C 1255.52,1838.17 1268.69,1849 1282.5,1859C 1298.5,1874.15 1310.66,1891.98 1319,1912.5C 1335.4,1953.54 1342.73,1996.21 1341,2040.5C 1341.39,2058.49 1350.22,2069.66 1367.5,2074C 1391.33,2074.9 1415,2073.23 1438.5,2069C 1469.47,2066.03 1500.47,2063.37 1531.5,2061C 1545.67,2059.34 1556.51,2052.5 1564,2040.5C 1568.5,2031.83 1572.17,2022.83 1575,2013.5C 1584.77,1965.99 1590.27,1917.99 1591.5,1869.5C 1590.95,1840.81 1589.78,1812.14 1588,1783.5C 1587.33,1766.17 1587.33,1748.83 1588,1731.5C 1591.5,1710.32 1595.84,1689.32 1601,1668.5C 1602.44,1659.52 1603.78,1650.52 1605,1641.5C 1606.42,1567.45 1605.25,1493.45 1601.5,1419.5 Z"/></g>
<g><path style="opacity:1" fill="#130c56" d="M 1265.5,1455.5 C 1266.61,1455.56 1267.61,1455.89 1268.5,1456.5C 1269.73,1458.01 1269.73,1459.51 1268.5,1461C 1259.05,1460.48 1250.05,1462.15 1241.5,1466C 1238.06,1473.58 1236.72,1481.58 1237.5,1490C 1238.42,1506.2 1239.25,1522.36 1240,1538.5C 1239.48,1541.87 1238.15,1544.87 1236,1547.5C 1231.63,1552.87 1226.96,1557.87 1222,1562.5C 1219.68,1561.59 1219.01,1559.92 1220,1557.5C 1226.15,1551.68 1231.15,1545.02 1235,1537.5C 1233.93,1521.02 1232.77,1504.52 1231.5,1488C 1229.87,1463.8 1241.2,1452.97 1265.5,1455.5 Z"/></g>
<g><path style="opacity:1" fill="#0f0550" d="M 475.5,1518.5 C 492.75,1520.8 510.083,1522.3 527.5,1523C 537.483,1524.06 547.15,1526.4 556.5,1530C 561.231,1532.96 563.064,1537.12 562,1542.5C 558.586,1549 554.919,1555.33 551,1561.5C 549.039,1564.14 546.539,1565.97 543.5,1567C 519.897,1567.36 496.564,1565.03 473.5,1560C 465.291,1557.56 457.291,1554.56 449.5,1551C 446.759,1547.37 446.926,1543.87 450,1540.5C 457.536,1531.78 466.036,1524.45 475.5,1518.5 Z"/></g>
<g><path style="opacity:1" fill="#f0aba1" d="M 1184.5,1538.5 C 1190.31,1537.65 1194.14,1539.99 1196,1545.5C 1200.06,1565.67 1202.4,1586 1203,1606.5C 1199.31,1613.85 1193.48,1618.69 1185.5,1621C 1173.32,1625.73 1160.98,1630.06 1148.5,1634C 1139.72,1635.22 1135.88,1631.38 1137,1622.5C 1150,1597.83 1163,1573.17 1176,1548.5C 1177.98,1544.36 1180.81,1541.03 1184.5,1538.5 Z"/></g>
<g><path style="opacity:1" fill="#0f0550" d="M 794.5,1548.5 C 832.573,1550.86 870.573,1554.03 908.5,1558C 920.532,1562.57 924.699,1571.07 921,1583.5C 916.619,1591.88 911.452,1599.71 905.5,1607C 899.388,1609.41 893.054,1610.08 886.5,1609C 865.848,1606.87 845.181,1604.87 824.5,1603C 813.381,1601.64 802.381,1599.64 791.5,1597C 784.377,1595.44 777.71,1592.77 771.5,1589C 764.336,1581.2 763.836,1573.03 770,1564.5C 776.523,1556.45 784.69,1551.11 794.5,1548.5 Z"/></g>
<g><path style="opacity:1" fill="#130b55" d="M 1327.5,1563.5 C 1327.5,1564.17 1327.83,1564.5 1328.5,1564.5C 1329.79,1580.38 1322.46,1588.54 1306.5,1589C 1286.68,1590.1 1267.35,1587.6 1248.5,1581.5C 1246.8,1581.9 1245.14,1582.4 1243.5,1583C 1237.57,1588.44 1231.57,1593.61 1225.5,1598.5C 1222.92,1598.25 1222.09,1596.92 1223,1594.5C 1228.9,1587.93 1235.4,1582.09 1242.5,1577C 1246.17,1576.33 1249.83,1576.33 1253.5,1577C 1273.38,1583.53 1293.71,1585.19 1314.5,1582C 1319.62,1579.95 1322.46,1576.11 1323,1570.5C 1323.5,1568.19 1323.66,1565.86 1323.5,1563.5C 1324.83,1563.5 1326.17,1563.5 1327.5,1563.5 Z"/></g>
<g><path style="opacity:1" fill="#ece1d5" d="M 1104.5,1578.5 C 1108.36,1580.27 1108.36,1582.44 1104.5,1585C 1050.49,1625.66 998.82,1669.33 949.5,1716C 945.176,1716.05 944.51,1714.38 947.5,1711C 997.386,1663.59 1049.72,1619.42 1104.5,1578.5 Z"/></g>
<g><path style="opacity:1" fill="#0f0651" d="M 1530.5,1602.5 C 1544.89,1602.07 1559.23,1602.57 1573.5,1604C 1580.5,1605.98 1584,1610.48 1584,1617.5C 1582.11,1621.06 1579.27,1623.56 1575.5,1625C 1553.19,1633.13 1530.19,1636.46 1506.5,1635C 1492.26,1629.81 1490.93,1622.48 1502.5,1613C 1511.35,1607.78 1520.68,1604.28 1530.5,1602.5 Z"/></g>
<g><path style="opacity:0.992" fill="#0f0550" d="M 2737.5,1677.5 C 2740.19,1698.19 2736.53,1717.69 2726.5,1736C 2724.61,1736.97 2722.61,1737.64 2720.5,1738C 2692.21,1740.36 2663.88,1742.03 2635.5,1743C 2634.5,1743.33 2633.5,1743.67 2632.5,1744C 2633.11,1750.5 2633.94,1757 2635,1763.5C 2637.52,1768.68 2641.69,1771.51 2647.5,1772C 2686.5,1772.68 2725.5,1772.51 2764.5,1771.5C 2775.93,1771.18 2787.26,1772.02 2798.5,1774C 2813.28,1778.78 2818.45,1788.62 2814,1803.5C 2808.37,1814.77 2799.21,1820.94 2786.5,1822C 2733.5,1823.63 2680.5,1823.63 2627.5,1822C 2614.07,1821.31 2600.74,1820.15 2587.5,1818.5C 2585.72,1779.29 2583.39,1739.96 2580.5,1700.5C 2632.78,1692.55 2685.12,1684.89 2737.5,1677.5 Z"/></g>
<g><path style="opacity:0.998" fill="#5f94d6" d="M 2580.5,1700.5 C 2583.39,1739.96 2585.72,1779.29 2587.5,1818.5C 2588.65,1862.83 2589.48,1907.17 2590,1951.5C 2589.76,1968.31 2586.09,1984.31 2579,1999.5C 2572.21,2010.95 2562.04,2016.29 2548.5,2015.5C 2523.16,2011.83 2497.83,2008.17 2472.5,2004.5C 2494.26,1943.28 2493.76,1882.28 2471,1821.5C 2436.93,1745.56 2380.09,1720.39 2300.5,1746C 2281.94,1751.78 2264.94,1760.45 2249.5,1772C 2224.06,1795.39 2204.39,1822.89 2190.5,1854.5C 2176.66,1854.83 2162.99,1854.5 2149.5,1853.5C 2151.96,1850.32 2152.96,1846.65 2152.5,1842.5C 2152.87,1827.16 2149.37,1812.83 2142,1799.5C 2141.1,1798.3 2139.93,1797.47 2138.5,1797C 2132.46,1796.43 2126.46,1796.76 2120.5,1798C 2065.91,1808.08 2011.24,1817.42 1956.5,1826C 1955.3,1825.1 1954.47,1823.93 1954,1822.5C 1953.17,1811.16 1952.33,1799.82 1951.5,1788.5C 1980.62,1783.61 2009.96,1779.11 2039.5,1775C 2219.89,1750.6 2400.22,1725.77 2580.5,1700.5 Z"/></g>
<g><path style="opacity:0.994" fill="#f1aba1" d="M 220.5,1705.5 C 226.525,1707.33 231.692,1710.66 236,1715.5C 243.248,1727.5 245.915,1740.5 244,1754.5C 240.222,1784.72 237.889,1815.05 237,1845.5C 234.232,1851.17 229.732,1853.01 223.5,1851C 210.722,1842.4 201.055,1831.23 194.5,1817.5C 188.833,1800.65 187,1783.31 189,1765.5C 191.162,1746.19 195.828,1727.52 203,1709.5C 207.887,1704.48 213.721,1703.15 220.5,1705.5 Z"/></g>
<g><path style="opacity:1" fill="#ebe1d5" d="M 277.5,1726.5 C 292.189,1726.35 306.855,1726.85 321.5,1728C 338.506,1730.53 355.506,1733.2 372.5,1736C 430.221,1739.63 487.888,1743.96 545.5,1749C 567.643,1751.8 589.643,1755.47 611.5,1760C 640.122,1765.78 651.955,1782.94 647,1811.5C 640.3,1833.9 630.633,1854.9 618,1874.5C 603.447,1894.02 584.281,1906.86 560.5,1913C 536.747,1917.9 512.747,1919.73 488.5,1918.5C 439.173,1919.82 390.839,1913.65 343.5,1900C 316.706,1891.51 290.372,1881.85 264.5,1871C 260.354,1868.2 257.854,1864.36 257,1859.5C 255.169,1825.82 255.169,1792.16 257,1758.5C 257.923,1748.05 261.756,1738.89 268.5,1731C 271.592,1729.45 274.592,1727.95 277.5,1726.5 Z"/></g>
<g><path style="opacity:1" fill="#5f95d7" d="M 281.5,1730.5 C 295.866,1730.71 310.2,1731.54 324.5,1733C 340.391,1736.22 356.391,1738.89 372.5,1741C 427.877,1744.45 483.211,1748.45 538.5,1753C 564.652,1756.37 590.652,1760.7 616.5,1766C 628.282,1768.79 636.782,1775.62 642,1786.5C 643.237,1790.06 643.737,1793.73 643.5,1797.5C 582.137,1800.02 520.804,1803.19 459.5,1807C 443.5,1807.67 427.5,1807.67 411.5,1807C 360.832,1796.06 311.166,1781.56 262.5,1763.5C 261.938,1754.74 263.771,1746.4 268,1738.5C 271.601,1734.12 276.101,1731.46 281.5,1730.5 Z"/></g>
<g><path style="opacity:0.998" fill="#0f0550" d="M 2472.5,2004.5 C 2445.8,2076.68 2393.97,2115.68 2317,2121.5C 2250.37,2117.37 2204.71,2084.37 2180,2022.5C 2173.63,2005.03 2169.8,1987.03 2168.5,1968.5C 2168.23,1956.8 2168.56,1945.13 2169.5,1933.5C 2145.5,1932.85 2121.5,1932.02 2097.5,1931C 2023.88,1925.95 1950.21,1921.79 1876.5,1918.5C 1875.95,1924.2 1875.29,1929.86 1874.5,1935.5C 1863.99,1988.85 1832.99,2024.35 1781.5,2042C 1734.92,2054.24 1691.58,2047.24 1651.5,2021C 1647.29,2017.29 1642.96,2013.79 1638.5,2010.5C 1642.52,1985.1 1645.19,1959.6 1646.5,1934C 1748.98,1924.41 1850.65,1909.41 1951.5,1889C 2014.13,1878.82 2076.46,1867.15 2138.5,1854C 2145.36,1852.94 2148.7,1848.94 2148.5,1842C 2147.61,1835.84 2146.78,1829.67 2146,1823.5C 2144.77,1815.12 2141.6,1807.62 2136.5,1801C 2077.69,1810.19 2019.02,1820.36 1960.5,1831.5C 1955.36,1831.52 1951.86,1829.19 1950,1824.5C 1947.95,1812.93 1947.12,1801.27 1947.5,1789.5C 1948.57,1788.57 1949.9,1788.23 1951.5,1788.5C 1952.33,1799.82 1953.17,1811.16 1954,1822.5C 1954.47,1823.93 1955.3,1825.1 1956.5,1826C 2011.24,1817.42 2065.91,1808.08 2120.5,1798C 2126.46,1796.76 2132.46,1796.43 2138.5,1797C 2139.93,1797.47 2141.1,1798.3 2142,1799.5C 2149.37,1812.83 2152.87,1827.16 2152.5,1842.5C 2152.96,1846.65 2151.96,1850.32 2149.5,1853.5C 2148.71,1853.78 2148.04,1854.28 2147.5,1855C 2162.01,1855.83 2176.34,1855.66 2190.5,1854.5C 2204.39,1822.89 2224.06,1795.39 2249.5,1772C 2264.94,1760.45 2281.94,1751.78 2300.5,1746C 2380.09,1720.39 2436.93,1745.56 2471,1821.5C 2493.76,1882.28 2494.26,1943.28 2472.5,2004.5 Z"/></g>
<g><path style="opacity:1" fill="#f1aba1" d="M 881.5,1737.5 C 892.172,1737.33 902.839,1737.5 913.5,1738C 923.625,1738.31 931.125,1742.81 936,1751.5C 936.574,1761.11 933.908,1769.78 928,1777.5C 909.741,1805.69 890.741,1833.35 871,1860.5C 864.54,1868.63 857.706,1876.46 850.5,1884C 838.384,1891.6 825.384,1897.26 811.5,1901C 764.374,1911.77 716.707,1916.77 668.5,1916C 652.568,1910.97 647.068,1900.47 652,1884.5C 660,1871.17 668,1857.83 676,1844.5C 680.257,1828.54 684.257,1812.54 688,1796.5C 693.489,1778.01 705.656,1766.84 724.5,1763C 734.425,1761.25 744.425,1760.25 754.5,1760C 796.866,1751.89 839.2,1744.39 881.5,1737.5 Z"/></g>
<g><path style="opacity:1" fill="#e6d8cd" d="M 2348.5,1767.5 C 2354.9,1767.24 2361.23,1767.74 2367.5,1769C 2368.38,1770.36 2368.71,1771.86 2368.5,1773.5C 2357.09,1771.23 2346.09,1772.4 2335.5,1777C 2315.05,1788.45 2298.88,1804.28 2287,1824.5C 2246.62,1892.84 2240.62,1964.17 2269,2038.5C 2275.63,2055.1 2284.29,2070.43 2295,2084.5C 2295.49,2085.79 2295.66,2087.13 2295.5,2088.5C 2293.86,2088.71 2292.36,2088.38 2291,2087.5C 2266.43,2053.15 2252.1,2014.82 2248,1972.5C 2242.12,1907.33 2259.45,1849.33 2300,1798.5C 2313.15,1783.19 2329.32,1772.86 2348.5,1767.5 Z"/></g>
<g><path style="opacity:1" fill="#5f95d6" d="M 260.5,1768.5 C 306.241,1784.35 352.575,1798.18 399.5,1810C 419.433,1812.4 439.433,1813.07 459.5,1812C 520.839,1808.53 582.173,1805.03 643.5,1801.5C 643.112,1808.72 641.612,1815.72 639,1822.5C 634.655,1834.19 629.489,1845.52 623.5,1856.5C 550.502,1857.67 477.502,1857.83 404.5,1857C 370.423,1853.64 337.756,1844.97 306.5,1831C 290.928,1824.55 275.595,1817.55 260.5,1810C 259.34,1796.23 259.34,1782.39 260.5,1768.5 Z"/></g>
<g><path style="opacity:1" fill="#110751" d="M 1910.5,1795.5 C 1911.5,1795.5 1912.5,1795.5 1913.5,1795.5C 1913.83,1795.5 1914.17,1795.5 1914.5,1795.5C 1914.5,1807.17 1914.5,1818.83 1914.5,1830.5C 1912.9,1830.23 1911.57,1830.57 1910.5,1831.5C 1893.73,1832.85 1877.06,1835.01 1860.5,1838C 1840.13,1839.56 1819.8,1841.39 1799.5,1843.5C 1798.5,1843.5 1797.5,1843.5 1796.5,1843.5C 1796.82,1838.64 1796.49,1833.97 1795.5,1829.5C 1795.5,1825.17 1795.5,1820.83 1795.5,1816.5C 1812.02,1813.73 1828.69,1811.07 1845.5,1808.5C 1850.21,1815.89 1854.54,1823.56 1858.5,1831.5C 1862.12,1832.66 1865.79,1832.83 1869.5,1832C 1883.12,1829.73 1896.78,1827.9 1910.5,1826.5C 1910.5,1816.17 1910.5,1805.83 1910.5,1795.5 Z"/></g>
<g><path style="opacity:1" fill="#6094d5" d="M 1910.5,1795.5 C 1910.5,1805.83 1910.5,1816.17 1910.5,1826.5C 1896.78,1827.9 1883.12,1829.73 1869.5,1832C 1865.79,1832.83 1862.12,1832.66 1858.5,1831.5C 1854.54,1823.56 1850.21,1815.89 1845.5,1808.5C 1867.02,1804.06 1888.69,1799.73 1910.5,1795.5 Z"/></g>
<g><path style="opacity:1" fill="#0f0550" d="M 1654.5,1814.5 C 1670.83,1816.33 1687.16,1818.16 1703.5,1820C 1718.5,1820.5 1733.5,1820.67 1748.5,1820.5C 1748.96,1831.79 1750.96,1842.79 1754.5,1853.5C 1734.85,1856.93 1715.18,1860.43 1695.5,1864C 1683.83,1864.9 1672.17,1865.73 1660.5,1866.5C 1657.5,1866.5 1654.5,1866.5 1651.5,1866.5C 1651.5,1864.5 1651.5,1862.5 1651.5,1860.5C 1652.5,1845.17 1653.5,1829.83 1654.5,1814.5 Z"/></g>
<g><path style="opacity:1" fill="#5f95d7" d="M 526.5,1862.5 C 557.167,1863.17 587.833,1863.83 618.5,1864.5C 605.64,1886.12 586.973,1900.29 562.5,1907C 550.72,1910.3 538.72,1912.3 526.5,1913C 486.388,1914.57 446.388,1913.24 406.5,1909C 356.888,1900.8 309.388,1885.96 264,1864.5C 263.333,1863.17 262.667,1861.83 262,1860.5C 260.917,1845.51 260.584,1830.51 261,1815.5C 299.299,1835.16 339.465,1849.66 381.5,1859C 389.118,1860.37 396.785,1861.37 404.5,1862C 445.165,1862.5 485.832,1862.67 526.5,1862.5 Z"/></g>
<g><path style="opacity:1" fill="#2a377f" d="M 1914.5,1795.5 C 1915.5,1807.32 1915.83,1819.32 1915.5,1831.5C 1913.83,1831.5 1912.17,1831.5 1910.5,1831.5C 1911.57,1830.57 1912.9,1830.23 1914.5,1830.5C 1914.5,1818.83 1914.5,1807.17 1914.5,1795.5 Z"/></g>
<g><path style="opacity:1" fill="#f3e5d4" d="M 2361.5,1837.5 C 2383.86,1835.27 2402.36,1842.6 2417,1859.5C 2438.77,1887.23 2446.43,1918.57 2440,1953.5C 2435.83,1979.38 2425.49,2002.38 2409,2022.5C 2388.93,2042.59 2367.09,2044.76 2343.5,2029C 2327.21,2014.61 2316.38,1996.78 2311,1975.5C 2304.72,1947.41 2305.05,1919.41 2312,1891.5C 2319.08,1864.59 2335.58,1846.59 2361.5,1837.5 Z"/></g>
<g><path style="opacity:1" fill="#33468d" d="M 1795.5,1829.5 C 1796.49,1833.97 1796.82,1838.64 1796.5,1843.5C 1797.5,1843.5 1798.5,1843.5 1799.5,1843.5C 1798.43,1844.43 1797.1,1844.77 1795.5,1844.5C 1795.5,1839.5 1795.5,1834.5 1795.5,1829.5 Z"/></g>
<g><path style="opacity:1" fill="#ebe1d5" d="M 236.5,1853.5 C 238.144,1853.29 239.644,1853.62 241,1854.5C 250.804,1878.31 266.971,1896.47 289.5,1909C 315.297,1922.28 342.63,1930.62 371.5,1934C 398.126,1937.3 424.793,1940.3 451.5,1943C 481.501,1944.99 511.501,1944.99 541.5,1943C 576.481,1939.56 608.815,1928.56 638.5,1910C 639.793,1909.51 641.127,1909.34 642.5,1909.5C 642.714,1911.14 642.38,1912.64 641.5,1914C 609.796,1934.12 575.13,1945.46 537.5,1948C 513.856,1949.54 490.19,1949.88 466.5,1949C 423.911,1945.55 381.578,1940.22 339.5,1933C 304.987,1925.67 275.821,1909.17 252,1883.5C 244.845,1874.52 239.679,1864.52 236.5,1853.5 Z"/></g>
<g><path style="opacity:1" fill="#ebe0d5" d="M 1554.5,1853.5 C 1560.18,1853.33 1565.84,1853.5 1571.5,1854C 1572.83,1855.33 1572.83,1856.67 1571.5,1858C 1488.23,1862.96 1404.89,1866.46 1321.5,1868.5C 1321.29,1866.86 1321.62,1865.36 1322.5,1864C 1400.05,1861.96 1477.39,1858.46 1554.5,1853.5 Z"/></g>
<g><path style="opacity:1" fill="#4363a8" d="M 2149.5,1853.5 C 2162.99,1854.5 2176.66,1854.83 2190.5,1854.5C 2176.34,1855.66 2162.01,1855.83 2147.5,1855C 2148.04,1854.28 2148.71,1853.78 2149.5,1853.5 Z"/></g>
<g><path style="opacity:1" fill="#83a9d6" d="M 526.5,1862.5 C 557.507,1862.17 588.507,1862.5 619.5,1863.5C 619.376,1864.11 619.043,1864.44 618.5,1864.5C 587.833,1863.83 557.167,1863.17 526.5,1862.5 Z"/></g>
<g><path style="opacity:1" fill="#3a5399" d="M 1651.5,1860.5 C 1651.5,1862.5 1651.5,1864.5 1651.5,1866.5C 1654.5,1866.5 1657.5,1866.5 1660.5,1866.5C 1657.38,1867.48 1654.04,1867.81 1650.5,1867.5C 1650.2,1864.94 1650.53,1862.61 1651.5,1860.5 Z"/></g>
<g><path style="opacity:0.998" fill="#0f0550" d="M 1302.5,2067.5 C 1304.01,2144.13 1282.17,2213.13 1237,2274.5C 1196.3,2326.08 1143.14,2347.58 1077.5,2339C 1024.35,2332.01 979.846,2308.84 944,2269.5C 928.496,2248.35 918.829,2224.68 915,2198.5C 912.098,2182.95 910.265,2167.29 909.5,2151.5C 920.844,2147.33 929.677,2140 936,2129.5C 946.182,2104.96 955.182,2079.96 963,2054.5C 973.299,2024.26 986.299,1995.26 1002,1967.5C 1046.65,1893.27 1111.48,1865.1 1196.5,1883C 1226.48,1891.41 1248.98,1909.24 1264,1936.5C 1285.37,1977.62 1298.2,2021.29 1302.5,2067.5 Z"/></g>
<g><path style="opacity:1" fill="#ebe1d5" d="M 853.5,1892.5 C 854.873,1892.34 856.207,1892.51 857.5,1893C 873.914,1907.37 892.914,1916.71 914.5,1921C 923.101,1922.77 931.768,1924.1 940.5,1925C 967.17,1926.62 993.837,1928.28 1020.5,1930C 1021.83,1931 1021.83,1932 1020.5,1933C 983.563,1933.85 946.896,1931.18 910.5,1925C 889.185,1920.51 870.518,1911.01 854.5,1896.5C 853.571,1895.31 853.238,1893.98 853.5,1892.5 Z"/></g>
<g><path style="opacity:1" fill="#e4d6cc" d="M 1134.5,1907.5 C 1168.38,1904.13 1199.04,1912.3 1226.5,1932C 1232.33,1937.17 1237.83,1942.67 1243,1948.5C 1243.67,1949.83 1243.67,1951.17 1243,1952.5C 1242.28,1953.45 1241.45,1953.62 1240.5,1953C 1221.96,1930.85 1198.3,1917.51 1169.5,1913C 1110.27,1908.53 1065.44,1931.7 1035,1982.5C 1016.32,2017.56 1005.32,2054.89 1002,2094.5C 998.513,2131.56 1000.85,2168.23 1009,2204.5C 1019.36,2242.75 1039.86,2274.25 1070.5,2299C 1078.68,2304.59 1087.35,2309.43 1096.5,2313.5C 1097.43,2314.69 1097.76,2316.02 1097.5,2317.5C 1089.62,2315.73 1082.29,2312.56 1075.5,2308C 1038.06,2281.83 1013.9,2246.33 1003,2201.5C 989.054,2133.13 994.72,2066.47 1020,2001.5C 1032.87,1970.3 1053.37,1945.47 1081.5,1927C 1098.08,1917.2 1115.74,1910.7 1134.5,1907.5 Z"/></g>
<g><path style="opacity:1" fill="#eae0d5" d="M 202.5,1914.5 C 211.011,1917.91 219.678,1921.08 228.5,1924C 239.954,1927.19 251.621,1929.19 263.5,1930C 265.592,1930.95 265.925,1932.29 264.5,1934C 243.001,1933.88 222.667,1928.88 203.5,1919C 201.452,1917.77 201.119,1916.27 202.5,1914.5 Z"/></g>
<g><path style="opacity:0.989" fill="#5e94d6" d="M 2168.5,1968.5 C 2103.35,1961.56 2038.35,1953.4 1973.5,1944C 1940.53,1940.73 1907.53,1937.9 1874.5,1935.5C 1875.29,1929.86 1875.95,1924.2 1876.5,1918.5C 1950.21,1921.79 2023.88,1925.95 2097.5,1931C 2121.5,1932.02 2145.5,1932.85 2169.5,1933.5C 2168.56,1945.13 2168.23,1956.8 2168.5,1968.5 Z"/></g>
<g><path style="opacity:1" fill="#130c56" d="M 288.5,1955.5 C 344.176,1958.85 399.843,1962.35 455.5,1966C 482.986,1967.48 509.986,1971.81 536.5,1979C 543.404,1981.45 550.07,1984.45 556.5,1988C 572.079,2000.08 572.413,2012.74 557.5,2026C 544.846,2033.41 531.18,2036.24 516.5,2034.5C 493.982,2034.3 471.648,2032.14 449.5,2028C 401.343,2024.61 353.676,2017.95 306.5,2008C 296.669,2004.81 288.503,1999.31 282,1991.5C 277.63,1983.69 275.963,1975.36 277,1966.5C 278.815,1960.51 282.648,1956.85 288.5,1955.5 Z"/></g>
<g><path style="opacity:1" fill="#eae0d5" d="M 1542.5,1956.5 C 1546.17,1956.5 1549.83,1956.5 1553.5,1956.5C 1553.7,1958.39 1553.04,1959.89 1551.5,1961C 1490.61,1966.12 1429.61,1968.62 1368.5,1968.5C 1368.29,1966.86 1368.62,1965.36 1369.5,1964C 1427.42,1963.73 1485.09,1961.23 1542.5,1956.5 Z"/></g>
<g><path style="opacity:1" fill="#5d92d4" d="M 287.5,1960.5 C 297.167,1960.5 306.833,1960.5 316.5,1960.5C 318.265,1975.61 317.598,1990.61 314.5,2005.5C 306.295,2003.06 298.628,1999.56 291.5,1995C 283.14,1987.25 279.973,1977.75 282,1966.5C 283.36,1963.98 285.193,1961.98 287.5,1960.5 Z"/></g>
<g><path style="opacity:1" fill="#5d92d5" d="M 321.5,1962.5 C 333.533,1962.68 345.533,1963.35 357.5,1964.5C 357.657,1980.51 357.324,1996.51 356.5,2012.5C 344.736,2011.04 333.07,2009.04 321.5,2006.5C 321.248,1991.87 321.248,1977.2 321.5,1962.5 Z"/></g>
<g><path style="opacity:1" fill="#5e93d5" d="M 362.5,1964.5 C 376.522,1965.75 390.522,1967.08 404.5,1968.5C 405.551,1985.19 405.217,2001.85 403.5,2018.5C 389.451,2017.31 375.451,2015.65 361.5,2013.5C 362.206,1997.18 362.539,1980.84 362.5,1964.5 Z"/></g>
<g><path style="opacity:1" fill="#ebe1d5" d="M 637.5,1966.5 C 655.305,1972.82 673.639,1976.99 692.5,1979C 761.482,1980.81 830.482,1981.81 899.5,1982C 901.394,1983.08 901.727,1984.41 900.5,1986C 832.158,1986.35 763.825,1985.69 695.5,1984C 675.501,1982.45 656.168,1978.11 637.5,1971C 636.272,1969.51 636.272,1968.01 637.5,1966.5 Z"/></g>
<g><path style="opacity:1" fill="#5e93d5" d="M 410.5,1968.5 C 423.154,1969.39 435.821,1970.05 448.5,1970.5C 447.573,1987.82 446.906,2005.15 446.5,2022.5C 433.374,2022.1 420.374,2020.77 407.5,2018.5C 409.164,2001.9 410.164,1985.23 410.5,1968.5 Z"/></g>
<g><path style="opacity:1" fill="#5e93d5" d="M 453.5,1971.5 C 464.19,1971.84 474.856,1972.5 485.5,1973.5C 484.872,1991.5 484.206,2009.5 483.5,2027.5C 472.491,2026.29 461.491,2024.95 450.5,2023.5C 451.578,2006.17 452.578,1988.84 453.5,1971.5 Z"/></g>
<g><path style="opacity:1" fill="#5d92d4" d="M 490.5,1974.5 C 502.646,1975.68 514.646,1977.68 526.5,1980.5C 526.425,1997.17 526.091,2013.84 525.5,2030.5C 513.12,2030.6 500.787,2029.93 488.5,2028.5C 488.723,2010.48 489.39,1992.48 490.5,1974.5 Z"/></g>
<g><path style="opacity:1" fill="#5d92d4" d="M 530.5,1982.5 C 542.292,1984.81 552.458,1990.15 561,1998.5C 565.337,2009.3 562.504,2017.8 552.5,2024C 545.686,2027.86 538.353,2029.69 530.5,2029.5C 530.5,2013.83 530.5,1998.17 530.5,1982.5 Z"/></g>
<g><path style="opacity:1" fill="#f3e5d4" d="M 1147.5,2004.5 C 1166.45,2003.46 1184.45,2006.96 1201.5,2015C 1206.95,2018.12 1211.45,2022.29 1215,2027.5C 1235.58,2079.68 1236.91,2132.35 1219,2185.5C 1208.88,2213.27 1190.72,2233.77 1164.5,2247C 1114.76,2262.55 1082.6,2245.38 1068,2195.5C 1053.02,2140.35 1061.69,2089.35 1094,2042.5C 1104.72,2028.45 1117.88,2017.28 1133.5,2009C 1138.25,2007.36 1142.92,2005.86 1147.5,2004.5 Z"/></g>
<g><path style="opacity:1" fill="#ece1d5" d="M 212.5,2040.5 C 223.427,2043.32 234.427,2045.82 245.5,2048C 410.796,2072.14 576.796,2090.14 743.5,2102C 809.075,2106.9 874.741,2109.56 940.5,2110C 941.337,2111.01 941.67,2112.18 941.5,2113.5C 884.779,2114.57 828.112,2113.07 771.5,2109C 605.503,2098.07 440.17,2081.07 275.5,2058C 254.985,2054.9 234.651,2050.9 214.5,2046C 211.541,2044.95 210.874,2043.12 212.5,2040.5 Z"/></g>
<g><path style="opacity:0.996" fill="#0f0550" d="M 332.5,2099.5 C 348.531,2099.67 364.531,2100.5 380.5,2102C 437.333,2110.04 493.999,2119.04 550.5,2129C 585.342,2133 620.009,2137.17 654.5,2141.5C 649.961,2158.52 641.794,2173.52 630,2186.5C 564.267,2255.39 490.1,2265.89 407.5,2218C 372.974,2194.45 348.474,2162.95 334,2123.5C 331.617,2115.58 331.117,2107.58 332.5,2099.5 Z"/></g>
</svg>
