<?xml version="1.0" encoding="UTF-8"?>
<!DOCTYPE svg PUBLIC "-//W3C//DTD SVG 1.1//EN" "http://www.w3.org/Graphics/SVG/1.1/DTD/svg11.dtd">
<svg xmlns="http://www.w3.org/2000/svg" version="1.1" width="3000px" height="3000px" style="shape-rendering:geometricPrecision; text-rendering:geometricPrecision; image-rendering:optimizeQuality; fill-rule:evenodd; clip-rule:evenodd" xmlns:xlink="http://www.w3.org/1999/xlink">
<g><path style="opacity:0.992" fill="#fabb7b" d="M 2046.5,421.5 C 1993.45,421.792 1940.45,423.625 1887.5,427C 1858.4,429.685 1829.73,434.185 1801.5,440.5C 1791.13,440.776 1780.8,441.443 1770.5,442.5C 1766.69,442.012 1763.52,440.345 1761,437.5C 1758.52,429.564 1758.19,421.564 1760,413.5C 1772.14,401.076 1786.98,395.909 1804.5,398C 1840.6,390.781 1876.93,385.114 1913.5,381C 1946.47,379.069 1979.47,378.236 2012.5,378.5C 2033.54,378.362 2054.54,378.862 2075.5,380C 2081.62,382.451 2085.12,386.951 2086,393.5C 2087.18,401.147 2086.18,408.48 2083,415.5C 2080.14,418.515 2076.64,420.349 2072.5,421C 2063.84,421.5 2055.17,421.666 2046.5,421.5 Z"/></g>
<g><path style="opacity:0.999" fill="#cdedeb" d="M 2046.5,421.5 C 2054.46,447.224 2059.62,473.557 2062,500.5C 2065.16,533.085 2066.33,565.752 2065.5,598.5C 2058.16,598.872 2050.83,599.372 2043.5,600C 1956.83,600.5 1870.17,600.667 1783.5,600.5C 1789.57,547.173 1795.57,493.84 1801.5,440.5C 1829.73,434.185 1858.4,429.685 1887.5,427C 1940.45,423.625 1993.45,421.792 2046.5,421.5 Z"/></g>
<g><path style="opacity:0.999" fill="#7ed3cc" d="M 2591.5,1621.5 C 2568.16,1621.59 2544.83,1621.92 2521.5,1622.5C 2517.27,1867.18 2517.77,2111.84 2523,2356.5C 2525.83,2443.51 2529,2530.51 2532.5,2617.5C 2530.5,2617.5 2528.5,2617.5 2526.5,2617.5C 2524.22,2530.14 2521.39,2442.81 2518,2355.5C 2517.67,2321.83 2517.33,2288.17 2517,2254.5C 2514.22,2207.19 2513.72,2159.86 2515.5,2112.5C 2513.12,2045.86 2512.12,1979.19 2512.5,1912.5C 2513.95,1816.18 2514.61,1719.84 2514.5,1623.5C 2486.17,1623.5 2457.83,1623.5 2429.5,1623.5C 2446.03,1801.62 2459.53,1979.95 2470,2158.5C 2473.34,2248.19 2477,2337.85 2481,2427.5C 2482.88,2490.82 2484.05,2554.15 2484.5,2617.5C 2482.83,2617.5 2481.17,2617.5 2479.5,2617.5C 2476.94,2460.41 2471.77,2303.41 2464,2146.5C 2460.2,2089.15 2456.2,2031.82 2452,1974.5C 2451.55,1958.82 2450.88,1943.16 2450,1927.5C 2442.01,1825.79 2433.51,1724.12 2424.5,1622.5C 2394.5,1622.5 2364.5,1622.5 2334.5,1622.5C 2334.41,1654.86 2335.24,1687.19 2337,1719.5C 2340.06,1771.19 2343.39,1822.86 2347,1874.5C 2357,1983.17 2367,2091.83 2377,2200.5C 2379.17,2238.57 2382.17,2276.57 2386,2314.5C 2393.28,2415.37 2396.11,2516.37 2394.5,2617.5C 2392.88,2618.04 2391.22,2618.37 2389.5,2618.5C 2390.38,2530.42 2388.21,2442.42 2383,2354.5C 2378.59,2286.43 2373.26,2218.43 2367,2150.5C 2363.67,2118.51 2360.33,2086.51 2357,2054.5C 2352.08,1996.82 2347.08,1939.15 2342,1881.5C 2340.84,1850.07 2338.5,1818.74 2335,1787.5C 2332.71,1737.86 2331.05,1688.19 2330,1638.5C 2329.49,1633.1 2328.65,1627.77 2327.5,1622.5C 2306.83,1622.5 2286.17,1622.5 2265.5,1622.5C 2269.06,1657.08 2271.56,1691.75 2273,1726.5C 2274.4,1738.16 2275.73,1749.82 2277,1761.5C 2277.9,1789.21 2279.4,1816.87 2281.5,1844.5C 2279.83,1844.5 2278.17,1844.5 2276.5,1844.5C 2271.55,1769.79 2266.22,1695.12 2260.5,1620.5C 2239.17,1620.5 2217.83,1620.5 2196.5,1620.5C 2198.62,1649.57 2201.45,1678.57 2205,1707.5C 2208.23,1753.18 2211.39,1798.84 2214.5,1844.5C 2213.17,1844.5 2211.83,1844.5 2210.5,1844.5C 2204.61,1769.84 2198.28,1695.17 2191.5,1620.5C 2170.17,1620.5 2148.83,1620.5 2127.5,1620.5C 2127.75,1654.85 2128.59,1689.18 2130,1723.5C 2133.48,1763.46 2136.31,1803.46 2138.5,1843.5C 2136.83,1843.5 2135.17,1843.5 2133.5,1843.5C 2129.7,1791.86 2126.2,1740.2 2123,1688.5C 2122.5,1665.84 2122.33,1643.17 2122.5,1620.5C 2119.19,1619.96 2115.85,1619.46 2112.5,1619C 2088.84,1618.5 2065.17,1618.33 2041.5,1618.5C 2043.46,1692.83 2045.79,1767.17 2048.5,1841.5C 2046.83,1841.5 2045.17,1841.5 2043.5,1841.5C 2041.99,1785.83 2040.15,1730.17 2038,1674.5C 2037.5,1655.84 2037.33,1637.17 2037.5,1618.5C 2024.47,1618.7 2011.47,1618.2 1998.5,1617C 1985.92,1614.51 1973.25,1612.68 1960.5,1611.5C 1960.33,1622.84 1960.5,1634.17 1961,1645.5C 1964.64,1701.17 1968.31,1756.83 1972,1812.5C 1972.5,1824.83 1972.67,1837.16 1972.5,1849.5C 1971.83,1856.5 1971.17,1863.5 1970.5,1870.5C 1969.37,1867.37 1968.53,1864.04 1968,1860.5C 1966.28,1808.09 1963.28,1755.76 1959,1703.5C 1958.07,1672.47 1956.57,1641.47 1954.5,1610.5C 1933.58,1607.19 1912.58,1605.53 1891.5,1605.5C 1882.46,1648.69 1877.79,1692.36 1877.5,1736.5C 1878.13,1777.31 1880.97,1817.98 1886,1858.5C 1894.7,1926.69 1904.7,1994.69 1916,2062.5C 1924.98,2134.98 1931.98,2207.65 1937,2280.5C 1937.96,2309.49 1938.63,2338.49 1939,2367.5C 1939.96,2379.84 1940.96,2392.17 1942,2404.5C 1942.74,2473.84 1943.57,2543.17 1944.5,2612.5C 1942.17,2612.5 1939.83,2612.5 1937.5,2612.5C 1938.56,2509.11 1937.06,2405.78 1933,2302.5C 1929.68,2272.59 1927.68,2242.59 1927,2212.5C 1923.05,2173.5 1919.05,2134.5 1915,2095.5C 1905.89,2029.75 1896.23,1964.08 1886,1898.5C 1880.35,1862.01 1876.35,1825.34 1874,1788.5C 1873.33,1753.83 1873.33,1719.17 1874,1684.5C 1877.36,1657.81 1880.86,1631.14 1884.5,1604.5C 1868.56,1602.3 1852.56,1601.97 1836.5,1603.5C 1836.18,1661.18 1837.01,1718.85 1839,1776.5C 1842.25,1813.79 1844.92,1851.12 1847,1888.5C 1853.67,1958.49 1860.33,2028.49 1867,2098.5C 1874.83,2195.67 1879,2293 1879.5,2390.5C 1879.69,2463.87 1878.36,2537.2 1875.5,2610.5C 1873.17,2610.5 1870.83,2610.5 1868.5,2610.5C 1871.26,2551.53 1873.42,2492.53 1875,2433.5C 1876.14,2359.1 1874.48,2284.76 1870,2210.5C 1861.16,2101.76 1851.49,1993.09 1841,1884.5C 1839.92,1853.77 1837.92,1823.11 1835,1792.5C 1834.89,1770.79 1833.89,1749.12 1832,1727.5C 1831.5,1686.5 1831.33,1645.5 1831.5,1604.5C 1807.16,1604.88 1782.82,1605.54 1758.5,1606.5C 1758.33,1611.84 1758.5,1617.18 1759,1622.5C 1769.87,1702.26 1778.54,1782.26 1785,1862.5C 1789.75,1968.12 1790.75,2073.79 1788,2179.5C 1783.26,2242.85 1778.26,2306.18 1773,2369.5C 1763.89,2434.88 1757.89,2500.55 1755,2566.5C 1754.34,2568.32 1753.17,2569.66 1751.5,2570.5C 1750.5,2555.68 1750.17,2540.68 1750.5,2525.5C 1759.49,2444.23 1767.99,2362.89 1776,2281.5C 1777.96,2246.14 1780.3,2210.81 1783,2175.5C 1783.02,2134.96 1784.19,2094.46 1786.5,2054C 1785.61,1996.8 1783.77,1939.63 1781,1882.5C 1776.84,1834.85 1772.84,1787.19 1769,1739.5C 1763.77,1695.41 1757.94,1651.41 1751.5,1607.5C 1713.82,1608.54 1676.15,1609.87 1638.5,1611.5C 1639.72,1688.41 1644.72,1765.08 1653.5,1841.5C 1651.5,1841.5 1649.5,1841.5 1647.5,1841.5C 1639.16,1765.05 1634.49,1688.39 1633.5,1611.5C 1611.93,1612.18 1590.43,1613.18 1569,1614.5C 1567.98,1673.85 1568.65,1733.19 1571,1792.5C 1571.96,1807.68 1573.13,1822.85 1574.5,1838C 1574.95,1841.29 1573.62,1843.13 1570.5,1843.5C 1568.65,1815.89 1566.81,1788.23 1565,1760.5C 1564.79,1723.98 1563.96,1687.48 1562.5,1651C 1562.69,1639.16 1563.03,1627.33 1563.5,1615.5C 1527.16,1616.25 1490.82,1617.42 1454.5,1619C 1452.57,1619.25 1450.73,1619.75 1449,1620.5C 1449.04,1656.5 1449.7,1692.5 1451,1728.5C 1455.11,1767.08 1457.95,1805.74 1459.5,1844.5C 1458.17,1844.5 1456.83,1844.5 1455.5,1844.5C 1447.4,1770.05 1443.74,1695.39 1444.5,1620.5C 1423.59,1620.17 1402.76,1620.51 1382,1621.5C 1379.75,1698.88 1376.58,1776.22 1372.5,1853.5C 1371.17,1853.5 1369.83,1853.5 1368.5,1853.5C 1368.81,1810.81 1369.98,1768.15 1372,1725.5C 1373.82,1690.5 1375.65,1655.5 1377.5,1620.5C 1338.86,1622.34 1300.2,1623.34 1261.5,1623.5C 1260.13,1636.12 1259.47,1648.79 1259.5,1661.5C 1260.03,1690.86 1261.2,1720.19 1263,1749.5C 1266.96,1789.53 1271.12,1829.53 1275.5,1869.5C 1273.83,1869.5 1272.17,1869.5 1270.5,1869.5C 1259.78,1788.53 1254.45,1707.2 1254.5,1625.5C 1229.83,1625.5 1205.17,1625.5 1180.5,1625.5C 1180.33,1631.18 1180.5,1636.84 1181,1642.5C 1188.48,1692.89 1191.82,1743.56 1191,1794.5C 1192.28,1817.5 1193.62,1840.5 1195,1863.5C 1194.72,1931.83 1194.06,2000.17 1193,2068.5C 1190,2145.15 1187.67,2221.81 1186,2298.5C 1183.76,2396.62 1185.93,2494.62 1192.5,2592.5C 1190.83,2592.5 1189.17,2592.5 1187.5,2592.5C 1186.03,2558.15 1184.2,2523.82 1182,2489.5C 1181.65,2428 1181.15,2366.5 1180.5,2305C 1181.75,2261.18 1182.58,2217.34 1183,2173.5C 1184.81,2128.51 1186.48,2083.51 1188,2038.5C 1188.67,1963.83 1188.67,1889.17 1188,1814.5C 1187.18,1784.15 1185.84,1753.81 1184,1723.5C 1180.63,1691.51 1177.47,1659.51 1174.5,1627.5C 1135.83,1627.73 1097.16,1628.39 1058.5,1629.5C 1065.68,1676.59 1073.51,1723.59 1082,1770.5C 1098.86,1882.4 1111.86,1994.74 1121,2107.5C 1123.37,2147.83 1125.71,2188.16 1128,2228.5C 1129.06,2274.83 1129.73,2321.16 1130,2367.5C 1131.28,2380.97 1132.11,2394.47 1132.5,2408C 1131.19,2469.51 1129.53,2531.01 1127.5,2592.5C 1126.17,2592.5 1124.83,2592.5 1123.5,2592.5C 1122.31,2562.81 1122.81,2533.15 1125,2503.5C 1131.88,2209.84 1107.38,1918.84 1051.5,1630.5C 1030.14,1630.7 1008.81,1631.37 987.5,1632.5C 989.445,1680.17 992.278,1727.84 996,1775.5C 996.953,1798.5 997.787,1821.5 998.5,1844.5C 996.847,1844.34 995.514,1843.67 994.5,1842.5C 990.118,1772.48 985.451,1702.48 980.5,1632.5C 964.833,1632.5 949.167,1632.5 933.5,1632.5C 933.337,1649.21 934.171,1665.88 936,1682.5C 940.895,1735.58 946.395,1788.58 952.5,1841.5C 950.833,1841.5 949.167,1841.5 947.5,1841.5C 944.13,1808.47 940.297,1775.47 936,1742.5C 932.57,1705.87 929.737,1669.2 927.5,1632.5C 906.5,1632.5 885.5,1632.5 864.5,1632.5C 864.008,1671.19 862.841,1709.85 861,1748.5C 860.5,1778.16 860.333,1807.83 860.5,1837.5C 858.833,1837.5 857.167,1837.5 855.5,1837.5C 854.957,1769.12 856.291,1700.79 859.5,1632.5C 825.165,1632.33 790.832,1632.5 756.5,1633C 754.899,1633.27 753.399,1633.77 752,1634.5C 751.333,1664.17 751.333,1693.83 752,1723.5C 754.045,1763.91 756.878,1804.24 760.5,1844.5C 759.167,1844.5 757.833,1844.5 756.5,1844.5C 754.178,1813.12 751.345,1781.79 748,1750.5C 747.914,1727.96 747.081,1705.46 745.5,1683C 747.05,1666.87 747.717,1650.71 747.5,1634.5C 727.4,1635.51 707.4,1637.51 687.5,1640.5C 688.086,1709.19 689.419,1777.86 691.5,1846.5C 690.167,1846.5 688.833,1846.5 687.5,1846.5C 686.004,1778.13 683.671,1709.8 680.5,1641.5C 659.78,1643.01 639.113,1645.17 618.5,1648C 617.695,1652.75 617.195,1657.58 617,1662.5C 615.407,1739.49 615.074,1816.49 616,1893.5C 618.402,1965.48 620.402,2037.48 622,2109.5C 622.921,2116.48 623.588,2123.48 624,2130.5C 627.398,2245.47 628.398,2360.47 627,2475.5C 624.68,2515.17 622.513,2554.84 620.5,2594.5C 618.228,2595.32 615.894,2595.99 613.5,2596.5C 614.382,2581.48 615.549,2566.48 617,2551.5C 617.825,2510.13 619.492,2468.8 622,2427.5C 622.667,2354.5 622.667,2281.5 622,2208.5C 618.189,2113.52 614.856,2018.52 612,1923.5C 611.667,1886.17 611.333,1848.83 611,1811.5C 610.001,1800.51 609.168,1789.51 608.5,1778.5C 609.243,1767.49 610.076,1756.49 611,1745.5C 611.5,1713.17 611.667,1680.84 611.5,1648.5C 576.267,1652.45 540.934,1655.45 505.5,1657.5C 506.303,1670.16 507.136,1682.83 508,1695.5C 522.798,1818.02 536.132,1940.68 548,2063.5C 551.857,2118.12 552.524,2172.79 550,2227.5C 547.196,2270.87 543.863,2314.21 540,2357.5C 538.484,2437.23 539.984,2516.9 544.5,2596.5C 542.833,2596.5 541.167,2596.5 539.5,2596.5C 536.395,2539.37 534.062,2482.21 532.5,2425C 532.932,2389.48 534.098,2353.98 536,2318.5C 539.996,2278.89 543.329,2239.22 546,2199.5C 547.541,2152.74 546.208,2106.08 542,2059.5C 530.139,1946.78 517.806,1834.11 505,1721.5C 503.334,1700.51 501.834,1679.51 500.5,1658.5C 482.83,1658.33 465.164,1658.5 447.5,1659C 446.718,1661.74 446.218,1664.57 446,1667.5C 443.171,1929.18 439.837,2190.85 436,2452.5C 434.161,2501.31 432.994,2549.98 432.5,2598.5C 430.205,2597.53 428.205,2596.19 426.5,2594.5C 426.835,2589.82 427.335,2585.16 428,2580.5C 430,2372.16 432.334,2163.82 435,1955.5C 435.781,1937.84 436.448,1920.17 437,1902.5C 437.124,1821.15 438.291,1739.81 440.5,1658.5C 429.449,1658.46 418.449,1659.13 407.5,1660.5C 384.966,1661.5 362.466,1662.84 340,1664.5C 332.682,1663.11 325.348,1662.78 318,1663.5C 305.767,1662.6 301.434,1656.26 305,1644.5C 310.688,1619.08 317.021,1593.75 324,1568.5C 341.401,1515.96 359.401,1463.63 378,1411.5C 395.928,1346.38 414.261,1281.38 433,1216.5C 471.743,1091.94 513.076,968.272 557,845.5C 576.838,794.825 597.504,744.491 619,694.5C 626.112,674.494 633.612,654.661 641.5,635C 643.087,634.138 644.754,633.471 646.5,633C 651.5,632.667 656.5,632.333 661.5,632C 694.882,631.215 728.215,629.548 761.5,627C 847.255,627.1 932.922,624.434 1018.5,619C 1030.19,617.913 1041.86,616.58 1053.5,615C 1233.18,611.536 1412.84,607.536 1592.5,603C 1656.16,601.952 1719.83,601.118 1783.5,600.5C 1870.17,600.667 1956.83,600.5 2043.5,600C 2050.83,599.372 2058.16,598.872 2065.5,598.5C 2134.52,597.005 2203.52,596.172 2272.5,596C 2275.54,597.031 2278.04,598.865 2280,601.5C 2290.51,619.178 2300.51,637.178 2310,655.5C 2327.72,701.279 2345.72,746.945 2364,792.5C 2395.28,864.05 2426.28,935.717 2457,1007.5C 2481.32,1058.13 2503.98,1109.46 2525,1161.5C 2558.57,1241.53 2590.57,1322.2 2621,1403.5C 2646.66,1462.15 2670.66,1521.49 2693,1581.5C 2695.27,1589.48 2697.44,1597.48 2699.5,1605.5C 2697.09,1614.62 2691.25,1618.29 2682,1616.5C 2651.88,1618.76 2621.71,1620.42 2591.5,1621.5 Z"/></g>
<g><path style="opacity:1" fill="#f9bb7b" d="M 1809.5,1232.5 C 1801.92,1233.83 1794.25,1234.83 1786.5,1235.5C 1768.72,1237.46 1750.89,1238.79 1733,1239.5C 1692.17,1238.02 1651.34,1236.69 1610.5,1235.5C 1606.83,1235.5 1603.17,1235.5 1599.5,1235.5C 1598.79,1234.6 1597.79,1234.26 1596.5,1234.5C 1569.42,1232.98 1542.42,1233.82 1515.5,1237C 1459.17,1238.32 1402.84,1239.15 1346.5,1239.5C 1342.17,1239.5 1337.83,1239.5 1333.5,1239.5C 1304.84,1238.44 1276.18,1238.27 1247.5,1239C 1208.42,1243.04 1169.42,1246.54 1130.5,1249.5C 1124.17,1249.5 1117.83,1249.5 1111.5,1249.5C 1107.44,1249.52 1103.44,1249.02 1099.5,1248C 1097.46,1246.76 1096.29,1244.92 1096,1242.5C 1095.24,1232.46 1095.58,1222.46 1097,1212.5C 1097.93,1209.9 1099.77,1208.4 1102.5,1208C 1141.67,1205.23 1180.67,1200.9 1219.5,1195C 1269.13,1192.23 1318.79,1190.89 1368.5,1191C 1401.56,1189.51 1434.56,1187.17 1467.5,1184C 1508.71,1178.35 1550.04,1174.02 1591.5,1171C 1629.5,1170.67 1667.5,1170.33 1705.5,1170C 1710.49,1169.39 1715.49,1168.89 1720.5,1168.5C 1755.49,1171.07 1790.49,1173.24 1825.5,1175C 1830.84,1177.01 1834,1180.84 1835,1186.5C 1835.67,1198.17 1835.67,1209.83 1835,1221.5C 1834.71,1223.93 1833.54,1225.76 1831.5,1227C 1824.08,1228.52 1816.74,1230.36 1809.5,1232.5 Z"/></g>
<g><path style="opacity:1" fill="#f9bb7b" d="M 980.5,1219.5 C 972.506,1218.77 964.506,1218.11 956.5,1217.5C 921.169,1218.63 885.836,1218.63 850.5,1217.5C 828.833,1216.17 807.167,1216.17 785.5,1217.5C 749.699,1219.48 714.033,1222.48 678.5,1226.5C 669.811,1226.9 661.144,1227.57 652.5,1228.5C 647.215,1227.76 641.882,1227.26 636.5,1227C 635.069,1226.53 633.903,1225.7 633,1224.5C 627.947,1209.12 632.78,1198.28 647.5,1192C 681.928,1183.01 716.928,1177.51 752.5,1175.5C 769.861,1176.26 787.195,1177.42 804.5,1179C 826.533,1179.81 848.533,1179.31 870.5,1177.5C 910.868,1178.57 951.201,1180.4 991.5,1183C 1000.61,1185.45 1005.27,1191.45 1005.5,1201C 1005.34,1205.78 1004.18,1210.28 1002,1214.5C 1000.42,1216.04 998.587,1217.21 996.5,1218C 991.156,1218.47 985.822,1218.97 980.5,1219.5 Z"/></g>
<g><path style="opacity:1" fill="#f9bb7b" d="M 2308.5,1219.5 C 2299.49,1219.33 2290.49,1219.5 2281.5,1220C 2279.94,1220.21 2278.61,1220.71 2277.5,1221.5C 2251.5,1221.67 2225.5,1221.5 2199.5,1221C 2186.11,1220.32 2172.78,1219.15 2159.5,1217.5C 2153.83,1217.5 2148.17,1217.5 2142.5,1217.5C 2098,1216.81 2053.33,1216.81 2008.5,1217.5C 1999.47,1217.28 1990.47,1217.62 1981.5,1218.5C 1978.07,1218.89 1974.9,1218.23 1972,1216.5C 1971.33,1206.5 1971.33,1196.5 1972,1186.5C 1973.17,1185.33 1974.33,1184.17 1975.5,1183C 2004.4,1180.18 2033.4,1178.85 2062.5,1179C 2078.47,1177.45 2094.47,1176.45 2110.5,1176C 2174.5,1175.33 2238.5,1175.33 2302.5,1176C 2309.21,1176.72 2315.88,1177.72 2322.5,1179C 2323.76,1181.21 2324.43,1183.71 2324.5,1186.5C 2323.49,1196.88 2322.16,1207.22 2320.5,1217.5C 2316.43,1217.78 2312.43,1218.45 2308.5,1219.5 Z"/></g>
<g><path style="opacity:1" fill="#23517e" d="M 2142.5,1217.5 C 2140.28,1261.17 2137.94,1304.84 2135.5,1348.5C 2094.17,1348.75 2052.83,1349.09 2011.5,1349.5C 2011.67,1333.5 2011.5,1317.5 2011,1301.5C 2008.91,1276.36 2007.41,1251.2 2006.5,1226C 2006.78,1223.04 2007.45,1220.21 2008.5,1217.5C 2053.33,1216.81 2098,1216.81 2142.5,1217.5 Z"/></g>
<g><path style="opacity:1" fill="#23517e" d="M 785.5,1217.5 C 791.5,1217.5 797.5,1217.5 803.5,1217.5C 802.324,1257.5 802.324,1297.5 803.5,1337.5C 781.825,1337.57 760.158,1338.07 738.5,1339C 718.492,1341.5 698.492,1344 678.5,1346.5C 679.749,1306.5 679.749,1266.5 678.5,1226.5C 714.033,1222.48 749.699,1219.48 785.5,1217.5 Z"/></g>
<g><path style="opacity:1" fill="#fcfcfd" d="M 785.5,1217.5 C 807.167,1216.17 828.833,1216.17 850.5,1217.5C 840.167,1217.5 829.833,1217.5 819.5,1217.5C 820.281,1245.15 820.781,1272.82 821,1300.5C 821.711,1312.89 822.878,1325.22 824.5,1337.5C 867.749,1333.99 911.082,1331.65 954.5,1330.5C 954.333,1309.5 954.5,1288.5 955,1267.5C 956.219,1257.14 957.385,1246.81 958.5,1236.5C 958.588,1230.07 957.921,1223.73 956.5,1217.5C 964.506,1218.11 972.506,1218.77 980.5,1219.5C 976.752,1274.45 973.919,1329.45 972,1384.5C 968.462,1416.74 966.628,1449.08 966.5,1481.5C 960.5,1481.5 954.5,1481.5 948.5,1481.5C 950.055,1437.51 951.389,1393.51 952.5,1349.5C 933.03,1349.23 913.697,1350.73 894.5,1354C 870.855,1356.07 847.188,1357.57 823.5,1358.5C 823.945,1400.2 825.278,1441.87 827.5,1483.5C 820.809,1483.55 814.143,1483.21 807.5,1482.5C 806.276,1445.51 805.443,1408.51 805,1371.5C 804.358,1367.51 803.858,1363.51 803.5,1359.5C 776.672,1360.24 750.005,1362.74 723.5,1367C 708.342,1369.21 693.342,1372.21 678.5,1376C 677.091,1382.38 676.258,1388.88 676,1395.5C 675.5,1421.16 675.333,1446.83 675.5,1472.5C 675.5,1475.83 675.5,1479.17 675.5,1482.5C 666.276,1484.27 656.942,1484.94 647.5,1484.5C 647.341,1461.11 648.341,1437.77 650.5,1414.5C 650.031,1397.5 649.698,1380.5 649.5,1363.5C 650.446,1318.5 651.446,1273.5 652.5,1228.5C 661.144,1227.57 669.811,1226.9 678.5,1226.5C 679.749,1266.5 679.749,1306.5 678.5,1346.5C 698.492,1344 718.492,1341.5 738.5,1339C 760.158,1338.07 781.825,1337.57 803.5,1337.5C 802.324,1297.5 802.324,1257.5 803.5,1217.5C 797.5,1217.5 791.5,1217.5 785.5,1217.5 Z"/></g>
<g><path style="opacity:1" fill="#22517e" d="M 850.5,1217.5 C 885.836,1218.63 921.169,1218.63 956.5,1217.5C 957.921,1223.73 958.588,1230.07 958.5,1236.5C 957.385,1246.81 956.219,1257.14 955,1267.5C 954.5,1288.5 954.333,1309.5 954.5,1330.5C 911.082,1331.65 867.749,1333.99 824.5,1337.5C 822.878,1325.22 821.711,1312.89 821,1300.5C 820.781,1272.82 820.281,1245.15 819.5,1217.5C 829.833,1217.5 840.167,1217.5 850.5,1217.5 Z"/></g>
<g><path style="opacity:1" fill="#fdfdfd" d="M 2008.5,1217.5 C 2007.45,1220.21 2006.78,1223.04 2006.5,1226C 2007.41,1251.2 2008.91,1276.36 2011,1301.5C 2011.5,1317.5 2011.67,1333.5 2011.5,1349.5C 2052.83,1349.09 2094.17,1348.75 2135.5,1348.5C 2137.94,1304.84 2140.28,1261.17 2142.5,1217.5C 2148.17,1217.5 2153.83,1217.5 2159.5,1217.5C 2159.92,1234.66 2160.25,1251.83 2160.5,1269C 2159.1,1296.14 2158.43,1323.31 2158.5,1350.5C 2195.47,1352.57 2232.47,1353.4 2269.5,1353C 2271.22,1352.65 2272.88,1352.15 2274.5,1351.5C 2276.26,1334.89 2277.43,1318.23 2278,1301.5C 2278.82,1274.76 2278.66,1248.09 2277.5,1221.5C 2278.61,1220.71 2279.94,1220.21 2281.5,1220C 2290.49,1219.5 2299.49,1219.33 2308.5,1219.5C 2305.15,1301.58 2300.48,1383.58 2294.5,1465.5C 2289.17,1465.5 2283.83,1465.5 2278.5,1465.5C 2277.76,1434.84 2277.09,1404.17 2276.5,1373.5C 2251.16,1373.29 2225.82,1372.62 2200.5,1371.5C 2186.15,1371.88 2171.82,1372.54 2157.5,1373.5C 2156.06,1407.51 2154.4,1441.51 2152.5,1475.5C 2147.12,1475.85 2141.79,1476.51 2136.5,1477.5C 2135.81,1442.84 2135.48,1408.17 2135.5,1373.5C 2093.47,1373.18 2051.47,1373.52 2009.5,1374.5C 2009.87,1408.88 2009.2,1443.21 2007.5,1477.5C 1996.5,1477.5 1985.5,1477.5 1974.5,1477.5C 1976.64,1457.08 1978.31,1436.58 1979.5,1416C 1978.36,1398.35 1977.69,1380.69 1977.5,1363C 1980.01,1314.87 1981.34,1266.7 1981.5,1218.5C 1990.47,1217.62 1999.47,1217.28 2008.5,1217.5 Z"/></g>
<g><path style="opacity:1" fill="#23517e" d="M 2159.5,1217.5 C 2172.78,1219.15 2186.11,1220.32 2199.5,1221C 2225.5,1221.5 2251.5,1221.67 2277.5,1221.5C 2278.66,1248.09 2278.82,1274.76 2278,1301.5C 2277.43,1318.23 2276.26,1334.89 2274.5,1351.5C 2272.88,1352.15 2271.22,1352.65 2269.5,1353C 2232.47,1353.4 2195.47,1352.57 2158.5,1350.5C 2158.43,1323.31 2159.1,1296.14 2160.5,1269C 2160.25,1251.83 2159.92,1234.66 2159.5,1217.5 Z"/></g>
<g><path style="opacity:1" fill="#22517e" d="M 1596.5,1234.5 C 1598.46,1249.26 1599.13,1264.26 1598.5,1279.5C 1598.19,1302.65 1596.19,1325.65 1592.5,1348.5C 1565.98,1348.49 1539.48,1349.16 1513,1350.5C 1503.83,1350.33 1494.67,1350.17 1485.5,1350C 1437.85,1344.78 1390.18,1344.28 1342.5,1348.5C 1343.09,1312.13 1344.43,1275.8 1346.5,1239.5C 1402.84,1239.15 1459.17,1238.32 1515.5,1237C 1542.42,1233.82 1569.42,1232.98 1596.5,1234.5 Z"/></g>
<g><path style="opacity:1" fill="#fbfcfc" d="M 1809.5,1232.5 C 1811.13,1263.15 1811.63,1293.81 1811,1324.5C 1806.98,1370.14 1803.31,1415.8 1800,1461.5C 1798.99,1468.24 1797.83,1474.91 1796.5,1481.5C 1787.5,1481.5 1778.5,1481.5 1769.5,1481.5C 1773.87,1477.43 1776.71,1472.43 1778,1466.5C 1778.33,1445.83 1778.67,1425.17 1779,1404.5C 1780.17,1392.46 1781.67,1380.46 1783.5,1368.5C 1783.33,1365.47 1783,1362.47 1782.5,1359.5C 1747.49,1361.73 1712.49,1364.23 1677.5,1367C 1654.5,1367.15 1631.5,1366.98 1608.5,1366.5C 1607.6,1389.2 1606.1,1411.87 1604,1434.5C 1603.5,1449.5 1603.33,1464.5 1603.5,1479.5C 1596.83,1479.5 1590.17,1479.5 1583.5,1479.5C 1585.19,1441.1 1587.86,1402.77 1591.5,1364.5C 1530.14,1364.89 1468.81,1364.22 1407.5,1362.5C 1392.5,1362.67 1377.5,1362.83 1362.5,1363C 1355.56,1364.41 1348.56,1365.24 1341.5,1365.5C 1339.86,1403.48 1339.19,1441.48 1339.5,1479.5C 1333.86,1478.69 1328.19,1478.02 1322.5,1477.5C 1324.17,1440.84 1325.5,1404.17 1326.5,1367.5C 1259.73,1367.01 1193.06,1369.01 1126.5,1373.5C 1126.16,1375.85 1125.66,1378.19 1125,1380.5C 1124.65,1412.5 1124.15,1444.5 1123.5,1476.5C 1111.17,1476.5 1098.83,1476.5 1086.5,1476.5C 1091.98,1475.51 1097.64,1475.18 1103.5,1475.5C 1103.1,1447.66 1104.93,1419.99 1109,1392.5C 1109.97,1344.83 1110.81,1297.17 1111.5,1249.5C 1117.83,1249.5 1124.17,1249.5 1130.5,1249.5C 1130.41,1274.61 1128.75,1299.61 1125.5,1324.5C 1126.5,1333.84 1127.5,1343.18 1128.5,1352.5C 1194.86,1351.95 1261.19,1350.95 1327.5,1349.5C 1329.38,1312.82 1331.38,1276.16 1333.5,1239.5C 1337.83,1239.5 1342.17,1239.5 1346.5,1239.5C 1344.43,1275.8 1343.09,1312.13 1342.5,1348.5C 1390.18,1344.28 1437.85,1344.78 1485.5,1350C 1494.67,1350.17 1503.83,1350.33 1513,1350.5C 1539.48,1349.16 1565.98,1348.49 1592.5,1348.5C 1596.19,1325.65 1598.19,1302.65 1598.5,1279.5C 1599.5,1265.01 1599.83,1250.34 1599.5,1235.5C 1603.17,1235.5 1606.83,1235.5 1610.5,1235.5C 1613.32,1273.54 1612.99,1311.54 1609.5,1349.5C 1667.7,1355.46 1725.7,1353.79 1783.5,1344.5C 1786.01,1308.21 1787.01,1271.88 1786.5,1235.5C 1794.25,1234.83 1801.92,1233.83 1809.5,1232.5 Z"/></g>
<g><path style="opacity:1" fill="#23517e" d="M 1610.5,1235.5 C 1651.34,1236.69 1692.17,1238.02 1733,1239.5C 1750.89,1238.79 1768.72,1237.46 1786.5,1235.5C 1787.01,1271.88 1786.01,1308.21 1783.5,1344.5C 1725.7,1353.79 1667.7,1355.46 1609.5,1349.5C 1612.99,1311.54 1613.32,1273.54 1610.5,1235.5 Z"/></g>
<g><path style="opacity:1" fill="#23517e" d="M 1333.5,1239.5 C 1331.38,1276.16 1329.38,1312.82 1327.5,1349.5C 1261.19,1350.95 1194.86,1351.95 1128.5,1352.5C 1127.5,1343.18 1126.5,1333.84 1125.5,1324.5C 1128.75,1299.61 1130.41,1274.61 1130.5,1249.5C 1169.42,1246.54 1208.42,1243.04 1247.5,1239C 1276.18,1238.27 1304.84,1238.44 1333.5,1239.5 Z"/></g>
<g><path style="opacity:1" fill="#7d98b2" d="M 1596.5,1234.5 C 1597.79,1234.26 1598.79,1234.6 1599.5,1235.5C 1599.83,1250.34 1599.5,1265.01 1598.5,1279.5C 1599.13,1264.26 1598.46,1249.26 1596.5,1234.5 Z"/></g>
<g><path style="opacity:1" fill="#23517e" d="M 948.5,1481.5 C 908.16,1481.83 867.827,1482.5 827.5,1483.5C 825.278,1441.87 823.945,1400.2 823.5,1358.5C 847.188,1357.57 870.855,1356.07 894.5,1354C 913.697,1350.73 933.03,1349.23 952.5,1349.5C 951.389,1393.51 950.055,1437.51 948.5,1481.5 Z"/></g>
<g><path style="opacity:1" fill="#22517e" d="M 1769.5,1481.5 C 1714.18,1480 1658.85,1479.33 1603.5,1479.5C 1603.33,1464.5 1603.5,1449.5 1604,1434.5C 1606.1,1411.87 1607.6,1389.2 1608.5,1366.5C 1631.5,1366.98 1654.5,1367.15 1677.5,1367C 1712.49,1364.23 1747.49,1361.73 1782.5,1359.5C 1783,1362.47 1783.33,1365.47 1783.5,1368.5C 1781.67,1380.46 1780.17,1392.46 1779,1404.5C 1778.67,1425.17 1778.33,1445.83 1778,1466.5C 1776.71,1472.43 1773.87,1477.43 1769.5,1481.5 Z"/></g>
<g><path style="opacity:1" fill="#22517e" d="M 807.5,1482.5 C 770.174,1481.01 732.841,1480.68 695.5,1481.5C 689.167,1481.5 682.833,1481.5 676.5,1481.5C 676.81,1478.29 676.477,1475.29 675.5,1472.5C 675.333,1446.83 675.5,1421.16 676,1395.5C 676.258,1388.88 677.091,1382.38 678.5,1376C 693.342,1372.21 708.342,1369.21 723.5,1367C 750.005,1362.74 776.672,1360.24 803.5,1359.5C 803.858,1363.51 804.358,1367.51 805,1371.5C 805.443,1408.51 806.276,1445.51 807.5,1482.5 Z"/></g>
<g><path style="opacity:1" fill="#22517e" d="M 1583.5,1479.5 C 1573.85,1480.67 1564.18,1481.83 1554.5,1483C 1490.16,1483.83 1425.83,1483.5 1361.5,1482C 1354.12,1481.36 1346.79,1480.53 1339.5,1479.5C 1339.19,1441.48 1339.86,1403.48 1341.5,1365.5C 1348.56,1365.24 1355.56,1364.41 1362.5,1363C 1377.5,1362.83 1392.5,1362.67 1407.5,1362.5C 1468.81,1364.22 1530.14,1364.89 1591.5,1364.5C 1587.86,1402.77 1585.19,1441.1 1583.5,1479.5 Z"/></g>
<g><path style="opacity:1" fill="#23517e" d="M 1322.5,1477.5 C 1284.81,1477.17 1247.15,1477.84 1209.5,1479.5C 1180.65,1479.16 1151.98,1478.16 1123.5,1476.5C 1124.15,1444.5 1124.65,1412.5 1125,1380.5C 1125.66,1378.19 1126.16,1375.85 1126.5,1373.5C 1193.06,1369.01 1259.73,1367.01 1326.5,1367.5C 1325.5,1404.17 1324.17,1440.84 1322.5,1477.5 Z"/></g>
<g><path style="opacity:1" fill="#23517e" d="M 2278.5,1465.5 C 2236.61,1468.31 2194.61,1471.65 2152.5,1475.5C 2154.4,1441.51 2156.06,1407.51 2157.5,1373.5C 2171.82,1372.54 2186.15,1371.88 2200.5,1371.5C 2225.82,1372.62 2251.16,1373.29 2276.5,1373.5C 2277.09,1404.17 2277.76,1434.84 2278.5,1465.5 Z"/></g>
<g><path style="opacity:1" fill="#23517e" d="M 2136.5,1477.5 C 2119.41,1479.66 2102.24,1480.66 2085,1480.5C 2059.14,1480.07 2033.3,1479.07 2007.5,1477.5C 2009.2,1443.21 2009.87,1408.88 2009.5,1374.5C 2051.47,1373.52 2093.47,1373.18 2135.5,1373.5C 2135.48,1408.17 2135.81,1442.84 2136.5,1477.5 Z"/></g>
<g><path style="opacity:1" fill="#f9bb7b" d="M 2278.5,1465.5 C 2283.83,1465.5 2289.17,1465.5 2294.5,1465.5C 2299.06,1466.58 2303.72,1467.75 2308.5,1469C 2310.67,1469.83 2312.17,1471.33 2313,1473.5C 2313.88,1486.09 2312.55,1498.42 2309,1510.5C 2308.1,1511.7 2306.93,1512.53 2305.5,1513C 2266.37,1518.49 2227.03,1521.15 2187.5,1521C 2159.52,1523.63 2131.52,1525.97 2103.5,1528C 2058.2,1526.18 2012.87,1525.18 1967.5,1525C 1956.8,1524.64 1950.97,1519.14 1950,1508.5C 1949.17,1500.11 1949.5,1491.78 1951,1483.5C 1952.25,1480.62 1954.42,1478.79 1957.5,1478C 1963.16,1477.5 1968.82,1477.33 1974.5,1477.5C 1985.5,1477.5 1996.5,1477.5 2007.5,1477.5C 2033.3,1479.07 2059.14,1480.07 2085,1480.5C 2102.24,1480.66 2119.41,1479.66 2136.5,1477.5C 2141.79,1476.51 2147.12,1475.85 2152.5,1475.5C 2194.61,1471.65 2236.61,1468.31 2278.5,1465.5 Z"/></g>
<g><path style="opacity:1" fill="#f9ba7b" d="M 1086.5,1476.5 C 1098.83,1476.5 1111.17,1476.5 1123.5,1476.5C 1151.98,1478.16 1180.65,1479.16 1209.5,1479.5C 1247.15,1477.84 1284.81,1477.17 1322.5,1477.5C 1328.19,1478.02 1333.86,1478.69 1339.5,1479.5C 1346.79,1480.53 1354.12,1481.36 1361.5,1482C 1425.83,1483.5 1490.16,1483.83 1554.5,1483C 1564.18,1481.83 1573.85,1480.67 1583.5,1479.5C 1590.17,1479.5 1596.83,1479.5 1603.5,1479.5C 1658.85,1479.33 1714.18,1480 1769.5,1481.5C 1778.5,1481.5 1787.5,1481.5 1796.5,1481.5C 1801.81,1482.18 1807.15,1483.02 1812.5,1484C 1814.96,1485.46 1817.13,1487.29 1819,1489.5C 1819.22,1498.21 1818.55,1506.88 1817,1515.5C 1816.5,1517.33 1815.33,1518.5 1813.5,1519C 1796.5,1519.47 1779.5,1519.97 1762.5,1520.5C 1740.72,1518.41 1718.89,1517.41 1697,1517.5C 1658.68,1519.46 1620.35,1521.13 1582,1522.5C 1497.84,1520.72 1413.67,1519.22 1329.5,1518C 1276.39,1514.78 1223.22,1512.94 1170,1512.5C 1141.55,1514.79 1113.05,1515.96 1084.5,1516C 1080.33,1514.5 1077.5,1511.67 1076,1507.5C 1075.17,1498.15 1075.33,1488.82 1076.5,1479.5C 1079.6,1477.69 1082.94,1476.69 1086.5,1476.5 Z"/></g>
<g><path style="opacity:1" fill="#f9ba7b" d="M 807.5,1482.5 C 814.143,1483.21 820.809,1483.55 827.5,1483.5C 867.827,1482.5 908.16,1481.83 948.5,1481.5C 954.5,1481.5 960.5,1481.5 966.5,1481.5C 970.884,1482.01 975.218,1482.84 979.5,1484C 980.701,1484.9 981.535,1486.07 982,1487.5C 982.86,1497.35 981.86,1507.01 979,1516.5C 978.535,1517.93 977.701,1519.1 976.5,1520C 950.005,1521.65 923.505,1523.49 897,1525.5C 872.507,1524.19 848.007,1523.02 823.5,1522C 762.806,1521.97 702.139,1521.31 641.5,1520C 637.784,1518.42 635.617,1515.59 635,1511.5C 633.529,1505.57 633.196,1499.57 634,1493.5C 634.163,1491.32 634.996,1489.49 636.5,1488C 640.021,1486.33 643.687,1485.16 647.5,1484.5C 656.942,1484.94 666.276,1484.27 675.5,1482.5C 682.354,1482.82 689.021,1482.49 695.5,1481.5C 732.841,1480.68 770.174,1481.01 807.5,1482.5 Z"/></g>
<g><path style="opacity:1" fill="#87909a" d="M 675.5,1472.5 C 676.477,1475.29 676.81,1478.29 676.5,1481.5C 682.833,1481.5 689.167,1481.5 695.5,1481.5C 689.021,1482.49 682.354,1482.82 675.5,1482.5C 675.5,1479.17 675.5,1475.83 675.5,1472.5 Z"/></g>
<g><path style="opacity:1" fill="#ccedeb" d="M 1937.5,2612.5 C 1917.83,2612.67 1898.16,2612.5 1878.5,2612C 1877.26,2611.77 1876.26,2611.27 1875.5,2610.5C 1878.36,2537.2 1879.69,2463.87 1879.5,2390.5C 1879,2293 1874.83,2195.67 1867,2098.5C 1860.33,2028.49 1853.67,1958.49 1847,1888.5C 1844.92,1851.12 1842.25,1813.79 1839,1776.5C 1837.01,1718.85 1836.18,1661.18 1836.5,1603.5C 1852.56,1601.97 1868.56,1602.3 1884.5,1604.5C 1880.86,1631.14 1877.36,1657.81 1874,1684.5C 1873.33,1719.17 1873.33,1753.83 1874,1788.5C 1876.35,1825.34 1880.35,1862.01 1886,1898.5C 1896.23,1964.08 1905.89,2029.75 1915,2095.5C 1919.05,2134.5 1923.05,2173.5 1927,2212.5C 1927.68,2242.59 1929.68,2272.59 1933,2302.5C 1937.06,2405.78 1938.56,2509.11 1937.5,2612.5 Z"/></g>
<g><path style="opacity:1" fill="#ccedeb" d="M 1868.5,2610.5 C 1832.5,2610.5 1796.5,2610.5 1760.5,2610.5C 1758.52,2609.35 1757.02,2607.69 1756,2605.5C 1754.36,2593.84 1752.86,2582.18 1751.5,2570.5C 1753.17,2569.66 1754.34,2568.32 1755,2566.5C 1757.89,2500.55 1763.89,2434.88 1773,2369.5C 1778.26,2306.18 1783.26,2242.85 1788,2179.5C 1790.75,2073.79 1789.75,1968.12 1785,1862.5C 1778.54,1782.26 1769.87,1702.26 1759,1622.5C 1758.5,1617.18 1758.33,1611.84 1758.5,1606.5C 1782.82,1605.54 1807.16,1604.88 1831.5,1604.5C 1831.33,1645.5 1831.5,1686.5 1832,1727.5C 1833.89,1749.12 1834.89,1770.79 1835,1792.5C 1837.92,1823.11 1839.92,1853.77 1841,1884.5C 1851.49,1993.09 1861.16,2101.76 1870,2210.5C 1874.48,2284.76 1876.14,2359.1 1875,2433.5C 1873.42,2492.53 1871.26,2551.53 1868.5,2610.5 Z"/></g>
<g><path style="opacity:1" fill="#ccedeb" d="M 1970.5,1870.5 C 1970.5,1874.17 1970.5,1877.83 1970.5,1881.5C 1972,1924.5 1973.5,1967.5 1975,2010.5C 1975.37,2011.91 1976.2,2012.91 1977.5,2013.5C 1978.17,2012.05 1978.84,2010.72 1979.5,2009.5C 1978.91,2017.83 1978.24,2026.17 1977.5,2034.5C 1978.05,2037.83 1978.55,2041.16 1979,2044.5C 1979.67,2061.5 1979.67,2078.5 1979,2095.5C 1977.08,2112.45 1975.91,2129.45 1975.5,2146.5C 1955.26,2142.92 1946.09,2151.25 1948,2171.5C 1949.51,2176.36 1952.34,2180.19 1956.5,2183C 1967.3,2184.38 1977.96,2185.54 1988.5,2186.5C 1987.17,2186.5 1985.83,2186.5 1984.5,2186.5C 1992.29,2325.35 1997.46,2464.35 2000,2603.5C 2000.69,2606.58 2001.52,2609.58 2002.5,2612.5C 1983.17,2612.5 1963.83,2612.5 1944.5,2612.5C 1943.57,2543.17 1942.74,2473.84 1942,2404.5C 1940.96,2392.17 1939.96,2379.84 1939,2367.5C 1938.63,2338.49 1937.96,2309.49 1937,2280.5C 1931.98,2207.65 1924.98,2134.98 1916,2062.5C 1904.7,1994.69 1894.7,1926.69 1886,1858.5C 1880.97,1817.98 1878.13,1777.31 1877.5,1736.5C 1877.79,1692.36 1882.46,1648.69 1891.5,1605.5C 1912.58,1605.53 1933.58,1607.19 1954.5,1610.5C 1956.57,1641.47 1958.07,1672.47 1959,1703.5C 1963.28,1755.76 1966.28,1808.09 1968,1860.5C 1968.53,1864.04 1969.37,1867.37 1970.5,1870.5 Z"/></g>
<g><path style="opacity:1" fill="#ccedeb" d="M 1750.5,2525.5 C 1749.21,2524.71 1748.04,2523.71 1747,2522.5C 1744.22,2501.72 1740.89,2481.06 1737,2460.5C 1731.52,2409.3 1727.85,2357.96 1726,2306.5C 1725.67,2222.83 1725.33,2139.17 1725,2055.5C 1722.43,2001.12 1716.43,1947.12 1707,1893.5C 1704.26,1876.19 1696.43,1861.69 1683.5,1850C 1675.7,1845.18 1667.2,1842.34 1658,1841.5C 1591.87,1844.18 1525.7,1845.18 1459.5,1844.5C 1457.95,1805.74 1455.11,1767.08 1451,1728.5C 1449.7,1692.5 1449.04,1656.5 1449,1620.5C 1450.73,1619.75 1452.57,1619.25 1454.5,1619C 1490.82,1617.42 1527.16,1616.25 1563.5,1615.5C 1563.03,1627.33 1562.69,1639.16 1562.5,1651C 1563.96,1687.48 1564.79,1723.98 1565,1760.5C 1566.81,1788.23 1568.65,1815.89 1570.5,1843.5C 1573.62,1843.13 1574.95,1841.29 1574.5,1838C 1573.13,1822.85 1571.96,1807.68 1571,1792.5C 1568.65,1733.19 1567.98,1673.85 1569,1614.5C 1590.43,1613.18 1611.93,1612.18 1633.5,1611.5C 1634.49,1688.39 1639.16,1765.05 1647.5,1841.5C 1649.5,1841.5 1651.5,1841.5 1653.5,1841.5C 1644.72,1765.08 1639.72,1688.41 1638.5,1611.5C 1676.15,1609.87 1713.82,1608.54 1751.5,1607.5C 1757.94,1651.41 1763.77,1695.41 1769,1739.5C 1772.84,1787.19 1776.84,1834.85 1781,1882.5C 1783.77,1939.63 1785.61,1996.8 1786.5,2054C 1784.19,2094.46 1783.02,2134.96 1783,2175.5C 1780.3,2210.81 1777.96,2246.14 1776,2281.5C 1767.99,2362.89 1759.49,2444.23 1750.5,2525.5 Z"/></g>
<g><path style="opacity:1" fill="#ccedeb" d="M 2043.5,1841.5 C 2022.85,1842.91 2002.19,1844.08 1981.5,1845C 1978.19,1845.99 1975.19,1847.49 1972.5,1849.5C 1972.67,1837.16 1972.5,1824.83 1972,1812.5C 1968.31,1756.83 1964.64,1701.17 1961,1645.5C 1960.5,1634.17 1960.33,1622.84 1960.5,1611.5C 1973.25,1612.68 1985.92,1614.51 1998.5,1617C 2011.47,1618.2 2024.47,1618.7 2037.5,1618.5C 2037.33,1637.17 2037.5,1655.84 2038,1674.5C 2040.15,1730.17 2041.99,1785.83 2043.5,1841.5 Z"/></g>
<g><path style="opacity:1" fill="#ccedeb" d="M 2138.5,1843.5 C 2139.49,1843.33 2140.16,1843.66 2140.5,1844.5C 2109.8,1844.58 2079.13,1843.58 2048.5,1841.5C 2045.79,1767.17 2043.46,1692.83 2041.5,1618.5C 2065.17,1618.33 2088.84,1618.5 2112.5,1619C 2115.85,1619.46 2119.19,1619.96 2122.5,1620.5C 2122.33,1643.17 2122.5,1665.84 2123,1688.5C 2126.2,1740.2 2129.7,1791.86 2133.5,1843.5C 2135.17,1843.5 2136.83,1843.5 2138.5,1843.5 Z"/></g>
<g><path style="opacity:1" fill="#ccedeb" d="M 1455.5,1844.5 C 1427.65,1845.72 1399.98,1848.72 1372.5,1853.5C 1376.58,1776.22 1379.75,1698.88 1382,1621.5C 1402.76,1620.51 1423.59,1620.17 1444.5,1620.5C 1443.74,1695.39 1447.4,1770.05 1455.5,1844.5 Z"/></g>
<g><path style="opacity:1" fill="#ccedeb" d="M 2210.5,1844.5 C 2192.63,1844.25 2174.8,1844.92 2157,1846.5C 2151.39,1846.58 2145.89,1845.92 2140.5,1844.5C 2140.16,1843.66 2139.49,1843.33 2138.5,1843.5C 2136.31,1803.46 2133.48,1763.46 2130,1723.5C 2128.59,1689.18 2127.75,1654.85 2127.5,1620.5C 2148.83,1620.5 2170.17,1620.5 2191.5,1620.5C 2198.28,1695.17 2204.61,1769.84 2210.5,1844.5 Z"/></g>
<g><path style="opacity:1" fill="#ccedeb" d="M 1368.5,1853.5 C 1337.54,1859.02 1306.54,1864.35 1275.5,1869.5C 1271.12,1829.53 1266.96,1789.53 1263,1749.5C 1261.2,1720.19 1260.03,1690.86 1259.5,1661.5C 1259.47,1648.79 1260.13,1636.12 1261.5,1623.5C 1300.2,1623.34 1338.86,1622.34 1377.5,1620.5C 1375.65,1655.5 1373.82,1690.5 1372,1725.5C 1369.98,1768.15 1368.81,1810.81 1368.5,1853.5 Z"/></g>
<g><path style="opacity:1" fill="#ccedeb" d="M 2276.5,1844.5 C 2255.83,1844.5 2235.17,1844.5 2214.5,1844.5C 2211.39,1798.84 2208.23,1753.18 2205,1707.5C 2201.45,1678.57 2198.62,1649.57 2196.5,1620.5C 2217.83,1620.5 2239.17,1620.5 2260.5,1620.5C 2266.22,1695.12 2271.55,1769.79 2276.5,1844.5 Z"/></g>
<g><path style="opacity:0.998" fill="#ccedeb" d="M 2591.5,1621.5 C 2597.25,1725.11 2601.91,1828.78 2605.5,1932.5C 2604.89,1982.49 2604.73,2032.49 2605,2082.5C 2604.89,2100.54 2604.05,2118.54 2602.5,2136.5C 2601.97,2161.17 2602.63,2185.84 2604.5,2210.5C 2604.02,2246.19 2602.86,2281.86 2601,2317.5C 2600.88,2377.18 2600.21,2436.84 2599,2496.5C 2595.99,2528.88 2590.66,2560.88 2583,2592.5C 2581.33,2605.49 2574.5,2614.32 2562.5,2619C 2552.41,2619.88 2542.41,2619.38 2532.5,2617.5C 2529,2530.51 2525.83,2443.51 2523,2356.5C 2517.77,2111.84 2517.27,1867.18 2521.5,1622.5C 2544.83,1621.92 2568.16,1621.59 2591.5,1621.5 Z"/></g>
<g><path style="opacity:1" fill="#ccedeb" d="M 2389.5,2618.5 C 2365.19,2619.63 2340.86,2619.79 2316.5,2619C 2313.96,2618.81 2311.63,2618.31 2309.5,2617.5C 2309.67,2568.83 2309.5,2520.17 2309,2471.5C 2306.95,2431.53 2305.95,2391.53 2306,2351.5C 2305.74,2345.45 2305.07,2339.45 2304,2333.5C 2303.81,2285.47 2302.48,2237.47 2300,2189.5C 2300.09,2185.37 2299.26,2181.7 2297.5,2178.5C 2305.11,2175.94 2311.94,2171.94 2318,2166.5C 2322.48,2159.24 2323.48,2151.58 2321,2143.5C 2317.8,2140.57 2313.96,2139.23 2309.5,2139.5C 2305.37,2138.52 2301.03,2138.18 2296.5,2138.5C 2295.07,2133.82 2294.41,2128.98 2294.5,2124C 2297.03,2102.92 2298.86,2081.76 2300,2060.5C 2303.71,2000.79 2306.87,1941.13 2309.5,1881.5C 2319.19,1879.35 2322.69,1873.35 2320,1863.5C 2320.07,1852.76 2314.91,1846.59 2304.5,1845C 2296.84,1844.5 2289.17,1844.33 2281.5,1844.5C 2279.4,1816.87 2277.9,1789.21 2277,1761.5C 2275.73,1749.82 2274.4,1738.16 2273,1726.5C 2271.56,1691.75 2269.06,1657.08 2265.5,1622.5C 2286.17,1622.5 2306.83,1622.5 2327.5,1622.5C 2328.65,1627.77 2329.49,1633.1 2330,1638.5C 2331.05,1688.19 2332.71,1737.86 2335,1787.5C 2338.5,1818.74 2340.84,1850.07 2342,1881.5C 2347.08,1939.15 2352.08,1996.82 2357,2054.5C 2360.33,2086.51 2363.67,2118.51 2367,2150.5C 2373.26,2218.43 2378.59,2286.43 2383,2354.5C 2388.21,2442.42 2390.38,2530.42 2389.5,2618.5 Z"/></g>
<g><path style="opacity:1" fill="#ccedeb" d="M 2479.5,2617.5 C 2451.17,2617.5 2422.83,2617.5 2394.5,2617.5C 2396.11,2516.37 2393.28,2415.37 2386,2314.5C 2382.17,2276.57 2379.17,2238.57 2377,2200.5C 2367,2091.83 2357,1983.17 2347,1874.5C 2343.39,1822.86 2340.06,1771.19 2337,1719.5C 2335.24,1687.19 2334.41,1654.86 2334.5,1622.5C 2364.5,1622.5 2394.5,1622.5 2424.5,1622.5C 2433.51,1724.12 2442.01,1825.79 2450,1927.5C 2450.88,1943.16 2451.55,1958.82 2452,1974.5C 2456.2,2031.82 2460.2,2089.15 2464,2146.5C 2471.77,2303.41 2476.94,2460.41 2479.5,2617.5 Z"/></g>
<g><path style="opacity:1" fill="#ccedeb" d="M 2526.5,2617.5 C 2512.55,2617.09 2498.55,2617.09 2484.5,2617.5C 2484.05,2554.15 2482.88,2490.82 2481,2427.5C 2477,2337.85 2473.34,2248.19 2470,2158.5C 2459.53,1979.95 2446.03,1801.62 2429.5,1623.5C 2457.83,1623.5 2486.17,1623.5 2514.5,1623.5C 2514.61,1719.84 2513.95,1816.18 2512.5,1912.5C 2512.12,1979.19 2513.12,2045.86 2515.5,2112.5C 2513.72,2159.86 2514.22,2207.19 2517,2254.5C 2517.33,2288.17 2517.67,2321.83 2518,2355.5C 2521.39,2442.81 2524.22,2530.14 2526.5,2617.5 Z"/></g>
<g><path style="opacity:1" fill="#ccedeb" d="M 1270.5,1869.5 C 1257.58,1871.13 1244.58,1871.96 1231.5,1872C 1216.94,1874.56 1209.61,1883.23 1209.5,1898C 1211.44,1924.13 1215.27,1949.96 1221,1975.5C 1222.17,1987.52 1223.5,1999.52 1225,2011.5C 1229.93,2074.1 1232.93,2136.77 1234,2199.5C 1243.89,2311.82 1246.39,2424.32 1241.5,2537C 1242.84,2555.87 1244.5,2574.7 1246.5,2593.5C 1245.21,2593.26 1244.21,2593.6 1243.5,2594.5C 1228.16,2594.67 1212.83,2594.5 1197.5,2594C 1195.85,2593.39 1194.18,2592.89 1192.5,2592.5C 1185.93,2494.62 1183.76,2396.62 1186,2298.5C 1187.67,2221.81 1190,2145.15 1193,2068.5C 1194.06,2000.17 1194.72,1931.83 1195,1863.5C 1193.62,1840.5 1192.28,1817.5 1191,1794.5C 1191.82,1743.56 1188.48,1692.89 1181,1642.5C 1180.5,1636.84 1180.33,1631.18 1180.5,1625.5C 1205.17,1625.5 1229.83,1625.5 1254.5,1625.5C 1254.45,1707.2 1259.78,1788.53 1270.5,1869.5 Z"/></g>
<g><path style="opacity:1" fill="#ccedeb" d="M 1187.5,2592.5 C 1167.5,2592.5 1147.5,2592.5 1127.5,2592.5C 1129.53,2531.01 1131.19,2469.51 1132.5,2408C 1132.11,2394.47 1131.28,2380.97 1130,2367.5C 1129.73,2321.16 1129.06,2274.83 1128,2228.5C 1125.71,2188.16 1123.37,2147.83 1121,2107.5C 1111.86,1994.74 1098.86,1882.4 1082,1770.5C 1073.51,1723.59 1065.68,1676.59 1058.5,1629.5C 1097.16,1628.39 1135.83,1627.73 1174.5,1627.5C 1177.47,1659.51 1180.63,1691.51 1184,1723.5C 1185.84,1753.81 1187.18,1784.15 1188,1814.5C 1188.67,1889.17 1188.67,1963.83 1188,2038.5C 1186.48,2083.51 1184.81,2128.51 1183,2173.5C 1182.58,2217.34 1181.75,2261.18 1180.5,2305C 1181.15,2366.5 1181.65,2428 1182,2489.5C 1184.2,2523.82 1186.03,2558.15 1187.5,2592.5 Z"/></g>
<g><path style="opacity:1" fill="#ccedeb" d="M 1123.5,2592.5 C 1102.94,2592.65 1082.44,2591.65 1062,2589.5C 1050.83,2590.77 1039.66,2590.77 1028.5,2589.5C 1029.69,2568.85 1030.36,2548.19 1030.5,2527.5C 1028.89,2477.53 1028.06,2427.53 1028,2377.5C 1025.79,2318.51 1023.79,2259.51 1022,2200.5C 1017.71,2155.6 1015.05,2110.6 1014,2065.5C 1011.06,2023.5 1008.06,1981.5 1005,1939.5C 1004.26,1920.84 1003.76,1902.17 1003.5,1883.5C 1003.67,1874.16 1003.5,1864.83 1003,1855.5C 1002.37,1851.42 1000.87,1847.75 998.5,1844.5C 997.787,1821.5 996.953,1798.5 996,1775.5C 992.278,1727.84 989.445,1680.17 987.5,1632.5C 1008.81,1631.37 1030.14,1630.7 1051.5,1630.5C 1107.38,1918.84 1131.88,2209.84 1125,2503.5C 1122.81,2533.15 1122.31,2562.81 1123.5,2592.5 Z"/></g>
<g><path style="opacity:1" fill="#ccedeb" d="M 855.5,1837.5 C 823.89,1840.57 792.223,1842.9 760.5,1844.5C 756.878,1804.24 754.045,1763.91 752,1723.5C 751.333,1693.83 751.333,1664.17 752,1634.5C 753.399,1633.77 754.899,1633.27 756.5,1633C 790.832,1632.5 825.165,1632.33 859.5,1632.5C 856.291,1700.79 854.957,1769.12 855.5,1837.5 Z"/></g>
<g><path style="opacity:1" fill="#ccedeb" d="M 947.5,1841.5 C 918.481,1840.65 889.481,1839.31 860.5,1837.5C 860.333,1807.83 860.5,1778.16 861,1748.5C 862.841,1709.85 864.008,1671.19 864.5,1632.5C 885.5,1632.5 906.5,1632.5 927.5,1632.5C 929.737,1669.2 932.57,1705.87 936,1742.5C 940.297,1775.47 944.13,1808.47 947.5,1841.5 Z"/></g>
<g><path style="opacity:1" fill="#ccedeb" d="M 994.5,1842.5 C 980.494,1842.38 966.494,1842.05 952.5,1841.5C 946.395,1788.58 940.895,1735.58 936,1682.5C 934.171,1665.88 933.337,1649.21 933.5,1632.5C 949.167,1632.5 964.833,1632.5 980.5,1632.5C 985.451,1702.48 990.118,1772.48 994.5,1842.5 Z"/></g>
<g><path style="opacity:1" fill="#ccedeb" d="M 756.5,1844.5 C 754.146,1844.84 751.813,1845.34 749.5,1846C 730.17,1846.5 710.836,1846.67 691.5,1846.5C 689.419,1777.86 688.086,1709.19 687.5,1640.5C 707.4,1637.51 727.4,1635.51 747.5,1634.5C 747.717,1650.71 747.05,1666.87 745.5,1683C 747.081,1705.46 747.914,1727.96 748,1750.5C 751.345,1781.79 754.178,1813.12 756.5,1844.5 Z"/></g>
<g><path style="opacity:1" fill="#ccedeb" d="M 691.5,1846.5 C 677.692,1848.98 663.692,1851.15 649.5,1853C 647.152,1853.35 645.319,1854.51 644,1856.5C 640.911,1868.97 639.578,1881.63 640,1894.5C 642.945,1898.8 647.112,1900.8 652.5,1900.5C 650.497,1985.5 648.83,2070.5 647.5,2155.5C 642.835,2155.58 639.335,2157.58 637,2161.5C 636.5,2171.16 636.334,2180.83 636.5,2190.5C 655.909,2189.96 675.242,2190.62 694.5,2192.5C 694.5,2325.83 694.5,2459.17 694.5,2592.5C 669.867,2594.18 645.201,2594.85 620.5,2594.5C 622.513,2554.84 624.68,2515.17 627,2475.5C 628.398,2360.47 627.398,2245.47 624,2130.5C 623.588,2123.48 622.921,2116.48 622,2109.5C 620.402,2037.48 618.402,1965.48 616,1893.5C 615.074,1816.49 615.407,1739.49 617,1662.5C 617.195,1657.58 617.695,1652.75 618.5,1648C 639.113,1645.17 659.78,1643.01 680.5,1641.5C 683.671,1709.8 686.004,1778.13 687.5,1846.5C 688.833,1846.5 690.167,1846.5 691.5,1846.5 Z"/></g>
<g><path style="opacity:1" fill="#ccedeb" d="M 613.5,2596.5 C 590.5,2596.5 567.5,2596.5 544.5,2596.5C 539.984,2516.9 538.484,2437.23 540,2357.5C 543.863,2314.21 547.196,2270.87 550,2227.5C 552.524,2172.79 551.857,2118.12 548,2063.5C 536.132,1940.68 522.798,1818.02 508,1695.5C 507.136,1682.83 506.303,1670.16 505.5,1657.5C 540.934,1655.45 576.267,1652.45 611.5,1648.5C 611.667,1680.84 611.5,1713.17 611,1745.5C 610.076,1756.49 609.243,1767.49 608.5,1778.5C 609.168,1789.51 610.001,1800.51 611,1811.5C 611.333,1848.83 611.667,1886.17 612,1923.5C 614.856,2018.52 618.189,2113.52 622,2208.5C 622.667,2281.5 622.667,2354.5 622,2427.5C 619.492,2468.8 617.825,2510.13 617,2551.5C 615.549,2566.48 614.382,2581.48 613.5,2596.5 Z"/></g>
<g><path style="opacity:0.993" fill="#ccedeb" d="M 426.5,2594.5 C 419.928,2590.72 415.761,2585.06 414,2577.5C 410.094,2553.92 406.761,2530.25 404,2506.5C 401.858,2452.14 399.191,2397.81 396,2343.5C 395.285,2298.48 393.952,2253.48 392,2208.5C 391.333,2159.83 391.333,2111.17 392,2062.5C 396.13,1981.77 401.13,1901.1 407,1820.5C 407.067,1793.47 407.9,1766.47 409.5,1739.5C 407.887,1713.19 407.22,1686.86 407.5,1660.5C 418.449,1659.13 429.449,1658.46 440.5,1658.5C 438.291,1739.81 437.124,1821.15 437,1902.5C 436.448,1920.17 435.781,1937.84 435,1955.5C 432.334,2163.82 430,2372.16 428,2580.5C 427.335,2585.16 426.835,2589.82 426.5,2594.5 Z"/></g>
<g><path style="opacity:1" fill="#ccedeb" d="M 539.5,2596.5 C 534.38,2597.8 529.046,2598.63 523.5,2599C 508.833,2599.33 494.167,2599.67 479.5,2600C 472.641,2602.34 465.641,2604.17 458.5,2605.5C 449.296,2604.7 440.629,2602.37 432.5,2598.5C 432.994,2549.98 434.161,2501.31 436,2452.5C 439.837,2190.85 443.171,1929.18 446,1667.5C 446.218,1664.57 446.718,1661.74 447.5,1659C 465.164,1658.5 482.83,1658.33 500.5,1658.5C 501.834,1679.51 503.334,1700.51 505,1721.5C 517.806,1834.11 530.139,1946.78 542,2059.5C 546.208,2106.08 547.541,2152.74 546,2199.5C 543.329,2239.22 539.996,2278.89 536,2318.5C 534.098,2353.98 532.932,2389.48 532.5,2425C 534.062,2482.21 536.395,2539.37 539.5,2596.5 Z"/></g>
<g><path style="opacity:1" fill="#f9bb7b" d="M 855.5,1837.5 C 857.167,1837.5 858.833,1837.5 860.5,1837.5C 889.481,1839.31 918.481,1840.65 947.5,1841.5C 949.167,1841.5 950.833,1841.5 952.5,1841.5C 966.494,1842.05 980.494,1842.38 994.5,1842.5C 995.514,1843.67 996.847,1844.34 998.5,1844.5C 1000.87,1847.75 1002.37,1851.42 1003,1855.5C 1003.5,1864.83 1003.67,1874.16 1003.5,1883.5C 1000.83,1885.5 998.5,1887.83 996.5,1890.5C 993.135,1890.05 989.802,1889.38 986.5,1888.5C 984.068,1888.89 981.734,1889.55 979.5,1890.5C 972.167,1890.5 964.833,1890.5 957.5,1890.5C 921.545,1888.3 885.545,1886.63 849.5,1885.5C 840.893,1885.42 832.56,1886.42 824.5,1888.5C 820.613,1888.65 816.946,1889.31 813.5,1890.5C 768.531,1894.16 723.531,1897.5 678.5,1900.5C 669.833,1900.5 661.167,1900.5 652.5,1900.5C 647.112,1900.8 642.945,1898.8 640,1894.5C 639.578,1881.63 640.911,1868.97 644,1856.5C 645.319,1854.51 647.152,1853.35 649.5,1853C 663.692,1851.15 677.692,1848.98 691.5,1846.5C 710.836,1846.67 730.17,1846.5 749.5,1846C 751.813,1845.34 754.146,1844.84 756.5,1844.5C 757.833,1844.5 759.167,1844.5 760.5,1844.5C 792.223,1842.9 823.89,1840.57 855.5,1837.5 Z"/></g>
<g><path style="opacity:1" fill="#f9bb7b" d="M 2043.5,1841.5 C 2045.17,1841.5 2046.83,1841.5 2048.5,1841.5C 2079.13,1843.58 2109.8,1844.58 2140.5,1844.5C 2145.89,1845.92 2151.39,1846.58 2157,1846.5C 2174.8,1844.92 2192.63,1844.25 2210.5,1844.5C 2211.83,1844.5 2213.17,1844.5 2214.5,1844.5C 2235.17,1844.5 2255.83,1844.5 2276.5,1844.5C 2278.17,1844.5 2279.83,1844.5 2281.5,1844.5C 2289.17,1844.33 2296.84,1844.5 2304.5,1845C 2314.91,1846.59 2320.07,1852.76 2320,1863.5C 2322.69,1873.35 2319.19,1879.35 2309.5,1881.5C 2297.33,1882.22 2285.33,1883.22 2273.5,1884.5C 2233.85,1886.86 2194.18,1886.86 2154.5,1884.5C 2147.69,1883.51 2140.69,1883.18 2133.5,1883.5C 2091.5,1884.21 2049.5,1884.88 2007.5,1885.5C 1998.83,1885.5 1990.17,1885.5 1981.5,1885.5C 1977.3,1885.56 1973.63,1884.23 1970.5,1881.5C 1970.5,1877.83 1970.5,1874.17 1970.5,1870.5C 1971.17,1863.5 1971.83,1856.5 1972.5,1849.5C 1975.19,1847.49 1978.19,1845.99 1981.5,1845C 2002.19,1844.08 2022.85,1842.91 2043.5,1841.5 Z"/></g>
<g><path style="opacity:0.999" fill="#fefefe" d="M 1750.5,2525.5 C 1750.17,2540.68 1750.5,2555.68 1751.5,2570.5C 1752.86,2582.18 1754.36,2593.84 1756,2605.5C 1757.02,2607.69 1758.52,2609.35 1760.5,2610.5C 1734,2609.81 1707.66,2608.81 1681.5,2607.5C 1686.83,2607.5 1692.17,2607.5 1697.5,2607.5C 1695.95,2576.84 1694.45,2546.17 1693,2515.5C 1688.75,2479.23 1685.08,2442.9 1682,2406.5C 1682.09,2376.1 1680.76,2345.77 1678,2315.5C 1677.57,2236.12 1679.41,2156.79 1683.5,2077.5C 1680.39,2026.3 1675.23,1975.3 1668,1924.5C 1666.33,1920.83 1663.5,1918.67 1659.5,1918C 1650.23,1916.23 1640.89,1914.9 1631.5,1914C 1555.16,1913.15 1478.83,1913.48 1402.5,1915C 1359.17,1917.67 1315.83,1920.33 1272.5,1923C 1264.75,1925.65 1261.41,1931.15 1262.5,1939.5C 1263.88,1959.84 1265.38,1980.18 1267,2000.5C 1272.58,2042.13 1277.91,2083.8 1283,2125.5C 1283.5,2151.21 1284.84,2176.88 1287,2202.5C 1285.93,2255.41 1288.93,2308.07 1296,2360.5C 1297.5,2401.99 1298.33,2443.49 1298.5,2485C 1298.68,2513.54 1298.01,2542.04 1296.5,2570.5C 1296.6,2579.18 1296.93,2587.85 1297.5,2596.5C 1279.5,2595.85 1261.5,2595.18 1243.5,2594.5C 1244.21,2593.6 1245.21,2593.26 1246.5,2593.5C 1244.5,2574.7 1242.84,2555.87 1241.5,2537C 1246.39,2424.32 1243.89,2311.82 1234,2199.5C 1232.93,2136.77 1229.93,2074.1 1225,2011.5C 1223.5,1999.52 1222.17,1987.52 1221,1975.5C 1215.27,1949.96 1211.44,1924.13 1209.5,1898C 1209.61,1883.23 1216.94,1874.56 1231.5,1872C 1244.58,1871.96 1257.58,1871.13 1270.5,1869.5C 1272.17,1869.5 1273.83,1869.5 1275.5,1869.5C 1306.54,1864.35 1337.54,1859.02 1368.5,1853.5C 1369.83,1853.5 1371.17,1853.5 1372.5,1853.5C 1399.98,1848.72 1427.65,1845.72 1455.5,1844.5C 1456.83,1844.5 1458.17,1844.5 1459.5,1844.5C 1525.7,1845.18 1591.87,1844.18 1658,1841.5C 1667.2,1842.34 1675.7,1845.18 1683.5,1850C 1696.43,1861.69 1704.26,1876.19 1707,1893.5C 1716.43,1947.12 1722.43,2001.12 1725,2055.5C 1725.33,2139.17 1725.67,2222.83 1726,2306.5C 1727.85,2357.96 1731.52,2409.3 1737,2460.5C 1740.89,2481.06 1744.22,2501.72 1747,2522.5C 1748.04,2523.71 1749.21,2524.71 1750.5,2525.5 Z"/></g>
<g><path style="opacity:1" fill="#80d3cc" d="M 1970.5,1881.5 C 1973.63,1884.23 1977.3,1885.56 1981.5,1885.5C 1981.84,1926.85 1981.17,1968.19 1979.5,2009.5C 1978.84,2010.72 1978.17,2012.05 1977.5,2013.5C 1976.2,2012.91 1975.37,2011.91 1975,2010.5C 1973.5,1967.5 1972,1924.5 1970.5,1881.5 Z"/></g>
<g><path style="opacity:1" fill="#fcfcfd" d="M 2309.5,1881.5 C 2306.87,1941.13 2303.71,2000.79 2300,2060.5C 2298.86,2081.76 2297.03,2102.92 2294.5,2124C 2294.41,2128.98 2295.07,2133.82 2296.5,2138.5C 2301.03,2138.18 2305.37,2138.52 2309.5,2139.5C 2299.17,2139.5 2288.83,2139.5 2278.5,2139.5C 2277.92,2101.83 2277.25,2064.17 2276.5,2026.5C 2231.84,2025.27 2187.17,2024.77 2142.5,2025C 2141.84,2033.59 2141.51,2042.26 2141.5,2051C 2142.27,2083.5 2142.94,2116 2143.5,2148.5C 2139.5,2148.5 2135.5,2148.5 2131.5,2148.5C 2129.9,2107.52 2129.23,2066.52 2129.5,2025.5C 2089.49,2025.32 2049.49,2025.66 2009.5,2026.5C 2009.51,2041.67 2009.84,2056.84 2010.5,2072C 2009.69,2090.34 2008.69,2108.68 2007.5,2127C 2007.79,2133.51 2008.12,2140.01 2008.5,2146.5C 1997.5,2146.5 1986.5,2146.5 1975.5,2146.5C 1975.91,2129.45 1977.08,2112.45 1979,2095.5C 1979.67,2078.5 1979.67,2061.5 1979,2044.5C 1978.55,2041.16 1978.05,2037.83 1977.5,2034.5C 1978.24,2026.17 1978.91,2017.83 1979.5,2009.5C 1981.17,1968.19 1981.84,1926.85 1981.5,1885.5C 1990.17,1885.5 1998.83,1885.5 2007.5,1885.5C 2007.36,1912.56 2008.53,1939.56 2011,1966.5C 2011.5,1983.16 2011.67,1999.83 2011.5,2016.5C 2051.13,2014.64 2090.8,2013.98 2130.5,2014.5C 2132.12,1976.86 2133.12,1939.19 2133.5,1901.5C 2134.49,1896.02 2134.82,1890.36 2134.5,1884.5C 2137.5,1884.5 2140.5,1884.5 2143.5,1884.5C 2144.96,1898.28 2145.62,1912.12 2145.5,1926C 2144.69,1955.5 2144.03,1985 2143.5,2014.5C 2187.85,2014.89 2232.18,2014.89 2276.5,2014.5C 2278.29,1973.85 2278.79,1933.18 2278,1892.5C 2277.27,1890.13 2276.43,1887.8 2275.5,1885.5C 2275.04,1884.7 2274.38,1884.37 2273.5,1884.5C 2285.33,1883.22 2297.33,1882.22 2309.5,1881.5 Z"/></g>
<g><path style="opacity:1" fill="#22517e" d="M 2133.5,1883.5 C 2133.5,1889.5 2133.5,1895.5 2133.5,1901.5C 2133.12,1939.19 2132.12,1976.86 2130.5,2014.5C 2090.8,2013.98 2051.13,2014.64 2011.5,2016.5C 2011.67,1999.83 2011.5,1983.16 2011,1966.5C 2008.53,1939.56 2007.36,1912.56 2007.5,1885.5C 2049.5,1884.88 2091.5,1884.21 2133.5,1883.5 Z"/></g>
<g><path style="opacity:1" fill="#23517e" d="M 2143.5,1884.5 C 2147.17,1884.5 2150.83,1884.5 2154.5,1884.5C 2194.18,1886.86 2233.85,1886.86 2273.5,1884.5C 2274.38,1884.37 2275.04,1884.7 2275.5,1885.5C 2276.43,1887.8 2277.27,1890.13 2278,1892.5C 2278.79,1933.18 2278.29,1973.85 2276.5,2014.5C 2232.18,2014.89 2187.85,2014.89 2143.5,2014.5C 2144.03,1985 2144.69,1955.5 2145.5,1926C 2145.62,1912.12 2144.96,1898.28 2143.5,1884.5 Z"/></g>
<g><path style="opacity:1" fill="#80d3cc" d="M 1003.5,1883.5 C 1003.76,1902.17 1004.26,1920.84 1005,1939.5C 1008.06,1981.5 1011.06,2023.5 1014,2065.5C 1015.05,2110.6 1017.71,2155.6 1022,2200.5C 1023.79,2259.51 1025.79,2318.51 1028,2377.5C 1028.06,2427.53 1028.89,2477.53 1030.5,2527.5C 1030.36,2548.19 1029.69,2568.85 1028.5,2589.5C 1027.17,2589.5 1025.83,2589.5 1024.5,2589.5C 1025.43,2486.46 1023.93,2383.46 1020,2280.5C 1013.58,2150.41 1005.75,2020.41 996.5,1890.5C 998.5,1887.83 1000.83,1885.5 1003.5,1883.5 Z"/></g>
<g><path style="opacity:1" fill="#23517e" d="M 957.5,1890.5 C 958.985,1902.85 958.485,1915.19 956,1927.5C 955.5,1953.16 955.333,1978.83 955.5,2004.5C 935.134,2004.64 914.801,2003.97 894.5,2002.5C 873.164,2003.14 851.83,2003.81 830.5,2004.5C 828.148,1965.85 826.148,1927.18 824.5,1888.5C 832.56,1886.42 840.893,1885.42 849.5,1885.5C 885.545,1886.63 921.545,1888.3 957.5,1890.5 Z"/></g>
<g><path style="opacity:1" fill="#fcfcfd" d="M 824.5,1888.5 C 826.148,1927.18 828.148,1965.85 830.5,2004.5C 851.83,2003.81 873.164,2003.14 894.5,2002.5C 914.801,2003.97 935.134,2004.64 955.5,2004.5C 955.333,1978.83 955.5,1953.16 956,1927.5C 958.485,1915.19 958.985,1902.85 957.5,1890.5C 964.833,1890.5 972.167,1890.5 979.5,1890.5C 979.667,1902.17 979.5,1913.84 979,1925.5C 975.49,1976.11 972.823,2026.78 971,2077.5C 970.639,2090.28 969.305,2102.94 967,2115.5C 966.5,2128.16 966.333,2140.83 966.5,2153.5C 960.001,2155.27 953.334,2155.94 946.5,2155.5C 947.338,2146.14 948.505,2136.8 950,2127.5C 950.202,2091.13 951.368,2054.8 953.5,2018.5C 912.786,2016.68 872.12,2017.35 831.5,2020.5C 832.143,2064.5 832.477,2108.5 832.5,2152.5C 829.167,2152.5 825.833,2152.5 822.5,2152.5C 822.477,2108.47 821.477,2064.47 819.5,2020.5C 772.453,2019.9 725.453,2020.9 678.5,2023.5C 675.353,2066.78 674.687,2110.11 676.5,2153.5C 666.821,2154.02 657.155,2154.69 647.5,2155.5C 648.83,2070.5 650.497,1985.5 652.5,1900.5C 661.167,1900.5 669.833,1900.5 678.5,1900.5C 679,1918.67 679.667,1936.84 680.5,1955C 680.207,1969.68 679.541,1984.35 678.5,1999C 678.537,2002.55 678.87,2006.05 679.5,2009.5C 682,2009.83 684.5,2010.17 687,2010.5C 731.166,2008.34 775.333,2006.34 819.5,2004.5C 817.278,1966.51 815.278,1928.51 813.5,1890.5C 816.946,1889.31 820.613,1888.65 824.5,1888.5 Z"/></g>
<g><path style="opacity:1" fill="#ccedeb" d="M 996.5,1890.5 C 1005.75,2020.41 1013.58,2150.41 1020,2280.5C 1023.93,2383.46 1025.43,2486.46 1024.5,2589.5C 1000.48,2589.36 976.479,2588.7 952.5,2587.5C 954.972,2532.19 956.805,2476.86 958,2421.5C 958.727,2414.51 959.393,2407.51 960,2400.5C 961.074,2361.17 962.074,2321.84 963,2282.5C 965.252,2250.54 966.085,2218.54 965.5,2186.5C 964.167,2186.5 962.833,2186.5 961.5,2186.5C 965.647,2185.68 969.981,2185.18 974.5,2185C 978.77,2183.73 981.27,2180.9 982,2176.5C 982.928,2169.06 982.594,2161.73 981,2154.5C 980.5,2154 980,2153.5 979.5,2153C 975.08,2152.23 970.747,2152.4 966.5,2153.5C 966.333,2140.83 966.5,2128.16 967,2115.5C 969.305,2102.94 970.639,2090.28 971,2077.5C 972.823,2026.78 975.49,1976.11 979,1925.5C 979.5,1913.84 979.667,1902.17 979.5,1890.5C 981.734,1889.55 984.068,1888.89 986.5,1888.5C 989.802,1889.38 993.135,1890.05 996.5,1890.5 Z"/></g>
<g><path style="opacity:1" fill="#23517e" d="M 813.5,1890.5 C 815.278,1928.51 817.278,1966.51 819.5,2004.5C 775.333,2006.34 731.166,2008.34 687,2010.5C 684.5,2010.17 682,2009.83 679.5,2009.5C 678.87,2006.05 678.537,2002.55 678.5,1999C 679.541,1984.35 680.207,1969.68 680.5,1955C 679.667,1936.84 679,1918.67 678.5,1900.5C 723.531,1897.5 768.531,1894.16 813.5,1890.5 Z"/></g>
<g><path style="opacity:1" fill="#bbbdbf" d="M 2133.5,1883.5 C 2140.69,1883.18 2147.69,1883.51 2154.5,1884.5C 2150.83,1884.5 2147.17,1884.5 2143.5,1884.5C 2140.5,1884.5 2137.5,1884.5 2134.5,1884.5C 2134.82,1890.36 2134.49,1896.02 2133.5,1901.5C 2133.5,1895.5 2133.5,1889.5 2133.5,1883.5 Z"/></g>
<g><path style="opacity:1" fill="#fabb7b" d="M 1681.5,2607.5 C 1678.5,2607.5 1675.5,2607.5 1672.5,2607.5C 1602.21,2603.53 1531.71,2600.87 1461,2599.5C 1452.33,2599.5 1443.83,2599.83 1435.5,2600.5C 1403.18,2599.71 1370.85,2599.21 1338.5,2599C 1324.79,2598.64 1311.13,2597.81 1297.5,2596.5C 1296.93,2587.85 1296.6,2579.18 1296.5,2570.5C 1298.01,2542.04 1298.68,2513.54 1298.5,2485C 1298.33,2443.49 1297.5,2401.99 1296,2360.5C 1288.93,2308.07 1285.93,2255.41 1287,2202.5C 1284.84,2176.88 1283.5,2151.21 1283,2125.5C 1277.91,2083.8 1272.58,2042.13 1267,2000.5C 1265.38,1980.18 1263.88,1959.84 1262.5,1939.5C 1261.41,1931.15 1264.75,1925.65 1272.5,1923C 1315.83,1920.33 1359.17,1917.67 1402.5,1915C 1478.83,1913.48 1555.16,1913.15 1631.5,1914C 1640.89,1914.9 1650.23,1916.23 1659.5,1918C 1663.5,1918.67 1666.33,1920.83 1668,1924.5C 1675.23,1975.3 1680.39,2026.3 1683.5,2077.5C 1679.41,2156.79 1677.57,2236.12 1678,2315.5C 1680.76,2345.77 1682.09,2376.1 1682,2406.5C 1685.08,2442.9 1688.75,2479.23 1693,2515.5C 1694.45,2546.17 1695.95,2576.84 1697.5,2607.5C 1692.17,2607.5 1686.83,2607.5 1681.5,2607.5 Z"/></g>
<g><path style="opacity:1" fill="#fffefe" d="M 1465.5,1983.5 C 1484.22,1983.15 1502.88,1983.82 1521.5,1985.5C 1522.24,2048.83 1523.07,2112.16 1524,2175.5C 1523.63,2176.42 1523.13,2177.25 1522.5,2178C 1496.16,2178.57 1469.82,2178.24 1443.5,2177C 1440.38,2176.79 1437.38,2176.13 1434.5,2175C 1433.77,2173.6 1433.27,2172.1 1433,2170.5C 1431.97,2111.12 1430.31,2051.79 1428,1992.5C 1428.83,1990.33 1430.33,1988.83 1432.5,1988C 1443.74,1987.18 1454.74,1985.68 1465.5,1983.5 Z"/></g>
<g><path style="opacity:1" fill="#23517e" d="M 946.5,2155.5 C 908.34,2154.48 870.34,2153.48 832.5,2152.5C 832.477,2108.5 832.143,2064.5 831.5,2020.5C 872.12,2017.35 912.786,2016.68 953.5,2018.5C 951.368,2054.8 950.202,2091.13 950,2127.5C 948.505,2136.8 947.338,2146.14 946.5,2155.5 Z"/></g>
<g><path style="opacity:1" fill="#23517e" d="M 822.5,2152.5 C 794.85,2154.03 767.017,2154.7 739,2154.5C 718.137,2154.48 697.304,2154.15 676.5,2153.5C 674.687,2110.11 675.353,2066.78 678.5,2023.5C 725.453,2020.9 772.453,2019.9 819.5,2020.5C 821.477,2064.47 822.477,2108.47 822.5,2152.5 Z"/></g>
<g><path style="opacity:1" fill="#22517e" d="M 2278.5,2139.5 C 2233.79,2146.53 2188.79,2149.53 2143.5,2148.5C 2142.94,2116 2142.27,2083.5 2141.5,2051C 2141.51,2042.26 2141.84,2033.59 2142.5,2025C 2187.17,2024.77 2231.84,2025.27 2276.5,2026.5C 2277.25,2064.17 2277.92,2101.83 2278.5,2139.5 Z"/></g>
<g><path style="opacity:1" fill="#23517e" d="M 2131.5,2148.5 C 2115.3,2148.63 2099.13,2147.97 2083,2146.5C 2058.17,2147.59 2033.34,2147.59 2008.5,2146.5C 2008.12,2140.01 2007.79,2133.51 2007.5,2127C 2008.69,2108.68 2009.69,2090.34 2010.5,2072C 2009.84,2056.84 2009.51,2041.67 2009.5,2026.5C 2049.49,2025.66 2089.49,2025.32 2129.5,2025.5C 2129.23,2066.52 2129.9,2107.52 2131.5,2148.5 Z"/></g>
<g><path style="opacity:1" fill="#f9bb7b" d="M 2278.5,2139.5 C 2288.83,2139.5 2299.17,2139.5 2309.5,2139.5C 2313.96,2139.23 2317.8,2140.57 2321,2143.5C 2323.48,2151.58 2322.48,2159.24 2318,2166.5C 2311.94,2171.94 2305.11,2175.94 2297.5,2178.5C 2296.83,2178.5 2296.17,2178.5 2295.5,2178.5C 2275.54,2181.83 2255.54,2185.16 2235.5,2188.5C 2232.93,2188.72 2230.6,2189.39 2228.5,2190.5C 2209.5,2190.5 2190.5,2190.5 2171.5,2190.5C 2169.83,2190.5 2168.17,2190.5 2166.5,2190.5C 2154.15,2188.06 2141.65,2187.06 2129,2187.5C 2101.5,2188.25 2074,2188.58 2046.5,2188.5C 2027.82,2188 2009.16,2187.33 1990.5,2186.5C 1989.83,2186.5 1989.17,2186.5 1988.5,2186.5C 1977.96,2185.54 1967.3,2184.38 1956.5,2183C 1952.34,2180.19 1949.51,2176.36 1948,2171.5C 1946.09,2151.25 1955.26,2142.92 1975.5,2146.5C 1986.5,2146.5 1997.5,2146.5 2008.5,2146.5C 2033.34,2147.59 2058.17,2147.59 2083,2146.5C 2099.13,2147.97 2115.3,2148.63 2131.5,2148.5C 2135.5,2148.5 2139.5,2148.5 2143.5,2148.5C 2188.79,2149.53 2233.79,2146.53 2278.5,2139.5 Z"/></g>
<g><path style="opacity:1" fill="#f9bb7b" d="M 822.5,2152.5 C 825.833,2152.5 829.167,2152.5 832.5,2152.5C 870.34,2153.48 908.34,2154.48 946.5,2155.5C 953.334,2155.94 960.001,2155.27 966.5,2153.5C 970.747,2152.4 975.08,2152.23 979.5,2153C 980,2153.5 980.5,2154 981,2154.5C 982.594,2161.73 982.928,2169.06 982,2176.5C 981.27,2180.9 978.77,2183.73 974.5,2185C 969.981,2185.18 965.647,2185.68 961.5,2186.5C 934.84,2187.18 908.173,2187.68 881.5,2188C 877.371,2188.33 873.371,2189.16 869.5,2190.5C 868.167,2190.5 866.833,2190.5 865.5,2190.5C 845.516,2192.3 825.516,2192.63 805.5,2191.5C 803.833,2191.5 802.167,2191.5 800.5,2191.5C 766.503,2192.05 732.503,2192.39 698.5,2192.5C 697.167,2192.5 695.833,2192.5 694.5,2192.5C 675.242,2190.62 655.909,2189.96 636.5,2190.5C 636.334,2180.83 636.5,2171.16 637,2161.5C 639.335,2157.58 642.835,2155.58 647.5,2155.5C 657.155,2154.69 666.821,2154.02 676.5,2153.5C 697.304,2154.15 718.137,2154.48 739,2154.5C 767.017,2154.7 794.85,2154.03 822.5,2152.5 Z"/></g>
<g><path style="opacity:0.992" fill="#83d4ce" d="M 2295.5,2178.5 C 2296.17,2178.5 2296.83,2178.5 2297.5,2178.5C 2299.26,2181.7 2300.09,2185.37 2300,2189.5C 2302.48,2237.47 2303.81,2285.47 2304,2333.5C 2305.07,2339.45 2305.74,2345.45 2306,2351.5C 2305.95,2391.53 2306.95,2431.53 2309,2471.5C 2309.5,2520.17 2309.67,2568.83 2309.5,2617.5C 2307.83,2617.5 2306.17,2617.5 2304.5,2617.5C 2304.24,2543.49 2303.41,2469.49 2302,2395.5C 2299.93,2323.17 2297.76,2250.83 2295.5,2178.5 Z"/></g>
<g><path style="opacity:0.999" fill="#ccedeb" d="M 2295.5,2178.5 C 2297.76,2250.83 2299.93,2323.17 2302,2395.5C 2303.41,2469.49 2304.24,2543.49 2304.5,2617.5C 2283.83,2617.5 2263.17,2617.5 2242.5,2617.5C 2242.67,2559.83 2242.5,2502.17 2242,2444.5C 2240.52,2393.49 2238.85,2342.49 2237,2291.5C 2236.34,2257.17 2235.84,2222.83 2235.5,2188.5C 2255.54,2185.16 2275.54,2181.83 2295.5,2178.5 Z"/></g>
<g><path style="opacity:0.999" fill="#ccedeb" d="M 961.5,2186.5 C 961.322,2189.22 960.822,2191.88 960,2194.5C 957.66,2259.83 955.66,2325.16 954,2390.5C 950.555,2456.11 948.389,2521.77 947.5,2587.5C 921.5,2587.5 895.5,2587.5 869.5,2587.5C 871.608,2547.35 873.275,2507.18 874.5,2467C 874.189,2419.51 874.022,2372.01 874,2324.5C 872.319,2279.83 870.819,2235.16 869.5,2190.5C 873.371,2189.16 877.371,2188.33 881.5,2188C 908.173,2187.68 934.84,2187.18 961.5,2186.5 Z"/></g>
<g><path style="opacity:0.996" fill="#81d3cd" d="M 961.5,2186.5 C 962.833,2186.5 964.167,2186.5 965.5,2186.5C 966.085,2218.54 965.252,2250.54 963,2282.5C 962.074,2321.84 961.074,2361.17 960,2400.5C 959.393,2407.51 958.727,2414.51 958,2421.5C 956.805,2476.86 954.972,2532.19 952.5,2587.5C 950.833,2587.5 949.167,2587.5 947.5,2587.5C 948.389,2521.77 950.555,2456.11 954,2390.5C 955.66,2325.16 957.66,2259.83 960,2194.5C 960.822,2191.88 961.322,2189.22 961.5,2186.5 Z"/></g>
<g><path style="opacity:0.994" fill="#80d3cd" d="M 1988.5,2186.5 C 1989.17,2186.5 1989.83,2186.5 1990.5,2186.5C 1990.96,2210.83 1991.46,2235.17 1992,2259.5C 1994.18,2304.85 1996.51,2350.18 1999,2395.5C 2000.46,2462.54 2002.96,2529.54 2006.5,2596.5C 2006.63,2601.96 2005.96,2607.29 2004.5,2612.5C 2003.83,2612.5 2003.17,2612.5 2002.5,2612.5C 2001.52,2609.58 2000.69,2606.58 2000,2603.5C 1997.46,2464.35 1992.29,2325.35 1984.5,2186.5C 1985.83,2186.5 1987.17,2186.5 1988.5,2186.5 Z"/></g>
<g><path style="opacity:1" fill="#ccedeb" d="M 1990.5,2186.5 C 2009.16,2187.33 2027.82,2188 2046.5,2188.5C 2049.29,2189.48 2052.29,2189.81 2055.5,2189.5C 2055.33,2210.84 2055.5,2232.17 2056,2253.5C 2057.68,2289.5 2059.35,2325.5 2061,2361.5C 2062.82,2445.17 2064.99,2528.84 2067.5,2612.5C 2046.5,2612.5 2025.5,2612.5 2004.5,2612.5C 2005.96,2607.29 2006.63,2601.96 2006.5,2596.5C 2002.96,2529.54 2000.46,2462.54 1999,2395.5C 1996.51,2350.18 1994.18,2304.85 1992,2259.5C 1991.46,2235.17 1990.96,2210.83 1990.5,2186.5 Z"/></g>
<g><path style="opacity:1" fill="#ccedeb" d="M 2166.5,2190.5 C 2168.46,2223.46 2169.96,2256.46 2171,2289.5C 2170.66,2375.17 2170.66,2460.83 2171,2546.5C 2171.36,2568.52 2172.19,2590.52 2173.5,2612.5C 2140.19,2610.8 2106.86,2610.13 2073.5,2610.5C 2073.52,2606.44 2073.02,2602.44 2072,2598.5C 2068.4,2462.14 2064.23,2325.8 2059.5,2189.5C 2058.17,2189.5 2056.83,2189.5 2055.5,2189.5C 2052.29,2189.81 2049.29,2189.48 2046.5,2188.5C 2074,2188.58 2101.5,2188.25 2129,2187.5C 2141.65,2187.06 2154.15,2188.06 2166.5,2190.5 Z"/></g>
<g><path style="opacity:0.993" fill="#81d4cd" d="M 2055.5,2189.5 C 2056.83,2189.5 2058.17,2189.5 2059.5,2189.5C 2064.23,2325.8 2068.4,2462.14 2072,2598.5C 2073.02,2602.44 2073.52,2606.44 2073.5,2610.5C 2071.7,2611.46 2069.7,2612.12 2067.5,2612.5C 2064.99,2528.84 2062.82,2445.17 2061,2361.5C 2059.35,2325.5 2057.68,2289.5 2056,2253.5C 2055.5,2232.17 2055.33,2210.84 2055.5,2189.5 Z"/></g>
<g><path style="opacity:0.989" fill="#82d4cd" d="M 2235.5,2188.5 C 2235.84,2222.83 2236.34,2257.17 2237,2291.5C 2238.85,2342.49 2240.52,2393.49 2242,2444.5C 2242.5,2502.17 2242.67,2559.83 2242.5,2617.5C 2240.83,2617.5 2239.17,2617.5 2237.5,2617.5C 2236.41,2511.17 2235.24,2404.84 2234,2298.5C 2232.04,2269.87 2231.04,2241.2 2231,2212.5C 2230.6,2205.07 2229.77,2197.73 2228.5,2190.5C 2230.6,2189.39 2232.93,2188.72 2235.5,2188.5 Z"/></g>
<g><path style="opacity:0.994" fill="#82d4cd" d="M 865.5,2190.5 C 866.833,2190.5 868.167,2190.5 869.5,2190.5C 870.819,2235.16 872.319,2279.83 874,2324.5C 874.022,2372.01 874.189,2419.51 874.5,2467C 873.275,2507.18 871.608,2547.35 869.5,2587.5C 867.833,2587.5 866.167,2587.5 864.5,2587.5C 865.58,2523.64 867.247,2459.81 869.5,2396C 869.182,2327.48 867.848,2258.98 865.5,2190.5 Z"/></g>
<g><path style="opacity:0.989" fill="#80d3cc" d="M 2166.5,2190.5 C 2168.17,2190.5 2169.83,2190.5 2171.5,2190.5C 2173.57,2219.79 2174.74,2249.12 2175,2278.5C 2175.33,2370.5 2175.67,2462.5 2176,2554.5C 2178.01,2573.89 2177.85,2593.23 2175.5,2612.5C 2174.83,2612.5 2174.17,2612.5 2173.5,2612.5C 2172.19,2590.52 2171.36,2568.52 2171,2546.5C 2170.66,2460.83 2170.66,2375.17 2171,2289.5C 2169.96,2256.46 2168.46,2223.46 2166.5,2190.5 Z"/></g>
<g><path style="opacity:1" fill="#ccedeb" d="M 2171.5,2190.5 C 2190.5,2190.5 2209.5,2190.5 2228.5,2190.5C 2229.77,2197.73 2230.6,2205.07 2231,2212.5C 2231.04,2241.2 2232.04,2269.87 2234,2298.5C 2235.24,2404.84 2236.41,2511.17 2237.5,2617.5C 2216.71,2615.83 2196.04,2614.16 2175.5,2612.5C 2177.85,2593.23 2178.01,2573.89 2176,2554.5C 2175.67,2462.5 2175.33,2370.5 2175,2278.5C 2174.74,2249.12 2173.57,2219.79 2171.5,2190.5 Z"/></g>
<g><path style="opacity:1" fill="#ccedeb" d="M 800.5,2191.5 C 800.667,2238.17 800.5,2284.83 800,2331.5C 795.725,2404.22 790.725,2476.89 785,2549.5C 784.5,2562.16 784.333,2574.83 784.5,2587.5C 755.152,2588.85 725.819,2590.52 696.5,2592.5C 696.709,2591.08 697.209,2589.74 698,2588.5C 698.5,2456.5 698.667,2324.5 698.5,2192.5C 732.503,2192.39 766.503,2192.05 800.5,2191.5 Z"/></g>
<g><path style="opacity:0.996" fill="#80d3cd" d="M 800.5,2191.5 C 802.167,2191.5 803.833,2191.5 805.5,2191.5C 807.851,2240.83 807.684,2290.16 805,2339.5C 798.772,2422.12 793.272,2504.78 788.5,2587.5C 787.167,2587.5 785.833,2587.5 784.5,2587.5C 784.333,2574.83 784.5,2562.16 785,2549.5C 790.725,2476.89 795.725,2404.22 800,2331.5C 800.5,2284.83 800.667,2238.17 800.5,2191.5 Z"/></g>
<g><path style="opacity:0.999" fill="#ccedeb" d="M 865.5,2190.5 C 867.848,2258.98 869.182,2327.48 869.5,2396C 867.247,2459.81 865.58,2523.64 864.5,2587.5C 839.167,2587.5 813.833,2587.5 788.5,2587.5C 793.272,2504.78 798.772,2422.12 805,2339.5C 807.684,2290.16 807.851,2240.83 805.5,2191.5C 825.516,2192.63 845.516,2192.3 865.5,2190.5 Z"/></g>
<g><path style="opacity:0.999" fill="#7ed3cc" d="M 694.5,2192.5 C 695.833,2192.5 697.167,2192.5 698.5,2192.5C 698.667,2324.5 698.5,2456.5 698,2588.5C 697.209,2589.74 696.709,2591.08 696.5,2592.5C 695.833,2592.5 695.167,2592.5 694.5,2592.5C 694.5,2459.17 694.5,2325.83 694.5,2192.5 Z"/></g>
<g><path style="opacity:1" fill="#81d3cb" d="M 1614.5,2243.5 C 1629.09,2242.93 1636.26,2249.93 1636,2264.5C 1635.42,2272.19 1631.59,2277.36 1624.5,2280C 1607.66,2282.49 1599.83,2275.32 1601,2258.5C 1603.26,2251.41 1607.76,2246.41 1614.5,2243.5 Z"/></g>
<g><path style="opacity:0.608" fill="#fff6ed" d="M 1435.5,2600.5 C 1443.83,2599.83 1452.33,2599.5 1461,2599.5C 1531.71,2600.87 1602.21,2603.53 1672.5,2607.5C 1593.5,2605.1 1514.5,2602.77 1435.5,2600.5 Z"/></g>
</svg>
