<?xml version="1.0" encoding="UTF-8"?>
<!DOCTYPE svg PUBLIC "-//W3C//DTD SVG 1.1//EN" "http://www.w3.org/Graphics/SVG/1.1/DTD/svg11.dtd">
<svg xmlns="http://www.w3.org/2000/svg" version="1.1" width="3000px" height="3000px" style="shape-rendering:geometricPrecision; text-rendering:geometricPrecision; image-rendering:optimizeQuality; fill-rule:evenodd; clip-rule:evenodd" xmlns:xlink="http://www.w3.org/1999/xlink">
<g><path style="opacity:1" fill="#f0521b" d="M 2564.5,654.5 C 2563.13,654.657 2561.79,654.49 2560.5,654C 2485.62,617.787 2419.79,569.287 2363,508.5C 2359.62,504.625 2356.45,500.625 2353.5,496.5C 2397.38,475.058 2441.38,453.892 2485.5,433C 2466.91,425.567 2447.58,421.567 2427.5,421C 2405.78,420.033 2384.11,420.7 2362.5,423C 2344,425.334 2325.67,428.5 2307.5,432.5C 2299.85,420.202 2293.52,407.202 2288.5,393.5C 2336.29,380.119 2384.96,376.285 2434.5,382C 2508.38,394.35 2552.88,437.183 2568,510.5C 2575.87,558.708 2574.7,606.708 2564.5,654.5 Z"/></g>
<g><path style="opacity:1" fill="#eda428" d="M 2288.5,393.5 C 2293.52,407.202 2299.85,420.202 2307.5,432.5C 2307.5,432.833 2307.5,433.167 2307.5,433.5C 2267.66,441.392 2228.99,453.225 2191.5,469C 2148.65,488.089 2106.99,509.256 2066.5,532.5C 2066.17,532.5 2065.83,532.5 2065.5,532.5C 2059.23,521.719 2052.73,511.052 2046,500.5C 2044.59,498.35 2043.76,496.016 2043.5,493.5C 2107.53,457.489 2174.53,427.989 2244.5,405C 2258.99,400.445 2273.66,396.612 2288.5,393.5 Z"/></g>
<g><path style="opacity:1" fill="#f58612" d="M 2353.5,496.5 C 2353.17,496.5 2352.83,496.5 2352.5,496.5C 2336.26,476.343 2321.26,455.343 2307.5,433.5C 2307.5,433.167 2307.5,432.833 2307.5,432.5C 2325.67,428.5 2344,425.334 2362.5,423C 2384.11,420.7 2405.78,420.033 2427.5,421C 2447.58,421.567 2466.91,425.567 2485.5,433C 2441.38,453.892 2397.38,475.058 2353.5,496.5 Z"/></g>
<g><path style="opacity:1" fill="#f5c751" d="M 2307.5,433.5 C 2321.26,455.343 2336.26,476.343 2352.5,496.5C 2276.57,534.797 2201.24,574.13 2126.5,614.5C 2104.55,588.595 2084.55,561.262 2066.5,532.5C 2106.99,509.256 2148.65,488.089 2191.5,469C 2228.99,453.225 2267.66,441.392 2307.5,433.5 Z"/></g>
<g><path style="opacity:0.99" fill="#b2e5d8" d="M 2043.5,493.5 C 2043.76,496.016 2044.59,498.35 2046,500.5C 2052.73,511.052 2059.23,521.719 2065.5,532.5C 1979.15,582.005 1893.15,632.172 1807.5,683C 1733.91,729.33 1665.58,782.663 1602.5,843C 1559.23,884.596 1517.73,927.763 1478,972.5C 1474.53,976.12 1471.7,980.12 1469.5,984.5C 1469.17,984.5 1468.83,984.5 1468.5,984.5C 1466.78,974.491 1464.94,964.491 1463,954.5C 1460.96,956.706 1458.8,958.706 1456.5,960.5C 1612.47,790.193 1788.47,645.36 1984.5,526C 2003.9,514.635 2023.57,503.801 2043.5,493.5 Z"/></g>
<g><path style="opacity:1" fill="#eda427" d="M 2352.5,496.5 C 2352.83,496.5 2353.17,496.5 2353.5,496.5C 2356.45,500.625 2359.62,504.625 2363,508.5C 2419.79,569.287 2485.62,617.787 2560.5,654C 2561.79,654.49 2563.13,654.657 2564.5,654.5C 2546.42,742.088 2517.42,825.755 2477.5,905.5C 2342.01,831.72 2225.01,735.053 2126.5,615.5C 2126.5,615.167 2126.5,614.833 2126.5,614.5C 2201.24,574.13 2276.57,534.797 2352.5,496.5 Z"/></g>
<g><path style="opacity:1" fill="#d4f0e9" d="M 2065.5,532.5 C 2065.83,532.5 2066.17,532.5 2066.5,532.5C 2084.55,561.262 2104.55,588.595 2126.5,614.5C 2126.5,614.833 2126.5,615.167 2126.5,615.5C 1985.73,689.69 1851.06,773.19 1722.5,866C 1644.55,926.779 1568.21,989.613 1493.5,1054.5C 1482.71,1032.22 1474.71,1008.89 1469.5,984.5C 1471.7,980.12 1474.53,976.12 1478,972.5C 1517.73,927.763 1559.23,884.596 1602.5,843C 1665.58,782.663 1733.91,729.33 1807.5,683C 1893.15,632.172 1979.15,582.005 2065.5,532.5 Z"/></g>
<g><path style="opacity:0.999" fill="#b2e4d7" d="M 2126.5,615.5 C 2225.01,735.053 2342.01,831.72 2477.5,905.5C 2439.52,985.149 2396.69,1061.82 2349,1135.5C 2261.47,1269.92 2161.63,1394.92 2049.5,1510.5C 1925.05,1471.79 1812.39,1411.96 1711.5,1331C 1641.15,1271.35 1580.98,1203.18 1531,1126.5C 1516.93,1103.7 1504.43,1080.03 1493.5,1055.5C 1493.5,1055.17 1493.5,1054.83 1493.5,1054.5C 1568.21,989.613 1644.55,926.779 1722.5,866C 1851.06,773.19 1985.73,689.69 2126.5,615.5 Z"/></g>
<g><path style="opacity:1" fill="#f0511b" d="M 1979.5,792.5 C 2028.15,788.909 2072.48,800.742 2112.5,828C 2167.85,873.339 2192.02,931.839 2185,1003.5C 2170,1098.71 2119.16,1167.21 2032.5,1209C 1982.44,1230.77 1931.11,1234.44 1878.5,1220C 1812.85,1196.01 1772.35,1149.84 1757,1081.5C 1747.29,1025.12 1756.62,972.122 1785,922.5C 1829.13,848.341 1893.96,805.008 1979.5,792.5 Z"/></g>
<g><path style="opacity:1" fill="#ca4316" d="M 1973.5,812.5 C 1990.86,811.695 1997.36,819.695 1993,836.5C 1986.7,847.741 1977.53,851.241 1965.5,847C 1957.57,839.472 1956.41,830.972 1962,821.5C 1965.16,817.491 1968.99,814.491 1973.5,812.5 Z"/></g>
<g><path style="opacity:1" fill="#ca4316" d="M 2098.5,852.5 C 2113.84,851.172 2120.67,858.172 2119,873.5C 2112.14,888.949 2101.48,892.616 2087,884.5C 2079.83,869.846 2083.66,859.179 2098.5,852.5 Z"/></g>
<g><path style="opacity:1" fill="#2f3d3e" d="M 1979.5,859.5 C 2021.79,857.532 2057.63,871.532 2087,901.5C 2115.32,936.443 2124.98,976.109 2116,1020.5C 2099.5,1088 2058.33,1132.83 1992.5,1155C 1949.75,1167.84 1909.75,1162.18 1872.5,1138C 1843.25,1115.7 1826.08,1086.2 1821,1049.5C 1817.43,979.473 1844.6,924.973 1902.5,886C 1926.27,871.246 1951.93,862.413 1979.5,859.5 Z"/></g>
<g><path style="opacity:1" fill="#ca4316" d="M 1845.5,877.5 C 1857.9,875.916 1864.57,881.249 1865.5,893.5C 1865.82,901.02 1862.82,906.854 1856.5,911C 1841.8,918.147 1832.8,913.814 1829.5,898C 1830.91,887.976 1836.24,881.143 1845.5,877.5 Z"/></g>
<g><path style="opacity:1" fill="#364649" d="M 1902.5,894.5 C 1903.24,894.369 1903.91,894.536 1904.5,895C 1860.64,942.34 1849.47,996.507 1871,1057.5C 1897.6,1111.08 1941.1,1137.58 2001.5,1137C 1956.29,1152.62 1914.63,1146.28 1876.5,1118C 1848.77,1092.52 1834.77,1060.85 1834.5,1023C 1837.59,969.637 1860.26,926.803 1902.5,894.5 Z"/></g>
<g><path style="opacity:0.997" fill="#255f7d" d="M 1468.5,984.5 C 1426.27,1032.72 1385.94,1082.38 1347.5,1133.5C 1343.5,1122.49 1339.5,1111.49 1335.5,1100.5C 1356.9,1074.05 1378.07,1047.38 1399,1020.5C 1417.67,999.998 1436.84,979.998 1456.5,960.5C 1458.8,958.706 1460.96,956.706 1463,954.5C 1464.94,964.491 1466.78,974.491 1468.5,984.5 Z"/></g>
<g><path style="opacity:1" fill="#ca4316" d="M 2148.5,974.5 C 2162.53,974.694 2168.36,981.694 2166,995.5C 2160.35,1009.82 2150.51,1013.99 2136.5,1008C 2127.37,996.057 2129.04,985.723 2141.5,977C 2144,976.302 2146.34,975.469 2148.5,974.5 Z"/></g>
<g><path style="opacity:1" fill="#4a88a8" d="M 1468.5,984.5 C 1468.83,984.5 1469.17,984.5 1469.5,984.5C 1474.71,1008.89 1482.71,1032.22 1493.5,1054.5C 1493.5,1054.83 1493.5,1055.17 1493.5,1055.5C 1448.94,1093.72 1405.61,1133.39 1363.5,1174.5C 1363.17,1174.5 1362.83,1174.5 1362.5,1174.5C 1357.3,1161.57 1352.3,1148.57 1347.5,1135.5C 1347.5,1134.83 1347.5,1134.17 1347.5,1133.5C 1385.94,1082.38 1426.27,1032.72 1468.5,984.5 Z"/></g>
<g><path style="opacity:1" fill="#ca4316" d="M 1786.5,1010.5 C 1806.56,1009.94 1812.72,1018.94 1805,1037.5C 1795.81,1048.18 1785.81,1049.18 1775,1040.5C 1769.63,1026.91 1773.46,1016.91 1786.5,1010.5 Z"/></g>
<g><path style="opacity:1" fill="#255f7d" d="M 1493.5,1055.5 C 1504.43,1080.03 1516.93,1103.7 1531,1126.5C 1580.98,1203.18 1641.15,1271.35 1711.5,1331C 1812.39,1411.96 1925.05,1471.79 2049.5,1510.5C 2030.71,1531.13 2011.71,1551.63 1992.5,1572C 1965.47,1595.84 1938.47,1619.67 1911.5,1643.5C 1854.44,1630.31 1800.11,1609.81 1748.5,1582C 1664.22,1534.88 1588.72,1476.05 1522,1405.5C 1468.9,1350.75 1423.9,1290.09 1387,1223.5C 1378.61,1207.39 1370.78,1191.05 1363.5,1174.5C 1405.61,1133.39 1448.94,1093.72 1493.5,1055.5 Z"/></g>
<g><path style="opacity:0.999" fill="#b2e4d7" d="M 1335.5,1100.5 C 1339.5,1111.49 1343.5,1122.49 1347.5,1133.5C 1347.5,1134.17 1347.5,1134.83 1347.5,1135.5C 1304.49,1191.86 1264.16,1250.2 1226.5,1310.5C 1226.67,1310.83 1226.83,1311.17 1227,1311.5C 1245.3,1291.53 1263.97,1271.86 1283,1252.5C 1309.65,1226.69 1336.15,1200.69 1362.5,1174.5C 1362.83,1174.5 1363.17,1174.5 1363.5,1174.5C 1370.78,1191.05 1378.61,1207.39 1387,1223.5C 1423.9,1290.09 1468.9,1350.75 1522,1405.5C 1588.72,1476.05 1664.22,1534.88 1748.5,1582C 1800.11,1609.81 1854.44,1630.31 1911.5,1643.5C 1850.88,1698.14 1788.21,1750.14 1723.5,1799.5C 1716.94,1803.07 1710.94,1807.4 1705.5,1812.5C 1688.47,1824.01 1671.81,1836.01 1655.5,1848.5C 1599.59,1886.85 1541.93,1922.69 1482.5,1956C 1465.75,1965.04 1448.75,1973.54 1431.5,1981.5C 1380.19,1955.53 1330.86,1926.53 1283.5,1894.5C 1389.64,1800.53 1495.97,1706.7 1602.5,1613C 1631.56,1582.95 1635.72,1549.78 1615,1513.5C 1609.49,1505.14 1603.49,1497.14 1597,1489.5C 1577.41,1468.9 1556.91,1449.4 1535.5,1431C 1522.58,1420.37 1508.24,1412.03 1492.5,1406C 1472.74,1399.89 1453.74,1401.56 1435.5,1411C 1421.74,1419.46 1410.24,1430.29 1401,1443.5C 1313.64,1554.35 1226.14,1665.02 1138.5,1775.5C 1091.2,1722.48 1053.53,1663.15 1025.5,1597.5C 1049.14,1541.56 1075.97,1487.23 1106,1434.5C 1119.19,1412.11 1132.36,1389.78 1145.5,1367.5C 1157.19,1350.46 1168.53,1333.13 1179.5,1315.5C 1183.76,1309.31 1187.76,1302.97 1191.5,1296.5C 1236.8,1229.2 1284.8,1163.87 1335.5,1100.5 Z"/></g>
<g><path style="opacity:1" fill="#ca4316" d="M 2090.5,1106.5 C 2104.31,1106.81 2110.47,1113.81 2109,1127.5C 2103.53,1141.65 2093.7,1146.15 2079.5,1141C 2072.47,1133.22 2071.64,1124.72 2077,1115.5C 2080.87,1111.33 2085.37,1108.33 2090.5,1106.5 Z"/></g>
<g><path style="opacity:1" fill="#ca4316" d="M 1834.5,1132.5 C 1853.27,1132.11 1859.44,1140.78 1853,1158.5C 1846.67,1167.72 1838.17,1170.55 1827.5,1167C 1818.79,1159.9 1817.29,1151.4 1823,1141.5C 1826.16,1137.49 1829.99,1134.49 1834.5,1132.5 Z"/></g>
<g><path style="opacity:1" fill="#d4f0e9" d="M 1347.5,1135.5 C 1352.3,1148.57 1357.3,1161.57 1362.5,1174.5C 1336.15,1200.69 1309.65,1226.69 1283,1252.5C 1263.97,1271.86 1245.3,1291.53 1227,1311.5C 1226.83,1311.17 1226.67,1310.83 1226.5,1310.5C 1264.16,1250.2 1304.49,1191.86 1347.5,1135.5 Z"/></g>
<g><path style="opacity:1" fill="#ca4316" d="M 1958.5,1172.5 C 1976.33,1171.16 1983.17,1179.16 1979,1196.5C 1972.34,1208.05 1962.84,1211.22 1950.5,1206C 1942.55,1196.74 1942.55,1187.4 1950.5,1178C 1953.07,1175.91 1955.74,1174.08 1958.5,1172.5 Z"/></g>
<g><path style="opacity:0.998" fill="#f0511b" d="M 1191.5,1296.5 C 1187.76,1302.97 1183.76,1309.31 1179.5,1315.5C 1036.67,1282.23 908.668,1311.73 795.5,1404C 771.2,1424.63 748.533,1446.97 727.5,1471C 743.449,1457.82 759.782,1444.82 776.5,1432C 889.109,1352.79 1012.11,1331.29 1145.5,1367.5C 1132.36,1389.78 1119.19,1412.11 1106,1434.5C 1075.97,1487.23 1049.14,1541.56 1025.5,1597.5C 1019.62,1611.82 1013.95,1626.16 1008.5,1640.5C 861.166,1635.12 738,1686.45 639,1794.5C 622.791,1813.04 606.957,1831.87 591.5,1851C 581.815,1858.97 570.815,1861.8 558.5,1859.5C 555.706,1857.18 553.872,1854.18 553,1850.5C 548.672,1832.59 548.339,1814.59 552,1796.5C 558.402,1759.96 568.069,1724.29 581,1689.5C 608.069,1614.7 643.069,1544.03 686,1477.5C 732.428,1415.39 789.595,1365.89 857.5,1329C 943.894,1284.38 1035.23,1269.38 1131.5,1284C 1151.77,1287.09 1171.77,1291.25 1191.5,1296.5 Z"/></g>
<g><path style="opacity:1" fill="#f58612" d="M 1179.5,1315.5 C 1168.53,1333.13 1157.19,1350.46 1145.5,1367.5C 1012.11,1331.29 889.109,1352.79 776.5,1432C 759.782,1444.82 743.449,1457.82 727.5,1471C 748.533,1446.97 771.2,1424.63 795.5,1404C 908.668,1311.73 1036.67,1282.23 1179.5,1315.5 Z"/></g>
<g><path style="opacity:1" fill="#f0511b" d="M 1283.5,1894.5 C 1254.51,1919.49 1225.84,1944.82 1197.5,1970.5C 1169.98,1995.08 1142.31,2019.41 1114.5,2043.5C 1074.46,2079.18 1034.46,2114.84 994.5,2150.5C 938.687,2199.47 882.687,2248.31 826.5,2297C 799.189,2307.61 779.355,2299.44 767,2272.5C 765.108,2265.15 765.108,2257.82 767,2250.5C 769.412,2245.34 772.079,2240.34 775,2235.5C 841.381,2151.96 907.547,2068.29 973.5,1984.5C 1005.07,1945.02 1036.41,1905.35 1067.5,1865.5C 1091.64,1835.9 1115.3,1805.9 1138.5,1775.5C 1226.14,1665.02 1313.64,1554.35 1401,1443.5C 1410.24,1430.29 1421.74,1419.46 1435.5,1411C 1453.74,1401.56 1472.74,1399.89 1492.5,1406C 1508.24,1412.03 1522.58,1420.37 1535.5,1431C 1556.91,1449.4 1577.41,1468.9 1597,1489.5C 1603.49,1497.14 1609.49,1505.14 1615,1513.5C 1635.72,1549.78 1631.56,1582.95 1602.5,1613C 1495.97,1706.7 1389.64,1800.53 1283.5,1894.5 Z"/></g>
<g><path style="opacity:1" fill="#f58612" d="M 1449.5,1416.5 C 1458.88,1416.22 1468.21,1416.72 1477.5,1418C 1496.13,1423.99 1512.79,1433.32 1527.5,1446C 1549.27,1464.43 1569.77,1484.27 1589,1505.5C 1601,1519.51 1609.34,1535.51 1614,1553.5C 1614.91,1562.24 1614.58,1570.91 1613,1579.5C 1605.3,1563.48 1595.63,1548.81 1584,1535.5C 1551.29,1500.11 1516.12,1467.61 1478.5,1438C 1467.39,1430.11 1455.39,1423.77 1442.5,1419C 1444.93,1418.1 1447.26,1417.26 1449.5,1416.5 Z"/></g>
<g><path style="opacity:1" fill="#265f7c" d="M 1025.5,1597.5 C 1053.53,1663.15 1091.2,1722.48 1138.5,1775.5C 1115.3,1805.9 1091.64,1835.9 1067.5,1865.5C 1065.73,1862.94 1063.73,1860.61 1061.5,1858.5C 1037.9,1831.66 1019.07,1801.66 1005,1768.5C 1001.19,1757.91 997.687,1747.24 994.5,1736.5C 993.265,1728.35 991.932,1720.35 990.5,1712.5C 990.334,1708.49 990.501,1704.49 991,1700.5C 993.171,1691.81 995.338,1683.15 997.5,1674.5C 1001.54,1663.39 1005.2,1652.05 1008.5,1640.5C 1013.95,1626.16 1019.62,1611.82 1025.5,1597.5 Z"/></g>
<g><path style="opacity:1" fill="#ca4315" d="M 1008.5,1640.5 C 1005.2,1652.05 1001.54,1663.39 997.5,1674.5C 885.753,1674.12 788.087,1710.29 704.5,1783C 675.767,1809.06 649.934,1837.56 627,1868.5C 608.594,1888.36 589.094,1889.52 568.5,1872C 564.789,1868.05 561.456,1863.88 558.5,1859.5C 570.815,1861.8 581.815,1858.97 591.5,1851C 606.957,1831.87 622.791,1813.04 639,1794.5C 738,1686.45 861.166,1635.12 1008.5,1640.5 Z"/></g>
<g><path style="opacity:1" fill="#ca4316" d="M 1337.5,1650.5 C 1345.7,1649.46 1353.37,1650.96 1360.5,1655C 1371.09,1662.26 1379.59,1671.42 1386,1682.5C 1389.1,1695.22 1386.76,1706.89 1379,1717.5C 1376,1721.5 1373,1725.5 1370,1729.5C 1209.12,1886.01 1047.96,2042.18 886.5,2198C 879.794,2204.37 872.794,2210.37 865.5,2216C 852.387,2222.87 846.22,2219.04 847,2204.5C 849.147,2199.54 851.814,2194.87 855,2190.5C 1004.04,2019.13 1152.71,1847.46 1301,1675.5C 1311.22,1664.08 1323.39,1655.74 1337.5,1650.5 Z"/></g>
<g><path style="opacity:0.996" fill="#f9ba17" d="M 990.5,1712.5 C 991.932,1720.35 993.265,1728.35 994.5,1736.5C 984.929,1743.9 975.762,1751.9 967,1760.5C 961.617,1766.76 956.117,1772.93 950.5,1779C 951.167,1779.33 951.833,1779.67 952.5,1780C 929.893,1809.95 902.893,1834.95 871.5,1855C 854.833,1868.33 838.167,1881.67 821.5,1895C 785.399,1927.1 749.899,1959.93 715,1993.5C 714.383,1994.45 714.549,1995.28 715.5,1996C 713.362,1997.42 712.195,1999.25 712,2001.5C 712.75,2000.87 713.584,2000.37 714.5,2000C 728.771,1987.49 742.771,1975.32 756.5,1963.5C 747.484,1972.68 738.651,1982.02 730,1991.5C 725.127,1998.08 720.627,2004.91 716.5,2012C 718.833,2012.67 721.167,2012.67 723.5,2012C 732.228,2006.63 740.228,2000.3 747.5,1993C 748.167,1992.33 748.833,1992.33 749.5,1993C 737.96,2005.54 726.794,2018.37 716,2031.5C 715.626,2032.42 715.126,2033.25 714.5,2034C 714.833,2034.17 715.167,2034.33 715.5,2034.5C 731.272,2022.23 746.605,2009.4 761.5,1996C 781.787,1980.71 801.787,1965.05 821.5,1949C 830.098,1943.12 838.931,1937.62 848,1932.5C 848.5,1932.67 849,1932.83 849.5,1933C 843.386,1938.59 838.72,1945.09 835.5,1952.5C 839.781,1951.86 843.781,1950.36 847.5,1948C 865.652,1937.51 882.985,1925.84 899.5,1913C 911.167,1905.5 922.833,1898 934.5,1890.5C 934.833,1890.83 935.167,1891.17 935.5,1891.5C 930.052,1898.45 924.052,1904.95 917.5,1911C 923.986,1907.41 930.653,1903.75 937.5,1900C 939.134,1899.51 940.801,1899.34 942.5,1899.5C 942.662,1901.53 942.495,1903.53 942,1905.5C 938.533,1911.44 935.366,1917.44 932.5,1923.5C 933.833,1923.5 935.167,1923.5 936.5,1923.5C 935.428,1927.47 933.428,1930.97 930.5,1934C 931.167,1934.67 931.833,1934.67 932.5,1934C 959.761,1911.7 988.428,1891.37 1018.5,1873C 1019.94,1872.22 1021.28,1872.39 1022.5,1873.5C 1020.54,1877.26 1018.21,1880.76 1015.5,1884C 1015.83,1884.17 1016.17,1884.33 1016.5,1884.5C 1019.37,1882.47 1022.37,1880.63 1025.5,1879C 1033.18,1879.49 1039.84,1877.16 1045.5,1872C 1051.32,1868.01 1056.65,1863.51 1061.5,1858.5C 1063.73,1860.61 1065.73,1862.94 1067.5,1865.5C 1036.41,1905.35 1005.07,1945.02 973.5,1984.5C 959.79,1989.35 946.79,1995.85 934.5,2004C 932.162,2004.84 929.828,2005.67 927.5,2006.5C 924.148,2005.78 923.648,2004.12 926,2001.5C 937.898,1990.27 949.065,1978.44 959.5,1966C 958.5,1965.33 957.5,1965.33 956.5,1966C 949.833,1970.33 943.167,1974.67 936.5,1979C 935.5,1979.67 934.5,1979.67 933.5,1979C 934.696,1978.35 934.696,1977.85 933.5,1977.5C 908.741,1995.42 884.407,2013.92 860.5,2033C 843.722,2042.94 827.055,2053.1 810.5,2063.5C 809.592,2062.21 809.759,2060.88 811,2059.5C 814.333,2055.5 817.667,2051.5 821,2047.5C 828.334,2034.83 836.167,2022.5 844.5,2010.5C 842.235,2009.35 839.902,2009.19 837.5,2010C 829.291,2024.26 820.457,2038.09 811,2051.5C 790.238,2076.69 769.238,2101.69 748,2126.5C 743.754,2131.99 739.754,2137.66 736,2143.5C 735.506,2145.13 735.34,2146.8 735.5,2148.5C 739.362,2147.57 743.029,2146.07 746.5,2144C 780.31,2120.2 812.977,2094.86 844.5,2068C 851.833,2062.67 859.167,2057.33 866.5,2052C 869.54,2049.78 872.873,2048.28 876.5,2047.5C 876.649,2048.55 876.483,2049.55 876,2050.5C 860.075,2069.76 843.408,2088.43 826,2106.5C 821.2,2113.77 817.2,2121.43 814,2129.5C 790.731,2155.44 766.731,2180.77 742,2205.5C 725.911,2223.58 710.578,2242.25 696,2261.5C 693.495,2265.01 691.661,2268.84 690.5,2273C 690.555,2275.89 692.055,2277.06 695,2276.5C 700.016,2275.61 704.85,2274.11 709.5,2272C 718.629,2267.03 727.629,2261.87 736.5,2256.5C 736.833,2257 737.167,2257.5 737.5,2258C 734.468,2264.36 730.635,2270.2 726,2275.5C 705.206,2297.95 685.539,2321.29 667,2345.5C 666.251,2346.64 666.417,2347.64 667.5,2348.5C 675.188,2344.64 682.188,2339.81 688.5,2334C 689.448,2333.52 690.448,2333.35 691.5,2333.5C 691.239,2340.71 690.573,2347.87 689.5,2355C 689.569,2358.04 689.902,2361.04 690.5,2364C 686.513,2368.66 682.513,2373.32 678.5,2378C 679.899,2378.59 681.232,2378.43 682.5,2377.5C 683.521,2378 683.688,2378.67 683,2379.5C 639.248,2422.25 595.748,2465.42 552.5,2509C 520.048,2538.62 488.381,2569.12 457.5,2600.5C 457.667,2600.83 457.833,2601.17 458,2601.5C 470.368,2593.63 482.868,2585.97 495.5,2578.5C 496.167,2579.5 496.833,2580.5 497.5,2581.5C 530.805,2556.36 564.805,2532.2 599.5,2509C 602.561,2506.97 605.895,2505.8 609.5,2505.5C 609.736,2508.23 608.903,2510.56 607,2512.5C 601.186,2518.8 595.853,2525.47 591,2532.5C 589.872,2534.35 589.372,2536.35 589.5,2538.5C 595.988,2537.84 601.821,2535.5 607,2531.5C 608.049,2532.52 609.216,2532.68 610.5,2532C 641.532,2507.81 672.199,2483.15 702.5,2458C 740.206,2426.47 777.539,2394.47 814.5,2362C 813.5,2361.67 812.5,2361.33 811.5,2361C 855.197,2314.3 900.53,2269.3 947.5,2226C 951.698,2222.97 956.032,2220.14 960.5,2217.5C 962.098,2218.48 963.765,2218.65 965.5,2218C 988.876,2205.32 1011.21,2191.15 1032.5,2175.5C 1027.97,2183.54 1022.81,2191.21 1017,2198.5C 998.867,2218.29 981.867,2238.96 966,2260.5C 965.517,2261.45 965.351,2262.45 965.5,2263.5C 967.993,2262.77 970.326,2261.94 972.5,2261C 960.287,2272.29 950.12,2285.12 942,2299.5C 915.292,2327.2 890.459,2356.36 867.5,2387C 872.31,2384.92 876.977,2382.25 881.5,2379C 899.384,2366.23 917.384,2353.73 935.5,2341.5C 919.506,2357.66 903.673,2373.99 888,2390.5C 882.836,2398.82 877.169,2406.82 871,2414.5C 869.759,2415.88 869.592,2417.21 870.5,2418.5C 897.853,2394.14 925.187,2369.81 952.5,2345.5C 951.276,2348.5 951.276,2351.5 952.5,2354.5C 954.074,2355.63 955.741,2355.8 957.5,2355C 964.456,2351.86 971.123,2348.19 977.5,2344C 980.968,2342.92 983.968,2343.59 986.5,2346C 991.058,2345.71 995.391,2344.37 999.5,2342C 1004.17,2338.67 1008.83,2335.33 1013.5,2332C 1014.44,2331.31 1015.1,2331.47 1015.5,2332.5C 1001.67,2345.17 986.837,2356.5 971,2366.5C 970.5,2366.17 970,2365.83 969.5,2365.5C 970.833,2364.38 971.333,2363.05 971,2361.5C 953.022,2377.15 934.189,2391.65 914.5,2405C 908.37,2408.74 901.704,2410.41 894.5,2410C 889.987,2411.28 885.654,2412.95 881.5,2415C 872.563,2420.27 863.897,2425.94 855.5,2432C 825.061,2456.05 793.394,2478.39 760.5,2499C 753.022,2503.24 745.356,2507.24 737.5,2511C 719.911,2517.86 702.244,2524.53 684.5,2531C 664.53,2547.29 643.197,2561.63 620.5,2574C 616.928,2575.4 613.261,2575.74 609.5,2575C 607.32,2572.14 605.32,2569.14 603.5,2566C 600.944,2564.56 598.278,2564.56 595.5,2566C 575.508,2575.99 556.841,2587.99 539.5,2602C 537.412,2603.03 535.245,2603.86 533,2604.5C 531.268,2604.27 530.434,2603.27 530.5,2601.5C 533.129,2595.25 535.462,2588.92 537.5,2582.5C 532.052,2583.56 527.052,2585.72 522.5,2589C 499.671,2604.25 476.671,2619.25 453.5,2634C 434.64,2646.26 416.306,2659.26 398.5,2673C 380.789,2685.53 362.122,2696.53 342.5,2706C 338.342,2707.65 334.175,2707.82 330,2706.5C 329.333,2703.83 329.333,2701.17 330,2698.5C 336.309,2685.21 343.643,2672.54 352,2660.5C 355.386,2651.39 360.052,2643.06 366,2635.5C 408.532,2595.3 451.366,2555.47 494.5,2516C 494.167,2515.67 493.833,2515.33 493.5,2515C 516.031,2494.14 537.531,2472.3 558,2449.5C 560.366,2445.96 562.533,2442.3 564.5,2438.5C 564.291,2437.91 563.957,2437.41 563.5,2437C 559.5,2436.67 555.5,2436.33 551.5,2436C 550.549,2435.28 550.383,2434.45 551,2433.5C 566.657,2418.52 580.823,2402.35 593.5,2385C 591.833,2384.33 590.167,2384.33 588.5,2385C 572.5,2393.67 556.5,2402.33 540.5,2411C 529.843,2415.37 527.676,2412.54 534,2402.5C 541.576,2393.01 548.909,2383.35 556,2373.5C 585.716,2339.05 614.716,2304.05 643,2268.5C 648.522,2261.46 653.022,2253.79 656.5,2245.5C 656.113,2244.28 655.28,2243.61 654,2243.5C 637.672,2250.92 622.505,2260.25 608.5,2271.5C 608.167,2271.17 607.833,2270.83 607.5,2270.5C 609.645,2267.23 611.312,2263.73 612.5,2260C 611.863,2257.69 610.363,2256.53 608,2256.5C 602.718,2257.59 597.551,2259.09 592.5,2261C 580.218,2266.98 567.552,2271.98 554.5,2276C 547.333,2278.17 544.833,2275.67 547,2268.5C 549.542,2262.63 552.875,2257.3 557,2252.5C 566.534,2230.63 578.201,2209.97 592,2190.5C 592.566,2186.04 594.233,2182.04 597,2178.5C 616.333,2155.17 635.667,2131.83 655,2108.5C 656.495,2106.89 656.661,2105.22 655.5,2103.5C 657.288,2101.42 658.954,2099.26 660.5,2097C 656.19,2098.65 651.857,2100.65 647.5,2103C 644.274,2104.2 640.941,2104.7 637.5,2104.5C 637.351,2103.45 637.517,2102.45 638,2101.5C 645,2093.83 652,2086.17 659,2078.5C 661.416,2075.34 663.582,2072 665.5,2068.5C 664.635,2067.42 663.635,2067.25 662.5,2068C 654.504,2072 646.838,2076.5 639.5,2081.5C 637.556,2079.72 636.223,2077.55 635.5,2075C 637.359,2070.11 639.859,2065.61 643,2061.5C 655.232,2046.26 668.565,2031.93 683,2018.5C 683.374,2017.58 683.874,2016.75 684.5,2016C 683.446,2014.61 683.28,2013.11 684,2011.5C 699.818,1989.01 717.152,1967.67 736,1947.5C 737.746,1943.67 739.746,1940.01 742,1936.5C 755.814,1920.2 769.147,1903.53 782,1886.5C 796.545,1872.86 810.045,1858.36 822.5,1843C 820.842,1842.27 820.342,1841.11 821,1839.5C 858.569,1800.68 899.735,1766.52 944.5,1737C 950.5,1734.67 956.5,1732.33 962.5,1730C 972.03,1724.41 981.363,1718.57 990.5,1712.5 Z"/></g>
<g><path style="opacity:1" fill="#f36c24" d="M 994.5,1736.5 C 997.687,1747.24 1001.19,1757.91 1005,1768.5C 1019.07,1801.66 1037.9,1831.66 1061.5,1858.5C 1056.65,1863.51 1051.32,1868.01 1045.5,1872C 1039.84,1877.16 1033.18,1879.49 1025.5,1879C 1022.37,1880.63 1019.37,1882.47 1016.5,1884.5C 1016.17,1884.33 1015.83,1884.17 1015.5,1884C 1018.21,1880.76 1020.54,1877.26 1022.5,1873.5C 1021.28,1872.39 1019.94,1872.22 1018.5,1873C 988.428,1891.37 959.761,1911.7 932.5,1934C 931.833,1934.67 931.167,1934.67 930.5,1934C 933.428,1930.97 935.428,1927.47 936.5,1923.5C 935.167,1923.5 933.833,1923.5 932.5,1923.5C 935.366,1917.44 938.533,1911.44 942,1905.5C 942.495,1903.53 942.662,1901.53 942.5,1899.5C 940.801,1899.34 939.134,1899.51 937.5,1900C 930.653,1903.75 923.986,1907.41 917.5,1911C 924.052,1904.95 930.052,1898.45 935.5,1891.5C 935.167,1891.17 934.833,1890.83 934.5,1890.5C 922.833,1898 911.167,1905.5 899.5,1913C 882.985,1925.84 865.652,1937.51 847.5,1948C 843.781,1950.36 839.781,1951.86 835.5,1952.5C 838.72,1945.09 843.386,1938.59 849.5,1933C 849,1932.83 848.5,1932.67 848,1932.5C 838.931,1937.62 830.098,1943.12 821.5,1949C 801.787,1965.05 781.787,1980.71 761.5,1996C 746.605,2009.4 731.272,2022.23 715.5,2034.5C 715.167,2034.33 714.833,2034.17 714.5,2034C 715.126,2033.25 715.626,2032.42 716,2031.5C 726.794,2018.37 737.96,2005.54 749.5,1993C 748.833,1992.33 748.167,1992.33 747.5,1993C 740.228,2000.3 732.228,2006.63 723.5,2012C 721.167,2012.67 718.833,2012.67 716.5,2012C 720.627,2004.91 725.127,1998.08 730,1991.5C 738.651,1982.02 747.484,1972.68 756.5,1963.5C 742.771,1975.32 728.771,1987.49 714.5,2000C 713.584,2000.37 712.75,2000.87 712,2001.5C 712.195,1999.25 713.362,1997.42 715.5,1996C 714.549,1995.28 714.383,1994.45 715,1993.5C 749.899,1959.93 785.399,1927.1 821.5,1895C 838.167,1881.67 854.833,1868.33 871.5,1855C 902.893,1834.95 929.893,1809.95 952.5,1780C 951.833,1779.67 951.167,1779.33 950.5,1779C 956.117,1772.93 961.617,1766.76 967,1760.5C 975.762,1751.9 984.929,1743.9 994.5,1736.5 Z"/></g>
<g><path style="opacity:0.998" fill="#f0511b" d="M 1723.5,1799.5 C 1773.52,1957.74 1748.35,2102.41 1648,2233.5C 1624.91,2263.93 1598.41,2291.09 1568.5,2315C 1482.02,2378.24 1387.35,2426.24 1284.5,2459C 1264.57,2464.88 1244.24,2468.38 1223.5,2469.5C 1213.06,2469.81 1203.39,2467.47 1194.5,2462.5C 1195.04,2462.44 1195.38,2462.11 1195.5,2461.5C 1193.75,2456.29 1193.25,2450.95 1194,2445.5C 1195.95,2438.94 1198.95,2432.94 1203,2427.5C 1235.03,2399.8 1264.7,2369.8 1292,2337.5C 1354.29,2259.33 1386.96,2169.99 1390,2069.5C 1390.69,2046.49 1390.53,2023.49 1389.5,2000.5C 1403.8,1994.68 1417.8,1988.35 1431.5,1981.5C 1448.75,1973.54 1465.75,1965.04 1482.5,1956C 1541.93,1922.69 1599.59,1886.85 1655.5,1848.5C 1702.49,1993.29 1681.66,2127.29 1593,2250.5C 1586.54,2257.83 1580.87,2265.5 1576,2273.5C 1625.18,2226.65 1663.85,2172.32 1692,2110.5C 1731.8,2012.8 1736.3,1913.47 1705.5,1812.5C 1710.94,1807.4 1716.94,1803.07 1723.5,1799.5 Z"/></g>
<g><path style="opacity:1" fill="#f58612" d="M 1705.5,1812.5 C 1736.3,1913.47 1731.8,2012.8 1692,2110.5C 1663.85,2172.32 1625.18,2226.65 1576,2273.5C 1580.87,2265.5 1586.54,2257.83 1593,2250.5C 1681.66,2127.29 1702.49,1993.29 1655.5,1848.5C 1671.81,1836.01 1688.47,1824.01 1705.5,1812.5 Z"/></g>
<g><path style="opacity:1" fill="#265f7c" d="M 1283.5,1894.5 C 1330.86,1926.53 1380.19,1955.53 1431.5,1981.5C 1417.8,1988.35 1403.8,1994.68 1389.5,2000.5C 1378.51,2005.05 1367.51,2009.38 1356.5,2013.5C 1352.22,2014.26 1348.22,2015.59 1344.5,2017.5C 1338.64,2019.45 1332.64,2020.79 1326.5,2021.5C 1280.22,2012.52 1237.22,1995.52 1197.5,1970.5C 1225.84,1944.82 1254.51,1919.49 1283.5,1894.5 Z"/></g>
<g><path style="opacity:1" fill="#ee841d" d="M 973.5,1984.5 C 907.547,2068.29 841.381,2151.96 775,2235.5C 772.079,2240.34 769.412,2245.34 767,2250.5C 765.108,2257.82 765.108,2265.15 767,2272.5C 779.355,2299.44 799.189,2307.61 826.5,2297C 882.687,2248.31 938.687,2199.47 994.5,2150.5C 993.611,2152.74 992.278,2154.74 990.5,2156.5C 994.281,2157.56 996.281,2160.06 996.5,2164C 999.783,2164.74 1002.78,2164.08 1005.5,2162C 1011.95,2157.89 1018.11,2153.39 1024,2148.5C 1023.02,2151.48 1021.69,2154.48 1020,2157.5C 1019.33,2160.17 1019.33,2162.83 1020,2165.5C 1023.79,2166.33 1027.63,2167.16 1031.5,2168C 1033.84,2170.19 1034.17,2172.69 1032.5,2175.5C 1011.21,2191.15 988.876,2205.32 965.5,2218C 963.765,2218.65 962.098,2218.48 960.5,2217.5C 956.032,2220.14 951.698,2222.97 947.5,2226C 900.53,2269.3 855.197,2314.3 811.5,2361C 812.5,2361.33 813.5,2361.67 814.5,2362C 777.539,2394.47 740.206,2426.47 702.5,2458C 672.199,2483.15 641.532,2507.81 610.5,2532C 609.216,2532.68 608.049,2532.52 607,2531.5C 601.821,2535.5 595.988,2537.84 589.5,2538.5C 589.372,2536.35 589.872,2534.35 591,2532.5C 595.853,2525.47 601.186,2518.8 607,2512.5C 608.903,2510.56 609.736,2508.23 609.5,2505.5C 605.895,2505.8 602.561,2506.97 599.5,2509C 564.805,2532.2 530.805,2556.36 497.5,2581.5C 496.833,2580.5 496.167,2579.5 495.5,2578.5C 482.868,2585.97 470.368,2593.63 458,2601.5C 457.833,2601.17 457.667,2600.83 457.5,2600.5C 488.381,2569.12 520.048,2538.62 552.5,2509C 595.748,2465.42 639.248,2422.25 683,2379.5C 683.688,2378.67 683.521,2378 682.5,2377.5C 681.232,2378.43 679.899,2378.59 678.5,2378C 682.513,2373.32 686.513,2368.66 690.5,2364C 689.902,2361.04 689.569,2358.04 689.5,2355C 690.573,2347.87 691.239,2340.71 691.5,2333.5C 690.448,2333.35 689.448,2333.52 688.5,2334C 682.188,2339.81 675.188,2344.64 667.5,2348.5C 666.417,2347.64 666.251,2346.64 667,2345.5C 685.539,2321.29 705.206,2297.95 726,2275.5C 730.635,2270.2 734.468,2264.36 737.5,2258C 737.167,2257.5 736.833,2257 736.5,2256.5C 727.629,2261.87 718.629,2267.03 709.5,2272C 704.85,2274.11 700.016,2275.61 695,2276.5C 692.055,2277.06 690.555,2275.89 690.5,2273C 691.661,2268.84 693.495,2265.01 696,2261.5C 710.578,2242.25 725.911,2223.58 742,2205.5C 766.731,2180.77 790.731,2155.44 814,2129.5C 817.2,2121.43 821.2,2113.77 826,2106.5C 843.408,2088.43 860.075,2069.76 876,2050.5C 876.483,2049.55 876.649,2048.55 876.5,2047.5C 872.873,2048.28 869.54,2049.78 866.5,2052C 859.167,2057.33 851.833,2062.67 844.5,2068C 812.977,2094.86 780.31,2120.2 746.5,2144C 743.029,2146.07 739.362,2147.57 735.5,2148.5C 735.34,2146.8 735.506,2145.13 736,2143.5C 739.754,2137.66 743.754,2131.99 748,2126.5C 769.238,2101.69 790.238,2076.69 811,2051.5C 820.457,2038.09 829.291,2024.26 837.5,2010C 839.902,2009.19 842.235,2009.35 844.5,2010.5C 836.167,2022.5 828.334,2034.83 821,2047.5C 817.667,2051.5 814.333,2055.5 811,2059.5C 809.759,2060.88 809.592,2062.21 810.5,2063.5C 827.055,2053.1 843.722,2042.94 860.5,2033C 884.407,2013.92 908.741,1995.42 933.5,1977.5C 934.696,1977.85 934.696,1978.35 933.5,1979C 934.5,1979.67 935.5,1979.67 936.5,1979C 943.167,1974.67 949.833,1970.33 956.5,1966C 957.5,1965.33 958.5,1965.33 959.5,1966C 949.065,1978.44 937.898,1990.27 926,2001.5C 923.648,2004.12 924.148,2005.78 927.5,2006.5C 929.828,2005.67 932.162,2004.84 934.5,2004C 946.79,1995.85 959.79,1989.35 973.5,1984.5 Z"/></g>
<g><path style="opacity:1" fill="#ed841e" d="M 1197.5,1970.5 C 1237.22,1995.52 1280.22,2012.52 1326.5,2021.5C 1332.64,2020.79 1338.64,2019.45 1344.5,2017.5C 1343.28,2020.27 1341.78,2022.94 1340,2025.5C 1326.9,2040.61 1313.06,2055.11 1298.5,2069C 1294.24,2070.93 1290.24,2073.27 1286.5,2076C 1277.83,2083.33 1269.17,2090.67 1260.5,2098C 1257.83,2098 1255.17,2098 1252.5,2098C 1239.11,2107.04 1226.44,2117.04 1214.5,2128C 1213.67,2128.69 1213,2128.52 1212.5,2127.5C 1214.5,2124.17 1216.5,2120.83 1218.5,2117.5C 1218,2116.48 1217.33,2116.31 1216.5,2117C 1182.43,2146.74 1149.93,2178.24 1119,2211.5C 1118.38,2212.45 1118.55,2213.28 1119.5,2214C 1109.16,2225.84 1097.82,2236.68 1085.5,2246.5C 1084.3,2246.15 1084.3,2245.65 1085.5,2245C 1084.83,2244.33 1084.17,2244.33 1083.5,2245C 1080.64,2247.36 1077.64,2249.53 1074.5,2251.5C 1074.17,2251.17 1073.83,2250.83 1073.5,2250.5C 1074.75,2248.68 1075.41,2246.68 1075.5,2244.5C 1074.45,2244.35 1073.45,2244.52 1072.5,2245C 1033.9,2276.15 996.235,2308.48 959.5,2342C 956.751,2341.82 954.418,2342.99 952.5,2345.5C 925.187,2369.81 897.853,2394.14 870.5,2418.5C 869.592,2417.21 869.759,2415.88 871,2414.5C 877.169,2406.82 882.836,2398.82 888,2390.5C 903.673,2373.99 919.506,2357.66 935.5,2341.5C 964.411,2312.09 993.578,2282.76 1023,2253.5C 1030.12,2244.04 1037.62,2234.88 1045.5,2226C 1042.57,2226.29 1039.9,2227.46 1037.5,2229.5C 1037.4,2227.17 1038.4,2225 1040.5,2223C 1037.23,2223.46 1034.23,2224.8 1031.5,2227C 1028.65,2228.43 1025.65,2229.26 1022.5,2229.5C 1022.46,2226.58 1023.29,2223.91 1025,2221.5C 1039.92,2202.58 1055.58,2184.24 1072,2166.5C 1077.06,2159.1 1081.73,2151.43 1086,2143.5C 1089.64,2136.21 1089.31,2129.21 1085,2122.5C 1073.88,2132.46 1062.04,2141.46 1049.5,2149.5C 1049.17,2149 1048.83,2148.5 1048.5,2148C 1051.29,2142.93 1054.45,2138.09 1058,2133.5C 1071.72,2117.71 1084.72,2101.38 1097,2084.5C 1097.67,2083.17 1097.67,2081.83 1097,2080.5C 1095.36,2081.85 1094.69,2081.51 1095,2079.5C 1102.77,2070.39 1109.77,2060.73 1116,2050.5C 1116.17,2049.33 1116.33,2048.17 1116.5,2047C 1116.39,2045.32 1115.73,2044.15 1114.5,2043.5C 1142.31,2019.41 1169.98,1995.08 1197.5,1970.5 Z"/></g>
<g><path style="opacity:1" fill="#ca4315" d="M 1389.5,2000.5 C 1390.53,2023.49 1390.69,2046.49 1390,2069.5C 1386.96,2169.99 1354.29,2259.33 1292,2337.5C 1264.7,2369.8 1235.03,2399.8 1203,2427.5C 1198.95,2432.94 1195.95,2438.94 1194,2445.5C 1193.25,2450.95 1193.75,2456.29 1195.5,2461.5C 1195.38,2462.11 1195.04,2462.44 1194.5,2462.5C 1184.45,2456.28 1176.61,2447.95 1171,2437.5C 1167.67,2428.17 1167.67,2418.83 1171,2409.5C 1173.84,2404.48 1177.18,2399.81 1181,2395.5C 1238.62,2348.9 1283.95,2292.57 1317,2226.5C 1345.43,2163.5 1358.27,2097.5 1355.5,2028.5C 1356.39,2023.56 1356.73,2018.56 1356.5,2013.5C 1367.51,2009.38 1378.51,2005.05 1389.5,2000.5 Z"/></g>
<g><path style="opacity:0.998" fill="#f7db18" d="M 1356.5,2013.5 C 1356.73,2018.56 1356.39,2023.56 1355.5,2028.5C 1350.43,2034.14 1346.76,2040.64 1344.5,2048C 1345.45,2050.31 1346.45,2052.64 1347.5,2055C 1346.72,2057.99 1345.56,2060.83 1344,2063.5C 1339.94,2068.56 1336.28,2073.89 1333,2079.5C 1333.13,2082.49 1333.13,2085.49 1333,2088.5C 1325.92,2098.26 1318.08,2107.42 1309.5,2116C 1310.62,2116.25 1311.62,2116.75 1312.5,2117.5C 1286.65,2145.52 1259.65,2172.35 1231.5,2198C 1221.2,2207.15 1210.53,2215.81 1199.5,2224C 1195.99,2226.25 1192.33,2228.25 1188.5,2230C 1184.78,2231.1 1181.11,2231.77 1177.5,2232C 1164.52,2242.16 1150.86,2251.32 1136.5,2259.5C 1135.91,2259.29 1135.41,2258.96 1135,2258.5C 1127.12,2262.86 1119.28,2267.36 1111.5,2272C 1105.5,2275.5 1099.17,2278.17 1092.5,2280C 1070.73,2297.11 1048.39,2313.44 1025.5,2329C 1022.26,2330.47 1018.92,2331.64 1015.5,2332.5C 1015.1,2331.47 1014.44,2331.31 1013.5,2332C 1008.83,2335.33 1004.17,2338.67 999.5,2342C 995.391,2344.37 991.058,2345.71 986.5,2346C 983.968,2343.59 980.968,2342.92 977.5,2344C 971.123,2348.19 964.456,2351.86 957.5,2355C 955.741,2355.8 954.074,2355.63 952.5,2354.5C 951.276,2351.5 951.276,2348.5 952.5,2345.5C 954.418,2342.99 956.751,2341.82 959.5,2342C 996.235,2308.48 1033.9,2276.15 1072.5,2245C 1073.45,2244.52 1074.45,2244.35 1075.5,2244.5C 1075.41,2246.68 1074.75,2248.68 1073.5,2250.5C 1073.83,2250.83 1074.17,2251.17 1074.5,2251.5C 1077.64,2249.53 1080.64,2247.36 1083.5,2245C 1084.17,2244.33 1084.83,2244.33 1085.5,2245C 1084.3,2245.65 1084.3,2246.15 1085.5,2246.5C 1097.82,2236.68 1109.16,2225.84 1119.5,2214C 1118.55,2213.28 1118.38,2212.45 1119,2211.5C 1149.93,2178.24 1182.43,2146.74 1216.5,2117C 1217.33,2116.31 1218,2116.48 1218.5,2117.5C 1216.5,2120.83 1214.5,2124.17 1212.5,2127.5C 1213,2128.52 1213.67,2128.69 1214.5,2128C 1226.44,2117.04 1239.11,2107.04 1252.5,2098C 1255.17,2098 1257.83,2098 1260.5,2098C 1269.17,2090.67 1277.83,2083.33 1286.5,2076C 1290.24,2073.27 1294.24,2070.93 1298.5,2069C 1313.06,2055.11 1326.9,2040.61 1340,2025.5C 1341.78,2022.94 1343.28,2020.27 1344.5,2017.5C 1348.22,2015.59 1352.22,2014.26 1356.5,2013.5 Z"/></g>
<g><path style="opacity:1" fill="#f6db19" d="M 1114.5,2043.5 C 1115.73,2044.15 1116.39,2045.32 1116.5,2047C 1116.33,2048.17 1116.17,2049.33 1116,2050.5C 1109.77,2060.73 1102.77,2070.39 1095,2079.5C 1094.69,2081.51 1095.36,2081.85 1097,2080.5C 1097.67,2081.83 1097.67,2083.17 1097,2084.5C 1084.72,2101.38 1071.72,2117.71 1058,2133.5C 1054.45,2138.09 1051.29,2142.93 1048.5,2148C 1048.83,2148.5 1049.17,2149 1049.5,2149.5C 1062.04,2141.46 1073.88,2132.46 1085,2122.5C 1089.31,2129.21 1089.64,2136.21 1086,2143.5C 1081.73,2151.43 1077.06,2159.1 1072,2166.5C 1055.58,2184.24 1039.92,2202.58 1025,2221.5C 1023.29,2223.91 1022.46,2226.58 1022.5,2229.5C 1025.65,2229.26 1028.65,2228.43 1031.5,2227C 1034.23,2224.8 1037.23,2223.46 1040.5,2223C 1038.4,2225 1037.4,2227.17 1037.5,2229.5C 1039.9,2227.46 1042.57,2226.29 1045.5,2226C 1037.62,2234.88 1030.12,2244.04 1023,2253.5C 993.578,2282.76 964.411,2312.09 935.5,2341.5C 917.384,2353.73 899.384,2366.23 881.5,2379C 876.977,2382.25 872.31,2384.92 867.5,2387C 890.459,2356.36 915.292,2327.2 942,2299.5C 950.12,2285.12 960.287,2272.29 972.5,2261C 970.326,2261.94 967.993,2262.77 965.5,2263.5C 965.351,2262.45 965.517,2261.45 966,2260.5C 981.867,2238.96 998.867,2218.29 1017,2198.5C 1022.81,2191.21 1027.97,2183.54 1032.5,2175.5C 1034.17,2172.69 1033.84,2170.19 1031.5,2168C 1027.63,2167.16 1023.79,2166.33 1020,2165.5C 1019.33,2162.83 1019.33,2160.17 1020,2157.5C 1021.69,2154.48 1023.02,2151.48 1024,2148.5C 1018.11,2153.39 1011.95,2157.89 1005.5,2162C 1002.78,2164.08 999.783,2164.74 996.5,2164C 996.281,2160.06 994.281,2157.56 990.5,2156.5C 992.278,2154.74 993.611,2152.74 994.5,2150.5C 1034.46,2114.84 1074.46,2079.18 1114.5,2043.5 Z"/></g>
</svg>
