<?xml version="1.0" encoding="UTF-8"?>
<!DOCTYPE svg PUBLIC "-//W3C//DTD SVG 1.1//EN" "http://www.w3.org/Graphics/SVG/1.1/DTD/svg11.dtd">
<svg xmlns="http://www.w3.org/2000/svg" version="1.1" width="3000px" height="3000px" style="shape-rendering:geometricPrecision; text-rendering:geometricPrecision; image-rendering:optimizeQuality; fill-rule:evenodd; clip-rule:evenodd" xmlns:xlink="http://www.w3.org/1999/xlink">
<g><path style="opacity:0.997" fill="#c7a87e" d="M 1747.5,953.5 C 1746.5,953.414 1745.67,953.748 1745,954.5C 1731.6,973.238 1716.1,990.072 1698.5,1005C 1690.18,1011.32 1680.85,1015.16 1670.5,1016.5C 1664.04,1016.18 1658.04,1014.35 1652.5,1011C 1634.91,999.642 1621.08,984.809 1611,966.5C 1593.55,933.141 1581.88,897.807 1576,860.5C 1572.51,839.273 1570.01,817.94 1568.5,796.5C 1494.19,797.441 1421.52,808.774 1350.5,830.5C 1340.58,808.83 1333.75,786.163 1330,762.5C 1323.49,724.418 1319.16,686.085 1317,647.5C 1313.53,580.799 1309.53,514.133 1305,447.5C 1302.13,411.305 1296.13,375.638 1287,340.5C 1278.93,293.542 1278.6,246.542 1286,199.5C 1289.69,173.666 1298.69,149.999 1313,128.5C 1324.74,113.047 1340.24,106.547 1359.5,109C 1367.52,110.673 1375.19,113.34 1382.5,117C 1404.86,131.358 1424.03,149.191 1440,170.5C 1470.6,216.919 1493.94,266.919 1510,320.5C 1538.57,414.132 1559.57,509.465 1573,606.5C 1582.03,511.396 1604.69,419.729 1641,331.5C 1668.17,266.439 1705.84,208.439 1754,157.5C 1784.81,125.835 1820.31,100.668 1860.5,82C 1905.9,61.1336 1953.23,54.4669 2002.5,62C 2034.05,71.5577 2051.89,92.7244 2056,125.5C 2059.06,147.194 2058.73,168.861 2055,190.5C 2047.2,234.872 2036.03,278.372 2021.5,321C 2006.67,364.156 1991.84,407.322 1977,450.5C 1958.64,519.928 1935.3,587.594 1907,653.5C 1871.54,738.084 1830.54,819.75 1784,898.5C 1772.32,917.205 1760.15,935.539 1747.5,953.5 Z"/></g>
<g><path style="opacity:1" fill="#eeae97" d="M 1965.5,105.5 C 2016.23,101.395 2038.73,124.728 2033,175.5C 2028.54,205.542 2021.21,234.876 2011,263.5C 2004.28,281.944 1997.28,300.277 1990,318.5C 1969.33,367.167 1948.67,415.833 1928,464.5C 1917.18,497.617 1905.18,530.283 1892,562.5C 1874.62,598.262 1855.95,633.262 1836,667.5C 1830,679.5 1824,691.5 1818,703.5C 1804.74,735.608 1792.08,767.941 1780,800.5C 1768.76,825.333 1754.76,848.333 1738,869.5C 1729.8,879.045 1719.97,886.212 1708.5,891C 1705.5,891.667 1702.5,891.667 1699.5,891C 1690.77,886.939 1683.94,880.772 1679,872.5C 1661.17,842.36 1648.84,810.027 1642,775.5C 1623.94,692.09 1625.61,609.09 1647,526.5C 1671.38,435.421 1708.05,349.754 1757,269.5C 1778.08,236.075 1802.58,205.241 1830.5,177C 1856.96,151.261 1887.29,131.261 1921.5,117C 1936.05,112.198 1950.71,108.365 1965.5,105.5 Z"/></g>
<g><path style="opacity:0.999" fill="#d9c2a3" d="M 1747.5,953.5 C 1751.71,972.533 1756.04,991.533 1760.5,1010.5C 1760.27,1057.73 1754.44,1104.4 1743,1150.5C 1719.11,1238.72 1663.28,1295.55 1575.5,1321C 1497.78,1341.72 1419.11,1346.22 1339.5,1334.5C 1363.71,1292.61 1372.21,1247.61 1365,1199.5C 1363.04,1186.29 1358.71,1173.96 1352,1162.5C 1341.35,1151.59 1328.52,1144.42 1313.5,1141C 1268.28,1129.92 1225.62,1135.92 1185.5,1159C 1169.94,1170.3 1157.77,1184.47 1149,1201.5C 1142.97,1209.69 1136.8,1217.69 1130.5,1225.5C 1130.1,1224.47 1129.44,1224.31 1128.5,1225C 1105.9,1246.79 1078.9,1256.46 1047.5,1254C 1032.47,1250.64 1022.97,1241.47 1019,1226.5C 1017.81,1220.03 1016.65,1213.69 1015.5,1207.5C 1018.06,1190.92 1021.73,1174.58 1026.5,1158.5C 1049.14,1082.81 1086.31,1015.47 1138,956.5C 1174.72,916.108 1217.88,884.608 1267.5,862C 1294.4,849.424 1322.06,838.924 1350.5,830.5C 1421.52,808.774 1494.19,797.441 1568.5,796.5C 1570.01,817.94 1572.51,839.273 1576,860.5C 1581.88,897.807 1593.55,933.141 1611,966.5C 1621.08,984.809 1634.91,999.642 1652.5,1011C 1658.04,1014.35 1664.04,1016.18 1670.5,1016.5C 1680.85,1015.16 1690.18,1011.32 1698.5,1005C 1716.1,990.072 1731.6,973.238 1745,954.5C 1745.67,953.748 1746.5,953.414 1747.5,953.5 Z"/></g>
<g><path style="opacity:1" fill="#ecd8c1" d="M 1499.5,1080.5 C 1509.07,1059.21 1514.4,1036.88 1515.5,1013.5C 1515.19,1005.77 1514.36,998.105 1513,990.5C 1511.94,984.381 1509.77,978.714 1506.5,973.5C 1498.24,985.263 1489.41,996.596 1480,1007.5C 1487.04,992.39 1492.54,976.556 1496.5,960C 1489.71,953.105 1481.37,949.105 1471.5,948C 1446.63,945.686 1427.79,955.186 1415,976.5C 1399.69,1005.89 1392.19,1037.22 1392.5,1070.5C 1386.99,1068.5 1381.83,1065.83 1377,1062.5C 1376.89,1022.96 1385.89,985.626 1404,950.5C 1430.45,908.417 1466.95,896.584 1513.5,915C 1532.21,926.896 1542.38,944.063 1544,966.5C 1545.9,1002.93 1540.07,1038.09 1526.5,1072C 1524.29,1074.08 1521.62,1075.41 1518.5,1076C 1512.19,1077.66 1505.86,1079.16 1499.5,1080.5 Z"/></g>
<g><path style="opacity:1" fill="#473c2a" d="M 1499.5,1080.5 C 1471.37,1086.3 1443.37,1085.8 1415.5,1079C 1407.4,1077.03 1399.73,1074.19 1392.5,1070.5C 1392.19,1037.22 1399.69,1005.89 1415,976.5C 1427.79,955.186 1446.63,945.686 1471.5,948C 1481.37,949.105 1489.71,953.105 1496.5,960C 1492.54,976.556 1487.04,992.39 1480,1007.5C 1489.41,996.596 1498.24,985.263 1506.5,973.5C 1509.77,978.714 1511.94,984.381 1513,990.5C 1514.36,998.105 1515.19,1005.77 1515.5,1013.5C 1514.4,1036.88 1509.07,1059.21 1499.5,1080.5 Z"/></g>
<g><path style="opacity:0.998" fill="#c7a87f" d="M 1760.5,1010.5 C 1774.01,1066.54 1781.67,1123.37 1783.5,1181C 1784.59,1228.47 1774.59,1273.31 1753.5,1315.5C 1732.69,1349.14 1705.36,1376.31 1671.5,1397C 1628.91,1420.76 1583.58,1437.42 1535.5,1447C 1454.92,1465.76 1373.58,1470.09 1291.5,1460C 1265.05,1456.05 1239.05,1450.22 1213.5,1442.5C 1187.91,1435.08 1163.58,1424.75 1140.5,1411.5C 1145.08,1406.74 1149.58,1401.74 1154,1396.5C 1156.36,1393.78 1158.19,1390.78 1159.5,1387.5C 1196.79,1397.87 1234.12,1398.04 1271.5,1388C 1300.51,1378.15 1323.18,1360.31 1339.5,1334.5C 1419.11,1346.22 1497.78,1341.72 1575.5,1321C 1663.28,1295.55 1719.11,1238.72 1743,1150.5C 1754.44,1104.4 1760.27,1057.73 1760.5,1010.5 Z"/></g>
<g><path style="opacity:0.999" fill="#ecd8c1" d="M 1339.5,1334.5 C 1323.18,1360.31 1300.51,1378.15 1271.5,1388C 1234.12,1398.04 1196.79,1397.87 1159.5,1387.5C 1134.98,1380.33 1114.48,1366.99 1098,1347.5C 1095.33,1361.49 1088.5,1372.99 1077.5,1382C 1072.93,1385.42 1068.26,1388.59 1063.5,1391.5C 1049.09,1398.85 1034.42,1399.35 1019.5,1393C 997.948,1381.11 981.448,1364.28 970,1342.5C 951.48,1307.58 949.146,1271.91 963,1235.5C 970.839,1210.35 984.339,1188.85 1003.5,1171C 1010.59,1165.79 1018.25,1161.62 1026.5,1158.5C 1021.73,1174.58 1018.06,1190.92 1015.5,1207.5C 1012.61,1242.32 1021.77,1273.66 1043,1301.5C 1053.97,1315.49 1068.31,1323.82 1086,1326.5C 1091.94,1326.37 1096.28,1323.7 1099,1318.5C 1102.04,1303.92 1104.7,1289.25 1107,1274.5C 1111.12,1256.26 1118.96,1239.93 1130.5,1225.5C 1136.8,1217.69 1142.97,1209.69 1149,1201.5C 1157.77,1184.47 1169.94,1170.3 1185.5,1159C 1225.62,1135.92 1268.28,1129.92 1313.5,1141C 1328.52,1144.42 1341.35,1151.59 1352,1162.5C 1358.71,1173.96 1363.04,1186.29 1365,1199.5C 1372.21,1247.61 1363.71,1292.61 1339.5,1334.5 Z"/></g>
<g><path style="opacity:0.999" fill="#c7a87f" d="M 1015.5,1207.5 C 1016.65,1213.69 1017.81,1220.03 1019,1226.5C 1022.97,1241.47 1032.47,1250.64 1047.5,1254C 1078.9,1256.46 1105.9,1246.79 1128.5,1225C 1129.44,1224.31 1130.1,1224.47 1130.5,1225.5C 1118.96,1239.93 1111.12,1256.26 1107,1274.5C 1104.7,1289.25 1102.04,1303.92 1099,1318.5C 1096.28,1323.7 1091.94,1326.37 1086,1326.5C 1068.31,1323.82 1053.97,1315.49 1043,1301.5C 1021.77,1273.66 1012.61,1242.32 1015.5,1207.5 Z"/></g>
<g><path style="opacity:1" fill="#d9c2a3" d="M 1753.5,1315.5 C 1887.18,1437.74 1977.35,1587.07 2024,1763.5C 2054.33,1881.96 2066.83,2002.3 2061.5,2124.5C 2057.46,2224.64 2043.29,2323.31 2019,2420.5C 1994.24,2508.54 1970.57,2596.88 1948,2685.5C 1940.77,2714.65 1934.44,2743.98 1929,2773.5C 1926.28,2788.06 1924.44,2802.73 1923.5,2817.5C 1922,2836.51 1926.17,2854.17 1936,2870.5C 1944.5,2883.5 1952.5,2896.84 1960,2910.5C 1965.86,2922.52 1963.36,2932.35 1952.5,2940C 1937.64,2947.29 1921.97,2951.95 1905.5,2954C 1870.79,2958.41 1835.96,2961.24 1801,2962.5C 1751.95,2960.78 1719.28,2936.78 1703,2890.5C 1698.25,2877.48 1694.75,2864.15 1692.5,2850.5C 1686.89,2809.02 1685.06,2767.35 1687,2725.5C 1688.05,2701.12 1689.72,2676.79 1692,2652.5C 1699.03,2587.54 1705.7,2522.54 1712,2457.5C 1715.18,2425.49 1715.18,2393.49 1712,2361.5C 1710.27,2350.31 1706.94,2339.64 1702,2329.5C 1691.09,2310.92 1677.59,2294.42 1661.5,2280C 1641.95,2265.73 1624.12,2267.56 1608,2285.5C 1591.13,2307.45 1582.63,2332.28 1582.5,2360C 1582.92,2379.25 1584.42,2398.41 1587,2417.5C 1597.34,2480.55 1608.01,2543.55 1619,2606.5C 1627.08,2654.21 1632.75,2702.21 1636,2750.5C 1636.67,2773.83 1636.67,2797.17 1636,2820.5C 1635.69,2828.56 1634.85,2836.56 1633.5,2844.5C 1633.69,2845.58 1634.02,2846.58 1634.5,2847.5C 1631.21,2874.54 1623.38,2900.2 1611,2924.5C 1592.96,2955.13 1566.13,2972.63 1530.5,2977C 1497.5,2977.67 1464.5,2977.67 1431.5,2977C 1415.25,2976.3 1399.25,2973.97 1383.5,2970C 1373.14,2967.96 1365.31,2962.46 1360,2953.5C 1358.99,2946.98 1359.66,2940.64 1362,2934.5C 1369.65,2919.86 1377.32,2905.2 1385,2890.5C 1388.1,2883.76 1390.43,2876.76 1392,2869.5C 1392.83,2856.44 1392.33,2843.44 1390.5,2830.5C 1387.8,2814.01 1384.3,2797.68 1380,2781.5C 1370.94,2748.66 1361.27,2715.99 1351,2683.5C 1303,2540.84 1255,2398.18 1207,2255.5C 1193.46,2213.89 1180.13,2172.23 1167,2130.5C 1149.98,2072.7 1137.82,2014.04 1130.5,1954.5C 1116.03,1796.59 1136.2,1643.26 1191,1494.5C 1197.69,1476.79 1205.19,1459.46 1213.5,1442.5C 1239.05,1450.22 1265.05,1456.05 1291.5,1460C 1373.58,1470.09 1454.92,1465.76 1535.5,1447C 1583.58,1437.42 1628.91,1420.76 1671.5,1397C 1705.36,1376.31 1732.69,1349.14 1753.5,1315.5 Z"/></g>
<g><path style="opacity:0.995" fill="#eeaf98" d="M 1159.5,1387.5 C 1158.19,1390.78 1156.36,1393.78 1154,1396.5C 1149.58,1401.74 1145.08,1406.74 1140.5,1411.5C 1119.65,1423.21 1099.65,1421.71 1080.5,1407C 1074.66,1402 1069,1396.83 1063.5,1391.5C 1068.26,1388.59 1072.93,1385.42 1077.5,1382C 1088.5,1372.99 1095.33,1361.49 1098,1347.5C 1114.48,1366.99 1134.98,1380.33 1159.5,1387.5 Z"/></g>
<g><path style="opacity:0.999" fill="#c7a87e" d="M 1130.5,1954.5 C 1137.82,2014.04 1149.98,2072.7 1167,2130.5C 1180.13,2172.23 1193.46,2213.89 1207,2255.5C 1255,2398.18 1303,2540.84 1351,2683.5C 1361.27,2715.99 1370.94,2748.66 1380,2781.5C 1384.3,2797.68 1387.8,2814.01 1390.5,2830.5C 1372.42,2828.02 1354.42,2825.02 1336.5,2821.5C 1280.73,2835.02 1224.4,2845.52 1167.5,2853C 1122.99,2858.6 1078.33,2860.6 1033.5,2859C 1000.42,2857.92 968.417,2851.58 937.5,2840C 924.708,2834.36 913.875,2826.2 905,2815.5C 893.192,2791.23 897.358,2770.06 917.5,2752C 934.751,2739.54 953.751,2730.54 974.5,2725C 994.592,2719.82 1014.93,2715.82 1035.5,2713C 887.867,2621.56 835.7,2491.06 879,2321.5C 914.889,2165.54 998.722,2043.21 1130.5,1954.5 Z"/></g>
<g><path style="opacity:0.997" fill="#c7a87f" d="M 2061.5,2124.5 C 2093.89,2207.42 2112.73,2293.42 2118,2382.5C 2121.04,2442.22 2111.71,2499.89 2090,2555.5C 2074.06,2593.23 2050.89,2625.73 2020.5,2653C 2014.18,2658.16 2007.52,2662.83 2000.5,2667C 2016.98,2671.71 2033.31,2677.05 2049.5,2683C 2061.39,2687.61 2072.72,2693.28 2083.5,2700C 2101.84,2716.85 2111.34,2737.69 2112,2762.5C 2110.14,2772.72 2105.31,2781.22 2097.5,2788C 2077.46,2801.13 2055.46,2809.13 2031.5,2812C 1995.57,2816.62 1959.57,2818.45 1923.5,2817.5C 1924.44,2802.73 1926.28,2788.06 1929,2773.5C 1934.44,2743.98 1940.77,2714.65 1948,2685.5C 1970.57,2596.88 1994.24,2508.54 2019,2420.5C 2043.29,2323.31 2057.46,2224.64 2061.5,2124.5 Z"/></g>
<g><path style="opacity:0.999" fill="#c7a87f" d="M 1692.5,2850.5 C 1673.17,2849.56 1653.83,2848.56 1634.5,2847.5C 1634.02,2846.58 1633.69,2845.58 1633.5,2844.5C 1634.85,2836.56 1635.69,2828.56 1636,2820.5C 1636.67,2797.17 1636.67,2773.83 1636,2750.5C 1632.75,2702.21 1627.08,2654.21 1619,2606.5C 1608.01,2543.55 1597.34,2480.55 1587,2417.5C 1584.42,2398.41 1582.92,2379.25 1582.5,2360C 1582.63,2332.28 1591.13,2307.45 1608,2285.5C 1624.12,2267.56 1641.95,2265.73 1661.5,2280C 1677.59,2294.42 1691.09,2310.92 1702,2329.5C 1706.94,2339.64 1710.27,2350.31 1712,2361.5C 1715.18,2393.49 1715.18,2425.49 1712,2457.5C 1705.7,2522.54 1699.03,2587.54 1692,2652.5C 1689.72,2676.79 1688.05,2701.12 1687,2725.5C 1685.06,2767.35 1686.89,2809.02 1692.5,2850.5 Z"/></g>
</svg>
