<?xml version="1.0" encoding="UTF-8"?>
<!DOCTYPE svg PUBLIC "-//W3C//DTD SVG 1.1//EN" "http://www.w3.org/Graphics/SVG/1.1/DTD/svg11.dtd">
<svg xmlns="http://www.w3.org/2000/svg" version="1.1" width="3000px" height="3000px" style="shape-rendering:geometricPrecision; text-rendering:geometricPrecision; image-rendering:optimizeQuality; fill-rule:evenodd; clip-rule:evenodd" xmlns:xlink="http://www.w3.org/1999/xlink">
<g><path style="opacity:0.999" fill="#67b58f" d="M 2743.5,1994.5 C 2689.15,1987.24 2638.82,1998.07 2592.5,2027C 2556.54,2054.17 2540.71,2090.33 2545,2135.5C 2548.61,2164.73 2561.61,2188.73 2584,2207.5C 2584.46,2208.09 2584.63,2208.76 2584.5,2209.5C 2561.55,2215.9 2538.22,2220.4 2514.5,2223C 2498.83,2223.67 2483.17,2223.67 2467.5,2223C 2448.89,2221.69 2431.56,2216.35 2415.5,2207C 2409.26,2201.76 2404.1,2195.59 2400,2188.5C 2394.2,2159.98 2386.54,2131.98 2377,2104.5C 2357.72,2053.74 2326.22,2012.4 2282.5,1980.5C 2282.5,1979.83 2282.17,1979.5 2281.5,1979.5C 2281.5,1978.83 2281.17,1978.5 2280.5,1978.5C 2280.5,1977.83 2280.17,1977.5 2279.5,1977.5C 2202.92,1907.04 2113.59,1882.87 2011.5,1905C 1953.75,1920.86 1905.42,1951.36 1866.5,1996.5C 1865.83,1996.5 1865.5,1996.83 1865.5,1997.5C 1864.83,1997.5 1864.5,1997.83 1864.5,1998.5C 1863.83,1998.5 1863.5,1998.83 1863.5,1999.5C 1862.83,1999.5 1862.5,1999.83 1862.5,2000.5C 1861.83,2000.5 1861.5,2000.83 1861.5,2001.5C 1842.59,2019.91 1826.09,2040.24 1812,2062.5C 1802.77,2079.62 1794.11,2096.95 1786,2114.5C 1777.33,2137.5 1769.67,2160.83 1763,2184.5C 1755.58,2194.23 1746.08,2201.4 1734.5,2206C 1707.99,2215.77 1680.65,2222.1 1652.5,2225C 1544.89,2235.57 1437.56,2233.23 1330.5,2218C 1294.5,2213.33 1259.83,2204 1226.5,2190C 1220.43,2186.6 1214.93,2182.43 1210,2177.5C 1209,2175.5 1208,2173.5 1207,2171.5C 1187.24,2074.4 1136.07,1998.9 1053.5,1945C 1044.71,1939.94 1035.71,1935.44 1026.5,1931.5C 1026.16,1930.66 1025.49,1930.33 1024.5,1930.5C 1024.16,1929.66 1023.49,1929.33 1022.5,1929.5C 1022.5,1928.83 1022.17,1928.5 1021.5,1928.5C 1020.17,1928.17 1018.83,1927.83 1017.5,1927.5C 1017.5,1926.83 1017.17,1926.5 1016.5,1926.5C 913.63,1877.87 814.963,1885.2 720.5,1948.5C 719.833,1948.5 719.5,1948.83 719.5,1949.5C 718.508,1949.33 717.842,1949.66 717.5,1950.5C 672.133,1976.03 636.967,2011.7 612,2057.5C 593.837,2092.65 580.837,2129.65 573,2168.5C 568.109,2180.46 559.109,2185.79 546,2184.5C 527.191,2183.14 508.358,2182.31 489.5,2182C 471.572,2180.19 454.239,2176.02 437.5,2169.5C 447.215,2133.69 446.715,2098.02 436,2062.5C 426.5,2039.67 410.333,2023.5 387.5,2014C 376.96,2010.53 366.293,2007.7 355.5,2005.5C 354.949,1919.15 355.782,1832.82 358,1746.5C 360.486,1643.94 372.819,1542.61 395,1442.5C 418.289,1341.95 457.956,1248.62 514,1162.5C 600.288,1031.54 710.122,925.042 843.5,843C 1084.39,697.556 1344.06,646.89 1622.5,691C 1794.56,722.207 1945.56,795.207 2075.5,910C 2164.92,992.795 2230.42,1091.63 2272,1206.5C 2281.27,1238.24 2289.6,1270.24 2297,1302.5C 2313.55,1364.38 2351.38,1407.54 2410.5,1432C 2421.39,1436.28 2432.39,1440.28 2443.5,1444C 2483.2,1454.51 2522.87,1465.18 2562.5,1476C 2593.3,1485.56 2620.97,1500.56 2645.5,1521C 2670.71,1545.89 2689.55,1575.06 2702,1608.5C 2723.53,1667.29 2736.53,1727.96 2741,1790.5C 2745.97,1858.45 2746.8,1926.45 2743.5,1994.5 Z"/></g>
<g><path style="opacity:1" fill="#d5eaec" d="M 1145.5,822.5 C 1213.99,816.994 1265.83,843.328 1301,901.5C 1317.06,931.346 1327.73,963.012 1333,996.5C 1340.14,1044.57 1342.47,1092.91 1340,1141.5C 1338.68,1176.18 1337.02,1210.85 1335,1245.5C 1331.7,1279.66 1325.7,1313.32 1317,1346.5C 1297.44,1417.72 1250.94,1457.89 1177.5,1467C 1152.74,1469.63 1127.9,1470.79 1103,1470.5C 1044.17,1469.14 985.341,1468.31 926.5,1468C 885.045,1467.11 844.045,1462.44 803.5,1454C 770.233,1447.36 739.566,1434.69 711.5,1416C 677.984,1390.17 663.484,1356.01 668,1313.5C 671.57,1289.12 678.57,1265.79 689,1243.5C 723.386,1175.69 762.053,1110.69 805,1048.5C 832.815,1010.33 863.982,974.832 898.5,942C 968.461,877.022 1050.79,837.189 1145.5,822.5 Z"/></g>
<g><path style="opacity:1" fill="#d5eaec" d="M 1611.5,822.5 C 1638.81,821.622 1665.81,824.122 1692.5,830C 1765.14,846.825 1830.8,877.825 1889.5,923C 1948.79,971.282 1999.96,1026.78 2043,1089.5C 2075.85,1137.84 2106.18,1187.84 2134,1239.5C 2176.44,1331.91 2149.6,1394.08 2053.5,1426C 2025.12,1435.01 1996.12,1441.34 1966.5,1445C 1933.25,1448.56 1899.92,1450.89 1866.5,1452C 1792.17,1452.86 1717.83,1453.19 1643.5,1453C 1611.17,1452.34 1580.17,1445.67 1550.5,1433C 1513.13,1414.63 1487.3,1385.79 1473,1346.5C 1459.91,1304.8 1451.58,1262.13 1448,1218.5C 1446.13,1175.35 1444.63,1132.18 1443.5,1089C 1443.7,1059.35 1445.87,1029.85 1450,1000.5C 1455.26,964.056 1467.26,930.056 1486,898.5C 1515.57,853.125 1557.4,827.791 1611.5,822.5 Z"/></g>
<g><path style="opacity:0.997" fill="#7f7f7f" d="M 1016.5,1926.5 C 1017.17,1926.5 1017.5,1926.83 1017.5,1927.5C 1018.83,1927.83 1020.17,1928.17 1021.5,1928.5C 1022.17,1928.5 1022.5,1928.83 1022.5,1929.5C 1022.84,1930.34 1023.51,1930.67 1024.5,1930.5C 1024.84,1931.34 1025.51,1931.67 1026.5,1931.5C 1111.86,1985.14 1160.03,2062.47 1171,2163.5C 1177.69,2273.86 1137.86,2363.02 1051.5,2431C 978.724,2481.97 899.057,2496.63 812.5,2475C 716.863,2445.37 651.697,2383.53 617,2289.5C 585.741,2190.54 599.075,2098.21 657,2012.5C 674.324,1989.01 694.491,1968.34 717.5,1950.5C 718.492,1950.67 719.158,1950.34 719.5,1949.5C 720.167,1949.5 720.5,1949.17 720.5,1948.5C 814.963,1885.2 913.63,1877.87 1016.5,1926.5 Z"/></g>
<g><path style="opacity:0.997" fill="#7f7f7f" d="M 2279.5,1977.5 C 2280.17,1977.5 2280.5,1977.83 2280.5,1978.5C 2281.17,1978.5 2281.5,1978.83 2281.5,1979.5C 2282.17,1979.5 2282.5,1979.83 2282.5,1980.5C 2352.86,2056.78 2379.36,2146.45 2362,2249.5C 2340.55,2349.3 2283.71,2420.8 2191.5,2464C 2135.12,2487.1 2077.12,2492.1 2017.5,2479C 1918.72,2452.19 1850.89,2391.02 1814,2295.5C 1779.14,2189 1794.97,2091 1861.5,2001.5C 1862.17,2001.5 1862.5,2001.17 1862.5,2000.5C 1863.17,2000.5 1863.5,2000.17 1863.5,1999.5C 1864.17,1999.5 1864.5,1999.17 1864.5,1998.5C 1865.17,1998.5 1865.5,1998.17 1865.5,1997.5C 1866.17,1997.5 1866.5,1997.17 1866.5,1996.5C 1905.42,1951.36 1953.75,1920.86 2011.5,1905C 2113.59,1882.87 2202.92,1907.04 2279.5,1977.5 Z"/></g>
<g><path style="opacity:0.998" fill="#e7804a" d="M 2743.5,1994.5 C 2772.04,1998.28 2797.71,2008.78 2820.5,2026C 2848.45,2050.86 2858.62,2081.69 2851,2118.5C 2841.98,2153.38 2824.15,2182.88 2797.5,2207C 2775.48,2226.24 2749.81,2237.58 2720.5,2241C 2681.93,2245.38 2644.93,2239.72 2609.5,2224C 2600.76,2219.74 2592.43,2214.9 2584.5,2209.5C 2584.63,2208.76 2584.46,2208.09 2584,2207.5C 2561.61,2188.73 2548.61,2164.73 2545,2135.5C 2540.71,2090.33 2556.54,2054.17 2592.5,2027C 2638.82,1998.07 2689.15,1987.24 2743.5,1994.5 Z"/></g>
<g><path style="opacity:0.997" fill="#e7804a" d="M 355.5,2005.5 C 366.293,2007.7 376.96,2010.53 387.5,2014C 410.333,2023.5 426.5,2039.67 436,2062.5C 446.715,2098.02 447.215,2133.69 437.5,2169.5C 423.556,2203.6 398.556,2225.1 362.5,2234C 305.6,2245.61 249.934,2241.28 195.5,2221C 155.237,2201.99 137.737,2170.16 143,2125.5C 154.315,2059.85 192.815,2021.02 258.5,2009C 290.688,2003.32 323.022,2002.16 355.5,2005.5 Z"/></g>
<g><path style="opacity:1" fill="#000000" d="M 873.5,2074.5 C 932.813,2073.33 972.313,2100.66 992,2156.5C 1004.12,2206.12 991.621,2248.29 954.5,2283C 916.016,2311.8 875.349,2315.13 832.5,2293C 791.775,2265.92 772.942,2227.75 776,2178.5C 784.723,2121.29 817.223,2086.63 873.5,2074.5 Z"/></g>
<g><path style="opacity:1" fill="#000000" d="M 2068.5,2074.5 C 2129.04,2073.33 2168.87,2101.33 2188,2158.5C 2198.98,2206.02 2187.15,2246.85 2152.5,2281C 2114.3,2311.36 2073.3,2315.69 2029.5,2294C 1991.08,2270 1971.74,2235.17 1971.5,2189.5C 1972.53,2146.6 1990.86,2113.44 2026.5,2090C 2039.76,2082.53 2053.76,2077.36 2068.5,2074.5 Z"/></g>
</svg>
