<?xml version="1.0" encoding="UTF-8"?>
<!DOCTYPE svg PUBLIC "-//W3C//DTD SVG 1.1//EN" "http://www.w3.org/Graphics/SVG/1.1/DTD/svg11.dtd">
<svg xmlns="http://www.w3.org/2000/svg" version="1.1" width="3000px" height="3000px" style="shape-rendering:geometricPrecision; text-rendering:geometricPrecision; image-rendering:optimizeQuality; fill-rule:evenodd; clip-rule:evenodd" xmlns:xlink="http://www.w3.org/1999/xlink">
<g><path style="opacity:0.999" fill="#cbcbcb" d="M 2126.5,667.5 C 2183.06,866.357 2248.9,1062.02 2324,1254.5C 2348.62,1316.34 2375.95,1377.01 2406,1436.5C 2428.59,1482.06 2455.43,1524.73 2486.5,1564.5C 2433.27,1610.24 2377.6,1652.74 2319.5,1692C 2123.64,1822.45 1915.64,1931.28 1695.5,2018.5C 1689.21,2012.37 1683.38,2005.7 1678,1998.5C 1649.92,1958.02 1623.58,1916.35 1599,1873.5C 1553.94,1793.71 1511.77,1712.37 1472.5,1629.5C 1472.66,1628.13 1472.49,1626.79 1472,1625.5C 1458.18,1594.52 1444.68,1563.52 1431.5,1532.5C 1412.06,1483 1394.89,1432.67 1380,1381.5C 1376.34,1367.18 1372.84,1352.85 1369.5,1338.5C 1362.84,1309.41 1359.18,1279.91 1358.5,1250C 1358.03,1225.87 1362.36,1202.7 1371.5,1180.5C 1383,1155.68 1397.33,1132.68 1414.5,1111.5C 1428.85,1092.98 1444.51,1075.48 1461.5,1059C 1508.93,1014.21 1559.27,973.215 1612.5,936C 1740.21,847.441 1875.55,771.108 2018.5,707C 2053.51,691.163 2089.51,677.996 2126.5,667.5 Z"/></g>
<g><path style="opacity:0.998" fill="#e5e5e5" d="M 2126.5,667.5 C 2210.88,689.869 2291.54,721.369 2368.5,762C 2420.37,789.522 2466.87,824.355 2508,866.5C 2527.47,888.091 2543.47,912.091 2556,938.5C 2664.68,1197.04 2770.51,1456.7 2873.5,1717.5C 2863.77,1717.46 2854.1,1716.63 2844.5,1715C 2807.68,1705.95 2771.68,1694.28 2736.5,1680C 2651.53,1645.01 2568.19,1606.51 2486.5,1564.5C 2455.43,1524.73 2428.59,1482.06 2406,1436.5C 2375.95,1377.01 2348.62,1316.34 2324,1254.5C 2248.9,1062.02 2183.06,866.357 2126.5,667.5 Z"/></g>
<g><path style="opacity:1" fill="#1a1a1a" d="M 2247.5,760.5 C 2264.39,759.408 2279.06,764.575 2291.5,776C 2316.01,799.202 2334.18,826.702 2346,858.5C 2358.38,889.359 2363.38,921.359 2361,954.5C 2359.95,969.325 2354.45,982.159 2344.5,993C 2330.07,1001.79 2315.73,1001.46 2301.5,992C 2283.57,980.075 2269.07,964.909 2258,946.5C 2230.48,902.762 2217.82,855.095 2220,803.5C 2221.43,788.848 2227.26,776.348 2237.5,766C 2240.77,763.87 2244.1,762.037 2247.5,760.5 Z"/></g>
<g><path style="opacity:1" fill="#1a1a1a" d="M 1975.5,830.5 C 2031.93,829.605 2071.09,854.938 2093,906.5C 2106.38,954.158 2095.21,994.991 2059.5,1029C 2021.2,1058.42 1979.87,1063.42 1935.5,1044C 1891.56,1018.63 1871.39,980.465 1875,929.5C 1882.54,883.632 1908.04,852.465 1951.5,836C 1959.5,833.652 1967.5,831.819 1975.5,830.5 Z"/></g>
<g><path style="opacity:0.998" fill="#e5e5e5" d="M 1414.5,1111.5 C 1397.33,1132.68 1383,1155.68 1371.5,1180.5C 1287.08,1249.92 1198.75,1313.92 1106.5,1372.5C 1089.35,1375.76 1072.02,1377.93 1054.5,1379C 983.603,1381.26 912.937,1378.26 842.5,1370C 743.951,1358.49 645.951,1343.49 548.5,1325C 414.538,1299.46 281.538,1270.29 149.5,1237.5C 211.634,1174.17 280.301,1119.34 355.5,1073C 389.03,1053.07 424.03,1036.07 460.5,1022C 505.291,1004.64 551.625,997.641 599.5,1001C 757.689,1020.19 915.689,1040.86 1073.5,1063C 1187.25,1078.94 1300.92,1095.11 1414.5,1111.5 Z"/></g>
<g><path style="opacity:1" fill="#1a1a1a" d="M 2474.5,1105.5 C 2491.76,1104.2 2506.76,1109.36 2519.5,1121C 2549.06,1149.93 2569.56,1184.43 2581,1224.5C 2584.5,1236.99 2587.16,1249.66 2589,1262.5C 2589.67,1275.17 2589.67,1287.83 2589,1300.5C 2587.6,1315.74 2581.43,1328.57 2570.5,1339C 2556.52,1346.67 2542.86,1346 2529.5,1337C 2508.78,1322.28 2492.28,1303.78 2480,1281.5C 2463.12,1251.19 2452.45,1218.85 2448,1184.5C 2447.33,1171.5 2447.33,1158.5 2448,1145.5C 2450.08,1131.5 2456.25,1119.66 2466.5,1110C 2469.19,1108.4 2471.86,1106.9 2474.5,1105.5 Z"/></g>
<g><path style="opacity:1" fill="#1a1a1a" d="M 1524.5,1117.5 C 1570.38,1117.02 1605.55,1136.02 1630,1174.5C 1651.73,1217.99 1648.73,1259.66 1621,1299.5C 1593.73,1331.82 1558.89,1345.99 1516.5,1342C 1461.24,1330.74 1429.07,1297.24 1420,1241.5C 1417.32,1202.53 1430.49,1170.03 1459.5,1144C 1478.55,1128.6 1500.21,1119.77 1524.5,1117.5 Z"/></g>
<g><path style="opacity:1" fill="#1a1a1a" d="M 737.5,1134.5 C 786.593,1131.62 832.927,1141.45 876.5,1164C 891.72,1172.22 903.22,1184.05 911,1199.5C 915.08,1217.84 908.913,1231.68 892.5,1241C 876.475,1249.26 859.475,1254.26 841.5,1256C 793.752,1260.6 748.419,1252.27 705.5,1231C 693.871,1224.71 683.371,1216.87 674,1207.5C 655.449,1183.63 659.283,1164.13 685.5,1149C 702.095,1141.08 719.429,1136.25 737.5,1134.5 Z"/></g>
<g><path style="opacity:0.998" fill="#b2b2b2" d="M 1371.5,1180.5 C 1362.36,1202.7 1358.03,1225.87 1358.5,1250C 1359.18,1279.91 1362.84,1309.41 1369.5,1338.5C 1365.97,1343.58 1363.47,1349.24 1362,1355.5C 1356.11,1378.28 1353.27,1401.44 1353.5,1425C 1352.91,1463.19 1358.74,1500.36 1371,1536.5C 1375.1,1546.55 1380.6,1555.71 1387.5,1564C 1398.37,1573.07 1408.54,1572.24 1418,1561.5C 1423.77,1552.34 1428.27,1542.67 1431.5,1532.5C 1444.68,1563.52 1458.18,1594.52 1472,1625.5C 1472.49,1626.79 1472.66,1628.13 1472.5,1629.5C 1472.23,1720.41 1467.4,1811.08 1458,1901.5C 1455.29,1926.79 1450.95,1951.79 1445,1976.5C 1440.52,1992.79 1433.86,2008.12 1425,2022.5C 1412.87,2041.96 1399.21,2060.3 1384,2077.5C 1354.33,2108.37 1322.49,2136.54 1288.5,2162C 1270.5,2174.67 1252.5,2187.33 1234.5,2200C 1191.49,2227.84 1148.82,2256.17 1106.5,2285C 1104.65,2286.13 1102.65,2286.63 1100.5,2286.5C 1102.41,2285.79 1104.08,2284.62 1105.5,2283C 1140.88,2041.45 1149.38,1798.95 1131,1555.5C 1125.86,1494.05 1117.7,1433.05 1106.5,1372.5C 1198.75,1313.92 1287.08,1249.92 1371.5,1180.5 Z"/></g>
<g><path style="opacity:0.999" fill="#cbcbcb" d="M 149.5,1237.5 C 281.538,1270.29 414.538,1299.46 548.5,1325C 645.951,1343.49 743.951,1358.49 842.5,1370C 912.937,1378.26 983.603,1381.26 1054.5,1379C 1072.02,1377.93 1089.35,1375.76 1106.5,1372.5C 1117.7,1433.05 1125.86,1494.05 1131,1555.5C 1149.38,1798.95 1140.88,2041.45 1105.5,2283C 1104.08,2284.62 1102.41,2285.79 1100.5,2286.5C 1066.05,2291.75 1031.39,2294.58 996.5,2295C 844.154,2298.8 692.487,2290.47 541.5,2270C 471,2260.79 402,2245.12 334.5,2223C 299.811,2211.79 268.144,2195.13 239.5,2173C 216.934,2151.42 199.434,2126.25 187,2097.5C 163.687,2040.88 147.687,1982.22 139,1921.5C 121.743,1804.13 114.41,1686.13 117,1567.5C 117.94,1493.96 122.274,1420.63 130,1347.5C 133.608,1310.18 140.108,1273.51 149.5,1237.5 Z"/></g>
<g><path style="opacity:1" fill="#1a1a1a" d="M 1885.5,1245.5 C 1932.58,1242.62 1969.08,1260.62 1995,1299.5C 2012.12,1330.5 2015.12,1362.83 2004,1396.5C 1980.84,1449.18 1940.34,1473.35 1882.5,1469C 1828.91,1458.41 1797.07,1426.24 1787,1372.5C 1782.93,1314.11 1807.77,1273.61 1861.5,1251C 1869.58,1248.75 1877.58,1246.92 1885.5,1245.5 Z"/></g>
<g><path style="opacity:1" fill="#1a1a1a" d="M 1369.5,1338.5 C 1372.84,1352.85 1376.34,1367.18 1380,1381.5C 1394.89,1432.67 1412.06,1483 1431.5,1532.5C 1428.27,1542.67 1423.77,1552.34 1418,1561.5C 1408.54,1572.24 1398.37,1573.07 1387.5,1564C 1380.6,1555.71 1375.1,1546.55 1371,1536.5C 1358.74,1500.36 1352.91,1463.19 1353.5,1425C 1353.27,1401.44 1356.11,1378.28 1362,1355.5C 1363.47,1349.24 1365.97,1343.58 1369.5,1338.5 Z"/></g>
<g><path style="opacity:1" fill="#1a1a1a" d="M 307.5,1384.5 C 345.931,1382.36 378.097,1395.36 404,1423.5C 428.948,1454.71 436.281,1489.71 426,1528.5C 410.279,1574.88 378.112,1601.71 329.5,1609C 282.52,1611.26 246.353,1592.76 221,1553.5C 197.754,1509.19 200.754,1466.86 230,1426.5C 250.408,1402.38 276.242,1388.38 307.5,1384.5 Z"/></g>
<g><path style="opacity:1" fill="#1a1a1a" d="M 1226.5,1401.5 C 1240.29,1401.31 1251.46,1406.65 1260,1417.5C 1273.32,1436.11 1281.99,1456.78 1286,1479.5C 1293.04,1518.55 1291.37,1557.22 1281,1595.5C 1276.16,1615.64 1266.32,1632.81 1251.5,1647C 1237.79,1656.89 1224.12,1656.89 1210.5,1647C 1200.07,1637.32 1192.24,1625.82 1187,1612.5C 1176.66,1584.79 1171.83,1556.12 1172.5,1526.5C 1171.53,1492.32 1178.69,1459.99 1194,1429.5C 1201.07,1415.58 1211.9,1406.25 1226.5,1401.5 Z"/></g>
<g><path style="opacity:1" fill="#1a1a1a" d="M 2667.5,1406.5 C 2681.24,1405.85 2693.57,1409.68 2704.5,1418C 2721.25,1431.68 2735.09,1447.85 2746,1466.5C 2763.7,1496.94 2775.04,1529.61 2780,1564.5C 2781.06,1580.58 2780.39,1596.58 2778,1612.5C 2769.49,1644.5 2750.33,1653.34 2720.5,1639C 2701.54,1625.38 2686.04,1608.54 2674,1588.5C 2649.13,1546.89 2637.13,1501.89 2638,1453.5C 2639.27,1438.47 2644.77,1425.3 2654.5,1414C 2658.6,1410.95 2662.94,1408.45 2667.5,1406.5 Z"/></g>
<g><path style="opacity:1" fill="#1a1a1a" d="M 2257.5,1407.5 C 2315.45,1404.99 2355.61,1430.33 2378,1483.5C 2391.13,1531.37 2379.63,1572.2 2343.5,1606C 2302.97,1637.05 2259.97,1640.71 2214.5,1617C 2174.96,1591.42 2156.46,1554.92 2159,1507.5C 2168.92,1451.41 2201.75,1418.08 2257.5,1407.5 Z"/></g>
<g><path style="opacity:0.998" fill="#b2b2b2" d="M 2486.5,1564.5 C 2568.19,1606.51 2651.53,1645.01 2736.5,1680C 2771.68,1694.28 2807.68,1705.95 2844.5,1715C 2854.1,1716.63 2863.77,1717.46 2873.5,1717.5C 2877.62,1716.89 2880.62,1718.39 2882.5,1722C 2881.59,1725.98 2879.76,1729.48 2877,1732.5C 2861.52,1747.97 2845.02,1762.14 2827.5,1775C 2747.21,1831.82 2664.55,1885.16 2579.5,1935C 2476.83,1995.84 2371.83,2052.84 2264.5,2106C 2232.75,2121.38 2200.42,2135.38 2167.5,2148C 2131.86,2162.9 2094.86,2167.9 2056.5,2163C 2012.38,2157.64 1969.72,2146.64 1928.5,2130C 1896.25,2117.36 1864.58,2103.36 1833.5,2088C 1787.56,2064.53 1741.56,2041.37 1695.5,2018.5C 1915.64,1931.28 2123.64,1822.45 2319.5,1692C 2377.6,1652.74 2433.27,1610.24 2486.5,1564.5 Z"/></g>
<g><path style="opacity:1" fill="#1a1a1a" d="M 1747.5,1639.5 C 1803.87,1636.09 1844.04,1659.76 1868,1710.5C 1883.75,1759.32 1873.25,1801.49 1836.5,1837C 1790.69,1871.75 1743.69,1873.42 1695.5,1842C 1654.02,1806.55 1641.52,1762.72 1658,1710.5C 1675.34,1670.99 1705.17,1647.32 1747.5,1639.5 Z"/></g>
<g><path style="opacity:1" fill="#1a1a1a" d="M 568.5,1643.5 C 618.975,1638.99 657.475,1657.99 684,1700.5C 705.122,1742.21 702.789,1782.55 677,1821.5C 646.463,1859.69 606.963,1874.19 558.5,1865C 519.796,1853.63 493.296,1829.13 479,1791.5C 464.353,1737.43 479.52,1693.93 524.5,1661C 538.028,1652.11 552.695,1646.27 568.5,1643.5 Z"/></g>
<g><path style="opacity:1" fill="#1a1a1a" d="M 1395.5,1733.5 C 1403.42,1732.75 1409.92,1735.42 1415,1741.5C 1420.66,1749.83 1425,1758.83 1428,1768.5C 1442.26,1831.35 1438.26,1893.02 1416,1953.5C 1411.13,1965.09 1403.97,1974.93 1394.5,1983C 1384.86,1987.6 1376.7,1985.76 1370,1977.5C 1364.67,1969.84 1360.67,1961.5 1358,1952.5C 1343.75,1892.86 1346.08,1833.86 1365,1775.5C 1369.77,1762.41 1376.6,1750.58 1385.5,1740C 1388.73,1737.56 1392.06,1735.39 1395.5,1733.5 Z"/></g>
<g><path style="opacity:1" fill="#1a1a1a" d="M 2391.5,1842.5 C 2424.37,1839.84 2433.54,1853.18 2419,1882.5C 2407.71,1900.14 2393.87,1915.64 2377.5,1929C 2341.12,1959.86 2299.79,1981.86 2253.5,1995C 2242.48,1996.91 2231.48,1996.91 2220.5,1995C 2210.4,1990.41 2206.56,1982.57 2209,1971.5C 2213.89,1957.96 2221.22,1945.96 2231,1935.5C 2269.32,1895.87 2314.48,1866.71 2366.5,1848C 2374.95,1845.97 2383.28,1844.13 2391.5,1842.5 Z"/></g>
<g><path style="opacity:1" fill="#1a1a1a" d="M 1233.5,1866.5 C 1247.53,1864.27 1259.03,1868.61 1268,1879.5C 1279.73,1895.66 1287.4,1913.66 1291,1933.5C 1298.95,1980.82 1294.28,2026.82 1277,2071.5C 1271.34,2085.99 1262.84,2098.49 1251.5,2109C 1231.24,2123.7 1213.74,2120.87 1199,2100.5C 1186.68,2079.87 1179.35,2057.54 1177,2033.5C 1172.61,1993.71 1177.27,1955.04 1191,1917.5C 1197.3,1899.89 1207.46,1885.06 1221.5,1873C 1225.43,1870.54 1229.43,1868.37 1233.5,1866.5 Z"/></g>
<g><path style="opacity:1" fill="#1a1a1a" d="M 846.5,1924.5 C 894.13,1921.9 930.63,1940.56 956,1980.5C 974.992,2017.31 975.325,2054.31 957,2091.5C 932.273,2131.79 896.107,2150.95 848.5,2149C 792.699,2140.53 758.866,2108.7 747,2053.5C 742.369,2003.93 760.869,1965.77 802.5,1939C 816.334,1931.22 831.001,1926.39 846.5,1924.5 Z"/></g>
</svg>
