<?xml version="1.0" encoding="UTF-8"?>
<!DOCTYPE svg PUBLIC "-//W3C//DTD SVG 1.1//EN" "http://www.w3.org/Graphics/SVG/1.1/DTD/svg11.dtd">
<svg xmlns="http://www.w3.org/2000/svg" version="1.1" width="3000px" height="3000px" style="shape-rendering:geometricPrecision; text-rendering:geometricPrecision; image-rendering:optimizeQuality; fill-rule:evenodd; clip-rule:evenodd" xmlns:xlink="http://www.w3.org/1999/xlink">
<g><path style="opacity:0.995" fill="#4c956b" d="M 1823.5,901.5 C 1821.78,931.427 1820.45,961.427 1819.5,991.5C 1795.5,991.5 1771.5,991.5 1747.5,991.5C 1747.81,961.317 1747.15,931.317 1745.5,901.5C 1743.83,847.507 1742.33,793.507 1741,739.5C 1740.11,723.463 1738.77,707.463 1737,691.5C 1726.74,613.775 1716.08,536.108 1705,458.5C 1699.45,417.619 1687.12,378.952 1668,342.5C 1623.56,270.532 1559.06,238.365 1474.5,246C 1441.61,252.279 1412.61,266.279 1387.5,288C 1351.07,321.774 1323.24,361.607 1304,407.5C 1282.18,460.287 1265.18,514.621 1253,570.5C 1235.19,642.811 1224.19,716.144 1220,790.5C 1217.33,830.791 1215.83,871.125 1215.5,911.5C 1214.5,947.663 1214.17,983.996 1214.5,1020.5C 1186.86,1022.18 1159.2,1022.84 1131.5,1022.5C 1131.56,987.487 1132.23,952.487 1133.5,917.5C 1135.8,826.114 1142.97,735.114 1155,644.5C 1164.48,577.097 1178.81,510.763 1198,445.5C 1214.85,390.477 1239.18,339.143 1271,291.5C 1295.5,255 1326,224.5 1362.5,200C 1409.69,171.909 1460.86,158.409 1516,159.5C 1555.85,158.669 1594.02,166.169 1630.5,182C 1662.82,198.318 1689.66,221.152 1711,250.5C 1737.69,290.219 1757.69,333.219 1771,379.5C 1784.32,426.753 1793.99,474.753 1800,523.5C 1813.2,616.721 1820.87,710.388 1823,804.5C 1823.5,836.832 1823.67,869.165 1823.5,901.5 Z M 1745.5,901.5 C 1697.33,901.277 1649.16,901.61 1601,902.5C 1594.17,902.167 1587.33,901.833 1580.5,901.5C 1580.02,900.522 1579.36,899.689 1578.5,899C 1554.13,899.361 1529.8,900.695 1505.5,903C 1408.82,905.654 1312.16,908.488 1215.5,911.5C 1215.83,871.125 1217.33,830.791 1220,790.5C 1224.19,716.144 1235.19,642.811 1253,570.5C 1265.18,514.621 1282.18,460.287 1304,407.5C 1323.24,361.607 1351.07,321.774 1387.5,288C 1412.61,266.279 1441.61,252.279 1474.5,246C 1559.06,238.365 1623.56,270.532 1668,342.5C 1687.12,378.952 1699.45,417.619 1705,458.5C 1716.08,536.108 1726.74,613.775 1737,691.5C 1738.77,707.463 1740.11,723.463 1741,739.5C 1742.33,793.507 1743.83,847.507 1745.5,901.5 Z"/></g>
<g><path style="opacity:0.998" fill="#251f24" d="M 646.5,1706.5 C 641.434,1709.2 636.1,1711.53 630.5,1713.5C 629.905,1724.81 629.905,1736.14 630.5,1747.5C 542.696,1745.09 468.529,1712.42 408,1649.5C 339.151,1573.62 309.484,1484.62 319,1382.5C 326.377,1321.43 350.71,1268.43 392,1223.5C 426.392,1187.41 464.559,1156.25 506.5,1130C 560.571,1096.94 614.904,1064.27 669.5,1032C 710.722,1007.44 748.222,977.943 782,943.5C 805.201,918.113 822.534,889.113 834,856.5C 848.16,795.152 835.827,739.818 797,690.5C 785.667,677.167 774.333,663.833 763,650.5C 760.228,643.381 760.895,636.381 765,629.5C 769.387,623.768 774.887,619.602 781.5,617C 789.636,614.879 796.303,617.046 801.5,623.5C 819.775,643.404 836.608,664.404 852,686.5C 886.255,740.282 894.588,797.949 877,859.5C 865.832,896.181 848.165,929.181 824,958.5C 801.761,985.406 776.928,1009.57 749.5,1031C 726.866,1048.32 703.533,1064.65 679.5,1080C 625.5,1112.33 571.5,1144.67 517.5,1177C 488.519,1195 461.519,1215.67 436.5,1239C 371.365,1303.41 345.531,1381.24 359,1472.5C 379.378,1581.46 441.545,1654.96 545.5,1693C 578.316,1703.64 611.982,1708.14 646.5,1706.5 Z"/></g>
<g><path style="opacity:0.998" fill="#251f24" d="M 2313.5,1678.5 C 2313.5,1672.17 2313.5,1665.83 2313.5,1659.5C 2302.82,1659.21 2292.48,1657.54 2282.5,1654.5C 2309.01,1639.08 2335.68,1623.91 2362.5,1609C 2397.81,1589.77 2429.31,1565.6 2457,1536.5C 2499.55,1484.91 2509.88,1427.24 2488,1363.5C 2481.39,1344.67 2473.06,1326.67 2463,1309.5C 2434.88,1264.62 2402.88,1222.62 2367,1183.5C 2351.24,1167.06 2333.74,1152.89 2314.5,1141C 2267.9,1098.07 2232.74,1047.24 2209,988.5C 2169.52,873.593 2193.02,773.76 2279.5,689C 2297.78,673.186 2317.78,659.853 2339.5,649C 2370.19,637.774 2401.86,633.774 2434.5,637C 2497.4,643.41 2556.4,662.077 2611.5,693C 2634.43,706.4 2654.59,723.234 2672,743.5C 2682.07,755.968 2689.23,769.968 2693.5,785.5C 2690.73,801.882 2681.06,809.716 2664.5,809C 2658.55,807.448 2653.72,804.281 2650,799.5C 2640.48,776.301 2625.98,756.801 2606.5,741C 2574.18,717.342 2538.51,700.342 2499.5,690C 2463.74,679.247 2427.41,675.914 2390.5,680C 2365.29,683.777 2342.95,693.777 2323.5,710C 2275.71,750.724 2248.21,802.558 2241,865.5C 2235.36,925.932 2249.02,981.599 2282,1032.5C 2308.16,1071.34 2339.33,1105.84 2375.5,1136C 2410.49,1168.32 2443.32,1202.49 2474,1238.5C 2506.32,1277.48 2528.32,1321.81 2540,1371.5C 2558.15,1459.05 2533.65,1531.88 2466.5,1590C 2425.74,1622.06 2381.74,1649.06 2334.5,1671C 2327.5,1673.61 2320.5,1676.11 2313.5,1678.5 Z"/></g>
<g><path style="opacity:0.999" fill="#a6c856" d="M 1745.5,901.5 C 1747.15,931.317 1747.81,961.317 1747.5,991.5C 1771.5,991.5 1795.5,991.5 1819.5,991.5C 1820.45,961.427 1821.78,931.427 1823.5,901.5C 1827.51,901.334 1831.51,901.501 1835.5,902C 1837.4,902.199 1838.9,903.033 1840,904.5C 1840.96,934.835 1841.96,965.168 1843,995.5C 1843.77,1011.22 1845.11,1026.88 1847,1042.5C 1853.56,1082.64 1860.89,1122.64 1869,1162.5C 1883.52,1252.06 1913.85,1335.73 1960,1413.5C 1977.16,1441.65 1995.49,1468.98 2015,1495.5C 2052.53,1538.97 2095.7,1575.47 2144.5,1605C 2187.96,1628.54 2233.96,1645.04 2282.5,1654.5C 2292.48,1657.54 2302.82,1659.21 2313.5,1659.5C 2313.5,1665.83 2313.5,1672.17 2313.5,1678.5C 2313.4,1720.19 2315.23,1761.86 2319,1803.5C 2320.3,1895.2 2322.8,1986.87 2326.5,2078.5C 2324.87,2105.14 2323.87,2131.81 2323.5,2158.5C 2325.09,2211.19 2327.26,2263.85 2330,2316.5C 2331.8,2457.17 2334.13,2597.84 2337,2738.5C 2338.41,2759.87 2340.24,2781.21 2342.5,2802.5C 2286.13,2803 2229.79,2804.84 2173.5,2808C 2111.16,2808.24 2048.83,2808.74 1986.5,2809.5C 1976,2809.28 1965.5,2808.95 1955,2808.5C 1838.82,2811.92 1722.65,2815.76 1606.5,2820C 1558.32,2820.8 1510.15,2820.3 1462,2818.5C 1374.88,2822.41 1287.71,2824.24 1200.5,2824C 1107.86,2827.4 1015.19,2829.73 922.5,2831C 891.417,2832.21 860.417,2834.54 829.5,2838C 769.49,2838.9 709.49,2840.07 649.5,2841.5C 645.622,2745.47 641.122,2649.47 636,2553.5C 633.481,2331.31 629.981,2109.14 625.5,1887C 626.037,1840.45 627.703,1793.95 630.5,1747.5C 629.905,1736.14 629.905,1724.81 630.5,1713.5C 636.1,1711.53 641.434,1709.2 646.5,1706.5C 705.622,1682.78 760.955,1652.62 812.5,1616C 845.287,1592.22 876.62,1566.56 906.5,1539C 986.827,1460.88 1038.99,1366.71 1063,1256.5C 1080.28,1179.11 1086.62,1101.11 1082,1022.5C 1080.24,988.841 1078.74,955.175 1077.5,921.5C 1096.13,919.811 1114.8,918.477 1133.5,917.5C 1132.23,952.487 1131.56,987.487 1131.5,1022.5C 1159.2,1022.84 1186.86,1022.18 1214.5,1020.5C 1214.17,983.996 1214.5,947.663 1215.5,911.5C 1312.16,908.488 1408.82,905.654 1505.5,903C 1529.8,900.695 1554.13,899.361 1578.5,899C 1579.36,899.689 1580.02,900.522 1580.5,901.5C 1587.33,901.833 1594.17,902.167 1601,902.5C 1649.16,901.61 1697.33,901.277 1745.5,901.5 Z"/></g>
<g><path style="opacity:1" fill="#4c956b" d="M 1685.5,1068.5 C 1692.17,1068.33 1698.84,1068.5 1705.5,1069C 1707.81,1070.11 1709.31,1071.94 1710,1074.5C 1717.77,1158.14 1715.44,1241.47 1703,1324.5C 1699.01,1344.8 1693.01,1364.46 1685,1383.5C 1676.07,1397.09 1664.57,1407.93 1650.5,1416C 1612.81,1436.78 1572.48,1449.12 1529.5,1453C 1488.68,1457.17 1448.02,1456.17 1407.5,1450C 1376.66,1444.17 1348.32,1432.5 1322.5,1415C 1295.81,1396.13 1279.31,1370.63 1273,1338.5C 1271,1326.5 1269,1314.5 1267,1302.5C 1259.31,1229.03 1256.31,1155.36 1258,1081.5C 1258.78,1079.71 1259.95,1078.21 1261.5,1077C 1302.47,1075.14 1343.47,1072.81 1384.5,1070C 1405.83,1069.33 1427.17,1069.33 1448.5,1070C 1477.99,1071.89 1507.49,1073.39 1537,1074.5C 1586.68,1073.17 1636.18,1071.17 1685.5,1068.5 Z"/></g>
<g><path style="opacity:1" fill="#2c6e49" d="M 1961.5,1968.5 C 1973.17,1968.33 1984.84,1968.5 1996.5,1969C 1999.72,1971.27 2001.56,1974.43 2002,1978.5C 2004.83,2025.81 2007.16,2073.14 2009,2120.5C 2010.54,2221.57 2008.54,2322.57 2003,2423.5C 2002.71,2453.91 1997.04,2483.25 1986,2511.5C 1976.61,2530.89 1962.44,2545.73 1943.5,2556C 1923.84,2568.33 1902.84,2577.66 1880.5,2584C 1835.09,2591.14 1789.42,2596.14 1743.5,2599C 1718.18,2602.13 1692.85,2605.13 1667.5,2608C 1643.38,2610.05 1619.21,2611.21 1595,2611.5C 1550.16,2610.59 1505.33,2609.59 1460.5,2608.5C 1429.5,2609.21 1398.5,2609.37 1367.5,2609C 1314.84,2604.33 1262.17,2599.67 1209.5,2595C 1178.2,2591.59 1147.87,2584.26 1118.5,2573C 1069.59,2552.42 1039.09,2516.25 1027,2464.5C 1022.86,2446.05 1020.19,2427.38 1019,2408.5C 1017.84,2326.99 1013.51,2245.66 1006,2164.5C 1003.68,2117.49 1001.18,2070.49 998.5,2023.5C 995.755,2008.13 1001.76,1998.3 1016.5,1994C 1059.5,1993.09 1102.5,1992.09 1145.5,1991C 1197.16,1991.28 1248.83,1991.28 1300.5,1991C 1344.14,1986.05 1387.81,1981.38 1431.5,1977C 1480.83,1976.67 1530.17,1976.33 1579.5,1976C 1626.66,1974.09 1673.83,1972.26 1721,1970.5C 1757.68,1971.09 1794.35,1972.09 1831,1973.5C 1874.7,1972.94 1918.2,1971.27 1961.5,1968.5 Z"/></g>
</svg>
