<?xml version="1.0" encoding="UTF-8"?>
<!DOCTYPE svg PUBLIC "-//W3C//DTD SVG 1.1//EN" "http://www.w3.org/Graphics/SVG/1.1/DTD/svg11.dtd">
<svg xmlns="http://www.w3.org/2000/svg" version="1.1" width="3000px" height="3000px" style="shape-rendering:geometricPrecision; text-rendering:geometricPrecision; image-rendering:optimizeQuality; fill-rule:evenodd; clip-rule:evenodd" xmlns:xlink="http://www.w3.org/1999/xlink">
<g><path style="opacity:0.996" fill="#70c1b2" d="M 2030.5,326.5 C 2033.69,344.095 2031.19,360.761 2023,376.5C 2008.91,391.984 1991.74,396.817 1971.5,391C 1952.5,382.529 1941,368.029 1937,347.5C 1935.81,341.028 1934.65,334.694 1933.5,328.5C 1928.3,286.343 1935.8,246.676 1956,209.5C 1961.23,201.8 1968.4,198.3 1977.5,199C 1980.1,199.883 1982.27,201.383 1984,203.5C 1998.49,229.823 2010.83,257.157 2021,285.5C 2025.27,298.924 2028.44,312.591 2030.5,326.5 Z"/></g>
<g><path style="opacity:0.996" fill="#70c1b2" d="M 1841.5,344.5 C 1847.5,352.677 1853.34,361.01 1859,369.5C 1868,384.222 1865.83,397.055 1852.5,408C 1834.27,418.971 1814.94,427.638 1794.5,434C 1777.72,437.359 1764.22,432.193 1754,418.5C 1747.03,408.388 1741.2,397.721 1736.5,386.5C 1718.03,341.339 1708.87,294.339 1709,245.5C 1709.83,243.333 1711.33,241.833 1713.5,241C 1730.36,239.465 1746.03,243.132 1760.5,252C 1775.84,262.003 1789.34,274.17 1801,288.5C 1815.11,306.766 1828.61,325.432 1841.5,344.5 Z"/></g>
<g><path style="opacity:0.995" fill="#70c1b2" d="M 2174.5,353.5 C 2174.27,386.117 2159.61,394.95 2130.5,380C 2112.51,369.83 2101.51,354.663 2097.5,334.5C 2095.91,322.209 2098.41,310.876 2105,300.5C 2121.12,284.464 2137.78,269.13 2155,254.5C 2160.36,259.857 2164.03,266.191 2166,273.5C 2169.68,300.083 2172.51,326.75 2174.5,353.5 Z"/></g>
<g><path style="opacity:0.995" fill="#70c2b2" d="M 1663.5,433.5 C 1640.51,453.657 1619.35,475.657 1600,499.5C 1592.3,510.681 1584.47,521.681 1576.5,532.5C 1566.44,525.268 1558.27,516.268 1552,505.5C 1516.71,450.627 1496.38,390.627 1491,325.5C 1492.59,323.703 1494.59,322.703 1497,322.5C 1546.25,339.842 1591.09,364.675 1631.5,397C 1643.87,407.853 1654.53,420.02 1663.5,433.5 Z"/></g>
<g><path style="opacity:1" fill="#9f9dc6" d="M 2030.5,326.5 C 2053.04,327.776 2075.38,330.443 2097.5,334.5C 2101.51,354.663 2112.51,369.83 2130.5,380C 2159.61,394.95 2174.27,386.117 2174.5,353.5C 2249.52,376.161 2315.52,413.994 2372.5,467C 2390.7,486.2 2408.54,505.7 2426,525.5C 2460.06,559.744 2498.23,588.41 2540.5,611.5C 2582.5,601.91 2610.67,617.243 2625,657.5C 2628.02,669.665 2630.02,681.999 2631,694.5C 2641.25,718.481 2647.58,743.481 2650,769.5C 2656.17,831.108 2654.17,892.442 2644,953.5C 2641.28,968.047 2637.78,982.38 2633.5,996.5C 2613.21,1001.79 2592.54,1004.62 2571.5,1005C 2545.72,1006.42 2520.05,1005.42 2494.5,1002C 2433.02,989.13 2372.35,973.13 2312.5,954C 2272.94,939.551 2235.6,920.885 2200.5,898C 2186.04,889.135 2170.37,885.135 2153.5,886C 2149.3,888.981 2148.47,892.814 2151,897.5C 2152.25,898.211 2153.42,899.044 2154.5,900C 2169.82,900.494 2183.82,904.994 2196.5,913.5C 2195.89,934.271 2197.05,954.938 2200,975.5C 2201.08,983.066 2203.91,989.9 2208.5,996C 2212.47,997.913 2216.47,997.913 2220.5,996C 2236.62,988.877 2250.12,978.377 2261,964.5C 2263.94,960.626 2265.77,956.293 2266.5,951.5C 2271.02,953.261 2275.35,955.261 2279.5,957.5C 2281.62,981.2 2288.12,1003.87 2299,1025.5C 2301.28,1028.9 2304.11,1031.74 2307.5,1034C 2311.12,1034.84 2314.45,1034.17 2317.5,1032C 2335.51,1019.8 2347.51,1003.3 2353.5,982.5C 2359.21,984.34 2364.88,986.007 2370.5,987.5C 2369.62,987.369 2368.96,987.702 2368.5,988.5C 2373.92,1009.92 2381.42,1030.59 2391,1050.5C 2393.5,1054.33 2396.67,1057.5 2400.5,1060C 2405.04,1061.11 2409.04,1060.11 2412.5,1057C 2429.08,1043.92 2439.75,1027.09 2444.5,1006.5C 2450.98,1008.04 2457.31,1009.7 2463.5,1011.5C 2468.55,1029.32 2475.72,1046.65 2485,1063.5C 2488.12,1068.29 2491.62,1072.79 2495.5,1077C 2499.75,1080.65 2504.42,1081.32 2509.5,1079C 2526.78,1063.61 2537.11,1044.44 2540.5,1021.5C 2542.83,1021.5 2545.17,1021.5 2547.5,1021.5C 2559.69,1039.03 2573.03,1055.7 2587.5,1071.5C 2561.81,1096.2 2532.47,1115.7 2499.5,1130C 2482.59,1137.79 2465.26,1144.46 2447.5,1150C 2425.82,1155.29 2403.82,1158.29 2381.5,1159C 2342.15,1159.69 2302.82,1159.19 2263.5,1157.5C 2240.58,1157.12 2217.91,1159.29 2195.5,1164C 2160.55,1172.41 2143.22,1194.57 2143.5,1230.5C 2148.44,1300.76 2151.78,1371.09 2153.5,1441.5C 2153.5,1480.5 2153.5,1519.5 2153.5,1558.5C 2113.76,1562.53 2075.09,1557.7 2037.5,1544C 2016.53,1535.36 1999.36,1521.86 1986,1503.5C 1947.28,1456.1 1915.61,1404.1 1891,1347.5C 1881.15,1327.12 1868.82,1308.45 1854,1291.5C 1833.48,1270.98 1808.65,1259.48 1779.5,1257C 1731.88,1252.23 1689.21,1264.23 1651.5,1293C 1607.46,1333.64 1597.96,1381.14 1623,1435.5C 1638.21,1461.93 1655.88,1486.6 1676,1509.5C 1717.11,1553.94 1759.61,1597.11 1803.5,1639C 1822.89,1656.86 1843.89,1672.53 1866.5,1686C 1899.71,1704.59 1935.37,1713.09 1973.5,1711.5C 2020.88,1711.74 2067.55,1706.24 2113.5,1695C 2125.76,1691.52 2137.76,1687.36 2149.5,1682.5C 2146.45,1787.04 2129.95,1889.37 2100,1989.5C 2072.67,2077.84 2030.51,2157.84 1973.5,2229.5C 1905.13,2307.56 1821.8,2364.06 1723.5,2399C 1709.97,2403.94 1696.3,2408.44 1682.5,2412.5C 1694.27,2379.3 1694.44,2345.97 1683,2312.5C 1642.18,2182.1 1569.35,2073.6 1464.5,1987C 1398.34,1935.15 1323.67,1901.81 1240.5,1887C 1182.79,1880.18 1129.12,1891.85 1079.5,1922C 1036.38,1948.12 1001.55,1982.62 975,2025.5C 960.088,2050.9 950.755,2078.23 947,2107.5C 945.391,2138.91 949.391,2169.57 959,2199.5C 988.23,2285.5 1041.4,2352.34 1118.5,2400C 1133.13,2408.15 1147.8,2415.98 1162.5,2423.5C 939.342,2374.93 743.675,2274.76 575.5,2123C 527.222,2078.06 481.722,2030.56 439,1980.5C 412.359,1947.83 389.692,1912.5 371,1874.5C 366.457,1865.66 364.79,1856.33 366,1846.5C 367.48,1843.34 369.98,1841.5 373.5,1841C 377.167,1840.33 380.833,1840.33 384.5,1841C 401.041,1844.79 417.374,1849.29 433.5,1854.5C 438.827,1857.12 444.494,1859.28 450.5,1861C 466.336,1865.79 482.336,1869.96 498.5,1873.5C 515.789,1878.09 533.123,1882.42 550.5,1886.5C 581.415,1894.22 612.748,1899.88 644.5,1903.5C 661.114,1905.65 677.781,1907.31 694.5,1908.5C 701.637,1909.77 708.97,1910.6 716.5,1911C 746.198,1911.89 775.865,1911.39 805.5,1909.5C 826.616,1907.53 847.616,1904.53 868.5,1900.5C 917.683,1891.78 963.683,1874.78 1006.5,1849.5C 1026.97,1837.36 1046.3,1823.69 1064.5,1808.5C 1104.67,1776 1140,1739 1170.5,1697.5C 1175.25,1690.32 1180.25,1683.32 1185.5,1676.5C 1219.02,1632.82 1248.02,1586.15 1272.5,1536.5C 1278.99,1525.52 1284.99,1514.18 1290.5,1502.5C 1316.27,1450.21 1338.93,1396.55 1358.5,1341.5C 1362.7,1328.91 1366.7,1316.24 1370.5,1303.5C 1374.45,1294.17 1377.95,1284.5 1381,1274.5C 1394.4,1231.54 1406.24,1188.21 1416.5,1144.5C 1423.56,1109.21 1430.23,1073.88 1436.5,1038.5C 1444.24,987.485 1452.24,936.485 1460.5,885.5C 1465.68,851.607 1472.01,817.94 1479.5,784.5C 1491.27,731.86 1507.27,680.527 1527.5,630.5C 1540.67,596.156 1557.01,563.489 1576.5,532.5C 1584.47,521.681 1592.3,510.681 1600,499.5C 1619.35,475.657 1640.51,453.657 1663.5,433.5C 1685.99,415.08 1710.33,399.414 1736.5,386.5C 1741.2,397.721 1747.03,408.388 1754,418.5C 1764.22,432.193 1777.72,437.359 1794.5,434C 1814.94,427.638 1834.27,418.971 1852.5,408C 1865.83,397.055 1868,384.222 1859,369.5C 1853.34,361.01 1847.5,352.677 1841.5,344.5C 1871.75,336.792 1902.41,331.459 1933.5,328.5C 1934.65,334.694 1935.81,341.028 1937,347.5C 1941,368.029 1952.5,382.529 1971.5,391C 1991.74,396.817 2008.91,391.984 2023,376.5C 2031.19,360.761 2033.69,344.095 2030.5,326.5 Z"/></g>
<g><path style="opacity:1" fill="#3d3a5d" d="M 2069.5,575.5 C 2077.44,574.776 2081.11,578.443 2080.5,586.5C 2078.57,630.843 2061.24,667.676 2028.5,697C 1996.06,719.444 1960.06,728.778 1920.5,725C 1893.01,720.339 1869.51,708.173 1850,688.5C 1847.39,683.59 1848.55,679.756 1853.5,677C 1855.17,676.333 1856.83,676.333 1858.5,677C 1871.87,689.692 1887.21,699.359 1904.5,706C 1939.1,714.009 1972.43,710.342 2004.5,695C 2030.83,678.984 2048.66,656.151 2058,626.5C 2062.8,611.211 2065.47,595.545 2066,579.5C 2067.38,578.295 2068.54,576.962 2069.5,575.5 Z"/></g>
<g><path style="opacity:0.997" fill="#70c2b2" d="M 1527.5,630.5 C 1507.27,680.527 1491.27,731.86 1479.5,784.5C 1469.68,787.479 1460.02,786.979 1450.5,783C 1389.89,745.39 1342.72,695.223 1309,632.5C 1303.2,614.27 1309.7,603.103 1328.5,599C 1333.16,598.463 1337.83,597.963 1342.5,597.5C 1399.22,603.959 1455.55,612.793 1511.5,624C 1516.97,625.903 1522.3,628.07 1527.5,630.5 Z"/></g>
<g><path style="opacity:1" fill="#5a588b" d="M 2525.5,659.5 C 2536.96,658.56 2547.96,660.393 2558.5,665C 2567.49,669.495 2576.16,674.495 2584.5,680C 2588.55,683.721 2591.38,688.221 2593,693.5C 2593.65,703.196 2593.31,712.862 2592,722.5C 2588.74,741.891 2577.24,751.557 2557.5,751.5C 2536.31,751.154 2519.47,742.487 2507,725.5C 2505.28,722.326 2503.94,718.993 2503,715.5C 2502.33,704.833 2502.33,694.167 2503,683.5C 2504,677.003 2506.5,671.169 2510.5,666C 2515.29,663.133 2520.29,660.967 2525.5,659.5 Z"/></g>
<g><path style="opacity:1" fill="#f2ae9d" d="M 1953.5,801.5 C 1998.76,799.722 2035.93,816.055 2065,850.5C 2074.58,862.997 2080.91,876.997 2084,892.5C 2084.94,906.732 2080.94,919.398 2072,930.5C 2033.7,974.599 1985.87,990.766 1928.5,979C 1907.98,973.329 1890.15,963.162 1875,948.5C 1859.15,929.603 1853.49,907.936 1858,883.5C 1863,869.833 1868,856.167 1873,842.5C 1895.04,819.395 1921.88,805.728 1953.5,801.5 Z"/></g>
<g><path style="opacity:0.996" fill="#70c2b2" d="M 1460.5,885.5 C 1452.24,936.485 1444.24,987.485 1436.5,1038.5C 1423.82,1043.87 1411.16,1043.7 1398.5,1038C 1390.17,1033.84 1382.17,1029.17 1374.5,1024C 1337.44,993.283 1301.28,961.45 1266,928.5C 1257.5,919.331 1254.5,908.665 1257,896.5C 1261.95,886.427 1270.12,880.927 1281.5,880C 1315.53,879.608 1349.53,880.608 1383.5,883C 1405.17,883.333 1426.83,883.667 1448.5,884C 1452.51,884.501 1456.51,885.001 1460.5,885.5 Z"/></g>
<g><path style="opacity:0.999" fill="#3d3a5d" d="M 2633.5,996.5 C 2641.43,1001.57 2641.43,1006.74 2633.5,1012C 2631.56,1012.81 2629.56,1013.31 2627.5,1013.5C 2601.13,1018.59 2574.46,1021.26 2547.5,1021.5C 2545.17,1021.5 2542.83,1021.5 2540.5,1021.5C 2514.65,1020.57 2488.98,1017.24 2463.5,1011.5C 2457.31,1009.7 2450.98,1008.04 2444.5,1006.5C 2420.03,999.548 2395.36,993.215 2370.5,987.5C 2364.88,986.007 2359.21,984.34 2353.5,982.5C 2328.14,976.157 2303.47,967.823 2279.5,957.5C 2275.35,955.261 2271.02,953.261 2266.5,951.5C 2242.53,939.85 2219.19,927.183 2196.5,913.5C 2183.82,904.994 2169.82,900.494 2154.5,900C 2153.42,899.044 2152.25,898.211 2151,897.5C 2148.47,892.814 2149.3,888.981 2153.5,886C 2170.37,885.135 2186.04,889.135 2200.5,898C 2235.6,920.885 2272.94,939.551 2312.5,954C 2372.35,973.13 2433.02,989.13 2494.5,1002C 2520.05,1005.42 2545.72,1006.42 2571.5,1005C 2592.54,1004.62 2613.21,1001.79 2633.5,996.5 Z"/></g>
<g><path style="opacity:1" fill="#c6e2dc" d="M 2196.5,913.5 C 2219.19,927.183 2242.53,939.85 2266.5,951.5C 2265.77,956.293 2263.94,960.626 2261,964.5C 2250.12,978.377 2236.62,988.877 2220.5,996C 2216.47,997.913 2212.47,997.913 2208.5,996C 2203.91,989.9 2201.08,983.066 2200,975.5C 2197.05,954.938 2195.89,934.271 2196.5,913.5 Z"/></g>
<g><path style="opacity:1" fill="#c6e3dc" d="M 2279.5,957.5 C 2303.47,967.823 2328.14,976.157 2353.5,982.5C 2347.51,1003.3 2335.51,1019.8 2317.5,1032C 2314.45,1034.17 2311.12,1034.84 2307.5,1034C 2304.11,1031.74 2301.28,1028.9 2299,1025.5C 2288.12,1003.87 2281.62,981.2 2279.5,957.5 Z"/></g>
<g><path style="opacity:1" fill="#c6e3dc" d="M 2370.5,987.5 C 2395.36,993.215 2420.03,999.548 2444.5,1006.5C 2439.75,1027.09 2429.08,1043.92 2412.5,1057C 2409.04,1060.11 2405.04,1061.11 2400.5,1060C 2396.67,1057.5 2393.5,1054.33 2391,1050.5C 2381.42,1030.59 2373.92,1009.92 2368.5,988.5C 2368.96,987.702 2369.62,987.369 2370.5,987.5 Z"/></g>
<g><path style="opacity:1" fill="#c6e3dc" d="M 2463.5,1011.5 C 2488.98,1017.24 2514.65,1020.57 2540.5,1021.5C 2537.11,1044.44 2526.78,1063.61 2509.5,1079C 2504.42,1081.32 2499.75,1080.65 2495.5,1077C 2491.62,1072.79 2488.12,1068.29 2485,1063.5C 2475.72,1046.65 2468.55,1029.32 2463.5,1011.5 Z"/></g>
<g><path style="opacity:0.992" fill="#c6e3dc" d="M 2627.5,1013.5 C 2630.31,1035.61 2625.81,1056.28 2614,1075.5C 2611.01,1080.15 2606.85,1081.65 2601.5,1080C 2596.34,1077.92 2591.67,1075.09 2587.5,1071.5C 2573.03,1055.7 2559.69,1039.03 2547.5,1021.5C 2574.46,1021.26 2601.13,1018.59 2627.5,1013.5 Z"/></g>
<g><path style="opacity:0.996" fill="#70c2b2" d="M 1416.5,1144.5 C 1406.24,1188.21 1394.4,1231.54 1381,1274.5C 1377.95,1284.5 1374.45,1294.17 1370.5,1303.5C 1343.94,1279.78 1316.61,1256.94 1288.5,1235C 1265.44,1215.28 1245.27,1193.11 1228,1168.5C 1215.04,1145.25 1221.54,1130.75 1247.5,1125C 1262.87,1122.97 1278.2,1123.3 1293.5,1126C 1334.52,1132.17 1375.52,1138.34 1416.5,1144.5 Z"/></g>
<g><path style="opacity:0.999" fill="#b3afcf" d="M 2153.5,1558.5 C 2185.52,1555.55 2215.19,1545.71 2242.5,1529C 2250.86,1519.64 2259.52,1510.64 2268.5,1502C 2285.53,1489.66 2304.53,1484.99 2325.5,1488C 2330.78,1489.49 2336.12,1490.65 2341.5,1491.5C 2365.94,1502.96 2381.44,1521.96 2388,1548.5C 2392.97,1567.53 2394.97,1586.86 2394,1606.5C 2391.56,1625.63 2381.06,1632.79 2362.5,1628C 2358.24,1626.07 2354.24,1623.73 2350.5,1621C 2339.57,1607.88 2326.24,1598.22 2310.5,1592C 2295.41,1588.68 2281.08,1590.68 2267.5,1598C 2256.28,1604.55 2245.62,1611.89 2235.5,1620C 2215.52,1640.32 2193.52,1657.99 2169.5,1673C 2162.93,1676.45 2156.27,1679.62 2149.5,1682.5C 2137.76,1687.36 2125.76,1691.52 2113.5,1695C 2067.55,1706.24 2020.88,1711.74 1973.5,1711.5C 1935.37,1713.09 1899.71,1704.59 1866.5,1686C 1843.89,1672.53 1822.89,1656.86 1803.5,1639C 1759.61,1597.11 1717.11,1553.94 1676,1509.5C 1655.88,1486.6 1638.21,1461.93 1623,1435.5C 1597.96,1381.14 1607.46,1333.64 1651.5,1293C 1689.21,1264.23 1731.88,1252.23 1779.5,1257C 1808.65,1259.48 1833.48,1270.98 1854,1291.5C 1868.82,1308.45 1881.15,1327.12 1891,1347.5C 1915.61,1404.1 1947.28,1456.1 1986,1503.5C 1999.36,1521.86 2016.53,1535.36 2037.5,1544C 2075.09,1557.7 2113.76,1562.53 2153.5,1558.5 Z"/></g>
<g><path style="opacity:0.996" fill="#70c2b2" d="M 1358.5,1341.5 C 1338.93,1396.55 1316.27,1450.21 1290.5,1502.5C 1287.56,1500.74 1284.73,1498.74 1282,1496.5C 1276.67,1489.83 1271.33,1483.17 1266,1476.5C 1234.06,1429.56 1201.72,1382.89 1169,1336.5C 1162.13,1324.77 1164.97,1316.6 1177.5,1312C 1203.11,1302.62 1229.11,1301.28 1255.5,1308C 1278.65,1315.61 1301.99,1322.61 1325.5,1329C 1336.87,1332.29 1347.87,1336.46 1358.5,1341.5 Z"/></g>
<g><path style="opacity:0.996" fill="#8c8abe" d="M 2341.5,1491.5 C 2336.12,1490.65 2330.78,1489.49 2325.5,1488C 2304.53,1484.99 2285.53,1489.66 2268.5,1502C 2259.52,1510.64 2250.86,1519.64 2242.5,1529C 2215.19,1545.71 2185.52,1555.55 2153.5,1558.5C 2153.5,1519.5 2153.5,1480.5 2153.5,1441.5C 2210.55,1454.87 2265.22,1448.37 2317.5,1422C 2319.83,1420.33 2322.17,1418.67 2324.5,1417C 2332.8,1407.7 2341.47,1398.7 2350.5,1390C 2376.73,1373.05 2404.06,1371.05 2432.5,1384C 2449.66,1394.45 2461.5,1409.28 2468,1428.5C 2475.5,1451.31 2478.16,1474.65 2476,1498.5C 2472.58,1514.92 2462.75,1521.09 2446.5,1517C 2435.45,1511.96 2426.11,1504.62 2418.5,1495C 2393.82,1474.34 2368.15,1473.17 2341.5,1491.5 Z"/></g>
<g><path style="opacity:0.996" fill="#70c2b2" d="M 1272.5,1536.5 C 1248.02,1586.15 1219.02,1632.82 1185.5,1676.5C 1164.5,1639.18 1144,1601.51 1124,1563.5C 1109.5,1540.67 1093.83,1518.67 1077,1497.5C 1071.99,1487.32 1074.16,1479.15 1083.5,1473C 1095.19,1467.49 1107.53,1464.99 1120.5,1465.5C 1165.11,1466.31 1204.78,1480.48 1239.5,1508C 1250.37,1517.71 1261.37,1527.21 1272.5,1536.5 Z"/></g>
<g><path style="opacity:0.996" fill="#70c2b2" d="M 1170.5,1697.5 C 1140,1739 1104.67,1776 1064.5,1808.5C 1053.79,1796.42 1045.62,1782.75 1040,1767.5C 1023.86,1718.4 1006.52,1669.73 988,1621.5C 987.248,1615.23 990.081,1611.39 996.5,1610C 1016.08,1606.82 1035.42,1608.16 1054.5,1614C 1103.01,1628.4 1141.68,1656.23 1170.5,1697.5 Z"/></g>
<g><path style="opacity:0.995" fill="#70c2b2" d="M 1006.5,1849.5 C 963.683,1874.78 917.683,1891.78 868.5,1900.5C 866.584,1894.01 865.418,1887.34 865,1880.5C 863.927,1829.04 859.427,1777.87 851.5,1727C 853.144,1714.66 860.144,1709.99 872.5,1713C 894.712,1719.6 914.378,1730.6 931.5,1746C 962.944,1775.93 987.944,1810.43 1006.5,1849.5 Z"/></g>
<g><path style="opacity:0.993" fill="#70c2b2" d="M 805.5,1909.5 C 775.865,1911.39 746.198,1911.89 716.5,1911C 708.97,1910.6 701.637,1909.77 694.5,1908.5C 695.273,1884.18 695.773,1859.85 696,1835.5C 696.329,1815.51 701.329,1796.84 711,1779.5C 715.371,1772.27 721.538,1767.61 729.5,1765.5C 730.833,1765.67 732.167,1765.83 733.5,1766C 770.806,1803.1 794.639,1847.6 805,1899.5C 805.498,1902.82 805.665,1906.15 805.5,1909.5 Z"/></g>
<g><path style="opacity:0.989" fill="#70c1b2" d="M 498.5,1873.5 C 482.336,1869.96 466.336,1865.79 450.5,1861C 444.494,1859.28 438.827,1857.12 433.5,1854.5C 442.163,1828.68 451.33,1803.01 461,1777.5C 463.955,1773.72 467.788,1772.56 472.5,1774C 481.65,1780.1 487.483,1788.6 490,1799.5C 495.955,1823.81 498.789,1848.48 498.5,1873.5 Z"/></g>
<g><path style="opacity:0.993" fill="#70c2b2" d="M 644.5,1903.5 C 612.748,1899.88 581.415,1894.22 550.5,1886.5C 564.595,1851.97 578.428,1817.3 592,1782.5C 594.91,1775.73 599.243,1774.73 605,1779.5C 634.9,1815.37 648.066,1856.7 644.5,1903.5 Z"/></g>
<g><path style="opacity:0.999" fill="#b3afd0" d="M 1682.5,2412.5 C 1679.56,2420.38 1676.06,2428.05 1672,2435.5C 1667.23,2442.72 1662.73,2450.06 1658.5,2457.5C 1640.32,2479.18 1619.98,2498.68 1597.5,2516C 1559.35,2542.58 1520.35,2567.91 1480.5,2592C 1470.54,2598.29 1462.21,2606.29 1455.5,2616C 1457.76,2616.24 1459.93,2616.74 1462,2617.5C 1479.42,2616.51 1496.92,2616.17 1514.5,2616.5C 1540.24,2618.13 1565.24,2623.63 1589.5,2633C 1611.96,2642.29 1628.46,2657.79 1639,2679.5C 1639.67,2686.17 1639.67,2692.83 1639,2699.5C 1634.64,2715.05 1626.14,2727.89 1613.5,2738C 1604.78,2744.36 1595.78,2750.19 1586.5,2755.5C 1529.64,2783.09 1469.48,2796.42 1406,2795.5C 1360.95,2795.06 1316.45,2789.89 1272.5,2780C 1247.28,2775.05 1224.61,2764.72 1204.5,2749C 1180.35,2726.24 1173.19,2699.07 1183,2667.5C 1192.3,2651.87 1205.13,2640.04 1221.5,2632C 1245.57,2621.8 1268.57,2609.8 1290.5,2596C 1311.09,2581.41 1328.25,2563.58 1342,2542.5C 1348.78,2530.5 1352.95,2517.66 1354.5,2504C 1352.29,2481.45 1339.95,2468.12 1317.5,2464C 1263.33,2459.38 1211.66,2445.88 1162.5,2423.5C 1147.8,2415.98 1133.13,2408.15 1118.5,2400C 1041.4,2352.34 988.23,2285.5 959,2199.5C 949.391,2169.57 945.391,2138.91 947,2107.5C 950.755,2078.23 960.088,2050.9 975,2025.5C 1001.55,1982.62 1036.38,1948.12 1079.5,1922C 1129.12,1891.85 1182.79,1880.18 1240.5,1887C 1323.67,1901.81 1398.34,1935.15 1464.5,1987C 1569.35,2073.6 1642.18,2182.1 1683,2312.5C 1694.44,2345.97 1694.27,2379.3 1682.5,2412.5 Z"/></g>
<g><path style="opacity:0.998" fill="#8c8abe" d="M 1973.5,2229.5 C 1985.8,2259.56 1994.96,2290.56 2001,2322.5C 2004.15,2353.9 1997.82,2383.23 1982,2410.5C 1967.48,2434.03 1949.65,2454.87 1928.5,2473C 1914.35,2484.24 1900.01,2495.24 1885.5,2506C 1852.83,2526.67 1820.17,2547.33 1787.5,2568C 1778.81,2574.03 1771.47,2581.36 1765.5,2590C 1787.17,2590.33 1808.83,2590.67 1830.5,2591C 1859.47,2592.41 1886.8,2599.74 1912.5,2613C 1928.51,2622.68 1940.68,2635.84 1949,2652.5C 1951.97,2668.6 1948.64,2683.27 1939,2696.5C 1929.82,2707.66 1918.99,2716.83 1906.5,2724C 1847.24,2755.1 1784.08,2770.27 1717,2769.5C 1673.07,2768.75 1629.57,2764.08 1586.5,2755.5C 1595.78,2750.19 1604.78,2744.36 1613.5,2738C 1626.14,2727.89 1634.64,2715.05 1639,2699.5C 1639.67,2692.83 1639.67,2686.17 1639,2679.5C 1628.46,2657.79 1611.96,2642.29 1589.5,2633C 1565.24,2623.63 1540.24,2618.13 1514.5,2616.5C 1531.03,2606.26 1548.37,2597.42 1566.5,2590C 1603.16,2572.68 1632.32,2546.85 1654,2512.5C 1662,2498.85 1665,2484.18 1663,2468.5C 1661.97,2464.57 1660.47,2460.9 1658.5,2457.5C 1662.73,2450.06 1667.23,2442.72 1672,2435.5C 1676.06,2428.05 1679.56,2420.38 1682.5,2412.5C 1696.3,2408.44 1709.97,2403.94 1723.5,2399C 1821.8,2364.06 1905.13,2307.56 1973.5,2229.5 Z"/></g>
</svg>
