<?xml version="1.0" encoding="UTF-8"?>
<!DOCTYPE svg PUBLIC "-//W3C//DTD SVG 1.1//EN" "http://www.w3.org/Graphics/SVG/1.1/DTD/svg11.dtd">
<svg xmlns="http://www.w3.org/2000/svg" version="1.1" width="3000px" height="3000px" style="shape-rendering:geometricPrecision; text-rendering:geometricPrecision; image-rendering:optimizeQuality; fill-rule:evenodd; clip-rule:evenodd" xmlns:xlink="http://www.w3.org/1999/xlink">
<g><path style="opacity:0.999" fill="#feb986" d="M 2139.5,1986.5 C 2115.27,2062.34 2082.43,2134.34 2041,2202.5C 2004.75,2261.33 1968.75,2320.33 1933,2379.5C 1909.7,2419.44 1889.03,2460.77 1871,2503.5C 1864.77,2522.86 1859.77,2542.52 1856,2562.5C 1841.6,2656.29 1833.1,2750.62 1830.5,2845.5C 1582.5,2845.5 1334.5,2845.5 1086.5,2845.5C 1091.47,2758.22 1092.63,2670.89 1090,2583.5C 1088.48,2527.67 1082.48,2472.34 1072,2417.5C 1063.03,2379.57 1049.03,2343.57 1030,2309.5C 983.046,2228.6 938.379,2146.27 896,2062.5C 865.719,2001.6 840.719,1938.6 821,1873.5C 809.913,1836.57 805.58,1798.9 808,1760.5C 811.509,1734.46 817.842,1709.13 827,1684.5C 847.849,1626.95 870.849,1570.28 896,1514.5C 923.69,1453.73 959.357,1398.39 1003,1348.5C 1016.43,1334.07 1030.76,1320.73 1046,1308.5C 1047.17,1299.88 1047.84,1291.22 1048,1282.5C 1050.45,1201.18 1050.95,1119.84 1049.5,1038.5C 1051.61,904.087 1062.78,770.42 1083,637.5C 1099.08,526.791 1120.41,417.124 1147,308.5C 1157.69,269.452 1175.03,233.786 1199,201.5C 1232.55,164.057 1271.71,156.557 1316.5,179C 1343.78,197.668 1361.61,223.168 1370,255.5C 1376.81,279.703 1380.81,304.37 1382,329.5C 1382.67,350.5 1382.67,371.5 1382,392.5C 1368.53,537.201 1357.7,682.035 1349.5,827C 1350.11,901.707 1350.61,976.54 1351,1051.5C 1351.78,1076.54 1353.12,1101.54 1355,1126.5C 1369.74,1101.76 1389.24,1081.59 1413.5,1066C 1466.05,1033.09 1522.72,1023.09 1583.5,1036C 1633.34,1048.85 1668.84,1078.68 1690,1125.5C 1696.76,1143.6 1702.59,1161.93 1707.5,1180.5C 1753.15,1149.89 1802.82,1141.06 1856.5,1154C 1904,1167.18 1937.5,1196.34 1957,1241.5C 1973.71,1280.56 1982.21,1320.89 1982.5,1362.5C 2014.99,1355.58 2045.99,1359.75 2075.5,1375C 2106.72,1392.21 2132.22,1415.71 2152,1445.5C 2176.13,1480.72 2189.63,1519.72 2192.5,1562.5C 2191.77,1571.88 2190.6,1581.21 2189,1590.5C 2185.07,1606.94 2180.74,1623.28 2176,1639.5C 2170.95,1660.88 2167.95,1682.55 2167,1704.5C 2166.35,1741.24 2165.35,1778.24 2164,1815.5C 2155.81,1872.64 2147.64,1929.64 2139.5,1986.5 Z"/></g>
<g><path style="opacity:1" fill="#e29570" d="M 1201.5,543.5 C 1245.21,542.702 1283.55,556.536 1316.5,585C 1257.72,567.241 1197.72,561.574 1136.5,568C 1156.19,554.385 1177.85,546.218 1201.5,543.5 Z"/></g>
<g><path style="opacity:1" fill="#e29570" d="M 1184.5,857.5 C 1205.9,856.011 1226.56,859.178 1246.5,867C 1267.46,874.98 1287.13,885.313 1305.5,898C 1271.71,888.964 1237.21,884.797 1202,885.5C 1164.06,886.242 1126.56,890.075 1089.5,897C 1118.49,877.167 1150.15,864.001 1184.5,857.5 Z"/></g>
<g><path style="opacity:1" fill="#e29570" d="M 1349.5,1141.5 C 1350.32,1145.65 1350.82,1149.98 1351,1154.5C 1356.87,1194.94 1350.54,1233.27 1332,1269.5C 1330.32,1225.76 1336.15,1183.1 1349.5,1141.5 Z"/></g>
<g><path style="opacity:1" fill="#e29570" d="M 1510.5,1147.5 C 1561.5,1144.26 1608.17,1156.76 1650.5,1185C 1630.44,1182.65 1610.44,1179.65 1590.5,1176C 1552.62,1171.6 1514.62,1169.93 1476.5,1171C 1455.77,1172.37 1435.11,1174.04 1414.5,1176C 1444.64,1159.97 1476.64,1150.47 1510.5,1147.5 Z"/></g>
<g><path style="opacity:1" fill="#e29570" d="M 1699.5,1219.5 C 1700.22,1219.92 1700.72,1220.58 1701,1221.5C 1702.32,1228.12 1703.32,1234.78 1704,1241.5C 1704.92,1268.19 1706.25,1294.86 1708,1321.5C 1708.67,1344.83 1708.67,1368.17 1708,1391.5C 1707.55,1401.22 1706.55,1410.89 1705,1420.5C 1684.56,1503.04 1662.23,1585.04 1638,1666.5C 1625.74,1717.21 1612.07,1767.55 1597,1817.5C 1591.2,1833.91 1585.2,1850.24 1579,1866.5C 1585.64,1827.67 1591.64,1788.67 1597,1749.5C 1609.17,1688.16 1623.83,1627.5 1641,1567.5C 1652.17,1525.98 1664.17,1484.64 1677,1443.5C 1684.04,1411.89 1688.37,1379.89 1690,1347.5C 1691.45,1315.15 1693.12,1282.82 1695,1250.5C 1695.98,1240.04 1697.48,1229.71 1699.5,1219.5 Z"/></g>
<g><path style="opacity:1" fill="#e29570" d="M 1151.5,1240.5 C 1163.24,1240.3 1174.91,1241.13 1186.5,1243C 1218.2,1251.46 1249.87,1260.12 1281.5,1269C 1312.68,1276.93 1344.35,1280.26 1376.5,1279C 1413.56,1275.38 1450.23,1269.38 1486.5,1261C 1536.24,1250.8 1578.41,1263.96 1613,1300.5C 1640.84,1336.98 1649.17,1377.64 1638,1422.5C 1628.36,1457.46 1611.69,1488.46 1588,1515.5C 1569.2,1536.14 1548.7,1554.81 1526.5,1571.5C 1549.24,1576.68 1569.91,1586.18 1588.5,1600C 1561.18,1594.09 1533.52,1589.59 1505.5,1586.5C 1440.52,1623.41 1370.52,1642.58 1295.5,1644C 1287.09,1658.46 1276.76,1671.46 1264.5,1683C 1260.58,1685.93 1256.41,1688.43 1252,1690.5C 1246.75,1703.15 1238.92,1713.99 1228.5,1723C 1215.01,1732.58 1201.34,1741.91 1187.5,1751C 1146.57,1775.74 1103.57,1787.07 1058.5,1785C 1090.4,1775.88 1120.73,1763.21 1149.5,1747C 1164.34,1737.5 1177.34,1725.83 1188.5,1712C 1204.33,1704.17 1216.17,1692.33 1224,1676.5C 1225.66,1671.54 1227.16,1666.54 1228.5,1661.5C 1246.02,1651.15 1259.18,1636.82 1268,1618.5C 1269.48,1613.9 1270.65,1609.23 1271.5,1604.5C 1317.14,1611.86 1362.14,1609.02 1406.5,1596C 1477.83,1573.94 1537.33,1534.44 1585,1477.5C 1599.59,1458.32 1609.92,1436.99 1616,1413.5C 1624.92,1370.94 1613.42,1335.1 1581.5,1306C 1563.6,1292.14 1543.27,1284.81 1520.5,1284C 1511.17,1283.33 1501.83,1283.33 1492.5,1284C 1454.78,1288.94 1417.12,1294.28 1379.5,1300C 1345.27,1304.36 1311.27,1303.03 1277.5,1296C 1261.12,1291.92 1244.79,1287.59 1228.5,1283C 1205.59,1274.59 1182.26,1267.59 1158.5,1262C 1128.16,1259.17 1101.5,1267.67 1078.5,1287.5C 1086.43,1275.75 1096.76,1265.92 1109.5,1258C 1122.54,1249.64 1136.54,1243.81 1151.5,1240.5 Z"/></g>
<g><path style="opacity:1" fill="#e29570" d="M 1801.5,1242.5 C 1850.13,1239.42 1890.46,1255.92 1922.5,1292C 1900.85,1283.11 1878.85,1274.78 1856.5,1267C 1825.69,1260.36 1794.69,1254.7 1763.5,1250C 1776.09,1246.38 1788.76,1243.88 1801.5,1242.5 Z"/></g>
<g><path style="opacity:1" fill="#ffd9c3" d="M 1502.5,1299.5 C 1520.05,1297.46 1536.72,1300.29 1552.5,1308C 1571.75,1321.41 1578.58,1339.58 1573,1362.5C 1569.23,1391.87 1557.06,1417.04 1536.5,1438C 1524.67,1447.95 1511,1453.61 1495.5,1455C 1471.14,1455.88 1446.81,1455.55 1422.5,1454C 1395.83,1451.01 1373.33,1439.85 1355,1420.5C 1343.77,1407.49 1338.94,1392.32 1340.5,1375C 1338.69,1351.94 1348.35,1335.94 1369.5,1327C 1374.36,1324.93 1379.36,1323.27 1384.5,1322C 1423.98,1314.54 1463.31,1307.04 1502.5,1299.5 Z"/></g>
<g><path style="opacity:1" fill="#e29570" d="M 1134.5,1307.5 C 1135.04,1307.56 1135.38,1307.89 1135.5,1308.5C 1110.98,1356.28 1105.48,1406.28 1119,1458.5C 1123.74,1474.15 1129.07,1489.49 1135,1504.5C 1103.19,1470.61 1086.69,1430.28 1085.5,1383.5C 1087.76,1348.95 1104.1,1323.62 1134.5,1307.5 Z"/></g>
<g><path style="opacity:1" fill="#e29570" d="M 1965.5,1383.5 C 1966.83,1387.78 1967.49,1392.45 1967.5,1397.5C 1966.02,1433.72 1960.85,1469.39 1952,1504.5C 1946.14,1526.07 1939.48,1547.4 1932,1568.5C 1898.48,1657.38 1862.82,1745.38 1825,1832.5C 1812.88,1858.75 1800.21,1884.75 1787,1910.5C 1807.29,1843.3 1828.62,1776.3 1851,1709.5C 1877.67,1644.83 1904.33,1580.17 1931,1515.5C 1934.34,1505.49 1937.67,1495.49 1941,1485.5C 1948.85,1451.42 1957.02,1417.42 1965.5,1383.5 Z"/></g>
<g><path style="opacity:1" fill="#e29570" d="M 2020.5,1452.5 C 2045.64,1449.95 2068.31,1456.12 2088.5,1471C 2108.93,1486.68 2123.93,1506.51 2133.5,1530.5C 2133,1531.52 2132.33,1531.69 2131.5,1531C 2094.41,1494.78 2050.41,1471.11 1999.5,1460C 2006.29,1456.57 2013.29,1454.07 2020.5,1452.5 Z"/></g>
<g><path style="opacity:1" fill="#e29570" d="M 2141.5,1603.5 C 2113.11,1707.12 2073.95,1806.78 2024,1902.5C 2006.72,1934.07 1986.72,1963.73 1964,1991.5C 1947.29,2010.59 1927.46,2025.43 1904.5,2036C 1881.35,2046.25 1858.35,2045.92 1835.5,2035C 1817.36,2026.52 1800.86,2015.69 1786,2002.5C 1753.86,2033.66 1715.36,2046.49 1670.5,2041C 1614.41,2032.73 1570.24,2005.56 1538,1959.5C 1532.68,1961.54 1527.18,1963.04 1521.5,1964C 1496.46,1966.61 1472.13,1963.61 1448.5,1955C 1425.8,1947.57 1405.14,1936.57 1386.5,1922C 1360.3,1896.08 1346.13,1864.58 1344,1827.5C 1341.18,1782.94 1347.18,1739.61 1362,1697.5C 1357.62,1736 1358.96,1774.33 1366,1812.5C 1381.38,1880.11 1423.55,1917.61 1492.5,1925C 1514.03,1927.25 1534.53,1923.75 1554,1914.5C 1564.27,1952.12 1587.44,1978.62 1623.5,1994C 1648.84,2005.26 1675.17,2008.93 1702.5,2005C 1733.99,1996.84 1757.82,1978.68 1774,1950.5C 1795.74,1982.47 1825.58,2002.63 1863.5,2011C 1878.93,2013.22 1893.27,2010.22 1906.5,2002C 1919.73,1993.61 1931.56,1983.44 1942,1971.5C 1959.04,1951.74 1974.38,1930.74 1988,1908.5C 2001.76,1885.99 2014.76,1862.99 2027,1839.5C 2051.94,1787.95 2076.61,1736.29 2101,1684.5C 2114.79,1657.61 2128.29,1630.61 2141.5,1603.5 Z"/></g>
<g><path style="opacity:1" fill="#e29570" d="M 1717.5,1621.5 C 1761.78,1620.53 1798.78,1636.37 1828.5,1669C 1801.43,1658.31 1773.76,1648.98 1745.5,1641C 1724.36,1635.59 1703.03,1631.92 1681.5,1630C 1693.25,1625.56 1705.25,1622.73 1717.5,1621.5 Z"/></g>
<g><path style="opacity:1" fill="#e29570" d="M 1910.5,1699.5 C 1966.89,1699.17 2008.39,1723.5 2035,1772.5C 1998.98,1740.64 1957.98,1716.98 1912,1701.5C 1910.97,1701.16 1910.47,1700.5 1910.5,1699.5 Z"/></g>
<g><path style="opacity:1" fill="#ffd9c3" d="M 1475.5,1758.5 C 1530.2,1756.2 1557.53,1782.53 1557.5,1837.5C 1557.5,1856.81 1555.17,1875.81 1550.5,1894.5C 1518.92,1903.27 1487.59,1902.43 1456.5,1892C 1428.49,1880 1407.16,1860.67 1392.5,1834C 1405.11,1808.72 1422.78,1787.72 1445.5,1771C 1455.04,1765.39 1465.04,1761.22 1475.5,1758.5 Z"/></g>
<g><path style="opacity:1" fill="#ffd9c3" d="M 1676.5,1824.5 C 1706.06,1820.36 1726.9,1831.69 1739,1858.5C 1746.01,1880.3 1748.34,1902.64 1746,1925.5C 1745.4,1934.61 1744.07,1943.61 1742,1952.5C 1683.16,1978.71 1635.5,1965.38 1599,1912.5C 1598.33,1910.5 1598.33,1908.5 1599,1906.5C 1608.82,1882.35 1622.98,1861.19 1641.5,1843C 1651.83,1834.17 1663.5,1828 1676.5,1824.5 Z"/></g>
<g><path style="opacity:1" fill="#ffd9c3" d="M 1874.5,1862.5 C 1919.39,1861.91 1937.89,1883.91 1930,1928.5C 1927.06,1943.27 1922.73,1957.6 1917,1971.5C 1870.47,1985.43 1832.14,1973.43 1802,1935.5C 1812.42,1909.39 1829.26,1888.22 1852.5,1872C 1859.6,1867.94 1866.93,1864.78 1874.5,1862.5 Z"/></g>
<g><path style="opacity:1" fill="#e29570" d="M 2139.5,1986.5 C 2130.52,2099.42 2102.02,2207.09 2054,2309.5C 2029.92,2357.32 2005.59,2404.99 1981,2452.5C 1970.09,2475.67 1961.42,2499.67 1955,2524.5C 1946.58,2571.46 1941.58,2618.79 1940,2666.5C 1937.37,2726.34 1936.54,2786.01 1937.5,2845.5C 1901.83,2845.5 1866.17,2845.5 1830.5,2845.5C 1833.1,2750.62 1841.6,2656.29 1856,2562.5C 1859.77,2542.52 1864.77,2522.86 1871,2503.5C 1889.03,2460.77 1909.7,2419.44 1933,2379.5C 1968.75,2320.33 2004.75,2261.33 2041,2202.5C 2082.43,2134.34 2115.27,2062.34 2139.5,1986.5 Z"/></g>
<g><path style="opacity:1" fill="#e29570" d="M 1610.5,2319.5 C 1642.73,2387.22 1694.73,2432.38 1766.5,2455C 1793.63,2462.59 1821.3,2466.26 1849.5,2466C 1753.84,2485.04 1669,2463.21 1595,2400.5C 1571.59,2417.46 1546.09,2430.62 1518.5,2440C 1446.04,2463.42 1371.7,2472.76 1295.5,2468C 1258.95,2466.4 1222.62,2462.73 1186.5,2457C 1257.62,2456.21 1327.95,2448.54 1397.5,2434C 1450.5,2423.16 1500.5,2404.49 1547.5,2378C 1572.33,2362.59 1593.33,2343.09 1610.5,2319.5 Z"/></g>
</svg>
