<?xml version="1.0" encoding="UTF-8"?>
<!DOCTYPE svg PUBLIC "-//W3C//DTD SVG 1.1//EN" "http://www.w3.org/Graphics/SVG/1.1/DTD/svg11.dtd">
<svg xmlns="http://www.w3.org/2000/svg" version="1.1" width="3000px" height="3000px" style="shape-rendering:geometricPrecision; text-rendering:geometricPrecision; image-rendering:optimizeQuality; fill-rule:evenodd; clip-rule:evenodd" xmlns:xlink="http://www.w3.org/1999/xlink">
<g><path style="opacity:0.997" fill="#c1e4fe" d="M 1926.5,818.5 C 1836.85,747.572 1741.51,684.905 1640.5,630.5C 1665.33,602.163 1693.67,577.997 1725.5,558C 1784.56,520.063 1848.39,493.229 1917,477.5C 1942.53,471.664 1968.36,469.497 1994.5,471C 2010.48,472.211 2024.81,477.545 2037.5,487C 2046.55,495.814 2049.72,506.314 2047,518.5C 2044.8,521.04 2042.3,523.207 2039.5,525C 2009.16,536.75 1985.66,556.584 1969,584.5C 1927.89,657.547 1913.72,735.547 1926.5,818.5 Z"/></g>
<g><path style="opacity:0.999" fill="#88c4e2" d="M 1640.5,630.5 C 1741.51,684.905 1836.85,747.572 1926.5,818.5C 2157.31,1004.7 2327.81,1235.7 2438,1511.5C 2504.63,1680.99 2538.8,1856.82 2540.5,2039C 2540.72,2147.26 2526.06,2253.43 2496.5,2357.5C 2612.41,2453.27 2679.91,2576.27 2699,2726.5C 2700.86,2742.78 2701.69,2759.12 2701.5,2775.5C 2672.63,2769.57 2645.3,2759.4 2619.5,2745C 2575.96,2719.48 2537.79,2687.31 2505,2648.5C 2472.44,2609.9 2445.44,2567.56 2424,2521.5C 2347.91,2610.84 2252.75,2670 2138.5,2699C 2125.64,2702.03 2112.64,2704.2 2099.5,2705.5C 2101.57,2678.54 2107.74,2652.54 2118,2627.5C 2138.9,2579 2164.9,2533.67 2196,2491.5C 2232.44,2441.57 2272.6,2394.9 2316.5,2351.5C 2332.5,2315.62 2341.67,2277.96 2344,2238.5C 2346.55,2180.5 2340.21,2123.5 2325,2067.5C 2301.99,1985.14 2269.32,1906.81 2227,1832.5C 2125.57,1654.71 1992.41,1504.54 1827.5,1382C 1763.94,1336.04 1695.61,1298.04 1622.5,1268C 1558.15,1243.03 1491.65,1228.2 1423,1223.5C 1394.28,1290.97 1361.12,1355.97 1323.5,1418.5C 1290.57,1474.34 1252.74,1526.67 1210,1575.5C 1191.7,1595.13 1172.2,1613.3 1151.5,1630C 1133.25,1643.79 1113.25,1654.46 1091.5,1662C 1075.13,1666.54 1058.79,1666.54 1042.5,1662C 1029.55,1656.29 1021.72,1646.46 1019,1632.5C 1016.04,1614.9 1015.71,1597.23 1018,1579.5C 1023.32,1544.54 1031.32,1510.21 1042,1476.5C 1049.21,1453.69 1056.71,1431.03 1064.5,1408.5C 1086.33,1348.02 1106.99,1287.02 1126.5,1225.5C 1123.5,1225.17 1120.5,1224.83 1117.5,1224.5C 1066.76,1228.9 1016.09,1234.06 965.5,1240C 887.239,1250.21 808.906,1259.88 730.5,1269C 704.15,1271.14 677.816,1273.47 651.5,1276C 618.847,1277.48 586.18,1277.82 553.5,1277C 538.636,1275.72 523.969,1273.38 509.5,1270C 501.797,1269.36 494.131,1269.69 486.5,1271C 466.54,1276.65 447.206,1283.98 428.5,1293C 383.167,1315.33 337.833,1337.67 292.5,1360C 254.514,1378.22 215.181,1392.88 174.5,1404C 158.486,1407.64 142.32,1410.47 126,1412.5C 124.319,1412.61 123.152,1413.27 122.5,1414.5C 108.85,1393.92 109.35,1373.58 124,1353.5C 133.425,1340.74 144.258,1329.24 156.5,1319C 191.932,1290.9 227.932,1263.57 264.5,1237C 306.421,1205.42 345.587,1170.59 382,1132.5C 382.997,1039.53 406.663,952.529 453,871.5C 508.274,777.554 581.441,700.387 672.5,640C 804.105,555.137 948.438,509.804 1105.5,504C 1248.15,499.608 1385.82,523.608 1518.5,576C 1559.98,592.328 1600.65,610.495 1640.5,630.5 Z"/></g>
<g><path style="opacity:1" fill="#fefefe" d="M 1224.5,576.5 C 1237.23,575.21 1248.89,578.043 1259.5,585C 1268.76,594.502 1269.93,605.002 1263,616.5C 1249.7,630.207 1233.54,635.374 1214.5,632C 1198.92,628.111 1191.42,618.277 1192,602.5C 1194.58,594.587 1199.41,588.42 1206.5,584C 1212.33,580.788 1218.33,578.288 1224.5,576.5 Z"/></g>
<g><path style="opacity:1" fill="#fefefe" d="M 1005.5,584.5 C 1019.82,582.996 1033.49,585.163 1046.5,591C 1057.97,601.208 1058.47,612.042 1048,623.5C 1028.82,641.572 1005.98,651.739 979.5,654C 965.797,656.179 952.797,654.179 940.5,648C 931.831,642.157 929.331,634.323 933,624.5C 939.48,613.654 948.313,605.154 959.5,599C 974.051,591.203 989.384,586.369 1005.5,584.5 Z"/></g>
<g><path style="opacity:1" fill="#fefefe" d="M 793.5,620.5 C 804.765,619.282 815.432,621.116 825.5,626C 831.77,630.709 833.936,636.876 832,644.5C 828.791,654.381 822.625,661.881 813.5,667C 797.009,676.881 779.675,678.881 761.5,673C 750.842,665.541 748.676,656.041 755,644.5C 765.076,632.047 777.909,624.047 793.5,620.5 Z"/></g>
<g><path style="opacity:1" fill="#fefefe" d="M 1098.5,659.5 C 1109.32,658.206 1119.32,660.372 1128.5,666C 1134.2,673.198 1135.03,681.031 1131,689.5C 1118.98,704.175 1103.48,710.675 1084.5,709C 1067.41,705.636 1061.58,695.803 1067,679.5C 1074.89,668.643 1085.39,661.976 1098.5,659.5 Z"/></g>
<g><path style="opacity:1" fill="#fdfefe" d="M 887.5,703.5 C 897.866,702.805 907.533,704.972 916.5,710C 922.167,715.319 924.001,721.819 922,729.5C 917.577,739.641 910.077,746.474 899.5,750C 886.619,754.979 873.952,754.646 861.5,749C 852.224,740.542 851.058,731.042 858,720.5C 866.312,711.984 876.146,706.317 887.5,703.5 Z"/></g>
<g><path style="opacity:1" fill="#151616" d="M 550.5,1002.5 C 564.563,1001.58 576.896,1005.74 587.5,1015C 599.463,1026.12 609.63,1038.62 618,1052.5C 621.315,1059.62 619.482,1064.79 612.5,1068C 609.697,1068.75 607.03,1068.42 604.5,1067C 595.972,1054.13 586.305,1042.13 575.5,1031C 572.003,1028.42 568.336,1026.08 564.5,1024C 560.928,1022.6 557.261,1022.26 553.5,1023C 550.035,1025.46 546.869,1028.3 544,1031.5C 540.412,1037.68 537.078,1044.01 534,1050.5C 530.339,1061.49 526.839,1072.49 523.5,1083.5C 518.372,1088.78 513.206,1088.78 508,1083.5C 506.994,1081.47 506.494,1079.3 506.5,1077C 509.644,1053.89 518.144,1033.06 532,1014.5C 537.328,1009.09 543.495,1005.09 550.5,1002.5 Z"/></g>
<g><path style="opacity:1" fill="#c1e3fe" d="M 2316.5,2351.5 C 2275.36,2214.9 2219.19,2084.9 2148,1961.5C 2074.54,1835.67 1981.04,1726.5 1867.5,1634C 1773.45,1559.96 1669.12,1504.13 1554.5,1466.5C 1494.01,1446.41 1432.01,1432.07 1368.5,1423.5C 1353.57,1421.26 1338.57,1419.59 1323.5,1418.5C 1361.12,1355.97 1394.28,1290.97 1423,1223.5C 1491.65,1228.2 1558.15,1243.03 1622.5,1268C 1695.61,1298.04 1763.94,1336.04 1827.5,1382C 1992.41,1504.54 2125.57,1654.71 2227,1832.5C 2269.32,1906.81 2301.99,1985.14 2325,2067.5C 2340.21,2123.5 2346.55,2180.5 2344,2238.5C 2341.67,2277.96 2332.5,2315.62 2316.5,2351.5 Z"/></g>
<g><path style="opacity:1" fill="#c1e3fe" d="M 1064.5,1408.5 C 968.833,1408.67 873.166,1408.5 777.5,1408C 705.243,1407.76 633.243,1403.43 561.5,1395C 534.947,1391.29 508.78,1385.79 483,1378.5C 434.931,1398.63 385.764,1415.8 335.5,1430C 296.622,1441.37 256.956,1447.54 216.5,1448.5C 195.933,1449.54 175.933,1446.71 156.5,1440C 142.41,1435.06 131.077,1426.56 122.5,1414.5C 123.152,1413.27 124.319,1412.61 126,1412.5C 142.32,1410.47 158.486,1407.64 174.5,1404C 215.181,1392.88 254.514,1378.22 292.5,1360C 337.833,1337.67 383.167,1315.33 428.5,1293C 447.206,1283.98 466.54,1276.65 486.5,1271C 494.131,1269.69 501.797,1269.36 509.5,1270C 523.969,1273.38 538.636,1275.72 553.5,1277C 586.18,1277.82 618.847,1277.48 651.5,1276C 677.816,1273.47 704.15,1271.14 730.5,1269C 808.906,1259.88 887.239,1250.21 965.5,1240C 1016.09,1234.06 1066.76,1228.9 1117.5,1224.5C 1120.5,1224.83 1123.5,1225.17 1126.5,1225.5C 1106.99,1287.02 1086.33,1348.02 1064.5,1408.5 Z"/></g>
<g><path style="opacity:0.994" fill="#88c4e2" d="M 1368.5,1423.5 C 1432.01,1432.07 1494.01,1446.41 1554.5,1466.5C 1540.64,1515.54 1519.81,1561.21 1492,1603.5C 1481.46,1618.38 1468.62,1630.88 1453.5,1641C 1415.04,1663.34 1389.87,1653.18 1378,1610.5C 1371.6,1584.23 1368.27,1557.56 1368,1530.5C 1367.43,1494.83 1367.59,1459.16 1368.5,1423.5 Z"/></g>
<g><path style="opacity:1" fill="#c1e3fe" d="M 2359.5,1658.5 C 2366.04,1657.85 2372.04,1659.35 2377.5,1663C 2395.61,1678.95 2400.44,1698.11 2392,1720.5C 2383.63,1728.94 2374.47,1729.77 2364.5,1723C 2346.1,1707.14 2341.26,1687.98 2350,1665.5C 2352.82,1662.52 2355.99,1660.19 2359.5,1658.5 Z"/></g>
<g><path style="opacity:1" fill="#c1e3fe" d="M 2433.5,1765.5 C 2445.46,1765.94 2454.62,1771.28 2461,1781.5C 2468.61,1793.24 2470.95,1805.9 2468,1819.5C 2461.43,1836.02 2450.6,1839.52 2435.5,1830C 2418.62,1813.89 2414.46,1795.06 2423,1773.5C 2425.94,1769.96 2429.44,1767.3 2433.5,1765.5 Z"/></g>
<g><path style="opacity:1" fill="#c1e3fe" d="M 2352.5,1799.5 C 2361.14,1798.32 2368.31,1800.99 2374,1807.5C 2393.1,1833.3 2396.43,1860.97 2384,1890.5C 2376.31,1898.82 2367.81,1899.65 2358.5,1893C 2346.1,1880.03 2339.27,1864.53 2338,1846.5C 2335.82,1832.78 2337.82,1819.78 2344,1807.5C 2346.73,1804.6 2349.56,1801.93 2352.5,1799.5 Z"/></g>
<g><path style="opacity:1" fill="#c1e3fe" d="M 2452.5,1901.5 C 2460.86,1901.12 2467.69,1904.12 2473,1910.5C 2484.89,1928.44 2485.55,1946.78 2475,1965.5C 2467.06,1973.34 2458.23,1974.51 2448.5,1969C 2434.97,1954.07 2431.14,1936.9 2437,1917.5C 2440.18,1910.07 2445.34,1904.73 2452.5,1901.5 Z"/></g>
</svg>
