<?xml version="1.0" encoding="UTF-8"?>
<!DOCTYPE svg PUBLIC "-//W3C//DTD SVG 1.1//EN" "http://www.w3.org/Graphics/SVG/1.1/DTD/svg11.dtd">
<svg xmlns="http://www.w3.org/2000/svg" version="1.1" width="3000px" height="3000px" style="shape-rendering:geometricPrecision; text-rendering:geometricPrecision; image-rendering:optimizeQuality; fill-rule:evenodd; clip-rule:evenodd" xmlns:xlink="http://www.w3.org/1999/xlink">
<g><path style="opacity:0.985" fill="#85cde2" d="M 1167.5,295.5 C 1188.62,293.789 1204.12,302.122 1214,320.5C 1226.99,396.653 1270.49,445.653 1344.5,467.5C 1275.18,472.794 1217.68,449.461 1172,397.5C 1158,380.813 1147.34,362.146 1140,341.5C 1136.68,325.927 1140.85,312.76 1152.5,302C 1157.37,299.226 1162.37,297.059 1167.5,295.5 Z"/></g>
<g><path style="opacity:0.976" fill="#85cde2" d="M 1403.5,310.5 C 1416.16,310.074 1425.33,315.408 1431,326.5C 1434.87,372.111 1456.71,405.945 1496.5,428C 1449.55,421.104 1415.05,396.604 1393,354.5C 1389.52,347.549 1387.35,340.216 1386.5,332.5C 1386.99,321.023 1392.66,313.69 1403.5,310.5 Z"/></g>
<g><path style="opacity:0.999" fill="#8b989d" d="M 2057.5,2379.5 C 2022.75,2415.3 1997.91,2457.3 1983,2505.5C 1968.66,2557.26 1967.83,2609.26 1980.5,2661.5C 1965.37,2667.87 1949.7,2672.87 1933.5,2676.5C 1929.13,2626.36 1916.63,2578.36 1896,2532.5C 1882.16,2502.3 1862.66,2476.47 1837.5,2455C 1821.84,2444.44 1808.67,2446.94 1798,2462.5C 1789.65,2476.89 1783.65,2492.22 1780,2508.5C 1768.87,2566.61 1763.37,2625.27 1763.5,2684.5C 1761.42,2657.69 1759.92,2630.69 1759,2603.5C 1756.64,2517.67 1754.14,2432 1751.5,2346.5C 1751.5,2344.5 1751.5,2342.5 1751.5,2340.5C 1749.59,2340.78 1747.92,2340.45 1746.5,2339.5C 1747.87,2339.66 1749.21,2339.49 1750.5,2339C 1685.49,2308.78 1618.16,2285.11 1548.5,2268C 1527.94,2264.18 1507.27,2261.35 1486.5,2259.5C 1489,2220.86 1491.17,2182.19 1493,2143.5C 1501.71,2120.54 1509.21,2097.54 1515.5,2074.5C 1531.58,1991.77 1547.91,1909.1 1564.5,1826.5C 1589.93,1773.64 1600.1,1717.97 1595,1659.5C 1594.69,1658.69 1594.19,1658.03 1593.5,1657.5C 1591.95,1708.74 1580.79,1757.74 1560,1804.5C 1548.59,1828.34 1534.93,1850.67 1519,1871.5C 1514.45,1875.71 1509.62,1879.55 1504.5,1883C 1490.53,1882.76 1476.86,1880.43 1463.5,1876C 1387.72,1855.11 1315.05,1826.44 1245.5,1790C 1161.38,1744.12 1087.54,1684.96 1024,1612.5C 1003.98,1588.39 984.481,1564.06 965.5,1539.5C 934.154,1472.12 914.32,1401.45 906,1327.5C 903.344,1296.71 904.344,1266.04 909,1235.5C 913.958,1201.9 929.791,1174.74 956.5,1154C 979.779,1137.02 1005.11,1123.69 1032.5,1114C 1079.4,1098.89 1127.4,1088.89 1176.5,1084C 1222.89,1079.03 1269.39,1077.19 1316,1078.5C 1318.3,1078.45 1320.13,1077.79 1321.5,1076.5C 1355.51,1076.43 1389.51,1075.93 1423.5,1075C 1389.79,1049.73 1374.96,1015.89 1379,973.5C 1381.15,960.71 1385.49,948.71 1392,937.5C 1397.27,928.563 1402.94,919.897 1409,911.5C 1416.4,902.941 1423.57,894.274 1430.5,885.5C 1459.74,857.46 1492.74,834.626 1529.5,817C 1641.69,763.96 1757.36,754.96 1876.5,790C 1908.32,800.243 1938.99,813.243 1968.5,829C 2001.32,846.574 2033.65,864.907 2065.5,884C 2089.35,896.285 2114.35,905.618 2140.5,912C 2164.17,917.645 2187.84,917.811 2211.5,912.5C 2230.77,908.363 2248.11,900.197 2263.5,888C 2283.88,871.681 2300.88,852.514 2314.5,830.5C 2319.72,832.081 2325.06,833.248 2330.5,834C 2355.9,836.704 2380.56,833.704 2404.5,825C 2377.09,824.302 2351.59,817.136 2328,803.5C 2327.33,802.167 2327.33,800.833 2328,799.5C 2341.07,763.764 2344.57,727.097 2338.5,689.5C 2353.93,685.12 2367.6,677.62 2379.5,667C 2364.64,671.747 2349.3,673.914 2333.5,673.5C 2329.65,655.438 2323.31,638.271 2314.5,622C 2319.98,614.568 2324.48,606.735 2328,598.5C 2322.43,604.163 2316.27,608.663 2309.5,612C 2258.77,529.375 2185.44,478.708 2089.5,460C 2046.33,451.084 2003,448.251 1959.5,451.5C 1899.8,454.616 1841.14,464.116 1783.5,480C 1780.89,506.494 1773.06,531.327 1760,554.5C 1738.04,586.053 1707.87,598.886 1669.5,593C 1653.71,591.404 1639.37,586.071 1626.5,577C 1615.96,566.715 1611.79,554.215 1614,539.5C 1618.49,518.023 1627.66,498.857 1641.5,482C 1621.06,482.415 1604.23,474.915 1591,459.5C 1573.79,435.53 1566.12,408.864 1568,379.5C 1570.77,371.73 1575.94,366.23 1583.5,363C 1603.19,356.802 1623.19,355.802 1643.5,360C 1676.85,365.617 1709.18,374.784 1740.5,387.5C 1854.14,336.338 1973.14,315.171 2097.5,324C 2239.41,339.027 2355.25,401.527 2445,511.5C 2497.29,578.043 2538.29,651.377 2568,731.5C 2599.44,811.601 2617.78,894.601 2623,980.5C 2629.4,1130.67 2582.4,1261 2482,1371.5C 2404.07,1452.9 2312.9,1515.06 2208.5,1558C 2194.28,1563.61 2179.94,1568.94 2165.5,1574C 2177.55,1575.91 2189.22,1579.24 2200.5,1584C 2209.15,1587.98 2214.98,1594.48 2218,1603.5C 2219.81,1620.38 2212.31,1630.54 2195.5,1634C 2191.19,1634.73 2186.86,1635.23 2182.5,1635.5C 2167.89,1632.85 2153.23,1630.52 2138.5,1628.5C 2116.45,1629.61 2095.12,1634.11 2074.5,1642C 2031.73,1658.22 1991.07,1678.38 1952.5,1702.5C 1951.49,1725.26 1952.66,1747.92 1956,1770.5C 1971.85,1890.27 1990.52,2009.6 2012,2128.5C 2026.74,2212.27 2041.91,2295.93 2057.5,2379.5 Z"/></g>
<g><path style="opacity:0.97" fill="#566f8c" d="M 2211.5,912.5 C 2283.93,877.4 2323.43,819.4 2330,738.5C 2330.85,696.907 2321.19,657.907 2301,621.5C 2267.91,564.418 2221.41,521.918 2161.5,494C 2118.03,475.069 2072.7,463.069 2025.5,458C 2003.33,455.998 1981.33,453.831 1959.5,451.5C 2003,448.251 2046.33,451.084 2089.5,460C 2185.44,478.708 2258.77,529.375 2309.5,612C 2316.27,608.663 2322.43,604.163 2328,598.5C 2324.48,606.735 2319.98,614.568 2314.5,622C 2323.31,638.271 2329.65,655.438 2333.5,673.5C 2349.3,673.914 2364.64,671.747 2379.5,667C 2367.6,677.62 2353.93,685.12 2338.5,689.5C 2344.57,727.097 2341.07,763.764 2328,799.5C 2327.33,800.833 2327.33,802.167 2328,803.5C 2351.59,817.136 2377.09,824.302 2404.5,825C 2380.56,833.704 2355.9,836.704 2330.5,834C 2325.06,833.248 2319.72,832.081 2314.5,830.5C 2300.88,852.514 2283.88,871.681 2263.5,888C 2248.11,900.197 2230.77,908.363 2211.5,912.5 Z"/></g>
<g><path style="opacity:0.99" fill="#85cde2" d="M 972.5,450.5 C 979.96,450.233 987.293,451.066 994.5,453C 1054.58,481.027 1116.91,502.693 1181.5,518C 1207.62,523.408 1233.95,527.408 1260.5,530C 1278.63,531.239 1296.63,530.239 1314.5,527C 1318.48,526.215 1322.31,525.049 1326,523.5C 1326.17,523.833 1326.33,524.167 1326.5,524.5C 1307.04,539.228 1285.37,549.728 1261.5,556C 1163.02,581.341 1063.68,585.341 963.5,568C 927.999,556.502 913.166,532.336 919,495.5C 928.196,470.131 946.029,455.131 972.5,450.5 Z"/></g>
<g><path style="opacity:0.968" fill="#84cde2" d="M 1474.5,484.5 C 1475.24,484.369 1475.91,484.536 1476.5,485C 1455.24,515.844 1425.74,533.011 1388,536.5C 1372.32,533.802 1367.65,525.135 1374,510.5C 1377.74,505.88 1382.57,503.213 1388.5,502.5C 1420.09,509.384 1448.75,503.384 1474.5,484.5 Z"/></g>
<g><path style="opacity:0.968" fill="#85cde2" d="M 1518.5,546.5 C 1519.55,546.351 1520.55,546.517 1521.5,547C 1501.32,562.876 1492.15,583.709 1494,609.5C 1495.12,617.365 1496.96,625.031 1499.5,632.5C 1497.5,647.481 1489.17,653.647 1474.5,651C 1466.11,644.703 1462.44,636.203 1463.5,625.5C 1465.93,587.787 1484.27,561.453 1518.5,546.5 Z"/></g>
<g><path style="opacity:0.983" fill="#85cde2" d="M 1379.5,565.5 C 1380.24,565.369 1380.91,565.536 1381.5,566C 1345.34,611.147 1333.5,661.981 1346,718.5C 1348.67,727.167 1351.33,735.833 1354,744.5C 1355.2,760.608 1349.03,773.108 1335.5,782C 1313.86,791.76 1298.03,785.927 1288,764.5C 1278.75,697.189 1297.91,639.355 1345.5,591C 1356.17,581.482 1367.5,572.982 1379.5,565.5 Z"/></g>
<g><path style="opacity:0.986" fill="#85cde2" d="M 1224.5,609.5 C 1225.53,609.897 1225.69,610.563 1225,611.5C 1170.94,660.409 1154.94,719.742 1177,789.5C 1178.99,810.356 1170.49,825.19 1151.5,834C 1129.82,839.742 1114.65,832.242 1106,811.5C 1097.48,731.718 1126.31,669.552 1192.5,625C 1202.86,618.985 1213.53,613.818 1224.5,609.5 Z"/></g>
<g><path style="opacity:0.97" fill="#85cde2" d="M 989.5,682.5 C 990.525,682.897 990.692,683.563 990,684.5C 975.855,704.254 967.189,726.254 964,750.5C 963.115,763.872 962.115,777.205 961,790.5C 954.791,801.462 945.625,804.962 933.5,801C 926.945,797.063 923.612,791.23 923.5,783.5C 932.233,741.001 954.233,707.334 989.5,682.5 Z"/></g>
<g><path style="opacity:1" fill="#576f8c" d="M 1430.5,885.5 C 1423.57,894.274 1416.4,902.941 1409,911.5C 1402.94,919.897 1397.27,928.563 1392,937.5C 1385.49,948.71 1381.15,960.71 1379,973.5C 1374.96,1015.89 1389.79,1049.73 1423.5,1075C 1389.51,1075.93 1355.51,1076.43 1321.5,1076.5C 1339.01,1001.76 1375.34,938.092 1430.5,885.5 Z"/></g>
<g><path style="opacity:0.962" fill="#85cde2" d="M 810.5,992.5 C 811.124,992.917 811.457,993.584 811.5,994.5C 806.689,1012.94 805.522,1031.61 808,1050.5C 809.513,1060.23 811.347,1069.9 813.5,1079.5C 810.356,1092.91 802.356,1097.07 789.5,1092C 786.894,1090.06 785.061,1087.56 784,1084.5C 782.421,1050.75 791.254,1020.08 810.5,992.5 Z"/></g>
<g><path style="opacity:1" fill="#26323f" d="M 1905.5,1030.5 C 1931.62,1034.98 1952.45,1047.98 1968,1069.5C 1981.68,1094.29 1975.18,1111.12 1948.5,1120C 1921.45,1124.26 1895.45,1120.59 1870.5,1109C 1852.48,1101.91 1835.98,1092.41 1821,1080.5C 1820.52,1079.55 1820.35,1078.55 1820.5,1077.5C 1841.36,1083.28 1862.02,1089.78 1882.5,1097C 1899.39,1102.79 1916.72,1105.13 1934.5,1104C 1941.55,1103.24 1948.21,1101.24 1954.5,1098C 1955.7,1097.1 1956.53,1095.93 1957,1094.5C 1957.67,1091.17 1957.67,1087.83 1957,1084.5C 1951.72,1073.88 1944.88,1064.38 1936.5,1056C 1927.39,1048.23 1917.73,1041.23 1907.5,1035C 1905.96,1033.89 1905.3,1032.39 1905.5,1030.5 Z"/></g>
<g><path style="opacity:1" fill="#566f8c" d="M 1291.5,1151.5 C 1375.74,1152.88 1444.91,1185.54 1499,1249.5C 1522.72,1280.29 1537.72,1314.96 1544,1353.5C 1546.78,1377.02 1545.78,1400.36 1541,1423.5C 1538.56,1433.18 1534.39,1442.01 1528.5,1450C 1527.21,1450.49 1525.87,1450.66 1524.5,1450.5C 1526.52,1324.07 1469.52,1236.24 1353.5,1187C 1329.9,1178.13 1306.23,1169.47 1282.5,1161C 1281.42,1160.04 1280.25,1159.21 1279,1158.5C 1278.33,1157.5 1278.33,1156.5 1279,1155.5C 1283.03,1153.39 1287.2,1152.06 1291.5,1151.5 Z"/></g>
<g><path style="opacity:1" fill="#576f8c" d="M 1911.5,1368.5 C 1931.93,1365.8 1947.43,1373.14 1958,1390.5C 1959.17,1394.67 1957.67,1396.17 1953.5,1395C 1945.92,1392.04 1938.25,1389.37 1930.5,1387C 1913.83,1384.03 1901.99,1390.2 1895,1405.5C 1892.72,1408.06 1890.72,1407.73 1889,1404.5C 1885.75,1392.92 1888.91,1383.42 1898.5,1376C 1902.6,1372.95 1906.94,1370.45 1911.5,1368.5 Z"/></g>
<g><path style="opacity:1" fill="#566f8c" d="M 1921.5,1393.5 C 1926.44,1393.6 1929.94,1395.94 1932,1400.5C 1941.32,1419.8 1950.65,1439.14 1960,1458.5C 1975.34,1482.84 1994.51,1503.68 2017.5,1521C 2068.81,1556.77 2125.81,1577.11 2188.5,1582C 2116.35,1583.14 2050.35,1563.8 1990.5,1524C 1961.65,1503.44 1939.48,1477.28 1924,1445.5C 1918.3,1431.69 1915.97,1417.36 1917,1402.5C 1917.45,1398.92 1918.95,1395.92 1921.5,1393.5 Z"/></g>
<g><path style="opacity:1" fill="#566f8c" d="M 965.5,1539.5 C 984.481,1564.06 1003.98,1588.39 1024,1612.5C 1087.54,1684.96 1161.38,1744.12 1245.5,1790C 1315.05,1826.44 1387.72,1855.11 1463.5,1876C 1476.86,1880.43 1490.53,1882.76 1504.5,1883C 1509.62,1879.55 1514.45,1875.71 1519,1871.5C 1534.93,1850.67 1548.59,1828.34 1560,1804.5C 1580.79,1757.74 1591.95,1708.74 1593.5,1657.5C 1594.19,1658.03 1594.69,1658.69 1595,1659.5C 1600.1,1717.97 1589.93,1773.64 1564.5,1826.5C 1554.19,1846.44 1542.36,1865.44 1529,1883.5C 1518.34,1898.05 1504.17,1903.21 1486.5,1899C 1396.07,1877.75 1310.07,1845.08 1228.5,1801C 1129.1,1744.78 1046.44,1669.94 980.5,1576.5C 981.091,1575.85 981.757,1575.18 982.5,1574.5C 976.547,1562.93 970.881,1551.26 965.5,1539.5 Z"/></g>
<g><path style="opacity:1" fill="#677c94" d="M 980.5,1576.5 C 1046.44,1669.94 1129.1,1744.78 1228.5,1801C 1310.07,1845.08 1396.07,1877.75 1486.5,1899C 1504.17,1903.21 1518.34,1898.05 1529,1883.5C 1542.36,1865.44 1554.19,1846.44 1564.5,1826.5C 1547.91,1909.1 1531.58,1991.77 1515.5,2074.5C 1510.4,2074.4 1506.24,2076.4 1503,2080.5C 1497.82,2088.85 1493.16,2097.51 1489,2106.5C 1480.63,2091.46 1469.46,2078.96 1455.5,2069C 1452.69,2067.45 1449.69,2066.62 1446.5,2066.5C 1446.46,2069.42 1447.29,2072.09 1449,2074.5C 1462.67,2091.83 1472.67,2111.17 1479,2132.5C 1477.35,2143.44 1475.68,2154.44 1474,2165.5C 1472.03,2186.83 1472.03,2208.16 1474,2229.5C 1474.68,2239.08 1476.51,2248.41 1479.5,2257.5C 1454.16,2258.27 1428.83,2259.1 1403.5,2260C 1355.82,2263.71 1311.98,2278.54 1272,2304.5C 1288.2,2252.15 1283.2,2201.81 1257,2153.5C 1255.95,2151.38 1254.45,2149.72 1252.5,2148.5C 1207.07,2066.65 1152.57,1991.32 1089,1922.5C 1053.56,1885.03 1014.06,1852.87 970.5,1826C 862.01,1764.07 765.51,1778.9 681,1870.5C 658.616,1896.3 638.449,1923.63 620.5,1952.5C 697.121,1809.03 803.121,1691.87 938.5,1601C 952.145,1592.18 966.145,1584.01 980.5,1576.5 Z"/></g>
<g><path style="opacity:0.999" fill="#8b999e" d="M 1252.5,2148.5 C 1258.28,2168.28 1263.11,2188.28 1267,2208.5C 1271.72,2240.52 1268.05,2271.52 1256,2301.5C 1248,2317.83 1240.33,2334.16 1233,2350.5C 1257.17,2332.69 1282.67,2316.85 1309.5,2303C 1344.02,2286.95 1380.36,2278.29 1418.5,2277C 1478.03,2273.41 1536.36,2279.58 1593.5,2295.5C 1592.2,2297.4 1591.53,2299.73 1591.5,2302.5C 1595.25,2333.93 1607.42,2361.6 1628,2385.5C 1659.57,2421.35 1697.07,2449.02 1740.5,2468.5C 1740.26,2467.21 1740.6,2466.21 1741.5,2465.5C 1739.75,2477.96 1738.08,2490.29 1736.5,2502.5C 1736.5,2501.17 1736.5,2499.83 1736.5,2498.5C 1705.77,2489.15 1674.43,2482.32 1642.5,2478C 1627.52,2476.6 1612.52,2476.27 1597.5,2477C 1587.04,2478.15 1577.38,2481.49 1568.5,2487C 1561.43,2493.12 1559.59,2500.62 1563,2509.5C 1568.06,2522.62 1575.39,2534.28 1585,2544.5C 1621.22,2582.67 1662.38,2614.17 1708.5,2639C 1710.26,2639.8 1711.93,2639.63 1713.5,2638.5C 1713.99,2636.97 1714.66,2635.64 1715.5,2634.5C 1711.98,2653.47 1708.65,2672.47 1705.5,2691.5C 1688.03,2736.61 1667.69,2780.45 1644.5,2823C 1431.5,2823.67 1218.5,2823.67 1005.5,2823C 861.438,2812.71 739.938,2755.54 641,2651.5C 600.412,2606.71 568.079,2556.37 544,2500.5C 547.393,2514.7 551.227,2528.86 555.5,2543C 541.449,2590.36 515.449,2629.69 477.5,2661C 436.237,2689.4 390.57,2700.73 340.5,2695C 326.901,2693.62 313.567,2690.96 300.5,2687C 342.896,2691.2 379.896,2679.2 411.5,2651C 436.581,2626.02 456.081,2597.19 470,2564.5C 501.559,2489.04 516.559,2410.37 515,2328.5C 522.267,2213.43 549.6,2103.43 597,1998.5C 604.082,1982.67 611.915,1967.33 620.5,1952.5C 638.449,1923.63 658.616,1896.3 681,1870.5C 765.51,1778.9 862.01,1764.07 970.5,1826C 1014.06,1852.87 1053.56,1885.03 1089,1922.5C 1152.57,1991.32 1207.07,2066.65 1252.5,2148.5 Z"/></g>
<g><path style="opacity:1" fill="#566f8c" d="M 1515.5,2074.5 C 1509.21,2097.54 1501.71,2120.54 1493,2143.5C 1491.17,2182.19 1489,2220.86 1486.5,2259.5C 1507.27,2261.35 1527.94,2264.18 1548.5,2268C 1618.16,2285.11 1685.49,2308.78 1750.5,2339C 1749.21,2339.49 1747.87,2339.66 1746.5,2339.5C 1738.45,2337.99 1730.45,2336.16 1722.5,2334C 1679.67,2320.45 1636.67,2307.61 1593.5,2295.5C 1536.36,2279.58 1478.03,2273.41 1418.5,2277C 1380.36,2278.29 1344.02,2286.95 1309.5,2303C 1282.67,2316.85 1257.17,2332.69 1233,2350.5C 1240.33,2334.16 1248,2317.83 1256,2301.5C 1268.05,2271.52 1271.72,2240.52 1267,2208.5C 1263.11,2188.28 1258.28,2168.28 1252.5,2148.5C 1254.45,2149.72 1255.95,2151.38 1257,2153.5C 1283.2,2201.81 1288.2,2252.15 1272,2304.5C 1311.98,2278.54 1355.82,2263.71 1403.5,2260C 1428.83,2259.1 1454.16,2258.27 1479.5,2257.5C 1476.51,2248.41 1474.68,2239.08 1474,2229.5C 1472.03,2208.16 1472.03,2186.83 1474,2165.5C 1475.68,2154.44 1477.35,2143.44 1479,2132.5C 1472.67,2111.17 1462.67,2091.83 1449,2074.5C 1447.29,2072.09 1446.46,2069.42 1446.5,2066.5C 1449.69,2066.62 1452.69,2067.45 1455.5,2069C 1469.46,2078.96 1480.63,2091.46 1489,2106.5C 1493.16,2097.51 1497.82,2088.85 1503,2080.5C 1506.24,2076.4 1510.4,2074.4 1515.5,2074.5 Z"/></g>
<g><path style="opacity:1" fill="#bed4d4" d="M 1593.5,2295.5 C 1636.67,2307.61 1679.67,2320.45 1722.5,2334C 1730.45,2336.16 1738.45,2337.99 1746.5,2339.5C 1747.92,2340.45 1749.59,2340.78 1751.5,2340.5C 1751.5,2342.5 1751.5,2344.5 1751.5,2346.5C 1749.32,2386.27 1745.99,2425.94 1741.5,2465.5C 1740.6,2466.21 1740.26,2467.21 1740.5,2468.5C 1697.07,2449.02 1659.57,2421.35 1628,2385.5C 1607.42,2361.6 1595.25,2333.93 1591.5,2302.5C 1591.53,2299.73 1592.2,2297.4 1593.5,2295.5 Z"/></g>
<g><path style="opacity:1" fill="#677c94" d="M 1751.5,2346.5 C 1754.14,2432 1756.64,2517.67 1759,2603.5C 1759.92,2630.69 1761.42,2657.69 1763.5,2684.5C 1763.5,2687.17 1763.5,2689.83 1763.5,2692.5C 1763.5,2693.5 1763.5,2694.5 1763.5,2695.5C 1744.07,2695.55 1724.73,2694.22 1705.5,2691.5C 1708.65,2672.47 1711.98,2653.47 1715.5,2634.5C 1723.37,2590.64 1730.37,2546.64 1736.5,2502.5C 1738.08,2490.29 1739.75,2477.96 1741.5,2465.5C 1745.99,2425.94 1749.32,2386.27 1751.5,2346.5 Z"/></g>
<g><path style="opacity:1" fill="#bed4d4" d="M 2057.5,2379.5 C 2071.05,2454.07 2085.05,2528.57 2099.5,2603C 2099.17,2603.83 2098.83,2604.67 2098.5,2605.5C 2061.48,2629.01 2022.15,2647.67 1980.5,2661.5C 1967.83,2609.26 1968.66,2557.26 1983,2505.5C 1997.91,2457.3 2022.75,2415.3 2057.5,2379.5 Z"/></g>
<g><path style="opacity:1" fill="#bed4d4" d="M 1933.5,2676.5 C 1906.36,2684.19 1878.69,2689.19 1850.5,2691.5C 1821.86,2693.35 1793.19,2694.68 1764.5,2695.5C 1764.74,2694.21 1764.4,2693.21 1763.5,2692.5C 1763.5,2689.83 1763.5,2687.17 1763.5,2684.5C 1763.37,2625.27 1768.87,2566.61 1780,2508.5C 1783.65,2492.22 1789.65,2476.89 1798,2462.5C 1808.67,2446.94 1821.84,2444.44 1837.5,2455C 1862.66,2476.47 1882.16,2502.3 1896,2532.5C 1916.63,2578.36 1929.13,2626.36 1933.5,2676.5 Z"/></g>
<g><path style="opacity:1" fill="#bed4d4" d="M 1736.5,2502.5 C 1730.37,2546.64 1723.37,2590.64 1715.5,2634.5C 1714.66,2635.64 1713.99,2636.97 1713.5,2638.5C 1711.93,2639.63 1710.26,2639.8 1708.5,2639C 1662.38,2614.17 1621.22,2582.67 1585,2544.5C 1575.39,2534.28 1568.06,2522.62 1563,2509.5C 1559.59,2500.62 1561.43,2493.12 1568.5,2487C 1577.38,2481.49 1587.04,2478.15 1597.5,2477C 1612.52,2476.27 1627.52,2476.6 1642.5,2478C 1674.43,2482.32 1705.77,2489.15 1736.5,2498.5C 1736.5,2499.83 1736.5,2501.17 1736.5,2502.5 Z"/></g>
<g><path style="opacity:0.679" fill="#919fa4" d="M 1850.5,2691.5 C 1839.72,2693.31 1828.72,2694.48 1817.5,2695C 1804,2695.5 1790.5,2696 1777,2696.5C 1772.32,2696.5 1767.82,2696.17 1763.5,2695.5C 1763.5,2694.5 1763.5,2693.5 1763.5,2692.5C 1764.4,2693.21 1764.74,2694.21 1764.5,2695.5C 1793.19,2694.68 1821.86,2693.35 1850.5,2691.5 Z"/></g>
</svg>
