<?xml version="1.0" encoding="UTF-8"?>
<!DOCTYPE svg PUBLIC "-//W3C//DTD SVG 1.1//EN" "http://www.w3.org/Graphics/SVG/1.1/DTD/svg11.dtd">
<svg xmlns="http://www.w3.org/2000/svg" version="1.1" width="3000px" height="3000px" style="shape-rendering:geometricPrecision; text-rendering:geometricPrecision; image-rendering:optimizeQuality; fill-rule:evenodd; clip-rule:evenodd" xmlns:xlink="http://www.w3.org/1999/xlink">
<g><path style="opacity:0.998" fill="#6f9457" d="M 1488.5,508.5 C 1474.28,511.409 1460.61,516.243 1447.5,523C 1439.02,531.794 1439.68,539.794 1449.5,547C 1453.17,547.667 1456.83,547.667 1460.5,547C 1474.81,539.232 1490.14,534.899 1506.5,534C 1513.84,530.497 1516.84,524.663 1515.5,516.5C 1543.28,520.893 1570.95,520.06 1598.5,514C 1614,510.625 1629.33,506.625 1644.5,502C 1674.06,491.721 1703.73,481.721 1733.5,472C 1761.7,463.293 1790.53,458.459 1820,457.5C 1869.89,456.451 1910.56,475.118 1942,513.5C 1955.26,530.341 1966.26,548.675 1975,568.5C 1984.27,592.151 1993.44,615.818 2002.5,639.5C 1995.37,642.467 1992.2,647.801 1993,655.5C 2004.46,681.083 2017.46,705.75 2032,729.5C 2039.29,737.35 2046.63,737.35 2054,729.5C 2056.3,725.782 2056.97,721.782 2056,717.5C 2048.55,704.272 2041.39,690.939 2034.5,677.5C 2036.62,679.174 2038.96,680.007 2041.5,680C 2074.78,656.528 2111.12,639.194 2150.5,628C 2176.99,622.005 2203.65,621.005 2230.5,625C 2262.94,631.453 2286.77,649.286 2302,678.5C 2307.92,691.353 2313.59,704.353 2319,717.5C 2336.54,756.058 2366.37,778.892 2408.5,786C 2439.35,790.842 2470.35,791.842 2501.5,789C 2542.25,784.942 2583.09,782.109 2624,780.5C 2678.99,777.838 2728.49,792.672 2772.5,825C 2821.68,865.219 2834.85,915.052 2812,974.5C 2801.84,997.16 2792.5,1020.16 2784,1043.5C 2773.27,1077.33 2778.6,1108.33 2800,1136.5C 2805.67,1143.17 2811.33,1149.83 2817,1156.5C 2835.36,1173.86 2853.36,1191.53 2871,1209.5C 2881.16,1220.81 2888.49,1233.81 2893,1248.5C 2896.86,1266.52 2895.52,1284.19 2889,1301.5C 2881.72,1319.34 2876.05,1337.67 2872,1356.5C 2870.24,1371.57 2871.9,1386.24 2877,1400.5C 2885.46,1419.41 2894.46,1438.08 2904,1456.5C 2926.34,1513.28 2922.68,1568.28 2893,1621.5C 2872.15,1651.01 2846.31,1675.17 2815.5,1694C 2772.6,1718.95 2728.93,1742.62 2684.5,1765C 2660.98,1777.93 2637.64,1791.09 2614.5,1804.5C 2614.06,1804.57 2613.73,1804.4 2613.5,1804C 2639.25,1783.69 2658.08,1758.19 2670,1727.5C 2677.67,1705.83 2685.33,1684.17 2693,1662.5C 2702.66,1638.53 2713.66,1615.2 2726,1592.5C 2750.6,1550.97 2773.94,1508.64 2796,1465.5C 2827.92,1398.06 2838.59,1327.39 2828,1253.5C 2825.14,1235.94 2817.64,1220.77 2805.5,1208C 2789.4,1196.85 2772.4,1195.51 2754.5,1204C 2737.6,1212.56 2720.93,1221.56 2704.5,1231C 2676.65,1245.74 2652.15,1241.57 2631,1218.5C 2623.16,1208.82 2616.82,1198.16 2612,1186.5C 2594.05,1136.27 2571.05,1088.6 2543,1043.5C 2524.69,1015.19 2502.19,990.693 2475.5,970C 2458.44,957.805 2439.78,948.805 2419.5,943C 2405.07,938.958 2392.07,941.625 2380.5,951C 2364.84,965.469 2353.01,982.636 2345,1002.5C 2333.1,1030.86 2323.6,1060.03 2316.5,1090C 2317.06,1091.01 2317.72,1091.84 2318.5,1092.5C 2312.99,1091.93 2308.32,1093.59 2304.5,1097.5C 2301.41,1092.91 2297.75,1088.74 2293.5,1085C 2271.47,1065.81 2246.47,1051.48 2218.5,1042C 2176.65,1028.54 2133.99,1018.54 2090.5,1012C 2083.57,1010.52 2076.9,1008.36 2070.5,1005.5C 2134.34,940.903 2211.34,900.403 2301.5,884C 2320.45,881.205 2339.45,878.872 2358.5,877C 2367.86,870.418 2368.86,862.752 2361.5,854C 2360.17,853.333 2358.83,852.667 2357.5,852C 2247.1,857.059 2150.77,896.059 2068.5,969C 2061.27,976.062 2054.27,983.229 2047.5,990.5C 2036.62,977.428 2029.46,962.428 2026,945.5C 2024.71,937.203 2023.71,928.87 2023,920.5C 2022.67,902.5 2022.33,884.5 2022,866.5C 2020.95,833.304 2012.29,802.304 1996,773.5C 1976.48,744.981 1949.31,729.814 1914.5,728C 1909.17,727.833 1903.83,727.667 1898.5,727.5C 1871.31,729.04 1844.15,730.707 1817,732.5C 1789.17,734.668 1764.84,726.668 1744,708.5C 1739.21,702.041 1734.04,695.874 1728.5,690C 1716.48,683.534 1704.81,684.201 1693.5,692C 1682.22,703.279 1670.89,714.613 1659.5,726C 1645.6,735.302 1630.26,740.635 1613.5,742C 1590.14,744.182 1567.47,741.182 1545.5,733C 1518.14,721.945 1492.47,707.945 1468.5,691C 1453.17,680 1437.83,669 1422.5,658C 1402.7,643.936 1380.7,635.77 1356.5,633.5C 1333.13,634.854 1312.8,643.354 1295.5,659C 1288.3,665.864 1281.47,673.03 1275,680.5C 1260.95,698.886 1247.28,717.553 1234,736.5C 1223.83,749.333 1212.33,760.833 1199.5,771C 1192.85,775.492 1185.85,779.326 1178.5,782.5C 1182.21,777.804 1183.38,772.47 1182,766.5C 1170.27,719.053 1150.94,675.053 1124,634.5C 1118.17,627.93 1111.34,626.763 1103.5,631C 1099.76,635.517 1098.59,640.684 1100,646.5C 1127.22,687.28 1146.55,731.613 1158,779.5C 1160.96,784.063 1165.13,786.063 1170.5,785.5C 1153.15,791.091 1135.82,790.591 1118.5,784C 1099.62,774.895 1080.29,766.895 1060.5,760C 1020.29,750.421 981.293,754.087 943.5,771C 882.096,799.071 838.263,844.238 812,906.5C 801.201,934.063 791.701,962.063 783.5,990.5C 782.586,928.088 752.919,885.922 694.5,864C 626.437,844.436 566.104,858.103 513.5,905C 468.33,948.816 438.83,1001.65 425,1063.5C 422.215,1071.07 418.881,1078.4 415,1085.5C 408.418,1094.75 401.084,1103.42 393,1111.5C 390.306,1114.89 388.14,1118.56 386.5,1122.5C 361.061,1091.89 331.728,1065.72 298.5,1044C 289.487,1039.56 282.654,1041.73 278,1050.5C 277.233,1054.59 277.566,1058.59 279,1062.5C 297.405,1075.57 315.238,1089.4 332.5,1104C 348.868,1119.52 363.534,1136.36 376.5,1154.5C 371.055,1174.7 369.221,1195.37 371,1216.5C 373.753,1246.6 377.42,1276.6 382,1306.5C 384.191,1327.21 383.857,1347.87 381,1368.5C 377.554,1390.23 367.721,1408.4 351.5,1423C 339.561,1431.93 326.895,1433.26 313.5,1427C 306.5,1421.33 300.167,1415 294.5,1408C 282.645,1399.1 269.312,1394.27 254.5,1393.5C 237.841,1394.41 225.341,1402.08 217,1416.5C 207.364,1434.35 204.03,1453.35 207,1473.5C 214.879,1516.84 232.213,1555.84 259,1590.5C 276.921,1612.43 295.588,1633.76 315,1654.5C 326.626,1668.74 335.959,1684.41 343,1701.5C 347.818,1718.14 349.818,1735.14 349,1752.5C 350.328,1758.82 352.995,1764.49 357,1769.5C 361.729,1774.4 366.562,1779.06 371.5,1783.5C 326.214,1761.76 286.048,1732.76 251,1696.5C 199.992,1634.21 158.325,1565.87 126,1491.5C 85.3324,1386.82 76.6657,1279.49 100,1169.5C 107.526,1135.13 121.526,1103.79 142,1075.5C 154.3,1061.53 168.133,1049.36 183.5,1039C 206.504,1025.17 229.171,1010.83 251.5,996C 284.562,971.752 306.062,939.585 316,899.5C 322.754,867.312 328.754,834.979 334,802.5C 340.144,768.384 354.644,738.55 377.5,713C 413.754,680.457 456.421,663.124 505.5,661C 539.698,658.695 573.032,663.028 605.5,674C 639.04,685.121 671.707,698.288 703.5,713.5C 703.833,713 704.167,712.5 704.5,712C 694.015,674.726 699.181,639.893 720,607.5C 738.13,585.79 760.963,578.29 788.5,585C 806.184,591.673 822.517,600.673 837.5,612C 844.234,616.366 851.234,620.199 858.5,623.5C 856.388,632.776 859.721,639.276 868.5,643C 896.209,654.475 925.043,660.975 955,662.5C 967.787,663.802 973.787,658.135 973,645.5C 971.073,640.572 967.573,637.406 962.5,636C 945.396,635.536 928.73,633.036 912.5,628.5C 932.528,619.651 951.195,608.484 968.5,595C 1006.17,564.667 1043.83,534.333 1081.5,504C 1104.02,487.158 1127.35,471.491 1151.5,457C 1195.16,432.543 1242,419.376 1292,417.5C 1328.63,417.27 1362.47,426.77 1393.5,446C 1416.17,462.333 1438.83,478.667 1461.5,495C 1469.96,500.566 1478.96,505.066 1488.5,508.5 Z"/></g>
<g><path style="opacity:0.993" fill="#16213d" d="M 1515.5,516.5 C 1516.84,524.663 1513.84,530.497 1506.5,534C 1490.14,534.899 1474.81,539.232 1460.5,547C 1456.83,547.667 1453.17,547.667 1449.5,547C 1439.68,539.794 1439.02,531.794 1447.5,523C 1460.61,516.243 1474.28,511.409 1488.5,508.5C 1494.48,507.591 1500.48,507.425 1506.5,508C 1510.69,509.688 1513.69,512.521 1515.5,516.5 Z"/></g>
<g><path style="opacity:0.996" fill="#16213d" d="M 912.5,628.5 C 928.73,633.036 945.396,635.536 962.5,636C 967.573,637.406 971.073,640.572 973,645.5C 973.787,658.135 967.787,663.802 955,662.5C 925.043,660.975 896.209,654.475 868.5,643C 859.721,639.276 856.388,632.776 858.5,623.5C 861.209,618.635 865.376,615.969 871,615.5C 884.794,619.931 898.628,624.265 912.5,628.5 Z"/></g>
<g><path style="opacity:0.999" fill="#16213d" d="M 1178.5,782.5 C 1176.05,784.06 1173.38,785.06 1170.5,785.5C 1165.13,786.063 1160.96,784.063 1158,779.5C 1146.55,731.613 1127.22,687.28 1100,646.5C 1098.59,640.684 1099.76,635.517 1103.5,631C 1111.34,626.763 1118.17,627.93 1124,634.5C 1150.94,675.053 1170.27,719.053 1182,766.5C 1183.38,772.47 1182.21,777.804 1178.5,782.5 Z"/></g>
<g><path style="opacity:1" fill="#cddf9f" d="M 2047.5,990.5 C 2045.06,1004.22 2050.72,1010.39 2064.5,1009C 2066.69,1008.07 2068.69,1006.91 2070.5,1005.5C 2076.9,1008.36 2083.57,1010.52 2090.5,1012C 2133.99,1018.54 2176.65,1028.54 2218.5,1042C 2246.47,1051.48 2271.47,1065.81 2293.5,1085C 2297.75,1088.74 2301.41,1092.91 2304.5,1097.5C 2299.9,1120.76 2295.4,1144.09 2291,1167.5C 2284.19,1201.94 2271.53,1233.94 2253,1263.5C 2243.67,1276.67 2232.5,1288 2219.5,1297.5C 2210.17,1290.01 2199.51,1285.51 2187.5,1284C 2134.46,1275.2 2081.12,1268.87 2027.5,1265C 1889.63,1254.42 1764.63,1289.08 1652.5,1369C 1634.9,1383.93 1617.9,1399.6 1601.5,1416C 1588.83,1427.01 1574.83,1436.01 1559.5,1443C 1552.96,1445.14 1546.29,1446.64 1539.5,1447.5C 1639.45,1340.4 1754.12,1252.9 1883.5,1185C 1892.24,1173.09 1889.58,1164.92 1875.5,1160.5C 1865.34,1163.91 1855.68,1168.41 1846.5,1174C 1718.62,1244.52 1605.29,1334.02 1506.5,1442.5C 1494.57,1433.66 1488.07,1421.66 1487,1406.5C 1485.24,1377.96 1490.91,1350.96 1504,1325.5C 1526.5,1280.31 1556.66,1240.81 1594.5,1207C 1647.94,1160.55 1703.94,1117.55 1762.5,1078C 1786.01,1063.24 1810.67,1050.58 1836.5,1040C 1860.65,1032.4 1884.65,1024.4 1908.5,1016C 1929.75,1008.46 1947.92,996.289 1963,979.5C 1977.81,961.08 1984.14,940.08 1982,916.5C 1978.24,896.723 1966.4,887.556 1946.5,889C 1940.52,890.549 1934.86,892.882 1929.5,896C 1898.89,920.938 1866.89,943.938 1833.5,965C 1790.32,990.426 1746.65,1015.09 1702.5,1039C 1671.63,1056.93 1641.96,1076.6 1613.5,1098C 1599.79,1110.04 1585.79,1121.71 1571.5,1133C 1562.73,1138.94 1553.07,1141.61 1542.5,1141C 1535.43,1138.69 1532.59,1133.85 1534,1126.5C 1541.67,1106.82 1551.67,1088.49 1564,1071.5C 1572.52,1059.8 1581.52,1048.47 1591,1037.5C 1627.8,1000.7 1663.14,962.704 1697,923.5C 1715.27,902.229 1731.6,879.563 1746,855.5C 1754.22,842.294 1758.22,827.96 1758,812.5C 1754.57,801.404 1747.07,794.904 1735.5,793C 1715.36,792.984 1697.86,799.817 1683,813.5C 1681.69,812.427 1680.19,811.76 1678.5,811.5C 1671.72,813.723 1665.72,817.223 1660.5,822C 1641.85,839.975 1624.68,859.141 1609,879.5C 1584.66,909.851 1562.66,941.851 1543,975.5C 1528.79,998.387 1512.29,1019.55 1493.5,1039C 1489.45,1042.35 1485.12,1045.19 1480.5,1047.5C 1476.69,990.273 1462.86,935.606 1439,883.5C 1432.72,874.54 1425.05,873.207 1416,879.5C 1414.16,881.867 1412.99,884.533 1412.5,887.5C 1407.78,860.492 1400.28,834.159 1390,808.5C 1383.39,790.901 1373.22,775.735 1359.5,763C 1353.14,758.322 1346.14,754.989 1338.5,753C 1321.1,751.282 1308.94,758.449 1302,774.5C 1298.25,786.654 1297.58,798.987 1300,811.5C 1301.28,819.58 1302.95,827.58 1305,835.5C 1322.84,901.211 1340.84,966.877 1359,1032.5C 1372.6,1073.96 1386.6,1115.29 1401,1156.5C 1419.48,1212.21 1421.48,1268.54 1407,1325.5C 1400.88,1356.86 1390.21,1386.53 1375,1414.5C 1370.88,1420.96 1365.71,1426.46 1359.5,1431C 1349.9,1435.6 1341.74,1433.77 1335,1425.5C 1329.03,1417.91 1326.03,1409.25 1326,1399.5C 1324.91,1380.85 1324.24,1362.18 1324,1343.5C 1318.08,1292.01 1315.08,1240.34 1315,1188.5C 1313.2,1163.41 1304.53,1141.08 1289,1121.5C 1278.62,1109.46 1268.62,1097.12 1259,1084.5C 1250.41,1066.98 1242.08,1049.32 1234,1031.5C 1230.44,1025.55 1226.27,1020.05 1221.5,1015C 1217.98,1015.15 1215.48,1016.98 1214,1020.5C 1205.11,1036.6 1203.11,1053.6 1208,1071.5C 1210.43,1082.13 1214.43,1092.13 1220,1101.5C 1231,1119.17 1242,1136.83 1253,1154.5C 1265.15,1179.44 1272.15,1205.77 1274,1233.5C 1274.5,1247.5 1274.67,1261.5 1274.5,1275.5C 1251,1207.83 1220.5,1143.5 1183,1082.5C 1175.97,1074.08 1168.3,1073.41 1160,1080.5C 1156.67,1086.17 1156.67,1091.83 1160,1097.5C 1194.39,1152.29 1222.39,1210.29 1244,1271.5C 1252.34,1295.02 1260.17,1318.68 1267.5,1342.5C 1265.62,1351.29 1262.46,1359.62 1258,1367.5C 1249.6,1379.37 1238.43,1382.87 1224.5,1378C 1204.79,1368.63 1187.62,1355.8 1173,1339.5C 1141.42,1305.6 1114.09,1268.6 1091,1228.5C 1064.36,1175.98 1046.03,1120.64 1036,1062.5C 1026.95,1008.97 1018.78,955.3 1011.5,901.5C 1009.34,884.866 1005.84,868.533 1001,852.5C 993.67,834.759 980.504,826.592 961.5,828C 951.88,831.959 946.38,839.126 945,849.5C 940.722,874.666 939.056,900 940,925.5C 940.91,936.807 943.244,947.807 947,958.5C 951.333,967.167 955.667,975.833 960,984.5C 965.488,996.271 967.488,1008.6 966,1021.5C 962.44,1041.75 959.44,1062.09 957,1082.5C 947.478,1181.81 974.145,1269.81 1037,1346.5C 1053.1,1365.93 1070.6,1384.1 1089.5,1401C 1113.59,1421.76 1138.25,1441.76 1163.5,1461C 1180.22,1475.64 1194.72,1492.14 1207,1510.5C 1219.64,1531.35 1223.64,1553.69 1219,1577.5C 1210.39,1603.58 1192.22,1616.58 1164.5,1616.5C 1151.61,1616.3 1139.27,1613.63 1127.5,1608.5C 1128.7,1583.78 1126.2,1559.44 1120,1535.5C 1118.28,1529.07 1115.78,1523.07 1112.5,1517.5C 1104.28,1494.22 1090.95,1474.39 1072.5,1458C 1065.5,1453.16 1058.16,1448.83 1050.5,1445C 1037.05,1439.74 1023.38,1435.07 1009.5,1431C 984.756,1421.92 967.59,1405.09 958,1380.5C 951.784,1364.97 947.117,1348.97 944,1332.5C 940.387,1305.49 935.053,1278.82 928,1252.5C 917.998,1219.31 898.831,1192.81 870.5,1173C 853.557,1161.72 836.89,1150.06 820.5,1138C 800.409,1121.53 788.242,1100.37 784,1074.5C 780.606,1058.78 783.939,1044.78 794,1032.5C 796.363,1021.21 791.863,1014.88 780.5,1013.5C 780.793,1005.68 781.793,998.013 783.5,990.5C 791.701,962.063 801.201,934.063 812,906.5C 838.263,844.238 882.096,799.071 943.5,771C 981.293,754.087 1020.29,750.421 1060.5,760C 1080.29,766.895 1099.62,774.895 1118.5,784C 1135.82,790.591 1153.15,791.091 1170.5,785.5C 1173.38,785.06 1176.05,784.06 1178.5,782.5C 1185.85,779.326 1192.85,775.492 1199.5,771C 1212.33,760.833 1223.83,749.333 1234,736.5C 1247.28,717.553 1260.95,698.886 1275,680.5C 1281.47,673.03 1288.3,665.864 1295.5,659C 1312.8,643.354 1333.13,634.854 1356.5,633.5C 1380.7,635.77 1402.7,643.936 1422.5,658C 1437.83,669 1453.17,680 1468.5,691C 1492.47,707.945 1518.14,721.945 1545.5,733C 1567.47,741.182 1590.14,744.182 1613.5,742C 1630.26,740.635 1645.6,735.302 1659.5,726C 1670.89,714.613 1682.22,703.279 1693.5,692C 1704.81,684.201 1716.48,683.534 1728.5,690C 1734.04,695.874 1739.21,702.041 1744,708.5C 1764.84,726.668 1789.17,734.668 1817,732.5C 1844.15,730.707 1871.31,729.04 1898.5,727.5C 1903.83,727.667 1909.17,727.833 1914.5,728C 1949.31,729.814 1976.48,744.981 1996,773.5C 2012.29,802.304 2020.95,833.304 2022,866.5C 2022.33,884.5 2022.67,902.5 2023,920.5C 2023.71,928.87 2024.71,937.203 2026,945.5C 2029.46,962.428 2036.62,977.428 2047.5,990.5 Z"/></g>
<g><path style="opacity:0.993" fill="#16213d" d="M 2034.5,677.5 C 2041.39,690.939 2048.55,704.272 2056,717.5C 2056.97,721.782 2056.3,725.782 2054,729.5C 2046.63,737.35 2039.29,737.35 2032,729.5C 2017.46,705.75 2004.46,681.083 1993,655.5C 1992.2,647.801 1995.37,642.467 2002.5,639.5C 2007.92,638.398 2012.75,639.732 2017,643.5C 2022.59,655.017 2028.42,666.35 2034.5,677.5 Z"/></g>
<g><path style="opacity:1" fill="#f4f4cf" d="M 1412.5,887.5 C 1412.5,888.833 1412.5,890.167 1412.5,891.5C 1416.68,921.672 1418.51,952.006 1418,982.5C 1417.54,1007.71 1426.04,1029.21 1443.5,1047C 1446.7,1049.1 1450.03,1050.93 1453.5,1052.5C 1454.23,1062.47 1454.73,1072.47 1455,1082.5C 1458.24,1090.54 1464.08,1093.37 1472.5,1091C 1477.1,1089.4 1479.93,1086.24 1481,1081.5C 1481.66,1070.15 1481.49,1058.82 1480.5,1047.5C 1485.12,1045.19 1489.45,1042.35 1493.5,1039C 1512.29,1019.55 1528.79,998.387 1543,975.5C 1562.66,941.851 1584.66,909.851 1609,879.5C 1624.68,859.141 1641.85,839.975 1660.5,822C 1665.72,817.223 1671.72,813.723 1678.5,811.5C 1680.19,811.76 1681.69,812.427 1683,813.5C 1697.86,799.817 1715.36,792.984 1735.5,793C 1747.07,794.904 1754.57,801.404 1758,812.5C 1758.22,827.96 1754.22,842.294 1746,855.5C 1731.6,879.563 1715.27,902.229 1697,923.5C 1663.14,962.704 1627.8,1000.7 1591,1037.5C 1581.52,1048.47 1572.52,1059.8 1564,1071.5C 1551.67,1088.49 1541.67,1106.82 1534,1126.5C 1532.59,1133.85 1535.43,1138.69 1542.5,1141C 1553.07,1141.61 1562.73,1138.94 1571.5,1133C 1585.79,1121.71 1599.79,1110.04 1613.5,1098C 1641.96,1076.6 1671.63,1056.93 1702.5,1039C 1746.65,1015.09 1790.32,990.426 1833.5,965C 1866.89,943.938 1898.89,920.938 1929.5,896C 1934.86,892.882 1940.52,890.549 1946.5,889C 1966.4,887.556 1978.24,896.723 1982,916.5C 1984.14,940.08 1977.81,961.08 1963,979.5C 1947.92,996.289 1929.75,1008.46 1908.5,1016C 1884.65,1024.4 1860.65,1032.4 1836.5,1040C 1810.67,1050.58 1786.01,1063.24 1762.5,1078C 1703.94,1117.55 1647.94,1160.55 1594.5,1207C 1556.66,1240.81 1526.5,1280.31 1504,1325.5C 1490.91,1350.96 1485.24,1377.96 1487,1406.5C 1488.07,1421.66 1494.57,1433.66 1506.5,1442.5C 1458.16,1495.87 1414.66,1552.87 1376,1613.5C 1375.01,1626.18 1380.85,1631.68 1393.5,1630C 1396.1,1629.12 1398.27,1627.62 1400,1625.5C 1440.97,1561.93 1487.47,1502.59 1539.5,1447.5C 1546.29,1446.64 1552.96,1445.14 1559.5,1443C 1574.83,1436.01 1588.83,1427.01 1601.5,1416C 1617.9,1399.6 1634.9,1383.93 1652.5,1369C 1764.63,1289.08 1889.63,1254.42 2027.5,1265C 2081.12,1268.87 2134.46,1275.2 2187.5,1284C 2199.51,1285.51 2210.17,1290.01 2219.5,1297.5C 2194.87,1317.98 2166.54,1326.48 2134.5,1323C 2115.68,1317.88 2096.68,1313.54 2077.5,1310C 2049.43,1308.02 2024.1,1315.36 2001.5,1332C 1996.29,1336.71 1990.96,1341.21 1985.5,1345.5C 1906.62,1341.19 1832.62,1358.02 1763.5,1396C 1727,1416.75 1691.33,1438.75 1656.5,1462C 1638,1475.17 1622.17,1491 1609,1509.5C 1597.98,1530.32 1594.81,1552.32 1599.5,1575.5C 1562.04,1592.79 1535.21,1620.46 1519,1658.5C 1507.2,1688.4 1496.7,1718.73 1487.5,1749.5C 1464.98,1745.22 1443.98,1749.05 1424.5,1761C 1410.19,1770.3 1397.36,1781.47 1386,1794.5C 1370.51,1812.99 1356.18,1832.32 1343,1852.5C 1339.22,1859.06 1335.72,1865.73 1332.5,1872.5C 1305.49,1872.56 1278.49,1872.06 1251.5,1871C 1257.99,1865.39 1258.99,1858.89 1254.5,1851.5C 1260.22,1836.05 1267.06,1821.05 1275,1806.5C 1289.17,1783.49 1303.84,1760.83 1319,1738.5C 1326.33,1726.84 1332.33,1714.51 1337,1701.5C 1341.17,1683.68 1336,1669.18 1321.5,1658C 1306.02,1647.8 1289.02,1644.14 1270.5,1647C 1264.8,1648.18 1259.13,1649.51 1253.5,1651C 1236.76,1657.14 1220.09,1663.47 1203.5,1670C 1178,1679.39 1152.33,1679.89 1126.5,1671.5C 1126.85,1650.5 1127.19,1629.5 1127.5,1608.5C 1139.27,1613.63 1151.61,1616.3 1164.5,1616.5C 1192.22,1616.58 1210.39,1603.58 1219,1577.5C 1223.64,1553.69 1219.64,1531.35 1207,1510.5C 1194.72,1492.14 1180.22,1475.64 1163.5,1461C 1138.25,1441.76 1113.59,1421.76 1089.5,1401C 1070.6,1384.1 1053.1,1365.93 1037,1346.5C 974.145,1269.81 947.478,1181.81 957,1082.5C 959.44,1062.09 962.44,1041.75 966,1021.5C 967.488,1008.6 965.488,996.271 960,984.5C 955.667,975.833 951.333,967.167 947,958.5C 943.244,947.807 940.91,936.807 940,925.5C 939.056,900 940.722,874.666 945,849.5C 946.38,839.126 951.88,831.959 961.5,828C 980.504,826.592 993.67,834.759 1001,852.5C 1005.84,868.533 1009.34,884.866 1011.5,901.5C 1018.78,955.3 1026.95,1008.97 1036,1062.5C 1046.03,1120.64 1064.36,1175.98 1091,1228.5C 1114.09,1268.6 1141.42,1305.6 1173,1339.5C 1187.62,1355.8 1204.79,1368.63 1224.5,1378C 1238.43,1382.87 1249.6,1379.37 1258,1367.5C 1262.46,1359.62 1265.62,1351.29 1267.5,1342.5C 1278.96,1378.31 1290.12,1414.31 1301,1450.5C 1305.14,1455.21 1310.31,1456.71 1316.5,1455C 1322.46,1452.76 1325.46,1448.42 1325.5,1442C 1310.22,1385.98 1293.22,1330.48 1274.5,1275.5C 1274.67,1261.5 1274.5,1247.5 1274,1233.5C 1272.15,1205.77 1265.15,1179.44 1253,1154.5C 1242,1136.83 1231,1119.17 1220,1101.5C 1214.43,1092.13 1210.43,1082.13 1208,1071.5C 1203.11,1053.6 1205.11,1036.6 1214,1020.5C 1215.48,1016.98 1217.98,1015.15 1221.5,1015C 1226.27,1020.05 1230.44,1025.55 1234,1031.5C 1242.08,1049.32 1250.41,1066.98 1259,1084.5C 1268.62,1097.12 1278.62,1109.46 1289,1121.5C 1304.53,1141.08 1313.2,1163.41 1315,1188.5C 1315.08,1240.34 1318.08,1292.01 1324,1343.5C 1324.24,1362.18 1324.91,1380.85 1326,1399.5C 1326.03,1409.25 1329.03,1417.91 1335,1425.5C 1341.74,1433.77 1349.9,1435.6 1359.5,1431C 1365.71,1426.46 1370.88,1420.96 1375,1414.5C 1390.21,1386.53 1400.88,1356.86 1407,1325.5C 1421.48,1268.54 1419.48,1212.21 1401,1156.5C 1386.6,1115.29 1372.6,1073.96 1359,1032.5C 1340.84,966.877 1322.84,901.211 1305,835.5C 1302.95,827.58 1301.28,819.58 1300,811.5C 1297.58,798.987 1298.25,786.654 1302,774.5C 1308.94,758.449 1321.1,751.282 1338.5,753C 1346.14,754.989 1353.14,758.322 1359.5,763C 1373.22,775.735 1383.39,790.901 1390,808.5C 1400.28,834.159 1407.78,860.492 1412.5,887.5 Z"/></g>
<g><path style="opacity:0.999" fill="#16213d" d="M 2070.5,1005.5 C 2068.69,1006.91 2066.69,1008.07 2064.5,1009C 2050.72,1010.39 2045.06,1004.22 2047.5,990.5C 2054.27,983.229 2061.27,976.062 2068.5,969C 2150.77,896.059 2247.1,857.059 2357.5,852C 2358.83,852.667 2360.17,853.333 2361.5,854C 2368.86,862.752 2367.86,870.418 2358.5,877C 2339.45,878.872 2320.45,881.205 2301.5,884C 2211.34,900.403 2134.34,940.903 2070.5,1005.5 Z"/></g>
<g><path style="opacity:1" fill="#afcc92" d="M 783.5,990.5 C 781.793,998.013 780.793,1005.68 780.5,1013.5C 778.076,1014.03 775.743,1014.86 773.5,1016C 761.547,1029.09 755.547,1044.59 755.5,1062.5C 757.406,1098.14 771.073,1128.3 796.5,1153C 818.656,1169.58 840.989,1185.91 863.5,1202C 883.06,1218.26 896.226,1238.76 903,1263.5C 908.933,1287.24 913.6,1311.24 917,1335.5C 920.497,1355.49 926.164,1374.83 934,1393.5C 946.586,1422.42 967.419,1442.92 996.5,1455C 1013.47,1460.21 1030.14,1466.21 1046.5,1473C 1063.86,1484.55 1076.36,1500.05 1084,1519.5C 1090.82,1538.24 1094.82,1557.58 1096,1577.5C 1096.08,1616.85 1096.75,1656.18 1098,1695.5C 1101.02,1736.36 1117.52,1770.53 1147.5,1798C 1167.3,1814.06 1187.63,1829.4 1208.5,1844C 1218.52,1853.02 1228.19,1862.36 1237.5,1872C 1196.06,1873.56 1156.06,1881.89 1117.5,1897C 1069.23,1918.61 1033.39,1953.11 1010,2000.5C 983.046,2058.1 969.546,2118.76 969.5,2182.5C 968.772,2219.91 974.605,2256.24 987,2291.5C 991.393,2302.62 996.56,2313.28 1002.5,2323.5C 940.246,2279.53 879.579,2233.36 820.5,2185C 768.792,2139.96 719.625,2092.13 673,2041.5C 649.448,2014.79 627.615,1986.79 607.5,1957.5C 525.697,1903.69 447.03,1845.69 371.5,1783.5C 366.562,1779.06 361.729,1774.4 357,1769.5C 352.995,1764.49 350.328,1758.82 349,1752.5C 349.818,1735.14 347.818,1718.14 343,1701.5C 335.959,1684.41 326.626,1668.74 315,1654.5C 295.588,1633.76 276.921,1612.43 259,1590.5C 232.213,1555.84 214.879,1516.84 207,1473.5C 204.03,1453.35 207.364,1434.35 217,1416.5C 225.341,1402.08 237.841,1394.41 254.5,1393.5C 269.312,1394.27 282.645,1399.1 294.5,1408C 300.167,1415 306.5,1421.33 313.5,1427C 326.895,1433.26 339.561,1431.93 351.5,1423C 367.721,1408.4 377.554,1390.23 381,1368.5C 383.857,1347.87 384.191,1327.21 382,1306.5C 377.42,1276.6 373.753,1246.6 371,1216.5C 369.221,1195.37 371.055,1174.7 376.5,1154.5C 385.871,1161.06 393.371,1159.39 399,1149.5C 399.667,1146.17 399.667,1142.83 399,1139.5C 394.824,1133.8 390.657,1128.14 386.5,1122.5C 388.14,1118.56 390.306,1114.89 393,1111.5C 401.084,1103.42 408.418,1094.75 415,1085.5C 418.881,1078.4 422.215,1071.07 425,1063.5C 438.83,1001.65 468.33,948.816 513.5,905C 566.104,858.103 626.437,844.436 694.5,864C 752.919,885.922 782.586,928.088 783.5,990.5 Z"/></g>
<g><path style="opacity:0.999" fill="#17223d" d="M 1480.5,1047.5 C 1481.49,1058.82 1481.66,1070.15 1481,1081.5C 1479.93,1086.24 1477.1,1089.4 1472.5,1091C 1464.08,1093.37 1458.24,1090.54 1455,1082.5C 1454.73,1072.47 1454.23,1062.47 1453.5,1052.5C 1450.61,995.955 1436.95,942.289 1412.5,891.5C 1412.5,890.167 1412.5,888.833 1412.5,887.5C 1412.99,884.533 1414.16,881.867 1416,879.5C 1425.05,873.207 1432.72,874.54 1439,883.5C 1462.86,935.606 1476.69,990.273 1480.5,1047.5 Z"/></g>
<g><path style="opacity:1" fill="#ccde9f" d="M 1412.5,891.5 C 1436.95,942.289 1450.61,995.955 1453.5,1052.5C 1450.03,1050.93 1446.7,1049.1 1443.5,1047C 1426.04,1029.21 1417.54,1007.71 1418,982.5C 1418.51,952.006 1416.68,921.672 1412.5,891.5 Z"/></g>
<g><path style="opacity:1" fill="#98c475" d="M 2614.5,1804.5 C 2584.23,1825.98 2553.9,1847.48 2523.5,1869C 2469.88,1909.95 2421.38,1956.45 2378,2008.5C 2329.99,2085.24 2272.82,2154.74 2206.5,2217C 2096.99,2313.45 1977.33,2395.45 1847.5,2463C 1706.77,2531.28 1558.44,2558.95 1402.5,2546C 1323.53,2538.1 1249.53,2514.76 1180.5,2476C 1131.65,2445.66 1090.32,2407.16 1056.5,2360.5C 1059.43,2355.71 1059.93,2350.71 1058,2345.5C 1025.96,2317.43 1006.96,2282.1 1001,2239.5C 991.89,2170.38 999.223,2103.04 1023,2037.5C 1039.42,1993.42 1067.26,1958.59 1106.5,1933C 1144.23,1912.81 1184.57,1901.81 1227.5,1900C 1239.48,1899.1 1251.48,1898.6 1263.5,1898.5C 1291.16,1899.45 1318.83,1899.62 1346.5,1899C 1410.85,1894.43 1459.35,1864.6 1492,1809.5C 1498.25,1797.08 1503.92,1784.42 1509,1771.5C 1518.03,1742.73 1527.36,1714.06 1537,1685.5C 1545.83,1660.98 1559.33,1639.48 1577.5,1621C 1621.32,1585.74 1668.98,1579.74 1720.5,1603C 1741.09,1613.93 1761.42,1625.27 1781.5,1637C 1812.23,1651.28 1841.9,1649.28 1870.5,1631C 1889.24,1617.94 1904.07,1601.44 1915,1581.5C 1925.68,1562.13 1934.01,1541.8 1940,1520.5C 1946.51,1496.12 1953.18,1471.79 1960,1447.5C 1968.09,1418.65 1981.42,1392.65 2000,1369.5C 2015.44,1352.86 2034.27,1342.03 2056.5,1337C 2064.54,1336.34 2072.54,1336.67 2080.5,1338C 2094.28,1340.86 2107.95,1344.19 2121.5,1348C 2161.78,1355.61 2198.45,1347.28 2231.5,1323C 2266.07,1296.74 2290.23,1262.91 2304,1221.5C 2316.02,1183.78 2324.52,1145.28 2329.5,1106C 2329.27,1098.61 2325.6,1094.11 2318.5,1092.5C 2317.72,1091.84 2317.06,1091.01 2316.5,1090C 2323.6,1060.03 2333.1,1030.86 2345,1002.5C 2353.01,982.636 2364.84,965.469 2380.5,951C 2392.07,941.625 2405.07,938.958 2419.5,943C 2439.78,948.805 2458.44,957.805 2475.5,970C 2502.19,990.693 2524.69,1015.19 2543,1043.5C 2571.05,1088.6 2594.05,1136.27 2612,1186.5C 2616.82,1198.16 2623.16,1208.82 2631,1218.5C 2652.15,1241.57 2676.65,1245.74 2704.5,1231C 2720.93,1221.56 2737.6,1212.56 2754.5,1204C 2772.4,1195.51 2789.4,1196.85 2805.5,1208C 2817.64,1220.77 2825.14,1235.94 2828,1253.5C 2838.59,1327.39 2827.92,1398.06 2796,1465.5C 2773.94,1508.64 2750.6,1550.97 2726,1592.5C 2713.66,1615.2 2702.66,1638.53 2693,1662.5C 2685.33,1684.17 2677.67,1705.83 2670,1727.5C 2658.08,1758.19 2639.25,1783.69 2613.5,1804C 2613.73,1804.4 2614.06,1804.57 2614.5,1804.5 Z"/></g>
<g><path style="opacity:0.999" fill="#17213d" d="M 780.5,1013.5 C 791.863,1014.88 796.363,1021.21 794,1032.5C 783.939,1044.78 780.606,1058.78 784,1074.5C 788.242,1100.37 800.409,1121.53 820.5,1138C 836.89,1150.06 853.557,1161.72 870.5,1173C 898.831,1192.81 917.998,1219.31 928,1252.5C 935.053,1278.82 940.387,1305.49 944,1332.5C 947.117,1348.97 951.784,1364.97 958,1380.5C 967.59,1405.09 984.756,1421.92 1009.5,1431C 1023.38,1435.07 1037.05,1439.74 1050.5,1445C 1058.16,1448.83 1065.5,1453.16 1072.5,1458C 1090.95,1474.39 1104.28,1494.22 1112.5,1517.5C 1117.99,1536.12 1121.49,1555.12 1123,1574.5C 1123.33,1610.17 1123.67,1645.83 1124,1681.5C 1124.53,1690.4 1125.69,1699.06 1127.5,1707.5C 1132.98,1740.79 1149.31,1767.29 1176.5,1787C 1195.52,1800.51 1214.19,1814.51 1232.5,1829C 1240.06,1836.4 1247.4,1843.9 1254.5,1851.5C 1258.99,1858.89 1257.99,1865.39 1251.5,1871C 1278.49,1872.06 1305.49,1872.56 1332.5,1872.5C 1400.95,1871.81 1449.12,1840.48 1477,1778.5C 1481.2,1769.08 1484.7,1759.41 1487.5,1749.5C 1496.7,1718.73 1507.2,1688.4 1519,1658.5C 1535.21,1620.46 1562.04,1592.79 1599.5,1575.5C 1633.22,1561.03 1667.88,1558.53 1703.5,1568C 1724.9,1574.96 1745.23,1584.13 1764.5,1595.5C 1778.51,1605.62 1793.85,1613.46 1810.5,1619C 1827.26,1621.3 1842.59,1617.64 1856.5,1608C 1872.26,1595.9 1884.76,1581.07 1894,1563.5C 1905.04,1541.09 1913.54,1517.76 1919.5,1493.5C 1926.62,1461.31 1936.45,1429.97 1949,1399.5C 1957.96,1379.22 1970.13,1361.22 1985.5,1345.5C 1990.96,1341.21 1996.29,1336.71 2001.5,1332C 2024.1,1315.36 2049.43,1308.02 2077.5,1310C 2096.68,1313.54 2115.68,1317.88 2134.5,1323C 2166.54,1326.48 2194.87,1317.98 2219.5,1297.5C 2232.5,1288 2243.67,1276.67 2253,1263.5C 2271.53,1233.94 2284.19,1201.94 2291,1167.5C 2295.4,1144.09 2299.9,1120.76 2304.5,1097.5C 2308.32,1093.59 2312.99,1091.93 2318.5,1092.5C 2325.6,1094.11 2329.27,1098.61 2329.5,1106C 2324.52,1145.28 2316.02,1183.78 2304,1221.5C 2290.23,1262.91 2266.07,1296.74 2231.5,1323C 2198.45,1347.28 2161.78,1355.61 2121.5,1348C 2107.95,1344.19 2094.28,1340.86 2080.5,1338C 2072.54,1336.67 2064.54,1336.34 2056.5,1337C 2034.27,1342.03 2015.44,1352.86 2000,1369.5C 1981.42,1392.65 1968.09,1418.65 1960,1447.5C 1953.18,1471.79 1946.51,1496.12 1940,1520.5C 1934.01,1541.8 1925.68,1562.13 1915,1581.5C 1904.07,1601.44 1889.24,1617.94 1870.5,1631C 1841.9,1649.28 1812.23,1651.28 1781.5,1637C 1761.42,1625.27 1741.09,1613.93 1720.5,1603C 1668.98,1579.74 1621.32,1585.74 1577.5,1621C 1559.33,1639.48 1545.83,1660.98 1537,1685.5C 1527.36,1714.06 1518.03,1742.73 1509,1771.5C 1503.92,1784.42 1498.25,1797.08 1492,1809.5C 1459.35,1864.6 1410.85,1894.43 1346.5,1899C 1318.83,1899.62 1291.16,1899.45 1263.5,1898.5C 1251.48,1898.6 1239.48,1899.1 1227.5,1900C 1184.57,1901.81 1144.23,1912.81 1106.5,1933C 1067.26,1958.59 1039.42,1993.42 1023,2037.5C 999.223,2103.04 991.89,2170.38 1001,2239.5C 1006.96,2282.1 1025.96,2317.43 1058,2345.5C 1059.93,2350.71 1059.43,2355.71 1056.5,2360.5C 1050.88,2366.04 1044.55,2366.87 1037.5,2363C 1023.45,2351.8 1011.79,2338.63 1002.5,2323.5C 996.56,2313.28 991.393,2302.62 987,2291.5C 974.605,2256.24 968.772,2219.91 969.5,2182.5C 969.546,2118.76 983.046,2058.1 1010,2000.5C 1033.39,1953.11 1069.23,1918.61 1117.5,1897C 1156.06,1881.89 1196.06,1873.56 1237.5,1872C 1228.19,1862.36 1218.52,1853.02 1208.5,1844C 1187.63,1829.4 1167.3,1814.06 1147.5,1798C 1117.52,1770.53 1101.02,1736.36 1098,1695.5C 1096.75,1656.18 1096.08,1616.85 1096,1577.5C 1094.82,1557.58 1090.82,1538.24 1084,1519.5C 1076.36,1500.05 1063.86,1484.55 1046.5,1473C 1030.14,1466.21 1013.47,1460.21 996.5,1455C 967.419,1442.92 946.586,1422.42 934,1393.5C 926.164,1374.83 920.497,1355.49 917,1335.5C 913.6,1311.24 908.933,1287.24 903,1263.5C 896.226,1238.76 883.06,1218.26 863.5,1202C 840.989,1185.91 818.656,1169.58 796.5,1153C 771.073,1128.3 757.406,1098.14 755.5,1062.5C 755.547,1044.59 761.547,1029.09 773.5,1016C 775.743,1014.86 778.076,1014.03 780.5,1013.5 Z"/></g>
<g><path style="opacity:0.998" fill="#16213d" d="M 386.5,1122.5 C 390.657,1128.14 394.824,1133.8 399,1139.5C 399.667,1142.83 399.667,1146.17 399,1149.5C 393.371,1159.39 385.871,1161.06 376.5,1154.5C 363.534,1136.36 348.868,1119.52 332.5,1104C 315.238,1089.4 297.405,1075.57 279,1062.5C 277.566,1058.59 277.233,1054.59 278,1050.5C 282.654,1041.73 289.487,1039.56 298.5,1044C 331.728,1065.72 361.061,1091.89 386.5,1122.5 Z"/></g>
<g><path style="opacity:0.999" fill="#17223d" d="M 1274.5,1275.5 C 1293.22,1330.48 1310.22,1385.98 1325.5,1442C 1325.46,1448.42 1322.46,1452.76 1316.5,1455C 1310.31,1456.71 1305.14,1455.21 1301,1450.5C 1290.12,1414.31 1278.96,1378.31 1267.5,1342.5C 1260.17,1318.68 1252.34,1295.02 1244,1271.5C 1222.39,1210.29 1194.39,1152.29 1160,1097.5C 1156.67,1091.83 1156.67,1086.17 1160,1080.5C 1168.3,1073.41 1175.97,1074.08 1183,1082.5C 1220.5,1143.5 1251,1207.83 1274.5,1275.5 Z"/></g>
<g><path style="opacity:0.999" fill="#17213d" d="M 1539.5,1447.5 C 1487.47,1502.59 1440.97,1561.93 1400,1625.5C 1398.27,1627.62 1396.1,1629.12 1393.5,1630C 1380.85,1631.68 1375.01,1626.18 1376,1613.5C 1414.66,1552.87 1458.16,1495.87 1506.5,1442.5C 1605.29,1334.02 1718.62,1244.52 1846.5,1174C 1855.68,1168.41 1865.34,1163.91 1875.5,1160.5C 1889.58,1164.92 1892.24,1173.09 1883.5,1185C 1754.12,1252.9 1639.45,1340.4 1539.5,1447.5 Z"/></g>
<g><path style="opacity:0.999" fill="#16213d" d="M 562.5,1191.5 C 569.656,1190.17 575.156,1192.5 579,1198.5C 587.823,1236.13 596.49,1273.79 605,1311.5C 615.414,1361.75 632.747,1409.41 657,1454.5C 672.946,1480.73 690.612,1505.73 710,1529.5C 742.925,1567.76 776.592,1605.43 811,1642.5C 840.078,1674.9 866.078,1709.57 889,1746.5C 920.018,1798.89 937.352,1855.56 941,1916.5C 947.275,1974.68 950.942,2033.02 952,2091.5C 948.527,2099.09 942.694,2101.59 934.5,2099C 929.374,2096.93 926.541,2093.1 926,2087.5C 923.396,2022.65 918.396,1957.98 911,1893.5C 903.128,1831.85 880.795,1776.19 844,1726.5C 832,1711.17 820,1695.83 808,1680.5C 778.369,1646.27 748.035,1612.6 717,1579.5C 681.682,1540.53 651.015,1498.19 625,1452.5C 604.3,1410.07 588.967,1365.74 579,1319.5C 570.509,1282.54 562.176,1245.54 554,1208.5C 552.621,1200.59 555.454,1194.92 562.5,1191.5 Z"/></g>
<g><path style="opacity:1" fill="#cddfa0" d="M 1985.5,1345.5 C 1970.13,1361.22 1957.96,1379.22 1949,1399.5C 1936.45,1429.97 1926.62,1461.31 1919.5,1493.5C 1878.89,1507.8 1841.89,1528.3 1808.5,1555C 1793.57,1568.28 1778.9,1581.78 1764.5,1595.5C 1745.23,1584.13 1724.9,1574.96 1703.5,1568C 1667.88,1558.53 1633.22,1561.03 1599.5,1575.5C 1594.81,1552.32 1597.98,1530.32 1609,1509.5C 1622.17,1491 1638,1475.17 1656.5,1462C 1691.33,1438.75 1727,1416.75 1763.5,1396C 1832.62,1358.02 1906.62,1341.19 1985.5,1345.5 Z"/></g>
<g><path style="opacity:0.999" fill="#16213d" d="M 2393.5,1436.5 C 2406.14,1435.98 2411.64,1441.98 2410,1454.5C 2353.65,1647.73 2248.82,1808.89 2095.5,1938C 2027.42,1991.39 1962.92,2049.22 1902,2111.5C 1823.36,2194.11 1754.7,2284.11 1696,2381.5C 1689.6,2386.53 1683.1,2386.7 1676.5,2382C 1672.95,2377.78 1671.78,2372.94 1673,2367.5C 1758.83,2225.6 1864.66,2099.77 1990.5,1990C 2037.1,1952.18 2082.76,1913.18 2127.5,1873C 2251.52,1752.88 2337.69,1609.38 2386,1442.5C 2388.13,1439.85 2390.63,1437.85 2393.5,1436.5 Z"/></g>
<g><path style="opacity:1" fill="#f4f4cf" d="M 1919.5,1493.5 C 1913.54,1517.76 1905.04,1541.09 1894,1563.5C 1884.76,1581.07 1872.26,1595.9 1856.5,1608C 1842.59,1617.64 1827.26,1621.3 1810.5,1619C 1793.85,1613.46 1778.51,1605.62 1764.5,1595.5C 1778.9,1581.78 1793.57,1568.28 1808.5,1555C 1841.89,1528.3 1878.89,1507.8 1919.5,1493.5 Z"/></g>
<g><path style="opacity:0.989" fill="#acc991" d="M 1112.5,1517.5 C 1115.78,1523.07 1118.28,1529.07 1120,1535.5C 1126.2,1559.44 1128.7,1583.78 1127.5,1608.5C 1127.19,1629.5 1126.85,1650.5 1126.5,1671.5C 1126.39,1683.52 1126.72,1695.52 1127.5,1707.5C 1125.69,1699.06 1124.53,1690.4 1124,1681.5C 1123.67,1645.83 1123.33,1610.17 1123,1574.5C 1121.49,1555.12 1117.99,1536.12 1112.5,1517.5 Z"/></g>
<g><path style="opacity:0.999" fill="#16213d" d="M 453.5,1549.5 C 458.677,1548.7 463.177,1550.04 467,1553.5C 476.652,1577.79 490.319,1599.46 508,1618.5C 517.196,1628.03 526.696,1637.2 536.5,1646C 557.794,1663.63 578.794,1681.63 599.5,1700C 619.955,1718.77 637.788,1739.61 653,1762.5C 672.688,1797.91 683.688,1835.91 686,1876.5C 687.638,1896.81 688.305,1917.14 688,1937.5C 684.802,1944.68 679.302,1947.52 671.5,1946C 666.572,1944.07 663.406,1940.57 662,1935.5C 661.692,1906.33 659.358,1877.33 655,1848.5C 648.752,1808.35 632.086,1773.35 605,1743.5C 593.804,1731.97 582.304,1720.8 570.5,1710C 550.206,1693.38 530.206,1676.38 510.5,1659C 488.941,1639.79 470.775,1617.96 456,1593.5C 451.176,1584.85 447.176,1575.85 444,1566.5C 443.299,1563.07 443.632,1559.74 445,1556.5C 447.441,1553.55 450.275,1551.21 453.5,1549.5 Z"/></g>
<g><path style="opacity:1" fill="#cddf9f" d="M 1254.5,1851.5 C 1247.4,1843.9 1240.06,1836.4 1232.5,1829C 1214.19,1814.51 1195.52,1800.51 1176.5,1787C 1149.31,1767.29 1132.98,1740.79 1127.5,1707.5C 1126.72,1695.52 1126.39,1683.52 1126.5,1671.5C 1152.33,1679.89 1178,1679.39 1203.5,1670C 1220.09,1663.47 1236.76,1657.14 1253.5,1651C 1259.13,1649.51 1264.8,1648.18 1270.5,1647C 1289.02,1644.14 1306.02,1647.8 1321.5,1658C 1336,1669.18 1341.17,1683.68 1337,1701.5C 1332.33,1714.51 1326.33,1726.84 1319,1738.5C 1303.84,1760.83 1289.17,1783.49 1275,1806.5C 1267.06,1821.05 1260.22,1836.05 1254.5,1851.5 Z"/></g>
<g><path style="opacity:0.999" fill="#16213d" d="M 2567.5,1692.5 C 2581.41,1693.22 2586.57,1700.22 2583,1713.5C 2548.8,1754.04 2509.97,1789.21 2466.5,1819C 2410.51,1855.33 2353.84,1890.67 2296.5,1925C 2226.56,1969.23 2163.39,2022.07 2107,2083.5C 2089.08,2103.41 2071.91,2123.91 2055.5,2145C 2043.69,2150.03 2036.69,2146.2 2034.5,2133.5C 2034.47,2130.57 2035.3,2127.9 2037,2125.5C 2113.74,2027.07 2205.57,1946.23 2312.5,1883C 2364.52,1853 2415.18,1821 2464.5,1787C 2493.44,1765.4 2520.61,1741.57 2546,1715.5C 2550.71,1710.46 2555.05,1705.12 2559,1699.5C 2561.44,1696.55 2564.27,1694.21 2567.5,1692.5 Z"/></g>
<g><path style="opacity:1" fill="#cddf9f" d="M 1487.5,1749.5 C 1484.7,1759.41 1481.2,1769.08 1477,1778.5C 1449.12,1840.48 1400.95,1871.81 1332.5,1872.5C 1335.72,1865.73 1339.22,1859.06 1343,1852.5C 1356.18,1832.32 1370.51,1812.99 1386,1794.5C 1397.36,1781.47 1410.19,1770.3 1424.5,1761C 1443.98,1749.05 1464.98,1745.22 1487.5,1749.5 Z"/></g>
<g><path style="opacity:0.999" fill="#16213d" d="M 1731.5,1992.5 C 1740.54,1990.77 1746.71,1994.1 1750,2002.5C 1720.5,2150.81 1657.83,2282.81 1562,2398.5C 1552.33,2409.5 1542.67,2420.5 1533,2431.5C 1529.8,2435.04 1526.3,2438.2 1522.5,2441C 1509.52,2442.95 1503.36,2437.45 1504,2424.5C 1504.67,2423.17 1505.33,2421.83 1506,2420.5C 1617.52,2301.49 1690.18,2161.49 1724,2000.5C 1725.69,1996.98 1728.19,1994.31 1731.5,1992.5 Z"/></g>
</svg>
