<?xml version="1.0" encoding="iso-8859-1"?>
<!-- Generator: Adobe Illustrator 19.0.0, SVG Export Plug-In . SVG Version: 6.00 Build 0)  -->
<svg version="1.1" id="Layer_1" xmlns="http://www.w3.org/2000/svg" xmlns:xlink="http://www.w3.org/1999/xlink" x="0px" y="0px"
	 viewBox="0 0 512 512" style="enable-background:new 0 0 512 512;" xml:space="preserve">
<g>
	<g>
		<path d="M504.936,146.139L365.86,7.061c-9.411-9.411-24.691-9.418-34.109,0l-40.236,40.236l173.187,173.186l40.235-40.235
			C514.354,170.829,514.354,155.558,504.936,146.139z" fill="#ffffff"/>
	</g>
</g>
<g>
	<g>
		<path d="M47.323,291.488L7.061,331.75c-9.411,9.411-9.418,24.691,0,34.109l139.078,139.077c9.418,9.418,24.69,9.419,34.109,0
			l40.235-40.235L47.323,291.488z" fill="#ffffff"/>
	</g>
</g>
<g>
	<g>
		<path d="M417.868,236.721L275.277,94.131c-6.826-6.828-17.879-6.83-24.707,0L94.13,250.57c-6.812,6.811-6.812,17.897,0,24.71
			l142.59,142.588c6.826,6.828,17.879,6.83,24.707,0l156.44-156.44C424.696,254.602,424.698,243.549,417.868,236.721z
			 M141.398,280.697c-9.418-9.419-9.418-24.69,0-34.109l33.792-33.792c9.419-9.419,24.69-9.419,34.109,0
			c9.418,9.419,9.418,24.69,0,34.109l-33.792,33.792C166.088,290.115,150.817,290.117,141.398,280.697z M309.477,254.808
			l-79.929,79.93c-9.418,9.418-24.69,9.419-34.109,0c-9.418-9.419-9.418-24.69,0-34.109l79.929-79.93
			c9.419-9.417,24.69-9.419,34.109,0C318.895,230.119,318.895,245.389,309.477,254.808z" fill="#ffffff"/>
	</g>
</g>
<g>
</g>
<g>
</g>
<g>
</g>
<g>
</g>
<g>
</g>
<g>
</g>
<g>
</g>
<g>
</g>
<g>
</g>
<g>
</g>
<g>
</g>
<g>
</g>
<g>
</g>
<g>
</g>
<g>
</g>
</svg>
