<?xml version="1.0" encoding="UTF-8"?>
<!DOCTYPE svg PUBLIC "-//W3C//DTD SVG 1.1//EN" "http://www.w3.org/Graphics/SVG/1.1/DTD/svg11.dtd">
<svg xmlns="http://www.w3.org/2000/svg" version="1.1" width="3000px" height="3000px" style="shape-rendering:geometricPrecision; text-rendering:geometricPrecision; image-rendering:optimizeQuality; fill-rule:evenodd; clip-rule:evenodd" xmlns:xlink="http://www.w3.org/1999/xlink">
<g><path style="opacity:0.997" fill="#d17056" d="M 802.5,181.5 C 815.694,181.405 828.694,182.905 841.5,186C 846.245,187.115 849.412,189.948 851,194.5C 870.501,265.839 890.001,337.172 909.5,408.5C 1104.68,409.497 1299.68,409.83 1494.5,409.5C 1494.83,409.167 1495.17,408.833 1495.5,408.5C 1475.76,336.361 1456.09,264.194 1436.5,192C 1437.08,189.085 1438.75,187.085 1441.5,186C 1451.31,182.171 1461.47,180.671 1472,181.5C 1485.86,180.573 1499.03,183.073 1511.5,189C 1513.05,190.214 1514.22,191.714 1515,193.5C 1751.76,1064.02 1988.59,1934.52 2225.5,2805C 2224.18,2808.99 2221.51,2811.65 2217.5,2813C 2197.02,2817.71 2176.69,2817.05 2156.5,2811C 2153.24,2809.79 2150.41,2807.96 2148,2805.5C 2128.01,2733.22 2108.18,2660.88 2088.5,2588.5C 1893.17,2587.5 1697.83,2587.17 1502.5,2587.5C 1521.91,2659.64 1541.24,2731.8 1560.5,2804C 1560.65,2806.03 1559.98,2807.7 1558.5,2809C 1555.38,2810.89 1552.05,2812.23 1548.5,2813C 1534.21,2814.56 1519.87,2814.89 1505.5,2814C 1499.25,2813.22 1493.25,2811.55 1487.5,2809C 1484.53,2806.9 1482.7,2804.07 1482,2800.5C 1246.33,1934.5 1010.67,1068.5 775,202.5C 774.167,199.167 773.333,195.833 772.5,192.5C 772.876,190.617 773.876,189.117 775.5,188C 778.618,186.107 781.951,184.774 785.5,184C 791.317,183.191 796.983,182.358 802.5,181.5 Z M 930.5,484.5 C 1125.83,484.5 1321.17,484.5 1516.5,484.5C 1533,547.152 1550,609.652 1567.5,672C 1371.83,672.5 1176.17,672.667 980.5,672.5C 963.833,609.833 947.167,547.167 930.5,484.5 Z M 1001.5,747.5 C 1196.83,747.333 1392.17,747.5 1587.5,748C 1604.89,810.381 1621.89,872.881 1638.5,935.5C 1443.17,935.833 1247.83,935.5 1052.5,934.5C 1035.34,872.198 1018.34,809.864 1001.5,747.5 Z M 1073.5,1010.5 C 1268.83,1010.5 1464.17,1010.5 1659.5,1010.5C 1676.11,1073.12 1693.11,1135.62 1710.5,1198C 1515.17,1198.67 1319.83,1198.67 1124.5,1198C 1106.8,1135.7 1089.8,1073.2 1073.5,1010.5 Z M 1144.5,1273.5 C 1339.83,1273.33 1535.17,1273.5 1730.5,1274C 1747.89,1336.38 1764.89,1398.88 1781.5,1461.5C 1586.17,1461.5 1390.83,1461.5 1195.5,1461.5C 1178.81,1398.75 1161.81,1336.08 1144.5,1273.5 Z M 1800.5,1536.5 C 1801.17,1536.5 1801.83,1536.5 1802.5,1536.5C 1819.29,1598.88 1836.29,1661.21 1853.5,1723.5C 1658.17,1724.67 1462.83,1724.83 1267.5,1724C 1250.11,1661.62 1233.11,1599.12 1216.5,1536.5C 1411.17,1536.5 1605.83,1536.5 1800.5,1536.5 Z M 1287.5,1800.5 C 1482.67,1799.33 1678,1799.17 1873.5,1800C 1891.2,1862.3 1908.2,1924.8 1924.5,1987.5C 1729.17,1987.5 1533.83,1987.5 1338.5,1987.5C 1321.94,1924.94 1304.94,1862.6 1287.5,1800.5 Z M 1359.5,2062.5 C 1554.83,2062.17 1750.17,2062.5 1945.5,2063.5C 1962.5,2125.5 1979.5,2187.5 1996.5,2249.5C 1801.17,2250.83 1605.83,2250.83 1410.5,2249.5C 1393.03,2187.28 1376.03,2124.95 1359.5,2062.5 Z M 1430.5,2326.5 C 1626,2325.5 1821.67,2325.17 2017.5,2325.5C 2034.17,2387.83 2050.83,2450.17 2067.5,2512.5C 1872.17,2512.5 1676.83,2512.5 1481.5,2512.5C 1465.1,2450.23 1448.1,2388.23 1430.5,2326.5 Z"/></g>
<g><path style="opacity:1" fill="#6d4538" d="M 1486.5,202.5 C 1487.01,200.767 1487.84,200.434 1489,201.5C 1489.46,200.906 1489.63,200.239 1489.5,199.5C 1491.22,197.838 1493.39,196.838 1496,196.5C 1497.26,196.85 1497.59,197.517 1497,198.5C 1494.4,199.99 1491.4,201.656 1488,203.5C 1487.62,202.944 1487.12,202.611 1486.5,202.5 Z"/></g>
<g><path style="opacity:1" fill="#41332b" d="M 1489.5,199.5 C 1489.63,200.239 1489.46,200.906 1489,201.5C 1487.84,200.434 1487.01,200.767 1486.5,202.5C 1485.17,202.5 1484.5,201.833 1484.5,200.5C 1486.04,199.699 1487.71,199.366 1489.5,199.5 Z"/></g>
<g><path style="opacity:1" fill="#533a30" d="M 1484.5,200.5 C 1484.5,201.833 1485.17,202.5 1486.5,202.5C 1472.13,207.009 1458.13,205.343 1444.5,197.5C 1443.83,196.833 1443.17,196.167 1442.5,195.5C 1443,195.167 1443.5,194.833 1444,194.5C 1453.62,199.35 1463.62,202.017 1474,202.5C 1477.3,200.861 1480.8,200.194 1484.5,200.5 Z"/></g>
<g><path style="opacity:1" fill="#4e382f" d="M 784.5,202.5 C 791.079,205.224 797.579,208.224 804,211.5C 804.414,211.043 804.914,210.709 805.5,210.5C 817.956,214.69 829.789,213.357 841,206.5C 841.5,206.833 842,207.167 842.5,207.5C 839.465,210.039 836.298,212.372 833,214.5C 827.616,214.276 822.116,214.943 816.5,216.5C 812.862,215.818 809.195,215.318 805.5,215C 800.421,212.128 795.088,209.795 789.5,208C 786.921,206.924 785.254,205.091 784.5,202.5 Z"/></g>
<g><path style="opacity:1" fill="#553b31" d="M 1514.5,432.5 C 1511.84,429.194 1509.68,425.527 1508,421.5C 1506.5,420.333 1505,419.167 1503.5,418C 1504.94,417.219 1506.28,417.386 1507.5,418.5C 1508.99,420.156 1510.66,421.656 1512.5,423C 1512.83,424.164 1512.83,425.497 1512.5,427C 1515.23,428.228 1515.9,430.061 1514.5,432.5 Z"/></g>
<g><path style="opacity:1" fill="#895141" d="M 893.5,426.5 C 894.108,428.684 893.441,430.684 891.5,432.5C 891.604,430.297 892.27,428.297 893.5,426.5 Z"/></g>
<g><path style="opacity:1" fill="#4b372e" d="M 904.5,468.5 C 903.5,468.5 902.5,468.5 901.5,468.5C 894.562,457.593 891.229,445.593 891.5,432.5C 893.441,430.684 894.108,428.684 893.5,426.5C 895.03,420.802 898.53,416.802 904,414.5C 904.5,414.833 905,415.167 905.5,415.5C 898.394,420.456 894.394,427.289 893.5,436C 894.581,440.736 895.914,445.403 897.5,450C 897.043,450.414 896.709,450.914 896.5,451.5C 899.179,457.226 901.846,462.893 904.5,468.5 Z"/></g>
<g><path style="opacity:1" fill="#4e382f" d="M 1514.5,432.5 C 1515.5,432.414 1516.33,432.748 1517,433.5C 1523.56,449.847 1524.73,466.514 1520.5,483.5C 1520.99,473.494 1520.49,463.494 1519,453.5C 1518.14,446.32 1516.64,439.32 1514.5,432.5 Z"/></g>
<g><path style="opacity:1" fill="#945644" d="M 901.5,468.5 C 902.5,468.5 903.5,468.5 904.5,468.5C 903.766,469.708 903.433,471.041 903.5,472.5C 901.896,471.713 901.229,470.38 901.5,468.5 Z"/></g>
<g><path style="opacity:1" fill="#4d382f" d="M 904.5,468.5 C 907.19,470.193 909.19,472.527 910.5,475.5C 909.07,475.579 907.736,475.246 906.5,474.5C 906.002,473.397 905.669,472.397 905.5,471.5C 904.817,471.863 904.15,472.196 903.5,472.5C 903.433,471.041 903.766,469.708 904.5,468.5 Z"/></g>
<g><path style="opacity:1" fill="#a85f4a" d="M 910.5,475.5 C 913.436,477.098 916.103,479.098 918.5,481.5C 918.333,481.833 918.167,482.167 918,482.5C 915.966,481.138 913.799,480.138 911.5,479.5C 911.567,478.041 911.234,476.708 910.5,475.5 Z"/></g>
<g><path style="opacity:1" fill="#985845" d="M 1586.5,686.5 C 1588.54,687.911 1589.54,689.911 1589.5,692.5C 1588.68,690.856 1587.35,689.69 1585.5,689C 1586.25,688.329 1586.59,687.496 1586.5,686.5 Z"/></g>
<g><path style="opacity:1" fill="#49362e" d="M 982.5,729.5 C 981.391,729.443 980.391,729.11 979.5,728.5C 977.07,724.329 975.57,719.995 975,715.5C 974.147,710.703 973.647,705.87 973.5,701C 974.062,694.643 974.229,688.143 974,681.5C 974.364,678.751 975.697,676.751 978,675.5C 978.5,675.667 979,675.833 979.5,676C 978.54,677.419 977.707,678.919 977,680.5C 976.333,689.833 976.333,699.167 977,708.5C 977.317,713.805 978.317,719.138 980,724.5C 981.094,726.078 981.928,727.745 982.5,729.5 Z"/></g>
<g><path style="opacity:1" fill="#4e382f" d="M 1586.5,686.5 C 1586.59,687.496 1586.25,688.329 1585.5,689C 1587.35,689.69 1588.68,690.856 1589.5,692.5C 1590.01,697.137 1591.51,701.803 1594,706.5C 1596.29,717.716 1596.62,729.05 1595,740.5C 1593.86,742.926 1592.52,745.259 1591,747.5C 1591.72,739.316 1592.55,731.15 1593.5,723C 1592.58,718.894 1591.74,714.727 1591,710.5C 1589.68,709.32 1589.52,707.82 1590.5,706C 1589.22,697.274 1585.89,689.441 1580.5,682.5C 1581.32,681.614 1582.32,681.281 1583.5,681.5C 1583.36,683.124 1584.03,684.29 1585.5,685C 1584.29,686.107 1584.62,686.607 1586.5,686.5 Z"/></g>
<g><path style="opacity:1" fill="#8d5341" d="M 979.5,728.5 C 980.391,729.11 981.391,729.443 982.5,729.5C 983.167,729.5 983.5,729.833 983.5,730.5C 981.821,730.285 980.821,730.952 980.5,732.5C 978.255,731.708 977.922,730.375 979.5,728.5 Z"/></g>
<g><path style="opacity:1" fill="#4e382f" d="M 983.5,730.5 C 988.915,738.965 987.915,739.631 980.5,732.5C 980.821,730.952 981.821,730.285 983.5,730.5 Z"/></g>
<g><path style="opacity:1" fill="#49362e" d="M 1059.5,993.5 C 1059.41,992.504 1059.75,991.671 1060.5,991C 1058.39,990.093 1057.06,988.593 1056.5,986.5C 1048.06,973.346 1044.9,959.013 1047,943.5C 1047.4,942.128 1047.9,940.795 1048.5,939.5C 1049.5,938.167 1050.5,938.167 1051.5,939.5C 1049.87,942.978 1048.87,946.644 1048.5,950.5C 1049.7,963.599 1053.2,975.932 1059,987.5C 1062.56,990.391 1065.39,993.891 1067.5,998C 1067.15,999.257 1066.48,999.591 1065.5,999C 1065.83,998.667 1066.17,998.333 1066.5,998C 1064,996.653 1061.67,995.153 1059.5,993.5 Z"/></g>
<g><path style="opacity:1" fill="#523a30" d="M 1656.5,959.5 C 1653.62,957.584 1651.62,954.917 1650.5,951.5C 1650.81,950.692 1651.31,950.025 1652,949.5C 1652.77,951.933 1654.27,953.766 1656.5,955C 1657.07,956.277 1657.07,957.777 1656.5,959.5 Z"/></g>
<g><path style="opacity:1" fill="#4e382f" d="M 1656.5,959.5 C 1657.5,959.5 1658.5,959.5 1659.5,959.5C 1660.23,961.749 1661.23,963.916 1662.5,966C 1662.36,966.772 1662.02,967.439 1661.5,968C 1663,968.833 1664.17,970 1665,971.5C 1665.86,974.948 1666.36,978.448 1666.5,982C 1665.65,987.78 1664.82,993.28 1664,998.5C 1662.81,1001.53 1660.64,1003.2 1657.5,1003.5C 1659.12,1001.01 1660.62,998.344 1662,995.5C 1663.89,982.565 1662.06,970.565 1656.5,959.5 Z"/></g>
<g><path style="opacity:1" fill="#8c5342" d="M 1056.5,986.5 C 1057.06,988.593 1058.39,990.093 1060.5,991C 1059.75,991.671 1059.41,992.504 1059.5,993.5C 1057.17,991.824 1056.17,989.491 1056.5,986.5 Z"/></g>
<g><path style="opacity:1" fill="#9f5a47" d="M 1722.5,1214.5 C 1721.78,1213.45 1720.78,1212.78 1719.5,1212.5C 1717.73,1210.23 1715.73,1208.06 1713.5,1206C 1714,1205.5 1714.5,1205 1715,1204.5C 1717,1207.17 1719.33,1209.5 1722,1211.5C 1722.48,1212.45 1722.65,1213.45 1722.5,1214.5 Z"/></g>
<g><path style="opacity:1" fill="#4a362e" d="M 1122.5,1254.5 C 1120.93,1254.06 1119.76,1253.06 1119,1251.5C 1116.39,1244.96 1114.23,1238.3 1112.5,1231.5C 1113.78,1229.3 1113.78,1227.13 1112.5,1225C 1114.15,1220.98 1115.32,1216.48 1116,1211.5C 1117.3,1208.15 1119.46,1205.81 1122.5,1204.5C 1119.06,1211.41 1116.72,1218.74 1115.5,1226.5C 1116.73,1232.82 1117.9,1239.15 1119,1245.5C 1121.44,1247.97 1122.6,1250.97 1122.5,1254.5 Z"/></g>
<g><path style="opacity:1" fill="#5b3e33" d="M 1122.5,1254.5 C 1126.66,1259.5 1130.66,1264.66 1134.5,1270C 1133.06,1270.78 1131.72,1270.61 1130.5,1269.5C 1130.71,1268.91 1131.04,1268.41 1131.5,1268C 1130.21,1267.51 1128.87,1267.34 1127.5,1267.5C 1127.64,1265.88 1126.97,1264.71 1125.5,1264C 1125.83,1263.67 1126.17,1263.33 1126.5,1263C 1124.52,1262.39 1124.19,1261.39 1125.5,1260C 1122.68,1258.86 1121.68,1257.02 1122.5,1254.5 Z"/></g>
<g><path style="opacity:1" fill="#503930" d="M 1719.5,1212.5 C 1720.78,1212.78 1721.78,1213.45 1722.5,1214.5C 1723.74,1214.81 1723.74,1215.31 1722.5,1216C 1724.04,1216.29 1725.38,1216.96 1726.5,1218C 1726.17,1218.33 1725.83,1218.67 1725.5,1219C 1727.71,1220.79 1729.04,1223.13 1729.5,1226C 1729.17,1226.33 1728.83,1226.67 1728.5,1227C 1731.56,1230.72 1733.72,1234.88 1735,1239.5C 1736.41,1249.94 1736.41,1259.94 1735,1269.5C 1733.82,1270.73 1732.65,1270.73 1731.5,1269.5C 1734.23,1257.08 1733.73,1244.75 1730,1232.5C 1726.67,1225.69 1723.17,1219.02 1719.5,1212.5 Z"/></g>
<g><path style="opacity:1" fill="#614035" d="M 1794.5,1472.5 C 1790.43,1469.53 1790.77,1469.03 1795.5,1471C 1794.94,1471.38 1794.61,1471.88 1794.5,1472.5 Z"/></g>
<g><path style="opacity:1" fill="#44342c" d="M 1196.5,1502.5 C 1196.16,1503.34 1195.49,1503.67 1194.5,1503.5C 1190.14,1498.76 1188.14,1493.1 1188.5,1486.5C 1188.87,1480.82 1189.37,1475.16 1190,1469.5C 1190.78,1466.81 1192.28,1465.81 1194.5,1466.5C 1192.93,1468.88 1192.1,1471.55 1192,1474.5C 1190.23,1484.49 1191.73,1493.82 1196.5,1502.5 Z"/></g>
<g><path style="opacity:1" fill="#4d382f" d="M 1794.5,1472.5 C 1795.58,1472.54 1796.58,1472.87 1797.5,1473.5C 1799.63,1475.61 1801.63,1477.78 1803.5,1480C 1802.92,1483.3 1803.92,1486.3 1806.5,1489C 1806.17,1489.33 1805.83,1489.67 1805.5,1490C 1812.76,1500.28 1814.26,1511.44 1810,1523.5C 1808.55,1528.45 1806.05,1532.78 1802.5,1536.5C 1801.83,1536.5 1801.17,1536.5 1800.5,1536.5C 1802.37,1532.44 1804.53,1528.44 1807,1524.5C 1809.78,1516.22 1809.61,1507.89 1806.5,1499.5C 1806.83,1498.83 1807.17,1498.17 1807.5,1497.5C 1804.79,1493.54 1802.96,1489.21 1802,1484.5C 1799.28,1480.62 1796.78,1476.62 1794.5,1472.5 Z"/></g>
<g><path style="opacity:1" fill="#5d3e33" d="M 1196.5,1502.5 C 1202.31,1508.24 1207.31,1514.74 1211.5,1522C 1210.5,1522.67 1209.5,1522.67 1208.5,1522C 1208.83,1521.67 1209.17,1521.33 1209.5,1521C 1203.62,1516.57 1198.62,1510.73 1194.5,1503.5C 1195.49,1503.67 1196.16,1503.34 1196.5,1502.5 Z"/></g>
<g><path style="opacity:1" fill="#4a362e" d="M 1262.5,1728.5 C 1263.5,1728.47 1264.16,1728.97 1264.5,1730C 1262.68,1733.56 1261.68,1737.4 1261.5,1741.5C 1262.5,1760.25 1268.67,1776.92 1280,1791.5C 1280.56,1792.72 1280.23,1793.72 1279,1794.5C 1278.52,1793.55 1278.35,1792.55 1278.5,1791.5C 1276.39,1791.32 1274.73,1790.32 1273.5,1788.5C 1273.71,1787.91 1274.04,1787.41 1274.5,1787C 1270.53,1786.06 1269.2,1783.72 1270.5,1780C 1261.04,1765.83 1257.54,1750.33 1260,1733.5C 1260.85,1731.81 1261.68,1730.14 1262.5,1728.5 Z"/></g>
<g><path style="opacity:1" fill="#4d382f" d="M 1865.5,1734.5 C 1867.81,1737.63 1870.98,1740.63 1875,1743.5C 1878.01,1751.22 1881.01,1758.88 1884,1766.5C 1884.67,1770.83 1884.67,1775.17 1884,1779.5C 1882.86,1785.01 1881.19,1790.67 1879,1796.5C 1878.03,1798.26 1876.87,1798.59 1875.5,1797.5C 1882.03,1785.41 1883.2,1772.74 1879,1759.5C 1874.49,1751.15 1869.99,1742.82 1865.5,1734.5 Z"/></g>
<g><path style="opacity:1" fill="#5b3e33" d="M 1937.5,1995.5 C 1938.21,1994.6 1939.21,1994.26 1940.5,1994.5C 1940.35,1995.55 1940.52,1996.55 1941,1997.5C 1945.01,2000.17 1947.85,2003.67 1949.5,2008C 1949.17,2008.5 1948.83,2009 1948.5,2009.5C 1944.66,2004.9 1940.99,2000.23 1937.5,1995.5 Z"/></g>
<g><path style="opacity:1" fill="#4f392f" d="M 1334.5,2033.5 C 1334.67,2034.49 1334.34,2035.16 1333.5,2035.5C 1326.32,2022.74 1325.15,2009.4 1330,1995.5C 1331.17,1993 1333,1991.17 1335.5,1990C 1336.72,1989.44 1337.72,1989.77 1338.5,1991C 1333.03,1995.11 1330.03,2000.61 1329.5,2007.5C 1330.27,2014.17 1331.1,2020.84 1332,2027.5C 1334.04,2028.98 1334.87,2030.98 1334.5,2033.5 Z"/></g>
<g><path style="opacity:1" fill="#774a3b" d="M 1334.5,2033.5 C 1337.41,2038.26 1340.58,2042.93 1344,2047.5C 1344.69,2048.33 1344.52,2049 1343.5,2049.5C 1341.68,2048.27 1340.68,2046.61 1340.5,2044.5C 1336.06,2043.34 1333.73,2040.34 1333.5,2035.5C 1334.34,2035.16 1334.67,2034.49 1334.5,2033.5 Z"/></g>
<g><path style="opacity:1" fill="#4c372e" d="M 1949.5,2010.5 C 1951.29,2013.55 1952.79,2016.88 1954,2020.5C 1954.75,2027.4 1955.59,2034.23 1956.5,2041C 1954.85,2043.25 1954.51,2045.58 1955.5,2048C 1955.19,2053.79 1952.69,2058.29 1948,2061.5C 1947.5,2061.17 1947,2060.83 1946.5,2060.5C 1951.55,2054.08 1953.88,2046.74 1953.5,2038.5C 1952.33,2029.12 1950.99,2019.78 1949.5,2010.5 Z"/></g>
<g><path style="opacity:1" fill="#905443" d="M 2016.5,2261.5 C 2015.6,2260.49 2014.94,2260.49 2014.5,2261.5C 2013.04,2260.59 2012.04,2259.26 2011.5,2257.5C 2012.32,2256.61 2013.32,2256.28 2014.5,2256.5C 2014.83,2258.32 2015.5,2259.99 2016.5,2261.5 Z"/></g>
<g><path style="opacity:1" fill="#513a30" d="M 1407.5,2251.5 C 1411.7,2251.44 1412.2,2252.44 1409,2254.5C 1404.24,2264.86 1403.41,2275.53 1406.5,2286.5C 1406.17,2287.17 1405.83,2287.83 1405.5,2288.5C 1407.48,2295.37 1409.98,2302.04 1413,2308.5C 1413.67,2310.17 1413.67,2311.83 1413,2313.5C 1410.95,2311.45 1409.28,2309.11 1408,2306.5C 1406.63,2298.64 1404.63,2290.97 1402,2283.5C 1401.16,2274.71 1401.83,2266.04 1404,2257.5C 1405.39,2255.61 1406.56,2253.61 1407.5,2251.5 Z"/></g>
<g><path style="opacity:1" fill="#4e382f" d="M 2016.5,2261.5 C 2022.79,2271.28 2026.79,2282.45 2028.5,2295C 2027.59,2302.87 2026.43,2310.71 2025,2318.5C 2023.95,2321.15 2022.45,2323.49 2020.5,2325.5C 2020.17,2325 2019.83,2324.5 2019.5,2324C 2025.43,2310.11 2026.6,2295.94 2023,2281.5C 2020.95,2274.4 2018.11,2267.74 2014.5,2261.5C 2014.94,2260.49 2015.6,2260.49 2016.5,2261.5 Z"/></g>
<g><path style="opacity:1" fill="#5c3e33" d="M 2088.5,2528.5 C 2087.83,2528.83 2087.17,2529.17 2086.5,2529.5C 2083.99,2525.67 2081.32,2521.84 2078.5,2518C 2079.55,2517.51 2080.55,2517.67 2081.5,2518.5C 2082.63,2521.46 2084.63,2523.63 2087.5,2525C 2087.17,2525.33 2086.83,2525.67 2086.5,2526C 2087.76,2526.42 2088.42,2527.25 2088.5,2528.5 Z"/></g>
<g><path style="opacity:1" fill="#935644" d="M 2091.5,2532.5 C 2090.53,2531.19 2089.2,2530.53 2087.5,2530.5C 2086.83,2530.5 2086.5,2530.17 2086.5,2529.5C 2087.17,2529.17 2087.83,2528.83 2088.5,2528.5C 2089.12,2528.39 2089.62,2528.06 2090,2527.5C 2091.01,2529.02 2091.51,2530.69 2091.5,2532.5 Z"/></g>
<g><path style="opacity:1" fill="#49362d" d="M 2087.5,2530.5 C 2089.2,2530.53 2090.53,2531.19 2091.5,2532.5C 2091.17,2533.17 2090.83,2533.83 2090.5,2534.5C 2089.51,2533.2 2088.51,2531.87 2087.5,2530.5 Z"/></g>
<g><path style="opacity:1" fill="#41332b" d="M 2090.5,2534.5 C 2091.5,2534.83 2092.17,2535.5 2092.5,2536.5C 2092.33,2537.82 2092.66,2538.99 2093.5,2540C 2092.91,2540.46 2092.24,2540.63 2091.5,2540.5C 2091.17,2538.5 2090.83,2536.5 2090.5,2534.5 Z"/></g>
<g><path style="opacity:1" fill="#4d382f" d="M 1484.5,2569.5 C 1483.8,2570.12 1482.8,2570.12 1481.5,2569.5C 1480.87,2565.8 1479.87,2562.63 1478.5,2560C 1475.04,2548.14 1474.21,2535.97 1476,2523.5C 1476.41,2521 1477.58,2519 1479.5,2517.5C 1479.83,2518 1480.17,2518.5 1480.5,2519C 1477.71,2525.91 1476.87,2533.08 1478,2540.5C 1478.79,2544.86 1479.62,2549.19 1480.5,2553.5C 1480.29,2554.09 1479.96,2554.59 1479.5,2555C 1481.53,2559.73 1483.2,2564.56 1484.5,2569.5 Z"/></g>
<g><path style="opacity:1" fill="#4a362e" d="M 2092.5,2536.5 C 2097.87,2546.35 2099.7,2557.02 2098,2568.5C 2097.12,2572.5 2096.45,2576.83 2096,2581.5C 2095.36,2584.11 2094.19,2586.45 2092.5,2588.5C 2092.17,2587.83 2091.83,2587.17 2091.5,2586.5C 2096.25,2573.86 2096.92,2561.19 2093.5,2548.5C 2094.11,2545.66 2093.44,2542.99 2091.5,2540.5C 2092.24,2540.63 2092.91,2540.46 2093.5,2540C 2092.66,2538.99 2092.33,2537.82 2092.5,2536.5 Z"/></g>
<g><path style="opacity:1" fill="#75493b" d="M 1481.5,2569.5 C 1482.8,2570.12 1483.8,2570.12 1484.5,2569.5C 1493.98,2583.18 1493.15,2584.18 1482,2572.5C 1481.52,2571.55 1481.35,2570.55 1481.5,2569.5 Z"/></g>
</svg>
