<?xml version="1.0" encoding="UTF-8"?>
<!DOCTYPE svg PUBLIC "-//W3C//DTD SVG 1.1//EN" "http://www.w3.org/Graphics/SVG/1.1/DTD/svg11.dtd">
<svg xmlns="http://www.w3.org/2000/svg" version="1.1" width="3000px" height="3000px" style="shape-rendering:geometricPrecision; text-rendering:geometricPrecision; image-rendering:optimizeQuality; fill-rule:evenodd; clip-rule:evenodd" xmlns:xlink="http://www.w3.org/1999/xlink">
<g><path style="opacity:0.996" fill="#aa613a" d="M 1458.5,1696.5 C 1457.9,1696.74 1457.57,1697.24 1457.5,1698C 1462.15,1724.03 1461.32,1749.87 1455,1775.5C 1450.94,1793.46 1440.44,1805.96 1423.5,1813C 1408.69,1818.77 1393.36,1821.1 1377.5,1820C 1363.84,1818 1354.67,1810.5 1350,1797.5C 1348.36,1791.61 1347.36,1785.61 1347,1779.5C 1346.38,1750.83 1346.55,1722.16 1347.5,1693.5C 1351.98,1372.55 1356.82,1051.89 1362,731.5C 1363.56,610.381 1378.89,491.047 1408,373.5C 1419.53,325.711 1431.53,278.044 1444,230.5C 1450.97,201.244 1462.3,173.911 1478,148.5C 1508.76,108.592 1548.26,96.4257 1596.5,112C 1630.6,128.117 1650.1,154.951 1655,192.5C 1655.67,198.833 1655.67,205.167 1655,211.5C 1644.39,279.81 1632.06,347.81 1618,415.5C 1588.36,549.359 1559.36,683.359 1531,817.5C 1504.05,958.789 1484.71,1101.12 1473,1244.5C 1463.11,1359.67 1455.94,1475 1451.5,1590.5C 1451.68,1626.03 1454.01,1661.37 1458.5,1696.5 Z"/></g>
<g><path style="opacity:0.999" fill="#e5a063" d="M 1347.5,1693.5 C 1346.55,1722.16 1346.38,1750.83 1347,1779.5C 1347.36,1785.61 1348.36,1791.61 1350,1797.5C 1354.67,1810.5 1363.84,1818 1377.5,1820C 1393.36,1821.1 1408.69,1818.77 1423.5,1813C 1440.44,1805.96 1450.94,1793.46 1455,1775.5C 1461.32,1749.87 1462.15,1724.03 1457.5,1698C 1457.57,1697.24 1457.9,1696.74 1458.5,1696.5C 1496.26,1700.91 1530.26,1714.41 1560.5,1737C 1600.74,1772.12 1613.24,1815.29 1598,1866.5C 1591.47,1878.84 1583.64,1890.17 1574.5,1900.5C 1573.05,1899.39 1571.39,1899.22 1569.5,1900C 1506.88,1918.85 1442.88,1926.51 1377.5,1923C 1337.25,1921.46 1297.59,1915.96 1258.5,1906.5C 1257.01,1904.19 1255.51,1901.86 1254,1899.5C 1242.97,1887.81 1231.97,1876.14 1221,1864.5C 1207.19,1842.46 1203.52,1818.8 1210,1793.5C 1216.99,1768.34 1230.82,1747.84 1251.5,1732C 1273.58,1715.51 1297.91,1703.18 1324.5,1695C 1332.14,1694.02 1339.8,1693.52 1347.5,1693.5 Z"/></g>
<g><path style="opacity:0.998" fill="#020100" d="M 1574.5,1900.5 C 1566.75,1911.5 1564.75,1923.5 1568.5,1936.5C 1467.52,1956.46 1366.52,1956.46 1265.5,1936.5C 1264.29,1936.25 1263.62,1935.59 1263.5,1934.5C 1265.65,1924.44 1263.98,1915.1 1258.5,1906.5C 1297.59,1915.96 1337.25,1921.46 1377.5,1923C 1442.88,1926.51 1506.88,1918.85 1569.5,1900C 1571.39,1899.22 1573.05,1899.39 1574.5,1900.5 Z"/></g>
<g><path style="opacity:0.999" fill="#e5a063" d="M 1263.5,1934.5 C 1263.62,1935.59 1264.29,1936.25 1265.5,1936.5C 1366.52,1956.46 1467.52,1956.46 1568.5,1936.5C 1572.88,1943.38 1578.21,1949.55 1584.5,1955C 1598.89,1962.86 1613.55,1970.19 1628.5,1977C 1649.24,1990.94 1662.74,2010.11 1669,2034.5C 1671.38,2043.41 1673.38,2052.41 1675,2061.5C 1682.19,2150.93 1703.19,2236.93 1738,2319.5C 1772.56,2398.3 1812.56,2473.97 1858,2546.5C 1886,2591.17 1914,2635.83 1942,2680.5C 1945.47,2685.77 1948.14,2691.44 1950,2697.5C 1952.16,2707.68 1948.16,2714.02 1938,2716.5C 1910.21,2706.26 1886.21,2690.26 1866,2668.5C 1847.97,2648.09 1831.63,2626.42 1817,2603.5C 1810.35,2588.86 1802.68,2574.86 1794,2561.5C 1789.29,2555.12 1783.62,2549.79 1777,2545.5C 1775.11,2546.13 1773.44,2547.13 1772,2548.5C 1771.33,2551.5 1771.33,2554.5 1772,2557.5C 1775.33,2565.5 1778.67,2573.5 1782,2581.5C 1791.83,2599.83 1802.16,2617.83 1813,2635.5C 1825.06,2659.96 1837.4,2684.29 1850,2708.5C 1854.19,2725.24 1850.85,2740.24 1840,2753.5C 1824.69,2770.41 1805.85,2781.58 1783.5,2787C 1705.44,2809.13 1627.44,2831.46 1549.5,2854C 1527.99,2860.79 1505.99,2863.45 1483.5,2862C 1458.41,2858.87 1438.25,2847.37 1423,2827.5C 1416.84,2819.18 1411.17,2810.51 1406,2801.5C 1395.51,2779.52 1385.84,2757.18 1377,2734.5C 1367.5,2710.98 1353.67,2690.48 1335.5,2673C 1331.68,2669.92 1327.68,2667.09 1323.5,2664.5C 1322.69,2666.95 1323.19,2669.28 1325,2671.5C 1344.34,2702.51 1361.34,2734.84 1376,2768.5C 1384.57,2789.86 1390.9,2811.86 1395,2834.5C 1396.51,2844.6 1395.17,2854.27 1391,2863.5C 1383.38,2871.73 1374.21,2877.56 1363.5,2881C 1330.27,2891.77 1296.27,2895.43 1261.5,2892C 1244.59,2889.63 1231.75,2881.13 1223,2866.5C 1218.56,2858.5 1214.89,2850.17 1212,2841.5C 1204.33,2810.17 1196.67,2778.83 1189,2747.5C 1187.2,2741.76 1185.2,2736.09 1183,2730.5C 1179.14,2727.59 1176.81,2728.59 1176,2733.5C 1170.07,2779.8 1161.07,2825.47 1149,2870.5C 1139.62,2880.7 1129.95,2881.03 1120,2871.5C 1089.71,2831.23 1069.37,2786.23 1059,2736.5C 1050.9,2698.6 1046.74,2660.27 1046.5,2621.5C 1047.13,2591.76 1048.96,2562.09 1052,2532.5C 1059.29,2474.12 1066.96,2415.79 1075,2357.5C 1079.67,2307.5 1084.33,2257.5 1089,2207.5C 1093.81,2159.92 1107.14,2114.92 1129,2072.5C 1142.74,2047.74 1160.58,2026.24 1182.5,2008C 1205.93,1990.4 1228.93,1972.24 1251.5,1953.5C 1256.79,1947.91 1260.79,1941.58 1263.5,1934.5 Z"/></g>
</svg>
