<?xml version="1.0" encoding="UTF-8"?>
<!DOCTYPE svg PUBLIC "-//W3C//DTD SVG 1.1//EN" "http://www.w3.org/Graphics/SVG/1.1/DTD/svg11.dtd">
<svg xmlns="http://www.w3.org/2000/svg" version="1.1" width="3000px" height="3000px" style="shape-rendering:geometricPrecision; text-rendering:geometricPrecision; image-rendering:optimizeQuality; fill-rule:evenodd; clip-rule:evenodd" xmlns:xlink="http://www.w3.org/1999/xlink">
<g><path style="opacity:0.999" fill="#687785" d="M 1233.5,2002.5 C 1201.28,1956.42 1169.78,1909.75 1139,1862.5C 1137.85,1861.36 1136.69,1860.36 1135.5,1859.5C 1653.17,1342.5 2170.5,825.167 2687.5,307.5C 2689.86,303.955 2692.86,301.455 2696.5,300C 2619.36,535.977 2541.52,774.477 2463,1015.5C 2052.69,1343.98 1642.86,1672.98 1233.5,2002.5 Z"/></g>
<g><path style="opacity:0.999" fill="#8b9faf" d="M 2687.5,307.5 C 2170.5,825.167 1653.17,1342.5 1135.5,1859.5C 1089.12,1828.98 1043.12,1797.98 997.5,1766.5C 1326.62,1356.21 1655.95,946.041 1985.5,536C 2219.49,459.726 2453.49,383.56 2687.5,307.5 Z"/></g>
<g><path style="opacity:0.997" fill="#f79923" d="M 997.5,1766.5 C 1043.12,1797.98 1089.12,1828.98 1135.5,1859.5C 1136.69,1860.36 1137.85,1861.36 1139,1862.5C 1169.78,1909.75 1201.28,1956.42 1233.5,2002.5C 1307.95,2113.9 1382.29,2225.4 1456.5,2337C 1429.06,2411.27 1382.73,2470.6 1317.5,2515C 1253.35,2552.6 1184.69,2564.26 1111.5,2550C 1033.57,2531.37 996.738,2481.87 1001,2401.5C 1004.47,2358.71 1019.47,2320.71 1046,2287.5C 1077.64,2252.56 1111.47,2250.39 1147.5,2281C 1163.65,2295.47 1177.15,2311.97 1188,2330.5C 1193.11,2302.74 1191.11,2275.4 1182,2248.5C 1170.42,2215.67 1154.42,2185.33 1134,2157.5C 1117.8,2134.97 1099.8,2113.97 1080,2094.5C 984.386,2145.42 900.386,2211.42 828,2292.5C 792.776,2333.25 763.276,2377.92 739.5,2426.5C 719.153,2336.15 663.819,2280.82 573.5,2260.5C 642.689,2225.52 704.189,2179.85 758,2123.5C 816.076,2061.76 865.243,1993.59 905.5,1919C 868.974,1883.14 827.974,1853.47 782.5,1830C 750.764,1813.65 717.098,1806.65 681.5,1809C 677.152,1809.57 672.819,1810.24 668.5,1811C 694.579,1826.08 715.746,1846.25 732,1871.5C 745.138,1896.99 742.472,1920.66 724,1942.5C 698.721,1967.73 668.554,1984.56 633.5,1993C 594.127,2003.71 555.794,2001.05 518.5,1985C 483.473,1965.85 461.306,1936.69 452,1897.5C 427.02,1769.35 467.186,1667.18 572.5,1591C 600.393,1571.13 630.56,1555.3 663,1543.5C 774.643,1617.65 886.143,1691.98 997.5,1766.5 Z"/></g>
<g><path style="opacity:0.998" fill="#f36c28" d="M 573.5,2260.5 C 663.819,2280.82 719.153,2336.15 739.5,2426.5C 749.175,2505.35 723.508,2569.85 662.5,2620C 607.108,2659.57 546.442,2670.23 480.5,2652C 407.132,2626.97 361.299,2576.8 343,2501.5C 328.94,2419.99 353.44,2352.83 416.5,2300C 463.309,2265.33 515.642,2252.17 573.5,2260.5 Z"/></g>
</svg>
