<?xml version="1.0" encoding="UTF-8"?>
<!DOCTYPE svg PUBLIC "-//W3C//DTD SVG 1.1//EN" "http://www.w3.org/Graphics/SVG/1.1/DTD/svg11.dtd">
<svg xmlns="http://www.w3.org/2000/svg" version="1.1" width="3000px" height="3000px" style="shape-rendering:geometricPrecision; text-rendering:geometricPrecision; image-rendering:optimizeQuality; fill-rule:evenodd; clip-rule:evenodd" xmlns:xlink="http://www.w3.org/1999/xlink">
<g><path style="opacity:0.999" fill="#feed5f" d="M 1481.5,278.5 C 1507.46,277.32 1530.79,284.486 1551.5,300C 1576.22,320.937 1596.05,345.77 1611,374.5C 1633,425.833 1655,477.167 1677,528.5C 1713.22,608.264 1748.88,688.264 1784,768.5C 1824.37,867.28 1863.37,966.613 1901,1066.5C 1906.17,1077.63 1915,1083.13 1927.5,1083C 1987.82,1091.76 2048.16,1100.43 2108.5,1109C 2130.14,1110.97 2151.81,1112.64 2173.5,1114C 2226.84,1116.23 2280.17,1118.56 2333.5,1121C 2404.52,1126.75 2475.52,1132.75 2546.5,1139C 2558.04,1139.62 2569.54,1139.12 2581,1137.5C 2585.84,1137.93 2590.67,1138.43 2595.5,1139C 2635.65,1148.76 2675.98,1157.76 2716.5,1166C 2739.93,1171.27 2762.93,1177.94 2785.5,1186C 2819.69,1201.69 2838.36,1228.36 2841.5,1266C 2841.39,1280.99 2836.89,1294.49 2828,1306.5C 2816.2,1320.63 2803.37,1333.8 2789.5,1346C 2754.43,1375.03 2717.43,1401.37 2678.5,1425C 2632.98,1452.93 2586.65,1479.6 2539.5,1505C 2419.28,1566.43 2301.28,1631.43 2185.5,1700C 2181.44,1704.63 2180.61,1709.79 2183,1715.5C 2202.3,1766.04 2216.3,1818.04 2225,1871.5C 2227.85,1888.14 2230.52,1904.8 2233,1921.5C 2256.07,2092.48 2276.07,2263.81 2293,2435.5C 2296.07,2475.66 2296.23,2515.82 2293.5,2556C 2295.01,2585.62 2297.85,2615.12 2302,2644.5C 2304.62,2667.39 2299.62,2688.39 2287,2707.5C 2269.47,2727.34 2247.64,2734.84 2221.5,2730C 2193.18,2724.34 2166.51,2714.34 2141.5,2700C 2111.56,2682.07 2083.9,2661.07 2058.5,2637C 2032.83,2611.33 2007.17,2585.67 1981.5,2560C 1861.77,2454.27 1745.77,2344.27 1633.5,2230C 1630.36,2228.27 1627.03,2227.11 1623.5,2226.5C 1603.8,2234.46 1584.47,2243.29 1565.5,2253C 1521.1,2280.4 1476.43,2307.4 1431.5,2334C 1386.66,2356.92 1342.33,2380.58 1298.5,2405C 1231.32,2446.09 1164.99,2488.42 1099.5,2532C 1018.15,2584.36 934.812,2633.69 849.5,2680C 818.048,2697.39 785.381,2712.06 751.5,2724C 703.563,2735.35 674.063,2717.18 663,2669.5C 661.74,2649.2 661.073,2628.87 661,2608.5C 660.52,2598.63 659.687,2588.8 658.5,2579C 659.221,2567.07 660.721,2555.23 663,2543.5C 670.72,2512.01 679.053,2480.67 688,2449.5C 706.202,2391.23 724.202,2332.89 742,2274.5C 752.653,2228.57 764.319,2182.9 777,2137.5C 796.202,2078.23 815.202,2018.89 834,1959.5C 842.667,1925.5 851.333,1891.5 860,1857.5C 860.995,1851.31 859.162,1846.14 854.5,1842C 836.25,1831.04 819.25,1818.37 803.5,1804C 721.829,1718.76 634.163,1640.76 540.5,1570C 460.319,1503.16 381.319,1434.83 303.5,1365C 274.874,1337.71 247.707,1309.21 222,1279.5C 212.156,1266.49 203.823,1252.49 197,1237.5C 188.251,1228.76 180.251,1219.42 173,1209.5C 156.838,1181.94 155.838,1153.94 170,1125.5C 177.301,1115.54 186.467,1107.7 197.5,1102C 227.704,1087.02 259.704,1079.69 293.5,1080C 329.996,1068.7 367.329,1062.03 405.5,1060C 603.278,1053.26 800.944,1055.6 998.5,1067C 1026.55,1069.25 1054.38,1073.08 1082,1078.5C 1085.27,1078.3 1087.93,1076.97 1090,1074.5C 1096.02,1056.77 1103.02,1039.43 1111,1022.5C 1165.9,918.7 1212.57,811.367 1251,700.5C 1290.3,598.276 1333.3,497.61 1380,398.5C 1392.75,374.008 1405.75,349.675 1419,325.5C 1430.07,306.427 1445.57,292.26 1465.5,283C 1470.87,281.16 1476.21,279.66 1481.5,278.5 Z"/></g>
</svg>
