<?xml version="1.0" encoding="UTF-8"?>
<!DOCTYPE svg PUBLIC "-//W3C//DTD SVG 1.1//EN" "http://www.w3.org/Graphics/SVG/1.1/DTD/svg11.dtd">
<svg xmlns="http://www.w3.org/2000/svg" version="1.1" width="3000px" height="3000px" style="shape-rendering:geometricPrecision; text-rendering:geometricPrecision; image-rendering:optimizeQuality; fill-rule:evenodd; clip-rule:evenodd" xmlns:xlink="http://www.w3.org/1999/xlink">
<g><path style="opacity:0.998" fill="#502f26" d="M 1412.5,254.5 C 1398.25,266.31 1382.58,276.143 1365.5,284C 1316.9,303.986 1266.24,313.986 1213.5,314C 1266.28,344.688 1322.95,355.354 1383.5,346C 1399.16,343.337 1414.49,339.504 1429.5,334.5C 1428.31,337.052 1426.97,339.552 1425.5,342C 1448.69,342.231 1454.19,352.064 1442,371.5C 1436.67,378.656 1430.84,385.323 1424.5,391.5C 1418.65,393.928 1412.98,396.594 1407.5,399.5C 1320.73,421.242 1235.57,416.242 1152,384.5C 1151.52,385.448 1151.35,386.448 1151.5,387.5C 1135,416.986 1110.34,435.986 1077.5,444.5C 1076.01,417.439 1081.18,391.772 1093,367.5C 1097.43,361.07 1103.1,356.07 1110,352.5C 1116.34,330.652 1128.5,312.819 1146.5,299C 1169.67,281.917 1195.34,269.917 1223.5,263C 1247.46,256.729 1271.79,252.729 1296.5,251C 1309.28,242.779 1322.94,236.446 1337.5,232C 1348.93,228.83 1355.27,232.996 1356.5,244.5C 1355.86,251.101 1354.19,257.434 1351.5,263.5C 1352,263.833 1352.5,264.167 1353,264.5C 1372.17,256.573 1392.01,253.24 1412.5,254.5 Z"/></g>
<g><path style="opacity:1" fill="#664333" d="M 1412.5,254.5 C 1426.9,255.408 1436.07,262.741 1440,276.5C 1441.88,284.824 1441.88,293.157 1440,301.5C 1437.57,312.883 1434.07,323.883 1429.5,334.5C 1414.49,339.504 1399.16,343.337 1383.5,346C 1322.95,355.354 1266.28,344.688 1213.5,314C 1266.24,313.986 1316.9,303.986 1365.5,284C 1382.58,276.143 1398.25,266.31 1412.5,254.5 Z"/></g>
<g><path style="opacity:1" fill="#ed8c71" d="M 1407.5,399.5 C 1407,407.992 1406.33,416.326 1405.5,424.5C 1346.5,433.977 1287.5,433.81 1228.5,424C 1209.53,420.288 1190.87,415.454 1172.5,409.5C 1166.18,440.785 1157.68,471.452 1147,501.5C 1146.58,502.756 1145.75,503.423 1144.5,503.5C 1151.2,465.101 1153.53,426.434 1151.5,387.5C 1151.35,386.448 1151.52,385.448 1152,384.5C 1235.57,416.242 1320.73,421.242 1407.5,399.5 Z"/></g>
<g><path style="opacity:0.996" fill="#3b221d" d="M 1151.5,387.5 C 1153.53,426.434 1151.2,465.101 1144.5,503.5C 1141.97,519.471 1137.3,534.804 1130.5,549.5C 1123.8,544.812 1117.47,539.645 1111.5,534C 1104.63,532.047 1097.63,530.88 1090.5,530.5C 1083.14,502.316 1078.8,473.649 1077.5,444.5C 1110.34,435.986 1135,416.986 1151.5,387.5 Z"/></g>
<g><path style="opacity:0.995" fill="#502f26" d="M 1960.5,444.5 C 1933.11,455.264 1904.78,462.097 1875.5,465C 1863.5,465.5 1851.5,465.667 1839.5,465.5C 1837.01,457.224 1834.68,448.891 1832.5,440.5C 1827.84,447.825 1823.17,455.159 1818.5,462.5C 1782.11,457.481 1748.44,445.148 1717.5,425.5C 1729.03,411.471 1743.03,400.637 1759.5,393C 1787.21,383.343 1812.38,387.843 1835,406.5C 1854.91,395.898 1876.07,391.731 1898.5,394C 1917.35,397.007 1932.85,405.84 1945,420.5C 1950.92,428.018 1956.09,436.018 1960.5,444.5 Z"/></g>
<g><path style="opacity:0.98" fill="#3c231d" d="M 1424.5,391.5 C 1430.97,428.45 1424.97,463.116 1406.5,495.5C 1405.78,471.84 1405.45,448.174 1405.5,424.5C 1406.33,416.326 1407,407.992 1407.5,399.5C 1412.98,396.594 1418.65,393.928 1424.5,391.5 Z"/></g>
<g><path style="opacity:1" fill="#f9a183" d="M 1405.5,424.5 C 1405.45,448.174 1405.78,471.84 1406.5,495.5C 1407.7,531.599 1406.2,567.599 1402,603.5C 1399.11,626.732 1393.28,649.065 1384.5,670.5C 1384.65,669.448 1384.48,668.448 1384,667.5C 1351.14,716.467 1305.64,734.967 1247.5,723C 1215.5,714.253 1189,697.087 1168,671.5C 1152.67,652.521 1140.67,631.521 1132,608.5C 1117.21,617.608 1102.38,617.774 1087.5,609C 1081.9,603.903 1076.9,598.403 1072.5,592.5C 1066.29,577.34 1064.79,561.674 1068,545.5C 1072.41,535.933 1079.91,530.933 1090.5,530.5C 1097.63,530.88 1104.63,532.047 1111.5,534C 1117.47,539.645 1123.8,544.812 1130.5,549.5C 1137.3,534.804 1141.97,519.471 1144.5,503.5C 1145.75,503.423 1146.58,502.756 1147,501.5C 1157.68,471.452 1166.18,440.785 1172.5,409.5C 1190.87,415.454 1209.53,420.288 1228.5,424C 1287.5,433.81 1346.5,433.977 1405.5,424.5 Z"/></g>
<g><path style="opacity:1" fill="#664333" d="M 1717.5,425.5 C 1748.44,445.148 1782.11,457.481 1818.5,462.5C 1809.24,476.752 1799.24,490.418 1788.5,503.5C 1752.38,498.479 1716.38,492.146 1680.5,484.5C 1690.07,462.964 1702.41,443.298 1717.5,425.5 Z"/></g>
<g><path style="opacity:1" fill="#ee8c71" d="M 1839.5,465.5 C 1844.77,480.696 1851.1,495.363 1858.5,509.5C 1873.82,541.151 1894.48,568.817 1920.5,592.5C 1913.13,588.644 1906.13,584.144 1899.5,579C 1870.8,553.114 1848.3,522.614 1832,487.5C 1805.7,519.975 1775.54,547.975 1741.5,571.5C 1735.4,571.544 1729.4,572.044 1723.5,573C 1747.46,551.877 1769.13,528.71 1788.5,503.5C 1799.24,490.418 1809.24,476.752 1818.5,462.5C 1823.17,455.159 1827.84,447.825 1832.5,440.5C 1834.68,448.891 1837.01,457.224 1839.5,465.5 Z"/></g>
<g><path style="opacity:1" fill="#664333" d="M 1960.5,444.5 C 1972.58,465.005 1982.25,486.672 1989.5,509.5C 1945.83,512.129 1902.16,512.129 1858.5,509.5C 1851.1,495.363 1844.77,480.696 1839.5,465.5C 1851.5,465.667 1863.5,465.5 1875.5,465C 1904.78,462.097 1933.11,455.264 1960.5,444.5 Z"/></g>
<g><path style="opacity:1" fill="#533127" d="M 1232.5,469.5 C 1235.83,469.5 1239.17,469.5 1242.5,469.5C 1242.75,472.002 1243.08,474.502 1243.5,477C 1243.32,478.658 1242.66,479.991 1241.5,481C 1220.4,481.398 1199.9,484.898 1180,491.5C 1178.97,489.412 1178.14,487.245 1177.5,485C 1179.8,482.844 1182.47,481.178 1185.5,480C 1200.86,474.474 1216.53,470.974 1232.5,469.5 Z"/></g>
<g><path style="opacity:1" fill="#543228" d="M 1320.5,473.5 C 1342.06,472.642 1363.39,474.309 1384.5,478.5C 1384.5,481.167 1384.5,483.833 1384.5,486.5C 1363.15,485.311 1341.82,485.311 1320.5,486.5C 1320.5,482.167 1320.5,477.833 1320.5,473.5 Z"/></g>
<g><path style="opacity:1" fill="#f9a183" d="M 1920.5,592.5 C 1921.79,593.058 1922.62,594.058 1923,595.5C 1926.14,612.741 1931.14,629.408 1938,645.5C 1943.23,655.268 1949.23,655.935 1956,647.5C 1961.2,638.076 1964.7,628.076 1966.5,617.5C 1976.23,614.709 1985.89,614.876 1995.5,618C 2001.86,621.257 2006.53,626.091 2009.5,632.5C 2012.29,646.846 2011.29,660.846 2006.5,674.5C 2005.46,675.93 2004.8,677.597 2004.5,679.5C 1995.2,689.281 1984.53,697.447 1972.5,704C 1960.66,709.674 1948.82,709.841 1937,704.5C 1935.16,707.528 1933.32,710.528 1931.5,713.5C 1934.52,687.629 1925.68,667.296 1905,652.5C 1897.22,647.408 1888.72,644.408 1879.5,643.5C 1878.32,628.819 1870.32,621.652 1855.5,622C 1852.24,620.789 1849.41,618.956 1847,616.5C 1845.84,621.844 1847.67,625.844 1852.5,628.5C 1844.98,638.42 1843.64,649.087 1848.5,660.5C 1825.05,678.654 1820.05,700.988 1833.5,727.5C 1832.76,728.182 1832.09,728.849 1831.5,729.5C 1817.83,729.667 1804.16,729.5 1790.5,729C 1782.39,728.437 1774.39,727.27 1766.5,725.5C 1769.57,721.088 1772.24,716.421 1774.5,711.5C 1781.68,711.456 1788.68,710.289 1795.5,708C 1782.94,708.79 1772.1,704.957 1763,696.5C 1759.51,691.795 1759.68,687.295 1763.5,683C 1780.96,674.195 1791.79,660.362 1796,641.5C 1790.67,651.832 1783.5,660.665 1774.5,668C 1770.6,670.119 1766.6,671.952 1762.5,673.5C 1757.45,666.452 1751.45,660.452 1744.5,655.5C 1753.28,647.3 1756.12,637.3 1753,625.5C 1751.56,622.397 1749.73,619.564 1747.5,617C 1740.9,614.789 1734.24,612.789 1727.5,611C 1725.38,609.878 1723.54,608.378 1722,606.5C 1721.33,608.5 1721.33,610.5 1722,612.5C 1723.64,614.977 1725.48,617.31 1727.5,619.5C 1721.92,626.132 1719.59,633.799 1720.5,642.5C 1702.6,645.44 1689.27,654.773 1680.5,670.5C 1679.91,646.772 1680.74,623.105 1683,599.5C 1687.1,597.868 1690.93,595.868 1694.5,593.5C 1700.73,591.403 1707.07,588.57 1713.5,585C 1728.48,579.307 1743.48,579.14 1758.5,584.5C 1759.69,581.027 1758.69,578.194 1755.5,576C 1751.16,573.58 1746.5,572.08 1741.5,571.5C 1775.54,547.975 1805.7,519.975 1832,487.5C 1848.3,522.614 1870.8,553.114 1899.5,579C 1906.13,584.144 1913.13,588.644 1920.5,592.5 Z"/></g>
<g><path style="opacity:1" fill="#523027" d="M 1214.5,523.5 C 1228.15,523.984 1234.81,531.15 1234.5,545C 1234.61,553.343 1231.61,560.343 1225.5,566C 1212.58,570.784 1204.75,566.284 1202,552.5C 1199.9,539.927 1204.07,530.26 1214.5,523.5 Z"/></g>
<g><path style="opacity:1" fill="#513026" d="M 1340.5,527.5 C 1353.67,527.834 1360.33,534.667 1360.5,548C 1360.88,560.79 1355.04,568.956 1343,572.5C 1337.82,571.578 1333.82,568.911 1331,564.5C 1323.77,549.236 1326.93,536.903 1340.5,527.5 Z"/></g>
<g><path style="opacity:0.997" fill="#4e2e25" d="M 1680.5,484.5 C 1716.38,492.146 1752.38,498.479 1788.5,503.5C 1769.13,528.71 1747.46,551.877 1723.5,573C 1729.4,572.044 1735.4,571.544 1741.5,571.5C 1746.5,572.08 1751.16,573.58 1755.5,576C 1758.69,578.194 1759.69,581.027 1758.5,584.5C 1743.48,579.14 1728.48,579.307 1713.5,585C 1707.07,588.57 1700.73,591.403 1694.5,593.5C 1693.54,593.047 1692.71,592.381 1692,591.5C 1688.33,591.833 1684.67,592.167 1681,592.5C 1680,591.5 1679,590.5 1678,589.5C 1675.67,589.833 1673.33,590.167 1671,590.5C 1669.67,587.833 1668.33,587.833 1667,590.5C 1665.67,587.833 1664.33,587.833 1663,590.5C 1661.67,587.833 1660.33,587.833 1659,590.5C 1657.67,587.833 1656.33,587.833 1655,590.5C 1653.67,587.833 1652.33,587.833 1651,590.5C 1650,589.5 1649,588.5 1648,587.5C 1647.23,588.598 1646.4,588.598 1645.5,587.5C 1653.41,551.767 1665.08,517.433 1680.5,484.5 Z"/></g>
<g><path style="opacity:0.997" fill="#4d2d25" d="M 1858.5,509.5 C 1902.16,512.129 1945.83,512.129 1989.5,509.5C 2003.63,549.436 2010.3,590.436 2009.5,632.5C 2006.53,626.091 2001.86,621.257 1995.5,618C 1985.89,614.876 1976.23,614.709 1966.5,617.5C 1964.7,628.076 1961.2,638.076 1956,647.5C 1949.23,655.935 1943.23,655.268 1938,645.5C 1931.14,629.408 1926.14,612.741 1923,595.5C 1922.62,594.058 1921.79,593.058 1920.5,592.5C 1894.48,568.817 1873.82,541.151 1858.5,509.5 Z"/></g>
<g><path style="opacity:1" fill="#dc7d66" d="M 1285.5,554.5 C 1291.12,565.881 1298.78,575.714 1308.5,584C 1328.57,591.985 1331.91,604.318 1318.5,621C 1307.66,626.486 1296.66,626.819 1285.5,622C 1294.12,621.763 1302.45,620.096 1310.5,617C 1315.51,614.154 1318.85,609.988 1320.5,604.5C 1319.95,602.39 1319.11,600.39 1318,598.5C 1300.1,589.016 1289.26,574.35 1285.5,554.5 Z"/></g>
<g><path style="opacity:1" fill="#543228" d="M 1839.5,586.5 C 1860.04,584.068 1877.54,590.068 1892,604.5C 1893.17,606.833 1894.33,609.167 1895.5,611.5C 1895.17,611.833 1894.83,612.167 1894.5,612.5C 1875.38,598.389 1854.05,593.389 1830.5,597.5C 1830.34,596.127 1830.51,594.793 1831,593.5C 1834,591.267 1836.83,588.934 1839.5,586.5 Z"/></g>
<g><path style="opacity:0.998" fill="#ef8d72" d="M 1072.5,592.5 C 1076.9,598.403 1081.9,603.903 1087.5,609C 1102.38,617.774 1117.21,617.608 1132,608.5C 1140.67,631.521 1152.67,652.521 1168,671.5C 1189,697.087 1215.5,714.253 1247.5,723C 1305.64,734.967 1351.14,716.467 1384,667.5C 1384.48,668.448 1384.65,669.448 1384.5,670.5C 1374.24,695.914 1357.91,716.414 1335.5,732C 1326.9,736.64 1317.9,740.14 1308.5,742.5C 1304.44,742.485 1300.44,742.985 1296.5,744C 1259.33,757.779 1220.99,762.612 1181.5,758.5C 1182.17,744.502 1182.33,730.502 1182,716.5C 1152.36,692.576 1132.19,662.243 1121.5,625.5C 1096.26,627.572 1079.92,616.572 1072.5,592.5 Z"/></g>
<g><path style="opacity:0.992" fill="#482a22" d="M 1645.5,587.5 C 1646.4,588.598 1647.23,588.598 1648,587.5C 1649,588.5 1650,589.5 1651,590.5C 1652.33,587.833 1653.67,587.833 1655,590.5C 1656.33,587.833 1657.67,587.833 1659,590.5C 1660.33,587.833 1661.67,587.833 1663,590.5C 1664.33,587.833 1665.67,587.833 1667,590.5C 1668.33,587.833 1669.67,587.833 1671,590.5C 1673.33,590.167 1675.67,589.833 1678,589.5C 1679,590.5 1680,591.5 1681,592.5C 1684.67,592.167 1688.33,591.833 1692,591.5C 1692.71,592.381 1693.54,593.047 1694.5,593.5C 1690.93,595.868 1687.1,597.868 1683,599.5C 1680.74,623.105 1679.91,646.772 1680.5,670.5C 1679.93,688.083 1681.6,705.416 1685.5,722.5C 1681.12,717.733 1678.28,712.066 1677,705.5C 1675.98,699.207 1675.31,692.874 1675,686.5C 1671,683.946 1670.5,680.78 1673.5,677C 1673,676.5 1672.5,676 1672,675.5C 1670.22,676.479 1668.55,676.146 1667,674.5C 1665.17,676.807 1663.51,676.474 1662,673.5C 1658.33,673.833 1654.67,674.167 1651,674.5C 1649.67,671.833 1648.33,671.833 1647,674.5C 1645.67,671.833 1644.33,671.833 1643,674.5C 1641.67,671.833 1640.33,671.833 1639,674.5C 1637.67,671.833 1636.33,671.833 1635,674.5C 1634,673.5 1633,672.5 1632,671.5C 1631.23,672.598 1630.4,672.598 1629.5,671.5C 1633.54,643.243 1638.88,615.243 1645.5,587.5 Z"/></g>
<g><path style="opacity:1" fill="#523027" d="M 1744.5,655.5 C 1738.78,658.264 1733.12,658.097 1727.5,655C 1724.22,651.261 1721.89,647.095 1720.5,642.5C 1719.59,633.799 1721.92,626.132 1727.5,619.5C 1725.48,617.31 1723.64,614.977 1722,612.5C 1721.33,610.5 1721.33,608.5 1722,606.5C 1723.54,608.378 1725.38,609.878 1727.5,611C 1734.24,612.789 1740.9,614.789 1747.5,617C 1749.73,619.564 1751.56,622.397 1753,625.5C 1756.12,637.3 1753.28,647.3 1744.5,655.5 Z"/></g>
<g><path style="opacity:1" fill="#523027" d="M 1879.5,643.5 C 1879.3,646.518 1878.96,649.518 1878.5,652.5C 1876.73,657.951 1873.39,662.284 1868.5,665.5C 1865.75,667.126 1862.75,667.793 1859.5,667.5C 1857.69,667.509 1856.02,667.009 1854.5,666C 1852.63,663.96 1850.63,662.127 1848.5,660.5C 1843.64,649.087 1844.98,638.42 1852.5,628.5C 1847.67,625.844 1845.84,621.844 1847,616.5C 1849.41,618.956 1852.24,620.789 1855.5,622C 1870.32,621.652 1878.32,628.819 1879.5,643.5 Z"/></g>
<g><path style="opacity:1" fill="#cf4140" d="M 1237.5,641.5 C 1238.53,644.372 1240.19,646.872 1242.5,649C 1255.18,658.511 1269.52,662.677 1285.5,661.5C 1299.36,662.858 1312.02,659.691 1323.5,652C 1327.03,649.069 1329.7,645.569 1331.5,641.5C 1332.97,640.708 1334.3,640.708 1335.5,641.5C 1326.48,674.368 1305.15,688.534 1271.5,684C 1250,677.028 1238,662.528 1235.5,640.5C 1236.18,640.863 1236.85,641.196 1237.5,641.5 Z"/></g>
<g><path style="opacity:1" fill="#fefcfc" d="M 1237.5,641.5 C 1261.69,645.114 1286.02,646.28 1310.5,645C 1317.55,644.014 1324.55,642.847 1331.5,641.5C 1329.7,645.569 1327.03,649.069 1323.5,652C 1312.02,659.691 1299.36,662.858 1285.5,661.5C 1269.52,662.677 1255.18,658.511 1242.5,649C 1240.19,646.872 1238.53,644.372 1237.5,641.5 Z"/></g>
<g><path style="opacity:1" fill="#d47660" d="M 1774.5,711.5 C 1767.41,710.458 1761.74,707.125 1757.5,701.5C 1753.52,695.709 1752.52,689.376 1754.5,682.5C 1756.47,678.895 1759.14,675.895 1762.5,673.5C 1766.6,671.952 1770.6,670.119 1774.5,668C 1783.5,660.665 1790.67,651.832 1796,641.5C 1791.79,660.362 1780.96,674.195 1763.5,683C 1759.68,687.295 1759.51,691.795 1763,696.5C 1772.1,704.957 1782.94,708.79 1795.5,708C 1788.68,710.289 1781.68,711.456 1774.5,711.5 Z"/></g>
<g><path style="opacity:1" fill="#f79b7f" d="M 1879.5,643.5 C 1888.72,644.408 1897.22,647.408 1905,652.5C 1925.68,667.296 1934.52,687.629 1931.5,713.5C 1923.69,727.639 1914.35,740.639 1903.5,752.5C 1884.44,762.453 1865.11,762.953 1845.5,754C 1841.56,752.209 1838.23,749.709 1835.5,746.5C 1836.9,743.366 1838.57,740.366 1840.5,737.5C 1846.72,741.441 1853.39,744.608 1860.5,747C 1890.38,752.093 1909.88,740.26 1919,711.5C 1922.09,683.841 1910.59,665.341 1884.5,656C 1882.53,655.505 1880.53,655.338 1878.5,655.5C 1878.5,654.5 1878.5,653.5 1878.5,652.5C 1878.96,649.518 1879.3,646.518 1879.5,643.5 Z"/></g>
<g><path style="opacity:1" fill="#f5977b" d="M 1720.5,642.5 C 1721.89,647.095 1724.22,651.261 1727.5,655C 1733.12,658.097 1738.78,658.264 1744.5,655.5C 1751.45,660.452 1757.45,666.452 1762.5,673.5C 1759.14,675.895 1756.47,678.895 1754.5,682.5C 1747.37,666.268 1735.04,660.101 1717.5,664C 1701.57,670.016 1694.41,681.516 1696,698.5C 1701.58,718.087 1714.42,726.254 1734.5,723C 1740.01,721.329 1744.84,718.495 1749,714.5C 1751.88,710.027 1754.72,705.694 1757.5,701.5C 1761.74,707.125 1767.41,710.458 1774.5,711.5C 1772.24,716.421 1769.57,721.088 1766.5,725.5C 1762.31,724.771 1758.31,723.438 1754.5,721.5C 1754.17,722.5 1753.83,723.5 1753.5,724.5C 1754.5,728.512 1755.5,732.512 1756.5,736.5C 1755.85,736.196 1755.18,735.863 1754.5,735.5C 1738.2,745.996 1721.2,747.163 1703.5,739C 1697.73,735.723 1692.4,731.89 1687.5,727.5C 1686.46,726.07 1685.8,724.403 1685.5,722.5C 1681.6,705.416 1679.93,688.083 1680.5,670.5C 1689.27,654.773 1702.6,645.44 1720.5,642.5 Z"/></g>
<g><path style="opacity:1" fill="#f49479" d="M 1878.5,652.5 C 1878.5,653.5 1878.5,654.5 1878.5,655.5C 1880.53,655.338 1882.53,655.505 1884.5,656C 1910.59,665.341 1922.09,683.841 1919,711.5C 1909.88,740.26 1890.38,752.093 1860.5,747C 1853.39,744.608 1846.72,741.441 1840.5,737.5C 1842.64,734.878 1843.98,731.878 1844.5,728.5C 1840.16,728.739 1835.82,729.073 1831.5,729.5C 1832.09,728.849 1832.76,728.182 1833.5,727.5C 1820.05,700.988 1825.05,678.654 1848.5,660.5C 1850.63,662.127 1852.63,663.96 1854.5,666C 1856.02,667.009 1857.69,667.509 1859.5,667.5C 1836.35,681.753 1831.52,700.753 1845,724.5C 1859.45,739.063 1875.61,741.23 1893.5,731C 1909.29,717.33 1912.46,701.163 1903,682.5C 1894.27,671.053 1882.77,665.387 1868.5,665.5C 1873.39,662.284 1876.73,657.951 1878.5,652.5 Z"/></g>
<g><path style="opacity:1" fill="#f28d73" d="M 1754.5,682.5 C 1752.52,689.376 1753.52,695.709 1757.5,701.5C 1754.72,705.694 1751.88,710.027 1749,714.5C 1744.84,718.495 1740.01,721.329 1734.5,723C 1714.42,726.254 1701.58,718.087 1696,698.5C 1694.41,681.516 1701.57,670.016 1717.5,664C 1735.04,660.101 1747.37,666.268 1754.5,682.5 Z"/></g>
<g><path style="opacity:1" fill="#f28d73" d="M 1868.5,665.5 C 1882.77,665.387 1894.27,671.053 1903,682.5C 1912.46,701.163 1909.29,717.33 1893.5,731C 1875.61,741.23 1859.45,739.063 1845,724.5C 1831.52,700.753 1836.35,681.753 1859.5,667.5C 1862.75,667.793 1865.75,667.126 1868.5,665.5 Z"/></g>
<g><path style="opacity:1" fill="#ef856d" d="M 1721.5,672.5 C 1738.31,671.818 1746.81,679.818 1747,696.5C 1743.43,709.389 1734.93,715.223 1721.5,714C 1706.11,707.503 1701.94,696.67 1709,681.5C 1712.3,677.118 1716.47,674.118 1721.5,672.5 Z"/></g>
<g><path style="opacity:1" fill="#ef846d" d="M 1867.5,677.5 C 1889.25,677.412 1898.75,688.078 1896,709.5C 1889.08,724.04 1877.92,728.874 1862.5,724C 1849.72,715.993 1845.89,704.827 1851,690.5C 1854.94,684.048 1860.44,679.714 1867.5,677.5 Z"/></g>
<g><path style="opacity:0.999" fill="#ed8c71" d="M 2004.5,679.5 C 1994.35,705.007 1975.69,718.34 1948.5,719.5C 1937.01,744.965 1920.68,766.632 1899.5,784.5C 1890.38,791.265 1880.71,797.265 1870.5,802.5C 1869.5,824.156 1869.17,845.823 1869.5,867.5C 1868.67,852.339 1868.17,837.005 1868,821.5C 1840.14,839.589 1809.64,846.922 1776.5,843.5C 1776.67,831.829 1776.5,820.162 1776,808.5C 1748.88,802.7 1726.38,789.367 1708.5,768.5C 1716.57,773.042 1724.57,777.875 1732.5,783C 1766.24,802.507 1801.9,807.507 1839.5,798C 1865.17,788.818 1886.5,773.651 1903.5,752.5C 1914.35,740.639 1923.69,727.639 1931.5,713.5C 1933.32,710.528 1935.16,707.528 1937,704.5C 1948.82,709.841 1960.66,709.674 1972.5,704C 1984.53,697.447 1995.2,689.281 2004.5,679.5 Z"/></g>
<g><path style="opacity:1" fill="#f9a183" d="M 1687.5,727.5 C 1692.4,731.89 1697.73,735.723 1703.5,739C 1721.2,747.163 1738.2,745.996 1754.5,735.5C 1755.18,735.863 1755.85,736.196 1756.5,736.5C 1766.65,763.786 1785.65,772.953 1813.5,764C 1816.66,762.587 1819.66,760.92 1822.5,759C 1827.17,755.136 1831.5,750.969 1835.5,746.5C 1838.23,749.709 1841.56,752.209 1845.5,754C 1865.11,762.953 1884.44,762.453 1903.5,752.5C 1886.5,773.651 1865.17,788.818 1839.5,798C 1801.9,807.507 1766.24,802.507 1732.5,783C 1724.57,777.875 1716.57,773.042 1708.5,768.5C 1708.17,767.5 1707.5,766.833 1706.5,766.5C 1697.78,754.721 1691.44,741.721 1687.5,727.5 Z"/></g>
<g><path style="opacity:0.999" fill="#40251f" d="M 1629.5,671.5 C 1630.4,672.598 1631.23,672.598 1632,671.5C 1633,672.5 1634,673.5 1635,674.5C 1636.33,671.833 1637.67,671.833 1639,674.5C 1640.33,671.833 1641.67,671.833 1643,674.5C 1644.33,671.833 1645.67,671.833 1647,674.5C 1648.33,671.833 1649.67,671.833 1651,674.5C 1654.67,674.167 1658.33,673.833 1662,673.5C 1663.51,676.474 1665.17,676.807 1667,674.5C 1668.55,676.146 1670.22,676.479 1672,675.5C 1672.5,676 1673,676.5 1673.5,677C 1670.5,680.78 1671,683.946 1675,686.5C 1675.31,692.874 1675.98,699.207 1677,705.5C 1678.28,712.066 1681.12,717.733 1685.5,722.5C 1685.8,724.403 1686.46,726.07 1687.5,727.5C 1691.44,741.721 1697.78,754.721 1706.5,766.5C 1705.15,765.829 1703.99,765.829 1703,766.5C 1701.49,763.526 1699.83,763.193 1698,765.5C 1696.67,762.833 1695.33,762.833 1694,765.5C 1692.67,762.833 1691.33,762.833 1690,765.5C 1688.67,762.833 1687.33,762.833 1686,765.5C 1684.67,762.833 1683.33,762.833 1682,765.5C 1680.45,763.854 1678.78,763.521 1677,764.5C 1675.49,761.526 1673.83,761.193 1672,763.5C 1670.67,760.833 1669.33,760.833 1668,763.5C 1667.33,762.833 1666.67,762.167 1666,761.5C 1663.67,761.833 1661.33,762.167 1659,762.5C 1657.49,759.526 1655.83,759.193 1654,761.5C 1652.67,758.833 1651.33,758.833 1650,761.5C 1648.67,758.833 1647.33,758.833 1646,761.5C 1644.67,758.833 1643.33,758.833 1642,761.5C 1640.67,758.833 1639.33,758.833 1638,761.5C 1637.33,760.833 1636.67,760.167 1636,759.5C 1632.33,759.833 1628.67,760.167 1625,760.5C 1624,759.5 1623,758.5 1622,757.5C 1621.71,759.111 1620.88,760.444 1619.5,761.5C 1621.74,731.37 1625.07,701.37 1629.5,671.5 Z"/></g>
<g><path style="opacity:1" fill="#cf4140" d="M 1766.5,725.5 C 1774.39,727.27 1782.39,728.437 1790.5,729C 1804.16,729.5 1817.83,729.667 1831.5,729.5C 1835.82,729.073 1840.16,728.739 1844.5,728.5C 1843.98,731.878 1842.64,734.878 1840.5,737.5C 1838.57,740.366 1836.9,743.366 1835.5,746.5C 1831.5,750.969 1827.17,755.136 1822.5,759C 1819.66,760.92 1816.66,762.587 1813.5,764C 1785.65,772.953 1766.65,763.786 1756.5,736.5C 1755.5,732.512 1754.5,728.512 1753.5,724.5C 1753.83,723.5 1754.17,722.5 1754.5,721.5C 1758.31,723.438 1762.31,724.771 1766.5,725.5 Z"/></g>
<g><path style="opacity:1" fill="#fdf7f6" d="M 1754.5,725.5 C 1754.74,724.903 1755.24,724.57 1756,724.5C 1767.51,728.536 1779.34,731.036 1791.5,732C 1808.56,732.746 1825.56,732.413 1842.5,731C 1833.75,739.922 1823.08,744.589 1810.5,745C 1793.93,746.619 1778.26,743.619 1763.5,736C 1759.89,732.897 1756.89,729.397 1754.5,725.5 Z"/></g>
<g><path style="opacity:0.999" fill="#faa283" d="M 1308.5,742.5 C 1308.06,759.069 1307.4,775.569 1306.5,792C 1312.44,793.49 1318.44,794.657 1324.5,795.5C 1317.28,817.216 1302.62,831.382 1280.5,838C 1255.8,844.856 1230.8,846.19 1205.5,842C 1183.11,837.938 1168.61,825.105 1162,803.5C 1161.5,799.179 1161.33,794.846 1161.5,790.5C 1167.58,789.006 1173.74,788.006 1180,787.5C 1181.15,777.866 1181.65,768.2 1181.5,758.5C 1220.99,762.612 1259.33,757.779 1296.5,744C 1300.44,742.985 1304.44,742.485 1308.5,742.5 Z"/></g>
<g><path style="opacity:0.997" fill="#41251f" d="M 2006.5,674.5 C 2001.57,716.264 1989.23,755.597 1969.5,792.5C 1968.97,790.456 1967.8,788.789 1966,787.5C 1964.67,790.167 1963.33,790.167 1962,787.5C 1960.67,790.167 1959.33,790.167 1958,787.5C 1957,787.833 1956,788.167 1955,788.5C 1953.49,785.526 1951.83,785.193 1950,787.5C 1948.67,784.833 1947.33,784.833 1946,787.5C 1945.33,786.833 1944.67,786.167 1944,785.5C 1941.67,785.833 1939.33,786.167 1937,786.5C 1935.49,783.526 1933.83,783.193 1932,785.5C 1930.67,782.833 1929.33,782.833 1928,785.5C 1926.67,782.833 1925.33,782.833 1924,785.5C 1922.67,782.833 1921.33,782.833 1920,785.5C 1918.67,782.833 1917.33,782.833 1916,785.5C 1914.45,783.854 1912.78,783.521 1911,784.5C 1910,783.5 1909,782.5 1908,781.5C 1907,782.5 1906,783.5 1905,784.5C 1903.34,783.834 1901.51,783.834 1899.5,784.5C 1920.68,766.632 1937.01,744.965 1948.5,719.5C 1975.69,718.34 1994.35,705.007 2004.5,679.5C 2004.8,677.597 2005.46,675.93 2006.5,674.5 Z"/></g>
<g><path style="opacity:0.998" fill="#3b221d" d="M 1706.5,766.5 C 1707.5,766.833 1708.17,767.5 1708.5,768.5C 1726.38,789.367 1748.88,802.7 1776,808.5C 1776.5,820.162 1776.67,831.829 1776.5,843.5C 1776.5,851.167 1776.5,858.833 1776.5,866.5C 1766.92,866.44 1757.59,867.773 1748.5,870.5C 1748.5,869.5 1748.5,868.5 1748.5,867.5C 1719.08,873.877 1692.08,885.71 1667.5,903C 1664.29,905.05 1661.62,907.55 1659.5,910.5C 1650.92,922.661 1642.59,934.994 1634.5,947.5C 1627.77,945.702 1621.11,943.702 1614.5,941.5C 1613.01,881.411 1614.68,821.411 1619.5,761.5C 1620.88,760.444 1621.71,759.111 1622,757.5C 1623,758.5 1624,759.5 1625,760.5C 1628.67,760.167 1632.33,759.833 1636,759.5C 1636.67,760.167 1637.33,760.833 1638,761.5C 1639.33,758.833 1640.67,758.833 1642,761.5C 1643.33,758.833 1644.67,758.833 1646,761.5C 1647.33,758.833 1648.67,758.833 1650,761.5C 1651.33,758.833 1652.67,758.833 1654,761.5C 1655.83,759.193 1657.49,759.526 1659,762.5C 1661.33,762.167 1663.67,761.833 1666,761.5C 1666.67,762.167 1667.33,762.833 1668,763.5C 1669.33,760.833 1670.67,760.833 1672,763.5C 1673.83,761.193 1675.49,761.526 1677,764.5C 1678.78,763.521 1680.45,763.854 1682,765.5C 1683.33,762.833 1684.67,762.833 1686,765.5C 1687.33,762.833 1688.67,762.833 1690,765.5C 1691.33,762.833 1692.67,762.833 1694,765.5C 1695.33,762.833 1696.67,762.833 1698,765.5C 1699.83,763.193 1701.49,763.526 1703,766.5C 1703.99,765.829 1705.15,765.829 1706.5,766.5 Z"/></g>
<g><path style="opacity:0.996" fill="#3c221d" d="M 1969.5,792.5 C 1963.79,804.925 1957.29,816.925 1950,828.5C 1939.03,844.625 1927.53,860.291 1915.5,875.5C 1908.03,874.122 1900.69,872.122 1893.5,869.5C 1892.26,869.942 1891.26,870.609 1890.5,871.5C 1883.36,870.257 1876.36,868.924 1869.5,867.5C 1869.17,845.823 1869.5,824.156 1870.5,802.5C 1880.71,797.265 1890.38,791.265 1899.5,784.5C 1901.51,783.834 1903.34,783.834 1905,784.5C 1906,783.5 1907,782.5 1908,781.5C 1909,782.5 1910,783.5 1911,784.5C 1912.78,783.521 1914.45,783.854 1916,785.5C 1917.33,782.833 1918.67,782.833 1920,785.5C 1921.33,782.833 1922.67,782.833 1924,785.5C 1925.33,782.833 1926.67,782.833 1928,785.5C 1929.33,782.833 1930.67,782.833 1932,785.5C 1933.83,783.193 1935.49,783.526 1937,786.5C 1939.33,786.167 1941.67,785.833 1944,785.5C 1944.67,786.167 1945.33,786.833 1946,787.5C 1947.33,784.833 1948.67,784.833 1950,787.5C 1951.83,785.193 1953.49,785.526 1955,788.5C 1956,788.167 1957,787.833 1958,787.5C 1959.33,790.167 1960.67,790.167 1962,787.5C 1963.33,790.167 1964.67,790.167 1966,787.5C 1967.8,788.789 1968.97,790.456 1969.5,792.5 Z"/></g>
<g><path style="opacity:0.999" fill="#fecf7c" d="M 1161.5,790.5 C 1161.33,794.846 1161.5,799.179 1162,803.5C 1168.61,825.105 1183.11,837.938 1205.5,842C 1230.8,846.19 1255.8,844.856 1280.5,838C 1302.62,831.382 1317.28,817.216 1324.5,795.5C 1324.31,793.897 1324.81,792.563 1326,791.5C 1385.34,804.091 1441.84,824.425 1495.5,852.5C 1511.34,876.167 1526.17,900.5 1540,925.5C 1557.86,958.562 1575.7,991.562 1593.5,1024.5C 1574.8,1061.56 1557.47,1099.23 1541.5,1137.5C 1537.05,1147.74 1532.55,1158.08 1528,1168.5C 1524.18,1171.49 1520.02,1173.82 1515.5,1175.5C 1494.39,1149.4 1474.06,1122.73 1454.5,1095.5C 1459.92,1068.89 1464.76,1042.22 1469,1015.5C 1440.14,1083.55 1407.81,1149.88 1372,1214.5C 1346.84,1257.99 1318.17,1298.99 1286,1337.5C 1253.42,1374.77 1215.59,1405.27 1172.5,1429C 1112.86,1458.72 1049.86,1469.88 983.5,1462.5C 984.587,1497.16 985.254,1531.82 985.5,1566.5C 980.774,1457.03 979.44,1347.37 981.5,1237.5C 983.62,1134.57 990.12,1031.91 1001,929.5C 1005.1,896.313 1010.26,863.313 1016.5,830.5C 1062.38,808.321 1110.72,793.987 1161.5,787.5C 1161.5,788.5 1161.5,789.5 1161.5,790.5 Z"/></g>
<g><path style="opacity:1" fill="#f9a183" d="M 1869.5,867.5 C 1876.36,868.924 1883.36,870.257 1890.5,871.5C 1884.97,896.526 1869.97,912.693 1845.5,920C 1819.14,925.485 1793.14,924.152 1767.5,916C 1747.41,906.57 1741.08,891.403 1748.5,870.5C 1757.59,867.773 1766.92,866.44 1776.5,866.5C 1776.5,858.833 1776.5,851.167 1776.5,843.5C 1809.64,846.922 1840.14,839.589 1868,821.5C 1868.17,837.005 1868.67,852.339 1869.5,867.5 Z"/></g>
<g><path style="opacity:0.996" fill="#efc074" d="M 1016.5,830.5 C 1010.26,863.313 1005.1,896.313 1001,929.5C 990.12,1031.91 983.62,1134.57 981.5,1237.5C 973.701,1253.1 964.868,1268.1 955,1282.5C 938.597,1301.91 921.097,1320.41 902.5,1338C 843.992,1391.56 783.992,1443.23 722.5,1493C 718.804,1493 715.137,1492.5 711.5,1491.5C 691.003,1483.51 674.836,1470.18 663,1451.5C 658.385,1442.44 653.885,1433.44 649.5,1424.5C 648.916,1421.33 648.25,1418.16 647.5,1415C 647.858,1412.97 648.692,1411.13 650,1409.5C 713.296,1337.87 776.962,1266.54 841,1195.5C 869.294,1117.91 900.627,1041.58 935,966.5C 953.26,927.64 973.927,890.306 997,854.5C 1002.99,846.021 1009.49,838.021 1016.5,830.5 Z"/></g>
<g><path style="opacity:0.999" fill="#fb6a6a" d="M 1748.5,870.5 C 1741.08,891.403 1747.41,906.57 1767.5,916C 1793.14,924.152 1819.14,925.485 1845.5,920C 1869.97,912.693 1884.97,896.526 1890.5,871.5C 1891.26,870.609 1892.26,869.942 1893.5,869.5C 1900.69,872.122 1908.03,874.122 1915.5,875.5C 1941.76,884.961 1966.76,897.128 1990.5,912C 2003.33,929.201 2014.16,947.701 2023,967.5C 2052.47,1034.74 2077.31,1103.74 2097.5,1174.5C 2066.5,1192.72 2033.16,1203.72 1997.5,1207.5C 1984.51,1174.51 1974.51,1140.51 1967.5,1105.5C 1972.34,1063.12 1977.17,1020.79 1982,978.5C 1966.08,1018.53 1942.58,1053.37 1911.5,1083C 1890.19,1101.98 1865.19,1111.48 1836.5,1111.5C 1765.37,1110.43 1694.37,1106.93 1623.5,1101C 1614.73,1100.01 1606.06,1098.51 1597.5,1096.5C 1589.57,1073.79 1591.4,1051.79 1603,1030.5C 1614.79,1011.54 1629.29,994.873 1646.5,980.5C 1651.05,957.201 1655.38,933.867 1659.5,910.5C 1661.62,907.55 1664.29,905.05 1667.5,903C 1692.08,885.71 1719.08,873.877 1748.5,867.5C 1748.5,868.5 1748.5,869.5 1748.5,870.5 Z"/></g>
<g><path style="opacity:0.998" fill="#ea6060" d="M 1659.5,910.5 C 1655.38,933.867 1651.05,957.201 1646.5,980.5C 1629.29,994.873 1614.79,1011.54 1603,1030.5C 1591.4,1051.79 1589.57,1073.79 1597.5,1096.5C 1606.06,1098.51 1614.73,1100.01 1623.5,1101C 1694.37,1106.93 1765.37,1110.43 1836.5,1111.5C 1865.19,1111.48 1890.19,1101.98 1911.5,1083C 1942.58,1053.37 1966.08,1018.53 1982,978.5C 1977.17,1020.79 1972.34,1063.12 1967.5,1105.5C 1941.09,1169.92 1922.25,1236.59 1911,1305.5C 1910.33,1309.83 1910.33,1314.17 1911,1318.5C 1933.79,1351.06 1953.79,1385.4 1971,1421.5C 1990.55,1462.31 2007.05,1504.31 2020.5,1547.5C 2036.4,1599.05 2049.56,1651.38 2060,1704.5C 2062.88,1717.75 2064.88,1731.09 2066,1744.5C 2046.43,1671.79 2019.76,1601.79 1986,1534.5C 1951.7,1464.94 1913.36,1397.94 1871,1333.5C 1866.67,1328.5 1862.33,1323.5 1858,1318.5C 1863.07,1301.87 1867.07,1284.87 1870,1267.5C 1874.55,1244.66 1872.89,1222.32 1865,1200.5C 1853.95,1177.04 1835.78,1162.21 1810.5,1156C 1782.8,1149.69 1754.8,1148.03 1726.5,1151C 1699.83,1153.88 1673.16,1156.71 1646.5,1159.5C 1641.01,1159.91 1635.84,1158.91 1631,1156.5C 1632.31,1168.5 1633.81,1180.5 1635.5,1192.5C 1632.41,1197.67 1629.08,1202.67 1625.5,1207.5C 1591.2,1191.69 1563.2,1168.36 1541.5,1137.5C 1557.47,1099.23 1574.8,1061.56 1593.5,1024.5C 1606.38,998.416 1620.04,972.749 1634.5,947.5C 1642.59,934.994 1650.92,922.661 1659.5,910.5 Z"/></g>
<g><path style="opacity:1" fill="#eebf74" d="M 1454.5,1095.5 C 1447.39,1135.86 1443.05,1176.53 1441.5,1217.5C 1439.99,1232.74 1439.16,1248.07 1439,1263.5C 1438.5,1288.16 1438.33,1312.83 1438.5,1337.5C 1438.35,1429.61 1441.35,1521.61 1447.5,1613.5C 1438.06,1614.74 1428.72,1616.41 1419.5,1618.5C 1339.35,1631.53 1258.69,1636.69 1177.5,1634C 1118.2,1631.79 1059.86,1623.29 1002.5,1608.5C 1002.17,1608.5 1001.83,1608.5 1001.5,1608.5C 996.543,1607.01 991.543,1605.68 986.5,1604.5C 985.847,1591.84 985.514,1579.18 985.5,1566.5C 985.254,1531.82 984.587,1497.16 983.5,1462.5C 1049.86,1469.88 1112.86,1458.72 1172.5,1429C 1215.59,1405.27 1253.42,1374.77 1286,1337.5C 1318.17,1298.99 1346.84,1257.99 1372,1214.5C 1407.81,1149.88 1440.14,1083.55 1469,1015.5C 1464.76,1042.22 1459.92,1068.89 1454.5,1095.5 Z"/></g>
<g><path style="opacity:0.998" fill="#faa283" d="M 1541.5,1137.5 C 1563.2,1168.36 1591.2,1191.69 1625.5,1207.5C 1621.27,1214.94 1616.77,1222.28 1612,1229.5C 1606.26,1236.39 1600.76,1243.39 1595.5,1250.5C 1580.24,1263.14 1563.9,1274.31 1546.5,1284C 1511.48,1303.63 1475.48,1321.46 1438.5,1337.5C 1438.33,1312.83 1438.5,1288.16 1439,1263.5C 1439.16,1248.07 1439.99,1232.74 1441.5,1217.5C 1466.46,1204.02 1491.13,1190.02 1515.5,1175.5C 1520.02,1173.82 1524.18,1171.49 1528,1168.5C 1532.55,1158.08 1537.05,1147.74 1541.5,1137.5 Z"/></g>
<g><path style="opacity:0.999" fill="#fb6b6a" d="M 2020.5,1547.5 C 2044.72,1619.72 2061.88,1693.72 2072,1769.5C 2079.2,1820.93 2083.37,1872.59 2084.5,1924.5C 2060.68,1909.82 2038.52,1892.82 2018,1873.5C 2027.71,1847.67 2026.05,1822.33 2013,1797.5C 2009.64,1792.9 2005.14,1790.57 1999.5,1790.5C 1998.44,1778.2 1993.11,1768.37 1983.5,1761C 1981.5,1760.33 1979.5,1760.33 1977.5,1761C 1956.72,1771.45 1940.89,1786.95 1930,1807.5C 1928.49,1812.75 1928.16,1818.08 1929,1823.5C 1933.66,1843.82 1942.33,1862.16 1955,1878.5C 1958.97,1881.46 1962.63,1884.8 1966,1888.5C 1990.11,1924.29 2017.61,1957.46 2048.5,1988C 2060.02,1998.57 2072.02,2008.4 2084.5,2017.5C 2084.72,2031.43 2084.06,2045.27 2082.5,2059C 2062.27,2067.13 2041.6,2073.97 2020.5,2079.5C 1977.32,2091.38 1933.65,2100.38 1889.5,2106.5C 1859.63,2110.25 1829.63,2112.59 1799.5,2113.5C 1752.56,2113.81 1705.9,2110.15 1659.5,2102.5C 1606.55,2093.35 1555.55,2077.85 1506.5,2056C 1522.35,1892.73 1546.52,1730.56 1579,1569.5C 1592.46,1502.68 1610.12,1437.01 1632,1372.5C 1638.48,1355.21 1645.65,1338.21 1653.5,1321.5C 1650.89,1305.88 1648.55,1290.21 1646.5,1274.5C 1643.2,1247.1 1639.54,1219.77 1635.5,1192.5C 1633.81,1180.5 1632.31,1168.5 1631,1156.5C 1635.84,1158.91 1641.01,1159.91 1646.5,1159.5C 1673.16,1156.71 1699.83,1153.88 1726.5,1151C 1754.8,1148.03 1782.8,1149.69 1810.5,1156C 1835.78,1162.21 1853.95,1177.04 1865,1200.5C 1872.89,1222.32 1874.55,1244.66 1870,1267.5C 1867.07,1284.87 1863.07,1301.87 1858,1318.5C 1862.33,1323.5 1866.67,1328.5 1871,1333.5C 1913.36,1397.94 1951.7,1464.94 1986,1534.5C 2019.76,1601.79 2046.43,1671.79 2066,1744.5C 2064.88,1731.09 2062.88,1717.75 2060,1704.5C 2049.56,1651.38 2036.4,1599.05 2020.5,1547.5 Z"/></g>
<g><path style="opacity:0.998" fill="#f9a184" d="M 2097.5,1174.5 C 2099.81,1181.42 2101.98,1188.42 2104,1195.5C 2156.21,1248.89 2210.05,1300.22 2265.5,1349.5C 2263.54,1350.82 2261.54,1352.15 2259.5,1353.5C 2245.5,1362.67 2234,1374.33 2225,1388.5C 2220.02,1396.8 2215.85,1405.46 2212.5,1414.5C 2156.41,1376.6 2102.41,1335.76 2050.5,1292C 2038.85,1281.69 2028.68,1270.19 2020,1257.5C 2011.13,1241.42 2003.63,1224.76 1997.5,1207.5C 2033.16,1203.72 2066.5,1192.72 2097.5,1174.5 Z"/></g>
<g><path style="opacity:0.996" fill="#fecf7c" d="M 1635.5,1192.5 C 1639.54,1219.77 1643.2,1247.1 1646.5,1274.5C 1628.8,1267.82 1611.8,1259.82 1595.5,1250.5C 1600.76,1243.39 1606.26,1236.39 1612,1229.5C 1616.77,1222.28 1621.27,1214.94 1625.5,1207.5C 1629.08,1202.67 1632.41,1197.67 1635.5,1192.5 Z"/></g>
<g><path style="opacity:0.997" fill="#502f26" d="M 2448.5,1354.5 C 2421.28,1379.8 2388.95,1391.47 2351.5,1389.5C 2350.48,1386.43 2349.32,1383.43 2348,1380.5C 2346.34,1383.65 2344.5,1386.65 2342.5,1389.5C 2313.59,1387.21 2287.59,1377.37 2264.5,1360C 2262.21,1358.22 2260.54,1356.06 2259.5,1353.5C 2261.54,1352.15 2263.54,1350.82 2265.5,1349.5C 2291.88,1337.22 2319.04,1335.22 2347,1343.5C 2382.6,1331.15 2416.44,1334.81 2448.5,1354.5 Z"/></g>
<g><path style="opacity:1" fill="#674434" d="M 2259.5,1353.5 C 2260.54,1356.06 2262.21,1358.22 2264.5,1360C 2287.59,1377.37 2313.59,1387.21 2342.5,1389.5C 2333.79,1402.92 2324.13,1415.59 2313.5,1427.5C 2279.52,1426 2245.86,1422 2212.5,1415.5C 2212.5,1415.17 2212.5,1414.83 2212.5,1414.5C 2215.85,1405.46 2220.02,1396.8 2225,1388.5C 2234,1374.33 2245.5,1362.67 2259.5,1353.5 Z"/></g>
<g><path style="opacity:1" fill="#664333" d="M 2448.5,1354.5 C 2475.93,1370.6 2495.93,1393.27 2508.5,1422.5C 2463.64,1427.29 2418.64,1429.79 2373.5,1430C 2372.26,1430.23 2371.26,1430.73 2370.5,1431.5C 2362.56,1418.28 2356.23,1404.28 2351.5,1389.5C 2388.95,1391.47 2421.28,1379.8 2448.5,1354.5 Z"/></g>
<g><path style="opacity:1" fill="#f9a183" d="M 2351.5,1389.5 C 2356.23,1404.28 2362.56,1418.28 2370.5,1431.5C 2392.56,1472.56 2424.89,1502.56 2467.5,1521.5C 2469.79,1530.67 2470.79,1540.01 2470.5,1549.5C 2483.85,1546.82 2496.51,1548.66 2508.5,1555C 2520.54,1566.66 2523.71,1580.5 2518,1596.5C 2515.2,1607.1 2510.53,1616.77 2504,1625.5C 2494.59,1634.52 2483.42,1637.69 2470.5,1635C 2466.49,1633.89 2462.66,1632.39 2459,1630.5C 2451.29,1651.26 2439.12,1668.93 2422.5,1683.5C 2409.61,1694.01 2394.95,1701.01 2378.5,1704.5C 2353.92,1709.17 2329.59,1708.17 2305.5,1701.5C 2304.89,1701.62 2304.56,1701.96 2304.5,1702.5C 2273.66,1695.18 2248.5,1679.18 2229,1654.5C 2223.43,1646.03 2218.93,1637.03 2215.5,1627.5C 2215.17,1625.5 2214.83,1623.5 2214.5,1621.5C 2232.79,1637.87 2252.79,1640.2 2274.5,1628.5C 2277.99,1650.49 2290.66,1663.99 2312.5,1669C 2335.14,1674.79 2353.64,1668.62 2368,1650.5C 2371.47,1644.57 2374.63,1638.57 2377.5,1632.5C 2392,1651.38 2410,1655.55 2431.5,1645C 2448.23,1632.46 2453.07,1616.3 2446,1596.5C 2436.48,1579.99 2422.31,1572.33 2403.5,1573.5C 2414.08,1567.67 2418.25,1558.67 2416,1546.5C 2410.86,1534.01 2402.36,1530.85 2390.5,1537C 2381.65,1546.35 2380.15,1556.85 2386,1568.5C 2390.02,1573.42 2395.18,1575.42 2401.5,1574.5C 2377.69,1583.79 2369.02,1600.79 2375.5,1625.5C 2350.63,1625.64 2325.97,1623.47 2301.5,1619C 2296.6,1618.26 2291.93,1617.09 2287.5,1615.5C 2298.07,1593.36 2294.74,1573.7 2277.5,1556.5C 2290.27,1549.82 2294.44,1539.48 2290,1525.5C 2281.53,1514.27 2272.2,1513.6 2262,1523.5C 2257.46,1530.97 2256.29,1538.97 2258.5,1547.5C 2240.28,1544.19 2225.11,1549.53 2213,1563.5C 2211.56,1565.27 2210.56,1567.27 2210,1569.5C 2209.5,1567.19 2209.34,1564.86 2209.5,1562.5C 2211.28,1537.85 2216.28,1513.85 2224.5,1490.5C 2259.61,1477.12 2289.28,1456.12 2313.5,1427.5C 2324.13,1415.59 2333.79,1402.92 2342.5,1389.5C 2344.5,1386.65 2346.34,1383.65 2348,1380.5C 2349.32,1383.43 2350.48,1386.43 2351.5,1389.5 Z"/></g>
<g><path style="opacity:0.995" fill="#f9a183" d="M 2657.5,1599.5 C 2648.84,1613.83 2640.17,1628.16 2631.5,1642.5C 2625.5,1650.5 2619.5,1658.5 2613.5,1666.5C 2608.15,1672.52 2603.15,1678.85 2598.5,1685.5C 2589.87,1696.13 2580.87,1706.46 2571.5,1716.5C 2564.02,1702.88 2555.52,1689.88 2546,1677.5C 2537.39,1667.72 2527.22,1660.05 2515.5,1654.5C 2514.7,1654.04 2514.37,1653.38 2514.5,1652.5C 2530.42,1640.25 2545.09,1626.58 2558.5,1611.5C 2582.32,1585.51 2604.48,1558.18 2625,1529.5C 2630.44,1521.61 2635.6,1513.61 2640.5,1505.5C 2652.81,1488.24 2664.64,1470.58 2676,1452.5C 2676.67,1436.83 2676.67,1421.17 2676,1405.5C 2675.91,1398.44 2674.74,1391.6 2672.5,1385C 2683.44,1381.55 2690.6,1385.39 2694,1396.5C 2694.91,1400.79 2695.58,1405.13 2696,1409.5C 2716.19,1402.41 2736.35,1395.24 2756.5,1388C 2762.35,1385.96 2765.69,1387.96 2766.5,1394C 2766.3,1396.41 2765.3,1398.41 2763.5,1400C 2752.71,1403.88 2742.04,1408.04 2731.5,1412.5C 2732.33,1412.83 2733.17,1413.17 2734,1413.5C 2745.8,1411.31 2757.64,1409.31 2769.5,1407.5C 2776.97,1407.78 2779.47,1411.45 2777,1418.5C 2776.1,1419.7 2774.93,1420.53 2773.5,1421C 2760.84,1423.33 2748.17,1425.67 2735.5,1428C 2747.15,1428.98 2758.81,1429.65 2770.5,1430C 2775.14,1432.02 2776.64,1435.52 2775,1440.5C 2774.17,1441.33 2773.33,1442.17 2772.5,1443C 2761.5,1443.33 2750.5,1443.67 2739.5,1444C 2748.99,1446.94 2758.32,1450.27 2767.5,1454C 2770.62,1459.28 2769.29,1463.11 2763.5,1465.5C 2753.89,1462.3 2744.23,1459.3 2734.5,1456.5C 2724.52,1459.05 2714.86,1462.38 2705.5,1466.5C 2697.67,1513.82 2681.67,1558.15 2657.5,1599.5 Z"/></g>
<g><path style="opacity:0.997" fill="#f9a183" d="M 649.5,1424.5 C 653.885,1433.44 658.385,1442.44 663,1451.5C 674.836,1470.18 691.003,1483.51 711.5,1491.5C 708.088,1505.67 701.088,1517.67 690.5,1527.5C 673.552,1525.81 656.552,1525.14 639.5,1525.5C 626.884,1525.39 614.551,1527.06 602.5,1530.5C 601.488,1528.16 601.655,1525.83 603,1523.5C 604.793,1513.73 602.96,1504.73 597.5,1496.5C 586.605,1511.23 573.605,1523.73 558.5,1534C 541.629,1545.1 523.962,1554.6 505.5,1562.5C 498.185,1553.85 499.185,1546.02 508.5,1539C 511.672,1537.25 514.672,1535.25 517.5,1533C 503.093,1530.32 498.926,1522.49 505,1509.5C 536.905,1489.94 569.072,1470.77 601.5,1452C 589.414,1447.46 577.748,1442.12 566.5,1436C 559.906,1430.65 557.406,1423.81 559,1415.5C 559.465,1414.07 560.299,1412.9 561.5,1412C 565.375,1410.48 569.375,1410.15 573.5,1411C 598.697,1416.26 624.031,1420.76 649.5,1424.5 Z"/></g>
<g><path style="opacity:0.999" fill="#502f26" d="M 2212.5,1415.5 C 2245.86,1422 2279.52,1426 2313.5,1427.5C 2289.28,1456.12 2259.61,1477.12 2224.5,1490.5C 2216.28,1513.85 2211.28,1537.85 2209.5,1562.5C 2208.35,1574.34 2208.35,1586.34 2209.5,1598.5C 2206.68,1591.56 2204.02,1584.56 2201.5,1577.5C 2196.05,1554.83 2194.05,1531.83 2195.5,1508.5C 2196.79,1503.14 2196.79,1497.8 2195.5,1492.5C 2196.22,1492.08 2196.72,1491.42 2197,1490.5C 2198.41,1469.79 2201.91,1449.45 2207.5,1429.5C 2207.5,1429.17 2207.5,1428.83 2207.5,1428.5C 2208.6,1423.86 2210.27,1419.52 2212.5,1415.5 Z"/></g>
<g><path style="opacity:0.998" fill="#502f26" d="M 2508.5,1422.5 C 2512.96,1431.1 2516.62,1440.1 2519.5,1449.5C 2512.73,1450.08 2507.23,1453.08 2503,1458.5C 2493.59,1473.6 2491.93,1489.6 2498,1506.5C 2503.19,1520 2512.69,1525.5 2526.5,1523C 2511.48,1503.43 2509.48,1482.6 2520.5,1460.5C 2525.89,1459.14 2531.23,1458.14 2536.5,1457.5C 2566.6,1453.69 2593.94,1460.53 2618.5,1478C 2627.4,1486.01 2634.74,1495.18 2640.5,1505.5C 2635.6,1513.61 2630.44,1521.61 2625,1529.5C 2604.48,1558.18 2582.32,1585.51 2558.5,1611.5C 2558.49,1587.62 2553.33,1564.96 2543,1543.5C 2540.08,1538.58 2536.42,1534.25 2532,1530.5C 2533.4,1563.52 2526.4,1594.52 2511,1623.5C 2505.43,1632.57 2498.93,1640.9 2491.5,1648.5C 2489.14,1648.34 2486.81,1648.5 2484.5,1649C 2479.66,1655 2474.33,1660.5 2468.5,1665.5C 2467.83,1665.5 2467.5,1665.83 2467.5,1666.5C 2453.28,1674.11 2438.28,1679.77 2422.5,1683.5C 2439.12,1668.93 2451.29,1651.26 2459,1630.5C 2462.66,1632.39 2466.49,1633.89 2470.5,1635C 2483.42,1637.69 2494.59,1634.52 2504,1625.5C 2510.53,1616.77 2515.2,1607.1 2518,1596.5C 2523.71,1580.5 2520.54,1566.66 2508.5,1555C 2496.51,1548.66 2483.85,1546.82 2470.5,1549.5C 2470.79,1540.01 2469.79,1530.67 2467.5,1521.5C 2424.89,1502.56 2392.56,1472.56 2370.5,1431.5C 2371.26,1430.73 2372.26,1430.23 2373.5,1430C 2418.64,1429.79 2463.64,1427.29 2508.5,1422.5 Z"/></g>
<g><path style="opacity:0.989" fill="#3b211c" d="M 2207.5,1428.5 C 2207.5,1428.83 2207.5,1429.17 2207.5,1429.5C 2197.47,1434.88 2191.3,1443.21 2189,1454.5C 2186.63,1468.05 2188.79,1480.71 2195.5,1492.5C 2196.79,1497.8 2196.79,1503.14 2195.5,1508.5C 2186.68,1522.16 2181.18,1537.16 2179,1553.5C 2178.06,1559.8 2177.39,1566.14 2177,1572.5C 2176.68,1588.54 2176.51,1604.54 2176.5,1620.5C 2162.59,1613.76 2153.09,1603.09 2148,1588.5C 2146.37,1592.28 2145.37,1596.28 2145,1600.5C 2144.08,1615.26 2142.42,1629.92 2140,1644.5C 2138.79,1651.43 2135.62,1657.26 2130.5,1662C 2122.38,1665.09 2115.38,1663.42 2109.5,1657C 2118.25,1655.85 2122.25,1650.85 2121.5,1642C 2117.95,1626.98 2115.12,1611.81 2113,1596.5C 2101.24,1625.06 2082.74,1630.56 2057.5,1613C 2052.17,1608.33 2047.17,1603.33 2042.5,1598C 2049.95,1600.31 2057.62,1602.14 2065.5,1603.5C 2071.59,1603.71 2075.76,1601.04 2078,1595.5C 2077.92,1581.33 2077.42,1567.17 2076.5,1553C 2076.47,1527.82 2081.3,1503.65 2091,1480.5C 2107.7,1448.38 2134.2,1430.55 2170.5,1427C 2182.95,1426.05 2195.28,1426.55 2207.5,1428.5 Z"/></g>
<g><path style="opacity:1" fill="#dc3c3c" d="M 2207.5,1429.5 C 2201.91,1449.45 2198.41,1469.79 2197,1490.5C 2196.72,1491.42 2196.22,1492.08 2195.5,1492.5C 2188.79,1480.71 2186.63,1468.05 2189,1454.5C 2191.3,1443.21 2197.47,1434.88 2207.5,1429.5 Z"/></g>
<g><path style="opacity:0.994" fill="#de3c3c" d="M 2519.5,1449.5 C 2526.72,1449.12 2532.38,1451.78 2536.5,1457.5C 2531.23,1458.14 2525.89,1459.14 2520.5,1460.5C 2509.48,1482.6 2511.48,1503.43 2526.5,1523C 2512.69,1525.5 2503.19,1520 2498,1506.5C 2491.93,1489.6 2493.59,1473.6 2503,1458.5C 2507.23,1453.08 2512.73,1450.08 2519.5,1449.5 Z"/></g>
<g><path style="opacity:1" fill="#553228" d="M 2278.5,1482.5 C 2283.84,1482.33 2289.18,1482.5 2294.5,1483C 2296.92,1484.57 2298.26,1486.74 2298.5,1489.5C 2285.3,1489.39 2272.3,1490.89 2259.5,1494C 2256.9,1494.98 2254.4,1496.14 2252,1497.5C 2251.33,1496.83 2251.33,1496.17 2252,1495.5C 2259.63,1488.58 2268.46,1484.24 2278.5,1482.5 Z"/></g>
<g><path style="opacity:0.999" fill="#502f26" d="M 639.5,1525.5 C 593.65,1567.01 539.65,1585.68 477.5,1581.5C 486.487,1574.67 495.821,1568.34 505.5,1562.5C 523.962,1554.6 541.629,1545.1 558.5,1534C 573.605,1523.73 586.605,1511.23 597.5,1496.5C 602.96,1504.73 604.793,1513.73 603,1523.5C 601.655,1525.83 601.488,1528.16 602.5,1530.5C 614.551,1527.06 626.884,1525.39 639.5,1525.5 Z"/></g>
<g><path style="opacity:1" fill="#563329" d="M 2384.5,1497.5 C 2398.31,1497.57 2410.98,1501.41 2422.5,1509C 2424.54,1510.71 2426.21,1512.71 2427.5,1515C 2412.5,1509.18 2396.83,1505.85 2380.5,1505C 2379.55,1504.28 2379.38,1503.45 2380,1502.5C 2381.37,1500.64 2382.87,1498.97 2384.5,1497.5 Z"/></g>
<g><path style="opacity:1" fill="#523027" d="M 2277.5,1556.5 C 2274.16,1557.78 2270.82,1557.62 2267.5,1556C 2263.97,1553.64 2260.97,1550.8 2258.5,1547.5C 2256.29,1538.97 2257.46,1530.97 2262,1523.5C 2272.2,1513.6 2281.53,1514.27 2290,1525.5C 2294.44,1539.48 2290.27,1549.82 2277.5,1556.5 Z"/></g>
<g><path style="opacity:1" fill="#664333" d="M 639.5,1525.5 C 656.552,1525.14 673.552,1525.81 690.5,1527.5C 698.265,1527.76 705.932,1528.76 713.5,1530.5C 709.296,1543.2 701.296,1552.7 689.5,1559C 692.69,1561.36 695.69,1563.86 698.5,1566.5C 662.276,1585.41 623.943,1598.24 583.5,1605C 539.471,1612.58 495.138,1615.08 450.5,1612.5C 456.953,1600.04 465.953,1589.71 477.5,1581.5C 539.65,1585.68 593.65,1567.01 639.5,1525.5 Z"/></g>
<g><path style="opacity:1" fill="#533027" d="M 2403.5,1573.5 C 2402.51,1573.33 2401.84,1573.66 2401.5,1574.5C 2395.18,1575.42 2390.02,1573.42 2386,1568.5C 2380.15,1556.85 2381.65,1546.35 2390.5,1537C 2402.36,1530.85 2410.86,1534.01 2416,1546.5C 2418.25,1558.67 2414.08,1567.67 2403.5,1573.5 Z"/></g>
<g><path style="opacity:1" fill="#d97d61" d="M 2336.5,1539.5 C 2338.14,1539.29 2339.64,1539.62 2341,1540.5C 2342.35,1550.58 2341.02,1560.24 2337,1569.5C 2335.38,1571.73 2333.21,1573.06 2330.5,1573.5C 2323.88,1571.11 2317.21,1570.95 2310.5,1573C 2304.59,1578.47 2303.09,1584.97 2306,1592.5C 2310.11,1597.76 2315.61,1600.43 2322.5,1600.5C 2326.5,1599.81 2330.5,1599.64 2334.5,1600C 2336.47,1604.05 2335.14,1606.05 2330.5,1606C 2306.12,1609.62 2295.95,1599.45 2300,1575.5C 2302.66,1569.74 2307.16,1566.24 2313.5,1565C 2319.64,1564.35 2325.64,1564.68 2331.5,1566C 2334.56,1557.41 2336.22,1548.58 2336.5,1539.5 Z"/></g>
<g><path style="opacity:1" fill="#f79c7f" d="M 2258.5,1547.5 C 2260.97,1550.8 2263.97,1553.64 2267.5,1556C 2270.82,1557.62 2274.16,1557.78 2277.5,1556.5C 2294.74,1573.7 2298.07,1593.36 2287.5,1615.5C 2284.14,1614.96 2280.8,1614.29 2277.5,1613.5C 2288.09,1595.73 2286.42,1579.23 2272.5,1564C 2253.49,1551.3 2235.99,1553.14 2220,1569.5C 2209.76,1584.75 2210.09,1599.75 2221,1614.5C 2238.32,1630.92 2256.15,1631.59 2274.5,1616.5C 2274.5,1620.5 2274.5,1624.5 2274.5,1628.5C 2252.79,1640.2 2232.79,1637.87 2214.5,1621.5C 2212.08,1614.12 2210.41,1606.45 2209.5,1598.5C 2208.35,1586.34 2208.35,1574.34 2209.5,1562.5C 2209.34,1564.86 2209.5,1567.19 2210,1569.5C 2210.56,1567.27 2211.56,1565.27 2213,1563.5C 2225.11,1549.53 2240.28,1544.19 2258.5,1547.5 Z"/></g>
<g><path style="opacity:1" fill="#f5957a" d="M 2277.5,1613.5 C 2276.1,1614.1 2275.1,1615.1 2274.5,1616.5C 2256.15,1631.59 2238.32,1630.92 2221,1614.5C 2210.09,1599.75 2209.76,1584.75 2220,1569.5C 2235.99,1553.14 2253.49,1551.3 2272.5,1564C 2286.42,1579.23 2288.09,1595.73 2277.5,1613.5 Z"/></g>
<g><path style="opacity:1" fill="#f28d73" d="M 2242.5,1564.5 C 2258.66,1562.66 2269.5,1569.33 2275,1584.5C 2277.01,1606.82 2266.84,1617.99 2244.5,1618C 2226.56,1612.72 2219.39,1600.89 2223,1582.5C 2226.54,1573.12 2233.04,1567.12 2242.5,1564.5 Z"/></g>
<g><path style="opacity:0.998" fill="#502f26" d="M 698.5,1566.5 C 716.369,1581.53 730.703,1599.36 741.5,1620C 741.095,1620.95 740.428,1621.61 739.5,1622C 737,1622.17 734.5,1622.33 732,1622.5C 725.677,1622.16 719.511,1621.33 713.5,1620C 723.713,1651.66 728.38,1684.16 727.5,1717.5C 721.997,1700.83 716.164,1684.16 710,1667.5C 695.616,1648.42 677.782,1633.92 656.5,1624C 665.905,1634.31 672.571,1646.14 676.5,1659.5C 646.898,1660.67 618.565,1655.51 591.5,1644C 600.434,1649.6 607.268,1657.1 612,1666.5C 612.667,1668.17 612.667,1669.83 612,1671.5C 595.708,1677.39 578.875,1680.06 561.5,1679.5C 561.388,1685.46 558.388,1689.29 552.5,1691C 529.423,1696.48 506.09,1698.64 482.5,1697.5C 481.664,1705.49 481.831,1713.49 483,1721.5C 485.717,1743.08 488.551,1764.58 491.5,1786C 482.63,1785.93 473.963,1787.09 465.5,1789.5C 458.155,1772.98 450.321,1756.65 442,1740.5C 435.243,1726.9 430.909,1712.56 429,1697.5C 429.061,1690.13 428.894,1682.8 428.5,1675.5C 419.668,1672.65 412.835,1675.32 408,1683.5C 408.386,1666.1 417.22,1655.6 434.5,1652C 425.356,1641.94 421.856,1630.11 424,1616.5C 424.406,1612.73 425.239,1609.06 426.5,1605.5C 428.919,1615.77 433.253,1625.11 439.5,1633.5C 442.401,1626.03 446.068,1619.03 450.5,1612.5C 495.138,1615.08 539.471,1612.58 583.5,1605C 623.943,1598.24 662.276,1585.41 698.5,1566.5 Z"/></g>
<g><path style="opacity:1" fill="#ef856d" d="M 2247.5,1572.5 C 2259.35,1573.35 2266.02,1579.69 2267.5,1591.5C 2263.3,1608.43 2253.3,1613.27 2237.5,1606C 2229.17,1597.54 2228.34,1588.38 2235,1578.5C 2238.81,1575.51 2242.98,1573.51 2247.5,1572.5 Z"/></g>
<g><path style="opacity:0.866" fill="#fdfaf9" d="M 2201.5,1577.5 C 2204.02,1584.56 2206.68,1591.56 2209.5,1598.5C 2210.41,1606.45 2212.08,1614.12 2214.5,1621.5C 2214.83,1623.5 2215.17,1625.5 2215.5,1627.5C 2200.9,1613.7 2196.24,1597.03 2201.5,1577.5 Z"/></g>
<g><path style="opacity:1" fill="#f49277" d="M 2403.5,1573.5 C 2422.31,1572.33 2436.48,1579.99 2446,1596.5C 2453.07,1616.3 2448.23,1632.46 2431.5,1645C 2410,1655.55 2392,1651.38 2377.5,1632.5C 2377.62,1630.8 2377.95,1629.13 2378.5,1627.5C 2378.25,1626.29 2377.59,1625.62 2376.5,1625.5C 2376.17,1625.5 2375.83,1625.5 2375.5,1625.5C 2369.02,1600.79 2377.69,1583.79 2401.5,1574.5C 2401.84,1573.66 2402.51,1573.33 2403.5,1573.5 Z"/></g>
<g><path style="opacity:1" fill="#ef846d" d="M 2407.5,1592.5 C 2425.79,1593.29 2432.96,1602.63 2429,1620.5C 2425.02,1628.13 2418.69,1632.13 2410,1632.5C 2395.58,1629.67 2389.58,1621 2392,1606.5C 2394.88,1599.11 2400.04,1594.45 2407.5,1592.5 Z"/></g>
<g><path style="opacity:0.994" fill="#faa284" d="M 828.5,1934.5 C 817.04,1920.54 804.04,1908.04 789.5,1897C 781.086,1892.29 772.419,1888.45 763.5,1885.5C 785.701,1858.8 805.201,1830.13 822,1799.5C 845.088,1757.66 865.754,1714.66 884,1670.5C 882.377,1655.04 879.71,1639.71 876,1624.5C 874.618,1618.35 872.451,1612.52 869.5,1607C 879.173,1602.8 886.673,1605.3 892,1614.5C 893.64,1618.39 894.973,1622.39 896,1626.5C 914.851,1616 933.685,1605.5 952.5,1595C 958.679,1595.18 961.179,1598.35 960,1604.5C 950.301,1611.03 940.468,1617.36 930.5,1623.5C 930.833,1623.83 931.167,1624.17 931.5,1624.5C 942.725,1620.06 954.058,1615.89 965.5,1612C 970.956,1610.89 974.289,1613.06 975.5,1618.5C 975.152,1620.7 974.152,1622.53 972.5,1624C 960.988,1628.73 949.321,1633.06 937.5,1637C 949.424,1635.35 961.424,1634.35 973.5,1634C 977.5,1638 977.5,1642 973.5,1646C 962.529,1647.85 951.529,1649.52 940.5,1651C 949.832,1652.33 959.166,1653.67 968.5,1655C 975.072,1658.04 975.739,1662.04 970.5,1667C 969.5,1667.17 968.5,1667.33 967.5,1667.5C 958.174,1665.9 948.84,1664.74 939.5,1664C 931.253,1668.37 923.086,1672.87 915,1677.5C 914.429,1733.12 903.095,1786.45 881,1837.5C 866.582,1871.68 849.082,1904.01 828.5,1934.5 Z"/></g>
<g><path style="opacity:0.984" fill="#502f26" d="M 2657.5,1599.5 C 2657.09,1608.17 2656.93,1616.84 2657,1625.5C 2657.69,1628.2 2659.19,1630.36 2661.5,1632C 2666.38,1633.55 2671.38,1633.89 2676.5,1633C 2681.93,1631.26 2687.27,1629.6 2692.5,1628C 2683.69,1639.81 2672.36,1648.15 2658.5,1653C 2647.27,1655.04 2638.27,1651.54 2631.5,1642.5C 2640.17,1628.16 2648.84,1613.83 2657.5,1599.5 Z"/></g>
<g><path style="opacity:1" fill="#3a3c3f" d="M 1002.5,1608.5 C 1059.86,1623.29 1118.2,1631.79 1177.5,1634C 1258.69,1636.69 1339.35,1631.53 1419.5,1618.5C 1419.37,1620.29 1419.7,1621.96 1420.5,1623.5C 1419.35,1623.79 1418.68,1624.62 1418.5,1626C 1422.76,1670.1 1426.09,1714.26 1428.5,1758.5C 1361.77,1757.85 1295.43,1752.51 1229.5,1742.5C 1228.1,1736.36 1227.1,1730.03 1226.5,1723.5C 1218.49,1723.57 1210.49,1723.9 1202.5,1724.5C 1202.5,1727.5 1202.5,1730.5 1202.5,1733.5C 1201.57,1734.57 1201.23,1735.9 1201.5,1737.5C 1133.22,1727.27 1067.22,1708.93 1003.5,1682.5C 1002.5,1657.84 1002.17,1633.18 1002.5,1608.5 Z"/></g>
<g><path style="opacity:0.996" fill="#47494e" d="M 1001.5,1608.5 C 1001.83,1608.5 1002.17,1608.5 1002.5,1608.5C 1002.17,1633.18 1002.5,1657.84 1003.5,1682.5C 1067.22,1708.93 1133.22,1727.27 1201.5,1737.5C 1201.23,1735.9 1201.57,1734.57 1202.5,1733.5C 1198.19,1851.49 1194.19,1969.49 1190.5,2087.5C 1185.49,2103.02 1180.33,2118.69 1175,2134.5C 1166.34,2158.16 1154.34,2179.83 1139,2199.5C 1103.9,2239.39 1061.4,2249.89 1011.5,2231C 1007.18,2229.06 1002.85,2227.23 998.5,2225.5C 999.767,2019.83 1000.77,1814.17 1001.5,1608.5 Z"/></g>
<g><path style="opacity:1" fill="#fefbfb" d="M 2277.5,1613.5 C 2280.8,1614.29 2284.14,1614.96 2287.5,1615.5C 2291.93,1617.09 2296.6,1618.26 2301.5,1619C 2325.97,1623.47 2350.63,1625.64 2375.5,1625.5C 2375.83,1625.5 2376.17,1625.5 2376.5,1625.5C 2374.6,1632.56 2369.93,1636.72 2362.5,1638C 2342.12,1641.53 2321.78,1641.19 2301.5,1637C 2293.24,1635.12 2286.07,1631.29 2280,1625.5C 2277.87,1621.79 2277.03,1617.79 2277.5,1613.5 Z"/></g>
<g><path style="opacity:1" fill="#ce403f" d="M 2277.5,1613.5 C 2277.03,1617.79 2277.87,1621.79 2280,1625.5C 2286.07,1631.29 2293.24,1635.12 2301.5,1637C 2321.78,1641.19 2342.12,1641.53 2362.5,1638C 2369.93,1636.72 2374.6,1632.56 2376.5,1625.5C 2377.59,1625.62 2378.25,1626.29 2378.5,1627.5C 2377.95,1629.13 2377.62,1630.8 2377.5,1632.5C 2374.63,1638.57 2371.47,1644.57 2368,1650.5C 2353.64,1668.62 2335.14,1674.79 2312.5,1669C 2290.66,1663.99 2277.99,1650.49 2274.5,1628.5C 2274.5,1624.5 2274.5,1620.5 2274.5,1616.5C 2275.1,1615.1 2276.1,1614.1 2277.5,1613.5 Z"/></g>
<g><path style="opacity:0.999" fill="#f9a183" d="M 727.5,1717.5 C 731.449,1731.29 734.449,1745.29 736.5,1759.5C 737.595,1764.51 738.595,1769.51 739.5,1774.5C 739.5,1777.17 739.5,1779.83 739.5,1782.5C 727.101,1763.73 710.435,1758.89 689.5,1768C 672.42,1780.08 667.753,1795.91 675.5,1815.5C 674.005,1815.99 672.671,1816.66 671.5,1817.5C 649.541,1823.96 627.208,1828.63 604.5,1831.5C 603.624,1831.37 602.957,1831.7 602.5,1832.5C 618.095,1870.3 643.095,1878.13 677.5,1856C 685.145,1849.21 689.478,1840.71 690.5,1830.5C 711.822,1839.34 728.488,1834.01 740.5,1814.5C 740.007,1816.81 739.674,1819.14 739.5,1821.5C 738.927,1826.85 738.26,1832.18 737.5,1837.5C 730.382,1868.78 712.382,1891.28 683.5,1905C 671.843,1909.94 659.843,1913.77 647.5,1916.5C 629.939,1919.26 612.272,1920.09 594.5,1919C 588.112,1917.65 581.779,1916.15 575.5,1914.5C 553.38,1907.95 535.714,1895.28 522.5,1876.5C 521.431,1874.03 520.098,1871.7 518.5,1869.5C 541.398,1882.01 562.565,1879.68 582,1862.5C 593.673,1849.14 597.34,1833.81 593,1816.5C 588.613,1801.62 579.446,1790.95 565.5,1784.5C 568.386,1773.71 575.386,1769.55 586.5,1772C 589,1772.83 591.5,1773.67 594,1774.5C 596.64,1772.88 597.973,1770.55 598,1767.5C 578.298,1757.34 564.131,1762.34 555.5,1782.5C 534.123,1779.61 517.29,1786.94 505,1804.5C 494.878,1824.52 496.712,1843.19 510.5,1860.5C 508.861,1861.47 507.527,1862.81 506.5,1864.5C 489.833,1871.87 476,1868.21 465,1853.5C 455.776,1841.49 450.276,1827.99 448.5,1813C 449.399,1801.7 455.066,1793.86 465.5,1789.5C 473.963,1787.09 482.63,1785.93 491.5,1786C 488.551,1764.58 485.717,1743.08 483,1721.5C 481.831,1713.49 481.664,1705.49 482.5,1697.5C 506.09,1698.64 529.423,1696.48 552.5,1691C 558.388,1689.29 561.388,1685.46 561.5,1679.5C 578.875,1680.06 595.708,1677.39 612,1671.5C 612.667,1669.83 612.667,1668.17 612,1666.5C 607.268,1657.1 600.434,1649.6 591.5,1644C 618.565,1655.51 646.898,1660.67 676.5,1659.5C 672.571,1646.14 665.905,1634.31 656.5,1624C 677.782,1633.92 695.616,1648.42 710,1667.5C 716.164,1684.16 721.997,1700.83 727.5,1717.5 Z"/></g>
<g><path style="opacity:0.996" fill="#47494e" d="M 1420.5,1623.5 C 1435.17,1801.17 1449.83,1978.83 1464.5,2156.5C 1457.44,2173.96 1449.27,2190.96 1440,2207.5C 1431.92,2220.25 1421.75,2231.08 1409.5,2240C 1393.5,2249.1 1377.17,2249.77 1360.5,2242C 1352.29,2237.79 1344.63,2232.79 1337.5,2227C 1315.87,2206.55 1297.87,2183.38 1283.5,2157.5C 1283.04,2156.7 1282.38,2156.37 1281.5,2156.5C 1264,2018.52 1246.67,1880.52 1229.5,1742.5C 1295.43,1752.51 1361.77,1757.85 1428.5,1758.5C 1426.09,1714.26 1422.76,1670.1 1418.5,1626C 1418.68,1624.62 1419.35,1623.79 1420.5,1623.5 Z"/></g>
<g><path style="opacity:0.998" fill="#61e1cc" d="M 2491.5,1648.5 C 2499.25,1649.35 2506.92,1650.69 2514.5,1652.5C 2514.37,1653.38 2514.7,1654.04 2515.5,1654.5C 2527.22,1660.05 2537.39,1667.72 2546,1677.5C 2555.52,1689.88 2564.02,1702.88 2571.5,1716.5C 2574.62,1723.37 2577.12,1730.37 2579,1737.5C 2544.97,1770.19 2510.97,1802.86 2477,1835.5C 2477.29,1839.89 2478.12,1844.22 2479.5,1848.5C 2472.67,1899.17 2460.17,1948.5 2442,1996.5C 2432.56,2021.23 2418.73,2043.06 2400.5,2062C 2397.01,2064.91 2393.34,2067.58 2389.5,2070C 2424.86,2066.74 2459.19,2058.91 2492.5,2046.5C 2493.91,2037.9 2494.75,2029.23 2495,2020.5C 2495.23,1995.33 2495.4,1970.33 2495.5,1945.5C 2496.93,1979.2 2496.76,2012.86 2495,2046.5C 2560.83,2133.5 2626.67,2220.5 2692.5,2307.5C 2646.56,2338.64 2597.56,2364.3 2545.5,2384.5C 2514.99,2395.21 2483.99,2404.21 2452.5,2411.5C 2421.89,2418.2 2390.89,2422.2 2359.5,2423.5C 2325.35,2424.55 2291.35,2422.88 2257.5,2418.5C 2211.4,2411.98 2167.4,2398.64 2125.5,2378.5C 2125.17,2377.67 2124.83,2376.83 2124.5,2376C 2151.18,2264.41 2178.18,2152.91 2205.5,2041.5C 2204.2,2027.2 2203.2,2012.86 2202.5,1998.5C 2203.44,1993.93 2203.77,1989.26 2203.5,1984.5C 2201.84,1945.16 2204.68,1906.16 2212,1867.5C 2217.04,1839.53 2226.54,1813.2 2240.5,1788.5C 2240.38,1787.89 2240.04,1787.56 2239.5,1787.5C 2250.49,1769.01 2264.82,1753.51 2282.5,1741C 2289.46,1736.68 2296.8,1733.18 2304.5,1730.5C 2304.33,1734.18 2304.5,1737.85 2305,1741.5C 2315.98,1755.72 2330.48,1761.56 2348.5,1759C 2359.96,1756.87 2369.46,1751.37 2377,1742.5C 2377.22,1737.75 2377.72,1733.08 2378.5,1728.5C 2387.77,1731.2 2396.77,1734.37 2405.5,1738C 2426.75,1714.59 2447.42,1690.76 2467.5,1666.5C 2468.17,1666.5 2468.5,1666.17 2468.5,1665.5C 2474.33,1660.5 2479.66,1655 2484.5,1649C 2486.81,1648.5 2489.14,1648.34 2491.5,1648.5 Z"/></g>
<g><path style="opacity:0.994" fill="#faa284" d="M 463.5,1900.5 C 452.085,1906.73 441.918,1914.73 433,1924.5C 424.704,1935.46 417.204,1946.79 410.5,1958.5C 365.06,1910.66 329.893,1856 305,1794.5C 297.298,1773.36 291.631,1751.69 288,1729.5C 279.284,1726.21 270.45,1723.21 261.5,1720.5C 252.209,1724.74 242.543,1727.24 232.5,1728C 229.833,1724.67 229.833,1721.33 232.5,1718C 241.374,1714.6 250.374,1711.6 259.5,1709C 248.865,1709.54 238.199,1709.54 227.5,1709C 222.167,1705 222.167,1701 227.5,1697C 238.514,1696.57 249.514,1695.9 260.5,1695C 248.449,1692.88 236.449,1690.55 224.5,1688C 219.898,1682.02 221.231,1677.86 228.5,1675.5C 240.431,1678.1 252.431,1679.93 264.5,1681C 254.534,1677.01 244.534,1673.01 234.5,1669C 230.818,1661.35 233.152,1657.68 241.5,1658C 259.644,1664.99 277.977,1671.49 296.5,1677.5C 297.103,1671.08 298.937,1665.08 302,1659.5C 306.523,1654.58 312.023,1653.24 318.5,1655.5C 316.243,1663.31 315.077,1671.31 315,1679.5C 314.039,1692.6 314.372,1705.6 316,1718.5C 349.712,1772.9 388.046,1823.9 431,1871.5C 441.381,1881.72 452.214,1891.38 463.5,1900.5 Z"/></g>
<g><path style="opacity:0.98" fill="#512f26" d="M 2613.5,1666.5 C 2612.99,1672.07 2613.82,1677.41 2616,1682.5C 2618.45,1685.47 2621.61,1686.97 2625.5,1687C 2615.57,1697.47 2606.57,1696.97 2598.5,1685.5C 2603.15,1678.85 2608.15,1672.52 2613.5,1666.5 Z"/></g>
<g><path style="opacity:1" fill="#563329" d="M 681.5,1692.5 C 688.167,1692.5 694.833,1692.5 701.5,1692.5C 701.5,1694.83 701.5,1697.17 701.5,1699.5C 684.327,1700.4 667.661,1703.73 651.5,1709.5C 650.079,1705.97 649.412,1702.31 649.5,1698.5C 660.174,1695.83 670.841,1693.83 681.5,1692.5 Z"/></g>
<g><path style="opacity:0.991" fill="#ef8d72" d="M 2378.5,1704.5 C 2378.5,1705.83 2378.5,1707.17 2378.5,1708.5C 2355.22,1721.39 2330.55,1724.72 2304.5,1718.5C 2304.5,1713.17 2304.5,1707.83 2304.5,1702.5C 2304.56,1701.96 2304.89,1701.62 2305.5,1701.5C 2329.59,1708.17 2353.92,1709.17 2378.5,1704.5 Z"/></g>
<g><path style="opacity:0.999" fill="#f9a284" d="M 2378.5,1708.5 C 2378.5,1715.17 2378.5,1721.83 2378.5,1728.5C 2377.72,1733.08 2377.22,1737.75 2377,1742.5C 2369.46,1751.37 2359.96,1756.87 2348.5,1759C 2330.48,1761.56 2315.98,1755.72 2305,1741.5C 2304.5,1737.85 2304.33,1734.18 2304.5,1730.5C 2304.5,1726.5 2304.5,1722.5 2304.5,1718.5C 2330.55,1724.72 2355.22,1721.39 2378.5,1708.5 Z"/></g>
<g><path style="opacity:1" fill="#543228" d="M 576.5,1717.5 C 577.675,1717.28 578.675,1717.61 579.5,1718.5C 581.375,1721.24 582.042,1724.07 581.5,1727C 564.614,1730.91 548.614,1737.07 533.5,1745.5C 530.229,1743.24 529.896,1740.74 532.5,1738C 546.324,1729.25 560.99,1722.42 576.5,1717.5 Z"/></g>
<g><path style="opacity:1" fill="#543228" d="M 685.5,1730.5 C 693.525,1729.81 701.192,1731.14 708.5,1734.5C 709.583,1735.36 709.749,1736.36 709,1737.5C 708.359,1739.81 707.026,1741.48 705,1742.5C 689.452,1734.72 679.619,1739.05 675.5,1755.5C 672.5,1755.5 669.5,1755.5 666.5,1755.5C 667.993,1743.36 674.326,1735.02 685.5,1730.5 Z"/></g>
<g><path style="opacity:1" fill="#d97d61" d="M 629.5,1745.5 C 630.822,1745.33 631.989,1745.66 633,1746.5C 634.551,1753.37 636.718,1760.04 639.5,1766.5C 640.167,1766.83 640.833,1767.17 641.5,1767.5C 656.736,1759.29 666.903,1763.29 672,1779.5C 672.627,1791.89 666.794,1799.39 654.5,1802C 650.848,1802.5 647.182,1802.67 643.5,1802.5C 643.261,1800.53 643.594,1798.7 644.5,1797C 651.922,1797.36 658.422,1795.19 664,1790.5C 668.267,1781.97 666.433,1775.14 658.5,1770C 652.08,1769.23 646.246,1770.73 641,1774.5C 635.427,1771.57 632.093,1766.9 631,1760.5C 628.997,1755.55 628.497,1750.55 629.5,1745.5 Z"/></g>
<g><path style="opacity:0.999" fill="#f9a183" d="M 2084.5,1924.5 C 2101.15,1935.5 2118.49,1945.5 2136.5,1954.5C 2141.07,1950.33 2145.4,1945.99 2149.5,1941.5C 2158.31,1957.81 2170.98,1970.31 2187.5,1979C 2192.61,1981.54 2197.94,1983.37 2203.5,1984.5C 2203.77,1989.26 2203.44,1993.93 2202.5,1998.5C 2190.09,2012.06 2175.76,2023.23 2159.5,2032C 2143.54,2037.9 2127.54,2037.9 2111.5,2032C 2101.87,2028.19 2092.87,2023.35 2084.5,2017.5C 2072.02,2008.4 2060.02,1998.57 2048.5,1988C 2017.61,1957.46 1990.11,1924.29 1966,1888.5C 1962.63,1884.8 1958.97,1881.46 1955,1878.5C 1942.33,1862.16 1933.66,1843.82 1929,1823.5C 1928.16,1818.08 1928.49,1812.75 1930,1807.5C 1940.89,1786.95 1956.72,1771.45 1977.5,1761C 1979.5,1760.33 1981.5,1760.33 1983.5,1761C 1993.11,1768.37 1998.44,1778.2 1999.5,1790.5C 2005.14,1790.57 2009.64,1792.9 2013,1797.5C 2026.05,1822.33 2027.71,1847.67 2018,1873.5C 2038.52,1892.82 2060.68,1909.82 2084.5,1924.5 Z"/></g>
<g><path style="opacity:1" fill="#553228" d="M 565.5,1784.5 C 564.859,1786.04 563.859,1787.38 562.5,1788.5C 560.253,1787.63 557.92,1787.29 555.5,1787.5C 555.5,1785.83 555.5,1784.17 555.5,1782.5C 564.131,1762.34 578.298,1757.34 598,1767.5C 597.973,1770.55 596.64,1772.88 594,1774.5C 591.5,1773.67 589,1772.83 586.5,1772C 575.386,1769.55 568.386,1773.71 565.5,1784.5 Z"/></g>
<g><path style="opacity:0.987" fill="#fef7f6" d="M 736.5,1759.5 C 749.878,1769.09 756.545,1782.25 756.5,1799C 756.638,1815.22 750.305,1828.06 737.5,1837.5C 738.26,1832.18 738.927,1826.85 739.5,1821.5C 740.496,1821.59 741.329,1821.25 742,1820.5C 747.602,1809.69 748.935,1798.36 746,1786.5C 744.582,1781.99 742.415,1777.99 739.5,1774.5C 738.595,1769.51 737.595,1764.51 736.5,1759.5 Z"/></g>
<g><path style="opacity:1" fill="#f38f75" d="M 739.5,1782.5 C 740.476,1793.09 740.809,1803.75 740.5,1814.5C 728.488,1834.01 711.822,1839.34 690.5,1830.5C 690.666,1825.82 690.499,1821.15 690,1816.5C 689.901,1814.35 689.067,1812.68 687.5,1811.5C 683.574,1813.03 679.574,1814.36 675.5,1815.5C 667.753,1795.91 672.42,1780.08 689.5,1768C 710.435,1758.89 727.101,1763.73 739.5,1782.5 Z"/></g>
<g><path style="opacity:0.986" fill="#fbe6e2" d="M 739.5,1774.5 C 742.415,1777.99 744.582,1781.99 746,1786.5C 748.935,1798.36 747.602,1809.69 742,1820.5C 741.329,1821.25 740.496,1821.59 739.5,1821.5C 739.674,1819.14 740.007,1816.81 740.5,1814.5C 740.809,1803.75 740.476,1793.09 739.5,1782.5C 739.5,1779.83 739.5,1777.17 739.5,1774.5 Z"/></g>
<g><path style="opacity:1" fill="#ef856d" d="M 703.5,1780.5 C 721.44,1781.04 728.273,1790.04 724,1807.5C 714.118,1819.98 703.451,1820.65 692,1809.5C 686.176,1795.78 690.01,1786.11 703.5,1780.5 Z"/></g>
<g><path style="opacity:1" fill="#f79b7f" d="M 555.5,1782.5 C 555.5,1784.17 555.5,1785.83 555.5,1787.5C 557.92,1787.29 560.253,1787.63 562.5,1788.5C 563.859,1787.38 564.859,1786.04 565.5,1784.5C 579.446,1790.95 588.613,1801.62 593,1816.5C 597.34,1833.81 593.673,1849.14 582,1862.5C 562.565,1879.68 541.398,1882.01 518.5,1869.5C 516.68,1865.86 514.847,1862.19 513,1858.5C 512.292,1859.38 511.458,1860.05 510.5,1860.5C 496.712,1843.19 494.878,1824.52 505,1804.5C 517.29,1786.94 534.123,1779.61 555.5,1782.5 Z"/></g>
<g><path style="opacity:1" fill="#f49277" d="M 546.5,1790.5 C 571.657,1793.81 584.657,1807.98 585.5,1833C 579.677,1858.59 563.677,1869.92 537.5,1867C 516,1859.53 506.5,1844.36 509,1821.5C 514.737,1802.93 527.237,1792.59 546.5,1790.5 Z"/></g>
<g><path style="opacity:0.997" fill="#58ccb6" d="M 2239.5,1787.5 C 2240.04,1787.56 2240.38,1787.89 2240.5,1788.5C 2226.54,1813.2 2217.04,1839.53 2212,1867.5C 2204.68,1906.16 2201.84,1945.16 2203.5,1984.5C 2197.94,1983.37 2192.61,1981.54 2187.5,1979C 2170.98,1970.31 2158.31,1957.81 2149.5,1941.5C 2147.01,1935.87 2145.01,1930.03 2143.5,1924C 2175.38,1878.4 2207.38,1832.9 2239.5,1787.5 Z"/></g>
<g><path style="opacity:1" fill="#ef856d" d="M 542.5,1809.5 C 558.99,1809.16 566.823,1817.16 566,1833.5C 563.691,1843.31 557.524,1848.64 547.5,1849.5C 535.287,1848.29 528.287,1841.62 526.5,1829.5C 527.803,1819.54 533.136,1812.87 542.5,1809.5 Z"/></g>
<g><path style="opacity:1" fill="#fadfda" d="M 687.5,1811.5 C 688.806,1819.21 686.14,1824.88 679.5,1828.5C 676.577,1824.97 673.91,1821.31 671.5,1817.5C 672.671,1816.66 674.005,1815.99 675.5,1815.5C 679.574,1814.36 683.574,1813.03 687.5,1811.5 Z"/></g>
<g><path style="opacity:1" fill="#fefbfb" d="M 671.5,1817.5 C 673.91,1821.31 676.577,1824.97 679.5,1828.5C 677.747,1830.22 675.747,1831.72 673.5,1833C 654.544,1841.26 634.877,1843.93 614.5,1841C 609.326,1839.66 605.992,1836.49 604.5,1831.5C 627.208,1828.63 649.541,1823.96 671.5,1817.5 Z"/></g>
<g><path style="opacity:1" fill="#cf403f" d="M 687.5,1811.5 C 689.067,1812.68 689.901,1814.35 690,1816.5C 690.499,1821.15 690.666,1825.82 690.5,1830.5C 689.478,1840.71 685.145,1849.21 677.5,1856C 643.095,1878.13 618.095,1870.3 602.5,1832.5C 602.957,1831.7 603.624,1831.37 604.5,1831.5C 605.992,1836.49 609.326,1839.66 614.5,1841C 634.877,1843.93 654.544,1841.26 673.5,1833C 675.747,1831.72 677.747,1830.22 679.5,1828.5C 686.14,1824.88 688.806,1819.21 687.5,1811.5 Z"/></g>
<g><path style="opacity:1" fill="#58ccb6" d="M 2479.5,1848.5 C 2487.97,1880.32 2493.3,1912.65 2495.5,1945.5C 2495.4,1970.33 2495.23,1995.33 2495,2020.5C 2494.75,2029.23 2493.91,2037.9 2492.5,2046.5C 2459.19,2058.91 2424.86,2066.74 2389.5,2070C 2393.34,2067.58 2397.01,2064.91 2400.5,2062C 2418.73,2043.06 2432.56,2021.23 2442,1996.5C 2460.17,1948.5 2472.67,1899.17 2479.5,1848.5 Z"/></g>
<g><path style="opacity:0.832" fill="#fefaf9" d="M 518.5,1869.5 C 520.098,1871.7 521.431,1874.03 522.5,1876.5C 516.451,1873.47 511.118,1869.47 506.5,1864.5C 507.527,1862.81 508.861,1861.47 510.5,1860.5C 511.458,1860.05 512.292,1859.38 513,1858.5C 514.847,1862.19 516.68,1865.86 518.5,1869.5 Z"/></g>
<g><path style="opacity:0.999" fill="#fe6363" d="M 763.5,1885.5 C 772.419,1888.45 781.086,1892.29 789.5,1897C 804.04,1908.04 817.04,1920.54 828.5,1934.5C 832.27,1940.53 835.936,1946.7 839.5,1953C 806.167,1994.33 772.833,2035.67 739.5,2077C 755.844,2151.66 761.511,2227.16 756.5,2303.5C 717.548,2317.12 677.382,2323.45 636,2322.5C 588.553,2321.02 541.72,2315.02 495.5,2304.5C 495.667,2228.5 495.5,2152.5 495,2076.5C 465.034,2043.53 434.701,2010.87 404,1978.5C 405.833,1971.81 408,1965.14 410.5,1958.5C 417.204,1946.79 424.704,1935.46 433,1924.5C 441.918,1914.73 452.085,1906.73 463.5,1900.5C 472.549,1897.27 481.883,1896.1 491.5,1897C 508.5,1915.33 525.5,1933.67 542.5,1952C 553.407,1949.69 564.407,1947.53 575.5,1945.5C 576.327,1950.99 576.827,1956.65 577,1962.5C 591.274,1979.03 608.774,1983.53 629.5,1976C 636.892,1972.93 642.725,1968.1 647,1961.5C 647.499,1956.51 647.666,1951.51 647.5,1946.5C 658.54,1948.79 669.373,1951.79 680,1955.5C 697.954,1932.42 715.788,1909.26 733.5,1886C 743.474,1884.2 753.474,1884.03 763.5,1885.5 Z"/></g>
<g><path style="opacity:0.987" fill="#ef8d72" d="M 575.5,1914.5 C 581.779,1916.15 588.112,1917.65 594.5,1919C 612.272,1920.09 629.939,1919.26 647.5,1916.5C 647.5,1924.5 647.5,1932.5 647.5,1940.5C 634.887,1942.23 622.22,1942.73 609.5,1942C 597.197,1940.34 585.864,1936.18 575.5,1929.5C 575.5,1924.5 575.5,1919.5 575.5,1914.5 Z"/></g>
<g><path style="opacity:0.997" fill="#faa183" d="M 575.5,1929.5 C 585.864,1936.18 597.197,1940.34 609.5,1942C 622.22,1942.73 634.887,1942.23 647.5,1940.5C 647.5,1942.5 647.5,1944.5 647.5,1946.5C 647.666,1951.51 647.499,1956.51 647,1961.5C 642.725,1968.1 636.892,1972.93 629.5,1976C 608.774,1983.53 591.274,1979.03 577,1962.5C 576.827,1956.65 576.327,1950.99 575.5,1945.5C 575.5,1940.17 575.5,1934.83 575.5,1929.5 Z"/></g>
<g><path style="opacity:0.996" fill="#ef8c72" d="M 2020.5,2079.5 C 2027.32,2102.44 2032.66,2125.44 2036.5,2148.5C 2007.3,2139.45 1977.3,2134.28 1946.5,2133C 1929.49,2132.35 1912.49,2132.52 1895.5,2133.5C 1893.26,2124.67 1891.26,2115.67 1889.5,2106.5C 1933.65,2100.38 1977.32,2091.38 2020.5,2079.5 Z"/></g>
<g><path style="opacity:0.999" fill="#3a3c3f" d="M 1190.5,2087.5 C 1183.98,2283.01 1176.98,2478.34 1169.5,2673.5C 1132.08,2687.5 1093.75,2690.33 1054.5,2682C 1040.47,2679.24 1026.8,2675.41 1013.5,2670.5C 1007.72,2668.77 1002.05,2666.77 996.5,2664.5C 996.984,2518.17 997.651,2371.83 998.5,2225.5C 1002.85,2227.23 1007.18,2229.06 1011.5,2231C 1061.4,2249.89 1103.9,2239.39 1139,2199.5C 1154.34,2179.83 1166.34,2158.16 1175,2134.5C 1180.33,2118.69 1185.49,2103.02 1190.5,2087.5 Z"/></g>
<g><path style="opacity:1" fill="#ef8d72" d="M 1659.5,2102.5 C 1705.9,2110.15 1752.56,2113.81 1799.5,2113.5C 1808.84,2135.84 1816.17,2158.84 1821.5,2182.5C 1773.82,2162.5 1724.16,2150.5 1672.5,2146.5C 1667.77,2131.97 1663.43,2117.3 1659.5,2102.5 Z"/></g>
<g><path style="opacity:0.998" fill="#f9a183" d="M 2036.5,2148.5 C 2069.24,2311.72 2079.9,2476.38 2068.5,2642.5C 2072.1,2660.7 2074.77,2679.03 2076.5,2697.5C 2077.71,2712.5 2077.71,2727.5 2076.5,2742.5C 2053.56,2727.84 2028.89,2723.68 2002.5,2730C 1996.72,2732.05 1991.39,2734.89 1986.5,2738.5C 1986.17,2737.5 1985.83,2736.5 1985.5,2735.5C 1988,2720.85 1990.33,2706.18 1992.5,2691.5C 1995.11,2673.85 1997.28,2656.19 1999,2638.5C 1964.05,2470.24 1929.55,2301.91 1895.5,2133.5C 1912.49,2132.52 1929.49,2132.35 1946.5,2133C 1977.3,2134.28 2007.3,2139.45 2036.5,2148.5 Z"/></g>
<g><path style="opacity:0.998" fill="#f9a183" d="M 1672.5,2146.5 C 1724.16,2150.5 1773.82,2162.5 1821.5,2182.5C 1835.93,2246.73 1841.09,2311.73 1837,2377.5C 1835.06,2410.03 1831.39,2442.36 1826,2474.5C 1819.9,2505.09 1814.24,2535.75 1809,2566.5C 1803.58,2599.97 1801.58,2633.63 1803,2667.5C 1805.55,2679.04 1808.72,2690.37 1812.5,2701.5C 1809.12,2707.72 1804.46,2712.88 1798.5,2717C 1790.56,2721.8 1782.23,2725.8 1773.5,2729C 1738.93,2740.97 1703.93,2751.3 1668.5,2760C 1664.74,2761.18 1661.91,2760.01 1660,2756.5C 1655.65,2750.47 1651.82,2744.14 1648.5,2737.5C 1666.97,2719.87 1685.64,2702.37 1704.5,2685C 1712.08,2677.93 1719.08,2670.43 1725.5,2662.5C 1719.08,2548.02 1710.58,2433.69 1700,2319.5C 1695.54,2268.8 1688.54,2218.47 1679,2168.5C 1677.13,2161.06 1674.96,2153.73 1672.5,2146.5 Z"/></g>
<g><path style="opacity:0.999" fill="#3a3c3f" d="M 1281.5,2156.5 C 1282.38,2156.37 1283.04,2156.7 1283.5,2157.5C 1297.87,2183.38 1315.87,2206.55 1337.5,2227C 1344.63,2232.79 1352.29,2237.79 1360.5,2242C 1377.17,2249.77 1393.5,2249.1 1409.5,2240C 1421.75,2231.08 1431.92,2220.25 1440,2207.5C 1449.27,2190.96 1457.44,2173.96 1464.5,2156.5C 1479.13,2324.92 1493.47,2493.42 1507.5,2662C 1507.46,2664.09 1507.13,2666.09 1506.5,2668C 1502.24,2669.81 1497.91,2671.31 1493.5,2672.5C 1454.47,2684.28 1414.8,2687.12 1374.5,2681C 1370.09,2679.98 1365.76,2678.81 1361.5,2677.5C 1356.94,2676.94 1352.6,2675.61 1348.5,2673.5C 1325.92,2501.16 1303.58,2328.83 1281.5,2156.5 Z"/></g>
<g><path style="opacity:0.997" fill="#585c62" d="M 756.5,2303.5 C 745.625,2435.41 724.792,2565.75 694,2694.5C 693.727,2696.33 692.893,2697.83 691.5,2699C 689.308,2699.93 687.308,2701.09 685.5,2702.5C 668.747,2706.79 651.747,2706.46 634.5,2701.5C 631.888,2700.63 629.221,2699.96 626.5,2699.5C 627.413,2608.17 628.413,2516.83 629.5,2425.5C 617.833,2425.5 606.167,2425.5 594.5,2425.5C 572.986,2518.89 551.152,2612.22 529,2705.5C 525.417,2707.29 521.584,2707.96 517.5,2707.5C 500.177,2707.5 483.177,2705.17 466.5,2700.5C 463.868,2699.67 461.202,2698.84 458.5,2698C 457.873,2696.26 457.54,2694.43 457.5,2692.5C 470.518,2582.66 482.018,2472.66 492,2362.5C 493.632,2343.19 494.799,2323.86 495.5,2304.5C 541.72,2315.02 588.553,2321.02 636,2322.5C 677.382,2323.45 717.548,2317.12 756.5,2303.5 Z"/></g>
<g><path style="opacity:1" fill="#d88d6c" d="M 2545.5,2384.5 C 2550.24,2399.05 2554.57,2413.72 2558.5,2428.5C 2535.19,2454.16 2507.19,2472.83 2474.5,2484.5C 2465.18,2460.85 2457.84,2436.52 2452.5,2411.5C 2483.99,2404.21 2514.99,2395.21 2545.5,2384.5 Z"/></g>
<g><path style="opacity:1" fill="#d88d6c" d="M 2257.5,2418.5 C 2291.35,2422.88 2325.35,2424.55 2359.5,2423.5C 2360.67,2444.52 2361,2465.52 2360.5,2486.5C 2325.11,2475.47 2291.78,2460.14 2260.5,2440.5C 2259.5,2433.26 2258.5,2425.93 2257.5,2418.5 Z"/></g>
<g><path style="opacity:0.998" fill="#f4a984" d="M 2558.5,2428.5 C 2576.63,2486.01 2594.3,2543.68 2611.5,2601.5C 2601.37,2609.05 2590.04,2614.22 2577.5,2617C 2562.32,2620.03 2546.98,2621.19 2531.5,2620.5C 2509.74,2576.31 2490.74,2530.98 2474.5,2484.5C 2507.19,2472.83 2535.19,2454.16 2558.5,2428.5 Z"/></g>
<g><path style="opacity:0.998" fill="#f3a984" d="M 2260.5,2440.5 C 2291.78,2460.14 2325.11,2475.47 2360.5,2486.5C 2360.13,2530.31 2357.47,2573.98 2352.5,2617.5C 2332.24,2623.63 2311.57,2625.46 2290.5,2623C 2285.44,2622.04 2280.78,2620.21 2276.5,2617.5C 2270.81,2558.53 2265.47,2499.53 2260.5,2440.5 Z"/></g>
<g><path style="opacity:0.996" fill="#d7dbdf" d="M 2611.5,2601.5 C 2623.93,2637.29 2636.1,2673.29 2648,2709.5C 2650.34,2717.01 2651.84,2724.68 2652.5,2732.5C 2630.02,2724.16 2607.35,2723.49 2584.5,2730.5C 2581.58,2722.23 2578.74,2713.9 2576,2705.5C 2560.12,2677.74 2545.29,2649.41 2531.5,2620.5C 2546.98,2621.19 2562.32,2620.03 2577.5,2617C 2590.04,2614.22 2601.37,2609.05 2611.5,2601.5 Z"/></g>
<g><path style="opacity:0.995" fill="#d7dbdf" d="M 2276.5,2617.5 C 2280.78,2620.21 2285.44,2622.04 2290.5,2623C 2311.57,2625.46 2332.24,2623.63 2352.5,2617.5C 2350.45,2646.32 2347.78,2675.32 2344.5,2704.5C 2345.65,2713.54 2346.98,2722.54 2348.5,2731.5C 2343.22,2734.39 2337.55,2736.23 2331.5,2737C 2315.43,2738.87 2299.76,2737.2 2284.5,2732C 2280.44,2730.31 2276.77,2728.14 2273.5,2725.5C 2276.78,2719.72 2280.28,2714.05 2284,2708.5C 2282.01,2678.78 2279.18,2649.11 2275.5,2619.5C 2275.54,2618.58 2275.88,2617.92 2276.5,2617.5 Z"/></g>
<g><path style="opacity:0.998" fill="#554336" d="M 1013.5,2670.5 C 1026.8,2675.41 1040.47,2679.24 1054.5,2682C 1093.75,2690.33 1132.08,2687.5 1169.5,2673.5C 1170.08,2677.81 1170.41,2682.14 1170.5,2686.5C 1142.63,2685.97 1117.3,2693.8 1094.5,2710C 1075.81,2725.88 1065.48,2746.05 1063.5,2770.5C 989.5,2770.5 915.5,2770.5 841.5,2770.5C 840.504,2761.51 842.17,2753.18 846.5,2745.5C 846.5,2746.5 846.5,2747.5 846.5,2748.5C 875.427,2749.42 903.427,2744.92 930.5,2735C 947.238,2728.43 958.238,2716.6 963.5,2699.5C 966.978,2699.82 970.312,2699.32 973.5,2698C 987.073,2689.06 1000.41,2679.89 1013.5,2670.5 Z"/></g>
<g><path style="opacity:0.993" fill="#564437" d="M 1493.5,2672.5 C 1509.82,2702.1 1517.15,2733.77 1515.5,2767.5C 1515.41,2769.33 1514.75,2770.67 1513.5,2771.5C 1455.67,2770.5 1397.67,2770.17 1339.5,2770.5C 1339.13,2737.63 1346.47,2706.63 1361.5,2677.5C 1365.76,2678.81 1370.09,2679.98 1374.5,2681C 1414.8,2687.12 1454.47,2684.28 1493.5,2672.5 Z"/></g>
<g><path style="opacity:1" fill="#3f322a" d="M 1170.5,2686.5 C 1173.47,2708.63 1173.97,2730.97 1172,2753.5C 1171.57,2759.78 1170.4,2765.78 1168.5,2771.5C 1133.57,2770.51 1098.57,2770.17 1063.5,2770.5C 1065.48,2746.05 1075.81,2725.88 1094.5,2710C 1117.3,2693.8 1142.63,2685.97 1170.5,2686.5 Z"/></g>
<g><path style="opacity:0.997" fill="#842d2d" d="M 1992.5,2691.5 C 1990.33,2706.18 1988,2720.85 1985.5,2735.5C 1985.83,2736.5 1986.17,2737.5 1986.5,2738.5C 1991.39,2734.89 1996.72,2732.05 2002.5,2730C 2028.89,2723.68 2053.56,2727.84 2076.5,2742.5C 2077.71,2727.5 2077.71,2712.5 2076.5,2697.5C 2088.79,2722.33 2094.29,2748.66 2093,2776.5C 2092.12,2784.46 2089.29,2791.63 2084.5,2798C 2048.83,2798.67 2013.17,2798.67 1977.5,2798C 1970.92,2791.6 1967.42,2783.77 1967,2774.5C 1966.18,2758.27 1968.85,2742.6 1975,2727.5C 1979.54,2714.77 1985.37,2702.77 1992.5,2691.5 Z"/></g>
<g><path style="opacity:0.996" fill="#d1c6c6" d="M 466.5,2700.5 C 483.177,2705.17 500.177,2707.5 517.5,2707.5C 517.407,2713.52 517.074,2719.52 516.5,2725.5C 514.626,2728.77 511.96,2731.1 508.5,2732.5C 498.999,2734.22 489.665,2733.55 480.5,2730.5C 479.224,2725.64 477.39,2720.97 475,2716.5C 471.938,2713.27 468.771,2710.27 465.5,2707.5C 465.674,2705.14 466.007,2702.81 466.5,2700.5 Z"/></g>
<g><path style="opacity:1" fill="#766051" d="M 963.5,2699.5 C 958.238,2716.6 947.238,2728.43 930.5,2735C 903.427,2744.92 875.427,2749.42 846.5,2748.5C 846.5,2747.5 846.5,2746.5 846.5,2745.5C 846.75,2743.33 847.75,2741.66 849.5,2740.5C 866.689,2720.9 888.355,2709.07 914.5,2705C 924.344,2703.71 934.01,2702.21 943.5,2700.5C 950.078,2699.54 956.745,2699.21 963.5,2699.5 Z"/></g>
<g><path style="opacity:1" fill="#766051" d="M 1409.5,2700.5 C 1431.51,2699.41 1453.18,2701.58 1474.5,2707C 1480.22,2709.28 1485.39,2712.44 1490,2716.5C 1492.7,2722.27 1491.53,2727.1 1486.5,2731C 1475.78,2736.51 1464.44,2740.18 1452.5,2742C 1429.65,2744.64 1406.98,2743.64 1384.5,2739C 1378.51,2737.45 1372.84,2735.11 1367.5,2732C 1358.17,2725.33 1358.17,2718.67 1367.5,2712C 1381.01,2705.93 1395.01,2702.09 1409.5,2700.5 Z"/></g>
<g><path style="opacity:0.999" fill="#d0c5c6" d="M 634.5,2701.5 C 651.747,2706.46 668.747,2706.79 685.5,2702.5C 685.5,2704.17 685.5,2705.83 685.5,2707.5C 677.425,2712.78 672.425,2720.28 670.5,2730C 661.096,2733.58 651.429,2734.42 641.5,2732.5C 640.013,2731.2 638.346,2730.03 636.5,2729C 635.177,2728.18 634.511,2727.02 634.5,2725.5C 634.5,2717.5 634.5,2709.5 634.5,2701.5 Z"/></g>
<g><path style="opacity:0.996" fill="#842d2d" d="M 1812.5,2701.5 C 1825.77,2734.86 1823.1,2767.03 1804.5,2798C 1791.17,2798.5 1777.84,2798.67 1764.5,2798.5C 1764.39,2791.48 1763.89,2784.48 1763,2777.5C 1737.94,2787.22 1712.1,2794.06 1685.5,2798C 1651.83,2798.94 1618.16,2797.94 1584.5,2795C 1578.87,2794.26 1573.53,2792.59 1568.5,2790C 1563.42,2772.79 1568.75,2759.46 1584.5,2750C 1593.38,2745.6 1602.71,2742.6 1612.5,2741C 1624.42,2739.02 1636.42,2737.86 1648.5,2737.5C 1651.82,2744.14 1655.65,2750.47 1660,2756.5C 1661.91,2760.01 1664.74,2761.18 1668.5,2760C 1703.93,2751.3 1738.93,2740.97 1773.5,2729C 1782.23,2725.8 1790.56,2721.8 1798.5,2717C 1804.46,2712.88 1809.12,2707.72 1812.5,2701.5 Z"/></g>
<g><path style="opacity:0.998" fill="#ed4b4d" d="M 701.5,2714.5 C 695.247,2719.12 690.247,2724.95 686.5,2732C 688.667,2733.5 690.833,2735 693,2736.5C 696.028,2730.47 700.195,2725.3 705.5,2721C 706.448,2720.52 707.448,2720.35 708.5,2720.5C 709.833,2722.5 711.5,2724.17 713.5,2725.5C 707.502,2729.8 703.169,2735.46 700.5,2742.5C 702.228,2744.23 704.228,2745.56 706.5,2746.5C 709,2742.83 711.5,2739.17 714,2735.5C 715.638,2733.27 717.805,2731.93 720.5,2731.5C 722.5,2732.83 724.5,2734.17 726.5,2735.5C 721.502,2739.14 717.668,2743.8 715,2749.5C 714.333,2750.5 714.333,2751.5 715,2752.5C 716.897,2754.67 719.064,2755.33 721.5,2754.5C 723.851,2747.82 728.185,2743.15 734.5,2740.5C 735.058,2741.79 736.058,2742.62 737.5,2743C 751.613,2744.77 764.613,2749.44 776.5,2757C 783.581,2764.06 787.914,2772.56 789.5,2782.5C 747.833,2782.5 706.167,2782.5 664.5,2782.5C 655.582,2766.5 647.582,2750 640.5,2733C 640.728,2732.6 641.062,2732.43 641.5,2732.5C 651.429,2734.42 661.096,2733.58 670.5,2730C 672.425,2720.28 677.425,2712.78 685.5,2707.5C 688.645,2705.81 691.979,2705.31 695.5,2706C 696.942,2709.27 698.942,2712.1 701.5,2714.5 Z"/></g>
<g><path style="opacity:0.998" fill="#ed4b4d" d="M 465.5,2707.5 C 468.771,2710.27 471.938,2713.27 475,2716.5C 477.39,2720.97 479.224,2725.64 480.5,2730.5C 489.665,2733.55 498.999,2734.22 508.5,2732.5C 509.239,2732.37 509.906,2732.54 510.5,2733C 503.606,2750.29 495.273,2766.79 485.5,2782.5C 444.167,2782.5 402.833,2782.5 361.5,2782.5C 363.711,2766.89 372.045,2756.06 386.5,2750C 395.234,2746.65 404.234,2744.32 413.5,2743C 414.571,2742.15 415.571,2741.31 416.5,2740.5C 417.552,2740.35 418.552,2740.52 419.5,2741C 423.443,2745.05 426.776,2749.55 429.5,2754.5C 432.306,2755.12 434.639,2754.12 436.5,2751.5C 433.566,2745.25 429.566,2739.92 424.5,2735.5C 426.205,2733.81 428.205,2732.47 430.5,2731.5C 432.679,2731.84 434.512,2732.84 436,2734.5C 438.624,2738.25 441.124,2742.08 443.5,2746C 449.251,2745.56 450.751,2742.73 448,2737.5C 445.351,2732.69 441.851,2728.69 437.5,2725.5C 439.473,2724.19 441.139,2722.53 442.5,2720.5C 446.642,2722.12 450.142,2724.79 453,2728.5C 454.271,2731.43 455.938,2734.1 458,2736.5C 460.167,2735 462.333,2733.5 464.5,2732C 460.69,2724.69 455.357,2718.86 448.5,2714.5C 451.412,2712.2 453.745,2709.36 455.5,2706C 459.021,2705.31 462.355,2705.81 465.5,2707.5 Z"/></g>
<g><path style="opacity:0.484" fill="#5a4739" d="M 943.5,2700.5 C 934.01,2702.21 924.344,2703.71 914.5,2705C 888.355,2709.07 866.689,2720.9 849.5,2740.5C 852.51,2734.98 856.51,2730.14 861.5,2726C 877.114,2714.79 894.447,2707.46 913.5,2704C 923.43,2702.18 933.43,2701.01 943.5,2700.5 Z"/></g>
<g><path style="opacity:0.975" fill="#efe8e8" d="M 448.5,2714.5 C 455.357,2718.86 460.69,2724.69 464.5,2732C 462.333,2733.5 460.167,2735 458,2736.5C 455.938,2734.1 454.271,2731.43 453,2728.5C 450.142,2724.79 446.642,2722.12 442.5,2720.5C 442.082,2719.78 441.416,2719.28 440.5,2719C 442.366,2715.95 445.033,2714.45 448.5,2714.5 Z"/></g>
<g><path style="opacity:0.99" fill="#efe7e7" d="M 701.5,2714.5 C 705.478,2713.97 708.478,2715.47 710.5,2719C 709.584,2719.28 708.918,2719.78 708.5,2720.5C 707.448,2720.35 706.448,2720.52 705.5,2721C 700.195,2725.3 696.028,2730.47 693,2736.5C 690.833,2735 688.667,2733.5 686.5,2732C 690.247,2724.95 695.247,2719.12 701.5,2714.5 Z"/></g>
<g><path style="opacity:0.98" fill="#efe7e7" d="M 720.5,2731.5 C 717.805,2731.93 715.638,2733.27 714,2735.5C 711.5,2739.17 709,2742.83 706.5,2746.5C 704.228,2745.56 702.228,2744.23 700.5,2742.5C 703.169,2735.46 707.502,2729.8 713.5,2725.5C 717.185,2724.76 720.185,2726.09 722.5,2729.5C 721.757,2730.18 721.091,2730.85 720.5,2731.5 Z"/></g>
<g><path style="opacity:0.982" fill="#efe7e7" d="M 437.5,2725.5 C 441.851,2728.69 445.351,2732.69 448,2737.5C 450.751,2742.73 449.251,2745.56 443.5,2746C 441.124,2742.08 438.624,2738.25 436,2734.5C 434.512,2732.84 432.679,2731.84 430.5,2731.5C 428.008,2729.53 428.342,2727.7 431.5,2726C 433.402,2724.2 435.402,2724.04 437.5,2725.5 Z"/></g>
<g><path style="opacity:1" fill="#ce3a41" d="M 521.5,2782.5 C 509.5,2782.5 497.5,2782.5 485.5,2782.5C 495.273,2766.79 503.606,2750.29 510.5,2733C 509.906,2732.54 509.239,2732.37 508.5,2732.5C 511.96,2731.1 514.626,2728.77 516.5,2725.5C 517.794,2724.71 518.961,2723.71 520,2722.5C 520.553,2742.5 521.053,2762.5 521.5,2782.5 Z"/></g>
<g><path style="opacity:1" fill="#ce3a41" d="M 634.5,2725.5 C 634.511,2727.02 635.177,2728.18 636.5,2729C 638.346,2730.03 640.013,2731.2 641.5,2732.5C 641.062,2732.43 640.728,2732.6 640.5,2733C 647.582,2750 655.582,2766.5 664.5,2782.5C 652.833,2782.5 641.167,2782.5 629.5,2782.5C 629.624,2762.49 630.124,2742.49 631,2722.5C 632.039,2723.71 633.206,2724.71 634.5,2725.5 Z"/></g>
<g><path style="opacity:0.993" fill="#61e2cd" d="M 2273.5,2725.5 C 2276.77,2728.14 2280.44,2730.31 2284.5,2732C 2299.76,2737.2 2315.43,2738.87 2331.5,2737C 2337.55,2736.23 2343.22,2734.39 2348.5,2731.5C 2352.49,2749.59 2352.49,2767.59 2348.5,2785.5C 2289.5,2785.5 2230.5,2785.5 2171.5,2785.5C 2171.29,2771.49 2177.62,2761.33 2190.5,2755C 2207.08,2748.01 2224.41,2744.68 2242.5,2745C 2252.25,2738.04 2262.08,2731.21 2272,2724.5C 2272.38,2725.06 2272.88,2725.39 2273.5,2725.5 Z"/></g>
<g><path style="opacity:0.993" fill="#61e2cd" d="M 2652.5,2732.5 C 2663.61,2748.59 2667.27,2766.26 2663.5,2785.5C 2631.83,2785.5 2600.17,2785.5 2568.5,2785.5C 2567.99,2768.57 2571.49,2752.57 2579,2737.5C 2580.37,2734.73 2582.2,2732.4 2584.5,2730.5C 2607.35,2723.49 2630.02,2724.16 2652.5,2732.5 Z"/></g>
<g><path style="opacity:0.981" fill="#efe7e7" d="M 424.5,2735.5 C 429.566,2739.92 433.566,2745.25 436.5,2751.5C 434.639,2754.12 432.306,2755.12 429.5,2754.5C 426.776,2749.55 423.443,2745.05 419.5,2741C 418.552,2740.52 417.552,2740.35 416.5,2740.5C 415.909,2739.85 415.243,2739.18 414.5,2738.5C 417.305,2735.29 420.639,2734.29 424.5,2735.5 Z"/></g>
<g><path style="opacity:0.99" fill="#efe7e7" d="M 734.5,2740.5 C 728.185,2743.15 723.851,2747.82 721.5,2754.5C 719.064,2755.33 716.897,2754.67 715,2752.5C 714.333,2751.5 714.333,2750.5 715,2749.5C 717.668,2743.8 721.502,2739.14 726.5,2735.5C 730.361,2734.29 733.695,2735.29 736.5,2738.5C 735.757,2739.18 735.091,2739.85 734.5,2740.5 Z"/></g>
<g><path style="opacity:0.98" fill="#352a24" d="M 841.5,2770.5 C 915.5,2770.5 989.5,2770.5 1063.5,2770.5C 1098.57,2770.17 1133.57,2770.51 1168.5,2771.5C 1168.5,2780.5 1168.5,2789.5 1168.5,2798.5C 1132.5,2798.5 1096.5,2798.5 1060.5,2798.5C 1060.61,2792.12 1060.11,2785.79 1059,2779.5C 1032.02,2789.16 1004.19,2795 975.5,2797C 930.507,2798.14 885.507,2798.64 840.5,2798.5C 840.173,2788.99 840.506,2779.65 841.5,2770.5 Z"/></g>
<g><path style="opacity:0.98" fill="#342924" d="M 1339.5,2770.5 C 1397.67,2770.17 1455.67,2770.5 1513.5,2771.5C 1513.5,2780.5 1513.5,2789.5 1513.5,2798.5C 1455.17,2798.5 1396.83,2798.5 1338.5,2798.5C 1338.17,2788.99 1338.51,2779.65 1339.5,2770.5 Z"/></g>
<g><path style="opacity:0.995" fill="#efe7e7" d="M 361.5,2782.5 C 402.833,2782.5 444.167,2782.5 485.5,2782.5C 497.5,2782.5 509.5,2782.5 521.5,2782.5C 521.5,2786.83 521.5,2791.17 521.5,2795.5C 467.5,2795.5 413.5,2795.5 359.5,2795.5C 359.054,2790.93 359.72,2786.6 361.5,2782.5 Z"/></g>
<g><path style="opacity:0.997" fill="#efe8e8" d="M 629.5,2782.5 C 641.167,2782.5 652.833,2782.5 664.5,2782.5C 706.167,2782.5 747.833,2782.5 789.5,2782.5C 791.57,2786.72 791.904,2791.05 790.5,2795.5C 736.833,2795.5 683.167,2795.5 629.5,2795.5C 629.5,2791.17 629.5,2786.83 629.5,2782.5 Z"/></g>
<g><path style="opacity:0.977" fill="#52c1ac" d="M 2171.5,2785.5 C 2230.5,2785.5 2289.5,2785.5 2348.5,2785.5C 2348.5,2789.83 2348.5,2794.17 2348.5,2798.5C 2329.5,2798.5 2310.5,2798.5 2291.5,2798.5C 2291.38,2795.14 2291.05,2791.81 2290.5,2788.5C 2274.84,2793.14 2258.84,2795.98 2242.5,2797C 2218.5,2797.5 2194.5,2797.67 2170.5,2797.5C 2170.18,2793.3 2170.52,2789.3 2171.5,2785.5 Z"/></g>
<g><path style="opacity:0.995" fill="#52c1ac" d="M 2568.5,2785.5 C 2600.17,2785.5 2631.83,2785.5 2663.5,2785.5C 2663.5,2789.83 2663.5,2794.17 2663.5,2798.5C 2631.5,2798.5 2599.5,2798.5 2567.5,2798.5C 2567.18,2793.97 2567.52,2789.63 2568.5,2785.5 Z"/></g>
<g><path style="opacity:0.967" fill="#ed4a4c" d="M 359.5,2795.5 C 413.5,2795.5 467.5,2795.5 521.5,2795.5C 521.5,2796.5 521.5,2797.5 521.5,2798.5C 467.5,2798.5 413.5,2798.5 359.5,2798.5C 359.5,2797.5 359.5,2796.5 359.5,2795.5 Z"/></g>
<g><path style="opacity:0.968" fill="#ee4a4c" d="M 629.5,2795.5 C 683.167,2795.5 736.833,2795.5 790.5,2795.5C 791.774,2796.19 791.774,2797.02 790.5,2798C 736.834,2798.5 683.168,2798.67 629.5,2798.5C 629.5,2797.5 629.5,2796.5 629.5,2795.5 Z"/></g>
</svg>
