<?xml version="1.0" encoding="UTF-8"?>
<!DOCTYPE svg PUBLIC "-//W3C//DTD SVG 1.1//EN" "http://www.w3.org/Graphics/SVG/1.1/DTD/svg11.dtd">
<svg xmlns="http://www.w3.org/2000/svg" version="1.1" width="3000px" height="3000px" style="shape-rendering:geometricPrecision; text-rendering:geometricPrecision; image-rendering:optimizeQuality; fill-rule:evenodd; clip-rule:evenodd" xmlns:xlink="http://www.w3.org/1999/xlink">
<g><path style="opacity:0.989" fill="#1d1d1b" d="M 1520.5,268.5 C 1602.81,268.512 1684.15,277.012 1764.5,294C 1771.17,296.205 1778,298.038 1785,299.5C 1789.27,302.297 1793.93,304.297 1799,305.5C 1800.46,305.006 1801.96,304.673 1803.5,304.5C 1894.9,328.711 1979.57,367.211 2057.5,420C 2063.81,425.487 2070.48,430.487 2077.5,435C 2111.94,462.778 2143.78,493.278 2173,526.5C 2183.92,540.693 2194.59,555.026 2205,569.5C 2209.6,577.431 2214.6,585.097 2220,592.5C 2221.77,597.241 2223.27,602.074 2224.5,607C 2229.75,610.253 2233.58,614.753 2236,620.5C 2258.45,664.523 2275.79,710.523 2288,758.5C 2288.31,765.868 2288.98,773.201 2290,780.5C 2291.92,784.602 2293.26,788.935 2294,793.5C 2298.76,822.404 2302.76,851.404 2306,880.5C 2307.95,884.058 2309.61,887.725 2311,891.5C 2313.63,928.694 2315.29,966.027 2316,1003.5C 2343.53,971.512 2370.86,939.179 2398,906.5C 2405.3,898.197 2412.97,890.197 2421,882.5C 2453.15,843.685 2490.31,810.519 2532.5,783C 2544.74,776.381 2557.07,770.048 2569.5,764C 2582.11,762.513 2594.61,760.346 2607,757.5C 2618.05,758.277 2626.89,763.111 2633.5,772C 2640.38,773.556 2645.55,777.389 2649,783.5C 2655.49,793.955 2659.82,805.289 2662,817.5C 2665.1,840.551 2668.93,863.385 2673.5,886C 2671.44,986.754 2659.28,1086.25 2637,1184.5C 2608.09,1301.24 2562.43,1410.9 2500,1513.5C 2484.93,1536.64 2469.59,1559.64 2454,1582.5C 2425.27,1621.21 2396.6,1659.88 2368,1698.5C 2357.13,1715.07 2346.63,1731.91 2336.5,1749C 2313.97,1788.06 2297.47,1829.56 2287,1873.5C 2272.7,1948.91 2273.04,2024.25 2288,2099.5C 2305.29,2174.45 2336.96,2242.45 2383,2303.5C 2407.09,2331.59 2433.25,2357.75 2461.5,2382C 2482.13,2397.66 2502.79,2413.32 2523.5,2429C 2549.46,2446.15 2576.46,2461.48 2604.5,2475C 2624.95,2482.95 2645.95,2488.62 2667.5,2492C 2697.34,2494.02 2725.34,2487.69 2751.5,2473C 2759.31,2470.2 2766.31,2471.53 2772.5,2477C 2787.06,2494.38 2785.73,2510.38 2768.5,2525C 2708.48,2560.34 2646.48,2592.01 2582.5,2620C 2493.95,2656.97 2402.62,2684.97 2308.5,2704C 2271.32,2710.42 2233.99,2716.42 2196.5,2722C 2168.7,2724.04 2141.03,2726.37 2113.5,2729C 2052.15,2732.54 1990.81,2732.21 1929.5,2728C 1796.77,2718.38 1665.77,2697.38 1536.5,2665C 1435.96,2639.53 1337.3,2608.2 1240.5,2571C 1140.08,2530.3 1045.75,2478.97 957.5,2417C 900.594,2375.09 848.427,2327.93 801,2275.5C 753.336,2220.85 708.336,2164.18 666,2105.5C 630.126,2053.11 597.792,1998.44 569,1941.5C 558.557,1920.17 548.89,1898.5 540,1876.5C 514.741,1810.13 495.074,1742.13 481,1672.5C 480.776,1653.5 474.776,1636.5 463,1621.5C 418.63,1579.39 380.964,1532.05 350,1479.5C 317.237,1420.69 290.904,1359.02 271,1294.5C 260.447,1257.41 250.781,1220.07 242,1182.5C 231.942,1127.02 223.942,1071.36 218,1015.5C 215.088,983.817 215.088,952.15 218,920.5C 222.64,890.273 232.64,861.939 248,835.5C 258.421,825.099 270.921,821.599 285.5,825C 361.128,897.11 430.794,974.277 494.5,1056.5C 495.948,1054.33 497.115,1052 498,1049.5C 526.747,935.22 571.08,827.553 631,726.5C 670.517,661.936 718.017,603.436 773.5,551C 776.311,549.175 779.311,547.842 782.5,547C 786.4,540.099 791.4,534.099 797.5,529C 837.176,495.328 878.842,464.328 922.5,436C 971.024,406.571 1021.36,380.571 1073.5,358C 1097.12,349.127 1120.79,340.46 1144.5,332C 1149.31,330.714 1154.15,330.214 1159,330.5C 1161.38,328.297 1163.88,326.13 1166.5,324C 1217.46,310.009 1268.8,297.675 1320.5,287C 1351.91,282.657 1383.25,278.491 1414.5,274.5C 1420.6,275.651 1426.6,275.151 1432.5,273C 1449.82,271.771 1467.15,270.604 1484.5,269.5C 1492.61,269.629 1500.61,270.629 1508.5,272.5C 1512.37,270.554 1516.37,269.221 1520.5,268.5 Z"/></g>
<g><path style="opacity:1" fill="#3f3f3e" d="M 1503.5,324.5 C 1536.03,323.069 1568.7,323.569 1601.5,326C 1603.38,326.198 1605.05,326.698 1606.5,327.5C 1572.22,325.018 1537.88,324.018 1503.5,324.5 Z"/></g>
<g><path style="opacity:1" fill="#fcfcfc" d="M 1503.5,324.5 C 1537.88,324.018 1572.22,325.018 1606.5,327.5C 1621.69,328.398 1636.69,329.731 1651.5,331.5C 1664.27,333.888 1677.27,335.555 1690.5,336.5C 1690.83,336.5 1691.17,336.5 1691.5,336.5C 1699.65,338.19 1707.98,339.523 1716.5,340.5C 1734.93,343.69 1753.26,347.357 1771.5,351.5C 1773.51,352.924 1775.85,353.59 1778.5,353.5C 1793.74,356.758 1808.74,360.758 1823.5,365.5C 1827.08,367.806 1831.08,369.139 1835.5,369.5C 1837.51,370.924 1839.85,371.59 1842.5,371.5C 1851.68,375.007 1861.02,378.341 1870.5,381.5C 1873.05,383.584 1876.05,384.917 1879.5,385.5C 1902.48,394.159 1924.81,404.159 1946.5,415.5C 1946.97,416.906 1947.97,417.573 1949.5,417.5C 2025.43,456.23 2089.93,509.23 2143,576.5C 2152.72,589.892 2162.06,603.559 2171,617.5C 2175.51,625.86 2180.01,634.194 2184.5,642.5C 2184.43,644.027 2185.09,645.027 2186.5,645.5C 2192.11,656.38 2197.44,667.38 2202.5,678.5C 2202.17,681.491 2203.17,683.824 2205.5,685.5C 2209.73,694.858 2213.4,704.524 2216.5,714.5C 2217.08,717.947 2218.42,720.947 2220.5,723.5C 2220.5,723.833 2220.5,724.167 2220.5,724.5C 2221.22,728.506 2222.06,732.506 2223,736.5C 2223.38,737.942 2224.21,738.942 2225.5,739.5C 2227.68,747.229 2230.01,754.896 2232.5,762.5C 2232.41,765.152 2233.08,767.485 2234.5,769.5C 2236.07,773.323 2237.07,777.323 2237.5,781.5C 2236.96,786.312 2237.96,790.645 2240.5,794.5C 2243.79,807.675 2246.46,821.009 2248.5,834.5C 2249.05,840.374 2250.05,846.041 2251.5,851.5C 2251.62,858.098 2252.62,864.431 2254.5,870.5C 2257.36,891.944 2259.36,913.611 2260.5,935.5C 2260.91,945.003 2261.57,954.336 2262.5,963.5C 2262.5,965.833 2262.5,968.167 2262.5,970.5C 2262.66,1009.85 2261.99,1049.18 2260.5,1088.5C 2258.75,1099.77 2258.25,1111.1 2259,1122.5C 2261.01,1132.34 2266.84,1138.34 2276.5,1140.5C 2280.98,1141.65 2285.65,1141.82 2290.5,1141C 2292.32,1140.8 2293.65,1139.97 2294.5,1138.5C 2297.44,1136.07 2300.27,1133.4 2303,1130.5C 2325.85,1090.78 2351.19,1052.78 2379,1016.5C 2397.25,993.579 2416.25,971.246 2436,949.5C 2456.53,927.974 2477.36,906.808 2498.5,886C 2514.56,870.934 2530.89,856.268 2547.5,842C 2559.17,834.165 2571.17,826.831 2583.5,820C 2601.04,812.001 2612.37,817.167 2617.5,835.5C 2617.41,838.152 2618.08,840.485 2619.5,842.5C 2620.24,845.413 2620.74,848.413 2621,851.5C 2621.86,886.208 2621.36,920.875 2619.5,955.5C 2617.64,969.623 2616.64,983.957 2616.5,998.5C 2616.5,1000.83 2616.5,1003.17 2616.5,1005.5C 2614.86,1010.23 2614.19,1015.23 2614.5,1020.5C 2614.76,1024.6 2614.43,1028.6 2613.5,1032.5C 2611.68,1039.25 2610.68,1046.25 2610.5,1053.5C 2610.5,1055.17 2610.5,1056.83 2610.5,1058.5C 2609.05,1063.96 2608.05,1069.63 2607.5,1075.5C 2605.17,1090.17 2602.83,1104.84 2600.5,1119.5C 2599.88,1119.61 2599.38,1119.94 2599,1120.5C 2598.5,1122.47 2598.34,1124.47 2598.5,1126.5C 2598.5,1127.83 2598.5,1129.17 2598.5,1130.5C 2597.08,1132.51 2596.41,1134.85 2596.5,1137.5C 2594.87,1142.63 2593.87,1147.97 2593.5,1153.5C 2592.08,1155.51 2591.41,1157.85 2591.5,1160.5C 2589.88,1169.25 2587.88,1177.91 2585.5,1186.5C 2584.88,1186.61 2584.38,1186.94 2584,1187.5C 2582.85,1191.45 2582.01,1195.45 2581.5,1199.5C 2580.17,1204.83 2578.83,1210.17 2577.5,1215.5C 2576.08,1217.51 2575.41,1219.85 2575.5,1222.5C 2572.84,1231.41 2570.18,1240.41 2567.5,1249.5C 2565.01,1252.63 2563.68,1256.29 2563.5,1260.5C 2562.13,1262.94 2561.13,1265.6 2560.5,1268.5C 2557.64,1276.42 2554.97,1284.42 2552.5,1292.5C 2550.42,1295.05 2549.08,1298.05 2548.5,1301.5C 2517.8,1382.58 2477.97,1458.58 2429,1529.5C 2411.9,1552.05 2395.07,1574.71 2378.5,1597.5C 2376.41,1598.58 2375.08,1600.25 2374.5,1602.5C 2359.78,1621.59 2345.28,1640.92 2331,1660.5C 2320.19,1676.13 2310.02,1692.13 2300.5,1708.5C 2299.09,1708.97 2298.43,1709.97 2298.5,1711.5C 2278.62,1743.46 2262.95,1777.46 2251.5,1813.5C 2249.19,1817.08 2247.86,1821.08 2247.5,1825.5C 2245.23,1831.58 2243.39,1837.91 2242,1844.5C 2239.38,1855.09 2237.22,1865.76 2235.5,1876.5C 2234.78,1876.92 2234.28,1877.58 2234,1878.5C 2232.61,1886.14 2231.45,1893.81 2230.5,1901.5C 2225.27,1947.07 2224.27,1992.73 2227.5,2038.5C 2227.78,2044.02 2228.45,2049.35 2229.5,2054.5C 2230.4,2064.91 2231.73,2075.24 2233.5,2085.5C 2233.23,2091.22 2234.23,2096.55 2236.5,2101.5C 2239.34,2118.89 2243.34,2135.89 2248.5,2152.5C 2248.41,2155.15 2249.08,2157.49 2250.5,2159.5C 2251.43,2160.57 2251.77,2161.9 2251.5,2163.5C 2251.35,2166.72 2252.35,2169.38 2254.5,2171.5C 2257.3,2180.56 2260.3,2189.56 2263.5,2198.5C 2263.43,2200.03 2264.09,2201.03 2265.5,2201.5C 2287.8,2256.46 2317.96,2306.46 2356,2351.5C 2394.79,2394.97 2437.29,2434.14 2483.5,2469C 2498.39,2479.27 2513.72,2488.77 2529.5,2497.5C 2529.97,2498.91 2530.97,2499.57 2532.5,2499.5C 2551.63,2511.23 2571.96,2520.56 2593.5,2527.5C 2597.06,2529.92 2601.06,2531.59 2605.5,2532.5C 2612.34,2534.79 2619.34,2536.63 2626.5,2538C 2628.12,2538.24 2629.12,2539.07 2629.5,2540.5C 2625.41,2541.38 2621.74,2543.05 2618.5,2545.5C 2597.93,2555.02 2577.26,2564.36 2556.5,2573.5C 2552.3,2574.22 2548.63,2575.89 2545.5,2578.5C 2535.67,2581.92 2526,2585.59 2516.5,2589.5C 2512.06,2590.41 2508.06,2592.08 2504.5,2594.5C 2497.71,2596.53 2491.04,2598.86 2484.5,2601.5C 2476.86,2603.6 2469.53,2606.27 2462.5,2609.5C 2447.34,2614.03 2432.34,2618.7 2417.5,2623.5C 2415.1,2623.26 2413.1,2623.93 2411.5,2625.5C 2395.48,2630.17 2379.48,2634.5 2363.5,2638.5C 2360.85,2638.41 2358.51,2639.08 2356.5,2640.5C 2341.87,2643.96 2327.2,2647.29 2312.5,2650.5C 2303.19,2651.76 2294.19,2653.76 2285.5,2656.5C 2284.83,2656.5 2284.17,2656.5 2283.5,2656.5C 2279.21,2656.2 2275.21,2656.86 2271.5,2658.5C 2271.17,2658.5 2270.83,2658.5 2270.5,2658.5C 2267.5,2658.29 2264.84,2658.96 2262.5,2660.5C 2246.46,2662.84 2230.46,2665.18 2214.5,2667.5C 2200.3,2668.65 2186.3,2670.32 2172.5,2672.5C 2172.17,2672.5 2171.83,2672.5 2171.5,2672.5C 2166.88,2672.16 2162.54,2672.82 2158.5,2674.5C 2155.17,2674.5 2151.83,2674.5 2148.5,2674.5C 2135.16,2675.01 2121.83,2675.68 2108.5,2676.5C 2104.11,2676.51 2100.11,2677.18 2096.5,2678.5C 2062.51,2679.29 2028.51,2679.63 1994.5,2679.5C 1994.39,2678.88 1994.06,2678.38 1993.5,2678C 1966.14,2677.23 1938.81,2676.06 1911.5,2674.5C 1910.17,2674.5 1908.83,2674.5 1907.5,2674.5C 1900.41,2672.76 1893.08,2672.09 1885.5,2672.5C 1878.9,2671.32 1872.24,2670.66 1865.5,2670.5C 1861.43,2668.95 1857.1,2668.28 1852.5,2668.5C 1829.16,2665.5 1805.83,2662.5 1782.5,2659.5C 1772.79,2656.92 1762.79,2655.25 1752.5,2654.5C 1751.83,2654.5 1751.17,2654.5 1750.5,2654.5C 1748.49,2653.08 1746.15,2652.41 1743.5,2652.5C 1730.48,2650.57 1717.48,2648.57 1704.5,2646.5C 1700.27,2644.04 1695.61,2643.04 1690.5,2643.5C 1689.83,2643.5 1689.17,2643.5 1688.5,2643.5C 1685.16,2641.78 1681.49,2641.12 1677.5,2641.5C 1674.16,2639.78 1670.49,2639.12 1666.5,2639.5C 1666.17,2639.5 1665.83,2639.5 1665.5,2639.5C 1663.16,2637.96 1660.5,2637.29 1657.5,2637.5C 1639.43,2634.09 1621.43,2630.42 1603.5,2626.5C 1599.65,2623.96 1595.31,2622.96 1590.5,2623.5C 1566.83,2617.72 1543.16,2612.06 1519.5,2606.5C 1514.47,2604.23 1509.13,2602.57 1503.5,2601.5C 1495.61,2599.94 1487.94,2597.94 1480.5,2595.5C 1478.49,2594.08 1476.15,2593.41 1473.5,2593.5C 1471.9,2593.77 1470.57,2593.43 1469.5,2592.5C 1467.49,2591.08 1465.15,2590.41 1462.5,2590.5C 1450.36,2587.13 1438.36,2583.47 1426.5,2579.5C 1424.49,2578.08 1422.15,2577.41 1419.5,2577.5C 1416.86,2575.69 1413.86,2574.69 1410.5,2574.5C 1400.79,2571.63 1391.13,2568.63 1381.5,2565.5C 1379.38,2563.35 1376.72,2562.35 1373.5,2562.5C 1370.06,2560.8 1366.39,2559.46 1362.5,2558.5C 1350.42,2554.7 1338.42,2550.7 1326.5,2546.5C 1323.95,2544.42 1320.95,2543.08 1317.5,2542.5C 1308.09,2539.36 1298.75,2536.03 1289.5,2532.5C 1287.82,2530.17 1285.49,2529.17 1282.5,2529.5C 1282.17,2529.5 1281.83,2529.5 1281.5,2529.5C 1281.03,2528.09 1280.03,2527.43 1278.5,2527.5C 1267.01,2523.56 1255.67,2519.22 1244.5,2514.5C 1244.03,2513.09 1243.03,2512.43 1241.5,2512.5C 1227.6,2507.42 1213.94,2501.76 1200.5,2495.5C 1200.03,2494.09 1199.03,2493.43 1197.5,2493.5C 1176.98,2485.24 1156.98,2475.91 1137.5,2465.5C 1137.03,2464.09 1136.03,2463.43 1134.5,2463.5C 1034.54,2413.23 945.875,2347.56 868.5,2266.5C 865.833,2263.17 862.833,2260.17 859.5,2257.5C 838.17,2234 817.004,2210.34 796,2186.5C 767.952,2151.45 740.285,2116.12 713,2080.5C 680.138,2036.8 651.305,1990.46 626.5,1941.5C 626.573,1939.97 625.906,1938.97 624.5,1938.5C 609.454,1907.41 595.788,1875.74 583.5,1843.5C 582.917,1840.05 581.584,1837.05 579.5,1834.5C 575.997,1823.33 572.331,1812.33 568.5,1801.5C 568.59,1798.85 567.924,1796.51 566.5,1794.5C 566.472,1791.08 565.472,1788.08 563.5,1785.5C 559.013,1769.89 554.68,1754.22 550.5,1738.5C 550.59,1735.85 549.924,1733.51 548.5,1731.5C 543.974,1713.86 539.974,1696.19 536.5,1678.5C 536.048,1674.84 535.548,1671.17 535,1667.5C 534.722,1666.58 534.222,1665.92 533.5,1665.5C 529.804,1644.91 526.47,1624.24 523.5,1603.5C 523.638,1598.59 522.972,1593.92 521.5,1589.5C 521.556,1584.27 520.889,1579.27 519.5,1574.5C 519.5,1573.17 519.5,1571.83 519.5,1570.5C 519.415,1563.57 518.415,1556.9 516.5,1550.5C 516.5,1549.17 516.5,1547.83 516.5,1546.5C 516.666,1540.49 516.499,1534.49 516,1528.5C 515.884,1523.57 515.051,1518.9 513.5,1514.5C 513.5,1512.17 513.5,1509.83 513.5,1507.5C 513.917,1497.27 513.251,1487.27 511.5,1477.5C 510.193,1436.83 510.193,1396.17 511.5,1355.5C 512.302,1354.05 512.802,1352.38 513,1350.5C 514.073,1336.85 514.573,1323.19 514.5,1309.5C 514.5,1308.5 514.5,1307.5 514.5,1306.5C 516.789,1290.71 518.455,1274.71 519.5,1258.5C 519.5,1257.17 519.5,1255.83 519.5,1254.5C 521.075,1248.73 522.075,1242.73 522.5,1236.5C 523.127,1228.45 524.127,1220.45 525.5,1212.5C 526.6,1210.72 527.434,1208.72 528,1206.5C 528.699,1200.51 529.199,1194.51 529.5,1188.5C 529.5,1187.83 529.5,1187.17 529.5,1186.5C 530.222,1186.08 530.722,1185.42 531,1184.5C 532.624,1176.22 533.791,1167.88 534.5,1159.5C 535.924,1157.49 536.59,1155.15 536.5,1152.5C 539.043,1139.12 541.709,1125.79 544.5,1112.5C 545.924,1110.49 546.59,1108.15 546.5,1105.5C 546.322,1101.88 546.989,1098.54 548.5,1095.5C 549.924,1093.49 550.59,1091.15 550.5,1088.5C 554.388,1073.03 558.388,1057.7 562.5,1042.5C 563.924,1040.49 564.59,1038.15 564.5,1035.5C 565.924,1033.49 566.59,1031.15 566.5,1028.5C 570.346,1017.43 573.68,1006.1 576.5,994.5C 578.99,991.374 580.323,987.708 580.5,983.5C 581.871,981.064 582.871,978.397 583.5,975.5C 586.792,964.368 590.459,953.368 594.5,942.5C 596.897,939.691 598.23,936.358 598.5,932.5C 598.5,932.167 598.5,931.833 598.5,931.5C 599.906,931.027 600.573,930.027 600.5,928.5C 603.599,918.524 607.266,908.858 611.5,899.5C 613.834,897.824 614.834,895.491 614.5,892.5C 632.074,849.017 653.074,807.35 677.5,767.5C 678.906,767.027 679.573,766.027 679.5,764.5C 692.508,742.474 706.508,721.141 721.5,700.5C 723.587,699.415 724.92,697.749 725.5,695.5C 737.984,676.677 751.984,659.01 767.5,642.5C 769.587,641.415 770.92,639.749 771.5,637.5C 775.944,632.268 780.61,627.268 785.5,622.5C 787.587,621.415 788.92,619.749 789.5,617.5C 854.923,548.892 929.59,492.726 1013.5,449C 1048.03,431.234 1083.36,415.401 1119.5,401.5C 1127.6,399.272 1135.27,396.272 1142.5,392.5C 1148.98,390.342 1155.31,388.009 1161.5,385.5C 1166.16,384.943 1170.5,383.61 1174.5,381.5C 1178.16,381.277 1181.5,380.277 1184.5,378.5C 1194.3,375.124 1204.3,372.124 1214.5,369.5C 1216.85,369.33 1219.18,368.997 1221.5,368.5C 1223.03,368.36 1224.03,367.693 1224.5,366.5C 1240.85,361.625 1257.52,357.625 1274.5,354.5C 1285.41,352.712 1296.07,350.379 1306.5,347.5C 1315.93,345.217 1325.6,343.55 1335.5,342.5C 1344.02,341.14 1352.35,339.473 1360.5,337.5C 1367.2,337.162 1373.87,336.495 1380.5,335.5C 1387.74,335.235 1394.74,334.235 1401.5,332.5C 1435.24,328.464 1469.24,325.798 1503.5,324.5 Z"/></g>
<g><path style="opacity:1" fill="#a9a9a8" d="M 1651.5,331.5 C 1664.8,331.953 1677.8,333.62 1690.5,336.5C 1677.27,335.555 1664.27,333.888 1651.5,331.5 Z"/></g>
<g><path style="opacity:1" fill="#9e9e9e" d="M 1401.5,332.5 C 1394.74,334.235 1387.74,335.235 1380.5,335.5C 1387.25,333.678 1394.25,332.678 1401.5,332.5 Z"/></g>
<g><path style="opacity:1" fill="#70706f" d="M 1691.5,336.5 C 1700.15,336.733 1708.48,338.066 1716.5,340.5C 1707.98,339.523 1699.65,338.19 1691.5,336.5 Z"/></g>
<g><path style="opacity:1" fill="#585857" d="M 1360.5,337.5 C 1352.35,339.473 1344.02,341.14 1335.5,342.5C 1335.92,341.778 1336.58,341.278 1337.5,341C 1345.11,339.398 1352.78,338.231 1360.5,337.5 Z"/></g>
<g><path style="opacity:1" fill="#838382" d="M 1771.5,351.5 C 1774.15,351.41 1776.49,352.076 1778.5,353.5C 1775.85,353.59 1773.51,352.924 1771.5,351.5 Z"/></g>
<g><path style="opacity:1" fill="#9e9e9d" d="M 1306.5,347.5 C 1296.07,350.379 1285.41,352.712 1274.5,354.5C 1284.77,350.911 1295.43,348.578 1306.5,347.5 Z"/></g>
<g><path style="opacity:1" fill="#7d7d7c" d="M 1823.5,365.5 C 1827.77,366.256 1831.77,367.589 1835.5,369.5C 1831.08,369.139 1827.08,367.806 1823.5,365.5 Z"/></g>
<g><path style="opacity:1" fill="#9e9e9d" d="M 1224.5,366.5 C 1224.03,367.693 1223.03,368.36 1221.5,368.5C 1219.18,368.997 1216.85,369.33 1214.5,369.5C 1217.45,367.59 1220.79,366.59 1224.5,366.5 Z"/></g>
<g><path style="opacity:1" fill="#6a6a69" d="M 1835.5,369.5 C 1838.15,369.41 1840.49,370.076 1842.5,371.5C 1839.85,371.59 1837.51,370.924 1835.5,369.5 Z"/></g>
<g><path style="opacity:1" fill="#a6a6a6" d="M 1184.5,378.5 C 1181.5,380.277 1178.16,381.277 1174.5,381.5C 1177.5,379.723 1180.84,378.723 1184.5,378.5 Z"/></g>
<g><path style="opacity:1" fill="#858584" d="M 1174.5,381.5 C 1170.5,383.61 1166.16,384.943 1161.5,385.5C 1165.5,383.39 1169.84,382.057 1174.5,381.5 Z"/></g>
<g><path style="opacity:1" fill="#8b8b8a" d="M 1870.5,381.5 C 1873.95,382.083 1876.95,383.416 1879.5,385.5C 1876.05,384.917 1873.05,383.584 1870.5,381.5 Z"/></g>
<g><path style="opacity:1" fill="#acacac" d="M 1142.5,392.5 C 1135.27,396.272 1127.6,399.272 1119.5,401.5C 1126.66,397.55 1134.33,394.55 1142.5,392.5 Z"/></g>
<g><path style="opacity:1" fill="#7e7e7c" d="M 1946.5,415.5 C 1948.03,415.427 1949.03,416.094 1949.5,417.5C 1947.97,417.573 1946.97,416.906 1946.5,415.5 Z"/></g>
<g><path style="opacity:1" fill="#ababaa" d="M 789.5,617.5 C 788.92,619.749 787.587,621.415 785.5,622.5C 786.08,620.251 787.413,618.585 789.5,617.5 Z"/></g>
<g><path style="opacity:1" fill="#ababaa" d="M 771.5,637.5 C 770.92,639.749 769.587,641.415 767.5,642.5C 768.08,640.251 769.413,638.585 771.5,637.5 Z"/></g>
<g><path style="opacity:1" fill="#858583" d="M 2184.5,642.5 C 2185.91,642.973 2186.57,643.973 2186.5,645.5C 2185.09,645.027 2184.43,644.027 2184.5,642.5 Z"/></g>
<g><path style="opacity:1" fill="#676767" d="M 1110.5,666.5 C 1098.14,666.248 1085.8,666.582 1073.5,667.5C 1073.92,666.778 1074.58,666.278 1075.5,666C 1087.34,665.174 1099.01,665.341 1110.5,666.5 Z"/></g>
<g><path style="opacity:1" fill="#1b1b1b" d="M 1110.5,666.5 C 1126.33,669.332 1141.33,674.332 1155.5,681.5C 1155.97,682.906 1156.97,683.573 1158.5,683.5C 1189.89,702.22 1212.23,728.554 1225.5,762.5C 1225.26,764.898 1225.93,766.898 1227.5,768.5C 1228.35,772.553 1229.52,776.553 1231,780.5C 1231.38,781.056 1231.88,781.389 1232.5,781.5C 1233.94,787.809 1235.27,794.142 1236.5,800.5C 1236.96,806.061 1237.96,811.394 1239.5,816.5C 1239.7,834.182 1239.36,851.849 1238.5,869.5C 1236.96,874.606 1235.96,879.939 1235.5,885.5C 1233.79,893.662 1231.79,901.662 1229.5,909.5C 1227.93,911.102 1227.26,913.102 1227.5,915.5C 1204.63,980.377 1162.29,1028.04 1100.5,1058.5C 1094.06,1060.08 1088.06,1062.42 1082.5,1065.5C 1065.21,1070.32 1047.88,1070.66 1030.5,1066.5C 1028.38,1064.35 1025.72,1063.35 1022.5,1063.5C 990.555,1048.73 965.721,1026.06 948,995.5C 940.85,983.869 935.35,971.536 931.5,958.5C 931.065,955.843 930.065,953.509 928.5,951.5C 927.85,949.565 927.517,947.565 927.5,945.5C 927.277,941.838 926.277,938.505 924.5,935.5C 921.332,916.643 919.998,897.643 920.5,878.5C 921.268,877.737 921.768,876.737 922,875.5C 922.567,867.5 923.067,859.5 923.5,851.5C 925.23,847.117 926.23,842.45 926.5,837.5C 926.565,834.572 927.232,831.905 928.5,829.5C 929.407,827.343 930.073,825.01 930.5,822.5C 933.292,811.957 936.792,801.624 941,791.5C 955.468,759.395 974.302,730.228 997.5,704C 1007.34,697.58 1017.01,690.913 1026.5,684C 1038.18,677.49 1050.52,672.657 1063.5,669.5C 1066.66,669.01 1069.66,668.344 1072.5,667.5C 1072.83,667.5 1073.17,667.5 1073.5,667.5C 1085.8,666.582 1098.14,666.248 1110.5,666.5 Z"/></g>
<g><path style="opacity:1" fill="#7c7c7c" d="M 1072.5,667.5 C 1069.66,668.344 1066.66,669.01 1063.5,669.5C 1063.61,668.883 1063.94,668.383 1064.5,668C 1067.15,667.503 1069.81,667.336 1072.5,667.5 Z"/></g>
<g><path style="opacity:1" fill="#a7a7a6" d="M 2202.5,678.5 C 2204.07,680.509 2205.07,682.843 2205.5,685.5C 2203.17,683.824 2202.17,681.491 2202.5,678.5 Z"/></g>
<g><path style="opacity:1" fill="#8a8a8a" d="M 1155.5,681.5 C 1157.03,681.427 1158.03,682.094 1158.5,683.5C 1156.97,683.573 1155.97,682.906 1155.5,681.5 Z"/></g>
<g><path style="opacity:1" fill="#a9a9a9" d="M 725.5,695.5 C 724.92,697.749 723.587,699.415 721.5,700.5C 722.08,698.251 723.413,696.585 725.5,695.5 Z"/></g>
<g><path style="opacity:1" fill="#80807e" d="M 2216.5,714.5 C 2218.58,717.053 2219.92,720.053 2220.5,723.5C 2218.42,720.947 2217.08,717.947 2216.5,714.5 Z"/></g>
<g><path style="opacity:1" fill="#b7b7b6" d="M 2220.5,724.5 C 2222.61,729.255 2224.28,734.255 2225.5,739.5C 2224.21,738.942 2223.38,737.942 2223,736.5C 2222.06,732.506 2221.22,728.506 2220.5,724.5 Z"/></g>
<g><path style="opacity:1" fill="#1b1b1b" d="M 1871.5,870.5 C 1871.43,872.027 1872.09,873.027 1873.5,873.5C 1873.5,873.833 1873.5,874.167 1873.5,874.5C 1873.17,877.491 1874.17,879.824 1876.5,881.5C 1881.31,894.265 1885.31,907.265 1888.5,920.5C 1888.26,922.898 1888.93,924.898 1890.5,926.5C 1890.5,926.833 1890.5,927.167 1890.5,927.5C 1890.34,930.187 1890.5,932.854 1891,935.5C 1891.38,936.056 1891.88,936.389 1892.5,936.5C 1902.69,984.394 1901.69,1032.06 1889.5,1079.5C 1886.86,1084.08 1885.19,1089.08 1884.5,1094.5C 1869.82,1131.68 1846.15,1161.85 1813.5,1185C 1803.63,1191.27 1793.3,1196.43 1782.5,1200.5C 1777.25,1201.85 1771.91,1203.02 1766.5,1204C 1765.94,1204.38 1765.61,1204.88 1765.5,1205.5C 1757.12,1206.91 1748.62,1207.58 1740,1207.5C 1734.99,1207.5 1730.15,1207.17 1725.5,1206.5C 1720.37,1205.09 1715.04,1204.09 1709.5,1203.5C 1675.12,1194.22 1646.95,1175.56 1625,1147.5C 1616.48,1136.46 1608.98,1124.79 1602.5,1112.5C 1602.57,1110.97 1601.91,1109.97 1600.5,1109.5C 1596.61,1101.72 1593.28,1093.72 1590.5,1085.5C 1590.25,1083.03 1589.25,1081.03 1587.5,1079.5C 1583.7,1066.63 1580.37,1053.63 1577.5,1040.5C 1577.32,1033.25 1576.32,1026.25 1574.5,1019.5C 1573.24,996.835 1573.24,974.169 1574.5,951.5C 1574.5,951.167 1574.5,950.833 1574.5,950.5C 1576,944.377 1577,938.043 1577.5,931.5C 1579.11,919.149 1581.77,907.149 1585.5,895.5C 1587.94,890.5 1589.61,885.166 1590.5,879.5C 1600.94,852.094 1614.11,826.094 1630,801.5C 1645.22,787.149 1662.05,775.149 1680.5,765.5C 1682.03,765.573 1683.03,764.906 1683.5,763.5C 1686.58,761.631 1689.91,760.298 1693.5,759.5C 1696.72,759.655 1699.38,758.655 1701.5,756.5C 1725.43,749.274 1749.1,750.107 1772.5,759C 1786.64,765.232 1799.64,773.232 1811.5,783C 1838.45,807.439 1858.45,836.606 1871.5,870.5 Z"/></g>
<g><path style="opacity:1" fill="#5c5c5c" d="M 1701.5,756.5 C 1699.38,758.655 1696.72,759.655 1693.5,759.5C 1695.94,758.129 1698.6,757.129 1701.5,756.5 Z"/></g>
<g><path style="opacity:1" fill="#808080" d="M 1683.5,763.5 C 1683.03,764.906 1682.03,765.573 1680.5,765.5C 1680.97,764.094 1681.97,763.427 1683.5,763.5 Z"/></g>
<g><path style="opacity:1" fill="#727271" d="M 2232.5,762.5 C 2233.92,764.515 2234.59,766.848 2234.5,769.5C 2233.08,767.485 2232.41,765.152 2232.5,762.5 Z"/></g>
<g><path style="opacity:1" fill="#8a8a89" d="M 679.5,764.5 C 679.573,766.027 678.906,767.027 677.5,767.5C 677.427,765.973 678.094,764.973 679.5,764.5 Z"/></g>
<g><path style="opacity:1" fill="#5c5c5c" d="M 1225.5,762.5 C 1227.07,764.102 1227.74,766.102 1227.5,768.5C 1225.93,766.898 1225.26,764.898 1225.5,762.5 Z"/></g>
<g><path style="opacity:1" fill="#636363" d="M 1227.5,768.5 C 1229.73,772.522 1231.4,776.856 1232.5,781.5C 1231.88,781.389 1231.38,781.056 1231,780.5C 1229.52,776.553 1228.35,772.553 1227.5,768.5 Z"/></g>
<g><path style="opacity:1" fill="#bebebe" d="M 2237.5,781.5 C 2238.66,785.681 2239.66,790.015 2240.5,794.5C 2237.96,790.645 2236.96,786.312 2237.5,781.5 Z"/></g>
<g><path style="opacity:1" fill="#c1c1c1" d="M 1236.5,800.5 C 1237.76,801.514 1238.43,803.014 1238.5,805C 1239.07,808.817 1239.4,812.651 1239.5,816.5C 1237.96,811.394 1236.96,806.061 1236.5,800.5 Z"/></g>
<g><path style="opacity:1" fill="#9e9e9e" d="M 930.5,822.5 C 930.073,825.01 929.407,827.343 928.5,829.5C 928.338,827.473 928.505,825.473 929,823.5C 929.383,822.944 929.883,822.611 930.5,822.5 Z"/></g>
<g><path style="opacity:1" fill="#7f7f7e" d="M 2248.5,834.5 C 2250.67,839.83 2251.67,845.497 2251.5,851.5C 2250.05,846.041 2249.05,840.374 2248.5,834.5 Z"/></g>
<g><path style="opacity:1" fill="#ababa9" d="M 2617.5,835.5 C 2618.92,837.515 2619.59,839.848 2619.5,842.5C 2618.08,840.485 2617.41,838.152 2617.5,835.5 Z"/></g>
<g><path style="opacity:1" fill="#686868" d="M 926.5,837.5 C 926.23,842.45 925.23,847.117 923.5,851.5C 923.77,846.55 924.77,841.883 926.5,837.5 Z"/></g>
<g><path style="opacity:1" fill="#a2a2a2" d="M 2251.5,851.5 C 2253.45,857.556 2254.45,863.889 2254.5,870.5C 2252.62,864.431 2251.62,858.098 2251.5,851.5 Z"/></g>
<g><path style="opacity:1" fill="#484848" d="M 923.5,851.5 C 923.067,859.5 922.567,867.5 922,875.5C 921.768,876.737 921.268,877.737 920.5,878.5C 920.492,869.251 921.492,860.251 923.5,851.5 Z"/></g>
<g><path style="opacity:1" fill="#898989" d="M 1871.5,870.5 C 1872.91,870.973 1873.57,871.973 1873.5,873.5C 1872.09,873.027 1871.43,872.027 1871.5,870.5 Z"/></g>
<g><path style="opacity:1" fill="#c0c0c0" d="M 1238.5,869.5 C 1239.07,875.257 1238.07,880.59 1235.5,885.5C 1235.96,879.939 1236.96,874.606 1238.5,869.5 Z"/></g>
<g><path style="opacity:1" fill="#5f5f5f" d="M 1873.5,874.5 C 1875.07,876.509 1876.07,878.843 1876.5,881.5C 1874.17,879.824 1873.17,877.491 1873.5,874.5 Z"/></g>
<g><path style="opacity:1" fill="#747474" d="M 1590.5,879.5 C 1589.61,885.166 1587.94,890.5 1585.5,895.5C 1586.39,889.834 1588.06,884.5 1590.5,879.5 Z"/></g>
<g><path style="opacity:1" fill="#fdfdfd" d="M 485.5,1133.5 C 485.299,1139.51 484.966,1145.51 484.5,1151.5C 480.438,1169.87 477.438,1188.54 475.5,1207.5C 474.883,1207.61 474.383,1207.94 474,1208.5C 472.75,1218.84 471.583,1229.17 470.5,1239.5C 469.227,1255.89 467.893,1272.22 466.5,1288.5C 464.802,1298.95 463.802,1309.62 463.5,1320.5C 461.536,1369.14 461.036,1417.81 462,1466.5C 462.517,1490.07 464.017,1513.57 466.5,1537C 466.557,1539.96 466.057,1542.79 465,1545.5C 426.27,1501.08 394.27,1452.08 369,1398.5C 360.957,1381.87 353.79,1364.87 347.5,1347.5C 346.917,1344.05 345.584,1341.05 343.5,1338.5C 339.964,1328.56 336.63,1318.56 333.5,1308.5C 332.871,1305.6 331.871,1302.94 330.5,1300.5C 329.791,1295.04 328.125,1290.04 325.5,1285.5C 316.296,1253.77 308.296,1221.77 301.5,1189.5C 301.324,1186.27 300.657,1183.27 299.5,1180.5C 299.59,1177.85 298.924,1175.51 297.5,1173.5C 293.629,1153.94 290.296,1134.27 287.5,1114.5C 287.247,1110.96 286.581,1107.63 285.5,1104.5C 285.007,1102.19 284.674,1099.86 284.5,1097.5C 284.175,1088.55 282.842,1079.88 280.5,1071.5C 280.27,1059.02 278.603,1047.02 275.5,1035.5C 274.741,1027.76 273.741,1020.09 272.5,1012.5C 270.933,992.201 270.267,971.868 270.5,951.5C 271.073,932.726 274.24,914.393 280,896.5C 281.133,894.789 282.633,894.289 284.5,895C 316.367,928.532 347.867,962.366 379,996.5C 412.807,1036.64 445.474,1077.64 477,1119.5C 480.456,1123.79 483.289,1128.46 485.5,1133.5 Z"/></g>
<g><path style="opacity:1" fill="#aaaaa9" d="M 614.5,892.5 C 614.834,895.491 613.834,897.824 611.5,899.5C 611.935,896.843 612.935,894.509 614.5,892.5 Z"/></g>
<g><path style="opacity:1" fill="#8b8b8b" d="M 1229.5,909.5 C 1229.74,911.898 1229.07,913.898 1227.5,915.5C 1227.26,913.102 1227.93,911.102 1229.5,909.5 Z"/></g>
<g><path style="opacity:1" fill="#818181" d="M 1888.5,920.5 C 1890.07,922.102 1890.74,924.102 1890.5,926.5C 1888.93,924.898 1888.26,922.898 1888.5,920.5 Z"/></g>
<g><path style="opacity:1" fill="#7d7d7b" d="M 600.5,928.5 C 600.573,930.027 599.906,931.027 598.5,931.5C 598.427,929.973 599.094,928.973 600.5,928.5 Z"/></g>
<g><path style="opacity:1" fill="#5d5d5d" d="M 1890.5,927.5 C 1891.66,930.273 1892.32,933.273 1892.5,936.5C 1891.88,936.389 1891.38,936.056 1891,935.5C 1890.5,932.854 1890.34,930.187 1890.5,927.5 Z"/></g>
<g><path style="opacity:1" fill="#9b9b9a" d="M 598.5,932.5 C 598.23,936.358 596.897,939.691 594.5,942.5C 595.267,938.851 596.6,935.518 598.5,932.5 Z"/></g>
<g><path style="opacity:1" fill="#989898" d="M 1577.5,931.5 C 1577,938.043 1576,944.377 1574.5,950.5C 1574.47,944.79 1574.97,939.123 1576,933.5C 1576.28,932.584 1576.78,931.918 1577.5,931.5 Z"/></g>
<g><path style="opacity:1" fill="#8e8e8e" d="M 924.5,935.5 C 926.277,938.505 927.277,941.838 927.5,945.5C 925.723,942.495 924.723,939.162 924.5,935.5 Z"/></g>
<g><path style="opacity:1" fill="#5c5c5b" d="M 2260.5,935.5 C 2261.3,936.952 2261.8,938.618 2262,940.5C 2262.5,948.159 2262.67,955.826 2262.5,963.5C 2261.57,954.336 2260.91,945.003 2260.5,935.5 Z"/></g>
<g><path style="opacity:1" fill="#aaaaaa" d="M 928.5,951.5 C 930.065,953.509 931.065,955.843 931.5,958.5C 929.166,956.824 928.166,954.491 928.5,951.5 Z"/></g>
<g><path style="opacity:1" fill="#cecece" d="M 2619.5,955.5 C 2619.31,970.045 2618.31,984.378 2616.5,998.5C 2616.64,983.957 2617.64,969.623 2619.5,955.5 Z"/></g>
<g><path style="opacity:1" fill="#787878" d="M 1574.5,951.5 C 1573.24,974.169 1573.24,996.835 1574.5,1019.5C 1573,1008.54 1572.33,997.373 1572.5,986C 1572.34,974.296 1573.01,962.796 1574.5,951.5 Z"/></g>
<g><path style="opacity:1" fill="#787877" d="M 583.5,975.5 C 582.871,978.397 581.871,981.064 580.5,983.5C 580.345,980.284 581.345,977.617 583.5,975.5 Z"/></g>
<g><path style="opacity:1" fill="#a7a7a6" d="M 580.5,983.5 C 580.323,987.708 578.99,991.374 576.5,994.5C 577.462,990.605 578.796,986.939 580.5,983.5 Z"/></g>
<g><path style="opacity:1" fill="#5d5d5b" d="M 270.5,951.5 C 270.267,971.868 270.933,992.201 272.5,1012.5C 270.961,1006.07 270.128,999.401 270,992.5C 269.173,978.66 269.339,964.994 270.5,951.5 Z"/></g>
<g><path style="opacity:1" fill="#575755" d="M 2262.5,970.5 C 2263.66,994.33 2263.83,1018.33 2263,1042.5C 2262.84,1058.03 2262.01,1073.36 2260.5,1088.5C 2261.99,1049.18 2262.66,1009.85 2262.5,970.5 Z"/></g>
<g><path style="opacity:1" fill="#8a8a89" d="M 2616.5,1005.5 C 2616.56,1010.73 2615.89,1015.73 2614.5,1020.5C 2614.19,1015.23 2614.86,1010.23 2616.5,1005.5 Z"/></g>
<g><path style="opacity:1" fill="#9c9c9c" d="M 1574.5,1019.5 C 1576.32,1026.25 1577.32,1033.25 1577.5,1040.5C 1575.76,1033.74 1574.76,1026.74 1574.5,1019.5 Z"/></g>
<g><path style="opacity:1" fill="#848483" d="M 566.5,1028.5 C 566.59,1031.15 565.924,1033.49 564.5,1035.5C 564.41,1032.85 565.076,1030.51 566.5,1028.5 Z"/></g>
<g><path style="opacity:1" fill="#b6b6b5" d="M 275.5,1035.5 C 278.603,1047.02 280.27,1059.02 280.5,1071.5C 278.407,1059.69 276.74,1047.69 275.5,1035.5 Z"/></g>
<g><path style="opacity:1" fill="#919190" d="M 564.5,1035.5 C 564.59,1038.15 563.924,1040.49 562.5,1042.5C 562.41,1039.85 563.076,1037.51 564.5,1035.5 Z"/></g>
<g><path style="opacity:1" fill="#8c8c8b" d="M 2613.5,1032.5 C 2613.24,1039.74 2612.24,1046.74 2610.5,1053.5C 2610.68,1046.25 2611.68,1039.25 2613.5,1032.5 Z"/></g>
<g><path style="opacity:1" fill="#5e5e5e" d="M 1022.5,1063.5 C 1025.72,1063.35 1028.38,1064.35 1030.5,1066.5C 1027.6,1065.87 1024.94,1064.87 1022.5,1063.5 Z"/></g>
<g><path style="opacity:1" fill="#9e9e9e" d="M 1100.5,1058.5 C 1095.03,1061.89 1089.03,1064.22 1082.5,1065.5C 1088.06,1062.42 1094.06,1060.08 1100.5,1058.5 Z"/></g>
<g><path style="opacity:1" fill="#5d5d5b" d="M 2610.5,1058.5 C 2610.67,1064.5 2609.67,1070.17 2607.5,1075.5C 2608.05,1069.63 2609.05,1063.96 2610.5,1058.5 Z"/></g>
<g><path style="opacity:1" fill="#888887" d="M 280.5,1071.5 C 282.842,1079.88 284.175,1088.55 284.5,1097.5C 282.539,1089.06 281.205,1080.39 280.5,1071.5 Z"/></g>
<g><path style="opacity:1" fill="#848484" d="M 1587.5,1079.5 C 1589.25,1081.03 1590.25,1083.03 1590.5,1085.5C 1588.75,1083.97 1587.75,1081.97 1587.5,1079.5 Z"/></g>
<g><path style="opacity:1" fill="#9a9a9a" d="M 1889.5,1079.5 C 1888.41,1084.77 1886.74,1089.77 1884.5,1094.5C 1885.19,1089.08 1886.86,1084.08 1889.5,1079.5 Z"/></g>
<g><path style="opacity:1" fill="#90908f" d="M 550.5,1088.5 C 550.59,1091.15 549.924,1093.49 548.5,1095.5C 548.41,1092.85 549.076,1090.51 550.5,1088.5 Z"/></g>
<g><path style="opacity:1" fill="#6c6c6b" d="M 285.5,1104.5 C 286.581,1107.63 287.247,1110.96 287.5,1114.5C 286.778,1114.08 286.278,1113.42 286,1112.5C 285.503,1109.85 285.336,1107.19 285.5,1104.5 Z"/></g>
<g><path style="opacity:1" fill="#a0a09f" d="M 546.5,1105.5 C 546.59,1108.15 545.924,1110.49 544.5,1112.5C 544.41,1109.85 545.076,1107.51 546.5,1105.5 Z"/></g>
<g><path style="opacity:1" fill="#808080" d="M 1600.5,1109.5 C 1601.91,1109.97 1602.57,1110.97 1602.5,1112.5C 1601.09,1112.03 1600.43,1111.03 1600.5,1109.5 Z"/></g>
<g><path style="opacity:1" fill="#a4a4a3" d="M 2600.5,1119.5 C 2600.59,1122.15 2599.92,1124.49 2598.5,1126.5C 2598.34,1124.47 2598.5,1122.47 2599,1120.5C 2599.38,1119.94 2599.88,1119.61 2600.5,1119.5 Z"/></g>
<g><path style="opacity:1" fill="#7f7f7e" d="M 2598.5,1130.5 C 2598.59,1133.15 2597.92,1135.49 2596.5,1137.5C 2596.41,1134.85 2597.08,1132.51 2598.5,1130.5 Z"/></g>
<g><path style="opacity:1" fill="#7f7f7e" d="M 2294.5,1138.5 C 2293.65,1139.97 2292.32,1140.8 2290.5,1141C 2285.65,1141.82 2280.98,1141.65 2276.5,1140.5C 2282.65,1140.9 2288.65,1140.23 2294.5,1138.5 Z"/></g>
<g><path style="opacity:1" fill="#81817f" d="M 485.5,1133.5 C 486.163,1135.47 486.496,1137.64 486.5,1140C 486.569,1144.09 485.903,1147.93 484.5,1151.5C 484.966,1145.51 485.299,1139.51 485.5,1133.5 Z"/></g>
<g><path style="opacity:1" fill="#898988" d="M 536.5,1152.5 C 536.59,1155.15 535.924,1157.49 534.5,1159.5C 534.41,1156.85 535.076,1154.51 536.5,1152.5 Z"/></g>
<g><path style="opacity:1" fill="#676766" d="M 2593.5,1153.5 C 2593.59,1156.15 2592.92,1158.49 2591.5,1160.5C 2591.41,1157.85 2592.08,1155.51 2593.5,1153.5 Z"/></g>
<g><path style="opacity:1" fill="#959594" d="M 534.5,1159.5 C 533.791,1167.88 532.624,1176.22 531,1184.5C 530.722,1185.42 530.222,1186.08 529.5,1186.5C 530.646,1177.28 532.313,1168.28 534.5,1159.5 Z"/></g>
<g><path style="opacity:1" fill="#757574" d="M 297.5,1173.5 C 298.924,1175.51 299.59,1177.85 299.5,1180.5C 298.076,1178.49 297.41,1176.15 297.5,1173.5 Z"/></g>
<g><path style="opacity:1" fill="#696968" d="M 299.5,1180.5 C 300.657,1183.27 301.324,1186.27 301.5,1189.5C 300.883,1189.39 300.383,1189.06 300,1188.5C 299.503,1185.85 299.336,1183.19 299.5,1180.5 Z"/></g>
<g><path style="opacity:1" fill="#ababaa" d="M 2585.5,1186.5 C 2584.61,1191.07 2583.28,1195.41 2581.5,1199.5C 2582.01,1195.45 2582.85,1191.45 2584,1187.5C 2584.38,1186.94 2584.88,1186.61 2585.5,1186.5 Z"/></g>
<g><path style="opacity:1" fill="#acacac" d="M 1782.5,1200.5 C 1777.2,1203.04 1771.53,1204.7 1765.5,1205.5C 1765.61,1204.88 1765.94,1204.38 1766.5,1204C 1771.91,1203.02 1777.25,1201.85 1782.5,1200.5 Z"/></g>
<g><path style="opacity:1" fill="#878787" d="M 1709.5,1203.5 C 1715.04,1204.09 1720.37,1205.09 1725.5,1206.5C 1719.78,1206.77 1714.45,1205.77 1709.5,1203.5 Z"/></g>
<g><path style="opacity:1" fill="#cdcdcc" d="M 529.5,1188.5 C 529.199,1194.51 528.699,1200.51 528,1206.5C 527.434,1208.72 526.6,1210.72 525.5,1212.5C 526.383,1204.3 527.717,1196.3 529.5,1188.5 Z"/></g>
<g><path style="opacity:1" fill="#666664" d="M 2577.5,1215.5 C 2577.59,1218.15 2576.92,1220.49 2575.5,1222.5C 2575.41,1219.85 2576.08,1217.51 2577.5,1215.5 Z"/></g>
<g><path style="opacity:1" fill="#a5a5a4" d="M 475.5,1207.5 C 474.475,1218.4 472.808,1229.06 470.5,1239.5C 471.583,1229.17 472.75,1218.84 474,1208.5C 474.383,1207.94 474.883,1207.61 475.5,1207.5 Z"/></g>
<g><path style="opacity:1" fill="#626260" d="M 522.5,1236.5 C 522.075,1242.73 521.075,1248.73 519.5,1254.5C 519.4,1248.18 520.4,1242.18 522.5,1236.5 Z"/></g>
<g><path style="opacity:1" fill="#90908f" d="M 2567.5,1249.5 C 2566.54,1253.39 2565.2,1257.06 2563.5,1260.5C 2563.68,1256.29 2565.01,1252.63 2567.5,1249.5 Z"/></g>
<g><path style="opacity:1" fill="#696968" d="M 2563.5,1260.5 C 2563.65,1263.72 2562.65,1266.38 2560.5,1268.5C 2561.13,1265.6 2562.13,1262.94 2563.5,1260.5 Z"/></g>
<g><path style="opacity:1" fill="#919190" d="M 519.5,1258.5 C 518.455,1274.71 516.789,1290.71 514.5,1306.5C 515.255,1290.25 516.922,1274.25 519.5,1258.5 Z"/></g>
<g><path style="opacity:1" fill="#969695" d="M 325.5,1285.5 C 328.125,1290.04 329.791,1295.04 330.5,1300.5C 328.262,1295.78 326.595,1290.78 325.5,1285.5 Z"/></g>
<g><path style="opacity:1" fill="#8b8b8a" d="M 2552.5,1292.5 C 2551.92,1295.95 2550.58,1298.95 2548.5,1301.5C 2549.08,1298.05 2550.42,1295.05 2552.5,1292.5 Z"/></g>
<g><path style="opacity:1" fill="#696968" d="M 330.5,1300.5 C 331.871,1302.94 332.871,1305.6 333.5,1308.5C 331.345,1306.38 330.345,1303.72 330.5,1300.5 Z"/></g>
<g><path style="opacity:1" fill="#4a4a49" d="M 466.5,1288.5 C 466.901,1299.44 465.901,1310.11 463.5,1320.5C 463.802,1309.62 464.802,1298.95 466.5,1288.5 Z"/></g>
<g><path style="opacity:1" fill="#1b1b1b" d="M 1367.5,1449.5 C 1366.03,1453.92 1365.36,1458.59 1365.5,1463.5C 1357.41,1495.66 1338.41,1518.99 1308.5,1533.5C 1305.05,1534.08 1302.05,1535.42 1299.5,1537.5C 1297.5,1537.83 1295.5,1538.17 1293.5,1538.5C 1283.5,1539.72 1273.5,1539.72 1263.5,1538.5C 1263.17,1538.5 1262.83,1538.5 1262.5,1538.5C 1259.95,1536.42 1256.95,1535.08 1253.5,1534.5C 1241.75,1528.59 1231.92,1520.26 1224,1509.5C 1219.26,1501.35 1215.09,1493.02 1211.5,1484.5C 1211.47,1481.08 1210.47,1478.08 1208.5,1475.5C 1203.85,1453.44 1202.35,1431.11 1204,1408.5C 1204.25,1405.08 1204.75,1401.75 1205.5,1398.5C 1207.05,1394.43 1207.72,1390.1 1207.5,1385.5C 1209.76,1380.53 1210.76,1375.19 1210.5,1369.5C 1211.95,1366.75 1212.95,1363.75 1213.5,1360.5C 1214.91,1360.03 1215.57,1359.03 1215.5,1357.5C 1225.06,1338.1 1239.06,1322.6 1257.5,1311C 1304.61,1294.63 1338.11,1309.13 1358,1354.5C 1368.35,1385.4 1371.51,1417.07 1367.5,1449.5 Z"/></g>
<g><path style="opacity:1" fill="#c6c6c6" d="M 514.5,1309.5 C 514.573,1323.19 514.073,1336.85 513,1350.5C 512.802,1352.38 512.302,1354.05 511.5,1355.5C 512.286,1340 513.286,1324.67 514.5,1309.5 Z"/></g>
<g><path style="opacity:1" fill="#8b8b8b" d="M 343.5,1338.5 C 345.584,1341.05 346.917,1344.05 347.5,1347.5C 345.416,1344.95 344.083,1341.95 343.5,1338.5 Z"/></g>
<g><path style="opacity:1" fill="#818181" d="M 1215.5,1357.5 C 1215.57,1359.03 1214.91,1360.03 1213.5,1360.5C 1213.43,1358.97 1214.09,1357.97 1215.5,1357.5 Z"/></g>
<g><path style="opacity:1" fill="#656565" d="M 1210.5,1369.5 C 1210.76,1375.19 1209.76,1380.53 1207.5,1385.5C 1207.96,1379.94 1208.96,1374.61 1210.5,1369.5 Z"/></g>
<g><path style="opacity:1" fill="#5c5c5c" d="M 1207.5,1385.5 C 1207.72,1390.1 1207.05,1394.43 1205.5,1398.5C 1205.28,1393.9 1205.95,1389.57 1207.5,1385.5 Z"/></g>
<g><path style="opacity:1" fill="#9b9b9b" d="M 1367.5,1449.5 C 1367.64,1454.41 1366.97,1459.08 1365.5,1463.5C 1365.36,1458.59 1366.03,1453.92 1367.5,1449.5 Z"/></g>
<g><path style="opacity:1" fill="#8b8b8b" d="M 1208.5,1475.5 C 1210.47,1478.08 1211.47,1481.08 1211.5,1484.5C 1209.69,1481.86 1208.69,1478.86 1208.5,1475.5 Z"/></g>
<g><path style="opacity:1" fill="#a8a8a7" d="M 511.5,1477.5 C 513.251,1487.27 513.917,1497.27 513.5,1507.5C 512.455,1497.68 511.788,1487.68 511.5,1477.5 Z"/></g>
<g><path style="opacity:1" fill="#9d9d9d" d="M 513.5,1514.5 C 515.051,1518.9 515.884,1523.57 516,1528.5C 516.499,1534.49 516.666,1540.49 516.5,1546.5C 515.505,1535.98 514.505,1525.31 513.5,1514.5 Z"/></g>
<g><path style="opacity:1" fill="#858585" d="M 1253.5,1534.5 C 1256.95,1535.08 1259.95,1536.42 1262.5,1538.5C 1259.05,1537.92 1256.05,1536.58 1253.5,1534.5 Z"/></g>
<g><path style="opacity:1" fill="#959595" d="M 1308.5,1533.5 C 1305.95,1535.58 1302.95,1536.92 1299.5,1537.5C 1302.05,1535.42 1305.05,1534.08 1308.5,1533.5 Z"/></g>
<g><path style="opacity:1" fill="#5f5f5f" d="M 1263.5,1538.5 C 1273.5,1539.72 1283.5,1539.72 1293.5,1538.5C 1283.49,1541.03 1273.49,1541.03 1263.5,1538.5 Z"/></g>
<g><path style="opacity:1" fill="#7c7c7b" d="M 516.5,1550.5 C 518.415,1556.9 519.415,1563.57 519.5,1570.5C 517.754,1564.07 516.754,1557.41 516.5,1550.5 Z"/></g>
<g><path style="opacity:1" fill="#6d6d6c" d="M 519.5,1574.5 C 520.889,1579.27 521.556,1584.27 521.5,1589.5C 520.111,1584.73 519.444,1579.73 519.5,1574.5 Z"/></g>
<g><path style="opacity:1" fill="#6a6a68" d="M 521.5,1589.5 C 522.972,1593.92 523.638,1598.59 523.5,1603.5C 522.028,1599.08 521.362,1594.41 521.5,1589.5 Z"/></g>
<g><path style="opacity:1" fill="#616160" d="M 2378.5,1597.5 C 2377.92,1599.75 2376.59,1601.42 2374.5,1602.5C 2375.08,1600.25 2376.41,1598.58 2378.5,1597.5 Z"/></g>
<g><path style="opacity:1" fill="#777776" d="M 533.5,1665.5 C 534.222,1665.92 534.722,1666.58 535,1667.5C 535.548,1671.17 536.048,1674.84 536.5,1678.5C 534.763,1674.46 533.763,1670.12 533.5,1665.5 Z"/></g>
<g><path style="opacity:1" fill="#7e7e7d" d="M 2300.5,1708.5 C 2300.57,1710.03 2299.91,1711.03 2298.5,1711.5C 2298.43,1709.97 2299.09,1708.97 2300.5,1708.5 Z"/></g>
<g><path style="opacity:1" fill="#8f8f8f" d="M 548.5,1731.5 C 549.924,1733.51 550.59,1735.85 550.5,1738.5C 549.076,1736.49 548.41,1734.15 548.5,1731.5 Z"/></g>
<g><path style="opacity:1" fill="#7f7f7e" d="M 563.5,1785.5 C 565.472,1788.08 566.472,1791.08 566.5,1794.5C 564.69,1791.86 563.69,1788.86 563.5,1785.5 Z"/></g>
<g><path style="opacity:1" fill="#787876" d="M 566.5,1794.5 C 567.924,1796.51 568.59,1798.85 568.5,1801.5C 567.076,1799.49 566.41,1797.15 566.5,1794.5 Z"/></g>
<g><path style="opacity:1" fill="#797978" d="M 2251.5,1813.5 C 2250.74,1817.77 2249.41,1821.77 2247.5,1825.5C 2247.86,1821.08 2249.19,1817.08 2251.5,1813.5 Z"/></g>
<g><path style="opacity:1" fill="#929291" d="M 579.5,1834.5 C 581.584,1837.05 582.917,1840.05 583.5,1843.5C 581.416,1840.95 580.083,1837.95 579.5,1834.5 Z"/></g>
<g><path style="opacity:1" fill="#858583" d="M 2235.5,1876.5 C 2234.57,1885.11 2232.9,1893.45 2230.5,1901.5C 2231.45,1893.81 2232.61,1886.14 2234,1878.5C 2234.28,1877.58 2234.78,1876.92 2235.5,1876.5 Z"/></g>
<g><path style="opacity:1" fill="#888887" d="M 624.5,1938.5 C 625.906,1938.97 626.573,1939.97 626.5,1941.5C 625.094,1941.03 624.427,1940.03 624.5,1938.5 Z"/></g>
<g><path style="opacity:1" fill="#4a4a48" d="M 2227.5,2038.5 C 2229.26,2043.55 2229.93,2048.89 2229.5,2054.5C 2228.45,2049.35 2227.78,2044.02 2227.5,2038.5 Z"/></g>
<g><path style="opacity:1" fill="#9c9c9b" d="M 2233.5,2085.5 C 2234.91,2090.63 2235.91,2095.96 2236.5,2101.5C 2234.23,2096.55 2233.23,2091.22 2233.5,2085.5 Z"/></g>
<g><path style="opacity:1" fill="#80807f" d="M 2248.5,2152.5 C 2249.92,2154.51 2250.59,2156.85 2250.5,2159.5C 2249.08,2157.49 2248.41,2155.15 2248.5,2152.5 Z"/></g>
<g><path style="opacity:1" fill="#a8a8a7" d="M 2251.5,2163.5 C 2252.87,2165.94 2253.87,2168.6 2254.5,2171.5C 2252.35,2169.38 2251.35,2166.72 2251.5,2163.5 Z"/></g>
<g><path style="opacity:1" fill="#858584" d="M 2263.5,2198.5 C 2264.91,2198.97 2265.57,2199.97 2265.5,2201.5C 2264.09,2201.03 2263.43,2200.03 2263.5,2198.5 Z"/></g>
<g><path style="opacity:1" fill="#6a6a68" d="M 859.5,2257.5 C 862.833,2260.17 865.833,2263.17 868.5,2266.5C 864.5,2264.5 861.5,2261.5 859.5,2257.5 Z"/></g>
<g><path style="opacity:1" fill="#7c7c7b" d="M 1134.5,2463.5 C 1136.03,2463.43 1137.03,2464.09 1137.5,2465.5C 1135.97,2465.57 1134.97,2464.91 1134.5,2463.5 Z"/></g>
<g><path style="opacity:1" fill="#818180" d="M 1197.5,2493.5 C 1199.03,2493.43 1200.03,2494.09 1200.5,2495.5C 1198.97,2495.57 1197.97,2494.91 1197.5,2493.5 Z"/></g>
<g><path style="opacity:1" fill="#80807f" d="M 2529.5,2497.5 C 2531.03,2497.43 2532.03,2498.09 2532.5,2499.5C 2530.97,2499.57 2529.97,2498.91 2529.5,2497.5 Z"/></g>
<g><path style="opacity:1" fill="#8a8a8a" d="M 1241.5,2512.5 C 1243.03,2512.43 1244.03,2513.09 1244.5,2514.5C 1242.97,2514.57 1241.97,2513.91 1241.5,2512.5 Z"/></g>
<g><path style="opacity:1" fill="#848484" d="M 1278.5,2527.5 C 1280.03,2527.43 1281.03,2528.09 1281.5,2529.5C 1279.97,2529.57 1278.97,2528.91 1278.5,2527.5 Z"/></g>
<g><path style="opacity:1" fill="#8f8f8e" d="M 2593.5,2527.5 C 2597.94,2528.41 2601.94,2530.08 2605.5,2532.5C 2601.06,2531.59 2597.06,2529.92 2593.5,2527.5 Z"/></g>
<g><path style="opacity:1" fill="#a8a8a7" d="M 1282.5,2529.5 C 1285.49,2529.17 1287.82,2530.17 1289.5,2532.5C 1286.84,2532.07 1284.51,2531.07 1282.5,2529.5 Z"/></g>
<g><path style="opacity:1" fill="#7e7e7d" d="M 1317.5,2542.5 C 1320.95,2543.08 1323.95,2544.42 1326.5,2546.5C 1323.05,2545.92 1320.05,2544.58 1317.5,2542.5 Z"/></g>
<g><path style="opacity:1" fill="#4a4a48" d="M 2629.5,2540.5 C 2626.5,2543.5 2622.84,2545.16 2618.5,2545.5C 2621.74,2543.05 2625.41,2541.38 2629.5,2540.5 Z"/></g>
<g><path style="opacity:1" fill="#7d7d7b" d="M 1362.5,2558.5 C 1366.39,2559.46 1370.06,2560.8 1373.5,2562.5C 1369.29,2562.32 1365.63,2560.99 1362.5,2558.5 Z"/></g>
<g><path style="opacity:1" fill="#a3a3a2" d="M 1373.5,2562.5 C 1376.72,2562.35 1379.38,2563.35 1381.5,2565.5C 1378.6,2564.87 1375.94,2563.87 1373.5,2562.5 Z"/></g>
<g><path style="opacity:1" fill="#888887" d="M 1410.5,2574.5 C 1413.86,2574.69 1416.86,2575.69 1419.5,2577.5C 1416.08,2577.47 1413.08,2576.47 1410.5,2574.5 Z"/></g>
<g><path style="opacity:1" fill="#676766" d="M 2556.5,2573.5 C 2553.29,2575.93 2549.62,2577.6 2545.5,2578.5C 2548.63,2575.89 2552.3,2574.22 2556.5,2573.5 Z"/></g>
<g><path style="opacity:1" fill="#929291" d="M 1419.5,2577.5 C 1422.15,2577.41 1424.49,2578.08 1426.5,2579.5C 1423.85,2579.59 1421.51,2578.92 1419.5,2577.5 Z"/></g>
<g><path style="opacity:1" fill="#757574" d="M 1462.5,2590.5 C 1465.15,2590.41 1467.49,2591.08 1469.5,2592.5C 1466.85,2592.59 1464.51,2591.92 1462.5,2590.5 Z"/></g>
<g><path style="opacity:1" fill="#727271" d="M 2516.5,2589.5 C 2512.94,2591.92 2508.94,2593.59 2504.5,2594.5C 2508.06,2592.08 2512.06,2590.41 2516.5,2589.5 Z"/></g>
<g><path style="opacity:1" fill="#8f8f8e" d="M 1473.5,2593.5 C 1476.15,2593.41 1478.49,2594.08 1480.5,2595.5C 1477.85,2595.59 1475.51,2594.92 1473.5,2593.5 Z"/></g>
<g><path style="opacity:1" fill="#60605f" d="M 1503.5,2601.5 C 1509.13,2602.57 1514.47,2604.23 1519.5,2606.5C 1514.48,2605.49 1509.48,2604.33 1504.5,2603C 1503.94,2602.62 1503.61,2602.12 1503.5,2601.5 Z"/></g>
<g><path style="opacity:1" fill="#555553" d="M 2484.5,2601.5 C 2484.39,2602.12 2484.06,2602.62 2483.5,2603C 2476.56,2605.48 2469.56,2607.65 2462.5,2609.5C 2469.53,2606.27 2476.86,2603.6 2484.5,2601.5 Z"/></g>
<g><path style="opacity:1" fill="#a4a4a4" d="M 1590.5,2623.5 C 1595.31,2622.96 1599.65,2623.96 1603.5,2626.5C 1599.01,2625.66 1594.68,2624.66 1590.5,2623.5 Z"/></g>
<g><path style="opacity:1" fill="#747472" d="M 2417.5,2623.5 C 2415.9,2625.07 2413.9,2625.74 2411.5,2625.5C 2413.1,2623.93 2415.1,2623.26 2417.5,2623.5 Z"/></g>
<g><path style="opacity:1" fill="#6f6f6e" d="M 1657.5,2637.5 C 1660.5,2637.29 1663.16,2637.96 1665.5,2639.5C 1662.57,2639.43 1659.91,2638.77 1657.5,2637.5 Z"/></g>
<g><path style="opacity:1" fill="#999998" d="M 1666.5,2639.5 C 1670.49,2639.12 1674.16,2639.78 1677.5,2641.5C 1673.64,2641.19 1669.97,2640.52 1666.5,2639.5 Z"/></g>
<g><path style="opacity:1" fill="#797978" d="M 2363.5,2638.5 C 2361.49,2639.92 2359.15,2640.59 2356.5,2640.5C 2358.51,2639.08 2360.85,2638.41 2363.5,2638.5 Z"/></g>
<g><path style="opacity:1" fill="#a7a7a6" d="M 1677.5,2641.5 C 1681.49,2641.12 1685.16,2641.78 1688.5,2643.5C 1684.64,2643.19 1680.97,2642.52 1677.5,2641.5 Z"/></g>
<g><path style="opacity:1" fill="#b6b6b5" d="M 1690.5,2643.5 C 1695.61,2643.04 1700.27,2644.04 1704.5,2646.5C 1699.58,2646.13 1694.91,2645.13 1690.5,2643.5 Z"/></g>
<g><path style="opacity:1" fill="#6b6b69" d="M 1743.5,2652.5 C 1746.15,2652.41 1748.49,2653.08 1750.5,2654.5C 1748.47,2654.66 1746.47,2654.5 1744.5,2654C 1743.94,2653.62 1743.61,2653.12 1743.5,2652.5 Z"/></g>
<g><path style="opacity:1" fill="#6b6b6a" d="M 2312.5,2650.5 C 2312.39,2651.12 2312.06,2651.62 2311.5,2652C 2302.88,2653.83 2294.21,2655.33 2285.5,2656.5C 2294.19,2653.76 2303.19,2651.76 2312.5,2650.5 Z"/></g>
<g><path style="opacity:1" fill="#858584" d="M 1752.5,2654.5 C 1762.79,2655.25 1772.79,2656.92 1782.5,2659.5C 1772.28,2658.38 1762.28,2656.71 1752.5,2654.5 Z"/></g>
<g><path style="opacity:1" fill="#9b9b9a" d="M 2283.5,2656.5 C 2279.71,2657.62 2275.71,2658.28 2271.5,2658.5C 2275.21,2656.86 2279.21,2656.2 2283.5,2656.5 Z"/></g>
<g><path style="opacity:1" fill="#888886" d="M 2270.5,2658.5 C 2268.09,2659.77 2265.43,2660.43 2262.5,2660.5C 2264.84,2658.96 2267.5,2658.29 2270.5,2658.5 Z"/></g>
<g><path style="opacity:1" fill="#7f7f7e" d="M 2214.5,2667.5 C 2200.76,2670.21 2186.76,2671.88 2172.5,2672.5C 2186.3,2670.32 2200.3,2668.65 2214.5,2667.5 Z"/></g>
<g><path style="opacity:1" fill="#6c6c6b" d="M 1852.5,2668.5 C 1857.1,2668.28 1861.43,2668.95 1865.5,2670.5C 1860.9,2670.72 1856.57,2670.05 1852.5,2668.5 Z"/></g>
<g><path style="opacity:1" fill="#a7a7a6" d="M 1885.5,2672.5 C 1893.08,2672.09 1900.41,2672.76 1907.5,2674.5C 1899.99,2674.2 1892.65,2673.54 1885.5,2672.5 Z"/></g>
<g><path style="opacity:1" fill="#686867" d="M 2171.5,2672.5 C 2167.43,2674.05 2163.1,2674.72 2158.5,2674.5C 2162.54,2672.82 2166.88,2672.16 2171.5,2672.5 Z"/></g>
<g><path style="opacity:1" fill="#cecece" d="M 2148.5,2674.5 C 2131.38,2676.68 2114.05,2678.01 2096.5,2678.5C 2100.11,2677.18 2104.11,2676.51 2108.5,2676.5C 2121.83,2675.68 2135.16,2675.01 2148.5,2674.5 Z"/></g>
<g><path style="opacity:1" fill="#d0d0cf" d="M 1911.5,2674.5 C 1938.81,2676.06 1966.14,2677.23 1993.5,2678C 1994.06,2678.38 1994.39,2678.88 1994.5,2679.5C 1986.16,2679.67 1977.83,2679.5 1969.5,2679C 1949.97,2678.06 1930.64,2676.56 1911.5,2674.5 Z"/></g>
</svg>
