<?xml version="1.0" encoding="UTF-8"?>
<!DOCTYPE svg PUBLIC "-//W3C//DTD SVG 1.1//EN" "http://www.w3.org/Graphics/SVG/1.1/DTD/svg11.dtd">
<svg xmlns="http://www.w3.org/2000/svg" version="1.1" width="3000px" height="3000px" style="shape-rendering:geometricPrecision; text-rendering:geometricPrecision; image-rendering:optimizeQuality; fill-rule:evenodd; clip-rule:evenodd" xmlns:xlink="http://www.w3.org/1999/xlink">
<g><path style="opacity:0.999" fill="#fec7bd" d="M 1043.5,308.5 C 1091.28,309.113 1135.95,321.28 1177.5,345C 1227.81,373.612 1272.65,409.446 1312,452.5C 1400.36,550.132 1466.03,661.799 1509,787.5C 1547.17,675.445 1603.17,573.779 1677,482.5C 1708.68,445.151 1743.84,411.651 1782.5,382C 1814.97,358.428 1850.31,340.095 1888.5,327C 1992.3,299.016 2066.8,333.516 2112,430.5C 2127.95,468.948 2137.61,508.948 2141,550.5C 2146.71,632.823 2138.71,713.823 2117,793.5C 2096.99,868.483 2068.99,940.15 2033,1008.5C 2167.42,940.77 2309.92,904.77 2460.5,900.5C 2510.87,900.006 2560.21,906.839 2608.5,921C 2642.72,931.437 2673.39,948.104 2700.5,971C 2743.65,1013.49 2757.82,1064.33 2743,1123.5C 2731.36,1164.78 2712.36,1202.11 2686,1235.5C 2658.24,1270.6 2627.07,1302.43 2592.5,1331C 2505.9,1399.83 2410.23,1453.49 2305.5,1492C 2285.52,1498.94 2265.52,1505.77 2245.5,1512.5C 2354.75,1545.63 2456.09,1594.47 2549.5,1659C 2593.3,1689.79 2633.14,1725.29 2669,1765.5C 2697.85,1798.4 2720.18,1835.4 2736,1876.5C 2762.92,1962.77 2737.42,2028.27 2659.5,2073C 2611.97,2096.8 2561.64,2110.47 2508.5,2114C 2423.79,2119.75 2340.12,2112.75 2257.5,2093C 2196.53,2079.01 2137.19,2060.01 2079.5,2036C 2059.39,2027.27 2039.39,2018.6 2019.5,2010C 2082.02,2121.24 2119.85,2240.4 2133,2367.5C 2138.87,2426.7 2134.21,2485.04 2119,2542.5C 2107.04,2585.4 2084.88,2621.9 2052.5,2652C 2011.85,2682.91 1966.18,2693.91 1915.5,2685C 1874.52,2676.84 1836.52,2661.5 1801.5,2639C 1750.89,2605.75 1705.72,2565.91 1666,2519.5C 1588.42,2426.73 1529.58,2322.73 1489.5,2207.5C 1449.32,2328.92 1387.82,2437.59 1305,2533.5C 1265.7,2578.16 1220.54,2615.33 1169.5,2645C 1136.48,2663.67 1101.14,2675.34 1063.5,2680C 999.922,2684.95 949.088,2662.12 911,2611.5C 880.662,2565.83 862.995,2515.5 858,2460.5C 851.289,2391.63 854.956,2323.29 869,2255.5C 888.063,2162.8 919.897,2074.8 964.5,1991.5C 964.167,1991.17 963.833,1990.83 963.5,1990.5C 846.725,2048.36 723.392,2083.2 593.5,2095C 541.591,2099.2 489.924,2097.2 438.5,2089C 396.16,2082.15 356.827,2067.49 320.5,2045C 258.715,2001.67 237.215,1943.17 256,1869.5C 263.751,1843.34 274.751,1818.67 289,1795.5C 313.325,1757.82 342.158,1723.65 375.5,1693C 442.291,1633.57 516.291,1584.57 597.5,1546C 647.807,1522.4 699.474,1502.23 752.5,1485.5C 633.768,1449.47 524.768,1394.97 425.5,1322C 397.514,1300.36 371.014,1276.86 346,1251.5C 316.168,1220.18 291.502,1185.18 272,1146.5C 226.772,1037.47 257.939,959.304 365.5,912C 405.071,896.524 446.071,887.191 488.5,884C 576.667,878.116 663.667,885.783 749.5,907C 829.928,926.583 907.262,954.25 981.5,990C 919.786,879.19 881.953,760.69 868,634.5C 862.936,583.145 865.27,532.145 875,481.5C 883.335,439.444 900.335,401.444 926,367.5C 956.807,331.18 995.974,311.513 1043.5,308.5 Z"/></g>
<g><path style="opacity:1" fill="#f69294" d="M 1200.5,718.5 C 1233.73,718.187 1264.73,726.353 1293.5,743C 1323.22,760.701 1350.05,782.201 1374,807.5C 1433.33,873.434 1477.33,948.767 1506,1033.5C 1530.57,958.329 1567.57,890.329 1617,829.5C 1645.79,794.022 1679.96,765.188 1719.5,743C 1737.58,733.861 1756.58,727.527 1776.5,724C 1825.64,719.818 1862.47,738.985 1887,781.5C 1898.24,801.892 1905.91,823.558 1910,846.5C 1916.49,884.381 1917.16,922.381 1912,960.5C 1902.33,1036.69 1879.49,1108.69 1843.5,1176.5C 1851.57,1173.99 1859.57,1170.49 1867.5,1166C 1934.93,1134.81 2005.6,1115.48 2079.5,1108C 2121.25,1104.61 2162.59,1107.28 2203.5,1116C 2229.6,1122.38 2252.94,1134.05 2273.5,1151C 2300.86,1176.41 2311.02,1207.58 2304,1244.5C 2296.8,1275.24 2283.46,1302.9 2264,1327.5C 2231.09,1367.42 2192.92,1401.25 2149.5,1429C 2096.42,1462.53 2039.76,1488.53 1979.5,1507C 2057.06,1530.7 2128.06,1566.7 2192.5,1615C 2225.16,1639.66 2253,1668.83 2276,1702.5C 2288.83,1722.17 2297.83,1743.51 2303,1766.5C 2309.02,1814.3 2291.18,1850.13 2249.5,1874C 2223.43,1887.69 2195.77,1896.35 2166.5,1900C 2122.02,1905.31 2077.68,1904.31 2033.5,1897C 1986.53,1889.51 1940.86,1877.17 1896.5,1860C 1875.21,1851.36 1854.21,1842.36 1833.5,1833C 1880.47,1916.39 1905.8,2005.89 1909.5,2101.5C 1909.63,2138.12 1903.13,2173.46 1890,2207.5C 1860.36,2269.74 1812.19,2291.24 1745.5,2272C 1709.62,2258.4 1677.62,2238.74 1649.5,2213C 1593.96,2160.45 1550.46,2099.29 1519,2029.5C 1509.33,2007.83 1500.5,1985.83 1492.5,1963.5C 1467.94,2037.99 1431.44,2105.65 1383,2166.5C 1361.78,2191.39 1338.28,2213.89 1312.5,2234C 1285.4,2254.49 1255.06,2267.82 1221.5,2274C 1174.03,2278.68 1137.87,2260.85 1113,2220.5C 1097.81,2193.07 1088.47,2163.73 1085,2132.5C 1079.71,2071.8 1085.38,2012.13 1102,1953.5C 1114.79,1907.8 1132.29,1863.97 1154.5,1822C 1153.5,1821.33 1152.5,1821.33 1151.5,1822C 1065.01,1865.71 973.339,1888.87 876.5,1891.5C 839.344,1892.69 803.344,1886.86 768.5,1874C 696.315,1842.14 675.482,1789.64 706,1716.5C 720.095,1688.24 738.262,1662.91 760.5,1640.5C 806.549,1595.63 858.549,1559.13 916.5,1531C 949.552,1515.31 983.552,1501.98 1018.5,1491C 928.511,1464.19 848.178,1420.52 777.5,1360C 756.049,1340.23 737.216,1318.4 721,1294.5C 704.397,1269.3 695.231,1241.63 693.5,1211.5C 695.285,1175.09 711.618,1147.26 742.5,1128C 776.272,1108.8 812.605,1098.14 851.5,1096C 961.775,1093.15 1066.11,1116.65 1164.5,1166.5C 1164.83,1166.17 1165.17,1165.83 1165.5,1165.5C 1122.78,1087.85 1097.95,1004.85 1091,916.5C 1088.92,881.936 1092.26,847.936 1101,814.5C 1108.74,786.167 1123.24,762.001 1144.5,742C 1160.99,728.788 1179.65,720.954 1200.5,718.5 Z"/></g>
<g><path style="opacity:1" fill="#feeea0" d="M 1482.5,1280.5 C 1557.01,1278.53 1619.18,1304.86 1669,1359.5C 1721.09,1424.55 1732.43,1496.21 1703,1574.5C 1674.61,1636.55 1627.78,1677.71 1562.5,1698C 1486.07,1718.05 1416.74,1704.05 1354.5,1656C 1286.59,1596.25 1263.25,1522.25 1284.5,1434C 1311.11,1357.05 1363.78,1308.05 1442.5,1287C 1455.91,1284.42 1469.24,1282.26 1482.5,1280.5 Z"/></g>
</svg>
