<?xml version="1.0" encoding="UTF-8"?>
<!DOCTYPE svg PUBLIC "-//W3C//DTD SVG 1.1//EN" "http://www.w3.org/Graphics/SVG/1.1/DTD/svg11.dtd">
<svg xmlns="http://www.w3.org/2000/svg" version="1.1" width="3000px" height="3000px" style="shape-rendering:geometricPrecision; text-rendering:geometricPrecision; image-rendering:optimizeQuality; fill-rule:evenodd; clip-rule:evenodd" xmlns:xlink="http://www.w3.org/1999/xlink">
<g><path style="opacity:0.999" fill="#f14739" d="M 1604.5,65.5 C 1605.25,64.4265 1606.25,64.2599 1607.5,65C 1709.24,126.355 1800.07,201.522 1880,290.5C 2082.2,519.229 2189.2,787.229 2201,1094.5C 2202.15,1120.49 2202.48,1146.49 2202,1172.5C 2201.03,1213.25 2199.03,1253.91 2196,1294.5C 2221.22,1250.28 2256.05,1215.78 2300.5,1191C 2351.91,1168.2 2402.91,1169.2 2453.5,1194C 2460.33,1197.58 2467,1201.41 2473.5,1205.5C 2455.57,1215.68 2441.41,1229.68 2431,1247.5C 2416.45,1273.49 2406.45,1301.15 2401,1330.5C 2392.99,1383.95 2391.32,1437.62 2396,1491.5C 2404.82,1563.41 2412.82,1635.41 2420,1707.5C 2431.21,1829.85 2431.21,1952.18 2420,2074.5C 2409.38,2185.3 2383.38,2292.3 2342,2395.5C 2255.11,2600.73 2107.61,2743.23 1899.5,2823C 1796.42,2860.82 1690.09,2883.82 1580.5,2892C 1437.63,2903.39 1295.29,2898.73 1153.5,2878C 1041.8,2861.33 934.799,2829.33 832.5,2782C 639.19,2689.02 503.69,2542.52 426,2342.5C 387.47,2238.52 364.804,2131.19 358,2020.5C 400.805,2095.62 444.805,2169.95 490,2243.5C 503.592,2265.02 517.925,2286.02 533,2306.5C 536.058,2310.06 539.558,2313.06 543.5,2315.5C 544.443,2303.47 543.943,2291.47 542,2279.5C 535.549,2238.13 528.883,2196.8 522,2155.5C 507.293,2067.51 504.627,1979.18 514,1890.5C 534.423,1735.15 601.257,1603.98 714.5,1497C 735.58,1477.92 757.247,1459.58 779.5,1442C 810.483,1419.51 841.817,1397.51 873.5,1376C 942.332,1326.44 1004.83,1269.61 1061,1205.5C 1115.95,1142.32 1159.29,1071.66 1191,993.5C 1225.26,907.654 1235.93,818.988 1223,727.5C 1215.18,675.231 1195.85,627.898 1165,585.5C 1151.94,568.404 1135.77,555.237 1116.5,546C 1109.1,542.977 1101.43,540.977 1093.5,540C 1223.21,535.946 1326.38,585.779 1403,689.5C 1438.89,743.312 1463.89,801.978 1478,865.5C 1488.4,913.646 1495.07,962.313 1498,1011.5C 1499.14,1022.08 1502.14,1032.08 1507,1041.5C 1511.01,1046.17 1515.51,1046.67 1520.5,1043C 1524.69,1038.78 1528.52,1034.28 1532,1029.5C 1545.13,1005.57 1555.8,980.573 1564,954.5C 1593.05,858.932 1614.05,761.599 1627,662.5C 1645.34,533.664 1650.34,404.331 1642,274.5C 1638.25,221.585 1630.58,169.251 1619,117.5C 1615.07,99.7832 1610.24,82.4498 1604.5,65.5 Z"/></g>
<g><path style="opacity:1" fill="#f69226" d="M 1874.5,1072.5 C 1877.81,1077.11 1880.65,1082.11 1883,1087.5C 1982.95,1295.79 2061.29,1512.12 2118,1736.5C 2148.04,1856.43 2166.71,1978.1 2174,2101.5C 2180.33,2205.55 2171.33,2308.22 2147,2409.5C 2096.32,2607.84 1975.16,2742.67 1783.5,2814C 1713.44,2838.68 1641.44,2854.68 1567.5,2862C 1468.51,2871.8 1369.51,2871.8 1270.5,2862C 958.653,2830.99 801.986,2658.82 800.5,2345.5C 799.914,2235.11 828.081,2132.78 885,2038.5C 915.153,1990.34 949.153,1945 987,1902.5C 1034.47,1850.21 1081.47,1797.54 1128,1744.5C 1166.31,1698.59 1198.65,1648.59 1225,1594.5C 1255.83,1525.52 1271.66,1453.19 1272.5,1377.5C 1336.45,1402.64 1388.95,1442.64 1430,1497.5C 1464.85,1548.91 1479.02,1605.58 1472.5,1667.5C 1472.73,1668.93 1473.4,1669.43 1474.5,1669C 1579.35,1599.72 1671.85,1516.22 1752,1418.5C 1791.03,1369.48 1822.7,1315.82 1847,1257.5C 1871.13,1198.04 1880.3,1136.37 1874.5,1072.5 Z"/></g>
<g><path style="opacity:1" fill="#fef432" d="M 1251.5,2252.5 C 1252.17,2259.5 1252.83,2266.5 1253.5,2273.5C 1253.75,2304.76 1263.25,2332.76 1282,2357.5C 1307.66,2383.5 1338.83,2394.67 1375.5,2391C 1416.27,2389.21 1444.77,2369.71 1461,2332.5C 1471.21,2304.64 1476.04,2275.8 1475.5,2246C 1473.14,2181.39 1461.48,2118.56 1440.5,2057.5C 1552.19,2086.34 1635.36,2151.67 1690,2253.5C 1724.49,2323.8 1743.16,2398.14 1746,2476.5C 1749.24,2532.88 1744.57,2588.54 1732,2643.5C 1705.96,2744.54 1642.12,2806.71 1540.5,2830C 1460.31,2844.55 1380.65,2842.22 1301.5,2823C 1191.09,2791.73 1135.76,2718.56 1135.5,2603.5C 1136.55,2561.42 1142.71,2520.09 1154,2479.5C 1176.64,2399.56 1209.14,2323.89 1251.5,2252.5 Z"/></g>
<g><path style="opacity:1" fill="#f9ab28" d="M 1253.5,2273.5 C 1252.83,2266.5 1252.17,2259.5 1251.5,2252.5C 1251.78,2251.71 1252.28,2251.04 1253,2250.5C 1253.5,2258.16 1253.67,2265.83 1253.5,2273.5 Z"/></g>
</svg>
