<?xml version="1.0" encoding="UTF-8"?>
<!DOCTYPE svg PUBLIC "-//W3C//DTD SVG 1.1//EN" "http://www.w3.org/Graphics/SVG/1.1/DTD/svg11.dtd">
<svg xmlns="http://www.w3.org/2000/svg" version="1.1" width="3000px" height="3000px" style="shape-rendering:geometricPrecision; text-rendering:geometricPrecision; image-rendering:optimizeQuality; fill-rule:evenodd; clip-rule:evenodd" xmlns:xlink="http://www.w3.org/1999/xlink">
<g><path style="opacity:0.999" fill="#e0d6cd" d="M 1719.5,947.5 C 1695.65,951.343 1675.15,961.676 1658,978.5C 1641.05,999.881 1634.71,1024.21 1639,1051.5C 1642.04,1079.3 1651.04,1104.96 1666,1128.5C 1687.66,1155.51 1715.82,1167.34 1750.5,1164C 1760.01,1162.92 1769.34,1161.08 1778.5,1158.5C 1798.68,1250.56 1819.18,1342.56 1840,1434.5C 1859.18,1521.15 1891.84,1602.15 1938,1677.5C 1947.26,1691.04 1956.76,1704.37 1966.5,1717.5C 1942.65,1753.59 1935.48,1792.92 1945,1835.5C 1958.3,1882.81 1987.8,1915.64 2033.5,1934C 2081.65,1951.99 2126.98,1946.66 2169.5,1918C 2187.76,1905.58 2202.76,1890.08 2214.5,1871.5C 2243.81,1876.96 2273.14,1876.79 2302.5,1871C 2320.47,1865.93 2335.64,1856.43 2348,1842.5C 2365.76,1821.05 2380.76,1797.71 2393,1772.5C 2402.05,1753.33 2410.72,1734 2419,1714.5C 2438.11,1665.61 2457.78,1616.94 2478,1568.5C 2490.94,1537.93 2506.94,1509.26 2526,1482.5C 2536.44,1468.72 2549.27,1457.89 2564.5,1450C 2569.99,1447.78 2575.66,1446.28 2581.5,1445.5C 2570.61,1527.1 2553.28,1607.26 2529.5,1686C 2531.36,1693.1 2535.7,1695.1 2542.5,1692C 2543.13,1691.25 2543.63,1690.42 2544,1689.5C 2568.37,1609.64 2586.2,1528.31 2597.5,1445.5C 2615.72,1449.88 2628.22,1460.88 2635,1478.5C 2641.85,1499.27 2645.01,1520.6 2644.5,1542.5C 2643.14,1579.55 2638.64,1616.21 2631,1652.5C 2620.14,1703.28 2606.81,1753.28 2591,1802.5C 2631.14,1751.01 2674.97,1702.51 2722.5,1657C 2743.35,1638.14 2765.35,1620.81 2788.5,1605C 2801.33,1597.09 2814.99,1591.09 2829.5,1587C 2837.45,1585.51 2845.45,1585.18 2853.5,1586C 2856.72,1586.9 2859.72,1588.07 2862.5,1589.5C 2861.45,1589.35 2860.45,1589.52 2859.5,1590C 2833,1618.15 2809.17,1648.32 2788,1680.5C 2767.58,1710.99 2747.92,1741.99 2729,1773.5C 2725.89,1780.28 2727.89,1784.61 2735,1786.5C 2737.41,1786.3 2739.41,1785.3 2741,1783.5C 2773.45,1728.26 2809.11,1675.26 2848,1624.5C 2855.64,1615.86 2863.64,1607.53 2872,1599.5C 2872.48,1598.55 2872.65,1597.55 2872.5,1596.5C 2889.02,1614.2 2895.18,1635.2 2891,1659.5C 2885.59,1688.06 2875.26,1714.73 2860,1739.5C 2829.57,1787.28 2794.57,1831.62 2755,1872.5C 2667.96,1958.92 2574.46,2037.09 2474.5,2107C 2349.76,2185.94 2216.09,2245.61 2073.5,2286C 1968.61,2316.09 1861.94,2337.26 1753.5,2349.5C 1754.13,2346.03 1753.13,2343.2 1750.5,2341C 1716.95,2321.56 1682.28,2304.22 1646.5,2289C 1612.5,2274.83 1578.17,2261.5 1543.5,2249C 1498.18,2227.02 1462.35,2194.52 1436,2151.5C 1414.82,2116.63 1399.48,2079.3 1390,2039.5C 1386.99,2034.46 1382.82,2033.3 1377.5,2036C 1376.87,2036.75 1376.37,2037.58 1376,2038.5C 1389.14,2110.95 1422.31,2172.45 1475.5,2223C 1493.45,2238.99 1513.45,2251.99 1535.5,2262C 1576.84,2277.5 1617.84,2293.84 1658.5,2311C 1686.33,2323.75 1713.66,2337.25 1740.5,2351.5C 1760.03,2366.22 1774.53,2384.88 1784,2407.5C 1786.46,2414.01 1788.29,2420.68 1789.5,2427.5C 1760.59,2415.27 1730.59,2406.77 1699.5,2402C 1672.98,2397.8 1646.31,2395.47 1619.5,2395C 1612.72,2400.43 1613.05,2405.43 1620.5,2410C 1668.68,2410.79 1715.68,2418.45 1761.5,2433C 1771.65,2436.88 1781.65,2441.05 1791.5,2445.5C 1791.93,2460.81 1787.6,2474.48 1778.5,2486.5C 1713.3,2478.49 1647.8,2471.83 1582,2466.5C 1574.73,2467.79 1572.73,2471.79 1576,2478.5C 1577.32,2480.49 1579.15,2481.65 1581.5,2482C 1644.26,2487.01 1706.93,2492.85 1769.5,2499.5C 1749.46,2521.35 1725.46,2537.51 1697.5,2548C 1644.69,2566.38 1590.35,2573.38 1534.5,2569C 1461.51,2564 1390.51,2549.34 1321.5,2525C 1239.07,2492.72 1172.74,2440.22 1122.5,2367.5C 1149.3,2370.73 1171.8,2362.4 1190,2342.5C 1201.28,2324.85 1205.95,2305.52 1204,2284.5C 1197.71,2239.61 1181.71,2198.61 1156,2161.5C 1141.11,2141.8 1121.61,2129.3 1097.5,2124C 1071.41,2119.96 1050.74,2128.46 1035.5,2149.5C 1020.2,2075.1 1012.03,1999.77 1011,1923.5C 1010.67,1897.5 1010.33,1871.5 1010,1845.5C 1008.36,1843.27 1006.2,1841.93 1003.5,1841.5C 1005.21,1784.68 1006.54,1727.84 1007.5,1671C 1008.33,1542.15 997.497,1414.32 975,1287.5C 961.695,1216.56 941.695,1147.56 915,1080.5C 895.088,1032.64 869.088,988.64 837,948.5C 804.414,909.92 764.581,881.42 717.5,863C 649.277,832.925 578.277,812.592 504.5,802C 449.513,794.473 394.846,796.139 340.5,807C 306.377,814.731 275.71,829.397 248.5,851C 240.567,858.428 233.234,866.261 226.5,874.5C 240.581,832.504 264.915,797.671 299.5,770C 321.845,753.15 345.845,738.817 371.5,727C 397.675,716.275 424.009,705.941 450.5,696C 556.273,591.392 680.606,516.726 823.5,472C 970.263,428.399 1117.93,425.066 1266.5,462C 1397.2,496.782 1503.03,567.949 1584,675.5C 1632.24,742.301 1670.91,814.634 1700,892.5C 1707,910.668 1713.5,929.001 1719.5,947.5 Z"/></g>
<g><path style="opacity:1" fill="#c6b9af" d="M 1086.5,475.5 C 1102.29,473.609 1117.29,476.109 1131.5,483C 1140.43,491.197 1141.93,500.697 1136,511.5C 1129.89,518.973 1122.06,523.473 1112.5,525C 1101.46,525.85 1090.46,525.517 1079.5,524C 1061.64,518.771 1055.47,507.271 1061,489.5C 1062.46,487.04 1064.29,484.873 1066.5,483C 1072.88,479.379 1079.54,476.879 1086.5,475.5 Z"/></g>
<g><path style="opacity:1" fill="#c6b9af" d="M 1259.5,506.5 C 1290.39,506.965 1318.39,516.132 1343.5,534C 1350.98,540.471 1356.48,548.304 1360,557.5C 1360.38,578.472 1350.22,591.305 1329.5,596C 1300.36,596.6 1274.03,588.267 1250.5,571C 1231.25,555.31 1228.42,537.144 1242,516.5C 1247.04,511.594 1252.87,508.261 1259.5,506.5 Z"/></g>
<g><path style="opacity:1" fill="#f0f0f1" d="M 1127.5,678.5 C 1085.9,674.978 1051.06,688.645 1023,719.5C 1010.4,736.049 1002.73,754.715 1000,775.5C 998.609,796.307 999.609,816.974 1003,837.5C 1015.07,878.238 1041.91,903.071 1083.5,912C 1102.39,916.071 1121.39,916.571 1140.5,913.5C 1123.09,929.7 1102.42,939.2 1078.5,942C 1041.03,946.27 1005.7,939.603 972.5,922C 933.372,897.944 912.539,862.777 910,816.5C 904.682,702.819 958.849,650.319 1072.5,659C 1093.39,660.742 1112.73,667.076 1130.5,678C 1129.55,678.483 1128.55,678.649 1127.5,678.5 Z"/></g>
<g><path style="opacity:1" fill="#231f20" d="M 1127.5,678.5 C 1134.08,680.293 1140.08,683.46 1145.5,688C 1173.7,714.235 1188.53,746.735 1190,785.5C 1192.41,823.528 1183.41,858.528 1163,890.5C 1156.67,899.334 1149.17,907.001 1140.5,913.5C 1121.39,916.571 1102.39,916.071 1083.5,912C 1041.91,903.071 1015.07,878.238 1003,837.5C 999.609,816.974 998.609,796.307 1000,775.5C 1002.73,754.715 1010.4,736.049 1023,719.5C 1051.06,688.645 1085.9,674.978 1127.5,678.5 Z"/></g>
<g><path style="opacity:1" fill="#c6b9af" d="M 1517.5,747.5 C 1534.13,745.821 1548.8,750.321 1561.5,761C 1579.43,778.998 1593.26,799.831 1603,823.5C 1611.84,843.339 1617.84,864.006 1621,885.5C 1623.24,903.796 1620.24,921.13 1612,937.5C 1603.39,949.749 1591.56,956.582 1576.5,958C 1558.65,959.538 1542.65,954.871 1528.5,944C 1509.68,928.159 1495.85,908.659 1487,885.5C 1478.58,866.234 1472.58,846.234 1469,825.5C 1467.92,813.056 1468.58,800.722 1471,788.5C 1475.43,774.408 1483.93,763.575 1496.5,756C 1503.37,752.554 1510.37,749.721 1517.5,747.5 Z"/></g>
<g><path style="opacity:1" fill="#f8f0e8" d="M 1003.5,1841.5 C 1000.25,1842.04 997.755,1843.71 996,1846.5C 992.127,1954.96 1001.13,2062.29 1023,2168.5C 1034.99,2224.65 1053.83,2278.32 1079.5,2329.5C 954.59,2305.7 835.59,2264.86 722.5,2207C 712.806,2201.49 703.139,2195.99 693.5,2190.5C 634.668,2156.02 580.334,2115.36 530.5,2068.5C 518.839,2056.67 507.339,2044.67 496,2032.5C 485.25,2019.6 474.416,2006.93 463.5,1994.5C 388.478,1894.39 341.311,1782.05 322,1657.5C 312.975,1601.53 307.975,1545.19 307,1488.5C 306.849,1436.5 306.849,1384.5 307,1332.5C 305.88,1282.23 296.546,1233.57 279,1186.5C 265.368,1155.9 251.202,1125.57 236.5,1095.5C 262.235,1113.79 290.902,1120.96 322.5,1117C 370.073,1110.92 401.073,1085.08 415.5,1039.5C 441.347,1083.63 480.014,1108.46 531.5,1114C 573.539,1118.12 614.539,1113.45 654.5,1100C 688.776,1087.8 715.943,1066.63 736,1036.5C 747.782,1016.37 752.782,994.707 751,971.5C 746.604,965.315 741.937,964.981 737,970.5C 736.488,1016.37 716.321,1050.54 676.5,1073C 647.709,1088.2 617.043,1096.87 584.5,1099C 560.307,1100.64 536.307,1099.31 512.5,1095C 463.217,1082.38 431.717,1051.55 418,1002.5C 415.665,994.991 414.165,987.324 413.5,979.5C 418.166,975.067 423,970.733 428,966.5C 442.333,948.5 456.667,930.5 471,912.5C 482.029,901.137 493.363,890.137 505,879.5C 507.477,875.22 506.644,871.72 502.5,869C 488.372,862.975 473.706,858.975 458.5,857C 426.326,852.12 393.992,851.12 361.5,854C 355.806,854.84 350.139,855.84 344.5,857C 337.282,858.886 333.949,863.552 334.5,871C 341.681,911.365 359.681,946.031 388.5,975C 391.728,977.44 395.061,979.606 398.5,981.5C 400.019,992.78 402.019,1003.95 404.5,1015C 397.869,1067.63 368.202,1096.63 315.5,1102C 278.637,1104.65 248.47,1091.81 225,1063.5C 224.601,1063.73 224.435,1064.06 224.5,1064.5C 219.464,1051.69 215.964,1038.36 214,1024.5C 207.459,977.952 210.126,931.952 222,886.5C 222.905,882.163 224.405,878.163 226.5,874.5C 233.234,866.261 240.567,858.428 248.5,851C 275.71,829.397 306.377,814.731 340.5,807C 394.846,796.139 449.513,794.473 504.5,802C 578.277,812.592 649.277,832.925 717.5,863C 764.581,881.42 804.414,909.92 837,948.5C 869.088,988.64 895.088,1032.64 915,1080.5C 941.695,1147.56 961.695,1216.56 975,1287.5C 997.497,1414.32 1008.33,1542.15 1007.5,1671C 1006.54,1727.84 1005.21,1784.68 1003.5,1841.5 Z"/></g>
<g><path style="opacity:1" fill="#231f20" d="M 413.5,979.5 C 410.168,980.5 406.834,981.5 403.5,982.5C 401.793,982.272 400.126,981.938 398.5,981.5C 395.061,979.606 391.728,977.44 388.5,975C 359.681,946.031 341.681,911.365 334.5,871C 333.949,863.552 337.282,858.886 344.5,857C 350.139,855.84 355.806,854.84 361.5,854C 393.992,851.12 426.326,852.12 458.5,857C 473.706,858.975 488.372,862.975 502.5,869C 506.644,871.72 507.477,875.22 505,879.5C 493.363,890.137 482.029,901.137 471,912.5C 456.667,930.5 442.333,948.5 428,966.5C 423,970.733 418.166,975.067 413.5,979.5 Z"/></g>
<g><path style="opacity:1" fill="#c6b9af" d="M 1308.5,923.5 C 1321.41,922.711 1330.25,928.378 1335,940.5C 1340.46,954.093 1340.79,967.759 1336,981.5C 1332.92,988.125 1327.75,991.958 1320.5,993C 1304.26,993.946 1294.1,986.446 1290,970.5C 1287.83,961.948 1287.16,953.281 1288,944.5C 1290.37,932.961 1297.21,925.961 1308.5,923.5 Z"/></g>
<g><path style="opacity:1" fill="#c6b9af" d="M 1719.5,947.5 C 1742.44,1016.91 1762.1,1087.24 1778.5,1158.5C 1769.34,1161.08 1760.01,1162.92 1750.5,1164C 1715.82,1167.34 1687.66,1155.51 1666,1128.5C 1651.04,1104.96 1642.04,1079.3 1639,1051.5C 1634.71,1024.21 1641.05,999.881 1658,978.5C 1675.15,961.676 1695.65,951.343 1719.5,947.5 Z"/></g>
<g><path style="opacity:1" fill="#8a7768" d="M 236.5,1095.5 C 231.341,1085.7 227.341,1075.37 224.5,1064.5C 224.435,1064.06 224.601,1063.73 225,1063.5C 248.47,1091.81 278.637,1104.65 315.5,1102C 368.202,1096.63 397.869,1067.63 404.5,1015C 402.019,1003.95 400.019,992.78 398.5,981.5C 400.126,981.938 401.793,982.272 403.5,982.5C 406.834,981.5 410.168,980.5 413.5,979.5C 414.165,987.324 415.665,994.991 418,1002.5C 431.717,1051.55 463.217,1082.38 512.5,1095C 536.307,1099.31 560.307,1100.64 584.5,1099C 617.043,1096.87 647.709,1088.2 676.5,1073C 716.321,1050.54 736.488,1016.37 737,970.5C 741.937,964.981 746.604,965.315 751,971.5C 752.782,994.707 747.782,1016.37 736,1036.5C 715.943,1066.63 688.776,1087.8 654.5,1100C 614.539,1113.45 573.539,1118.12 531.5,1114C 480.014,1108.46 441.347,1083.63 415.5,1039.5C 401.073,1085.08 370.073,1110.92 322.5,1117C 290.902,1120.96 262.235,1113.79 236.5,1095.5 Z"/></g>
<g><path style="opacity:1" fill="#c6b9af" d="M 1496.5,1042.5 C 1511.33,1041.16 1523.16,1046.5 1532,1058.5C 1551.62,1085.68 1560.95,1116.02 1560,1149.5C 1556.54,1168.82 1545.04,1177.32 1525.5,1175C 1514.94,1172.76 1506.1,1167.6 1499,1159.5C 1478.36,1132.26 1469.03,1101.59 1471,1067.5C 1475.44,1054.89 1483.94,1046.56 1496.5,1042.5 Z"/></g>
<g><path style="opacity:1" fill="#c6b9af" d="M 1473.5,1409.5 C 1481.31,1408.38 1488.31,1410.21 1494.5,1415C 1510.29,1431.08 1520.46,1450.25 1525,1472.5C 1526.9,1484.42 1525.23,1495.76 1520,1506.5C 1512.13,1513.43 1502.96,1515.93 1492.5,1514C 1482.09,1510.87 1473.92,1504.7 1468,1495.5C 1459.19,1480.55 1453.19,1464.55 1450,1447.5C 1447.5,1428.21 1455.33,1415.55 1473.5,1409.5 Z"/></g>
<g><path style="opacity:1" fill="#8a7767" d="M 2581.5,1445.5 C 2586.83,1445.5 2592.17,1445.5 2597.5,1445.5C 2586.2,1528.31 2568.37,1609.64 2544,1689.5C 2543.63,1690.42 2543.13,1691.25 2542.5,1692C 2535.7,1695.1 2531.36,1693.1 2529.5,1686C 2553.28,1607.26 2570.61,1527.1 2581.5,1445.5 Z"/></g>
<g><path style="opacity:1" fill="#c6b9af" d="M 1701.5,1462.5 C 1714.85,1460.68 1726.85,1463.85 1737.5,1472C 1749.97,1483.8 1760.14,1497.3 1768,1512.5C 1778.44,1532.38 1785.77,1553.38 1790,1575.5C 1794.06,1594.28 1791.39,1611.95 1782,1628.5C 1769.76,1641.8 1754.59,1646.97 1736.5,1644C 1721.62,1640.47 1709.12,1632.97 1699,1621.5C 1677.5,1593.04 1664.17,1561.04 1659,1525.5C 1655.83,1492.43 1670,1471.43 1701.5,1462.5 Z"/></g>
<g><path style="opacity:1" fill="#8a7767" d="M 2862.5,1589.5 C 2866.39,1591.05 2869.72,1593.39 2872.5,1596.5C 2872.65,1597.55 2872.48,1598.55 2872,1599.5C 2863.64,1607.53 2855.64,1615.86 2848,1624.5C 2809.11,1675.26 2773.45,1728.26 2741,1783.5C 2739.41,1785.3 2737.41,1786.3 2735,1786.5C 2727.89,1784.61 2725.89,1780.28 2729,1773.5C 2747.92,1741.99 2767.58,1710.99 2788,1680.5C 2809.17,1648.32 2833,1618.15 2859.5,1590C 2860.45,1589.52 2861.45,1589.35 2862.5,1589.5 Z"/></g>
<g><path style="opacity:1" fill="#c6b9af" d="M 1966.5,1717.5 C 2006.62,1769.13 2055.62,1809.96 2113.5,1840C 2145.5,1855.83 2179.17,1866.33 2214.5,1871.5C 2202.76,1890.08 2187.76,1905.58 2169.5,1918C 2126.98,1946.66 2081.65,1951.99 2033.5,1934C 1987.8,1915.64 1958.3,1882.81 1945,1835.5C 1935.48,1792.92 1942.65,1753.59 1966.5,1717.5 Z"/></g>
<g><path style="opacity:1" fill="#c6b9af" d="M 1838.5,1772.5 C 1843.9,1771.97 1848.9,1773.13 1853.5,1776C 1858.03,1780.2 1862.2,1784.7 1866,1789.5C 1872.9,1802.48 1869.24,1810.48 1855,1813.5C 1850.69,1813.18 1846.86,1811.68 1843.5,1809C 1837.12,1803.73 1832.62,1797.23 1830,1789.5C 1829.07,1782.02 1831.91,1776.35 1838.5,1772.5 Z"/></g>
<g><path style="opacity:1" fill="#c6b9af" d="M 1707.5,1773.5 C 1716.1,1773.13 1723.76,1775.63 1730.5,1781C 1741.34,1789.5 1749.51,1800 1755,1812.5C 1759.13,1825.68 1754.63,1834.18 1741.5,1838C 1732.39,1838.79 1724.39,1836.12 1717.5,1830C 1707.22,1821.41 1699.72,1810.91 1695,1798.5C 1693.91,1792.9 1694.58,1787.57 1697,1782.5C 1700.1,1778.89 1703.6,1775.89 1707.5,1773.5 Z"/></g>
<g><path style="opacity:1" fill="#8a7767" d="M 1003.5,1841.5 C 1006.2,1841.93 1008.36,1843.27 1010,1845.5C 1010.33,1871.5 1010.67,1897.5 1011,1923.5C 1012.03,1999.77 1020.2,2075.1 1035.5,2149.5C 1045.56,2200.05 1060.72,2249.05 1081,2296.5C 1086.66,2308.48 1092.82,2320.15 1099.5,2331.5C 1099.04,2332.3 1098.38,2332.63 1097.5,2332.5C 1091.41,2332.01 1085.41,2331.01 1079.5,2329.5C 1053.83,2278.32 1034.99,2224.65 1023,2168.5C 1001.13,2062.29 992.127,1954.96 996,1846.5C 997.755,1843.71 1000.25,1842.04 1003.5,1841.5 Z"/></g>
<g><path style="opacity:1" fill="#c6b9af" d="M 1880.5,1972.5 C 1906.32,1972.6 1928.48,1981.6 1947,1999.5C 1958.2,2018.62 1953.04,2031.45 1931.5,2038C 1911.4,2038.41 1893.4,2032.41 1877.5,2020C 1862.61,2008.63 1860.11,1995.13 1870,1979.5C 1873.15,1976.49 1876.65,1974.16 1880.5,1972.5 Z"/></g>
<g><path style="opacity:1" fill="#c6b9af" d="M 463.5,1994.5 C 474.416,2006.93 485.25,2019.6 496,2032.5C 507.339,2044.67 518.839,2056.67 530.5,2068.5C 530.631,2069.24 530.464,2069.91 530,2070.5C 501.526,2094.76 474.859,2092.76 450,2064.5C 444.591,2057.35 441.091,2049.35 439.5,2040.5C 448.025,2025.45 456.025,2010.12 463.5,1994.5 Z"/></g>
<g><path style="opacity:1" fill="#8a7767" d="M 1753.5,2349.5 C 1749.22,2350.31 1744.89,2350.98 1740.5,2351.5C 1713.66,2337.25 1686.33,2323.75 1658.5,2311C 1617.84,2293.84 1576.84,2277.5 1535.5,2262C 1513.45,2251.99 1493.45,2238.99 1475.5,2223C 1422.31,2172.45 1389.14,2110.95 1376,2038.5C 1376.37,2037.58 1376.87,2036.75 1377.5,2036C 1382.82,2033.3 1386.99,2034.46 1390,2039.5C 1399.48,2079.3 1414.82,2116.63 1436,2151.5C 1462.35,2194.52 1498.18,2227.02 1543.5,2249C 1578.17,2261.5 1612.5,2274.83 1646.5,2289C 1682.28,2304.22 1716.95,2321.56 1750.5,2341C 1753.13,2343.2 1754.13,2346.03 1753.5,2349.5 Z"/></g>
<g><path style="opacity:0.998" fill="#e0d6cd" d="M 439.5,2040.5 C 441.091,2049.35 444.591,2057.35 450,2064.5C 474.859,2092.76 501.526,2094.76 530,2070.5C 530.464,2069.91 530.631,2069.24 530.5,2068.5C 580.334,2115.36 634.668,2156.02 693.5,2190.5C 656.231,2254.94 606.897,2308.44 545.5,2351C 437.621,2424.15 318.288,2459.15 187.5,2456C 165.264,2454.49 143.597,2450.15 122.5,2443C 112.975,2439.08 104.309,2433.91 96.5,2427.5C 120.147,2396.68 147.481,2369.18 178.5,2345C 201.475,2327.84 225.475,2312.17 250.5,2298C 253.774,2292.63 252.774,2288.3 247.5,2285C 245.833,2284.33 244.167,2284.33 242.5,2285C 191.561,2312.59 146.395,2347.75 107,2390.5C 100.951,2397.55 95.2841,2404.88 90,2412.5C 88.872,2414.35 88.372,2416.35 88.5,2418.5C 84.1301,2411.56 81.6301,2403.89 81,2395.5C 77.9956,2363.19 86.329,2334.19 106,2308.5C 129.238,2279.49 156.405,2254.99 187.5,2235C 203.001,2225.41 218.668,2216.08 234.5,2207C 262.193,2192.82 290.193,2179.15 318.5,2166C 359.394,2141.78 393.227,2109.94 420,2070.5C 426.757,2060.59 433.257,2050.59 439.5,2040.5 Z"/></g>
<g><path style="opacity:1" fill="#c6b9af" d="M 410.5,2123.5 C 431.753,2122.25 441.253,2132.25 439,2153.5C 431.561,2170.5 419.395,2183 402.5,2191C 387.923,2195.46 377.089,2190.96 370,2177.5C 368,2171.83 368,2166.17 370,2160.5C 379.268,2143.39 392.768,2131.06 410.5,2123.5 Z"/></g>
<g><path style="opacity:1" fill="#c6b9af" d="M 503.5,2123.5 C 519.624,2123.06 525.791,2130.73 522,2146.5C 512.653,2162.11 499.487,2167.45 482.5,2162.5C 473.718,2152.03 474.718,2142.53 485.5,2134C 491.103,2129.7 497.103,2126.2 503.5,2123.5 Z"/></g>
<g><path style="opacity:1" fill="#c6b9af" d="M 1122.5,2367.5 C 1114.86,2356.91 1107.69,2345.91 1101,2334.5C 1099.7,2333.92 1098.53,2333.25 1097.5,2332.5C 1098.38,2332.63 1099.04,2332.3 1099.5,2331.5C 1092.82,2320.15 1086.66,2308.48 1081,2296.5C 1060.72,2249.05 1045.56,2200.05 1035.5,2149.5C 1050.74,2128.46 1071.41,2119.96 1097.5,2124C 1121.61,2129.3 1141.11,2141.8 1156,2161.5C 1181.71,2198.61 1197.71,2239.61 1204,2284.5C 1205.95,2305.52 1201.28,2324.85 1190,2342.5C 1171.8,2362.4 1149.3,2370.73 1122.5,2367.5 Z"/></g>
<g><path style="opacity:1" fill="#c6b9af" d="M 1272.5,2145.5 C 1279.51,2145.01 1285.84,2146.84 1291.5,2151C 1303.19,2160.4 1310.53,2172.4 1313.5,2187C 1311.91,2200.92 1304.08,2208.42 1290,2209.5C 1280.57,2208.29 1272.91,2203.95 1267,2196.5C 1260.12,2188.74 1255.95,2179.74 1254.5,2169.5C 1254.42,2161.84 1257.42,2155.67 1263.5,2151C 1266.56,2149.14 1269.56,2147.31 1272.5,2145.5 Z"/></g>
<g><path style="opacity:1" fill="#c6b9af" d="M 1305.5,2280.5 C 1318.5,2280.22 1329.84,2284.39 1339.5,2293C 1356.3,2307.46 1367.8,2325.29 1374,2346.5C 1376.64,2373.54 1364.31,2388.2 1337,2390.5C 1320.74,2389.04 1307.41,2382.04 1297,2369.5C 1285.14,2356.62 1277.14,2341.62 1273,2324.5C 1271.55,2306.63 1278.71,2293.46 1294.5,2285C 1298.16,2283.18 1301.82,2281.68 1305.5,2280.5 Z"/></g>
<g><path style="opacity:1" fill="#8a7767" d="M 96.5,2427.5 C 93.1385,2425.11 90.4719,2422.11 88.5,2418.5C 88.372,2416.35 88.872,2414.35 90,2412.5C 95.2841,2404.88 100.951,2397.55 107,2390.5C 146.395,2347.75 191.561,2312.59 242.5,2285C 244.167,2284.33 245.833,2284.33 247.5,2285C 252.774,2288.3 253.774,2292.63 250.5,2298C 225.475,2312.17 201.475,2327.84 178.5,2345C 147.481,2369.18 120.147,2396.68 96.5,2427.5 Z"/></g>
<g><path style="opacity:1" fill="#8a7767" d="M 1789.5,2427.5 C 1790.96,2433.39 1791.62,2439.39 1791.5,2445.5C 1781.65,2441.05 1771.65,2436.88 1761.5,2433C 1715.68,2418.45 1668.68,2410.79 1620.5,2410C 1613.05,2405.43 1612.72,2400.43 1619.5,2395C 1646.31,2395.47 1672.98,2397.8 1699.5,2402C 1730.59,2406.77 1760.59,2415.27 1789.5,2427.5 Z"/></g>
<g><path style="opacity:1" fill="#8a7767" d="M 1778.5,2486.5 C 1776.24,2491.36 1773.24,2495.7 1769.5,2499.5C 1706.93,2492.85 1644.26,2487.01 1581.5,2482C 1579.15,2481.65 1577.32,2480.49 1576,2478.5C 1572.73,2471.79 1574.73,2467.79 1582,2466.5C 1647.8,2471.83 1713.3,2478.49 1778.5,2486.5 Z"/></g>
</svg>
