<?xml version="1.0" encoding="UTF-8"?>
<!DOCTYPE svg PUBLIC "-//W3C//DTD SVG 1.1//EN" "http://www.w3.org/Graphics/SVG/1.1/DTD/svg11.dtd">
<svg xmlns="http://www.w3.org/2000/svg" version="1.1" width="3000px" height="3000px" style="shape-rendering:geometricPrecision; text-rendering:geometricPrecision; image-rendering:optimizeQuality; fill-rule:evenodd; clip-rule:evenodd" xmlns:xlink="http://www.w3.org/1999/xlink">
<g><path style="opacity:0.954" fill="#5b9dfe" d="M 1590.5,845.5 C 1589.83,845.5 1589.17,845.5 1588.5,845.5C 1579.64,790.372 1569.81,735.372 1559,680.5C 1553.03,650.269 1545.03,620.602 1535,591.5C 1533.06,587.952 1531.39,584.286 1530,580.5C 1528.39,577.921 1526.89,577.921 1525.5,580.5C 1535.2,611.968 1542.7,643.968 1548,676.5C 1556.35,724.98 1563.02,773.647 1568,822.5C 1557.48,756.592 1544.15,691.258 1528,626.5C 1524.05,611.811 1519.21,597.478 1513.5,583.5C 1506.56,588.03 1502.06,594.363 1500,602.5C 1497.4,614.081 1496.9,625.747 1498.5,637.5C 1492.17,638.833 1485.83,638.833 1479.5,637.5C 1479.63,622.495 1477.79,607.828 1474,593.5C 1470.21,587.704 1465.21,583.371 1459,580.5C 1447.18,612.436 1437.85,645.103 1431,678.5C 1420.84,726.287 1411.84,774.287 1404,822.5C 1410.85,748.048 1422.69,674.381 1439.5,601.5C 1433.82,612.025 1428.98,623.025 1425,634.5C 1400.97,702.604 1385.47,772.604 1378.5,844.5C 1378.16,845.338 1377.49,845.672 1376.5,845.5C 1377.37,759.921 1393.21,677.254 1424,597.5C 1426.71,591.922 1429.54,586.422 1432.5,581C 1429.9,581.126 1427.57,582.126 1425.5,584C 1414.04,594.119 1404.87,605.952 1398,619.5C 1377.87,660.233 1361.87,702.566 1350,746.5C 1340.73,779.599 1332.39,812.933 1325,846.5C 1333.36,792.733 1345.36,739.733 1361,687.5C 1370.51,652.589 1384.85,619.922 1404,589.5C 1413.24,575.634 1426.07,567.467 1442.5,565C 1446.63,560.77 1451.3,557.27 1456.5,554.5C 1459.27,550.223 1462.61,546.39 1466.5,543C 1473.94,538.909 1480.44,540.076 1486,546.5C 1491.52,540.079 1498.02,538.913 1505.5,543C 1508.54,545.703 1511.2,548.703 1513.5,552C 1524.79,551.48 1533.46,555.98 1539.5,565.5C 1553.15,568.645 1563.98,575.979 1572,587.5C 1584.95,606.056 1595.28,626.056 1603,647.5C 1626.27,713.657 1642.6,779.324 1652,844.5C 1639.56,785.719 1623.22,728.052 1603,671.5C 1593.2,644.378 1580.2,619.045 1564,595.5C 1559.26,590.088 1553.93,585.421 1548,581.5C 1560.55,620.216 1569.55,659.882 1575,700.5C 1581.74,748.68 1586.91,797.014 1590.5,845.5 Z M 1473.5,554.5 C 1475.84,556.317 1477.01,558.65 1477,561.5C 1474.88,560.378 1473.04,558.878 1471.5,557C 1472.38,556.292 1473.05,555.458 1473.5,554.5 Z M 1496.5,554.5 C 1498.54,555.031 1500.21,556.198 1501.5,558C 1499.45,560.593 1497.28,563.093 1495,565.5C 1494.6,564.128 1494.1,562.795 1493.5,561.5C 1494.79,559.261 1495.79,556.928 1496.5,554.5 Z M 1588.5,845.5 C 1573.86,844.76 1559.19,844.093 1544.5,843.5C 1556.43,821.707 1559.27,798.707 1553,774.5C 1550.6,765.619 1547.6,756.953 1544,748.5C 1535.76,731.685 1526.76,715.351 1517,699.5C 1506.09,680.046 1503.92,659.713 1510.5,638.5C 1506.55,637.509 1502.55,637.176 1498.5,637.5C 1496.9,625.747 1497.4,614.081 1500,602.5C 1502.06,594.363 1506.56,588.03 1513.5,583.5C 1519.21,597.478 1524.05,611.811 1528,626.5C 1544.15,691.258 1557.48,756.592 1568,822.5C 1563.02,773.647 1556.35,724.98 1548,676.5C 1542.7,643.968 1535.2,611.968 1525.5,580.5C 1526.89,577.921 1528.39,577.921 1530,580.5C 1531.39,584.286 1533.06,587.952 1535,591.5C 1545.03,620.602 1553.03,650.269 1559,680.5C 1569.81,735.372 1579.64,790.372 1588.5,845.5 Z M 1479.5,637.5 C 1474.83,637.5 1470.17,637.5 1465.5,637.5C 1471.44,659.507 1468.94,680.507 1458,700.5C 1445.5,719.823 1434.84,740.157 1426,761.5C 1417.87,784.77 1417.54,808.103 1425,831.5C 1426.92,835.687 1429.09,839.687 1431.5,843.5C 1413.85,844.305 1396.18,844.638 1378.5,844.5C 1385.47,772.604 1400.97,702.604 1425,634.5C 1428.98,623.025 1433.82,612.025 1439.5,601.5C 1422.69,674.381 1410.85,748.048 1404,822.5C 1411.84,774.287 1420.84,726.287 1431,678.5C 1437.85,645.103 1447.18,612.436 1459,580.5C 1465.21,583.371 1470.21,587.704 1474,593.5C 1477.79,607.828 1479.63,622.495 1479.5,637.5 Z"/></g>
<g><path style="opacity:0.991" fill="#a3a4a5" d="M 1479.5,637.5 C 1485.83,638.833 1492.17,638.833 1498.5,637.5C 1502.55,637.176 1506.55,637.509 1510.5,638.5C 1503.92,659.713 1506.09,680.046 1517,699.5C 1526.76,715.351 1535.76,731.685 1544,748.5C 1547.6,756.953 1550.6,765.619 1553,774.5C 1559.27,798.707 1556.43,821.707 1544.5,843.5C 1541.14,845.895 1538.47,848.895 1536.5,852.5C 1533.05,855.072 1529.05,856.239 1524.5,856C 1498.83,856.667 1473.17,856.667 1447.5,856C 1443.92,856.087 1440.92,854.92 1438.5,852.5C 1436.52,849.19 1434.18,846.19 1431.5,843.5C 1429.09,839.687 1426.92,835.687 1425,831.5C 1417.54,808.103 1417.87,784.77 1426,761.5C 1434.84,740.157 1445.5,719.823 1458,700.5C 1468.94,680.507 1471.44,659.507 1465.5,637.5C 1470.17,637.5 1474.83,637.5 1479.5,637.5 Z"/></g>
<g><path style="opacity:0.978" fill="#b4b4b5" d="M 1431.5,843.5 C 1434.18,846.19 1436.52,849.19 1438.5,852.5C 1394.43,851.814 1350.43,853.148 1306.5,856.5C 1304.83,856.833 1303.17,857.167 1301.5,857.5C 1302.03,858.192 1302.69,858.692 1303.5,859C 1320.78,860.88 1338.11,861.88 1355.5,862C 1444.5,863.97 1533.5,863.97 1622.5,862C 1639.91,861.477 1657.25,860.144 1674.5,858C 1672.04,856.784 1669.37,856.118 1666.5,856C 1645.51,854.834 1624.51,854 1603.5,853.5C 1599.37,852.515 1595.03,852.182 1590.5,852.5C 1590.5,850.167 1590.5,847.833 1590.5,845.5C 1625.33,845.76 1660,848.26 1694.5,853C 1697.94,853.692 1701.27,854.692 1704.5,856C 1705.83,857.333 1705.83,858.667 1704.5,860C 1697.36,862.461 1690.03,863.961 1682.5,864.5C 1616.96,870.087 1551.3,872.42 1485.5,871.5C 1447.49,871.519 1409.49,871.019 1371.5,870C 1345.26,869.058 1319.09,867.224 1293,864.5C 1292.1,864.743 1291.26,865.077 1290.5,865.5C 1282.15,864.324 1273.81,862.49 1265.5,860C 1262.83,858.667 1262.83,857.333 1265.5,856C 1268.36,854.601 1271.36,853.601 1274.5,853C 1308.35,848.426 1342.35,845.926 1376.5,845.5C 1377.49,845.672 1378.16,845.338 1378.5,844.5C 1396.18,844.638 1413.85,844.305 1431.5,843.5 Z"/></g>
<g><path style="opacity:0.961" fill="#b4b4b5" d="M 1544.5,843.5 C 1559.19,844.093 1573.86,844.76 1588.5,845.5C 1588.99,847.806 1589.33,850.139 1589.5,852.5C 1585.83,852.5 1582.17,852.5 1578.5,852.5C 1564.5,852.5 1550.5,852.5 1536.5,852.5C 1538.47,848.895 1541.14,845.895 1544.5,843.5 Z"/></g>
<g><path style="opacity:1" fill="#5f9dfc" d="M 1438.5,852.5 C 1440.92,854.92 1443.92,856.087 1447.5,856C 1473.17,856.667 1498.83,856.667 1524.5,856C 1529.05,856.239 1533.05,855.072 1536.5,852.5C 1550.5,852.5 1564.5,852.5 1578.5,852.5C 1586.65,853.493 1594.98,853.826 1603.5,853.5C 1624.51,854 1645.51,854.834 1666.5,856C 1669.37,856.118 1672.04,856.784 1674.5,858C 1657.25,860.144 1639.91,861.477 1622.5,862C 1533.5,863.97 1444.5,863.97 1355.5,862C 1338.11,861.88 1320.78,860.88 1303.5,859C 1302.69,858.692 1302.03,858.192 1301.5,857.5C 1303.17,857.167 1304.83,856.833 1306.5,856.5C 1350.43,853.148 1394.43,851.814 1438.5,852.5 Z"/></g>
<g><path style="opacity:1" fill="#8eaad5" d="M 1588.5,845.5 C 1589.17,845.5 1589.83,845.5 1590.5,845.5C 1590.5,847.833 1590.5,850.167 1590.5,852.5C 1595.03,852.182 1599.37,852.515 1603.5,853.5C 1594.98,853.826 1586.65,853.493 1578.5,852.5C 1582.17,852.5 1585.83,852.5 1589.5,852.5C 1589.33,850.139 1588.99,847.806 1588.5,845.5 Z"/></g>
<g><path style="opacity:0.991" fill="#a4a4a5" d="M 1682.5,864.5 C 1684.33,875.351 1681.33,884.685 1673.5,892.5C 1664.63,900.605 1654.29,906.105 1642.5,909C 1613.89,913.153 1585.89,919.819 1558.5,929C 1551.11,931.909 1544.11,935.576 1537.5,940C 1523.15,950.706 1519.65,964.206 1527,980.5C 1534.08,995.254 1544.42,1007.25 1558,1016.5C 1563.12,1024.1 1563.79,1032.1 1560,1040.5C 1558.25,1047.53 1554.41,1053.03 1548.5,1057C 1539.75,1060.47 1531.09,1064.14 1522.5,1068C 1516.38,1075.01 1512.54,1083.18 1511,1092.5C 1506.84,1119.71 1504.34,1147.04 1503.5,1174.5C 1503.5,1177.83 1503.5,1181.17 1503.5,1184.5C 1508.03,1184.18 1512.37,1184.52 1516.5,1185.5C 1512.17,1185.5 1507.83,1185.5 1503.5,1185.5C 1503.82,1188.57 1503.48,1191.57 1502.5,1194.5C 1501.5,1195 1500.5,1195.5 1499.5,1196C 1490.12,1196.82 1480.79,1196.48 1471.5,1195C 1470.55,1191.94 1470.22,1188.78 1470.5,1185.5C 1462.5,1185.5 1454.5,1185.5 1446.5,1185.5C 1454.32,1184.51 1462.32,1184.17 1470.5,1184.5C 1470.81,1180.96 1470.48,1177.62 1469.5,1174.5C 1469.19,1154.12 1468.02,1133.79 1466,1113.5C 1465.2,1099.49 1461.87,1086.16 1456,1073.5C 1453.83,1071.33 1451.67,1069.17 1449.5,1067C 1441.99,1063.61 1434.32,1060.61 1426.5,1058C 1420.02,1053.88 1415.85,1048.05 1414,1040.5C 1410.54,1032.61 1410.87,1024.94 1415,1017.5C 1422,1011.17 1429,1004.83 1436,998.5C 1444.26,988.812 1449.09,977.645 1450.5,965C 1450.1,954.918 1445.77,946.918 1437.5,941C 1420.55,930.347 1402.22,923.014 1382.5,919C 1365.48,915.774 1348.48,912.441 1331.5,909C 1317.14,905.75 1305.31,898.583 1296,887.5C 1292.07,880.697 1290.24,873.363 1290.5,865.5C 1291.26,865.077 1292.1,864.743 1293,864.5C 1319.09,867.224 1345.26,869.058 1371.5,870C 1409.49,871.019 1447.49,871.519 1485.5,871.5C 1551.3,872.42 1616.96,870.087 1682.5,864.5 Z"/></g>
<g><path style="opacity:0.986" fill="#5c9dfe" d="M 1380.5,1155.5 C 1356.04,1080.23 1304.04,1041.23 1224.5,1038.5C 1175.28,1039.84 1128.28,1050.68 1083.5,1071C 1053.77,1087.97 1027.27,1109.14 1004,1134.5C 964.283,1178.62 928.95,1225.95 898,1276.5C 844.922,1364.7 797.256,1456.03 755,1550.5C 719.383,1629.86 686.216,1710.19 655.5,1791.5C 653.36,1793.7 651.86,1796.37 651,1799.5C 643.198,1819.74 635.698,1840.07 628.5,1860.5C 618.649,1885.87 609.649,1911.54 601.5,1937.5C 622.483,1935.54 643.483,1933.71 664.5,1932C 673.341,1905.31 682.674,1878.81 692.5,1852.5C 700.507,1829.82 708.507,1807.16 716.5,1784.5C 766.363,1649.1 824.196,1517.1 890,1388.5C 926.13,1318.44 967.796,1252.1 1015,1189.5C 1042.54,1153.63 1074.37,1122.13 1110.5,1095C 1182.33,1045.76 1247.83,1052.93 1307,1116.5C 1311.79,1121.44 1315.95,1126.77 1319.5,1132.5C 1303.23,1113.73 1284.9,1097.23 1264.5,1083C 1230.57,1063.34 1195.23,1060.34 1158.5,1074C 1131.86,1085.33 1107.86,1100.66 1086.5,1120C 1042.81,1162.27 1004.98,1209.1 973,1260.5C 927.437,1333.94 886.771,1410.28 851,1489.5C 807.678,1585.63 768.178,1683.3 732.5,1782.5C 723.731,1804.47 715.731,1826.8 708.5,1849.5C 698.527,1876.09 689.527,1903.09 681.5,1930.5C 715.501,1928.52 749.501,1926.52 783.5,1924.5C 791.032,1896.71 799.032,1869.04 807.5,1841.5C 814.699,1818.57 821.699,1795.57 828.5,1772.5C 864.697,1658.75 906.53,1547.08 954,1437.5C 981.117,1376.26 1012.12,1317.26 1047,1260.5C 1059.11,1241.94 1071.94,1223.94 1085.5,1206.5C 1087.92,1205.05 1089.92,1203.05 1091.5,1200.5C 1110.18,1177.65 1131.85,1158.15 1156.5,1142C 1188.68,1123.04 1221.35,1122.04 1254.5,1139C 1259.77,1141.79 1264.44,1145.29 1268.5,1149.5C 1237.24,1126.49 1203.91,1122.99 1168.5,1139C 1141.73,1153.27 1119.06,1172.43 1100.5,1196.5C 1099.83,1196.5 1099.5,1196.83 1099.5,1197.5C 1094.71,1200.95 1091.05,1205.28 1088.5,1210.5C 1064.46,1242.07 1042.96,1275.4 1024,1310.5C 975.666,1403.51 934.333,1499.51 900,1598.5C 879.653,1655.71 860.819,1713.37 843.5,1771.5C 835.139,1793.26 828.139,1815.59 822.5,1838.5C 813.747,1866.5 805.747,1894.83 798.5,1923.5C 830.147,1921.7 861.814,1920.2 893.5,1919C 903.738,1890.12 914.072,1861.28 924.5,1832.5C 932.636,1809.42 940.97,1786.42 949.5,1763.5C 990.899,1650.03 1036.73,1538.36 1087,1428.5C 1109.41,1381.34 1133.57,1335.34 1159.5,1290.5C 1168.78,1277.98 1177.62,1264.98 1186,1251.5C 1192,1243.34 1198.17,1235.34 1204.5,1227.5C 1210.29,1220.54 1216.29,1213.7 1222.5,1207C 1211.46,1205.86 1200.46,1204.53 1189.5,1203C 1187,1202.63 1184.67,1201.79 1182.5,1200.5C 1181.17,1199.83 1181.17,1199.17 1182.5,1198.5C 1191.62,1195.7 1200.95,1193.87 1210.5,1193C 1220.84,1192.45 1231.17,1191.78 1241.5,1191C 1244.5,1189.17 1247.5,1187.33 1250.5,1185.5C 1251.7,1185.85 1251.7,1186.35 1250.5,1187C 1248.83,1188 1247.17,1189 1245.5,1190C 1312.46,1187.4 1379.46,1185.9 1446.5,1185.5C 1454.5,1185.5 1462.5,1185.5 1470.5,1185.5C 1470.22,1188.78 1470.55,1191.94 1471.5,1195C 1480.79,1196.48 1490.12,1196.82 1499.5,1196C 1500.5,1195.5 1501.5,1195 1502.5,1194.5C 1503.48,1191.57 1503.82,1188.57 1503.5,1185.5C 1507.83,1185.5 1512.17,1185.5 1516.5,1185.5C 1599.91,1185.65 1683.24,1188.15 1766.5,1193C 1777.22,1193.92 1787.89,1194.92 1798.5,1196C 1797.94,1195.62 1797.61,1195.12 1797.5,1194.5C 1803.73,1198.55 1809.56,1203.22 1815,1208.5C 1824.78,1219.11 1833.95,1230.11 1842.5,1241.5C 1861.39,1266.91 1878.55,1293.58 1894,1321.5C 1939.62,1407.02 1980.62,1494.69 2017,1584.5C 2041.78,1644.68 2065.28,1705.35 2087.5,1766.5C 2096.26,1791.01 2105.26,1815.34 2114.5,1839.5C 2123.67,1867.5 2133.33,1895.34 2143.5,1923C 2175.17,1925.25 2206.84,1927.41 2238.5,1929.5C 2231.95,1902.28 2224.61,1875.28 2216.5,1848.5C 2210.49,1827.47 2204.33,1806.47 2198,1785.5C 2197.15,1781.74 2195.65,1778.4 2193.5,1775.5C 2155.11,1643.83 2107.95,1515.49 2052,1390.5C 2023.84,1327.81 1989.84,1268.81 1950,1213.5C 1932.54,1191.04 1912.7,1170.87 1890.5,1153C 1871.54,1138.34 1850.04,1130.18 1826,1128.5C 1818.06,1128.98 1810.22,1130.14 1802.5,1132C 1793.25,1135.47 1784.25,1139.14 1775.5,1143C 1808.18,1122.25 1841.52,1121.25 1875.5,1140C 1891.24,1149.54 1905.91,1160.54 1919.5,1173C 1955.56,1210.93 1986.39,1252.77 2012,1298.5C 2048.69,1364.89 2081.36,1433.22 2110,1503.5C 2146.2,1593.24 2179.03,1684.24 2208.5,1776.5C 2215.79,1801.38 2223.46,1826.04 2231.5,1850.5C 2238.95,1876.86 2246.62,1903.2 2254.5,1929.5C 2288.37,1933.38 2322.37,1936.38 2356.5,1938.5C 2349.15,1912.44 2340.81,1886.78 2331.5,1861.5C 2323.46,1836.02 2314.46,1811.02 2304.5,1786.5C 2255.5,1647.15 2197.66,1511.48 2131,1379.5C 2098.76,1316 2061.76,1255.66 2020,1198.5C 1991.88,1160.38 1959.05,1126.88 1921.5,1098C 1904,1085.75 1885,1076.42 1864.5,1070C 1828.15,1061 1794.49,1067 1763.5,1088C 1740.92,1104.58 1721.75,1124.42 1706,1147.5C 1705.28,1148.45 1704.45,1148.62 1703.5,1148C 1776.11,1045.61 1859.78,1035.61 1954.5,1118C 1985.95,1147.11 2014.12,1178.94 2039,1213.5C 2079.97,1271.87 2116.97,1332.87 2150,1396.5C 2214.72,1523.85 2271.55,1654.51 2320.5,1788.5C 2329.5,1813.83 2338.5,1839.17 2347.5,1864.5C 2356.76,1889.62 2365.43,1914.95 2373.5,1940.5C 2395.18,1942.92 2416.85,1945.09 2438.5,1947C 2430.13,1922.71 2421.46,1898.54 2412.5,1874.5C 2403.45,1848 2393.45,1822 2382.5,1796.5C 2326.15,1645.13 2259.99,1498.13 2184,1355.5C 2156.17,1305.15 2125.84,1256.49 2093,1209.5C 2062.44,1166.26 2026.94,1127.43 1986.5,1093C 1953.73,1068.63 1917.07,1052.96 1876.5,1046C 1843.97,1038.89 1811.31,1037.56 1778.5,1042C 1721.76,1053.41 1682.6,1085.91 1661,1139.5C 1658.16,1147.53 1655.66,1155.53 1653.5,1163.5C 1663.08,1114.81 1689.41,1078.31 1732.5,1054C 1754.52,1043 1777.85,1037 1802.5,1036C 1856.62,1034.78 1908.29,1045.45 1957.5,1068C 1985.07,1083.89 2010.07,1103.22 2032.5,1126C 2073.59,1169.74 2110.09,1216.91 2142,1267.5C 2202.11,1364.69 2255.77,1465.69 2303,1570.5C 2337.11,1645.72 2369.28,1721.72 2399.5,1798.5C 2409.22,1824.94 2419.22,1851.27 2429.5,1877.5C 2438.15,1901.48 2446.82,1925.48 2455.5,1949.5C 2482.2,1953.67 2508.87,1958.17 2535.5,1963C 2544.57,1965.08 2553.57,1967.41 2562.5,1970C 2564.12,1970.24 2565.12,1971.07 2565.5,1972.5C 2550.12,1979.02 2534.45,1984.85 2518.5,1990C 2461.52,2004.66 2403.85,2015.99 2345.5,2024C 2208.65,2041.29 2071.32,2053.29 1933.5,2060C 1832.9,2065.07 1732.23,2068.24 1631.5,2069.5C 1628.94,2069.8 1626.61,2069.47 1624.5,2068.5C 1669.15,2064.95 1712.82,2056.45 1755.5,2043C 1771.51,2032.33 1785.68,2019.49 1798,2004.5C 1798.35,1998.31 1797.85,1992.31 1796.5,1986.5C 1792.98,1952.98 1788.98,1919.64 1784.5,1886.5C 1782.09,1864.8 1779.43,1843.13 1776.5,1821.5C 1773.24,1798.53 1770.08,1775.53 1767,1752.5C 1766.77,1751.26 1766.27,1750.26 1765.5,1749.5C 1749.11,1624.89 1727.44,1501.23 1700.5,1378.5C 1699.28,1371.94 1697.61,1365.61 1695.5,1359.5C 1690.47,1338.03 1684.8,1316.7 1678.5,1295.5C 1678.5,1294.83 1678.83,1294.5 1679.5,1294.5C 1686.67,1316.68 1693.34,1339.01 1699.5,1361.5C 1701.18,1366.92 1702.85,1372.25 1704.5,1377.5C 1733.96,1500.48 1758.3,1624.48 1777.5,1749.5C 1781.17,1773.51 1784.83,1797.51 1788.5,1821.5C 1792.42,1848.51 1796.42,1875.51 1800.5,1902.5C 1803.63,1928.06 1807.29,1953.39 1811.5,1978.5C 1811.34,1980.86 1811.5,1983.19 1812,1985.5C 1815.87,1981.09 1818.7,1976.09 1820.5,1970.5C 1829.34,1957.01 1829.84,1943.01 1822,1928.5C 1818.72,1922.73 1814.89,1917.4 1810.5,1912.5C 1816.99,1911.83 1823.66,1911.5 1830.5,1911.5C 1874.34,1912.66 1918.17,1913.99 1962,1915.5C 1966.5,1915.17 1971,1914.83 1975.5,1914.5C 1968.14,1885.74 1960.81,1857.07 1953.5,1828.5C 1947.79,1804.33 1941.46,1780.33 1934.5,1756.5C 1902.73,1636.7 1865.23,1518.7 1822,1402.5C 1813.61,1380.73 1804.44,1359.4 1794.5,1338.5C 1791.9,1329.96 1788.23,1321.96 1783.5,1314.5C 1780.44,1307.37 1777.1,1300.37 1773.5,1293.5C 1774.17,1293.17 1774.83,1292.83 1775.5,1292.5C 1779.09,1298.68 1782.42,1305.01 1785.5,1311.5C 1789.47,1319.76 1793.8,1327.76 1798.5,1335.5C 1841.11,1430.76 1877.61,1528.42 1908,1628.5C 1921.3,1671.38 1934.14,1714.38 1946.5,1757.5C 1953.17,1781.5 1959.83,1805.5 1966.5,1829.5C 1974.64,1858.41 1982.31,1887.41 1989.5,1916.5C 2035.5,1918.35 2081.5,1920.35 2127.5,1922.5C 2119.14,1894.09 2109.81,1866.09 2099.5,1838.5C 2091.81,1813.43 2083.14,1788.76 2073.5,1764.5C 2026.79,1628.09 1972.63,1494.76 1911,1364.5C 1890.73,1323.47 1867.9,1284.13 1842.5,1246.5C 1837.46,1237.75 1831.46,1229.75 1824.5,1222.5C 1818.19,1214.36 1811.03,1207.03 1803,1200.5C 1795.66,1202.69 1788.16,1204.19 1780.5,1205C 1756.56,1207.5 1732.56,1209 1708.5,1209.5C 1702.97,1209.18 1697.64,1209.51 1692.5,1210.5C 1676.83,1210.75 1661.16,1211.09 1645.5,1211.5C 1637.32,1211.17 1629.32,1211.51 1621.5,1212.5C 1564.17,1213.37 1506.84,1213.7 1449.5,1213.5C 1429.67,1212.5 1409.67,1212.17 1389.5,1212.5C 1334.45,1212.11 1279.45,1210.61 1224.5,1208C 1217.55,1214.11 1211.55,1220.95 1206.5,1228.5C 1189.58,1249.33 1174.92,1271.66 1162.5,1295.5C 1148.01,1319.8 1134.51,1344.8 1122,1370.5C 1061.7,1498.11 1008.86,1628.78 963.5,1762.5C 962.21,1763.06 961.377,1764.06 961,1765.5C 953.2,1787.43 945.7,1809.43 938.5,1831.5C 928.587,1859.24 919.254,1887.24 910.5,1915.5C 909.596,1916.21 909.263,1917.21 909.5,1918.5C 914.363,1918.82 919.03,1918.49 923.5,1917.5C 964.494,1915.93 1005.49,1914.43 1046.5,1913C 1054.4,1883.8 1062.4,1854.63 1070.5,1825.5C 1077.15,1802.23 1083.48,1778.9 1089.5,1755.5C 1120.23,1648.16 1155.06,1542.16 1194,1437.5C 1204.16,1411.19 1214.99,1385.19 1226.5,1359.5C 1243.4,1322.36 1262.9,1286.69 1285,1252.5C 1289.32,1246.35 1294.16,1240.68 1299.5,1235.5C 1271.09,1274.65 1248.09,1316.98 1230.5,1362.5C 1194.82,1449.03 1163.99,1537.36 1138,1627.5C 1125.38,1669.63 1113.55,1711.96 1102.5,1754.5C 1100.07,1759.51 1098.24,1764.84 1097,1770.5C 1092.18,1788.44 1087.68,1806.44 1083.5,1824.5C 1075.55,1853.64 1068.22,1882.97 1061.5,1912.5C 1092.66,1911.77 1123.83,1911.11 1155,1910.5C 1163.34,1910.5 1171.51,1910.83 1179.5,1911.5C 1172.25,1918.99 1166.75,1927.65 1163,1937.5C 1160.6,1947.49 1161.43,1957.15 1165.5,1966.5C 1173.74,1991.48 1187.4,2012.98 1206.5,2031C 1209.74,2033.87 1213.24,2036.37 1217,2038.5C 1218.65,2024.77 1220.49,2011.11 1222.5,1997.5C 1228.39,1953.18 1234.39,1908.84 1240.5,1864.5C 1243.11,1849.58 1245.44,1834.58 1247.5,1819.5C 1251.29,1795.89 1254.95,1772.22 1258.5,1748.5C 1277.5,1624.84 1301.5,1502.17 1330.5,1380.5C 1338.35,1351.8 1346.85,1323.13 1356,1294.5C 1362.17,1277.16 1369.17,1260.16 1377,1243.5C 1359.28,1287.5 1345.45,1332.84 1335.5,1379.5C 1308.33,1501.52 1286.66,1624.52 1270.5,1748.5C 1269.88,1748.61 1269.38,1748.94 1269,1749.5C 1265.84,1771.8 1263,1794.14 1260.5,1816.5C 1258.22,1829.29 1256.55,1842.29 1255.5,1855.5C 1248.75,1903.7 1242.75,1952.03 1237.5,2000.5C 1235.34,2014.64 1233.67,2028.97 1232.5,2043.5C 1230.8,2043.34 1229.13,2043.51 1227.5,2044C 1240.9,2048.68 1254.56,2052.35 1268.5,2055C 1311.95,2061.92 1355.62,2066.75 1399.5,2069.5C 1394.36,2070.49 1389.03,2070.82 1383.5,2070.5C 1167.37,2069.84 951.708,2059.67 736.5,2040C 658.462,2032.07 580.796,2021.41 503.5,2008C 465.98,2001.12 429.313,1991.12 393.5,1978C 388.844,1976.29 384.51,1974.13 380.5,1971.5C 389.822,1967.91 399.488,1965.08 409.5,1963C 467.45,1952.25 525.783,1944.42 584.5,1939.5C 593.303,1913.76 602.303,1888.09 611.5,1862.5C 620.736,1839.68 629.736,1816.68 638.5,1793.5C 696.528,1643.11 764.028,1497.11 841,1355.5C 879.792,1285.07 924.458,1218.74 975,1156.5C 998.016,1129.14 1023.85,1104.98 1052.5,1084C 1077.9,1066.08 1105.9,1053.74 1136.5,1047C 1168.95,1038.27 1201.95,1034.6 1235.5,1036C 1304.84,1041.72 1352.01,1076.89 1377,1141.5C 1378.49,1146.11 1379.65,1150.77 1380.5,1155.5 Z M 1776.5,1183.5 C 1768.83,1182.83 1761.17,1182.17 1753.5,1181.5C 1755.83,1180.68 1758.33,1180.02 1761,1179.5C 1766.53,1179.91 1771.69,1181.24 1776.5,1183.5 Z M 1088.5,1210.5 C 1106.73,1216.43 1125.4,1220.43 1144.5,1222.5C 1145.71,1246 1150.71,1268.67 1159.5,1290.5C 1133.57,1335.34 1109.41,1381.34 1087,1428.5C 1036.73,1538.36 990.899,1650.03 949.5,1763.5C 914.137,1765.79 878.804,1768.45 843.5,1771.5C 860.819,1713.37 879.653,1655.71 900,1598.5C 934.333,1499.51 975.666,1403.51 1024,1310.5C 1042.96,1275.4 1064.46,1242.07 1088.5,1210.5 Z M 1842.5,1246.5 C 1867.9,1284.13 1890.73,1323.47 1911,1364.5C 1972.63,1494.76 2026.79,1628.09 2073.5,1764.5C 2031.2,1761.69 1988.86,1759.35 1946.5,1757.5C 1934.14,1714.38 1921.3,1671.38 1908,1628.5C 1877.61,1528.42 1841.11,1430.76 1798.5,1335.5C 1821.93,1310.31 1836.6,1280.64 1842.5,1246.5 Z M 1162.5,1295.5 C 1176.19,1324.52 1197.52,1345.85 1226.5,1359.5C 1214.99,1385.19 1204.16,1411.19 1194,1437.5C 1155.06,1542.16 1120.23,1648.16 1089.5,1755.5C 1047.46,1757.25 1005.46,1759.59 963.5,1762.5C 1008.86,1628.78 1061.7,1498.11 1122,1370.5C 1134.51,1344.8 1148.01,1319.8 1162.5,1295.5 Z M 1794.5,1338.5 C 1804.44,1359.4 1813.61,1380.73 1822,1402.5C 1865.23,1518.7 1902.73,1636.7 1934.5,1756.5C 1882.18,1753.78 1829.85,1751.45 1777.5,1749.5C 1758.3,1624.48 1733.96,1500.48 1704.5,1377.5C 1738.45,1373.18 1768.45,1360.18 1794.5,1338.5 Z M 1230.5,1362.5 C 1262.52,1375.84 1295.85,1381.84 1330.5,1380.5C 1301.5,1502.17 1277.5,1624.84 1258.5,1748.5C 1206.51,1750.35 1154.51,1752.35 1102.5,1754.5C 1113.55,1711.96 1125.38,1669.63 1138,1627.5C 1163.99,1537.36 1194.82,1449.03 1230.5,1362.5 Z M 1363.5,1746.5 C 1332.5,1747.18 1301.5,1747.85 1270.5,1748.5C 1286.66,1624.52 1308.33,1501.52 1335.5,1379.5C 1346.06,1378.32 1356.56,1376.66 1367,1374.5C 1374.64,1375.15 1380.31,1378.82 1384,1385.5C 1407.8,1427.19 1420.97,1472.02 1423.5,1520C 1422.98,1546.26 1417.48,1571.43 1407,1595.5C 1395.59,1616.66 1383.92,1637.66 1372,1658.5C 1359.38,1686.91 1356.55,1716.25 1363.5,1746.5 Z M 1700.5,1378.5 C 1727.44,1501.23 1749.11,1624.89 1765.5,1749.5C 1718.84,1748.19 1672.17,1747.19 1625.5,1746.5C 1633.21,1712.69 1629.04,1680.36 1613,1649.5C 1606.5,1637.83 1599.5,1626.5 1592,1615.5C 1566.46,1569.81 1559.8,1521.47 1572,1470.5C 1578.84,1442.64 1588.84,1415.97 1602,1390.5C 1604.47,1386.4 1607.3,1382.57 1610.5,1379C 1614.13,1376.62 1618.13,1375.12 1622.5,1374.5C 1648.28,1381.2 1674.28,1382.54 1700.5,1378.5 Z"/></g>
<g><path style="opacity:0.141" fill="#599fff" d="M 1319.5,1132.5 C 1324.6,1137.08 1328.43,1142.41 1331,1148.5C 1326.9,1143.28 1323.07,1137.95 1319.5,1132.5 Z"/></g>
<g><path style="opacity:0.004" fill="#37dbff" d="M 1772.5,1144.5 C 1774.98,1144.75 1774.98,1145.41 1772.5,1146.5C 1771.54,1146.03 1771.54,1145.36 1772.5,1144.5 Z"/></g>
<g><path style="opacity:0.004" fill="#2ce9ff" d="M 1767.5,1149.5 C 1767.9,1148.47 1768.56,1148.31 1769.5,1149C 1768.91,1149.46 1768.24,1149.63 1767.5,1149.5 Z"/></g>
<g><path style="opacity:0.183" fill="#5a9dff" d="M 1268.5,1149.5 C 1271.12,1150.48 1273.45,1151.98 1275.5,1154C 1272.61,1153.55 1270.28,1152.05 1268.5,1149.5 Z"/></g>
<g><path style="opacity:0.004" fill="#00fffe" d="M 1763.5,1151.5 C 1764.83,1152.17 1764.83,1152.17 1763.5,1151.5 Z"/></g>
<g><path style="opacity:0.086" fill="#59a0ff" d="M 1380.5,1155.5 C 1381.91,1158.22 1382.58,1161.22 1382.5,1164.5C 1381.09,1161.78 1380.42,1158.78 1380.5,1155.5 Z"/></g>
<g><path style="opacity:0.008" fill="#8080ff" d="M 1382.5,1164.5 C 1383.83,1165.17 1383.83,1165.17 1382.5,1164.5 Z"/></g>
<g><path style="opacity:0.012" fill="#5ba4ff" d="M 1653.5,1163.5 C 1653.63,1164.24 1653.46,1164.91 1653,1165.5C 1652.31,1164.56 1652.47,1163.9 1653.5,1163.5 Z"/></g>
<g><path style="opacity:0.982" fill="#b4b4b5" d="M 1469.5,1174.5 C 1470.48,1177.62 1470.81,1180.96 1470.5,1184.5C 1462.32,1184.17 1454.32,1184.51 1446.5,1185.5C 1379.46,1185.9 1312.46,1187.4 1245.5,1190C 1247.17,1189 1248.83,1188 1250.5,1187C 1251.7,1186.35 1251.7,1185.85 1250.5,1185.5C 1247.5,1187.33 1244.5,1189.17 1241.5,1191C 1231.17,1191.78 1220.84,1192.45 1210.5,1193C 1200.95,1193.87 1191.62,1195.7 1182.5,1198.5C 1181.17,1199.17 1181.17,1199.83 1182.5,1200.5C 1184.67,1201.79 1187,1202.63 1189.5,1203C 1200.46,1204.53 1211.46,1205.86 1222.5,1207C 1216.29,1213.7 1210.29,1220.54 1204.5,1227.5C 1184.51,1225.7 1164.51,1224.03 1144.5,1222.5C 1125.4,1220.43 1106.73,1216.43 1088.5,1210.5C 1091.05,1205.28 1094.71,1200.95 1099.5,1197.5C 1100.17,1197.5 1100.5,1197.17 1100.5,1196.5C 1120.65,1192.26 1140.98,1189.1 1161.5,1187C 1195.12,1183.77 1228.78,1181.27 1262.5,1179.5C 1259.65,1181.08 1256.65,1182.58 1253.5,1184C 1254,1184.17 1254.5,1184.33 1255,1184.5C 1262.72,1181.53 1270.55,1179.53 1278.5,1178.5C 1342.14,1176.07 1405.81,1174.74 1469.5,1174.5 Z"/></g>
<g><path style="opacity:0.941" fill="#7aa3e7" d="M 1278.5,1178.5 C 1270.55,1179.53 1262.72,1181.53 1255,1184.5C 1254.5,1184.33 1254,1184.17 1253.5,1184C 1256.65,1182.58 1259.65,1181.08 1262.5,1179.5C 1267.8,1178.81 1273.14,1178.47 1278.5,1178.5 Z"/></g>
<g><path style="opacity:0.541" fill="#609dfb" d="M 1782.5,1183.5 C 1783.6,1184.56 1784.93,1185.39 1786.5,1186C 1787.7,1186.65 1787.7,1187.15 1786.5,1187.5C 1783.36,1185.59 1780.03,1184.26 1776.5,1183.5C 1771.69,1181.24 1766.53,1179.91 1761,1179.5C 1758.33,1180.02 1755.83,1180.68 1753.5,1181.5C 1751.31,1182.29 1749.31,1182.29 1747.5,1181.5C 1759.44,1177.22 1771.11,1177.89 1782.5,1183.5 Z"/></g>
<g><path style="opacity:0.976" fill="#b3b4b5" d="M 1503.5,1174.5 C 1584.92,1174.04 1666.26,1176.38 1747.5,1181.5C 1749.31,1182.29 1751.31,1182.29 1753.5,1181.5C 1761.17,1182.17 1768.83,1182.83 1776.5,1183.5C 1780.03,1184.26 1783.36,1185.59 1786.5,1187.5C 1787.7,1187.15 1787.7,1186.65 1786.5,1186C 1784.93,1185.39 1783.6,1184.56 1782.5,1183.5C 1816.93,1185.39 1850.93,1190.22 1884.5,1198C 1887.62,1199.06 1890.62,1200.39 1893.5,1202C 1895.04,1203.6 1895.54,1205.43 1895,1207.5C 1893.27,1209.62 1891.1,1211.12 1888.5,1212C 1874.42,1216.38 1860.09,1219.55 1845.5,1221.5C 1844.24,1228.15 1843.24,1234.81 1842.5,1241.5C 1833.95,1230.11 1824.78,1219.11 1815,1208.5C 1809.56,1203.22 1803.73,1198.55 1797.5,1194.5C 1797.61,1195.12 1797.94,1195.62 1798.5,1196C 1787.89,1194.92 1777.22,1193.92 1766.5,1193C 1683.24,1188.15 1599.91,1185.65 1516.5,1185.5C 1512.37,1184.52 1508.03,1184.18 1503.5,1184.5C 1503.5,1181.17 1503.5,1177.83 1503.5,1174.5 Z"/></g>
<g><path style="opacity:1" fill="#78a4e7" d="M 1793.5,1191.5 C 1792.24,1191.54 1791.24,1191.04 1790.5,1190C 1792,1189.42 1793,1189.92 1793.5,1191.5 Z"/></g>
<g><path style="opacity:1" fill="#78a3e7" d="M 1793.5,1191.5 C 1795.4,1191.74 1796.74,1192.74 1797.5,1194.5C 1795.6,1194.26 1794.26,1193.26 1793.5,1191.5 Z"/></g>
<g><path style="opacity:0.946" fill="#afb2b9" d="M 1091.5,1200.5 C 1089.92,1203.05 1087.92,1205.05 1085.5,1206.5C 1085.8,1202.87 1087.8,1200.87 1091.5,1200.5 Z"/></g>
<g><path style="opacity:1" fill="#b4b4b5" d="M 1824.5,1222.5 C 1794.43,1226.49 1764.1,1229.15 1733.5,1230.5C 1730.87,1228.37 1728.37,1226.04 1726,1223.5C 1725.33,1224.17 1725.33,1224.83 1726,1225.5C 1727.71,1227.04 1729.21,1228.7 1730.5,1230.5C 1705.14,1231.83 1679.81,1233.17 1654.5,1234.5C 1653.81,1233.97 1653.31,1233.31 1653,1232.5C 1648.92,1233.8 1644.59,1234.46 1640,1234.5C 1554.17,1236.67 1468.34,1237 1382.5,1235.5C 1383.3,1234.58 1383.47,1233.58 1383,1232.5C 1382.15,1233.57 1381.31,1234.57 1380.5,1235.5C 1354.5,1234.81 1328.5,1234.15 1302.5,1233.5C 1303.79,1231.7 1305.29,1230.04 1307,1228.5C 1307.67,1227.83 1307.67,1227.17 1307,1226.5C 1304.63,1229.04 1302.13,1231.37 1299.5,1233.5C 1268.52,1231.54 1237.52,1229.88 1206.5,1228.5C 1211.55,1220.95 1217.55,1214.11 1224.5,1208C 1279.45,1210.61 1334.45,1212.11 1389.5,1212.5C 1391.89,1213.21 1394.39,1213.88 1397,1214.5C 1414.42,1213.51 1431.92,1213.17 1449.5,1213.5C 1506.84,1213.7 1564.17,1213.37 1621.5,1212.5C 1627.09,1212.19 1632.59,1212.53 1638,1213.5C 1640.61,1212.88 1643.11,1212.21 1645.5,1211.5C 1661.16,1211.09 1676.83,1210.75 1692.5,1210.5C 1697.9,1210.22 1703.23,1210.55 1708.5,1211.5C 1709.46,1211.03 1709.46,1210.36 1708.5,1209.5C 1732.56,1209 1756.56,1207.5 1780.5,1205C 1788.16,1204.19 1795.66,1202.69 1803,1200.5C 1811.03,1207.03 1818.19,1214.36 1824.5,1222.5 Z"/></g>
<g><path style="opacity:1" fill="#7ba5e5" d="M 1389.5,1212.5 C 1409.67,1212.17 1429.67,1212.5 1449.5,1213.5C 1431.92,1213.17 1414.42,1213.51 1397,1214.5C 1394.39,1213.88 1391.89,1213.21 1389.5,1212.5 Z"/></g>
<g><path style="opacity:1" fill="#83a7de" d="M 1621.5,1212.5 C 1629.32,1211.51 1637.32,1211.17 1645.5,1211.5C 1643.11,1212.21 1640.61,1212.88 1638,1213.5C 1632.59,1212.53 1627.09,1212.19 1621.5,1212.5 Z"/></g>
<g><path style="opacity:1" fill="#90aad4" d="M 1692.5,1210.5 C 1697.64,1209.51 1702.97,1209.18 1708.5,1209.5C 1709.46,1210.36 1709.46,1211.03 1708.5,1211.5C 1703.23,1210.55 1697.9,1210.22 1692.5,1210.5 Z"/></g>
<g><path style="opacity:0.989" fill="#a3a4a5" d="M 1144.5,1222.5 C 1164.51,1224.03 1184.51,1225.7 1204.5,1227.5C 1198.17,1235.34 1192,1243.34 1186,1251.5C 1177.62,1264.98 1168.78,1277.98 1159.5,1290.5C 1150.71,1268.67 1145.71,1246 1144.5,1222.5 Z"/></g>
<g><path style="opacity:0.993" fill="#a4a4a5" d="M 1824.5,1222.5 C 1831.46,1229.75 1837.46,1237.75 1842.5,1246.5C 1836.6,1280.64 1821.93,1310.31 1798.5,1335.5C 1793.8,1327.76 1789.47,1319.76 1785.5,1311.5C 1786.5,1311.59 1787.33,1311.25 1788,1310.5C 1793.03,1302.77 1796.7,1294.44 1799,1285.5C 1799.67,1281.17 1799.67,1276.83 1799,1272.5C 1797.56,1270.55 1795.73,1269.22 1793.5,1268.5C 1784.38,1271.52 1775.05,1273.52 1765.5,1274.5C 1758.94,1264.39 1752.1,1254.39 1745,1244.5C 1742.33,1240.67 1739.17,1237.33 1735.5,1234.5C 1735.27,1232.94 1734.6,1231.6 1733.5,1230.5C 1764.1,1229.15 1794.43,1226.49 1824.5,1222.5 Z"/></g>
<g><path style="opacity:0.996" fill="#a3a4a5" d="M 1206.5,1228.5 C 1237.52,1229.88 1268.52,1231.54 1299.5,1233.5C 1299.5,1234.17 1299.5,1234.83 1299.5,1235.5C 1294.16,1240.68 1289.32,1246.35 1285,1252.5C 1262.9,1286.69 1243.4,1322.36 1226.5,1359.5C 1197.52,1345.85 1176.19,1324.52 1162.5,1295.5C 1174.92,1271.66 1189.58,1249.33 1206.5,1228.5 Z"/></g>
<g><path style="opacity:1" fill="#7ba3e2" d="M 1733.5,1230.5 C 1734.6,1231.6 1735.27,1232.94 1735.5,1234.5C 1733.83,1233.17 1732.17,1231.83 1730.5,1230.5C 1729.21,1228.7 1727.71,1227.04 1726,1225.5C 1725.33,1224.83 1725.33,1224.17 1726,1223.5C 1728.37,1226.04 1730.87,1228.37 1733.5,1230.5 Z"/></g>
<g><path style="opacity:1" fill="#77a2e8" d="M 1302.5,1233.5 C 1301.5,1234.17 1300.5,1234.83 1299.5,1235.5C 1299.5,1234.83 1299.5,1234.17 1299.5,1233.5C 1302.13,1231.37 1304.63,1229.04 1307,1226.5C 1307.67,1227.17 1307.67,1227.83 1307,1228.5C 1305.29,1230.04 1303.79,1231.7 1302.5,1233.5 Z"/></g>
<g><path style="opacity:0.998" fill="#a3a4a5" d="M 1730.5,1230.5 C 1732.17,1231.83 1733.83,1233.17 1735.5,1234.5C 1745.68,1247.35 1754.68,1261.02 1762.5,1275.5C 1733.74,1278.96 1705.07,1281.96 1676.5,1284.5C 1670.42,1268.11 1663.25,1252.11 1655,1236.5C 1662.02,1252.06 1668.19,1268.06 1673.5,1284.5C 1597.84,1288.96 1522.17,1293.13 1446.5,1297C 1454.89,1300.35 1463.55,1302.68 1472.5,1304C 1517.38,1310.55 1562.22,1317.38 1607,1324.5C 1613.52,1325.67 1619.69,1327.84 1625.5,1331C 1626.86,1332.94 1626.53,1334.6 1624.5,1336C 1615.98,1339.06 1607.31,1341.73 1598.5,1344C 1579.31,1351.52 1564.81,1364.35 1555,1382.5C 1536.73,1418.58 1527.4,1456.92 1527,1497.5C 1524.57,1541.47 1529.9,1584.47 1543,1626.5C 1554.34,1675.65 1555.34,1724.98 1546,1774.5C 1543.41,1784.95 1540.41,1795.28 1537,1805.5C 1522.39,1843.33 1507.39,1880.99 1492,1918.5C 1484.71,1936.36 1479.05,1954.69 1475,1973.5C 1472.63,1982.17 1475.8,1986.67 1484.5,1987C 1546.47,1993.81 1608.47,1994.14 1670.5,1988C 1699.52,1985.16 1727.19,1977.5 1753.5,1965C 1778.28,1951.42 1779.95,1935.42 1758.5,1917C 1746.67,1908.58 1734.34,1900.92 1721.5,1894C 1684.7,1876.43 1648.37,1858.1 1612.5,1839C 1600.47,1831.72 1589.64,1822.89 1580,1812.5C 1575.07,1806.29 1573.4,1799.29 1575,1791.5C 1599.47,1746.82 1603.14,1700.48 1586,1652.5C 1581.74,1642.3 1575.74,1633.3 1568,1625.5C 1556.22,1604.72 1549.22,1582.39 1547,1558.5C 1542.53,1512.21 1548.87,1467.55 1566,1424.5C 1578.61,1395.77 1597.11,1371.6 1621.5,1352C 1623.07,1350.92 1624.73,1350.09 1626.5,1349.5C 1645.7,1356.64 1665.53,1360.64 1686,1361.5C 1689.58,1361.48 1692.74,1360.82 1695.5,1359.5C 1697.61,1365.61 1699.28,1371.94 1700.5,1378.5C 1674.28,1382.54 1648.28,1381.2 1622.5,1374.5C 1618.13,1375.12 1614.13,1376.62 1610.5,1379C 1607.3,1382.57 1604.47,1386.4 1602,1390.5C 1588.84,1415.97 1578.84,1442.64 1572,1470.5C 1559.8,1521.47 1566.46,1569.81 1592,1615.5C 1599.5,1626.5 1606.5,1637.83 1613,1649.5C 1629.04,1680.36 1633.21,1712.69 1625.5,1746.5C 1622.08,1756.99 1617.91,1766.99 1613,1776.5C 1619.76,1771.02 1627.26,1769.52 1635.5,1772C 1639.78,1775.84 1641.95,1780.67 1642,1786.5C 1642.65,1794.24 1642.15,1801.9 1640.5,1809.5C 1646.09,1813.79 1652.42,1816.79 1659.5,1818.5C 1692.94,1833.22 1725.27,1850.05 1756.5,1869C 1765.93,1875.13 1775.1,1881.63 1784,1888.5C 1784.46,1887.91 1784.63,1887.24 1784.5,1886.5C 1788.98,1919.64 1792.98,1952.98 1796.5,1986.5C 1776.81,1994.9 1756.48,2001.4 1735.5,2006C 1672.32,2016.77 1608.65,2023.11 1544.5,2025C 1456.7,2028.29 1369.37,2023.62 1282.5,2011C 1270.17,2008.67 1257.83,2006.33 1245.5,2004C 1242.4,2003.36 1239.73,2002.2 1237.5,2000.5C 1242.75,1952.03 1248.75,1903.7 1255.5,1855.5C 1280.34,1841.75 1305.67,1829.08 1331.5,1817.5C 1336.88,1815.71 1342.21,1813.71 1347.5,1811.5C 1347.5,1801.23 1347.67,1790.9 1348,1780.5C 1352.68,1770.2 1360.18,1767.7 1370.5,1773C 1372.33,1774.17 1374.17,1775.33 1376,1776.5C 1374.02,1771.52 1371.68,1766.52 1369,1761.5C 1367.1,1756.4 1365.27,1751.4 1363.5,1746.5C 1356.55,1716.25 1359.38,1686.91 1372,1658.5C 1383.92,1637.66 1395.59,1616.66 1407,1595.5C 1417.48,1571.43 1422.98,1546.26 1423.5,1520C 1420.97,1472.02 1407.8,1427.19 1384,1385.5C 1380.31,1378.82 1374.64,1375.15 1367,1374.5C 1356.56,1376.66 1346.06,1378.32 1335.5,1379.5C 1345.45,1332.84 1359.28,1287.5 1377,1243.5C 1369.17,1260.16 1362.17,1277.16 1356,1294.5C 1346.85,1323.13 1338.35,1351.8 1330.5,1380.5C 1295.85,1381.84 1262.52,1375.84 1230.5,1362.5C 1248.09,1316.98 1271.09,1274.65 1299.5,1235.5C 1300.5,1234.83 1301.5,1234.17 1302.5,1233.5C 1328.5,1234.15 1354.5,1234.81 1380.5,1235.5C 1379.45,1240.6 1380.12,1240.6 1382.5,1235.5C 1468.34,1237 1554.17,1236.67 1640,1234.5C 1644.59,1234.46 1648.92,1233.8 1653,1232.5C 1653.31,1233.31 1653.81,1233.97 1654.5,1234.5C 1679.81,1233.17 1705.14,1231.83 1730.5,1230.5 Z"/></g>
<g><path style="opacity:1" fill="#7ea2da" d="M 1382.5,1235.5 C 1380.12,1240.6 1379.45,1240.6 1380.5,1235.5C 1381.31,1234.57 1382.15,1233.57 1383,1232.5C 1383.47,1233.58 1383.3,1234.58 1382.5,1235.5 Z"/></g>
<g><path style="opacity:1" fill="#6c9eed" d="M 1676.5,1284.5 C 1677.49,1287.82 1678.49,1291.16 1679.5,1294.5C 1678.83,1294.5 1678.5,1294.83 1678.5,1295.5C 1676.64,1291.92 1674.97,1288.25 1673.5,1284.5C 1668.19,1268.06 1662.02,1252.06 1655,1236.5C 1663.25,1252.11 1670.42,1268.11 1676.5,1284.5 Z"/></g>
<g><path style="opacity:1" fill="#679ef3" d="M 1735.5,1234.5 C 1739.17,1237.33 1742.33,1240.67 1745,1244.5C 1752.1,1254.39 1758.94,1264.39 1765.5,1274.5C 1768.4,1280.74 1771.74,1286.74 1775.5,1292.5C 1774.83,1292.83 1774.17,1293.17 1773.5,1293.5C 1770.34,1287.17 1766.67,1281.17 1762.5,1275.5C 1754.68,1261.02 1745.68,1247.35 1735.5,1234.5 Z"/></g>
<g><path style="opacity:1" fill="#b4b4b5" d="M 1785.5,1311.5 C 1782.42,1305.01 1779.09,1298.68 1775.5,1292.5C 1771.74,1286.74 1768.4,1280.74 1765.5,1274.5C 1775.05,1273.52 1784.38,1271.52 1793.5,1268.5C 1795.73,1269.22 1797.56,1270.55 1799,1272.5C 1799.67,1276.83 1799.67,1281.17 1799,1285.5C 1796.7,1294.44 1793.03,1302.77 1788,1310.5C 1787.33,1311.25 1786.5,1311.59 1785.5,1311.5 Z"/></g>
<g><path style="opacity:1" fill="#b4b4b5" d="M 1762.5,1275.5 C 1766.67,1281.17 1770.34,1287.17 1773.5,1293.5C 1777.1,1300.37 1780.44,1307.37 1783.5,1314.5C 1783.65,1315.55 1783.48,1316.55 1783,1317.5C 1761.46,1343.86 1733.62,1358.52 1699.5,1361.5C 1693.34,1339.01 1686.67,1316.68 1679.5,1294.5C 1678.49,1291.16 1677.49,1287.82 1676.5,1284.5C 1705.07,1281.96 1733.74,1278.96 1762.5,1275.5 Z"/></g>
<g><path style="opacity:1" fill="#b4b4b4" d="M 1673.5,1284.5 C 1674.97,1288.25 1676.64,1291.92 1678.5,1295.5C 1684.8,1316.7 1690.47,1338.03 1695.5,1359.5C 1692.74,1360.82 1689.58,1361.48 1686,1361.5C 1665.53,1360.64 1645.7,1356.64 1626.5,1349.5C 1624.73,1350.09 1623.07,1350.92 1621.5,1352C 1597.11,1371.6 1578.61,1395.77 1566,1424.5C 1548.87,1467.55 1542.53,1512.21 1547,1558.5C 1549.22,1582.39 1556.22,1604.72 1568,1625.5C 1575.74,1633.3 1581.74,1642.3 1586,1652.5C 1603.14,1700.48 1599.47,1746.82 1575,1791.5C 1573.4,1799.29 1575.07,1806.29 1580,1812.5C 1589.64,1822.89 1600.47,1831.72 1612.5,1839C 1648.37,1858.1 1684.7,1876.43 1721.5,1894C 1734.34,1900.92 1746.67,1908.58 1758.5,1917C 1779.95,1935.42 1778.28,1951.42 1753.5,1965C 1727.19,1977.5 1699.52,1985.16 1670.5,1988C 1608.47,1994.14 1546.47,1993.81 1484.5,1987C 1475.8,1986.67 1472.63,1982.17 1475,1973.5C 1479.05,1954.69 1484.71,1936.36 1492,1918.5C 1507.39,1880.99 1522.39,1843.33 1537,1805.5C 1540.41,1795.28 1543.41,1784.95 1546,1774.5C 1555.34,1724.98 1554.34,1675.65 1543,1626.5C 1529.9,1584.47 1524.57,1541.47 1527,1497.5C 1527.4,1456.92 1536.73,1418.58 1555,1382.5C 1564.81,1364.35 1579.31,1351.52 1598.5,1344C 1607.31,1341.73 1615.98,1339.06 1624.5,1336C 1626.53,1334.6 1626.86,1332.94 1625.5,1331C 1619.69,1327.84 1613.52,1325.67 1607,1324.5C 1562.22,1317.38 1517.38,1310.55 1472.5,1304C 1463.55,1302.68 1454.89,1300.35 1446.5,1297C 1522.17,1293.13 1597.84,1288.96 1673.5,1284.5 Z"/></g>
<g><path style="opacity:0.978" fill="#a4a4a5" d="M 1783.5,1314.5 C 1788.23,1321.96 1791.9,1329.96 1794.5,1338.5C 1768.45,1360.18 1738.45,1373.18 1704.5,1377.5C 1702.85,1372.25 1701.18,1366.92 1699.5,1361.5C 1733.62,1358.52 1761.46,1343.86 1783,1317.5C 1783.48,1316.55 1783.65,1315.55 1783.5,1314.5 Z"/></g>
<g><path style="opacity:0.996" fill="#b4b4b5" d="M 1363.5,1746.5 C 1365.27,1751.4 1367.1,1756.4 1369,1761.5C 1371.68,1766.52 1374.02,1771.52 1376,1776.5C 1374.17,1775.33 1372.33,1774.17 1370.5,1773C 1360.18,1767.7 1352.68,1770.2 1348,1780.5C 1347.67,1790.9 1347.5,1801.23 1347.5,1811.5C 1342.21,1813.71 1336.88,1815.71 1331.5,1817.5C 1316.17,1817.89 1300.84,1818.22 1285.5,1818.5C 1276.81,1818.5 1268.47,1817.83 1260.5,1816.5C 1263,1794.14 1265.84,1771.8 1269,1749.5C 1269.38,1748.94 1269.88,1748.61 1270.5,1748.5C 1301.5,1747.85 1332.5,1747.18 1363.5,1746.5 Z"/></g>
<g><path style="opacity:0.995" fill="#b4b4b4" d="M 1625.5,1746.5 C 1672.17,1747.19 1718.84,1748.19 1765.5,1749.5C 1766.27,1750.26 1766.77,1751.26 1767,1752.5C 1770.08,1775.53 1773.24,1798.53 1776.5,1821.5C 1737.5,1820.45 1698.5,1819.45 1659.5,1818.5C 1652.42,1816.79 1646.09,1813.79 1640.5,1809.5C 1642.15,1801.9 1642.65,1794.24 1642,1786.5C 1641.95,1780.67 1639.78,1775.84 1635.5,1772C 1627.26,1769.52 1619.76,1771.02 1613,1776.5C 1617.91,1766.99 1622.08,1756.99 1625.5,1746.5 Z"/></g>
<g><path style="opacity:0.995" fill="#b4b4b5" d="M 1258.5,1748.5 C 1254.95,1772.22 1251.29,1795.89 1247.5,1819.5C 1192.8,1820.04 1138.13,1821.71 1083.5,1824.5C 1087.68,1806.44 1092.18,1788.44 1097,1770.5C 1098.24,1764.84 1100.07,1759.51 1102.5,1754.5C 1154.51,1752.35 1206.51,1750.35 1258.5,1748.5 Z"/></g>
<g><path style="opacity:0.996" fill="#b4b4b4" d="M 1777.5,1749.5 C 1829.85,1751.45 1882.18,1753.78 1934.5,1756.5C 1941.46,1780.33 1947.79,1804.33 1953.5,1828.5C 1898.5,1826.09 1843.5,1823.76 1788.5,1821.5C 1784.83,1797.51 1781.17,1773.51 1777.5,1749.5 Z"/></g>
<g><path style="opacity:0.996" fill="#b4b4b5" d="M 1089.5,1755.5 C 1083.48,1778.9 1077.15,1802.23 1070.5,1825.5C 1026.48,1826.96 982.475,1828.96 938.5,1831.5C 945.7,1809.43 953.2,1787.43 961,1765.5C 961.377,1764.06 962.21,1763.06 963.5,1762.5C 1005.46,1759.59 1047.46,1757.25 1089.5,1755.5 Z"/></g>
<g><path style="opacity:0.995" fill="#b4b4b4" d="M 1946.5,1757.5 C 1988.86,1759.35 2031.2,1761.69 2073.5,1764.5C 2083.14,1788.76 2091.81,1813.43 2099.5,1838.5C 2055.18,1835.38 2010.84,1832.38 1966.5,1829.5C 1959.83,1805.5 1953.17,1781.5 1946.5,1757.5 Z"/></g>
<g><path style="opacity:0.995" fill="#b4b4b5" d="M 949.5,1763.5 C 940.97,1786.42 932.636,1809.42 924.5,1832.5C 892.514,1834.99 860.514,1837.32 828.5,1839.5C 826.304,1839.5 824.304,1839.16 822.5,1838.5C 828.139,1815.59 835.139,1793.26 843.5,1771.5C 878.804,1768.45 914.137,1765.79 949.5,1763.5 Z"/></g>
<g><path style="opacity:0.996" fill="#b4b4b5" d="M 2087.5,1766.5 C 2122.94,1768.84 2158.27,1771.84 2193.5,1775.5C 2195.65,1778.4 2197.15,1781.74 2198,1785.5C 2204.33,1806.47 2210.49,1827.47 2216.5,1848.5C 2182.47,1845.69 2148.47,1842.69 2114.5,1839.5C 2105.26,1815.34 2096.26,1791.01 2087.5,1766.5 Z"/></g>
<g><path style="opacity:0.995" fill="#b4b4b5" d="M 828.5,1772.5 C 821.699,1795.57 814.699,1818.57 807.5,1841.5C 776.14,1844.06 744.806,1847.06 713.5,1850.5C 711.631,1850.49 709.964,1850.16 708.5,1849.5C 715.731,1826.8 723.731,1804.47 732.5,1782.5C 764.529,1779 796.529,1775.66 828.5,1772.5 Z"/></g>
<g><path style="opacity:0.996" fill="#b4b4b5" d="M 2208.5,1776.5 C 2240.52,1779.61 2272.52,1782.95 2304.5,1786.5C 2314.46,1811.02 2323.46,1836.02 2331.5,1861.5C 2298.19,1857.62 2264.86,1853.95 2231.5,1850.5C 2223.46,1826.04 2215.79,1801.38 2208.5,1776.5 Z"/></g>
<g><path style="opacity:0.996" fill="#b4b4b5" d="M 716.5,1784.5 C 708.507,1807.16 700.507,1829.82 692.5,1852.5C 671.115,1855.08 649.782,1857.75 628.5,1860.5C 635.698,1840.07 643.198,1819.74 651,1799.5C 651.86,1796.37 653.36,1793.7 655.5,1791.5C 675.78,1788.76 696.113,1786.42 716.5,1784.5 Z"/></g>
<g><path style="opacity:0.996" fill="#b4b4b5" d="M 2320.5,1788.5 C 2341.22,1790.84 2361.89,1793.51 2382.5,1796.5C 2393.45,1822 2403.45,1848 2412.5,1874.5C 2390.83,1871.17 2369.17,1867.83 2347.5,1864.5C 2338.5,1839.17 2329.5,1813.83 2320.5,1788.5 Z"/></g>
<g><path style="opacity:0.999" fill="#b4b4b4" d="M 638.5,1793.5 C 629.736,1816.68 620.736,1839.68 611.5,1862.5C 551.717,1869.8 492.717,1880.96 434.5,1896C 409.933,1902.12 386.933,1911.79 365.5,1925C 349.577,1937.63 349.577,1950.3 365.5,1963C 370.203,1966.35 375.203,1969.18 380.5,1971.5C 384.51,1974.13 388.844,1976.29 393.5,1978C 429.313,1991.12 465.98,2001.12 503.5,2008C 580.796,2021.41 658.462,2032.07 736.5,2040C 951.708,2059.67 1167.37,2069.84 1383.5,2070.5C 1393.99,2071.49 1404.65,2071.83 1415.5,2071.5C 1478.86,2074.41 1542.19,2074.08 1605.5,2070.5C 1614.35,2070.83 1623.02,2070.49 1631.5,2069.5C 1732.23,2068.24 1832.9,2065.07 1933.5,2060C 2071.32,2053.29 2208.65,2041.29 2345.5,2024C 2403.85,2015.99 2461.52,2004.66 2518.5,1990C 2534.45,1984.85 2550.12,1979.02 2565.5,1972.5C 2574.45,1968.43 2582.29,1962.77 2589,1955.5C 2594.47,1948.39 2594.81,1941.06 2590,1933.5C 2581.55,1924.72 2571.71,1917.88 2560.5,1913C 2517.99,1896.93 2474.32,1885.1 2429.5,1877.5C 2419.22,1851.27 2409.22,1824.94 2399.5,1798.5C 2494.36,1810.98 2588.03,1829.48 2680.5,1854C 2717.55,1864.13 2753.22,1877.79 2787.5,1895C 2800.16,1901.91 2811.66,1910.41 2822,1920.5C 2834.5,1933.5 2837.67,1948.5 2831.5,1965.5C 2820.83,1981 2807.17,1993.16 2790.5,2002C 2761.45,2017.46 2731.12,2029.8 2699.5,2039C 2649.99,2053.54 2599.99,2065.88 2549.5,2076C 2393.19,2103.61 2235.86,2122.94 2077.5,2134C 1727.32,2157.39 1376.98,2159.73 1026.5,2141C 851.218,2131.42 676.885,2113.09 503.5,2086C 439.802,2075.19 376.802,2061.19 314.5,2044C 280.262,2034.37 247.262,2021.71 215.5,2006C 196.252,1996.24 180.252,1982.74 167.5,1965.5C 162.119,1951.16 163.952,1937.83 173,1925.5C 184.6,1912.46 198.1,1901.96 213.5,1894C 255.144,1873.78 298.477,1858.12 343.5,1847C 440.774,1823.31 539.107,1805.48 638.5,1793.5 Z"/></g>
<g><path style="opacity:1" fill="#7f7f80" d="M 1260.5,1816.5 C 1268.47,1817.83 1276.81,1818.5 1285.5,1818.5C 1300.84,1818.22 1316.17,1817.89 1331.5,1817.5C 1305.67,1829.08 1280.34,1841.75 1255.5,1855.5C 1256.55,1842.29 1258.22,1829.29 1260.5,1816.5 Z"/></g>
<g><path style="opacity:1" fill="#7f7f7f" d="M 1659.5,1818.5 C 1698.5,1819.45 1737.5,1820.45 1776.5,1821.5C 1779.43,1843.13 1782.09,1864.8 1784.5,1886.5C 1784.63,1887.24 1784.46,1887.91 1784,1888.5C 1775.1,1881.63 1765.93,1875.13 1756.5,1869C 1725.27,1850.05 1692.94,1833.22 1659.5,1818.5 Z"/></g>
<g><path style="opacity:1" fill="#7f7f7f" d="M 1247.5,1819.5 C 1245.44,1834.58 1243.11,1849.58 1240.5,1864.5C 1217.74,1877.04 1197.41,1892.71 1179.5,1911.5C 1171.51,1910.83 1163.34,1910.5 1155,1910.5C 1123.83,1911.11 1092.66,1911.77 1061.5,1912.5C 1068.22,1882.97 1075.55,1853.64 1083.5,1824.5C 1138.13,1821.71 1192.8,1820.04 1247.5,1819.5 Z"/></g>
<g><path style="opacity:1" fill="#7e7f7f" d="M 1788.5,1821.5 C 1843.5,1823.76 1898.5,1826.09 1953.5,1828.5C 1960.81,1857.07 1968.14,1885.74 1975.5,1914.5C 1971,1914.83 1966.5,1915.17 1962,1915.5C 1918.17,1913.99 1874.34,1912.66 1830.5,1911.5C 1823.66,1911.5 1816.99,1911.83 1810.5,1912.5C 1807.53,1908.86 1804.19,1905.53 1800.5,1902.5C 1796.42,1875.51 1792.42,1848.51 1788.5,1821.5 Z"/></g>
<g><path style="opacity:1" fill="#7f7f7f" d="M 1070.5,1825.5 C 1062.4,1854.63 1054.4,1883.8 1046.5,1913C 1005.49,1914.43 964.494,1915.93 923.5,1917.5C 918.706,1918.1 914.373,1917.43 910.5,1915.5C 919.254,1887.24 928.587,1859.24 938.5,1831.5C 982.475,1828.96 1026.48,1826.96 1070.5,1825.5 Z"/></g>
<g><path style="opacity:1" fill="#7e7f7f" d="M 1966.5,1829.5 C 2010.84,1832.38 2055.18,1835.38 2099.5,1838.5C 2109.81,1866.09 2119.14,1894.09 2127.5,1922.5C 2081.5,1920.35 2035.5,1918.35 1989.5,1916.5C 1982.31,1887.41 1974.64,1858.41 1966.5,1829.5 Z"/></g>
<g><path style="opacity:1" fill="#7f7f7f" d="M 924.5,1832.5 C 914.072,1861.28 903.738,1890.12 893.5,1919C 861.814,1920.2 830.147,1921.7 798.5,1923.5C 805.747,1894.83 813.747,1866.5 822.5,1838.5C 824.304,1839.16 826.304,1839.5 828.5,1839.5C 860.514,1837.32 892.514,1834.99 924.5,1832.5 Z"/></g>
<g><path style="opacity:1" fill="#7e7f7f" d="M 2114.5,1839.5 C 2148.47,1842.69 2182.47,1845.69 2216.5,1848.5C 2224.61,1875.28 2231.95,1902.28 2238.5,1929.5C 2206.84,1927.41 2175.17,1925.25 2143.5,1923C 2133.33,1895.34 2123.67,1867.5 2114.5,1839.5 Z"/></g>
<g><path style="opacity:1" fill="#7f7f7f" d="M 807.5,1841.5 C 799.032,1869.04 791.032,1896.71 783.5,1924.5C 749.501,1926.52 715.501,1928.52 681.5,1930.5C 689.527,1903.09 698.527,1876.09 708.5,1849.5C 709.964,1850.16 711.631,1850.49 713.5,1850.5C 744.806,1847.06 776.14,1844.06 807.5,1841.5 Z"/></g>
<g><path style="opacity:1" fill="#7e7f7f" d="M 2231.5,1850.5 C 2264.86,1853.95 2298.19,1857.62 2331.5,1861.5C 2340.81,1886.78 2349.15,1912.44 2356.5,1938.5C 2322.37,1936.38 2288.37,1933.38 2254.5,1929.5C 2246.62,1903.2 2238.95,1876.86 2231.5,1850.5 Z"/></g>
<g><path style="opacity:1" fill="#7e7f7f" d="M 692.5,1852.5 C 682.674,1878.81 673.341,1905.31 664.5,1932C 643.483,1933.71 622.483,1935.54 601.5,1937.5C 609.649,1911.54 618.649,1885.87 628.5,1860.5C 649.782,1857.75 671.115,1855.08 692.5,1852.5 Z"/></g>
<g><path style="opacity:1" fill="#7f7f7f" d="M 611.5,1862.5 C 602.303,1888.09 593.303,1913.76 584.5,1939.5C 525.783,1944.42 467.45,1952.25 409.5,1963C 399.488,1965.08 389.822,1967.91 380.5,1971.5C 375.203,1969.18 370.203,1966.35 365.5,1963C 349.577,1950.3 349.577,1937.63 365.5,1925C 386.933,1911.79 409.933,1902.12 434.5,1896C 492.717,1880.96 551.717,1869.8 611.5,1862.5 Z"/></g>
<g><path style="opacity:1" fill="#7e7f7f" d="M 2347.5,1864.5 C 2369.17,1867.83 2390.83,1871.17 2412.5,1874.5C 2421.46,1898.54 2430.13,1922.71 2438.5,1947C 2416.85,1945.09 2395.18,1942.92 2373.5,1940.5C 2365.43,1914.95 2356.76,1889.62 2347.5,1864.5 Z"/></g>
<g><path style="opacity:1" fill="#a3a3a5" d="M 1240.5,1864.5 C 1234.39,1908.84 1228.39,1953.18 1222.5,1997.5C 1204.65,1993.24 1188.32,1985.74 1173.5,1975C 1170.6,1972.27 1167.93,1969.44 1165.5,1966.5C 1161.43,1957.15 1160.6,1947.49 1163,1937.5C 1166.75,1927.65 1172.25,1918.99 1179.5,1911.5C 1197.41,1892.71 1217.74,1877.04 1240.5,1864.5 Z"/></g>
<g><path style="opacity:1" fill="#7f7f7f" d="M 2429.5,1877.5 C 2474.32,1885.1 2517.99,1896.93 2560.5,1913C 2571.71,1917.88 2581.55,1924.72 2590,1933.5C 2594.81,1941.06 2594.47,1948.39 2589,1955.5C 2582.29,1962.77 2574.45,1968.43 2565.5,1972.5C 2565.12,1971.07 2564.12,1970.24 2562.5,1970C 2553.57,1967.41 2544.57,1965.08 2535.5,1963C 2508.87,1958.17 2482.2,1953.67 2455.5,1949.5C 2446.82,1925.48 2438.15,1901.48 2429.5,1877.5 Z"/></g>
<g><path style="opacity:1" fill="#a3a3a5" d="M 1800.5,1902.5 C 1804.19,1905.53 1807.53,1908.86 1810.5,1912.5C 1814.89,1917.4 1818.72,1922.73 1822,1928.5C 1829.84,1943.01 1829.34,1957.01 1820.5,1970.5C 1817.47,1973.2 1814.47,1975.86 1811.5,1978.5C 1807.29,1953.39 1803.63,1928.06 1800.5,1902.5 Z"/></g>
<g><path style="opacity:1" fill="#6c8fc7" d="M 910.5,1915.5 C 914.373,1917.43 918.706,1918.1 923.5,1917.5C 919.03,1918.49 914.363,1918.82 909.5,1918.5C 909.263,1917.21 909.596,1916.21 910.5,1915.5 Z"/></g>
<g><path style="opacity:0.999" fill="#919191" d="M 167.5,1965.5 C 180.252,1982.74 196.252,1996.24 215.5,2006C 247.262,2021.71 280.262,2034.37 314.5,2044C 376.802,2061.19 439.802,2075.19 503.5,2086C 676.885,2113.09 851.218,2131.42 1026.5,2141C 1376.98,2159.73 1727.32,2157.39 2077.5,2134C 2235.86,2122.94 2393.19,2103.61 2549.5,2076C 2599.99,2065.88 2649.99,2053.54 2699.5,2039C 2731.12,2029.8 2761.45,2017.46 2790.5,2002C 2807.17,1993.16 2820.83,1981 2831.5,1965.5C 2835.28,1975.42 2835.45,1985.42 2832,1995.5C 2826.74,2004.92 2819.91,2012.92 2811.5,2019.5C 2793.78,2032.03 2774.78,2042.53 2754.5,2051C 2718.93,2064.98 2682.6,2076.64 2645.5,2086C 2546.57,2109.45 2446.57,2127.12 2345.5,2139C 2191.33,2157.51 2036.66,2170.18 1881.5,2177C 1612.13,2188.83 1342.8,2188.16 1073.5,2175C 900.713,2166.78 728.713,2150.44 557.5,2126C 466.97,2113.43 377.97,2094.1 290.5,2068C 265.163,2059.67 240.497,2049.67 216.5,2038C 205.268,2031.89 194.601,2025.06 184.5,2017.5C 180.87,2013.37 177.037,2009.37 173,2005.5C 163.952,1993.17 162.119,1979.84 167.5,1965.5 Z"/></g>
<g><path style="opacity:1" fill="#7e7f80" d="M 1165.5,1966.5 C 1167.93,1969.44 1170.6,1972.27 1173.5,1975C 1188.32,1985.74 1204.65,1993.24 1222.5,1997.5C 1220.49,2011.11 1218.65,2024.77 1217,2038.5C 1213.24,2036.37 1209.74,2033.87 1206.5,2031C 1187.4,2012.98 1173.74,1991.48 1165.5,1966.5 Z"/></g>
<g><path style="opacity:1" fill="#7e8083" d="M 1820.5,1970.5 C 1818.7,1976.09 1815.87,1981.09 1812,1985.5C 1811.5,1983.19 1811.34,1980.86 1811.5,1978.5C 1814.47,1975.86 1817.47,1973.2 1820.5,1970.5 Z"/></g>
<g><path style="opacity:1" fill="#7f7f7f" d="M 1796.5,1986.5 C 1797.85,1992.31 1798.35,1998.31 1798,2004.5C 1785.68,2019.49 1771.51,2032.33 1755.5,2043C 1712.82,2056.45 1669.15,2064.95 1624.5,2068.5C 1617.97,2068.7 1611.64,2069.36 1605.5,2070.5C 1542.19,2074.08 1478.86,2074.41 1415.5,2071.5C 1410.33,2070.62 1405,2069.95 1399.5,2069.5C 1355.62,2066.75 1311.95,2061.92 1268.5,2055C 1254.56,2052.35 1240.9,2048.68 1227.5,2044C 1229.13,2043.51 1230.8,2043.34 1232.5,2043.5C 1233.67,2028.97 1235.34,2014.64 1237.5,2000.5C 1239.73,2002.2 1242.4,2003.36 1245.5,2004C 1257.83,2006.33 1270.17,2008.67 1282.5,2011C 1369.37,2023.62 1456.7,2028.29 1544.5,2025C 1608.65,2023.11 1672.32,2016.77 1735.5,2006C 1756.48,2001.4 1776.81,1994.9 1796.5,1986.5 Z"/></g>
<g><path style="opacity:0.998" fill="#7e7e7e" d="M 184.5,2017.5 C 194.601,2025.06 205.268,2031.89 216.5,2038C 240.497,2049.67 265.163,2059.67 290.5,2068C 377.97,2094.1 466.97,2113.43 557.5,2126C 728.713,2150.44 900.713,2166.78 1073.5,2175C 1342.8,2188.16 1612.13,2188.83 1881.5,2177C 2036.66,2170.18 2191.33,2157.51 2345.5,2139C 2446.57,2127.12 2546.57,2109.45 2645.5,2086C 2682.6,2076.64 2718.93,2064.98 2754.5,2051C 2774.78,2042.53 2793.78,2032.03 2811.5,2019.5C 2811.67,2098.17 2811.5,2176.83 2811,2255.5C 2769.64,2275.73 2727.14,2293.23 2683.5,2308C 2559.22,2348.4 2432.55,2379.07 2303.5,2400C 2095.47,2433.24 1886.14,2452.24 1675.5,2457C 1413.4,2464.66 1152.07,2454 891.5,2425C 735.872,2407.67 582.205,2379.67 430.5,2341C 363.401,2323.41 297.401,2302.41 232.5,2278C 215.235,2271.03 198.235,2263.53 181.5,2255.5C 180.5,2176.17 180.167,2096.84 180.5,2017.5C 181.833,2017.5 183.167,2017.5 184.5,2017.5 Z"/></g>
<g><path style="opacity:1" fill="#7795c4" d="M 1624.5,2068.5 C 1626.61,2069.47 1628.94,2069.8 1631.5,2069.5C 1623.02,2070.49 1614.35,2070.83 1605.5,2070.5C 1611.64,2069.36 1617.97,2068.7 1624.5,2068.5 Z"/></g>
<g><path style="opacity:1" fill="#8a9dba" d="M 1399.5,2069.5 C 1405,2069.95 1410.33,2070.62 1415.5,2071.5C 1404.65,2071.83 1393.99,2071.49 1383.5,2070.5C 1389.03,2070.82 1394.36,2070.49 1399.5,2069.5 Z"/></g>
</svg>
