<?xml version="1.0" encoding="UTF-8"?>
<!DOCTYPE svg PUBLIC "-//W3C//DTD SVG 1.1//EN" "http://www.w3.org/Graphics/SVG/1.1/DTD/svg11.dtd">
<svg xmlns="http://www.w3.org/2000/svg" version="1.1" width="3000px" height="3000px" style="shape-rendering:geometricPrecision; text-rendering:geometricPrecision; image-rendering:optimizeQuality; fill-rule:evenodd; clip-rule:evenodd" xmlns:xlink="http://www.w3.org/1999/xlink">
<g><path style="opacity:0.999" fill="#b3b2b2" d="M 1602.5,772.5 C 1498.19,749.609 1395.19,754.442 1293.5,787C 1287.22,789.295 1285.89,793.295 1289.5,799C 1291.9,800.701 1294.57,801.534 1297.5,801.5C 1380.99,779.289 1465.66,773.456 1551.5,784C 1567.14,786.52 1582.8,788.853 1598.5,791C 1599.42,791.278 1600.08,791.778 1600.5,792.5C 1594.49,833.82 1580.15,871.82 1557.5,906.5C 1563.23,892.486 1568.06,878.153 1572,863.5C 1573.72,858.615 1572.22,855.449 1567.5,854C 1562.56,852.631 1558.4,853.797 1555,857.5C 1549.32,873.19 1542.32,888.19 1534,902.5C 1482.84,869.845 1427.68,846.345 1368.5,832C 1346.33,827.282 1324,825.948 1301.5,828C 1297.34,831.199 1297.67,833.865 1302.5,836C 1323.58,842.069 1344.92,847.069 1366.5,851C 1423.12,866.245 1475.45,890.411 1523.5,923.5C 1489.56,979.941 1443.73,1023.94 1386,1055.5C 1384.64,1060.27 1386.14,1063.77 1390.5,1066C 1393.59,1066.65 1396.59,1066.32 1399.5,1065C 1458.54,1037.46 1505.54,996.291 1540.5,941.5C 1657.04,1246.26 1773.88,1550.92 1891,1855.5C 1914.48,1915.6 1934.14,1976.93 1950,2039.5C 1965.21,2100 1970.38,2161.34 1965.5,2223.5C 1962.24,2224.92 1959.74,2227.25 1958,2230.5C 1955.34,2255.47 1953,2280.47 1951,2305.5C 1946.75,2336.59 1939.41,2366.92 1929,2396.5C 1925.13,2408.41 1918.63,2418.58 1909.5,2427C 1904.04,2429.2 1898.7,2431.7 1893.5,2434.5C 1872.89,2416.45 1848.89,2405.62 1821.5,2402C 1747.15,2393.78 1684.31,2416.61 1633,2470.5C 1623.89,2481.71 1616.56,2494.04 1611,2507.5C 1609.68,2510.41 1609.35,2513.41 1610,2516.5C 1612.06,2517.59 1614.23,2517.76 1616.5,2517C 1634.9,2495.26 1655.24,2475.6 1677.5,2458C 1724.02,2425.47 1774.69,2417.14 1829.5,2433C 1846.07,2436.56 1862.41,2440.89 1878.5,2446C 1883.15,2446.88 1887.48,2446.05 1891.5,2443.5C 1895.19,2446.84 1899.53,2448.17 1904.5,2447.5C 1920.69,2446.49 1933.19,2439.15 1942,2425.5C 1956.54,2400.74 1967.54,2374.41 1975,2346.5C 1985.36,2312.68 1987.86,2278.35 1982.5,2243.5C 2024.17,2241.54 2065.84,2239.37 2107.5,2237C 2170.22,2233.08 2232.89,2233.75 2295.5,2239C 2365.04,2244.8 2430.71,2263.8 2492.5,2296C 2573.31,2336.75 2612.81,2402.58 2611,2493.5C 2603.38,2574.3 2565.21,2635.8 2496.5,2678C 2442.19,2706.33 2384.53,2723.66 2323.5,2730C 2301.55,2732.53 2279.55,2734.53 2257.5,2736C 2199.79,2738.59 2142.12,2741.92 2084.5,2746C 2059.8,2747.86 2035.47,2751.86 2011.5,2758C 1992.49,2763.5 1975.16,2772.17 1959.5,2784C 1951.17,2791 1942.83,2798 1934.5,2805C 1919.44,2820.73 1903.77,2835.73 1887.5,2850C 1858.53,2875.1 1824.86,2886.43 1786.5,2884C 1762.05,2879.88 1745.88,2866.05 1738,2842.5C 1731.62,2817.03 1732.29,2791.69 1740,2766.5C 1763.58,2690.59 1809.75,2632.76 1878.5,2593C 1928.55,2565.07 1982.22,2551.74 2039.5,2553C 2081.52,2556.45 2123.52,2560.11 2165.5,2564C 2186.17,2564.67 2206.83,2564.67 2227.5,2564C 2248.2,2562.82 2268.2,2558.49 2287.5,2551C 2303.31,2544.52 2316.14,2534.35 2326,2520.5C 2332.44,2508.61 2330.94,2497.77 2321.5,2488C 2316.77,2485.65 2311.77,2484.31 2306.5,2484C 2192.91,2476.48 2079.25,2474.81 1965.5,2479C 1948.49,2479.84 1931.49,2480.84 1914.5,2482C 1903.58,2492.25 1892.58,2502.58 1881.5,2513C 1872.05,2520.39 1861.72,2526.22 1850.5,2530.5C 1856.57,2517.78 1857.07,2504.78 1852,2491.5C 1845.49,2476.99 1835.99,2464.83 1823.5,2455C 1819.09,2451.66 1814.92,2451.83 1811,2455.5C 1810.33,2456.5 1810.33,2457.5 1811,2458.5C 1821.08,2466.91 1828.42,2477.24 1833,2489.5C 1834.03,2494.1 1834.53,2498.77 1834.5,2503.5C 1833.7,2512.83 1833.54,2522.16 1834,2531.5C 1835.25,2533.19 1836.75,2534.53 1838.5,2535.5C 1810,2543.12 1781,2545.62 1751.5,2543C 1740.15,2541.81 1728.82,2540.48 1717.5,2539C 1694.56,2534.68 1671.56,2530.68 1648.5,2527C 1633.58,2524.99 1619.25,2526.99 1605.5,2533C 1590.28,2542.97 1573.95,2550.63 1556.5,2556C 1537.09,2560.4 1517.42,2562.56 1497.5,2562.5C 1517.96,2507.96 1536.13,2452.62 1552,2396.5C 1573.52,2317.84 1580.86,2237.84 1574,2156.5C 1571.56,2134.18 1569.22,2111.84 1567,2089.5C 1564.46,2049.93 1570.13,2011.59 1584,1974.5C 1598.72,1938.05 1613.72,1901.72 1629,1865.5C 1639.93,1838.09 1647.27,1809.76 1651,1780.5C 1652.74,1760.46 1650.91,1740.8 1645.5,1721.5C 1641.22,1717.63 1637.06,1717.63 1633,1721.5C 1635.37,1757.55 1631.37,1792.89 1621,1827.5C 1617,1838.83 1613,1850.17 1609,1861.5C 1594.72,1895.05 1580.72,1928.72 1567,1962.5C 1556.36,1992.05 1549.03,2022.38 1545,2053.5C 1544.53,2093.01 1547.2,2132.35 1553,2171.5C 1557.59,2232.21 1552.92,2292.21 1539,2351.5C 1533.55,2375.75 1527.22,2399.75 1520,2423.5C 1503.79,2472.79 1486.79,2521.79 1469,2570.5C 1467.58,2577.32 1470.08,2581.99 1476.5,2584.5C 1448.67,2635.16 1408.67,2672.99 1356.5,2698C 1340.75,2704.53 1324.41,2708.7 1307.5,2710.5C 1312.49,2703.19 1316.99,2695.52 1321,2687.5C 1325.67,2680.83 1330.33,2674.17 1335,2667.5C 1335.98,2662.14 1333.65,2659.47 1328,2659.5C 1309.35,2668.46 1298.18,2683.13 1294.5,2703.5C 1294.67,2704.83 1294.83,2706.17 1295,2707.5C 1296.38,2708.71 1297.54,2710.04 1298.5,2711.5C 1279.85,2713.5 1262.19,2710.34 1245.5,2702C 1240.97,2698.64 1236.97,2694.8 1233.5,2690.5C 1242.22,2669.57 1256.22,2653.07 1275.5,2641C 1283.71,2636.73 1292.04,2632.73 1300.5,2629C 1303.98,2623.29 1302.31,2620.12 1295.5,2619.5C 1263.98,2625.7 1241.65,2643.37 1228.5,2672.5C 1228.65,2657.53 1231.82,2643.2 1238,2629.5C 1251.19,2603.11 1264.36,2576.78 1277.5,2550.5C 1281.75,2550.82 1285.75,2549.99 1289.5,2548C 1314.38,2495.66 1328.21,2440.49 1331,2382.5C 1334.13,2315.23 1331.13,2248.23 1322,2181.5C 1309.44,2093.36 1292.77,2006.03 1272,1919.5C 1266.13,1896.22 1258.46,1873.56 1249,1851.5C 1247.7,1847.18 1245.03,1845.85 1241,1847.5C 1240.8,1859.2 1241.47,1870.87 1243,1882.5C 1251.05,1926.8 1260.38,1970.8 1271,2014.5C 1288.92,2099.28 1300.26,2184.95 1305,2271.5C 1308.74,2362.76 1297.74,2452.09 1272,2539.5C 1271.26,2542.59 1271.43,2545.59 1272.5,2548.5C 1204.01,2566.87 1134.67,2570.54 1064.5,2559.5C 1067.11,2434.57 1074.28,2309.9 1086,2185.5C 1094.51,2111.52 1102.85,2037.52 1111,1963.5C 1113.33,1939.2 1115.16,1914.87 1116.5,1890.5C 1112.8,1889.68 1110.47,1891.01 1109.5,1894.5C 1092.25,1968.32 1080.09,2042.98 1073,2118.5C 1058.63,2253.33 1049.13,2388.49 1044.5,2524C 1044.57,2539.18 1045.07,2554.35 1046,2569.5C 1050.89,2573.17 1056.05,2573.5 1061.5,2570.5C 1060.33,2595.18 1058.83,2619.85 1057,2644.5C 1056.05,2673.32 1048.71,2700.32 1035,2725.5C 1029.38,2734.62 1022.21,2742.29 1013.5,2748.5C 1012.83,2726 1012.17,2703.33 1011.5,2680.5C 1007.93,2679.11 1004.6,2679.61 1001.5,2682C 997.017,2692.68 995.017,2703.85 995.5,2715.5C 994.944,2729.73 997.944,2743.07 1004.5,2755.5C 985.931,2765.85 966.597,2767.68 946.5,2761C 940.075,2758.13 934.409,2754.3 929.5,2749.5C 930.496,2749.59 931.329,2749.25 932,2748.5C 932.167,2746.33 932.333,2744.17 932.5,2742C 931.457,2728.18 931.291,2714.34 932,2700.5C 934.193,2688.08 936.526,2675.74 939,2663.5C 936.075,2660.94 933.075,2660.94 930,2663.5C 913.905,2687.31 911.072,2712.65 921.5,2739.5C 915.257,2731.38 910.424,2722.38 907,2712.5C 896.224,2681.84 886.057,2651 876.5,2620C 822.636,2626.98 768.636,2633.32 714.5,2639C 686.717,2641.46 659.051,2640.62 631.5,2636.5C 626.295,2613.33 631.128,2592.66 646,2574.5C 658.478,2562.93 671.145,2551.6 684,2540.5C 684.44,2536.59 682.607,2534.43 678.5,2534C 676.167,2533.33 673.833,2533.33 671.5,2534C 645.587,2547.58 626.087,2567.41 613,2593.5C 607.452,2607.65 608.952,2620.98 617.5,2633.5C 595.76,2629.76 576.427,2620.93 559.5,2607C 553.872,2602.21 549.205,2596.71 545.5,2590.5C 546.688,2589.64 547.855,2588.64 549,2587.5C 557.794,2564.71 572.961,2547.54 594.5,2536C 598.483,2532.59 598.15,2529.59 593.5,2527C 590.5,2526.33 587.5,2526.33 584.5,2527C 563.006,2535.99 547.673,2551.16 538.5,2572.5C 535.717,2552.56 542.05,2536.06 557.5,2523C 577.564,2508.3 599.897,2498.64 624.5,2494C 652.579,2487.05 680.912,2481.38 709.5,2477C 669.536,2453.05 634.37,2423.22 604,2387.5C 557.18,2327.26 537.847,2258.92 546,2182.5C 550.542,2139 559.208,2096.33 572,2054.5C 604.136,1958.76 635.469,1862.76 666,1766.5C 742.472,1518.95 805.305,1267.95 854.5,1013.5C 883.127,1050.99 919.793,1077.49 964.5,1093C 970.576,1096.07 976.576,1096.07 982.5,1093C 986.5,1089.67 986.5,1086.33 982.5,1083C 921.481,1049.98 873.648,1003.48 839,943.5C 835.785,941.539 832.285,940.373 828.5,940C 870.711,907.22 917.378,882.22 968.5,865C 1004.59,855.311 1040.59,845.311 1076.5,835C 1079.17,832.667 1079.17,830.333 1076.5,828C 1046.68,825.893 1017.35,828.893 988.5,837C 920.169,857.159 858.502,889.326 803.5,933.5C 777.434,890.575 765.101,843.908 766.5,793.5C 837.552,778.903 909.218,775.403 981.5,783C 1014.87,787.229 1047.87,793.395 1080.5,801.5C 1087.47,801.031 1090.64,797.364 1090,790.5C 1089.1,789.299 1087.93,788.465 1086.5,788C 981.383,753.762 875.05,749.262 767.5,774.5C 771.097,735.113 781.097,697.446 797.5,661.5C 780.342,569.894 768.842,477.561 763,384.5C 756.686,346.596 751.019,308.596 746,270.5C 743.252,245.664 744.252,220.997 749,196.5C 758.979,153.26 784.479,140.427 825.5,158C 840.579,164.765 854.912,172.765 868.5,182C 966.669,253.456 1058.34,333.122 1143.5,421C 1155.09,419.236 1166.76,417.569 1178.5,416C 1203.59,413.619 1228.59,414.285 1253.5,418C 1266.34,420.248 1279.01,422.915 1291.5,426C 1379.04,345.773 1473.37,274.773 1574.5,213C 1585.14,206.682 1596.47,202.015 1608.5,199C 1621.91,196.948 1634.24,199.615 1645.5,207C 1650.14,211.771 1653.64,217.271 1656,223.5C 1664.98,267.273 1664.31,310.94 1654,354.5C 1647.62,382.302 1639.62,409.635 1630,436.5C 1608.17,494 1586.33,551.5 1564.5,609C 1592.65,659.897 1605.31,714.397 1602.5,772.5 Z"/></g>
<g><path style="opacity:1" fill="#e1c7bc" d="M 835.5,300.5 C 844.214,299.284 852.214,301.117 859.5,306C 903.854,345.659 940.687,391.159 970,442.5C 974.164,451.675 972.664,459.842 965.5,467C 933.452,486.044 904.786,509.378 879.5,537C 865.503,545.245 855.003,542.079 848,527.5C 834.297,467.284 822.964,406.617 814,345.5C 810.173,329.665 814.006,316.165 825.5,305C 828.815,303.17 832.149,301.67 835.5,300.5 Z"/></g>
<g><path style="opacity:1" fill="#e1c7bc" d="M 1572.5,319.5 C 1586.54,319.707 1593.87,326.874 1594.5,341C 1594.41,344.888 1593.91,348.721 1593,352.5C 1574.14,414.557 1549.47,474.223 1519,531.5C 1512.52,540.247 1504.02,543.081 1493.5,540C 1469.78,516.937 1443.78,496.937 1415.5,480C 1407.97,471.971 1406.81,463.138 1412,453.5C 1464.92,407.981 1518.42,363.315 1572.5,319.5 Z"/></g>
<g><path style="opacity:1" fill="#3e393a" d="M 971.5,616.5 C 1013.07,613.194 1042.9,630.194 1061,667.5C 1063.06,672.62 1065.39,677.62 1068,682.5C 1069.67,690.148 1066.84,695.315 1059.5,698C 1054.49,699.125 1049.82,698.458 1045.5,696C 1039.88,684.587 1033.38,673.753 1026,663.5C 1013.27,649.138 997.272,642.138 978,642.5C 965.087,643.676 952.254,645.509 939.5,648C 934.833,648.667 930.167,648.667 925.5,648C 919.864,643.555 919.197,638.555 923.5,633C 938.499,624.168 954.499,618.668 971.5,616.5 Z"/></g>
<g><path style="opacity:1" fill="#3f3a3b" d="M 1383.5,616.5 C 1408.56,614.101 1431.9,619.267 1453.5,632C 1459.08,638.324 1458.08,643.657 1450.5,648C 1447.83,648.167 1445.17,648.333 1442.5,648.5C 1425.93,645.679 1409.27,643.679 1392.5,642.5C 1375.26,642.037 1361.42,648.704 1351,662.5C 1343.73,672.699 1337.23,683.366 1331.5,694.5C 1325.97,698.608 1319.97,699.441 1313.5,697C 1309.64,694.452 1308.14,690.952 1309,686.5C 1317.57,661.476 1332.74,641.642 1354.5,627C 1363.67,621.73 1373.34,618.23 1383.5,616.5 Z"/></g>
<g><path style="opacity:0.997" fill="#3f3a3b" d="M 766.5,793.5 C 746.757,797.852 727.09,802.686 707.5,808C 703.428,808.956 699.595,808.456 696,806.5C 693.709,803.165 694.209,800.332 697.5,798C 720.214,788.321 743.548,780.488 767.5,774.5C 875.05,749.262 981.383,753.762 1086.5,788C 1087.93,788.465 1089.1,789.299 1090,790.5C 1090.64,797.364 1087.47,801.031 1080.5,801.5C 1047.87,793.395 1014.87,787.229 981.5,783C 909.218,775.403 837.552,778.903 766.5,793.5 Z"/></g>
<g><path style="opacity:0.996" fill="#3f3a3b" d="M 1602.5,772.5 C 1628.82,778.662 1654.48,786.829 1679.5,797C 1684.66,800.764 1684.66,804.431 1679.5,808C 1676.17,808.667 1672.83,808.667 1669.5,808C 1646.8,801.409 1623.8,796.242 1600.5,792.5C 1600.08,791.778 1599.42,791.278 1598.5,791C 1582.8,788.853 1567.14,786.52 1551.5,784C 1465.66,773.456 1380.99,779.289 1297.5,801.5C 1294.57,801.534 1291.9,800.701 1289.5,799C 1285.89,793.295 1287.22,789.295 1293.5,787C 1395.19,754.442 1498.19,749.609 1602.5,772.5 Z"/></g>
<g><path style="opacity:1" fill="#3e393a" d="M 1144.5,778.5 C 1173.5,778.333 1202.5,778.5 1231.5,779C 1249.26,784.687 1257.43,796.854 1256,815.5C 1254.02,824.627 1249.19,831.793 1241.5,837C 1232.47,840.234 1223.3,843.067 1214,845.5C 1212.74,845.85 1212.41,846.517 1213,847.5C 1222.42,859.594 1232.59,871.094 1243.5,882C 1251.08,888.455 1259.74,892.788 1269.5,895C 1274.83,895.667 1280.17,895.667 1285.5,895C 1294.31,892.954 1302.81,890.12 1311,886.5C 1314.64,886.487 1317.64,887.82 1320,890.5C 1320.52,892.289 1320.19,893.956 1319,895.5C 1299.96,913.984 1277.46,919.817 1251.5,913C 1224.73,903.234 1203.57,886.401 1188,862.5C 1170.66,888.84 1146.83,906.34 1116.5,915C 1092.9,919.469 1073.4,912.636 1058,894.5C 1057.08,891.692 1057.91,889.525 1060.5,888C 1063.7,886.517 1067.04,886.183 1070.5,887C 1092.8,899.407 1114.13,898.073 1134.5,883C 1146.65,872.189 1157.32,860.189 1166.5,847C 1155.49,844.25 1144.83,840.584 1134.5,836C 1120.31,823.138 1117.81,808.304 1127,791.5C 1131.7,785.574 1137.53,781.241 1144.5,778.5 Z"/></g>
<g><path style="opacity:0.998" fill="#3e3a3b" d="M 854.5,1013.5 C 843.858,999.892 835.525,984.892 829.5,968.5C 826.625,960.706 824.458,952.706 823,944.5C 819.954,946.383 817.454,948.716 815.5,951.5C 807.374,957.787 799.374,964.287 791.5,971C 784.991,972.759 779.491,971.259 775,966.5C 774.245,963.697 774.578,961.03 776,958.5C 785.037,949.96 794.204,941.627 803.5,933.5C 858.502,889.326 920.169,857.159 988.5,837C 1017.35,828.893 1046.68,825.893 1076.5,828C 1079.17,830.333 1079.17,832.667 1076.5,835C 1040.59,845.311 1004.59,855.311 968.5,865C 917.378,882.22 870.711,907.22 828.5,940C 832.285,940.373 835.785,941.539 839,943.5C 873.648,1003.48 921.481,1049.98 982.5,1083C 986.5,1086.33 986.5,1089.67 982.5,1093C 976.576,1096.07 970.576,1096.07 964.5,1093C 919.793,1077.49 883.127,1050.99 854.5,1013.5 Z"/></g>
<g><path style="opacity:0.998" fill="#3f3a3b" d="M 1557.5,906.5 C 1556.87,909.937 1555.53,913.104 1553.5,916C 1571.24,929.069 1587.74,943.569 1603,959.5C 1603.94,965.441 1601.44,969.274 1595.5,971C 1592.5,971.667 1589.5,971.667 1586.5,971C 1572,959.833 1557.5,948.667 1543,937.5C 1541.91,938.693 1541.07,940.027 1540.5,941.5C 1505.54,996.291 1458.54,1037.46 1399.5,1065C 1396.59,1066.32 1393.59,1066.65 1390.5,1066C 1386.14,1063.77 1384.64,1060.27 1386,1055.5C 1443.73,1023.94 1489.56,979.941 1523.5,923.5C 1475.45,890.411 1423.12,866.245 1366.5,851C 1344.92,847.069 1323.58,842.069 1302.5,836C 1297.67,833.865 1297.34,831.199 1301.5,828C 1324,825.948 1346.33,827.282 1368.5,832C 1427.68,846.345 1482.84,869.845 1534,902.5C 1542.32,888.19 1549.32,873.19 1555,857.5C 1558.4,853.797 1562.56,852.631 1567.5,854C 1572.22,855.449 1573.72,858.615 1572,863.5C 1568.06,878.153 1563.23,892.486 1557.5,906.5 Z"/></g>
<g><path style="opacity:0.93" fill="#acacac" d="M 829.5,968.5 C 824.594,963.017 819.928,957.351 815.5,951.5C 817.454,948.716 819.954,946.383 823,944.5C 824.458,952.706 826.625,960.706 829.5,968.5 Z"/></g>
<g><path style="opacity:1" fill="#3f3a3b" d="M 701.5,1677.5 C 704.272,1677.22 706.772,1677.89 709,1679.5C 703.606,1735.9 707.939,1791.56 722,1846.5C 729.907,1875.78 738.907,1904.78 749,1933.5C 768.121,1984.2 786.455,2035.2 804,2086.5C 827.077,2166.69 842.744,2248.35 851,2331.5C 855.424,2389.83 859.757,2448.16 864,2506.5C 868.884,2545.83 882.05,2582 903.5,2615C 901.518,2622.24 896.684,2625.74 889,2625.5C 887.033,2625.46 885.199,2624.96 883.5,2624C 864.078,2600.49 850.745,2573.82 843.5,2544C 816.411,2543.65 791.411,2536.31 768.5,2522C 754.278,2514.45 741.778,2504.62 731,2492.5C 726.635,2486.6 723.468,2480.1 721.5,2473C 721.862,2471.11 723.029,2470.28 725,2470.5C 727.992,2471.25 730.826,2472.41 733.5,2474C 743.5,2481.33 753.5,2488.67 763.5,2496C 778.022,2506.4 794.022,2513.74 811.5,2518C 820.831,2520.36 830.164,2522.53 839.5,2524.5C 837.193,2509.57 835.36,2494.57 834,2479.5C 834.064,2399.13 828.731,2319.13 818,2239.5C 810.088,2180.44 796.421,2122.77 777,2066.5C 754.29,2009.37 732.957,1951.71 713,1893.5C 700.425,1855.81 692.758,1817.14 690,1777.5C 686.943,1744.55 689.943,1712.22 699,1680.5C 700.045,1679.63 700.878,1678.63 701.5,1677.5 Z"/></g>
<g><path style="opacity:1" fill="#3f3a3b" d="M 1497.5,2562.5 C 1495.3,2568.59 1492.8,2574.59 1490,2580.5C 1486.11,2583.74 1481.61,2585.07 1476.5,2584.5C 1470.08,2581.99 1467.58,2577.32 1469,2570.5C 1486.79,2521.79 1503.79,2472.79 1520,2423.5C 1527.22,2399.75 1533.55,2375.75 1539,2351.5C 1552.92,2292.21 1557.59,2232.21 1553,2171.5C 1547.2,2132.35 1544.53,2093.01 1545,2053.5C 1549.03,2022.38 1556.36,1992.05 1567,1962.5C 1580.72,1928.72 1594.72,1895.05 1609,1861.5C 1613,1850.17 1617,1838.83 1621,1827.5C 1631.37,1792.89 1635.37,1757.55 1633,1721.5C 1637.06,1717.63 1641.22,1717.63 1645.5,1721.5C 1650.91,1740.8 1652.74,1760.46 1651,1780.5C 1647.27,1809.76 1639.93,1838.09 1629,1865.5C 1613.72,1901.72 1598.72,1938.05 1584,1974.5C 1570.13,2011.59 1564.46,2049.93 1567,2089.5C 1569.22,2111.84 1571.56,2134.18 1574,2156.5C 1580.86,2237.84 1573.52,2317.84 1552,2396.5C 1536.13,2452.62 1517.96,2507.96 1497.5,2562.5 Z"/></g>
<g><path style="opacity:1" fill="#3f3a3b" d="M 1277.5,2550.5 C 1275.49,2550.61 1273.82,2549.94 1272.5,2548.5C 1271.43,2545.59 1271.26,2542.59 1272,2539.5C 1297.74,2452.09 1308.74,2362.76 1305,2271.5C 1300.26,2184.95 1288.92,2099.28 1271,2014.5C 1260.38,1970.8 1251.05,1926.8 1243,1882.5C 1241.47,1870.87 1240.8,1859.2 1241,1847.5C 1245.03,1845.85 1247.7,1847.18 1249,1851.5C 1258.46,1873.56 1266.13,1896.22 1272,1919.5C 1292.77,2006.03 1309.44,2093.36 1322,2181.5C 1331.13,2248.23 1334.13,2315.23 1331,2382.5C 1328.21,2440.49 1314.38,2495.66 1289.5,2548C 1285.75,2549.99 1281.75,2550.82 1277.5,2550.5 Z"/></g>
<g><path style="opacity:1" fill="#3f3a3b" d="M 1064.5,2559.5 C 1064.58,2563.53 1063.58,2567.2 1061.5,2570.5C 1056.05,2573.5 1050.89,2573.17 1046,2569.5C 1045.07,2554.35 1044.57,2539.18 1044.5,2524C 1049.13,2388.49 1058.63,2253.33 1073,2118.5C 1080.09,2042.98 1092.25,1968.32 1109.5,1894.5C 1110.47,1891.01 1112.8,1889.68 1116.5,1890.5C 1115.16,1914.87 1113.33,1939.2 1111,1963.5C 1102.85,2037.52 1094.51,2111.52 1086,2185.5C 1074.28,2309.9 1067.11,2434.57 1064.5,2559.5 Z"/></g>
<g><path style="opacity:1" fill="#3e393a" d="M 1965.5,2223.5 C 1970.9,2222.78 1975.4,2224.45 1979,2228.5C 1980.95,2233.32 1982.12,2238.32 1982.5,2243.5C 1987.86,2278.35 1985.36,2312.68 1975,2346.5C 1967.54,2374.41 1956.54,2400.74 1942,2425.5C 1933.19,2439.15 1920.69,2446.49 1904.5,2447.5C 1899.53,2448.17 1895.19,2446.84 1891.5,2443.5C 1887.48,2446.05 1883.15,2446.88 1878.5,2446C 1862.41,2440.89 1846.07,2436.56 1829.5,2433C 1774.69,2417.14 1724.02,2425.47 1677.5,2458C 1655.24,2475.6 1634.9,2495.26 1616.5,2517C 1614.23,2517.76 1612.06,2517.59 1610,2516.5C 1609.35,2513.41 1609.68,2510.41 1611,2507.5C 1616.56,2494.04 1623.89,2481.71 1633,2470.5C 1684.31,2416.61 1747.15,2393.78 1821.5,2402C 1848.89,2405.62 1872.89,2416.45 1893.5,2434.5C 1898.7,2431.7 1904.04,2429.2 1909.5,2427C 1918.63,2418.58 1925.13,2408.41 1929,2396.5C 1939.41,2366.92 1946.75,2336.59 1951,2305.5C 1953,2280.47 1955.34,2255.47 1958,2230.5C 1959.74,2227.25 1962.24,2224.92 1965.5,2223.5 Z"/></g>
<g><path style="opacity:0.999" fill="#3f3a3b" d="M 1850.5,2530.5 C 1847.41,2534.09 1843.41,2535.76 1838.5,2535.5C 1836.75,2534.53 1835.25,2533.19 1834,2531.5C 1833.54,2522.16 1833.7,2512.83 1834.5,2503.5C 1834.53,2498.77 1834.03,2494.1 1833,2489.5C 1828.42,2477.24 1821.08,2466.91 1811,2458.5C 1810.33,2457.5 1810.33,2456.5 1811,2455.5C 1814.92,2451.83 1819.09,2451.66 1823.5,2455C 1835.99,2464.83 1845.49,2476.99 1852,2491.5C 1857.07,2504.78 1856.57,2517.78 1850.5,2530.5 Z"/></g>
<g><path style="opacity:1" fill="#3f3a3b" d="M 1731.5,2467.5 C 1737.7,2468.5 1742.87,2471.5 1747,2476.5C 1760.32,2492.76 1764.65,2511.1 1760,2531.5C 1756.51,2535.05 1752.34,2536.21 1747.5,2535C 1745.33,2534.17 1743.83,2532.67 1743,2530.5C 1742.14,2520.04 1740.48,2509.7 1738,2499.5C 1734.03,2490.71 1729.86,2482.04 1725.5,2473.5C 1726.55,2470.45 1728.55,2468.45 1731.5,2467.5 Z"/></g>
<g><path style="opacity:0.998" fill="#3f3a3b" d="M 545.5,2590.5 C 542.813,2590.66 540.146,2590.5 537.5,2590C 536.299,2589.1 535.465,2587.93 535,2586.5C 535.228,2581.64 536.395,2576.97 538.5,2572.5C 547.673,2551.16 563.006,2535.99 584.5,2527C 587.5,2526.33 590.5,2526.33 593.5,2527C 598.15,2529.59 598.483,2532.59 594.5,2536C 572.961,2547.54 557.794,2564.71 549,2587.5C 547.855,2588.64 546.688,2589.64 545.5,2590.5 Z"/></g>
<g><path style="opacity:0.999" fill="#3f3a3b" d="M 631.5,2636.5 C 630.618,2640.14 628.284,2641.31 624.5,2640C 621.669,2638.33 619.336,2636.17 617.5,2633.5C 608.952,2620.98 607.452,2607.65 613,2593.5C 626.087,2567.41 645.587,2547.58 671.5,2534C 673.833,2533.33 676.167,2533.33 678.5,2534C 682.607,2534.43 684.44,2536.59 684,2540.5C 671.145,2551.6 658.478,2562.93 646,2574.5C 631.128,2592.66 626.295,2613.33 631.5,2636.5 Z"/></g>
<g><path style="opacity:0.995" fill="#3f3a3b" d="M 1233.5,2690.5 C 1231.14,2690.66 1228.81,2690.5 1226.5,2690C 1225.34,2688.99 1224.68,2687.66 1224.5,2686C 1225.34,2681.33 1226.67,2676.83 1228.5,2672.5C 1241.65,2643.37 1263.98,2625.7 1295.5,2619.5C 1302.31,2620.12 1303.98,2623.29 1300.5,2629C 1292.04,2632.73 1283.71,2636.73 1275.5,2641C 1256.22,2653.07 1242.22,2669.57 1233.5,2690.5 Z"/></g>
<g><path style="opacity:1" fill="#3f3a3b" d="M 1307.5,2710.5 C 1304.77,2712.59 1301.77,2712.92 1298.5,2711.5C 1297.54,2710.04 1296.38,2708.71 1295,2707.5C 1294.83,2706.17 1294.67,2704.83 1294.5,2703.5C 1298.18,2683.13 1309.35,2668.46 1328,2659.5C 1333.65,2659.47 1335.98,2662.14 1335,2667.5C 1330.33,2674.17 1325.67,2680.83 1321,2687.5C 1316.99,2695.52 1312.49,2703.19 1307.5,2710.5 Z"/></g>
<g><path style="opacity:0.999" fill="#403b3c" d="M 929.5,2749.5 C 925.81,2747.13 923.143,2743.79 921.5,2739.5C 911.072,2712.65 913.905,2687.31 930,2663.5C 933.075,2660.94 936.075,2660.94 939,2663.5C 936.526,2675.74 934.193,2688.08 932,2700.5C 931.291,2714.34 931.457,2728.18 932.5,2742C 932.333,2744.17 932.167,2746.33 932,2748.5C 931.329,2749.25 930.496,2749.59 929.5,2749.5 Z"/></g>
<g><path style="opacity:0.998" fill="#403b3c" d="M 1013.5,2748.5 C 1013.43,2754.38 1010.43,2756.72 1004.5,2755.5C 997.944,2743.07 994.944,2729.73 995.5,2715.5C 995.017,2703.85 997.017,2692.68 1001.5,2682C 1004.6,2679.61 1007.93,2679.11 1011.5,2680.5C 1012.17,2703.33 1012.83,2726 1013.5,2748.5 Z"/></g>
</svg>
