<?xml version="1.0" encoding="UTF-8"?>
<!DOCTYPE svg PUBLIC "-//W3C//DTD SVG 1.1//EN" "http://www.w3.org/Graphics/SVG/1.1/DTD/svg11.dtd">
<svg xmlns="http://www.w3.org/2000/svg" version="1.1" width="3000px" height="3000px" style="shape-rendering:geometricPrecision; text-rendering:geometricPrecision; image-rendering:optimizeQuality; fill-rule:evenodd; clip-rule:evenodd" xmlns:xlink="http://www.w3.org/1999/xlink">
<g><path style="opacity:0.995" fill="#000000" d="M 2111.5,579.5 C 2133.88,577.352 2153.88,583.185 2171.5,597C 2179.33,603.5 2186.5,610.667 2193,618.5C 2208.16,638.815 2222.82,659.482 2237,680.5C 2246.83,690.333 2256.67,700.167 2266.5,710C 2295.65,734.149 2325.65,757.149 2356.5,779C 2381.54,800.377 2406.88,821.377 2432.5,842C 2483.57,877.201 2533.57,913.868 2582.5,952C 2606.98,971.819 2629.48,993.652 2650,1017.5C 2656.17,1026.5 2661.84,1035.83 2667,1045.5C 2668.86,1052.04 2670.03,1058.71 2670.5,1065.5C 2669.48,1077.67 2668.48,1089.84 2667.5,1102C 2667.88,1145.32 2670.71,1188.48 2676,1231.5C 2683.49,1286.1 2690.49,1340.77 2697,1395.5C 2699.62,1419.78 2701.46,1444.11 2702.5,1468.5C 2702.47,1513.38 2685.14,1549.88 2650.5,1578C 2627.1,1595.71 2601.76,1610.38 2574.5,1622C 2543.83,1634.33 2513.17,1646.67 2482.5,1659C 2469.59,1664.45 2456.92,1670.45 2444.5,1677C 2385.96,1712.11 2326.3,1745.44 2265.5,1777C 2170.27,1826.45 2074.6,1875.12 1978.5,1923C 1911.02,1957.9 1844.02,1993.57 1777.5,2030C 1730.52,2054.49 1682.52,2076.82 1633.5,2097C 1569.42,2121.8 1505.42,2146.8 1441.5,2172C 1427.85,2178.49 1414.52,2185.49 1401.5,2193C 1368,2213.25 1334.33,2233.25 1300.5,2253C 1273.27,2266.75 1244.94,2277.75 1215.5,2286C 1162.11,2300.8 1108.78,2315.8 1055.5,2331C 1037.47,2338.51 1019.8,2346.85 1002.5,2356C 976.154,2371.17 949.488,2385.84 922.5,2400C 905.639,2407.62 888.306,2413.62 870.5,2418C 863.332,2418.99 856.332,2418.32 849.5,2416C 844.167,2413 838.833,2410 833.5,2407C 816.535,2392.37 799.868,2377.37 783.5,2362C 730.14,2308.64 676.806,2255.31 623.5,2202C 581.094,2163.93 539.594,2124.76 499,2084.5C 446.855,2030.05 398.855,1972.38 355,1911.5C 341.42,1891.99 333.753,1870.32 332,1846.5C 331.333,1819.83 331.333,1793.17 332,1766.5C 333.848,1725.28 335.348,1684.11 336.5,1643C 336.293,1604.31 333.126,1565.81 327,1527.5C 322,1505.5 317,1483.5 312,1461.5C 306.451,1438.82 307.451,1416.49 315,1394.5C 320.924,1382.24 329.424,1372.07 340.5,1364C 368.63,1344.26 398.63,1327.59 430.5,1314C 459.85,1301.55 489.517,1289.88 519.5,1279C 554.542,1267.21 589.542,1255.21 624.5,1243C 637.337,1236.08 649.67,1228.42 661.5,1220C 671.677,1214.41 682.01,1209.08 692.5,1204C 753.297,1178.4 813.963,1152.4 874.5,1126C 947.653,1091.26 1020.65,1056.26 1093.5,1021C 1204.15,973.173 1315.15,926.173 1426.5,880C 1523.65,836.591 1620.65,792.924 1717.5,749C 1753.05,733.724 1788.72,718.724 1824.5,704C 1834.3,688.272 1847.3,675.939 1863.5,667C 1883.9,656.139 1905.23,647.473 1927.5,641C 1966.56,630.536 2005.56,619.87 2044.5,609C 2054.32,605.726 2063.99,602.059 2073.5,598C 2080.99,594.759 2087.99,590.759 2094.5,586C 2096.83,585.667 2099.17,585.333 2101.5,585C 2104.77,582.87 2108.1,581.037 2111.5,579.5 Z"/></g>
<g><path style="opacity:1" fill="#f1f1f1" d="M 2122.5,635.5 C 2130.69,635.424 2138.02,637.924 2144.5,643C 2147.2,646.038 2150.2,648.705 2153.5,651C 2169.76,669.251 2185.26,688.085 2200,707.5C 2218.95,726.535 2239.12,744.035 2260.5,760C 2306.66,790.758 2350.66,824.424 2392.5,861C 2443.43,897.975 2493.1,936.642 2541.5,977C 2561.73,995.232 2580.57,1014.73 2598,1035.5C 2603,1042.16 2607.5,1049.16 2611.5,1056.5C 2546.91,1080.42 2484.58,1109.25 2424.5,1143C 2408.58,1152.21 2393.08,1162.04 2378,1172.5C 2338.24,1139.41 2299.08,1105.58 2260.5,1071C 2246.67,1057.17 2232.83,1043.33 2219,1029.5C 2182.93,983.428 2141.1,943.595 2093.5,910C 2055.61,884.109 2018.28,857.443 1981.5,830C 1956.8,810.641 1933.97,789.141 1913,765.5C 1903.94,753.444 1895.28,741.11 1887,728.5C 1884.11,725.943 1880.94,723.776 1877.5,722C 1884.52,711.315 1893.52,702.648 1904.5,696C 1934.07,680.032 1965.4,669.032 1998.5,663C 2028.89,657.324 2059.22,651.324 2089.5,645C 2100.82,642.5 2111.82,639.333 2122.5,635.5 Z"/></g>
<g><path style="opacity:1" fill="#2a9fe1" d="M 1837.5,758.5 C 1838.68,758.281 1839.68,758.614 1840.5,759.5C 1862.28,788.111 1887.28,813.611 1915.5,836C 1935.55,851.054 1955.89,865.721 1976.5,880C 2010.18,901.503 2043.51,923.503 2076.5,946C 2120.63,977.125 2158.46,1014.63 2190,1058.5C 2201.67,1071.5 2213.33,1084.5 2225,1097.5C 2262.04,1134.04 2298.54,1171.04 2334.5,1208.5C 2313.84,1221.5 2292.84,1234 2271.5,1246C 2235.09,1263.71 2198.09,1280.04 2160.5,1295C 2128.74,1310.88 2096.74,1326.21 2064.5,1341C 1997.69,1377.24 1930.69,1413.24 1863.5,1449C 1827.95,1465.94 1792.29,1482.61 1756.5,1499C 1598.93,1562.29 1441.93,1626.95 1285.5,1693C 1248.5,1710.22 1211.33,1727.05 1174,1743.5C 1165.17,1730.65 1155.51,1718.32 1145,1706.5C 1134.1,1694.93 1122.6,1684.1 1110.5,1674C 1088.8,1652.64 1068.97,1629.81 1051,1605.5C 1035.05,1582.55 1018.72,1559.89 1002,1537.5C 987.744,1519.91 972.744,1502.91 957,1486.5C 890.12,1416.59 818.62,1352.43 742.5,1294C 727.833,1284 713.167,1274 698.5,1264C 721.028,1251.23 744.028,1239.23 767.5,1228C 822.654,1202.76 877.321,1176.42 931.5,1149C 983.187,1121.82 1035.19,1095.16 1087.5,1069C 1213.66,1011.08 1341.33,956.751 1470.5,906C 1591.78,853.969 1714.11,804.803 1837.5,758.5 Z"/></g>
<g><path style="opacity:1" fill="#cbcbcb" d="M 2613.5,1107.5 C 2617.24,1141.77 2621.74,1176.1 2627,1210.5C 2638.31,1274.01 2648.64,1337.68 2658,1401.5C 2660.54,1423.61 2662.37,1445.77 2663.5,1468C 2662.9,1500.87 2649.57,1527.2 2623.5,1547C 2604.49,1560.01 2584.16,1570.67 2562.5,1579C 2530.45,1590.79 2498.12,1601.79 2465.5,1612C 2453.61,1615.95 2441.94,1620.45 2430.5,1625.5C 2433.51,1578.94 2433.01,1532.27 2429,1485.5C 2422.66,1428.82 2416.16,1372.15 2409.5,1315.5C 2407.29,1295.56 2406.13,1275.56 2406,1255.5C 2405.38,1244.19 2402.22,1233.69 2396.5,1224C 2405.36,1208.14 2417.36,1195.14 2432.5,1185C 2488.14,1148.18 2548.47,1122.35 2613.5,1107.5 Z"/></g>
<g><path style="opacity:1" fill="#0070bb" d="M 2350.5,1262.5 C 2351.93,1262.88 2352.76,1263.88 2353,1265.5C 2368.53,1334.9 2380.53,1404.9 2389,1475.5C 2393.92,1512.44 2394.58,1549.44 2391,1586.5C 2388.82,1607.56 2382.49,1627.22 2372,1645.5C 2364.36,1656.81 2354.52,1665.64 2342.5,1672C 2135.27,1789.79 1926.27,1904.79 1715.5,2017C 1674.86,2035.99 1633.52,2053.32 1591.5,2069C 1535.76,2088.8 1480.09,2108.8 1424.5,2129C 1408.92,2135.79 1393.59,2143.12 1378.5,2151C 1345.95,2169.44 1312.95,2187.11 1279.5,2204C 1260.94,2213.08 1241.77,2220.58 1222,2226.5C 1219.5,2203.55 1217.5,2180.55 1216,2157.5C 1213.99,2069.81 1211.32,1982.14 1208,1894.5C 1205.8,1861.56 1201.63,1828.9 1195.5,1796.5C 1237.66,1773.58 1280.33,1751.42 1323.5,1730C 1364.17,1711 1404.83,1692 1445.5,1673C 1556.36,1623.74 1668.02,1576.4 1780.5,1531C 1811.17,1517 1841.83,1503 1872.5,1489C 1937.83,1455.33 2003.17,1421.67 2068.5,1388C 2105.08,1371.47 2141.75,1355.14 2178.5,1339C 2215.23,1325.98 2251.56,1311.98 2287.5,1297C 2307.43,1288.04 2326.76,1278.04 2345.5,1267C 2347.62,1265.95 2349.28,1264.45 2350.5,1262.5 Z"/></g>
<g><path style="opacity:1" fill="#f1f1f1" d="M 644.5,1294.5 C 646.812,1297.59 649.479,1300.42 652.5,1303C 693.068,1321.27 731.068,1343.61 766.5,1370C 839.267,1424.04 905.434,1485.54 965,1554.5C 990.667,1591.83 1016.33,1629.17 1042,1666.5C 1049.33,1675.83 1056.67,1685.17 1064,1694.5C 1081.45,1712.28 1097.78,1730.94 1113,1750.5C 1115.93,1755.03 1118.27,1759.7 1120,1764.5C 1101.2,1766.08 1082.36,1767.91 1063.5,1770C 1039.06,1774.55 1016.39,1783.55 995.5,1797C 972.264,1813.57 949.597,1830.9 927.5,1849C 915.498,1857.67 902.832,1865.34 889.5,1872C 868.837,1879.64 849.17,1877.64 830.5,1866C 815.519,1856.03 802.019,1844.2 790,1830.5C 780.667,1819.17 771.333,1807.83 762,1796.5C 740.769,1766.6 718.769,1737.27 696,1708.5C 685.231,1695.73 673.731,1683.56 661.5,1672C 649.348,1662.09 637.015,1652.43 624.5,1643C 572.659,1607.58 520.993,1571.91 469.5,1536C 439.673,1514.18 411.006,1490.85 383.5,1466C 375.628,1457.8 368.128,1449.3 361,1440.5C 356.583,1434.17 353.083,1427.33 350.5,1420C 353.373,1413.27 357.706,1407.6 363.5,1403C 378.34,1392.41 394.007,1383.07 410.5,1375C 450.534,1357.15 491.534,1341.82 533.5,1329C 565.05,1319.59 596.717,1310.59 628.5,1302C 634.286,1300.27 639.62,1297.77 644.5,1294.5 Z"/></g>
<g><path style="opacity:1" fill="#e5e5e5" d="M 371.5,1510.5 C 394.108,1528.81 417.108,1546.64 440.5,1564C 488.66,1597.25 536.993,1630.25 585.5,1663C 607.523,1678.27 628.357,1695.11 648,1713.5C 655.667,1722.5 663.333,1731.5 671,1740.5C 693.72,1770.89 716.053,1801.55 738,1832.5C 754.744,1854.58 773.578,1874.75 794.5,1893C 806.539,1899.57 818.872,1905.57 831.5,1911C 844.655,1919.46 851.488,1931.63 852,1947.5C 853.333,1962.17 854.667,1976.83 856,1991.5C 862.594,2026.18 866.261,2061.18 867,2096.5C 866.057,2171.83 865.057,2247.16 864,2322.5C 863.308,2333.56 862.141,2344.56 860.5,2355.5C 858.692,2355.51 857.025,2355.01 855.5,2354C 822.914,2329.2 791.247,2303.2 760.5,2276C 725.451,2243.8 690.785,2211.13 656.5,2178C 615.824,2143 576.658,2106.16 539,2067.5C 491.244,2015.62 448.578,1959.95 411,1900.5C 392.727,1870.35 382.061,1837.68 379,1802.5C 376.533,1776.22 375.2,1749.89 375,1723.5C 375.155,1672.83 375.155,1622.17 375,1571.5C 374.249,1551.13 373.082,1530.8 371.5,1510.5 Z"/></g>
<g><path style="opacity:1" fill="#cbcbcb" d="M 1142.5,1817.5 C 1143.68,1817.28 1144.68,1817.61 1145.5,1818.5C 1156.84,1855.03 1164.34,1892.37 1168,1930.5C 1173.24,1994.39 1174.91,2058.39 1173,2122.5C 1171.88,2163.2 1170.38,2203.86 1168.5,2244.5C 1124.14,2265.68 1078.48,2283.51 1031.5,2298C 1004.83,2310.33 978.167,2322.67 951.5,2335C 938.148,2341.06 924.481,2346.23 910.5,2350.5C 911.135,2321.72 909.635,2293.05 906,2264.5C 905.318,2207.49 905.818,2150.49 907.5,2093.5C 908.099,2046.61 905.266,1999.95 899,1953.5C 897.644,1941.72 895.144,1930.22 891.5,1919C 914.954,1911.44 936.62,1900.44 956.5,1886C 975.48,1871.51 994.813,1857.51 1014.5,1844C 1028.89,1835.14 1044.22,1828.47 1060.5,1824C 1081.43,1821.89 1102.43,1820.89 1123.5,1821C 1130.16,1820.88 1136.49,1819.71 1142.5,1817.5 Z"/></g>
</svg>
