<?xml version="1.0" encoding="UTF-8"?>
<!DOCTYPE svg PUBLIC "-//W3C//DTD SVG 1.1//EN" "http://www.w3.org/Graphics/SVG/1.1/DTD/svg11.dtd">
<svg xmlns="http://www.w3.org/2000/svg" version="1.1" width="3000px" height="3000px" style="shape-rendering:geometricPrecision; text-rendering:geometricPrecision; image-rendering:optimizeQuality; fill-rule:evenodd; clip-rule:evenodd" xmlns:xlink="http://www.w3.org/1999/xlink">
<g><path style="opacity:0.998" fill="#fea856" d="M 1603.5,368.5 C 1598.35,396.349 1594.19,424.349 1591,452.5C 1588,491.48 1585.33,530.48 1583,569.5C 1580.12,599.507 1569.78,626.507 1552,650.5C 1544.5,659.333 1536.33,667.5 1527.5,675C 1493.52,703.648 1457.86,729.981 1420.5,754C 1409.66,759.922 1398.66,765.589 1387.5,771C 1364.82,779.841 1342.48,789.508 1320.5,800C 1296.17,812.667 1278.33,831.501 1267,856.5C 1258.44,882.796 1254.6,909.796 1255.5,937.5C 1237.96,936.521 1224.13,943.188 1214,957.5C 1204.52,972.424 1200.52,988.757 1202,1006.5C 1202.46,1014.24 1203.46,1021.9 1205,1029.5C 1214.67,1075.37 1224.51,1121.21 1234.5,1167C 1234.17,1167.83 1233.83,1168.67 1233.5,1169.5C 1217.63,1164.15 1202.8,1156.82 1189,1147.5C 1188.83,1147.83 1188.67,1148.17 1188.5,1148.5C 1197.2,1160.71 1207.2,1171.88 1218.5,1182C 1249.09,1206.96 1281.09,1229.96 1314.5,1251C 1351.12,1272.48 1386.79,1295.31 1421.5,1319.5C 1421.5,1320.17 1421.17,1320.5 1420.5,1320.5C 1385.76,1327.02 1353.43,1339.52 1323.5,1358C 1317.2,1363.3 1311.2,1368.97 1305.5,1375C 1269.67,1382.58 1238.33,1398.58 1211.5,1423C 1190.61,1444.62 1178.11,1470.45 1174,1500.5C 1166.34,1568.86 1170.34,1636.53 1186,1703.5C 1188.34,1712.52 1191.84,1721.02 1196.5,1729C 1199.8,1730.04 1201.97,1728.88 1203,1725.5C 1203.8,1719.22 1204.97,1713.06 1206.5,1707C 1207.17,1706.33 1207.83,1706.33 1208.5,1707C 1210.12,1709.08 1211.62,1711.25 1213,1713.5C 1224.53,1737.75 1235.86,1762.08 1247,1786.5C 1251.82,1796.82 1257.16,1806.82 1263,1816.5C 1270.37,1849.64 1280.37,1881.97 1293,1913.5C 1297.75,1924.5 1304.58,1934 1313.5,1942C 1324.34,1947.51 1333.68,1945.51 1341.5,1936C 1342.17,1935.33 1342.83,1935.33 1343.5,1936C 1400.19,1994.36 1457.19,2052.36 1514.5,2110C 1543.74,2138.27 1573.74,2165.6 1604.5,2192C 1608.86,2194.23 1613.19,2196.39 1617.5,2198.5C 1620.58,2202.32 1623.41,2206.32 1626,2210.5C 1633.07,2225.65 1641.4,2239.99 1651,2253.5C 1654.79,2258.1 1659.63,2259.93 1665.5,2259C 1666.67,2257.83 1667.83,2256.67 1669,2255.5C 1680.08,2237.66 1691.42,2220 1703,2202.5C 1708.04,2195.4 1714.87,2191.57 1723.5,2191C 1740.97,2174.53 1758.14,2157.7 1775,2140.5C 1841.62,2066.89 1907.12,1992.39 1971.5,1917C 1972.91,1916.68 1974.24,1917.02 1975.5,1918C 1987.44,1927.6 1998.28,1926.43 2008,1914.5C 2017.51,1899.67 2024.51,1883.67 2029,1866.5C 2035.1,1842.03 2040.43,1817.36 2045,1792.5C 2060.25,1756.41 2074.92,1720.07 2089,1683.5C 2089.96,1682.42 2090.79,1681.25 2091.5,1680C 2092.64,1679.25 2093.64,1679.42 2094.5,1680.5C 2107.04,1721.3 2123.54,1722.96 2144,1685.5C 2176.67,1613.11 2182.01,1538.78 2160,1462.5C 2140.15,1402.81 2099.65,1365.31 2038.5,1350C 2031.48,1348.77 2024.48,1347.44 2017.5,1346C 1996.96,1327.06 1972.96,1314.39 1945.5,1308C 1938.42,1306.58 1931.42,1304.92 1924.5,1303C 1962.89,1279.61 1996.73,1250.78 2026,1216.5C 2033.56,1205.94 2040.73,1195.1 2047.5,1184C 2035.94,1184.56 2025.27,1181.9 2015.5,1176C 2011.11,1174.82 2006.78,1173.49 2002.5,1172C 2018.88,1166.21 2035.21,1160.21 2051.5,1154C 2065.72,1148.31 2078.55,1140.48 2090,1130.5C 2101.12,1115.1 2102.46,1098.77 2094,1081.5C 2086.47,1067.78 2077.47,1055.11 2067,1043.5C 2053.64,1030.47 2040.64,1017.14 2028,1003.5C 2013.53,980.902 2009.87,956.569 2017,930.5C 2022.44,913.093 2026.77,895.426 2030,877.5C 2032.43,859.136 2027.43,843.136 2015,829.5C 2004.94,820.11 1993.77,812.277 1981.5,806C 1913.84,778.855 1851.84,742.522 1795.5,697C 1771.31,671.755 1750.14,644.255 1732,614.5C 1707.36,557.961 1695.53,498.794 1696.5,437C 1697.96,413.518 1699.3,390.018 1700.5,366.5C 1687.66,366.137 1675,365.47 1662.5,364.5C 1739.7,361.923 1814.7,373.423 1887.5,399C 1897.32,402.826 1906.82,407.326 1916,412.5C 1939.72,346.459 1981.89,295.959 2042.5,261C 2096.75,231.022 2154.09,208.688 2214.5,194C 2326.89,172.389 2372.06,217.556 2350,329.5C 2345.81,346.737 2340.81,363.737 2335,380.5C 2323.11,408.942 2311.78,437.609 2301,466.5C 2290.34,500.489 2279.67,534.489 2269,568.5C 2260.91,592.343 2249.91,614.676 2236,635.5C 2225.02,650.152 2211.85,662.318 2196.5,672C 2233.63,721.577 2263.79,775.41 2287,833.5C 2295.62,853.653 2299.96,874.653 2300,896.5C 2297.19,914.828 2287.02,920.662 2269.5,914C 2263.75,911.711 2258.58,908.545 2254,904.5C 2253.83,905.667 2253.67,906.833 2253.5,908C 2256.37,943.806 2258.87,979.639 2261,1015.5C 2262.92,1030.58 2267.25,1044.92 2274,1058.5C 2274.67,1060.83 2274.67,1063.17 2274,1065.5C 2265.41,1076.26 2255.91,1086.26 2245.5,1095.5C 2244.34,1099.8 2244.17,1104.13 2245,1108.5C 2246.38,1116.8 2247.55,1125.14 2248.5,1133.5C 2249.57,1140.81 2246.57,1145.31 2239.5,1147C 2220.83,1146.75 2204.66,1140.25 2191,1127.5C 2170.06,1157.16 2152.39,1188.83 2138,1222.5C 2136.19,1227.42 2134.69,1232.42 2133.5,1237.5C 2140.21,1239.01 2146.87,1240.84 2153.5,1243C 2165.66,1251.25 2178,1259.25 2190.5,1267C 2205.54,1274.9 2221.2,1281.23 2237.5,1286C 2255.28,1293.12 2267.78,1305.62 2275,1323.5C 2286.45,1353.42 2292.78,1384.42 2294,1416.5C 2298.21,1529.34 2282.55,1639.34 2247,1746.5C 2240.67,1763.81 2233.83,1780.81 2226.5,1797.5C 2163.72,1941.12 2073.38,2064.62 1955.5,2168C 1914.78,2202.87 1870.45,2232.54 1822.5,2257C 1804.41,2265.64 1785.74,2272.81 1766.5,2278.5C 1763.68,2295.05 1761.85,2311.72 1761,2328.5C 1758.14,2433.2 1768.47,2536.53 1792,2638.5C 1802.1,2680.31 1813.94,2721.65 1827.5,2762.5C 1816.05,2773.49 1802.72,2776.66 1787.5,2772C 1770.37,2764.27 1754.71,2754.27 1740.5,2742C 1731.57,2735.37 1721.91,2730.04 1711.5,2726C 1694.61,2719.86 1682.78,2725.03 1676,2741.5C 1670.2,2760.09 1661.54,2777.09 1650,2792.5C 1633.51,2808.45 1613.68,2816.62 1590.5,2817C 1525.19,2822.17 1459.85,2823.67 1394.5,2821.5C 1419.17,2739.37 1441,2656.37 1460,2572.5C 1470.69,2523.31 1478.02,2473.64 1482,2423.5C 1485.55,2380.88 1483.55,2338.55 1476,2296.5C 1455.56,2280.69 1435.39,2264.53 1415.5,2248C 1364.53,2201.37 1313.87,2154.37 1263.5,2107C 1212.03,2057.23 1166.2,2003.07 1126,1944.5C 1103.51,1909.86 1083.84,1873.53 1067,1835.5C 1053.86,1916.07 1050.86,1997.07 1058,2078.5C 1060.11,2092.52 1062.45,2106.52 1065,2120.5C 1068.92,2133.95 1071.92,2147.62 1074,2161.5C 1093.2,2280.57 1110.53,2399.9 1126,2519.5C 1130.53,2555.77 1134.36,2592.1 1137.5,2628.5C 1137.17,2632.17 1136.83,2635.83 1136.5,2639.5C 1081.19,2671.11 1056.19,2718.77 1061.5,2782.5C 1050.31,2780.45 1039.31,2777.62 1028.5,2774C 1022.87,2770.7 1017.04,2767.86 1011,2765.5C 986.085,2771.15 960.918,2775.32 935.5,2778C 875.207,2782.3 814.874,2785.97 754.5,2789C 716.765,2792.64 679.098,2796.81 641.5,2801.5C 633.148,2796.81 624.481,2792.48 615.5,2788.5C 614.479,2788 614.312,2787.33 615,2786.5C 646.751,2764.59 674.917,2738.59 699.5,2708.5C 671.631,2691.47 643.631,2674.63 615.5,2658C 631.846,2631.65 647.179,2604.65 661.5,2577C 651.195,2577.83 640.862,2578.83 630.5,2580C 619.478,2580.71 608.478,2580.55 597.5,2579.5C 598.499,2569.51 599.499,2559.51 600.5,2549.5C 600.48,2548.27 600.147,2547.27 599.5,2546.5C 646.941,2505.78 696.607,2467.94 748.5,2433C 795.819,2401.18 847.486,2379.51 903.5,2368C 917.094,2365.05 930.76,2362.55 944.5,2360.5C 941.693,2295.86 940.86,2231.2 942,2166.5C 943.699,2083.54 953.365,2001.54 971,1920.5C 984.578,1861.2 1006.08,1805.03 1035.5,1752C 1003.97,1640.53 992.133,1527.03 1000,1411.5C 1002.5,1374.31 1011.83,1338.98 1028,1305.5C 1038.61,1285.9 1054.44,1272.4 1075.5,1265C 1080.17,1262 1084.83,1259 1089.5,1256C 1101.8,1245.37 1113.8,1234.37 1125.5,1223C 1133.26,1217.46 1141.26,1212.46 1149.5,1208C 1147.3,1200.11 1144.14,1192.61 1140,1185.5C 1134.33,1175.5 1128.67,1165.5 1123,1155.5C 1122.68,1151.94 1123.52,1148.6 1125.5,1145.5C 1124.64,1144.42 1123.64,1144.25 1122.5,1145C 1116.74,1150.04 1110.08,1153.21 1102.5,1154.5C 1095.94,1153.11 1091.78,1149.11 1090,1142.5C 1077.99,1112.63 1071.16,1081.63 1069.5,1049.5C 1070.21,1041.15 1070.71,1032.81 1071,1024.5C 1066.56,1021.67 1061.73,1020.84 1056.5,1022C 1047.85,1024.67 1040.18,1029 1033.5,1035C 1031.35,1036.41 1029.02,1037.24 1026.5,1037.5C 1027.49,1032.04 1028.99,1026.7 1031,1021.5C 1031.96,1016.88 1032.62,1012.21 1033,1007.5C 1032.89,989.501 1032.39,971.501 1031.5,953.5C 1031.37,945.408 1032.04,937.408 1033.5,929.5C 1033.17,929.167 1032.83,928.833 1032.5,928.5C 1015.79,936.655 1006.79,931.655 1005.5,913.5C 1009.12,887.814 1016.28,863.148 1027,839.5C 1051.76,780.153 1084.6,725.987 1125.5,677C 1071.16,657.976 1037.99,620.143 1026,563.5C 1022.46,547.939 1019.46,532.273 1017,516.5C 1013.04,487.443 1008.71,458.443 1004,429.5C 997.65,399.432 990.983,369.432 984,339.5C 979.521,316.043 977.021,292.376 976.5,268.5C 976.565,247.11 980.398,226.443 988,206.5C 1002.7,175.525 1027.37,160.525 1062,161.5C 1094.77,163.485 1125.94,171.651 1155.5,186C 1209.39,211.084 1259.05,242.417 1304.5,280C 1346.71,317.903 1375.05,364.403 1389.5,419.5C 1417.83,403.89 1447.83,392.723 1479.5,386C 1520.51,377.541 1561.85,371.708 1603.5,368.5 Z"/></g>
<g><path style="opacity:1" fill="#ffdcbc" d="M 1060.5,219.5 C 1079.99,217.935 1098.65,221.102 1116.5,229C 1136.06,237.444 1154.72,247.444 1172.5,259C 1215.27,288.089 1254.77,321.255 1291,358.5C 1313.64,385.099 1332.81,414.099 1348.5,445.5C 1281.76,495.235 1222.09,552.568 1169.5,617.5C 1152.36,606.201 1136.52,593.201 1122,578.5C 1101.86,546.884 1084.86,513.551 1071,478.5C 1048.84,426.025 1033.17,371.691 1024,315.5C 1022.66,300.186 1022.32,284.853 1023,269.5C 1024.49,252.281 1031.66,238.114 1044.5,227C 1049.54,223.643 1054.88,221.143 1060.5,219.5 Z"/></g>
<g><path style="opacity:1" fill="#ffdcbc" d="M 2255.5,254.5 C 2268.91,254.114 2282.25,254.948 2295.5,257C 2307.49,259.245 2317.66,264.745 2326,273.5C 2329.73,279.685 2332.06,286.351 2333,293.5C 2333.7,319.664 2330.37,345.331 2323,370.5C 2293.07,463.682 2251.4,551.015 2198,632.5C 2192.71,639.46 2187.04,646.127 2181,652.5C 2130.73,585.557 2072.89,525.723 2007.5,473C 1987.53,457.527 1966.86,443.027 1945.5,429.5C 1984.3,396.202 2024.96,365.369 2067.5,337C 2108.18,309.654 2151.52,286.987 2197.5,269C 2216.5,262.251 2235.83,257.417 2255.5,254.5 Z"/></g>
<g><path style="opacity:1" fill="#fedcbc" d="M 1662.5,364.5 C 1675,365.47 1687.66,366.137 1700.5,366.5C 1699.3,390.018 1697.96,413.518 1696.5,437C 1695.53,498.794 1707.36,557.961 1732,614.5C 1750.14,644.255 1771.31,671.755 1795.5,697C 1851.84,742.522 1913.84,778.855 1981.5,806C 1993.77,812.277 2004.94,820.11 2015,829.5C 2027.43,843.136 2032.43,859.136 2030,877.5C 2026.77,895.426 2022.44,913.093 2017,930.5C 2009.87,956.569 2013.53,980.902 2028,1003.5C 2040.64,1017.14 2053.64,1030.47 2067,1043.5C 2077.47,1055.11 2086.47,1067.78 2094,1081.5C 2102.46,1098.77 2101.12,1115.1 2090,1130.5C 2078.55,1140.48 2065.72,1148.31 2051.5,1154C 2035.21,1160.21 2018.88,1166.21 2002.5,1172C 2006.78,1173.49 2011.11,1174.82 2015.5,1176C 2025.27,1181.9 2035.94,1184.56 2047.5,1184C 2040.73,1195.1 2033.56,1205.94 2026,1216.5C 1996.73,1250.78 1962.89,1279.61 1924.5,1303C 1931.42,1304.92 1938.42,1306.58 1945.5,1308C 1972.96,1314.39 1996.96,1327.06 2017.5,1346C 2024.48,1347.44 2031.48,1348.77 2038.5,1350C 2099.65,1365.31 2140.15,1402.81 2160,1462.5C 2182.01,1538.78 2176.67,1613.11 2144,1685.5C 2123.54,1722.96 2107.04,1721.3 2094.5,1680.5C 2093.64,1679.42 2092.64,1679.25 2091.5,1680C 2090.79,1681.25 2089.96,1682.42 2089,1683.5C 2074.92,1720.07 2060.25,1756.41 2045,1792.5C 2040.43,1817.36 2035.1,1842.03 2029,1866.5C 2024.51,1883.67 2017.51,1899.67 2008,1914.5C 1998.28,1926.43 1987.44,1927.6 1975.5,1918C 1974.24,1917.02 1972.91,1916.68 1971.5,1917C 1907.12,1992.39 1841.62,2066.89 1775,2140.5C 1758.14,2157.7 1740.97,2174.53 1723.5,2191C 1714.87,2191.57 1708.04,2195.4 1703,2202.5C 1691.42,2220 1680.08,2237.66 1669,2255.5C 1667.83,2256.67 1666.67,2257.83 1665.5,2259C 1659.63,2259.93 1654.79,2258.1 1651,2253.5C 1641.4,2239.99 1633.07,2225.65 1626,2210.5C 1623.41,2206.32 1620.58,2202.32 1617.5,2198.5C 1613.19,2196.39 1608.86,2194.23 1604.5,2192C 1573.74,2165.6 1543.74,2138.27 1514.5,2110C 1457.19,2052.36 1400.19,1994.36 1343.5,1936C 1342.83,1935.33 1342.17,1935.33 1341.5,1936C 1333.68,1945.51 1324.34,1947.51 1313.5,1942C 1304.58,1934 1297.75,1924.5 1293,1913.5C 1280.37,1881.97 1270.37,1849.64 1263,1816.5C 1257.16,1806.82 1251.82,1796.82 1247,1786.5C 1235.86,1762.08 1224.53,1737.75 1213,1713.5C 1211.62,1711.25 1210.12,1709.08 1208.5,1707C 1207.83,1706.33 1207.17,1706.33 1206.5,1707C 1204.97,1713.06 1203.8,1719.22 1203,1725.5C 1201.97,1728.88 1199.8,1730.04 1196.5,1729C 1191.84,1721.02 1188.34,1712.52 1186,1703.5C 1170.34,1636.53 1166.34,1568.86 1174,1500.5C 1178.11,1470.45 1190.61,1444.62 1211.5,1423C 1238.33,1398.58 1269.67,1382.58 1305.5,1375C 1311.2,1368.97 1317.2,1363.3 1323.5,1358C 1353.43,1339.52 1385.76,1327.02 1420.5,1320.5C 1403.3,1339.21 1388.8,1359.88 1377,1382.5C 1367.51,1405.13 1370.18,1426.13 1385,1445.5C 1402.39,1465.28 1424.22,1476.78 1450.5,1480C 1480.46,1481.34 1509.12,1476.01 1536.5,1464C 1596.36,1437.81 1643.52,1396.98 1678,1341.5C 1709.57,1288.37 1737.4,1233.37 1761.5,1176.5C 1791.68,1169.29 1821.01,1158.79 1849.5,1145C 1904.54,1114.79 1937.37,1068.63 1948,1006.5C 1949.91,995.201 1948.24,984.534 1943,974.5C 1935.22,966.148 1926.05,964.315 1915.5,969C 1890.57,985.2 1863.57,996.533 1834.5,1003C 1782.32,1012.91 1733.32,1004.58 1687.5,978C 1674.04,969.545 1662.88,958.712 1654,945.5C 1648.47,933.407 1643.64,921.074 1639.5,908.5C 1644.7,906.902 1649.7,904.735 1654.5,902C 1685.55,879.288 1711.38,851.788 1732,819.5C 1742.73,801.089 1748.56,781.256 1749.5,760C 1748.39,736.787 1738.39,718.453 1719.5,705C 1698.01,691.948 1674.68,684.282 1649.5,682C 1617.84,677.715 1587.17,681.381 1557.5,693C 1510.15,715.195 1493.99,751.362 1509,801.5C 1517.5,819.848 1528.5,836.514 1542,851.5C 1560.31,870.482 1579.81,887.982 1600.5,904C 1585.65,932.513 1564.32,954.846 1536.5,971C 1511.99,985.756 1485.65,995.756 1457.5,1001C 1432.05,1003.74 1408.38,998.407 1386.5,985C 1372.5,976.333 1358.5,967.667 1344.5,959C 1334.98,952.933 1324.64,950.6 1313.5,952C 1305.91,956.27 1301.41,962.77 1300,971.5C 1294.16,1030.98 1313.33,1080.82 1357.5,1121C 1389.72,1148.28 1426.39,1167.45 1467.5,1178.5C 1465.36,1200.49 1463.2,1222.49 1461,1244.5C 1457.79,1261.57 1451.79,1277.57 1443,1292.5C 1436.29,1301.93 1429.13,1310.93 1421.5,1319.5C 1386.79,1295.31 1351.12,1272.48 1314.5,1251C 1281.09,1229.96 1249.09,1206.96 1218.5,1182C 1207.2,1171.88 1197.2,1160.71 1188.5,1148.5C 1188.67,1148.17 1188.83,1147.83 1189,1147.5C 1202.8,1156.82 1217.63,1164.15 1233.5,1169.5C 1233.83,1168.67 1234.17,1167.83 1234.5,1167C 1224.51,1121.21 1214.67,1075.37 1205,1029.5C 1203.46,1021.9 1202.46,1014.24 1202,1006.5C 1200.52,988.757 1204.52,972.424 1214,957.5C 1224.13,943.188 1237.96,936.521 1255.5,937.5C 1254.6,909.796 1258.44,882.796 1267,856.5C 1278.33,831.501 1296.17,812.667 1320.5,800C 1342.48,789.508 1364.82,779.841 1387.5,771C 1398.66,765.589 1409.66,759.922 1420.5,754C 1457.86,729.981 1493.52,703.648 1527.5,675C 1536.33,667.5 1544.5,659.333 1552,650.5C 1569.78,626.507 1580.12,599.507 1583,569.5C 1585.33,530.48 1588,491.48 1591,452.5C 1594.19,424.349 1598.35,396.349 1603.5,368.5C 1603.41,367.504 1603.75,366.671 1604.5,366C 1623.8,364.592 1643.13,364.092 1662.5,364.5 Z"/></g>
<g><path style="opacity:1" fill="#050301" d="M 1388.5,640.5 C 1431.65,637.737 1463.98,654.904 1485.5,692C 1472.76,685.804 1459.76,679.804 1446.5,674C 1411.56,662.766 1376.56,662.766 1341.5,674C 1335.48,676.096 1329.64,678.596 1324,681.5C 1325.07,678.034 1326.73,674.701 1329,671.5C 1345.49,654.673 1365.32,644.34 1388.5,640.5 Z"/></g>
<g><path style="opacity:1" fill="#050301" d="M 1877.5,640.5 C 1910.55,637.9 1938.38,648.567 1961,672.5C 1965.66,678.491 1969.83,684.824 1973.5,691.5C 1973.17,691.833 1972.83,692.167 1972.5,692.5C 1920.79,660.63 1867.12,656.797 1811.5,681C 1821.92,664.934 1836.25,653.601 1854.5,647C 1862.16,644.338 1869.83,642.172 1877.5,640.5 Z"/></g>
<g><path style="opacity:1" fill="#000000" d="M 1761.5,1176.5 C 1764.76,1165.89 1767.92,1155.23 1771,1144.5C 1772.86,1131.82 1772.86,1119.15 1771,1106.5C 1763.76,1079.77 1746.26,1065.77 1718.5,1064.5C 1712.71,1064.49 1707.04,1065.32 1701.5,1067C 1683.21,1088.41 1665.05,1109.91 1647,1131.5C 1630.63,1151.89 1616.63,1173.89 1605,1197.5C 1597.89,1216.39 1590.22,1235.06 1582,1253.5C 1576.09,1265.66 1569.43,1277.32 1562,1288.5C 1556.08,1297.7 1547.91,1303.87 1537.5,1307C 1536.06,1307.78 1534.72,1307.61 1533.5,1306.5C 1547.25,1289.88 1557.41,1271.22 1564,1250.5C 1570.15,1226.71 1575.48,1202.71 1580,1178.5C 1592.89,1134.55 1613.72,1095.05 1642.5,1060C 1640.79,1057.63 1638.46,1055.96 1635.5,1055C 1603.86,1041.96 1573.2,1043.96 1543.5,1061C 1514.78,1080.39 1493.28,1105.89 1479,1137.5C 1473.14,1150.6 1469.31,1164.27 1467.5,1178.5C 1426.39,1167.45 1389.72,1148.28 1357.5,1121C 1313.33,1080.82 1294.16,1030.98 1300,971.5C 1301.41,962.77 1305.91,956.27 1313.5,952C 1324.64,950.6 1334.98,952.933 1344.5,959C 1358.5,967.667 1372.5,976.333 1386.5,985C 1408.38,998.407 1432.05,1003.74 1457.5,1001C 1485.65,995.756 1511.99,985.756 1536.5,971C 1564.32,954.846 1585.65,932.513 1600.5,904C 1579.81,887.982 1560.31,870.482 1542,851.5C 1528.5,836.514 1517.5,819.848 1509,801.5C 1493.99,751.362 1510.15,715.195 1557.5,693C 1587.17,681.381 1617.84,677.715 1649.5,682C 1674.68,684.282 1698.01,691.948 1719.5,705C 1738.39,718.453 1748.39,736.787 1749.5,760C 1748.56,781.256 1742.73,801.089 1732,819.5C 1711.38,851.788 1685.55,879.288 1654.5,902C 1649.7,904.735 1644.7,906.902 1639.5,908.5C 1643.64,921.074 1648.47,933.407 1654,945.5C 1662.88,958.712 1674.04,969.545 1687.5,978C 1733.32,1004.58 1782.32,1012.91 1834.5,1003C 1863.57,996.533 1890.57,985.2 1915.5,969C 1926.05,964.315 1935.22,966.148 1943,974.5C 1948.24,984.534 1949.91,995.201 1948,1006.5C 1937.37,1068.63 1904.54,1114.79 1849.5,1145C 1821.01,1158.79 1791.68,1169.29 1761.5,1176.5 Z"/></g>
<g><path style="opacity:1" fill="#f9d8b8" d="M 1578.5,723.5 C 1583.18,723.334 1587.85,723.501 1592.5,724C 1594.98,726.284 1595.15,728.784 1593,731.5C 1583.95,736.552 1575.45,742.386 1567.5,749C 1564.07,753.848 1560.41,758.515 1556.5,763C 1553.47,764.14 1551.31,763.306 1550,760.5C 1548.59,753.058 1550.26,746.391 1555,740.5C 1560.56,731.41 1568.39,725.743 1578.5,723.5 Z"/></g>
<g><path style="opacity:1" fill="#fe6d71" d="M 1761.5,1176.5 C 1737.4,1233.37 1709.57,1288.37 1678,1341.5C 1643.52,1396.98 1596.36,1437.81 1536.5,1464C 1509.12,1476.01 1480.46,1481.34 1450.5,1480C 1424.22,1476.78 1402.39,1465.28 1385,1445.5C 1370.18,1426.13 1367.51,1405.13 1377,1382.5C 1388.8,1359.88 1403.3,1339.21 1420.5,1320.5C 1421.17,1320.5 1421.5,1320.17 1421.5,1319.5C 1429.13,1310.93 1436.29,1301.93 1443,1292.5C 1451.79,1277.57 1457.79,1261.57 1461,1244.5C 1463.2,1222.49 1465.36,1200.49 1467.5,1178.5C 1469.31,1164.27 1473.14,1150.6 1479,1137.5C 1493.28,1105.89 1514.78,1080.39 1543.5,1061C 1573.2,1043.96 1603.86,1041.96 1635.5,1055C 1638.46,1055.96 1640.79,1057.63 1642.5,1060C 1613.72,1095.05 1592.89,1134.55 1580,1178.5C 1575.48,1202.71 1570.15,1226.71 1564,1250.5C 1557.41,1271.22 1547.25,1289.88 1533.5,1306.5C 1534.72,1307.61 1536.06,1307.78 1537.5,1307C 1547.91,1303.87 1556.08,1297.7 1562,1288.5C 1569.43,1277.32 1576.09,1265.66 1582,1253.5C 1590.22,1235.06 1597.89,1216.39 1605,1197.5C 1616.63,1173.89 1630.63,1151.89 1647,1131.5C 1665.05,1109.91 1683.21,1088.41 1701.5,1067C 1707.04,1065.32 1712.71,1064.49 1718.5,1064.5C 1746.26,1065.77 1763.76,1079.77 1771,1106.5C 1772.86,1119.15 1772.86,1131.82 1771,1144.5C 1767.92,1155.23 1764.76,1165.89 1761.5,1176.5 Z"/></g>
<g><path style="opacity:0.999" fill="#fedcbc" d="M 2226.5,1797.5 C 2223.04,1859.1 2216.87,1920.43 2208,1981.5C 2196.23,2064.8 2182.73,2147.8 2167.5,2230.5C 2166.88,2230.61 2166.38,2230.94 2166,2231.5C 2151.92,2306.55 2137.59,2381.55 2123,2456.5C 2110.69,2505.74 2098.69,2555.08 2087,2604.5C 2082.96,2622.3 2081.63,2640.3 2083,2658.5C 2082.94,2668.42 2087.11,2675.92 2095.5,2681C 2100.85,2684.18 2106.52,2686.51 2112.5,2688C 2126.55,2690.88 2140.55,2693.88 2154.5,2697C 2160.41,2698.54 2165.24,2701.7 2169,2706.5C 2184.61,2738.07 2193.45,2771.41 2195.5,2806.5C 2195.06,2847.43 2175.06,2872.93 2135.5,2883C 2129.22,2884.32 2122.88,2885.32 2116.5,2886C 2092.09,2886.6 2067.76,2888.26 2043.5,2891C 2009.14,2892.18 1975.14,2889.18 1941.5,2882C 1913.06,2876.37 1888.56,2863.53 1868,2843.5C 1859.5,2833.17 1852.5,2821.84 1847,2809.5C 1840.38,2793.77 1833.88,2778.11 1827.5,2762.5C 1813.94,2721.65 1802.1,2680.31 1792,2638.5C 1768.47,2536.53 1758.14,2433.2 1761,2328.5C 1761.85,2311.72 1763.68,2295.05 1766.5,2278.5C 1785.74,2272.81 1804.41,2265.64 1822.5,2257C 1870.45,2232.54 1914.78,2202.87 1955.5,2168C 2073.38,2064.62 2163.72,1941.12 2226.5,1797.5 Z"/></g>
<g><path style="opacity:0.999" fill="#fedcbc" d="M 1394.5,2821.5 C 1386.59,2836.58 1375.59,2849.08 1361.5,2859C 1329.64,2878.47 1294.97,2887.3 1257.5,2885.5C 1219.48,2884.5 1181.48,2883.33 1143.5,2882C 1122.45,2876.95 1104.95,2866.12 1091,2849.5C 1075.27,2829.84 1065.44,2807.5 1061.5,2782.5C 1056.19,2718.77 1081.19,2671.11 1136.5,2639.5C 1136.83,2635.83 1137.17,2632.17 1137.5,2628.5C 1134.36,2592.1 1130.53,2555.77 1126,2519.5C 1110.53,2399.9 1093.2,2280.57 1074,2161.5C 1071.92,2147.62 1068.92,2133.95 1065,2120.5C 1062.45,2106.52 1060.11,2092.52 1058,2078.5C 1050.86,1997.07 1053.86,1916.07 1067,1835.5C 1083.84,1873.53 1103.51,1909.86 1126,1944.5C 1166.2,2003.07 1212.03,2057.23 1263.5,2107C 1313.87,2154.37 1364.53,2201.37 1415.5,2248C 1435.39,2264.53 1455.56,2280.69 1476,2296.5C 1483.55,2338.55 1485.55,2380.88 1482,2423.5C 1478.02,2473.64 1470.69,2523.31 1460,2572.5C 1441,2656.37 1419.17,2739.37 1394.5,2821.5 Z"/></g>
<g><path style="opacity:0.997" fill="#ffa856" d="M 2167.5,2230.5 C 2168.98,2235.07 2170.14,2239.74 2171,2244.5C 2173.75,2269.91 2177.08,2295.25 2181,2320.5C 2182.72,2329.33 2185.06,2338 2188,2346.5C 2212.41,2406.35 2243.74,2462.01 2282,2513.5C 2297.26,2530.76 2315.76,2543.26 2337.5,2551C 2359.86,2556.78 2381.19,2565.12 2401.5,2576C 2441.81,2605.81 2457.97,2645.65 2450,2695.5C 2438.18,2745.63 2408.01,2779.46 2359.5,2797C 2311.66,2813.91 2262.66,2818.57 2212.5,2811C 2206.76,2809.65 2201.09,2808.15 2195.5,2806.5C 2193.45,2771.41 2184.61,2738.07 2169,2706.5C 2165.24,2701.7 2160.41,2698.54 2154.5,2697C 2140.55,2693.88 2126.55,2690.88 2112.5,2688C 2106.52,2686.51 2100.85,2684.18 2095.5,2681C 2087.11,2675.92 2082.94,2668.42 2083,2658.5C 2081.63,2640.3 2082.96,2622.3 2087,2604.5C 2098.69,2555.08 2110.69,2505.74 2123,2456.5C 2137.59,2381.55 2151.92,2306.55 2166,2231.5C 2166.38,2230.94 2166.88,2230.61 2167.5,2230.5 Z"/></g>
<g><path style="opacity:0.997" fill="#ffdcbc" d="M 599.5,2546.5 C 600.147,2547.27 600.48,2548.27 600.5,2549.5C 599.499,2559.51 598.499,2569.51 597.5,2579.5C 608.478,2580.55 619.478,2580.71 630.5,2580C 640.862,2578.83 651.195,2577.83 661.5,2577C 647.179,2604.65 631.846,2631.65 615.5,2658C 643.631,2674.63 671.631,2691.47 699.5,2708.5C 674.917,2738.59 646.751,2764.59 615,2786.5C 614.312,2787.33 614.479,2788 615.5,2788.5C 624.481,2792.48 633.148,2796.81 641.5,2801.5C 542.015,2814.36 443.348,2831.86 345.5,2854C 332.627,2859.1 319.961,2864.77 307.5,2871C 305.129,2871.73 302.795,2872.57 300.5,2873.5C 300.167,2873 299.833,2872.5 299.5,2872C 320.717,2813.7 352.217,2761.87 394,2716.5C 415.626,2693.54 438.459,2672.04 462.5,2652C 507.836,2616.34 553.503,2581.17 599.5,2546.5 Z"/></g>
<g><path style="opacity:1" fill="#ffdcbc" d="M 2239.5,2549.5 C 2253.22,2549.09 2266.88,2549.59 2280.5,2551C 2291.17,2554.5 2301.5,2558.83 2311.5,2564C 2327.91,2569.14 2344.24,2574.47 2360.5,2580C 2364.33,2581.75 2367.99,2583.75 2371.5,2586C 2354.56,2584.56 2337.56,2584.23 2320.5,2585C 2297.52,2589.41 2274.86,2595.08 2252.5,2602C 2222.91,2612.64 2193.41,2623.47 2164,2634.5C 2165.83,2626.82 2168.83,2619.49 2173,2612.5C 2186.62,2592.54 2202.12,2574.04 2219.5,2557C 2225.91,2553.57 2232.57,2551.07 2239.5,2549.5 Z"/></g>
<g><path style="opacity:1" fill="#e2d2bb" d="M 2032.5,2664.5 C 2051.81,2666.65 2068.48,2674.49 2082.5,2688C 2085.17,2689.33 2087.83,2690.67 2090.5,2692C 2106.58,2695.47 2122.58,2699.14 2138.5,2703C 2142.02,2704.26 2145.02,2706.26 2147.5,2709C 2131.02,2708.84 2114.68,2710.17 2098.5,2713C 2053.52,2722.4 2008.52,2731.57 1963.5,2740.5C 1961.45,2731.23 1962.95,2722.56 1968,2714.5C 1973.5,2709 1979,2703.5 1984.5,2698C 2000.4,2686.58 2016.4,2675.41 2032.5,2664.5 Z"/></g>
<g><path style="opacity:1" fill="#e2d2bb" d="M 1217.5,2674.5 C 1222.78,2673.93 1227.78,2674.76 1232.5,2677C 1247.67,2686.42 1262.67,2696.08 1277.5,2706C 1282.75,2710.58 1287.25,2715.74 1291,2721.5C 1292.68,2726.33 1292.85,2731.16 1291.5,2736C 1286.79,2736.5 1282.13,2736.16 1277.5,2735C 1232.09,2725.58 1186.42,2717.58 1140.5,2711C 1133.5,2710.67 1126.5,2710.33 1119.5,2710C 1122.55,2707.81 1125.89,2706.14 1129.5,2705C 1144.26,2702.46 1158.93,2699.46 1173.5,2696C 1182.81,2690.7 1192.15,2685.37 1201.5,2680C 1206.72,2677.43 1212.05,2675.6 1217.5,2674.5 Z"/></g>
</svg>
