<?xml version="1.0" encoding="UTF-8"?>
<!DOCTYPE svg PUBLIC "-//W3C//DTD SVG 1.1//EN" "http://www.w3.org/Graphics/SVG/1.1/DTD/svg11.dtd">
<svg xmlns="http://www.w3.org/2000/svg" version="1.1" width="3000px" height="3000px" style="shape-rendering:geometricPrecision; text-rendering:geometricPrecision; image-rendering:optimizeQuality; fill-rule:evenodd; clip-rule:evenodd" xmlns:xlink="http://www.w3.org/1999/xlink">
<g><path style="opacity:1" fill="#6db8e8" d="M 739.5,2215.5 C 739.369,2214.76 739.536,2214.09 740,2213.5C 841.294,2323.92 965.794,2394.09 1113.5,2424C 1325.65,2455.07 1510.65,2398.74 1668.5,2255C 1790.79,2137.3 1868.95,1994.8 1903,1827.5C 1930.69,1687.47 1924.02,1549.14 1883,1412.5C 1856.01,1323.84 1820.68,1238.51 1777,1156.5C 1725.85,1062.83 1670.18,972.159 1610,884.5C 1550.72,799.556 1491.06,714.89 1431,630.5C 1398.52,582.532 1366.68,534.199 1335.5,485.5C 1390.65,397.224 1445.31,308.557 1499.5,219.5C 1539.41,308.336 1585.24,393.669 1637,475.5C 1667.92,524.346 1699.59,572.68 1732,620.5C 1795.94,712.11 1860.28,803.444 1925,894.5C 2004.34,1007.12 2077.67,1123.79 2145,1244.5C 2200.18,1345.38 2244.85,1450.71 2279,1560.5C 2350.35,1799.92 2337.35,2034.58 2240,2264.5C 2178.11,2404.47 2087.28,2521.97 1967.5,2617C 1778.61,2759.92 1567.61,2807.92 1334.5,2761C 1196.88,2727.71 1076.55,2663.38 973.5,2568C 868.229,2468.84 790.229,2351.34 739.5,2215.5 Z"/></g>
<g><path style="opacity:1" fill="#73c4ee" d="M 1335.5,485.5 C 1366.68,534.199 1398.52,582.532 1431,630.5C 1491.06,714.89 1550.72,799.556 1610,884.5C 1670.18,972.159 1725.85,1062.83 1777,1156.5C 1820.68,1238.51 1856.01,1323.84 1883,1412.5C 1924.02,1549.14 1930.69,1687.47 1903,1827.5C 1868.95,1994.8 1790.79,2137.3 1668.5,2255C 1510.65,2398.74 1325.65,2455.07 1113.5,2424C 965.794,2394.09 841.294,2323.92 740,2213.5C 739.536,2214.09 739.369,2214.76 739.5,2215.5C 685.094,2070.26 664.927,1920.26 679,1765.5C 688.99,1670.55 710.324,1578.22 743,1488.5C 773.35,1405.13 809.683,1324.47 852,1246.5C 891.815,1173.52 934.148,1102.18 979,1032.5C 1099.66,851.341 1218.5,669.007 1335.5,485.5 Z"/></g>
<g><path style="opacity:1" fill="#f3f7f8" d="M 891.5,1408.5 C 937.099,1406.2 969.599,1425.54 989,1466.5C 1002.78,1512.41 990.28,1549.24 951.5,1577C 924.724,1591.35 897.058,1593.35 868.5,1583C 826.595,1562.03 808.762,1528.2 815,1481.5C 822.655,1449.18 841.822,1426.68 872.5,1414C 878.97,1412.22 885.303,1410.38 891.5,1408.5 Z"/></g>
<g><path style="opacity:1" fill="#f3f7f8" d="M 885.5,1645.5 C 912.333,1642.65 928.5,1654.31 934,1680.5C 936.419,1697.75 937.086,1715.09 936,1732.5C 930.759,1784.89 927.259,1837.39 925.5,1890C 925.443,1955.49 935.61,2019.32 956,2081.5C 973.155,2130.3 991.488,2178.63 1011,2226.5C 1015.15,2238.27 1018.48,2250.27 1021,2262.5C 1027.37,2293.3 1015.2,2311.46 984.5,2317C 957.686,2321.3 932.352,2316.96 908.5,2304C 880.33,2287.5 856.164,2266.34 836,2240.5C 797.527,2188.2 770.86,2130.2 756,2066.5C 737.46,1990.53 733.793,1913.86 745,1836.5C 752.001,1790.86 767.667,1748.52 792,1709.5C 807.839,1685.99 828.339,1667.82 853.5,1655C 863.912,1650.57 874.579,1647.4 885.5,1645.5 Z"/></g>
</svg>
