<?xml version="1.0" encoding="UTF-8"?>
<!DOCTYPE svg PUBLIC "-//W3C//DTD SVG 1.1//EN" "http://www.w3.org/Graphics/SVG/1.1/DTD/svg11.dtd">
<svg xmlns="http://www.w3.org/2000/svg" version="1.1" width="3000px" height="3000px" style="shape-rendering:geometricPrecision; text-rendering:geometricPrecision; image-rendering:optimizeQuality; fill-rule:evenodd; clip-rule:evenodd" xmlns:xlink="http://www.w3.org/1999/xlink">
<g><path style="opacity:0.998" fill="#bb1d24" d="M 1191.5,1064.5 C 1076.95,1033.06 960.286,1013.89 841.5,1007C 701.419,999.467 563.419,1012.8 427.5,1047C 375.912,1060.7 325.578,1077.86 276.5,1098.5C 241.506,951.843 209.006,804.51 179,656.5C 174.118,614.111 188.951,580.611 223.5,556C 265.687,531.989 306.02,534.656 344.5,564C 358.192,575.885 368.026,590.385 374,607.5C 402.132,694.895 430.465,782.229 459,869.5C 455.75,838.501 452.084,807.501 448,776.5C 430.797,670.575 414.297,564.575 398.5,458.5C 402.178,405.665 429.178,371.165 479.5,355C 530.545,345.218 570.378,361.718 599,404.5C 603.159,411.816 606.492,419.483 609,427.5C 637.632,549.362 665.632,671.362 693,793.5C 691.914,763.521 691.081,733.521 690.5,703.5C 692.455,599.799 693.788,496.299 694.5,393C 695.11,367.884 695.943,342.717 697,317.5C 706.726,265.862 736.226,231.029 785.5,213C 836.155,199.205 880.322,210.372 918,246.5C 944.979,276.771 956.813,312.271 953.5,353C 951.398,482.163 949.565,611.33 948,740.5C 946.965,764.855 945.965,789.189 945,813.5C 973.274,721.68 1000.94,629.68 1028,537.5C 1046.98,491.823 1081.31,467.823 1131,465.5C 1177.67,467.532 1211,489.532 1231,531.5C 1238.66,549.439 1241.32,568.105 1239,587.5C 1223.29,746.566 1207.46,905.566 1191.5,1064.5 Z"/></g>
<g><path style="opacity:0.998" fill="#bb1d24" d="M 2722.5,1633.5 C 2579.93,1575.61 2431.59,1544.78 2277.5,1541C 2117.54,1536.58 1960.87,1556.41 1807.5,1600.5C 1790.92,1436.67 1774.58,1272.67 1758.5,1108.5C 1760.77,1066.11 1780.1,1034.28 1816.5,1013C 1859.85,993.004 1900.52,997.337 1938.5,1026C 1952.53,1038.36 1963.03,1053.19 1970,1070.5C 1997.6,1163.29 2025.6,1255.95 2054,1348.5C 2052.97,1326.54 2051.97,1304.54 2051,1282.5C 2048.7,1140.17 2047.03,997.837 2046,855.5C 2055.21,799.246 2087.04,762.746 2141.5,746C 2204.59,733.644 2253.09,754.477 2287,808.5C 2297.34,827.854 2302.67,848.521 2303,870.5C 2304.36,992.675 2306.2,1114.84 2308.5,1237C 2307.6,1267.18 2306.77,1297.34 2306,1327.5C 2333.72,1203.29 2362.39,1079.29 2392,955.5C 2411.37,911.541 2445.21,888.541 2493.5,886.5C 2541.1,889.532 2574.27,912.865 2593,956.5C 2599.48,975.405 2601.15,994.738 2598,1014.5C 2582.57,1110.82 2567.24,1207.15 2552,1303.5C 2547.26,1337.12 2543.26,1370.79 2540,1404.5C 2568,1317.82 2596,1231.16 2624,1144.5C 2639.68,1103.23 2669.51,1080.06 2713.5,1075C 2760.82,1074.71 2794.32,1095.88 2814,1138.5C 2820.27,1155.39 2822.27,1172.72 2820,1190.5C 2789.86,1338.7 2757.36,1486.37 2722.5,1633.5 Z"/></g>
<g><path style="opacity:1" fill="#f6dec9" d="M 705.5,932.5 C 724.701,931.87 731.867,940.87 727,959.5C 719.879,969.201 711.046,971.035 700.5,965C 698.622,963.457 697.122,961.624 696,959.5C 691.431,947.565 694.598,938.565 705.5,932.5 Z"/></g>
<g><path style="opacity:1" fill="#f6dec9" d="M 848.5,939.5 C 865.874,939.041 873.041,947.375 870,964.5C 863.893,975.535 855.06,978.368 843.5,973C 836.818,966.936 834.651,959.436 837,950.5C 839.437,945.226 843.271,941.56 848.5,939.5 Z"/></g>
<g><path style="opacity:1" fill="#f6ddc8" d="M 552.5,954.5 C 569.287,952.457 577.12,959.79 576,976.5C 572.314,987.263 564.814,991.763 553.5,990C 541.27,983.691 538.103,974.191 544,961.5C 546.441,958.546 549.275,956.213 552.5,954.5 Z"/></g>
<g><path style="opacity:1" fill="#f6ddc8" d="M 1001.5,957.5 C 1011.71,956.377 1018.87,960.377 1023,969.5C 1024.53,989.648 1015.69,996.815 996.5,991C 986.309,981.425 985.976,971.425 995.5,961C 997.432,959.541 999.432,958.375 1001.5,957.5 Z"/></g>
<g><path style="opacity:1" fill="#f6dfc9" d="M 1139.5,983.5 C 1158.13,983.318 1164.97,992.318 1160,1010.5C 1152.88,1020.2 1144.05,1022.03 1133.5,1016C 1127.94,1009.86 1126.1,1002.69 1128,994.5C 1130.44,989.226 1134.27,985.56 1139.5,983.5 Z"/></g>
<g><path style="opacity:1" fill="#f6ddc7" d="M 405.5,986.5 C 421.812,986.317 428.646,994.317 426,1010.5C 422.701,1020.38 415.867,1024.55 405.5,1023C 399.13,1021.56 394.963,1017.73 393,1011.5C 389.806,999.219 393.973,990.886 405.5,986.5 Z"/></g>
<g><path style="opacity:1" fill="#f6ddc8" d="M 1191.5,1064.5 C 1191.39,1069.52 1191.05,1074.52 1190.5,1079.5C 1062.62,1044.06 932.288,1024.23 799.5,1020C 619.752,1015.01 446.419,1045.51 279.5,1111.5C 277.718,1107.37 276.718,1103.04 276.5,1098.5C 325.578,1077.86 375.912,1060.7 427.5,1047C 563.419,1012.8 701.419,999.467 841.5,1007C 960.286,1013.89 1076.95,1033.06 1191.5,1064.5 Z"/></g>
<g><path style="opacity:1" fill="#f6dec9" d="M 299.5,1019.5 C 318.354,1020.19 324.854,1029.52 319,1047.5C 312.915,1055.47 305.082,1057.63 295.5,1054C 287.217,1047.72 284.717,1039.55 288,1029.5C 290.818,1024.84 294.651,1021.51 299.5,1019.5 Z"/></g>
<g><path style="opacity:0.999" fill="#bb1e24" d="M 1190.5,1079.5 C 1188.5,1099.5 1186.5,1119.5 1184.5,1139.5C 1105.92,1117.77 1026.26,1100.94 945.5,1089C 793.859,1067.87 642.859,1071.53 492.5,1100C 423.369,1113.77 356.369,1134.27 291.5,1161.5C 287.136,1145.03 283.136,1128.37 279.5,1111.5C 446.419,1045.51 619.752,1015.01 799.5,1020C 932.288,1024.23 1062.62,1044.06 1190.5,1079.5 Z"/></g>
<g><path style="opacity:1" fill="#f6ddc8" d="M 1184.5,1139.5 C 1184.15,1144.68 1183.49,1149.68 1182.5,1154.5C 1059.71,1118.87 934.379,1098.04 806.5,1092C 645.797,1084.3 489.464,1106.64 337.5,1159C 323.135,1164.52 308.802,1170.02 294.5,1175.5C 292.869,1170.98 291.869,1166.31 291.5,1161.5C 356.369,1134.27 423.369,1113.77 492.5,1100C 642.859,1071.53 793.859,1067.87 945.5,1089C 1026.26,1100.94 1105.92,1117.77 1184.5,1139.5 Z"/></g>
<g><path style="opacity:0.999" fill="#bb1f25" d="M 1182.5,1154.5 C 1181.76,1168.91 1180.43,1183.24 1178.5,1197.5C 1070.72,1161.86 960.054,1141.36 846.5,1136C 686.367,1129.31 529.034,1146.98 374.5,1189C 351.075,1195.53 327.742,1202.36 304.5,1209.5C 304.5,1211.17 304.5,1212.83 304.5,1214.5C 300.721,1201.72 297.388,1188.72 294.5,1175.5C 308.802,1170.02 323.135,1164.52 337.5,1159C 489.464,1106.64 645.797,1084.3 806.5,1092C 934.379,1098.04 1059.71,1118.87 1182.5,1154.5 Z"/></g>
<g><path style="opacity:1" fill="#f6ddc8" d="M 1178.5,1197.5 C 1178.25,1202.51 1177.92,1207.51 1177.5,1212.5C 1036.35,1165.84 891.349,1144.67 742.5,1149C 593.523,1153.41 448.19,1178.58 306.5,1224.5C 305.833,1221.17 305.167,1217.83 304.5,1214.5C 304.5,1212.83 304.5,1211.17 304.5,1209.5C 327.742,1202.36 351.075,1195.53 374.5,1189C 529.034,1146.98 686.367,1129.31 846.5,1136C 960.054,1141.36 1070.72,1161.86 1178.5,1197.5 Z"/></g>
<g><path style="opacity:0.999" fill="#bb1d24" d="M 1177.5,1212.5 C 1173.7,1249.14 1170.04,1285.8 1166.5,1322.5C 1166.83,1324.17 1167.17,1325.83 1167.5,1327.5C 1211.34,1303.75 1255.34,1280.25 1299.5,1257C 1335.17,1236 1370.83,1215 1406.5,1194C 1445.55,1172.34 1485.88,1169.67 1527.5,1186C 1576.49,1210.27 1601.83,1249.94 1603.5,1305C 1602.16,1342.67 1587.83,1374.34 1560.5,1400C 1541.3,1418.04 1521.96,1435.87 1502.5,1453.5C 1454.09,1418.66 1400.42,1406.82 1341.5,1418C 1305.44,1428.13 1269.44,1438.46 1233.5,1449C 1189.44,1458.37 1147.44,1452.71 1107.5,1432C 1078.66,1414.41 1050.32,1396.08 1022.5,1377C 962.833,1340.27 900.166,1334.27 834.5,1359C 813.683,1369.57 793.349,1380.91 773.5,1393C 719.055,1421.43 663.388,1424.1 606.5,1401C 590.5,1392.33 574.5,1383.67 558.5,1375C 477.563,1344.16 404.563,1356.99 339.5,1413.5C 335.686,1372.01 330.519,1330.68 324,1289.5C 322.794,1283.14 321.461,1276.81 320,1270.5C 314.874,1255.32 310.374,1239.99 306.5,1224.5C 448.19,1178.58 593.523,1153.41 742.5,1149C 891.349,1144.67 1036.35,1165.84 1177.5,1212.5 Z"/></g>
<g><path style="opacity:1" fill="#f6ddc8" d="M 918.5,1249.5 C 929.755,1246.74 937.922,1250.4 943,1260.5C 945.475,1276.68 938.642,1284.85 922.5,1285C 910.474,1280.45 906.307,1271.95 910,1259.5C 911.978,1255.36 914.811,1252.03 918.5,1249.5 Z"/></g>
<g><path style="opacity:1" fill="#f6dec8" d="M 442.5,1256.5 C 460.835,1255 468.669,1263.33 466,1281.5C 459.278,1292.74 450.112,1295.24 438.5,1289C 431.889,1281.36 430.722,1272.86 435,1263.5C 437.396,1260.93 439.896,1258.6 442.5,1256.5 Z"/></g>
<g><path style="opacity:1" fill="#f6dec8" d="M 1477.5,1314.5 C 1495.76,1314.01 1502.92,1322.68 1499,1340.5C 1493.43,1350.25 1485.26,1353.08 1474.5,1349C 1466.89,1343.44 1464.06,1335.94 1466,1326.5C 1468.02,1320.65 1471.85,1316.65 1477.5,1314.5 Z"/></g>
<g><path style="opacity:1" fill="#f6dec9" d="M 666.5,1343.5 C 684.901,1343.62 691.735,1352.62 687,1370.5C 680.418,1379.78 671.918,1381.94 661.5,1377C 654.818,1370.94 652.651,1363.44 655,1354.5C 657.437,1349.23 661.271,1345.56 666.5,1343.5 Z"/></g>
<g><path style="opacity:1" fill="#f6ddc8" d="M 1502.5,1453.5 C 1499.5,1457.17 1496.17,1460.5 1492.5,1463.5C 1448.04,1432.42 1399.04,1421.92 1345.5,1432C 1311.03,1441.53 1276.7,1451.53 1242.5,1462C 1191.76,1473.62 1143.42,1467.29 1097.5,1443C 1069,1424.92 1040.66,1406.58 1012.5,1388C 960.009,1356.17 904.675,1350.17 846.5,1370C 824.766,1380.03 803.766,1391.37 783.5,1404C 724.043,1436.68 663.043,1440.02 600.5,1414C 589.321,1408.8 578.655,1402.8 568.5,1396C 501.725,1362.18 436.725,1365.18 373.5,1405C 362.347,1413.66 351.68,1422.82 341.5,1432.5C 340.121,1426.38 339.454,1420.05 339.5,1413.5C 404.563,1356.99 477.563,1344.16 558.5,1375C 574.5,1383.67 590.5,1392.33 606.5,1401C 663.388,1424.1 719.055,1421.43 773.5,1393C 793.349,1380.91 813.683,1369.57 834.5,1359C 900.166,1334.27 962.833,1340.27 1022.5,1377C 1050.32,1396.08 1078.66,1414.41 1107.5,1432C 1147.44,1452.71 1189.44,1458.37 1233.5,1449C 1269.44,1438.46 1305.44,1428.13 1341.5,1418C 1400.42,1406.82 1454.09,1418.66 1502.5,1453.5 Z"/></g>
<g><path style="opacity:1" fill="#bb1e24" d="M 1492.5,1463.5 C 1480.16,1475.84 1467.5,1487.84 1454.5,1499.5C 1414.5,1484.98 1373.83,1482.81 1332.5,1493C 1295.52,1504.58 1258.19,1514.91 1220.5,1524C 1178.65,1530.03 1139.32,1522.7 1102.5,1502C 1073.17,1483 1043.83,1464 1014.5,1445C 950.502,1409.46 885.502,1407.46 819.5,1439C 798.316,1451.76 776.65,1463.76 754.5,1475C 706.118,1494.23 657.785,1494.23 609.5,1475C 595.846,1468.17 582.512,1460.84 569.5,1453C 515.612,1427.31 460.612,1424.64 404.5,1445C 382.827,1454.16 363.16,1466.32 345.5,1481.5C 343.781,1465.21 342.448,1448.88 341.5,1432.5C 351.68,1422.82 362.347,1413.66 373.5,1405C 436.725,1365.18 501.725,1362.18 568.5,1396C 578.655,1402.8 589.321,1408.8 600.5,1414C 663.043,1440.02 724.043,1436.68 783.5,1404C 803.766,1391.37 824.766,1380.03 846.5,1370C 904.675,1350.17 960.009,1356.17 1012.5,1388C 1040.66,1406.58 1069,1424.92 1097.5,1443C 1143.42,1467.29 1191.76,1473.62 1242.5,1462C 1276.7,1451.53 1311.03,1441.53 1345.5,1432C 1399.04,1421.92 1448.04,1432.42 1492.5,1463.5 Z"/></g>
<g><path style="opacity:1" fill="#f6ddc7" d="M 1180.5,1379.5 C 1195.16,1378.99 1202.33,1385.99 1202,1400.5C 1199.35,1411.91 1192.18,1417.08 1180.5,1416C 1167.74,1410.06 1164.24,1400.56 1170,1387.5C 1172.54,1383.49 1176.04,1380.82 1180.5,1379.5 Z"/></g>
<g><path style="opacity:1" fill="#f6ddc8" d="M 1454.5,1499.5 C 1450.92,1503.62 1446.92,1507.29 1442.5,1510.5C 1406.1,1499.48 1369.43,1498.65 1332.5,1508C 1300.5,1517.34 1268.5,1526.67 1236.5,1536C 1187.69,1546.17 1141.35,1539.5 1097.5,1516C 1067.9,1497.39 1038.56,1478.39 1009.5,1459C 958.401,1429.32 904.734,1423.66 848.5,1442C 838.259,1446.12 828.259,1450.79 818.5,1456C 799.11,1468.03 779.11,1479.03 758.5,1489C 691.695,1514.79 628.361,1508.12 568.5,1469C 503.115,1435.58 439.115,1437.91 376.5,1476C 365.918,1483.46 355.918,1491.62 346.5,1500.5C 345.81,1494.19 345.476,1487.86 345.5,1481.5C 363.16,1466.32 382.827,1454.16 404.5,1445C 460.612,1424.64 515.612,1427.31 569.5,1453C 582.512,1460.84 595.846,1468.17 609.5,1475C 657.785,1494.23 706.118,1494.23 754.5,1475C 776.65,1463.76 798.316,1451.76 819.5,1439C 885.502,1407.46 950.502,1409.46 1014.5,1445C 1043.83,1464 1073.17,1483 1102.5,1502C 1139.32,1522.7 1178.65,1530.03 1220.5,1524C 1258.19,1514.91 1295.52,1504.58 1332.5,1493C 1373.83,1482.81 1414.5,1484.98 1454.5,1499.5 Z"/></g>
<g><path style="opacity:0.999" fill="#bb1d24" d="M 1442.5,1510.5 C 1400.51,1550.67 1356.84,1588.83 1311.5,1625C 1268.47,1659.21 1224.47,1692.04 1179.5,1723.5C 1179.44,1722.96 1179.11,1722.62 1178.5,1722.5C 1177.5,1723.17 1176.5,1723.83 1175.5,1724.5C 1175.12,1722.98 1174.95,1721.31 1175,1719.5C 1171.07,1721.88 1170.57,1721.05 1173.5,1717C 1170.72,1716.73 1168.55,1717.9 1167,1720.5C 1166.67,1719.5 1166.33,1718.5 1166,1717.5C 1163.62,1719.23 1161.12,1719.56 1158.5,1718.5C 1159.33,1717.55 1159.49,1716.55 1159,1715.5C 1157,1717.5 1155,1719.5 1153,1721.5C 1151.04,1718.05 1149.7,1718.05 1149,1721.5C 1146.67,1719.17 1144.33,1716.83 1142,1714.5C 1142.16,1716.81 1142.16,1719.14 1142,1721.5C 1141,1720.83 1140,1720.17 1139,1719.5C 1138.92,1721.66 1138.76,1723.66 1138.5,1725.5C 1136.14,1723.98 1134.31,1721.98 1133,1719.5C 1132.67,1722.17 1132.33,1724.83 1132,1727.5C 1130.71,1725.21 1129.04,1723.21 1127,1721.5C 1127.02,1723.11 1127.19,1724.77 1127.5,1726.5C 1126.18,1726.33 1125.01,1726.66 1124,1727.5C 1124,1725.5 1124,1723.5 1124,1721.5C 1122.09,1723.66 1120.42,1725.99 1119,1728.5C 1118.33,1726.5 1117.67,1724.5 1117,1722.5C 1115,1725.17 1113,1727.83 1111,1730.5C 1112.71,1723.29 1111.38,1722.29 1107,1727.5C 1106.84,1725.14 1106.84,1722.81 1107,1720.5C 1105.65,1722.02 1104.15,1723.35 1102.5,1724.5C 1100.27,1723.04 1097.94,1722.2 1095.5,1722C 1098.5,1724.22 1098.66,1726.05 1096,1727.5C 1086.68,1725.73 1078.01,1722.4 1070,1717.5C 1070.93,1719.71 1071.59,1722.04 1072,1724.5C 1066.36,1719.86 1060.03,1716.53 1053,1714.5C 1052.17,1714.83 1051.33,1715.17 1050.5,1715.5C 1051.83,1717.17 1053.17,1718.83 1054.5,1720.5C 1050.1,1720.54 1045.93,1719.2 1042,1716.5C 1041.79,1719.27 1042.62,1721.77 1044.5,1724C 1039.03,1722.86 1033.86,1720.69 1029,1717.5C 1027.48,1719.74 1026.14,1722.07 1025,1724.5C 1021.55,1720.85 1017.38,1719.02 1012.5,1719C 1013.26,1720.51 1014.26,1721.85 1015.5,1723C 1012.12,1723.82 1008.78,1723.66 1005.5,1722.5C 1006.04,1721.25 1006.71,1720.09 1007.5,1719C 1002.86,1718.93 999.031,1720.76 996,1724.5C 995.115,1722 993.948,1719.67 992.5,1717.5C 988.072,1720.73 983.405,1722.73 978.5,1723.5C 980.249,1721.42 981.082,1719.08 981,1716.5C 977.517,1718.99 973.684,1720.16 969.5,1720C 970.956,1718.26 972.289,1716.42 973.5,1714.5C 973,1714.17 972.5,1713.83 972,1713.5C 966.813,1715.51 961.979,1718.18 957.5,1721.5C 956.5,1721 955.5,1720.5 954.5,1720C 955.451,1719.28 955.617,1718.45 955,1717.5C 954.311,1718.36 953.478,1719.02 952.5,1719.5C 948.304,1718.15 944.471,1716.15 941,1713.5C 941.079,1715.85 941.912,1718.01 943.5,1720C 943.167,1720.17 942.833,1720.33 942.5,1720.5C 936.915,1715.54 930.582,1711.87 923.5,1709.5C 922.833,1709.67 922.167,1709.83 921.5,1710C 923.405,1711.82 925.072,1713.82 926.5,1716C 922.286,1716.26 918.452,1715.1 915,1712.5C 914.571,1714.67 915.071,1716.67 916.5,1718.5C 911.397,1718.38 906.897,1716.38 903,1712.5C 901.928,1715.22 900.762,1717.88 899.5,1720.5C 896.67,1717.17 893.17,1714.84 889,1713.5C 888.5,1713.67 888,1713.83 887.5,1714C 890.788,1717.19 890.121,1718.69 885.5,1718.5C 881.169,1718.64 880.502,1717.31 883.5,1714.5C 883,1714.17 882.5,1713.83 882,1713.5C 877.6,1714.95 873.766,1717.28 870.5,1720.5C 869.424,1718.01 868.09,1715.68 866.5,1713.5C 861.824,1716.52 856.824,1718.35 851.5,1719C 853.319,1716.94 853.985,1714.78 853.5,1712.5C 849.737,1715.11 845.737,1716.11 841.5,1715.5C 842.833,1713.83 844.167,1712.17 845.5,1710.5C 841.605,1709.73 837.938,1710.56 834.5,1713C 830.996,1714.92 827.663,1717.08 824.5,1719.5C 824.167,1719.17 823.833,1718.83 823.5,1718.5C 824.64,1716.92 825.14,1715.26 825,1713.5C 821.403,1716.26 817.403,1718.26 813,1719.5C 809.264,1717.25 805.264,1715.59 801,1714.5C 798.759,1714.68 798.259,1715.51 799.5,1717C 796.209,1719.07 793.043,1718.91 790,1716.5C 789.349,1718.24 789.515,1719.9 790.5,1721.5C 790.167,1722.5 789.5,1723.17 788.5,1723.5C 784.5,1721.5 780.5,1719.5 776.5,1717.5C 775.424,1719.99 774.09,1722.32 772.5,1724.5C 769.17,1720.96 765.17,1719.12 760.5,1719C 761.293,1720.09 761.96,1721.25 762.5,1722.5C 759.216,1723.66 755.882,1723.82 752.5,1723C 753.743,1721.85 754.743,1720.51 755.5,1719C 750.864,1718.93 747.031,1720.76 744,1724.5C 742.855,1722.07 741.522,1719.74 740,1717.5C 736.076,1720.21 731.909,1722.55 727.5,1724.5C 727.754,1722.25 727.754,1719.91 727.5,1717.5C 724.327,1719.27 720.994,1720.1 717.5,1720C 718.64,1718.03 719.973,1716.19 721.5,1714.5C 717.929,1713.75 714.595,1714.58 711.5,1717C 707.912,1719.38 704.412,1721.88 701,1724.5C 701.408,1722.04 702.074,1719.71 703,1717.5C 697.286,1723.09 691.953,1722.76 687,1716.5C 687.709,1719.19 688.375,1721.85 689,1724.5C 683.243,1718.71 676.41,1715.21 668.5,1714C 670.046,1716.26 671.712,1718.42 673.5,1720.5C 669.406,1720.57 665.572,1719.23 662,1716.5C 661.623,1719.37 662.456,1721.87 664.5,1724C 659.286,1723.23 654.619,1721.06 650.5,1717.5C 648.91,1719.68 647.576,1722.01 646.5,1724.5C 643.977,1721.74 640.977,1719.74 637.5,1718.5C 636.833,1718.83 636.167,1719.17 635.5,1719.5C 636.167,1720.5 636.833,1721.5 637.5,1722.5C 634.216,1723.66 630.882,1723.82 627.5,1723C 629.631,1721.11 629.631,1719.61 627.5,1718.5C 623.873,1719.98 620.54,1721.98 617.5,1724.5C 616.424,1722.01 615.09,1719.68 613.5,1717.5C 608.551,1720.76 603.217,1722.92 597.5,1724C 599.878,1721.79 600.878,1719.29 600.5,1716.5C 596.359,1718.78 592.025,1720.28 587.5,1721C 589.5,1718.67 591.5,1716.33 593.5,1714C 587.759,1714.36 582.425,1716.19 577.5,1719.5C 573.215,1716.19 568.549,1714.52 563.5,1714.5C 564.833,1716.17 566.167,1717.83 567.5,1719.5C 563.988,1720.34 560.655,1719.68 557.5,1717.5C 556.422,1719.47 556.755,1721.31 558.5,1723C 553.453,1722.73 548.953,1720.9 545,1717.5C 543.337,1719.16 542.504,1721.16 542.5,1723.5C 538.742,1722.12 535.075,1720.46 531.5,1718.5C 530.833,1718.67 530.167,1718.83 529.5,1719C 530.743,1720.15 531.743,1721.49 532.5,1723C 529.118,1723.82 525.784,1723.66 522.5,1722.5C 523.167,1721.5 523.833,1720.5 524.5,1719.5C 523.833,1719.17 523.167,1718.83 522.5,1718.5C 518.541,1719.48 515.208,1721.48 512.5,1724.5C 511,1722.17 509.5,1719.83 508,1717.5C 503.139,1720.69 497.972,1722.86 492.5,1724C 494.922,1722 495.755,1719.5 495,1716.5C 491.502,1719.29 487.668,1720.29 483.5,1719.5C 484.833,1717.83 486.167,1716.17 487.5,1714.5C 483.698,1714.03 480.032,1714.86 476.5,1717C 472.411,1719.13 468.577,1721.63 465,1724.5C 465.926,1722.29 466.592,1719.96 467,1717.5C 462.132,1720.79 456.799,1723.13 451,1724.5C 449.037,1723.37 447.204,1722.04 445.5,1720.5C 445.649,1722.39 445.649,1724.39 445.5,1726.5C 444.148,1725.48 442.815,1724.48 441.5,1723.5C 440.464,1721.31 438.964,1721.31 437,1723.5C 436.667,1723.17 436.333,1722.83 436,1722.5C 435.653,1724.18 434.653,1725.18 433,1725.5C 431.674,1724.2 430.34,1722.87 429,1721.5C 429,1723.5 429,1725.5 429,1727.5C 427.989,1726.66 426.822,1726.33 425.5,1726.5C 425.815,1724.77 425.981,1723.11 426,1721.5C 424.315,1723.02 422.815,1724.68 421.5,1726.5C 420.686,1724.23 420.186,1721.9 420,1719.5C 418.667,1722.17 416.667,1724.17 414,1725.5C 414.305,1723.56 414.305,1721.56 414,1719.5C 408.925,1722.53 408.092,1721.53 411.5,1716.5C 411.167,1716.17 410.833,1715.83 410.5,1715.5C 407.478,1717.69 404.978,1720.35 403,1723.5C 403.195,1721.87 403.195,1720.21 403,1718.5C 400.278,1721.44 397.111,1723.78 393.5,1725.5C 392.669,1723.53 392.502,1721.53 393,1719.5C 390.993,1722.34 388.826,1725 386.5,1727.5C 385.243,1725.32 383.743,1723.32 382,1721.5C 382.077,1722.74 381.911,1723.74 381.5,1724.5C 378.864,1723.03 376.364,1721.36 374,1719.5C 373.667,1720.17 373.333,1720.83 373,1721.5C 371,1719.5 369,1717.5 367,1715.5C 366.508,1716.55 366.674,1717.55 367.5,1718.5C 365.201,1719.76 363.201,1719.42 361.5,1717.5C 357.693,1645.06 352.693,1572.73 346.5,1500.5C 355.918,1491.62 365.918,1483.46 376.5,1476C 439.115,1437.91 503.115,1435.58 568.5,1469C 628.361,1508.12 691.695,1514.79 758.5,1489C 779.11,1479.03 799.11,1468.03 818.5,1456C 828.259,1450.79 838.259,1446.12 848.5,1442C 904.734,1423.66 958.401,1429.32 1009.5,1459C 1038.56,1478.39 1067.9,1497.39 1097.5,1516C 1141.35,1539.5 1187.69,1546.17 1236.5,1536C 1268.5,1526.67 1300.5,1517.34 1332.5,1508C 1369.43,1498.65 1406.1,1499.48 1442.5,1510.5 Z"/></g>
<g><path style="opacity:1" fill="#f6dec8" d="M 2281.5,1467.5 C 2298.78,1466.28 2306.28,1474.28 2304,1491.5C 2299.01,1502.17 2290.85,1505.67 2279.5,1502C 2269.7,1495.27 2267.2,1486.43 2272,1475.5C 2274.77,1472.22 2277.94,1469.55 2281.5,1467.5 Z"/></g>
<g><path style="opacity:1" fill="#f6dec8" d="M 2140.5,1474.5 C 2158.88,1474.56 2165.71,1483.56 2161,1501.5C 2154.42,1510.78 2145.92,1512.94 2135.5,1508C 2126.87,1500.46 2125.37,1491.63 2131,1481.5C 2133.53,1478.12 2136.7,1475.78 2140.5,1474.5 Z"/></g>
<g><path style="opacity:1" fill="#f6dec8" d="M 2433.5,1489.5 C 2453.9,1488.63 2461.07,1497.96 2455,1517.5C 2445.63,1527.73 2435.97,1528.06 2426,1518.5C 2419.4,1506.31 2421.9,1496.64 2433.5,1489.5 Z"/></g>
<g><path style="opacity:1" fill="#f6dec8" d="M 1988.5,1492.5 C 1998.33,1491.59 2005.16,1495.59 2009,1504.5C 2011.45,1522.72 2003.61,1530.55 1985.5,1528C 1976.15,1522.44 1972.98,1514.27 1976,1503.5C 1978.5,1497.82 1982.67,1494.16 1988.5,1492.5 Z"/></g>
<g><path style="opacity:1" fill="#f6dec8" d="M 1847.5,1518.5 C 1866.65,1517.15 1874.15,1525.81 1870,1544.5C 1864.42,1553.36 1856.59,1556.2 1846.5,1553C 1835.52,1544.91 1833.69,1535.07 1841,1523.5C 1842.97,1521.45 1845.13,1519.78 1847.5,1518.5 Z"/></g>
<g><path style="opacity:1" fill="#f6dec8" d="M 2581.5,1522.5 C 2592.76,1519.74 2600.92,1523.4 2606,1533.5C 2607.35,1554.15 2598.18,1561.32 2578.5,1555C 2568.47,1543.11 2569.47,1532.28 2581.5,1522.5 Z"/></g>
<g><path style="opacity:1" fill="#f6ddc8" d="M 2722.5,1633.5 C 2721.75,1638.23 2720.75,1642.89 2719.5,1647.5C 2598.26,1597.92 2472.26,1568.42 2341.5,1559C 2160.54,1546.38 1982.87,1564.88 1808.5,1614.5C 1807.69,1609.88 1807.35,1605.21 1807.5,1600.5C 1960.87,1556.41 2117.54,1536.58 2277.5,1541C 2431.59,1544.78 2579.93,1575.61 2722.5,1633.5 Z"/></g>
<g><path style="opacity:1" fill="#f6dec8" d="M 2689.5,1554.5 C 2705.6,1553.76 2713.1,1561.43 2712,1577.5C 2706.64,1590.4 2697.47,1593.9 2684.5,1588C 2676.27,1579.14 2675.44,1569.64 2682,1559.5C 2684.43,1557.55 2686.93,1555.88 2689.5,1554.5 Z"/></g>
<g><path style="opacity:0.999" fill="#bb1e24" d="M 2719.5,1647.5 C 2715.35,1663.78 2711.35,1680.11 2707.5,1696.5C 2594.6,1650.55 2477.26,1623.38 2355.5,1615C 2199.43,1603.81 2045.43,1616.81 1893.5,1654C 1867.4,1660.52 1841.4,1667.36 1815.5,1674.5C 1815.5,1677.17 1815.5,1679.83 1815.5,1682.5C 1812.78,1660.02 1810.45,1637.35 1808.5,1614.5C 1982.87,1564.88 2160.54,1546.38 2341.5,1559C 2472.26,1568.42 2598.26,1597.92 2719.5,1647.5 Z"/></g>
<g><path style="opacity:1" fill="#f6dec8" d="M 538.5,1598.5 C 557.121,1597.62 564.288,1606.29 560,1624.5C 553.892,1634.74 545.392,1637.24 534.5,1632C 524.716,1622.61 524.049,1612.61 532.5,1602C 534.432,1600.54 536.432,1599.37 538.5,1598.5 Z"/></g>
<g><path style="opacity:1" fill="#f6dec8" d="M 702.5,1598.5 C 719.317,1597.15 726.817,1604.82 725,1621.5C 718.924,1634.64 709.424,1637.8 696.5,1631C 689.267,1622.18 688.767,1613.01 695,1603.5C 697.426,1601.55 699.926,1599.88 702.5,1598.5 Z"/></g>
<g><path style="opacity:1" fill="#f6dec8" d="M 855.5,1598.5 C 871.087,1597.59 878.587,1604.92 878,1620.5C 873.698,1633.05 865.198,1637.22 852.5,1633C 843.773,1626.47 841.273,1617.97 845,1607.5C 847.489,1603.17 850.989,1600.17 855.5,1598.5 Z"/></g>
<g><path style="opacity:1" fill="#f6dec9" d="M 417.5,1605.5 C 431.923,1603.93 440.257,1610.27 442.5,1624.5C 441.404,1631.54 437.737,1636.7 431.5,1640C 414.794,1645.33 405.127,1639.49 402.5,1622.5C 403.627,1613.37 408.627,1607.71 417.5,1605.5 Z"/></g>
<g><path style="opacity:1" fill="#f6dec8" d="M 1005.5,1605.5 C 1024.32,1606.16 1030.82,1615.5 1025,1633.5C 1023.09,1637.04 1020.26,1639.54 1016.5,1641C 998.698,1643.2 990.865,1635.37 993,1617.5C 995.222,1611.32 999.389,1607.32 1005.5,1605.5 Z"/></g>
<g><path style="opacity:1" fill="#f6ddc8" d="M 2707.5,1696.5 C 2706.61,1701.72 2705.28,1706.72 2703.5,1711.5C 2679.11,1700.75 2654.11,1691.25 2628.5,1683C 2462.97,1632.71 2293.97,1615.38 2121.5,1631C 2017.59,1640.72 1915.59,1660.22 1815.5,1689.5C 1815.5,1687.17 1815.5,1684.83 1815.5,1682.5C 1815.5,1679.83 1815.5,1677.17 1815.5,1674.5C 1841.4,1667.36 1867.4,1660.52 1893.5,1654C 2045.43,1616.81 2199.43,1603.81 2355.5,1615C 2477.26,1623.38 2594.6,1650.55 2707.5,1696.5 Z"/></g>
<g><path style="opacity:0.999" fill="#bb1f25" d="M 2703.5,1711.5 C 2700.83,1722.83 2698.17,1734.17 2695.5,1745.5C 2528.42,1691.7 2357.09,1666.53 2181.5,1670C 2058.59,1672.62 1938.75,1693.12 1822,1731.5C 1820.97,1731.84 1820.47,1732.5 1820.5,1733.5C 1818.71,1718.98 1817.05,1704.32 1815.5,1689.5C 1915.59,1660.22 2017.59,1640.72 2121.5,1631C 2293.97,1615.38 2462.97,1632.71 2628.5,1683C 2654.11,1691.25 2679.11,1700.75 2703.5,1711.5 Z"/></g>
<g><path style="opacity:1" fill="#f6dec8" d="M 1164.5,1627.5 C 1181.28,1626.12 1188.78,1633.78 1187,1650.5C 1183.19,1661 1175.69,1665.16 1164.5,1663C 1153.69,1657.68 1150.19,1649.18 1154,1637.5C 1156.11,1632.56 1159.61,1629.22 1164.5,1627.5 Z"/></g>
<g><path style="opacity:1" fill="#f6ddc8" d="M 2695.5,1745.5 C 2694.46,1750.36 2693.12,1755.02 2691.5,1759.5C 2517.59,1703.63 2339.26,1678.8 2156.5,1685C 2041.98,1690.2 1930.32,1710.7 1821.5,1746.5C 1820.71,1742.21 1820.37,1737.88 1820.5,1733.5C 1820.47,1732.5 1820.97,1731.84 1822,1731.5C 1938.75,1693.12 2058.59,1672.62 2181.5,1670C 2357.09,1666.53 2528.42,1691.7 2695.5,1745.5 Z"/></g>
<g><path style="opacity:0.999" fill="#bb1d24" d="M 2691.5,1759.5 C 2685.53,1780.36 2680.03,1801.36 2675,1822.5C 2668.19,1864.3 2663.02,1906.3 2659.5,1948.5C 2649.35,1940.52 2639.01,1932.69 2628.5,1925C 2567.15,1888.27 2503.49,1883.61 2437.5,1911C 2422.42,1919.74 2407.09,1928.07 2391.5,1936C 2350.59,1953.2 2308.59,1956.2 2265.5,1945C 2250.84,1940.56 2236.84,1934.56 2223.5,1927C 2204.11,1914.97 2184.11,1903.97 2163.5,1894C 2099.48,1869.8 2038.15,1875.14 1979.5,1910C 1952,1928.25 1924.34,1946.25 1896.5,1964C 1852.15,1988.14 1805.49,1994.14 1756.5,1982C 1723.24,1972.14 1689.91,1962.47 1656.5,1953C 1597.63,1941.92 1543.96,1953.75 1495.5,1988.5C 1478,1971.84 1460.34,1955.34 1442.5,1939C 1396.1,1895.56 1384.27,1844.06 1407,1784.5C 1435.23,1731.02 1479.73,1706.52 1540.5,1711C 1557.57,1713.13 1573.57,1718.47 1588.5,1727C 1626.5,1749.33 1664.5,1771.67 1702.5,1794C 1745.47,1816.82 1788.47,1839.65 1831.5,1862.5C 1831.83,1861.17 1832.17,1859.83 1832.5,1858.5C 1828.57,1821.19 1824.9,1783.85 1821.5,1746.5C 1930.32,1710.7 2041.98,1690.2 2156.5,1685C 2339.26,1678.8 2517.59,1703.63 2691.5,1759.5 Z"/></g>
<g><path style="opacity:0.998" fill="#f0cdab" d="M 1179.5,1723.5 C 1179.26,1727.1 1180.26,1727.43 1182.5,1724.5C 1183.28,1725.73 1183.78,1727.06 1184,1728.5C 1184.63,1724.86 1185.79,1724.86 1187.5,1728.5C 1188.19,1727.97 1188.69,1727.31 1189,1726.5C 1189.86,1728.09 1190.53,1729.75 1191,1731.5C 1191.61,1727.73 1192.61,1727.73 1194,1731.5C 1194.68,1730.22 1194.52,1729.05 1193.5,1728C 1194.45,1727.38 1195.28,1727.55 1196,1728.5C 1199.02,1731.39 1201.36,1735.39 1203,1740.5C 1203.67,1741.17 1204.33,1741.83 1205,1742.5C 1204.37,1737.3 1205.2,1737.3 1207.5,1742.5C 1208.91,1743.62 1210.41,1744.62 1212,1745.5C 1215.12,1751.54 1217.46,1757.87 1219,1764.5C 1225.36,1793.75 1229.36,1823.42 1231,1853.5C 1232.25,1858.26 1234.08,1862.76 1236.5,1867C 1235.5,1867.33 1234.5,1867.67 1233.5,1868C 1237.02,1874.91 1239.52,1882.07 1241,1889.5C 1239.63,1887.19 1238.8,1887.19 1238.5,1889.5C 1239.87,1897.66 1241.87,1905.66 1244.5,1913.5C 1243.83,1913.83 1243.17,1914.17 1242.5,1914.5C 1244.78,1920 1246.45,1925.67 1247.5,1931.5C 1246.73,1932.71 1245.89,1932.71 1245,1931.5C 1244.92,1934.37 1245.42,1937.2 1246.5,1940C 1245.35,1940.76 1244.35,1941.43 1243.5,1942C 1244.53,1945.81 1245.87,1949.47 1247.5,1953C 1245.99,1954.35 1244.99,1956.02 1244.5,1958C 1247.34,1962.61 1247.67,1967.28 1245.5,1972C 1248.16,1975.71 1248.16,1980.21 1245.5,1985.5C 1246.91,1986.24 1248.24,1987.08 1249.5,1988C 1247.97,1991.69 1247.47,1995.52 1248,1999.5C 1248.89,1998.29 1249.73,1998.29 1250.5,1999.5C 1249.45,2002.8 1248.95,2006.13 1249,2009.5C 1249.67,2008.17 1250.33,2006.83 1251,2005.5C 1251.69,2011.26 1251.19,2016.93 1249.5,2022.5C 1249.67,2023.17 1249.83,2023.83 1250,2024.5C 1250.65,2023.3 1251.15,2023.3 1251.5,2024.5C 1249.27,2032.69 1248.43,2041.03 1249,2049.5C 1249.42,2048.33 1250.09,2047.33 1251,2046.5C 1250.32,2053.58 1248.82,2060.58 1246.5,2067.5C 1246.67,2068.17 1246.83,2068.83 1247,2069.5C 1247.65,2068.3 1248.15,2068.3 1248.5,2069.5C 1246.24,2077.2 1244.58,2085.03 1243.5,2093C 1243.84,2094.37 1244.51,2095.53 1245.5,2096.5C 1243.68,2103.46 1241.18,2110.13 1238,2116.5C 1237.62,2132.39 1235.62,2148.05 1232,2163.5C 1228.54,2176.95 1220.71,2186.78 1208.5,2193C 1207.03,2196.93 1205.86,2197.1 1205,2193.5C 1200.33,2198.17 1196.67,2203.51 1194,2209.5C 1194.31,2207.56 1194.31,2205.56 1194,2203.5C 1191.8,2208.86 1188.97,2213.86 1185.5,2218.5C 1184.95,2216.59 1184.78,2214.59 1185,2212.5C 1180.67,2215.5 1177,2219.17 1174,2223.5C 1173.67,2222.83 1173.33,2222.17 1173,2221.5C 1171.36,2224.31 1169.19,2226.64 1166.5,2228.5C 1165.95,2226.59 1165.78,2224.59 1166,2222.5C 1162.19,2227.82 1160.85,2227.16 1162,2220.5C 1159.96,2222.21 1158.29,2224.21 1157,2226.5C 1156.33,2224.5 1155.67,2222.5 1155,2220.5C 1154.22,2223.08 1152.72,2225.08 1150.5,2226.5C 1149.9,2225.28 1149.74,2223.95 1150,2222.5C 1148.21,2227.63 1146.21,2227.63 1144,2222.5C 1143.03,2224.39 1142.36,2226.39 1142,2228.5C 1140.65,2227.31 1139.48,2225.98 1138.5,2224.5C 1137.7,2226.08 1137.2,2227.74 1137,2229.5C 1135.89,2227.67 1134.39,2226.84 1132.5,2227C 1133.86,2228.58 1134.53,2230.42 1134.5,2232.5C 1131.74,2232.26 1129.57,2230.92 1128,2228.5C 1127.94,2230.88 1127.1,2231.55 1125.5,2230.5C 1122.57,2231.93 1120.07,2233.93 1118,2236.5C 1118.53,2233.89 1118.87,2231.22 1119,2228.5C 1112.13,2235.2 1104.29,2240.54 1095.5,2244.5C 1095.4,2242.17 1096.4,2240 1098.5,2238C 1087.85,2239.11 1078.02,2242.61 1069,2248.5C 1069.41,2246.04 1070.07,2243.71 1071,2241.5C 1064.65,2246.94 1057.49,2249.94 1049.5,2250.5C 1050.25,2248.25 1051.59,2246.41 1053.5,2245C 1048.87,2245.1 1044.71,2246.6 1041,2249.5C 1040.62,2246.63 1041.46,2244.13 1043.5,2242C 1038.2,2242.89 1033.37,2245.06 1029,2248.5C 1027.29,2246.04 1025.96,2243.38 1025,2240.5C 1021.53,2244.99 1017.03,2246.82 1011.5,2246C 1012.26,2244.49 1013.26,2243.15 1014.5,2242C 1014.17,2241.83 1013.83,2241.67 1013.5,2241.5C 1011.2,2241.87 1009.03,2241.87 1007,2241.5C 1006.74,2243.16 1007.24,2244.66 1008.5,2246C 1003.37,2246.52 999.203,2244.69 996,2240.5C 995.197,2243.24 994.197,2245.91 993,2248.5C 988.859,2245.34 984.359,2243.18 979.5,2242C 981.282,2244.24 981.782,2246.74 981,2249.5C 978.196,2246.24 974.696,2244.74 970.5,2245C 971.64,2246.97 972.973,2248.81 974.5,2250.5C 974,2250.83 973.5,2251.17 973,2251.5C 967.195,2250.13 961.862,2247.79 957,2244.5C 956.5,2244.83 956,2245.17 955.5,2245.5C 956.915,2248.21 956.581,2248.71 954.5,2247C 948.954,2247.1 943.954,2248.93 939.5,2252.5C 939.711,2250.96 939.711,2249.29 939.5,2247.5C 934.823,2251.09 929.656,2253.76 924,2255.5C 923.167,2255.17 922.333,2254.83 921.5,2254.5C 922.711,2252.58 924.044,2250.74 925.5,2249C 921.369,2249.21 917.702,2250.71 914.5,2253.5C 914.167,2253 913.833,2252.5 913.5,2252C 914.451,2249.84 914.951,2247.67 915,2245.5C 910.836,2247.58 906.836,2249.91 903,2252.5C 901.855,2250.07 900.522,2247.74 899,2245.5C 895.738,2249.06 891.904,2250.73 887.5,2250.5C 888.04,2249.25 888.707,2248.09 889.5,2247C 886.833,2246.33 884.167,2246.33 881.5,2247C 883.421,2248.24 883.754,2249.74 882.5,2251.5C 877.66,2250.83 873.827,2248.5 871,2244.5C 869.753,2247.33 868.253,2250 866.5,2252.5C 862.517,2249.32 858.184,2247.65 853.5,2247.5C 855.545,2252.99 854.545,2254.16 850.5,2251C 842.241,2246.59 840.908,2247.75 846.5,2254.5C 838.681,2254.44 831.681,2251.77 825.5,2246.5C 825.167,2246.67 824.833,2246.83 824.5,2247C 826.088,2248.99 826.921,2251.15 827,2253.5C 822.456,2249.92 817.79,2247.25 813,2245.5C 807.934,2249.14 802.434,2250.8 796.5,2250.5C 799.149,2248.06 798.483,2246.73 794.5,2246.5C 792.303,2246.85 790.47,2247.85 789,2249.5C 788.666,2247.15 788.833,2244.82 789.5,2242.5C 784.539,2243.15 780.206,2245.15 776.5,2248.5C 775.063,2245.96 773.897,2243.29 773,2240.5C 769.289,2244.44 764.789,2246.28 759.5,2246C 760.765,2244.66 761.265,2243.16 761,2241.5C 758.452,2241.54 755.952,2241.71 753.5,2242C 754.257,2243.51 755.257,2244.85 756.5,2246C 751.37,2246.52 747.203,2244.69 744,2240.5C 742.928,2243.22 741.762,2245.88 740.5,2248.5C 736.609,2245.22 732.275,2243.05 727.5,2242C 729.037,2244.31 729.537,2246.81 729,2249.5C 725.954,2246.72 722.454,2245.22 718.5,2245C 719.833,2247 721.167,2249 722.5,2251C 715.043,2250.59 708.543,2247.75 703,2242.5C 702.86,2244.26 703.36,2245.92 704.5,2247.5C 704.167,2247.83 703.833,2248.17 703.5,2248.5C 701.062,2246.2 698.229,2244.53 695,2243.5C 691.771,2244.53 688.938,2246.2 686.5,2248.5C 686.269,2246.7 686.935,2244.87 688.5,2243C 685.199,2243.82 682.199,2245.49 679.5,2248C 676.062,2250.44 672.395,2251.27 668.5,2250.5C 669.253,2248.25 670.586,2246.41 672.5,2245C 668.12,2244.93 664.287,2246.43 661,2249.5C 661.135,2246.78 661.468,2244.11 662,2241.5C 657.836,2243.58 653.836,2245.91 650,2248.5C 648.667,2245.83 647.333,2243.17 646,2240.5C 642.986,2244.6 639.153,2246.27 634.5,2245.5C 635.833,2244.38 636.333,2243.05 636,2241.5C 633.452,2241.54 630.952,2241.71 628.5,2242C 629.257,2243.51 630.257,2244.85 631.5,2246C 625.971,2246.82 621.471,2244.99 618,2240.5C 616.673,2243.13 615.34,2245.8 614,2248.5C 609.271,2244.85 604.438,2242.69 599.5,2242C 601.282,2244.24 601.782,2246.74 601,2249.5C 597.566,2246.8 593.732,2245.3 589.5,2245C 590.64,2246.97 591.973,2248.81 593.5,2250.5C 589.378,2251.18 585.545,2250.18 582,2247.5C 581.667,2247.83 581.333,2248.17 581,2248.5C 579.981,2247.31 578.814,2246.31 577.5,2245.5C 573.076,2249.05 568.076,2250.88 562.5,2251C 563.64,2249.03 564.973,2247.19 566.5,2245.5C 562.607,2245.17 559.107,2246.51 556,2249.5C 555.463,2246.81 555.963,2244.31 557.5,2242C 552.805,2242.93 548.639,2245.1 545,2248.5C 543.585,2246.04 542.085,2243.71 540.5,2241.5C 537.272,2245.26 533.272,2246.76 528.5,2246C 529.743,2244.85 530.743,2243.51 531.5,2242C 529.048,2241.71 526.548,2241.54 524,2241.5C 523.667,2243.05 524.167,2244.38 525.5,2245.5C 520.236,2246.3 515.736,2244.63 512,2240.5C 511.103,2243.29 509.937,2245.96 508.5,2248.5C 504.204,2245.77 499.704,2243.44 495,2241.5C 495.904,2244.03 496.238,2246.69 496,2249.5C 492.496,2246.61 488.663,2245.28 484.5,2245.5C 485.833,2247.17 487.167,2248.83 488.5,2250.5C 487.667,2250.83 486.833,2251.17 486,2251.5C 479.149,2249.57 472.815,2246.57 467,2242.5C 467.333,2244.5 467.667,2246.5 468,2248.5C 459.225,2242.63 449.725,2239.3 439.5,2238.5C 440.711,2240.42 442.044,2242.26 443.5,2244C 440.298,2243.91 437.298,2242.91 434.5,2241C 429.65,2237.64 424.983,2234.14 420.5,2230.5C 419.678,2228.27 418.345,2227.61 416.5,2228.5C 416.855,2229.52 417.522,2230.19 418.5,2230.5C 419.014,2232.51 419.18,2234.51 419,2236.5C 416.963,2234.29 414.797,2232.29 412.5,2230.5C 410.126,2228.22 407.293,2226.56 404,2225.5C 402.739,2225.76 401.739,2226.43 401,2227.5C 400.667,2226.5 400.333,2225.5 400,2224.5C 398.668,2226.66 397.168,2228.66 395.5,2230.5C 394.573,2232.48 393.24,2232.81 391.5,2231.5C 394.534,2225.93 393.701,2225.27 389,2229.5C 388.667,2227.5 388.333,2225.5 388,2223.5C 386.907,2225.35 385.574,2227.02 384,2228.5C 383.64,2226.39 382.973,2224.39 382,2222.5C 378.864,2227.88 377.697,2227.71 378.5,2222C 377.552,2221.52 376.552,2221.35 375.5,2221.5C 376.052,2223.33 376.052,2225 375.5,2226.5C 373.282,2225.08 371.782,2223.08 371,2220.5C 370.333,2222.5 369.667,2224.5 369,2226.5C 367.333,2224.5 365.667,2222.5 364,2220.5C 363.257,2222.44 363.424,2224.27 364.5,2226C 364.167,2226.17 363.833,2226.33 363.5,2226.5C 362.52,2225.02 361.353,2223.69 360,2222.5C 360.218,2224.59 360.051,2226.59 359.5,2228.5C 356.81,2226.64 354.644,2224.31 353,2221.5C 352.667,2222.5 352.333,2223.5 352,2224.5C 349.247,2219.66 345.58,2215.66 341,2212.5C 341.155,2214.81 341.155,2217.14 341,2219.5C 337.479,2214.46 334.479,2209.13 332,2203.5C 331.695,2205.56 331.695,2207.56 332,2209.5C 329.093,2203.36 325.426,2197.69 321,2192.5C 321.035,2196.25 320.035,2196.91 318,2194.5C 316.667,2191.17 315.333,2187.83 314,2184.5C 305.68,2173.22 300.68,2160.55 299,2146.5C 296.407,2144.3 295.74,2141.63 297,2138.5C 295.036,2133.91 292.702,2129.58 290,2125.5C 289.405,2124.1 289.572,2122.77 290.5,2121.5C 286.33,2113.49 282.997,2105.16 280.5,2096.5C 281.489,2095.53 282.156,2094.37 282.5,2093C 281.343,2085.22 279.677,2077.55 277.5,2070C 278.167,2069.33 278.833,2068.67 279.5,2068C 277.262,2060.9 275.762,2053.73 275,2046.5C 275.915,2047.33 276.581,2048.33 277,2049.5C 277.402,2041.05 276.569,2032.71 274.5,2024.5C 274.846,2023.3 275.346,2023.3 276,2024.5C 275.71,2019.86 275.21,2015.19 274.5,2010.5C 274.458,2007.19 275.125,2005.03 276.5,2004C 276.397,2002.44 276.063,2000.94 275.5,1999.5C 276.274,1998.29 277.107,1998.29 278,1999.5C 278.315,1995.56 277.815,1991.72 276.5,1988C 277.759,1987.08 279.092,1986.24 280.5,1985.5C 277.845,1980.21 277.845,1975.71 280.5,1972C 278.328,1967.28 278.661,1962.61 281.5,1958C 281.01,1956.02 280.01,1954.35 278.5,1953C 280.127,1949.28 281.461,1945.45 282.5,1941.5C 281.384,1941.6 280.384,1941.1 279.5,1940C 280.167,1937.67 280.833,1935.33 281.5,1933C 280.366,1932.68 279.366,1931.85 278.5,1930.5C 279.55,1924.96 281.217,1919.63 283.5,1914.5C 282.559,1914.51 281.892,1914.01 281.5,1913C 284.368,1904.66 286.201,1896.16 287,1887.5C 285.935,1889.4 285.102,1889.56 284.5,1888C 286.388,1881 289.055,1874.33 292.5,1868C 291.5,1867.67 290.5,1867.33 289.5,1867C 295.799,1855.59 298.133,1843.76 296.5,1831.5C 297.834,1827.49 298.834,1822.65 299.5,1817C 299.265,1816.13 298.931,1815.29 298.5,1814.5C 300.609,1796.02 304.109,1777.69 309,1759.5C 309.333,1760.17 309.667,1760.83 310,1761.5C 312.059,1757.32 313.726,1752.99 315,1748.5C 315.333,1749.17 315.667,1749.83 316,1750.5C 317.087,1746.23 318.754,1742.23 321,1738.5C 321.492,1739.55 321.326,1740.55 320.5,1741.5C 320.846,1742.7 321.346,1742.7 322,1741.5C 324.187,1736.18 326.853,1731.85 330,1728.5C 330.718,1727.55 331.551,1727.38 332.5,1728C 331.483,1729.05 331.316,1730.22 332,1731.5C 332.84,1728.54 333.84,1728.2 335,1730.5C 335.667,1729.17 336.333,1727.83 337,1726.5C 337.308,1727.31 337.808,1727.97 338.5,1728.5C 340.207,1724.86 341.374,1724.86 342,1728.5C 342.23,1724.52 343.563,1723.85 346,1726.5C 346.333,1724.83 346.667,1723.17 347,1721.5C 349.552,1724.19 350.719,1723.53 350.5,1719.5C 351.496,1719.41 352.329,1719.75 353,1720.5C 352.017,1714.55 353.684,1713.88 358,1718.5C 357.923,1717.26 358.089,1716.26 358.5,1715.5C 359.518,1716.19 360.518,1716.86 361.5,1717.5C 363.201,1719.42 365.201,1719.76 367.5,1718.5C 366.674,1717.55 366.508,1716.55 367,1715.5C 369,1717.5 371,1719.5 373,1721.5C 373.333,1720.83 373.667,1720.17 374,1719.5C 376.364,1721.36 378.864,1723.03 381.5,1724.5C 381.911,1723.74 382.077,1722.74 382,1721.5C 383.743,1723.32 385.243,1725.32 386.5,1727.5C 388.826,1725 390.993,1722.34 393,1719.5C 392.502,1721.53 392.669,1723.53 393.5,1725.5C 397.111,1723.78 400.278,1721.44 403,1718.5C 403.195,1720.21 403.195,1721.87 403,1723.5C 404.978,1720.35 407.478,1717.69 410.5,1715.5C 410.833,1715.83 411.167,1716.17 411.5,1716.5C 408.092,1721.53 408.925,1722.53 414,1719.5C 414.305,1721.56 414.305,1723.56 414,1725.5C 416.667,1724.17 418.667,1722.17 420,1719.5C 420.186,1721.9 420.686,1724.23 421.5,1726.5C 422.815,1724.68 424.315,1723.02 426,1721.5C 425.981,1723.11 425.815,1724.77 425.5,1726.5C 426.822,1726.33 427.989,1726.66 429,1727.5C 429,1725.5 429,1723.5 429,1721.5C 430.34,1722.87 431.674,1724.2 433,1725.5C 434.653,1725.18 435.653,1724.18 436,1722.5C 436.333,1722.83 436.667,1723.17 437,1723.5C 438.964,1721.31 440.464,1721.31 441.5,1723.5C 442.815,1724.48 444.148,1725.48 445.5,1726.5C 445.649,1724.39 445.649,1722.39 445.5,1720.5C 447.204,1722.04 449.037,1723.37 451,1724.5C 456.799,1723.13 462.132,1720.79 467,1717.5C 466.592,1719.96 465.926,1722.29 465,1724.5C 468.577,1721.63 472.411,1719.13 476.5,1717C 480.032,1714.86 483.698,1714.03 487.5,1714.5C 486.167,1716.17 484.833,1717.83 483.5,1719.5C 487.668,1720.29 491.502,1719.29 495,1716.5C 495.755,1719.5 494.922,1722 492.5,1724C 497.972,1722.86 503.139,1720.69 508,1717.5C 509.5,1719.83 511,1722.17 512.5,1724.5C 515.208,1721.48 518.541,1719.48 522.5,1718.5C 523.167,1718.83 523.833,1719.17 524.5,1719.5C 523.833,1720.5 523.167,1721.5 522.5,1722.5C 525.784,1723.66 529.118,1723.82 532.5,1723C 531.743,1721.49 530.743,1720.15 529.5,1719C 530.167,1718.83 530.833,1718.67 531.5,1718.5C 535.075,1720.46 538.742,1722.12 542.5,1723.5C 542.504,1721.16 543.337,1719.16 545,1717.5C 548.953,1720.9 553.453,1722.73 558.5,1723C 556.755,1721.31 556.422,1719.47 557.5,1717.5C 560.655,1719.68 563.988,1720.34 567.5,1719.5C 566.167,1717.83 564.833,1716.17 563.5,1714.5C 568.549,1714.52 573.215,1716.19 577.5,1719.5C 582.425,1716.19 587.759,1714.36 593.5,1714C 591.5,1716.33 589.5,1718.67 587.5,1721C 592.025,1720.28 596.359,1718.78 600.5,1716.5C 600.878,1719.29 599.878,1721.79 597.5,1724C 603.217,1722.92 608.551,1720.76 613.5,1717.5C 615.09,1719.68 616.424,1722.01 617.5,1724.5C 620.54,1721.98 623.873,1719.98 627.5,1718.5C 629.631,1719.61 629.631,1721.11 627.5,1723C 630.882,1723.82 634.216,1723.66 637.5,1722.5C 636.833,1721.5 636.167,1720.5 635.5,1719.5C 636.167,1719.17 636.833,1718.83 637.5,1718.5C 640.977,1719.74 643.977,1721.74 646.5,1724.5C 647.576,1722.01 648.91,1719.68 650.5,1717.5C 654.619,1721.06 659.286,1723.23 664.5,1724C 662.456,1721.87 661.623,1719.37 662,1716.5C 665.572,1719.23 669.406,1720.57 673.5,1720.5C 671.712,1718.42 670.046,1716.26 668.5,1714C 676.41,1715.21 683.243,1718.71 689,1724.5C 688.375,1721.85 687.709,1719.19 687,1716.5C 691.953,1722.76 697.286,1723.09 703,1717.5C 702.074,1719.71 701.408,1722.04 701,1724.5C 704.412,1721.88 707.912,1719.38 711.5,1717C 714.595,1714.58 717.929,1713.75 721.5,1714.5C 719.973,1716.19 718.64,1718.03 717.5,1720C 720.994,1720.1 724.327,1719.27 727.5,1717.5C 727.754,1719.91 727.754,1722.25 727.5,1724.5C 731.909,1722.55 736.076,1720.21 740,1717.5C 741.522,1719.74 742.855,1722.07 744,1724.5C 747.031,1720.76 750.864,1718.93 755.5,1719C 754.743,1720.51 753.743,1721.85 752.5,1723C 755.882,1723.82 759.216,1723.66 762.5,1722.5C 761.96,1721.25 761.293,1720.09 760.5,1719C 765.17,1719.12 769.17,1720.96 772.5,1724.5C 774.09,1722.32 775.424,1719.99 776.5,1717.5C 780.5,1719.5 784.5,1721.5 788.5,1723.5C 789.5,1723.17 790.167,1722.5 790.5,1721.5C 789.515,1719.9 789.349,1718.24 790,1716.5C 793.043,1718.91 796.209,1719.07 799.5,1717C 798.259,1715.51 798.759,1714.68 801,1714.5C 805.264,1715.59 809.264,1717.25 813,1719.5C 817.403,1718.26 821.403,1716.26 825,1713.5C 825.14,1715.26 824.64,1716.92 823.5,1718.5C 823.833,1718.83 824.167,1719.17 824.5,1719.5C 827.663,1717.08 830.996,1714.92 834.5,1713C 837.938,1710.56 841.605,1709.73 845.5,1710.5C 844.167,1712.17 842.833,1713.83 841.5,1715.5C 845.737,1716.11 849.737,1715.11 853.5,1712.5C 853.985,1714.78 853.319,1716.94 851.5,1719C 856.824,1718.35 861.824,1716.52 866.5,1713.5C 868.09,1715.68 869.424,1718.01 870.5,1720.5C 873.766,1717.28 877.6,1714.95 882,1713.5C 882.5,1713.83 883,1714.17 883.5,1714.5C 880.502,1717.31 881.169,1718.64 885.5,1718.5C 890.121,1718.69 890.788,1717.19 887.5,1714C 888,1713.83 888.5,1713.67 889,1713.5C 893.17,1714.84 896.67,1717.17 899.5,1720.5C 900.762,1717.88 901.928,1715.22 903,1712.5C 906.897,1716.38 911.397,1718.38 916.5,1718.5C 915.071,1716.67 914.571,1714.67 915,1712.5C 918.452,1715.1 922.286,1716.26 926.5,1716C 925.072,1713.82 923.405,1711.82 921.5,1710C 922.167,1709.83 922.833,1709.67 923.5,1709.5C 930.582,1711.87 936.915,1715.54 942.5,1720.5C 942.833,1720.33 943.167,1720.17 943.5,1720C 941.912,1718.01 941.079,1715.85 941,1713.5C 944.471,1716.15 948.304,1718.15 952.5,1719.5C 953.478,1719.02 954.311,1718.36 955,1717.5C 955.617,1718.45 955.451,1719.28 954.5,1720C 955.5,1720.5 956.5,1721 957.5,1721.5C 961.979,1718.18 966.813,1715.51 972,1713.5C 972.5,1713.83 973,1714.17 973.5,1714.5C 972.289,1716.42 970.956,1718.26 969.5,1720C 973.684,1720.16 977.517,1718.99 981,1716.5C 981.082,1719.08 980.249,1721.42 978.5,1723.5C 983.405,1722.73 988.072,1720.73 992.5,1717.5C 993.948,1719.67 995.115,1722 996,1724.5C 999.031,1720.76 1002.86,1718.93 1007.5,1719C 1006.71,1720.09 1006.04,1721.25 1005.5,1722.5C 1008.78,1723.66 1012.12,1723.82 1015.5,1723C 1014.26,1721.85 1013.26,1720.51 1012.5,1719C 1017.38,1719.02 1021.55,1720.85 1025,1724.5C 1026.14,1722.07 1027.48,1719.74 1029,1717.5C 1033.86,1720.69 1039.03,1722.86 1044.5,1724C 1042.62,1721.77 1041.79,1719.27 1042,1716.5C 1045.93,1719.2 1050.1,1720.54 1054.5,1720.5C 1053.17,1718.83 1051.83,1717.17 1050.5,1715.5C 1051.33,1715.17 1052.17,1714.83 1053,1714.5C 1060.03,1716.53 1066.36,1719.86 1072,1724.5C 1071.59,1722.04 1070.93,1719.71 1070,1717.5C 1078.01,1722.4 1086.68,1725.73 1096,1727.5C 1098.66,1726.05 1098.5,1724.22 1095.5,1722C 1097.94,1722.2 1100.27,1723.04 1102.5,1724.5C 1104.15,1723.35 1105.65,1722.02 1107,1720.5C 1106.84,1722.81 1106.84,1725.14 1107,1727.5C 1111.38,1722.29 1112.71,1723.29 1111,1730.5C 1113,1727.83 1115,1725.17 1117,1722.5C 1117.67,1724.5 1118.33,1726.5 1119,1728.5C 1120.42,1725.99 1122.09,1723.66 1124,1721.5C 1124,1723.5 1124,1725.5 1124,1727.5C 1125.01,1726.66 1126.18,1726.33 1127.5,1726.5C 1127.19,1724.77 1127.02,1723.11 1127,1721.5C 1129.04,1723.21 1130.71,1725.21 1132,1727.5C 1132.33,1724.83 1132.67,1722.17 1133,1719.5C 1134.31,1721.98 1136.14,1723.98 1138.5,1725.5C 1138.76,1723.66 1138.92,1721.66 1139,1719.5C 1140,1720.17 1141,1720.83 1142,1721.5C 1142.16,1719.14 1142.16,1716.81 1142,1714.5C 1144.33,1716.83 1146.67,1719.17 1149,1721.5C 1149.7,1718.05 1151.04,1718.05 1153,1721.5C 1155,1719.5 1157,1717.5 1159,1715.5C 1159.49,1716.55 1159.33,1717.55 1158.5,1718.5C 1161.12,1719.56 1163.62,1719.23 1166,1717.5C 1166.33,1718.5 1166.67,1719.5 1167,1720.5C 1168.55,1717.9 1170.72,1716.73 1173.5,1717C 1170.57,1721.05 1171.07,1721.88 1175,1719.5C 1174.95,1721.31 1175.12,1722.98 1175.5,1724.5C 1176.5,1723.83 1177.5,1723.17 1178.5,1722.5C 1179.11,1722.62 1179.44,1722.96 1179.5,1723.5 Z"/></g>
<g><path style="opacity:0.031" fill="#fedfbe" d="M 350.5,1719.5 C 349.833,1718.17 349.833,1718.17 350.5,1719.5 Z"/></g>
<g><path style="opacity:1" fill="#c33b37" d="M 799.5,1718.5 C 803.688,1721.41 803.354,1721.91 798.5,1720C 799.056,1719.62 799.389,1719.12 799.5,1718.5 Z"/></g>
<g><path style="opacity:1" fill="#c03031" d="M 441.5,1723.5 C 441.821,1726.88 440.821,1727.71 438.5,1726C 439.373,1724.96 440.373,1724.12 441.5,1723.5 Z"/></g>
<g><path style="opacity:1" fill="#f6ddc8" d="M 2068.5,1783.5 C 2085.24,1783.63 2092.07,1791.96 2089,1808.5C 2084.17,1818.56 2076.34,1822.06 2065.5,1819C 2055.25,1812.08 2052.75,1802.92 2058,1791.5C 2060.54,1787.49 2064.04,1784.82 2068.5,1783.5 Z"/></g>
<g><path style="opacity:1" fill="#f6dec8" d="M 2542.5,1791.5 C 2561.66,1790.16 2569.16,1798.82 2565,1817.5C 2559.66,1826.91 2551.82,1829.74 2541.5,1826C 2530.68,1817.86 2528.84,1808.02 2536,1796.5C 2538.35,1794.97 2540.52,1793.3 2542.5,1791.5 Z"/></g>
<g><path style="opacity:1" fill="#f6dec8" d="M 1510.5,1849.5 C 1526.59,1848.76 1534.09,1856.43 1533,1872.5C 1528.14,1884.35 1519.64,1888.18 1507.5,1884C 1499.76,1878.47 1496.93,1870.97 1499,1861.5C 1501.05,1855.62 1504.88,1851.62 1510.5,1849.5 Z"/></g>
<g><path style="opacity:1" fill="#f6dec8" d="M 2322.5,1878.5 C 2332.76,1877.21 2339.92,1881.21 2344,1890.5C 2346.32,1907.85 2338.82,1915.68 2321.5,1914C 2312.22,1909.88 2308.39,1902.71 2310,1892.5C 2311.95,1885.72 2316.12,1881.05 2322.5,1878.5 Z"/></g>
<g><path style="opacity:1" fill="#f6ddc8" d="M 2659.5,1948.5 C 2659.21,1955.02 2658.54,1961.35 2657.5,1967.5C 2600.4,1910.98 2533.4,1894.81 2456.5,1919C 2447.59,1922.45 2438.93,1926.45 2430.5,1931C 2368.35,1971.06 2303.02,1977.06 2234.5,1949C 2216.58,1939.4 2198.91,1929.4 2181.5,1919C 2128.3,1889.79 2073.3,1885.79 2016.5,1907C 2008.22,1910.47 2000.22,1914.47 1992.5,1919C 1960.43,1940.06 1928.1,1960.73 1895.5,1981C 1848.27,2003.91 1799.27,2008.57 1748.5,1995C 1713.42,1984.06 1678.09,1974.06 1642.5,1965C 1592.61,1958.47 1547.28,1969.64 1506.5,1998.5C 1502.81,1995.14 1499.14,1991.8 1495.5,1988.5C 1543.96,1953.75 1597.63,1941.92 1656.5,1953C 1689.91,1962.47 1723.24,1972.14 1756.5,1982C 1805.49,1994.14 1852.15,1988.14 1896.5,1964C 1924.34,1946.25 1952,1928.25 1979.5,1910C 2038.15,1875.14 2099.48,1869.8 2163.5,1894C 2184.11,1903.97 2204.11,1914.97 2223.5,1927C 2236.84,1934.56 2250.84,1940.56 2265.5,1945C 2308.59,1956.2 2350.59,1953.2 2391.5,1936C 2407.09,1928.07 2422.42,1919.74 2437.5,1911C 2503.49,1883.61 2567.15,1888.27 2628.5,1925C 2639.01,1932.69 2649.35,1940.52 2659.5,1948.5 Z"/></g>
<g><path style="opacity:1" fill="#bb1e24" d="M 2657.5,1967.5 C 2656.05,1983.82 2654.71,2000.16 2653.5,2016.5C 2593.39,1967.1 2526.05,1954.27 2451.5,1978C 2441.26,1982.12 2431.26,1986.79 2421.5,1992C 2364.52,2029.03 2304.52,2034.7 2241.5,2009C 2222.68,1999.43 2204.35,1989.09 2186.5,1978C 2116.49,1941.02 2047.49,1942.69 1979.5,1983C 1950.77,2002.06 1921.77,2020.73 1892.5,2039C 1854,2059.12 1813.33,2065.46 1770.5,2058C 1732.71,2047.8 1695.05,2037.14 1657.5,2026C 1618.92,2017.67 1581.25,2020.5 1544.5,2034.5C 1531.5,2022.84 1518.84,2010.84 1506.5,1998.5C 1547.28,1969.64 1592.61,1958.47 1642.5,1965C 1678.09,1974.06 1713.42,1984.06 1748.5,1995C 1799.27,2008.57 1848.27,2003.91 1895.5,1981C 1928.1,1960.73 1960.43,1940.06 1992.5,1919C 2000.22,1914.47 2008.22,1910.47 2016.5,1907C 2073.3,1885.79 2128.3,1889.79 2181.5,1919C 2198.91,1929.4 2216.58,1939.4 2234.5,1949C 2303.02,1977.06 2368.35,1971.06 2430.5,1931C 2438.93,1926.45 2447.59,1922.45 2456.5,1919C 2533.4,1894.81 2600.4,1910.98 2657.5,1967.5 Z"/></g>
<g><path style="opacity:1" fill="#f6dec9" d="M 1806.5,1915.5 C 1817.76,1912.74 1825.92,1916.4 1831,1926.5C 1832.35,1947.15 1823.18,1954.32 1803.5,1948C 1793.43,1936.09 1794.43,1925.26 1806.5,1915.5 Z"/></g>
<g><path style="opacity:1" fill="#f6ddc8" d="M 2653.5,2016.5 C 2653.55,2023.05 2652.88,2029.38 2651.5,2035.5C 2606.47,1992.33 2552.8,1974.83 2490.5,1983C 2468.56,1986.76 2447.9,1994.09 2428.5,2005C 2359.74,2047.87 2289.41,2050.53 2217.5,2013C 2195.78,1999.29 2173.11,1987.29 2149.5,1977C 2094.85,1958.59 2042.51,1963.59 1992.5,1992C 1960.43,2013.06 1928.1,2033.73 1895.5,2054C 1848.59,2076.85 1799.92,2081.52 1749.5,2068C 1714.1,2056.98 1678.44,2046.98 1642.5,2038C 1613.21,2033.99 1584.55,2036.49 1556.5,2045.5C 1551.9,2042.57 1547.9,2038.9 1544.5,2034.5C 1581.25,2020.5 1618.92,2017.67 1657.5,2026C 1695.05,2037.14 1732.71,2047.8 1770.5,2058C 1813.33,2065.46 1854,2059.12 1892.5,2039C 1921.77,2020.73 1950.77,2002.06 1979.5,1983C 2047.49,1942.69 2116.49,1941.02 2186.5,1978C 2204.35,1989.09 2222.68,1999.43 2241.5,2009C 2304.52,2034.7 2364.52,2029.03 2421.5,1992C 2431.26,1986.79 2441.26,1982.12 2451.5,1978C 2526.05,1954.27 2593.39,1967.1 2653.5,2016.5 Z"/></g>
<g><path style="opacity:0.999" fill="#bb1d24" d="M 2651.5,2035.5 C 2646.28,2107.83 2641.28,2180.16 2636.5,2252.5C 2635.11,2254.3 2633.44,2254.63 2631.5,2253.5C 2632.59,2252.39 2632.59,2251.39 2631.5,2250.5C 2629.88,2252.62 2628.05,2254.62 2626,2256.5C 2625.67,2255.5 2625.33,2254.5 2625,2253.5C 2622.93,2256.07 2620.43,2258.07 2617.5,2259.5C 2616.81,2258.97 2616.31,2258.31 2616,2257.5C 2614.91,2259.35 2613.57,2261.02 2612,2262.5C 2610,2259.83 2608,2257.17 2606,2254.5C 2606.22,2256.59 2606.05,2258.59 2605.5,2260.5C 2601.37,2258.68 2597.87,2256.02 2595,2252.5C 2595.2,2254.13 2595.2,2255.79 2595,2257.5C 2593.36,2254.69 2591.19,2252.36 2588.5,2250.5C 2588.17,2252.5 2587.83,2254.5 2587.5,2256.5C 2586.19,2255.69 2585.02,2254.69 2584,2253.5C 2584.72,2261.08 2583.05,2261.42 2579,2254.5C 2578.89,2262.67 2576.89,2263.33 2573,2256.5C 2572.41,2257.9 2572.57,2259.23 2573.5,2260.5C 2572.31,2261.43 2570.98,2261.76 2569.5,2261.5C 2569.66,2260.13 2569.49,2258.79 2569,2257.5C 2566.91,2261.46 2564.91,2261.46 2563,2257.5C 2560.95,2257.85 2558.95,2257.18 2557,2255.5C 2557,2258.23 2555.83,2260.23 2553.5,2261.5C 2552.95,2259.59 2552.78,2257.59 2553,2255.5C 2551.56,2257.45 2549.73,2258.78 2547.5,2259.5C 2542.19,2258.28 2537.19,2256.28 2532.5,2253.5C 2532.27,2255.3 2532.94,2257.13 2534.5,2259C 2527.85,2254.93 2520.68,2251.43 2513,2248.5C 2512.5,2248.83 2512,2249.17 2511.5,2249.5C 2512.8,2251.94 2514.47,2254.1 2516.5,2256C 2511.82,2255.67 2507.49,2254.17 2503.5,2251.5C 2503.12,2254.29 2504.12,2256.79 2506.5,2259C 2500.82,2257.93 2495.48,2255.77 2490.5,2252.5C 2489.17,2254.83 2487.83,2257.17 2486.5,2259.5C 2483.46,2256.98 2480.13,2254.98 2476.5,2253.5C 2475.83,2253.83 2475.17,2254.17 2474.5,2254.5C 2475.17,2255.5 2475.83,2256.5 2476.5,2257.5C 2473.22,2258.66 2469.88,2258.82 2466.5,2258C 2468.31,2256.37 2468.48,2254.87 2467,2253.5C 2463.33,2254.5 2460.33,2256.5 2458,2259.5C 2456.48,2257.26 2455.14,2254.93 2454,2252.5C 2450.05,2255.9 2445.55,2257.73 2440.5,2258C 2442.19,2256.09 2442.69,2253.92 2442,2251.5C 2438.83,2254.2 2435.33,2255.2 2431.5,2254.5C 2432.71,2252.58 2434.04,2250.74 2435.5,2249C 2434.83,2248.83 2434.17,2248.67 2433.5,2248.5C 2429.12,2250.1 2424.96,2252.1 2421,2254.5C 2416.12,2251.63 2410.95,2249.8 2405.5,2249C 2407.05,2251.26 2408.71,2253.42 2410.5,2255.5C 2406.12,2255.55 2401.96,2254.21 2398,2251.5C 2397.67,2254.18 2398.5,2256.51 2400.5,2258.5C 2395.07,2257.9 2389.91,2255.9 2385,2252.5C 2383.86,2254.93 2382.52,2257.26 2381,2259.5C 2377.55,2255.85 2373.38,2254.02 2368.5,2254C 2369.26,2255.51 2370.26,2256.85 2371.5,2258C 2368.12,2258.82 2364.78,2258.66 2361.5,2257.5C 2362.04,2256.25 2362.71,2255.09 2363.5,2254C 2362.83,2253.83 2362.17,2253.67 2361.5,2253.5C 2357.98,2254.68 2354.98,2256.68 2352.5,2259.5C 2351.17,2257.17 2349.83,2254.83 2348.5,2252.5C 2344.07,2255.73 2339.4,2257.73 2334.5,2258.5C 2336.5,2256.51 2337.33,2254.18 2337,2251.5C 2333.32,2254 2329.48,2255.34 2325.5,2255.5C 2331.31,2248.41 2329.98,2246.91 2321.5,2251C 2317.7,2253.3 2314.03,2255.8 2310.5,2258.5C 2310.17,2258.17 2309.83,2257.83 2309.5,2257.5C 2310.64,2255.92 2311.14,2254.26 2311,2252.5C 2306,2257.83 2301,2257.83 2296,2252.5C 2295.86,2254.26 2296.36,2255.92 2297.5,2257.5C 2297.17,2257.83 2296.83,2258.17 2296.5,2258.5C 2290.87,2253.51 2284.53,2250.51 2277.5,2249.5C 2278.71,2251.42 2280.04,2253.26 2281.5,2255C 2277.32,2255.59 2273.66,2254.42 2270.5,2251.5C 2269.61,2254.12 2270.28,2256.45 2272.5,2258.5C 2267.6,2257.73 2262.93,2255.73 2258.5,2252.5C 2257.17,2254.83 2255.83,2257.17 2254.5,2259.5C 2252.02,2256.68 2249.02,2254.68 2245.5,2253.5C 2244.83,2253.67 2244.17,2253.83 2243.5,2254C 2246.41,2257.43 2245.41,2258.93 2240.5,2258.5C 2238.83,2258.33 2237.17,2258.17 2235.5,2258C 2236.74,2256.85 2237.74,2255.51 2238.5,2254C 2233.67,2253.99 2229.5,2255.83 2226,2259.5C 2224.95,2256.85 2223.45,2254.51 2221.5,2252.5C 2217.69,2255.58 2213.35,2257.24 2208.5,2257.5C 2209.01,2255.49 2209.18,2253.49 2209,2251.5C 2205.96,2253.91 2202.79,2254.07 2199.5,2252C 2201.87,2250.53 2201.87,2249.36 2199.5,2248.5C 2194.68,2249.83 2190.18,2251.83 2186,2254.5C 2181.3,2252.72 2176.8,2250.89 2172.5,2249C 2173.38,2250.59 2174.38,2252.09 2175.5,2253.5C 2175.17,2253.83 2174.83,2254.17 2174.5,2254.5C 2167.92,2249.37 2160.59,2246.2 2152.5,2245C 2154.4,2246.82 2156.07,2248.82 2157.5,2251C 2153.18,2251.17 2149.18,2250.01 2145.5,2247.5C 2144.49,2250.03 2145.16,2252.19 2147.5,2254C 2141.78,2253.4 2136.61,2251.23 2132,2247.5C 2130.66,2250.2 2129.33,2252.87 2128,2255.5C 2124.61,2251.38 2120.44,2249.38 2115.5,2249.5C 2116.17,2250.5 2116.83,2251.5 2117.5,2252.5C 2114.55,2253.65 2111.55,2253.82 2108.5,2253C 2110.47,2251.19 2110.47,2250.02 2108.5,2249.5C 2104.95,2250.86 2101.78,2252.86 2099,2255.5C 2098,2252.83 2097,2250.17 2096,2247.5C 2092.08,2250.21 2087.91,2252.55 2083.5,2254.5C 2083.5,2252.17 2083.5,2249.83 2083.5,2247.5C 2080.11,2249.8 2076.44,2250.96 2072.5,2251C 2073.64,2249.03 2074.97,2247.19 2076.5,2245.5C 2072.93,2244.75 2069.6,2245.58 2066.5,2248C 2062.72,2250.11 2059.22,2252.61 2056,2255.5C 2056.93,2253.29 2057.59,2250.96 2058,2248.5C 2054.53,2251.15 2050.7,2253.15 2046.5,2254.5C 2045.19,2253.69 2044.02,2252.69 2043,2251.5C 2042.51,2252.55 2042.67,2253.55 2043.5,2254.5C 2043.17,2255.5 2042.5,2256.17 2041.5,2256.5C 2037.15,2252.71 2032.15,2250.04 2026.5,2248.5C 2025.89,2250.68 2026.56,2252.68 2028.5,2254.5C 2024.64,2255.18 2021.14,2254.18 2018,2251.5C 2017.79,2254.27 2018.62,2256.77 2020.5,2259C 2015.29,2258.23 2010.62,2256.06 2006.5,2252.5C 2004.91,2254.68 2003.58,2257.01 2002.5,2259.5C 1999.98,2256.74 1996.98,2254.74 1993.5,2253.5C 1992.83,2253.83 1992.17,2254.17 1991.5,2254.5C 1992.17,2255.5 1992.83,2256.5 1993.5,2257.5C 1990.22,2258.66 1986.88,2258.82 1983.5,2258C 1985.63,2256.11 1985.63,2254.61 1983.5,2253.5C 1979.87,2254.98 1976.54,2256.98 1973.5,2259.5C 1972.42,2257.01 1971.09,2254.68 1969.5,2252.5C 1964.73,2255.74 1959.73,2257.74 1954.5,2258.5C 1956.25,2256.42 1957.08,2254.08 1957,2251.5C 1953.13,2253.9 1948.96,2255.07 1944.5,2255C 1946.4,2253.18 1948.07,2251.18 1949.5,2249C 1940.93,2250.28 1933.26,2253.78 1926.5,2259.5C 1926.17,2259.33 1925.83,2259.17 1925.5,2259C 1926.83,2257 1928.17,2255 1929.5,2253C 1920.98,2257.01 1911.98,2260.18 1902.5,2262.5C 1900.5,2260.78 1900.84,2258.94 1903.5,2257C 1900.72,2256.8 1898.22,2257.63 1896,2259.5C 1890.98,2253.76 1889.81,2254.26 1892.5,2261C 1892.17,2261.5 1891.83,2262 1891.5,2262.5C 1890.19,2261.69 1889.02,2260.69 1888,2259.5C 1887.67,2261.17 1887.33,2262.83 1887,2264.5C 1885.39,2262.27 1883.56,2260.27 1881.5,2258.5C 1880.83,2259.83 1880.17,2261.17 1879.5,2262.5C 1878.17,2260.83 1876.83,2259.17 1875.5,2257.5C 1874.57,2258.69 1874.24,2260.02 1874.5,2261.5C 1873.5,2261.5 1872.5,2261.5 1871.5,2261.5C 1872.05,2259.67 1872.05,2258 1871.5,2256.5C 1870.01,2258.13 1868.51,2259.79 1867,2261.5C 1866.67,2259.17 1866.33,2256.83 1866,2254.5C 1864,2256.5 1862,2258.5 1860,2260.5C 1860.16,2258.19 1860.16,2255.86 1860,2253.5C 1858.83,2255.62 1857.33,2256.28 1855.5,2255.5C 1856.93,2253.67 1857.43,2251.67 1857,2249.5C 1854,2251.17 1851.67,2253.5 1850,2256.5C 1849.25,2253.17 1847.75,2253.17 1845.5,2256.5C 1843.52,2254.02 1841.35,2251.68 1839,2249.5C 1838.74,2251.16 1839.24,2252.66 1840.5,2254C 1837.26,2254.59 1834.43,2253.75 1832,2251.5C 1832,2252.83 1832,2254.17 1832,2255.5C 1830.61,2253.77 1828.94,2252.44 1827,2251.5C 1825.29,2252.14 1825.12,2253.14 1826.5,2254.5C 1825.5,2255.17 1824.5,2255.83 1823.5,2256.5C 1824.59,2257.61 1824.59,2258.61 1823.5,2259.5C 1822.25,2258.96 1821.09,2258.29 1820,2257.5C 1819.6,2257.73 1819.43,2258.06 1819.5,2258.5C 1740.63,2203.36 1664.96,2143.86 1592.5,2080C 1580.3,2068.63 1568.3,2057.13 1556.5,2045.5C 1584.55,2036.49 1613.21,2033.99 1642.5,2038C 1678.44,2046.98 1714.1,2056.98 1749.5,2068C 1799.92,2081.52 1848.59,2076.85 1895.5,2054C 1928.1,2033.73 1960.43,2013.06 1992.5,1992C 2042.51,1963.59 2094.85,1958.59 2149.5,1977C 2173.11,1987.29 2195.78,1999.29 2217.5,2013C 2289.41,2050.53 2359.74,2047.87 2428.5,2005C 2447.9,1994.09 2468.56,1986.76 2490.5,1983C 2552.8,1974.83 2606.47,1992.33 2651.5,2035.5 Z"/></g>
<g><path style="opacity:1" fill="#f6dec8" d="M 2132.5,2133.5 C 2148.79,2131.96 2156.29,2139.29 2155,2155.5C 2151.75,2166.72 2144.25,2171.22 2132.5,2169C 2121.69,2163.68 2118.19,2155.18 2122,2143.5C 2124.11,2138.56 2127.61,2135.22 2132.5,2133.5 Z"/></g>
<g><path style="opacity:1" fill="#f6dec8" d="M 2285.5,2133.5 C 2301.82,2131.99 2309.32,2139.32 2308,2155.5C 2304.69,2166.75 2297.19,2171.25 2285.5,2169C 2275.44,2164.39 2271.61,2156.55 2274,2145.5C 2276.05,2139.62 2279.88,2135.62 2285.5,2133.5 Z"/></g>
<g><path style="opacity:1" fill="#f6dec8" d="M 2448.5,2133.5 C 2466.45,2132.61 2473.95,2140.94 2471,2158.5C 2465.68,2168.72 2457.51,2171.89 2446.5,2168C 2438.55,2162.16 2435.72,2154.32 2438,2144.5C 2440.36,2139.65 2443.86,2135.98 2448.5,2133.5 Z"/></g>
<g><path style="opacity:1" fill="#f6ddc8" d="M 1983.5,2140.5 C 1999.13,2139.63 2006.63,2146.96 2006,2162.5C 2004.91,2169.85 2000.74,2174.35 1993.5,2176C 1976.73,2177.23 1969.57,2169.39 1972,2152.5C 1974.05,2146.62 1977.88,2142.62 1983.5,2140.5 Z"/></g>
<g><path style="opacity:1" fill="#f6dec8" d="M 2570.5,2140.5 C 2582.47,2138.4 2590.97,2142.73 2596,2153.5C 2596.27,2172.15 2587.1,2179.65 2568.5,2176C 2557.81,2170.93 2554.31,2162.76 2558,2151.5C 2561.12,2146.54 2565.29,2142.87 2570.5,2140.5 Z"/></g>
<g><path style="opacity:1" fill="#f6dec9" d="M 1823.5,2162.5 C 1839.12,2161.62 1846.62,2168.95 1846,2184.5C 1841.7,2197.05 1833.2,2201.22 1820.5,2197C 1811.77,2190.47 1809.27,2181.97 1813,2171.5C 1815.49,2167.17 1818.99,2164.17 1823.5,2162.5 Z"/></g>
<g><path style="opacity:0.912" fill="#bf2f2e" d="M 412.5,2230.5 C 406.833,2230.5 401.167,2230.5 395.5,2230.5C 397.168,2228.66 398.668,2226.66 400,2224.5C 400.333,2225.5 400.667,2226.5 401,2227.5C 401.739,2226.43 402.739,2225.76 404,2225.5C 407.293,2226.56 410.126,2228.22 412.5,2230.5 Z"/></g>
<g><path style="opacity:0.835" fill="#c43e39" d="M 420.5,2230.5 C 419.833,2230.5 419.167,2230.5 418.5,2230.5C 417.522,2230.19 416.855,2229.52 416.5,2228.5C 418.345,2227.61 419.678,2228.27 420.5,2230.5 Z"/></g>
<g><path style="opacity:0.998" fill="#f0cdab" d="M 2636.5,2252.5 C 2638.04,2252.3 2639.38,2251.63 2640.5,2250.5C 2640.91,2251.26 2641.08,2252.26 2641,2253.5C 2645.32,2248.88 2646.98,2249.55 2646,2255.5C 2646.67,2254.83 2647.33,2254.17 2648,2253.5C 2648.31,2255.56 2648.31,2257.56 2648,2259.5C 2651.69,2254.86 2653.35,2255.53 2653,2261.5C 2656.5,2259.07 2658.84,2260.07 2660,2264.5C 2660.42,2263.33 2661.09,2262.33 2662,2261.5C 2662.47,2263.25 2663.14,2264.91 2664,2266.5C 2664.33,2265.5 2664.67,2264.5 2665,2263.5C 2665.33,2263.83 2665.67,2264.17 2666,2264.5C 2666.31,2263.69 2666.81,2263.03 2667.5,2262.5C 2668.92,2264.34 2670.09,2266.34 2671,2268.5C 2671.33,2268.17 2671.67,2267.83 2672,2267.5C 2673.41,2270.66 2675.08,2273.66 2677,2276.5C 2677.33,2275.5 2677.67,2274.5 2678,2273.5C 2678.33,2273.83 2678.67,2274.17 2679,2274.5C 2682.89,2281.79 2686.22,2289.46 2689,2297.5C 2689.67,2293.5 2690.33,2293.5 2691,2297.5C 2693.85,2310.13 2696.52,2322.8 2699,2335.5C 2698.11,2345.38 2699.28,2355.05 2702.5,2364.5C 2701.25,2376.17 2702.75,2387.5 2707,2398.5C 2707.47,2399.93 2708.3,2401.1 2709.5,2402C 2708.38,2402.25 2707.38,2402.75 2706.5,2403.5C 2709.47,2410.24 2712.14,2417.08 2714.5,2424C 2713.26,2424.46 2712.42,2423.96 2712,2422.5C 2712.35,2431.44 2714.19,2440.1 2717.5,2448.5C 2716.56,2448.49 2715.89,2448.99 2715.5,2450C 2717.38,2454.67 2718.71,2459.51 2719.5,2464.5C 2719.47,2466.64 2718.8,2467.98 2717.5,2468.5C 2718.01,2470.88 2718.68,2473.22 2719.5,2475.5C 2718.73,2476.71 2717.89,2476.71 2717,2475.5C 2717.18,2479.73 2718.01,2483.9 2719.5,2488C 2718.52,2489.66 2717.52,2491.32 2716.5,2493C 2719.96,2497.44 2720.63,2502.1 2718.5,2507C 2719.8,2507.91 2720.46,2509.58 2720.5,2512C 2719.93,2515.2 2719.27,2518.37 2718.5,2521.5C 2719.5,2521.5 2720.5,2521.5 2721.5,2521.5C 2721.09,2526.25 2720.59,2530.92 2720,2535.5C 2720.67,2534.83 2721.33,2534.17 2722,2533.5C 2722.21,2536.86 2722.21,2540.19 2722,2543.5C 2722.42,2542.33 2723.09,2541.33 2724,2540.5C 2724.49,2545.91 2723.99,2551.24 2722.5,2556.5C 2722.82,2557.65 2723.48,2558.48 2724.5,2559C 2722.25,2567.7 2721.09,2576.53 2721,2585.5C 2721.67,2584.17 2722.33,2582.83 2723,2581.5C 2722.94,2589.41 2721.44,2597.07 2718.5,2604.5C 2719.5,2604.5 2720.5,2604.5 2721.5,2604.5C 2719.01,2611.8 2717.34,2619.3 2716.5,2627C 2716.68,2628.66 2717.34,2629.99 2718.5,2631C 2715.66,2639.67 2712.33,2648.17 2708.5,2656.5C 2709.43,2657.77 2709.59,2659.1 2709,2660.5C 2705.52,2665.3 2702.68,2670.46 2700.5,2676C 2702.66,2677.69 2702.49,2679.53 2700,2681.5C 2698.34,2690.8 2695.68,2699.8 2692,2708.5C 2690.16,2712.18 2687.83,2715.52 2685,2718.5C 2683.26,2722.98 2681.26,2727.32 2679,2731.5C 2678.67,2730.17 2678.33,2728.83 2678,2727.5C 2673.83,2732.52 2670.16,2737.85 2667,2743.5C 2666.67,2742.5 2666.33,2741.5 2666,2740.5C 2664.09,2745.34 2661.42,2749.67 2658,2753.5C 2657.69,2751.44 2657.69,2749.44 2658,2747.5C 2653.67,2750.5 2650,2754.17 2647,2758.5C 2646.67,2757.5 2646.33,2756.5 2646,2755.5C 2644.54,2758.76 2642.37,2761.42 2639.5,2763.5C 2638.67,2761.53 2638.5,2759.53 2639,2757.5C 2634.67,2762.66 2633.33,2761.66 2635,2754.5C 2633.33,2756.83 2631.67,2759.17 2630,2761.5C 2628.96,2759.29 2628.29,2756.95 2628,2754.5C 2627.11,2757.39 2625.44,2759.73 2623,2761.5C 2622.28,2759.89 2622.45,2758.39 2623.5,2757C 2622.36,2756.25 2621.36,2756.42 2620.5,2757.5C 2621.64,2758.89 2621.64,2760.22 2620.5,2761.5C 2618.85,2760.35 2617.35,2759.02 2616,2757.5C 2615.67,2759.5 2615.33,2761.5 2615,2763.5C 2613.65,2761.98 2612.15,2760.65 2610.5,2759.5C 2610.52,2761 2610.19,2762.66 2609.5,2764.5C 2606.56,2761.87 2605.89,2762.54 2607.5,2766.5C 2605.6,2767.65 2603.94,2767.32 2602.5,2765.5C 2601.59,2763.4 2600.42,2761.4 2599,2759.5C 2598.67,2760.5 2598.33,2761.5 2598,2762.5C 2597.26,2761.43 2596.26,2760.76 2595,2760.5C 2591.71,2761.56 2588.87,2763.22 2586.5,2765.5C 2583.62,2766.7 2581.45,2768.7 2580,2771.5C 2579.82,2769.51 2579.99,2767.51 2580.5,2765.5C 2582.27,2764.69 2582.77,2763.35 2582,2761.5C 2580.62,2762.71 2579.46,2764.04 2578.5,2765.5C 2571.63,2771.59 2563.96,2776.09 2555.5,2779C 2556.64,2777.03 2557.97,2775.19 2559.5,2773.5C 2558.83,2773.17 2558.17,2772.83 2557.5,2772.5C 2547.64,2775.17 2538.31,2778.67 2529.5,2783C 2531.06,2781.13 2531.73,2779.3 2531.5,2777.5C 2525.82,2781.84 2519.49,2784.84 2512.5,2786.5C 2511.83,2786.17 2511.17,2785.83 2510.5,2785.5C 2516.27,2780.01 2515.61,2778.51 2508.5,2781C 2506.41,2781.79 2504.58,2782.96 2503,2784.5C 2502.22,2781.74 2502.72,2779.24 2504.5,2777C 2499.32,2778.18 2494.49,2780.35 2490,2783.5C 2489.04,2780.62 2487.71,2777.96 2486,2775.5C 2482.77,2779.88 2478.6,2781.54 2473.5,2780.5C 2474.17,2779.5 2474.83,2778.5 2475.5,2777.5C 2475.17,2777.17 2474.83,2776.83 2474.5,2776.5C 2472.9,2776.61 2471.24,2776.94 2469.5,2777.5C 2468.41,2778.39 2468.41,2779.39 2469.5,2780.5C 2468.67,2780.83 2467.83,2781.17 2467,2781.5C 2463.36,2780 2459.86,2778.33 2456.5,2776.5C 2456.36,2779.1 2455.52,2781.43 2454,2783.5C 2450.32,2779.9 2446.15,2777.9 2441.5,2777.5C 2442.75,2779.74 2443.25,2782.07 2443,2784.5C 2439.89,2781.51 2436.39,2780.17 2432.5,2780.5C 2433.75,2782 2434.75,2783.67 2435.5,2785.5C 2430.06,2786.05 2425.22,2784.38 2421,2780.5C 2416.31,2784.12 2411.15,2785.78 2405.5,2785.5C 2406.25,2783.25 2407.59,2781.41 2409.5,2780C 2404.94,2780.18 2400.78,2781.68 2397,2784.5C 2396.83,2781.71 2397.66,2779.21 2399.5,2777C 2399.17,2776.83 2398.83,2776.67 2398.5,2776.5C 2393.65,2778.29 2389.15,2780.62 2385,2783.5C 2383.67,2780.87 2382.34,2778.2 2381,2775.5C 2377.53,2779.99 2373.03,2781.82 2367.5,2781C 2369.3,2779.61 2369.97,2778.11 2369.5,2776.5C 2367.3,2776.59 2365.13,2776.59 2363,2776.5C 2362.74,2778.16 2363.24,2779.66 2364.5,2781C 2359.81,2781.49 2355.81,2779.99 2352.5,2776.5C 2351.05,2778.67 2349.89,2781 2349,2783.5C 2345.08,2780.79 2340.91,2778.45 2336.5,2776.5C 2337.21,2778.57 2337.21,2780.9 2336.5,2783.5C 2333.42,2781.42 2330.08,2780.25 2326.5,2780C 2327.96,2781.74 2329.29,2783.58 2330.5,2785.5C 2329.67,2785.83 2328.83,2786.17 2328,2786.5C 2321.76,2784.55 2316.09,2781.55 2311,2777.5C 2311.33,2779.5 2311.67,2781.5 2312,2783.5C 2309.49,2781.58 2306.82,2779.91 2304,2778.5C 2300.69,2779.65 2297.69,2781.32 2295,2783.5C 2295.33,2781.5 2295.67,2779.5 2296,2777.5C 2290.69,2781.82 2284.69,2784.82 2278,2786.5C 2277.5,2786.17 2277,2785.83 2276.5,2785.5C 2282.09,2778.75 2280.76,2777.59 2272.5,2782C 2271.67,2782.83 2270.83,2783.67 2270,2784.5C 2269.22,2781.74 2269.72,2779.24 2271.5,2777C 2266.64,2778.18 2262.14,2780.34 2258,2783.5C 2256.8,2780.91 2255.8,2778.24 2255,2775.5C 2251.8,2779.69 2247.63,2781.52 2242.5,2781C 2243.76,2779.66 2244.26,2778.16 2244,2776.5C 2241.65,2777.04 2239.15,2777.21 2236.5,2777C 2239.68,2779.52 2239.68,2781.02 2236.5,2781.5C 2232.41,2780.59 2228.91,2778.59 2226,2775.5C 2225.04,2778.38 2223.71,2781.04 2222,2783.5C 2218.05,2780.1 2213.55,2778.27 2208.5,2778C 2209.84,2780.02 2210.34,2782.18 2210,2784.5C 2207.11,2781.63 2203.94,2781.13 2200.5,2783C 2201.34,2784.01 2201.67,2785.18 2201.5,2786.5C 2195.87,2785.77 2190.7,2783.77 2186,2780.5C 2181.25,2782.23 2176.59,2784.9 2172,2788.5C 2172.08,2786.15 2172.91,2783.99 2174.5,2782C 2170.01,2784.25 2165.34,2786.58 2160.5,2789C 2152.17,2791.79 2150.83,2790.13 2156.5,2784C 2152.16,2784.39 2148.16,2785.89 2144.5,2788.5C 2143.97,2785.89 2144.63,2783.39 2146.5,2781C 2141.32,2782.18 2136.49,2784.35 2132,2787.5C 2130.67,2784.87 2129.34,2782.2 2128,2779.5C 2124.37,2783.91 2119.87,2785.91 2114.5,2785.5C 2115.17,2784.5 2115.83,2783.5 2116.5,2782.5C 2114.24,2781.35 2111.9,2781.19 2109.5,2782C 2111.31,2783.63 2111.48,2785.13 2110,2786.5C 2106.14,2785.15 2102.64,2783.15 2099.5,2780.5C 2098.42,2782.99 2097.09,2785.32 2095.5,2787.5C 2092.38,2784.88 2088.88,2782.88 2085,2781.5C 2084.5,2781.83 2084,2782.17 2083.5,2782.5C 2084.52,2784.43 2084.69,2786.43 2084,2788.5C 2080.95,2785.72 2077.45,2784.22 2073.5,2784C 2074.64,2785.97 2075.97,2787.81 2077.5,2789.5C 2074,2790.62 2070.67,2790.12 2067.5,2788C 2064.07,2786.2 2060.91,2784.04 2058,2781.5C 2058.33,2783.5 2058.67,2785.5 2059,2787.5C 2054.95,2784.64 2050.62,2782.31 2046,2780.5C 2043.08,2784.51 2042.25,2784.35 2043.5,2780C 2043,2779.83 2042.5,2779.67 2042,2779.5C 2037.12,2782.79 2031.79,2785.13 2026,2786.5C 2025.5,2786.17 2025,2785.83 2024.5,2785.5C 2025.71,2783.58 2027.04,2781.74 2028.5,2780C 2024.12,2779.93 2020.29,2781.43 2017,2784.5C 2017.33,2781.83 2017.67,2779.17 2018,2776.5C 2013.84,2778.58 2009.84,2780.91 2006,2783.5C 2004.66,2780.8 2003.33,2778.13 2002,2775.5C 1999.32,2780.1 1995.48,2781.76 1990.5,2780.5C 1991.83,2779.38 1992.33,2778.05 1992,2776.5C 1989.45,2776.54 1986.95,2776.71 1984.5,2777C 1985.26,2778.51 1986.26,2779.85 1987.5,2781C 1981.97,2781.82 1977.47,2779.99 1974,2775.5C 1972.67,2778.17 1971.33,2780.83 1970,2783.5C 1965.63,2780.06 1960.8,2777.89 1955.5,2777C 1957.28,2779.24 1957.78,2781.74 1957,2784.5C 1953.71,2781.43 1949.88,2779.93 1945.5,2780C 1951.2,2786.2 1949.86,2787.87 1941.5,2785C 1936.97,2782.07 1932.3,2779.73 1927.5,2778C 1929.06,2779.87 1929.73,2781.7 1929.5,2783.5C 1920.71,2777.51 1911.04,2774.01 1900.5,2773C 1901.64,2774.97 1902.97,2776.81 1904.5,2778.5C 1904,2778.83 1903.5,2779.17 1903,2779.5C 1894.83,2775.5 1887.33,2770.5 1880.5,2764.5C 1879.77,2766.4 1879.77,2768.4 1880.5,2770.5C 1877.54,2767.68 1874.2,2765.35 1870.5,2763.5C 1869.27,2766.07 1867.27,2767.4 1864.5,2767.5C 1865.01,2765.49 1865.18,2763.49 1865,2761.5C 1861.91,2765.16 1860.58,2764.16 1861,2758.5C 1859.43,2759.98 1858.09,2761.65 1857,2763.5C 1856.03,2761.61 1855.36,2759.61 1855,2757.5C 1850.99,2762.97 1847.33,2762.64 1844,2756.5C 1843.02,2758.06 1842.19,2759.73 1841.5,2761.5C 1840.24,2759.32 1838.74,2757.32 1837,2755.5C 1836.67,2757.5 1836.33,2759.5 1836,2761.5C 1831.5,2754.52 1830.67,2754.85 1833.5,2762.5C 1831.94,2763.35 1830.44,2763.01 1829,2761.5C 1827.41,2759.33 1826.08,2757 1825,2754.5C 1824.8,2756.21 1824.8,2757.87 1825,2759.5C 1821.7,2755.2 1818.04,2751.2 1814,2747.5C 1813.84,2749.86 1813.84,2752.19 1814,2754.5C 1810.25,2750 1807.25,2745 1805,2739.5C 1804.67,2741.17 1804.33,2742.83 1804,2744.5C 1802,2739.17 1799.16,2734.33 1795.5,2730C 1782.32,2726.16 1773.15,2717 1768,2702.5C 1763.43,2686.84 1761.1,2670.84 1761,2654.5C 1758.5,2647 1756,2639.5 1753.5,2632C 1754.17,2631.33 1754.83,2630.67 1755.5,2630C 1754.26,2621.58 1752.6,2613.25 1750.5,2605C 1750.89,2603.99 1751.56,2603.49 1752.5,2603.5C 1750.03,2596.31 1748.53,2588.98 1748,2581.5C 1748.91,2582.33 1749.58,2583.33 1750,2584.5C 1750.05,2576.26 1749.21,2568.1 1747.5,2560C 1747.89,2558.99 1748.56,2558.49 1749.5,2558.5C 1746.86,2550.75 1746.86,2544.42 1749.5,2539.5C 1749.33,2537.96 1748.99,2536.46 1748.5,2535C 1749.63,2534.68 1750.63,2533.85 1751.5,2532.5C 1750.94,2529.46 1750.27,2526.46 1749.5,2523.5C 1750.75,2522.37 1751.75,2521.04 1752.5,2519.5C 1751.89,2516.32 1751.22,2513.15 1750.5,2510C 1751.42,2508.19 1752.26,2508.36 1753,2510.5C 1753.67,2508.17 1753.67,2505.83 1753,2503.5C 1752.67,2503.83 1752.33,2504.17 1752,2504.5C 1751.17,2500.33 1752,2496.5 1754.5,2493C 1753.5,2491.33 1752.5,2489.67 1751.5,2488C 1752.91,2484.2 1754.24,2480.36 1755.5,2476.5C 1755.06,2475.49 1754.4,2475.49 1753.5,2476.5C 1753.17,2475.83 1752.83,2475.17 1752.5,2474.5C 1753.5,2471.52 1754,2468.52 1754,2465.5C 1752.77,2468.23 1751.94,2468.06 1751.5,2465C 1752.43,2460.22 1753.76,2455.55 1755.5,2451C 1755.09,2450.05 1754.43,2449.39 1753.5,2449C 1756.86,2440.4 1759.03,2431.56 1760,2422.5C 1758.63,2424.81 1757.8,2424.81 1757.5,2422.5C 1759.48,2415.71 1762.15,2409.21 1765.5,2403C 1764.38,2402.75 1763.38,2402.25 1762.5,2401.5C 1765.23,2396.48 1767.06,2391.14 1768,2385.5C 1769.86,2357.24 1773.53,2329.24 1779,2301.5C 1780.41,2293.19 1783.57,2285.69 1788.5,2279C 1789.45,2278.52 1790.45,2278.35 1791.5,2278.5C 1791.49,2276.69 1791.99,2275.02 1793,2273.5C 1793.33,2274.83 1793.67,2276.17 1794,2277.5C 1796.6,2271.95 1799.94,2266.95 1804,2262.5C 1804.28,2265.74 1805.12,2266.08 1806.5,2263.5C 1807.19,2264.03 1807.69,2264.69 1808,2265.5C 1808.67,2264.17 1809.33,2262.83 1810,2261.5C 1810.33,2262.5 1810.67,2263.5 1811,2264.5C 1812.05,2262.91 1813.21,2261.41 1814.5,2260C 1816.37,2259.29 1817.87,2259.79 1819,2261.5C 1819.48,2260.55 1819.65,2259.55 1819.5,2258.5C 1819.43,2258.06 1819.6,2257.73 1820,2257.5C 1821.09,2258.29 1822.25,2258.96 1823.5,2259.5C 1824.59,2258.61 1824.59,2257.61 1823.5,2256.5C 1824.5,2255.83 1825.5,2255.17 1826.5,2254.5C 1825.12,2253.14 1825.29,2252.14 1827,2251.5C 1828.94,2252.44 1830.61,2253.77 1832,2255.5C 1832,2254.17 1832,2252.83 1832,2251.5C 1834.43,2253.75 1837.26,2254.59 1840.5,2254C 1839.24,2252.66 1838.74,2251.16 1839,2249.5C 1841.35,2251.68 1843.52,2254.02 1845.5,2256.5C 1847.75,2253.17 1849.25,2253.17 1850,2256.5C 1851.67,2253.5 1854,2251.17 1857,2249.5C 1857.43,2251.67 1856.93,2253.67 1855.5,2255.5C 1857.33,2256.28 1858.83,2255.62 1860,2253.5C 1860.16,2255.86 1860.16,2258.19 1860,2260.5C 1862,2258.5 1864,2256.5 1866,2254.5C 1866.33,2256.83 1866.67,2259.17 1867,2261.5C 1868.51,2259.79 1870.01,2258.13 1871.5,2256.5C 1872.05,2258 1872.05,2259.67 1871.5,2261.5C 1872.5,2261.5 1873.5,2261.5 1874.5,2261.5C 1874.24,2260.02 1874.57,2258.69 1875.5,2257.5C 1876.83,2259.17 1878.17,2260.83 1879.5,2262.5C 1880.17,2261.17 1880.83,2259.83 1881.5,2258.5C 1883.56,2260.27 1885.39,2262.27 1887,2264.5C 1887.33,2262.83 1887.67,2261.17 1888,2259.5C 1889.02,2260.69 1890.19,2261.69 1891.5,2262.5C 1891.83,2262 1892.17,2261.5 1892.5,2261C 1889.81,2254.26 1890.98,2253.76 1896,2259.5C 1898.22,2257.63 1900.72,2256.8 1903.5,2257C 1900.84,2258.94 1900.5,2260.78 1902.5,2262.5C 1911.98,2260.18 1920.98,2257.01 1929.5,2253C 1928.17,2255 1926.83,2257 1925.5,2259C 1925.83,2259.17 1926.17,2259.33 1926.5,2259.5C 1933.26,2253.78 1940.93,2250.28 1949.5,2249C 1948.07,2251.18 1946.4,2253.18 1944.5,2255C 1948.96,2255.07 1953.13,2253.9 1957,2251.5C 1957.08,2254.08 1956.25,2256.42 1954.5,2258.5C 1959.73,2257.74 1964.73,2255.74 1969.5,2252.5C 1971.09,2254.68 1972.42,2257.01 1973.5,2259.5C 1976.54,2256.98 1979.87,2254.98 1983.5,2253.5C 1985.63,2254.61 1985.63,2256.11 1983.5,2258C 1986.88,2258.82 1990.22,2258.66 1993.5,2257.5C 1992.83,2256.5 1992.17,2255.5 1991.5,2254.5C 1992.17,2254.17 1992.83,2253.83 1993.5,2253.5C 1996.98,2254.74 1999.98,2256.74 2002.5,2259.5C 2003.58,2257.01 2004.91,2254.68 2006.5,2252.5C 2010.62,2256.06 2015.29,2258.23 2020.5,2259C 2018.62,2256.77 2017.79,2254.27 2018,2251.5C 2021.14,2254.18 2024.64,2255.18 2028.5,2254.5C 2026.56,2252.68 2025.89,2250.68 2026.5,2248.5C 2032.15,2250.04 2037.15,2252.71 2041.5,2256.5C 2042.5,2256.17 2043.17,2255.5 2043.5,2254.5C 2042.67,2253.55 2042.51,2252.55 2043,2251.5C 2044.02,2252.69 2045.19,2253.69 2046.5,2254.5C 2050.7,2253.15 2054.53,2251.15 2058,2248.5C 2057.59,2250.96 2056.93,2253.29 2056,2255.5C 2059.22,2252.61 2062.72,2250.11 2066.5,2248C 2069.6,2245.58 2072.93,2244.75 2076.5,2245.5C 2074.97,2247.19 2073.64,2249.03 2072.5,2251C 2076.44,2250.96 2080.11,2249.8 2083.5,2247.5C 2083.5,2249.83 2083.5,2252.17 2083.5,2254.5C 2087.91,2252.55 2092.08,2250.21 2096,2247.5C 2097,2250.17 2098,2252.83 2099,2255.5C 2101.78,2252.86 2104.95,2250.86 2108.5,2249.5C 2110.47,2250.02 2110.47,2251.19 2108.5,2253C 2111.55,2253.82 2114.55,2253.65 2117.5,2252.5C 2116.83,2251.5 2116.17,2250.5 2115.5,2249.5C 2120.44,2249.38 2124.61,2251.38 2128,2255.5C 2129.33,2252.87 2130.66,2250.2 2132,2247.5C 2136.61,2251.23 2141.78,2253.4 2147.5,2254C 2145.16,2252.19 2144.49,2250.03 2145.5,2247.5C 2149.18,2250.01 2153.18,2251.17 2157.5,2251C 2156.07,2248.82 2154.4,2246.82 2152.5,2245C 2160.59,2246.2 2167.92,2249.37 2174.5,2254.5C 2174.83,2254.17 2175.17,2253.83 2175.5,2253.5C 2174.38,2252.09 2173.38,2250.59 2172.5,2249C 2176.8,2250.89 2181.3,2252.72 2186,2254.5C 2190.18,2251.83 2194.68,2249.83 2199.5,2248.5C 2201.87,2249.36 2201.87,2250.53 2199.5,2252C 2202.79,2254.07 2205.96,2253.91 2209,2251.5C 2209.18,2253.49 2209.01,2255.49 2208.5,2257.5C 2213.35,2257.24 2217.69,2255.58 2221.5,2252.5C 2223.45,2254.51 2224.95,2256.85 2226,2259.5C 2229.5,2255.83 2233.67,2253.99 2238.5,2254C 2237.74,2255.51 2236.74,2256.85 2235.5,2258C 2237.17,2258.17 2238.83,2258.33 2240.5,2258.5C 2245.41,2258.93 2246.41,2257.43 2243.5,2254C 2244.17,2253.83 2244.83,2253.67 2245.5,2253.5C 2249.02,2254.68 2252.02,2256.68 2254.5,2259.5C 2255.83,2257.17 2257.17,2254.83 2258.5,2252.5C 2262.93,2255.73 2267.6,2257.73 2272.5,2258.5C 2270.28,2256.45 2269.61,2254.12 2270.5,2251.5C 2273.66,2254.42 2277.32,2255.59 2281.5,2255C 2280.04,2253.26 2278.71,2251.42 2277.5,2249.5C 2284.53,2250.51 2290.87,2253.51 2296.5,2258.5C 2296.83,2258.17 2297.17,2257.83 2297.5,2257.5C 2296.36,2255.92 2295.86,2254.26 2296,2252.5C 2301,2257.83 2306,2257.83 2311,2252.5C 2311.14,2254.26 2310.64,2255.92 2309.5,2257.5C 2309.83,2257.83 2310.17,2258.17 2310.5,2258.5C 2314.03,2255.8 2317.7,2253.3 2321.5,2251C 2329.98,2246.91 2331.31,2248.41 2325.5,2255.5C 2329.48,2255.34 2333.32,2254 2337,2251.5C 2337.33,2254.18 2336.5,2256.51 2334.5,2258.5C 2339.4,2257.73 2344.07,2255.73 2348.5,2252.5C 2349.83,2254.83 2351.17,2257.17 2352.5,2259.5C 2354.98,2256.68 2357.98,2254.68 2361.5,2253.5C 2362.17,2253.67 2362.83,2253.83 2363.5,2254C 2362.71,2255.09 2362.04,2256.25 2361.5,2257.5C 2364.78,2258.66 2368.12,2258.82 2371.5,2258C 2370.26,2256.85 2369.26,2255.51 2368.5,2254C 2373.38,2254.02 2377.55,2255.85 2381,2259.5C 2382.52,2257.26 2383.86,2254.93 2385,2252.5C 2389.91,2255.9 2395.07,2257.9 2400.5,2258.5C 2398.5,2256.51 2397.67,2254.18 2398,2251.5C 2401.96,2254.21 2406.12,2255.55 2410.5,2255.5C 2408.71,2253.42 2407.05,2251.26 2405.5,2249C 2410.95,2249.8 2416.12,2251.63 2421,2254.5C 2424.96,2252.1 2429.12,2250.1 2433.5,2248.5C 2434.17,2248.67 2434.83,2248.83 2435.5,2249C 2434.04,2250.74 2432.71,2252.58 2431.5,2254.5C 2435.33,2255.2 2438.83,2254.2 2442,2251.5C 2442.69,2253.92 2442.19,2256.09 2440.5,2258C 2445.55,2257.73 2450.05,2255.9 2454,2252.5C 2455.14,2254.93 2456.48,2257.26 2458,2259.5C 2460.33,2256.5 2463.33,2254.5 2467,2253.5C 2468.48,2254.87 2468.31,2256.37 2466.5,2258C 2469.88,2258.82 2473.22,2258.66 2476.5,2257.5C 2475.83,2256.5 2475.17,2255.5 2474.5,2254.5C 2475.17,2254.17 2475.83,2253.83 2476.5,2253.5C 2480.13,2254.98 2483.46,2256.98 2486.5,2259.5C 2487.83,2257.17 2489.17,2254.83 2490.5,2252.5C 2495.48,2255.77 2500.82,2257.93 2506.5,2259C 2504.12,2256.79 2503.12,2254.29 2503.5,2251.5C 2507.49,2254.17 2511.82,2255.67 2516.5,2256C 2514.47,2254.1 2512.8,2251.94 2511.5,2249.5C 2512,2249.17 2512.5,2248.83 2513,2248.5C 2520.68,2251.43 2527.85,2254.93 2534.5,2259C 2532.94,2257.13 2532.27,2255.3 2532.5,2253.5C 2537.19,2256.28 2542.19,2258.28 2547.5,2259.5C 2549.73,2258.78 2551.56,2257.45 2553,2255.5C 2552.78,2257.59 2552.95,2259.59 2553.5,2261.5C 2555.83,2260.23 2557,2258.23 2557,2255.5C 2558.95,2257.18 2560.95,2257.85 2563,2257.5C 2564.91,2261.46 2566.91,2261.46 2569,2257.5C 2569.49,2258.79 2569.66,2260.13 2569.5,2261.5C 2570.98,2261.76 2572.31,2261.43 2573.5,2260.5C 2572.57,2259.23 2572.41,2257.9 2573,2256.5C 2576.89,2263.33 2578.89,2262.67 2579,2254.5C 2583.05,2261.42 2584.72,2261.08 2584,2253.5C 2585.02,2254.69 2586.19,2255.69 2587.5,2256.5C 2587.83,2254.5 2588.17,2252.5 2588.5,2250.5C 2591.19,2252.36 2593.36,2254.69 2595,2257.5C 2595.2,2255.79 2595.2,2254.13 2595,2252.5C 2597.87,2256.02 2601.37,2258.68 2605.5,2260.5C 2606.05,2258.59 2606.22,2256.59 2606,2254.5C 2608,2257.17 2610,2259.83 2612,2262.5C 2613.57,2261.02 2614.91,2259.35 2616,2257.5C 2616.31,2258.31 2616.81,2258.97 2617.5,2259.5C 2620.43,2258.07 2622.93,2256.07 2625,2253.5C 2625.33,2254.5 2625.67,2255.5 2626,2256.5C 2628.05,2254.62 2629.88,2252.62 2631.5,2250.5C 2632.59,2251.39 2632.59,2252.39 2631.5,2253.5C 2633.44,2254.63 2635.11,2254.3 2636.5,2252.5 Z M 2656.5,2261.5 C 2657.77,2262.08 2657.77,2262.74 2656.5,2263.5C 2655.54,2263.03 2655.54,2262.36 2656.5,2261.5 Z M 1848.5,2758.5 C 1850.34,2758.64 1850.67,2759.31 1849.5,2760.5C 1848.7,2760.04 1848.37,2759.38 1848.5,2758.5 Z"/></g>
<g><path style="opacity:1" fill="#c53e39" d="M 2197.5,2253.5 C 2201.42,2254.42 2201.42,2255.42 2197.5,2256.5C 2196.44,2255.58 2196.44,2254.58 2197.5,2253.5 Z"/></g>
<g><path style="opacity:1" fill="#be292c" d="M 2557.5,2258.5 C 2559.48,2259.43 2559.81,2260.76 2558.5,2262.5C 2557.57,2261.31 2557.24,2259.98 2557.5,2258.5 Z"/></g>
<g><path style="opacity:0.915" fill="#bf2e2d" d="M 2602.5,2765.5 C 2597.17,2765.5 2591.83,2765.5 2586.5,2765.5C 2588.87,2763.22 2591.71,2761.56 2595,2760.5C 2596.26,2760.76 2597.26,2761.43 2598,2762.5C 2598.33,2761.5 2598.67,2760.5 2599,2759.5C 2600.42,2761.4 2601.59,2763.4 2602.5,2765.5 Z"/></g>
<g><path style="opacity:0.761" fill="#c43e39" d="M 2580.5,2765.5 C 2579.83,2765.5 2579.17,2765.5 2578.5,2765.5C 2579.46,2764.04 2580.62,2762.71 2582,2761.5C 2582.77,2763.35 2582.27,2764.69 2580.5,2765.5 Z"/></g>
<g><path style="opacity:0.043" fill="#fed1b8" d="M 1880.5,2770.5 C 1881.83,2771.17 1881.83,2771.17 1880.5,2770.5 Z"/></g>
</svg>
