<?xml version="1.0" encoding="UTF-8"?>
<!DOCTYPE svg PUBLIC "-//W3C//DTD SVG 1.1//EN" "http://www.w3.org/Graphics/SVG/1.1/DTD/svg11.dtd">
<svg xmlns="http://www.w3.org/2000/svg" version="1.1" width="3000px" height="3000px" style="shape-rendering:geometricPrecision; text-rendering:geometricPrecision; image-rendering:optimizeQuality; fill-rule:evenodd; clip-rule:evenodd" xmlns:xlink="http://www.w3.org/1999/xlink">
<g><path style="opacity:0.999" fill="#ab7126" d="M 1568.5,199.5 C 1586.91,206.073 1600.08,218.406 1608,236.5C 1830.88,744.958 2054.04,1253.29 2277.5,1761.5C 2278.69,1762.43 2280.02,1762.76 2281.5,1762.5C 2268.45,1764.17 2255.45,1766.17 2242.5,1768.5C 2212.5,1772.17 2182.5,1775.83 2152.5,1779.5C 1970.21,1363.6 1787.54,947.929 1604.5,532.5C 1602.75,489.134 1603.41,445.801 1606.5,402.5C 1629.24,396.433 1639.07,381.433 1636,357.5C 1634.03,346.529 1628.36,338.195 1619,332.5C 1618.6,332.728 1618.43,333.062 1618.5,333.5C 1605.8,323.362 1593.96,324.362 1583,336.5C 1574.07,351.061 1573.24,366.061 1580.5,381.5C 1568.79,386.625 1556.79,390.958 1544.5,394.5C 1528.1,356.821 1511.6,319.155 1495,281.5C 1484.52,249.584 1493.02,224.084 1520.5,205C 1535.81,197.278 1551.81,195.445 1568.5,199.5 Z"/></g>
<g><path style="opacity:0.99" fill="#c48634" d="M 2312.5,1758.5 C 2302.25,1760.15 2291.92,1761.48 2281.5,1762.5C 2280.02,1762.76 2278.69,1762.43 2277.5,1761.5C 2054.04,1253.29 1830.88,744.958 1608,236.5C 1600.08,218.406 1586.91,206.073 1568.5,199.5C 1603.15,192.076 1628.31,204.076 1644,235.5C 1866.85,743.193 2089.68,1250.86 2312.5,1758.5 Z"/></g>
<g><path style="opacity:1" fill="#aa7026" d="M 353.5,262.5 C 371.746,269.068 384.58,281.401 392,299.5C 759.726,1107.95 1127.73,1916.29 1496,2724.5C 1507.69,2763.3 1495.19,2790.97 1458.5,2807.5C 1429.45,2814.1 1406.29,2805.43 1389,2781.5C 1321.87,2635.26 1255.04,2488.93 1188.5,2342.5C 1177.78,2317.39 1166.78,2292.39 1155.5,2267.5C 1152.24,2261.31 1149.24,2254.98 1146.5,2248.5C 1145.64,2247.42 1144.64,2247.25 1143.5,2248C 1024.55,2335.28 905.885,2422.95 787.5,2511C 779.461,2516.92 771.127,2522.09 762.5,2526.5C 734.711,2533.07 711.878,2525.4 694,2503.5C 678.345,2478.41 679.011,2453.74 696,2429.5C 701.239,2423.59 707.072,2418.42 713.5,2414C 795.964,2354.02 877.964,2293.52 959.5,2232.5C 963.262,2230.59 966.929,2228.42 970.5,2226C 1011.83,2195.33 1053.17,2164.67 1094.5,2134C 888.871,1682.57 683.371,1231.07 478,779.5C 472.043,766.588 465.876,753.922 459.5,741.5C 400.622,611.407 341.455,481.407 282,351.5C 268.085,321.748 272.918,295.582 296.5,273C 313.734,260.016 332.734,256.516 353.5,262.5 Z"/></g>
<g><path style="opacity:0.997" fill="#c38635" d="M 507.5,473.5 C 559.989,590.473 612.989,707.14 666.5,823.5C 847.986,1222.47 1029.49,1621.47 1211,2020.5C 1214.24,2027.44 1217.74,2034.11 1221.5,2040.5C 1221.34,2041.87 1221.51,2043.21 1222,2044.5C 1238.95,2081.23 1255.79,2117.89 1272.5,2154.5C 1275.26,2161.02 1278.26,2167.36 1281.5,2173.5C 1288.74,2191.58 1296.74,2209.25 1305.5,2226.5C 1321.56,2262.96 1337.89,2299.29 1354.5,2335.5C 1355.35,2337.88 1356.68,2339.88 1358.5,2341.5C 1414.44,2466.05 1470.94,2590.38 1528,2714.5C 1543.69,2744.85 1539.52,2772.02 1515.5,2796C 1498.41,2808.85 1479.41,2812.68 1458.5,2807.5C 1495.19,2790.97 1507.69,2763.3 1496,2724.5C 1127.73,1916.29 759.726,1107.95 392,299.5C 384.58,281.401 371.746,269.068 353.5,262.5C 380.841,255.67 403.341,263.336 421,285.5C 450.652,347.803 479.485,410.47 507.5,473.5 Z"/></g>
<g><path style="opacity:1" fill="#ba7d2d" d="M 1618.5,333.5 C 1627.85,343.73 1631.01,355.73 1628,369.5C 1626,381.491 1619.5,389.991 1608.5,395C 1604.11,395.706 1599.78,395.54 1595.5,394.5C 1588.97,391.97 1583.97,387.636 1580.5,381.5C 1573.24,366.061 1574.07,351.061 1583,336.5C 1593.96,324.362 1605.8,323.362 1618.5,333.5 Z"/></g>
<g><path style="opacity:1" fill="#915c1d" d="M 1606.5,402.5 C 1606.5,401.5 1606.5,400.5 1606.5,399.5C 1602.21,399.205 1598.54,397.538 1595.5,394.5C 1599.78,395.54 1604.11,395.706 1608.5,395C 1619.5,389.991 1626,381.491 1628,369.5C 1631.01,355.73 1627.85,343.73 1618.5,333.5C 1618.43,333.062 1618.6,332.728 1619,332.5C 1628.36,338.195 1634.03,346.529 1636,357.5C 1639.07,381.433 1629.24,396.433 1606.5,402.5 Z"/></g>
<g><path style="opacity:0.999" fill="#29408d" d="M 1580.5,381.5 C 1583.97,387.636 1588.97,391.97 1595.5,394.5C 1598.54,397.538 1602.21,399.205 1606.5,399.5C 1606.5,400.5 1606.5,401.5 1606.5,402.5C 1603.41,445.801 1602.75,489.134 1604.5,532.5C 1611.85,683.289 1635.02,831.622 1674,977.5C 1724.79,1167.23 1791.79,1350.9 1875,1528.5C 1890.35,1558.15 1907.68,1586.49 1927,1613.5C 1972.3,1674.73 2020.47,1733.73 2071.5,1790.5C 2071.08,1791.22 2070.42,1791.72 2069.5,1792C 2052.96,1794.09 2036.63,1796.59 2020.5,1799.5C 1950.19,1807.8 1880.02,1817.14 1810,1827.5C 1809.1,1827.26 1808.26,1826.92 1807.5,1826.5C 1676.55,1665.72 1575.05,1487.05 1503,1290.5C 1427.53,1081.14 1381.19,865.475 1364,643.5C 1358.83,575.432 1355.66,507.432 1354.5,439.5C 1392.54,432.525 1430.54,424.692 1468.5,416C 1494.14,409.759 1519.47,402.592 1544.5,394.5C 1556.79,390.958 1568.79,386.625 1580.5,381.5 Z"/></g>
<g><path style="opacity:1" fill="#c7dbf2" d="M 1354.5,439.5 C 1355.66,507.432 1358.83,575.432 1364,643.5C 1381.19,865.475 1427.53,1081.14 1503,1290.5C 1575.05,1487.05 1676.55,1665.72 1807.5,1826.5C 1807.08,1827.22 1806.42,1827.72 1805.5,1828C 1799.33,1828.64 1793.33,1829.48 1787.5,1830.5C 1730.8,1837.93 1674.14,1845.59 1617.5,1853.5C 1600.33,1831.29 1578,1823.29 1550.5,1829.5C 1539.5,1827.44 1528.5,1827.11 1517.5,1828.5C 1311.91,1532.4 1182.74,1205.06 1130,846.5C 1112.09,722.475 1102.25,597.808 1100.5,472.5C 1185.56,464.491 1270.23,453.491 1354.5,439.5 Z"/></g>
<g><path style="opacity:1" fill="#ba7d2d" d="M 421.5,452.5 C 434.575,469.939 434.741,487.606 422,505.5C 415.869,511.981 408.369,514.647 399.5,513.5C 384.265,506.915 376.932,495.082 377.5,478C 377.549,463.895 383.549,453.228 395.5,446C 405.703,442.386 414.37,444.553 421.5,452.5 Z"/></g>
<g><path style="opacity:1" fill="#915b1c" d="M 399.5,513.5 C 408.369,514.647 415.869,511.981 422,505.5C 434.741,487.606 434.575,469.939 421.5,452.5C 421.897,451.475 422.563,451.308 423.5,452C 438.166,464.484 442.332,479.984 436,498.5C 430.47,513.342 419.97,519.509 404.5,517C 402.416,516.303 400.749,515.136 399.5,513.5 Z"/></g>
<g><path style="opacity:1" fill="#29408d" d="M 1100.5,472.5 C 1102.25,597.808 1112.09,722.475 1130,846.5C 1182.74,1205.06 1311.91,1532.4 1517.5,1828.5C 1509.09,1830.37 1501.42,1833.87 1494.5,1839C 1443.29,1877.05 1391.96,1914.88 1340.5,1952.5C 1270.68,1873.13 1211.18,1786.47 1162,1692.5C 1105.45,1583.06 1059.12,1469.39 1023,1351.5C 971.113,1179.28 933.78,1003.95 911,825.5C 896.136,713.588 885.969,601.254 880.5,488.5C 954.022,485.439 1027.36,480.106 1100.5,472.5 Z"/></g>
<g><path style="opacity:0.998" fill="#29408c" d="M 507.5,473.5 C 555.628,481.922 603.962,487.255 652.5,489.5C 649.293,601.173 653.96,712.506 666.5,823.5C 612.989,707.14 559.989,590.473 507.5,473.5 Z"/></g>
<g><path style="opacity:1" fill="#c7dbf2" d="M 880.5,488.5 C 885.969,601.254 896.136,713.588 911,825.5C 933.78,1003.95 971.113,1179.28 1023,1351.5C 1059.12,1469.39 1105.45,1583.06 1162,1692.5C 1211.18,1786.47 1270.68,1873.13 1340.5,1952.5C 1301.05,1982.07 1261.38,2011.4 1221.5,2040.5C 1217.74,2034.11 1214.24,2027.44 1211,2020.5C 1029.49,1621.47 847.986,1222.47 666.5,823.5C 653.96,712.506 649.293,601.173 652.5,489.5C 728.516,492.323 804.516,491.99 880.5,488.5 Z"/></g>
<g><path style="opacity:0.998" fill="#29408c" d="M 459.5,741.5 C 465.876,753.922 472.043,766.588 478,779.5C 683.371,1231.07 888.871,1682.57 1094.5,2134C 1053.17,2164.67 1011.83,2195.33 970.5,2226C 966.929,2228.42 963.262,2230.59 959.5,2232.5C 920.197,2200.7 884.697,2165.03 853,2125.5C 818.366,2076.92 789.366,2024.92 766,1969.5C 731.122,1886.54 700.789,1801.87 675,1715.5C 624.791,1545.33 581.791,1373.33 546,1199.5C 514.042,1047.42 485.209,894.75 459.5,741.5 Z"/></g>
<g><path style="opacity:0.999" fill="#aa7026" d="M 2654.5,1674.5 C 2685.28,1687.71 2698.78,1711.05 2695,1744.5C 2692.14,1757.23 2685.98,1767.9 2676.5,1776.5C 2683.41,1755.63 2679.07,1737.46 2663.5,1722C 2655.19,1715.67 2645.86,1713.01 2635.5,1714C 2601.51,1719.07 2567.51,1723.9 2533.5,1728.5C 2559.08,1710.03 2585.41,1692.53 2612.5,1676C 2626.36,1670.77 2640.36,1670.27 2654.5,1674.5 Z"/></g>
<g><path style="opacity:0.989" fill="#80501a" d="M 2655.5,1816.5 C 2658.99,1809.52 2661.32,1802.19 2662.5,1794.5C 2660.9,1794.77 2659.57,1794.43 2658.5,1793.5C 2666.47,1789.86 2672.47,1784.19 2676.5,1776.5C 2685.98,1767.9 2692.14,1757.23 2695,1744.5C 2698.78,1711.05 2685.28,1687.71 2654.5,1674.5C 2685.52,1667.26 2709.35,1677.26 2726,1704.5C 2738.36,1734.2 2732.53,1759.7 2708.5,1781C 2690.8,1792.84 2673.14,1804.68 2655.5,1816.5 Z"/></g>
<g><path style="opacity:1" fill="#293f88" d="M 2676.5,1776.5 C 2672.47,1784.19 2666.47,1789.86 2658.5,1793.5C 2655.6,1794.89 2652.6,1796.06 2649.5,1797C 2593.75,1804.77 2538.09,1812.94 2482.5,1821.5C 2481.58,1821.46 2480.92,1821.12 2480.5,1820.5C 2486,1816.17 2489.5,1810.51 2491,1803.5C 2493.94,1782.85 2489.27,1764.19 2477,1747.5C 2472.57,1742.54 2467.07,1739.54 2460.5,1738.5C 2484.62,1734.61 2508.96,1731.27 2533.5,1728.5C 2567.51,1723.9 2601.51,1719.07 2635.5,1714C 2645.86,1713.01 2655.19,1715.67 2663.5,1722C 2679.07,1737.46 2683.41,1755.63 2676.5,1776.5 Z"/></g>
<g><path style="opacity:0.998" fill="#a2bfd8" d="M 2460.5,1738.5 C 2467.07,1739.54 2472.57,1742.54 2477,1747.5C 2489.27,1764.19 2493.94,1782.85 2491,1803.5C 2489.5,1810.51 2486,1816.17 2480.5,1820.5C 2479.17,1821.17 2477.83,1821.83 2476.5,1822.5C 2407.85,1832.69 2339.18,1843.02 2270.5,1853.5C 2269.58,1853.46 2268.92,1853.12 2268.5,1852.5C 2276.54,1847.46 2281.37,1840.13 2283,1830.5C 2286.18,1809.06 2280.35,1790.56 2265.5,1775C 2258.89,1769.3 2251.22,1767.13 2242.5,1768.5C 2255.45,1766.17 2268.45,1764.17 2281.5,1762.5C 2291.92,1761.48 2302.25,1760.15 2312.5,1758.5C 2361.76,1751.37 2411.09,1744.7 2460.5,1738.5 Z"/></g>
<g><path style="opacity:1" fill="#293f88" d="M 2242.5,1768.5 C 2251.22,1767.13 2258.89,1769.3 2265.5,1775C 2280.35,1790.56 2286.18,1809.06 2283,1830.5C 2281.37,1840.13 2276.54,1847.46 2268.5,1852.5C 2266.25,1853.46 2263.92,1854.12 2261.5,1854.5C 2185.24,1866.63 2108.9,1878.3 2032.5,1889.5C 2045.52,1883.94 2052.69,1873.94 2054,1859.5C 2056.04,1837.94 2049.2,1819.78 2033.5,1805C 2029.36,1802.59 2025.03,1800.76 2020.5,1799.5C 2036.63,1796.59 2052.96,1794.09 2069.5,1792C 2070.42,1791.72 2071.08,1791.22 2071.5,1790.5C 2098.72,1787.47 2125.72,1783.8 2152.5,1779.5C 2182.5,1775.83 2212.5,1772.17 2242.5,1768.5 Z"/></g>
<g><path style="opacity:0.997" fill="#253a6d" d="M 2658.5,1793.5 C 2659.57,1794.43 2660.9,1794.77 2662.5,1794.5C 2661.32,1802.19 2658.99,1809.52 2655.5,1816.5C 2635.64,1851.56 2612.8,1884.56 2587,1915.5C 2557.19,1951.97 2524.69,1985.81 2489.5,2017C 2473.83,2028.84 2457.49,2039.67 2440.5,2049.5C 2430.7,2054.57 2421.03,2059.9 2411.5,2065.5C 2385.57,2079.3 2359.24,2092.3 2332.5,2104.5C 2401.83,2033.52 2448,1949.52 2471,1852.5C 2473.15,1842.55 2474.99,1832.55 2476.5,1822.5C 2477.83,1821.83 2479.17,1821.17 2480.5,1820.5C 2480.92,1821.12 2481.58,1821.46 2482.5,1821.5C 2538.09,1812.94 2593.75,1804.77 2649.5,1797C 2652.6,1796.06 2655.6,1794.89 2658.5,1793.5 Z"/></g>
<g><path style="opacity:1" fill="#a2bfd8" d="M 2020.5,1799.5 C 2025.03,1800.76 2029.36,1802.59 2033.5,1805C 2049.2,1819.78 2056.04,1837.94 2054,1859.5C 2052.69,1873.94 2045.52,1883.94 2032.5,1889.5C 2031.83,1889.5 2031.17,1889.5 2030.5,1889.5C 1957.1,1900.37 1883.76,1911.7 1810.5,1923.5C 1809.58,1923.46 1808.92,1923.12 1808.5,1922.5C 1819.09,1916.7 1825.25,1907.7 1827,1895.5C 1829.68,1875.53 1825.01,1857.53 1813,1841.5C 1806.24,1833.87 1797.74,1830.21 1787.5,1830.5C 1793.33,1829.48 1799.33,1828.64 1805.5,1828C 1806.42,1827.72 1807.08,1827.22 1807.5,1826.5C 1808.26,1826.92 1809.1,1827.26 1810,1827.5C 1880.02,1817.14 1950.19,1807.8 2020.5,1799.5 Z"/></g>
<g><path style="opacity:0.999" fill="#84a2be" d="M 2476.5,1822.5 C 2474.99,1832.55 2473.15,1842.55 2471,1852.5C 2448,1949.52 2401.83,2033.52 2332.5,2104.5C 2321.95,2109.28 2311.62,2114.28 2301.5,2119.5C 2236.3,2147.12 2169.64,2170.79 2101.5,2190.5C 2089.11,2193.68 2076.78,2197.01 2064.5,2200.5C 2121.33,2153.52 2168.5,2098.52 2206,2035.5C 2237.08,1979.08 2255.58,1918.75 2261.5,1854.5C 2263.92,1854.12 2266.25,1853.46 2268.5,1852.5C 2268.92,1853.12 2269.58,1853.46 2270.5,1853.5C 2339.18,1843.02 2407.85,1832.69 2476.5,1822.5 Z"/></g>
<g><path style="opacity:1" fill="#aa7026" d="M 1550.5,1829.5 C 1587.44,1847.4 1598.94,1875.73 1585,1914.5C 1578.93,1925.24 1570.76,1934.07 1560.5,1941C 1466.34,2010.58 1372.01,2079.91 1277.5,2149C 1275.23,2150.43 1273.57,2152.26 1272.5,2154.5C 1255.79,2117.89 1238.95,2081.23 1222,2044.5C 1221.51,2043.21 1221.34,2041.87 1221.5,2040.5C 1261.38,2011.4 1301.05,1982.07 1340.5,1952.5C 1391.96,1914.88 1443.29,1877.05 1494.5,1839C 1501.42,1833.87 1509.09,1830.37 1517.5,1828.5C 1528.5,1827.11 1539.5,1827.44 1550.5,1829.5 Z"/></g>
<g><path style="opacity:1" fill="#80511a" d="M 1617.5,1853.5 C 1629.58,1876.15 1629.42,1898.81 1617,1921.5C 1613.53,1925.97 1609.7,1930.13 1605.5,1934C 1594.96,1942.05 1584.29,1949.88 1573.5,1957.5C 1570.28,1959.6 1567.28,1961.94 1564.5,1964.5C 1524.62,1993.6 1484.95,2022.93 1445.5,2052.5C 1390.27,2092.07 1335.6,2132.4 1281.5,2173.5C 1278.26,2167.36 1275.26,2161.02 1272.5,2154.5C 1273.57,2152.26 1275.23,2150.43 1277.5,2149C 1372.01,2079.91 1466.34,2010.58 1560.5,1941C 1570.76,1934.07 1578.93,1925.24 1585,1914.5C 1598.94,1875.73 1587.44,1847.4 1550.5,1829.5C 1578,1823.29 1600.33,1831.29 1617.5,1853.5 Z"/></g>
<g><path style="opacity:1" fill="#293f89" d="M 1787.5,1830.5 C 1797.74,1830.21 1806.24,1833.87 1813,1841.5C 1825.01,1857.53 1829.68,1875.53 1827,1895.5C 1825.25,1907.7 1819.09,1916.7 1808.5,1922.5C 1806.56,1923.15 1804.56,1923.48 1802.5,1923.5C 1727.37,1935.1 1652.21,1946.77 1577,1958.5C 1575.62,1958.49 1574.45,1958.15 1573.5,1957.5C 1584.29,1949.88 1594.96,1942.05 1605.5,1934C 1609.7,1930.13 1613.53,1925.97 1617,1921.5C 1629.42,1898.81 1629.58,1876.15 1617.5,1853.5C 1674.14,1845.59 1730.8,1837.93 1787.5,1830.5 Z"/></g>
<g><path style="opacity:1" fill="#253a6e" d="M 2261.5,1854.5 C 2255.58,1918.75 2237.08,1979.08 2206,2035.5C 2168.5,2098.52 2121.33,2153.52 2064.5,2200.5C 2054.03,2203.33 2043.7,2206.33 2033.5,2209.5C 2001.82,2217.17 1970.15,2225 1938.5,2233C 1907.59,2239.95 1876.59,2246.45 1845.5,2252.5C 1927.68,2167.25 1984.51,2066.59 2016,1950.5C 2021.16,1930.2 2025.99,1909.86 2030.5,1889.5C 2031.17,1889.5 2031.83,1889.5 2032.5,1889.5C 2108.9,1878.3 2185.24,1866.63 2261.5,1854.5 Z"/></g>
<g><path style="opacity:1" fill="#84a2be" d="M 2030.5,1889.5 C 2025.99,1909.86 2021.16,1930.2 2016,1950.5C 1984.51,2066.59 1927.68,2167.25 1845.5,2252.5C 1810.73,2260.12 1775.73,2267.12 1740.5,2273.5C 1696.61,2281.93 1652.61,2289.93 1608.5,2297.5C 1635.23,2271.27 1660.39,2243.61 1684,2214.5C 1751.49,2129.25 1790.99,2032.25 1802.5,1923.5C 1804.56,1923.48 1806.56,1923.15 1808.5,1922.5C 1808.92,1923.12 1809.58,1923.46 1810.5,1923.5C 1883.76,1911.7 1957.1,1900.37 2030.5,1889.5 Z"/></g>
<g><path style="opacity:0.999" fill="#253a6e" d="M 1802.5,1923.5 C 1790.99,2032.25 1751.49,2129.25 1684,2214.5C 1660.39,2243.61 1635.23,2271.27 1608.5,2297.5C 1525.14,2311.95 1441.8,2326.62 1358.5,2341.5C 1356.68,2339.88 1355.35,2337.88 1354.5,2335.5C 1360.8,2333.86 1366.8,2331.36 1372.5,2328C 1401.29,2311.39 1426.29,2290.22 1447.5,2264.5C 1483.81,2218.89 1510.48,2167.89 1527.5,2111.5C 1543.41,2065.88 1555.91,2019.22 1565,1971.5C 1565.8,1968.96 1565.63,1966.63 1564.5,1964.5C 1567.28,1961.94 1570.28,1959.6 1573.5,1957.5C 1574.45,1958.15 1575.62,1958.49 1577,1958.5C 1652.21,1946.77 1727.37,1935.1 1802.5,1923.5 Z"/></g>
<g><path style="opacity:1" fill="#29408c" d="M 1564.5,1964.5 C 1565.63,1966.63 1565.8,1968.96 1565,1971.5C 1555.91,2019.22 1543.41,2065.88 1527.5,2111.5C 1499.05,2093.38 1471.72,2073.72 1445.5,2052.5C 1484.95,2022.93 1524.62,1993.6 1564.5,1964.5 Z"/></g>
<g><path style="opacity:0.989" fill="#c38534" d="M 2440.5,2049.5 C 2510.26,2208.69 2579.76,2368.03 2649,2527.5C 2654.74,2565.73 2639.24,2590.57 2602.5,2602C 2592.33,2604.18 2582.33,2603.68 2572.5,2600.5C 2605.97,2585.89 2619.14,2560.56 2612,2524.5C 2544.6,2371.7 2477.77,2218.7 2411.5,2065.5C 2421.03,2059.9 2430.7,2054.57 2440.5,2049.5 Z"/></g>
<g><path style="opacity:1" fill="#c7dbf2" d="M 1445.5,2052.5 C 1471.72,2073.72 1499.05,2093.38 1527.5,2111.5C 1510.48,2167.89 1483.81,2218.89 1447.5,2264.5C 1414.93,2258.09 1382.6,2250.59 1350.5,2242C 1335.08,2237.92 1320.08,2232.75 1305.5,2226.5C 1296.74,2209.25 1288.74,2191.58 1281.5,2173.5C 1335.6,2132.4 1390.27,2092.07 1445.5,2052.5 Z"/></g>
<g><path style="opacity:0.999" fill="#ab7126" d="M 2411.5,2065.5 C 2477.77,2218.7 2544.6,2371.7 2612,2524.5C 2619.14,2560.56 2605.97,2585.89 2572.5,2600.5C 2542.92,2607.95 2519.42,2599.28 2502,2574.5C 2435.12,2422.74 2368.28,2271.08 2301.5,2119.5C 2311.62,2114.28 2321.95,2109.28 2332.5,2104.5C 2359.24,2092.3 2385.57,2079.3 2411.5,2065.5 Z"/></g>
<g><path style="opacity:1" fill="#ba7d2d" d="M 1188.5,2114.5 C 1199.29,2128.46 1201.46,2143.8 1195,2160.5C 1189.25,2172.46 1179.75,2177.79 1166.5,2176.5C 1152.05,2169.81 1145.05,2158.31 1145.5,2142C 1145.16,2125.99 1152.16,2114.65 1166.5,2108C 1174.87,2106.84 1182.21,2109 1188.5,2114.5 Z"/></g>
<g><path style="opacity:1" fill="#915c1c" d="M 1188.5,2114.5 C 1195.9,2118.07 1201.07,2123.74 1204,2131.5C 1209.01,2146.76 1206.67,2160.76 1197,2173.5C 1187.46,2182.72 1177.29,2183.72 1166.5,2176.5C 1179.75,2177.79 1189.25,2172.46 1195,2160.5C 1201.46,2143.8 1199.29,2128.46 1188.5,2114.5 Z"/></g>
<g><path style="opacity:0.987" fill="#80511a" d="M 2101.5,2190.5 C 2022.41,2244.56 1943.07,2298.39 1863.5,2352C 1847.87,2360.64 1831.53,2362.47 1814.5,2357.5C 1818.36,2355.59 1822.36,2353.76 1826.5,2352C 1896.3,2305.03 1965.97,2257.86 2035.5,2210.5C 2035.04,2209.7 2034.38,2209.37 2033.5,2209.5C 2043.7,2206.33 2054.03,2203.33 2064.5,2200.5C 2076.78,2197.01 2089.11,2193.68 2101.5,2190.5 Z"/></g>
<g><path style="opacity:0.999" fill="#aa7026" d="M 2033.5,2209.5 C 2034.38,2209.37 2035.04,2209.7 2035.5,2210.5C 1965.97,2257.86 1896.3,2305.03 1826.5,2352C 1822.36,2353.76 1818.36,2355.59 1814.5,2357.5C 1782.99,2364.99 1758.82,2354.99 1742,2327.5C 1733.96,2309.69 1733.46,2291.69 1740.5,2273.5C 1775.73,2267.12 1810.73,2260.12 1845.5,2252.5C 1876.59,2246.45 1907.59,2239.95 1938.5,2233C 1970.15,2225 2001.82,2217.17 2033.5,2209.5 Z"/></g>
<g><path style="opacity:1" fill="#29408c" d="M 1305.5,2226.5 C 1320.08,2232.75 1335.08,2237.92 1350.5,2242C 1382.6,2250.59 1414.93,2258.09 1447.5,2264.5C 1426.29,2290.22 1401.29,2311.39 1372.5,2328C 1366.8,2331.36 1360.8,2333.86 1354.5,2335.5C 1337.89,2299.29 1321.56,2262.96 1305.5,2226.5 Z"/></g>
<g><path style="opacity:0.99" fill="#80511a" d="M 1155.5,2267.5 C 1154.45,2267.35 1153.45,2267.52 1152.5,2268C 1132.7,2281.98 1113.37,2296.48 1094.5,2311.5C 1000.2,2380.99 905.863,2450.49 811.5,2520C 796.04,2528.56 779.706,2530.73 762.5,2526.5C 771.127,2522.09 779.461,2516.92 787.5,2511C 905.885,2422.95 1024.55,2335.28 1143.5,2248C 1144.64,2247.25 1145.64,2247.42 1146.5,2248.5C 1149.24,2254.98 1152.24,2261.31 1155.5,2267.5 Z"/></g>
<g><path style="opacity:0.99" fill="#2a408c" d="M 1155.5,2267.5 C 1166.78,2292.39 1177.78,2317.39 1188.5,2342.5C 1155.94,2335.54 1124.61,2325.2 1094.5,2311.5C 1113.37,2296.48 1132.7,2281.98 1152.5,2268C 1153.45,2267.52 1154.45,2267.35 1155.5,2267.5 Z"/></g>
</svg>
