<?xml version="1.0" encoding="UTF-8"?>
<!DOCTYPE svg PUBLIC "-//W3C//DTD SVG 1.1//EN" "http://www.w3.org/Graphics/SVG/1.1/DTD/svg11.dtd">
<svg xmlns="http://www.w3.org/2000/svg" version="1.1" width="3000px" height="3000px" style="shape-rendering:geometricPrecision; text-rendering:geometricPrecision; image-rendering:optimizeQuality; fill-rule:evenodd; clip-rule:evenodd" xmlns:xlink="http://www.w3.org/1999/xlink">
<g><path style="opacity:1" fill="#d99e82" d="M 2592.5,1292.5 C 2562.81,1330.36 2527.14,1361.2 2485.5,1385C 2440.3,1410.76 2392.63,1430.76 2342.5,1445C 2266.11,1466.49 2188.44,1481.49 2109.5,1490C 2014.41,1499.88 1919.08,1506.21 1823.5,1509C 1639.18,1512.83 1454.85,1513.5 1270.5,1511C 1171.71,1509.38 1073.04,1505.05 974.5,1498C 883.722,1491.22 794.055,1477.56 705.5,1457C 631.197,1440.02 561.863,1411.35 497.5,1371C 465.818,1349.15 437.818,1323.32 413.5,1293.5C 374.524,1240.42 353.024,1180.76 349,1114.5C 341.441,971.674 380.441,843.34 466,729.5C 509.511,673.656 559.344,624.156 615.5,581C 702.386,516.541 797.052,465.541 899.5,428C 1051.53,373.526 1208.2,341.193 1369.5,331C 1555.58,318.101 1739.58,332.101 1921.5,373C 2053.2,402.366 2177.53,450.366 2294.5,517C 2374.46,563.591 2445.63,621.425 2508,690.5C 2561.62,751.695 2601.96,821.029 2629,898.5C 2655.44,979.045 2663.44,1061.38 2653,1145.5C 2645.37,1199.95 2625.2,1248.95 2592.5,1292.5 Z"/></g>
<g><path style="opacity:1" fill="#fee7b5" d="M 1688.5,468.5 C 1726.17,467.689 1752,484.689 1766,519.5C 1775.22,559.219 1762.05,588.719 1726.5,608C 1714.59,612.581 1702.26,615.248 1689.5,616C 1667.55,617.679 1645.89,616.013 1624.5,611C 1607.94,607.147 1594.44,598.647 1584,585.5C 1578.04,573.544 1578.04,561.544 1584,549.5C 1599.45,522.383 1620.62,500.883 1647.5,485C 1660.21,476.825 1673.88,471.325 1688.5,468.5 Z"/></g>
<g><path style="opacity:1" fill="#fee7b5" d="M 961.5,531.5 C 987.058,529.518 1009.06,537.352 1027.5,555C 1046.72,573.606 1061.89,595.106 1073,619.5C 1079.84,634.406 1081.18,649.74 1077,665.5C 1071.04,676.435 1061.88,683.268 1049.5,686C 1005.22,693.278 964.222,684.945 926.5,661C 901.233,637.43 894.066,609.264 905,576.5C 916.319,552.009 935.153,537.009 961.5,531.5 Z"/></g>
<g><path style="opacity:1" fill="#fee7b5" d="M 2118.5,599.5 C 2146.32,597.75 2169.66,607.083 2188.5,627.5C 2211.58,649.775 2227.42,676.442 2236,707.5C 2238.67,721.845 2235.17,734.345 2225.5,745C 2207.31,755.771 2187.65,759.771 2166.5,757C 2141.52,754.839 2117.85,748.172 2095.5,737C 2066.95,720.072 2054.12,694.905 2057,661.5C 2064.35,627.653 2084.85,606.987 2118.5,599.5 Z"/></g>
<g><path style="opacity:1" fill="#fee7b5" d="M 1405.5,728.5 C 1448.88,727.417 1476.05,747.751 1487,789.5C 1490.04,812.029 1484.38,832.029 1470,849.5C 1446.99,875.085 1419.16,893.252 1386.5,904C 1354.48,913.618 1335.32,902.118 1329,869.5C 1325.73,827.574 1335.73,789.241 1359,754.5C 1371.73,740.721 1387.23,732.055 1405.5,728.5 Z"/></g>
<g><path style="opacity:1" fill="#fee7b5" d="M 658.5,798.5 C 703.267,797.12 730.767,818.12 741,861.5C 743.554,890.554 733.387,914.054 710.5,932C 687.248,949.875 661.248,962.209 632.5,969C 620.739,971.258 609.072,970.924 597.5,968C 586.609,962.775 579.776,954.275 577,942.5C 573.874,909.934 580.207,879.267 596,850.5C 605.388,829.779 620.221,814.279 640.5,804C 646.531,801.832 652.531,799.999 658.5,798.5 Z"/></g>
<g><path style="opacity:1" fill="#fee7b5" d="M 2376.5,943.5 C 2386.23,943.109 2395.9,943.609 2405.5,945C 2420.43,951.994 2428.6,963.827 2430,980.5C 2429.87,1019.55 2418.87,1055.22 2397,1087.5C 2375.04,1113.54 2347.54,1122.04 2314.5,1113C 2279.61,1098.06 2263.44,1071.56 2266,1033.5C 2269.72,1013.89 2279.22,997.728 2294.5,985C 2318.72,965.055 2346.06,951.222 2376.5,943.5 Z"/></g>
<g><path style="opacity:1" fill="#fee7b5" d="M 1098.5,1075.5 C 1121.11,1074.09 1141.11,1080.59 1158.5,1095C 1179.96,1114.46 1196.8,1137.29 1209,1163.5C 1214.88,1176.24 1216.88,1189.57 1215,1203.5C 1211.69,1215.48 1204.19,1223.64 1192.5,1228C 1148.37,1238.42 1106.71,1232.08 1067.5,1209C 1044.28,1191.39 1033.78,1167.89 1036,1138.5C 1043.68,1104.32 1064.51,1083.32 1098.5,1075.5 Z"/></g>
<g><path style="opacity:1" fill="#fee7b5" d="M 1847.5,1075.5 C 1870.59,1074.39 1890.92,1081.22 1908.5,1096C 1929.53,1115.56 1946.03,1138.4 1958,1164.5C 1964.34,1177.62 1966.01,1191.28 1963,1205.5C 1958.34,1218.6 1949.17,1226.77 1935.5,1230C 1896.74,1237.08 1859.74,1231.75 1824.5,1214C 1794.55,1196.94 1781.38,1171.1 1785,1136.5C 1792.87,1102.79 1813.7,1082.46 1847.5,1075.5 Z"/></g>
<g><path style="opacity:1" fill="#dc2e44" d="M 2592.5,1292.5 C 2596.15,1336.09 2597.65,1379.76 2597,1423.5C 2595.2,1447.73 2587.37,1469.73 2573.5,1489.5C 2559.03,1508.8 2542.03,1525.64 2522.5,1540C 2486.49,1565.01 2447.82,1585.34 2406.5,1601C 2347.67,1622.39 2287.67,1639.72 2226.5,1653C 2126.63,1673.09 2025.97,1687.76 1924.5,1697C 1658.61,1718.8 1392.61,1720.13 1126.5,1701C 1012.52,1692.79 899.523,1677.46 787.5,1655C 710.383,1639.72 635.717,1616.72 563.5,1586C 528.162,1570.01 495.495,1550.01 465.5,1526C 451.778,1513.79 439.778,1500.29 429.5,1485.5C 418.424,1468.44 411.591,1449.78 409,1429.5C 407.41,1384 408.91,1338.67 413.5,1293.5C 437.818,1323.32 465.818,1349.15 497.5,1371C 561.863,1411.35 631.197,1440.02 705.5,1457C 794.055,1477.56 883.722,1491.22 974.5,1498C 1073.04,1505.05 1171.71,1509.38 1270.5,1511C 1454.85,1513.5 1639.18,1512.83 1823.5,1509C 1919.08,1506.21 2014.41,1499.88 2109.5,1490C 2188.44,1481.49 2266.11,1466.49 2342.5,1445C 2392.63,1430.76 2440.3,1410.76 2485.5,1385C 2527.14,1361.2 2562.81,1330.36 2592.5,1292.5 Z"/></g>
<g><path style="opacity:1" fill="#77b154" d="M 429.5,1485.5 C 439.778,1500.29 451.778,1513.79 465.5,1526C 495.495,1550.01 528.162,1570.01 563.5,1586C 635.717,1616.72 710.383,1639.72 787.5,1655C 899.523,1677.46 1012.52,1692.79 1126.5,1701C 1392.61,1720.13 1658.61,1718.8 1924.5,1697C 2025.97,1687.76 2126.63,1673.09 2226.5,1653C 2287.67,1639.72 2347.67,1622.39 2406.5,1601C 2447.82,1585.34 2486.49,1565.01 2522.5,1540C 2542.03,1525.64 2559.03,1508.8 2573.5,1489.5C 2583.29,1496.11 2592.95,1502.95 2602.5,1510C 2628.58,1531.08 2653.08,1553.92 2676,1578.5C 2682.52,1586.03 2687.85,1594.36 2692,1603.5C 2696.63,1616.61 2692.79,1626.45 2680.5,1633C 2677.04,1635.07 2673.37,1636.57 2669.5,1637.5C 2645.87,1641.65 2623.54,1649.49 2602.5,1661C 2584.85,1672.76 2569.35,1686.92 2556,1703.5C 2530.98,1730.86 2499.82,1745.36 2462.5,1747C 2453.17,1747.67 2443.83,1747.67 2434.5,1747C 2414.4,1744.65 2394.4,1741.65 2374.5,1738C 2333.5,1732.03 2292.5,1732.03 2251.5,1738C 2234.81,1740.9 2219.14,1746.56 2204.5,1755C 2194.93,1761.24 2185.93,1768.24 2177.5,1776C 2156.93,1798.67 2137.43,1822.17 2119,1846.5C 2106.51,1860.98 2092.34,1873.48 2076.5,1884C 2049.07,1898.08 2020.07,1902.75 1989.5,1898C 1974.51,1896.59 1959.84,1893.59 1945.5,1889C 1924.81,1880.82 1904.48,1871.82 1884.5,1862C 1846.8,1846.91 1807.8,1841.91 1767.5,1847C 1745.34,1852.16 1724.67,1860.83 1705.5,1873C 1674.65,1894.85 1644.65,1917.85 1615.5,1942C 1595.28,1957.85 1573.28,1970.85 1549.5,1981C 1505.82,1996.63 1463.82,1992.97 1423.5,1970C 1411.83,1963.16 1400.49,1955.83 1389.5,1948C 1358.4,1922.9 1326.74,1898.57 1294.5,1875C 1253.31,1847.56 1208.31,1838.56 1159.5,1848C 1148.67,1850.04 1138.01,1852.71 1127.5,1856C 1106.25,1864.75 1085.25,1874.08 1064.5,1884C 1029.63,1897.35 993.629,1902.02 956.5,1898C 934.852,1893.34 915.852,1883.68 899.5,1869C 891.635,1861.47 884.135,1853.64 877,1845.5C 863.047,1827.21 848.714,1809.21 834,1791.5C 822.359,1778.52 809.525,1767.02 795.5,1757C 777.354,1745.88 757.687,1739.21 736.5,1737C 701.165,1732.39 665.832,1732.39 630.5,1737C 608.218,1740.66 585.885,1743.99 563.5,1747C 534.739,1749.48 507.072,1745.15 480.5,1734C 470.684,1729.18 461.684,1723.18 453.5,1716C 441.833,1703.67 430.167,1691.33 418.5,1679C 395.412,1658.96 368.746,1646.12 338.5,1640.5C 325.421,1638.88 314.588,1633.21 306,1623.5C 302.15,1613.72 303.15,1604.39 309,1595.5C 313.615,1588.55 318.615,1581.88 324,1575.5C 356.17,1541.57 391.336,1511.57 429.5,1485.5 Z"/></g>
<g><path style="opacity:1" fill="#fecb4c" d="M 2669.5,1637.5 C 2675.33,1655.83 2679.83,1674.5 2683,1693.5C 2685.29,1710.9 2684.96,1728.23 2682,1745.5C 2679.51,1758.65 2672.01,1767.49 2659.5,1772C 2649.09,1774.69 2638.75,1777.52 2628.5,1780.5C 2566.12,1796.76 2504.12,1814.6 2442.5,1834C 2218.68,1906.27 1997.01,1984.27 1777.5,2068C 1712.01,2092.94 1646.68,2118.27 1581.5,2144C 1562.71,2155.4 1542.71,2164.06 1521.5,2170C 1504.14,2172.99 1487.14,2171.65 1470.5,2166C 1455.49,2160.33 1441.16,2153.33 1427.5,2145C 1081.46,2012.71 731.456,1891.21 377.5,1780.5C 350.153,1775.65 332.32,1759.99 324,1733.5C 317.563,1700.79 322.396,1669.79 338.5,1640.5C 368.746,1646.12 395.412,1658.96 418.5,1679C 430.167,1691.33 441.833,1703.67 453.5,1716C 461.684,1723.18 470.684,1729.18 480.5,1734C 507.072,1745.15 534.739,1749.48 563.5,1747C 585.885,1743.99 608.218,1740.66 630.5,1737C 665.832,1732.39 701.165,1732.39 736.5,1737C 757.687,1739.21 777.354,1745.88 795.5,1757C 809.525,1767.02 822.359,1778.52 834,1791.5C 848.714,1809.21 863.047,1827.21 877,1845.5C 884.135,1853.64 891.635,1861.47 899.5,1869C 915.852,1883.68 934.852,1893.34 956.5,1898C 993.629,1902.02 1029.63,1897.35 1064.5,1884C 1085.25,1874.08 1106.25,1864.75 1127.5,1856C 1138.01,1852.71 1148.67,1850.04 1159.5,1848C 1208.31,1838.56 1253.31,1847.56 1294.5,1875C 1326.74,1898.57 1358.4,1922.9 1389.5,1948C 1400.49,1955.83 1411.83,1963.16 1423.5,1970C 1463.82,1992.97 1505.82,1996.63 1549.5,1981C 1573.28,1970.85 1595.28,1957.85 1615.5,1942C 1644.65,1917.85 1674.65,1894.85 1705.5,1873C 1724.67,1860.83 1745.34,1852.16 1767.5,1847C 1807.8,1841.91 1846.8,1846.91 1884.5,1862C 1904.48,1871.82 1924.81,1880.82 1945.5,1889C 1959.84,1893.59 1974.51,1896.59 1989.5,1898C 2020.07,1902.75 2049.07,1898.08 2076.5,1884C 2092.34,1873.48 2106.51,1860.98 2119,1846.5C 2137.43,1822.17 2156.93,1798.67 2177.5,1776C 2185.93,1768.24 2194.93,1761.24 2204.5,1755C 2219.14,1746.56 2234.81,1740.9 2251.5,1738C 2292.5,1732.03 2333.5,1732.03 2374.5,1738C 2394.4,1741.65 2414.4,1744.65 2434.5,1747C 2443.83,1747.67 2453.17,1747.67 2462.5,1747C 2499.82,1745.36 2530.98,1730.86 2556,1703.5C 2569.35,1686.92 2584.85,1672.76 2602.5,1661C 2623.54,1649.49 2645.87,1641.65 2669.5,1637.5 Z"/></g>
<g><path style="opacity:1" fill="#662113" d="M 377.5,1780.5 C 731.456,1891.21 1081.46,2012.71 1427.5,2145C 1441.16,2153.33 1455.49,2160.33 1470.5,2166C 1487.14,2171.65 1504.14,2172.99 1521.5,2170C 1542.71,2164.06 1562.71,2155.4 1581.5,2144C 1646.68,2118.27 1712.01,2092.94 1777.5,2068C 1997.01,1984.27 2218.68,1906.27 2442.5,1834C 2504.12,1814.6 2566.12,1796.76 2628.5,1780.5C 2628.98,1826.49 2622.64,1871.49 2609.5,1915.5C 2585.47,1988.35 2544.8,2050.18 2487.5,2101C 2440.09,2141.9 2387.76,2175.56 2330.5,2202C 2260.86,2233.44 2188.86,2258.1 2114.5,2276C 1989.74,2304.83 1863.41,2322.83 1735.5,2330C 1585.19,2338.26 1434.85,2338.59 1284.5,2331C 1188.9,2325.31 1093.9,2314.64 999.5,2299C 913.902,2284.35 830.236,2262.35 748.5,2233C 681.672,2208.76 619.338,2176.42 561.5,2136C 496.743,2089.92 447.243,2031.08 413,1959.5C 407.228,1944.66 401.395,1929.99 395.5,1915.5C 382.523,1871.34 376.523,1826.34 377.5,1780.5 Z"/></g>
<g><path style="opacity:0.999" fill="#d89d81" d="M 395.5,1915.5 C 401.395,1929.99 407.228,1944.66 413,1959.5C 447.243,2031.08 496.743,2089.92 561.5,2136C 619.338,2176.42 681.672,2208.76 748.5,2233C 830.236,2262.35 913.902,2284.35 999.5,2299C 1093.9,2314.64 1188.9,2325.31 1284.5,2331C 1434.85,2338.59 1585.19,2338.26 1735.5,2330C 1863.41,2322.83 1989.74,2304.83 2114.5,2276C 2188.86,2258.1 2260.86,2233.44 2330.5,2202C 2387.76,2175.56 2440.09,2141.9 2487.5,2101C 2544.8,2050.18 2585.47,1988.35 2609.5,1915.5C 2635.01,1961.16 2650.17,2010.16 2655,2062.5C 2673.74,2271.9 2591.24,2426.07 2407.5,2525C 2328.51,2565.89 2245.51,2595.89 2158.5,2615C 2043.77,2640.2 1927.77,2656.53 1810.5,2664C 1649.61,2673.8 1488.61,2676.13 1327.5,2671C 1189.82,2667.36 1053.15,2653.7 917.5,2630C 821.392,2613.14 728.726,2585.14 639.5,2546C 580.18,2518.87 526.513,2483.53 478.5,2440C 398.975,2362.55 355.809,2268.05 349,2156.5C 344.421,2099.21 349.754,2042.87 365,1987.5C 372.548,1962.35 382.715,1938.35 395.5,1915.5 Z"/></g>
</svg>
