<?xml version="1.0" encoding="UTF-8"?>
<!DOCTYPE svg PUBLIC "-//W3C//DTD SVG 1.1//EN" "http://www.w3.org/Graphics/SVG/1.1/DTD/svg11.dtd">
<svg xmlns="http://www.w3.org/2000/svg" version="1.1" width="3000px" height="3000px" style="shape-rendering:geometricPrecision; text-rendering:geometricPrecision; image-rendering:optimizeQuality; fill-rule:evenodd; clip-rule:evenodd" xmlns:xlink="http://www.w3.org/1999/xlink">
<g><path style="opacity:0.999" fill="#f6983b" d="M 2462.5,1113.5 C 2443.08,1116.18 2423.75,1119.51 2404.5,1123.5C 2380.73,1081.9 2348.07,1049.07 2306.5,1025C 2247.68,992.179 2184.52,976.346 2117,977.5C 2076.24,978.629 2035.74,982.463 1995.5,989C 1934.62,1000.87 1873.62,1012.2 1812.5,1023C 1790.25,1025.94 1767.92,1026.94 1745.5,1026C 1732.73,1024.81 1720.73,1021.14 1709.5,1015C 1680.29,996.45 1651.62,977.117 1623.5,957C 1574.96,924.779 1525.3,923.112 1474.5,952C 1463.23,958.941 1452.23,966.274 1441.5,974C 1426.5,986.333 1411.5,998.667 1396.5,1011C 1383.47,1020.79 1368.81,1026.46 1352.5,1028C 1291.38,1037.22 1230.05,1038.88 1168.5,1033C 1144.74,1030.32 1121.08,1026.98 1097.5,1023C 1075.14,1018.44 1052.81,1013.77 1030.5,1009C 920.582,992.81 821.915,1018.48 734.5,1086C 719.294,1098.37 705.627,1112.21 693.5,1127.5C 671.901,1120.73 649.901,1115.57 627.5,1112C 626.944,1111.62 626.611,1111.12 626.5,1110.5C 662.285,1053.9 710.952,1012.06 772.5,985C 792.681,976.217 813.347,968.717 834.5,962.5C 840.732,886.141 863.399,815.141 902.5,749.5C 858.013,741.914 818.346,724.081 783.5,696C 736.414,653.648 728.914,605.148 761,550.5C 790.74,500.811 832.24,487.644 885.5,511C 912.379,524.597 937.379,540.93 960.5,560C 980.353,577.354 1000.35,594.52 1020.5,611.5C 1072.33,566.496 1127.67,526.33 1186.5,491C 1259.17,452.444 1336.17,426.444 1417.5,413C 1562.29,387.57 1702.63,402.903 1838.5,459C 1913.99,491.497 1979.16,538.331 2034,599.5C 2067.21,571.29 2100.71,543.456 2134.5,516C 2152.52,502.346 2171.85,490.679 2192.5,481C 2242.01,458.618 2280.84,470.451 2309,516.5C 2344.73,575.921 2337.23,629.088 2286.5,676C 2250.66,703.958 2210,720.625 2164.5,726C 2151.53,727.408 2138.53,728.408 2125.5,729C 2166.96,803.759 2202.63,881.259 2232.5,961.5C 2322.07,963.522 2391.91,1001.19 2442,1074.5C 2449.88,1086.93 2456.71,1099.93 2462.5,1113.5 Z"/></g>
<g><path style="opacity:1" fill="#fef1e3" d="M 2226.5,546.5 C 2241.79,545.229 2253.29,551.229 2261,564.5C 2272.38,585.523 2270.38,605.19 2255,623.5C 2242.84,635.667 2229,645.5 2213.5,653C 2174.83,670.087 2134.5,676.42 2092.5,672C 2105.88,654.077 2119.38,636.244 2133,618.5C 2154.38,595.77 2177.55,575.27 2202.5,557C 2210.26,552.61 2218.26,549.11 2226.5,546.5 Z"/></g>
<g><path style="opacity:1" fill="#fef1e3" d="M 836.5,574.5 C 845.791,573.68 854.791,574.847 863.5,578C 879.569,586.366 894.236,596.699 907.5,609C 922.363,623.529 936.863,638.362 951,653.5C 955.027,658.694 958.86,664.027 962.5,669.5C 954.311,679.188 946.311,689.022 938.5,699C 903.964,695.4 871.964,684.4 842.5,666C 829.181,657.682 819.014,646.515 812,632.5C 804.529,606.453 812.696,587.119 836.5,574.5 Z"/></g>
<g><path style="opacity:1" fill="#fef1e3" d="M 1727.5,604.5 C 1751.42,604.983 1774.09,610.483 1795.5,621C 1806.6,626.769 1814.1,635.602 1818,647.5C 1818.96,667.724 1809.79,681.224 1790.5,688C 1782.23,689.537 1773.9,689.87 1765.5,689C 1738.97,680.463 1719.14,663.963 1706,639.5C 1700.98,628.256 1703.15,618.756 1712.5,611C 1717.49,608.514 1722.49,606.348 1727.5,604.5 Z"/></g>
<g><path style="opacity:1" fill="#fef1e3" d="M 1262.5,629.5 C 1273.94,627.964 1284.6,630.131 1294.5,636C 1304.39,644.586 1306.22,654.752 1300,666.5C 1285.79,691.037 1264.96,706.87 1237.5,714C 1214.34,716.842 1198.17,707.676 1189,686.5C 1186.76,671.813 1191.59,659.979 1203.5,651C 1210.01,646.241 1217.01,642.241 1224.5,639C 1237.13,635.245 1249.8,632.079 1262.5,629.5 Z"/></g>
<g><path style="opacity:1" fill="#2d2333" d="M 1917.5,881.5 C 1971.7,877.609 2014.7,897.442 2046.5,941C 2034.61,935.729 2022.61,930.396 2010.5,925C 1959.94,905.395 1910.94,908.729 1863.5,935C 1834.07,952.293 1809.9,975.126 1791,1003.5C 1791.6,987.787 1795.93,973.121 1804,959.5C 1830,916.34 1867.83,890.34 1917.5,881.5 Z"/></g>
<g><path style="opacity:1" fill="#2c2233" d="M 1110.5,893.5 C 1162.35,890.942 1205.51,908.942 1240,947.5C 1254.72,964.6 1264.38,984.267 1269,1006.5C 1269.67,1009.17 1269.67,1011.83 1269,1014.5C 1231.51,958.91 1179.17,928.576 1112,923.5C 1093.96,923.708 1076.46,926.875 1059.5,933C 1043.79,939.197 1028.46,945.864 1013.5,953C 1037.35,919.316 1069.68,899.483 1110.5,893.5 Z"/></g>
<g><path style="opacity:1" fill="#fdf1e3" d="M 2404.5,1123.5 C 2381.32,1128.62 2358.65,1135.45 2336.5,1144C 2336.04,1144.41 2335.71,1144.91 2335.5,1145.5C 2336.8,1148.43 2337.8,1151.43 2338.5,1154.5C 2361.77,1145.08 2385.77,1138.08 2410.5,1133.5C 2419.35,1150.54 2425.35,1168.54 2428.5,1187.5C 2397.55,1184.47 2366.55,1183.8 2335.5,1185.5C 2336.05,1188.81 2336.38,1192.14 2336.5,1195.5C 2368.26,1193.73 2399.93,1194.73 2431.5,1198.5C 2438.15,1276.1 2410.48,1338.27 2348.5,1385C 2286.74,1428.21 2219.74,1461.38 2147.5,1484.5C 2206.11,1586.83 2249.94,1695.16 2279,1809.5C 2301.98,1905.08 2302.31,2000.75 2280,2096.5C 2243.32,2231.49 2163.82,2332.66 2041.5,2400C 1978.62,2432.43 1912.62,2456.43 1843.5,2472C 1673.63,2509.47 1502.63,2515.47 1330.5,2490C 1251.71,2478.4 1175.71,2457.07 1102.5,2426C 985.577,2374.41 905.077,2288.57 861,2168.5C 831.58,2084 818.914,1997 823,1907.5C 829.121,1770.65 866.288,1642.99 934.5,1524.5C 886.123,1514.42 840.456,1496.92 797.5,1472C 756.704,1449.56 720.87,1420.72 690,1385.5C 664.581,1354.65 648.915,1319.31 643,1279.5C 639.35,1247.88 643.85,1217.55 656.5,1188.5C 677.828,1187.28 699.161,1187.28 720.5,1188.5C 720.46,1185.12 720.793,1181.79 721.5,1178.5C 701.508,1176.5 681.508,1176.17 661.5,1177.5C 668.239,1163.01 676.239,1149.35 685.5,1136.5C 696.337,1139.58 707.003,1143.25 717.5,1147.5C 719.888,1144.2 720.888,1140.7 720.5,1137C 711.509,1133.73 702.509,1130.56 693.5,1127.5C 705.627,1112.21 719.294,1098.37 734.5,1086C 821.915,1018.48 920.582,992.81 1030.5,1009C 1052.81,1013.77 1075.14,1018.44 1097.5,1023C 1121.08,1026.98 1144.74,1030.32 1168.5,1033C 1230.05,1038.88 1291.38,1037.22 1352.5,1028C 1368.81,1026.46 1383.47,1020.79 1396.5,1011C 1411.5,998.667 1426.5,986.333 1441.5,974C 1452.23,966.274 1463.23,958.941 1474.5,952C 1525.3,923.112 1574.96,924.779 1623.5,957C 1651.62,977.117 1680.29,996.45 1709.5,1015C 1720.73,1021.14 1732.73,1024.81 1745.5,1026C 1767.92,1026.94 1790.25,1025.94 1812.5,1023C 1873.62,1012.2 1934.62,1000.87 1995.5,989C 2035.74,982.463 2076.24,978.629 2117,977.5C 2184.52,976.346 2247.68,992.179 2306.5,1025C 2348.07,1049.07 2380.73,1081.9 2404.5,1123.5 Z"/></g>
<g><path style="opacity:1" fill="#f3617f" d="M 1517.5,954.5 C 1541.61,952.621 1564.95,955.788 1587.5,964C 1590,965.167 1591.83,967 1593,969.5C 1593.88,981.854 1590.88,993.187 1584,1003.5C 1573.79,1018.04 1561.29,1030.21 1546.5,1040C 1533.1,1037.97 1521.1,1032.63 1510.5,1024C 1500.71,1016.22 1493.21,1006.72 1488,995.5C 1483.45,985.791 1483.45,976.124 1488,966.5C 1491.29,963.213 1495.13,960.713 1499.5,959C 1505.56,957.292 1511.56,955.792 1517.5,954.5 Z"/></g>
<g><path style="opacity:0.979" fill="#2c2333" d="M 626.5,1110.5 C 626.611,1111.12 626.944,1111.62 627.5,1112C 649.901,1115.57 671.901,1120.73 693.5,1127.5C 702.509,1130.56 711.509,1133.73 720.5,1137C 720.888,1140.7 719.888,1144.2 717.5,1147.5C 707.003,1143.25 696.337,1139.58 685.5,1136.5C 664.223,1130.08 642.556,1125.08 620.5,1121.5C 590.022,1116.75 559.356,1114.08 528.5,1113.5C 528.5,1109.83 528.5,1106.17 528.5,1102.5C 561.391,1102.46 594.058,1105.13 626.5,1110.5 Z"/></g>
<g><path style="opacity:0.982" fill="#2d2334" d="M 2466.5,1124.5 C 2447.43,1125.79 2428.77,1128.79 2410.5,1133.5C 2385.77,1138.08 2361.77,1145.08 2338.5,1154.5C 2337.8,1151.43 2336.8,1148.43 2335.5,1145.5C 2335.71,1144.91 2336.04,1144.41 2336.5,1144C 2358.65,1135.45 2381.32,1128.62 2404.5,1123.5C 2423.75,1119.51 2443.08,1116.18 2462.5,1113.5C 2484.39,1110.53 2506.39,1109.2 2528.5,1109.5C 2528.5,1113.17 2528.5,1116.83 2528.5,1120.5C 2507.78,1121.04 2487.11,1122.38 2466.5,1124.5 Z"/></g>
<g><path style="opacity:0.994" fill="#f6973b" d="M 620.5,1121.5 C 642.556,1125.08 664.223,1130.08 685.5,1136.5C 676.239,1149.35 668.239,1163.01 661.5,1177.5C 639.664,1178.36 617.998,1180.69 596.5,1184.5C 601.448,1162.28 609.448,1141.28 620.5,1121.5 Z"/></g>
<g><path style="opacity:0.993" fill="#f5973b" d="M 2466.5,1124.5 C 2475.4,1147.33 2480.73,1170.99 2482.5,1195.5C 2464.53,1192.62 2446.53,1189.95 2428.5,1187.5C 2425.35,1168.54 2419.35,1150.54 2410.5,1133.5C 2428.77,1128.79 2447.43,1125.79 2466.5,1124.5 Z"/></g>
<g><path style="opacity:0.983" fill="#2d2334" d="M 656.5,1188.5 C 643.084,1188.81 629.75,1189.98 616.5,1192C 608.548,1192.78 600.882,1194.28 593.5,1196.5C 571.651,1200.38 549.984,1205.05 528.5,1210.5C 528.252,1207.42 527.586,1204.42 526.5,1201.5C 526.818,1200.35 527.484,1199.52 528.5,1199C 550.838,1192.58 573.505,1187.75 596.5,1184.5C 617.998,1180.69 639.664,1178.36 661.5,1177.5C 681.508,1176.17 701.508,1176.5 721.5,1178.5C 720.793,1181.79 720.46,1185.12 720.5,1188.5C 699.161,1187.28 677.828,1187.28 656.5,1188.5 Z"/></g>
<g><path style="opacity:0.986" fill="#2d2334" d="M 2428.5,1187.5 C 2446.53,1189.95 2464.53,1192.62 2482.5,1195.5C 2499.29,1198.09 2515.62,1202.25 2531.5,1208C 2530.19,1211.6 2528.69,1215.1 2527,1218.5C 2512.72,1214.01 2498.22,1210.34 2483.5,1207.5C 2466.44,1203.66 2449.11,1200.66 2431.5,1198.5C 2399.93,1194.73 2368.26,1193.73 2336.5,1195.5C 2336.38,1192.14 2336.05,1188.81 2335.5,1185.5C 2366.55,1183.8 2397.55,1184.47 2428.5,1187.5 Z"/></g>
<g><path style="opacity:0.997" fill="#f7983b" d="M 656.5,1188.5 C 643.85,1217.55 639.35,1247.88 643,1279.5C 648.915,1319.31 664.581,1354.65 690,1385.5C 720.87,1420.72 756.704,1449.56 797.5,1472C 840.456,1496.92 886.123,1514.42 934.5,1524.5C 866.288,1642.99 829.121,1770.65 823,1907.5C 818.914,1997 831.58,2084 861,2168.5C 905.077,2288.57 985.577,2374.41 1102.5,2426C 1175.71,2457.07 1251.71,2478.4 1330.5,2490C 1502.63,2515.47 1673.63,2509.47 1843.5,2472C 1912.62,2456.43 1978.62,2432.43 2041.5,2400C 2163.82,2332.66 2243.32,2231.49 2280,2096.5C 2302.31,2000.75 2301.98,1905.08 2279,1809.5C 2249.94,1695.16 2206.11,1586.83 2147.5,1484.5C 2219.74,1461.38 2286.74,1428.21 2348.5,1385C 2410.48,1338.27 2438.15,1276.1 2431.5,1198.5C 2449.11,1200.66 2466.44,1203.66 2483.5,1207.5C 2486.44,1295.79 2452.44,1365.62 2381.5,1417C 2329.53,1453.35 2273.53,1482.35 2213.5,1504C 2294.62,1617.78 2350.12,1743.28 2380,1880.5C 2394.44,1979.54 2389.1,2077.54 2364,2174.5C 2335.29,2285.1 2277.46,2376.93 2190.5,2450C 2219.7,2459.6 2247.7,2471.94 2274.5,2487C 2288.88,2495.12 2301.71,2505.29 2313,2517.5C 2329.71,2537.83 2332.38,2559.83 2321,2583.5C 2308.7,2596.74 2293.54,2604.9 2275.5,2608C 2250.58,2612.97 2225.41,2615.13 2200,2614.5C 2101.46,2611.52 2004.3,2598.35 1908.5,2575C 1906.67,2574.73 1905.17,2573.89 1904,2572.5C 1741.16,2609.67 1576.33,2623.5 1409.5,2614C 1325.66,2609.03 1243.32,2595.19 1162.5,2572.5C 1082.1,2590.62 1000.77,2602.12 918.5,2607C 887.034,2608.5 855.701,2607.17 824.5,2603C 806.569,2600.58 790.235,2594.25 775.5,2584C 760.995,2566.79 757.828,2547.63 766,2526.5C 775.403,2509.76 788.237,2496.26 804.5,2486C 836.897,2466.36 871.23,2450.86 907.5,2439.5C 775.96,2318.19 712.127,2167.52 716,1987.5C 719.611,1897.78 736.944,1810.78 768,1726.5C 792.49,1659.53 823.323,1595.86 860.5,1535.5C 804.908,1526.86 753.575,1507.36 706.5,1477C 647.983,1434.86 610.816,1378.36 595,1307.5C 587.036,1270.58 586.536,1233.58 593.5,1196.5C 600.882,1194.28 608.548,1192.78 616.5,1192C 629.75,1189.98 643.084,1188.81 656.5,1188.5 Z"/></g>
<g><path style="opacity:1" fill="#2f2637" d="M 1896.5,1437.5 C 1896.16,1438.34 1895.49,1438.67 1894.5,1438.5C 1873.63,1432.4 1853.97,1423.57 1835.5,1412C 1801.94,1388.44 1768.94,1364.11 1736.5,1339C 1720.39,1327.28 1703.06,1317.61 1684.5,1310C 1659.86,1300.45 1634.86,1299.12 1609.5,1306C 1586.49,1315.86 1578.32,1333.03 1585,1357.5C 1590,1375.82 1597.33,1393.16 1607,1409.5C 1643.37,1466.2 1689.53,1513.37 1745.5,1551C 1757.64,1558.07 1769.98,1564.57 1782.5,1570.5C 1769.28,1566.39 1756.62,1560.89 1744.5,1554C 1680.38,1516.22 1629.22,1465.38 1591,1401.5C 1582.54,1386.13 1576.88,1369.8 1574,1352.5C 1570.92,1316.56 1587.42,1296.4 1623.5,1292C 1645.19,1289.48 1666.19,1292.15 1686.5,1300C 1705.43,1307.97 1723.1,1317.97 1739.5,1330C 1764.08,1348.57 1788.08,1367.91 1811.5,1388C 1830.08,1402.57 1849.75,1415.57 1870.5,1427C 1878.99,1431 1887.66,1434.5 1896.5,1437.5 Z"/></g>
<g><path style="opacity:1" fill="#302737" d="M 1296.5,1577.5 C 1296.5,1577.17 1296.5,1576.83 1296.5,1576.5C 1323.07,1564.41 1347.4,1548.91 1369.5,1530C 1408.27,1497.87 1441.11,1460.7 1468,1418.5C 1477.8,1402.57 1485.13,1385.57 1490,1367.5C 1497.09,1335.49 1484.59,1316.65 1452.5,1311C 1423.8,1307.59 1396.8,1312.92 1371.5,1327C 1361.9,1332.27 1352.57,1337.94 1343.5,1344C 1317.96,1362.27 1292.96,1381.27 1268.5,1401C 1249.14,1415.32 1228.47,1427.66 1206.5,1438C 1198.24,1441.14 1189.91,1443.97 1181.5,1446.5C 1180.51,1446.67 1179.84,1446.34 1179.5,1445.5C 1199.42,1438.37 1218.09,1428.87 1235.5,1417C 1244.17,1410.67 1252.83,1404.33 1261.5,1398C 1286.54,1377.29 1311.88,1356.95 1337.5,1337C 1353.39,1325.55 1370.39,1315.88 1388.5,1308C 1412.59,1299.1 1437.26,1297.1 1462.5,1302C 1491.93,1310.02 1505.09,1329.19 1502,1359.5C 1498.21,1380.19 1490.88,1399.52 1480,1417.5C 1437.86,1484.31 1381.69,1535.81 1311.5,1572C 1306.66,1574.34 1301.66,1576.17 1296.5,1577.5 Z"/></g>
<g><path style="opacity:1" fill="#655c64" d="M 1896.5,1437.5 C 1900.47,1438.66 1904.47,1439.83 1908.5,1441C 1903.56,1441.24 1898.89,1440.41 1894.5,1438.5C 1895.49,1438.67 1896.16,1438.34 1896.5,1437.5 Z"/></g>
<g><path style="opacity:1" fill="#584e58" d="M 1179.5,1445.5 C 1179.84,1446.34 1180.51,1446.67 1181.5,1446.5C 1175.45,1448.74 1169.11,1449.91 1162.5,1450C 1168.21,1448.6 1173.87,1447.1 1179.5,1445.5 Z"/></g>
<g><path style="opacity:1" fill="#a09595" d="M 1782.5,1570.5 C 1785.31,1570.83 1787.98,1571.66 1790.5,1573C 1787.46,1573.26 1784.79,1572.43 1782.5,1570.5 Z"/></g>
<g><path style="opacity:1" fill="#918688" d="M 1296.5,1576.5 C 1296.5,1576.83 1296.5,1577.17 1296.5,1577.5C 1291.93,1580.3 1286.93,1581.8 1281.5,1582C 1286.64,1580.45 1291.64,1578.62 1296.5,1576.5 Z"/></g>
</svg>
