<?xml version="1.0" encoding="UTF-8"?>
<!DOCTYPE svg PUBLIC "-//W3C//DTD SVG 1.1//EN" "http://www.w3.org/Graphics/SVG/1.1/DTD/svg11.dtd">
<svg xmlns="http://www.w3.org/2000/svg" version="1.1" width="3000px" height="3000px" style="shape-rendering:geometricPrecision; text-rendering:geometricPrecision; image-rendering:optimizeQuality; fill-rule:evenodd; clip-rule:evenodd" xmlns:xlink="http://www.w3.org/1999/xlink">
<g><path style="opacity:0.997" fill="#70bdd8" d="M 1816.5,1020.5 C 1811.24,1007.74 1802.58,997.906 1790.5,991C 1783.2,986.852 1775.87,983.019 1768.5,979.5C 2064.75,843.126 2361.25,707.126 2658,571.5C 2709.83,629.324 2760.17,688.324 2809,748.5C 2810.75,751.005 2812.25,753.671 2813.5,756.5C 2481.01,844.038 2148.68,932.038 1816.5,1020.5 Z"/></g>
<g><path style="opacity:0.995" fill="#70bdd8" d="M 1550.5,981.5 C 1538.8,987.105 1527.96,994.105 1518,1002.5C 1510.93,1009.32 1507.09,1017.65 1506.5,1027.5C 1057.43,921.754 608.434,815.754 159.5,709.5C 214.916,695.417 270.082,680.417 325,664.5C 733.497,770.249 1142,875.916 1550.5,981.5 Z"/></g>
<g><path style="opacity:0.997" fill="#bcebba" d="M 1768.5,979.5 C 1775.87,983.019 1783.2,986.852 1790.5,991C 1802.58,997.906 1811.24,1007.74 1816.5,1020.5C 1817.57,1025.48 1817.57,1030.48 1816.5,1035.5C 1813.25,1040.6 1809.75,1045.6 1806,1050.5C 1793.11,1062.2 1778.28,1070.7 1761.5,1076C 1751.13,1079.19 1740.8,1082.02 1730.5,1084.5C 1716.98,1087.43 1703.31,1089.43 1689.5,1090.5C 1688.67,1072.34 1688.17,1054 1688,1035.5C 1684.17,1031 1679.34,1028.17 1673.5,1027C 1658.55,1023.01 1643.88,1023.68 1629.5,1029C 1627.04,1030.46 1624.87,1032.29 1623,1034.5C 1622.15,1052.89 1621.31,1071.23 1620.5,1089.5C 1610.22,1087.73 1599.89,1086.06 1589.5,1084.5C 1574.18,1080.67 1559.18,1075.5 1544.5,1069C 1534.09,1063.47 1524.42,1056.97 1515.5,1049.5C 1509.77,1043.33 1506.77,1036 1506.5,1027.5C 1507.09,1017.65 1510.93,1009.32 1518,1002.5C 1527.96,994.105 1538.8,987.105 1550.5,981.5C 1593.75,965.683 1638.42,959.516 1684.5,963C 1713.28,964.74 1741.28,970.24 1768.5,979.5 Z"/></g>
<g><path style="opacity:0.998" fill="#020232" d="M 1689.5,1090.5 C 1689.5,1128.17 1689.5,1165.83 1689.5,1203.5C 1665.14,1204.6 1640.81,1206.6 1616.5,1209.5C 1617.81,1169.5 1619.15,1129.5 1620.5,1089.5C 1621.31,1071.23 1622.15,1052.89 1623,1034.5C 1624.87,1032.29 1627.04,1030.46 1629.5,1029C 1643.88,1023.68 1658.55,1023.01 1673.5,1027C 1679.34,1028.17 1684.17,1031 1688,1035.5C 1688.17,1054 1688.67,1072.34 1689.5,1090.5 Z"/></g>
<g><path style="opacity:0.995" fill="#70bdd8" d="M 1816.5,1035.5 C 2157.88,1091.34 2499.21,1147.51 2840.5,1204C 2809.58,1226.75 2778.25,1248.92 2746.5,1270.5C 2407.69,1208.6 2069.02,1146.6 1730.5,1084.5C 1740.8,1082.02 1751.13,1079.19 1761.5,1076C 1778.28,1070.7 1793.11,1062.2 1806,1050.5C 1809.75,1045.6 1813.25,1040.6 1816.5,1035.5 Z"/></g>
<g><path style="opacity:0.996" fill="#70bdd8" d="M 1515.5,1049.5 C 1524.42,1056.97 1534.09,1063.47 1544.5,1069C 1559.18,1075.5 1574.18,1080.67 1589.5,1084.5C 1356.01,1153.89 1122.67,1223.89 889.5,1294.5C 775.063,1269.51 660.73,1244.35 546.5,1219C 869.472,1162.28 1192.47,1105.78 1515.5,1049.5 Z"/></g>
<g><path style="opacity:0.999" fill="#bcebba" d="M 1689.5,1203.5 C 1724.32,1202.38 1758.66,1205.88 1792.5,1214C 1809.45,1218.14 1824.78,1225.48 1838.5,1236C 1841.75,1238.75 1844.42,1241.91 1846.5,1245.5C 1741.18,1250.78 1637.84,1268.28 1536.5,1298C 1418.88,1332.65 1306.54,1379.65 1199.5,1439C 1200.16,1440.49 1201.16,1441.65 1202.5,1442.5C 1352.05,1360.15 1510.72,1302.65 1678.5,1270C 1734.74,1259.87 1791.4,1254.04 1848.5,1252.5C 1848.5,1251.17 1848.5,1249.83 1848.5,1248.5C 1897.06,1240.35 1944.73,1243.85 1991.5,1259C 2016.07,1267.52 2036.24,1282.02 2052,1302.5C 2056.96,1310.09 2061.13,1318.09 2064.5,1326.5C 2080.86,1332.51 2097.19,1338.51 2113.5,1344.5C 2119.43,1348.92 2124.93,1353.92 2130,1359.5C 2179.13,1415.62 2227.13,1472.62 2274,1530.5C 2289.77,1549.88 2304.94,1569.72 2319.5,1590C 2343.16,1590.81 2366.83,1591.31 2390.5,1591.5C 2422.18,1596.45 2451.52,1607.62 2478.5,1625C 2503.98,1644.12 2518.48,1669.62 2522,1701.5C 2522.64,1713.18 2522.47,1724.85 2521.5,1736.5C 2520.85,1736.8 2520.18,1737.14 2519.5,1737.5C 2505.53,1733.37 2491.53,1729.37 2477.5,1725.5C 2457.56,1752.62 2434.56,1777.12 2408.5,1799C 2369.1,1831.2 2328.1,1861.2 2285.5,1889C 2315.73,1892.56 2345.73,1896.73 2375.5,1901.5C 2356.18,1911 2336.18,1918.83 2315.5,1925C 2274.38,1932.26 2233.38,1940.09 2192.5,1948.5C 2192.66,1946.8 2192.49,1945.13 2192,1943.5C 2178.98,1936.89 2165.15,1933.06 2150.5,1932C 2113.24,1930.52 2076.57,1934.36 2040.5,1943.5C 2040.81,1956.25 2040.48,1968.91 2039.5,1981.5C 1964.68,1997.5 1889.68,2012.66 1814.5,2027C 1762.7,2034.98 1710.7,2041.14 1658.5,2045.5C 1654.89,2044.03 1651.56,2042.03 1648.5,2039.5C 1685.35,2005.58 1728.69,1984.74 1778.5,1977C 1787.5,1976.67 1796.5,1976.33 1805.5,1976C 1819.49,1972.08 1824.99,1962.92 1822,1948.5C 1818.63,1939.46 1812.13,1934.63 1802.5,1934C 1766.51,1932.94 1732.18,1939.94 1699.5,1955C 1651.28,1978.28 1609.95,2010.45 1575.5,2051.5C 1491.56,2057.91 1407.56,2058.91 1323.5,2054.5C 1339.85,2046.29 1343.35,2034.29 1334,2018.5C 1330.7,2015.43 1326.87,2013.27 1322.5,2012C 1315.46,2011.89 1308.46,2012.56 1301.5,2014C 1289.87,2016.77 1278.2,2019.44 1266.5,2022C 1250.61,2026.95 1234.95,2032.45 1219.5,2038.5C 1188.37,2030.18 1162.21,2013.85 1141,1989.5C 1116.69,1961.34 1097.52,1930.01 1083.5,1895.5C 1069.11,1857.95 1058.78,1819.29 1052.5,1779.5C 1037.47,1780.1 1022.47,1781.1 1007.5,1782.5C 890.259,1790.74 772.925,1798.41 655.5,1805.5C 644.976,1805.55 634.643,1806.22 624.5,1807.5C 624.167,1807.5 623.833,1807.5 623.5,1807.5C 609.633,1807.8 595.966,1808.8 582.5,1810.5C 548.794,1811.99 515.127,1813.99 481.5,1816.5C 479.833,1816.5 478.167,1816.5 476.5,1816.5C 464.557,1817.72 452.557,1818.72 440.5,1819.5C 438.833,1819.5 437.167,1819.5 435.5,1819.5C 426.648,1819.69 417.981,1820.36 409.5,1821.5C 405.215,1822.29 400.881,1822.63 396.5,1822.5C 370.579,1912.6 344.246,2002.6 317.5,2092.5C 290.679,2102.11 263.679,2111.11 236.5,2119.5C 265.329,2005.85 294.662,1892.35 324.5,1779C 304.304,1657.99 285.137,1536.82 267,1415.5C 292.259,1401.12 317.759,1387.12 343.5,1373.5C 343.833,1374 344.167,1374.5 344.5,1375C 365.025,1492.33 385.692,1609.49 406.5,1726.5C 406.187,1729.25 406.52,1731.91 407.5,1734.5C 415.817,1732.39 424.15,1730.39 432.5,1728.5C 434.117,1727.96 435.784,1727.63 437.5,1727.5C 484.795,1716.62 532.128,1705.96 579.5,1695.5C 581.117,1694.96 582.784,1694.63 584.5,1694.5C 597.263,1691.47 609.93,1688.47 622.5,1685.5C 623.5,1685.5 624.5,1685.5 625.5,1685.5C 634.251,1683.16 642.918,1680.82 651.5,1678.5C 786.2,1648.87 920.7,1618.53 1055,1587.5C 1066.69,1547.78 1084.03,1510.78 1107,1476.5C 1164,1394.05 1238.17,1331.88 1329.5,1290C 1421.72,1251.1 1517.38,1224.26 1616.5,1209.5C 1640.81,1206.6 1665.14,1204.6 1689.5,1203.5 Z"/></g>
<g><path style="opacity:1" fill="#060f36" d="M 1846.5,1245.5 C 1848.05,1245.82 1848.71,1246.82 1848.5,1248.5C 1848.5,1249.83 1848.5,1251.17 1848.5,1252.5C 1791.4,1254.04 1734.74,1259.87 1678.5,1270C 1510.72,1302.65 1352.05,1360.15 1202.5,1442.5C 1201.16,1441.65 1200.16,1440.49 1199.5,1439C 1306.54,1379.65 1418.88,1332.65 1536.5,1298C 1637.84,1268.28 1741.18,1250.78 1846.5,1245.5 Z"/></g>
<g><path style="opacity:1" fill="#060e36" d="M 1920.5,1320.5 C 1924.5,1320.5 1928.5,1320.5 1932.5,1320.5C 1932.5,1322.17 1932.5,1323.83 1932.5,1325.5C 1754.62,1342.89 1582.29,1383.72 1415.5,1448C 1348.84,1473.56 1283.51,1502.22 1219.5,1534C 1180.5,1553.83 1141.5,1573.67 1102.5,1593.5C 1095.3,1611.95 1089.8,1630.95 1086,1650.5C 1077.1,1692.67 1069.1,1735 1062,1777.5C 1060.6,1779.19 1058.77,1779.86 1056.5,1779.5C 1065.64,1721.99 1077.14,1664.99 1091,1608.5C 1092.68,1601.45 1095.51,1594.95 1099.5,1589C 1170.91,1551.79 1243.25,1516.46 1316.5,1483C 1509.65,1398.01 1710.98,1343.84 1920.5,1320.5 Z"/></g>
<g><path style="opacity:1" fill="#71bdd7" d="M 2037.5,1334.5 C 2043.51,1334.33 2049.51,1334.5 2055.5,1335C 2134.93,1407.72 2197.93,1492.55 2244.5,1589.5C 2190.77,1591.64 2137.43,1597.47 2084.5,1607C 2031.44,1617.36 1978.77,1629.36 1926.5,1643C 1919.08,1645.21 1911.74,1647.71 1904.5,1650.5C 1892.42,1606.6 1881.92,1562.26 1873,1517.5C 1862.22,1462.8 1853.38,1407.8 1846.5,1352.5C 1910.28,1346.21 1973.95,1340.21 2037.5,1334.5 Z"/></g>
<g><path style="opacity:0.039" fill="#66cce5" d="M 2113.5,1343.5 C 2112.83,1342.17 2112.83,1342.17 2113.5,1343.5 Z"/></g>
<g><path style="opacity:0.996" fill="#71bdd7" d="M 2113.5,1344.5 C 2113.5,1344.17 2113.5,1343.83 2113.5,1343.5C 2136.4,1349.45 2157.73,1358.95 2177.5,1372C 2201.64,1388.13 2224.64,1405.8 2246.5,1425C 2295.42,1470.24 2339.59,1519.4 2379,1572.5C 2383.35,1578.53 2387.18,1584.86 2390.5,1591.5C 2366.83,1591.31 2343.16,1590.81 2319.5,1590C 2304.94,1569.72 2289.77,1549.88 2274,1530.5C 2227.13,1472.62 2179.13,1415.62 2130,1359.5C 2124.93,1353.92 2119.43,1348.92 2113.5,1344.5 Z"/></g>
<g><path style="opacity:1" fill="#71bdd7" d="M 1799.5,1403.5 C 1800.5,1403.41 1801.33,1403.75 1802,1404.5C 1818.42,1517.54 1835.09,1630.54 1852,1743.5C 1853.41,1751.13 1854.08,1758.8 1854,1766.5C 1806.27,1778.55 1758.43,1790.55 1710.5,1802.5C 1702.9,1681.5 1695.73,1560.5 1689,1439.5C 1725.95,1427.56 1762.78,1415.56 1799.5,1403.5 Z"/></g>
<g><path style="opacity:1" fill="#71bdd7" d="M 1637.5,1467.5 C 1638.5,1467.5 1639.5,1467.5 1640.5,1467.5C 1644.94,1546.48 1648.94,1625.48 1652.5,1704.5C 1597.43,1715.78 1542.43,1727.45 1487.5,1739.5C 1486.5,1663.84 1486.17,1588.17 1486.5,1512.5C 1537.11,1498.07 1587.44,1483.07 1637.5,1467.5 Z"/></g>
<g><path style="opacity:0.998" fill="#70bcd7" d="M 651.5,1678.5 C 642.918,1680.82 634.251,1683.16 625.5,1685.5C 620.067,1642.34 604.567,1603.34 579,1568.5C 570.427,1558.25 559.927,1550.75 547.5,1546C 542.311,1544.2 536.978,1543.37 531.5,1543.5C 531.5,1545.17 531.5,1546.83 531.5,1548.5C 549.678,1550.15 564.512,1558.15 576,1572.5C 594.641,1598.12 607.641,1626.46 615,1657.5C 616.896,1666.15 618.73,1674.81 620.5,1683.5C 620.747,1684.71 621.414,1685.38 622.5,1685.5C 609.93,1688.47 597.263,1691.47 584.5,1694.5C 580.182,1669.68 568.515,1649.18 549.5,1633C 544.011,1629.42 538.011,1627.92 531.5,1628.5C 531.5,1630.17 531.5,1631.83 531.5,1633.5C 544.156,1634.75 553.99,1640.75 561,1651.5C 569.991,1664.97 576.158,1679.64 579.5,1695.5C 532.128,1705.96 484.795,1716.62 437.5,1727.5C 439.392,1694.37 445.392,1662.04 455.5,1630.5C 454.07,1630.58 452.736,1630.25 451.5,1629.5C 444.155,1648.88 438.988,1668.88 436,1689.5C 434.282,1702.46 433.116,1715.46 432.5,1728.5C 424.15,1730.39 415.817,1732.39 407.5,1734.5C 406.52,1731.91 406.187,1729.25 406.5,1726.5C 408.955,1670.72 420.788,1617.05 442,1565.5C 450.243,1548 460.243,1531.66 472,1516.5C 481.79,1505.37 493.29,1496.54 506.5,1490C 526.467,1481.93 545.8,1483.26 564.5,1494C 577.582,1502.41 588.749,1512.91 598,1525.5C 620.323,1559.11 635.656,1595.77 644,1635.5C 647.365,1649.69 649.865,1664.02 651.5,1678.5 Z"/></g>
<g><path style="opacity:1" fill="#71bdd7" d="M 1442.5,1529.5 C 1444.31,1536.77 1445.14,1544.43 1445,1552.5C 1446.81,1625.5 1448.31,1698.5 1449.5,1771.5C 1394.13,1782.34 1338.96,1794.01 1284,1806.5C 1283.17,1730.83 1283.33,1655.16 1284.5,1579.5C 1337.34,1563 1390,1546.33 1442.5,1529.5 Z"/></g>
<g><path style="opacity:1" fill="#030e38" d="M 625.5,1685.5 C 624.5,1685.5 623.5,1685.5 622.5,1685.5C 621.414,1685.38 620.747,1684.71 620.5,1683.5C 618.73,1674.81 616.896,1666.15 615,1657.5C 607.641,1626.46 594.641,1598.12 576,1572.5C 564.512,1558.15 549.678,1550.15 531.5,1548.5C 531.5,1546.83 531.5,1545.17 531.5,1543.5C 536.978,1543.37 542.311,1544.2 547.5,1546C 559.927,1550.75 570.427,1558.25 579,1568.5C 604.567,1603.34 620.067,1642.34 625.5,1685.5 Z"/></g>
<g><path style="opacity:1" fill="#020d38" d="M 584.5,1694.5 C 582.784,1694.63 581.117,1694.96 579.5,1695.5C 576.158,1679.64 569.991,1664.97 561,1651.5C 553.99,1640.75 544.156,1634.75 531.5,1633.5C 531.5,1631.83 531.5,1630.17 531.5,1628.5C 538.011,1627.92 544.011,1629.42 549.5,1633C 568.515,1649.18 580.182,1669.68 584.5,1694.5 Z"/></g>
<g><path style="opacity:1" fill="#020c37" d="M 437.5,1727.5 C 435.784,1727.63 434.117,1727.96 432.5,1728.5C 433.116,1715.46 434.282,1702.46 436,1689.5C 438.988,1668.88 444.155,1648.88 451.5,1629.5C 452.736,1630.25 454.07,1630.58 455.5,1630.5C 445.392,1662.04 439.392,1694.37 437.5,1727.5 Z"/></g>
<g><path style="opacity:1" fill="#050d36" d="M 853.5,1650.5 C 855.484,1650.38 857.15,1651.05 858.5,1652.5C 856.683,1659.03 855.516,1665.69 855,1672.5C 854.281,1690.52 854.615,1708.52 856,1726.5C 857.48,1741.27 860.814,1755.61 866,1769.5C 867.247,1772.33 868.747,1775 870.5,1777.5C 868.314,1781.4 866.148,1781.4 864,1777.5C 857.333,1762.5 852.999,1746.83 851,1730.5C 849.494,1709.86 849.16,1689.19 850,1668.5C 850.939,1662.41 852.106,1656.41 853.5,1650.5 Z"/></g>
<g><path style="opacity:1" fill="#71bdd7" d="M 2228.5,1697.5 C 2260.98,1696.72 2293.31,1698.39 2325.5,1702.5C 2313.38,1742.79 2291.04,1776.29 2258.5,1803C 2218.31,1834.34 2173.48,1856.84 2124,1870.5C 2100.79,1868.83 2077.96,1865 2055.5,1859C 1994.77,1840.98 1960.11,1800.98 1951.5,1739C 1989.03,1728.85 2027.03,1720.85 2065.5,1715C 2119.76,1707.04 2174.09,1701.21 2228.5,1697.5 Z"/></g>
<g><path style="opacity:1" fill="#040a34" d="M 543.5,1724.5 C 545.117,1725.04 546.784,1725.37 548.5,1725.5C 544.349,1747.03 543.515,1768.69 546,1790.5C 546.532,1793.26 547.366,1795.93 548.5,1798.5C 547.579,1800.76 545.912,1801.76 543.5,1801.5C 538.276,1775.86 538.276,1750.2 543.5,1724.5 Z"/></g>
<g><path style="opacity:0.998" fill="#71bdd7" d="M 2521.5,1736.5 C 2523.66,1737.47 2526,1738.3 2528.5,1739C 2529.17,1740.33 2529.83,1741.67 2530.5,1743C 2528.79,1763.47 2522.29,1782.3 2511,1799.5C 2481.88,1843.96 2443.05,1876.79 2394.5,1898C 2388.42,1900.6 2382.09,1901.77 2375.5,1901.5C 2345.73,1896.73 2315.73,1892.56 2285.5,1889C 2328.1,1861.2 2369.1,1831.2 2408.5,1799C 2434.56,1777.12 2457.56,1752.62 2477.5,1725.5C 2491.53,1729.37 2505.53,1733.37 2519.5,1737.5C 2520.18,1737.14 2520.85,1736.8 2521.5,1736.5 Z"/></g>
<g><path style="opacity:0.997" fill="#71bdd8" d="M 1083.5,1895.5 C 1056.52,1936.1 1029.52,1976.77 1002.5,2017.5C 984.179,2018.5 965.845,2018.83 947.5,2018.5C 967.183,1939.77 987.183,1861.1 1007.5,1782.5C 1022.47,1781.1 1037.47,1780.1 1052.5,1779.5C 1058.78,1819.29 1069.11,1857.95 1083.5,1895.5 Z"/></g>
<g><path style="opacity:0.997" fill="#70bcd7" d="M 655.5,1805.5 C 652.492,1849.38 643.658,1892.04 629,1933.5C 617.909,1965.22 600.409,1992.72 576.5,2016C 546.507,2039.29 516.507,2039.29 486.5,2016C 464.815,1995.63 448.648,1971.46 438,1943.5C 422.517,1904.23 413.017,1863.57 409.5,1821.5C 417.981,1820.36 426.648,1819.69 435.5,1819.5C 438.337,1845.18 444.171,1870.18 453,1894.5C 455.249,1901.28 458.249,1907.61 462,1913.5C 463.621,1913.28 464.788,1912.44 465.5,1911C 452.554,1881.77 444.22,1851.27 440.5,1819.5C 452.557,1818.72 464.557,1817.72 476.5,1816.5C 477.143,1821.6 478.309,1826.6 480,1831.5C 480.914,1835.6 482.581,1839.27 485,1842.5C 486.621,1842.28 487.788,1841.44 488.5,1840C 485.767,1832.22 483.433,1824.39 481.5,1816.5C 515.127,1813.99 548.794,1811.99 582.5,1810.5C 595.966,1808.8 609.633,1807.8 623.5,1807.5C 620.174,1848.31 609.341,1886.97 591,1923.5C 581.167,1942.67 566.667,1957.17 547.5,1967C 542.311,1968.8 536.978,1969.63 531.5,1969.5C 531.201,1971.6 531.534,1973.6 532.5,1975.5C 550.303,1973.52 565.136,1965.85 577,1952.5C 596.138,1928.89 609.471,1902.22 617,1872.5C 622.747,1851.25 626.914,1829.75 629.5,1808C 627.866,1807.51 626.199,1807.34 624.5,1807.5C 634.643,1806.22 644.976,1805.55 655.5,1805.5 Z"/></g>
<g><path style="opacity:1" fill="#020e38" d="M 623.5,1807.5 C 623.833,1807.5 624.167,1807.5 624.5,1807.5C 626.199,1807.34 627.866,1807.51 629.5,1808C 626.914,1829.75 622.747,1851.25 617,1872.5C 609.471,1902.22 596.138,1928.89 577,1952.5C 565.136,1965.85 550.303,1973.52 532.5,1975.5C 531.534,1973.6 531.201,1971.6 531.5,1969.5C 536.978,1969.63 542.311,1968.8 547.5,1967C 566.667,1957.17 581.167,1942.67 591,1923.5C 609.341,1886.97 620.174,1848.31 623.5,1807.5 Z"/></g>
<g><path style="opacity:1" fill="#020e38" d="M 582.5,1810.5 C 584.167,1810.5 585.833,1810.5 587.5,1810.5C 584,1835.49 574.5,1857.82 559,1877.5C 551.438,1885.2 542.272,1889.53 531.5,1890.5C 531.5,1888.5 531.5,1886.5 531.5,1884.5C 537.306,1884.73 542.639,1883.23 547.5,1880C 559.469,1870.35 567.969,1858.18 573,1843.5C 577.088,1832.74 580.255,1821.74 582.5,1810.5 Z"/></g>
<g><path style="opacity:1" fill="#041039" d="M 476.5,1816.5 C 478.167,1816.5 479.833,1816.5 481.5,1816.5C 483.433,1824.39 485.767,1832.22 488.5,1840C 487.788,1841.44 486.621,1842.28 485,1842.5C 482.581,1839.27 480.914,1835.6 480,1831.5C 478.309,1826.6 477.143,1821.6 476.5,1816.5 Z"/></g>
<g><path style="opacity:1" fill="#020c37" d="M 435.5,1819.5 C 437.167,1819.5 438.833,1819.5 440.5,1819.5C 444.22,1851.27 452.554,1881.77 465.5,1911C 464.788,1912.44 463.621,1913.28 462,1913.5C 458.249,1907.61 455.249,1901.28 453,1894.5C 444.171,1870.18 438.337,1845.18 435.5,1819.5 Z"/></g>
<g><path style="opacity:1" fill="#060e36" d="M 1683.5,1846.5 C 1685.17,1846.5 1686.83,1846.5 1688.5,1846.5C 1688.5,1848.17 1688.5,1849.83 1688.5,1851.5C 1587.33,1873.87 1486.33,1897.04 1385.5,1921C 1316.29,1937.13 1247.63,1954.8 1179.5,1974C 1178.5,1973 1177.5,1972 1176.5,1971C 1178.96,1969.29 1181.62,1967.96 1184.5,1967C 1209.95,1959.22 1235.61,1952.22 1261.5,1946C 1402.05,1911.63 1542.72,1878.47 1683.5,1846.5 Z"/></g>
<g><path style="opacity:0.998" fill="#ec8264" d="M 2192.5,1948.5 C 2192.5,1975.5 2192.5,2002.5 2192.5,2029.5C 2190.33,2046.33 2185.33,2062.33 2177.5,2077.5C 2163.37,2095.56 2144.7,2104.56 2121.5,2104.5C 2103.08,2104.99 2086.08,2100.49 2070.5,2091C 2057.98,2081.46 2049.82,2068.96 2046,2053.5C 2040.8,2029.79 2038.64,2005.79 2039.5,1981.5C 2040.48,1968.91 2040.81,1956.25 2040.5,1943.5C 2076.57,1934.36 2113.24,1930.52 2150.5,1932C 2165.15,1933.06 2178.98,1936.89 2192,1943.5C 2192.49,1945.13 2192.66,1946.8 2192.5,1948.5 Z"/></g>
<g><path style="opacity:0.994" fill="#020231" d="M 1658.5,2045.5 C 1675.37,2056.53 1691.87,2068.2 1708,2080.5C 1720.98,2070.85 1734.48,2062.02 1748.5,2054C 1765.36,2050.94 1775.03,2057.94 1777.5,2075C 1776.92,2083.16 1773.25,2089.5 1766.5,2094C 1758.73,2098.62 1751.39,2103.78 1744.5,2109.5C 1805.4,2160.01 1853.9,2220.35 1890,2290.5C 1899.81,2311.11 1907.64,2332.45 1913.5,2354.5C 2046.57,2334.1 2179.57,2313.27 2312.5,2292C 2299.81,2255.11 2282.97,2220.28 2262,2187.5C 2237.03,2148.37 2208.87,2111.7 2177.5,2077.5C 2185.33,2062.33 2190.33,2046.33 2192.5,2029.5C 2251.59,2088.3 2299.42,2155.3 2336,2230.5C 2344.19,2248.25 2350.69,2266.58 2355.5,2285.5C 2390.57,2280.43 2425.57,2274.93 2460.5,2269C 2494.17,2234 2527.83,2199 2561.5,2164C 2573.53,2156.81 2584.03,2158.65 2593,2169.5C 2597.91,2178.36 2597.57,2187.02 2592,2195.5C 2555.97,2232.53 2520.3,2269.86 2485,2307.5C 2483.42,2309.04 2481.59,2310.21 2479.5,2311C 2229.99,2349.78 1980.49,2388.61 1731,2427.5C 1711.8,2424.11 1705.14,2413.11 1711,2394.5C 1713.55,2390.28 1717.05,2387.11 1721.5,2385C 1771.12,2376.72 1820.78,2368.72 1870.5,2361C 1855.92,2316 1834.42,2274.84 1806,2237.5C 1776.44,2199.61 1743.11,2165.27 1706,2134.5C 1672.42,2157.75 1638.59,2180.59 1604.5,2203C 1361.55,2242.99 1118.55,2282.66 875.5,2322C 858.515,2324.52 848.848,2317.35 846.5,2300.5C 847.231,2291.52 851.564,2285.02 859.5,2281C 920.519,2270.5 981.519,2260 1042.5,2249.5C 1062.82,2210.85 1084.65,2173.18 1108,2136.5C 1136.68,2093.98 1173.84,2061.31 1219.5,2038.5C 1234.95,2032.45 1250.61,2026.95 1266.5,2022C 1278.2,2019.44 1289.87,2016.77 1301.5,2014C 1308.46,2012.56 1315.46,2011.89 1322.5,2012C 1326.87,2013.27 1330.7,2015.43 1334,2018.5C 1343.35,2034.29 1339.85,2046.29 1323.5,2054.5C 1273.78,2060.04 1229.45,2078.21 1190.5,2109C 1184.03,2114.47 1177.86,2120.3 1172,2126.5C 1142.35,2161.86 1117.85,2200.19 1098.5,2241.5C 1233.45,2219.12 1368.45,2196.95 1503.5,2175C 1520.78,2129.64 1544.78,2088.47 1575.5,2051.5C 1609.95,2010.45 1651.28,1978.28 1699.5,1955C 1732.18,1939.94 1766.51,1932.94 1802.5,1934C 1812.13,1934.63 1818.63,1939.46 1822,1948.5C 1824.99,1962.92 1819.49,1972.08 1805.5,1976C 1796.5,1976.33 1787.5,1976.67 1778.5,1977C 1728.69,1984.74 1685.35,2005.58 1648.5,2039.5C 1651.56,2042.03 1654.89,2044.03 1658.5,2045.5 Z M 1575.5,2051.5 C 1544.78,2088.47 1520.78,2129.64 1503.5,2175C 1368.45,2196.95 1233.45,2219.12 1098.5,2241.5C 1117.85,2200.19 1142.35,2161.86 1172,2126.5C 1177.86,2120.3 1184.03,2114.47 1190.5,2109C 1229.45,2078.21 1273.78,2060.04 1323.5,2054.5C 1407.56,2058.91 1491.56,2057.91 1575.5,2051.5 Z M 1616.5,2071.5 C 1634.45,2082.48 1652.12,2093.98 1669.5,2106C 1642.83,2124.33 1616.17,2142.67 1589.5,2161C 1578.62,2162.56 1567.78,2164.4 1557,2166.5C 1556.5,2166.17 1556,2165.83 1555.5,2165.5C 1571.35,2131.1 1591.68,2099.77 1616.5,2071.5 Z"/></g>
</svg>
