<?xml version="1.0" encoding="UTF-8"?>
<!DOCTYPE svg PUBLIC "-//W3C//DTD SVG 1.1//EN" "http://www.w3.org/Graphics/SVG/1.1/DTD/svg11.dtd">
<svg xmlns="http://www.w3.org/2000/svg" version="1.1" width="3000px" height="3000px" style="shape-rendering:geometricPrecision; text-rendering:geometricPrecision; image-rendering:optimizeQuality; fill-rule:evenodd; clip-rule:evenodd" xmlns:xlink="http://www.w3.org/1999/xlink">
<g><path style="opacity:0.004" fill="#00ff00" d="M 2305.5,566.5 C 2306.83,567.167 2306.83,567.167 2305.5,566.5 Z"/></g>
<g><path style="opacity:0.997" fill="#40ad3c" d="M 2305.5,567.5 C 2192.35,853.045 2097.52,1144.71 2021,1442.5C 2009.37,1488.67 1998.54,1535 1988.5,1581.5C 1961.56,1695.8 1941.06,1811.47 1927,1928.5C 1872.61,1800.06 1812.11,1674.73 1745.5,1552.5C 1763.52,1503.45 1781.85,1454.45 1800.5,1405.5C 1801.79,1404.94 1802.62,1403.94 1803,1402.5C 1818.96,1362.47 1835.79,1322.8 1853.5,1283.5C 1853.14,1282.82 1852.8,1282.15 1852.5,1281.5C 1897.03,1184.11 1945.53,1088.77 1998,995.5C 2076.51,857.777 2166.84,728.444 2269,607.5C 2281.03,593.971 2293.2,580.638 2305.5,567.5 Z"/></g>
<g><path style="opacity:0.993" fill="#226639" d="M 1576.5,1270.5 C 1534.66,1208.16 1492.33,1146.16 1449.5,1084.5C 1489.34,955.464 1538.51,830.131 1597,708.5C 1586.85,895.697 1580.02,1083.03 1576.5,1270.5 Z"/></g>
<g><path style="opacity:0.998" fill="#2d9040" d="M 1449.5,1084.5 C 1492.33,1146.16 1534.66,1208.16 1576.5,1270.5C 1636.02,1362.4 1692.35,1456.4 1745.5,1552.5C 1812.11,1674.73 1872.61,1800.06 1927,1928.5C 1941.06,1811.47 1961.56,1695.8 1988.5,1581.5C 2012.91,1643.08 2036.91,1704.75 2060.5,1766.5C 2031.02,1867.58 2005.69,1969.75 1984.5,2073C 2014.55,2155.82 2041.39,2239.65 2065,2324.5C 2096.03,2162.72 2152.37,2010.39 2234,1867.5C 2248.75,1842.93 2263.25,1818.26 2277.5,1793.5C 2278.17,1793.5 2278.5,1793.17 2278.5,1792.5C 2341.34,1693.78 2412.84,1601.45 2493,1515.5C 2614.28,1385.13 2748.44,1270.96 2895.5,1173C 2908.83,1164.67 2922.17,1156.33 2935.5,1148C 2936.17,1147.33 2936.83,1147.33 2937.5,1148C 2806.03,1334.35 2685.19,1527.85 2575,1728.5C 2515.52,1838.79 2462.52,1952.12 2416,2068.5C 2390.25,2135.1 2368.91,2203.1 2352,2272.5C 2343.52,2308.73 2337.85,2345.4 2335,2382.5C 2334.24,2398.85 2334.41,2415.19 2335.5,2431.5C 2160.17,2431.5 1984.83,2431.5 1809.5,2431.5C 1757.22,2253.66 1700.55,2077.33 1639.5,1902.5C 1618.89,1843.68 1597.89,1785.01 1576.5,1726.5C 1569.04,1702.62 1560.87,1678.96 1552,1655.5C 1503.79,1524.34 1452.95,1394.34 1399.5,1265.5C 1324.43,1081.35 1242.76,900.015 1154.5,721.5C 1155.27,720.289 1156.11,720.289 1157,721.5C 1261.24,837.448 1358.74,958.448 1449.5,1084.5 Z"/></g>
<g><path style="opacity:0.997" fill="#226739" d="M 2278.5,1792.5 C 2277.83,1792.5 2277.5,1792.83 2277.5,1793.5C 2263.25,1818.26 2248.75,1842.93 2234,1867.5C 2152.37,2010.39 2096.03,2162.72 2065,2324.5C 2041.39,2239.65 2014.55,2155.82 1984.5,2073C 2005.69,1969.75 2031.02,1867.58 2060.5,1766.5C 2122.39,1555.73 2206.56,1354.4 2313,1162.5C 2366.36,1067.73 2425.7,977.065 2491,890.5C 2446.39,1049.94 2404.72,1210.27 2366,1371.5C 2332.54,1510.95 2303.38,1651.28 2278.5,1792.5 Z"/></g>
<g><path style="opacity:0.998" fill="#226739" d="M 1183.5,1995.5 C 1194.53,2140.64 1197.87,2285.97 1193.5,2431.5C 1117.17,2431.5 1040.83,2431.5 964.5,2431.5C 953.88,2369.1 941.546,2307.1 927.5,2245.5C 927.672,2244.51 927.338,2243.84 926.5,2243.5C 881.84,2030.36 827.673,1819.69 764,1611.5C 724.754,1484.04 679.087,1359.04 627,1236.5C 591.046,1151.91 548.379,1071.24 499,994.5C 487.72,978.22 476.053,962.22 464,946.5C 463.333,945.833 463.333,945.167 464,944.5C 480.733,955.898 496.9,968.064 512.5,981C 599.96,1056.25 679.127,1139.08 750,1229.5C 851.709,1360.5 941.709,1499.5 1020,1646.5C 1079.98,1760.45 1134.48,1876.79 1183.5,1995.5 Z"/></g>
<g><path style="opacity:0.988" fill="#2d9140" d="M 1852.5,1281.5 C 1852.8,1282.15 1853.14,1282.82 1853.5,1283.5C 1835.79,1322.8 1818.96,1362.47 1803,1402.5C 1802.62,1403.94 1801.79,1404.94 1800.5,1405.5C 1772.81,1271.27 1732.97,1140.94 1681,1014.5C 1693.78,1026.94 1705.45,1040.28 1716,1054.5C 1768.06,1125.91 1813.56,1201.58 1852.5,1281.5 Z"/></g>
<g><path style="opacity:0.998" fill="#40ac3c" d="M 1314.5,1692.5 C 1400.1,1916.8 1477.27,2144.14 1546,2374.5C 1558.14,2284.31 1573.31,2194.65 1591.5,2105.5C 1606.06,2037.59 1622.06,1969.92 1639.5,1902.5C 1700.55,2077.33 1757.22,2253.66 1809.5,2431.5C 1604.17,2431.5 1398.83,2431.5 1193.5,2431.5C 1197.87,2285.97 1194.53,2140.64 1183.5,1995.5C 1171.79,1817.85 1147.96,1641.85 1112,1467.5C 1082.98,1328.05 1041.32,1192.71 987,1061.5C 992.367,1066.53 997.367,1071.87 1002,1077.5C 1034.31,1119.44 1063.64,1163.44 1090,1209.5C 1154.24,1323.98 1211.57,1441.98 1262,1563.5C 1279.82,1606.48 1297.32,1649.48 1314.5,1692.5 Z"/></g>
<g><path style="opacity:0.999" fill="#236739" d="M 1399.5,1265.5 C 1452.95,1394.34 1503.79,1524.34 1552,1655.5C 1560.87,1678.96 1569.04,1702.62 1576.5,1726.5C 1578.67,1852.96 1583.67,1979.29 1591.5,2105.5C 1573.31,2194.65 1558.14,2284.31 1546,2374.5C 1477.27,2144.14 1400.1,1916.8 1314.5,1692.5C 1331.39,1580.23 1352.22,1468.56 1377,1357.5C 1383.9,1326.56 1391.4,1295.89 1399.5,1265.5 Z"/></g>
<g><path style="opacity:0.996" fill="#2d9140" d="M 926.5,2243.5 C 926.328,2244.49 926.662,2245.16 927.5,2245.5C 941.546,2307.1 953.88,2369.1 964.5,2431.5C 884.166,2431.67 803.833,2431.5 723.5,2431C 717.244,2425.07 712.077,2418.23 708,2410.5C 702.333,2398.5 696.667,2386.5 691,2374.5C 665,2311.83 639,2249.17 613,2186.5C 554.113,2046.72 485.78,1912.06 408,1782.5C 336.101,1664.57 253.435,1554.57 160,1452.5C 128.595,1419.26 96.095,1387.26 62.5,1356.5C 72.5738,1360.36 82.5738,1365.2 92.5,1371C 148.3,1403.81 201.633,1440.15 252.5,1480C 333.928,1544.74 411.094,1614.58 484,1689.5C 607.46,1818.24 721.127,1954.57 825,2098.5C 859.348,2146.55 893.181,2194.88 926.5,2243.5 Z"/></g>
</svg>
