<?xml version="1.0" encoding="UTF-8"?>
<!DOCTYPE svg PUBLIC "-//W3C//DTD SVG 1.1//EN" "http://www.w3.org/Graphics/SVG/1.1/DTD/svg11.dtd">
<svg xmlns="http://www.w3.org/2000/svg" version="1.1" width="3000px" height="3000px" style="shape-rendering:geometricPrecision; text-rendering:geometricPrecision; image-rendering:optimizeQuality; fill-rule:evenodd; clip-rule:evenodd" xmlns:xlink="http://www.w3.org/1999/xlink">
<g><path style="opacity:0.997" fill="#98838b" d="M 668.5,553.5 C 648.502,559.388 628.835,566.055 609.5,573.5C 617.319,538.791 607.319,510.291 579.5,488C 558.828,474.668 536.828,472.001 513.5,480C 478.462,493.011 447.462,512.344 420.5,538C 408.019,549.133 399.186,562.633 394,578.5C 390.522,598.405 396.355,614.905 411.5,628C 425.7,638.461 441.367,645.961 458.5,650.5C 444.24,660.752 430.24,671.419 416.5,682.5C 385.371,669.551 359.204,649.884 338,623.5C 302.132,571.309 301.465,518.642 336,465.5C 355.033,440.466 377.866,419.633 404.5,403C 434.554,383.644 466.887,369.311 501.5,360C 533.373,352.583 564.706,354.25 595.5,365C 626.54,379.04 648.373,401.873 661,433.5C 676.046,472.694 678.546,512.694 668.5,553.5 Z"/></g>
<g><path style="opacity:0.997" fill="#99848c" d="M 1629.5,673.5 C 1627.07,672.25 1624.73,670.75 1622.5,669C 1612.47,659.346 1602.14,650.18 1591.5,641.5C 1607.02,635.997 1619.19,626.33 1628,612.5C 1636.6,593.224 1634.93,574.89 1623,557.5C 1595.2,524.51 1561.37,499.677 1521.5,483C 1474.57,465.966 1440.4,479.799 1419,524.5C 1416.8,531.019 1415.3,537.685 1414.5,544.5C 1393.62,537.982 1372.95,531.315 1352.5,524.5C 1348.51,484.62 1356.34,447.287 1376,412.5C 1397.27,379.099 1427.77,360.265 1467.5,356C 1495.31,353.691 1522.31,357.358 1548.5,367C 1583.84,380.078 1616.51,397.745 1646.5,420C 1671.23,438.676 1690.4,461.843 1704,489.5C 1725.04,541.234 1717.71,588.567 1682,631.5C 1666.91,648.784 1649.41,662.784 1629.5,673.5 Z"/></g>
<g><path style="opacity:1" fill="#89717a" d="M 609.5,573.5 C 555.602,592.614 505.269,618.28 458.5,650.5C 441.367,645.961 425.7,638.461 411.5,628C 396.355,614.905 390.522,598.405 394,578.5C 399.186,562.633 408.019,549.133 420.5,538C 447.462,512.344 478.462,493.011 513.5,480C 536.828,472.001 558.828,474.668 579.5,488C 607.319,510.291 617.319,538.791 609.5,573.5 Z"/></g>
<g><path style="opacity:1" fill="#89717a" d="M 1591.5,641.5 C 1537.73,600.105 1478.73,567.771 1414.5,544.5C 1415.3,537.685 1416.8,531.019 1419,524.5C 1440.4,479.799 1474.57,465.966 1521.5,483C 1561.37,499.677 1595.2,524.51 1623,557.5C 1634.93,574.89 1636.6,593.224 1628,612.5C 1619.19,626.33 1607.02,635.997 1591.5,641.5 Z"/></g>
<g><path style="opacity:1" fill="#ac969d" d="M 1352.5,524.5 C 1372.95,531.315 1393.62,537.982 1414.5,544.5C 1478.73,567.771 1537.73,600.105 1591.5,641.5C 1602.14,650.18 1612.47,659.346 1622.5,669C 1624.73,670.75 1627.07,672.25 1629.5,673.5C 1680.09,721.323 1718.26,777.657 1744,842.5C 1770.64,916.3 1776.14,991.633 1760.5,1068.5C 1752.46,1101.6 1740.46,1133.27 1724.5,1163.5C 1693.89,1140.45 1661.06,1120.78 1626,1104.5C 1627.96,1096.64 1629.63,1088.64 1631,1080.5C 1633.48,1035.67 1613.98,1004.83 1572.5,988C 1530.4,975.59 1496.23,986.757 1470,1021.5C 1463.36,1031.92 1459.19,1043.26 1457.5,1055.5C 1424.64,1050.07 1391.64,1045.23 1358.5,1041C 1218,1024.82 1077,1017.82 935.5,1020C 827.503,1022.63 720.503,1034.3 614.5,1055C 599.513,1058 584.68,1061.5 570,1065.5C 559.462,1022.63 532.296,998.462 488.5,993C 440.427,991.746 409.927,1014.25 397,1060.5C 393.634,1081.82 395.634,1102.49 403,1122.5C 368.884,1139.17 337.051,1159.17 307.5,1182.5C 259.462,1085.71 250.628,985.376 281,881.5C 307.034,801.996 352.201,735.662 416.5,682.5C 430.24,671.419 444.24,660.752 458.5,650.5C 505.269,618.28 555.602,592.614 609.5,573.5C 628.835,566.055 648.502,559.388 668.5,553.5C 727.305,537.305 786.972,525.139 847.5,517C 946.951,501.926 1046.95,495.259 1147.5,497C 1216.85,498.74 1285.18,507.907 1352.5,524.5 Z"/></g>
<g><path style="opacity:1" fill="#ede8e6" d="M 650.5,854.5 C 687.019,854.842 709.519,872.842 718,908.5C 721.637,931.572 716.304,952.239 702,970.5C 683.27,990.313 661.103,995.48 635.5,986C 613.564,974.033 601.064,955.533 598,930.5C 595.847,901.314 606.68,878.48 630.5,862C 636.96,858.588 643.627,856.088 650.5,854.5 Z"/></g>
<g><path style="opacity:1" fill="#ede8e6" d="M 1323.5,854.5 C 1360.51,854.328 1383.34,872.328 1392,908.5C 1396.33,937.43 1387.5,961.263 1365.5,980C 1332.7,999.064 1305.2,993.231 1283,962.5C 1270.93,939.913 1269.26,916.579 1278,892.5C 1287.35,872.637 1302.51,859.97 1323.5,854.5 Z"/></g>
<g><path style="opacity:1" fill="#371f13" d="M 652.5,898.5 C 681.047,898.876 694.547,913.209 693,941.5C 685.968,963.271 671.135,972.104 648.5,968C 628.865,960.576 620.699,946.409 624,925.5C 628.549,911.164 638.049,902.164 652.5,898.5 Z"/></g>
<g><path style="opacity:1" fill="#371e13" d="M 1328.5,898.5 C 1351.56,898.98 1364.56,910.48 1367.5,933C 1366.27,955.069 1354.6,967.235 1332.5,969.5C 1310.41,967.249 1298.75,955.082 1297.5,933C 1299.25,913.752 1309.58,902.252 1328.5,898.5 Z"/></g>
<g><path style="opacity:1" fill="#eae5e3" d="M 641.5,912.5 C 658.302,912.795 663.802,920.795 658,936.5C 649.613,943.48 641.613,943.147 634,935.5C 629.393,925.488 631.893,917.822 641.5,912.5 Z"/></g>
<g><path style="opacity:1" fill="#e9e5e3" d="M 1315.5,912.5 C 1329.21,911.711 1335.71,918.044 1335,931.5C 1331.09,939.811 1324.59,942.977 1315.5,941C 1306.29,936.102 1303.79,928.936 1308,919.5C 1310.37,916.961 1312.87,914.628 1315.5,912.5 Z"/></g>
<g><path style="opacity:1" fill="#8e7d84" d="M 2571.5,1139.5 C 2581.54,1149.88 2592.21,1159.54 2603.5,1168.5C 2693.81,1255.7 2756.64,1360.03 2792,1481.5C 2855.89,1718.82 2819.89,1939.48 2684,2143.5C 2670.72,2162.45 2657.05,2181.11 2643,2199.5C 2627.59,2243.39 2613.59,2287.73 2601,2332.5C 2598.41,2344.11 2596.08,2355.78 2594,2367.5C 2588.37,2410.06 2583.71,2452.72 2580,2495.5C 2576.78,2527.76 2569.95,2559.09 2559.5,2589.5C 2558.21,2588.84 2556.71,2588.51 2555,2588.5C 2468,2601.25 2381.83,2597.25 2296.5,2576.5C 2295.79,2575.6 2294.79,2575.26 2293.5,2575.5C 2293.5,2574.5 2293.5,2573.5 2293.5,2572.5C 2294.97,2543.28 2297.13,2513.94 2300,2484.5C 2300.82,2474.32 2300.66,2464.32 2299.5,2454.5C 2300.91,2427.54 2300.58,2400.54 2298.5,2373.5C 2159.77,2404.28 2019.43,2424.11 1877.5,2433C 1633.75,2445.97 1394.42,2419.97 1159.5,2355C 1134.33,2347.33 1109.33,2339.17 1084.5,2330.5C 1081.33,2342.18 1078,2353.84 1074.5,2365.5C 1074.86,2366.18 1075.2,2366.85 1075.5,2367.5C 1067.12,2391.71 1061.29,2416.71 1058,2442.5C 1055.19,2469.14 1057.86,2495.14 1066,2520.5C 1067.3,2521.08 1068.47,2521.75 1069.5,2522.5C 1068.45,2522.35 1067.45,2522.52 1066.5,2523C 1072.63,2537.43 1078.63,2551.93 1084.5,2566.5C 1078.87,2567.5 1073.21,2567.83 1067.5,2567.5C 990.383,2567.38 914.049,2559.71 838.5,2544.5C 823.744,2454.51 823.911,2364.51 839,2274.5C 844.539,2246.47 850.205,2218.47 856,2190.5C 857.88,2181.65 860.38,2172.98 863.5,2164.5C 811.79,2089.25 777.29,2006.59 760,1916.5C 758.319,1908.57 757.152,1900.57 756.5,1892.5C 802.516,1900.11 848.849,1904.61 895.5,1906C 995.863,1908.63 1096.2,1907.96 1196.5,1904C 1335.05,1896.68 1471.72,1876.68 1606.5,1844C 1646.96,1833.41 1685.29,1817.74 1721.5,1797C 1778.46,1760.35 1817.96,1709.85 1840,1645.5C 1870.5,1554.65 1875.83,1462.32 1856,1368.5C 1836.28,1284.32 1792.45,1215.99 1724.5,1163.5C 1740.46,1133.27 1752.46,1101.6 1760.5,1068.5C 1845.03,1027.49 1933.69,998.992 2026.5,983C 2231.42,956.129 2413.09,1008.3 2571.5,1139.5 Z"/></g>
<g><path style="opacity:1" fill="#c6aeb5" d="M 1724.5,1163.5 C 1792.45,1215.99 1836.28,1284.32 1856,1368.5C 1875.83,1462.32 1870.5,1554.65 1840,1645.5C 1817.96,1709.85 1778.46,1760.35 1721.5,1797C 1685.29,1817.74 1646.96,1833.41 1606.5,1844C 1471.72,1876.68 1335.05,1896.68 1196.5,1904C 1096.2,1907.96 995.863,1908.63 895.5,1906C 848.849,1904.61 802.516,1900.11 756.5,1892.5C 740.243,1889.02 723.91,1885.85 707.5,1883C 671.196,1878.11 634.863,1873.45 598.5,1869C 491.021,1853.25 397.021,1809.58 316.5,1738C 221.007,1645.56 177.84,1532.73 187,1399.5C 198.065,1310.68 238.231,1238.34 307.5,1182.5C 337.051,1159.17 368.884,1139.17 403,1122.5C 395.634,1102.49 393.634,1081.82 397,1060.5C 409.927,1014.25 440.427,991.746 488.5,993C 532.296,998.462 559.462,1022.63 570,1065.5C 584.68,1061.5 599.513,1058 614.5,1055C 720.503,1034.3 827.503,1022.63 935.5,1020C 1077,1017.82 1218,1024.82 1358.5,1041C 1391.64,1045.23 1424.64,1050.07 1457.5,1055.5C 1459.19,1043.26 1463.36,1031.92 1470,1021.5C 1496.23,986.757 1530.4,975.59 1572.5,988C 1613.98,1004.83 1633.48,1035.67 1631,1080.5C 1629.63,1088.64 1627.96,1096.64 1626,1104.5C 1661.06,1120.78 1693.89,1140.45 1724.5,1163.5 Z"/></g>
<g><path style="opacity:1" fill="#59484e" d="M 1530.5,1030.5 C 1558.93,1027.8 1577.76,1039.8 1587,1066.5C 1590.88,1094.94 1579.38,1114.11 1552.5,1124C 1523.52,1128.59 1504.02,1117.09 1494,1089.5C 1489.92,1059.65 1502.08,1039.98 1530.5,1030.5 Z"/></g>
<g><path style="opacity:1" fill="#59484e" d="M 472.5,1039.5 C 504.691,1039.03 523.025,1054.7 527.5,1086.5C 523.175,1121.33 503.508,1137.17 468.5,1134C 439.446,1123.29 427.946,1102.79 434,1072.5C 440.899,1054.43 453.732,1043.43 472.5,1039.5 Z"/></g>
<g><path style="opacity:0.976" fill="#796d72" d="M 2603.5,1168.5 C 2592.21,1159.54 2581.54,1149.88 2571.5,1139.5C 2598.54,1116.15 2629.88,1101.65 2665.5,1096C 2708.03,1092.87 2745.03,1105.54 2776.5,1134C 2790.09,1146.25 2802.26,1159.75 2813,1174.5C 2814.42,1180.92 2811.92,1184.92 2805.5,1186.5C 2803.29,1185.88 2801.29,1184.88 2799.5,1183.5C 2777.62,1159.13 2751.29,1141.3 2720.5,1130C 2686.07,1121.68 2654.4,1128.01 2625.5,1149C 2617.68,1154.99 2610.34,1161.49 2603.5,1168.5 Z"/></g>
<g><path style="opacity:1" fill="#89717a" d="M 1606.5,1584.5 C 1558.02,1611.4 1507.35,1633.4 1454.5,1650.5C 1348.92,1681.58 1241.26,1702.08 1131.5,1712C 1035.07,1721.66 938.399,1725.66 841.5,1724C 762.735,1721.91 685.068,1711.75 608.5,1693.5C 564.848,1681.61 522.515,1665.95 481.5,1646.5C 436.748,1623.6 396.582,1594.27 361,1558.5C 319.809,1514.47 292.476,1462.8 279,1403.5C 276.608,1390.59 275.108,1377.59 274.5,1364.5C 274.667,1360.17 274.833,1355.83 275,1351.5C 279.572,1346.19 284.239,1346.19 289,1351.5C 294.336,1438.67 329.503,1511.17 394.5,1569C 441.084,1608.49 493.417,1638.49 551.5,1659C 602.93,1676.75 655.597,1689.42 709.5,1697C 786.841,1707.16 864.508,1710.83 942.5,1708C 1083.08,1705.13 1222.08,1689.13 1359.5,1660C 1422.04,1645.6 1482.71,1625.6 1541.5,1600C 1590.89,1578.33 1635.55,1549.66 1675.5,1514C 1716.02,1477.11 1742.85,1431.94 1756,1378.5C 1758.84,1363.96 1760.51,1349.3 1761,1334.5C 1764.95,1328.64 1769.61,1327.98 1775,1332.5C 1776.07,1335.38 1776.57,1338.38 1776.5,1341.5C 1772.7,1400.74 1751.53,1452.74 1713,1497.5C 1682.01,1532.36 1646.51,1561.36 1606.5,1584.5 Z"/></g>
<g><path style="opacity:1" fill="#fcfdfb" d="M 1606.5,1584.5 C 1607.89,1586.88 1608.72,1589.54 1609,1592.5C 1612.32,1616.71 1613.32,1641.05 1612,1665.5C 1608.43,1688.82 1597.93,1708.32 1580.5,1724C 1566.6,1733.19 1551.27,1738.19 1534.5,1739C 1516.03,1740.22 1497.7,1739.22 1479.5,1736C 1467.47,1732.92 1458.97,1725.75 1454,1714.5C 1448.98,1699.23 1446.98,1683.56 1448,1667.5C 1449.07,1661.36 1451.24,1655.7 1454.5,1650.5C 1507.35,1633.4 1558.02,1611.4 1606.5,1584.5 Z"/></g>
<g><path style="opacity:1" fill="#fdfcfe" d="M 481.5,1646.5 C 522.515,1665.95 564.848,1681.61 608.5,1693.5C 609.177,1707.79 606.01,1721.13 599,1733.5C 594.152,1740 587.652,1743.5 579.5,1744C 559.765,1744.33 540.431,1741.66 521.5,1736C 506.336,1730.83 494.169,1721.67 485,1708.5C 477.882,1688.14 476.716,1667.47 481.5,1646.5 Z"/></g>
<g><path style="opacity:1" fill="#9a8d93" d="M 2299.5,2454.5 C 2234.05,2481.43 2166.72,2502.1 2097.5,2516.5C 1996.35,2536.5 1894.18,2546.17 1791,2545.5C 1658.15,2545.33 1526.98,2530.5 1397.5,2501C 1346.24,2488.41 1295.91,2472.91 1246.5,2454.5C 1186.85,2430.51 1129.85,2401.51 1075.5,2367.5C 1075.2,2366.85 1074.86,2366.18 1074.5,2365.5C 1078,2353.84 1081.33,2342.18 1084.5,2330.5C 1109.33,2339.17 1134.33,2347.33 1159.5,2355C 1394.42,2419.97 1633.75,2445.97 1877.5,2433C 2019.43,2424.11 2159.77,2404.28 2298.5,2373.5C 2300.58,2400.54 2300.91,2427.54 2299.5,2454.5 Z"/></g>
<g><path style="opacity:0.999" fill="#7a6e73" d="M 1075.5,2367.5 C 1129.85,2401.51 1186.85,2430.51 1246.5,2454.5C 1247.96,2464.64 1250.13,2474.64 1253,2484.5C 1259.85,2502.2 1266.69,2519.87 1273.5,2537.5C 1205.06,2538.03 1137.06,2533.03 1069.5,2522.5C 1068.47,2521.75 1067.3,2521.08 1066,2520.5C 1057.86,2495.14 1055.19,2469.14 1058,2442.5C 1061.29,2416.71 1067.12,2391.71 1075.5,2367.5 Z"/></g>
<g><path style="opacity:0.999" fill="#7a6e73" d="M 2299.5,2454.5 C 2300.66,2464.32 2300.82,2474.32 2300,2484.5C 2297.13,2513.94 2294.97,2543.28 2293.5,2572.5C 2227.15,2576.04 2161.82,2569.71 2097.5,2553.5C 2096.51,2557.45 2096.18,2561.45 2096.5,2565.5C 2095.52,2549.3 2095.85,2532.97 2097.5,2516.5C 2166.72,2502.1 2234.05,2481.43 2299.5,2454.5 Z"/></g>
<g><path style="opacity:1" fill="#92888c" d="M 1069.5,2522.5 C 1137.06,2533.03 1205.06,2538.03 1273.5,2537.5C 1281.19,2555.37 1283.69,2574.04 1281,2593.5C 1277.1,2614.46 1265.27,2628.96 1245.5,2637C 1232.83,2641.28 1219.83,2643.94 1206.5,2645C 1180.09,2648.54 1153.76,2648.21 1127.5,2644C 1114.55,2640.96 1102.21,2636.46 1090.5,2630.5C 1095.39,2610.06 1093.89,2590.06 1086,2570.5C 1079.94,2568.88 1073.77,2567.88 1067.5,2567.5C 1073.21,2567.83 1078.87,2567.5 1084.5,2566.5C 1078.63,2551.93 1072.63,2537.43 1066.5,2523C 1067.45,2522.52 1068.45,2522.35 1069.5,2522.5 Z"/></g>
<g><path style="opacity:1" fill="#c5adb4" d="M 838.5,2544.5 C 914.049,2559.71 990.383,2567.38 1067.5,2567.5C 1073.77,2567.88 1079.94,2568.88 1086,2570.5C 1093.89,2590.06 1095.39,2610.06 1090.5,2630.5C 1085.68,2648.16 1074.68,2660.32 1057.5,2667C 1031.7,2674.33 1005.37,2677.83 978.5,2677.5C 915.985,2679.84 873.819,2651.84 852,2593.5C 846.095,2577.55 841.595,2561.21 838.5,2544.5 Z"/></g>
<g><path style="opacity:1" fill="#92888c" d="M 2293.5,2572.5 C 2293.5,2573.5 2293.5,2574.5 2293.5,2575.5C 2294.79,2575.26 2295.79,2575.6 2296.5,2576.5C 2293.28,2604.55 2297.28,2631.88 2308.5,2658.5C 2307.88,2658.39 2307.38,2658.06 2307,2657.5C 2265.43,2694.41 2217.93,2704.91 2164.5,2689C 2129.88,2672.99 2108.71,2646.16 2101,2608.5C 2097.85,2594.34 2096.35,2580 2096.5,2565.5C 2096.18,2561.45 2096.51,2557.45 2097.5,2553.5C 2161.82,2569.71 2227.15,2576.04 2293.5,2572.5 Z"/></g>
<g><path style="opacity:1" fill="#c5adb4" d="M 2296.5,2576.5 C 2381.83,2597.25 2468,2601.25 2555,2588.5C 2556.71,2588.51 2558.21,2588.84 2559.5,2589.5C 2545.69,2635.01 2519.36,2671.17 2480.5,2698C 2444.95,2718.82 2407.28,2723.82 2367.5,2713C 2340.28,2702.95 2320.62,2684.78 2308.5,2658.5C 2297.28,2631.88 2293.28,2604.55 2296.5,2576.5 Z"/></g>
</svg>
