<?xml version="1.0" encoding="UTF-8"?>
<!DOCTYPE svg PUBLIC "-//W3C//DTD SVG 1.1//EN" "http://www.w3.org/Graphics/SVG/1.1/DTD/svg11.dtd">
<svg xmlns="http://www.w3.org/2000/svg" version="1.1" width="3000px" height="3000px" style="shape-rendering:geometricPrecision; text-rendering:geometricPrecision; image-rendering:optimizeQuality; fill-rule:evenodd; clip-rule:evenodd" xmlns:xlink="http://www.w3.org/1999/xlink">
<g><path style="opacity:0.999" fill="#bad9e5" d="M 1842.5,606.5 C 1837.73,606.483 1833.07,605.816 1828.5,604.5C 1828.38,659.448 1826.71,714.281 1823.5,769C 1692.8,769.832 1562.14,768.332 1431.5,764.5C 1433.72,712.859 1434.72,661.193 1434.5,609.5C 1535.03,590.273 1636.37,584.773 1738.5,593C 1773.55,595.713 1808.21,600.213 1842.5,606.5 Z"/></g>
<g><path style="opacity:1" fill="#d2e9f1" d="M 1842.5,606.5 C 1850.11,606.958 1857.45,608.291 1864.5,610.5C 1866.6,611.612 1868.93,612.279 1871.5,612.5C 1872.01,664.559 1870.68,716.559 1867.5,768.5C 1954.56,766.957 2041.56,764.291 2128.5,760.5C 2150.01,759.846 2171.51,758.846 2193,757.5C 2196.9,757.488 2200.4,756.821 2203.5,755.5C 2221.76,769.125 2239.42,783.459 2256.5,798.5C 2209.48,800.448 2162.48,802.782 2115.5,805.5C 2116.16,809.466 2116.5,813.466 2116.5,817.5C 2118.53,859.127 2119.03,900.794 2118,942.5C 2115.94,977.274 2112.78,1011.94 2108.5,1046.5C 2179.57,1043.66 2250.57,1039.66 2321.5,1034.5C 2360.19,1031.81 2398.85,1028.81 2437.5,1025.5C 2437.5,1024.5 2437.5,1023.5 2437.5,1022.5C 2446.07,1037.3 2454.4,1052.3 2462.5,1067.5C 2424.83,1070.6 2387.16,1073.6 2349.5,1076.5C 2351.11,1089.44 2352.11,1102.44 2352.5,1115.5C 2354.37,1147.13 2354.87,1178.8 2354,1210.5C 2352.7,1246.26 2350.2,1281.93 2346.5,1317.5C 2364.16,1316.02 2381.82,1314.69 2399.5,1313.5C 2448.52,1309.26 2497.52,1304.59 2546.5,1299.5C 2548.64,1299.44 2550.31,1298.78 2551.5,1297.5C 2556.1,1311.89 2560.1,1326.56 2563.5,1341.5C 2555.49,1342.37 2547.49,1343.37 2539.5,1344.5C 2545.97,1425 2544.31,1505.34 2534.5,1585.5C 2558.51,1583.01 2582.51,1580.35 2606.5,1577.5C 2608.35,1592.12 2609.68,1606.78 2610.5,1621.5C 2514.42,1632.82 2418.09,1641.65 2321.5,1648C 2320.98,1648.56 2320.64,1649.23 2320.5,1650C 2321.09,1654.98 2321.76,1659.81 2322.5,1664.5C 2322.77,1682.52 2323.43,1700.52 2324.5,1718.5C 2325.08,1782.21 2320.75,1845.54 2311.5,1908.5C 2296.83,1908.5 2282.17,1908.5 2267.5,1908.5C 2270.91,1884.92 2273.74,1861.26 2276,1837.5C 2277.78,1817.2 2278.94,1796.86 2279.5,1776.5C 2280.66,1749.67 2280.83,1722.67 2280,1695.5C 2279.6,1684.31 2278.77,1673.31 2277.5,1662.5C 2277.5,1658.83 2277.5,1655.17 2277.5,1651.5C 2138.63,1660.19 1999.63,1665.53 1860.5,1667.5C 1860.69,1672.37 1861.36,1677.04 1862.5,1681.5C 1867.75,1753.68 1866.08,1825.68 1857.5,1897.5C 1857.28,1901.18 1856.94,1904.85 1856.5,1908.5C 1841.83,1908.5 1827.17,1908.5 1812.5,1908.5C 1812.5,1906.5 1812.5,1904.5 1812.5,1902.5C 1822.33,1828.34 1824,1754 1817.5,1679.5C 1817.5,1675.47 1817.16,1671.47 1816.5,1667.5C 1717.16,1667.94 1617.82,1667.28 1518.5,1665.5C 1514.83,1650.84 1510.83,1636.17 1506.5,1621.5C 1525.49,1622.3 1544.49,1622.64 1563.5,1622.5C 1574.09,1547.42 1577.09,1472.09 1572.5,1396.5C 1572.59,1391.46 1572.25,1386.46 1571.5,1381.5C 1497.78,1380.43 1424.11,1378.43 1350.5,1375.5C 1335.6,1365.13 1320.27,1355.29 1304.5,1346C 1293.14,1339.83 1281.48,1334.33 1269.5,1329.5C 1273.15,1328.83 1276.98,1328.5 1281,1328.5C 1307.33,1329.68 1333.66,1330.68 1360,1331.5C 1364.75,1331.49 1369.41,1331.15 1374,1330.5C 1385.23,1252.27 1387.39,1173.93 1380.5,1095.5C 1380.5,1094.17 1380.5,1092.83 1380.5,1091.5C 1249.04,1086.74 1117.71,1079.74 986.5,1070.5C 985.636,1144.93 980.969,1219.27 972.5,1293.5C 957.833,1293.5 943.167,1293.5 928.5,1293.5C 937.005,1218.06 941.671,1142.4 942.5,1066.5C 923.827,1065.3 905.161,1063.97 886.5,1062.5C 893.005,1048.16 900.005,1034.16 907.5,1020.5C 1000.73,1027.91 1094.07,1033.91 1187.5,1038.5C 1199.04,958.747 1201.21,878.747 1194,798.5C 1158.03,796.443 1122.03,794.109 1086,791.5C 1083.07,791.475 1080.57,790.809 1078.5,789.5C 1089.51,779.157 1100.84,769.157 1112.5,759.5C 1112.9,760.525 1113.56,760.692 1114.5,760C 1118.49,755.999 1122.99,752.832 1128,750.5C 1214.44,755.7 1300.94,759.7 1387.5,762.5C 1389.92,715.201 1390.92,667.867 1390.5,620.5C 1404.93,616.227 1419.59,612.56 1434.5,609.5C 1434.72,661.193 1433.72,712.859 1431.5,764.5C 1562.14,768.332 1692.8,769.832 1823.5,769C 1826.71,714.281 1828.38,659.448 1828.5,604.5C 1833.07,605.816 1837.73,606.483 1842.5,606.5 Z"/></g>
<g><path style="opacity:1" fill="#bad9e5" d="M 1864.5,610.5 C 1877.11,612.42 1889.44,615.087 1901.5,618.5C 1898.93,618.656 1896.43,618.322 1894,617.5C 1973.7,646.978 2046.53,689.478 2112.5,745C 2117.73,750.397 2123.06,755.564 2128.5,760.5C 2041.56,764.291 1954.56,766.957 1867.5,768.5C 1870.68,716.559 1872.01,664.559 1871.5,612.5C 1868.93,612.279 1866.6,611.612 1864.5,610.5 Z"/></g>
<g><path style="opacity:1" fill="#add1db" d="M 1901.5,618.5 C 2011.85,643.688 2112.51,689.355 2203.5,755.5C 2200.4,756.821 2196.9,757.488 2193,757.5C 2171.51,758.846 2150.01,759.846 2128.5,760.5C 2123.06,755.564 2117.73,750.397 2112.5,745C 2046.53,689.478 1973.7,646.978 1894,617.5C 1896.43,618.322 1898.93,618.656 1901.5,618.5 Z"/></g>
<g><path style="opacity:0.996" fill="#bad9e5" d="M 1390.5,620.5 C 1390.92,667.867 1389.92,715.201 1387.5,762.5C 1300.94,759.7 1214.44,755.7 1128,750.5C 1122.99,752.832 1118.49,755.999 1114.5,760C 1113.56,760.692 1112.9,760.525 1112.5,759.5C 1194.63,693.101 1287.3,646.768 1390.5,620.5 Z"/></g>
<g><path style="opacity:0.999" fill="#b9d9e4" d="M 1078.5,789.5 C 1080.57,790.809 1083.07,791.475 1086,791.5C 1122.03,794.109 1158.03,796.443 1194,798.5C 1201.21,878.747 1199.04,958.747 1187.5,1038.5C 1094.07,1033.91 1000.73,1027.91 907.5,1020.5C 950.601,933.338 1007.6,856.338 1078.5,789.5 Z"/></g>
<g><path style="opacity:1" fill="#add1db" d="M 2256.5,798.5 C 2329.58,863.204 2389.91,937.87 2437.5,1022.5C 2437.5,1023.5 2437.5,1024.5 2437.5,1025.5C 2398.85,1028.81 2360.19,1031.81 2321.5,1034.5C 2286.64,952.886 2239.97,879.053 2181.5,813C 2159.82,814.123 2138.16,815.623 2116.5,817.5C 2116.5,813.466 2116.16,809.466 2115.5,805.5C 2162.48,802.782 2209.48,800.448 2256.5,798.5 Z"/></g>
<g><path style="opacity:1" fill="#add1db" d="M 1617.5,819.5 C 1617.5,821.833 1617.5,824.167 1617.5,826.5C 1490.96,823.633 1364.62,816.966 1238.5,806.5C 1238.5,804.5 1238.5,802.5 1238.5,800.5C 1364.75,806.891 1491.08,810.891 1617.5,812.5C 1617.5,814.833 1617.5,817.167 1617.5,819.5 Z"/></g>
<g><path style="opacity:1" fill="#bad9e5" d="M 1238.5,806.5 C 1364.62,816.966 1490.96,823.633 1617.5,826.5C 1617.5,824.167 1617.5,821.833 1617.5,819.5C 1622.93,897.395 1619.6,975.061 1607.5,1052.5C 1482.11,1050.93 1356.78,1047.27 1231.5,1041.5C 1242.04,963.435 1244.37,885.102 1238.5,806.5 Z"/></g>
<g><path style="opacity:1" fill="#add1db" d="M 2072.5,820.5 C 1935.92,827.728 1799.25,830.061 1662.5,827.5C 1661.55,822.595 1661.22,817.595 1661.5,812.5C 1738.17,812.667 1814.83,812.5 1891.5,812C 1951.83,810.219 2012.16,808.719 2072.5,807.5C 2072.5,811.833 2072.5,816.167 2072.5,820.5 Z"/></g>
<g><path style="opacity:1" fill="#bad9e5" d="M 2321.5,1034.5 C 2250.57,1039.66 2179.57,1043.66 2108.5,1046.5C 2112.78,1011.94 2115.94,977.274 2118,942.5C 2119.03,900.794 2118.53,859.127 2116.5,817.5C 2138.16,815.623 2159.82,814.123 2181.5,813C 2239.97,879.053 2286.64,952.886 2321.5,1034.5 Z"/></g>
<g><path style="opacity:1" fill="#bad9e5" d="M 2072.5,820.5 C 2077.35,896.764 2074.35,972.764 2063.5,1048.5C 1926.21,1053.49 1788.88,1055.49 1651.5,1054.5C 1662.87,979.239 1666.53,903.572 1662.5,827.5C 1799.25,830.061 1935.92,827.728 2072.5,820.5 Z"/></g>
<g><path style="opacity:1" fill="#add1db" d="M 2462.5,1067.5 C 2499.64,1141.23 2529.3,1217.9 2551.5,1297.5C 2550.31,1298.78 2548.64,1299.44 2546.5,1299.5C 2497.52,1304.59 2448.52,1309.26 2399.5,1313.5C 2389.81,1245.94 2374.14,1179.94 2352.5,1115.5C 2352.11,1102.44 2351.11,1089.44 2349.5,1076.5C 2387.16,1073.6 2424.83,1070.6 2462.5,1067.5 Z"/></g>
<g><path style="opacity:1" fill="#add1db" d="M 986.5,1070.5 C 1117.71,1079.74 1249.04,1086.74 1380.5,1091.5C 1380.5,1092.83 1380.5,1094.17 1380.5,1095.5C 1380.5,1098.17 1380.5,1100.83 1380.5,1103.5C 1248.88,1097.1 1117.55,1087.1 986.5,1073.5C 986.5,1072.5 986.5,1071.5 986.5,1070.5 Z"/></g>
<g><path style="opacity:1" fill="#bad9e5" d="M 986.5,1070.5 C 986.5,1071.5 986.5,1072.5 986.5,1073.5C 1117.55,1087.1 1248.88,1097.1 1380.5,1103.5C 1380.5,1100.83 1380.5,1098.17 1380.5,1095.5C 1387.39,1173.93 1385.23,1252.27 1374,1330.5C 1369.41,1331.15 1364.75,1331.49 1360,1331.5C 1333.66,1330.68 1307.33,1329.68 1281,1328.5C 1276.98,1328.5 1273.15,1328.83 1269.5,1329.5C 1215.8,1307.26 1159.8,1295.43 1101.5,1294C 1058.5,1293.5 1015.5,1293.33 972.5,1293.5C 980.969,1219.27 985.636,1144.93 986.5,1070.5 Z"/></g>
<g><path style="opacity:1" fill="#add1db" d="M 2307.5,1100.5 C 2171,1109.85 2034.33,1114.85 1897.5,1115.5C 1897.52,1109.14 1897.19,1102.81 1896.5,1096.5C 2033,1094.54 2169.33,1088.87 2305.5,1079.5C 2306.69,1086.44 2307.35,1093.44 2307.5,1100.5 Z"/></g>
<g><path style="opacity:1" fill="#add1db" d="M 1853.5,1114.5 C 1843.19,1115.83 1832.52,1116.5 1821.5,1116.5C 1689.35,1115.89 1557.35,1112.22 1425.5,1105.5C 1425.5,1101.47 1425.16,1097.47 1424.5,1093.5C 1567.14,1097.06 1709.81,1098.4 1852.5,1097.5C 1853.22,1103.14 1853.55,1108.8 1853.5,1114.5 Z"/></g>
<g><path style="opacity:1" fill="#bad9e5" d="M 2307.5,1100.5 C 2312.57,1174.34 2310.57,1248.01 2301.5,1321.5C 2234.85,1325.25 2168.18,1328.75 2101.5,1332C 2030.52,1334.74 1959.52,1336.57 1888.5,1337.5C 1898.86,1263.75 1901.86,1189.75 1897.5,1115.5C 2034.33,1114.85 2171,1109.85 2307.5,1100.5 Z"/></g>
<g><path style="opacity:1" fill="#bad9e5" d="M 1425.5,1105.5 C 1557.35,1112.22 1689.35,1115.89 1821.5,1116.5C 1832.52,1116.5 1843.19,1115.83 1853.5,1114.5C 1857.98,1189.58 1854.64,1264.41 1843.5,1339C 1701.8,1340.21 1560.14,1338.71 1418.5,1334.5C 1428.18,1258.39 1430.51,1182.05 1425.5,1105.5 Z"/></g>
<g><path style="opacity:1" fill="#bad9e5" d="M 2352.5,1115.5 C 2374.14,1179.94 2389.81,1245.94 2399.5,1313.5C 2381.82,1314.69 2364.16,1316.02 2346.5,1317.5C 2350.2,1281.93 2352.7,1246.26 2354,1210.5C 2354.87,1178.8 2354.37,1147.13 2352.5,1115.5 Z"/></g>
<g><path style="opacity:1" fill="#d2e9f1" d="M 808.5,1293.5 C 812.5,1293.5 816.5,1293.5 820.5,1293.5C 820.5,1296.17 820.5,1298.83 820.5,1301.5C 820.5,1346.17 820.5,1390.83 820.5,1435.5C 805.851,1434.65 791.184,1434.32 776.5,1434.5C 776.5,1387.83 776.5,1341.17 776.5,1294.5C 787.135,1293.6 797.802,1293.26 808.5,1293.5 Z"/></g>
<g><path style="opacity:1" fill="#9fc9d6" d="M 928.5,1293.5 C 943.167,1293.5 957.833,1293.5 972.5,1293.5C 1015.5,1293.33 1058.5,1293.5 1101.5,1294C 1159.8,1295.43 1215.8,1307.26 1269.5,1329.5C 1281.48,1334.33 1293.14,1339.83 1304.5,1346C 1320.27,1355.29 1335.6,1365.13 1350.5,1375.5C 1355.61,1380.88 1361.27,1385.55 1367.5,1389.5C 1417.89,1435.09 1456.06,1489.42 1482,1552.5C 1491.3,1575.1 1499.47,1598.1 1506.5,1621.5C 1510.83,1636.17 1514.83,1650.84 1518.5,1665.5C 1519.14,1670.7 1520.14,1675.7 1521.5,1680.5C 1536.19,1755.77 1541.85,1831.77 1538.5,1908.5C 1431.5,1908.5 1324.5,1908.5 1217.5,1908.5C 1217.5,1905.5 1217.5,1902.5 1217.5,1899.5C 1219.42,1832.6 1215.09,1766.27 1204.5,1700.5C 1202.89,1686.18 1200.23,1672.18 1196.5,1658.5C 1181.83,1581.3 1153,1509.96 1110,1444.5C 1105.25,1438.6 1100.75,1432.6 1096.5,1426.5C 1087.54,1415.54 1078.21,1404.87 1068.5,1394.5C 1002.35,1330.81 923.016,1297.31 830.5,1294C 863.165,1293.5 895.832,1293.33 928.5,1293.5 Z"/></g>
<g><path style="opacity:0.997" fill="#b9d8e4" d="M 776.5,1294.5 C 776.5,1341.17 776.5,1387.83 776.5,1434.5C 723.9,1437.14 679.233,1457.14 642.5,1494.5C 629.061,1487.61 615.728,1480.45 602.5,1473C 583.104,1461.31 564.104,1449.14 545.5,1436.5C 542.233,1434.57 539.233,1432.24 536.5,1429.5C 594.689,1346.71 674.689,1301.71 776.5,1294.5 Z"/></g>
<g><path style="opacity:1" fill="#b9d8e4" d="M 886.5,1062.5 C 905.161,1063.97 923.827,1065.3 942.5,1066.5C 941.671,1142.4 937.005,1218.06 928.5,1293.5C 895.832,1293.33 863.165,1293.5 830.5,1294C 923.016,1297.31 1002.35,1330.81 1068.5,1394.5C 1066.98,1394.51 1065.82,1395.18 1065,1396.5C 1033.81,1434.86 999.975,1470.86 963.5,1504.5C 961.833,1503.17 960.167,1501.83 958.5,1500.5C 923.242,1464.87 880.576,1443.54 830.5,1436.5C 827.449,1391.33 824.116,1346.33 820.5,1301.5C 820.5,1298.83 820.5,1296.17 820.5,1293.5C 816.5,1293.5 812.5,1293.5 808.5,1293.5C 826.936,1213.86 852.936,1136.86 886.5,1062.5 Z"/></g>
<g><path style="opacity:1" fill="#add1db" d="M 820.5,1301.5 C 824.116,1346.33 827.449,1391.33 830.5,1436.5C 827.167,1436.17 823.833,1435.83 820.5,1435.5C 820.5,1390.83 820.5,1346.17 820.5,1301.5 Z"/></g>
<g><path style="opacity:1" fill="#add1db" d="M 2563.5,1341.5 C 2583.23,1419.15 2597.56,1497.81 2606.5,1577.5C 2582.51,1580.35 2558.51,1583.01 2534.5,1585.5C 2544.31,1505.34 2545.97,1425 2539.5,1344.5C 2547.49,1343.37 2555.49,1342.37 2563.5,1341.5 Z"/></g>
<g><path style="opacity:1" fill="#add1db" d="M 2388.5,1599.5 C 2403.32,1548.78 2410.32,1496.95 2409.5,1444C 2409.46,1420.79 2408.46,1397.62 2406.5,1374.5C 2298.71,1384.39 2190.71,1391.06 2082.5,1394.5C 2081.59,1388.67 2080.92,1382.67 2080.5,1376.5C 2149.22,1374.13 2217.89,1370.63 2286.5,1366C 2356.23,1360.89 2425.9,1355.39 2495.5,1349.5C 2500.89,1412.82 2500.72,1476.15 2495,1539.5C 2493.25,1556.52 2491.41,1573.52 2489.5,1590.5C 2455.86,1593.8 2422.2,1596.8 2388.5,1599.5 Z"/></g>
<g><path style="opacity:1" fill="#bad9e5" d="M 2388.5,1599.5 C 2284.31,1607.8 2179.98,1613.8 2075.5,1617.5C 2079.54,1579.27 2082.37,1540.94 2084,1502.5C 2084.92,1466.47 2084.42,1430.47 2082.5,1394.5C 2190.71,1391.06 2298.71,1384.39 2406.5,1374.5C 2408.46,1397.62 2409.46,1420.79 2409.5,1444C 2410.32,1496.95 2403.32,1548.78 2388.5,1599.5 Z"/></g>
<g><path style="opacity:1" fill="#add1db" d="M 1350.5,1375.5 C 1424.11,1378.43 1497.78,1380.43 1571.5,1381.5C 1572.25,1386.46 1572.59,1391.46 1572.5,1396.5C 1504.14,1395.03 1435.8,1392.69 1367.5,1389.5C 1361.27,1385.55 1355.61,1380.88 1350.5,1375.5 Z"/></g>
<g><path style="opacity:1" fill="#add1db" d="M 2037.5,1390.5 C 2037.5,1392.5 2037.5,1394.5 2037.5,1396.5C 1897.18,1400.73 1756.85,1401.4 1616.5,1398.5C 1616.78,1393.44 1616.45,1388.44 1615.5,1383.5C 1722.5,1382.74 1829.5,1381.9 1936.5,1381C 1969.82,1379.66 2003.16,1378.83 2036.5,1378.5C 2036.65,1382.52 2036.98,1386.52 2037.5,1390.5 Z"/></g>
<g><path style="opacity:1" fill="#b9d9e4" d="M 1367.5,1389.5 C 1435.8,1392.69 1504.14,1395.03 1572.5,1396.5C 1577.09,1472.09 1574.09,1547.42 1563.5,1622.5C 1544.49,1622.64 1525.49,1622.3 1506.5,1621.5C 1499.47,1598.1 1491.3,1575.1 1482,1552.5C 1456.06,1489.42 1417.89,1435.09 1367.5,1389.5 Z"/></g>
<g><path style="opacity:1" fill="#d2e9f1" d="M 1068.5,1394.5 C 1078.21,1404.87 1087.54,1415.54 1096.5,1426.5C 1096.27,1428.06 1095.6,1429.4 1094.5,1430.5C 1062.7,1469.31 1028.03,1505.64 990.5,1539.5C 981.914,1527.57 972.914,1515.91 963.5,1504.5C 999.975,1470.86 1033.81,1434.86 1065,1396.5C 1065.82,1395.18 1066.98,1394.51 1068.5,1394.5 Z"/></g>
<g><path style="opacity:1" fill="#bad9e5" d="M 2037.5,1390.5 C 2042.81,1466.92 2040.47,1543.25 2030.5,1619.5C 1889.54,1624.36 1748.54,1625.69 1607.5,1623.5C 1618.5,1548.82 1621.5,1473.82 1616.5,1398.5C 1756.85,1401.4 1897.18,1400.73 2037.5,1396.5C 2037.5,1394.5 2037.5,1392.5 2037.5,1390.5 Z"/></g>
<g><path style="opacity:1" fill="#b9d8e4" d="M 1096.5,1426.5 C 1100.75,1432.6 1105.25,1438.6 1110,1444.5C 1153,1509.96 1181.83,1581.3 1196.5,1658.5C 1149.13,1678.04 1100.13,1692.04 1049.5,1700.5C 1040.51,1647.86 1023.18,1598.2 997.5,1551.5C 1012.03,1537.47 1026.53,1523.14 1041,1508.5C 1061.89,1484.61 1080.06,1458.77 1095.5,1431C 1095.27,1430.6 1094.94,1430.43 1094.5,1430.5C 1095.6,1429.4 1096.27,1428.06 1096.5,1426.5 Z"/></g>
<g><path style="opacity:1" fill="#d2e9f1" d="M 536.5,1429.5 C 539.233,1432.24 542.233,1434.57 545.5,1436.5C 573.389,1461.1 602.722,1483.77 633.5,1504.5C 624.387,1515.95 616.054,1527.95 608.5,1540.5C 575.783,1518.63 544.617,1494.63 515,1468.5C 514.517,1467.55 514.351,1466.55 514.5,1465.5C 520.818,1452.86 528.152,1440.86 536.5,1429.5 Z"/></g>
<g><path style="opacity:1" fill="#57868c" d="M 776.5,1434.5 C 791.184,1434.32 805.851,1434.65 820.5,1435.5C 823.833,1435.83 827.167,1436.17 830.5,1436.5C 880.576,1443.54 923.242,1464.87 958.5,1500.5C 883.32,1497.83 827.154,1528.83 790,1593.5C 768.941,1633.79 755.274,1676.46 749,1721.5C 740.617,1783.58 738.117,1845.92 741.5,1908.5C 678.167,1908.5 614.833,1908.5 551.5,1908.5C 550.424,1866.84 550.258,1825.17 551,1783.5C 551.989,1764.45 553.489,1745.45 555.5,1726.5C 556.771,1712.06 558.771,1697.73 561.5,1683.5C 562.008,1679.8 562.674,1676.14 563.5,1672.5C 571.333,1626 586.333,1582 608.5,1540.5C 616.054,1527.95 624.387,1515.95 633.5,1504.5C 636.471,1501.19 639.471,1497.86 642.5,1494.5C 679.233,1457.14 723.9,1437.14 776.5,1434.5 Z"/></g>
<g><path style="opacity:1" fill="#add1db" d="M 1094.5,1430.5 C 1094.94,1430.43 1095.27,1430.6 1095.5,1431C 1080.06,1458.77 1061.89,1484.61 1041,1508.5C 1026.53,1523.14 1012.03,1537.47 997.5,1551.5C 994.665,1547.84 992.332,1543.84 990.5,1539.5C 1028.03,1505.64 1062.7,1469.31 1094.5,1430.5 Z"/></g>
<g><path style="opacity:1" fill="#add1db" d="M 545.5,1436.5 C 564.104,1449.14 583.104,1461.31 602.5,1473C 615.728,1480.45 629.061,1487.61 642.5,1494.5C 639.471,1497.86 636.471,1501.19 633.5,1504.5C 602.722,1483.77 573.389,1461.1 545.5,1436.5 Z"/></g>
<g><path style="opacity:0.997" fill="#b9d8e4" d="M 514.5,1465.5 C 514.351,1466.55 514.517,1467.55 515,1468.5C 544.617,1494.63 575.783,1518.63 608.5,1540.5C 586.333,1582 571.333,1626 563.5,1672.5C 529.523,1668.14 496.023,1661.48 463,1652.5C 462.235,1652.57 461.735,1652.9 461.5,1653.5C 458.579,1652.3 455.579,1651.3 452.5,1650.5C 462.814,1585.23 483.48,1523.56 514.5,1465.5 Z"/></g>
<g><path style="opacity:1" fill="#303030" d="M 958.5,1500.5 C 960.167,1501.83 961.833,1503.17 963.5,1504.5C 972.914,1515.91 981.914,1527.57 990.5,1539.5C 992.332,1543.84 994.665,1547.84 997.5,1551.5C 1023.18,1598.2 1040.51,1647.86 1049.5,1700.5C 1051.89,1715.11 1053.89,1729.78 1055.5,1744.5C 1056.49,1749.08 1057.16,1753.75 1057.5,1758.5C 1062.16,1808.38 1064.16,1858.38 1063.5,1908.5C 956.167,1909.83 848.833,1909.83 741.5,1908.5C 738.117,1845.92 740.617,1783.58 749,1721.5C 755.274,1676.46 768.941,1633.79 790,1593.5C 827.154,1528.83 883.32,1497.83 958.5,1500.5 Z"/></g>
<g><path style="opacity:1" fill="#add1db" d="M 2610.5,1621.5 C 2615.19,1666.99 2617.86,1712.66 2618.5,1758.5C 2620.06,1808.86 2619.4,1859.19 2616.5,1909.5C 2613.76,1909.4 2611.1,1909.73 2608.5,1910.5C 2093.5,1909.83 1578.5,1909.17 1063.5,1908.5C 1114.5,1908.5 1165.5,1908.5 1216.5,1908.5C 1216.19,1905.29 1216.52,1902.29 1217.5,1899.5C 1217.5,1902.5 1217.5,1905.5 1217.5,1908.5C 1324.5,1908.5 1431.5,1908.5 1538.5,1908.5C 1626.75,1909.08 1714.91,1906.74 1803,1901.5C 1806.35,1901.5 1809.52,1901.84 1812.5,1902.5C 1812.5,1904.5 1812.5,1906.5 1812.5,1908.5C 1827.17,1908.5 1841.83,1908.5 1856.5,1908.5C 1856.94,1904.85 1857.28,1901.18 1857.5,1897.5C 1936.69,1891.02 2014.69,1877.52 2091.5,1857C 2153.13,1840.26 2210.13,1813.92 2262.5,1778C 2268.29,1773.88 2273.79,1769.38 2279,1764.5C 2279.5,1768.49 2279.67,1772.49 2279.5,1776.5C 2278.94,1796.86 2277.78,1817.2 2276,1837.5C 2273.74,1861.26 2270.91,1884.92 2267.5,1908.5C 2282.17,1908.5 2296.83,1908.5 2311.5,1908.5C 2320.75,1845.54 2325.08,1782.21 2324.5,1718.5C 2339.7,1701.13 2352.7,1682.13 2363.5,1661.5C 2349.98,1661.94 2336.31,1662.94 2322.5,1664.5C 2321.76,1659.81 2321.09,1654.98 2320.5,1650C 2320.64,1649.23 2320.98,1648.56 2321.5,1648C 2418.09,1641.65 2514.42,1632.82 2610.5,1621.5 Z"/></g>
<g><path style="opacity:1" fill="#d2e9f1" d="M 452.5,1650.5 C 455.579,1651.3 458.579,1652.3 461.5,1653.5C 493.93,1666.53 527.263,1676.53 561.5,1683.5C 558.771,1697.73 556.771,1712.06 555.5,1726.5C 517.765,1719.7 481.099,1709.04 445.5,1694.5C 447.279,1679.71 449.612,1665.04 452.5,1650.5 Z"/></g>
<g><path style="opacity:1" fill="#add1db" d="M 2277.5,1662.5 C 2277.5,1664.17 2277.5,1665.83 2277.5,1667.5C 2139.34,1676.76 2001,1681.43 1862.5,1681.5C 1861.36,1677.04 1860.69,1672.37 1860.5,1667.5C 1999.63,1665.53 2138.63,1660.19 2277.5,1651.5C 2277.5,1655.17 2277.5,1658.83 2277.5,1662.5 Z"/></g>
<g><path style="opacity:1" fill="#aed1db" d="M 461.5,1653.5 C 461.735,1652.9 462.235,1652.57 463,1652.5C 496.023,1661.48 529.523,1668.14 563.5,1672.5C 562.674,1676.14 562.008,1679.8 561.5,1683.5C 527.263,1676.53 493.93,1666.53 461.5,1653.5 Z"/></g>
<g><path style="opacity:1" fill="#d2e9f1" d="M 1196.5,1658.5 C 1200.23,1672.18 1202.89,1686.18 1204.5,1700.5C 1204.5,1701.5 1204.5,1702.5 1204.5,1703.5C 1203.21,1703.26 1202.21,1703.6 1201.5,1704.5C 1154.06,1722.19 1105.39,1735.53 1055.5,1744.5C 1053.89,1729.78 1051.89,1715.11 1049.5,1700.5C 1100.13,1692.04 1149.13,1678.04 1196.5,1658.5 Z"/></g>
<g><path style="opacity:1" fill="#b9d9e4" d="M 2324.5,1718.5 C 2323.43,1700.52 2322.77,1682.52 2322.5,1664.5C 2336.31,1662.94 2349.98,1661.94 2363.5,1661.5C 2352.7,1682.13 2339.7,1701.13 2324.5,1718.5 Z"/></g>
<g><path style="opacity:1" fill="#add1db" d="M 1518.5,1665.5 C 1617.82,1667.28 1717.16,1667.94 1816.5,1667.5C 1817.16,1671.47 1817.5,1675.47 1817.5,1679.5C 1723.99,1681.88 1630.16,1681.54 1536,1678.5C 1530.78,1678.51 1525.95,1679.17 1521.5,1680.5C 1520.14,1675.7 1519.14,1670.7 1518.5,1665.5 Z"/></g>
<g><path style="opacity:1" fill="#bad9e4" d="M 2277.5,1662.5 C 2278.77,1673.31 2279.6,1684.31 2280,1695.5C 2280.83,1722.67 2280.66,1749.67 2279.5,1776.5C 2279.67,1772.49 2279.5,1768.49 2279,1764.5C 2273.79,1769.38 2268.29,1773.88 2262.5,1778C 2210.13,1813.92 2153.13,1840.26 2091.5,1857C 2014.69,1877.52 1936.69,1891.02 1857.5,1897.5C 1866.08,1825.68 1867.75,1753.68 1862.5,1681.5C 2001,1681.43 2139.34,1676.76 2277.5,1667.5C 2277.5,1665.83 2277.5,1664.17 2277.5,1662.5 Z"/></g>
<g><path style="opacity:1" fill="#b9d8e4" d="M 1817.5,1679.5 C 1824,1754 1822.33,1828.34 1812.5,1902.5C 1809.52,1901.84 1806.35,1901.5 1803,1901.5C 1714.91,1906.74 1626.75,1909.08 1538.5,1908.5C 1541.85,1831.77 1536.19,1755.77 1521.5,1680.5C 1525.95,1679.17 1530.78,1678.51 1536,1678.5C 1630.16,1681.54 1723.99,1681.88 1817.5,1679.5 Z"/></g>
<g><path style="opacity:0.998" fill="#b9d8e4" d="M 445.5,1694.5 C 481.099,1709.04 517.765,1719.7 555.5,1726.5C 553.489,1745.45 551.989,1764.45 551,1783.5C 550.258,1825.17 550.424,1866.84 551.5,1908.5C 514.33,1908.17 477.33,1908.5 440.5,1909.5C 438.873,1899.72 438.04,1889.72 438,1879.5C 437.5,1853.17 437.333,1826.84 437.5,1800.5C 438.083,1765 440.75,1729.67 445.5,1694.5 Z"/></g>
<g><path style="opacity:1" fill="#b9d8e4" d="M 1204.5,1700.5 C 1215.09,1766.27 1219.42,1832.6 1217.5,1899.5C 1216.52,1902.29 1216.19,1905.29 1216.5,1908.5C 1165.5,1908.5 1114.5,1908.5 1063.5,1908.5C 1064.16,1858.38 1062.16,1808.38 1057.5,1758.5C 1105.63,1750.51 1150.96,1734.68 1193.5,1711C 1196.42,1709.05 1199.09,1706.89 1201.5,1704.5C 1202.21,1703.6 1203.21,1703.26 1204.5,1703.5C 1204.5,1702.5 1204.5,1701.5 1204.5,1700.5 Z"/></g>
<g><path style="opacity:1" fill="#add1db" d="M 1201.5,1704.5 C 1199.09,1706.89 1196.42,1709.05 1193.5,1711C 1150.96,1734.68 1105.63,1750.51 1057.5,1758.5C 1057.16,1753.75 1056.49,1749.08 1055.5,1744.5C 1105.39,1735.53 1154.06,1722.19 1201.5,1704.5 Z"/></g>
<g><path style="opacity:1" fill="#d2e9f1" d="M 2618.5,1758.5 C 2660.2,1762.67 2701.2,1770.51 2741.5,1782C 2769.29,1789.56 2794.62,1801.89 2817.5,1819C 2828.92,1828.23 2836.92,1839.73 2841.5,1853.5C 2845.68,1872.75 2842.51,1890.75 2832,1907.5C 2816.92,1929.92 2798.42,1949.08 2776.5,1965C 2719.55,2003.56 2657.89,2032.56 2591.5,2052C 2510.8,2071.51 2433.8,2100.84 2360.5,2140C 2305.63,2171.27 2249.96,2201.27 2193.5,2230C 2145.39,2253.03 2094.72,2266.36 2041.5,2270C 1992.06,2271.84 1943.73,2265.51 1896.5,2251C 1861.83,2239 1827.17,2227 1792.5,2215C 1737.58,2198.9 1681.91,2185.9 1625.5,2176C 1568.07,2166.56 1510.4,2158.89 1452.5,2153C 1401.17,2148.56 1349.84,2144.22 1298.5,2140C 1171.84,2132.42 1045.17,2124.75 918.5,2117C 792.253,2108.52 666.253,2097.19 540.5,2083C 487.819,2077.38 435.819,2068.05 384.5,2055C 359.685,2048.17 335.685,2039.17 312.5,2028C 295.966,2019.47 281.799,2007.97 270,1993.5C 260.094,1977.63 257.761,1960.63 263,1942.5C 266.826,1932.84 271.66,1923.84 277.5,1915.5C 285.177,1904.31 294.177,1894.15 304.5,1885C 344.829,1850.82 389.163,1822.65 437.5,1800.5C 437.333,1826.84 437.5,1853.17 438,1879.5C 438.04,1889.72 438.873,1899.72 440.5,1909.5C 562.135,1927.78 684.469,1938.28 807.5,1941C 869.827,1942.46 932.16,1942.79 994.5,1942C 1116.51,1938.88 1238.51,1935.55 1360.5,1932C 1417.83,1931.33 1475.17,1931.33 1532.5,1932C 1563.53,1932.67 1594.53,1934 1625.5,1936C 1787.15,1951.09 1949.15,1957.76 2111.5,1956C 2278.31,1952.89 2443.98,1937.72 2608.5,1910.5C 2611.1,1909.73 2613.76,1909.4 2616.5,1909.5C 2619.4,1859.19 2620.06,1808.86 2618.5,1758.5 Z"/></g>
<g><path style="opacity:0.992" fill="#9fc9d6" d="M 2841.5,1853.5 C 2844.72,1858.3 2846.89,1863.64 2848,1869.5C 2851.98,1888.32 2850.31,1906.65 2843,1924.5C 2835.1,1943.32 2824.43,1960.32 2811,1975.5C 2782.97,2005.88 2751.14,2031.38 2715.5,2052C 2671.47,2077.18 2625.14,2097.18 2576.5,2112C 2502.15,2130.68 2431.15,2158.01 2363.5,2194C 2307.96,2225.61 2251.63,2255.94 2194.5,2285C 2139.69,2311.33 2081.85,2325.16 2021,2326.5C 1975.74,2325.42 1931.58,2317.92 1888.5,2304C 1780,2262.21 1668,2234.21 1552.5,2220C 1488.68,2211.65 1424.68,2204.99 1360.5,2200C 1209.21,2189.67 1057.88,2180 906.5,2171C 775.523,2162.37 644.856,2150.37 514.5,2135C 465.738,2128.58 417.738,2118.58 370.5,2105C 334.321,2094.74 301.321,2078.41 271.5,2056C 236.077,2024.54 229.91,1988.04 253,1946.5C 259.741,1935.01 267.908,1924.67 277.5,1915.5C 271.66,1923.84 266.826,1932.84 263,1942.5C 257.761,1960.63 260.094,1977.63 270,1993.5C 281.799,2007.97 295.966,2019.47 312.5,2028C 335.685,2039.17 359.685,2048.17 384.5,2055C 435.819,2068.05 487.819,2077.38 540.5,2083C 666.253,2097.19 792.253,2108.52 918.5,2117C 1045.17,2124.75 1171.84,2132.42 1298.5,2140C 1349.84,2144.22 1401.17,2148.56 1452.5,2153C 1510.4,2158.89 1568.07,2166.56 1625.5,2176C 1681.91,2185.9 1737.58,2198.9 1792.5,2215C 1827.17,2227 1861.83,2239 1896.5,2251C 1943.73,2265.51 1992.06,2271.84 2041.5,2270C 2094.72,2266.36 2145.39,2253.03 2193.5,2230C 2249.96,2201.27 2305.63,2171.27 2360.5,2140C 2433.8,2100.84 2510.8,2071.51 2591.5,2052C 2657.89,2032.56 2719.55,2003.56 2776.5,1965C 2798.42,1949.08 2816.92,1929.92 2832,1907.5C 2842.51,1890.75 2845.68,1872.75 2841.5,1853.5 Z"/></g>
<g><path style="opacity:1" fill="#9fc9d6" d="M 440.5,1909.5 C 477.33,1908.5 514.33,1908.17 551.5,1908.5C 614.833,1908.5 678.167,1908.5 741.5,1908.5C 848.833,1909.83 956.167,1909.83 1063.5,1908.5C 1578.5,1909.17 2093.5,1909.83 2608.5,1910.5C 2443.98,1937.72 2278.31,1952.89 2111.5,1956C 1949.15,1957.76 1787.15,1951.09 1625.5,1936C 1594.53,1934 1563.53,1932.67 1532.5,1932C 1475.17,1931.33 1417.83,1931.33 1360.5,1932C 1238.51,1935.55 1116.51,1938.88 994.5,1942C 932.16,1942.79 869.827,1942.46 807.5,1941C 684.469,1938.28 562.135,1927.78 440.5,1909.5 Z"/></g>
</svg>
