<?xml version="1.0" encoding="UTF-8"?>
<!DOCTYPE svg PUBLIC "-//W3C//DTD SVG 1.1//EN" "http://www.w3.org/Graphics/SVG/1.1/DTD/svg11.dtd">
<svg xmlns="http://www.w3.org/2000/svg" version="1.1" width="3000px" height="3000px" style="shape-rendering:geometricPrecision; text-rendering:geometricPrecision; image-rendering:optimizeQuality; fill-rule:evenodd; clip-rule:evenodd" xmlns:xlink="http://www.w3.org/1999/xlink">
<g><path style="opacity:0.984" fill="#ce2133" d="M 2090.5,900.5 C 2090.59,901.496 2090.25,902.329 2089.5,903C 2086.47,904.183 2083.47,905.349 2080.5,906.5C 2070,907.647 2061,911.647 2053.5,918.5C 2046.79,922.242 2040.12,925.908 2033.5,929.5C 2028.95,927.131 2024.78,924.131 2021,920.5C 2014.69,911.359 2007.19,903.359 1998.5,896.5C 1993.66,887.488 1987.49,879.488 1980,872.5C 1972.27,857.984 1964.44,843.651 1956.5,829.5C 1951.65,817.36 1946.82,805.36 1942,793.5C 1940.24,791.738 1938.4,791.072 1936.5,791.5C 1935.05,780.864 1933.72,770.197 1932.5,759.5C 1932.72,752.714 1933.72,746.048 1935.5,739.5C 1941.52,727.162 1950.86,723.829 1963.5,729.5C 1972,736.988 1977,746.321 1978.5,757.5C 1979.5,757.5 1980.5,757.5 1981.5,757.5C 1983.51,763.512 1985.51,769.512 1987.5,775.5C 1988.5,775.5 1989.5,775.5 1990.5,775.5C 1991.71,781.43 1994.21,786.763 1998,791.5C 1998.49,792.793 1998.66,794.127 1998.5,795.5C 1999.5,795.5 2000.5,795.5 2001.5,795.5C 2002.13,798.582 2003.13,801.582 2004.5,804.5C 2008.57,809.619 2012.4,814.952 2016,820.5C 2016.49,821.793 2016.66,823.127 2016.5,824.5C 2018.59,824.561 2020.09,825.561 2021,827.5C 2022.3,830.529 2024.13,833.196 2026.5,835.5C 2027.43,836.689 2027.76,838.022 2027.5,839.5C 2028.5,839.5 2029.5,839.5 2030.5,839.5C 2030.28,840.675 2030.61,841.675 2031.5,842.5C 2042.5,854.167 2053.83,865.5 2065.5,876.5C 2066.32,877.386 2067.32,877.719 2068.5,877.5C 2070.17,881.833 2073.17,884.833 2077.5,886.5C 2077.5,887.5 2077.5,888.5 2077.5,889.5C 2078.98,889.238 2080.31,889.571 2081.5,890.5C 2083.21,892.543 2085.21,894.21 2087.5,895.5C 2089.32,896.728 2090.32,898.394 2090.5,900.5 Z"/></g>
<g><path style="opacity:0.993" fill="#ce2233" d="M 1813.5,828.5 C 1813.58,831.206 1813.91,833.873 1814.5,836.5C 1815.5,836.5 1816.5,836.5 1817.5,836.5C 1817.8,839.522 1818.3,842.522 1819,845.5C 1827.16,860.029 1835.83,874.363 1845,888.5C 1859.36,906.189 1874.36,923.189 1890,939.5C 1894.54,947.868 1900.37,955.202 1907.5,961.5C 1911.46,968.76 1916.79,974.76 1923.5,979.5C 1925.5,983.504 1928,987.17 1931,990.5C 1935.48,994.835 1939.48,999.501 1943,1004.5C 1944.11,1005.31 1945.28,1005.97 1946.5,1006.5C 1942.48,1011.52 1938.48,1016.52 1934.5,1021.5C 1929.26,1026.87 1923.76,1032.21 1918,1037.5C 1917.54,1038.09 1917.37,1038.76 1917.5,1039.5C 1914.52,1042.14 1911.52,1044.81 1908.5,1047.5C 1905.95,1047.56 1903.95,1046.56 1902.5,1044.5C 1896.94,1038.54 1892.27,1031.88 1888.5,1024.5C 1880.06,1017.89 1873.23,1009.89 1868,1000.5C 1863.04,994.865 1858.04,989.199 1853,983.5C 1851.54,981.028 1850.54,978.361 1850,975.5C 1834.12,955.331 1819.45,934.664 1806,913.5C 1800.55,909.152 1796.88,903.485 1795,896.5C 1788.29,886.803 1781.62,877.136 1775,867.5C 1774.08,860.999 1771.08,855.665 1766,851.5C 1764.37,844.356 1761.54,837.689 1757.5,831.5C 1756.38,830.37 1755.04,829.703 1753.5,829.5C 1752.12,826.342 1751.46,823.009 1751.5,819.5C 1750.5,819.5 1749.5,819.5 1748.5,819.5C 1747.95,813.979 1746.78,808.646 1745,803.5C 1743.74,792.821 1744.91,782.488 1748.5,772.5C 1762.26,763.253 1774.6,764.92 1785.5,777.5C 1786.8,779.758 1787.8,782.092 1788.5,784.5C 1790.59,784.561 1792.09,785.561 1793,787.5C 1795.03,791.332 1796.53,795.332 1797.5,799.5C 1798.5,799.5 1799.5,799.5 1800.5,799.5C 1804.62,809.391 1808.95,819.057 1813.5,828.5 Z"/></g>
<g><path style="opacity:0.999" fill="#af2338" d="M 2033.5,929.5 C 2030.5,931.833 2027.5,934.167 2024.5,936.5C 2019.91,938.426 2016.25,941.426 2013.5,945.5C 2003.52,951.994 1994.52,959.66 1986.5,968.5C 1977.86,975.472 1969.86,983.138 1962.5,991.5C 1958.44,995.22 1954.78,999.22 1951.5,1003.5C 1949.59,1004.08 1947.92,1005.08 1946.5,1006.5C 1945.28,1005.97 1944.11,1005.31 1943,1004.5C 1939.48,999.501 1935.48,994.835 1931,990.5C 1928,987.17 1925.5,983.504 1923.5,979.5C 1916.79,974.76 1911.46,968.76 1907.5,961.5C 1900.37,955.202 1894.54,947.868 1890,939.5C 1874.36,923.189 1859.36,906.189 1845,888.5C 1835.83,874.363 1827.16,860.029 1819,845.5C 1818.3,842.522 1817.8,839.522 1817.5,836.5C 1816.5,836.5 1815.5,836.5 1814.5,836.5C 1813.91,833.873 1813.58,831.206 1813.5,828.5C 1822.32,830.051 1831.32,830.718 1840.5,830.5C 1847.17,830.167 1853.83,829.833 1860.5,829.5C 1871.84,827.501 1883.17,825.168 1894.5,822.5C 1894.5,821.5 1894.5,820.5 1894.5,819.5C 1898.15,818.599 1901.82,817.599 1905.5,816.5C 1910.58,812.547 1915.91,808.88 1921.5,805.5C 1922.69,804.571 1924.02,804.238 1925.5,804.5C 1925.28,803.325 1925.61,802.325 1926.5,801.5C 1930.45,798.665 1933.78,795.332 1936.5,791.5C 1938.4,791.072 1940.24,791.738 1942,793.5C 1946.82,805.36 1951.65,817.36 1956.5,829.5C 1964.44,843.651 1972.27,857.984 1980,872.5C 1987.49,879.488 1993.66,887.488 1998.5,896.5C 2007.19,903.359 2014.69,911.359 2021,920.5C 2024.78,924.131 2028.95,927.131 2033.5,929.5 Z"/></g>
<g><path style="opacity:0.992" fill="#ce2233" d="M 1605.5,864.5 C 1605.47,870.825 1607.97,875.825 1613,879.5C 1615.52,884.279 1618.19,888.946 1621,893.5C 1622.11,895.037 1623.61,895.703 1625.5,895.5C 1625.2,898.724 1625.87,901.724 1627.5,904.5C 1637.74,916.722 1646.74,929.722 1654.5,943.5C 1658.54,947.375 1662.04,951.708 1665,956.5C 1668.04,959.176 1671.04,961.843 1674,964.5C 1677.85,970.701 1682.52,976.368 1688,981.5C 1692.04,986.054 1695.54,991.054 1698.5,996.5C 1700.19,997.228 1701.69,998.228 1703,999.5C 1708.01,1005.01 1712.84,1010.67 1717.5,1016.5C 1710.68,1014.9 1703.68,1013.9 1696.5,1013.5C 1691.51,1012.75 1686.51,1012.09 1681.5,1011.5C 1669.15,1007.92 1656.48,1005.25 1643.5,1003.5C 1642.57,1002.69 1641.57,1001.85 1640.5,1001C 1630.3,1001.49 1623.13,996.986 1619,987.5C 1607.04,974.235 1596.54,959.902 1587.5,944.5C 1586.37,943.738 1585.21,943.071 1584,942.5C 1577.55,929.884 1569.71,918.217 1560.5,907.5C 1556.46,900.554 1553.29,893.221 1551,885.5C 1549.53,884.733 1548.03,884.067 1546.5,883.5C 1545.35,878.899 1543.52,874.566 1541,870.5C 1537.88,854.522 1537.71,838.522 1540.5,822.5C 1541.5,822.5 1542.5,822.5 1543.5,822.5C 1543.67,810.79 1549.51,804.79 1561,804.5C 1567.82,804.001 1573.32,806.334 1577.5,811.5C 1578.43,812.689 1578.76,814.022 1578.5,815.5C 1581.35,816.172 1583.52,817.839 1585,820.5C 1589.38,828.935 1593.55,837.602 1597.5,846.5C 1598.45,848.045 1598.79,849.712 1598.5,851.5C 1599.5,851.5 1600.5,851.5 1601.5,851.5C 1602.83,855.833 1604.17,860.167 1605.5,864.5 Z"/></g>
<g><path style="opacity:0.969" fill="#ce2133" d="M 1391.5,971.5 C 1390.61,972.11 1389.61,972.443 1388.5,972.5C 1369.51,971.534 1350.51,970.867 1331.5,970.5C 1330.83,969.167 1329.83,968.167 1328.5,967.5C 1326.6,963.698 1325.27,959.698 1324.5,955.5C 1322.41,955.439 1320.91,954.439 1320,952.5C 1318.65,948.868 1316.82,945.535 1314.5,942.5C 1313.55,940.955 1313.21,939.288 1313.5,937.5C 1312.5,937.5 1311.5,937.5 1310.5,937.5C 1308.19,933.36 1306.19,929.027 1304.5,924.5C 1303.32,924.719 1302.32,924.386 1301.5,923.5C 1295.93,916.038 1290.6,908.371 1285.5,900.5C 1279.12,893.788 1273.12,886.788 1267.5,879.5C 1256.71,870.355 1245.71,861.688 1234.5,853.5C 1232.91,850.547 1231.24,847.547 1229.5,844.5C 1228.17,838.5 1228.17,832.5 1229.5,826.5C 1230.41,824.336 1231.58,822.336 1233,820.5C 1237.8,818.697 1242.8,817.697 1248,817.5C 1253.36,817.446 1258.53,818.112 1263.5,819.5C 1263.5,820.5 1263.5,821.5 1263.5,822.5C 1265.92,822.192 1268.26,822.526 1270.5,823.5C 1282.86,829.735 1293.86,837.735 1303.5,847.5C 1304.32,848.386 1305.32,848.719 1306.5,848.5C 1306.28,849.675 1306.61,850.675 1307.5,851.5C 1314.17,858.833 1320.83,866.167 1327.5,873.5C 1328.8,875.758 1329.8,878.092 1330.5,880.5C 1332.59,880.561 1334.09,881.561 1335,883.5C 1336.3,886.529 1338.13,889.196 1340.5,891.5C 1341.43,892.689 1341.76,894.022 1341.5,895.5C 1343.59,895.561 1345.09,896.561 1346,898.5C 1348.24,901.895 1349.74,905.561 1350.5,909.5C 1352.14,909.48 1353.48,910.147 1354.5,911.5C 1356.72,914.981 1358.39,918.648 1359.5,922.5C 1360.68,922.281 1361.68,922.614 1362.5,923.5C 1365.75,929.002 1369.25,934.336 1373,939.5C 1376.68,946.866 1380.84,953.866 1385.5,960.5C 1387.04,963.356 1388.04,966.356 1388.5,969.5C 1390.18,969.285 1391.18,969.952 1391.5,971.5 Z"/></g>
<g><path style="opacity:0.999" fill="#af2338" d="M 1753.5,829.5 C 1755.04,829.703 1756.38,830.37 1757.5,831.5C 1761.54,837.689 1764.37,844.356 1766,851.5C 1771.08,855.665 1774.08,860.999 1775,867.5C 1781.62,877.136 1788.29,886.803 1795,896.5C 1796.88,903.485 1800.55,909.152 1806,913.5C 1819.45,934.664 1834.12,955.331 1850,975.5C 1850.54,978.361 1851.54,981.028 1853,983.5C 1858.04,989.199 1863.04,994.865 1868,1000.5C 1873.23,1009.89 1880.06,1017.89 1888.5,1024.5C 1892.27,1031.88 1896.94,1038.54 1902.5,1044.5C 1903.95,1046.56 1905.95,1047.56 1908.5,1047.5C 1904.97,1051.2 1901.63,1055.03 1898.5,1059C 1896.83,1059.67 1895.17,1059.67 1893.5,1059C 1889.62,1057.52 1885.62,1056.35 1881.5,1055.5C 1879.45,1055.6 1877.78,1054.93 1876.5,1053.5C 1874.62,1052.79 1872.96,1051.63 1871.5,1050C 1858.05,1046.72 1844.38,1044.22 1830.5,1042.5C 1829.21,1042.74 1828.21,1042.4 1827.5,1041.5C 1827.08,1040.78 1826.42,1040.28 1825.5,1040C 1819.99,1039.63 1814.66,1038.8 1809.5,1037.5C 1808.83,1037.5 1808.17,1037.5 1807.5,1037.5C 1806.94,1036.21 1805.94,1035.38 1804.5,1035C 1795.25,1032.68 1785.92,1031.01 1776.5,1030C 1774.22,1028.1 1771.56,1026.94 1768.5,1026.5C 1753.65,1024.47 1738.98,1021.97 1724.5,1019C 1722.56,1017.1 1720.23,1016.26 1717.5,1016.5C 1712.84,1010.67 1708.01,1005.01 1703,999.5C 1701.69,998.228 1700.19,997.228 1698.5,996.5C 1695.54,991.054 1692.04,986.054 1688,981.5C 1682.52,976.368 1677.85,970.701 1674,964.5C 1671.04,961.843 1668.04,959.176 1665,956.5C 1662.04,951.708 1658.54,947.375 1654.5,943.5C 1646.74,929.722 1637.74,916.722 1627.5,904.5C 1625.87,901.724 1625.2,898.724 1625.5,895.5C 1623.61,895.703 1622.11,895.037 1621,893.5C 1618.19,888.946 1615.52,884.279 1613,879.5C 1607.97,875.825 1605.47,870.825 1605.5,864.5C 1622.94,871.462 1641.27,875.129 1660.5,875.5C 1672.95,875.113 1685.29,873.78 1697.5,871.5C 1697.5,870.5 1697.5,869.5 1697.5,868.5C 1704.29,866.902 1710.96,864.902 1717.5,862.5C 1717.56,860.408 1718.56,858.908 1720.5,858C 1724.56,855.303 1728.89,853.137 1733.5,851.5C 1735.51,847.167 1738.84,844.167 1743.5,842.5C 1745.09,840.316 1746.43,837.982 1747.5,835.5C 1750.05,833.99 1752.05,831.99 1753.5,829.5 Z"/></g>
<g><path style="opacity:0.975" fill="#ce2133" d="M 1158.5,969.5 C 1158.5,971.5 1157.5,972.5 1155.5,972.5C 1132.09,973.618 1108.76,975.618 1085.5,978.5C 1084.5,978.5 1083.5,978.5 1082.5,978.5C 1082.72,977.325 1082.39,976.325 1081.5,975.5C 1075.5,970.833 1070.17,965.5 1065.5,959.5C 1064.68,958.614 1063.68,958.281 1062.5,958.5C 1062.52,956.857 1061.85,955.524 1060.5,954.5C 1058.34,953.586 1056.34,952.419 1054.5,951C 1049.3,945.305 1043.97,939.805 1038.5,934.5C 1033.66,932.997 1029.99,929.997 1027.5,925.5C 1023.71,923.859 1020.04,922.026 1016.5,920C 1012.16,915.362 1006.83,912.529 1000.5,911.5C 1000.5,910.5 1000.5,909.5 1000.5,908.5C 992.167,905.833 983.833,903.167 975.5,900.5C 975.5,899.5 975.5,898.5 975.5,897.5C 971.932,896.63 968.599,895.13 965.5,893C 964.491,889.653 962.657,886.819 960,884.5C 959.333,880.833 959.333,877.167 960,873.5C 962.445,870.925 963.945,867.925 964.5,864.5C 966.929,864.116 969.263,863.449 971.5,862.5C 971.5,861.5 971.5,860.5 971.5,859.5C 984.435,856.704 997.435,856.87 1010.5,860C 1011.78,861.646 1013.45,862.813 1015.5,863.5C 1022.29,864.894 1028.29,867.894 1033.5,872.5C 1037.77,874.473 1042.1,876.14 1046.5,877.5C 1046.5,878.5 1046.5,879.5 1046.5,880.5C 1051,881.411 1055.33,882.911 1059.5,885C 1061.44,885.908 1062.44,887.408 1062.5,889.5C 1064.29,889.215 1065.95,889.548 1067.5,890.5C 1070.73,892.573 1074.06,894.406 1077.5,896C 1079.44,896.908 1080.44,898.408 1080.5,900.5C 1084.07,901.37 1087.4,902.87 1090.5,905C 1092.44,905.908 1093.44,907.408 1093.5,909.5C 1095.91,910.201 1098.24,911.201 1100.5,912.5C 1111.45,920.778 1121.45,930.111 1130.5,940.5C 1131.43,941.689 1131.76,943.022 1131.5,944.5C 1132.5,944.5 1133.5,944.5 1134.5,944.5C 1137.72,949.727 1141.72,954.393 1146.5,958.5C 1147.43,959.689 1147.76,961.022 1147.5,962.5C 1148.98,962.238 1150.31,962.571 1151.5,963.5C 1153.55,965.891 1155.89,967.891 1158.5,969.5 Z"/></g>
<g><path style="opacity:0.998" fill="#9dc03a" d="M 2682.5,1285.5 C 2680.8,1285.34 2679.13,1285.51 2677.5,1286C 2661.6,1300.4 2645.94,1314.9 2630.5,1329.5C 2629.28,1332.89 2626.95,1335.05 2623.5,1336C 2620.12,1339.38 2617.12,1343.04 2614.5,1347C 2612.4,1348.77 2610.07,1350.1 2607.5,1351C 2600.75,1357.45 2593.75,1363.62 2586.5,1369.5C 2575.72,1376.74 2565.05,1384.24 2554.5,1392C 2541.06,1398.69 2527.73,1405.35 2514.5,1412C 2462.18,1431.79 2407.84,1439.13 2351.5,1434C 2342.54,1432.9 2333.54,1432.24 2324.5,1432C 2305.36,1428.03 2286.03,1425.37 2266.5,1424C 2254.18,1419.37 2241.51,1415.87 2228.5,1413.5C 2226.54,1403.06 2224.04,1392.73 2221,1382.5C 2216.32,1372.62 2212.16,1362.62 2208.5,1352.5C 2207.5,1352.5 2206.5,1352.5 2205.5,1352.5C 2204.86,1347.9 2203.03,1343.9 2200,1340.5C 2199,1338.17 2198,1335.83 2197,1333.5C 2192.23,1329.23 2188.73,1324.23 2186.5,1318.5C 2182.65,1317.65 2180.15,1315.32 2179,1311.5C 2157.64,1290.09 2133.14,1273.59 2105.5,1262C 2101.01,1258.03 2095.67,1256.2 2089.5,1256.5C 2081.44,1252.81 2072.77,1250.31 2063.5,1249C 2041.84,1247.08 2020.17,1247.08 1998.5,1249C 1997.75,1249.67 1997.41,1250.5 1997.5,1251.5C 1991.57,1252.64 1985.57,1253.47 1979.5,1254C 1964.84,1259.4 1950.17,1265.06 1935.5,1271C 1932.17,1274 1928.83,1277 1925.5,1280C 1922.9,1281.14 1920.23,1281.97 1917.5,1282.5C 1917.32,1284.61 1916.32,1286.27 1914.5,1287.5C 1879.5,1313.54 1855.33,1347.21 1842,1388.5C 1840.95,1394.33 1839.79,1400 1838.5,1405.5C 1837.88,1405.61 1837.38,1405.94 1837,1406.5C 1834.86,1427.38 1833.86,1448.38 1834,1469.5C 1825.85,1475.5 1817.35,1480.83 1808.5,1485.5C 1808.72,1486.68 1808.39,1487.68 1807.5,1488.5C 1800.25,1492.5 1793.58,1497.33 1787.5,1503C 1782.04,1505.92 1776.37,1508.42 1770.5,1510.5C 1769.61,1511.32 1769.28,1512.32 1769.5,1513.5C 1763.59,1514.49 1757.93,1516.32 1752.5,1519C 1743.9,1521.05 1735.23,1522.72 1726.5,1524C 1725.53,1525.48 1724.2,1526.31 1722.5,1526.5C 1722.5,1525.5 1722.5,1524.5 1722.5,1523.5C 1724.31,1523.51 1725.98,1523.01 1727.5,1522C 1733.13,1517.7 1738.13,1512.7 1742.5,1507C 1743.5,1506.67 1744.5,1506.33 1745.5,1506C 1762.05,1489.82 1778.88,1473.99 1796,1458.5C 1802.91,1451.02 1807.41,1442.35 1809.5,1432.5C 1810.5,1432.5 1811.5,1432.5 1812.5,1432.5C 1812.09,1428.95 1812.59,1425.62 1814,1422.5C 1814.67,1411.5 1814.67,1400.5 1814,1389.5C 1809.87,1368.99 1801.21,1350.65 1788,1334.5C 1770.35,1317.48 1750.85,1303.31 1729.5,1292C 1726.83,1291.33 1724.17,1290.67 1721.5,1290C 1715.25,1285.43 1708.25,1282.43 1700.5,1281C 1688.05,1279.32 1675.55,1277.82 1663,1276.5C 1643.85,1278.19 1625.01,1281.35 1606.5,1286C 1601.13,1288.73 1595.46,1290.73 1589.5,1292C 1561.99,1305.3 1536.66,1322.13 1513.5,1342.5C 1503.14,1354.35 1492.64,1366.02 1482,1377.5C 1480.14,1380.75 1478.47,1384.08 1477,1387.5C 1473.82,1390 1471.15,1393 1469,1396.5C 1464.21,1405.72 1459.71,1415.05 1455.5,1424.5C 1454.5,1424.5 1453.5,1424.5 1452.5,1424.5C 1448.92,1433.36 1445.09,1442.36 1441,1451.5C 1439.62,1460.65 1437.62,1469.65 1435,1478.5C 1433.1,1497.45 1432.27,1516.45 1432.5,1535.5C 1431.5,1535.5 1430.5,1535.5 1429.5,1535.5C 1430.09,1529.37 1429.43,1523.54 1427.5,1518C 1422.17,1517.67 1416.83,1517.33 1411.5,1517C 1403.7,1516.32 1396.04,1514.98 1388.5,1513C 1361.78,1511.36 1335.11,1509.2 1308.5,1506.5C 1308.67,1510.51 1308.5,1514.51 1308,1518.5C 1307.94,1521.85 1307.11,1524.85 1305.5,1527.5C 1307.44,1508.89 1307.94,1490.22 1307,1471.5C 1303.05,1443.97 1295.71,1417.64 1285,1392.5C 1280.21,1386.14 1276.54,1379.14 1274,1371.5C 1239.08,1316.74 1193.91,1272.74 1138.5,1239.5C 1128.51,1235.08 1119.18,1229.75 1110.5,1223.5C 1103.27,1221.41 1096.6,1218.24 1090.5,1214C 1087.55,1212.87 1084.55,1212.04 1081.5,1211.5C 1081.5,1210.5 1081.5,1209.5 1081.5,1208.5C 1079.14,1208.66 1076.81,1208.5 1074.5,1208C 1021.01,1186.78 965.341,1178.78 907.5,1184C 896.145,1186.17 884.812,1188.17 873.5,1190C 831.764,1199.2 795.431,1218.36 764.5,1247.5C 754.745,1258.41 745.578,1269.75 737,1281.5C 733.228,1289.83 728.895,1297.83 724,1305.5C 721.363,1315.59 717.863,1325.25 713.5,1334.5C 705.964,1367.24 704.464,1400.24 709,1433.5C 712.122,1441 714.455,1448.67 716,1456.5C 719.389,1463.2 722.723,1469.87 726,1476.5C 726.978,1482.46 729.311,1487.8 733,1492.5C 737.879,1496.05 741.213,1500.72 743,1506.5C 749.18,1514 754.513,1522 759,1530.5C 765.704,1537.54 772.038,1544.87 778,1552.5C 778.333,1553.5 778.667,1554.5 779,1555.5C 787.194,1563.69 795.36,1571.86 803.5,1580C 806.167,1581.33 808.833,1582.67 811.5,1584C 815.152,1584.5 818.818,1584.67 822.5,1584.5C 821.468,1587.75 820.135,1590.92 818.5,1594C 812.625,1599.2 809.458,1605.7 809,1613.5C 808.899,1625.29 810.066,1636.96 812.5,1648.5C 811.883,1648.39 811.383,1648.06 811,1647.5C 809.447,1640.65 808.28,1633.65 807.5,1626.5C 786.937,1649.44 772.437,1675.77 764,1705.5C 756.841,1718.74 753.674,1732.74 754.5,1747.5C 749.584,1750.69 745.918,1755.03 743.5,1760.5C 742.675,1761.39 741.675,1761.72 740.5,1761.5C 736.935,1769.75 733.602,1778.08 730.5,1786.5C 726.577,1804.49 726.577,1822.49 730.5,1840.5C 732.807,1845.44 734.807,1850.44 736.5,1855.5C 726.13,1858.95 716.13,1862.95 706.5,1867.5C 699.682,1869.3 693.015,1871.63 686.5,1874.5C 684.007,1876.93 681.34,1878.93 678.5,1880.5C 666.13,1886.52 654.797,1894.19 644.5,1903.5C 640.732,1905.42 637.065,1907.59 633.5,1910C 631.314,1911.41 629.648,1913.25 628.5,1915.5C 606.392,1934.94 588.392,1957.6 574.5,1983.5C 571.181,1988.62 568.181,1993.95 565.5,1999.5C 564.579,2001.78 563.913,2004.11 563.5,2006.5C 559.517,2015.36 555.683,2024.36 552,2033.5C 547.897,2046.76 544.063,2060.1 540.5,2073.5C 536.21,2082.89 533.544,2092.89 532.5,2103.5C 530.166,2109.16 528.833,2115.16 528.5,2121.5C 527.022,2121.76 525.689,2121.43 524.5,2120.5C 520.506,2117.17 516.173,2114.33 511.5,2112C 508.464,2107.64 504.464,2104.48 499.5,2102.5C 497.664,2098.66 494.664,2096.33 490.5,2095.5C 482.568,2089.57 475.235,2082.91 468.5,2075.5C 466.336,2074.59 464.336,2073.42 462.5,2072C 448.365,2057.96 434.365,2043.8 420.5,2029.5C 419.571,2028.31 419.238,2026.98 419.5,2025.5C 418.325,2025.72 417.325,2025.39 416.5,2024.5C 413.496,2020.5 410.163,2016.83 406.5,2013.5C 401.962,2007.19 397.296,2001.02 392.5,1995C 391.115,1993.4 390.449,1991.57 390.5,1989.5C 386.935,1988.68 384.935,1986.34 384.5,1982.5C 378.17,1976.18 373.503,1968.85 370.5,1960.5C 369.5,1960.5 368.5,1960.5 367.5,1960.5C 364.95,1955.39 362.95,1950.06 361.5,1944.5C 359.408,1944.44 357.908,1943.44 357,1941.5C 348.767,1925 340.934,1908.33 333.5,1891.5C 332.526,1889.26 332.192,1886.92 332.5,1884.5C 331.5,1884.5 330.5,1884.5 329.5,1884.5C 323.142,1865.43 317.309,1846.09 312,1826.5C 310.256,1816.16 308.422,1805.82 306.5,1795.5C 305.505,1790.21 305.172,1784.87 305.5,1779.5C 304.5,1779.5 303.5,1779.5 302.5,1779.5C 300.917,1756.15 299.917,1732.65 299.5,1709C 299.762,1684.33 300.929,1659.83 303,1635.5C 303.414,1635.04 303.914,1634.71 304.5,1634.5C 307.611,1607.29 312.611,1580.62 319.5,1554.5C 331.323,1511.38 346.989,1469.72 366.5,1429.5C 367.452,1427.95 367.785,1426.29 367.5,1424.5C 368.5,1424.5 369.5,1424.5 370.5,1424.5C 372.134,1418.66 374.301,1413 377,1407.5C 381.309,1401.2 384.976,1394.53 388,1387.5C 397.327,1373.26 406.493,1358.93 415.5,1344.5C 421.203,1342.3 425.036,1338.3 427,1332.5C 429.718,1328.36 432.885,1324.7 436.5,1321.5C 445.515,1311.15 454.182,1300.48 462.5,1289.5C 462.629,1287.78 462.962,1286.12 463.5,1284.5C 466.057,1280.93 469.057,1277.6 472.5,1274.5C 473.325,1273.61 474.325,1273.28 475.5,1273.5C 476.201,1271.09 477.201,1268.76 478.5,1266.5C 486.527,1258.47 494.527,1250.47 502.5,1242.5C 506.215,1240.09 509.882,1237.76 513.5,1235.5C 513.281,1234.32 513.614,1233.32 514.5,1232.5C 517.35,1229.82 520.016,1226.98 522.5,1224C 525.584,1220.79 529.25,1218.63 533.5,1217.5C 535.543,1212.56 539.21,1209.23 544.5,1207.5C 545.833,1205.83 547.167,1204.17 548.5,1202.5C 557.228,1195.44 566.228,1188.77 575.5,1182.5C 576.612,1181.73 577.279,1180.73 577.5,1179.5C 580.271,1179.58 582.937,1179.08 585.5,1178C 590.564,1173.23 596.231,1169.56 602.5,1167C 605.388,1163.88 608.721,1161.38 612.5,1159.5C 617.389,1156.78 622.389,1154.28 627.5,1152C 628.337,1150.99 628.67,1149.82 628.5,1148.5C 635.019,1145.64 641.019,1141.97 646.5,1137.5C 647.952,1136.06 648.952,1134.39 649.5,1132.5C 651.591,1131.13 653.924,1130.47 656.5,1130.5C 656.48,1128.86 657.147,1127.52 658.5,1126.5C 662.649,1124.24 666.982,1122.57 671.5,1121.5C 671.5,1120.5 671.5,1119.5 671.5,1118.5C 677.94,1115.28 684.606,1112.61 691.5,1110.5C 691.5,1109.5 691.5,1108.5 691.5,1107.5C 699.108,1105.02 706.108,1101.52 712.5,1097C 716.667,1094.91 721,1093.41 725.5,1092.5C 725.5,1091.5 725.5,1090.5 725.5,1089.5C 736.789,1085.82 747.455,1080.99 757.5,1075C 760.666,1073.44 764,1072.61 767.5,1072.5C 767.5,1071.5 767.5,1070.5 767.5,1069.5C 774.154,1067.31 780.821,1064.97 787.5,1062.5C 793.744,1058 800.744,1055.34 808.5,1054.5C 808.5,1053.5 808.5,1052.5 808.5,1051.5C 810.099,1051.77 811.432,1051.43 812.5,1050.5C 813.396,1049.49 814.062,1049.49 814.5,1050.5C 817.304,1051.64 820.304,1051.8 823.5,1051C 827.76,1050.2 831.426,1048.37 834.5,1045.5C 835.209,1044.6 836.209,1044.26 837.5,1044.5C 839.921,1043.11 842.588,1042.28 845.5,1042C 846.252,1041.33 846.586,1040.5 846.5,1039.5C 849.167,1038.83 851.833,1038.17 854.5,1037.5C 861.164,1034.49 868.164,1032.32 875.5,1031C 876.823,1030.18 877.489,1029.02 877.5,1027.5C 877.5,1026.83 877.5,1026.17 877.5,1025.5C 879.716,1025.73 881.383,1024.89 882.5,1023C 893.396,1019.64 904.396,1016.81 915.5,1014.5C 915.5,1013.5 915.5,1012.5 915.5,1011.5C 925.734,1009.34 936.067,1007.34 946.5,1005.5C 946.5,1004.5 946.5,1003.5 946.5,1002.5C 958.488,1000.24 970.488,997.911 982.5,995.5C 982.709,994.914 983.043,994.414 983.5,994C 1001.76,990.452 1020.1,987.285 1038.5,984.5C 1038.71,983.914 1039.04,983.414 1039.5,983C 1053.82,981.252 1068.15,979.752 1082.5,978.5C 1083.5,978.5 1084.5,978.5 1085.5,978.5C 1089.31,979.645 1093.31,979.812 1097.5,979C 1112.4,976.741 1127.4,975.408 1142.5,975C 1146.94,974.034 1151.27,973.201 1155.5,972.5C 1157.5,972.5 1158.5,971.5 1158.5,969.5C 1215.15,967.924 1271.82,967.257 1328.5,967.5C 1329.83,968.167 1330.83,969.167 1331.5,970.5C 1335.02,971.166 1338.69,971.833 1342.5,972.5C 1357.99,973.826 1373.33,973.826 1388.5,972.5C 1389.61,972.443 1390.61,972.11 1391.5,971.5C 1406.68,972.817 1422.02,973.65 1437.5,974C 1437.96,974.414 1438.29,974.914 1438.5,975.5C 1448.89,976.226 1459.22,977.226 1469.5,978.5C 1470.17,978.5 1470.83,978.5 1471.5,978.5C 1471.5,979.5 1471.5,980.5 1471.5,981.5C 1490.83,983.307 1510.16,985.141 1529.5,987C 1548.6,990.614 1567.6,993.447 1586.5,995.5C 1587.17,995.5 1587.83,995.5 1588.5,995.5C 1589.35,996.966 1590.68,997.8 1592.5,998C 1605.88,999.449 1619.21,1001.12 1632.5,1003C 1641.51,1004.11 1650.18,1006.11 1658.5,1009C 1666.32,1009.45 1673.99,1010.29 1681.5,1011.5C 1686.51,1012.09 1691.51,1012.75 1696.5,1013.5C 1696.61,1014.12 1696.94,1014.62 1697.5,1015C 1701.5,1015.33 1705.5,1015.67 1709.5,1016C 1742.36,1022.76 1775.02,1029.92 1807.5,1037.5C 1808.17,1037.5 1808.83,1037.5 1809.5,1037.5C 1815.08,1040.06 1821.08,1041.39 1827.5,1041.5C 1828.21,1042.4 1829.21,1042.74 1830.5,1042.5C 1830.61,1043.12 1830.94,1043.62 1831.5,1044C 1838.17,1045 1844.83,1046 1851.5,1047C 1854.29,1047.56 1856.62,1048.89 1858.5,1051C 1864.6,1051.67 1870.6,1052.51 1876.5,1053.5C 1877.78,1054.93 1879.45,1055.6 1881.5,1055.5C 1881.41,1056.5 1881.75,1057.33 1882.5,1058C 1886.71,1058.59 1890.88,1059.43 1895,1060.5C 1896.5,1060.33 1898,1060.17 1899.5,1060C 1904.85,1053.31 1910.85,1047.31 1917.5,1042C 1916.4,1041.23 1916.4,1040.4 1917.5,1039.5C 1917.37,1038.76 1917.54,1038.09 1918,1037.5C 1923.76,1032.21 1929.26,1026.87 1934.5,1021.5C 1940.87,1016.13 1946.54,1010.13 1951.5,1003.5C 1953.19,1002.99 1954.86,1002.32 1956.5,1001.5C 1958.12,997.89 1960.12,994.557 1962.5,991.5C 1971.03,984.639 1979.03,976.973 1986.5,968.5C 1994.52,959.66 2003.52,951.994 2013.5,945.5C 2017.45,942.886 2021.12,939.886 2024.5,936.5C 2027.5,934.167 2030.5,931.833 2033.5,929.5C 2040.12,925.908 2046.79,922.242 2053.5,918.5C 2055.09,917.852 2056.75,917.352 2058.5,917C 2064.54,911.821 2071.54,908.821 2079.5,908C 2080.06,907.617 2080.39,907.117 2080.5,906.5C 2083.47,905.349 2086.47,904.183 2089.5,903C 2090.25,902.329 2090.59,901.496 2090.5,900.5C 2109.24,895.528 2128.58,892.195 2148.5,890.5C 2173.83,889.167 2199.17,889.167 2224.5,890.5C 2245.95,892.359 2266.62,897.192 2286.5,905C 2293.17,909.002 2300.17,912.502 2307.5,915.5C 2307.5,916.5 2307.5,917.5 2307.5,918.5C 2313.69,920.174 2319.36,923.007 2324.5,927C 2327.77,930.306 2331.43,933.139 2335.5,935.5C 2336.39,936.325 2336.72,937.325 2336.5,938.5C 2339.59,938.906 2342.26,940.24 2344.5,942.5C 2346.32,943.728 2347.32,945.394 2347.5,947.5C 2353.62,949.061 2357.96,952.727 2360.5,958.5C 2369.75,964.135 2378.09,971.135 2385.5,979.5C 2387.66,980.414 2389.66,981.581 2391.5,983C 2394.34,986.676 2397.68,989.843 2401.5,992.5C 2402.85,993.524 2403.52,994.857 2403.5,996.5C 2406.59,996.906 2409.26,998.24 2411.5,1000.5C 2413.32,1001.73 2414.32,1003.39 2414.5,1005.5C 2419.03,1007.19 2423.36,1009.19 2427.5,1011.5C 2427.5,1012.5 2427.5,1013.5 2427.5,1014.5C 2434.1,1017.56 2440.1,1021.56 2445.5,1026.5C 2456.61,1032.39 2467.94,1037.72 2479.5,1042.5C 2492.55,1046.85 2505.89,1049.85 2519.5,1051.5C 2519.5,1052.5 2519.5,1053.5 2519.5,1054.5C 2531.41,1055.65 2543.08,1057.82 2554.5,1061C 2555.78,1062.65 2557.45,1063.81 2559.5,1064.5C 2566.53,1065.73 2572.53,1068.73 2577.5,1073.5C 2581.22,1075.26 2584.88,1076.92 2588.5,1078.5C 2588.5,1079.5 2588.5,1080.5 2588.5,1081.5C 2594.66,1085.09 2600.33,1089.43 2605.5,1094.5C 2606.8,1096.76 2607.8,1099.09 2608.5,1101.5C 2613.71,1103.38 2616.71,1107.04 2617.5,1112.5C 2619.61,1112.68 2621.27,1113.68 2622.5,1115.5C 2624.71,1120.21 2627.54,1124.55 2631,1128.5C 2633.04,1134.39 2636.04,1139.72 2640,1144.5C 2643,1150.57 2645.16,1156.91 2646.5,1163.5C 2647.5,1163.5 2648.5,1163.5 2649.5,1163.5C 2655.54,1180.29 2661.38,1197.29 2667,1214.5C 2669.59,1226.01 2672.59,1237.34 2676,1248.5C 2678.61,1260.77 2680.78,1273.11 2682.5,1285.5 Z"/></g>
<g><path style="opacity:0.998" fill="#af2338" d="M 1546.5,883.5 C 1548.03,884.067 1549.53,884.733 1551,885.5C 1553.29,893.221 1556.46,900.554 1560.5,907.5C 1569.71,918.217 1577.55,929.884 1584,942.5C 1585.21,943.071 1586.37,943.738 1587.5,944.5C 1596.54,959.902 1607.04,974.235 1619,987.5C 1623.13,996.986 1630.3,1001.49 1640.5,1001C 1641.57,1001.85 1642.57,1002.69 1643.5,1003.5C 1636.1,1002.93 1629.1,1001.6 1622.5,999.5C 1610.93,996.313 1598.93,994.647 1586.5,994.5C 1568.84,991.831 1551.17,988.998 1533.5,986C 1512.63,984.597 1491.96,982.097 1471.5,978.5C 1470.83,978.5 1470.17,978.5 1469.5,978.5C 1472.47,976.037 1475.47,973.371 1478.5,970.5C 1480.76,969.201 1483.09,968.201 1485.5,967.5C 1487.17,963.167 1490.17,960.167 1494.5,958.5C 1496.34,954.643 1499.01,951.309 1502.5,948.5C 1503.32,947.614 1504.32,947.281 1505.5,947.5C 1507.24,941.747 1510.58,937.08 1515.5,933.5C 1517.06,929.304 1519.72,926.304 1523.5,924.5C 1525.08,920.883 1526.74,917.216 1528.5,913.5C 1529.52,912.147 1530.86,911.48 1532.5,911.5C 1532.21,909.712 1532.55,908.045 1533.5,906.5C 1538.11,898.931 1542.45,891.264 1546.5,883.5 Z"/></g>
<g><path style="opacity:1" fill="#b86f36" d="M 2080.5,906.5 C 2080.39,907.117 2080.06,907.617 2079.5,908C 2071.54,908.821 2064.54,911.821 2058.5,917C 2056.75,917.352 2055.09,917.852 2053.5,918.5C 2061,911.647 2070,907.647 2080.5,906.5 Z"/></g>
<g><path style="opacity:1" fill="#a5863a" d="M 2024.5,936.5 C 2021.12,939.886 2017.45,942.886 2013.5,945.5C 2016.25,941.426 2019.91,938.426 2024.5,936.5 Z"/></g>
<g><path style="opacity:0.972" fill="#ce2133" d="M 877.5,1025.5 C 877.5,1026.17 877.5,1026.83 877.5,1027.5C 872.49,1030 867.157,1031.84 861.5,1033C 858.813,1034.05 856.48,1035.55 854.5,1037.5C 851.833,1038.17 849.167,1038.83 846.5,1039.5C 844.099,1040.05 841.765,1040.88 839.5,1042C 838.619,1042.71 837.953,1043.54 837.5,1044.5C 836.209,1044.26 835.209,1044.6 834.5,1045.5C 828.005,1047.67 821.338,1049.33 814.5,1050.5C 814.062,1049.49 813.396,1049.49 812.5,1050.5C 810.715,1048.05 808.382,1046.38 805.5,1045.5C 805.5,1044.5 805.5,1043.5 805.5,1042.5C 804.022,1042.76 802.689,1042.43 801.5,1041.5C 795.254,1038.2 789.254,1034.53 783.5,1030.5C 766.309,1021.95 747.975,1017.12 728.5,1016C 728.043,1015.59 727.709,1015.09 727.5,1014.5C 711.019,1012.99 694.686,1010.66 678.5,1007.5C 678.5,1006.5 678.5,1005.5 678.5,1004.5C 669.211,1002.03 664.878,995.858 665.5,986C 666.376,973.293 673.043,965.793 685.5,963.5C 696.151,962.334 706.818,962.168 717.5,963C 735.172,966.855 753.172,970.522 771.5,974C 780.817,977.665 790.484,980.665 800.5,983C 801.779,984.646 803.445,985.813 805.5,986.5C 812.197,988.853 818.863,991.187 825.5,993.5C 825.5,994.5 825.5,995.5 825.5,996.5C 830.327,997.574 834.994,999.24 839.5,1001.5C 845.381,1005.69 851.714,1009.19 858.5,1012C 861.65,1015.75 865.65,1018.25 870.5,1019.5C 872.69,1021.01 874.024,1023.01 874.5,1025.5C 875.5,1025.5 876.5,1025.5 877.5,1025.5 Z"/></g>
<g><path style="opacity:1" fill="#af8c38" d="M 1331.5,970.5 C 1350.51,970.867 1369.51,971.534 1388.5,972.5C 1373.33,973.826 1357.99,973.826 1342.5,972.5C 1338.69,971.833 1335.02,971.166 1331.5,970.5 Z"/></g>
<g><path style="opacity:1" fill="#b37e37" d="M 1155.5,972.5 C 1151.27,973.201 1146.94,974.034 1142.5,975C 1127.4,975.408 1112.4,976.741 1097.5,979C 1093.31,979.812 1089.31,979.645 1085.5,978.5C 1108.76,975.618 1132.09,973.618 1155.5,972.5 Z"/></g>
<g><path style="opacity:1" fill="#a7733a" d="M 1471.5,978.5 C 1491.96,982.097 1512.63,984.597 1533.5,986C 1551.17,988.998 1568.84,991.831 1586.5,994.5C 1586.5,994.833 1586.5,995.167 1586.5,995.5C 1567.6,993.447 1548.6,990.614 1529.5,987C 1510.16,985.141 1490.83,983.307 1471.5,981.5C 1471.5,980.5 1471.5,979.5 1471.5,978.5 Z"/></g>
<g><path style="opacity:1" fill="#a4843a" d="M 1986.5,968.5 C 1979.03,976.973 1971.03,984.639 1962.5,991.5C 1969.86,983.138 1977.86,975.472 1986.5,968.5 Z"/></g>
<g><path style="opacity:1" fill="#aa4b39" d="M 1586.5,995.5 C 1586.5,995.167 1586.5,994.833 1586.5,994.5C 1598.93,994.647 1610.93,996.313 1622.5,999.5C 1611.12,998.466 1599.79,997.133 1588.5,995.5C 1587.83,995.5 1587.17,995.5 1586.5,995.5 Z"/></g>
<g><path style="opacity:1" fill="#a89739" d="M 1588.5,995.5 C 1599.79,997.133 1611.12,998.466 1622.5,999.5C 1629.1,1001.6 1636.1,1002.93 1643.5,1003.5C 1656.48,1005.25 1669.15,1007.92 1681.5,1011.5C 1673.99,1010.29 1666.32,1009.45 1658.5,1009C 1650.18,1006.11 1641.51,1004.11 1632.5,1003C 1619.21,1001.12 1605.88,999.449 1592.5,998C 1590.68,997.8 1589.35,996.966 1588.5,995.5 Z"/></g>
<g><path style="opacity:1" fill="#a4933a" d="M 1962.5,991.5 C 1960.12,994.557 1958.12,997.89 1956.5,1001.5C 1954.86,1002.32 1953.19,1002.99 1951.5,1003.5C 1954.78,999.22 1958.44,995.22 1962.5,991.5 Z"/></g>
<g><path style="opacity:1" fill="#b17b38" d="M 1951.5,1003.5 C 1946.54,1010.13 1940.87,1016.13 1934.5,1021.5C 1938.48,1016.52 1942.48,1011.52 1946.5,1006.5C 1947.92,1005.08 1949.59,1004.08 1951.5,1003.5 Z"/></g>
<g><path style="opacity:1" fill="#aa6c39" d="M 1696.5,1013.5 C 1703.68,1013.9 1710.68,1014.9 1717.5,1016.5C 1720.23,1016.26 1722.56,1017.1 1724.5,1019C 1738.98,1021.97 1753.65,1024.47 1768.5,1026.5C 1771.56,1026.94 1774.22,1028.1 1776.5,1030C 1785.92,1031.01 1795.25,1032.68 1804.5,1035C 1805.94,1035.38 1806.94,1036.21 1807.5,1037.5C 1775.02,1029.92 1742.36,1022.76 1709.5,1016C 1705.5,1015.67 1701.5,1015.33 1697.5,1015C 1696.94,1014.62 1696.61,1014.12 1696.5,1013.5 Z"/></g>
<g><path style="opacity:1" fill="#b08838" d="M 877.5,1027.5 C 877.489,1029.02 876.823,1030.18 875.5,1031C 868.164,1032.32 861.164,1034.49 854.5,1037.5C 856.48,1035.55 858.813,1034.05 861.5,1033C 867.157,1031.84 872.49,1030 877.5,1027.5 Z"/></g>
<g><path style="opacity:1" fill="#a67739" d="M 1809.5,1037.5 C 1814.66,1038.8 1819.99,1039.63 1825.5,1040C 1826.42,1040.28 1827.08,1040.78 1827.5,1041.5C 1821.08,1041.39 1815.08,1040.06 1809.5,1037.5 Z"/></g>
<g><path style="opacity:1" fill="#b28037" d="M 846.5,1039.5 C 846.586,1040.5 846.252,1041.33 845.5,1042C 842.588,1042.28 839.921,1043.11 837.5,1044.5C 837.953,1043.54 838.619,1042.71 839.5,1042C 841.765,1040.88 844.099,1040.05 846.5,1039.5 Z"/></g>
<g><path style="opacity:1" fill="#cedf9d" d="M 2355.5,1043.5 C 2341.99,1042.34 2328.66,1043.34 2315.5,1046.5C 2315.5,1045.5 2315.5,1044.5 2315.5,1043.5C 2323.98,1042.76 2332.48,1042.09 2341,1041.5C 2345.5,1041.67 2350,1041.83 2354.5,1042C 2355.06,1042.38 2355.39,1042.88 2355.5,1043.5 Z"/></g>
<g><path style="opacity:1" fill="#aa5739" d="M 1830.5,1042.5 C 1844.38,1044.22 1858.05,1046.72 1871.5,1050C 1872.96,1051.63 1874.62,1052.79 1876.5,1053.5C 1870.6,1052.51 1864.6,1051.67 1858.5,1051C 1856.62,1048.89 1854.29,1047.56 1851.5,1047C 1844.83,1046 1838.17,1045 1831.5,1044C 1830.94,1043.62 1830.61,1043.12 1830.5,1042.5 Z"/></g>
<g><path style="opacity:1" fill="#fdfdfc" d="M 2355.5,1043.5 C 2365.15,1044.77 2374.48,1047.44 2383.5,1051.5C 2385.9,1052.05 2388.23,1052.88 2390.5,1054C 2412.09,1065.76 2428.76,1082.26 2440.5,1103.5C 2441.64,1108.11 2443.31,1112.45 2445.5,1116.5C 2446.23,1122.71 2447.73,1128.71 2450,1134.5C 2450.5,1150.83 2450.67,1167.16 2450.5,1183.5C 2448.82,1190.18 2447.15,1196.85 2445.5,1203.5C 2439.16,1215.82 2431.99,1227.82 2424,1239.5C 2414.02,1250.15 2402.85,1259.32 2390.5,1267C 2387.55,1268.13 2384.55,1268.96 2381.5,1269.5C 2367.35,1275.92 2352.35,1278.58 2336.5,1277.5C 2336.44,1275.12 2336.78,1272.78 2337.5,1270.5C 2337.33,1268.83 2336.67,1267.5 2335.5,1266.5C 2334.95,1264.1 2334.12,1261.77 2333,1259.5C 2329.94,1256.27 2326.77,1253.27 2323.5,1250.5C 2322.71,1249.21 2321.71,1248.04 2320.5,1247C 2315.96,1245.6 2311.96,1243.26 2308.5,1240C 2306.13,1239.56 2303.8,1239.06 2301.5,1238.5C 2296.57,1237.87 2291.91,1236.37 2287.5,1234C 2281.84,1232.98 2276.18,1232.15 2270.5,1231.5C 2269.41,1229.88 2267.74,1229.05 2265.5,1229C 2259.84,1228.5 2254.18,1228.33 2248.5,1228.5C 2248.71,1226.82 2248.05,1225.82 2246.5,1225.5C 2239.66,1213.28 2234.5,1200.28 2231,1186.5C 2230.5,1183.52 2230.34,1180.52 2230.5,1177.5C 2230.56,1164.14 2231.23,1150.8 2232.5,1137.5C 2234.86,1131.03 2236.19,1124.37 2236.5,1117.5C 2239.13,1111.99 2241.63,1106.32 2244,1100.5C 2248.32,1094.6 2252.49,1088.6 2256.5,1082.5C 2260.49,1080.51 2263.49,1077.51 2265.5,1073.5C 2270.72,1069.46 2276.05,1065.79 2281.5,1062.5C 2281.92,1060.09 2283.25,1058.26 2285.5,1057C 2293.01,1053.11 2300.68,1049.78 2308.5,1047C 2310.81,1046.5 2313.14,1046.34 2315.5,1046.5C 2328.66,1043.34 2341.99,1042.34 2355.5,1043.5 Z"/></g>
<g><path style="opacity:1" fill="#c5da8b" d="M 2355.5,1043.5 C 2362.41,1043.04 2369.08,1043.87 2375.5,1046C 2378.54,1047.39 2381.21,1049.22 2383.5,1051.5C 2374.48,1047.44 2365.15,1044.77 2355.5,1043.5 Z"/></g>
<g><path style="opacity:1" fill="#ad9138" d="M 834.5,1045.5 C 831.426,1048.37 827.76,1050.2 823.5,1051C 820.304,1051.8 817.304,1051.64 814.5,1050.5C 821.338,1049.33 828.005,1047.67 834.5,1045.5 Z"/></g>
<g><path style="opacity:1" fill="#a59839" d="M 1917.5,1039.5 C 1916.4,1040.4 1916.4,1041.23 1917.5,1042C 1910.85,1047.31 1904.85,1053.31 1899.5,1060C 1898,1060.17 1896.5,1060.33 1895,1060.5C 1890.88,1059.43 1886.71,1058.59 1882.5,1058C 1881.75,1057.33 1881.41,1056.5 1881.5,1055.5C 1885.62,1056.35 1889.62,1057.52 1893.5,1059C 1895.17,1059.67 1896.83,1059.67 1898.5,1059C 1901.63,1055.03 1904.97,1051.2 1908.5,1047.5C 1911.52,1044.81 1914.52,1042.14 1917.5,1039.5 Z"/></g>
<g><path style="opacity:1" fill="#76933b" d="M 1058.5,1057.5 C 1073.01,1058.28 1085.18,1063.94 1095,1074.5C 1102.41,1088.56 1102.25,1102.56 1094.5,1116.5C 1088.76,1125.05 1080.76,1130.55 1070.5,1133C 1050.06,1135.86 1029.73,1138.86 1009.5,1142C 995.288,1147.37 980.621,1149.03 965.5,1147C 960.934,1144.26 956.267,1141.76 951.5,1139.5C 947.8,1133.63 944.3,1127.63 941,1121.5C 940.212,1114.44 940.545,1107.44 942,1100.5C 944.231,1095.04 946.731,1089.71 949.5,1084.5C 953.008,1081.19 957.008,1078.35 961.5,1076C 989.248,1069.73 1017.25,1065.06 1045.5,1062C 1045.96,1061.59 1046.29,1061.09 1046.5,1060.5C 1050.74,1059.94 1054.74,1058.94 1058.5,1057.5 Z"/></g>
<g><path style="opacity:1" fill="#76933b" d="M 1321.5,1084.5 C 1338.68,1085.16 1355.68,1087.32 1372.5,1091C 1387.54,1092.23 1402.54,1093.89 1417.5,1096C 1443.6,1103.57 1453.77,1120.74 1448,1147.5C 1444.17,1154.51 1439,1160.51 1432.5,1165.5C 1430.95,1166.45 1429.29,1166.79 1427.5,1166.5C 1427.5,1167.5 1427.5,1168.5 1427.5,1169.5C 1418.69,1171.47 1409.69,1171.97 1400.5,1171C 1374,1166.43 1347.34,1162.43 1320.5,1159C 1313,1157.38 1306.17,1154.22 1300,1149.5C 1297.36,1145.52 1294.7,1141.52 1292,1137.5C 1288.7,1126.51 1288.7,1115.51 1292,1104.5C 1294.01,1099.7 1297.34,1096.04 1302,1093.5C 1302.48,1092.55 1302.65,1091.55 1302.5,1090.5C 1308.6,1087.76 1314.93,1085.76 1321.5,1084.5 Z"/></g>
<g><path style="opacity:1" fill="#8f8f8f" d="M 2357.5,1091.5 C 2349.68,1091.08 2342.02,1091.74 2334.5,1093.5C 2335.4,1092.84 2336.4,1092.18 2337.5,1091.5C 2344.32,1090.18 2350.99,1090.18 2357.5,1091.5 Z"/></g>
<g><path style="opacity:1" fill="#030303" d="M 2357.5,1091.5 C 2359.81,1093.07 2362.48,1093.9 2365.5,1094C 2368.47,1096.81 2371.8,1098.98 2375.5,1100.5C 2378.12,1103.79 2381.12,1106.79 2384.5,1109.5C 2391.42,1116.79 2395.76,1125.46 2397.5,1135.5C 2399.21,1146.38 2399.87,1157.38 2399.5,1168.5C 2397.81,1175.47 2396.31,1182.47 2395,1189.5C 2392.95,1193.39 2391.12,1197.39 2389.5,1201.5C 2388.36,1201.91 2387.36,1202.57 2386.5,1203.5C 2384.78,1206.2 2383.11,1208.87 2381.5,1211.5C 2381.17,1212.5 2380.5,1213.17 2379.5,1213.5C 2375.12,1217.55 2370.45,1221.21 2365.5,1224.5C 2358.57,1227.44 2351.23,1228.77 2343.5,1228.5C 2336.96,1228.71 2330.63,1228.05 2324.5,1226.5C 2320.68,1225.68 2317.68,1223.68 2315.5,1220.5C 2307.56,1212.57 2301.22,1203.57 2296.5,1193.5C 2295.5,1188.83 2294.5,1184.17 2293.5,1179.5C 2292.99,1166.65 2293.65,1153.98 2295.5,1141.5C 2295.41,1138.3 2296.07,1135.3 2297.5,1132.5C 2299.79,1129.5 2301.62,1126.17 2303,1122.5C 2304.02,1121.31 2305.19,1120.31 2306.5,1119.5C 2307.17,1125.65 2307.83,1131.65 2308.5,1137.5C 2308.86,1141.22 2310.53,1144.22 2313.5,1146.5C 2314.72,1148.45 2316.38,1149.95 2318.5,1151C 2328.23,1153.05 2335.56,1149.88 2340.5,1141.5C 2342.64,1143.5 2343.97,1146 2344.5,1149C 2346.71,1149.79 2348.71,1149.62 2350.5,1148.5C 2354.37,1145.03 2354.37,1141.7 2350.5,1138.5C 2349.08,1136.69 2347.08,1136.03 2344.5,1136.5C 2344.82,1131.97 2344.48,1127.63 2343.5,1123.5C 2342.61,1119.85 2341.61,1116.18 2340.5,1112.5C 2337.7,1112.04 2335.36,1110.71 2333.5,1108.5C 2333.59,1107.5 2333.25,1106.67 2332.5,1106C 2328.13,1105.83 2323.8,1105.33 2319.5,1104.5C 2321.49,1101.74 2323.82,1099.41 2326.5,1097.5C 2329.26,1096.36 2331.93,1095.02 2334.5,1093.5C 2342.02,1091.74 2349.68,1091.08 2357.5,1091.5 Z"/></g>
<g><path style="opacity:1" fill="#626262" d="M 2375.5,1100.5 C 2379.5,1102.5 2382.5,1105.5 2384.5,1109.5C 2381.12,1106.79 2378.12,1103.79 2375.5,1100.5 Z"/></g>
<g><path style="opacity:1" fill="#76933b" d="M 1627.5,1102.5 C 1662.35,1105.68 1697.01,1110.52 1731.5,1117C 1751.91,1125.83 1760.08,1141.33 1756,1163.5C 1754.18,1166.85 1752.51,1170.19 1751,1173.5C 1748.13,1176.04 1745.63,1178.87 1743.5,1182C 1739.21,1183.98 1735.21,1186.31 1731.5,1189C 1719.87,1190.17 1708.21,1190.17 1696.5,1189C 1682.31,1186.01 1667.97,1183.34 1653.5,1181C 1641.55,1180.93 1629.89,1179.1 1618.5,1175.5C 1605.09,1168 1597.76,1156.67 1596.5,1141.5C 1597.04,1120.76 1607.38,1107.76 1627.5,1102.5 Z"/></g>
<g><path style="opacity:1" fill="#f5f5f5" d="M 2333.5,1108.5 C 2335.36,1110.71 2337.7,1112.04 2340.5,1112.5C 2341.61,1116.18 2342.61,1119.85 2343.5,1123.5C 2343.46,1129.67 2342.46,1135.67 2340.5,1141.5C 2335.56,1149.88 2328.23,1153.05 2318.5,1151C 2316.38,1149.95 2314.72,1148.45 2313.5,1146.5C 2309.79,1137.85 2308.79,1128.85 2310.5,1119.5C 2314.66,1108.34 2322.33,1104.67 2333.5,1108.5 Z"/></g>
<g><path style="opacity:0.976" fill="#ce2233" d="M 649.5,1132.5 C 648.952,1134.39 647.952,1136.06 646.5,1137.5C 641.019,1141.97 635.019,1145.64 628.5,1148.5C 622.749,1151.7 617.416,1155.36 612.5,1159.5C 608.721,1161.38 605.388,1163.88 602.5,1167C 596.231,1169.56 590.564,1173.23 585.5,1178C 582.937,1179.08 580.271,1179.58 577.5,1179.5C 576.167,1179.5 574.833,1179.5 573.5,1179.5C 573.5,1178.5 573.5,1177.5 573.5,1176.5C 558.1,1174.38 542.766,1172.38 527.5,1170.5C 526.692,1170.81 526.025,1171.31 525.5,1172C 508.671,1172.9 491.838,1173.74 475,1174.5C 449.123,1179.36 438.289,1169.02 442.5,1143.5C 444.479,1136.73 448.146,1130.9 453.5,1126C 457.528,1123.66 461.528,1121.33 465.5,1119C 481.472,1114.79 497.805,1112.63 514.5,1112.5C 538.579,1113.73 562.579,1115.73 586.5,1118.5C 586.5,1119.5 586.5,1120.5 586.5,1121.5C 590.846,1121.33 595.179,1121.5 599.5,1122C 616.207,1125.5 632.874,1129 649.5,1132.5 Z"/></g>
<g><path style="opacity:1" fill="#3c3c3c" d="M 2326.5,1097.5 C 2323.82,1099.41 2321.49,1101.74 2319.5,1104.5C 2323.8,1105.33 2328.13,1105.83 2332.5,1106C 2333.25,1106.67 2333.59,1107.5 2333.5,1108.5C 2322.33,1104.67 2314.66,1108.34 2310.5,1119.5C 2308.55,1125.07 2307.88,1131.07 2308.5,1137.5C 2307.83,1131.65 2307.17,1125.65 2306.5,1119.5C 2305.19,1120.31 2304.02,1121.31 2303,1122.5C 2301.62,1126.17 2299.79,1129.5 2297.5,1132.5C 2302.7,1117.08 2312.37,1105.42 2326.5,1097.5 Z"/></g>
<g><path style="opacity:1" fill="#a8a8a8" d="M 2310.5,1119.5 C 2308.79,1128.85 2309.79,1137.85 2313.5,1146.5C 2310.53,1144.22 2308.86,1141.22 2308.5,1137.5C 2307.88,1131.07 2308.55,1125.07 2310.5,1119.5 Z"/></g>
<g><path style="opacity:1" fill="#343434" d="M 2343.5,1123.5 C 2344.48,1127.63 2344.82,1131.97 2344.5,1136.5C 2347.08,1136.03 2349.08,1136.69 2350.5,1138.5C 2348.53,1138.26 2346.7,1138.59 2345,1139.5C 2344.5,1141.81 2344.34,1144.14 2344.5,1146.5C 2345.99,1148.28 2347.99,1148.95 2350.5,1148.5C 2348.71,1149.62 2346.71,1149.79 2344.5,1149C 2343.97,1146 2342.64,1143.5 2340.5,1141.5C 2342.46,1135.67 2343.46,1129.67 2343.5,1123.5 Z"/></g>
<g><path style="opacity:1" fill="#b7d16e" d="M 2229.5,1144.5 C 2228.11,1155.68 2228.44,1166.68 2230.5,1177.5C 2230.34,1180.52 2230.5,1183.52 2231,1186.5C 2234.5,1200.28 2239.66,1213.28 2246.5,1225.5C 2247.11,1226.39 2247.44,1227.39 2247.5,1228.5C 2245.03,1226.59 2243.03,1224.26 2241.5,1221.5C 2238.08,1210.28 2234.24,1199.28 2230,1188.5C 2227.69,1174.25 2227.02,1159.92 2228,1145.5C 2228.38,1144.94 2228.88,1144.61 2229.5,1144.5 Z"/></g>
<g><path style="opacity:1" fill="#eaeaea" d="M 2350.5,1138.5 C 2350.5,1141.5 2350.5,1144.5 2350.5,1147.5C 2348.44,1147.48 2346.44,1147.15 2344.5,1146.5C 2344.34,1144.14 2344.5,1141.81 2345,1139.5C 2346.7,1138.59 2348.53,1138.26 2350.5,1138.5 Z"/></g>
<g><path style="opacity:1" fill="#848484" d="M 2350.5,1138.5 C 2354.37,1141.7 2354.37,1145.03 2350.5,1148.5C 2347.99,1148.95 2345.99,1148.28 2344.5,1146.5C 2346.44,1147.15 2348.44,1147.48 2350.5,1147.5C 2350.5,1144.5 2350.5,1141.5 2350.5,1138.5 Z"/></g>
<g><path style="opacity:1" fill="#e5eec9" d="M 2236.5,1117.5 C 2236.19,1124.37 2234.86,1131.03 2232.5,1137.5C 2231.23,1150.8 2230.56,1164.14 2230.5,1177.5C 2228.44,1166.68 2228.11,1155.68 2229.5,1144.5C 2230.92,1138.35 2232.09,1132.02 2233,1125.5C 2233.74,1122.5 2234.9,1119.83 2236.5,1117.5 Z"/></g>
<g><path style="opacity:1" fill="#ac9638" d="M 628.5,1148.5 C 628.67,1149.82 628.337,1150.99 627.5,1152C 622.389,1154.28 617.389,1156.78 612.5,1159.5C 617.416,1155.36 622.749,1151.7 628.5,1148.5 Z"/></g>
<g><path style="opacity:1" fill="#575757" d="M 2397.5,1135.5 C 2398.33,1138.37 2399.16,1141.37 2400,1144.5C 2400.5,1152.49 2400.67,1160.49 2400.5,1168.5C 2400.17,1168.5 2399.83,1168.5 2399.5,1168.5C 2399.87,1157.38 2399.21,1146.38 2397.5,1135.5 Z"/></g>
<g><path style="opacity:1" fill="#b5cf6a" d="M 2440.5,1103.5 C 2441.15,1103.8 2441.82,1104.14 2442.5,1104.5C 2444.47,1110.56 2446.97,1116.22 2450,1121.5C 2456.46,1148.58 2455.8,1175.58 2448,1202.5C 2447.33,1203.25 2446.5,1203.59 2445.5,1203.5C 2447.15,1196.85 2448.82,1190.18 2450.5,1183.5C 2454.73,1161.21 2453.56,1139.21 2447,1117.5C 2446.62,1116.94 2446.12,1116.61 2445.5,1116.5C 2443.31,1112.45 2441.64,1108.11 2440.5,1103.5 Z"/></g>
<g><path style="opacity:1" fill="#5c5c5c" d="M 2295.5,1141.5 C 2293.65,1153.98 2292.99,1166.65 2293.5,1179.5C 2292.34,1169.01 2292.17,1158.34 2293,1147.5C 2293.57,1145.28 2294.4,1143.28 2295.5,1141.5 Z"/></g>
<g><path style="opacity:1" fill="#e4edc9" d="M 2445.5,1116.5 C 2446.12,1116.61 2446.62,1116.94 2447,1117.5C 2453.56,1139.21 2454.73,1161.21 2450.5,1183.5C 2450.67,1167.16 2450.5,1150.83 2450,1134.5C 2447.73,1128.71 2446.23,1122.71 2445.5,1116.5 Z"/></g>
<g><path style="opacity:1" fill="#737373" d="M 2328.5,1154.5 C 2335.21,1153.38 2338.88,1156.21 2339.5,1163C 2339.24,1170.26 2335.58,1173.59 2328.5,1173C 2326.96,1171.89 2326.3,1170.39 2326.5,1168.5C 2325.5,1168.5 2324.5,1168.5 2323.5,1168.5C 2323.34,1165.81 2323.5,1163.15 2324,1160.5C 2325.33,1158.34 2326.83,1156.34 2328.5,1154.5 Z"/></g>
<g><path style="opacity:1" fill="#f3f3f3" d="M 2328.5,1156.5 C 2331.69,1156.02 2334.52,1156.69 2337,1158.5C 2337.67,1161.83 2337.67,1165.17 2337,1168.5C 2334.53,1171.52 2331.53,1172.19 2328,1170.5C 2325.95,1165.62 2326.12,1160.95 2328.5,1156.5 Z"/></g>
<g><path style="opacity:1" fill="#9a9a9a" d="M 2399.5,1168.5 C 2399.83,1168.5 2400.17,1168.5 2400.5,1168.5C 2399.64,1176.6 2398.14,1184.6 2396,1192.5C 2393.98,1195.68 2391.81,1198.68 2389.5,1201.5C 2391.12,1197.39 2392.95,1193.39 2395,1189.5C 2396.31,1182.47 2397.81,1175.47 2399.5,1168.5 Z"/></g>
<g><path style="opacity:1" fill="#76933b" d="M 691.5,1180.5 C 709.094,1180.69 721.927,1188.36 730,1203.5C 732.144,1211.03 732.81,1218.7 732,1226.5C 729.461,1233.24 726.128,1239.58 722,1245.5C 696.665,1262.81 671.832,1280.98 647.5,1300C 642.608,1301.89 637.941,1304.23 633.5,1307C 618.653,1309.45 606.153,1305.28 596,1294.5C 593.333,1289.83 590.667,1285.17 588,1280.5C 583.669,1256.99 592.502,1240.82 614.5,1232C 617.384,1227.55 621.384,1224.55 626.5,1223C 633.491,1217.73 640.491,1212.56 647.5,1207.5C 649.653,1203.6 652.986,1201.44 657.5,1201C 661.556,1197.46 665.889,1194.3 670.5,1191.5C 671.58,1188.88 673.247,1186.71 675.5,1185C 680.918,1183.39 686.251,1181.89 691.5,1180.5 Z"/></g>
<g><path style="opacity:0.998" fill="#849b3a" d="M 1305.5,1527.5 C 1299.31,1557.87 1286.14,1584.87 1266,1608.5C 1254.54,1619.33 1242.71,1629.83 1230.5,1640C 1223.66,1644 1216.66,1647.67 1209.5,1651C 1207.83,1652 1206.5,1653.33 1205.5,1655C 1191.16,1661.46 1176.82,1668.12 1162.5,1675C 1146.25,1679.48 1129.92,1683.48 1113.5,1687C 1106.69,1690.45 1099.69,1693.45 1092.5,1696C 1089.64,1698.36 1086.64,1700.53 1083.5,1702.5C 1079.1,1706.63 1077.6,1711.63 1079,1717.5C 1082.42,1722.93 1086.59,1727.76 1091.5,1732C 1096.63,1733.82 1101.63,1735.82 1106.5,1738C 1108.47,1738.5 1110.47,1738.66 1112.5,1738.5C 1114.67,1740.08 1117.01,1741.58 1119.5,1743C 1132.26,1746.73 1145.26,1749.73 1158.5,1752C 1185.55,1753.58 1212.55,1755.74 1239.5,1758.5C 1254.79,1760.74 1270.12,1762.57 1285.5,1764C 1293.88,1765.79 1302.21,1767.79 1310.5,1770C 1318.28,1773.74 1325.11,1778.91 1331,1785.5C 1332.6,1788.3 1333.77,1791.3 1334.5,1794.5C 1336.21,1794.88 1337.21,1795.88 1337.5,1797.5C 1337.42,1802.62 1336.59,1807.62 1335,1812.5C 1328.55,1820.07 1320.38,1824.4 1310.5,1825.5C 1299.01,1826.59 1287.51,1827.59 1276,1828.5C 1249.43,1827.13 1222.93,1824.96 1196.5,1822C 1195.69,1821.69 1195.03,1821.19 1194.5,1820.5C 1177.53,1817.79 1160.53,1815.46 1143.5,1813.5C 1143.5,1812.5 1143.5,1811.5 1143.5,1810.5C 1134.54,1810.84 1125.87,1809.51 1117.5,1806.5C 1116.5,1806.83 1115.5,1807.17 1114.5,1807.5C 1122.28,1811.39 1130.28,1814.72 1138.5,1817.5C 1138.5,1818.5 1138.5,1819.5 1138.5,1820.5C 1143.63,1821.49 1148.63,1822.99 1153.5,1825C 1161.55,1829.69 1169.89,1833.86 1178.5,1837.5C 1178.5,1838.5 1178.5,1839.5 1178.5,1840.5C 1183,1841.41 1187.33,1842.91 1191.5,1845C 1194.55,1845.88 1196.89,1847.72 1198.5,1850.5C 1203.9,1852.87 1209.23,1855.2 1214.5,1857.5C 1214.5,1858.5 1214.5,1859.5 1214.5,1860.5C 1218.35,1861.61 1222.02,1863.28 1225.5,1865.5C 1226.85,1866.52 1227.52,1867.86 1227.5,1869.5C 1231.42,1869.41 1234.42,1871.07 1236.5,1874.5C 1237.73,1875.28 1239.06,1875.78 1240.5,1876C 1243.01,1879.34 1246.01,1882.18 1249.5,1884.5C 1250.39,1885.32 1250.72,1886.32 1250.5,1887.5C 1254.61,1888.75 1258.11,1891.08 1261,1894.5C 1262.18,1898.36 1264.52,1901.36 1268,1903.5C 1273.06,1914.55 1273.73,1925.89 1270,1937.5C 1263.1,1943.25 1255.1,1945.59 1246,1944.5C 1241.5,1944.17 1237,1943.83 1232.5,1943.5C 1224.52,1941.61 1216.52,1939.95 1208.5,1938.5C 1208.5,1937.5 1208.5,1936.5 1208.5,1935.5C 1199.8,1933.82 1191.47,1930.99 1183.5,1927C 1172.84,1922.18 1162.5,1916.68 1152.5,1910.5C 1150.95,1909.55 1149.29,1909.21 1147.5,1909.5C 1147.5,1908.5 1147.5,1907.5 1147.5,1906.5C 1140.97,1904.24 1134.64,1901.41 1128.5,1898C 1125.21,1894.5 1121.21,1892 1116.5,1890.5C 1115.15,1889.48 1114.48,1888.14 1114.5,1886.5C 1108.94,1885.05 1103.61,1883.05 1098.5,1880.5C 1098.52,1878.86 1097.85,1877.52 1096.5,1876.5C 1088.09,1871.82 1079.75,1867.16 1071.5,1862.5C 1073.08,1866.41 1075.74,1869.41 1079.5,1871.5C 1080.57,1873.98 1081.91,1876.32 1083.5,1878.5C 1088.63,1883.04 1093.63,1887.71 1098.5,1892.5C 1099.8,1894.33 1100.8,1896.33 1101.5,1898.5C 1105.79,1901.09 1108.79,1904.76 1110.5,1909.5C 1112.43,1911.05 1114.26,1912.72 1116,1914.5C 1117.22,1918.61 1119.22,1922.28 1122,1925.5C 1122.49,1926.79 1122.66,1928.13 1122.5,1929.5C 1123.5,1929.5 1124.5,1929.5 1125.5,1929.5C 1127.12,1934.76 1128.78,1940.09 1130.5,1945.5C 1131.66,1952.48 1131.83,1959.48 1131,1966.5C 1130.1,1968.63 1128.93,1970.63 1127.5,1972.5C 1125.95,1973.45 1124.29,1973.79 1122.5,1973.5C 1122.5,1974.5 1122.5,1975.5 1122.5,1976.5C 1117.5,1976.5 1112.5,1976.5 1107.5,1976.5C 1107.5,1975.5 1107.5,1974.5 1107.5,1973.5C 1105.47,1973.66 1103.47,1973.5 1101.5,1973C 1098.65,1971.41 1095.65,1970.08 1092.5,1969C 1082.31,1961.95 1072.31,1954.79 1062.5,1947.5C 1062.52,1945.86 1061.85,1944.52 1060.5,1943.5C 1057.57,1942.23 1054.9,1940.56 1052.5,1938.5C 1030.5,1915.34 1008,1892.67 985,1870.5C 984.781,1869.06 984.281,1867.73 983.5,1866.5C 977.938,1861.24 972.438,1855.91 967,1850.5C 962.098,1843.09 956.265,1836.43 949.5,1830.5C 947.094,1826.79 944.761,1823.12 942.5,1819.5C 940.133,1818.84 938.133,1817.5 936.5,1815.5C 932.374,1818.53 928.707,1822.03 925.5,1826C 924.062,1826.22 922.729,1826.72 921.5,1827.5C 917.797,1833.29 912.797,1837.29 906.5,1839.5C 906.5,1840.5 906.5,1841.5 906.5,1842.5C 902.462,1844.36 899.128,1847.19 896.5,1851C 893.171,1851.82 890.505,1853.66 888.5,1856.5C 886.955,1857.45 885.288,1857.79 883.5,1857.5C 882.028,1861.76 879.028,1864.42 874.5,1865.5C 868.705,1871.06 862.039,1875.06 854.5,1877.5C 854.5,1878.5 854.5,1879.5 854.5,1880.5C 848.616,1882.78 842.95,1885.61 837.5,1889C 827.793,1892.96 817.793,1895.12 807.5,1895.5C 801.649,1895.45 795.983,1894.45 790.5,1892.5C 784.76,1888.52 781.76,1883.02 781.5,1876C 782.248,1869.97 783.748,1864.13 786,1858.5C 786.908,1856.56 788.408,1855.56 790.5,1855.5C 790.238,1854.02 790.571,1852.69 791.5,1851.5C 799.365,1843.2 807.365,1835.04 815.5,1827C 822,1822.33 828.333,1817.49 834.5,1812.5C 836.045,1811.55 837.712,1811.21 839.5,1811.5C 840.972,1807.24 843.972,1804.58 848.5,1803.5C 854.238,1797.96 860.905,1793.96 868.5,1791.5C 868.561,1789.41 869.561,1787.91 871.5,1787C 876.012,1785.92 879.678,1783.58 882.5,1780C 889.286,1777.19 895.619,1773.69 901.5,1769.5C 892.9,1762.9 884.9,1755.57 877.5,1747.5C 872.891,1745.56 869.558,1742.22 867.5,1737.5C 860.758,1731.09 854.425,1724.43 848.5,1717.5C 850.786,1716.66 851.119,1715.16 849.5,1713C 842.591,1704.8 836.091,1696.3 830,1687.5C 828.597,1682.96 826.264,1678.96 823,1675.5C 822.506,1673.87 822.34,1672.2 822.5,1670.5C 821.5,1670.5 820.5,1670.5 819.5,1670.5C 816.747,1663.38 814.414,1656.05 812.5,1648.5C 810.066,1636.96 808.899,1625.29 809,1613.5C 809.458,1605.7 812.625,1599.2 818.5,1594C 820.135,1590.92 821.468,1587.75 822.5,1584.5C 818.818,1584.67 815.152,1584.5 811.5,1584C 808.833,1582.67 806.167,1581.33 803.5,1580C 795.36,1571.86 787.194,1563.69 779,1555.5C 778.667,1554.5 778.333,1553.5 778,1552.5C 772.038,1544.87 765.704,1537.54 759,1530.5C 754.513,1522 749.18,1514 743,1506.5C 741.213,1500.72 737.879,1496.05 733,1492.5C 729.311,1487.8 726.978,1482.46 726,1476.5C 722.723,1469.87 719.389,1463.2 716,1456.5C 714.455,1448.67 712.122,1441 709,1433.5C 704.464,1400.24 705.964,1367.24 713.5,1334.5C 717.863,1325.25 721.363,1315.59 724,1305.5C 728.895,1297.83 733.228,1289.83 737,1281.5C 745.578,1269.75 754.745,1258.41 764.5,1247.5C 795.431,1218.36 831.764,1199.2 873.5,1190C 884.812,1188.17 896.145,1186.17 907.5,1184C 965.341,1178.78 1021.01,1186.78 1074.5,1208C 1076.81,1208.5 1079.14,1208.66 1081.5,1208.5C 1081.5,1209.5 1081.5,1210.5 1081.5,1211.5C 1084.55,1212.04 1087.55,1212.87 1090.5,1214C 1096.6,1218.24 1103.27,1221.41 1110.5,1223.5C 1119.18,1229.75 1128.51,1235.08 1138.5,1239.5C 1193.91,1272.74 1239.08,1316.74 1274,1371.5C 1276.54,1379.14 1280.21,1386.14 1285,1392.5C 1295.71,1417.64 1303.05,1443.97 1307,1471.5C 1307.94,1490.22 1307.44,1508.89 1305.5,1527.5 Z M 1065.5,1857.5 C 1064.32,1857.72 1063.32,1857.39 1062.5,1856.5C 1064.05,1855.2 1065.05,1855.54 1065.5,1857.5 Z M 1065.5,1857.5 C 1067.12,1858.12 1068.45,1859.12 1069.5,1860.5C 1067.38,1860.53 1066.05,1859.53 1065.5,1857.5 Z M 1069.5,1860.5 C 1070.83,1860.5 1071.5,1861.17 1071.5,1862.5C 1071.5,1861.17 1070.83,1860.5 1069.5,1860.5 Z"/></g>
<g><path style="opacity:1" fill="#707070" d="M 2389.5,1201.5 C 2388.01,1205.67 2385.34,1209.01 2381.5,1211.5C 2383.11,1208.87 2384.78,1206.2 2386.5,1203.5C 2387.36,1202.57 2388.36,1201.91 2389.5,1201.5 Z"/></g>
<g><path style="opacity:1" fill="#898989" d="M 2296.5,1193.5 C 2301.22,1203.57 2307.56,1212.57 2315.5,1220.5C 2311.26,1217.77 2307.43,1214.44 2304,1210.5C 2302.01,1206.01 2299.68,1201.68 2297,1197.5C 2296.51,1196.21 2296.34,1194.87 2296.5,1193.5 Z"/></g>
<g><path style="opacity:1" fill="#979797" d="M 2379.5,1213.5 C 2376.32,1220.68 2370.99,1225.35 2363.5,1227.5C 2364.17,1226.5 2364.83,1225.5 2365.5,1224.5C 2370.45,1221.21 2375.12,1217.55 2379.5,1213.5 Z"/></g>
<g><path style="opacity:1" fill="#76933b" d="M 1323.5,1222.5 C 1330.84,1222.33 1338.17,1222.5 1345.5,1223C 1347.38,1223.22 1349.05,1223.88 1350.5,1225C 1379.1,1226.27 1407.27,1229.77 1435,1235.5C 1440.23,1239.2 1445.73,1242.53 1451.5,1245.5C 1458.81,1257.07 1461.31,1269.73 1459,1283.5C 1457.05,1286.26 1455.88,1289.26 1455.5,1292.5C 1451.73,1293.31 1449.23,1295.64 1448,1299.5C 1446.13,1301.71 1443.96,1303.54 1441.5,1305C 1434.82,1307.17 1427.98,1308.67 1421,1309.5C 1388.35,1305.95 1355.85,1301.45 1323.5,1296C 1304.42,1287.02 1296.42,1271.85 1299.5,1250.5C 1302.2,1244.53 1305.37,1238.86 1309,1233.5C 1313.48,1229.17 1318.31,1225.5 1323.5,1222.5 Z"/></g>
<g><path style="opacity:1" fill="#414141" d="M 2365.5,1224.5 C 2364.83,1225.5 2364.17,1226.5 2363.5,1227.5C 2353.83,1231.03 2343.83,1232.03 2333.5,1230.5C 2330.05,1229.9 2327.05,1228.57 2324.5,1226.5C 2330.63,1228.05 2336.96,1228.71 2343.5,1228.5C 2351.23,1228.77 2358.57,1227.44 2365.5,1224.5 Z"/></g>
<g><path style="opacity:1" fill="#f4ed32" d="M 2247.5,1229.5 C 2255.17,1230.17 2262.83,1230.83 2270.5,1231.5C 2276.18,1232.15 2281.84,1232.98 2287.5,1234C 2291.91,1236.37 2296.57,1237.87 2301.5,1238.5C 2308.51,1242.79 2315.85,1246.79 2323.5,1250.5C 2326.77,1253.27 2329.94,1256.27 2333,1259.5C 2334.12,1261.77 2334.95,1264.1 2335.5,1266.5C 2335.5,1270.5 2335.5,1274.5 2335.5,1278.5C 2332.79,1281.72 2329.79,1284.88 2326.5,1288C 2302.25,1298.15 2276.92,1301.48 2250.5,1298C 2232.68,1295.08 2215.34,1290.75 2198.5,1285C 2191.92,1281.12 2185.76,1276.62 2180,1271.5C 2178.37,1268.52 2176.7,1265.52 2175,1262.5C 2174.42,1255.54 2176.26,1249.2 2180.5,1243.5C 2188.29,1237.12 2197.29,1233.28 2207.5,1232C 2220.75,1230.05 2234.08,1229.22 2247.5,1229.5 Z"/></g>
<g><path style="opacity:1" fill="#faf7b5" d="M 2246.5,1225.5 C 2248.05,1225.82 2248.71,1226.82 2248.5,1228.5C 2254.18,1228.33 2259.84,1228.5 2265.5,1229C 2267.74,1229.05 2269.41,1229.88 2270.5,1231.5C 2262.83,1230.83 2255.17,1230.17 2247.5,1229.5C 2247.5,1229.17 2247.5,1228.83 2247.5,1228.5C 2247.44,1227.39 2247.11,1226.39 2246.5,1225.5 Z"/></g>
<g><path style="opacity:1" fill="#fbf8b8" d="M 2301.5,1238.5 C 2303.8,1239.06 2306.13,1239.56 2308.5,1240C 2311.96,1243.26 2315.96,1245.6 2320.5,1247C 2321.71,1248.04 2322.71,1249.21 2323.5,1250.5C 2315.85,1246.79 2308.51,1242.79 2301.5,1238.5 Z"/></g>
<g><path style="opacity:1" fill="#f4ed31" d="M 2089.5,1256.5 C 2095.67,1256.2 2101.01,1258.03 2105.5,1262C 2133.14,1273.59 2157.64,1290.09 2179,1311.5C 2180.15,1315.32 2182.65,1317.65 2186.5,1318.5C 2188.73,1324.23 2192.23,1329.23 2197,1333.5C 2198,1335.83 2199,1338.17 2200,1340.5C 2203.03,1343.9 2204.86,1347.9 2205.5,1352.5C 2206.5,1352.5 2207.5,1352.5 2208.5,1352.5C 2212.16,1362.62 2216.32,1372.62 2221,1382.5C 2224.04,1392.73 2226.54,1403.06 2228.5,1413.5C 2235.08,1460.82 2226.75,1504.99 2203.5,1546C 2202.92,1547.81 2202.42,1549.64 2202,1551.5C 2189.74,1567.45 2176.24,1582.62 2161.5,1597C 2155.51,1601.33 2149.51,1605.66 2143.5,1610C 2142.55,1610.48 2141.55,1610.65 2140.5,1610.5C 2140.44,1612.59 2139.44,1614.09 2137.5,1615C 2129.51,1619.65 2121.51,1624.32 2113.5,1629C 2086.35,1638.88 2058.18,1644.05 2029,1644.5C 2023.83,1644.17 2018.67,1643.83 2013.5,1643.5C 1996.68,1640.88 1980.01,1637.88 1963.5,1634.5C 1963.5,1633.5 1963.5,1632.5 1963.5,1631.5C 1958.23,1629.85 1952.9,1628.52 1947.5,1627.5C 1947.72,1626.32 1947.39,1625.32 1946.5,1624.5C 1932.05,1617.77 1918.71,1609.27 1906.5,1599C 1905.55,1598.52 1904.55,1598.35 1903.5,1598.5C 1903.65,1597.45 1903.48,1596.45 1903,1595.5C 1892.17,1586.68 1882.84,1576.68 1875,1565.5C 1872.67,1563.17 1870.33,1560.83 1868,1558.5C 1863.37,1547.23 1857.7,1536.56 1851,1526.5C 1847.68,1515.5 1844.02,1504.5 1840,1493.5C 1834.82,1464.28 1834.32,1434.94 1838.5,1405.5C 1839.79,1400 1840.95,1394.33 1842,1388.5C 1855.33,1347.21 1879.5,1313.54 1914.5,1287.5C 1916.32,1286.27 1917.32,1284.61 1917.5,1282.5C 1920.23,1281.97 1922.9,1281.14 1925.5,1280C 1928.83,1277 1932.17,1274 1935.5,1271C 1950.17,1265.06 1964.84,1259.4 1979.5,1254C 1985.57,1253.47 1991.57,1252.64 1997.5,1251.5C 2017.81,1250.38 2038.14,1250.21 2058.5,1251C 2068.96,1252.26 2079.29,1254.09 2089.5,1256.5 Z"/></g>
<g><path style="opacity:1" fill="#ccd835" d="M 2089.5,1256.5 C 2079.29,1254.09 2068.96,1252.26 2058.5,1251C 2038.14,1250.21 2017.81,1250.38 1997.5,1251.5C 1997.41,1250.5 1997.75,1249.67 1998.5,1249C 2020.17,1247.08 2041.84,1247.08 2063.5,1249C 2072.77,1250.31 2081.44,1252.81 2089.5,1256.5 Z"/></g>
<g><path style="opacity:1" fill="#ccde93" d="M 2335.5,1266.5 C 2336.67,1267.5 2337.33,1268.83 2337.5,1270.5C 2336.78,1272.78 2336.44,1275.12 2336.5,1277.5C 2352.35,1278.58 2367.35,1275.92 2381.5,1269.5C 2379.72,1270.67 2378.72,1272.34 2378.5,1274.5C 2371.08,1275.01 2363.74,1276.51 2356.5,1279C 2349.32,1279.82 2342.32,1279.65 2335.5,1278.5C 2335.5,1274.5 2335.5,1270.5 2335.5,1266.5 Z"/></g>
<g><path style="opacity:0.996" fill="#839b3a" d="M 1722.5,1526.5 C 1721.76,1526.37 1721.09,1526.54 1720.5,1527C 1708.84,1540.01 1698.67,1554.18 1690,1569.5C 1688.86,1574.46 1688.03,1579.46 1687.5,1584.5C 1688.06,1593.94 1690.22,1602.94 1694,1611.5C 1701.27,1623.26 1709.6,1634.26 1719,1644.5C 1722.03,1648.7 1724.86,1653.03 1727.5,1657.5C 1731.69,1659.54 1734.19,1662.87 1735,1667.5C 1742.34,1675.52 1749.67,1683.52 1757,1691.5C 1762.94,1700.96 1767.94,1710.96 1772,1721.5C 1772.5,1729.16 1772.67,1736.83 1772.5,1744.5C 1776.2,1746.09 1780.2,1746.92 1784.5,1747C 1834.22,1750.29 1883.55,1755.96 1932.5,1764C 1942.13,1766.57 1951.8,1768.74 1961.5,1770.5C 1970.75,1773.46 1979.75,1776.96 1988.5,1781C 1990.68,1783.02 1992.68,1785.18 1994.5,1787.5C 1995.74,1788.25 1997.07,1788.58 1998.5,1788.5C 1998.5,1789.5 1998.5,1790.5 1998.5,1791.5C 1999.5,1791.5 2000.5,1791.5 2001.5,1791.5C 2001.67,1794.85 2001.5,1798.18 2001,1801.5C 1999.11,1802.62 1998.27,1804.28 1998.5,1806.5C 1995.99,1806.42 1993.99,1807.42 1992.5,1809.5C 1990.26,1810.47 1987.92,1810.81 1985.5,1810.5C 1985.5,1811.5 1985.5,1812.5 1985.5,1813.5C 1966.31,1816.42 1946.98,1817.76 1927.5,1817.5C 1898.46,1816.81 1869.46,1815.47 1840.5,1813.5C 1840.5,1812.5 1840.5,1811.5 1840.5,1810.5C 1820.23,1809.64 1800.06,1807.64 1780,1804.5C 1778.5,1804.83 1777,1805.17 1775.5,1805.5C 1778.25,1807.34 1781.25,1808.34 1784.5,1808.5C 1784.5,1809.5 1784.5,1810.5 1784.5,1811.5C 1791.35,1813.05 1798.02,1815.05 1804.5,1817.5C 1804.5,1818.5 1804.5,1819.5 1804.5,1820.5C 1811.83,1823.17 1819.17,1825.83 1826.5,1828.5C 1826.5,1829.5 1826.5,1830.5 1826.5,1831.5C 1828.29,1831.21 1829.95,1831.55 1831.5,1832.5C 1840.03,1836.07 1848.03,1840.4 1855.5,1845.5C 1857.05,1846.45 1858.71,1846.79 1860.5,1846.5C 1860.5,1847.5 1860.5,1848.5 1860.5,1849.5C 1865.44,1851.64 1870.44,1853.8 1875.5,1856C 1879.64,1859.91 1884.31,1863.07 1889.5,1865.5C 1890.85,1866.52 1891.52,1867.86 1891.5,1869.5C 1893.29,1869.21 1894.95,1869.55 1896.5,1870.5C 1907.29,1878.23 1917.29,1886.9 1926.5,1896.5C 1927.34,1898.84 1928.67,1900.84 1930.5,1902.5C 1931.45,1904.05 1931.79,1905.71 1931.5,1907.5C 1932.5,1907.5 1933.5,1907.5 1934.5,1907.5C 1937.17,1916.83 1937.17,1926.17 1934.5,1935.5C 1933.5,1935.5 1932.5,1935.5 1931.5,1935.5C 1930.9,1938.77 1928.9,1940.77 1925.5,1941.5C 1914.17,1942.83 1902.83,1942.83 1891.5,1941.5C 1886.57,1940.02 1881.57,1939.02 1876.5,1938.5C 1876.5,1937.5 1876.5,1936.5 1876.5,1935.5C 1869.1,1933.64 1861.77,1931.48 1854.5,1929C 1842.87,1923.42 1831.53,1917.25 1820.5,1910.5C 1818.95,1909.55 1817.29,1909.21 1815.5,1909.5C 1815.5,1908.5 1815.5,1907.5 1815.5,1906.5C 1808.86,1904.42 1802.52,1901.58 1796.5,1898C 1792.9,1894.91 1788.9,1892.41 1784.5,1890.5C 1783.15,1889.48 1782.48,1888.14 1782.5,1886.5C 1780.71,1886.79 1779.05,1886.45 1777.5,1885.5C 1774.27,1883.43 1770.94,1881.59 1767.5,1880C 1766.69,1878.69 1765.69,1877.52 1764.5,1876.5C 1760.6,1874.93 1756.93,1872.93 1753.5,1870.5C 1752.15,1869.48 1751.48,1868.14 1751.5,1866.5C 1747.56,1865.74 1743.89,1864.24 1740.5,1862C 1738.56,1861.09 1737.56,1859.59 1737.5,1857.5C 1735.07,1857.12 1732.74,1856.45 1730.5,1855.5C 1746.38,1872.74 1761.71,1890.74 1776.5,1909.5C 1777.8,1911.76 1778.8,1914.09 1779.5,1916.5C 1780.5,1916.5 1781.5,1916.5 1782.5,1916.5C 1785.16,1921.15 1787.16,1926.15 1788.5,1931.5C 1789.5,1931.5 1790.5,1931.5 1791.5,1931.5C 1794.26,1939.08 1796.26,1946.91 1797.5,1955C 1796.88,1959.8 1795.38,1964.3 1793,1968.5C 1783.33,1972.19 1773.83,1971.52 1764.5,1966.5C 1760.1,1962.63 1755.1,1959.8 1749.5,1958C 1746.46,1953.64 1742.46,1950.48 1737.5,1948.5C 1736.15,1947.48 1735.48,1946.14 1735.5,1944.5C 1732.41,1944.09 1729.74,1942.76 1727.5,1940.5C 1725.68,1939.27 1724.68,1937.61 1724.5,1935.5C 1721.55,1933.91 1718.55,1932.24 1715.5,1930.5C 1708.83,1923.83 1702.17,1917.17 1695.5,1910.5C 1694.68,1909.61 1693.68,1909.28 1692.5,1909.5C 1692.72,1908.32 1692.39,1907.32 1691.5,1906.5C 1685.5,1901.83 1680.17,1896.5 1675.5,1890.5C 1674.68,1889.61 1673.68,1889.28 1672.5,1889.5C 1670.83,1885.17 1667.83,1882.17 1663.5,1880.5C 1654.96,1869.79 1645.46,1859.79 1635,1850.5C 1632.99,1846.68 1630.83,1843.01 1628.5,1839.5C 1627.32,1839.72 1626.32,1839.39 1625.5,1838.5C 1618.98,1833.11 1613.65,1826.78 1609.5,1819.5C 1607.33,1817.83 1605.16,1816.16 1603,1814.5C 1591.97,1822.69 1580.81,1830.69 1569.5,1838.5C 1568.31,1839.43 1566.98,1839.76 1565.5,1839.5C 1565.44,1841.59 1564.44,1843.09 1562.5,1844C 1555.56,1847.68 1548.89,1851.85 1542.5,1856.5C 1541.31,1857.43 1539.98,1857.76 1538.5,1857.5C 1538.44,1859.59 1537.44,1861.09 1535.5,1862C 1525.03,1867.74 1514.69,1873.74 1504.5,1880C 1500.18,1881.83 1495.84,1883.66 1491.5,1885.5C 1489.26,1886.47 1486.92,1886.81 1484.5,1886.5C 1484.5,1887.5 1484.5,1888.5 1484.5,1889.5C 1477.83,1891.2 1471,1892.54 1464,1893.5C 1459.04,1893.58 1454.54,1892.24 1450.5,1889.5C 1449.17,1884.83 1449.17,1880.17 1450.5,1875.5C 1452.39,1870.84 1454.73,1866.5 1457.5,1862.5C 1464.94,1853.22 1472.94,1844.39 1481.5,1836C 1482.98,1835.02 1484.31,1833.85 1485.5,1832.5C 1486.69,1831.57 1488.02,1831.24 1489.5,1831.5C 1489.28,1830.32 1489.61,1829.32 1490.5,1828.5C 1495.33,1824.84 1499.66,1820.67 1503.5,1816C 1509.23,1812.72 1514.23,1808.55 1518.5,1803.5C 1520.05,1802.55 1521.71,1802.21 1523.5,1802.5C 1523.83,1800.68 1524.5,1799.01 1525.5,1797.5C 1528.25,1797.81 1530.91,1797.48 1533.5,1796.5C 1538.27,1792.24 1542.93,1787.74 1547.5,1783C 1552.61,1780.05 1557.28,1776.55 1561.5,1772.5C 1563.93,1770.95 1566.6,1770.28 1569.5,1770.5C 1569.5,1768.5 1569.5,1766.5 1569.5,1764.5C 1568.45,1764.65 1567.45,1764.48 1566.5,1764C 1547.27,1745.43 1528.77,1726.27 1511,1706.5C 1509.56,1703.95 1508.39,1701.29 1507.5,1698.5C 1502.47,1693.63 1497.97,1688.3 1494,1682.5C 1487.86,1671.32 1480.86,1660.65 1473,1650.5C 1462.43,1630.78 1452.77,1610.78 1444,1590.5C 1441.85,1579.99 1438.85,1569.99 1435,1560.5C 1434.85,1552.08 1434.02,1543.74 1432.5,1535.5C 1432.27,1516.45 1433.1,1497.45 1435,1478.5C 1437.62,1469.65 1439.62,1460.65 1441,1451.5C 1445.09,1442.36 1448.92,1433.36 1452.5,1424.5C 1453.5,1424.5 1454.5,1424.5 1455.5,1424.5C 1459.71,1415.05 1464.21,1405.72 1469,1396.5C 1471.15,1393 1473.82,1390 1477,1387.5C 1478.47,1384.08 1480.14,1380.75 1482,1377.5C 1492.64,1366.02 1503.14,1354.35 1513.5,1342.5C 1536.66,1322.13 1561.99,1305.3 1589.5,1292C 1595.46,1290.73 1601.13,1288.73 1606.5,1286C 1625.01,1281.35 1643.85,1278.19 1663,1276.5C 1675.55,1277.82 1688.05,1279.32 1700.5,1281C 1708.25,1282.43 1715.25,1285.43 1721.5,1290C 1724.17,1290.67 1726.83,1291.33 1729.5,1292C 1750.85,1303.31 1770.35,1317.48 1788,1334.5C 1801.21,1350.65 1809.87,1368.99 1814,1389.5C 1814.67,1400.5 1814.67,1411.5 1814,1422.5C 1812.59,1425.62 1812.09,1428.95 1812.5,1432.5C 1811.5,1432.5 1810.5,1432.5 1809.5,1432.5C 1807.41,1442.35 1802.91,1451.02 1796,1458.5C 1778.88,1473.99 1762.05,1489.82 1745.5,1506C 1744.5,1506.33 1743.5,1506.67 1742.5,1507C 1738.13,1512.7 1733.13,1517.7 1727.5,1522C 1725.98,1523.01 1724.31,1523.51 1722.5,1523.5C 1722.5,1524.5 1722.5,1525.5 1722.5,1526.5 Z M 1730.5,1855.5 C 1728.66,1855.36 1728.33,1854.69 1729.5,1853.5C 1730.3,1853.96 1730.63,1854.62 1730.5,1855.5 Z"/></g>
<g><path style="opacity:0.966" fill="#ce2333" d="M 463.5,1284.5 C 462.962,1286.12 462.629,1287.78 462.5,1289.5C 459.223,1292.27 456.056,1295.27 453,1298.5C 448.723,1305.38 443.723,1311.71 438,1317.5C 437.209,1318.74 436.709,1320.08 436.5,1321.5C 432.885,1324.7 429.718,1328.36 427,1332.5C 425.036,1338.3 421.203,1342.3 415.5,1344.5C 415.389,1343.88 415.056,1343.38 414.5,1343C 410.179,1342.5 405.846,1342.33 401.5,1342.5C 401.5,1341.5 401.5,1340.5 401.5,1339.5C 383.125,1339.01 374.958,1329.68 377,1311.5C 379.808,1306.69 383.642,1302.86 388.5,1300C 396.47,1296.82 404.47,1293.82 412.5,1291C 429.411,1288.04 446.411,1285.88 463.5,1284.5 Z"/></g>
<g><path style="opacity:0.999" fill="#b7d131" d="M 2682.5,1285.5 C 2684.19,1290.99 2684.85,1296.66 2684.5,1302.5C 2685.5,1302.5 2686.5,1302.5 2687.5,1302.5C 2690.51,1321.62 2692.51,1340.95 2693.5,1360.5C 2694.5,1360.5 2695.5,1360.5 2696.5,1360.5C 2696.5,1376.03 2697.17,1391.53 2698.5,1407C 2697.46,1420.82 2696.63,1434.66 2696,1448.5C 2695.59,1448.96 2695.09,1449.29 2694.5,1449.5C 2692.46,1462.91 2690.12,1476.24 2687.5,1489.5C 2686.5,1489.5 2685.5,1489.5 2684.5,1489.5C 2684.66,1491.53 2684.5,1493.53 2684,1495.5C 2679.58,1506.01 2674.42,1516.01 2668.5,1525.5C 2665.93,1527.22 2663.59,1529.22 2661.5,1531.5C 2660.03,1536.64 2656.7,1539.64 2651.5,1540.5C 2651.72,1541.68 2651.39,1542.68 2650.5,1543.5C 2643.29,1549.26 2635.96,1554.76 2628.5,1560C 2627.21,1560.49 2625.87,1560.66 2624.5,1560.5C 2624.44,1562.59 2623.44,1564.09 2621.5,1565C 2615.23,1566.97 2609.23,1569.3 2603.5,1572C 2599.55,1573.15 2595.55,1573.99 2591.5,1574.5C 2589.03,1574.91 2587.69,1573.91 2587.5,1571.5C 2565.31,1570.74 2542.98,1569.74 2520.5,1568.5C 2491.1,1566.55 2462.77,1560.55 2435.5,1550.5C 2427.69,1545.76 2419.35,1541.76 2410.5,1538.5C 2408.01,1535.33 2404.67,1533.66 2400.5,1533.5C 2400.5,1532.5 2400.5,1531.5 2400.5,1530.5C 2397.75,1529.29 2395.08,1527.79 2392.5,1526C 2390.67,1524.89 2389.84,1523.39 2390,1521.5C 2395.39,1518.31 2400.39,1514.65 2405,1510.5C 2407.58,1508.98 2410.41,1508.15 2413.5,1508C 2417.9,1505.42 2419.57,1501.59 2418.5,1496.5C 2415.53,1495.67 2412.53,1495.5 2409.5,1496C 2403.7,1497.82 2398.36,1500.49 2393.5,1504C 2387.63,1509.21 2381.79,1514.38 2376,1519.5C 2373.42,1522.73 2371.92,1526.39 2371.5,1530.5C 2370.54,1530.95 2369.71,1531.62 2369,1532.5C 2368.03,1540.34 2368.7,1548 2371,1555.5C 2371.71,1556.38 2372.54,1557.05 2373.5,1557.5C 2374.97,1557.89 2376.47,1558.23 2378,1558.5C 2379.7,1558.61 2380.87,1557.95 2381.5,1556.5C 2382.95,1555.87 2383.61,1554.7 2383.5,1553C 2381.6,1546.55 2381.27,1540.05 2382.5,1533.5C 2390.78,1539.32 2399.12,1545.15 2407.5,1551C 2411.47,1552.6 2415.47,1554.1 2419.5,1555.5C 2420.99,1557.62 2422.99,1559.12 2425.5,1560C 2434.35,1561.59 2442.68,1564.59 2450.5,1569C 2463.25,1572.73 2476.25,1575.73 2489.5,1578C 2504.8,1579.55 2520.13,1580.89 2535.5,1582C 2550.83,1582.5 2566.16,1582.67 2581.5,1582.5C 2582.61,1582.56 2583.61,1582.89 2584.5,1583.5C 2583.28,1585.28 2582.61,1587.28 2582.5,1589.5C 2581.5,1589.5 2580.5,1589.5 2579.5,1589.5C 2578.96,1593.92 2577.29,1597.92 2574.5,1601.5C 2569.58,1608.37 2563.58,1614.03 2556.5,1618.5C 2555.61,1619.32 2555.28,1620.32 2555.5,1621.5C 2552.09,1622.37 2549.09,1624.04 2546.5,1626.5C 2544.95,1627.45 2543.29,1627.79 2541.5,1627.5C 2541.5,1628.5 2541.5,1629.5 2541.5,1630.5C 2533.71,1632.95 2526.38,1636.28 2519.5,1640.5C 2510.68,1643.64 2501.68,1645.97 2492.5,1647.5C 2492.5,1648.5 2492.5,1649.5 2492.5,1650.5C 2479.79,1652.47 2467.13,1654.8 2454.5,1657.5C 2454.29,1658.09 2453.96,1658.59 2453.5,1659C 2434.52,1661.61 2415.52,1664.11 2396.5,1666.5C 2396.29,1667.09 2395.96,1667.59 2395.5,1668C 2372.87,1670.1 2350.2,1671.6 2327.5,1672.5C 2251.23,1672.81 2174.9,1672.15 2098.5,1670.5C 2060.34,1668.93 2022.67,1672.43 1985.5,1681C 1977.52,1684.62 1969.19,1686.95 1960.5,1688C 1952.23,1691.66 1943.57,1693.66 1934.5,1694C 1929.98,1695.76 1925.64,1697.76 1921.5,1700C 1909.11,1702.01 1897.45,1706.01 1886.5,1712C 1870.75,1715.77 1855.41,1720.77 1840.5,1727C 1818.07,1734.08 1795.4,1739.91 1772.5,1744.5C 1772.67,1736.83 1772.5,1729.16 1772,1721.5C 1767.94,1710.96 1762.94,1700.96 1757,1691.5C 1749.67,1683.52 1742.34,1675.52 1735,1667.5C 1734.19,1662.87 1731.69,1659.54 1727.5,1657.5C 1724.86,1653.03 1722.03,1648.7 1719,1644.5C 1709.6,1634.26 1701.27,1623.26 1694,1611.5C 1690.22,1602.94 1688.06,1593.94 1687.5,1584.5C 1688.03,1579.46 1688.86,1574.46 1690,1569.5C 1698.67,1554.18 1708.84,1540.01 1720.5,1527C 1721.09,1526.54 1721.76,1526.37 1722.5,1526.5C 1724.2,1526.31 1725.53,1525.48 1726.5,1524C 1735.23,1522.72 1743.9,1521.05 1752.5,1519C 1757.93,1516.32 1763.59,1514.49 1769.5,1513.5C 1769.28,1512.32 1769.61,1511.32 1770.5,1510.5C 1776.37,1508.42 1782.04,1505.92 1787.5,1503C 1793.58,1497.33 1800.25,1492.5 1807.5,1488.5C 1808.39,1487.68 1808.72,1486.68 1808.5,1485.5C 1817.35,1480.83 1825.85,1475.5 1834,1469.5C 1833.86,1448.38 1834.86,1427.38 1837,1406.5C 1837.38,1405.94 1837.88,1405.61 1838.5,1405.5C 1834.32,1434.94 1834.82,1464.28 1840,1493.5C 1844.02,1504.5 1847.68,1515.5 1851,1526.5C 1857.7,1536.56 1863.37,1547.23 1868,1558.5C 1870.33,1560.83 1872.67,1563.17 1875,1565.5C 1882.84,1576.68 1892.17,1586.68 1903,1595.5C 1903.48,1596.45 1903.65,1597.45 1903.5,1598.5C 1904.55,1598.35 1905.55,1598.52 1906.5,1599C 1918.71,1609.27 1932.05,1617.77 1946.5,1624.5C 1947.39,1625.32 1947.72,1626.32 1947.5,1627.5C 1952.9,1628.52 1958.23,1629.85 1963.5,1631.5C 1963.5,1632.5 1963.5,1633.5 1963.5,1634.5C 1980.01,1637.88 1996.68,1640.88 2013.5,1643.5C 2018.67,1643.83 2023.83,1644.17 2029,1644.5C 2058.18,1644.05 2086.35,1638.88 2113.5,1629C 2121.51,1624.32 2129.51,1619.65 2137.5,1615C 2139.44,1614.09 2140.44,1612.59 2140.5,1610.5C 2141.55,1610.65 2142.55,1610.48 2143.5,1610C 2149.51,1605.66 2155.51,1601.33 2161.5,1597C 2176.24,1582.62 2189.74,1567.45 2202,1551.5C 2202.42,1549.64 2202.92,1547.81 2203.5,1546C 2226.75,1504.99 2235.08,1460.82 2228.5,1413.5C 2241.51,1415.87 2254.18,1419.37 2266.5,1424C 2286.03,1425.37 2305.36,1428.03 2324.5,1432C 2333.54,1432.24 2342.54,1432.9 2351.5,1434C 2407.84,1439.13 2462.18,1431.79 2514.5,1412C 2527.73,1405.35 2541.06,1398.69 2554.5,1392C 2565.05,1384.24 2575.72,1376.74 2586.5,1369.5C 2593.75,1363.62 2600.75,1357.45 2607.5,1351C 2610.07,1350.1 2612.4,1348.77 2614.5,1347C 2617.12,1343.04 2620.12,1339.38 2623.5,1336C 2626.95,1335.05 2629.28,1332.89 2630.5,1329.5C 2645.94,1314.9 2661.6,1300.4 2677.5,1286C 2679.13,1285.51 2680.8,1285.34 2682.5,1285.5 Z"/></g>
<g><path style="opacity:1" fill="#b18337" d="M 462.5,1289.5 C 454.182,1300.48 445.515,1311.15 436.5,1321.5C 436.709,1320.08 437.209,1318.74 438,1317.5C 443.723,1311.71 448.723,1305.38 453,1298.5C 456.056,1295.27 459.223,1292.27 462.5,1289.5 Z"/></g>
<g><path style="opacity:0.998" fill="#126d38" d="M 2410.5,1538.5 C 2416.33,1542.14 2422.33,1545.64 2428.5,1549C 2430.87,1549.44 2433.2,1549.94 2435.5,1550.5C 2462.77,1560.55 2491.1,1566.55 2520.5,1568.5C 2525.29,1569.73 2530.29,1570.56 2535.5,1571C 2552.83,1571.5 2570.16,1571.67 2587.5,1571.5C 2587.69,1573.91 2589.03,1574.91 2591.5,1574.5C 2591.5,1576.5 2591.5,1578.5 2591.5,1580.5C 2590.5,1580.5 2589.5,1580.5 2588.5,1580.5C 2588.5,1581.5 2588.5,1582.5 2588.5,1583.5C 2587.17,1583.5 2585.83,1583.5 2584.5,1583.5C 2583.61,1582.89 2582.61,1582.56 2581.5,1582.5C 2552.9,1581.79 2524.23,1579.95 2495.5,1577C 2481.07,1573.12 2466.4,1570.12 2451.5,1568C 2445.93,1563.72 2439.6,1561.39 2432.5,1561C 2428.07,1559.41 2423.74,1557.58 2419.5,1555.5C 2415.47,1554.1 2411.47,1552.6 2407.5,1551C 2399.12,1545.15 2390.78,1539.32 2382.5,1533.5C 2380.24,1535.76 2379.24,1538.59 2379.5,1542C 2381.07,1546.63 2381.74,1551.46 2381.5,1556.5C 2380.87,1557.95 2379.7,1558.61 2378,1558.5C 2376.47,1558.23 2374.97,1557.89 2373.5,1557.5C 2371.99,1552.12 2370.65,1546.62 2369.5,1541C 2370.28,1537.51 2370.94,1534.01 2371.5,1530.5C 2371.92,1526.39 2373.42,1522.73 2376,1519.5C 2381.79,1514.38 2387.63,1509.21 2393.5,1504C 2398.36,1500.49 2403.7,1497.82 2409.5,1496C 2412.53,1495.5 2415.53,1495.67 2418.5,1496.5C 2419.57,1501.59 2417.9,1505.42 2413.5,1508C 2410.41,1508.15 2407.58,1508.98 2405,1510.5C 2400.39,1514.65 2395.39,1518.31 2390,1521.5C 2389.84,1523.39 2390.67,1524.89 2392.5,1526C 2395.08,1527.79 2397.75,1529.29 2400.5,1530.5C 2400.5,1531.5 2400.5,1532.5 2400.5,1533.5C 2404.67,1533.66 2408.01,1535.33 2410.5,1538.5 Z"/></g>
<g><path style="opacity:0.999" fill="#b7d132" d="M 1432.5,1535.5 C 1434.02,1543.74 1434.85,1552.08 1435,1560.5C 1438.85,1569.99 1441.85,1579.99 1444,1590.5C 1452.77,1610.78 1462.43,1630.78 1473,1650.5C 1480.86,1660.65 1487.86,1671.32 1494,1682.5C 1497.97,1688.3 1502.47,1693.63 1507.5,1698.5C 1508.39,1701.29 1509.56,1703.95 1511,1706.5C 1528.77,1726.27 1547.27,1745.43 1566.5,1764C 1567.45,1764.48 1568.45,1764.65 1569.5,1764.5C 1569.5,1766.5 1569.5,1768.5 1569.5,1770.5C 1566.6,1770.28 1563.93,1770.95 1561.5,1772.5C 1557.28,1776.55 1552.61,1780.05 1547.5,1783C 1542.93,1787.74 1538.27,1792.24 1533.5,1796.5C 1530.91,1797.48 1528.25,1797.81 1525.5,1797.5C 1511.91,1799.22 1498.24,1799.89 1484.5,1799.5C 1484.5,1800.5 1484.5,1801.5 1484.5,1802.5C 1453.5,1802.5 1422.5,1802.5 1391.5,1802.5C 1391.5,1801.5 1391.5,1800.5 1391.5,1799.5C 1373.34,1799.74 1355.34,1799.07 1337.5,1797.5C 1337.21,1795.88 1336.21,1794.88 1334.5,1794.5C 1333.77,1791.3 1332.6,1788.3 1331,1785.5C 1325.11,1778.91 1318.28,1773.74 1310.5,1770C 1302.21,1767.79 1293.88,1765.79 1285.5,1764C 1270.12,1762.57 1254.79,1760.74 1239.5,1758.5C 1236.85,1756.89 1233.85,1756.06 1230.5,1756C 1200.44,1753.66 1170.44,1750.66 1140.5,1747C 1137.2,1745.46 1133.87,1744.12 1130.5,1743C 1127.85,1742.5 1125.19,1742.34 1122.5,1742.5C 1122.5,1741.5 1122.5,1740.5 1122.5,1739.5C 1119.1,1739.66 1115.76,1739.32 1112.5,1738.5C 1110.47,1738.66 1108.47,1738.5 1106.5,1738C 1101.63,1735.82 1096.63,1733.82 1091.5,1732C 1086.59,1727.76 1082.42,1722.93 1079,1717.5C 1077.6,1711.63 1079.1,1706.63 1083.5,1702.5C 1086.64,1700.53 1089.64,1698.36 1092.5,1696C 1099.69,1693.45 1106.69,1690.45 1113.5,1687C 1129.92,1683.48 1146.25,1679.48 1162.5,1675C 1176.82,1668.12 1191.16,1661.46 1205.5,1655C 1206.5,1653.33 1207.83,1652 1209.5,1651C 1216.66,1647.67 1223.66,1644 1230.5,1640C 1242.71,1629.83 1254.54,1619.33 1266,1608.5C 1286.14,1584.87 1299.31,1557.87 1305.5,1527.5C 1307.11,1524.85 1307.94,1521.85 1308,1518.5C 1308.5,1514.51 1308.67,1510.51 1308.5,1506.5C 1335.11,1509.2 1361.78,1511.36 1388.5,1513C 1396.04,1514.98 1403.7,1516.32 1411.5,1517C 1416.83,1517.33 1422.17,1517.67 1427.5,1518C 1429.43,1523.54 1430.09,1529.37 1429.5,1535.5C 1430.5,1535.5 1431.5,1535.5 1432.5,1535.5 Z"/></g>
<g><path style="opacity:1" fill="#71a734" d="M 2371.5,1530.5 C 2370.94,1534.01 2370.28,1537.51 2369.5,1541C 2370.65,1546.62 2371.99,1552.12 2373.5,1557.5C 2372.54,1557.05 2371.71,1556.38 2371,1555.5C 2368.7,1548 2368.03,1540.34 2369,1532.5C 2369.71,1531.62 2370.54,1530.95 2371.5,1530.5 Z"/></g>
<g><path style="opacity:1" fill="#4d9136" d="M 2382.5,1533.5 C 2381.27,1540.05 2381.6,1546.55 2383.5,1553C 2383.61,1554.7 2382.95,1555.87 2381.5,1556.5C 2381.74,1551.46 2381.07,1546.63 2379.5,1542C 2379.24,1538.59 2380.24,1535.76 2382.5,1533.5 Z"/></g>
<g><path style="opacity:1" fill="#6ca434" d="M 2410.5,1538.5 C 2419.35,1541.76 2427.69,1545.76 2435.5,1550.5C 2433.2,1549.94 2430.87,1549.44 2428.5,1549C 2422.33,1545.64 2416.33,1542.14 2410.5,1538.5 Z"/></g>
<g><path style="opacity:1" fill="#539436" d="M 2419.5,1555.5 C 2423.74,1557.58 2428.07,1559.41 2432.5,1561C 2439.6,1561.39 2445.93,1563.72 2451.5,1568C 2466.4,1570.12 2481.07,1573.12 2495.5,1577C 2524.23,1579.95 2552.9,1581.79 2581.5,1582.5C 2566.16,1582.67 2550.83,1582.5 2535.5,1582C 2520.13,1580.89 2504.8,1579.55 2489.5,1578C 2476.25,1575.73 2463.25,1572.73 2450.5,1569C 2442.68,1564.59 2434.35,1561.59 2425.5,1560C 2422.99,1559.12 2420.99,1557.62 2419.5,1555.5 Z"/></g>
<g><path style="opacity:1" fill="#5e9c35" d="M 2520.5,1568.5 C 2542.98,1569.74 2565.31,1570.74 2587.5,1571.5C 2570.16,1571.67 2552.83,1571.5 2535.5,1571C 2530.29,1570.56 2525.29,1569.73 2520.5,1568.5 Z"/></g>
<g><path style="opacity:0.992" fill="#b6d131" d="M 812.5,1648.5 C 814.414,1656.05 816.747,1663.38 819.5,1670.5C 820.5,1670.5 821.5,1670.5 822.5,1670.5C 822.34,1672.2 822.506,1673.87 823,1675.5C 826.264,1678.96 828.597,1682.96 830,1687.5C 836.091,1696.3 842.591,1704.8 849.5,1713C 851.119,1715.16 850.786,1716.66 848.5,1717.5C 824.111,1717.75 800.778,1722.42 778.5,1731.5C 772.254,1734.63 766.254,1738.3 760.5,1742.5C 759.311,1743.43 757.978,1743.76 756.5,1743.5C 756.473,1745.2 755.806,1746.53 754.5,1747.5C 753.674,1732.74 756.841,1718.74 764,1705.5C 772.437,1675.77 786.937,1649.44 807.5,1626.5C 808.28,1633.65 809.447,1640.65 811,1647.5C 811.383,1648.06 811.883,1648.39 812.5,1648.5 Z"/></g>
<g><path style="opacity:0.99" fill="#9dc03a" d="M 2327.5,1672.5 C 2326.42,1674.34 2325.58,1676.34 2325,1678.5C 2314.83,1688 2305,1697.83 2295.5,1708C 2292.66,1709.59 2289.99,1711.42 2287.5,1713.5C 2285.95,1714.45 2284.29,1714.79 2282.5,1714.5C 2282.44,1716.59 2281.44,1718.09 2279.5,1719C 2276.72,1719.89 2274.05,1721.06 2271.5,1722.5C 2269.26,1723.47 2266.92,1723.81 2264.5,1723.5C 2264.5,1724.5 2264.5,1725.5 2264.5,1726.5C 2256.87,1727.4 2249.21,1728.07 2241.5,1728.5C 2232.13,1728 2222.8,1727.16 2213.5,1726C 2203.38,1722.51 2193.04,1719.68 2182.5,1717.5C 2182.5,1716.5 2182.5,1715.5 2182.5,1714.5C 2172.87,1711.68 2163.2,1709.18 2153.5,1707C 2142.17,1706.33 2130.83,1706.33 2119.5,1707C 2109.66,1708.91 2100,1711.41 2090.5,1714.5C 2090.5,1715.5 2090.5,1716.5 2090.5,1717.5C 2089.13,1717.34 2087.79,1717.51 2086.5,1718C 2080.15,1723.83 2073.15,1728.67 2065.5,1732.5C 2063.66,1736.36 2060.99,1739.69 2057.5,1742.5C 2056.68,1743.39 2055.68,1743.72 2054.5,1743.5C 2052.83,1747.83 2049.83,1750.83 2045.5,1752.5C 2045.72,1753.68 2045.39,1754.68 2044.5,1755.5C 2039.1,1760.57 2033.44,1765.24 2027.5,1769.5C 2019.26,1778.11 2009.6,1784.45 1998.5,1788.5C 1997.07,1788.58 1995.74,1788.25 1994.5,1787.5C 1992.68,1785.18 1990.68,1783.02 1988.5,1781C 1979.75,1776.96 1970.75,1773.46 1961.5,1770.5C 1951.8,1768.74 1942.13,1766.57 1932.5,1764C 1883.55,1755.96 1834.22,1750.29 1784.5,1747C 1780.2,1746.92 1776.2,1746.09 1772.5,1744.5C 1795.4,1739.91 1818.07,1734.08 1840.5,1727C 1855.41,1720.77 1870.75,1715.77 1886.5,1712C 1897.45,1706.01 1909.11,1702.01 1921.5,1700C 1925.64,1697.76 1929.98,1695.76 1934.5,1694C 1943.57,1693.66 1952.23,1691.66 1960.5,1688C 1969.19,1686.95 1977.52,1684.62 1985.5,1681C 2022.67,1672.43 2060.34,1668.93 2098.5,1670.5C 2174.9,1672.15 2251.23,1672.81 2327.5,1672.5 Z"/></g>
<g><path style="opacity:1" fill="#9fb835" d="M 1112.5,1738.5 C 1115.76,1739.32 1119.1,1739.66 1122.5,1739.5C 1122.5,1740.5 1122.5,1741.5 1122.5,1742.5C 1125.19,1742.34 1127.85,1742.5 1130.5,1743C 1133.87,1744.12 1137.2,1745.46 1140.5,1747C 1170.44,1750.66 1200.44,1753.66 1230.5,1756C 1233.85,1756.06 1236.85,1756.89 1239.5,1758.5C 1212.55,1755.74 1185.55,1753.58 1158.5,1752C 1145.26,1749.73 1132.26,1746.73 1119.5,1743C 1117.01,1741.58 1114.67,1740.08 1112.5,1738.5 Z"/></g>
<g><path style="opacity:0.994" fill="#c3232c" d="M 736.5,1855.5 C 737.833,1860.17 739.167,1864.83 740.5,1869.5C 741.5,1869.5 742.5,1869.5 743.5,1869.5C 744.13,1872.58 745.13,1875.58 746.5,1878.5C 749.755,1882.64 752.755,1886.97 755.5,1891.5C 760.591,1896.25 764.924,1901.59 768.5,1907.5C 772.5,1910.17 775.833,1913.5 778.5,1917.5C 784.032,1920.03 788.699,1923.7 792.5,1928.5C 795.547,1930.24 798.547,1931.91 801.5,1933.5C 801.5,1934.5 801.5,1935.5 801.5,1936.5C 805.117,1938.08 808.784,1939.74 812.5,1941.5C 813.853,1942.52 814.52,1943.86 814.5,1945.5C 815.873,1945.34 817.207,1945.51 818.5,1946C 824.735,1949.54 830.735,1953.38 836.5,1957.5C 853.475,1965.32 870.141,1973.65 886.5,1982.5C 895.055,1986.13 903.722,1989.13 912.5,1991.5C 912.285,1993.18 912.952,1994.18 914.5,1994.5C 914.5,1995.17 914.5,1995.83 914.5,1996.5C 907.817,1999.06 901.817,2002.73 896.5,2007.5C 896.167,2007.5 895.833,2007.5 895.5,2007.5C 892.184,2009.16 888.85,2010.82 885.5,2012.5C 882.816,2016.18 880.149,2019.85 877.5,2023.5C 876.833,2024.83 875.833,2025.83 874.5,2026.5C 873.185,2027.48 871.852,2028.48 870.5,2029.5C 868.448,2032.54 866.448,2035.54 864.5,2038.5C 862.46,2042.19 860.46,2045.86 858.5,2049.5C 857.504,2049.41 856.671,2049.75 856,2050.5C 854.882,2052.77 854.049,2055.1 853.5,2057.5C 851.857,2057.48 850.524,2058.15 849.5,2059.5C 847.326,2063.96 845.992,2068.63 845.5,2073.5C 844.685,2074.43 843.852,2075.43 843,2076.5C 841.574,2084.06 839.407,2091.4 836.5,2098.5C 833.122,2103.95 831.455,2109.95 831.5,2116.5C 829.949,2118.91 829.283,2121.58 829.5,2124.5C 827.407,2129.89 825.907,2135.56 825,2141.5C 824.502,2144.82 824.335,2148.15 824.5,2151.5C 823.202,2169.5 823.202,2187.5 824.5,2205.5C 825.682,2216.88 827.015,2228.22 828.5,2239.5C 816.578,2238.35 804.578,2237.02 792.5,2235.5C 792.5,2234.5 792.5,2233.5 792.5,2232.5C 780.064,2231.01 767.73,2228.85 755.5,2226C 755.043,2225.59 754.709,2225.09 754.5,2224.5C 733.265,2219.76 712.598,2213.59 692.5,2206C 692.043,2205.59 691.709,2205.09 691.5,2204.5C 683.489,2201.88 675.489,2199.54 667.5,2197.5C 667.5,2196.5 667.5,2195.5 667.5,2194.5C 665.076,2194.81 662.743,2194.47 660.5,2193.5C 654.355,2190.51 648.022,2188.01 641.5,2186C 632.799,2181.67 624.133,2177.34 615.5,2173C 611.253,2171.03 606.919,2169.53 602.5,2168.5C 602.5,2167.5 602.5,2166.5 602.5,2165.5C 595.833,2162.83 589.167,2160.17 582.5,2157.5C 582.5,2156.5 582.5,2155.5 582.5,2154.5C 579.252,2154.34 576.252,2153.34 573.5,2151.5C 563.026,2145.09 552.692,2138.43 542.5,2131.5C 540.955,2130.55 539.288,2130.21 537.5,2130.5C 537.5,2129.5 537.5,2128.5 537.5,2127.5C 533.431,2127.01 530.431,2125.01 528.5,2121.5C 528.833,2115.16 530.166,2109.16 532.5,2103.5C 533.376,2103.63 534.043,2103.3 534.5,2102.5C 537.125,2093.04 539.125,2083.38 540.5,2073.5C 544.063,2060.1 547.897,2046.76 552,2033.5C 555.683,2024.36 559.517,2015.36 563.5,2006.5C 565.362,2002.77 567.529,1999.1 570,1995.5C 571.455,1991.42 572.955,1987.42 574.5,1983.5C 588.392,1957.6 606.392,1934.94 628.5,1915.5C 632.811,1912.84 637.144,1910.17 641.5,1907.5C 642.524,1906.15 643.524,1904.81 644.5,1903.5C 654.797,1894.19 666.13,1886.52 678.5,1880.5C 688.899,1877.94 698.233,1873.61 706.5,1867.5C 716.13,1862.95 726.13,1858.95 736.5,1855.5 Z"/></g>
<g><path style="opacity:1" fill="#b66532" d="M 706.5,1867.5 C 698.233,1873.61 688.899,1877.94 678.5,1880.5C 681.34,1878.93 684.007,1876.93 686.5,1874.5C 693.015,1871.63 699.682,1869.3 706.5,1867.5 Z"/></g>
<g><path style="opacity:1" fill="#b66232" d="M 644.5,1903.5 C 643.524,1904.81 642.524,1906.15 641.5,1907.5C 637.144,1910.17 632.811,1912.84 628.5,1915.5C 629.648,1913.25 631.314,1911.41 633.5,1910C 637.065,1907.59 640.732,1905.42 644.5,1903.5 Z"/></g>
<g><path style="opacity:1" fill="#b17333" d="M 574.5,1983.5 C 572.955,1987.42 571.455,1991.42 570,1995.5C 567.529,1999.1 565.362,2002.77 563.5,2006.5C 563.913,2004.11 564.579,2001.78 565.5,1999.5C 568.181,1993.95 571.181,1988.62 574.5,1983.5 Z"/></g>
<g><path style="opacity:0.994" fill="#9dc03a" d="M 914.5,1994.5 C 923.878,1996.85 932.878,2000.18 941.5,2004.5C 948.137,2006.47 954.803,2008.3 961.5,2010C 974.098,2014.88 987.098,2018.55 1000.5,2021C 1002.93,2022.64 1005.59,2023.81 1008.5,2024.5C 1018.11,2026.66 1027.78,2028.49 1037.5,2030C 1037.96,2030.41 1038.29,2030.91 1038.5,2031.5C 1062.83,2035.94 1087.16,2040.28 1111.5,2044.5C 1131.57,2046.84 1151.57,2048.67 1171.5,2050C 1172.25,2050.67 1172.59,2051.5 1172.5,2052.5C 1171.5,2052.5 1170.5,2052.5 1169.5,2052.5C 1169.84,2058.16 1167.18,2060.82 1161.5,2060.5C 1159.61,2062.95 1158.27,2065.62 1157.5,2068.5C 1156.69,2069.43 1155.85,2070.43 1155,2071.5C 1152.06,2079.48 1149.23,2087.48 1146.5,2095.5C 1144.78,2100.33 1143.45,2105.33 1142.5,2110.5C 1140.1,2115.8 1138.43,2121.47 1137.5,2127.5C 1136.84,2129.37 1136.17,2131.37 1135.5,2133.5C 1134.17,2151.5 1134.17,2169.5 1135.5,2187.5C 1136.38,2190.11 1137.05,2192.78 1137.5,2195.5C 1137.75,2196.71 1138.41,2197.38 1139.5,2197.5C 1143.44,2215.39 1151.61,2231.06 1164,2244.5C 1164.49,2245.79 1164.66,2247.13 1164.5,2248.5C 1146.85,2249.64 1129.19,2250.64 1111.5,2251.5C 1111.29,2252.09 1110.96,2252.59 1110.5,2253C 1053.17,2253.67 995.833,2253.67 938.5,2253C 938.043,2252.59 937.709,2252.09 937.5,2251.5C 906.316,2249.88 875.316,2247.38 844.5,2244C 844.043,2243.59 843.709,2243.09 843.5,2242.5C 838.1,2242.13 833.1,2241.13 828.5,2239.5C 829.156,2238.38 829.489,2237.05 829.5,2235.5C 827.818,2228.28 827.151,2220.94 827.5,2213.5C 824.885,2189.84 824.885,2166.17 827.5,2142.5C 827.379,2136.37 828.046,2130.37 829.5,2124.5C 829.283,2121.58 829.949,2118.91 831.5,2116.5C 834.389,2110.96 836.056,2104.96 836.5,2098.5C 839.407,2091.4 841.574,2084.06 843,2076.5C 843.852,2075.43 844.685,2074.43 845.5,2073.5C 847.522,2070.22 849.022,2066.56 850,2062.5C 853.475,2058.55 856.309,2054.22 858.5,2049.5C 860.46,2045.86 862.46,2042.19 864.5,2038.5C 868.795,2035.21 872.128,2031.21 874.5,2026.5C 875.833,2025.83 876.833,2024.83 877.5,2023.5C 882.391,2018.78 887.724,2014.61 893.5,2011C 894.305,2009.89 894.972,2008.72 895.5,2007.5C 895.833,2007.5 896.167,2007.5 896.5,2007.5C 901.194,2004.43 906.194,2001.93 911.5,2000C 913.063,1999.24 914.063,1998.07 914.5,1996.5C 914.5,1995.83 914.5,1995.17 914.5,1994.5 Z"/></g>
<g><path style="opacity:1" fill="#a99436" d="M 914.5,1996.5 C 914.063,1998.07 913.063,1999.24 911.5,2000C 906.194,2001.93 901.194,2004.43 896.5,2007.5C 901.817,2002.73 907.817,1999.06 914.5,1996.5 Z"/></g>
<g><path style="opacity:1" fill="#b76131" d="M 895.5,2007.5 C 894.972,2008.72 894.305,2009.89 893.5,2011C 887.724,2014.61 882.391,2018.78 877.5,2023.5C 880.149,2019.85 882.816,2016.18 885.5,2012.5C 888.85,2010.82 892.184,2009.16 895.5,2007.5 Z"/></g>
<g><path style="opacity:0.989" fill="#c3232c" d="M 2188.5,2049.5 C 2184.55,2051.45 2181.55,2054.45 2179.5,2058.5C 2175.05,2063.55 2171.71,2069.22 2169.5,2075.5C 2166.87,2077.78 2165.53,2080.78 2165.5,2084.5C 2159.84,2093.98 2156.17,2104.32 2154.5,2115.5C 2152.11,2122.83 2150.94,2130.5 2151,2138.5C 2150.35,2149.52 2150.51,2160.52 2151.5,2171.5C 2151.24,2179.39 2152.24,2187.06 2154.5,2194.5C 2120.33,2191.11 2086,2188.27 2051.5,2186C 2051.04,2185.59 2050.71,2185.09 2050.5,2184.5C 1993.89,2180.92 1937.22,2178.59 1880.5,2177.5C 1861.5,2178.3 1842.5,2178.97 1823.5,2179.5C 1822.44,2152.78 1825.44,2126.78 1832.5,2101.5C 1832.5,2101.17 1832.5,2100.83 1832.5,2100.5C 1834.26,2096.74 1835.6,2092.74 1836.5,2088.5C 1838.59,2080.76 1841.59,2073.43 1845.5,2066.5C 1847.56,2063.25 1850.06,2060.25 1853,2057.5C 1855.07,2054.03 1856.57,2050.36 1857.5,2046.5C 1859.39,2042.6 1861.72,2038.93 1864.5,2035.5C 1865.47,2033.6 1865.8,2031.6 1865.5,2029.5C 1904.21,2028.34 1943.04,2027.01 1982,2025.5C 2014.72,2026.78 2047.55,2028.28 2080.5,2030C 2080.96,2030.41 2081.29,2030.91 2081.5,2031.5C 2103.28,2033.93 2124.94,2036.27 2146.5,2038.5C 2146.5,2039.5 2146.5,2040.5 2146.5,2041.5C 2157.58,2042.51 2168.58,2044.18 2179.5,2046.5C 2182.94,2046.91 2185.94,2047.91 2188.5,2049.5 Z"/></g>
<g><path style="opacity:1" fill="#b07433" d="M 874.5,2026.5 C 872.128,2031.21 868.795,2035.21 864.5,2038.5C 866.448,2035.54 868.448,2032.54 870.5,2029.5C 871.852,2028.48 873.185,2027.48 874.5,2026.5 Z"/></g>
<g><path style="opacity:0.991" fill="#9dc03a" d="M 1865.5,2029.5 C 1865.8,2031.6 1865.47,2033.6 1864.5,2035.5C 1861.72,2038.93 1859.39,2042.6 1857.5,2046.5C 1852.49,2052.52 1848.49,2059.19 1845.5,2066.5C 1841.59,2073.43 1838.59,2080.76 1836.5,2088.5C 1833.8,2091.93 1832.47,2095.93 1832.5,2100.5C 1832.5,2100.83 1832.5,2101.17 1832.5,2101.5C 1831.54,2101.95 1830.71,2102.62 1830,2103.5C 1829.83,2105.71 1829.16,2107.71 1828,2109.5C 1827.5,2112.15 1827.34,2114.81 1827.5,2117.5C 1826.88,2117.61 1826.38,2117.94 1826,2118.5C 1821,2138.32 1819.16,2158.65 1820.5,2179.5C 1783.13,2180.17 1745.79,2181.84 1708.5,2184.5C 1708.29,2185.09 1707.96,2185.59 1707.5,2186C 1672.25,2188.49 1636.91,2191.32 1601.5,2194.5C 1601.5,2195.5 1601.5,2196.5 1601.5,2197.5C 1580.78,2199.01 1560.12,2201.01 1539.5,2203.5C 1535.52,2194.24 1531.86,2184.91 1528.5,2175.5C 1527.15,2167.31 1525.49,2159.31 1523.5,2151.5C 1521.34,2137.08 1521.01,2122.74 1522.5,2108.5C 1524.22,2099.66 1525.55,2090.66 1526.5,2081.5C 1528,2074.8 1529.5,2068.14 1531,2061.5C 1533.98,2056.55 1535.48,2051.22 1535.5,2045.5C 1579.16,2043.88 1622.82,2042.55 1666.5,2041.5C 1666.5,2040.5 1666.5,2039.5 1666.5,2038.5C 1728.06,2036.75 1789.72,2034.42 1851.5,2031.5C 1852.03,2030.81 1852.69,2030.31 1853.5,2030C 1857.49,2029.5 1861.49,2029.33 1865.5,2029.5 Z"/></g>
<g><path style="opacity:0.991" fill="#c3232c" d="M 1535.5,2045.5 C 1535.48,2051.22 1533.98,2056.55 1531,2061.5C 1529.5,2068.14 1528,2074.8 1526.5,2081.5C 1523.79,2090.13 1522.46,2099.13 1522.5,2108.5C 1521.01,2122.74 1521.34,2137.08 1523.5,2151.5C 1523.33,2156.51 1523.5,2161.51 1524,2166.5C 1524.84,2169.89 1526.34,2172.89 1528.5,2175.5C 1531.86,2184.91 1535.52,2194.24 1539.5,2203.5C 1536.65,2203.03 1534.32,2203.86 1532.5,2206C 1510.81,2208.24 1489.14,2210.74 1467.5,2213.5C 1467.29,2214.09 1466.96,2214.59 1466.5,2215C 1439.19,2218.16 1411.85,2221 1384.5,2223.5C 1384.5,2224.5 1384.5,2225.5 1384.5,2226.5C 1360.5,2228.5 1336.5,2230.5 1312.5,2232.5C 1312.5,2233.5 1312.5,2234.5 1312.5,2235.5C 1285.81,2237.41 1259.14,2239.74 1232.5,2242.5C 1231.97,2243.19 1231.31,2243.69 1230.5,2244C 1208.38,2245.54 1186.38,2247.04 1164.5,2248.5C 1164.66,2247.13 1164.49,2245.79 1164,2244.5C 1151.61,2231.06 1143.44,2215.39 1139.5,2197.5C 1139.17,2194.83 1138.83,2192.17 1138.5,2189.5C 1137.19,2175.86 1136.69,2162.2 1137,2148.5C 1137.86,2135.75 1139.69,2123.08 1142.5,2110.5C 1143.45,2105.33 1144.78,2100.33 1146.5,2095.5C 1147.5,2095.53 1148.16,2095.03 1148.5,2094C 1151.76,2085.62 1154.76,2077.12 1157.5,2068.5C 1158.27,2065.62 1159.61,2062.95 1161.5,2060.5C 1167.18,2060.82 1169.84,2058.16 1169.5,2052.5C 1170.5,2052.5 1171.5,2052.5 1172.5,2052.5C 1209.13,2053.75 1245.63,2055.09 1282,2056.5C 1329.5,2054.92 1377,2053.25 1424.5,2051.5C 1424.71,2050.91 1425.04,2050.41 1425.5,2050C 1462.22,2049.28 1498.89,2047.78 1535.5,2045.5 Z"/></g>
<g><path style="opacity:0.985" fill="#9dc03a" d="M 2188.5,2049.5 C 2191.19,2049.34 2193.85,2049.5 2196.5,2050C 2206.78,2053.84 2217.45,2056.84 2228.5,2059C 2230.42,2060.82 2232.75,2061.98 2235.5,2062.5C 2242.23,2064.07 2248.9,2065.73 2255.5,2067.5C 2255.5,2068.5 2255.5,2069.5 2255.5,2070.5C 2264,2071.98 2272.33,2073.98 2280.5,2076.5C 2280.5,2077.5 2280.5,2078.5 2280.5,2079.5C 2282.92,2079.19 2285.26,2079.53 2287.5,2080.5C 2293.65,2083.49 2299.98,2085.99 2306.5,2088C 2330.87,2099.9 2354.87,2112.4 2378.5,2125.5C 2378.5,2126.5 2378.5,2127.5 2378.5,2128.5C 2382.44,2129.26 2386.11,2130.76 2389.5,2133C 2391.44,2133.91 2392.44,2135.41 2392.5,2137.5C 2400.15,2139.81 2406.82,2143.81 2412.5,2149.5C 2419.05,2153.27 2425.39,2157.27 2431.5,2161.5C 2433.32,2162.73 2434.32,2164.39 2434.5,2166.5C 2439.96,2167.29 2443.62,2170.29 2445.5,2175.5C 2447.29,2175.21 2448.95,2175.55 2450.5,2176.5C 2458.47,2182.47 2465.81,2189.14 2472.5,2196.5C 2473.73,2197.28 2475.06,2197.78 2476.5,2198C 2481.04,2203.3 2486.04,2208.14 2491.5,2212.5C 2492.39,2213.32 2492.72,2214.32 2492.5,2215.5C 2493.68,2215.28 2494.68,2215.61 2495.5,2216.5C 2501.92,2223.44 2508.58,2230.11 2515.5,2236.5C 2518.47,2241.88 2521.97,2246.88 2526,2251.5C 2528.2,2257.72 2528.7,2264.06 2527.5,2270.5C 2524.7,2271.73 2521.7,2272.4 2518.5,2272.5C 2502.73,2270.22 2487.06,2267.39 2471.5,2264C 2471.04,2263.59 2470.71,2263.09 2470.5,2262.5C 2446.9,2257.11 2423.9,2250.45 2401.5,2242.5C 2383.94,2238.16 2366.61,2233.66 2349.5,2229C 2342.73,2228.33 2336.06,2227.49 2329.5,2226.5C 2329.5,2225.5 2329.5,2224.5 2329.5,2223.5C 2293.32,2218.21 2257.32,2212.38 2221.5,2206C 2200.92,2201.47 2179.92,2198.47 2158.5,2197C 2157.92,2195.58 2156.92,2194.75 2155.5,2194.5C 2154.66,2186.8 2153.66,2179.13 2152.5,2171.5C 2152.08,2152.67 2152.75,2134 2154.5,2115.5C 2157.81,2105.04 2161.48,2094.7 2165.5,2084.5C 2165.53,2080.78 2166.87,2077.78 2169.5,2075.5C 2174.54,2070.8 2177.87,2065.14 2179.5,2058.5C 2181.55,2054.45 2184.55,2051.45 2188.5,2049.5 Z"/></g>
<g><path style="opacity:1" fill="#b85831" d="M 1857.5,2046.5 C 1856.57,2050.36 1855.07,2054.03 1853,2057.5C 1850.06,2060.25 1847.56,2063.25 1845.5,2066.5C 1848.49,2059.19 1852.49,2052.52 1857.5,2046.5 Z"/></g>
<g><path style="opacity:1" fill="#b85c31" d="M 858.5,2049.5 C 856.309,2054.22 853.475,2058.55 850,2062.5C 849.022,2066.56 847.522,2070.22 845.5,2073.5C 845.992,2068.63 847.326,2063.96 849.5,2059.5C 850.524,2058.15 851.857,2057.48 853.5,2057.5C 854.049,2055.1 854.882,2052.77 856,2050.5C 856.671,2049.75 857.504,2049.41 858.5,2049.5 Z"/></g>
<g><path style="opacity:1" fill="#a89837" d="M 2179.5,2058.5 C 2177.87,2065.14 2174.54,2070.8 2169.5,2075.5C 2171.71,2069.22 2175.05,2063.55 2179.5,2058.5 Z"/></g>
<g><path style="opacity:1" fill="#b26f33" d="M 1157.5,2068.5 C 1154.76,2077.12 1151.76,2085.62 1148.5,2094C 1148.16,2095.03 1147.5,2095.53 1146.5,2095.5C 1149.23,2087.48 1152.06,2079.48 1155,2071.5C 1155.85,2070.43 1156.69,2069.43 1157.5,2068.5 Z"/></g>
<g><path style="opacity:1" fill="#aa9236" d="M 2165.5,2084.5 C 2161.48,2094.7 2157.81,2105.04 2154.5,2115.5C 2156.17,2104.32 2159.84,2093.98 2165.5,2084.5 Z"/></g>
<g><path style="opacity:1" fill="#b46732" d="M 1836.5,2088.5 C 1835.6,2092.74 1834.26,2096.74 1832.5,2100.5C 1832.47,2095.93 1833.8,2091.93 1836.5,2088.5 Z"/></g>
<g><path style="opacity:1" fill="#ba4e30" d="M 540.5,2073.5 C 539.125,2083.38 537.125,2093.04 534.5,2102.5C 534.043,2103.3 533.376,2103.63 532.5,2103.5C 533.544,2092.89 536.21,2082.89 540.5,2073.5 Z"/></g>
<g><path style="opacity:1" fill="#ad8335" d="M 1526.5,2081.5 C 1525.55,2090.66 1524.22,2099.66 1522.5,2108.5C 1522.46,2099.13 1523.79,2090.13 1526.5,2081.5 Z"/></g>
<g><path style="opacity:1" fill="#a89a37" d="M 836.5,2098.5 C 836.056,2104.96 834.389,2110.96 831.5,2116.5C 831.455,2109.95 833.122,2103.95 836.5,2098.5 Z"/></g>
<g><path style="opacity:1" fill="#b56131" d="M 1832.5,2101.5 C 1825.44,2126.78 1822.44,2152.78 1823.5,2179.5C 1822.83,2179.5 1822.17,2179.5 1821.5,2179.5C 1820.78,2158.54 1822.78,2137.88 1827.5,2117.5C 1827.34,2114.81 1827.5,2112.15 1828,2109.5C 1829.16,2107.71 1829.83,2105.71 1830,2103.5C 1830.71,2102.62 1831.54,2101.95 1832.5,2101.5 Z"/></g>
<g><path style="opacity:1" fill="#ac8635" d="M 2154.5,2115.5 C 2152.75,2134 2152.08,2152.67 2152.5,2171.5C 2152.17,2171.5 2151.83,2171.5 2151.5,2171.5C 2150.51,2160.52 2150.35,2149.52 2151,2138.5C 2150.94,2130.5 2152.11,2122.83 2154.5,2115.5 Z"/></g>
<g><path style="opacity:1" fill="#b36932" d="M 829.5,2124.5 C 828.046,2130.37 827.379,2136.37 827.5,2142.5C 826.374,2145.47 825.374,2148.47 824.5,2151.5C 824.335,2148.15 824.502,2144.82 825,2141.5C 825.907,2135.56 827.407,2129.89 829.5,2124.5 Z"/></g>
<g><path style="opacity:1" fill="#a99036" d="M 1137.5,2127.5 C 1136.01,2137.83 1135.35,2148.33 1135.5,2159C 1135.67,2165.83 1135.83,2172.67 1136,2179.5C 1136.74,2182.99 1137.57,2186.32 1138.5,2189.5C 1138.83,2192.17 1139.17,2194.83 1139.5,2197.5C 1138.41,2197.38 1137.75,2196.71 1137.5,2195.5C 1137.05,2192.78 1136.38,2190.11 1135.5,2187.5C 1134.17,2169.5 1134.17,2151.5 1135.5,2133.5C 1136.17,2131.37 1136.84,2129.37 1137.5,2127.5 Z"/></g>
<g><path style="opacity:1" fill="#ba4c30" d="M 1142.5,2110.5 C 1139.69,2123.08 1137.86,2135.75 1137,2148.5C 1136.69,2162.2 1137.19,2175.86 1138.5,2189.5C 1137.57,2186.32 1136.74,2182.99 1136,2179.5C 1135.83,2172.67 1135.67,2165.83 1135.5,2159C 1135.35,2148.33 1136.01,2137.83 1137.5,2127.5C 1138.43,2121.47 1140.1,2115.8 1142.5,2110.5 Z"/></g>
<g><path style="opacity:1" fill="#a4a438" d="M 1827.5,2117.5 C 1822.78,2137.88 1820.78,2158.54 1821.5,2179.5C 1821.17,2179.5 1820.83,2179.5 1820.5,2179.5C 1819.16,2158.65 1821,2138.32 1826,2118.5C 1826.38,2117.94 1826.88,2117.61 1827.5,2117.5 Z"/></g>
<g><path style="opacity:1" fill="#b85831" d="M 1523.5,2151.5 C 1525.49,2159.31 1527.15,2167.31 1528.5,2175.5C 1526.34,2172.89 1524.84,2169.89 1524,2166.5C 1523.5,2161.51 1523.33,2156.51 1523.5,2151.5 Z"/></g>
<g><path style="opacity:1" fill="#b75c31" d="M 2151.5,2171.5 C 2151.83,2171.5 2152.17,2171.5 2152.5,2171.5C 2153.66,2179.13 2154.66,2186.8 2155.5,2194.5C 2155.17,2194.5 2154.83,2194.5 2154.5,2194.5C 2152.24,2187.06 2151.24,2179.39 2151.5,2171.5 Z"/></g>
<g><path style="opacity:1" fill="#aa8e36" d="M 827.5,2142.5 C 824.885,2166.17 824.885,2189.84 827.5,2213.5C 826.5,2210.83 825.5,2208.17 824.5,2205.5C 823.202,2187.5 823.202,2169.5 824.5,2151.5C 825.374,2148.47 826.374,2145.47 827.5,2142.5 Z"/></g>
<g><path style="opacity:0.88" fill="#b56132" d="M 824.5,2205.5 C 825.5,2208.17 826.5,2210.83 827.5,2213.5C 827.151,2220.94 827.818,2228.28 829.5,2235.5C 829.489,2237.05 829.156,2238.38 828.5,2239.5C 827.015,2228.22 825.682,2216.88 824.5,2205.5 Z"/></g>
</svg>
