<?xml version="1.0" encoding="UTF-8"?>
<!DOCTYPE svg PUBLIC "-//W3C//DTD SVG 1.1//EN" "http://www.w3.org/Graphics/SVG/1.1/DTD/svg11.dtd">
<svg xmlns="http://www.w3.org/2000/svg" version="1.1" width="3000px" height="3000px" style="shape-rendering:geometricPrecision; text-rendering:geometricPrecision; image-rendering:optimizeQuality; fill-rule:evenodd; clip-rule:evenodd" xmlns:xlink="http://www.w3.org/1999/xlink">
<g><path style="opacity:0.997" fill="#9d6a42" d="M 2606.5,1075.5 C 2570.18,1069.57 2545.02,1083.57 2531,1117.5C 2517.34,1157.35 2520,1196.02 2539,1233.5C 2562.36,1269.95 2593.52,1278.79 2632.5,1260C 2652.31,1244.79 2663.81,1224.63 2667,1199.5C 2667.38,1198.94 2667.88,1198.61 2668.5,1198.5C 2674.19,1238.31 2670.69,1277.31 2658,1315.5C 2645.76,1357.57 2627.76,1396.91 2604,1433.5C 2564.19,1490.56 2509.36,1521.4 2439.5,1526C 2417.25,1527.7 2395.25,1526.2 2373.5,1521.5C 2297.23,1500.29 2235.06,1458.29 2187,1395.5C 2153.44,1349.34 2135.28,1297.67 2132.5,1240.5C 2133.58,1159.17 2165.58,1093 2228.5,1042C 2263.82,1014.84 2303.15,996.008 2346.5,985.5C 2329.12,873.203 2294.62,766.536 2243,665.5C 2203.22,591.252 2155.56,522.585 2100,459.5C 2076.06,432.895 2051.4,406.895 2026,381.5C 2022.58,377.916 2019.75,373.916 2017.5,369.5C 2019.42,368.359 2021.42,368.192 2023.5,369C 2037.86,376.173 2051.19,384.839 2063.5,395C 2123.9,445.728 2175.4,504.228 2218,570.5C 2298.12,696.503 2350.12,833.503 2374,981.5C 2390.75,981.473 2407.58,981.64 2424.5,982C 2437.07,982.873 2449.41,985.04 2461.5,988.5C 2470.22,899.04 2489.72,812.04 2520,727.5C 2539.18,677.469 2563.85,630.469 2594,586.5C 2637.53,523.934 2686.7,465.767 2741.5,412C 2752.21,402.291 2763.21,392.958 2774.5,384C 2776.91,382.293 2779.58,381.46 2782.5,381.5C 2782.7,383.989 2782.2,386.323 2781,388.5C 2777.33,393.833 2773.67,399.167 2770,404.5C 2719.27,462.671 2670.93,522.671 2625,584.5C 2598.18,621.775 2575.18,661.442 2556,703.5C 2534.88,757.651 2518.88,813.317 2508,870.5C 2500.02,912.194 2493.19,954.028 2487.5,996C 2533.95,1012.54 2573.62,1039.04 2606.5,1075.5 Z"/></g>
<g><path style="opacity:0.993" fill="#67432e" d="M 1620.5,1351.5 C 1620.5,1351.83 1620.5,1352.17 1620.5,1352.5C 1571.17,1357.61 1521.84,1361.61 1472.5,1364.5C 1384.9,1314.37 1298.57,1262.2 1213.5,1208C 1169.72,1178.88 1127.05,1148.22 1085.5,1116C 1078.98,1109.98 1072.31,1104.15 1065.5,1098.5C 1078.63,1143.36 1089.46,1189.03 1098,1235.5C 1106.67,1283.37 1114.17,1331.37 1120.5,1379.5C 1103.83,1379.33 1087.16,1379.5 1070.5,1380C 1097.53,1393.18 1124.53,1406.35 1151.5,1419.5C 1214.02,1449.59 1276.69,1479.43 1339.5,1509C 1469.96,1565.4 1599.29,1624.23 1727.5,1685.5C 1732.83,1687.83 1738.17,1690.17 1743.5,1692.5C 1804.69,1722.43 1865.02,1753.93 1924.5,1787C 1948.41,1800.45 1970.74,1816.12 1991.5,1834C 2009.07,1831.97 2026.74,1830.47 2044.5,1829.5C 2091.83,1829.67 2139.17,1829.5 2186.5,1829C 2230.21,1826.6 2272.87,1818.6 2314.5,1805C 2354.79,1791.57 2394.46,1776.57 2433.5,1760C 2440.27,1757.25 2447.27,1755.91 2454.5,1756C 2459.51,1760.53 2463.67,1765.69 2467,1771.5C 2509.27,1846.96 2542.61,1926.3 2567,2009.5C 2573.44,2032.18 2578.27,2055.18 2581.5,2078.5C 2598.94,2081.28 2615.94,2085.78 2632.5,2092C 2662.81,2101.77 2691.81,2114.43 2719.5,2130C 2735.39,2139.89 2750.72,2150.55 2765.5,2162C 2770.43,2166.52 2774.93,2171.36 2779,2176.5C 2779.51,2179.83 2778.01,2181.49 2774.5,2181.5C 2727.14,2173.1 2682.48,2157.27 2640.5,2134C 2623.5,2124.17 2606.83,2113.83 2590.5,2103C 2584.67,2097.83 2578.83,2092.67 2573,2087.5C 2552.45,2060.43 2535.45,2031.09 2522,1999.5C 2509.47,1970.25 2497.14,1940.91 2485,1911.5C 2470.04,1867.34 2458.38,1822.34 2450,1776.5C 2436.71,1793.46 2421.21,1807.96 2403.5,1820C 2340.19,1862.66 2270.19,1885.32 2193.5,1888C 2141.72,1892.16 2090.05,1891.16 2038.5,1885C 2019.43,1882.53 2001.59,1876.7 1985,1867.5C 1975.65,1872.45 1965.82,1876.12 1955.5,1878.5C 1922.51,1885.31 1889.18,1889.65 1855.5,1891.5C 1846.65,1891.17 1837.98,1891.51 1829.5,1892.5C 1790.7,1893.3 1752.03,1891.46 1713.5,1887C 1662.81,1879.57 1613.14,1868.24 1564.5,1853C 1591.21,1904.99 1615.87,1957.82 1638.5,2011.5C 1659.32,2059.8 1677.49,2109.13 1693,2159.5C 1698.67,2180.18 1702.67,2201.18 1705,2222.5C 1707.95,2256.86 1702.62,2289.86 1689,2321.5C 1671.41,2361.71 1648.08,2398.04 1619,2430.5C 1612.76,2437.41 1605.93,2443.57 1598.5,2449C 1595.65,2450.29 1592.65,2450.79 1589.5,2450.5C 1589.59,2437.82 1591.75,2425.49 1596,2413.5C 1611.79,2359.4 1638.29,2311.56 1675.5,2270C 1670.55,2251.36 1665.05,2232.86 1659,2214.5C 1631.54,2153.26 1604.38,2091.93 1577.5,2030.5C 1561.96,1992.42 1546.13,1954.42 1530,1916.5C 1519.73,1892.02 1513.89,1866.52 1512.5,1840C 1512.49,1835.76 1512.99,1831.6 1514,1827.5C 1516.48,1823.88 1517.81,1819.88 1518,1815.5C 1519,1813.68 1520.16,1812.01 1521.5,1810.5C 1525.31,1809.31 1528.97,1807.97 1532.5,1806.5C 1559.83,1803.88 1587.16,1804.04 1614.5,1807C 1672.77,1814.11 1731.11,1820.61 1789.5,1826.5C 1793.43,1827.36 1797.43,1827.69 1801.5,1827.5C 1832.48,1829.27 1863.48,1830.1 1894.5,1830C 1856.47,1817.38 1818.8,1803.88 1781.5,1789.5C 1776.68,1787.26 1771.68,1785.26 1766.5,1783.5C 1718.96,1762.23 1671.29,1741.23 1623.5,1720.5C 1460.89,1651.53 1300.89,1576.53 1143.5,1495.5C 1131.35,1488.92 1119.02,1482.59 1106.5,1476.5C 1105.89,1476.62 1105.56,1476.96 1105.5,1477.5C 1063.82,1454.66 1021.82,1432.32 979.5,1410.5C 956.448,1397.64 933.115,1385.31 909.5,1373.5C 837.02,1333.44 766.02,1291.1 696.5,1246.5C 723.817,1285.79 750.15,1325.79 775.5,1366.5C 784.181,1380.54 792.847,1394.54 801.5,1408.5C 806.669,1417.51 812.336,1426.18 818.5,1434.5C 817.475,1434.9 817.308,1435.56 818,1436.5C 822.584,1443.33 826.917,1450.33 831,1457.5C 832.518,1458.16 833.685,1459.16 834.5,1460.5C 833.535,1461.72 833.702,1463.05 835,1464.5C 884.77,1547.03 932.77,1630.69 979,1715.5C 980.711,1718.96 982.877,1721.96 985.5,1724.5C 984.957,1724.56 984.624,1724.89 984.5,1725.5C 986.941,1730.06 989.608,1734.4 992.5,1738.5C 1006.01,1766.94 1019.01,1795.94 1031.5,1825.5C 1034.5,1832.83 1037.5,1840.17 1040.5,1847.5C 1042.85,1852.91 1045.18,1858.24 1047.5,1863.5C 1079.03,1946.66 1106.7,2030.99 1130.5,2116.5C 1140.88,2155.36 1149.05,2194.69 1155,2234.5C 1156.09,2244.98 1156.92,2255.48 1157.5,2266C 1157.49,2271.75 1156.82,2277.42 1155.5,2283C 1156.17,2286.71 1155.33,2290.21 1153,2293.5C 1146.76,2300.41 1139.93,2306.57 1132.5,2312C 1083.08,2344.04 1030.42,2369.71 974.5,2389C 969.227,2390.46 963.894,2391.12 958.5,2391C 957.196,2390.2 956.529,2389.03 956.5,2387.5C 958.925,2380.57 962.425,2374.24 967,2368.5C 994.371,2335.57 1027.87,2311.07 1067.5,2295C 1088.44,2285.85 1110.11,2279.02 1132.5,2274.5C 1126.45,2262.4 1120.95,2250.07 1116,2237.5C 1101.21,2198.92 1086.71,2160.25 1072.5,2121.5C 1073.04,2121.44 1073.38,2121.11 1073.5,2120.5C 1070.14,2112.06 1066.8,2103.72 1063.5,2095.5C 1051.93,2062.45 1039.6,2029.78 1026.5,1997.5C 1004.55,1939.6 979.879,1882.93 952.5,1827.5C 952.5,1827.17 952.5,1826.83 952.5,1826.5C 951.42,1824 950.086,1821.67 948.5,1819.5C 942.205,1805.58 935.372,1791.91 928,1778.5C 906.672,1739.69 885.172,1701.02 863.5,1662.5C 860.767,1656.7 857.767,1651.04 854.5,1645.5C 811.642,1567.12 769.309,1488.45 727.5,1409.5C 720.693,1395.89 713.86,1382.22 707,1368.5C 706.051,1366.91 704.885,1365.57 703.5,1364.5C 678.055,1314.27 654.221,1263.27 632,1211.5C 629.093,1204.35 626.76,1197.02 625,1189.5C 620.718,1185.28 618.385,1180.28 618,1174.5C 619.996,1172.94 622.329,1172.27 625,1172.5C 629.01,1172.5 632.844,1173.34 636.5,1175C 674.55,1190.86 712.217,1207.53 749.5,1225C 853.701,1274.96 957.867,1325.13 1062,1375.5C 1051.1,1289.98 1041.1,1204.31 1032,1118.5C 1030.97,1104.51 1030.13,1090.51 1029.5,1076.5C 1029.58,1070.08 1030.25,1063.75 1031.5,1057.5C 1030.42,1053.36 1032.08,1051.03 1036.5,1050.5C 1047.89,1053.58 1058.89,1057.74 1069.5,1063C 1093.99,1074.74 1118.32,1086.74 1142.5,1099C 1258.75,1160.13 1374.75,1221.79 1490.5,1284C 1533.7,1306.77 1577.04,1329.27 1620.5,1351.5 Z M 696.5,1246.5 C 766.02,1291.1 837.02,1333.44 909.5,1373.5C 901.534,1372.64 893.534,1372.3 885.5,1372.5C 880.562,1371.61 875.562,1371.27 870.5,1371.5C 838.856,1369.52 807.19,1367.85 775.5,1366.5C 750.15,1325.79 723.817,1285.79 696.5,1246.5 Z"/></g>
<g><path style="opacity:0.998" fill="#1b1817" d="M 2606.5,1075.5 C 2636.31,1086.48 2656.15,1107.15 2666,1137.5C 2671.03,1157.64 2671.86,1177.98 2668.5,1198.5C 2667.88,1198.61 2667.38,1198.94 2667,1199.5C 2663.81,1224.63 2652.31,1244.79 2632.5,1260C 2593.52,1278.79 2562.36,1269.95 2539,1233.5C 2520,1196.02 2517.34,1157.35 2531,1117.5C 2545.02,1083.57 2570.18,1069.57 2606.5,1075.5 Z"/></g>
<g><path style="opacity:1" fill="#1b1817" d="M 2247.5,1090.5 C 2267.63,1088.49 2285.63,1093.66 2301.5,1106C 2337.86,1139.93 2348.36,1180.77 2333,1228.5C 2318.64,1276.51 2287.14,1294.35 2238.5,1282C 2188.25,1260.34 2168.42,1222.51 2179,1168.5C 2186.03,1138.23 2202.53,1114.73 2228.5,1098C 2234.72,1094.88 2241.05,1092.38 2247.5,1090.5 Z"/></g>
<g><path style="opacity:1" fill="#ebe9db" d="M 2610.5,1122.5 C 2627.1,1119.97 2636.77,1126.97 2639.5,1143.5C 2636.79,1158.54 2627.79,1164.7 2612.5,1162C 2598.15,1155.27 2594.31,1144.77 2601,1130.5C 2603.77,1127.22 2606.94,1124.55 2610.5,1122.5 Z"/></g>
<g><path style="opacity:1" fill="#eceadc" d="M 2244.5,1145.5 C 2257.14,1143.9 2265.97,1148.9 2271,1160.5C 2272.94,1177.9 2265.1,1186.4 2247.5,1186C 2231.97,1180.44 2227.14,1169.94 2233,1154.5C 2236.16,1150.49 2239.99,1147.49 2244.5,1145.5 Z"/></g>
<g><path style="opacity:0.998" fill="#7c4f39" d="M 2132.5,1240.5 C 2135.28,1297.67 2153.44,1349.34 2187,1395.5C 2235.06,1458.29 2297.23,1500.29 2373.5,1521.5C 2363.4,1565.56 2340.74,1601.56 2305.5,1629.5C 2304.51,1629.33 2303.84,1629.66 2303.5,1630.5C 2298.58,1632.77 2293.91,1635.43 2289.5,1638.5C 2263.45,1652.39 2236.12,1655.55 2207.5,1648C 2171.22,1637.45 2140.72,1617.95 2116,1589.5C 2103.67,1574.5 2091.33,1559.5 2079,1544.5C 2074.15,1539.43 2069.32,1534.43 2064.5,1529.5C 2063.16,1527.99 2062,1526.32 2061,1524.5C 2028.2,1493.35 1993.37,1464.85 1956.5,1439C 1941.92,1427.75 1929.42,1414.59 1919,1399.5C 1910.78,1385.25 1906.95,1369.91 1907.5,1353.5C 1886.27,1358.64 1864.94,1363.47 1843.5,1368C 1803.97,1374.56 1764.63,1381.39 1725.5,1388.5C 1724.58,1388.02 1723.58,1387.69 1722.5,1387.5C 1718.52,1387.86 1714.85,1388.86 1711.5,1390.5C 1710.58,1390.02 1709.58,1389.69 1708.5,1389.5C 1699.81,1391 1691.15,1392.33 1682.5,1393.5C 1665.24,1379.91 1648.58,1365.58 1632.5,1350.5C 1732.43,1340.08 1831.43,1323.91 1929.5,1302C 1940.11,1293.86 1951.78,1287.53 1964.5,1283C 1994.93,1272.28 2025.26,1261.28 2055.5,1250C 2067.2,1247.33 2079.03,1245.5 2091,1244.5C 2093.26,1244.39 2094.92,1243.39 2096,1241.5C 2097.18,1242.68 2098.68,1243.35 2100.5,1243.5C 2111.15,1242.21 2121.81,1241.21 2132.5,1240.5 Z"/></g>
<g><path style="opacity:0.997" fill="#452c24" d="M 1632.5,1350.5 C 1648.58,1365.58 1665.24,1379.91 1682.5,1393.5C 1678.79,1393.42 1675.12,1393.76 1671.5,1394.5C 1669.22,1394.39 1667.22,1393.56 1665.5,1392C 1649.71,1379.71 1634.71,1366.55 1620.5,1352.5C 1620.5,1352.17 1620.5,1351.83 1620.5,1351.5C 1624.5,1351.17 1628.5,1350.83 1632.5,1350.5 Z"/></g>
<g><path style="opacity:0.998" fill="#7b4e39" d="M 1620.5,1352.5 C 1634.71,1366.55 1649.71,1379.71 1665.5,1392C 1667.22,1393.56 1669.22,1394.39 1671.5,1394.5C 1624.83,1400.17 1578.17,1405.83 1531.5,1411.5C 1527.13,1411.47 1522.8,1411.8 1518.5,1412.5C 1503.06,1413.17 1487.73,1414.51 1472.5,1416.5C 1450.25,1402.54 1429.25,1386.87 1409.5,1369.5C 1430.41,1367.96 1451.41,1366.3 1472.5,1364.5C 1521.84,1361.61 1571.17,1357.61 1620.5,1352.5 Z"/></g>
<g><path style="opacity:1" fill="#8c5d3e" d="M 2064.5,1529.5 C 2052.33,1536.75 2040,1543.75 2027.5,1550.5C 2027.53,1549.5 2027.03,1548.84 2026,1548.5C 1918.92,1507.22 1818.75,1453.89 1725.5,1388.5C 1764.63,1381.39 1803.97,1374.56 1843.5,1368C 1864.94,1363.47 1886.27,1358.64 1907.5,1353.5C 1906.95,1369.91 1910.78,1385.25 1919,1399.5C 1929.42,1414.59 1941.92,1427.75 1956.5,1439C 1993.37,1464.85 2028.2,1493.35 2061,1524.5C 2062,1526.32 2063.16,1527.99 2064.5,1529.5 Z"/></g>
<g><path style="opacity:0.992" fill="#7b4e39" d="M 703.5,1364.5 C 704.885,1365.57 706.051,1366.91 707,1368.5C 713.86,1382.22 720.693,1395.89 727.5,1409.5C 705.487,1409.75 683.487,1410.42 661.5,1411.5C 641.936,1397.27 623.269,1381.94 605.5,1365.5C 638.154,1363.48 670.821,1363.15 703.5,1364.5 Z"/></g>
<g><path style="opacity:0.996" fill="#7b4e39" d="M 592.5,1365.5 C 609.084,1382.25 626.751,1397.75 645.5,1412C 647.473,1412.5 649.473,1412.66 651.5,1412.5C 632.653,1413.96 613.653,1415.46 594.5,1417C 585.115,1417.9 576.115,1419.4 567.5,1421.5C 563.354,1420.53 559.354,1420.86 555.5,1422.5C 516.892,1426.38 478.892,1433.04 441.5,1442.5C 437.714,1442.32 434.381,1443.32 431.5,1445.5C 416.357,1447.74 401.357,1451.4 386.5,1456.5C 387.706,1455.12 387.373,1453.95 385.5,1453C 370.394,1442.06 356.061,1430.22 342.5,1417.5C 423.705,1390.06 507.039,1372.73 592.5,1365.5 Z"/></g>
<g><path style="opacity:0.996" fill="#452c24" d="M 592.5,1365.5 C 596.833,1365.5 601.167,1365.5 605.5,1365.5C 623.269,1381.94 641.936,1397.27 661.5,1411.5C 658.375,1412.48 655.042,1412.81 651.5,1412.5C 649.473,1412.66 647.473,1412.5 645.5,1412C 626.751,1397.75 609.084,1382.25 592.5,1365.5 Z"/></g>
<g><path style="opacity:0.994" fill="#7c4f39" d="M 775.5,1366.5 C 807.19,1367.85 838.856,1369.52 870.5,1371.5C 872.628,1374.13 874.961,1376.63 877.5,1379C 889.358,1388.7 901.024,1398.53 912.5,1408.5C 875.5,1408.5 838.5,1408.5 801.5,1408.5C 792.847,1394.54 784.181,1380.54 775.5,1366.5 Z"/></g>
<g><path style="opacity:0.996" fill="#452c24" d="M 1409.5,1369.5 C 1429.25,1386.87 1450.25,1402.54 1472.5,1416.5C 1467.16,1416.69 1461.82,1417.02 1456.5,1417.5C 1435.35,1403.36 1415.35,1387.69 1396.5,1370.5C 1400.63,1369.52 1404.97,1369.18 1409.5,1369.5 Z"/></g>
<g><path style="opacity:0.995" fill="#7b4e39" d="M 1396.5,1370.5 C 1415.35,1387.69 1435.35,1403.36 1456.5,1417.5C 1420.51,1419.23 1384.51,1420.73 1348.5,1422C 1347.58,1422.28 1346.92,1422.78 1346.5,1423.5C 1341.59,1422.55 1336.59,1422.22 1331.5,1422.5C 1285.64,1422.9 1239.97,1421.9 1194.5,1419.5C 1197.85,1419.67 1201.18,1419.5 1204.5,1419C 1187.22,1406.54 1170.55,1393.37 1154.5,1379.5C 1235.14,1377.38 1315.8,1374.38 1396.5,1370.5 Z"/></g>
<g><path style="opacity:0.993" fill="#442c24" d="M 870.5,1371.5 C 875.562,1371.27 880.562,1371.61 885.5,1372.5C 899.061,1385.22 913.394,1397.06 928.5,1408C 923.845,1408.5 919.179,1408.67 914.5,1408.5C 913.833,1408.5 913.167,1408.5 912.5,1408.5C 901.024,1398.53 889.358,1388.7 877.5,1379C 874.961,1376.63 872.628,1374.13 870.5,1371.5 Z"/></g>
<g><path style="opacity:0.994" fill="#7b4e39" d="M 885.5,1372.5 C 893.534,1372.3 901.534,1372.64 909.5,1373.5C 933.115,1385.31 956.448,1397.64 979.5,1410.5C 957.658,1410.37 935.991,1409.7 914.5,1408.5C 919.179,1408.67 923.845,1408.5 928.5,1408C 913.394,1397.06 899.061,1385.22 885.5,1372.5 Z"/></g>
<g><path style="opacity:1" fill="#503328" d="M 2539.5,1373.5 C 2546.66,1373.16 2549.82,1376.49 2549,1383.5C 2533.43,1418.54 2506.6,1438.37 2468.5,1443C 2422.79,1447.05 2384.96,1431.88 2355,1397.5C 2351.95,1389.9 2354.45,1386.07 2362.5,1386C 2377.52,1403.35 2395.85,1416.02 2417.5,1424C 2443.4,1431.86 2469.07,1431.2 2494.5,1422C 2514.6,1412.56 2528.44,1397.4 2536,1376.5C 2537.15,1375.36 2538.31,1374.36 2539.5,1373.5 Z"/></g>
<g><path style="opacity:1" fill="#7b4e39" d="M 1120.5,1379.5 C 1127.17,1379.5 1133.83,1379.5 1140.5,1379.5C 1156.13,1393.31 1172.13,1406.64 1188.5,1419.5C 1176.01,1418.37 1163.67,1418.37 1151.5,1419.5C 1124.53,1406.35 1097.53,1393.18 1070.5,1380C 1087.16,1379.5 1103.83,1379.33 1120.5,1379.5 Z"/></g>
<g><path style="opacity:0.998" fill="#442c24" d="M 1140.5,1379.5 C 1145.17,1379.5 1149.83,1379.5 1154.5,1379.5C 1170.55,1393.37 1187.22,1406.54 1204.5,1419C 1201.18,1419.5 1197.85,1419.67 1194.5,1419.5C 1192.5,1419.5 1190.5,1419.5 1188.5,1419.5C 1172.13,1406.64 1156.13,1393.31 1140.5,1379.5 Z"/></g>
<g><path style="opacity:1" fill="#503328" d="M 1725.5,1388.5 C 1818.75,1453.89 1918.92,1507.22 2026,1548.5C 2027.03,1548.84 2027.53,1549.5 2027.5,1550.5C 2024.83,1551.83 2022.17,1553.17 2019.5,1554.5C 1938.41,1524.62 1861.41,1486.79 1788.5,1441C 1762.46,1424.65 1736.8,1407.82 1711.5,1390.5C 1714.85,1388.86 1718.52,1387.86 1722.5,1387.5C 1723.58,1387.69 1724.58,1388.02 1725.5,1388.5 Z"/></g>
<g><path style="opacity:1" fill="#8c5d3e" d="M 1711.5,1390.5 C 1736.8,1407.82 1762.46,1424.65 1788.5,1441C 1861.41,1486.79 1938.41,1524.62 2019.5,1554.5C 1994.33,1568.25 1968.67,1581.25 1942.5,1593.5C 1938.64,1595.26 1934.97,1597.26 1931.5,1599.5C 1921.04,1603.89 1910.71,1608.56 1900.5,1613.5C 1804.01,1576.42 1712.01,1530.59 1624.5,1476C 1593.07,1455.06 1562.07,1433.56 1531.5,1411.5C 1578.17,1405.83 1624.83,1400.17 1671.5,1394.5C 1675.12,1393.76 1678.79,1393.42 1682.5,1393.5C 1691.15,1392.33 1699.81,1391 1708.5,1389.5C 1709.58,1389.69 1710.58,1390.02 1711.5,1390.5 Z"/></g>
<g><path style="opacity:1" fill="#8c5d3e" d="M 801.5,1408.5 C 838.5,1408.5 875.5,1408.5 912.5,1408.5C 913.167,1408.5 913.833,1408.5 914.5,1408.5C 935.991,1409.7 957.658,1410.37 979.5,1410.5C 1021.82,1432.32 1063.82,1454.66 1105.5,1477.5C 1160.82,1523 1218.82,1564.83 1279.5,1603C 1365.36,1654.43 1454.03,1700.93 1545.5,1742.5C 1540.25,1744.15 1534.92,1745.82 1529.5,1747.5C 1525.6,1748.06 1521.94,1749.06 1518.5,1750.5C 1465.51,1764.16 1412.18,1776.16 1358.5,1786.5C 1286.19,1751.18 1214.86,1714.01 1144.5,1675C 1075.87,1636.2 1010.87,1592.2 949.5,1543C 905.377,1507.38 861.71,1471.21 818.5,1434.5C 812.336,1426.18 806.669,1417.51 801.5,1408.5 Z"/></g>
<g><path style="opacity:1" fill="#8c5d3e" d="M 727.5,1409.5 C 769.309,1488.45 811.642,1567.12 854.5,1645.5C 752.551,1579.26 656.884,1504.59 567.5,1421.5C 576.115,1419.4 585.115,1417.9 594.5,1417C 613.653,1415.46 632.653,1413.96 651.5,1412.5C 655.042,1412.81 658.375,1412.48 661.5,1411.5C 683.487,1410.42 705.487,1409.75 727.5,1409.5 Z"/></g>
<g><path style="opacity:1" fill="#503328" d="M 1531.5,1411.5 C 1562.07,1433.56 1593.07,1455.06 1624.5,1476C 1712.01,1530.59 1804.01,1576.42 1900.5,1613.5C 1897.17,1614.83 1893.84,1616.16 1890.5,1617.5C 1755.25,1568.24 1631.25,1499.9 1518.5,1412.5C 1522.8,1411.8 1527.13,1411.47 1531.5,1411.5 Z"/></g>
<g><path style="opacity:1" fill="#8c5d3e" d="M 1518.5,1412.5 C 1631.25,1499.9 1755.25,1568.24 1890.5,1617.5C 1848.36,1636.57 1805.69,1654.57 1762.5,1671.5C 1709.11,1648.98 1656.45,1624.48 1604.5,1598C 1512.42,1548.49 1426.42,1490.32 1346.5,1423.5C 1346.92,1422.78 1347.58,1422.28 1348.5,1422C 1384.51,1420.73 1420.51,1419.23 1456.5,1417.5C 1461.82,1417.02 1467.16,1416.69 1472.5,1416.5C 1487.73,1414.51 1503.06,1413.17 1518.5,1412.5 Z"/></g>
<g><path style="opacity:0.996" fill="#442c24" d="M 342.5,1417.5 C 356.061,1430.22 370.394,1442.06 385.5,1453C 387.373,1453.95 387.706,1455.12 386.5,1456.5C 383.833,1457.17 381.167,1457.83 378.5,1458.5C 372.796,1455.64 367.463,1452.14 362.5,1448C 352.24,1439.38 342.24,1430.55 332.5,1421.5C 335.54,1419.65 338.873,1418.32 342.5,1417.5 Z"/></g>
<g><path style="opacity:1" fill="#8c5d3e" d="M 1151.5,1419.5 C 1163.67,1418.37 1176.01,1418.37 1188.5,1419.5C 1190.5,1419.5 1192.5,1419.5 1194.5,1419.5C 1239.97,1421.9 1285.64,1422.9 1331.5,1422.5C 1451.55,1525.82 1585.55,1607.65 1733.5,1668C 1738.61,1669.72 1743.61,1671.72 1748.5,1674C 1750.13,1674.49 1751.8,1674.66 1753.5,1674.5C 1749.32,1676.34 1744.98,1678.01 1740.5,1679.5C 1737.29,1680.94 1733.96,1682.1 1730.5,1683C 1729.06,1683.38 1728.06,1684.21 1727.5,1685.5C 1599.29,1624.23 1469.96,1565.4 1339.5,1509C 1276.69,1479.43 1214.02,1449.59 1151.5,1419.5 Z"/></g>
<g><path style="opacity:1" fill="#503428" d="M 567.5,1421.5 C 656.884,1504.59 752.551,1579.26 854.5,1645.5C 857.767,1651.04 860.767,1656.7 863.5,1662.5C 777.713,1606.9 695.713,1546.06 617.5,1480C 596.336,1461.33 575.669,1442.17 555.5,1422.5C 559.354,1420.86 563.354,1420.53 567.5,1421.5 Z"/></g>
<g><path style="opacity:0.994" fill="#7b4e39" d="M 332.5,1421.5 C 342.24,1430.55 352.24,1439.38 362.5,1448C 367.463,1452.14 372.796,1455.64 378.5,1458.5C 350.416,1466.86 323.082,1477.19 296.5,1489.5C 294.076,1490.03 291.743,1490.86 289.5,1492C 288.748,1492.67 288.414,1493.5 288.5,1494.5C 287.85,1494.2 287.183,1493.86 286.5,1493.5C 258.872,1505.97 233.205,1521.47 209.5,1540C 202.663,1545.67 196.329,1551.84 190.5,1558.5C 189.5,1559.17 188.5,1559.83 187.5,1560.5C 185.867,1536.9 192.367,1515.9 207,1497.5C 226.039,1475.79 248.539,1458.63 274.5,1446C 293.228,1436.47 312.562,1428.3 332.5,1421.5 Z"/></g>
<g><path style="opacity:1" fill="#8c5d3e" d="M 555.5,1422.5 C 575.669,1442.17 596.336,1461.33 617.5,1480C 695.713,1546.06 777.713,1606.9 863.5,1662.5C 885.172,1701.02 906.672,1739.69 928,1778.5C 935.372,1791.91 942.205,1805.58 948.5,1819.5C 846.117,1772.66 749.117,1717.16 657.5,1653C 585.341,1598.52 519.841,1536.68 461,1467.5C 454.008,1459.5 447.508,1451.17 441.5,1442.5C 478.892,1433.04 516.892,1426.38 555.5,1422.5 Z"/></g>
<g><path style="opacity:1" fill="#503328" d="M 1331.5,1422.5 C 1336.59,1422.22 1341.59,1422.55 1346.5,1423.5C 1426.42,1490.32 1512.42,1548.49 1604.5,1598C 1656.45,1624.48 1709.11,1648.98 1762.5,1671.5C 1759.57,1672.7 1756.57,1673.7 1753.5,1674.5C 1751.8,1674.66 1750.13,1674.49 1748.5,1674C 1743.61,1671.72 1738.61,1669.72 1733.5,1668C 1585.55,1607.65 1451.55,1525.82 1331.5,1422.5 Z"/></g>
<g><path style="opacity:1" fill="#503328" d="M 818.5,1434.5 C 861.71,1471.21 905.377,1507.38 949.5,1543C 1010.87,1592.2 1075.87,1636.2 1144.5,1675C 1214.86,1714.01 1286.19,1751.18 1358.5,1786.5C 1354.83,1787.17 1351.17,1787.83 1347.5,1788.5C 1250.35,1744.93 1156.68,1695.09 1066.5,1639C 1003.24,1596.41 942.238,1550.75 883.5,1502C 867.136,1488.16 850.802,1474.33 834.5,1460.5C 833.685,1459.16 832.518,1458.16 831,1457.5C 826.917,1450.33 822.584,1443.33 818,1436.5C 817.308,1435.56 817.475,1434.9 818.5,1434.5 Z"/></g>
<g><path style="opacity:1" fill="#503328" d="M 441.5,1442.5 C 447.508,1451.17 454.008,1459.5 461,1467.5C 519.841,1536.68 585.341,1598.52 657.5,1653C 749.117,1717.16 846.117,1772.66 948.5,1819.5C 950.086,1821.67 951.42,1824 952.5,1826.5C 948.818,1826.67 945.152,1826.5 941.5,1826C 869.131,1791.66 798.798,1753.99 730.5,1713C 637.653,1655.72 554.487,1586.22 481,1504.5C 463.913,1485.25 447.413,1465.59 431.5,1445.5C 434.381,1443.32 437.714,1442.32 441.5,1442.5 Z"/></g>
<g><path style="opacity:1" fill="#8c5d3e" d="M 431.5,1445.5 C 447.413,1465.59 463.913,1485.25 481,1504.5C 554.487,1586.22 637.653,1655.72 730.5,1713C 798.798,1753.99 869.131,1791.66 941.5,1826C 945.152,1826.5 948.818,1826.67 952.5,1826.5C 952.5,1826.83 952.5,1827.17 952.5,1827.5C 909.829,1827.58 867.162,1827.25 824.5,1826.5C 818.69,1825.51 812.69,1825.18 806.5,1825.5C 776.972,1824.52 747.638,1822.86 718.5,1820.5C 719.873,1820.66 721.207,1820.49 722.5,1820C 622.823,1778.7 532.49,1723.04 451.5,1653C 394.226,1603.45 342.56,1548.95 296.5,1489.5C 323.082,1477.19 350.416,1466.86 378.5,1458.5C 381.167,1457.83 383.833,1457.17 386.5,1456.5C 401.357,1451.4 416.357,1447.74 431.5,1445.5 Z"/></g>
<g><path style="opacity:1" fill="#8c5d3e" d="M 834.5,1460.5 C 850.802,1474.33 867.136,1488.16 883.5,1502C 942.238,1550.75 1003.24,1596.41 1066.5,1639C 1156.68,1695.09 1250.35,1744.93 1347.5,1788.5C 1328.04,1792.27 1308.37,1795.6 1288.5,1798.5C 1284.74,1798.85 1281.08,1799.51 1277.5,1800.5C 1243.91,1805.38 1210.25,1809.71 1176.5,1813.5C 1111.25,1787.38 1047.58,1757.71 985.5,1724.5C 982.877,1721.96 980.711,1718.96 979,1715.5C 932.77,1630.69 884.77,1547.03 835,1464.5C 833.702,1463.05 833.535,1461.72 834.5,1460.5 Z"/></g>
<g><path style="opacity:1" fill="#503328" d="M 1105.5,1477.5 C 1105.56,1476.96 1105.89,1476.62 1106.5,1476.5C 1119.02,1482.59 1131.35,1488.92 1143.5,1495.5C 1195.14,1537.5 1249.81,1575.34 1307.5,1609C 1388.83,1655.17 1471.83,1698.5 1556.5,1739C 1555.94,1739.38 1555.61,1739.88 1555.5,1740.5C 1552.17,1741.17 1548.83,1741.83 1545.5,1742.5C 1454.03,1700.93 1365.36,1654.43 1279.5,1603C 1218.82,1564.83 1160.82,1523 1105.5,1477.5 Z"/></g>
<g><path style="opacity:1" fill="#503328" d="M 296.5,1489.5 C 342.56,1548.95 394.226,1603.45 451.5,1653C 532.49,1723.04 622.823,1778.7 722.5,1820C 721.207,1820.49 719.873,1820.66 718.5,1820.5C 711.789,1820.71 705.123,1820.38 698.5,1819.5C 534.767,1745.45 398.1,1637.11 288.5,1494.5C 288.414,1493.5 288.748,1492.67 289.5,1492C 291.743,1490.86 294.076,1490.03 296.5,1489.5 Z"/></g>
<g><path style="opacity:1" fill="#8c5d3e" d="M 288.5,1494.5 C 398.1,1637.11 534.767,1745.45 698.5,1819.5C 669.128,1817.23 639.795,1814.56 610.5,1811.5C 606.27,1810.78 601.937,1810.11 597.5,1809.5C 545.152,1803.66 493.152,1795.66 441.5,1785.5C 439.883,1784.96 438.216,1784.63 436.5,1784.5C 382.755,1746.62 331.422,1705.45 282.5,1661C 248.662,1629.35 217.996,1595.18 190.5,1558.5C 196.329,1551.84 202.663,1545.67 209.5,1540C 233.205,1521.47 258.872,1505.97 286.5,1493.5C 287.183,1493.86 287.85,1494.2 288.5,1494.5 Z"/></g>
<g><path style="opacity:1" fill="#8c5d3e" d="M 1143.5,1495.5 C 1300.89,1576.53 1460.89,1651.53 1623.5,1720.5C 1600.65,1726.56 1577.98,1733.23 1555.5,1740.5C 1555.61,1739.88 1555.94,1739.38 1556.5,1739C 1471.83,1698.5 1388.83,1655.17 1307.5,1609C 1249.81,1575.34 1195.14,1537.5 1143.5,1495.5 Z"/></g>
<g><path style="opacity:0.999" fill="#d2ad43" d="M 2064.5,1529.5 C 2069.32,1534.43 2074.15,1539.43 2079,1544.5C 2091.33,1559.5 2103.67,1574.5 2116,1589.5C 2140.72,1617.95 2171.22,1637.45 2207.5,1648C 2236.12,1655.55 2263.45,1652.39 2289.5,1638.5C 2260.66,1668.01 2230.33,1695.68 2198.5,1721.5C 2167.91,1746.76 2135.91,1770.09 2102.5,1791.5C 2037.55,1747.71 1987.71,1690.71 1953,1620.5C 1948.8,1611.72 1945.3,1602.72 1942.5,1593.5C 1968.67,1581.25 1994.33,1568.25 2019.5,1554.5C 2022.17,1553.17 2024.83,1551.83 2027.5,1550.5C 2040,1543.75 2052.33,1536.75 2064.5,1529.5 Z"/></g>
<g><path style="opacity:0.983" fill="#66422e" d="M 2198.5,1721.5 C 2230.33,1695.68 2260.66,1668.01 2289.5,1638.5C 2293.91,1635.43 2298.58,1632.77 2303.5,1630.5C 2304.49,1630.67 2305.16,1630.34 2305.5,1629.5C 2348.01,1617.05 2388.67,1600.22 2427.5,1579C 2448.17,1567 2468.83,1555 2489.5,1543C 2493.63,1540.88 2497.96,1539.88 2502.5,1540C 2507.51,1542.5 2512.17,1545.5 2516.5,1549C 2550.31,1581.47 2578.81,1617.97 2602,1658.5C 2621.69,1692.06 2638.86,1726.89 2653.5,1763C 2691.51,1770 2727.84,1782 2762.5,1799C 2787.6,1814.11 2811.6,1830.77 2834.5,1849C 2841.05,1854.88 2846.88,1861.38 2852,1868.5C 2852.74,1870.44 2852.58,1872.27 2851.5,1874C 2848.79,1875.06 2845.96,1875.56 2843,1875.5C 2814.54,1873.26 2787.37,1866.09 2761.5,1854C 2705.26,1829.47 2656.76,1794.3 2616,1748.5C 2576.85,1700.25 2543.19,1648.25 2515,1592.5C 2510.04,1581.59 2505.37,1570.59 2501,1559.5C 2495.17,1570.33 2488.17,1580.33 2480,1589.5C 2431.49,1639.87 2373.66,1675.7 2306.5,1697C 2271.14,1708.01 2235.14,1716.17 2198.5,1721.5 Z"/></g>
<g><path style="opacity:0.994" fill="#503328" d="M 190.5,1558.5 C 217.996,1595.18 248.662,1629.35 282.5,1661C 331.422,1705.45 382.755,1746.62 436.5,1784.5C 428.805,1782.96 421.138,1781.29 413.5,1779.5C 348.477,1733.35 287.977,1681.35 232,1623.5C 214.866,1604.54 198.699,1584.87 183.5,1564.5C 184.5,1562.83 185.833,1561.5 187.5,1560.5C 188.5,1559.83 189.5,1559.17 190.5,1558.5 Z"/></g>
<g><path style="opacity:0.998" fill="#8c5d3e" d="M 183.5,1564.5 C 198.699,1584.87 214.866,1604.54 232,1623.5C 287.977,1681.35 348.477,1733.35 413.5,1779.5C 355.15,1767.33 298.484,1749.83 243.5,1727C 221.842,1717.52 201.842,1705.52 183.5,1691C 155.842,1665.53 148.342,1635.03 161,1599.5C 166.53,1586.41 174.03,1574.74 183.5,1564.5 Z"/></g>
<g><path style="opacity:0.996" fill="#bd953e" d="M 1942.5,1593.5 C 1945.3,1602.72 1948.8,1611.72 1953,1620.5C 1987.71,1690.71 2037.55,1747.71 2102.5,1791.5C 2100.14,1793.85 2097.47,1795.85 2094.5,1797.5C 2028.12,1751.95 1977.29,1692.95 1942,1620.5C 1939.07,1613.87 1936.24,1607.21 1933.5,1600.5C 1933.04,1599.7 1932.38,1599.37 1931.5,1599.5C 1934.97,1597.26 1938.64,1595.26 1942.5,1593.5 Z"/></g>
<g><path style="opacity:0.999" fill="#d2ad43" d="M 1931.5,1599.5 C 1932.38,1599.37 1933.04,1599.7 1933.5,1600.5C 1936.24,1607.21 1939.07,1613.87 1942,1620.5C 1977.29,1692.95 2028.12,1751.95 2094.5,1797.5C 2077.8,1808.18 2061.13,1818.85 2044.5,1829.5C 2026.74,1830.47 2009.07,1831.97 1991.5,1834C 1970.74,1816.12 1948.41,1800.45 1924.5,1787C 1865.02,1753.93 1804.69,1722.43 1743.5,1692.5C 1742.35,1688.23 1741.35,1683.89 1740.5,1679.5C 1744.98,1678.01 1749.32,1676.34 1753.5,1674.5C 1756.57,1673.7 1759.57,1672.7 1762.5,1671.5C 1805.69,1654.57 1848.36,1636.57 1890.5,1617.5C 1893.84,1616.16 1897.17,1614.83 1900.5,1613.5C 1910.71,1608.56 1921.04,1603.89 1931.5,1599.5 Z"/></g>
<g><path style="opacity:0.995" fill="#bc953f" d="M 1740.5,1679.5 C 1741.35,1683.89 1742.35,1688.23 1743.5,1692.5C 1738.17,1690.17 1732.83,1687.83 1727.5,1685.5C 1728.06,1684.21 1729.06,1683.38 1730.5,1683C 1733.96,1682.1 1737.29,1680.94 1740.5,1679.5 Z"/></g>
<g><path style="opacity:1" fill="#d2ad43" d="M 1623.5,1720.5 C 1671.29,1741.23 1718.96,1762.23 1766.5,1783.5C 1773.4,1798.31 1781.07,1812.64 1789.5,1826.5C 1731.11,1820.61 1672.77,1814.11 1614.5,1807C 1587.16,1804.04 1559.83,1803.88 1532.5,1806.5C 1531.78,1806.08 1531.28,1805.42 1531,1804.5C 1529.68,1785.53 1529.18,1766.53 1529.5,1747.5C 1534.92,1745.82 1540.25,1744.15 1545.5,1742.5C 1548.83,1741.83 1552.17,1741.17 1555.5,1740.5C 1577.98,1733.23 1600.65,1726.56 1623.5,1720.5 Z"/></g>
<g><path style="opacity:1" fill="#503328" d="M 985.5,1724.5 C 1047.58,1757.71 1111.25,1787.38 1176.5,1813.5C 1171.19,1814.1 1165.85,1814.43 1160.5,1814.5C 1156.04,1813.94 1151.71,1812.78 1147.5,1811C 1094.81,1788.99 1043.15,1764.82 992.5,1738.5C 989.608,1734.4 986.941,1730.06 984.5,1725.5C 984.624,1724.89 984.957,1724.56 985.5,1724.5 Z"/></g>
<g><path style="opacity:1" fill="#8c5e3e" d="M 992.5,1738.5 C 1043.15,1764.82 1094.81,1788.99 1147.5,1811C 1151.71,1812.78 1156.04,1813.94 1160.5,1814.5C 1128.06,1818.12 1095.39,1820.79 1062.5,1822.5C 1058.79,1822.42 1055.12,1822.76 1051.5,1823.5C 1044.64,1823.64 1037.97,1824.3 1031.5,1825.5C 1019.01,1795.94 1006.01,1766.94 992.5,1738.5 Z"/></g>
<g><path style="opacity:0.992" fill="#be953e" d="M 1529.5,1747.5 C 1529.18,1766.53 1529.68,1785.53 1531,1804.5C 1531.28,1805.42 1531.78,1806.08 1532.5,1806.5C 1528.97,1807.97 1525.31,1809.31 1521.5,1810.5C 1520.28,1790.36 1519.28,1770.36 1518.5,1750.5C 1521.94,1749.06 1525.6,1748.06 1529.5,1747.5 Z"/></g>
<g><path style="opacity:0.999" fill="#d2ad43" d="M 1518.5,1750.5 C 1519.28,1770.36 1520.28,1790.36 1521.5,1810.5C 1520.16,1812.01 1519,1813.68 1518,1815.5C 1517.81,1819.88 1516.48,1823.88 1514,1827.5C 1512.99,1831.6 1512.49,1835.76 1512.5,1840C 1513.89,1866.52 1519.73,1892.02 1530,1916.5C 1546.13,1954.42 1561.96,1992.42 1577.5,2030.5C 1505.76,2051.93 1433.1,2069.6 1359.5,2083.5C 1334.8,2055.6 1314.64,2024.6 1299,1990.5C 1277.42,1934.71 1272.09,1877.37 1283,1818.5C 1284.74,1811.79 1286.57,1805.12 1288.5,1798.5C 1308.37,1795.6 1328.04,1792.27 1347.5,1788.5C 1351.17,1787.83 1354.83,1787.17 1358.5,1786.5C 1412.18,1776.16 1465.51,1764.16 1518.5,1750.5 Z"/></g>
<g><path style="opacity:0.994" fill="#bd953e" d="M 1766.5,1783.5 C 1771.68,1785.26 1776.68,1787.26 1781.5,1789.5C 1780.43,1790.25 1780.26,1791.25 1781,1792.5C 1787.86,1804.22 1794.69,1815.89 1801.5,1827.5C 1797.43,1827.69 1793.43,1827.36 1789.5,1826.5C 1781.07,1812.64 1773.4,1798.31 1766.5,1783.5 Z"/></g>
<g><path style="opacity:0.997" fill="#d2ad43" d="M 441.5,1785.5 C 493.152,1795.66 545.152,1803.66 597.5,1809.5C 582.919,1834 570.419,1859.67 560,1886.5C 540.109,1942.09 540.776,1997.43 562,2052.5C 565.687,2062.4 569.854,2072.07 574.5,2081.5C 526.294,2068.23 482.294,2046.73 442.5,2017C 395.873,1978.41 378.706,1929.25 391,1869.5C 398.604,1835.78 415.437,1807.78 441.5,1785.5 Z"/></g>
<g><path style="opacity:1" fill="#d1ac43" d="M 1781.5,1789.5 C 1818.8,1803.88 1856.47,1817.38 1894.5,1830C 1863.48,1830.1 1832.48,1829.27 1801.5,1827.5C 1794.69,1815.89 1787.86,1804.22 1781,1792.5C 1780.26,1791.25 1780.43,1790.25 1781.5,1789.5 Z"/></g>
<g><path style="opacity:0.993" fill="#be963e" d="M 1288.5,1798.5 C 1286.57,1805.12 1284.74,1811.79 1283,1818.5C 1272.09,1877.37 1277.42,1934.71 1299,1990.5C 1314.64,2024.6 1334.8,2055.6 1359.5,2083.5C 1355.96,2084.67 1352.29,2085.34 1348.5,2085.5C 1322.38,2054.97 1301.55,2020.97 1286,1983.5C 1264.84,1923.3 1262.01,1862.3 1277.5,1800.5C 1281.08,1799.51 1284.74,1798.85 1288.5,1798.5 Z"/></g>
<g><path style="opacity:0.999" fill="#d2ad43" d="M 1277.5,1800.5 C 1262.01,1862.3 1264.84,1923.3 1286,1983.5C 1301.55,2020.97 1322.38,2054.97 1348.5,2085.5C 1276.55,2099.92 1203.88,2110.26 1130.5,2116.5C 1106.7,2030.99 1079.03,1946.66 1047.5,1863.5C 1051.66,1849.52 1056.66,1835.85 1062.5,1822.5C 1095.39,1820.79 1128.06,1818.12 1160.5,1814.5C 1165.85,1814.43 1171.19,1814.1 1176.5,1813.5C 1210.25,1809.71 1243.91,1805.38 1277.5,1800.5 Z"/></g>
<g><path style="opacity:0.994" fill="#be963e" d="M 597.5,1809.5 C 601.937,1810.11 606.27,1810.78 610.5,1811.5C 609.504,1811.41 608.671,1811.75 608,1812.5C 580.092,1853 562.759,1897.66 556,1946.5C 553.419,1979.77 557.753,2012.1 569,2043.5C 574.042,2057.91 579.875,2071.91 586.5,2085.5C 582.437,2084.37 578.437,2083.03 574.5,2081.5C 569.854,2072.07 565.687,2062.4 562,2052.5C 540.776,1997.43 540.109,1942.09 560,1886.5C 570.419,1859.67 582.919,1834 597.5,1809.5 Z"/></g>
<g><path style="opacity:0.999" fill="#d2ad43" d="M 610.5,1811.5 C 639.795,1814.56 669.128,1817.23 698.5,1819.5C 705.123,1820.38 711.789,1820.71 718.5,1820.5C 747.638,1822.86 776.972,1824.52 806.5,1825.5C 785.611,1862.67 771.777,1902.33 765,1944.5C 758.857,1992.98 765.524,2039.64 785,2084.5C 790.315,2097.13 796.148,2109.46 802.5,2121.5C 729.245,2116.85 657.245,2104.85 586.5,2085.5C 579.875,2071.91 574.042,2057.91 569,2043.5C 557.753,2012.1 553.419,1979.77 556,1946.5C 562.759,1897.66 580.092,1853 608,1812.5C 608.671,1811.75 609.504,1811.41 610.5,1811.5 Z"/></g>
<g><path style="opacity:0.998" fill="#d1ac43" d="M 1051.5,1823.5 C 1048.77,1830.85 1045.94,1838.18 1043,1845.5C 1042.58,1846.76 1041.75,1847.42 1040.5,1847.5C 1037.5,1840.17 1034.5,1832.83 1031.5,1825.5C 1037.97,1824.3 1044.64,1823.64 1051.5,1823.5 Z"/></g>
<g><path style="opacity:0.995" fill="#bd953e" d="M 1062.5,1822.5 C 1056.66,1835.85 1051.66,1849.52 1047.5,1863.5C 1045.18,1858.24 1042.85,1852.91 1040.5,1847.5C 1041.75,1847.42 1042.58,1846.76 1043,1845.5C 1045.94,1838.18 1048.77,1830.85 1051.5,1823.5C 1055.12,1822.76 1058.79,1822.42 1062.5,1822.5 Z"/></g>
<g><path style="opacity:0.993" fill="#be963e" d="M 806.5,1825.5 C 812.69,1825.18 818.69,1825.51 824.5,1826.5C 820.207,1825.54 817.04,1826.87 815,1830.5C 788.357,1876.43 773.857,1925.93 771.5,1979C 773.823,2030.47 788.156,2078.3 814.5,2122.5C 810.466,2122.5 806.466,2122.16 802.5,2121.5C 796.148,2109.46 790.315,2097.13 785,2084.5C 765.524,2039.64 758.857,1992.98 765,1944.5C 771.777,1902.33 785.611,1862.67 806.5,1825.5 Z"/></g>
<g><path style="opacity:0.999" fill="#d2ad43" d="M 824.5,1826.5 C 867.162,1827.25 909.829,1827.58 952.5,1827.5C 979.879,1882.93 1004.55,1939.6 1026.5,1997.5C 1031.39,2033.2 1043.72,2065.86 1063.5,2095.5C 1066.8,2103.72 1070.14,2112.06 1073.5,2120.5C 1073.38,2121.11 1073.04,2121.44 1072.5,2121.5C 986.529,2127.67 900.529,2128 814.5,2122.5C 788.156,2078.3 773.823,2030.47 771.5,1979C 773.857,1925.93 788.357,1876.43 815,1830.5C 817.04,1826.87 820.207,1825.54 824.5,1826.5 Z"/></g>
<g><path style="opacity:0.998" fill="#d2ad43" d="M 1829.5,1892.5 C 1833.85,1892.33 1838.18,1892.5 1842.5,1893C 1851.44,1902.78 1861.1,1911.61 1871.5,1919.5C 1834.17,1937.32 1796.17,1953.82 1757.5,1969C 1717.99,1983.89 1678.32,1998.06 1638.5,2011.5C 1615.87,1957.82 1591.21,1904.99 1564.5,1853C 1613.14,1868.24 1662.81,1879.57 1713.5,1887C 1752.03,1891.46 1790.7,1893.3 1829.5,1892.5 Z"/></g>
<g><path style="opacity:0.985" fill="#d1ac43" d="M 1955.5,1878.5 C 1931.22,1892.14 1906.22,1904.47 1880.5,1915.5C 1871.53,1908.2 1863.2,1900.2 1855.5,1891.5C 1889.18,1889.65 1922.51,1885.31 1955.5,1878.5 Z"/></g>
<g><path style="opacity:0.988" fill="#bc943e" d="M 1829.5,1892.5 C 1837.98,1891.51 1846.65,1891.17 1855.5,1891.5C 1863.2,1900.2 1871.53,1908.2 1880.5,1915.5C 1877.91,1917.62 1874.91,1918.96 1871.5,1919.5C 1861.1,1911.61 1851.44,1902.78 1842.5,1893C 1838.18,1892.5 1833.85,1892.33 1829.5,1892.5 Z"/></g>
<g><path style="opacity:0.995" fill="#bb933e" d="M 1026.5,1997.5 C 1039.6,2029.78 1051.93,2062.45 1063.5,2095.5C 1043.72,2065.86 1031.39,2033.2 1026.5,1997.5 Z"/></g>
</svg>
