<?xml version="1.0" encoding="UTF-8"?>
<!DOCTYPE svg PUBLIC "-//W3C//DTD SVG 1.1//EN" "http://www.w3.org/Graphics/SVG/1.1/DTD/svg11.dtd">
<svg xmlns="http://www.w3.org/2000/svg" version="1.1" width="3000px" height="3000px" style="shape-rendering:geometricPrecision; text-rendering:geometricPrecision; image-rendering:optimizeQuality; fill-rule:evenodd; clip-rule:evenodd" xmlns:xlink="http://www.w3.org/1999/xlink">
<g><path style="opacity:1" fill="#4b53ae" d="M 2122.5,793.5 C 2101.51,872.664 2061.18,940.164 2001.5,996C 1943.29,1048.81 1877.96,1091.14 1805.5,1123C 1725.48,1158.73 1642.48,1184.9 1556.5,1201.5C 1567.64,1262.41 1578.31,1323.41 1588.5,1384.5C 1563.52,1386.49 1538.19,1387.16 1512.5,1386.5C 1512.5,1384.83 1512.5,1383.17 1512.5,1381.5C 1517.44,1323.83 1522.44,1266.16 1527.5,1208.5C 1528.45,1207.08 1528.78,1205.41 1528.5,1203.5C 1527.17,1203.5 1525.83,1203.5 1524.5,1203.5C 1399.75,1180.42 1282.75,1136.92 1173.5,1073C 1124.67,1043.19 1080.83,1007.03 1042,964.5C 992.891,908.945 961.391,844.612 947.5,771.5C 942.299,739.817 941.299,708.151 944.5,676.5C 945.806,671.384 946.473,666.051 946.5,660.5C 955.174,604.837 976.674,554.837 1011,510.5C 1054.47,456.69 1106.63,413.523 1167.5,381C 1212.5,356.389 1259.5,336.556 1308.5,321.5C 1313.16,320.943 1317.5,319.61 1321.5,317.5C 1477.47,270.172 1632.47,273.672 1786.5,328C 1874.66,357.218 1952.99,402.551 2021.5,464C 2115.63,554.924 2149.3,664.757 2122.5,793.5 Z"/></g>
<g><path style="opacity:1" fill="#9270a4" d="M 1321.5,317.5 C 1317.5,319.61 1313.16,320.943 1308.5,321.5C 1312.5,319.39 1316.84,318.057 1321.5,317.5 Z"/></g>
<g><path style="opacity:1" fill="#454344" d="M 1501.5,345.5 C 1524.92,345.608 1548.25,347.108 1571.5,350C 1670.53,350.672 1765.86,369.672 1857.5,407C 1866.75,410.863 1876.09,414.529 1885.5,418C 1889.67,419.508 1890.34,421.841 1887.5,425C 1885.5,425.667 1883.5,425.667 1881.5,425C 1822.2,406.092 1761.87,391.426 1700.5,381C 1657.67,375.579 1614.67,372.579 1571.5,372C 1553.17,370.41 1534.84,368.91 1516.5,367.5C 1510.14,367.635 1503.8,368.135 1497.5,369C 1459.84,376.167 1421.84,380.5 1383.5,382C 1362.47,384.754 1341.47,387.754 1320.5,391C 1301.93,395.857 1283.6,401.523 1265.5,408C 1250.28,411.845 1234.94,415.178 1219.5,418C 1213,420.167 1206.5,422.333 1200,424.5C 1196.93,423.553 1195.93,421.553 1197,418.5C 1201.26,415.62 1205.76,413.12 1210.5,411C 1228.1,405.183 1245.76,399.516 1263.5,394C 1281.97,385.603 1300.97,378.603 1320.5,373C 1361.1,364.4 1402.1,358.734 1443.5,356C 1463.03,352.791 1482.36,349.291 1501.5,345.5 Z"/></g>
<g><path style="opacity:1" fill="#424242" d="M 1487.5,639.5 C 1597.32,634.375 1692.65,668.542 1773.5,742C 1800.38,767.195 1823.88,795.028 1844,825.5C 1854.58,810.674 1864.91,795.674 1875,780.5C 1891.35,760.34 1909.18,741.507 1928.5,724C 1931.87,722.795 1934.2,723.795 1935.5,727C 1930.05,737.395 1924.22,747.562 1918,757.5C 1902.67,779.5 1887.33,801.5 1872,823.5C 1857.61,841.055 1841.45,856.722 1823.5,870.5C 1822.25,869.96 1821.09,869.293 1820,868.5C 1732.02,977.312 1643.86,1085.98 1555.5,1194.5C 1554.57,1193.31 1554.24,1191.98 1554.5,1190.5C 1546.83,1190.67 1539.16,1190.5 1531.5,1190C 1426.67,1077.83 1321.83,965.667 1217,853.5C 1215.91,854.293 1214.75,854.96 1213.5,855.5C 1188.4,839.904 1166.9,820.238 1149,796.5C 1144.2,789.727 1140.03,782.56 1136.5,775C 1137.33,772.833 1138.83,771.333 1141,770.5C 1165.67,784.163 1186.34,802.497 1203,825.5C 1264.88,713.51 1359.71,651.51 1487.5,639.5 Z"/></g>
<g><path style="opacity:1" fill="#906fa4" d="M 946.5,660.5 C 946.473,666.051 945.806,671.384 944.5,676.5C 944.376,670.931 945.043,665.598 946.5,660.5 Z"/></g>
<g><path style="opacity:0.999" fill="#fea391" d="M 947.5,771.5 C 961.391,844.612 992.891,908.945 1042,964.5C 1080.83,1007.03 1124.67,1043.19 1173.5,1073C 1282.75,1136.92 1399.75,1180.42 1524.5,1203.5C 1525.21,1204.4 1526.21,1204.74 1527.5,1204.5C 1527.5,1205.83 1527.5,1207.17 1527.5,1208.5C 1522.44,1266.16 1517.44,1323.83 1512.5,1381.5C 1511.54,1383.26 1511.21,1385.26 1511.5,1387.5C 1518.17,1387.5 1524.83,1387.5 1531.5,1387.5C 1529.55,1448.16 1527.88,1508.82 1526.5,1569.5C 1526.8,1601.01 1527.47,1632.51 1528.5,1664C 1528.53,1676.28 1527.36,1688.45 1525,1700.5C 1523.68,1792.22 1525.35,1883.89 1530,1975.5C 1530.67,2009.83 1530.67,2044.17 1530,2078.5C 1528.07,2093.1 1527.23,2107.77 1527.5,2122.5C 1527.93,2148.51 1528.76,2174.51 1530,2200.5C 1530.83,2273.02 1530.33,2345.52 1528.5,2418C 1528.44,2453.85 1529.1,2489.68 1530.5,2525.5C 1291.57,2524.5 1052.57,2524.17 813.5,2524.5C 811.585,2524.22 809.919,2524.55 808.5,2525.5C 653.164,2556.5 497.831,2587.5 342.5,2618.5C 311.45,2535.72 305.284,2451.05 324,2364.5C 326.621,2352.85 329.787,2341.35 333.5,2330C 294.277,2213.44 288.777,2095.28 317,1975.5C 324.603,1942.52 335.103,1910.52 348.5,1879.5C 335.179,1806.76 338.345,1734.76 358,1663.5C 372.094,1616.3 394.76,1573.96 426,1536.5C 434.711,1526.29 444.211,1516.96 454.5,1508.5C 457.884,1444.41 471.05,1382.41 494,1322.5C 512.513,1276.43 537.847,1234.77 570,1197.5C 578.363,1188.8 587.03,1180.47 596,1172.5C 611.968,1037.36 672.134,926.862 776.5,841C 790.354,830.155 805.021,820.488 820.5,812C 862.766,798.189 905.099,784.689 947.5,771.5 Z"/></g>
<g><path style="opacity:0.999" fill="#fea391" d="M 2122.5,793.5 C 2140.96,799.93 2159.63,806.097 2178.5,812C 2205.98,828.08 2231.31,847.08 2254.5,869C 2339.5,951.846 2388.67,1052.68 2402,1171.5C 2442.04,1207.89 2473.04,1250.89 2495,1300.5C 2524.11,1366.4 2540.11,1435.4 2543,1507.5C 2578.07,1538.92 2605.07,1576.25 2624,1619.5C 2651.75,1685.09 2662.75,1753.43 2657,1824.5C 2655.71,1842.77 2653.54,1860.94 2650.5,1879C 2709.95,2027.52 2714.95,2177.86 2665.5,2330C 2694.23,2425.32 2691.9,2519.82 2658.5,2613.5C 2640.77,2610.79 2623.1,2607.62 2605.5,2604C 2465.95,2575.26 2326.28,2547.09 2186.5,2519.5C 2186.5,2521.83 2186.5,2524.17 2186.5,2526.5C 2078.54,2525.17 1970.37,2524.5 1862,2524.5C 1753.76,2524.5 1645.6,2524.83 1537.5,2525.5C 1538.22,2479.16 1539.38,2432.83 1541,2386.5C 1541.77,2373.11 1543.1,2359.78 1545,2346.5C 1547.59,2267.18 1548.26,2187.85 1547,2108.5C 1547.95,2098.49 1548.95,2088.49 1550,2078.5C 1550.67,2037.17 1550.67,1995.83 1550,1954.5C 1547.06,1869.52 1545.72,1784.52 1546,1699.5C 1547.93,1685.23 1548.76,1670.9 1548.5,1656.5C 1546.18,1566.84 1545.85,1477.18 1547.5,1387.5C 1561.5,1387.5 1575.5,1387.5 1589.5,1387.5C 1589.74,1386.21 1589.4,1385.21 1588.5,1384.5C 1578.31,1323.41 1567.64,1262.41 1556.5,1201.5C 1642.48,1184.9 1725.48,1158.73 1805.5,1123C 1877.96,1091.14 1943.29,1048.81 2001.5,996C 2061.18,940.164 2101.51,872.664 2122.5,793.5 Z"/></g>
<g><path style="opacity:1" fill="#444343" d="M 817.5,830.5 C 820.044,830.104 822.211,830.771 824,832.5C 839.671,853.157 853.337,875.157 865,898.5C 885.047,936.973 901.38,976.973 914,1018.5C 922.562,1056.22 931.229,1093.88 940,1131.5C 947.958,1172.25 954.292,1213.25 959,1254.5C 960.11,1292.49 960.943,1330.49 961.5,1368.5C 960.945,1397.99 958.445,1427.33 954,1456.5C 951.167,1462.17 947.834,1467.5 944,1472.5C 935.667,1480.17 927.333,1487.83 919,1495.5C 908.676,1508.19 900.343,1522.19 894,1537.5C 887.333,1553.5 880.667,1569.5 874,1585.5C 863.835,1609.66 859.002,1634.82 859.5,1661C 859.939,1681.17 860.439,1701.33 861,1721.5C 862.022,1731.61 863.689,1741.61 866,1751.5C 865.786,1760.82 863.119,1769.48 858,1777.5C 851.387,1784.11 844.721,1790.78 838,1797.5C 831.583,1805.99 825.917,1814.99 821,1824.5C 808.287,1850.92 796.954,1877.92 787,1905.5C 785.031,1912.04 783.697,1918.71 783,1925.5C 783.379,1978.21 785.379,2030.88 789,2083.5C 793.674,2108.7 799.841,2133.53 807.5,2158C 806.302,2165.66 804.468,2173.16 802,2180.5C 790.892,2198.48 782.892,2217.81 778,2238.5C 775.047,2249.03 772.714,2259.69 771,2270.5C 770.611,2319.23 776.278,2367.23 788,2414.5C 796.628,2444.09 808.295,2472.42 823,2499.5C 824.293,2502.86 823.293,2504.86 820,2505.5C 818.11,2505.21 816.777,2504.21 816,2502.5C 802.531,2479.56 791.198,2455.56 782,2430.5C 764.836,2377.19 756.503,2322.52 757,2266.5C 760.926,2241.87 767.259,2217.87 776,2194.5C 778.826,2188.18 782.159,2182.18 786,2176.5C 788.602,2170.96 790.102,2165.13 790.5,2159C 781.88,2134.02 775.38,2108.52 771,2082.5C 765.049,2026.66 762.715,1970.66 764,1914.5C 774.086,1881.66 786.419,1849.66 801,1818.5C 806.414,1808.67 812.081,1799 818,1789.5C 824.941,1781.56 832.274,1773.89 840,1766.5C 841.608,1763.62 842.941,1760.62 844,1757.5C 842.488,1746.24 841.155,1734.91 840,1723.5C 838.334,1695.52 837.667,1667.52 838,1639.5C 840.622,1620.01 845.289,1601.01 852,1582.5C 861.508,1558.48 871.842,1534.82 883,1511.5C 889.949,1498.55 898.449,1486.72 908.5,1476C 919,1469.5 927.5,1461 934,1450.5C 938.304,1422.49 940.804,1394.32 941.5,1366C 940.847,1329.17 940.347,1292.34 940,1255.5C 935.719,1215.36 930.386,1175.36 924,1135.5C 916.213,1097.44 908.213,1059.44 900,1021.5C 881.622,954.429 853.788,891.762 816.5,833.5C 816.685,832.416 817.018,831.416 817.5,830.5 Z"/></g>
<g><path style="opacity:1" fill="#444343" d="M 2200.5,830.5 C 2205,830.164 2206.83,832.164 2206,836.5C 2191.96,853.227 2180.3,871.561 2171,891.5C 2164.14,911.092 2157.47,930.759 2151,950.5C 2133.89,990.825 2118.56,1031.83 2105,1073.5C 2102.4,1094.51 2099.73,1115.51 2097,1136.5C 2091.36,1157.04 2086.36,1177.7 2082,1198.5C 2081.62,1215.83 2081.78,1233.17 2082.5,1250.5C 2079.32,1297.8 2078.82,1345.14 2081,1392.5C 2082.75,1412.24 2085.08,1431.91 2088,1451.5C 2090.67,1455.5 2093.33,1459.5 2096,1463.5C 2147.19,1516.9 2177.19,1580.57 2186,1654.5C 2188.71,1687.08 2185.71,1719.08 2177,1750.5C 2176.16,1757.98 2178.16,1764.65 2183,1770.5C 2213.63,1803.07 2234.96,1841.07 2247,1884.5C 2253.54,1909.19 2258.54,1934.19 2262,1959.5C 2263.74,1991.02 2262.08,2022.36 2257,2053.5C 2250.43,2089.87 2240.6,2125.37 2227.5,2160C 2228.67,2164.5 2229.83,2169 2231,2173.5C 2236.52,2182.55 2241.52,2191.88 2246,2201.5C 2252.43,2220.21 2257.76,2239.21 2262,2258.5C 2266.09,2320.19 2257.76,2380.19 2237,2438.5C 2227.84,2461.16 2216.84,2482.83 2204,2503.5C 2201.67,2506.17 2199.33,2506.17 2197,2503.5C 2196.33,2502.5 2196.33,2501.5 2197,2500.5C 2224.14,2454.43 2240.47,2404.76 2246,2351.5C 2247.53,2330 2249.03,2308.5 2250.5,2287C 2247.79,2255.87 2239.96,2226.04 2227,2197.5C 2217.73,2186.21 2212.23,2173.21 2210.5,2158.5C 2228.62,2110.42 2239.46,2060.76 2243,2009.5C 2244.56,1953.99 2234.56,1900.66 2213,1849.5C 2199.2,1822.89 2182.2,1798.56 2162,1776.5C 2157.61,1768.67 2155.28,1760.34 2155,1751.5C 2171.52,1693.17 2168.52,1635.84 2146,1579.5C 2130.35,1539.51 2107.69,1504.18 2078,1473.5C 2074.08,1467.33 2070.41,1461 2067,1454.5C 2065.29,1434.47 2063.29,1414.47 2061,1394.5C 2060,1376.52 2059.5,1358.52 2059.5,1340.5C 2062.05,1290.86 2063.89,1241.19 2065,1191.5C 2069.7,1171.35 2075.04,1151.35 2081,1131.5C 2083.9,1109.42 2087.24,1087.42 2091,1065.5C 2106.1,1024.19 2122.77,983.523 2141,943.5C 2147.14,926.09 2153.47,908.757 2160,891.5C 2163.93,883.248 2168.26,875.248 2173,867.5C 2182.02,854.989 2191.19,842.655 2200.5,830.5 Z"/></g>
<g><path style="opacity:1" fill="#444343" d="M 2375.5,1172.5 C 2379.06,1171.89 2381.06,1173.39 2381.5,1177C 2379.89,1179.62 2377.89,1181.95 2375.5,1184C 2337.87,1213.49 2296.53,1236.83 2251.5,1254C 2248.9,1254.77 2246.4,1254.6 2244,1253.5C 2243.33,1252.17 2243.33,1250.83 2244,1249.5C 2282.52,1214.98 2326.35,1189.32 2375.5,1172.5 Z"/></g>
<g><path style="opacity:1" fill="#444343" d="M 628.5,1189.5 C 653.929,1196.48 678.262,1206.31 701.5,1219C 717.669,1227.91 733.336,1237.58 748.5,1248C 754.625,1252.46 760.458,1257.29 766,1262.5C 766.595,1263.9 766.428,1265.23 765.5,1266.5C 758.586,1267.28 751.919,1266.11 745.5,1263C 703.939,1247.06 665.606,1225.73 630.5,1199C 626.229,1196.43 625.562,1193.27 628.5,1189.5 Z"/></g>
<g><path style="opacity:1" fill="#af7f9e" d="M 1524.5,1203.5 C 1525.83,1203.5 1527.17,1203.5 1528.5,1203.5C 1528.78,1205.41 1528.45,1207.08 1527.5,1208.5C 1527.5,1207.17 1527.5,1205.83 1527.5,1204.5C 1526.21,1204.74 1525.21,1204.4 1524.5,1203.5 Z"/></g>
<g><path style="opacity:1" fill="#434243" d="M 1534.5,1322.5 C 1545.5,1322.5 1556.5,1322.5 1567.5,1322.5C 1568.55,1336.83 1569.55,1351.16 1570.5,1365.5C 1555.83,1365.5 1541.17,1365.5 1526.5,1365.5C 1528.85,1351.08 1531.51,1336.74 1534.5,1322.5 Z"/></g>
<g><path style="opacity:1" fill="#a2789b" d="M 1512.5,1381.5 C 1512.5,1383.17 1512.5,1384.83 1512.5,1386.5C 1538.19,1387.16 1563.52,1386.49 1588.5,1384.5C 1589.4,1385.21 1589.74,1386.21 1589.5,1387.5C 1575.5,1387.5 1561.5,1387.5 1547.5,1387.5C 1542.17,1387.5 1536.83,1387.5 1531.5,1387.5C 1524.83,1387.5 1518.17,1387.5 1511.5,1387.5C 1511.21,1385.26 1511.54,1383.26 1512.5,1381.5 Z"/></g>
<g><path style="opacity:1" fill="#444342" d="M 1531.5,1387.5 C 1536.83,1387.5 1542.17,1387.5 1547.5,1387.5C 1545.85,1477.18 1546.18,1566.84 1548.5,1656.5C 1548.76,1670.9 1547.93,1685.23 1546,1699.5C 1545.72,1784.52 1547.06,1869.52 1550,1954.5C 1550.67,1995.83 1550.67,2037.17 1550,2078.5C 1548.95,2088.49 1547.95,2098.49 1547,2108.5C 1548.26,2187.85 1547.59,2267.18 1545,2346.5C 1543.1,2359.78 1541.77,2373.11 1541,2386.5C 1539.38,2432.83 1538.22,2479.16 1537.5,2525.5C 1535.17,2529.5 1532.83,2529.5 1530.5,2525.5C 1529.1,2489.68 1528.44,2453.85 1528.5,2418C 1530.33,2345.52 1530.83,2273.02 1530,2200.5C 1528.76,2174.51 1527.93,2148.51 1527.5,2122.5C 1527.23,2107.77 1528.07,2093.1 1530,2078.5C 1530.67,2044.17 1530.67,2009.83 1530,1975.5C 1525.35,1883.89 1523.68,1792.22 1525,1700.5C 1527.36,1688.45 1528.53,1676.28 1528.5,1664C 1527.47,1632.51 1526.8,1601.01 1526.5,1569.5C 1527.88,1508.82 1529.55,1448.16 1531.5,1387.5 Z"/></g>
<g><path style="opacity:1" fill="#454343" d="M 1748.5,1390.5 C 1798.3,1389.17 1847.96,1391 1897.5,1396C 1930.24,1400.58 1962.24,1408.25 1993.5,1419C 2002.83,1423.67 2012.17,1428.33 2021.5,1433C 2022.83,1435 2022.83,1437 2021.5,1439C 2019.17,1439.67 2016.83,1439.67 2014.5,1439C 1986.41,1428.56 1957.41,1421.89 1927.5,1419C 1897.97,1415.01 1868.31,1413.01 1838.5,1413C 1768.4,1411.2 1698.4,1412.86 1628.5,1418C 1608.29,1420.41 1588.12,1423.25 1568,1426.5C 1563.82,1425.91 1562.65,1423.75 1564.5,1420C 1585.95,1413.52 1607.61,1407.85 1629.5,1403C 1666.66,1397.35 1704,1393.69 1741.5,1392C 1744.04,1391.81 1746.37,1391.31 1748.5,1390.5 Z"/></g>
<g><path style="opacity:1" fill="#444343" d="M 1175.5,1403.5 C 1209.53,1403.21 1243.53,1404.05 1277.5,1406C 1311.87,1409.31 1346.21,1412.98 1380.5,1417C 1401.95,1421.91 1423.28,1427.24 1444.5,1433C 1446.58,1438.92 1444.41,1441.09 1438,1439.5C 1407.61,1435.31 1377.11,1432.14 1346.5,1430C 1305.2,1427.8 1263.86,1426.14 1222.5,1425C 1207.83,1424.33 1193.17,1424.33 1178.5,1425C 1137.29,1430.5 1095.95,1435.17 1054.5,1439C 1033.08,1441.57 1012.08,1446.07 991.5,1452.5C 987.525,1451.91 986.525,1449.74 988.5,1446C 997.618,1442.27 1006.62,1438.27 1015.5,1434C 1035.22,1428.07 1055.22,1423.07 1075.5,1419C 1108.91,1413.48 1142.25,1408.32 1175.5,1403.5 Z"/></g>
<g><path style="opacity:1" fill="#444342" d="M 2515.5,1505.5 C 2517.86,1505.34 2520.19,1505.5 2522.5,1506C 2523.55,1507.39 2523.72,1508.89 2523,1510.5C 2455.55,1552.14 2384.72,1587.31 2310.5,1616C 2296.49,1620.67 2282.49,1625.34 2268.5,1630C 2265.65,1630.94 2263.15,1630.44 2261,1628.5C 2260.29,1626.63 2260.79,1625.13 2262.5,1624C 2327.14,1588.68 2393.14,1556.01 2460.5,1526C 2478.71,1518.55 2497.05,1511.71 2515.5,1505.5 Z"/></g>
<g><path style="opacity:1" fill="#444342" d="M 488.5,1517.5 C 507.924,1523.37 526.591,1531.21 544.5,1541C 590.719,1560.61 637.052,1579.94 683.5,1599C 692.167,1604.33 700.833,1609.67 709.5,1615C 721.273,1624.77 733.606,1633.77 746.5,1642C 748.037,1645.41 746.871,1647.25 743,1647.5C 727.411,1642.96 712.911,1636.12 699.5,1627C 674.116,1615.43 648.116,1605.43 621.5,1597C 590.463,1583.65 560.13,1568.98 530.5,1553C 517.44,1543.61 504.106,1534.61 490.5,1526C 486.351,1523.76 485.685,1520.93 488.5,1517.5 Z"/></g>
<g><path style="opacity:1" fill="#444343" d="M 2055.5,1719.5 C 2059.49,1719.65 2060.99,1721.65 2060,1725.5C 2041.26,1733.73 2021.76,1739.56 2001.5,1743C 1978.62,1747.44 1955.62,1751.11 1932.5,1754C 1909.87,1755.8 1887.2,1756.97 1864.5,1757.5C 1805.87,1753.96 1747.21,1752.79 1688.5,1754C 1667.11,1750.99 1645.78,1747.66 1624.5,1744C 1605.31,1739.27 1586.31,1733.94 1567.5,1728C 1563.78,1726.74 1562.78,1724.41 1564.5,1721C 1565.83,1720.83 1567.17,1720.67 1568.5,1720.5C 1587.52,1723.5 1606.52,1726.67 1625.5,1730C 1648.65,1732 1671.82,1733.83 1695,1735.5C 1718.63,1733.61 1742.3,1732.61 1766,1732.5C 1802.7,1732.96 1839.37,1734.29 1876,1736.5C 1923.99,1735.73 1971.82,1732.56 2019.5,1727C 2031.65,1724.59 2043.65,1722.09 2055.5,1719.5 Z"/></g>
<g><path style="opacity:1" fill="#444343" d="M 951.5,1730.5 C 989.222,1734.86 1026.89,1739.69 1064.5,1745C 1168.18,1748.12 1271.85,1747.46 1375.5,1743C 1395.98,1740.18 1416.31,1736.51 1436.5,1732C 1439.5,1731.33 1442.5,1731.33 1445.5,1732C 1446.93,1734.27 1446.6,1736.27 1444.5,1738C 1428.83,1743 1413.17,1748 1397.5,1753C 1382.28,1756.32 1366.95,1758.99 1351.5,1761C 1298.26,1765.42 1244.93,1768.25 1191.5,1769.5C 1151.85,1767.49 1112.18,1765.99 1072.5,1765C 1040.13,1758.46 1007.79,1751.79 975.5,1745C 967.5,1742.67 959.5,1740.33 951.5,1738C 948.914,1735.51 948.914,1733.01 951.5,1730.5 Z"/></g>
<g><path style="opacity:1" fill="#444343" d="M 2563.5,1888.5 C 2585.51,1889.08 2607.51,1889.92 2629.5,1891C 2631.6,1892.73 2631.93,1894.73 2630.5,1897C 2625.55,1898.61 2620.55,1899.94 2615.5,1901C 2597.39,1901.98 2579.39,1903.98 2561.5,1907C 2519.35,1914.72 2477.35,1923.06 2435.5,1932C 2394.21,1935.81 2352.88,1938.81 2311.5,1941C 2308.36,1936.91 2309.36,1934.24 2314.5,1933C 2334.24,1928.92 2353.9,1924.59 2373.5,1920C 2414.56,1914.76 2455.23,1907.43 2495.5,1898C 2518.37,1895.29 2541.04,1892.12 2563.5,1888.5 Z"/></g>
<g><path style="opacity:1" fill="#444343" d="M 380.5,1902.5 C 488.798,1901.72 594.464,1917.72 697.5,1950.5C 700.905,1952.21 701.239,1954.38 698.5,1957C 652.239,1952.88 606.239,1946.55 560.5,1938C 520.89,1932.09 481.223,1926.76 441.5,1922C 423.109,1918.52 404.775,1914.85 386.5,1911C 383.692,1910.4 381.192,1909.24 379,1907.5C 378.387,1905.5 378.887,1903.84 380.5,1902.5 Z"/></g>
<g><path style="opacity:1" fill="#4b53ae" d="M 2042.5,1971.5 C 2044.45,1971.23 2045.95,1971.89 2047,1973.5C 2091.67,2093.34 2135.84,2213.34 2179.5,2333.5C 2141.48,2346.51 2103.48,2359.51 2065.5,2372.5C 2030.25,2253.08 1994.58,2133.74 1958.5,2014.5C 1986.56,2000.14 2014.56,1985.8 2042.5,1971.5 Z"/></g>
<g><path style="opacity:1" fill="#4b53ae" d="M 975.5,1974.5 C 1005.09,1988.63 1034.42,2003.3 1063.5,2018.5C 1027.03,2137.59 991.36,2256.92 956.5,2376.5C 919.032,2364.18 881.699,2351.34 844.5,2338C 843.484,2337.48 842.818,2336.65 842.5,2335.5C 886.642,2215.07 930.975,2094.74 975.5,1974.5 Z"/></g>
<g><path style="opacity:1" fill="#444343" d="M 1604.5,2124.5 C 1650.89,2135.27 1697.89,2141.44 1745.5,2143C 1757.26,2144.26 1768.93,2145.93 1780.5,2148C 1797.48,2149.3 1814.48,2149.64 1831.5,2149C 1857.78,2146.59 1884.11,2145.26 1910.5,2145C 1920.69,2143.59 1930.85,2142.09 1941,2140.5C 1944.91,2142.31 1945.41,2144.81 1942.5,2148C 1935.91,2150.53 1929.24,2152.86 1922.5,2155C 1877.43,2165.44 1831.76,2170.44 1785.5,2170C 1755.87,2166.09 1726.2,2162.42 1696.5,2159C 1665.55,2153.57 1635.55,2144.9 1606.5,2133C 1602.12,2130.98 1601.45,2128.15 1604.5,2124.5 Z"/></g>
<g><path style="opacity:1" fill="#444342" d="M 1496.5,2126.5 C 1499.04,2126.1 1501.21,2126.77 1503,2128.5C 1503.71,2130.37 1503.21,2131.87 1501.5,2133C 1489.84,2138.25 1477.84,2142.58 1465.5,2146C 1438.99,2153.61 1412.32,2160.61 1385.5,2167C 1363.91,2170.56 1342.24,2173.56 1320.5,2176C 1275.82,2178.2 1231.15,2180.2 1186.5,2182C 1154.04,2177.8 1121.71,2172.8 1089.5,2167C 1079.94,2165.15 1070.61,2162.48 1061.5,2159C 1058.59,2155.81 1059.09,2153.31 1063,2151.5C 1067.11,2152.59 1071.28,2153.42 1075.5,2154C 1113.87,2156.46 1152.21,2159.29 1190.5,2162.5C 1238.06,2157.98 1285.73,2155.15 1333.5,2154C 1351.52,2152.22 1369.52,2150.22 1387.5,2148C 1424.13,2141.49 1460.46,2134.32 1496.5,2126.5 Z"/></g>
<g><path style="opacity:1" fill="#444343" d="M 2311.5,2250.5 C 2318.18,2250.79 2324.84,2251.29 2331.5,2252C 2345.35,2255.3 2359.35,2257.63 2373.5,2259C 2397.18,2259.18 2420.85,2259.85 2444.5,2261C 2488.3,2265.69 2531.97,2271.36 2575.5,2278C 2593.6,2282.36 2611.6,2287.02 2629.5,2292C 2631.76,2297.41 2629.93,2299.58 2624,2298.5C 2556.92,2294.88 2490.08,2288.71 2423.5,2280C 2399.47,2279.83 2375.8,2276.83 2352.5,2271C 2339.1,2265.8 2325.43,2261.46 2311.5,2258C 2308.91,2255.51 2308.91,2253.01 2311.5,2250.5 Z"/></g>
<g><path style="opacity:1" fill="#444343" d="M 685.5,2266.5 C 690.179,2266.33 694.845,2266.5 699.5,2267C 701.032,2269.33 700.698,2271.33 698.5,2273C 674.775,2279.58 650.775,2284.91 626.5,2289C 612.862,2290.15 599.195,2290.81 585.5,2291C 555.928,2295.65 526.261,2299.65 496.5,2303C 460.823,2304.31 425.157,2305.81 389.5,2307.5C 386.5,2307.33 383.5,2307.17 380.5,2307C 377.629,2304.16 377.963,2301.83 381.5,2300C 423.584,2289.86 466.251,2283.52 509.5,2281C 536.585,2275.53 563.918,2272.03 591.5,2270.5C 603.494,2271.37 615.494,2271.54 627.5,2271C 646.993,2269.56 666.326,2268.06 685.5,2266.5 Z"/></g>
<g><path style="opacity:1" fill="#4c53ae" d="M 2658.5,2613.5 C 2663.61,2615.09 2668.94,2616.26 2674.5,2617C 2674.96,2617.41 2675.29,2617.91 2675.5,2618.5C 2656.67,2651.5 2637.83,2684.5 2619,2717.5C 2618.28,2718.06 2617.44,2718.39 2616.5,2718.5C 2473.47,2679.43 2330.47,2640.27 2187.5,2601C 2186.51,2576.24 2186.17,2551.41 2186.5,2526.5C 2186.5,2524.17 2186.5,2521.83 2186.5,2519.5C 2326.28,2547.09 2465.95,2575.26 2605.5,2604C 2623.1,2607.62 2640.77,2610.79 2658.5,2613.5 Z"/></g>
<g><path style="opacity:1" fill="#4c53ae" d="M 808.5,2525.5 C 809.833,2525.5 811.167,2525.5 812.5,2525.5C 812.5,2552.17 812.5,2578.83 812.5,2605.5C 669.978,2645.5 527.144,2684.83 384,2723.5C 383.167,2723.33 382.333,2723.17 381.5,2723C 362.374,2689.91 343.374,2656.75 324.5,2623.5C 324.709,2622.91 325.043,2622.41 325.5,2622C 331.223,2620.89 336.889,2619.72 342.5,2618.5C 497.831,2587.5 653.164,2556.5 808.5,2525.5 Z"/></g>
<g><path style="opacity:0.945" fill="#6d61a8" d="M 808.5,2525.5 C 809.919,2524.55 811.585,2524.22 813.5,2524.5C 813.831,2551.67 813.498,2578.67 812.5,2605.5C 812.5,2578.83 812.5,2552.17 812.5,2525.5C 811.167,2525.5 809.833,2525.5 808.5,2525.5 Z"/></g>
</svg>
