<?xml version="1.0" encoding="UTF-8"?>
<!DOCTYPE svg PUBLIC "-//W3C//DTD SVG 1.1//EN" "http://www.w3.org/Graphics/SVG/1.1/DTD/svg11.dtd">
<svg xmlns="http://www.w3.org/2000/svg" version="1.1" width="3000px" height="3000px" style="shape-rendering:geometricPrecision; text-rendering:geometricPrecision; image-rendering:optimizeQuality; fill-rule:evenodd; clip-rule:evenodd" xmlns:xlink="http://www.w3.org/1999/xlink">
<g><path style="opacity:0.999" fill="#e5c8bb" d="M 2230.5,963.5 C 2228.14,963.337 2225.81,963.503 2223.5,964C 2219.5,966.667 2215.5,969.333 2211.5,972C 2205.68,973.94 2200.02,976.273 2194.5,979C 2157.92,1002.89 2124.26,1030.55 2093.5,1062C 2067.16,1081.31 2039.5,1098.64 2010.5,1114C 1988.45,1130.86 1964.45,1144.36 1938.5,1154.5C 1925.4,1126.96 1911.23,1099.96 1896,1073.5C 1871.25,1035.67 1847.25,997.338 1824,958.5C 1797.87,902.079 1772.71,845.245 1748.5,788C 1763.63,781.766 1778.3,774.433 1792.5,766C 1803.22,759.303 1813.22,751.636 1822.5,743C 1828.6,734.945 1827.27,728.278 1818.5,723C 1814.22,722.035 1810.22,722.702 1806.5,725C 1782.59,747.295 1754.59,762.295 1722.5,770C 1678.27,778.69 1633.6,783.023 1588.5,783C 1560.38,787.375 1532.38,792.375 1504.5,798C 1471.52,800.791 1438.52,801.125 1405.5,799C 1353.6,793.249 1301.6,792.082 1249.5,795.5C 1186.97,794.94 1131.63,775.106 1083.5,736C 1071.2,732.308 1065.37,736.808 1066,749.5C 1067.41,752.582 1069.24,755.415 1071.5,758C 1085.5,767.333 1099.5,776.667 1113.5,786C 1124.43,791.587 1135.77,796.087 1147.5,799.5C 1144.04,810.72 1139.87,821.72 1135,832.5C 1126.61,850.29 1117.94,867.956 1109,885.5C 1082.4,933.756 1055.4,981.756 1028,1029.5C 1017.14,1049.89 1006.81,1070.55 997,1091.5C 978.676,1121.15 962.176,1151.81 947.5,1183.5C 932.087,1183.98 916.754,1183.14 901.5,1181C 873.944,1170.06 846.278,1159.39 818.5,1149C 799.147,1145.81 779.813,1142.48 760.5,1139C 753.821,1137.16 747.488,1134.49 741.5,1131C 724.174,1118.67 706.174,1107.33 687.5,1097C 677.224,1092.68 666.557,1090.02 655.5,1089C 650.023,1086.04 644.357,1085.88 638.5,1088.5C 675.293,1019.58 715.126,952.576 758,887.5C 777.861,857.961 801.028,831.128 827.5,807C 843.655,793.746 861.321,782.746 880.5,774C 911.717,760.15 943.717,748.483 976.5,739C 984.134,737.754 991.801,736.754 999.5,736C 1017.17,735.333 1034.83,735.333 1052.5,736C 1056.17,738 1059.83,738 1063.5,736C 1065.29,733.205 1067.46,730.705 1070,728.5C 1067.24,695.948 1073.58,665.281 1089,636.5C 1096.42,623.999 1104.08,611.665 1112,599.5C 1128.32,579.166 1148.16,563.332 1171.5,552C 1194.31,543.093 1217.98,539.427 1242.5,541C 1269.78,544.77 1297.12,548.103 1324.5,551C 1372.8,551.328 1421.13,552.494 1469.5,554.5C 1496.45,554.412 1523.12,551.579 1549.5,546C 1562.55,545.095 1575.55,543.762 1588.5,542C 1604.86,538.826 1621.2,535.492 1637.5,532C 1664.49,529.457 1691.49,529.124 1718.5,531C 1750.62,534.809 1777.12,548.976 1798,573.5C 1823.03,602.235 1836.53,635.735 1838.5,674C 1838.07,689.975 1834.41,705.142 1827.5,719.5C 1827.83,719.833 1828.17,720.167 1828.5,720.5C 1887.19,708.135 1943.85,714.302 1998.5,739C 2054.8,766.43 2104.3,803.264 2147,849.5C 2171.86,878.356 2195.19,908.356 2217,939.5C 2221.77,947.365 2226.27,955.365 2230.5,963.5 Z"/></g>
<g><path style="opacity:1" fill="#6b2d11" d="M 1670.5,563.5 C 1674.46,563.089 1678.13,563.922 1681.5,566C 1685.04,569.201 1688.2,572.701 1691,576.5C 1720.25,623.569 1737.08,674.736 1741.5,730C 1741.83,740.34 1736.83,745.007 1726.5,744C 1722.78,742.737 1720.28,740.237 1719,736.5C 1715.69,691.249 1703.35,648.583 1682,608.5C 1675.65,597.801 1669.32,587.134 1663,576.5C 1662.77,570.571 1665.27,566.238 1670.5,563.5 Z"/></g>
<g><path style="opacity:1" fill="#6b2d11" d="M 1225.5,566.5 C 1236.24,564.426 1241.74,568.759 1242,579.5C 1227.86,606.786 1216.19,635.12 1207,664.5C 1199.31,692.99 1195.31,721.99 1195,751.5C 1192.91,763.292 1186.41,766.792 1175.5,762C 1173.96,760.421 1172.79,758.587 1172,756.5C 1170.98,708.98 1179.65,663.314 1198,619.5C 1204.79,603.261 1212.12,587.261 1220,571.5C 1221.73,569.598 1223.56,567.931 1225.5,566.5 Z"/></g>
<g><path style="opacity:1" fill="#6b2d11" d="M 1332.5,601.5 C 1342.3,600.142 1347.97,604.309 1349.5,614C 1343.42,655.664 1339.25,697.498 1337,739.5C 1333.78,747.854 1327.95,750.354 1319.5,747C 1317.38,745.269 1315.88,743.102 1315,740.5C 1314.33,726.167 1314.33,711.833 1315,697.5C 1318.44,669.846 1321.78,642.18 1325,614.5C 1325.29,612.048 1325.96,609.715 1327,607.5C 1329.04,605.63 1330.87,603.63 1332.5,601.5 Z"/></g>
<g><path style="opacity:1" fill="#6b2d12" d="M 1408.5,603.5 C 1420.33,601.833 1425.83,606.833 1425,618.5C 1421.94,625.11 1416.78,627.61 1409.5,626C 1402.93,622.345 1400.76,616.845 1403,609.5C 1405.04,607.63 1406.87,605.63 1408.5,603.5 Z"/></g>
<g><path style="opacity:1" fill="#6b2e12" d="M 1410.5,644.5 C 1418.78,643.981 1423.78,647.814 1425.5,656C 1423.37,670.754 1422.21,685.588 1422,700.5C 1420.31,706.777 1416.14,709.777 1409.5,709.5C 1406.15,709.334 1403.32,708 1401,705.5C 1399.07,701.573 1398.24,697.406 1398.5,693C 1399.44,680.84 1400.27,668.674 1401,656.5C 1402.19,650.819 1405.36,646.819 1410.5,644.5 Z"/></g>
<g><path style="opacity:1" fill="#6b2d10" d="M 1938.5,1154.5 C 1957.11,1198.06 1977.61,1240.73 2000,1282.5C 2016.99,1321.47 2035.32,1359.81 2055,1397.5C 2059.02,1406.87 2063.02,1416.21 2067,1425.5C 2084.67,1456.19 2102.84,1486.53 2121.5,1516.5C 2124.94,1520.78 2127.27,1525.61 2128.5,1531C 2126.48,1541.84 2120.15,1545.84 2109.5,1543C 2105.79,1539.04 2102.45,1534.87 2099.5,1530.5C 2080.9,1498.3 2062.07,1466.3 2043,1434.5C 2040.65,1429.77 2039.31,1424.77 2039,1419.5C 2010.41,1357.65 1980.74,1296.31 1950,1235.5C 1938.49,1210.47 1926.99,1185.47 1915.5,1160.5C 1903.78,1136.05 1891.28,1112.05 1878,1088.5C 1853.75,1050.33 1829.75,1012 1806,973.5C 1778.02,914.873 1751.69,855.54 1727,795.5C 1726.48,794.484 1725.65,793.818 1724.5,793.5C 1703.69,797.968 1682.69,801.134 1661.5,803C 1636.52,804.717 1611.52,806.05 1586.5,807C 1563.17,811.333 1539.84,815.666 1516.5,820C 1484.27,823.86 1451.94,825.193 1419.5,824C 1391.24,821.046 1362.9,819.046 1334.5,818C 1299.8,817.417 1265.13,817.751 1230.5,819C 1210.17,817.334 1190.17,813.834 1170.5,808.5C 1167.85,818.131 1164.35,827.464 1160,836.5C 1151.61,854.29 1142.94,871.956 1134,889.5C 1106,939.5 1078,989.5 1050,1039.5C 1025.52,1088.46 1000.02,1136.79 973.5,1184.5C 968.05,1195.34 962.883,1206.34 958,1217.5C 943.723,1253.05 929.723,1288.72 916,1324.5C 897.89,1376.05 879.223,1427.38 860,1478.5C 852.583,1499.92 846.083,1521.58 840.5,1543.5C 837.054,1549.71 831.721,1551.88 824.5,1550C 820.4,1548.08 818.066,1544.91 817.5,1540.5C 822.202,1519.56 828.035,1498.89 835,1478.5C 863.563,1395.81 893.897,1313.81 926,1232.5C 933.179,1216.15 940.345,1199.81 947.5,1183.5C 962.176,1151.81 978.676,1121.15 997,1091.5C 1006.81,1070.55 1017.14,1049.89 1028,1029.5C 1055.4,981.756 1082.4,933.756 1109,885.5C 1117.94,867.956 1126.61,850.29 1135,832.5C 1139.87,821.72 1144.04,810.72 1147.5,799.5C 1135.77,796.087 1124.43,791.587 1113.5,786C 1099.5,776.667 1085.5,767.333 1071.5,758C 1069.24,755.415 1067.41,752.582 1066,749.5C 1065.37,736.808 1071.2,732.308 1083.5,736C 1131.63,775.106 1186.97,794.94 1249.5,795.5C 1301.6,792.082 1353.6,793.249 1405.5,799C 1438.52,801.125 1471.52,800.791 1504.5,798C 1532.38,792.375 1560.38,787.375 1588.5,783C 1633.6,783.023 1678.27,778.69 1722.5,770C 1754.59,762.295 1782.59,747.295 1806.5,725C 1810.22,722.702 1814.22,722.035 1818.5,723C 1827.27,728.278 1828.6,734.945 1822.5,743C 1813.22,751.636 1803.22,759.303 1792.5,766C 1778.3,774.433 1763.63,781.766 1748.5,788C 1772.71,845.245 1797.87,902.079 1824,958.5C 1847.25,997.338 1871.25,1035.67 1896,1073.5C 1911.23,1099.96 1925.4,1126.96 1938.5,1154.5 Z"/></g>
<g><path style="opacity:1" fill="#6b2d11" d="M 1402.5,736.5 C 1411.46,734.561 1417.3,737.894 1420,746.5C 1420.52,754.193 1420.85,761.86 1421,769.5C 1416.83,777.004 1410.66,779.17 1402.5,776C 1400.19,774.363 1398.69,772.196 1398,769.5C 1396.69,760.865 1396.35,752.199 1397,743.5C 1397.97,740.379 1399.8,738.046 1402.5,736.5 Z"/></g>
<g><path style="opacity:1" fill="#6c2f13" d="M 1323.5,758.5 C 1336.96,759.445 1341.12,766.112 1336,778.5C 1327.45,784.853 1320.45,783.52 1315,774.5C 1313.91,767.016 1316.74,761.683 1323.5,758.5 Z"/></g>
<g><path style="opacity:1" fill="#e5c8bb" d="M 1915.5,1160.5 C 1877.64,1160.86 1839.98,1163.7 1802.5,1169C 1778.89,1173.32 1755.22,1177.32 1731.5,1181C 1720.52,1182.04 1709.52,1182.71 1698.5,1183C 1535.83,1184.42 1373.17,1184.75 1210.5,1184C 1158.5,1186.54 1106.5,1189.04 1054.5,1191.5C 1043.14,1191.46 1031.81,1190.96 1020.5,1190C 1004.88,1187.76 989.217,1185.93 973.5,1184.5C 1000.02,1136.79 1025.52,1088.46 1050,1039.5C 1078,989.5 1106,939.5 1134,889.5C 1142.94,871.956 1151.61,854.29 1160,836.5C 1164.35,827.464 1167.85,818.131 1170.5,808.5C 1190.17,813.834 1210.17,817.334 1230.5,819C 1265.13,817.751 1299.8,817.417 1334.5,818C 1362.9,819.046 1391.24,821.046 1419.5,824C 1451.94,825.193 1484.27,823.86 1516.5,820C 1539.84,815.666 1563.17,811.333 1586.5,807C 1611.52,806.05 1636.52,804.717 1661.5,803C 1682.69,801.134 1703.69,797.968 1724.5,793.5C 1725.65,793.818 1726.48,794.484 1727,795.5C 1751.69,855.54 1778.02,914.873 1806,973.5C 1829.75,1012 1853.75,1050.33 1878,1088.5C 1891.28,1112.05 1903.78,1136.05 1915.5,1160.5 Z"/></g>
<g><path style="opacity:0.999" fill="#dd872d" d="M 2230.5,963.5 C 2235.04,965.202 2238.54,968.202 2241,972.5C 2251.51,990.178 2261.51,1008.18 2271,1026.5C 2289.89,1054.06 2309.56,1081.06 2330,1107.5C 2342.17,1126.5 2353.84,1145.83 2365,1165.5C 2380.59,1187.68 2395.42,1210.35 2409.5,1233.5C 2411.72,1238.93 2414.22,1244.27 2417,1249.5C 2417.77,1253.59 2417.43,1257.59 2416,1261.5C 2412.18,1264.74 2408.18,1267.74 2404,1270.5C 2399.41,1278.69 2394.07,1286.36 2388,1293.5C 2380.03,1300.47 2372.36,1307.8 2365,1315.5C 2352.09,1331.74 2337.26,1345.91 2320.5,1358C 2296.86,1371.3 2275.2,1387.3 2255.5,1406C 2247.5,1411.33 2239.5,1416.67 2231.5,1422C 2220.65,1434.19 2211.15,1447.36 2203,1461.5C 2196.12,1469.86 2187.95,1476.69 2178.5,1482C 2168.68,1486.74 2159.01,1491.74 2149.5,1497C 2140.28,1503.77 2130.95,1510.27 2121.5,1516.5C 2102.84,1486.53 2084.67,1456.19 2067,1425.5C 2063.02,1416.21 2059.02,1406.87 2055,1397.5C 2035.32,1359.81 2016.99,1321.47 2000,1282.5C 1977.61,1240.73 1957.11,1198.06 1938.5,1154.5C 1964.45,1144.36 1988.45,1130.86 2010.5,1114C 2039.5,1098.64 2067.16,1081.31 2093.5,1062C 2124.26,1030.55 2157.92,1002.89 2194.5,979C 2200.02,976.273 2205.68,973.94 2211.5,972C 2215.5,969.333 2219.5,966.667 2223.5,964C 2225.81,963.503 2228.14,963.337 2230.5,963.5 Z"/></g>
<g><path style="opacity:0.999" fill="#dd872d" d="M 947.5,1183.5 C 940.345,1199.81 933.179,1216.15 926,1232.5C 893.897,1313.81 863.563,1395.81 835,1478.5C 828.035,1498.89 822.202,1519.56 817.5,1540.5C 804.084,1539.37 790.751,1537.54 777.5,1535C 751.288,1524.4 724.955,1514.06 698.5,1504C 674.499,1499.33 650.499,1494.67 626.5,1490C 612.713,1486.61 599.713,1481.27 587.5,1474C 574.833,1466.33 562.167,1458.67 549.5,1451C 532.833,1443 516.167,1435 499.5,1427C 486.843,1420.09 475.343,1411.59 465,1401.5C 462.065,1395 461.732,1388.34 464,1381.5C 466.023,1377.34 468.189,1373.34 470.5,1369.5C 506.946,1317.17 540.446,1262.84 571,1206.5C 591.029,1169.1 611.029,1131.77 631,1094.5C 633.086,1091.91 635.586,1089.91 638.5,1088.5C 644.357,1085.88 650.023,1086.04 655.5,1089C 666.557,1090.02 677.224,1092.68 687.5,1097C 706.174,1107.33 724.174,1118.67 741.5,1131C 747.488,1134.49 753.821,1137.16 760.5,1139C 779.813,1142.48 799.147,1145.81 818.5,1149C 846.278,1159.39 873.944,1170.06 901.5,1181C 916.754,1183.14 932.087,1183.98 947.5,1183.5 Z"/></g>
<g><path style="opacity:1" fill="#dd872d" d="M 1915.5,1160.5 C 1926.99,1185.47 1938.49,1210.47 1950,1235.5C 1980.74,1296.31 2010.41,1357.65 2039,1419.5C 2039.31,1424.77 2040.65,1429.77 2043,1434.5C 2062.07,1466.3 2080.9,1498.3 2099.5,1530.5C 2081.84,1540.06 2062.84,1544.4 2042.5,1543.5C 2036.5,1543.33 2030.5,1543.17 2024.5,1543C 1985.07,1538.7 1945.57,1535.53 1906,1533.5C 1885.3,1534.14 1864.8,1536.64 1844.5,1541C 1783.42,1540.35 1722.42,1542.02 1661.5,1546C 1598.17,1545.19 1534.84,1544.86 1471.5,1545C 1422.07,1550 1372.57,1550.84 1323,1547.5C 1253.15,1548.71 1183.32,1550.54 1113.5,1553C 1082.49,1553.8 1051.49,1553.64 1020.5,1552.5C 963.163,1559.39 906.163,1557.56 849.5,1547C 846.031,1546.46 843.031,1545.3 840.5,1543.5C 846.083,1521.58 852.583,1499.92 860,1478.5C 879.223,1427.38 897.89,1376.05 916,1324.5C 929.723,1288.72 943.723,1253.05 958,1217.5C 962.883,1206.34 968.05,1195.34 973.5,1184.5C 989.217,1185.93 1004.88,1187.76 1020.5,1190C 1031.81,1190.96 1043.14,1191.46 1054.5,1191.5C 1106.5,1189.04 1158.5,1186.54 1210.5,1184C 1373.17,1184.75 1535.83,1184.42 1698.5,1183C 1709.52,1182.71 1720.52,1182.04 1731.5,1181C 1755.22,1177.32 1778.89,1173.32 1802.5,1169C 1839.98,1163.7 1877.64,1160.86 1915.5,1160.5 Z"/></g>
<g><path style="opacity:0.999" fill="#b55428" d="M 2409.5,1233.5 C 2414.09,1236.59 2418.26,1240.25 2422,1244.5C 2427.17,1252.17 2431.84,1260.17 2436,1268.5C 2461.07,1302.97 2484.41,1338.64 2506,1375.5C 2514.49,1391.47 2522.15,1407.8 2529,1424.5C 2548.26,1462.72 2571.26,1498.38 2598,1531.5C 2616.43,1572.37 2641.77,1608.37 2674,1639.5C 2680.65,1646.83 2685.65,1655.16 2689,1664.5C 2690.08,1668.23 2690.25,1671.9 2689.5,1675.5C 2688.97,1677.92 2688.14,1680.26 2687,1682.5C 2673.91,1695.26 2659.41,1706.09 2643.5,1715C 2617.18,1728.49 2591.84,1743.49 2567.5,1760C 2520.29,1796.55 2471.95,1831.55 2422.5,1865C 2405.38,1879.72 2387.71,1893.72 2369.5,1907C 2359.81,1913.51 2349.14,1917.34 2337.5,1918.5C 2333.37,1918.3 2329.37,1917.47 2325.5,1916C 2321.29,1912.61 2317.29,1909.11 2313.5,1905.5C 2292.92,1871.35 2273.09,1836.68 2254,1801.5C 2240,1779.5 2226,1757.5 2212,1735.5C 2203.42,1721.58 2197.92,1706.58 2195.5,1690.5C 2196.61,1689.05 2196.78,1687.39 2196,1685.5C 2193.39,1681.26 2190.56,1677.26 2187.5,1673.5C 2177.78,1659.58 2169.95,1644.58 2164,1628.5C 2158.83,1617.14 2151.49,1607.47 2142,1599.5C 2140,1600.17 2138.67,1601.5 2138,1603.5C 2136.77,1613.8 2137.93,1623.8 2141.5,1633.5C 2141.27,1635.19 2140.94,1636.86 2140.5,1638.5C 2142.5,1642.65 2144,1646.98 2145,1651.5C 2146.75,1664.79 2148.08,1678.12 2149,1691.5C 2155.14,1709.33 2158.81,1727.67 2160,1746.5C 2161.52,1794.5 2163.02,1842.5 2164.5,1890.5C 2165.07,1914.73 2163.07,1938.73 2158.5,1962.5C 2159.21,1965.8 2159.54,1969.13 2159.5,1972.5C 2157.59,1976.91 2154.25,1979.74 2149.5,1981C 2141.83,1981.67 2134.17,1981.67 2126.5,1981C 2090.14,1974.28 2053.48,1970.28 2016.5,1969C 1975.69,1963.14 1934.69,1959.14 1893.5,1957C 1859.58,1955.2 1825.92,1957.2 1792.5,1963C 1781.53,1964.29 1770.53,1965.29 1759.5,1966C 1724.84,1966.98 1690.17,1967.65 1655.5,1968C 1615.25,1972.4 1574.91,1976.06 1534.5,1979C 1494.81,1979.76 1455.14,1981.09 1415.5,1983C 1395.4,1984.92 1375.4,1987.59 1355.5,1991C 1315.66,1996.29 1275.66,1998.62 1235.5,1998C 1183.33,1991.47 1130.99,1989.8 1078.5,1993C 1042.94,1996.98 1007.27,1999.81 971.5,2001.5C 956.17,2000 940.837,1998.5 925.5,1997C 889.171,1995.87 852.838,1994.87 816.5,1994C 808.754,1992.21 801.921,1988.71 796,1983.5C 792.314,1976.82 789.814,1969.82 788.5,1962.5C 786.666,1942.37 787.666,1922.37 791.5,1902.5C 792.384,1899.98 793.218,1897.31 794,1894.5C 794.5,1879.5 795,1864.5 795.5,1849.5C 796.775,1839.68 797.775,1829.68 798.5,1819.5C 798.497,1816.64 798.164,1813.98 797.5,1811.5C 797.342,1789.55 797.842,1767.55 799,1745.5C 801.29,1708.5 803.456,1671.5 805.5,1634.5C 805.288,1624.82 804.788,1615.15 804,1605.5C 790.859,1628.45 779.859,1652.45 771,1677.5C 761.533,1694.77 752.867,1712.43 745,1730.5C 737.873,1752 731.206,1773.67 725,1795.5C 718.905,1810.64 712.738,1825.64 706.5,1840.5C 704.39,1844.5 703.057,1848.84 702.5,1853.5C 701.076,1855.51 700.41,1857.85 700.5,1860.5C 696.454,1879.02 691.621,1897.35 686,1915.5C 682.297,1925.24 677.297,1934.24 671,1942.5C 669.887,1943.31 668.721,1943.97 667.5,1944.5C 657.44,1952.01 646.44,1953.51 634.5,1949C 621.006,1942.09 608.006,1934.42 595.5,1926C 514.789,1883.81 433.122,1843.48 350.5,1805C 327.023,1793.43 304.023,1781.1 281.5,1768C 269.116,1757.73 263.45,1744.56 264.5,1728.5C 264.523,1726.07 265.023,1723.74 266,1721.5C 268.468,1718.28 271.135,1715.28 274,1712.5C 302.092,1653.64 332.759,1596.31 366,1540.5C 382.726,1506.03 401.726,1473.03 423,1441.5C 434,1422.17 445,1402.83 456,1383.5C 459.381,1377.28 464.214,1372.62 470.5,1369.5C 468.189,1373.34 466.023,1377.34 464,1381.5C 461.732,1388.34 462.065,1395 465,1401.5C 475.343,1411.59 486.843,1420.09 499.5,1427C 516.167,1435 532.833,1443 549.5,1451C 562.167,1458.67 574.833,1466.33 587.5,1474C 599.713,1481.27 612.713,1486.61 626.5,1490C 650.499,1494.67 674.499,1499.33 698.5,1504C 724.955,1514.06 751.288,1524.4 777.5,1535C 790.751,1537.54 804.084,1539.37 817.5,1540.5C 818.066,1544.91 820.4,1548.08 824.5,1550C 831.721,1551.88 837.054,1549.71 840.5,1543.5C 843.031,1545.3 846.031,1546.46 849.5,1547C 906.163,1557.56 963.163,1559.39 1020.5,1552.5C 1051.49,1553.64 1082.49,1553.8 1113.5,1553C 1183.32,1550.54 1253.15,1548.71 1323,1547.5C 1372.57,1550.84 1422.07,1550 1471.5,1545C 1534.84,1544.86 1598.17,1545.19 1661.5,1546C 1722.42,1542.02 1783.42,1540.35 1844.5,1541C 1864.8,1536.64 1885.3,1534.14 1906,1533.5C 1945.57,1535.53 1985.07,1538.7 2024.5,1543C 2030.5,1543.17 2036.5,1543.33 2042.5,1543.5C 2062.84,1544.4 2081.84,1540.06 2099.5,1530.5C 2102.45,1534.87 2105.79,1539.04 2109.5,1543C 2120.15,1545.84 2126.48,1541.84 2128.5,1531C 2127.27,1525.61 2124.94,1520.78 2121.5,1516.5C 2130.95,1510.27 2140.28,1503.77 2149.5,1497C 2159.01,1491.74 2168.68,1486.74 2178.5,1482C 2187.95,1476.69 2196.12,1469.86 2203,1461.5C 2211.15,1447.36 2220.65,1434.19 2231.5,1422C 2239.5,1416.67 2247.5,1411.33 2255.5,1406C 2275.2,1387.3 2296.86,1371.3 2320.5,1358C 2337.26,1345.91 2352.09,1331.74 2365,1315.5C 2372.36,1307.8 2380.03,1300.47 2388,1293.5C 2394.07,1286.36 2399.41,1278.69 2404,1270.5C 2408.18,1267.74 2412.18,1264.74 2416,1261.5C 2417.43,1257.59 2417.77,1253.59 2417,1249.5C 2414.22,1244.27 2411.72,1238.93 2409.5,1233.5 Z"/></g>
<g><path style="opacity:0.998" fill="#f1674d" d="M 2689.5,1675.5 C 2715.03,1712.54 2741.19,1749.21 2768,1785.5C 2774.33,1797.5 2780.67,1809.5 2787,1821.5C 2808.06,1853.57 2828.73,1885.9 2849,1918.5C 2868.47,1950.91 2882.47,1985.58 2891,2022.5C 2894.45,2043.64 2897.62,2064.81 2900.5,2086C 2896.83,2104.73 2895.99,2123.56 2898,2142.5C 2910.42,2159.68 2923.09,2176.68 2936,2193.5C 2943.39,2205.94 2944.39,2218.94 2939,2232.5C 2936.83,2236.84 2934.16,2240.84 2931,2244.5C 2897.26,2278.97 2857.1,2303.14 2810.5,2317C 2796.04,2324.4 2781.04,2330.4 2765.5,2335C 2749.45,2337.74 2735.12,2334.07 2722.5,2324C 2711.6,2312.19 2700.93,2300.19 2690.5,2288C 2648.37,2289.42 2607.71,2282.42 2568.5,2267C 2549.17,2258.67 2532.34,2246.83 2518,2231.5C 2504.61,2213.11 2491.61,2194.44 2479,2175.5C 2447.26,2118.99 2413.26,2063.99 2377,2010.5C 2366.08,1993 2355.42,1975.33 2345,1957.5C 2334.15,1943.65 2324.49,1928.98 2316,1913.5C 2315.16,1910.8 2314.33,1908.13 2313.5,1905.5C 2317.29,1909.11 2321.29,1912.61 2325.5,1916C 2329.37,1917.47 2333.37,1918.3 2337.5,1918.5C 2349.14,1917.34 2359.81,1913.51 2369.5,1907C 2387.71,1893.72 2405.38,1879.72 2422.5,1865C 2471.95,1831.55 2520.29,1796.55 2567.5,1760C 2591.84,1743.49 2617.18,1728.49 2643.5,1715C 2659.41,1706.09 2673.91,1695.26 2687,1682.5C 2688.14,1680.26 2688.97,1677.92 2689.5,1675.5 Z"/></g>
<g><path style="opacity:0.82" fill="#e7c7b7" d="M 2187.5,1673.5 C 2190.56,1677.26 2193.39,1681.26 2196,1685.5C 2196.78,1687.39 2196.61,1689.05 2195.5,1690.5C 2192.56,1684.96 2189.9,1679.29 2187.5,1673.5 Z"/></g>
<g><path style="opacity:0.998" fill="#f1674d" d="M 264.5,1728.5 C 263.45,1744.56 269.116,1757.73 281.5,1768C 304.023,1781.1 327.023,1793.43 350.5,1805C 433.122,1843.48 514.789,1883.81 595.5,1926C 608.006,1934.42 621.006,1942.09 634.5,1949C 646.44,1953.51 657.44,1952.01 667.5,1944.5C 669.566,1956.26 668.066,1967.59 663,1978.5C 648.664,2009.83 633.831,2040.83 618.5,2071.5C 600.652,2108.86 582.486,2146.2 564,2183.5C 558.58,2192.07 553.413,2200.74 548.5,2209.5C 546.738,2210.26 545.738,2211.6 545.5,2213.5C 544.094,2213.97 543.427,2214.97 543.5,2216.5C 543.5,2217.17 543.167,2217.5 542.5,2217.5C 541.094,2217.97 540.427,2218.97 540.5,2220.5C 514.577,2256.24 480.91,2282.07 439.5,2298C 422.082,2302.42 404.749,2307.08 387.5,2312C 385.014,2315.14 383.181,2318.64 382,2322.5C 377.798,2337.77 372.798,2352.77 367,2367.5C 354.29,2394.03 334.79,2400.36 308.5,2386.5C 305.495,2384.72 302.162,2383.72 298.5,2383.5C 269.306,2375.99 240.973,2366.33 213.5,2354.5C 200.012,2346.04 186.012,2338.37 171.5,2331.5C 155.647,2325.16 142.481,2315.16 132,2301.5C 127.523,2291.03 126.856,2280.37 130,2269.5C 137.467,2252.24 144.633,2234.91 151.5,2217.5C 112.85,2175.03 98.3498,2125.37 108,2068.5C 120.504,2019.99 137.17,1972.99 158,1927.5C 179.499,1880.83 202.833,1835.17 228,1790.5C 235.935,1770.62 245.935,1751.96 258,1734.5C 260.037,1732.29 262.203,1730.29 264.5,1728.5 Z"/></g>
<g><path style="opacity:0.618" fill="#e0b9a8" d="M 797.5,1811.5 C 798.164,1813.98 798.497,1816.64 798.5,1819.5C 797.775,1829.68 796.775,1839.68 795.5,1849.5C 796.056,1836.83 796.723,1824.16 797.5,1811.5 Z"/></g>
<g><path style="opacity:0.024" fill="#e1b2a2" d="M 706.5,1840.5 C 705.943,1845.16 704.61,1849.5 702.5,1853.5C 703.057,1848.84 704.39,1844.5 706.5,1840.5 Z"/></g>
<g><path style="opacity:0.804" fill="#d19170" d="M 702.5,1853.5 C 702.59,1856.15 701.924,1858.49 700.5,1860.5C 700.41,1857.85 701.076,1855.51 702.5,1853.5 Z"/></g>
<g><path style="opacity:1" fill="#deb4a1" d="M 795.5,1849.5 C 795,1864.5 794.5,1879.5 794,1894.5C 793.218,1897.31 792.384,1899.98 791.5,1902.5C 792.467,1884.66 793.801,1866.99 795.5,1849.5 Z"/></g>
<g><path style="opacity:0.999" fill="#f1674d" d="M 2159.5,1972.5 C 2160.85,1981.12 2161.85,1989.79 2162.5,1998.5C 2157.25,2058.82 2144.42,2117.49 2124,2174.5C 2117.88,2189.4 2111.21,2204.07 2104,2218.5C 2092.18,2234.15 2080.84,2250.15 2070,2266.5C 2067.32,2269.21 2064.66,2271.88 2062,2274.5C 2056.25,2306.32 2051.59,2338.32 2048,2370.5C 2046.48,2379.25 2044.64,2387.92 2042.5,2396.5C 2039.2,2404.04 2035.86,2411.71 2032.5,2419.5C 2020.8,2442.71 2001.8,2455.55 1975.5,2458C 1962.58,2460.14 1949.58,2461.47 1936.5,2462C 1852.31,2462.44 1768.15,2463.94 1684,2466.5C 1653.17,2465.71 1622.33,2465.55 1591.5,2466C 1555.38,2468.68 1519.21,2470.52 1483,2471.5C 1430.68,2469.22 1378.35,2468.56 1326,2469.5C 1249.85,2466.5 1173.68,2464 1097.5,2462C 1073.16,2461.38 1048.83,2461.55 1024.5,2462.5C 998.761,2462.09 973.094,2460.59 947.5,2458C 936.136,2455.13 924.802,2452.13 913.5,2449C 897.758,2443.59 886.925,2433.09 881,2417.5C 876.449,2405.85 873.115,2393.85 871,2381.5C 868.904,2360.2 867.237,2338.87 866,2317.5C 865.098,2310.09 863.764,2302.75 862,2295.5C 850.644,2265.1 838.31,2235.1 825,2205.5C 818.067,2182.77 812.234,2159.77 807.5,2136.5C 799.507,2096.54 794.34,2056.21 792,2015.5C 791.79,2013.94 791.29,2012.61 790.5,2011.5C 788.856,1995.05 788.19,1978.72 788.5,1962.5C 789.814,1969.82 792.314,1976.82 796,1983.5C 801.921,1988.71 808.754,1992.21 816.5,1994C 852.838,1994.87 889.171,1995.87 925.5,1997C 940.837,1998.5 956.17,2000 971.5,2001.5C 1007.27,1999.81 1042.94,1996.98 1078.5,1993C 1130.99,1989.8 1183.33,1991.47 1235.5,1998C 1275.66,1998.62 1315.66,1996.29 1355.5,1991C 1375.4,1987.59 1395.4,1984.92 1415.5,1983C 1455.14,1981.09 1494.81,1979.76 1534.5,1979C 1574.91,1976.06 1615.25,1972.4 1655.5,1968C 1690.17,1967.65 1724.84,1966.98 1759.5,1966C 1770.53,1965.29 1781.53,1964.29 1792.5,1963C 1825.92,1957.2 1859.58,1955.2 1893.5,1957C 1934.69,1959.14 1975.69,1963.14 2016.5,1969C 2053.48,1970.28 2090.14,1974.28 2126.5,1981C 2134.17,1981.67 2141.83,1981.67 2149.5,1981C 2154.25,1979.74 2157.59,1976.91 2159.5,1972.5 Z"/></g>
<g><path style="opacity:0.545" fill="#ebb8a7" d="M 790.5,2011.5 C 791.29,2012.61 791.79,2013.94 792,2015.5C 794.34,2056.21 799.507,2096.54 807.5,2136.5C 797.686,2095.54 792.019,2053.87 790.5,2011.5 Z"/></g>
<g><path style="opacity:0.922" fill="#e7c6b9" d="M 618.5,2071.5 C 604.447,2111.61 586.613,2149.94 565,2186.5C 560.025,2194.63 554.525,2202.29 548.5,2209.5C 553.413,2200.74 558.58,2192.07 564,2183.5C 582.486,2146.2 600.652,2108.86 618.5,2071.5 Z"/></g>
<g><path style="opacity:1" fill="#323615" d="M 2864.5,2152.5 C 2875.13,2152.63 2879.97,2157.97 2879,2168.5C 2878.22,2170.29 2877.05,2171.79 2875.5,2173C 2856.18,2186.67 2836.18,2199.33 2815.5,2211C 2790.67,2227.25 2765.67,2243.25 2740.5,2259C 2733.48,2263.51 2726.81,2268.51 2720.5,2274C 2707.82,2279.9 2701.32,2275.73 2701,2261.5C 2703.08,2257.42 2705.91,2253.92 2709.5,2251C 2761.23,2218.14 2812.9,2185.31 2864.5,2152.5 Z"/></g>
<g><path style="opacity:1" fill="#323615" d="M 195.5,2204.5 C 198.271,2204.42 200.937,2204.92 203.5,2206C 211.64,2213.24 220.64,2219.24 230.5,2224C 237.833,2227.33 245.167,2230.67 252.5,2234C 288.345,2244.76 322.345,2259.59 354.5,2278.5C 360.389,2286.61 359.056,2293.44 350.5,2299C 348.167,2299.67 345.833,2299.67 343.5,2299C 333.119,2292.81 322.452,2287.14 311.5,2282C 287.5,2272.67 263.5,2263.33 239.5,2254C 221.303,2246.32 204.47,2236.49 189,2224.5C 184.12,2215.46 186.287,2208.8 195.5,2204.5 Z"/></g>
<g><path style="opacity:0.216" fill="#e9bdb2" d="M 548.5,2209.5 C 548.262,2211.4 547.262,2212.74 545.5,2213.5C 545.738,2211.6 546.738,2210.26 548.5,2209.5 Z"/></g>
<g><path style="opacity:0.039" fill="#e8c1b7" d="M 545.5,2213.5 C 545.573,2215.03 544.906,2216.03 543.5,2216.5C 543.427,2214.97 544.094,2213.97 545.5,2213.5 Z"/></g>
<g><path style="opacity:0.071" fill="#f4c4b7" d="M 542.5,2217.5 C 542.573,2219.03 541.906,2220.03 540.5,2220.5C 540.427,2218.97 541.094,2217.97 542.5,2217.5 Z"/></g>
<g><path style="opacity:1" fill="#333615" d="M 1964.5,2292.5 C 1983.57,2292.04 2002.57,2292.54 2021.5,2294C 2028.17,2300.67 2028.17,2307.33 2021.5,2314C 2019.91,2314.86 2018.25,2315.53 2016.5,2316C 1975.17,2316.33 1933.83,2316.67 1892.5,2317C 1798.46,2319.22 1704.46,2322.38 1610.5,2326.5C 1563.17,2325.35 1515.83,2324.02 1468.5,2322.5C 1410.83,2324.21 1353.16,2326.04 1295.5,2328C 1252.43,2329.38 1209.43,2328.38 1166.5,2325C 1127.17,2323.9 1087.84,2323.24 1048.5,2323C 1000.52,2320.74 952.518,2319.07 904.5,2318C 893.503,2313.71 891.17,2306.71 897.5,2297C 900.037,2295.16 902.871,2294.33 906,2294.5C 931.821,2295.29 957.655,2295.79 983.5,2296C 994.838,2296.96 1006.17,2297.96 1017.5,2299C 1048.5,2299.19 1079.5,2299.19 1110.5,2299C 1200.12,2305.52 1289.78,2306.18 1379.5,2301C 1464.18,2300.02 1548.84,2300.52 1633.5,2302.5C 1707.5,2299.54 1781.5,2296.71 1855.5,2294C 1892,2293.83 1928.34,2293.33 1964.5,2292.5 Z"/></g>
<g><path style="opacity:0.79" fill="#e7c5b7" d="M 171.5,2331.5 C 186.012,2338.37 200.012,2346.04 213.5,2354.5C 197.963,2349.4 183.963,2341.74 171.5,2331.5 Z"/></g>
<g><path style="opacity:1" fill="#ef9580" d="M 298.5,2383.5 C 302.162,2383.72 305.495,2384.72 308.5,2386.5C 304.838,2386.28 301.505,2385.28 298.5,2383.5 Z"/></g>
<g><path style="opacity:0.098" fill="#eabeb0" d="M 2042.5,2396.5 C 2041.04,2405.07 2037.71,2412.74 2032.5,2419.5C 2035.86,2411.71 2039.2,2404.04 2042.5,2396.5 Z"/></g>
</svg>
