<?xml version="1.0" encoding="UTF-8"?>
<!DOCTYPE svg PUBLIC "-//W3C//DTD SVG 1.1//EN" "http://www.w3.org/Graphics/SVG/1.1/DTD/svg11.dtd">
<svg xmlns="http://www.w3.org/2000/svg" version="1.1" width="3000px" height="3000px" style="shape-rendering:geometricPrecision; text-rendering:geometricPrecision; image-rendering:optimizeQuality; fill-rule:evenodd; clip-rule:evenodd" xmlns:xlink="http://www.w3.org/1999/xlink">
<g><path style="opacity:0.998" fill="#4e231f" d="M 1979.5,1440.5 C 1978.08,1440.29 1976.74,1439.79 1975.5,1439C 1945.36,1413.19 1914.36,1388.53 1882.5,1365C 1843.87,1342.02 1803.2,1323.35 1760.5,1309C 1730.23,1298.6 1699.57,1289.77 1668.5,1282.5C 1667.43,1281.57 1666.1,1281.23 1664.5,1281.5C 1724.49,1271.34 1779.82,1249.51 1830.5,1216C 1866.24,1190.27 1894.9,1158.27 1916.5,1120C 1956.24,1119.53 1987.74,1103.37 2011,1071.5C 2040.68,1030.12 2050.68,984.457 2041,934.5C 2030.46,897.953 2006.63,876.119 1969.5,869C 1961.89,868.056 1954.39,868.556 1947,870.5C 1946.23,870.355 1945.56,870.022 1945,869.5C 1941.21,895.919 1936.87,922.252 1932,948.5C 1930.94,906.509 1925.27,865.176 1915,824.5C 1907.05,794.946 1894.05,767.946 1876,743.5C 1872.2,738.699 1868.03,734.199 1863.5,730C 1851.37,726.909 1839.04,725.909 1826.5,727C 1815.05,729.262 1803.55,731.095 1792,732.5C 1785.76,732.469 1779.92,730.969 1774.5,728C 1767.31,718.411 1767.97,709.411 1776.5,701C 1780.54,698.427 1784.88,696.427 1789.5,695C 1753.88,683.195 1721.54,665.695 1692.5,642.5C 1695.67,653.855 1700.84,664.522 1708,674.5C 1724.89,695.058 1744.06,713.225 1765.5,729C 1780.64,739.459 1796.3,749.126 1812.5,758C 1770.27,759.572 1729.27,753.239 1689.5,739C 1669.39,731.945 1650.72,722.279 1633.5,710C 1592.4,676.236 1554.57,639.069 1520,598.5C 1532.5,650.331 1551.5,699.664 1577,746.5C 1582.78,755.28 1588.95,763.78 1595.5,772C 1572.94,763.218 1551.94,751.552 1532.5,737C 1475.12,691.273 1426.62,637.773 1387,576.5C 1384.6,610.348 1379.1,643.681 1370.5,676.5C 1388.19,674.174 1405.52,675.674 1422.5,681C 1434.19,686.866 1438.35,696.032 1435,708.5C 1426.12,717.343 1415.62,719.843 1403.5,716C 1392.83,712.999 1382.16,709.999 1371.5,707C 1367.5,706.333 1363.5,706.333 1359.5,707C 1347,738.826 1327,764.826 1299.5,785C 1257.66,823.573 1228.83,870.406 1213,925.5C 1217.75,860.89 1222.09,796.223 1226,731.5C 1227.15,713.177 1227.48,694.844 1227,676.5C 1226.69,675.692 1226.19,675.025 1225.5,674.5C 1222.13,680.101 1219.63,686.101 1218,692.5C 1199.67,760.505 1186.33,829.505 1178,899.5C 1176.94,915.482 1176.28,931.482 1176,947.5C 1161.99,909.453 1150.16,870.787 1140.5,831.5C 1112.37,820.745 1086.7,824.911 1063.5,844C 1038.19,867.131 1025.86,895.965 1026.5,930.5C 1027.06,978.414 1043.72,1019.58 1076.5,1054C 1094.3,1069.22 1114.96,1077.89 1138.5,1080C 1152.84,1080.54 1167.17,1080.38 1181.5,1079.5C 1186.46,1094.42 1193.29,1108.42 1202,1121.5C 1229.73,1164.24 1265.57,1198.4 1309.5,1224C 1320.74,1230.45 1332.07,1236.62 1343.5,1242.5C 1337.71,1242.44 1332.04,1243.11 1326.5,1244.5C 1288.29,1247.04 1250.95,1254.2 1214.5,1266C 1202.84,1269.89 1191.51,1274.55 1180.5,1280C 1179.22,1280.68 1178.05,1280.52 1177,1279.5C 1158.24,1291.58 1141.24,1305.91 1126,1322.5C 1106.61,1344.3 1089.45,1367.63 1074.5,1392.5C 1062.11,1352.15 1049.61,1311.82 1037,1271.5C 986.92,1090.15 977.92,906.821 1010,721.5C 1028.52,618.588 1062.52,521.255 1112,429.5C 1157.76,354.757 1221.93,302.257 1304.5,272C 1353.2,254.659 1403.2,242.659 1454.5,236C 1489.49,231.502 1524.49,227.335 1559.5,223.5C 1603.5,227.278 1647.17,233.444 1690.5,242C 1758.98,257.903 1819.64,288.57 1872.5,334C 1904.45,364.935 1930.61,400.101 1951,439.5C 2053.37,652.745 2091.71,877.079 2066,1112.5C 2054.38,1208.32 2032.38,1301.65 2000,1392.5C 1993.45,1408.65 1986.62,1424.65 1979.5,1440.5 Z"/></g>
<g><path style="opacity:1" fill="#fe6500" d="M 1580.5,286.5 C 1638.71,282.976 1695.05,291.476 1749.5,312C 1812.78,336.95 1857.12,380.95 1882.5,444C 1882.17,444.5 1881.83,445 1881.5,445.5C 1800.95,415.289 1717.61,398.456 1631.5,395C 1541.12,390.781 1453.12,403.114 1367.5,432C 1299.64,456.158 1240.8,493.991 1191,545.5C 1181.85,555.8 1173.19,566.467 1165,577.5C 1166.97,552.57 1173.64,528.904 1185,506.5C 1210.9,458.592 1246.07,418.758 1290.5,387C 1377.89,327.145 1474.56,293.645 1580.5,286.5 Z"/></g>
<g><path style="opacity:1" fill="#fec09f" d="M 1664.5,1281.5 C 1652.84,1282.62 1641.18,1283.78 1629.5,1285C 1627.15,1285.24 1625.15,1286.07 1623.5,1287.5C 1621.87,1286.84 1620.03,1286.51 1618,1286.5C 1532.01,1293.49 1448.51,1282.49 1367.5,1253.5C 1366.94,1252.21 1365.94,1251.38 1364.5,1251C 1357.48,1248.15 1350.48,1245.32 1343.5,1242.5C 1332.07,1236.62 1320.74,1230.45 1309.5,1224C 1265.57,1198.4 1229.73,1164.24 1202,1121.5C 1193.29,1108.42 1186.46,1094.42 1181.5,1079.5C 1167.17,1080.38 1152.84,1080.54 1138.5,1080C 1114.96,1077.89 1094.3,1069.22 1076.5,1054C 1043.72,1019.58 1027.06,978.414 1026.5,930.5C 1025.86,895.965 1038.19,867.131 1063.5,844C 1086.7,824.911 1112.37,820.745 1140.5,831.5C 1150.16,870.787 1161.99,909.453 1176,947.5C 1176.28,931.482 1176.94,915.482 1178,899.5C 1186.33,829.505 1199.67,760.505 1218,692.5C 1219.63,686.101 1222.13,680.101 1225.5,674.5C 1226.19,675.025 1226.69,675.692 1227,676.5C 1227.48,694.844 1227.15,713.177 1226,731.5C 1222.09,796.223 1217.75,860.89 1213,925.5C 1228.83,870.406 1257.66,823.573 1299.5,785C 1327,764.826 1347,738.826 1359.5,707C 1363.5,706.333 1367.5,706.333 1371.5,707C 1382.16,709.999 1392.83,712.999 1403.5,716C 1415.62,719.843 1426.12,717.343 1435,708.5C 1438.35,696.032 1434.19,686.866 1422.5,681C 1405.52,675.674 1388.19,674.174 1370.5,676.5C 1379.1,643.681 1384.6,610.348 1387,576.5C 1426.62,637.773 1475.12,691.273 1532.5,737C 1551.94,751.552 1572.94,763.218 1595.5,772C 1588.95,763.78 1582.78,755.28 1577,746.5C 1551.5,699.664 1532.5,650.331 1520,598.5C 1554.57,639.069 1592.4,676.236 1633.5,710C 1650.72,722.279 1669.39,731.945 1689.5,739C 1729.27,753.239 1770.27,759.572 1812.5,758C 1796.3,749.126 1780.64,739.459 1765.5,729C 1744.06,713.225 1724.89,695.058 1708,674.5C 1700.84,664.522 1695.67,653.855 1692.5,642.5C 1721.54,665.695 1753.88,683.195 1789.5,695C 1784.88,696.427 1780.54,698.427 1776.5,701C 1767.97,709.411 1767.31,718.411 1774.5,728C 1779.92,730.969 1785.76,732.469 1792,732.5C 1803.55,731.095 1815.05,729.262 1826.5,727C 1839.04,725.909 1851.37,726.909 1863.5,730C 1868.03,734.199 1872.2,738.699 1876,743.5C 1894.05,767.946 1907.05,794.946 1915,824.5C 1925.27,865.176 1930.94,906.509 1932,948.5C 1936.87,922.252 1941.21,895.919 1945,869.5C 1945.56,870.022 1946.23,870.355 1947,870.5C 1954.39,868.556 1961.89,868.056 1969.5,869C 2006.63,876.119 2030.46,897.953 2041,934.5C 2050.68,984.457 2040.68,1030.12 2011,1071.5C 1987.74,1103.37 1956.24,1119.53 1916.5,1120C 1894.9,1158.27 1866.24,1190.27 1830.5,1216C 1779.82,1249.51 1724.49,1271.34 1664.5,1281.5 Z"/></g>
<g><path style="opacity:1" fill="#873803" d="M 1512.5,848.5 C 1495.37,824.872 1473.37,807.372 1446.5,796C 1407.34,782.641 1370,786.641 1334.5,808C 1326.73,812.608 1319.4,817.775 1312.5,823.5C 1311.19,824.476 1309.85,825.476 1308.5,826.5C 1308.17,826 1307.83,825.5 1307.5,825C 1316.92,802.915 1332.92,787.582 1355.5,779C 1400.12,764.159 1441.12,770.825 1478.5,799C 1494.2,812.861 1506.2,829.361 1514.5,848.5C 1514.03,849.463 1513.36,849.463 1512.5,848.5 Z"/></g>
<g><path style="opacity:1" fill="#873803" d="M 1899.5,848.5 C 1880.17,822.52 1854.51,806.853 1822.5,801.5C 1819.18,800.835 1815.68,800.501 1812,800.5C 1806.26,800.358 1800.76,801.025 1795.5,802.5C 1768.55,809.143 1746.21,823.143 1728.5,844.5C 1725.5,846.668 1723,849.334 1721,852.5C 1737.48,815.714 1765.65,793.214 1805.5,785C 1837.27,781.817 1864.1,791.65 1886,814.5C 1894.51,824.702 1899.51,836.368 1901,849.5C 1900.62,848.944 1900.12,848.611 1899.5,848.5 Z"/></g>
<g><path style="opacity:1" fill="#fdfdfc" d="M 1512.5,848.5 C 1523.95,877.927 1524.45,907.594 1514,937.5C 1500.59,965.138 1479.09,983.305 1449.5,992C 1400.16,1004.05 1357.33,992.547 1321,957.5C 1293.53,924.468 1286.19,887.468 1299,846.5C 1302.56,838.149 1307.06,830.482 1312.5,823.5C 1319.4,817.775 1326.73,812.608 1334.5,808C 1370,786.641 1407.34,782.641 1446.5,796C 1473.37,807.372 1495.37,824.872 1512.5,848.5 Z"/></g>
<g><path style="opacity:1" fill="#e8ab88" d="M 1822.5,801.5 C 1813.48,801.501 1804.48,801.834 1795.5,802.5C 1800.76,801.025 1806.26,800.358 1812,800.5C 1815.68,800.501 1819.18,800.835 1822.5,801.5 Z"/></g>
<g><path style="opacity:1" fill="#fdfcfc" d="M 1822.5,801.5 C 1854.51,806.853 1880.17,822.52 1899.5,848.5C 1913.25,878.068 1914.09,908.068 1902,938.5C 1884.53,982.283 1852.2,1005.62 1805,1008.5C 1775.35,1007.34 1750.68,995.673 1731,973.5C 1714.64,950.051 1708.31,924.051 1712,895.5C 1713.82,877.204 1719.32,860.204 1728.5,844.5C 1746.21,823.143 1768.55,809.143 1795.5,802.5C 1804.48,801.834 1813.48,801.501 1822.5,801.5 Z"/></g>
<g><path style="opacity:1" fill="#853601" d="M 1435.5,833.5 C 1474.59,832.119 1499.42,850.119 1510,887.5C 1514.02,918.938 1502.86,943.104 1476.5,960C 1449.7,972.624 1424.36,970.291 1400.5,953C 1379.29,933.064 1372.13,908.897 1379,880.5C 1388.4,853.253 1407.23,837.586 1435.5,833.5 Z"/></g>
<g><path style="opacity:1" fill="#853601" d="M 1817.5,841.5 C 1858.29,838.123 1884.79,855.79 1897,894.5C 1900.9,925.516 1890.07,949.682 1864.5,967C 1832.17,982.548 1803.67,977.381 1779,951.5C 1758.09,921.847 1758.43,892.514 1780,863.5C 1790.36,852.406 1802.86,845.073 1817.5,841.5 Z"/></g>
<g><path style="opacity:1" fill="#fcfbfb" d="M 1473.5,898.5 C 1455.97,903.137 1444.47,896.803 1439,879.5C 1438.5,876.518 1438.34,873.518 1438.5,870.5C 1443.62,855.1 1454.28,848.6 1470.5,851C 1485.52,856.19 1491.35,866.69 1488,882.5C 1485.43,889.903 1480.6,895.236 1473.5,898.5 Z"/></g>
<g><path style="opacity:1" fill="#fbfbfa" d="M 1839.5,879.5 C 1839.1,896.069 1830.6,905.069 1814,906.5C 1809.46,906.264 1805.29,904.93 1801.5,902.5C 1789.95,893.628 1786.78,882.295 1792,868.5C 1800.51,856.58 1811.68,853.08 1825.5,858C 1833.8,862.761 1838.47,869.927 1839.5,879.5 Z"/></g>
<g><path style="opacity:1" fill="#1d0804" d="M 1438.5,870.5 C 1438.34,873.518 1438.5,876.518 1439,879.5C 1444.47,896.803 1455.97,903.137 1473.5,898.5C 1471.59,922.076 1458.93,932.409 1435.5,929.5C 1433.44,920.751 1428.1,917.417 1419.5,919.5C 1409.63,902.776 1411.96,887.943 1426.5,875C 1430.22,872.636 1434.22,871.136 1438.5,870.5 Z"/></g>
<g><path style="opacity:1" fill="#1e0803" d="M 1839.5,879.5 C 1857.22,885.737 1864.05,898.07 1860,916.5C 1858.6,920.975 1856.43,924.975 1853.5,928.5C 1844.8,927.009 1839.13,930.342 1836.5,938.5C 1819.55,939.612 1808.05,932.279 1802,916.5C 1801.5,911.845 1801.33,907.179 1801.5,902.5C 1805.29,904.93 1809.46,906.264 1814,906.5C 1830.6,905.069 1839.1,896.069 1839.5,879.5 Z"/></g>
<g><path style="opacity:1" fill="#ff8e52" d="M 1132.5,899.5 C 1140.61,898.737 1148.11,900.403 1155,904.5C 1155.18,940.011 1157.68,975.344 1162.5,1010.5C 1131.43,1011.27 1111.93,996.601 1104,966.5C 1096.79,945.244 1100.29,926.077 1114.5,909C 1119.89,904.473 1125.89,901.306 1132.5,899.5 Z"/></g>
<g><path style="opacity:1" fill="#f9f7f6" d="M 1435.5,929.5 C 1433.89,940.139 1427.89,943.973 1417.5,941C 1408.95,932.75 1409.61,925.583 1419.5,919.5C 1428.1,917.417 1433.44,920.751 1435.5,929.5 Z"/></g>
<g><path style="opacity:1" fill="#faf8f7" d="M 1853.5,928.5 C 1859.77,932.056 1861.94,937.389 1860,944.5C 1855.51,951.549 1849.35,953.383 1841.5,950C 1838.59,946.689 1836.93,942.856 1836.5,938.5C 1839.13,930.342 1844.8,927.009 1853.5,928.5 Z"/></g>
<g><path style="opacity:1" fill="#ff8f53" d="M 1950.5,944.5 C 1961.48,951.363 1967.98,961.363 1970,974.5C 1971.72,1000.35 1963.05,1022.02 1944,1039.5C 1946.49,1021.28 1948.49,1002.95 1950,984.5C 1950.5,971.171 1950.67,957.837 1950.5,944.5 Z"/></g>
<g><path style="opacity:1" fill="#ff8f53" d="M 1616.5,978.5 C 1622.9,977.053 1627.73,979.053 1631,984.5C 1638.22,999.259 1637.89,1013.93 1630,1028.5C 1630.09,1019.45 1627.76,1011.11 1623,1003.5C 1621.75,1002.79 1620.58,1001.96 1619.5,1001C 1612.46,999.719 1605.79,1000.72 1599.5,1004C 1589.82,1009.34 1580.99,1015.84 1573,1023.5C 1573.43,1019.62 1574.76,1015.95 1577,1012.5C 1586.96,997.296 1600.12,985.962 1616.5,978.5 Z"/></g>
<g><path style="opacity:1" fill="#f2957c" d="M 1281.5,1009.5 C 1299.82,1007.41 1316.48,1011.58 1331.5,1022C 1348.08,1038.51 1347.41,1054.18 1329.5,1069C 1304.11,1082.66 1279.44,1081.66 1255.5,1066C 1238.53,1050.99 1238.19,1035.66 1254.5,1020C 1262.74,1014.21 1271.74,1010.71 1281.5,1009.5 Z"/></g>
<g><path style="opacity:1" fill="#f2957c" d="M 1809.5,1022.5 C 1827.54,1020.68 1844.21,1024.51 1859.5,1034C 1877.65,1049.43 1877.98,1065.1 1860.5,1081C 1841.89,1091.66 1822.22,1093.99 1801.5,1088C 1791.01,1084.51 1782.51,1078.34 1776,1069.5C 1768.51,1052.63 1772.68,1039.46 1788.5,1030C 1795.29,1026.57 1802.29,1024.07 1809.5,1022.5 Z"/></g>
<g><path style="opacity:1" fill="#4f241f" d="M 1598.5,1119.5 C 1612.96,1116.82 1625.12,1120.82 1635,1131.5C 1641.54,1143.43 1640.54,1154.76 1632,1165.5C 1615.99,1182.88 1597.15,1187.05 1575.5,1178C 1565.69,1170.56 1562.19,1160.73 1565,1148.5C 1568.69,1138.95 1574.86,1131.45 1583.5,1126C 1588.48,1123.52 1593.48,1121.35 1598.5,1119.5 Z"/></g>
<g><path style="opacity:1" fill="#f6f6f6" d="M 1343.5,1242.5 C 1350.48,1245.32 1357.48,1248.15 1364.5,1251C 1365.94,1251.38 1366.94,1252.21 1367.5,1253.5C 1361.21,1270.71 1359.37,1288.37 1362,1306.5C 1366.42,1326.83 1372.08,1346.83 1379,1366.5C 1404.29,1437.05 1432.29,1506.38 1463,1574.5C 1465.28,1573.22 1467.28,1571.56 1469,1569.5C 1509.58,1513.37 1546.91,1455.04 1581,1394.5C 1592.05,1375.06 1602.05,1355.06 1611,1334.5C 1617.21,1319.34 1621.37,1303.67 1623.5,1287.5C 1625.15,1286.07 1627.15,1285.24 1629.5,1285C 1641.18,1283.78 1652.84,1282.62 1664.5,1281.5C 1666.1,1281.23 1667.43,1281.57 1668.5,1282.5C 1669.47,1283.4 1670.14,1284.57 1670.5,1286C 1663.82,1328.61 1650.32,1368.77 1630,1406.5C 1603.12,1448.05 1575.45,1489.05 1547,1529.5C 1515.05,1573.78 1482.72,1617.78 1450,1661.5C 1412.54,1580.49 1378.54,1497.82 1348,1413.5C 1337.29,1383.44 1328.96,1352.77 1323,1321.5C 1321.82,1295.71 1322.99,1270.04 1326.5,1244.5C 1332.04,1243.11 1337.71,1242.44 1343.5,1242.5 Z"/></g>
<g><path style="opacity:0.998" fill="#eaeaea" d="M 1326.5,1244.5 C 1322.99,1270.04 1321.82,1295.71 1323,1321.5C 1328.96,1352.77 1337.29,1383.44 1348,1413.5C 1378.54,1497.82 1412.54,1580.49 1450,1661.5C 1482.72,1617.78 1515.05,1573.78 1547,1529.5C 1575.45,1489.05 1603.12,1448.05 1630,1406.5C 1650.32,1368.77 1663.82,1328.61 1670.5,1286C 1670.14,1284.57 1669.47,1283.4 1668.5,1282.5C 1699.57,1289.77 1730.23,1298.6 1760.5,1309C 1803.2,1323.35 1843.87,1342.02 1882.5,1365C 1914.36,1388.53 1945.36,1413.19 1975.5,1439C 1976.74,1439.79 1978.08,1440.29 1979.5,1440.5C 1997.15,1456.08 2015.32,1471.08 2034,1485.5C 2073.99,1466.78 2113.83,1447.78 2153.5,1428.5C 2182.85,1481.87 2212.18,1535.2 2241.5,1588.5C 2192.09,1620.33 2139.42,1645.83 2083.5,1665C 2060.44,1672.72 2036.77,1676.06 2012.5,1675C 2001.52,1673.59 1990.85,1670.92 1980.5,1667C 1936.99,1649.5 1894.65,1629.5 1853.5,1607C 1828.37,1592.7 1803.37,1578.2 1778.5,1563.5C 1775.63,1602.48 1772.79,1641.48 1770,1680.5C 1767.1,1727.47 1760.1,1773.81 1749,1819.5C 1745.96,1831.58 1740.79,1842.58 1733.5,1852.5C 1727.05,1858.73 1719.38,1862.9 1710.5,1865C 1694.75,1869.22 1678.75,1871.88 1662.5,1873C 1641.54,1874.73 1620.54,1875.56 1599.5,1875.5C 1470.48,1873.44 1342.48,1860.94 1215.5,1838C 1194.72,1833.85 1174.39,1828.18 1154.5,1821C 1150.36,1818.69 1146.7,1815.85 1143.5,1812.5C 1138.91,1797.54 1136.41,1782.21 1136,1766.5C 1135.55,1734.83 1135.55,1703.16 1136,1671.5C 1124.44,1683.73 1112.27,1695.23 1099.5,1706C 1083.87,1715.99 1066.87,1722.66 1048.5,1726C 1020.38,1730.91 992.049,1733.08 963.5,1732.5C 924.33,1732.28 885.33,1729.62 846.5,1724.5C 851.116,1663.83 855.782,1603.16 860.5,1542.5C 844.167,1542.5 827.833,1542.5 811.5,1542.5C 809.265,1568.85 806.765,1595.18 804,1621.5C 803.998,1624.05 803.164,1626.05 801.5,1627.5C 803.594,1605.51 805.594,1583.51 807.5,1561.5C 808.035,1554.15 808.701,1546.82 809.5,1539.5C 871.529,1542.17 933.529,1544.17 995.5,1545.5C 1020.59,1493.66 1046.92,1442.66 1074.5,1392.5C 1089.45,1367.63 1106.61,1344.3 1126,1322.5C 1141.24,1305.91 1158.24,1291.58 1177,1279.5C 1178.05,1280.52 1179.22,1280.68 1180.5,1280C 1191.51,1274.55 1202.84,1269.89 1214.5,1266C 1250.95,1254.2 1288.29,1247.04 1326.5,1244.5 Z"/></g>
<g><path style="opacity:1" fill="#feb188" d="M 1367.5,1253.5 C 1448.51,1282.49 1532.01,1293.49 1618,1286.5C 1620.03,1286.51 1621.87,1286.84 1623.5,1287.5C 1621.37,1303.67 1617.21,1319.34 1611,1334.5C 1602.05,1355.06 1592.05,1375.06 1581,1394.5C 1546.91,1455.04 1509.58,1513.37 1469,1569.5C 1467.28,1571.56 1465.28,1573.22 1463,1574.5C 1432.29,1506.38 1404.29,1437.05 1379,1366.5C 1372.08,1346.83 1366.42,1326.83 1362,1306.5C 1359.37,1288.37 1361.21,1270.71 1367.5,1253.5 Z"/></g>
<g><path style="opacity:0.994" fill="#fec09f" d="M 2322.5,1351.5 C 2320.89,1353.6 2320.39,1355.93 2321,1358.5C 2332.07,1374.98 2340.74,1392.64 2347,1411.5C 2348.7,1418.24 2347.2,1424.08 2342.5,1429C 2335.41,1434.42 2327.41,1437.59 2318.5,1438.5C 2308.09,1437.6 2300.92,1432.26 2297,1422.5C 2288.81,1407.45 2281.14,1392.11 2274,1376.5C 2270.32,1374.64 2268.15,1375.81 2267.5,1380C 2274.06,1398.3 2276.56,1417.13 2275,1436.5C 2273.78,1448.71 2267.28,1456.21 2255.5,1459C 2252.83,1461.33 2252.83,1463.67 2255.5,1466C 2265.23,1466.55 2272.73,1462.72 2278,1454.5C 2283.1,1442.39 2285.43,1429.72 2285,1416.5C 2289.64,1424.95 2295.14,1432.78 2301.5,1440C 2308.04,1444.66 2315.37,1446.82 2323.5,1446.5C 2330.4,1465.7 2338.57,1484.37 2348,1502.5C 2357.81,1517.07 2370.48,1520.07 2386,1511.5C 2387.03,1508.14 2385.86,1506.14 2382.5,1505.5C 2376.44,1508.26 2370.11,1509.09 2363.5,1508C 2361.04,1506.54 2358.87,1504.71 2357,1502.5C 2354.37,1498.08 2351.87,1493.58 2349.5,1489C 2368.46,1485.15 2387.46,1481.48 2406.5,1478C 2409.2,1477.05 2410.03,1475.22 2409,1472.5C 2407.7,1471.02 2406.03,1470.35 2404,1470.5C 2384.58,1474.42 2365.08,1477.58 2345.5,1480C 2342.04,1472.24 2338.7,1464.41 2335.5,1456.5C 2357.71,1447.26 2379.88,1437.93 2402,1428.5C 2403.26,1422.92 2401.09,1421.09 2395.5,1423C 2374.79,1431.4 2354.13,1439.9 2333.5,1448.5C 2331.67,1447.03 2331.33,1445.36 2332.5,1443.5C 2341.95,1439.88 2349.45,1433.88 2355,1425.5C 2356.35,1416.15 2355.19,1407.15 2351.5,1398.5C 2351.83,1397.83 2352.17,1397.17 2352.5,1396.5C 2362.39,1392.7 2372.39,1389.2 2382.5,1386C 2383.77,1383.86 2383.77,1381.69 2382.5,1379.5C 2381.71,1379.07 2380.87,1378.74 2380,1378.5C 2369.24,1381.97 2358.58,1385.64 2348,1389.5C 2341.14,1377.11 2334.31,1364.78 2327.5,1352.5C 2337.15,1343.04 2348.49,1336.21 2361.5,1332C 2373.17,1330.08 2382,1334.25 2388,1344.5C 2395.16,1356.49 2398.99,1369.49 2399.5,1383.5C 2415.9,1392.68 2421.56,1406.35 2416.5,1424.5C 2429.72,1437 2433.89,1452 2429,1469.5C 2427.55,1472.91 2425.71,1476.08 2423.5,1479C 2428.63,1485.82 2429.8,1493.32 2427,1501.5C 2425.21,1504.3 2423.04,1506.8 2420.5,1509C 2389.56,1526.09 2356.56,1537.43 2321.5,1543C 2309.32,1544.75 2297.66,1543.08 2286.5,1538C 2283.35,1535.85 2280.52,1533.35 2278,1530.5C 2275.88,1531.14 2274.05,1532.14 2272.5,1533.5C 2265.86,1523.56 2259.69,1513.23 2254,1502.5C 2239.55,1476.61 2225.39,1450.61 2211.5,1424.5C 2215.29,1423.1 2218.96,1421.44 2222.5,1419.5C 2216.93,1411.76 2212.43,1403.42 2209,1394.5C 2207.73,1388.41 2208.73,1382.74 2212,1377.5C 2234.9,1353.98 2261.4,1335.81 2291.5,1323C 2294.83,1322.33 2298.17,1322.33 2301.5,1323C 2311.3,1330.44 2318.3,1339.94 2322.5,1351.5 Z"/></g>
<g><path style="opacity:0.999" fill="#ffa77a" d="M 2322.5,1351.5 C 2324.22,1351.63 2325.88,1351.96 2327.5,1352.5C 2334.31,1364.78 2341.14,1377.11 2348,1389.5C 2358.58,1385.64 2369.24,1381.97 2380,1378.5C 2380.87,1378.74 2381.71,1379.07 2382.5,1379.5C 2383.77,1381.69 2383.77,1383.86 2382.5,1386C 2372.39,1389.2 2362.39,1392.7 2352.5,1396.5C 2352.17,1397.17 2351.83,1397.83 2351.5,1398.5C 2355.19,1407.15 2356.35,1416.15 2355,1425.5C 2349.45,1433.88 2341.95,1439.88 2332.5,1443.5C 2331.33,1445.36 2331.67,1447.03 2333.5,1448.5C 2354.13,1439.9 2374.79,1431.4 2395.5,1423C 2401.09,1421.09 2403.26,1422.92 2402,1428.5C 2379.88,1437.93 2357.71,1447.26 2335.5,1456.5C 2338.7,1464.41 2342.04,1472.24 2345.5,1480C 2365.08,1477.58 2384.58,1474.42 2404,1470.5C 2406.03,1470.35 2407.7,1471.02 2409,1472.5C 2410.03,1475.22 2409.2,1477.05 2406.5,1478C 2387.46,1481.48 2368.46,1485.15 2349.5,1489C 2351.87,1493.58 2354.37,1498.08 2357,1502.5C 2358.87,1504.71 2361.04,1506.54 2363.5,1508C 2370.11,1509.09 2376.44,1508.26 2382.5,1505.5C 2385.86,1506.14 2387.03,1508.14 2386,1511.5C 2370.48,1520.07 2357.81,1517.07 2348,1502.5C 2338.57,1484.37 2330.4,1465.7 2323.5,1446.5C 2315.37,1446.82 2308.04,1444.66 2301.5,1440C 2295.14,1432.78 2289.64,1424.95 2285,1416.5C 2285.43,1429.72 2283.1,1442.39 2278,1454.5C 2272.73,1462.72 2265.23,1466.55 2255.5,1466C 2252.83,1463.67 2252.83,1461.33 2255.5,1459C 2267.28,1456.21 2273.78,1448.71 2275,1436.5C 2276.56,1417.13 2274.06,1398.3 2267.5,1380C 2268.15,1375.81 2270.32,1374.64 2274,1376.5C 2281.14,1392.11 2288.81,1407.45 2297,1422.5C 2300.92,1432.26 2308.09,1437.6 2318.5,1438.5C 2327.41,1437.59 2335.41,1434.42 2342.5,1429C 2347.2,1424.08 2348.7,1418.24 2347,1411.5C 2340.74,1392.64 2332.07,1374.98 2321,1358.5C 2320.39,1355.93 2320.89,1353.6 2322.5,1351.5 Z"/></g>
<g><path style="opacity:0.998" fill="#f6f6f6" d="M 2211.5,1424.5 C 2225.39,1450.61 2239.55,1476.61 2254,1502.5C 2259.69,1513.23 2265.86,1523.56 2272.5,1533.5C 2277.15,1542.14 2281.82,1550.81 2286.5,1559.5C 2272.71,1570.91 2257.71,1580.57 2241.5,1588.5C 2212.18,1535.2 2182.85,1481.87 2153.5,1428.5C 2168.85,1421.08 2184.35,1413.74 2200,1406.5C 2200.77,1406.64 2201.44,1406.98 2202,1407.5C 2204.99,1413.31 2208.16,1418.98 2211.5,1424.5 Z"/></g>
<g><path style="opacity:0.994" fill="#fec09f" d="M 807.5,1561.5 C 805.594,1583.51 803.594,1605.51 801.5,1627.5C 799.798,1646.67 797.798,1665.67 795.5,1684.5C 792.5,1684.5 789.5,1684.5 786.5,1684.5C 786.201,1688.11 785.035,1691.44 783,1694.5C 771.257,1707.87 756.423,1715.37 738.5,1717C 709.057,1722.96 679.39,1724.62 649.5,1722C 636.504,1718.01 631.504,1709.35 634.5,1696C 621.888,1688.96 615.221,1678.13 614.5,1663.5C 615.109,1657.03 616.443,1650.7 618.5,1644.5C 606.573,1629.16 606.573,1613.83 618.5,1598.5C 612.404,1584.7 610.904,1570.36 614,1555.5C 615.657,1546.51 620.823,1540.68 629.5,1538C 635.776,1536.58 642.109,1536.24 648.5,1537C 656.951,1538.36 665.284,1540.2 673.5,1542.5C 671.047,1556.72 669.714,1571.05 669.5,1585.5C 657.503,1586.27 645.503,1587.11 633.5,1588C 630.177,1592.82 631.51,1595.32 637.5,1595.5C 648.127,1594.17 658.794,1593.5 669.5,1593.5C 668.668,1604.31 671.668,1613.81 678.5,1622C 686.85,1626.84 695.85,1629 705.5,1628.5C 705.5,1629.83 705.5,1631.17 705.5,1632.5C 682.167,1632.94 658.834,1633.44 635.5,1634C 633.352,1636.07 633.018,1638.41 634.5,1641C 638.667,1641.17 642.833,1641.33 647,1641.5C 666.825,1640.68 686.658,1640.34 706.5,1640.5C 706.832,1649.52 706.498,1658.52 705.5,1667.5C 686.924,1672.32 668.257,1676.82 649.5,1681C 646.707,1682.54 646.04,1684.71 647.5,1687.5C 650.106,1688.65 652.773,1688.82 655.5,1688C 672.399,1683.64 689.399,1679.81 706.5,1676.5C 706.067,1681.83 705.567,1687.17 705,1692.5C 703.5,1698.67 699.667,1702.5 693.5,1704C 689.247,1704.2 685.08,1704.7 681,1705.5C 680.257,1707.44 680.424,1709.27 681.5,1711C 694.815,1713.92 704.648,1709.42 711,1697.5C 712.769,1690.29 713.769,1682.95 714,1675.5C 714.495,1659.15 714.495,1642.82 714,1626.5C 724.226,1623.94 730.893,1617.61 734,1607.5C 735.058,1598.81 736.224,1590.15 737.5,1581.5C 741.098,1595.22 748.098,1606.72 758.5,1616C 766.704,1620.87 775.204,1621.71 784,1618.5C 784.667,1616.83 784.667,1615.17 784,1613.5C 771.854,1614.59 762.187,1610.26 755,1600.5C 745.013,1582.84 739.346,1563.84 738,1543.5C 734.841,1540.66 732.508,1541.33 731,1545.5C 731.043,1565.99 729.376,1586.32 726,1606.5C 723.002,1613.93 717.502,1618.43 709.5,1620C 700.319,1621.48 691.652,1620.15 683.5,1616C 679.9,1612.63 678.067,1608.46 678,1603.5C 676.863,1584.41 677.696,1565.41 680.5,1546.5C 681.226,1543.04 679.893,1541.38 676.5,1541.5C 675.929,1531.29 677.096,1521.29 680,1511.5C 681.605,1505.56 685.438,1502.06 691.5,1501C 724.286,1500.3 755.953,1505.96 786.5,1518C 794.655,1522.98 798.322,1530.31 797.5,1540C 797.202,1546.96 796.202,1553.79 794.5,1560.5C 798.857,1560.59 803.19,1560.92 807.5,1561.5 Z"/></g>
<g><path style="opacity:1" fill="#ffa77a" d="M 676.5,1541.5 C 679.893,1541.38 681.226,1543.04 680.5,1546.5C 677.696,1565.41 676.863,1584.41 678,1603.5C 678.067,1608.46 679.9,1612.63 683.5,1616C 691.652,1620.15 700.319,1621.48 709.5,1620C 717.502,1618.43 723.002,1613.93 726,1606.5C 729.376,1586.32 731.043,1565.99 731,1545.5C 732.508,1541.33 734.841,1540.66 738,1543.5C 739.346,1563.84 745.013,1582.84 755,1600.5C 762.187,1610.26 771.854,1614.59 784,1613.5C 784.667,1615.17 784.667,1616.83 784,1618.5C 775.204,1621.71 766.704,1620.87 758.5,1616C 748.098,1606.72 741.098,1595.22 737.5,1581.5C 736.224,1590.15 735.058,1598.81 734,1607.5C 730.893,1617.61 724.226,1623.94 714,1626.5C 714.495,1642.82 714.495,1659.15 714,1675.5C 713.769,1682.95 712.769,1690.29 711,1697.5C 704.648,1709.42 694.815,1713.92 681.5,1711C 680.424,1709.27 680.257,1707.44 681,1705.5C 685.08,1704.7 689.247,1704.2 693.5,1704C 699.667,1702.5 703.5,1698.67 705,1692.5C 705.567,1687.17 706.067,1681.83 706.5,1676.5C 689.399,1679.81 672.399,1683.64 655.5,1688C 652.773,1688.82 650.106,1688.65 647.5,1687.5C 646.04,1684.71 646.707,1682.54 649.5,1681C 668.257,1676.82 686.924,1672.32 705.5,1667.5C 706.498,1658.52 706.832,1649.52 706.5,1640.5C 686.658,1640.34 666.825,1640.68 647,1641.5C 642.833,1641.33 638.667,1641.17 634.5,1641C 633.018,1638.41 633.352,1636.07 635.5,1634C 658.834,1633.44 682.167,1632.94 705.5,1632.5C 705.5,1631.17 705.5,1629.83 705.5,1628.5C 695.85,1629 686.85,1626.84 678.5,1622C 671.668,1613.81 668.668,1604.31 669.5,1593.5C 658.794,1593.5 648.127,1594.17 637.5,1595.5C 631.51,1595.32 630.177,1592.82 633.5,1588C 645.503,1587.11 657.503,1586.27 669.5,1585.5C 669.714,1571.05 671.047,1556.72 673.5,1542.5C 674.391,1541.89 675.391,1541.56 676.5,1541.5 Z"/></g>
<g><path style="opacity:0.999" fill="#f6f6f6" d="M 846.5,1724.5 C 828.791,1721.99 811.124,1719.16 793.5,1716C 793.043,1715.59 792.709,1715.09 792.5,1714.5C 793.859,1704.55 794.859,1694.55 795.5,1684.5C 797.798,1665.67 799.798,1646.67 801.5,1627.5C 803.164,1626.05 803.998,1624.05 804,1621.5C 806.765,1595.18 809.265,1568.85 811.5,1542.5C 827.833,1542.5 844.167,1542.5 860.5,1542.5C 855.782,1603.16 851.116,1663.83 846.5,1724.5 Z"/></g>
<g><path style="opacity:0.997" fill="#fe6601" d="M 1143.5,1812.5 C 1146.7,1815.85 1150.36,1818.69 1154.5,1821C 1174.39,1828.18 1194.72,1833.85 1215.5,1838C 1342.48,1860.94 1470.48,1873.44 1599.5,1875.5C 1620.54,1875.56 1641.54,1874.73 1662.5,1873C 1678.75,1871.88 1694.75,1869.22 1710.5,1865C 1719.38,1862.9 1727.05,1858.73 1733.5,1852.5C 1737.87,1861.25 1741.71,1870.25 1745,1879.5C 1748.97,1890.85 1748.31,1901.85 1743,1912.5C 1740.07,1916.62 1736.23,1919.29 1731.5,1920.5C 1723.09,1923.28 1714.43,1925.12 1705.5,1926C 1680.57,1928.68 1655.57,1930.35 1630.5,1931C 1573.49,1931.8 1516.49,1931.63 1459.5,1930.5C 1466.54,1984.1 1477.88,2036.77 1493.5,2088.5C 1496.37,2100.45 1499.04,2112.45 1501.5,2124.5C 1505.71,2144.65 1508.71,2164.99 1510.5,2185.5C 1512.74,2209.59 1510.57,2233.25 1504,2256.5C 1500.21,2268.75 1493.88,2279.42 1485,2288.5C 1463.72,2311.45 1440.89,2332.61 1416.5,2352C 1415.24,2352.98 1413.91,2353.32 1412.5,2353C 1397.69,2333.36 1382.69,2313.86 1367.5,2294.5C 1418.95,2285.55 1448.78,2255.22 1457,2203.5C 1459.33,2187.55 1459.83,2171.55 1458.5,2155.5C 1458.5,2144.77 1457.83,2134.1 1456.5,2123.5C 1455.21,2109.75 1453.55,2096.08 1451.5,2082.5C 1445.07,2030.76 1435.4,1979.76 1422.5,1929.5C 1420.02,1928.84 1417.36,1928.5 1414.5,1928.5C 1411.41,1928.52 1408.74,1929.19 1406.5,1930.5C 1399.33,1980.66 1384.33,2028.33 1361.5,2073.5C 1353.92,2087 1345.58,2100 1336.5,2112.5C 1327.07,2123.77 1316.73,2134.27 1305.5,2144C 1232.3,2195.88 1151.3,2214.55 1062.5,2200C 1061.39,2180.56 1060.39,2161.06 1059.5,2141.5C 1101.2,2149.65 1142.86,2149.48 1184.5,2141C 1214.22,2134.14 1240.56,2120.97 1263.5,2101.5C 1272.91,2093.43 1281.24,2084.43 1288.5,2074.5C 1318.99,2028.53 1343.99,1979.53 1363.5,1927.5C 1335.19,1924.8 1306.85,1921.97 1278.5,1919C 1236.76,1915.86 1197.09,1905.19 1159.5,1887C 1153.06,1883.05 1147.06,1878.55 1141.5,1873.5C 1129.88,1862.35 1126.38,1849.02 1131,1833.5C 1134.16,1825.84 1138.32,1818.84 1143.5,1812.5 Z"/></g>
<g><path style="opacity:0.999" fill="#ebeaea" d="M 1731.5,1920.5 C 1741.11,1946.72 1750.44,1973.06 1759.5,1999.5C 1763.87,2012.45 1768.37,2025.45 1773,2038.5C 1773.72,2040.11 1773.55,2041.61 1772.5,2043C 1699.5,2067.66 1624.5,2083 1547.5,2089C 1529.49,2089.7 1511.49,2089.53 1493.5,2088.5C 1477.88,2036.77 1466.54,1984.1 1459.5,1930.5C 1516.49,1931.63 1573.49,1931.8 1630.5,1931C 1655.57,1930.35 1680.57,1928.68 1705.5,1926C 1714.43,1925.12 1723.09,1923.28 1731.5,1920.5 Z"/></g>
<g><path style="opacity:1" fill="#f4b388" d="M 1422.5,1929.5 C 1417.07,1929.22 1411.74,1929.55 1406.5,1930.5C 1408.74,1929.19 1411.41,1928.52 1414.5,1928.5C 1417.36,1928.5 1420.02,1928.84 1422.5,1929.5 Z"/></g>
<g><path style="opacity:1" fill="#ebe9e7" d="M 1422.5,1929.5 C 1435.4,1979.76 1445.07,2030.76 1451.5,2082.5C 1441.07,2080.12 1430.74,2077.45 1420.5,2074.5C 1422.02,2035.51 1422.85,1996.51 1423,1957.5C 1405.61,1997.61 1385.61,2036.28 1363,2073.5C 1362.31,2074.74 1361.81,2074.74 1361.5,2073.5C 1384.33,2028.33 1399.33,1980.66 1406.5,1930.5C 1411.74,1929.55 1417.07,1929.22 1422.5,1929.5 Z"/></g>
<g><path style="opacity:1" fill="#e2dfd7" d="M 1288.5,2074.5 C 1281.24,2084.43 1272.91,2093.43 1263.5,2101.5C 1220.36,2092.52 1177.36,2082.35 1134.5,2071C 1101.01,2061.78 1068.34,2050.28 1036.5,2036.5C 1060.8,2004.94 1085.8,1974.61 1111.5,1945.5C 1102.39,1967.65 1095.06,1990.15 1089.5,2013C 1113.57,2029.37 1139.57,2042.03 1167.5,2051C 1207.09,2062.89 1247.43,2070.72 1288.5,2074.5 Z"/></g>
<g><path style="opacity:1" fill="#e2ded6" d="M 1451.5,2082.5 C 1453.55,2096.08 1455.21,2109.75 1456.5,2123.5C 1416.48,2120.65 1376.48,2116.98 1336.5,2112.5C 1345.58,2100 1353.92,2087 1361.5,2073.5C 1361.81,2074.74 1362.31,2074.74 1363,2073.5C 1385.61,2036.28 1405.61,1997.61 1423,1957.5C 1422.85,1996.51 1422.02,2035.51 1420.5,2074.5C 1430.74,2077.45 1441.07,2080.12 1451.5,2082.5 Z"/></g>
<g><path style="opacity:0.999" fill="#e2dfd7" d="M 1759.5,1999.5 C 1775.59,2027.35 1790.93,2055.68 1805.5,2084.5C 1706.1,2111.95 1604.77,2125.29 1501.5,2124.5C 1499.04,2112.45 1496.37,2100.45 1493.5,2088.5C 1511.49,2089.53 1529.49,2089.7 1547.5,2089C 1624.5,2083 1699.5,2067.66 1772.5,2043C 1773.55,2041.61 1773.72,2040.11 1773,2038.5C 1768.37,2025.45 1763.87,2012.45 1759.5,1999.5 Z"/></g>
<g><path style="opacity:0.997" fill="#ebeaea" d="M 1141.5,1873.5 C 1147.06,1878.55 1153.06,1883.05 1159.5,1887C 1197.09,1905.19 1236.76,1915.86 1278.5,1919C 1306.85,1921.97 1335.19,1924.8 1363.5,1927.5C 1343.99,1979.53 1318.99,2028.53 1288.5,2074.5C 1247.43,2070.72 1207.09,2062.89 1167.5,2051C 1139.57,2042.03 1113.57,2029.37 1089.5,2013C 1095.06,1990.15 1102.39,1967.65 1111.5,1945.5C 1085.8,1974.61 1060.8,2004.94 1036.5,2036.5C 1068.34,2050.28 1101.01,2061.78 1134.5,2071C 1177.36,2082.35 1220.36,2092.52 1263.5,2101.5C 1240.56,2120.97 1214.22,2134.14 1184.5,2141C 1142.86,2149.48 1101.2,2149.65 1059.5,2141.5C 1060.39,2161.06 1061.39,2180.56 1062.5,2200C 1151.3,2214.55 1232.3,2195.88 1305.5,2144C 1316.73,2134.27 1327.07,2123.77 1336.5,2112.5C 1376.48,2116.98 1416.48,2120.65 1456.5,2123.5C 1457.83,2134.1 1458.5,2144.77 1458.5,2155.5C 1431.3,2151.57 1403.97,2150.07 1376.5,2151C 1356.09,2151.35 1336.75,2156.01 1318.5,2165C 1306.15,2173.18 1294.15,2181.84 1282.5,2191C 1224.58,2238.58 1169.41,2289.41 1117,2343.5C 1105.71,2355.43 1095.38,2368.1 1086,2381.5C 1080.99,2390.53 1077.99,2400.2 1077,2410.5C 1075.15,2429.16 1075.15,2447.83 1077,2466.5C 1079.52,2495.3 1083.02,2523.96 1087.5,2552.5C 1088.5,2552.5 1089.5,2552.5 1090.5,2552.5C 1094.4,2576.98 1099.06,2601.31 1104.5,2625.5C 1087.42,2631.3 1070.09,2636.3 1052.5,2640.5C 1011.07,2650.55 969.07,2657.05 926.5,2660C 916.172,2660.5 905.839,2660.67 895.5,2660.5C 877.977,2659.54 861.643,2654.7 846.5,2646C 837.136,2574.73 829.303,2503.23 823,2431.5C 815.07,2371.46 827.403,2316.13 860,2265.5C 896.458,2213.04 934.458,2161.71 974,2111.5C 1018.91,2054.59 1064.58,1998.25 1111,1942.5C 1120.61,1919.27 1130.78,1896.27 1141.5,1873.5 Z"/></g>
<g><path style="opacity:0.997" fill="#ebebeb" d="M 1805.5,2084.5 C 1849.23,2162.62 1888.73,2242.95 1924,2325.5C 1929.78,2339.12 1933.61,2353.28 1935.5,2368C 1934.96,2371.83 1934.46,2375.66 1934,2379.5C 1933.53,2444.02 1934.37,2508.52 1936.5,2573C 1936.41,2590.54 1933.91,2607.7 1929,2624.5C 1926.81,2630.19 1922.64,2633.35 1916.5,2634C 1907.19,2635.6 1897.86,2636.77 1888.5,2637.5C 1838.15,2637.78 1787.82,2637.12 1737.5,2635.5C 1713.19,2633.94 1689.03,2632.61 1665,2631.5C 1663.84,2631 1663.01,2630.17 1662.5,2629C 1673.75,2570.6 1681.91,2511.77 1687,2452.5C 1689.33,2428.78 1689,2405.11 1686,2381.5C 1685.13,2377.02 1683.8,2372.68 1682,2368.5C 1639.2,2313.69 1592.7,2261.85 1542.5,2213C 1531.99,2203.59 1521.32,2194.42 1510.5,2185.5C 1508.71,2164.99 1505.71,2144.65 1501.5,2124.5C 1604.77,2125.29 1706.1,2111.95 1805.5,2084.5 Z"/></g>
<g><path style="opacity:0.995" fill="#fec1a0" d="M 1737.5,2635.5 C 1787.82,2637.12 1838.15,2637.78 1888.5,2637.5C 1889.46,2647.87 1892.8,2657.37 1898.5,2666C 1946.57,2693.26 1995.24,2719.59 2044.5,2745C 2055,2751.08 2065.33,2757.42 2075.5,2764C 2086.11,2771.48 2086.11,2779.15 2075.5,2787C 2058.91,2796.46 2041.91,2805.13 2024.5,2813C 2017.97,2815.13 2011.3,2816.63 2004.5,2817.5C 1997.19,2816.42 1990.19,2814.59 1983.5,2812C 1987.16,2816 1989.49,2820.66 1990.5,2826C 1989.69,2828.09 1988.69,2830.09 1987.5,2832C 1975.96,2840.96 1962.79,2845.12 1948,2844.5C 1940.73,2844.59 1933.56,2843.76 1926.5,2842C 1872.35,2827.06 1819.01,2809.73 1766.5,2790C 1754.27,2785.55 1742.27,2780.55 1730.5,2775C 1726.85,2771.55 1724.35,2767.38 1723,2762.5C 1720.69,2747.38 1721.35,2732.38 1725,2717.5C 1728.87,2703.54 1732.54,2689.54 1736,2675.5C 1737.31,2662.2 1737.81,2648.87 1737.5,2635.5 Z"/></g>
<g><path style="opacity:0.995" fill="#fec1a0" d="M 1052.5,2640.5 C 1052.3,2653.57 1053.14,2666.57 1055,2679.5C 1061.56,2699.06 1066.22,2719.06 1069,2739.5C 1070.72,2750.73 1069.05,2761.4 1064,2771.5C 1061.74,2774.43 1058.9,2776.6 1055.5,2778C 990.594,2804.19 924.26,2826.19 856.5,2844C 841.393,2845.81 826.726,2844.15 812.5,2839C 798.843,2833.07 796.843,2824.4 806.5,2813C 791.845,2819.15 777.179,2818.82 762.5,2812C 746.217,2804.19 730.217,2795.86 714.5,2787C 708.594,2783.36 706.427,2778.19 708,2771.5C 711.15,2768.02 714.65,2764.85 718.5,2762C 725.5,2757.67 732.5,2753.33 739.5,2749C 786.372,2723.4 833.372,2698.06 880.5,2673C 886.617,2670.04 891.617,2665.87 895.5,2660.5C 905.839,2660.67 916.172,2660.5 926.5,2660C 969.07,2657.05 1011.07,2650.55 1052.5,2640.5 Z"/></g>
</svg>
