<?xml version="1.0" encoding="UTF-8"?>
<!DOCTYPE svg PUBLIC "-//W3C//DTD SVG 1.1//EN" "http://www.w3.org/Graphics/SVG/1.1/DTD/svg11.dtd">
<svg xmlns="http://www.w3.org/2000/svg" version="1.1" width="3000px" height="3000px" style="shape-rendering:geometricPrecision; text-rendering:geometricPrecision; image-rendering:optimizeQuality; fill-rule:evenodd; clip-rule:evenodd" xmlns:xlink="http://www.w3.org/1999/xlink">
<g><path style="opacity:0.999" fill="#ce6b54" d="M 1555.5,896.5 C 1548.93,859.817 1543.43,822.817 1539,785.5C 1531.07,777.985 1525.4,768.985 1522,758.5C 1514.33,737.818 1507.66,716.818 1502,695.5C 1489.28,654.847 1465.11,623.013 1429.5,600C 1418.72,593.42 1407.39,588.92 1395.5,586.5C 1405.69,618.112 1396.36,641.946 1367.5,658C 1349.66,663.545 1331.66,663.878 1313.5,659C 1303.97,656.601 1294.64,653.601 1285.5,650C 1270.36,643.343 1255.03,637.176 1239.5,631.5C 1238.83,631.833 1238.17,632.167 1237.5,632.5C 1242.93,639.767 1247.76,647.433 1252,655.5C 1255.96,669.297 1252.12,680.464 1240.5,689C 1229.37,696.382 1217.37,702.049 1204.5,706C 1145.42,724.529 1087.75,720.863 1031.5,695C 995.065,677.129 961.731,654.795 931.5,628C 916.115,620.629 900.782,620.962 885.5,629C 840.972,682.278 825.805,743.112 840,811.5C 847.989,847.455 856.989,883.121 867,918.5C 875.042,954.069 877.708,990.069 875,1026.5C 855.187,1004.01 831.02,988.177 802.5,979C 779.91,974.116 759.577,978.783 741.5,993C 736.631,998.037 731.631,1002.87 726.5,1007.5C 690.073,949.385 668.906,886.052 663,817.5C 662.368,747.494 675.534,680.16 702.5,615.5C 702.333,615.167 702.167,614.833 702,614.5C 682.602,629.791 661.769,642.958 639.5,654C 633.099,656.88 626.433,658.213 619.5,658C 614.004,656.186 611.671,652.353 612.5,646.5C 615.573,625.851 625.24,609.018 641.5,596C 662.923,581.019 686.589,571.185 712.5,566.5C 699.174,518.388 693.008,469.388 694,419.5C 694.381,401.575 699.047,384.909 708,369.5C 719.345,356.52 732.178,355.02 746.5,365C 759.264,377.014 768.097,391.514 773,408.5C 778.527,427.1 781.027,446.1 780.5,465.5C 780.403,476.89 779.903,488.223 779,499.5C 818.833,435.667 870.667,383.833 934.5,344C 1052.45,272.597 1180.12,243.264 1317.5,256C 1338.55,258.594 1358.55,264.594 1377.5,274C 1400.69,288.256 1408.53,308.422 1401,334.5C 1395.52,341.671 1388.35,346.504 1379.5,349C 1361.7,353.181 1343.7,354.514 1325.5,353C 1391.86,367.785 1455.52,390.118 1516.5,420C 1535.74,430.116 1553.41,442.45 1569.5,457C 1597.68,488.522 1616.51,525.022 1626,566.5C 1630.44,596.824 1618.27,616.658 1589.5,626C 1581.67,628.458 1573.67,629.958 1565.5,630.5C 1575.07,672.296 1578.57,714.63 1576,757.5C 1573.74,803.99 1567.74,849.99 1558,895.5C 1557.33,896.252 1556.5,896.586 1555.5,896.5 Z"/></g>
<g><path style="opacity:0.999" fill="#fec09f" d="M 1555.5,896.5 C 1556.5,905.167 1557.5,913.833 1558.5,922.5C 1599.65,909.713 1631.81,921.38 1655,957.5C 1668.65,984.348 1672.98,1012.68 1668,1042.5C 1663.6,1073.3 1651.6,1100.63 1632,1124.5C 1614.08,1143.87 1591.92,1154.87 1565.5,1157.5C 1560.25,1181 1550.42,1202.33 1536,1221.5C 1519.41,1245.25 1499.58,1265.92 1476.5,1283.5C 1444.76,1307.37 1410.1,1326.04 1372.5,1339.5C 1315.05,1358.91 1256.05,1368.91 1195.5,1369.5C 1139.03,1369.98 1084.03,1361.15 1030.5,1343C 1023.85,1340.06 1017.18,1337.23 1010.5,1334.5C 956.116,1312.29 912.282,1276.95 879,1228.5C 875.774,1222.15 872.94,1215.65 870.5,1209C 844.906,1214.95 819.239,1214.95 793.5,1209C 768.568,1199.94 749.068,1184.11 735,1161.5C 711.95,1125.63 703.616,1086.63 710,1044.5C 712.809,1030.89 718.309,1018.55 726.5,1007.5C 731.631,1002.87 736.631,998.037 741.5,993C 759.577,978.783 779.91,974.116 802.5,979C 831.02,988.177 855.187,1004.01 875,1026.5C 877.708,990.069 875.042,954.069 867,918.5C 856.989,883.121 847.989,847.455 840,811.5C 825.805,743.112 840.972,682.278 885.5,629C 900.782,620.962 916.115,620.629 931.5,628C 961.731,654.795 995.065,677.129 1031.5,695C 1087.75,720.863 1145.42,724.529 1204.5,706C 1217.37,702.049 1229.37,696.382 1240.5,689C 1252.12,680.464 1255.96,669.297 1252,655.5C 1247.76,647.433 1242.93,639.767 1237.5,632.5C 1238.17,632.167 1238.83,631.833 1239.5,631.5C 1255.03,637.176 1270.36,643.343 1285.5,650C 1294.64,653.601 1303.97,656.601 1313.5,659C 1331.66,663.878 1349.66,663.545 1367.5,658C 1396.36,641.946 1405.69,618.112 1395.5,586.5C 1407.39,588.92 1418.72,593.42 1429.5,600C 1465.11,623.013 1489.28,654.847 1502,695.5C 1507.66,716.818 1514.33,737.818 1522,758.5C 1525.4,768.985 1531.07,777.985 1539,785.5C 1543.43,822.817 1548.93,859.817 1555.5,896.5 Z"/></g>
<g><path style="opacity:1" fill="#642e29" d="M 1408.5,810.5 C 1413.55,810.45 1418.55,810.95 1423.5,812C 1428.28,816.453 1428.62,821.12 1424.5,826C 1412.52,831.319 1401.19,837.653 1390.5,845C 1380.81,855.36 1371.14,865.693 1361.5,876C 1356.53,878.435 1351.36,880.268 1346,881.5C 1335.45,880.782 1330.28,875.116 1330.5,864.5C 1332.06,853.226 1337.39,844.059 1346.5,837C 1364.86,822.607 1385.53,813.774 1408.5,810.5 Z"/></g>
<g><path style="opacity:1" fill="#642e29" d="M 1047.5,836.5 C 1072.57,834.59 1096.24,839.424 1118.5,851C 1126.62,855.451 1133.12,861.617 1138,869.5C 1143.81,892.347 1135.31,900.181 1112.5,893C 1101.68,884.092 1090.68,875.426 1079.5,867C 1066.81,861.215 1053.81,856.215 1040.5,852C 1037.91,850.475 1037.08,848.308 1038,845.5C 1039.45,840.551 1042.62,837.551 1047.5,836.5 Z"/></g>
<g><path style="opacity:1" fill="#65302a" d="M 1517.5,902.5 C 1489,876.115 1455.33,865.282 1416.5,870C 1397.12,874.191 1380.12,882.858 1365.5,896C 1355.15,905.167 1346.15,915.333 1338.5,926.5C 1337.12,927.574 1335.95,928.907 1335,930.5C 1349.06,890.11 1376.89,864.61 1418.5,854C 1446.78,848.589 1472.78,853.922 1496.5,870C 1508.8,878.604 1516.63,890.104 1520,904.5C 1519.29,903.619 1518.46,902.953 1517.5,902.5 Z"/></g>
<g><path style="opacity:1" fill="#fdfcfc" d="M 1517.5,902.5 C 1535.7,928.346 1540.53,956.679 1532,987.5C 1521.54,1024.95 1498.04,1050.12 1461.5,1063C 1425.2,1073.96 1391.86,1068.29 1361.5,1046C 1342.32,1028.47 1332.15,1006.63 1331,980.5C 1329.41,961.901 1331.91,943.901 1338.5,926.5C 1346.15,915.333 1355.15,905.167 1365.5,896C 1380.12,882.858 1397.12,874.191 1416.5,870C 1455.33,865.282 1489,876.115 1517.5,902.5 Z"/></g>
<g><path style="opacity:1" fill="#652f2a" d="M 1140.5,935.5 C 1123.24,917.863 1102.58,905.863 1078.5,899.5C 1063.5,895.5 1048.5,895.5 1033.5,899.5C 1009.07,905.706 988.408,918.039 971.5,936.5C 968.168,939 965.334,942 963,945.5C 965.392,930.405 972.226,917.572 983.5,907C 1010.46,884.72 1041.13,877.387 1075.5,885C 1108.53,894.193 1133.53,913.693 1150.5,943.5C 1150.33,943.833 1150.17,944.167 1150,944.5C 1146.96,941.296 1143.8,938.296 1140.5,935.5 Z"/></g>
<g><path style="opacity:1" fill="#632e29" d="M 1446.5,890.5 C 1486.33,890.17 1510.17,909.503 1518,948.5C 1517.94,988.106 1498.44,1011.61 1459.5,1019C 1428.74,1019.9 1406.91,1006.4 1394,978.5C 1383.47,944.084 1393.3,917.251 1423.5,898C 1430.75,893.81 1438.42,891.31 1446.5,890.5 Z"/></g>
<g><path style="opacity:1" fill="#efb89d" d="M 1078.5,899.5 C 1063.49,898.516 1048.49,898.516 1033.5,899.5C 1048.5,895.5 1063.5,895.5 1078.5,899.5 Z"/></g>
<g><path style="opacity:1" fill="#fdfcfc" d="M 1078.5,899.5 C 1102.58,905.863 1123.24,917.863 1140.5,935.5C 1157.01,959.521 1164.17,986.188 1162,1015.5C 1154.92,1056.25 1131.42,1082.08 1091.5,1093C 1042.15,1103.06 1002.65,1087.9 973,1047.5C 956.205,1019.55 951.872,989.885 960,958.5C 963.079,950.672 966.912,943.338 971.5,936.5C 988.408,918.039 1009.07,905.706 1033.5,899.5C 1048.49,898.516 1063.49,898.516 1078.5,899.5 Z"/></g>
<g><path style="opacity:1" fill="#fcfbfb" d="M 1458.5,926.5 C 1457.57,947.751 1446.57,956.418 1425.5,952.5C 1411.23,943.845 1407.73,931.845 1415,916.5C 1423.61,906.243 1434.11,903.743 1446.5,909C 1453.1,913.038 1457.1,918.872 1458.5,926.5 Z"/></g>
<g><path style="opacity:1" fill="#1d0804" d="M 1458.5,926.5 C 1468.81,928.411 1476.31,934.077 1481,943.5C 1483.82,953.421 1482.65,962.754 1477.5,971.5C 1469.32,970.684 1464.65,974.351 1463.5,982.5C 1442.33,986.083 1429.33,977.416 1424.5,956.5C 1424.51,954.955 1424.84,953.622 1425.5,952.5C 1446.57,956.418 1457.57,947.751 1458.5,926.5 Z"/></g>
<g><path style="opacity:1" fill="#632e29" d="M 1087.5,935.5 C 1125.63,934.126 1149.46,951.793 1159,988.5C 1162.44,1022.14 1148.94,1045.98 1118.5,1060C 1085.62,1069.49 1059.45,1060.32 1040,1032.5C 1022.06,992.245 1032.23,961.412 1070.5,940C 1076.21,938.142 1081.88,936.642 1087.5,935.5 Z"/></g>
<g><path style="opacity:1" fill="#fbfafa" d="M 1123.5,993.5 C 1108,999.665 1096.5,995.332 1089,980.5C 1088.05,977.568 1087.55,974.568 1087.5,971.5C 1089.7,954.478 1099.36,946.978 1116.5,949C 1127.92,952.424 1134.25,960.09 1135.5,972C 1134.97,981.231 1130.97,988.398 1123.5,993.5 Z"/></g>
<g><path style="opacity:1" fill="#f8f6f6" d="M 1477.5,971.5 C 1484.15,973.784 1486.98,978.451 1486,985.5C 1482.94,992.11 1477.78,994.61 1470.5,993C 1466.3,990.762 1463.96,987.262 1463.5,982.5C 1464.65,974.351 1469.32,970.684 1477.5,971.5 Z"/></g>
<g><path style="opacity:1" fill="#1e0804" d="M 1087.5,971.5 C 1087.55,974.568 1088.05,977.568 1089,980.5C 1096.5,995.332 1108,999.665 1123.5,993.5C 1124.71,1016.3 1113.71,1027.97 1090.5,1028.5C 1088.16,1020.54 1082.83,1017.54 1074.5,1019.5C 1063.05,1004.23 1064.05,989.732 1077.5,976C 1080.54,973.78 1083.87,972.28 1087.5,971.5 Z"/></g>
<g><path style="opacity:1" fill="#ff8e52" d="M 1566.5,986.5 C 1583.48,990.645 1593.98,1001.31 1598,1018.5C 1600.92,1040.5 1595.59,1060.16 1582,1077.5C 1579,1079.83 1576,1082.17 1573,1084.5C 1572.62,1051.7 1570.45,1019.03 1566.5,986.5 Z"/></g>
<g><path style="opacity:1" fill="#faf9f9" d="M 1074.5,1019.5 C 1082.83,1017.54 1088.16,1020.54 1090.5,1028.5C 1089.82,1039.68 1084.15,1043.51 1073.5,1040C 1066.53,1032.66 1066.86,1025.83 1074.5,1019.5 Z"/></g>
<g><path style="opacity:1" fill="#ff8e52" d="M 808.5,1043.5 C 822.576,1043.87 834.91,1048.7 845.5,1058C 851.699,1063.86 857.532,1070.03 863,1076.5C 866.219,1092.36 867.553,1108.36 867,1124.5C 866.667,1128.17 866.333,1131.83 866,1135.5C 851.182,1145.39 835.015,1148.22 817.5,1144C 805.983,1140.15 797.149,1132.98 791,1122.5C 780.564,1105.33 777.564,1087 782,1067.5C 786.98,1055.01 795.814,1047.01 808.5,1043.5 Z"/></g>
<g><path style="opacity:1" fill="#ff8e53" d="M 1277.5,1043.5 C 1281.18,1043.33 1284.85,1043.5 1288.5,1044C 1298.32,1055.93 1300.16,1069.09 1294,1083.5C 1292.59,1086.66 1290.92,1089.66 1289,1092.5C 1289.36,1087.19 1289.36,1081.86 1289,1076.5C 1285.94,1065.55 1278.77,1061.71 1267.5,1065C 1255.75,1068.79 1244.91,1074.29 1235,1081.5C 1238.45,1073.34 1243.62,1066.17 1250.5,1060C 1258.63,1052.94 1267.63,1047.44 1277.5,1043.5 Z"/></g>
<g><path style="opacity:1" fill="#f2957c" d="M 1486.5,1087.5 C 1499.05,1086.7 1511.38,1087.87 1523.5,1091C 1533.63,1094.8 1540.8,1101.63 1545,1111.5C 1547.17,1124.66 1542.67,1134.83 1531.5,1142C 1514.32,1152.27 1495.99,1154.94 1476.5,1150C 1463.48,1146.64 1454.65,1138.8 1450,1126.5C 1448.13,1115.01 1451.96,1105.85 1461.5,1099C 1469.39,1094.05 1477.73,1090.22 1486.5,1087.5 Z"/></g>
<g><path style="opacity:1" fill="#fdfdfd" d="M 1366.5,1174.5 C 1360.33,1181.96 1352.33,1186.13 1342.5,1187C 1328.97,1188.3 1315.64,1187.3 1302.5,1184C 1299.61,1174.61 1296.94,1165.11 1294.5,1155.5C 1290.84,1163.49 1287.17,1171.49 1283.5,1179.5C 1258.39,1181.35 1233.39,1180.52 1208.5,1177C 1196.33,1175.66 1186.16,1170.5 1178,1161.5C 1174.22,1155.6 1170.72,1149.6 1167.5,1143.5C 1170.61,1135.46 1175.95,1129.29 1183.5,1125C 1195.9,1118.92 1208.9,1114.58 1222.5,1112C 1237.56,1109.77 1252.73,1108.6 1268,1108.5C 1291.54,1108.93 1315.04,1110.09 1338.5,1112C 1340.62,1113.12 1342.46,1114.62 1344,1116.5C 1354.74,1134.54 1362.24,1153.88 1366.5,1174.5 Z"/></g>
<g><path style="opacity:1" fill="#f2957c" d="M 986.5,1124.5 C 1002.25,1123.35 1016.59,1127.18 1029.5,1136C 1044.04,1152.39 1042.37,1167.06 1024.5,1180C 1000.78,1193.83 977.11,1193.83 953.5,1180C 938.527,1165.33 938.861,1151 954.5,1137C 964.301,1130.35 974.967,1126.18 986.5,1124.5 Z"/></g>
<g><path style="opacity:1" fill="#632d28" d="M 1167.5,1143.5 C 1170.72,1149.6 1174.22,1155.6 1178,1161.5C 1186.16,1170.5 1196.33,1175.66 1208.5,1177C 1233.39,1180.52 1258.39,1181.35 1283.5,1179.5C 1287.17,1171.49 1290.84,1163.49 1294.5,1155.5C 1296.94,1165.11 1299.61,1174.61 1302.5,1184C 1315.64,1187.3 1328.97,1188.3 1342.5,1187C 1352.33,1186.13 1360.33,1181.96 1366.5,1174.5C 1367.12,1174.61 1367.62,1174.94 1368,1175.5C 1374.03,1200.16 1376.7,1225.16 1376,1250.5C 1375.22,1257.4 1373.55,1264.07 1371,1270.5C 1369.5,1272.67 1367.67,1274.5 1365.5,1276C 1358.59,1277.98 1351.59,1279.48 1344.5,1280.5C 1327.98,1249.54 1302.31,1230.71 1267.5,1224C 1221.26,1216.09 1175.59,1218.59 1130.5,1231.5C 1137.93,1199.98 1150.27,1170.65 1167.5,1143.5 Z"/></g>
<g><path style="opacity:1" fill="#dc695a" d="M 1344.5,1280.5 C 1344.03,1281.69 1343.03,1282.36 1341.5,1282.5C 1284.77,1290.52 1227.77,1293.69 1170.5,1292C 1157.34,1291.54 1144.67,1288.88 1132.5,1284C 1129.48,1281.14 1127.65,1277.64 1127,1273.5C 1124.72,1259.11 1125.89,1245.11 1130.5,1231.5C 1175.59,1218.59 1221.26,1216.09 1267.5,1224C 1302.31,1230.71 1327.98,1249.54 1344.5,1280.5 Z"/></g>
<g><path style="opacity:0.999" fill="#ebeaea" d="M 1476.5,1283.5 C 1493.73,1304.95 1509.73,1327.29 1524.5,1350.5C 1578.83,1435.48 1626.16,1524.48 1666.5,1617.5C 1676.52,1641.72 1684.02,1666.72 1689,1692.5C 1689.5,1696.49 1689.67,1700.49 1689.5,1704.5C 1688.36,1706.43 1686.69,1707.93 1684.5,1709C 1604.02,1753.07 1519.68,1788.07 1431.5,1814C 1364.08,1833.65 1295.74,1849.15 1226.5,1860.5C 1221.52,1858.35 1216.52,1856.18 1211.5,1854C 1205.04,1853.03 1199.37,1854.7 1194.5,1859C 1191.96,1861.7 1189.3,1864.2 1186.5,1866.5C 1180.52,1867.33 1174.52,1868 1168.5,1868.5C 1141.15,1899.85 1114.15,1931.51 1087.5,1963.5C 1081.45,1970.21 1075.79,1977.21 1070.5,1984.5C 1069.07,1984.42 1067.74,1984.75 1066.5,1985.5C 1064.3,1983.9 1061.97,1982.57 1059.5,1981.5C 1059.5,1980.83 1059.17,1980.5 1058.5,1980.5C 1058.17,1980.5 1057.83,1980.5 1057.5,1980.5C 1026.92,1955.21 996.256,1929.04 965.5,1902C 939.083,1877.93 915.249,1851.76 894,1823.5C 884.718,1809.94 876.718,1795.61 870,1780.5C 864.521,1764.82 862.021,1748.65 862.5,1732C 866.056,1653.72 875.89,1576.22 892,1499.5C 895.265,1478.84 899.932,1458.5 906,1438.5C 918.704,1402.47 941.537,1374.97 974.5,1356C 986.409,1348.57 998.409,1341.41 1010.5,1334.5C 1017.18,1337.23 1023.85,1340.06 1030.5,1343C 1084.03,1361.15 1139.03,1369.98 1195.5,1369.5C 1253.7,1409.12 1314.37,1444.95 1377.5,1477C 1379.5,1477.67 1381.5,1477.67 1383.5,1477C 1380.29,1431.17 1376.62,1385.34 1372.5,1339.5C 1410.1,1326.04 1444.76,1307.37 1476.5,1283.5 Z"/></g>
<g><path style="opacity:0.995" fill="#fec1a0" d="M 2224.5,1690.5 C 2207.67,1642.67 2191,1594.67 2174.5,1546.5C 2174.86,1545.82 2175.2,1545.15 2175.5,1544.5C 2182.72,1539.79 2189.22,1534.12 2195,1527.5C 2197.44,1524.62 2198.77,1521.29 2199,1517.5C 2200.07,1457.5 2201.41,1397.5 2203,1337.5C 2203.44,1329.76 2204.44,1322.09 2206,1314.5C 2208.48,1306.92 2213.65,1304.42 2221.5,1307C 2223.72,1308.28 2226.05,1309.28 2228.5,1310C 2243.17,1320.67 2257.83,1331.33 2272.5,1342C 2277.78,1347.95 2282.28,1354.45 2286,1361.5C 2287.32,1367.11 2288.32,1372.77 2289,1378.5C 2291.06,1373.11 2294.56,1368.95 2299.5,1366C 2301.17,1365.33 2302.83,1365.33 2304.5,1366C 2308.09,1367.53 2311.76,1368.86 2315.5,1370C 2325.32,1378.48 2332.82,1388.65 2338,1400.5C 2341.78,1411.96 2344.78,1423.63 2347,1435.5C 2358,1495.31 2366.5,1555.48 2372.5,1616C 2372.44,1623.46 2369.44,1629.46 2363.5,1634C 2350.08,1643.04 2335.41,1649.37 2319.5,1653C 2295.12,1656.13 2272.12,1663.46 2250.5,1675C 2241.64,1679.93 2232.97,1685.09 2224.5,1690.5 Z"/></g>
<g><path style="opacity:0.995" fill="#ffc09f" d="M 1948.5,1367.5 C 1946.77,1368.64 1945.77,1370.31 1945.5,1372.5C 1951.39,1389.07 1955.56,1406.07 1958,1423.5C 1959.1,1430.38 1958.43,1437.05 1956,1443.5C 1944.3,1452.14 1931.8,1453.64 1918.5,1448C 1917,1446.5 1915.5,1445 1914,1443.5C 1906,1423.83 1900.33,1403.5 1897,1382.5C 1895.17,1378.96 1892.84,1378.63 1890,1381.5C 1891.77,1400.48 1890.11,1419.14 1885,1437.5C 1881,1449.51 1872.84,1456.34 1860.5,1458C 1857.45,1459.36 1856.78,1461.53 1858.5,1464.5C 1868.17,1465.77 1876.34,1462.77 1883,1455.5C 1891,1444.52 1895.66,1432.18 1897,1418.5C 1900.07,1428.72 1903.74,1438.72 1908,1448.5C 1913.98,1455.24 1921.48,1458.9 1930.5,1459.5C 1932.08,1472.42 1933.91,1485.42 1936,1498.5C 1937.92,1508.5 1940.92,1518.17 1945,1527.5C 1951.29,1537.22 1960.12,1540.72 1971.5,1538C 1975.26,1537.26 1977.09,1535.09 1977,1531.5C 1976.04,1530.11 1974.71,1529.44 1973,1529.5C 1962.59,1533.12 1954.92,1530.12 1950,1520.5C 1948.51,1515.89 1947.35,1511.23 1946.5,1506.5C 1965.84,1506.61 1985.18,1506.78 2004.5,1507C 2005.98,1504.41 2005.65,1502.07 2003.5,1500C 1983.51,1498.94 1963.51,1498.44 1943.5,1498.5C 1942.49,1489.44 1941.16,1480.44 1939.5,1471.5C 1961.41,1467.25 1983.41,1463.42 2005.5,1460C 2009.04,1458.17 2009.37,1455.84 2006.5,1453C 1983.92,1455.9 1961.42,1459.4 1939,1463.5C 1938.51,1461.87 1938.34,1460.2 1938.5,1458.5C 1962.06,1455.74 1971.06,1442.74 1965.5,1419.5C 1977.5,1418.78 1989.5,1417.94 2001.5,1417C 2005.19,1410.5 2003.19,1408 1995.5,1409.5C 1984.86,1410.59 1974.19,1411.26 1963.5,1411.5C 1961.26,1397.45 1957.6,1383.79 1952.5,1370.5C 1960.55,1366.48 1968.88,1362.98 1977.5,1360C 1996.78,1353.23 2009.62,1359.39 2016,1378.5C 2019.12,1390.28 2019.28,1402.12 2016.5,1414C 2016.67,1414.83 2016.83,1415.67 2017,1416.5C 2030.72,1429.17 2033.22,1443.83 2024.5,1460.5C 2036.84,1480.34 2034.84,1498.51 2018.5,1515C 2022,1522.26 2021.5,1529.43 2017,1536.5C 2014.44,1539.53 2011.27,1541.7 2007.5,1543C 1970.43,1553.65 1932.77,1556.65 1894.5,1552C 1886.08,1549.87 1878.58,1546.04 1872,1540.5C 1869.43,1538.02 1867.93,1535.02 1867.5,1531.5C 1864.17,1532.17 1860.83,1532.83 1857.5,1533.5C 1845.59,1493.75 1834.26,1453.75 1823.5,1413.5C 1828.3,1413.13 1832.96,1412.13 1837.5,1410.5C 1832.49,1401.8 1829.49,1392.46 1828.5,1382.5C 1829.3,1376.06 1832.3,1370.9 1837.5,1367C 1862,1351.72 1888.33,1340.72 1916.5,1334C 1927.87,1330.43 1936.03,1333.93 1941,1344.5C 1944.41,1351.88 1946.91,1359.55 1948.5,1367.5 Z"/></g>
<g><path style="opacity:1" fill="#feb188" d="M 1372.5,1339.5 C 1376.62,1385.34 1380.29,1431.17 1383.5,1477C 1381.5,1477.67 1379.5,1477.67 1377.5,1477C 1314.37,1444.95 1253.7,1409.12 1195.5,1369.5C 1256.05,1368.91 1315.05,1358.91 1372.5,1339.5 Z"/></g>
<g><path style="opacity:0.996" fill="#e2dfd7" d="M 1524.5,1350.5 C 1561.52,1379.1 1599.02,1407.1 1637,1434.5C 1681.03,1423.95 1725.19,1413.95 1769.5,1404.5C 1784.85,1463.1 1800.52,1521.6 1816.5,1580C 1815.94,1580.38 1815.61,1580.88 1815.5,1581.5C 1766.95,1598.06 1717.28,1610.06 1666.5,1617.5C 1626.16,1524.48 1578.83,1435.48 1524.5,1350.5 Z"/></g>
<g><path style="opacity:0.999" fill="#ffa77a" d="M 1948.5,1367.5 C 1950.4,1367.74 1951.74,1368.74 1952.5,1370.5C 1957.6,1383.79 1961.26,1397.45 1963.5,1411.5C 1974.19,1411.26 1984.86,1410.59 1995.5,1409.5C 2003.19,1408 2005.19,1410.5 2001.5,1417C 1989.5,1417.94 1977.5,1418.78 1965.5,1419.5C 1971.06,1442.74 1962.06,1455.74 1938.5,1458.5C 1938.34,1460.2 1938.51,1461.87 1939,1463.5C 1961.42,1459.4 1983.92,1455.9 2006.5,1453C 2009.37,1455.84 2009.04,1458.17 2005.5,1460C 1983.41,1463.42 1961.41,1467.25 1939.5,1471.5C 1941.16,1480.44 1942.49,1489.44 1943.5,1498.5C 1963.51,1498.44 1983.51,1498.94 2003.5,1500C 2005.65,1502.07 2005.98,1504.41 2004.5,1507C 1985.18,1506.78 1965.84,1506.61 1946.5,1506.5C 1947.35,1511.23 1948.51,1515.89 1950,1520.5C 1954.92,1530.12 1962.59,1533.12 1973,1529.5C 1974.71,1529.44 1976.04,1530.11 1977,1531.5C 1977.09,1535.09 1975.26,1537.26 1971.5,1538C 1960.12,1540.72 1951.29,1537.22 1945,1527.5C 1940.92,1518.17 1937.92,1508.5 1936,1498.5C 1933.91,1485.42 1932.08,1472.42 1930.5,1459.5C 1921.48,1458.9 1913.98,1455.24 1908,1448.5C 1903.74,1438.72 1900.07,1428.72 1897,1418.5C 1895.66,1432.18 1891,1444.52 1883,1455.5C 1876.34,1462.77 1868.17,1465.77 1858.5,1464.5C 1856.78,1461.53 1857.45,1459.36 1860.5,1458C 1872.84,1456.34 1881,1449.51 1885,1437.5C 1890.11,1419.14 1891.77,1400.48 1890,1381.5C 1892.84,1378.63 1895.17,1378.96 1897,1382.5C 1900.33,1403.5 1906,1423.83 1914,1443.5C 1915.5,1445 1917,1446.5 1918.5,1448C 1931.8,1453.64 1944.3,1452.14 1956,1443.5C 1958.43,1437.05 1959.1,1430.38 1958,1423.5C 1955.56,1406.07 1951.39,1389.07 1945.5,1372.5C 1945.77,1370.31 1946.77,1368.64 1948.5,1367.5 Z"/></g>
<g><path style="opacity:0.997" fill="#ebeaea" d="M 1823.5,1413.5 C 1834.26,1453.75 1845.59,1493.75 1857.5,1533.5C 1860.64,1543.72 1863.31,1554.05 1865.5,1564.5C 1848.84,1570.16 1832.18,1575.83 1815.5,1581.5C 1815.61,1580.88 1815.94,1580.38 1816.5,1580C 1800.52,1521.6 1784.85,1463.1 1769.5,1404.5C 1784.49,1400.63 1799.65,1396.96 1815,1393.5C 1816.62,1393.72 1817.79,1394.56 1818.5,1396C 1819.94,1401.92 1821.6,1407.75 1823.5,1413.5 Z"/></g>
<g><path style="opacity:1" fill="#e2dfd7" d="M 1092.5,1400.5 C 1115.68,1424.86 1129.85,1453.86 1135,1487.5C 1139.18,1514.79 1139.51,1542.12 1136,1569.5C 1129.06,1621.92 1115.56,1672.59 1095.5,1721.5C 1108.14,1746.78 1121.31,1771.78 1135,1796.5C 1137.95,1801.71 1140.28,1807.04 1142,1812.5C 1111.15,1782.31 1080.31,1752.14 1049.5,1722C 1071.79,1661.47 1092.29,1600.3 1111,1538.5C 1121.35,1499.2 1119.35,1460.53 1105,1422.5C 1101.06,1414.95 1096.9,1407.62 1092.5,1400.5 Z"/></g>
<g><path style="opacity:0.996" fill="#ebebeb" d="M 2175.5,1544.5 C 2175.2,1545.15 2174.86,1545.82 2174.5,1546.5C 2191,1594.67 2207.67,1642.67 2224.5,1690.5C 2234.86,1721.76 2245.53,1752.92 2256.5,1784C 2256.17,1784.5 2255.83,1785 2255.5,1785.5C 2073.55,1855.7 1891.55,1925.7 1709.5,1995.5C 1760.81,1947.43 1806.47,1894.76 1846.5,1837.5C 1815.81,1810.48 1785.15,1783.48 1754.5,1756.5C 1888.66,1676.53 2023,1596.7 2157.5,1517C 2159.65,1515.59 2161.98,1514.76 2164.5,1514.5C 2167.11,1525.02 2170.78,1535.02 2175.5,1544.5 Z"/></g>
<g><path style="opacity:0.997" fill="#fea61a" d="M 1689.5,1704.5 C 1690.5,1704.5 1691.5,1704.5 1692.5,1704.5C 1698.67,1723.83 1705.67,1742.83 1713.5,1761.5C 1657.28,1811.64 1593.61,1850.14 1522.5,1877C 1473.53,1895.43 1423.53,1910.43 1372.5,1922C 1370.93,1924.3 1369.76,1926.8 1369,1929.5C 1362.46,1978.86 1345.63,2024.2 1318.5,2065.5C 1304,2084.67 1286.67,2100.67 1266.5,2113.5C 1257.59,2118.79 1248.26,2123.29 1238.5,2127C 1199.23,2140.6 1159.23,2150.77 1118.5,2157.5C 1092.54,2160 1066.54,2162.16 1040.5,2164C 1013.91,2166.99 987.907,2172.65 962.5,2181C 939.073,2191.44 918.073,2205.44 899.5,2223C 856.691,2266.3 821.024,2314.8 792.5,2368.5C 764.44,2336.06 736.606,2303.39 709,2270.5C 704.819,2264.99 700.652,2259.49 696.5,2254C 747.461,2197.54 806.795,2152.21 874.5,2118C 904.494,2105 935.827,2097.34 968.5,2095C 1011.81,2093.06 1055.14,2091.73 1098.5,2091C 1108.23,2090.69 1117.89,2089.86 1127.5,2088.5C 1135.23,2087.91 1142.9,2086.91 1150.5,2085.5C 1151.55,2085.35 1152.55,2085.52 1153.5,2086C 1159.02,2092.21 1165.85,2095.71 1174,2096.5C 1181.94,2096.39 1188.1,2093.06 1192.5,2086.5C 1214.63,2090.89 1230.3,2082.73 1239.5,2062C 1258.48,2059.85 1269.48,2049.35 1272.5,2030.5C 1292.08,2023.75 1305.08,2010.58 1311.5,1991C 1309.47,1979.96 1303.8,1971.3 1294.5,1965C 1287.1,1959.94 1279.43,1955.27 1271.5,1951C 1281.22,1943.27 1288.72,1933.77 1294,1922.5C 1295.03,1917.72 1294.03,1913.39 1291,1909.5C 1284.2,1902.34 1277.04,1895.51 1269.5,1889C 1255.79,1878.48 1241.45,1868.98 1226.5,1860.5C 1295.74,1849.15 1364.08,1833.65 1431.5,1814C 1519.68,1788.07 1604.02,1753.07 1684.5,1709C 1686.69,1707.93 1688.36,1706.43 1689.5,1704.5 Z"/></g>
<g><path style="opacity:0.998" fill="#e2dfd7" d="M 1754.5,1756.5 C 1785.15,1783.48 1815.81,1810.48 1846.5,1837.5C 1806.47,1894.76 1760.81,1947.43 1709.5,1995.5C 1663.86,2013.65 1618.19,2031.82 1572.5,2050C 1551.49,2059.5 1531.15,2070 1511.5,2081.5C 1430.08,2094.05 1348.41,2104.72 1266.5,2113.5C 1286.67,2100.67 1304,2084.67 1318.5,2065.5C 1369.91,2061.87 1420.91,2055.03 1471.5,2045C 1507.2,2037.58 1541.2,2025.58 1573.5,2009C 1574.73,2008.22 1575.73,2007.22 1576.5,2006C 1566.01,1969.21 1557.18,1932.04 1550,1894.5C 1565.52,1922.89 1583.52,1949.56 1604,1974.5C 1613.64,1985.89 1625.14,1994.72 1638.5,2001C 1646.02,2001.83 1652.68,1999.83 1658.5,1995C 1712.21,1949.62 1761.55,1899.95 1806.5,1846C 1782.65,1819.94 1756.98,1795.94 1729.5,1774C 1727.63,1773.05 1727.29,1771.88 1728.5,1770.5C 1736.56,1765.39 1744.72,1760.39 1753,1755.5C 1753.38,1756.06 1753.88,1756.39 1754.5,1756.5 Z"/></g>
<g><path style="opacity:1" fill="#ebeaea" d="M 1713.5,1761.5 C 1717.88,1763.7 1721.88,1766.53 1725.5,1770C 1726.45,1770.48 1727.45,1770.65 1728.5,1770.5C 1727.29,1771.88 1727.63,1773.05 1729.5,1774C 1756.98,1795.94 1782.65,1819.94 1806.5,1846C 1761.55,1899.95 1712.21,1949.62 1658.5,1995C 1652.68,1999.83 1646.02,2001.83 1638.5,2001C 1625.14,1994.72 1613.64,1985.89 1604,1974.5C 1583.52,1949.56 1565.52,1922.89 1550,1894.5C 1557.18,1932.04 1566.01,1969.21 1576.5,2006C 1575.73,2007.22 1574.73,2008.22 1573.5,2009C 1541.2,2025.58 1507.2,2037.58 1471.5,2045C 1420.91,2055.03 1369.91,2061.87 1318.5,2065.5C 1345.63,2024.2 1362.46,1978.86 1369,1929.5C 1369.76,1926.8 1370.93,1924.3 1372.5,1922C 1423.53,1910.43 1473.53,1895.43 1522.5,1877C 1593.61,1850.14 1657.28,1811.64 1713.5,1761.5 Z"/></g>
<g><path style="opacity:1" fill="#fec09f" d="M 1226.5,1860.5 C 1241.45,1868.98 1255.79,1878.48 1269.5,1889C 1277.04,1895.51 1284.2,1902.34 1291,1909.5C 1294.03,1913.39 1295.03,1917.72 1294,1922.5C 1288.72,1933.77 1281.22,1943.27 1271.5,1951C 1279.43,1955.27 1287.1,1959.94 1294.5,1965C 1303.8,1971.3 1309.47,1979.96 1311.5,1991C 1305.08,2010.58 1292.08,2023.75 1272.5,2030.5C 1269.48,2049.35 1258.48,2059.85 1239.5,2062C 1230.3,2082.73 1214.63,2090.89 1192.5,2086.5C 1188.1,2093.06 1181.94,2096.39 1174,2096.5C 1165.85,2095.71 1159.02,2092.21 1153.5,2086C 1152.55,2085.52 1151.55,2085.35 1150.5,2085.5C 1150.61,2084.88 1150.94,2084.38 1151.5,2084C 1143.76,2076.93 1136.76,2069.27 1130.5,2061C 1128.53,2060.5 1126.53,2060.34 1124.5,2060.5C 1125.61,2059.71 1126.94,2059.21 1128.5,2059C 1114.89,2042.96 1103.39,2025.46 1094,2006.5C 1092.17,2000.79 1090.67,1995.12 1089.5,1989.5C 1088.65,1982.32 1089.98,1975.65 1093.5,1969.5C 1091.81,1967.15 1089.81,1965.15 1087.5,1963.5C 1114.15,1931.51 1141.15,1899.85 1168.5,1868.5C 1171.06,1872.57 1174.23,1876.24 1178,1879.5C 1181.08,1875.27 1183.92,1870.93 1186.5,1866.5C 1189.3,1864.2 1191.96,1861.7 1194.5,1859C 1199.37,1854.7 1205.04,1853.03 1211.5,1854C 1216.52,1856.18 1221.52,1858.35 1226.5,1860.5 Z"/></g>
<g><path style="opacity:1" fill="#fea825" d="M 1186.5,1866.5 C 1183.92,1870.93 1181.08,1875.27 1178,1879.5C 1174.23,1876.24 1171.06,1872.57 1168.5,1868.5C 1174.52,1868 1180.52,1867.33 1186.5,1866.5 Z"/></g>
<g><path style="opacity:0.994" fill="#ffa61a" d="M 1057.5,1980.5 C 1057.83,1980.5 1058.17,1980.5 1058.5,1980.5C 1059.17,1980.5 1059.5,1980.83 1059.5,1981.5C 1061.97,1982.57 1064.3,1983.9 1066.5,1985.5C 1067.74,1984.75 1069.07,1984.42 1070.5,1984.5C 1076.77,1986.32 1083.1,1987.98 1089.5,1989.5C 1090.67,1995.12 1092.17,2000.79 1094,2006.5C 1103.39,2025.46 1114.89,2042.96 1128.5,2059C 1126.94,2059.21 1125.61,2059.71 1124.5,2060.5C 1104.38,2058.65 1084.38,2055.82 1064.5,2052C 1037.75,2045.65 1011.09,2038.98 984.5,2032C 962.19,2027.63 939.69,2024.8 917,2023.5C 892.164,2024.67 868.331,2030.17 845.5,2040C 813.635,2054.26 783.635,2071.59 755.5,2092C 732.457,2109.37 710.29,2127.87 689,2147.5C 670.309,2101.1 651.809,2054.6 633.5,2008C 691.953,1975.96 753.953,1953.63 819.5,1941C 861.523,1933.74 903.19,1935.41 944.5,1946C 982.456,1956.6 1020.12,1968.1 1057.5,1980.5 Z"/></g>
<g><path style="opacity:0.979" fill="#e4e1d9" d="M 1124.5,2060.5 C 1126.53,2060.34 1128.53,2060.5 1130.5,2061C 1136.76,2069.27 1143.76,2076.93 1151.5,2084C 1150.94,2084.38 1150.61,2084.88 1150.5,2085.5C 1142.9,2086.91 1135.23,2087.91 1127.5,2088.5C 1128.07,2082.49 1128.74,2076.49 1129.5,2070.5C 1127.5,2070.5 1125.5,2070.5 1123.5,2070.5C 1123.62,2067.14 1123.95,2063.81 1124.5,2060.5 Z"/></g>
<g><path style="opacity:0.997" fill="#ebebea" d="M 1511.5,2081.5 C 1442.25,2126.01 1400.59,2189.18 1386.5,2271C 1388.28,2282.36 1393.12,2292.19 1401,2300.5C 1416.97,2316.06 1434.47,2329.56 1453.5,2341C 1470.67,2350.75 1488.01,2360.25 1505.5,2369.5C 1500.44,2378.2 1495.44,2386.87 1490.5,2395.5C 1488.93,2395.94 1487.76,2396.94 1487,2398.5C 1461.79,2439.86 1435.63,2480.52 1408.5,2520.5C 1395.48,2539.36 1381.48,2557.53 1366.5,2575C 1363.11,2578.05 1359.45,2580.72 1355.5,2583C 1351.74,2583.15 1348.07,2582.48 1344.5,2581C 1331.16,2574 1318.49,2566 1306.5,2557C 1250.71,2513.31 1198.87,2465.14 1151,2412.5C 1142.1,2402.35 1133.43,2392.02 1125,2381.5C 1115.23,2369.39 1107.56,2356.06 1102,2341.5C 1101.55,2319.11 1102.55,2296.78 1105,2274.5C 1108.76,2235.4 1113.26,2196.4 1118.5,2157.5C 1159.23,2150.77 1199.23,2140.6 1238.5,2127C 1248.26,2123.29 1257.59,2118.79 1266.5,2113.5C 1348.41,2104.72 1430.08,2094.05 1511.5,2081.5 Z"/></g>
<g><path style="opacity:0.995" fill="#fec1a0" d="M 1490.5,2395.5 C 1515.56,2417.37 1544.56,2431.87 1577.5,2439C 1592.66,2444.16 1606.16,2451.99 1618,2462.5C 1622.53,2468.09 1624.2,2474.42 1623,2481.5C 1609.64,2547.26 1593.31,2612.26 1574,2676.5C 1568.72,2692.43 1559.56,2705.6 1546.5,2716C 1541.55,2718.43 1536.38,2720.26 1531,2721.5C 1523.88,2719.04 1519.55,2714.04 1518,2706.5C 1517.29,2713.1 1515.62,2719.43 1513,2725.5C 1508.53,2730.97 1503.7,2736.13 1498.5,2741C 1483.5,2750 1468.5,2759 1453.5,2768C 1449.14,2769.9 1444.64,2771.4 1440,2772.5C 1433.95,2772.32 1430.28,2769.32 1429,2763.5C 1428.33,2749.17 1428.33,2734.83 1429,2720.5C 1432.39,2672.81 1436.06,2625.15 1440,2577.5C 1440.67,2569.5 1440.67,2561.5 1440,2553.5C 1431.71,2540.38 1421.21,2529.38 1408.5,2520.5C 1435.63,2480.52 1461.79,2439.86 1487,2398.5C 1487.76,2396.94 1488.93,2395.94 1490.5,2395.5 Z"/></g>
</svg>
