<?xml version="1.0" encoding="UTF-8"?>
<!DOCTYPE svg PUBLIC "-//W3C//DTD SVG 1.1//EN" "http://www.w3.org/Graphics/SVG/1.1/DTD/svg11.dtd">
<svg xmlns="http://www.w3.org/2000/svg" version="1.1" width="3000px" height="3000px" style="shape-rendering:geometricPrecision; text-rendering:geometricPrecision; image-rendering:optimizeQuality; fill-rule:evenodd; clip-rule:evenodd" xmlns:xlink="http://www.w3.org/1999/xlink">
<g><path style="opacity:0.999" fill="#9ebcd3" d="M 1473.5,285.5 C 1586.79,279.961 1680.96,319.294 1756,403.5C 1825.15,489.449 1848.82,586.782 1827,695.5C 1800.46,802.363 1737.62,879.529 1638.5,927C 1627.48,932.063 1616.14,936.229 1604.5,939.5C 1604.5,968.167 1604.5,996.833 1604.5,1025.5C 1785.83,1025.33 1967.17,1025.5 2148.5,1026C 2246.64,1033.53 2317.14,1081.36 2360,1169.5C 2367.19,1186.25 2372.52,1203.59 2376,1221.5C 2448.67,1657.5 2521.33,2093.5 2594,2529.5C 2601.07,2592 2580.24,2642.83 2531.5,2682C 2508.04,2699.38 2481.7,2709.72 2452.5,2713C 2134.67,2713.17 1816.83,2713.33 1499,2713.5C 1181.17,2713.33 863.333,2713.17 545.5,2713C 488.807,2704.92 446.974,2675.76 420,2625.5C 404.846,2594.43 399.846,2561.76 405,2527.5C 477.667,2091.5 550.333,1655.5 623,1219.5C 642.493,1134.68 692.326,1075.52 772.5,1042C 796.959,1032.57 822.292,1027.24 848.5,1026C 1030.5,1025.5 1212.5,1025.33 1394.5,1025.5C 1394.67,997.165 1394.5,968.831 1394,940.5C 1307.09,909.919 1242.09,853.919 1199,772.5C 1159.15,689.348 1152.82,603.682 1180,515.5C 1214.16,419.34 1277.99,350.84 1371.5,310C 1404.42,296.77 1438.42,288.603 1473.5,285.5 Z M 1487.5,471.5 C 1539.53,469.55 1582.37,488.217 1616,527.5C 1653.23,579.123 1658.23,633.789 1631,691.5C 1596.98,748.095 1546.82,773.928 1480.5,769C 1420.81,758.968 1379.97,725.801 1358,669.5C 1339.51,606.314 1354.34,552.147 1402.5,507C 1427.17,486.495 1455.51,474.662 1487.5,471.5 Z"/></g>
<g><path style="opacity:1" fill="#81a4c1" d="M 854.5,1186.5 C 1284.5,1186.33 1714.5,1186.5 2144.5,1187C 2177.36,1191.17 2200.53,1208.34 2214,1238.5C 2215.64,1243.08 2216.98,1247.74 2218,1252.5C 2285.72,1660.21 2353.72,2067.88 2422,2475.5C 2426.1,2504.8 2415.93,2527.63 2391.5,2544C 2382.17,2549.22 2372.17,2552.22 2361.5,2553C 1786.83,2553.67 1212.17,2553.67 637.5,2553C 596.167,2547.01 575.667,2523.17 576,2481.5C 644.227,2071.14 712.56,1660.81 781,1250.5C 791.47,1212.85 815.97,1191.52 854.5,1186.5 Z"/></g>
<g><path style="opacity:1" fill="#fefefe" d="M 1026.5,1465.5 C 1062.17,1465.33 1097.83,1465.5 1133.5,1466C 1140.05,1466.88 1144.55,1470.38 1147,1476.5C 1148.33,1583.44 1148.99,1690.44 1149,1797.5C 1201.68,1690.14 1254.35,1582.8 1307,1475.5C 1310.41,1470.75 1314.91,1467.58 1320.5,1466C 1359.83,1465.33 1399.17,1465.33 1438.5,1466C 1450.75,1469.85 1453.92,1477.69 1448,1489.5C 1390.29,1606.93 1333.12,1724.59 1276.5,1842.5C 1337.45,1980.4 1398.95,2118.06 1461,2255.5C 1463.2,2265.96 1459.04,2272.13 1448.5,2274C 1408.83,2274.67 1369.17,2274.67 1329.5,2274C 1324.62,2272.65 1320.45,2270.15 1317,2266.5C 1273.06,2164.28 1229.39,2061.95 1186,1959.5C 1173.67,1982.83 1161.33,2006.17 1149,2029.5C 1148.67,2106.17 1148.33,2182.83 1148,2259.5C 1146.54,2267.63 1141.7,2272.46 1133.5,2274C 1097.5,2274.67 1061.5,2274.67 1025.5,2274C 1017.15,2271.65 1012.32,2266.15 1011,2257.5C 1010.33,1998.5 1010.33,1739.5 1011,1480.5C 1012.84,1471.83 1018,1466.83 1026.5,1465.5 Z"/></g>
<g><path style="opacity:1" fill="#fefefe" d="M 1853.5,2105.5 C 1854.5,2058.67 1854.83,2011.67 1854.5,1964.5C 1835.5,1964.5 1816.5,1964.5 1797.5,1964.5C 1790.93,1963.77 1787.1,1960.1 1786,1953.5C 1785.33,1916.17 1785.33,1878.83 1786,1841.5C 1787.17,1836.33 1790.33,1833.17 1795.5,1832C 1855.5,1831.33 1915.5,1831.33 1975.5,1832C 1981.13,1832.96 1984.96,1836.12 1987,1841.5C 1987.67,1942.17 1987.67,2042.83 1987,2143.5C 1981.56,2224.94 1938.06,2268.44 1856.5,2274C 1800.5,2274.67 1744.5,2274.67 1688.5,2274C 1611.84,2267 1570.34,2225.17 1564,2148.5C 1563.33,1960.17 1563.33,1771.83 1564,1583.5C 1574.07,1511.19 1615.57,1472.02 1688.5,1466C 1745.83,1465.33 1803.17,1465.33 1860.5,1466C 1940.86,1473.69 1983.03,1517.86 1987,1598.5C 1987.67,1639.17 1987.67,1679.83 1987,1720.5C 1985.87,1726.96 1982.04,1730.8 1975.5,1732C 1938.83,1732.67 1902.17,1732.67 1865.5,1732C 1860.22,1730.78 1856.72,1727.61 1855,1722.5C 1854.96,1690.46 1854.3,1658.46 1853,1626.5C 1849.15,1610.98 1839.31,1602.15 1823.5,1600C 1791.83,1599.33 1760.17,1599.33 1728.5,1600C 1714.55,1602.62 1705.72,1610.78 1702,1624.5C 1700.84,1705.63 1700.34,1786.8 1700.5,1868C 1700.34,1950.19 1700.84,2032.36 1702,2114.5C 1705.51,2128.51 1714.34,2137.01 1728.5,2140C 1760.17,2140.67 1791.83,2140.67 1823.5,2140C 1842.95,2136.72 1852.95,2125.22 1853.5,2105.5 Z"/></g>
<g><path style="opacity:1" fill="#a8c0d4" d="M 1797.5,1964.5 C 1816.5,1964.5 1835.5,1964.5 1854.5,1964.5C 1854.83,2011.67 1854.5,2058.67 1853.5,2105.5C 1853.5,2058.83 1853.5,2012.17 1853.5,1965.5C 1834.66,1965.83 1815.99,1965.5 1797.5,1964.5 Z"/></g>
</svg>
