<?xml version="1.0" encoding="UTF-8"?>
<!DOCTYPE svg PUBLIC "-//W3C//DTD SVG 1.1//EN" "http://www.w3.org/Graphics/SVG/1.1/DTD/svg11.dtd">
<svg xmlns="http://www.w3.org/2000/svg" version="1.1" width="3000px" height="3000px" style="shape-rendering:geometricPrecision; text-rendering:geometricPrecision; image-rendering:optimizeQuality; fill-rule:evenodd; clip-rule:evenodd" xmlns:xlink="http://www.w3.org/1999/xlink">
<g><path style="opacity:0.999" fill="#d28638" d="M 1935.5,473.5 C 2045.29,515.782 2124.12,590.782 2172,698.5C 2197.58,760.308 2212.58,824.641 2217,891.5C 2221.79,985.361 2213.46,1078.03 2192,1169.5C 2158.11,1308.52 2105.77,1440.19 2035,1564.5C 1910.39,1782.5 1748.89,1969.33 1550.5,2125C 1447.66,2204.46 1335.66,2269.12 1214.5,2319C 1142.4,2347.96 1067.73,2367.29 990.5,2377C 906.748,2388.3 824.748,2380.97 744.5,2355C 690.382,2335.3 642.049,2306.46 599.5,2268.5C 540.878,2210.64 500.712,2141.64 479,2061.5C 459.586,1987.02 452.252,1911.35 457,1834.5C 462.157,1751.22 476.491,1669.56 500,1589.5C 536.673,1466.11 587.673,1349.11 653,1238.5C 770.942,1038.83 920.442,865.667 1101.5,719C 1176.87,659.122 1257.21,606.455 1342.5,561C 1414.39,523.48 1489.39,493.813 1567.5,472C 1644.12,450.745 1722.12,442.079 1801.5,446C 1847.51,448.835 1892.18,458.002 1935.5,473.5 Z"/></g>
<g><path style="opacity:0.999" fill="#ae7324" d="M 1935.5,473.5 C 1981.07,487.623 2023.41,508.123 2062.5,535C 2126.37,582.173 2186.7,633.84 2243.5,690C 2348.32,793.773 2437.49,909.273 2511,1036.5C 2575.83,1150.31 2620.5,1271.64 2645,1400.5C 2680.54,1603.5 2655.88,1798.83 2571,1986.5C 2535.5,2063.2 2493.17,2135.54 2444,2203.5C 2381.84,2289.36 2310.67,2367.52 2230.5,2438C 1979.45,2651.62 1690.78,2728.96 1364.5,2670C 1245.59,2646.92 1131.59,2609.25 1022.5,2557C 884.745,2490.45 757.745,2408.12 641.5,2310C 626.994,2296.66 612.994,2282.83 599.5,2268.5C 642.049,2306.46 690.382,2335.3 744.5,2355C 824.748,2380.97 906.748,2388.3 990.5,2377C 1067.73,2367.29 1142.4,2347.96 1214.5,2319C 1335.66,2269.12 1447.66,2204.46 1550.5,2125C 1748.89,1969.33 1910.39,1782.5 2035,1564.5C 2105.77,1440.19 2158.11,1308.52 2192,1169.5C 2213.46,1078.03 2221.79,985.361 2217,891.5C 2212.58,824.641 2197.58,760.308 2172,698.5C 2124.12,590.782 2045.29,515.782 1935.5,473.5 Z"/></g>
<g><path style="opacity:1" fill="#aad730" d="M 1709.5,488.5 C 1777.94,483.778 1844.61,492.278 1909.5,514C 2006.5,551.002 2076.34,616.835 2119,711.5C 2150.03,786.324 2164.87,864.324 2163.5,945.5C 2161.46,1036.71 2147.63,1126.04 2122,1213.5C 2089.6,1321.3 2045.93,1424.3 1991,1522.5C 1870.63,1737.27 1713.46,1921.44 1519.5,2075C 1436.71,2139.6 1347.71,2194.93 1252.5,2241C 1183.27,2273.52 1111.27,2297.85 1036.5,2314C 961.705,2328.94 886.705,2330.27 811.5,2318C 664.341,2285.51 568.174,2197.34 523,2053.5C 501.854,1980.33 493.521,1905.66 498,1829.5C 505.516,1724.07 527.516,1621.74 564,1522.5C 614.101,1387.28 680.101,1260.94 762,1143.5C 884.207,966.292 1033.04,815.125 1208.5,690C 1292.63,630.419 1382.96,581.419 1479.5,543C 1553.77,514.097 1630.44,495.93 1709.5,488.5 Z"/></g>
<g><path style="opacity:1" fill="#010200" d="M 1564.5,814.5 C 1572.77,813.381 1578.27,816.714 1581,824.5C 1581.87,833.809 1580.54,842.809 1577,851.5C 1563.39,875.125 1546.72,896.459 1527,915.5C 1522.54,895.455 1522.54,875.455 1527,855.5C 1534.54,837.13 1547.04,823.464 1564.5,814.5 Z"/></g>
<g><path style="opacity:1" fill="#020200" d="M 1736.5,848.5 C 1749.44,847.034 1754.61,852.701 1752,865.5C 1748.54,877.954 1742.87,889.287 1735,899.5C 1716.69,916.565 1696.86,931.565 1675.5,944.5C 1674.47,942.56 1674.47,940.56 1675.5,938.5C 1680.89,917.822 1688.72,898.155 1699,879.5C 1708.43,865.214 1720.93,854.881 1736.5,848.5 Z"/></g>
<g><path style="opacity:1" fill="#020200" d="M 1618.5,863.5 C 1627.41,861.728 1633.25,865.061 1636,873.5C 1636.09,888.558 1631.76,902.225 1623,914.5C 1606.57,934.427 1588.07,952.094 1567.5,967.5C 1567.35,946.714 1570.52,926.38 1577,906.5C 1585.32,886.682 1599.15,872.348 1618.5,863.5 Z"/></g>
<g><path style="opacity:1" fill="#010200" d="M 1447.5,874.5 C 1457.38,873.541 1463.54,877.875 1466,887.5C 1467.42,902.267 1464.08,915.933 1456,928.5C 1445.78,945.379 1434.78,961.713 1423,977.5C 1412.37,959.959 1407.71,940.959 1409,920.5C 1415.26,899.427 1428.09,884.094 1447.5,874.5 Z"/></g>
<g><path style="opacity:1" fill="#010200" d="M 1351.5,876.5 C 1366.21,875.37 1373.87,882.203 1374.5,897C 1373.64,906.926 1371.14,916.426 1367,925.5C 1360.36,940.112 1353.19,954.445 1345.5,968.5C 1336.32,960.491 1328.82,951.158 1323,940.5C 1319.3,932.403 1318.63,924.07 1321,915.5C 1325.5,897.857 1335.67,884.857 1351.5,876.5 Z"/></g>
<g><path style="opacity:1" fill="#010200" d="M 1739.5,936.5 C 1756.65,934.484 1762.81,941.818 1758,958.5C 1749.99,979.032 1736.49,994.866 1717.5,1006C 1702.48,1014.76 1686.98,1022.59 1671,1029.5C 1679.97,1003.56 1692.64,979.559 1709,957.5C 1717.96,948.614 1728.13,941.614 1739.5,936.5 Z"/></g>
<g><path style="opacity:1" fill="#020200" d="M 1256.5,968.5 C 1271.45,967.943 1279.78,975.11 1281.5,990C 1278.1,1013.02 1271.77,1035.19 1262.5,1056.5C 1252.18,1052.01 1242.52,1046.51 1233.5,1040C 1223.79,1031.7 1220.29,1021.2 1223,1008.5C 1227.87,989.677 1239.04,976.344 1256.5,968.5 Z"/></g>
<g><path style="opacity:1" fill="#010200" d="M 1836.5,971.5 C 1842.07,970.99 1847.41,971.823 1852.5,974C 1854.85,976.133 1855.85,978.8 1855.5,982C 1854.88,988.526 1853.05,994.692 1850,1000.5C 1839.57,1016.92 1825.4,1029.09 1807.5,1037C 1792.86,1043 1777.86,1047.33 1762.5,1050C 1774.56,1030.71 1787.73,1012.21 1802,994.5C 1811.66,983.932 1823.16,976.266 1836.5,971.5 Z"/></g>
<g><path style="opacity:1" fill="#fefeb2" d="M 1608.5,1482.5 C 1608.5,1482.83 1608.5,1483.17 1608.5,1483.5C 1608.08,1485.75 1606.75,1487.25 1604.5,1488C 1601.83,1488.17 1599.17,1488.33 1596.5,1488.5C 1579.46,1486.41 1562.46,1483.91 1545.5,1481C 1540.17,1480.33 1534.83,1480.33 1529.5,1481C 1526.93,1484.82 1527.1,1488.65 1530,1492.5C 1536.76,1502.34 1543.76,1512.01 1551,1521.5C 1552.78,1524.72 1554.28,1528.05 1555.5,1531.5C 1555.03,1534.3 1553.36,1535.64 1550.5,1535.5C 1541.88,1533.18 1533.22,1531.18 1524.5,1529.5C 1515.28,1531.08 1511.61,1536.58 1513.5,1546C 1515,1558.17 1516.34,1570.34 1517.5,1582.5C 1513.7,1581.22 1510.53,1578.89 1508,1575.5C 1502.56,1567.16 1496.06,1559.66 1488.5,1553C 1486.63,1552.29 1485.13,1552.79 1484,1554.5C 1483.38,1559.22 1483.71,1563.89 1485,1568.5C 1489.63,1583 1493.63,1597.67 1497,1612.5C 1497.67,1615.17 1497.67,1617.83 1497,1620.5C 1496.2,1621.8 1495.03,1622.47 1493.5,1622.5C 1489.72,1621.44 1486.39,1619.61 1483.5,1617C 1472.8,1606.63 1461.8,1596.63 1450.5,1587C 1447.45,1583.87 1443.95,1583.04 1440,1584.5C 1439.33,1590.5 1439.33,1596.5 1440,1602.5C 1443.7,1621.1 1447.04,1639.77 1450,1658.5C 1450.67,1664.5 1450.67,1670.5 1450,1676.5C 1448.59,1680.53 1446.09,1681.36 1442.5,1679C 1432.15,1665.64 1422.98,1651.47 1415,1636.5C 1411.77,1631.21 1407.94,1626.38 1403.5,1622C 1402.5,1621.33 1401.5,1621.33 1400.5,1622C 1394.12,1625.57 1387.45,1628.57 1380.5,1631C 1376.92,1634.74 1375.08,1639.24 1375,1644.5C 1374.08,1664.53 1372.75,1684.53 1371,1704.5C 1370.09,1711.03 1368.43,1717.37 1366,1723.5C 1364.29,1726.58 1361.79,1727.75 1358.5,1727C 1356.04,1724.59 1354.21,1721.76 1353,1718.5C 1348.69,1700.63 1345.02,1682.63 1342,1664.5C 1341.2,1661.11 1340.2,1657.77 1339,1654.5C 1336.46,1653.12 1334.46,1653.79 1333,1656.5C 1330.67,1661.17 1328.33,1665.83 1326,1670.5C 1317.49,1692.52 1308.16,1714.18 1298,1735.5C 1296.07,1738.39 1293.57,1739.05 1290.5,1737.5C 1288.14,1730.37 1286.98,1723.04 1287,1715.5C 1286.67,1697.17 1286.33,1678.83 1286,1660.5C 1285.74,1656.62 1284.74,1652.96 1283,1649.5C 1281.87,1647.79 1280.37,1647.29 1278.5,1648C 1275.62,1652.26 1273.12,1656.76 1271,1661.5C 1259.2,1693.91 1247.2,1726.24 1235,1758.5C 1233.24,1763.04 1230.74,1767.04 1227.5,1770.5C 1226.81,1769.97 1226.31,1769.31 1226,1768.5C 1226.23,1750.12 1227.39,1731.79 1229.5,1713.5C 1229.33,1710.83 1229.17,1708.17 1229,1705.5C 1228.61,1704.57 1227.95,1703.91 1227,1703.5C 1223.35,1705.82 1220.35,1708.82 1218,1712.5C 1207.12,1729.77 1195.62,1746.6 1183.5,1763C 1182.24,1764.11 1181.07,1764.28 1180,1763.5C 1179.33,1761.17 1179.33,1758.83 1180,1756.5C 1187.51,1730.13 1195.18,1703.79 1203,1677.5C 1203.5,1674.85 1203.66,1672.19 1203.5,1669.5C 1202.45,1669.35 1201.45,1669.52 1200.5,1670C 1197.67,1673.5 1194.83,1677 1192,1680.5C 1172.16,1712.17 1151.83,1743.51 1131,1774.5C 1129.99,1775.34 1128.82,1775.67 1127.5,1775.5C 1128.28,1769.67 1129.78,1764 1132,1758.5C 1142.62,1734.6 1152.12,1710.26 1160.5,1685.5C 1160.17,1684.83 1159.83,1684.17 1159.5,1683.5C 1153.11,1688.72 1147.61,1694.72 1143,1701.5C 1130.27,1720.23 1116.77,1738.4 1102.5,1756C 1101.55,1756.48 1100.55,1756.65 1099.5,1756.5C 1100.28,1751.32 1101.78,1746.32 1104,1741.5C 1111.73,1724.38 1119.73,1707.38 1128,1690.5C 1131.08,1683.68 1133.58,1676.68 1135.5,1669.5C 1133.69,1669.49 1132.02,1669.99 1130.5,1671C 1107.59,1695.91 1085.42,1721.41 1064,1747.5C 1058.59,1753.69 1052.76,1759.35 1046.5,1764.5C 1045.36,1762.58 1045.19,1760.58 1046,1758.5C 1058.98,1732.53 1071.98,1706.53 1085,1680.5C 1086.67,1676.98 1087.84,1673.31 1088.5,1669.5C 1084.12,1670.86 1080.12,1673.03 1076.5,1676C 1053.98,1695.43 1031.65,1715.1 1009.5,1735C 1004.17,1739 998.833,1743 993.5,1747C 992.552,1747.48 991.552,1747.65 990.5,1747.5C 993.201,1741.11 996.701,1735.11 1001,1729.5C 1020.91,1704.01 1040.58,1678.35 1060,1652.5C 1061.41,1650.35 1062.24,1648.02 1062.5,1645.5C 1057.55,1646.47 1052.88,1648.31 1048.5,1651C 1032.17,1661.83 1015.5,1672.17 998.5,1682C 997.056,1682.78 995.723,1682.61 994.5,1681.5C 998.094,1675.74 1002.26,1670.4 1007,1665.5C 1033.73,1639.44 1059.73,1612.78 1085,1585.5C 1085.48,1584.55 1085.65,1583.55 1085.5,1582.5C 1080.3,1584.1 1075.3,1586.26 1070.5,1589C 1032.43,1612.73 994.097,1636.06 955.5,1659C 953.564,1659.81 951.564,1660.31 949.5,1660.5C 949.351,1659.45 949.517,1658.45 950,1657.5C 963.937,1641.56 978.604,1626.23 994,1611.5C 999.28,1606.23 1003.78,1600.39 1007.5,1594C 1006.77,1592.01 1005.27,1591.17 1003,1591.5C 989.347,1593.95 975.847,1597.12 962.5,1601C 959.854,1601.5 957.187,1601.66 954.5,1601.5C 954.343,1600.13 954.51,1598.79 955,1597.5C 958.412,1594.88 961.912,1592.38 965.5,1590C 995.5,1573.33 1025.5,1556.67 1055.5,1540C 1057,1538.5 1058.5,1537 1060,1535.5C 1060.75,1534.36 1060.58,1533.36 1059.5,1532.5C 1058.21,1531.9 1056.87,1531.4 1055.5,1531C 1038.85,1529.9 1022.19,1529.23 1005.5,1529C 996.098,1527.73 995.098,1524.06 1002.5,1518C 1015.48,1508.17 1028.82,1498.84 1042.5,1490C 1046.69,1487.31 1050.02,1483.81 1052.5,1479.5C 1051.64,1477.8 1050.3,1476.64 1048.5,1476C 1039.42,1474.74 1030.42,1473.07 1021.5,1471C 1018.81,1468.37 1019.14,1466.03 1022.5,1464C 1025.67,1462.28 1029.01,1460.94 1032.5,1460C 1045.05,1457.45 1057.38,1454.11 1069.5,1450C 1072.24,1448.95 1073.74,1447.12 1074,1444.5C 1071.23,1442.24 1068.06,1440.74 1064.5,1440C 1038.05,1435.51 1011.71,1430.51 985.5,1425C 982.924,1424.22 980.924,1422.72 979.5,1420.5C 983.176,1416.99 987.509,1414.49 992.5,1413C 1014.12,1406.18 1035.79,1399.51 1057.5,1393C 1061.51,1391.66 1065.01,1389.49 1068,1386.5C 1068.51,1385 1068.01,1383.84 1066.5,1383C 1055.3,1378.38 1044.3,1373.38 1033.5,1368C 1027.97,1362.04 1028.3,1356.37 1034.5,1351C 1037.34,1349.08 1040.34,1347.41 1043.5,1346C 1054.47,1342.84 1065.47,1339.84 1076.5,1337C 1080.21,1334.4 1081.38,1330.9 1080,1326.5C 1074,1312.5 1068,1298.5 1062,1284.5C 1061.22,1281.57 1061.39,1278.74 1062.5,1276C 1066.41,1274.62 1070.41,1274.62 1074.5,1276C 1085.04,1279.74 1095.71,1283.07 1106.5,1286C 1117.55,1288.96 1120.38,1285.46 1115,1275.5C 1108.28,1268.38 1102.28,1260.71 1097,1252.5C 1092.42,1240.12 1096.59,1234.62 1109.5,1236C 1127.09,1240.53 1144.43,1245.86 1161.5,1252C 1170.4,1254.1 1173.23,1250.94 1170,1242.5C 1162,1228.5 1154,1214.5 1146,1200.5C 1144.4,1197.01 1144.23,1193.51 1145.5,1190C 1150.2,1189.84 1154.54,1191.17 1158.5,1194C 1171.24,1202.4 1184.24,1210.4 1197.5,1218C 1205.42,1221.41 1208.59,1218.91 1207,1210.5C 1201.81,1190.27 1195.81,1170.27 1189,1150.5C 1188,1145.86 1187.67,1141.19 1188,1136.5C 1189.71,1133.42 1192.21,1132.25 1195.5,1133C 1201.7,1136.2 1207.04,1140.53 1211.5,1146C 1216.94,1149.93 1219.77,1148.43 1220,1141.5C 1220.67,1131.49 1220.5,1121.49 1219.5,1111.5C 1219.67,1109.5 1219.83,1107.5 1220,1105.5C 1220.41,1105.04 1220.91,1104.71 1221.5,1104.5C 1224.15,1106.65 1226.65,1108.98 1229,1111.5C 1237.25,1123.66 1245.25,1136 1253,1148.5C 1255.17,1150.67 1257.33,1152.83 1259.5,1155C 1262.38,1155.8 1263.88,1154.63 1264,1151.5C 1264.17,1146.83 1264.33,1142.17 1264.5,1137.5C 1262.71,1114.86 1261.87,1092.19 1262,1069.5C 1264.13,1065.62 1266.46,1065.62 1269,1069.5C 1276.51,1083.19 1283.51,1097.19 1290,1111.5C 1291.46,1113.96 1293.29,1116.13 1295.5,1118C 1296.64,1118.75 1297.64,1118.58 1298.5,1117.5C 1300.78,1112.72 1302.62,1107.72 1304,1102.5C 1307.89,1080.81 1311.89,1059.15 1316,1037.5C 1316.83,1033.84 1318.33,1030.51 1320.5,1027.5C 1322.13,1029.06 1322.96,1031.06 1323,1033.5C 1323.17,1037.67 1323.33,1041.83 1323.5,1046C 1322.08,1068.15 1321.58,1090.32 1322,1112.5C 1322.33,1115.5 1322.67,1118.5 1323,1121.5C 1324.76,1125.19 1326.43,1124.85 1328,1120.5C 1330.53,1113.91 1332.86,1107.24 1335,1100.5C 1342.86,1072.26 1351.52,1044.26 1361,1016.5C 1363.06,1011.38 1365.39,1006.38 1368,1001.5C 1370.36,996.443 1373.36,995.776 1377,999.5C 1378.62,1003.35 1379.62,1007.35 1380,1011.5C 1381.17,1033.81 1381.84,1056.15 1382,1078.5C 1382.03,1082.11 1382.86,1085.44 1384.5,1088.5C 1385.81,1087.69 1386.98,1086.69 1388,1085.5C 1397.59,1061.06 1406.59,1036.4 1415,1011.5C 1417.62,1004.96 1420.62,998.627 1424,992.5C 1425.72,989.27 1427.72,988.936 1430,991.5C 1430.17,994.167 1430.33,996.833 1430.5,999.5C 1428.33,1021.53 1425.83,1043.53 1423,1065.5C 1420.44,1086.67 1424.1,1088.33 1434,1070.5C 1445.47,1045.75 1457.14,1021.08 1469,996.5C 1470.46,993.244 1472.63,990.577 1475.5,988.5C 1476.58,994.509 1476.41,1000.51 1475,1006.5C 1470.12,1027.12 1465.45,1047.78 1461,1068.5C 1460.5,1072.15 1460.33,1075.82 1460.5,1079.5C 1462.65,1079.63 1464.65,1079.13 1466.5,1078C 1472.83,1072.33 1479.17,1066.67 1485.5,1061C 1487.95,1060.71 1490.29,1060.04 1492.5,1059C 1500.04,1051.13 1507.21,1042.96 1514,1034.5C 1517.72,1030.28 1521.89,1026.61 1526.5,1023.5C 1527.88,1024 1528.55,1025 1528.5,1026.5C 1524.17,1041.32 1519.34,1055.99 1514,1070.5C 1512.22,1075 1511.39,1079.67 1511.5,1084.5C 1512.55,1084.65 1513.55,1084.48 1514.5,1084C 1527.54,1065.43 1539.71,1046.26 1551,1026.5C 1553.62,1022.22 1556.62,1018.22 1560,1014.5C 1560.17,1016.85 1559.84,1019.18 1559,1021.5C 1554.4,1032.95 1550.4,1044.62 1547,1056.5C 1546.33,1058.83 1546.33,1061.17 1547,1063.5C 1547.41,1063.96 1547.91,1064.29 1548.5,1064.5C 1554.48,1060.35 1559.65,1055.35 1564,1049.5C 1576.76,1031.84 1590.59,1015.01 1605.5,999C 1611.02,995.029 1612.52,996.195 1610,1002.5C 1595.43,1029.99 1580.09,1056.99 1564,1083.5C 1560.75,1089.5 1557.92,1095.67 1555.5,1102C 1555.67,1102.83 1555.83,1103.67 1556,1104.5C 1561.12,1101.05 1565.95,1097.21 1570.5,1093C 1588.44,1074.06 1606.78,1055.39 1625.5,1037C 1628.03,1034.97 1630.7,1033.14 1633.5,1031.5C 1635.02,1032.53 1635.69,1034.03 1635.5,1036C 1635.08,1039.27 1634.24,1042.44 1633,1045.5C 1623.94,1063.29 1614.6,1080.96 1605,1098.5C 1604.5,1100.47 1604.34,1102.47 1604.5,1104.5C 1609.55,1102.81 1614.21,1100.31 1618.5,1097C 1627.5,1090 1636.5,1083 1645.5,1076C 1648.54,1073.78 1651.87,1072.28 1655.5,1071.5C 1655.61,1075.69 1654.77,1079.69 1653,1083.5C 1648.93,1091.64 1645.43,1099.97 1642.5,1108.5C 1650.56,1104.63 1658.56,1100.47 1666.5,1096C 1668.13,1095.51 1669.8,1095.34 1671.5,1095.5C 1671.51,1097.31 1671.01,1098.98 1670,1100.5C 1663.29,1108.21 1656.95,1116.21 1651,1124.5C 1649.87,1126.35 1649.37,1128.35 1649.5,1130.5C 1655.33,1129.72 1661,1128.22 1666.5,1126C 1676.63,1121.6 1686.96,1117.77 1697.5,1114.5C 1699,1114.45 1700,1115.12 1700.5,1116.5C 1698.59,1120.58 1696.09,1124.24 1693,1127.5C 1675.67,1144.83 1658.33,1162.17 1641,1179.5C 1640.31,1180.33 1640.48,1181 1641.5,1181.5C 1649.25,1178.36 1657.25,1176.03 1665.5,1174.5C 1668.74,1174.89 1669.24,1176.22 1667,1178.5C 1651.78,1190.05 1636.28,1201.22 1620.5,1212C 1617.76,1213.89 1616.09,1216.39 1615.5,1219.5C 1622.63,1218.28 1629.63,1216.44 1636.5,1214C 1659.94,1204.74 1683.6,1196.08 1707.5,1188C 1709.47,1187.5 1711.47,1187.34 1713.5,1187.5C 1713.65,1188.55 1713.48,1189.55 1713,1190.5C 1698.17,1204.33 1682.33,1216.83 1665.5,1228C 1660.7,1231.8 1656.2,1235.97 1652,1240.5C 1650.78,1244.62 1648.78,1248.28 1646,1251.5C 1639.03,1257.47 1632.36,1263.8 1626,1270.5C 1624.8,1272.68 1624.3,1275.01 1624.5,1277.5C 1642.8,1277.85 1661.14,1278.02 1679.5,1278C 1680.36,1278.69 1681.02,1279.52 1681.5,1280.5C 1679.26,1283.91 1676.26,1286.41 1672.5,1288C 1654.01,1296.74 1635.68,1305.74 1617.5,1315C 1615.91,1316.05 1614.41,1317.21 1613,1318.5C 1612.29,1320.37 1612.79,1321.87 1614.5,1323C 1616.71,1324.04 1619.05,1324.71 1621.5,1325C 1639.49,1326.52 1657.49,1327.86 1675.5,1329C 1681.04,1329.3 1686.04,1330.96 1690.5,1334C 1686.23,1337.97 1681.23,1340.64 1675.5,1342C 1653.41,1348.36 1631.41,1355.02 1609.5,1362C 1606.59,1363.37 1603.75,1364.87 1601,1366.5C 1599.55,1370.72 1601.05,1373.22 1605.5,1374C 1615.98,1377.16 1626.65,1379.5 1637.5,1381C 1643.79,1381.95 1645.95,1385.45 1644,1391.5C 1636,1395.63 1627.5,1398.46 1618.5,1400C 1611.6,1402.82 1609.77,1407.66 1613,1414.5C 1616,1418.83 1619,1423.17 1622,1427.5C 1622.94,1430.35 1622.44,1432.85 1620.5,1435C 1617.5,1436 1614.5,1437 1611.5,1438C 1603.8,1438.29 1596.13,1438.96 1588.5,1440C 1582.67,1440.15 1580.17,1442.98 1581,1448.5C 1586.21,1456.72 1592.55,1464.05 1600,1470.5C 1603.44,1474.1 1606.27,1478.1 1608.5,1482.5 Z"/></g>
<g><path style="opacity:1" fill="#010200" d="M 1140.5,1021.5 C 1153.4,1020.36 1162.23,1025.69 1167,1037.5C 1167.67,1045.17 1167.67,1052.83 1167,1060.5C 1165.5,1071.5 1164,1082.5 1162.5,1093.5C 1151.68,1092.55 1141.01,1090.72 1130.5,1088C 1113.89,1082.96 1107.39,1071.79 1111,1054.5C 1115.33,1038.44 1125.17,1027.44 1140.5,1021.5 Z"/></g>
<g><path style="opacity:1" fill="#010100" d="M 1735.5,1150.5 C 1728.65,1150.82 1721.98,1150.49 1715.5,1149.5C 1729.8,1130.02 1745.8,1111.85 1763.5,1095C 1773.32,1086.95 1784.49,1081.78 1797,1079.5C 1812.23,1081.44 1816.73,1089.61 1810.5,1104C 1800.26,1125.91 1783.6,1140.24 1760.5,1147C 1752.22,1148.59 1743.89,1149.75 1735.5,1150.5 Z"/></g>
<g><path style="opacity:1" fill="#010100" d="M 1114.5,1171.5 C 1115.06,1178.12 1114.39,1184.45 1112.5,1190.5C 1096.92,1192.77 1081.25,1193.61 1065.5,1193C 1057.86,1191.36 1052.7,1186.86 1050,1179.5C 1046.84,1158.66 1054.34,1142.83 1072.5,1132C 1082.86,1126.05 1093.19,1126.05 1103.5,1132C 1108.95,1137.73 1112.11,1144.56 1113,1152.5C 1113.77,1158.82 1114.27,1165.15 1114.5,1171.5 Z"/></g>
<g><path style="opacity:1" fill="#65801c" d="M 1715.5,1149.5 C 1721.98,1150.49 1728.65,1150.82 1735.5,1150.5C 1728.66,1151.82 1721.66,1151.82 1714.5,1150.5C 1714.62,1149.89 1714.96,1149.56 1715.5,1149.5 Z"/></g>
<g><path style="opacity:1" fill="#020200" d="M 1850.5,1160.5 C 1871.71,1160.92 1877.21,1170.58 1867,1189.5C 1843.56,1221.24 1813.39,1229.57 1776.5,1214.5C 1791.09,1200.07 1806.43,1186.57 1822.5,1174C 1831,1167.58 1840.34,1163.08 1850.5,1160.5 Z"/></g>
<g><path style="opacity:1" fill="#39480f" d="M 1114.5,1171.5 C 1115.49,1177.64 1115.82,1183.98 1115.5,1190.5C 1114.5,1190.5 1113.5,1190.5 1112.5,1190.5C 1114.39,1184.45 1115.06,1178.12 1114.5,1171.5 Z"/></g>
<g><path style="opacity:1" fill="#020200" d="M 968.5,1224.5 C 978.37,1223.16 986.536,1226.16 993,1233.5C 1000.1,1244.99 1004.94,1257.32 1007.5,1270.5C 992.325,1275.29 976.992,1279.46 961.5,1283C 938.685,1285.18 929.518,1275.02 934,1252.5C 941.193,1237.8 952.693,1228.47 968.5,1224.5 Z"/></g>
<g><path style="opacity:1" fill="#010200" d="M 1759.5,1268.5 C 1782.75,1265.71 1790.91,1275.38 1784,1297.5C 1772.11,1319.02 1753.94,1330.19 1729.5,1331C 1715.88,1326.69 1703.55,1320.03 1692.5,1311C 1712.98,1293.77 1735.31,1279.6 1759.5,1268.5 Z"/></g>
<g><path style="opacity:1" fill="#010100" d="M 955.5,1322.5 C 964.937,1321.12 973.604,1322.95 981.5,1328C 990.84,1336.05 998.507,1345.38 1004.5,1356C 985.514,1367.49 965.514,1376.83 944.5,1384C 926.013,1386.84 916.846,1379 917,1360.5C 923.75,1341.58 936.584,1328.92 955.5,1322.5 Z"/></g>
<g><path style="opacity:1" fill="#010100" d="M 1769.5,1382.5 C 1795.31,1380.78 1803.48,1391.78 1794,1415.5C 1781.27,1434.11 1763.77,1441.61 1741.5,1438C 1729.79,1430.62 1720.45,1420.95 1713.5,1409C 1731.35,1398.24 1750.02,1389.41 1769.5,1382.5 Z"/></g>
<g><path style="opacity:1" fill="#020200" d="M 862.5,1447.5 C 880.136,1448.65 895.803,1454.82 909.5,1466C 892.518,1479.97 874.185,1491.97 854.5,1502C 844.601,1507.18 834.601,1507.52 824.5,1503C 818.739,1497.76 816.905,1491.26 819,1483.5C 825.475,1469.03 835.975,1458.53 850.5,1452C 854.571,1450.37 858.571,1448.87 862.5,1447.5 Z"/></g>
<g><path style="opacity:1" fill="#010100" d="M 1608.5,1483.5 C 1608.5,1483.17 1608.5,1482.83 1608.5,1482.5C 1626.37,1474.66 1645.03,1469.66 1664.5,1467.5C 1677.9,1467.57 1685.23,1474.24 1686.5,1487.5C 1683.09,1513.24 1668.43,1527.57 1642.5,1530.5C 1635.5,1530.96 1629.67,1528.63 1625,1523.5C 1617.43,1510.92 1611.93,1497.59 1608.5,1483.5 Z"/></g>
<g><path style="opacity:1" fill="#010200" d="M 901.5,1517.5 C 918.112,1517.32 934.112,1520.16 949.5,1526C 932.314,1544.2 913.647,1560.53 893.5,1575C 882.449,1582.03 870.783,1583.69 858.5,1580C 852.417,1573.52 850.917,1566.02 854,1557.5C 864.539,1537.79 880.372,1524.45 901.5,1517.5 Z"/></g>
<g><path style="opacity:1" fill="#010100" d="M 1601.5,1596.5 C 1612.88,1596.14 1624.21,1596.64 1635.5,1598C 1642.07,1600.24 1646.24,1604.74 1648,1611.5C 1650.12,1634.44 1640.28,1649.61 1618.5,1657C 1598.28,1659.8 1587.78,1650.96 1587,1630.5C 1585.44,1619.89 1584.61,1609.22 1584.5,1598.5C 1590.32,1597.97 1595.98,1597.3 1601.5,1596.5 Z"/></g>
<g><path style="opacity:1" fill="#020200" d="M 1475.5,1635.5 C 1489.51,1636.73 1503.17,1639.57 1516.5,1644C 1522.67,1646.17 1526.83,1650.33 1529,1656.5C 1532.06,1674.99 1526.56,1690.49 1512.5,1703C 1503.57,1710.07 1493.57,1712.4 1482.5,1710C 1476.94,1707.44 1473.11,1703.27 1471,1697.5C 1469.5,1689.22 1469.17,1680.89 1470,1672.5C 1471.4,1660.09 1473.24,1647.75 1475.5,1635.5 Z"/></g>
<g><path style="opacity:1" fill="#35430f" d="M 871.5,1649.5 C 875.683,1648.19 880.016,1648.19 884.5,1649.5C 884.376,1650.11 884.043,1650.44 883.5,1650.5C 879.702,1649.52 875.702,1649.18 871.5,1649.5 Z"/></g>
<g><path style="opacity:1" fill="#020200" d="M 871.5,1649.5 C 875.702,1649.18 879.702,1649.52 883.5,1650.5C 869.793,1668.71 854.46,1685.55 837.5,1701C 826.063,1711.05 812.73,1716.05 797.5,1716C 790.317,1712.8 787.484,1707.3 789,1699.5C 798.317,1677.52 814.151,1662.35 836.5,1654C 847.967,1650.94 859.633,1649.44 871.5,1649.5 Z"/></g>
<g><path style="opacity:1" fill="#020200" d="M 958.5,1669.5 C 960.355,1669.27 961.188,1669.94 961,1671.5C 950.411,1689.02 939.078,1706.02 927,1722.5C 916.485,1737.02 902.652,1746.85 885.5,1752C 879.285,1753.54 873.785,1752.37 869,1748.5C 865.728,1741.53 865.728,1734.53 869,1727.5C 878.645,1706.52 894.145,1691.69 915.5,1683C 929.758,1677.8 944.092,1673.3 958.5,1669.5 Z"/></g>
<g><path style="opacity:1" fill="#010100" d="M 1318.5,1744.5 C 1329.34,1752.85 1337.84,1763.18 1344,1775.5C 1348.27,1798.16 1341.77,1817.33 1324.5,1833C 1316.17,1840.69 1306.84,1842.36 1296.5,1838C 1289.43,1830.58 1286.93,1821.74 1289,1811.5C 1291.33,1801.5 1294.67,1791.83 1299,1782.5C 1305.26,1769.65 1311.76,1756.98 1318.5,1744.5 Z"/></g>
<g><path style="opacity:1" fill="#010100" d="M 1411.5,1753.5 C 1424.04,1757.88 1435.21,1764.55 1445,1773.5C 1446.67,1776.17 1448.33,1778.83 1450,1781.5C 1452.29,1805.43 1443.12,1823.26 1422.5,1835C 1409.29,1838.15 1400.46,1833.31 1396,1820.5C 1395.5,1810.69 1396.5,1801.03 1399,1791.5C 1402.47,1778.59 1406.64,1765.92 1411.5,1753.5 Z"/></g>
<g><path style="opacity:1" fill="#010100" d="M 1034.5,1763.5 C 1035.59,1763.62 1036.25,1764.29 1036.5,1765.5C 1031.3,1790.27 1022.47,1813.61 1010,1835.5C 1003.09,1844.42 994.918,1851.92 985.5,1858C 964.79,1869.58 955.623,1863.74 958,1840.5C 964.13,1821.42 975.297,1805.92 991.5,1794C 1005.74,1783.58 1020.07,1773.42 1034.5,1763.5 Z"/></g>
<g><path style="opacity:1" fill="#010200" d="M 933.5,1787.5 C 934.675,1787.28 935.675,1787.61 936.5,1788.5C 926.964,1811.25 915.13,1832.58 901,1852.5C 890.262,1864.87 876.929,1872.87 861,1876.5C 853.393,1876.06 849.893,1872.06 850.5,1864.5C 850.75,1856.92 852.916,1849.92 857,1843.5C 864.787,1830.71 874.954,1820.21 887.5,1812C 902.451,1803.03 917.784,1794.86 933.5,1787.5 Z"/></g>
<g><path style="opacity:1" fill="#020200" d="M 1162.5,1789.5 C 1163.65,1789.79 1164.32,1790.62 1164.5,1792C 1167.06,1807.74 1167.9,1823.57 1167,1839.5C 1163.23,1857.92 1154.4,1873.42 1140.5,1886C 1135.94,1889.45 1130.94,1892.11 1125.5,1894C 1114.88,1896.44 1108.72,1892.27 1107,1881.5C 1105.93,1872.79 1107.26,1864.46 1111,1856.5C 1115.88,1846.97 1121.54,1837.97 1128,1829.5C 1139.34,1816 1150.84,1802.67 1162.5,1789.5 Z"/></g>
<g><path style="opacity:1" fill="#020200" d="M 1224.5,1844.5 C 1247.03,1877.05 1244.03,1907.22 1215.5,1935C 1209.41,1940.14 1202.41,1942.47 1194.5,1942C 1187.96,1939.43 1184.46,1934.59 1184,1927.5C 1183.36,1920.72 1184.03,1914.05 1186,1907.5C 1197.34,1885.47 1210.17,1864.47 1224.5,1844.5 Z"/></g>
<g><path style="opacity:1" fill="#010200" d="M 1056.5,1856.5 C 1056.48,1876.12 1053.31,1895.45 1047,1914.5C 1040.14,1930.03 1029.64,1942.53 1015.5,1952C 996.548,1961.39 988.381,1955.55 991,1934.5C 995.074,1921.02 1001.74,1909.02 1011,1898.5C 1025.76,1883.9 1040.93,1869.9 1056.5,1856.5 Z"/></g>
</svg>
