<?xml version="1.0" encoding="UTF-8"?>
<!DOCTYPE svg PUBLIC "-//W3C//DTD SVG 1.1//EN" "http://www.w3.org/Graphics/SVG/1.1/DTD/svg11.dtd">
<svg xmlns="http://www.w3.org/2000/svg" version="1.1" width="3000px" height="3000px" style="shape-rendering:geometricPrecision; text-rendering:geometricPrecision; image-rendering:optimizeQuality; fill-rule:evenodd; clip-rule:evenodd" xmlns:xlink="http://www.w3.org/1999/xlink">
<g><path style="opacity:0.999" fill="#985b3d" d="M 1020.5,671.5 C 1020.12,691.022 1021.79,710.355 1025.5,729.5C 992.313,729.253 959.98,734.42 928.5,745C 881.888,758.421 837.555,777.088 795.5,801C 765.288,819.208 739.454,842.375 718,870.5C 709.64,882.576 705.973,895.909 707,910.5C 710.604,924.108 719.104,933.274 732.5,938C 748.03,943.699 764.03,945.699 780.5,944C 826.746,936.029 870.413,920.696 911.5,898C 934.017,885.246 955.684,871.246 976.5,856C 989.89,845.958 999.39,833.125 1005,817.5C 1007.31,808.29 1005.14,800.456 998.5,794C 992.49,790.997 986.157,788.997 979.5,788C 929.441,779.764 884.441,791.098 844.5,822C 845.622,824.124 847.122,825.957 849,827.5C 892.921,794.061 941.421,784.894 994.5,800C 998.373,804.785 999.54,810.285 998,816.5C 995.971,823.561 992.637,829.894 988,835.5C 974.865,848.805 960.365,860.305 944.5,870C 897.547,900.991 846.547,922.658 791.5,935C 775.094,938.424 758.76,938.09 742.5,934C 730.08,931.389 720.914,924.555 715,913.5C 714.333,907.167 714.333,900.833 715,894.5C 718.361,884.777 723.027,875.777 729,867.5C 762.448,829.397 802.614,800.564 849.5,781C 892.946,761.962 937.946,747.962 984.5,739C 998.817,737.627 1012.82,736.127 1026.5,734.5C 1031.73,755.83 1039.73,776.164 1050.5,795.5C 1060.33,790.42 1069.99,785.087 1079.5,779.5C 1082.16,784.829 1084.83,790.162 1087.5,795.5C 1064.79,860.727 1025.12,913.227 968.5,953C 921.934,983.942 871.267,1005.61 816.5,1018C 777.895,1026.3 738.895,1031.96 699.5,1035C 681.135,1035.89 662.802,1035.55 644.5,1034C 624.183,1031.3 606.516,1023.13 591.5,1009.5C 589.5,1010.83 587.833,1012.5 586.5,1014.5C 604.27,1030.71 625.27,1039.88 649.5,1042C 732.793,1044.1 813.459,1030.77 891.5,1002C 961.585,974.563 1018.09,930.063 1061,868.5C 1073.59,848.325 1083.75,826.992 1091.5,804.5C 1120.71,854.875 1162.05,891.709 1215.5,915C 1223.02,918.006 1230.69,920.506 1238.5,922.5C 1231.08,981.454 1242.91,1036.12 1274,1086.5C 1296.8,1122.91 1322.63,1157.08 1351.5,1189C 1357.45,1194.14 1364.12,1197.97 1371.5,1200.5C 1371.18,1196.45 1371.51,1192.45 1372.5,1188.5C 1413.91,1215.72 1452.57,1246.55 1488.5,1281C 1489.48,1281.59 1490.15,1281.26 1490.5,1280C 1491.21,1277.37 1492.21,1274.87 1493.5,1272.5C 1522.26,1289.26 1551.26,1305.6 1580.5,1321.5C 1605.83,1373.5 1631.17,1425.5 1656.5,1477.5C 1649.04,1479.4 1641.38,1480.9 1633.5,1482C 1599.78,1485.01 1566.45,1490.34 1533.5,1498C 1507.45,1504.69 1483.12,1515.19 1460.5,1529.5C 1423.89,1518.52 1389.72,1523.52 1358,1544.5C 1357.07,1549.94 1359.23,1553.77 1364.5,1556C 1379.22,1556.22 1393.89,1555.39 1408.5,1553.5C 1415.92,1553.51 1423.25,1554.18 1430.5,1555.5C 1424.5,1563.83 1418.5,1572.17 1412.5,1580.5C 1383.17,1584.09 1357.34,1595.42 1335,1614.5C 1332.64,1617.41 1333.14,1619.57 1336.5,1621C 1345.07,1622.03 1353.4,1621.03 1361.5,1618C 1370.97,1617.06 1380.3,1617.56 1389.5,1619.5C 1386.75,1632.35 1385.41,1645.35 1385.5,1658.5C 1366.97,1664.6 1349.64,1673.1 1333.5,1684C 1329.99,1685.91 1328.82,1688.74 1330,1692.5C 1330.75,1693.13 1331.58,1693.63 1332.5,1694C 1335.17,1694.17 1337.83,1694.33 1340.5,1694.5C 1355.51,1693.05 1370.51,1691.39 1385.5,1689.5C 1386.89,1704.4 1389.56,1719.07 1393.5,1733.5C 1377.92,1739.04 1363.75,1747.04 1351,1757.5C 1350.08,1760.31 1350.91,1762.47 1353.5,1764C 1358.5,1764.67 1363.5,1764.67 1368.5,1764C 1380.46,1761.51 1392.46,1759.34 1404.5,1757.5C 1423.21,1797.34 1454.54,1820.17 1498.5,1826C 1558.73,1835.16 1619.06,1835.83 1679.5,1828C 1700.24,1825.04 1720.9,1821.7 1741.5,1818C 1777.66,1809.27 1813.66,1800.1 1849.5,1790.5C 1864.49,1811.8 1879.49,1833.13 1894.5,1854.5C 1886.83,1867.83 1879.67,1881.5 1873,1895.5C 1864.3,1919.72 1859.3,1944.72 1858,1970.5C 1857.5,1986.16 1857.33,2001.83 1857.5,2017.5C 1856.86,2013.57 1856.03,2009.57 1855,2005.5C 1835,1976.67 1814.83,1948 1794.5,1919.5C 1792.61,1920.6 1790.94,1921.94 1789.5,1923.5C 1811.83,1956.48 1834.5,1989.15 1857.5,2021.5C 1857.93,2044.24 1859.43,2066.9 1862,2089.5C 1864.98,2112.21 1868.14,2134.87 1871.5,2157.5C 1860.52,2156.59 1849.52,2155.93 1838.5,2155.5C 1816.36,2155.28 1796.03,2161.12 1777.5,2173C 1775.24,2174.62 1773.24,2176.45 1771.5,2178.5C 1758.35,2171.59 1744.68,2165.76 1730.5,2161C 1726.81,2160.58 1723.14,2160.08 1719.5,2159.5C 1675.1,2101.58 1628.6,2045.25 1580,1990.5C 1571.32,1980.99 1562.49,1971.66 1553.5,1962.5C 1552.09,1963.62 1550.59,1964.62 1549,1965.5C 1548.33,1966.17 1548.33,1966.83 1549,1967.5C 1605.13,2028.61 1658.63,2091.78 1709.5,2157C 1708.21,2157.49 1706.87,2157.66 1705.5,2157.5C 1701.03,2157.13 1696.7,2157.63 1692.5,2159C 1689.82,2165.02 1691.49,2169.69 1697.5,2173C 1709.93,2177.31 1721.93,2182.47 1733.5,2188.5C 1738.5,2195.18 1743.5,2201.84 1748.5,2208.5C 1743.79,2219.69 1741.12,2231.36 1740.5,2243.5C 1732.94,2241.86 1725.27,2241.2 1717.5,2241.5C 1716.08,2240.55 1714.41,2240.22 1712.5,2240.5C 1694.73,2194.92 1668.73,2154.75 1634.5,2120C 1623.98,2110.74 1611.98,2104.07 1598.5,2100C 1589.86,2097.46 1581.53,2098.13 1573.5,2102C 1566.95,2108.93 1565.78,2116.77 1570,2125.5C 1606.3,2205.49 1652.63,2278.82 1709,2345.5C 1709.48,2346.45 1709.65,2347.45 1709.5,2348.5C 1699.4,2349.13 1690.9,2353.13 1684,2360.5C 1682.73,2364.17 1683.9,2366.67 1687.5,2368C 1701.88,2368.2 1716.21,2368.7 1730.5,2369.5C 1739.83,2380.16 1749.49,2390.49 1759.5,2400.5C 1770.65,2421.64 1787.31,2436.97 1809.5,2446.5C 1821.52,2460.1 1836.69,2468.1 1855,2470.5C 1857.59,2470.44 1860.09,2470.11 1862.5,2469.5C 1884.09,2476.56 1906.09,2482.06 1928.5,2486C 1970.51,2491 2012.51,2496 2054.5,2501C 2076.65,2502.53 2098.82,2503.7 2121,2504.5C 2139.45,2505.01 2157.62,2503.01 2175.5,2498.5C 2183.91,2512.99 2193.08,2526.99 2203,2540.5C 2204.9,2539.46 2206.73,2538.3 2208.5,2537C 2199.61,2523.62 2190.94,2510.12 2182.5,2496.5C 2211.34,2489.04 2239.68,2479.87 2267.5,2469C 2295.08,2457.64 2322.41,2445.81 2349.5,2433.5C 2353.64,2444.71 2357.47,2456.04 2361,2467.5C 2365.81,2482.05 2366.48,2496.72 2363,2511.5C 2358.5,2520.33 2352.83,2528.33 2346,2535.5C 2319.83,2560.01 2291.67,2581.84 2261.5,2601C 2203.94,2637.96 2144.27,2671.63 2082.5,2702C 1981.46,2748.07 1875.46,2770.07 1764.5,2768C 1750.59,2765.05 1737.93,2759.38 1726.5,2751C 1703.18,2733.69 1681.68,2714.19 1662,2692.5C 1616.79,2641.38 1575.46,2587.38 1538,2530.5C 1427,2360.83 1316,2191.17 1205,2021.5C 1045.08,1884.14 884.915,1747.14 724.5,1610.5C 723.423,1592.5 722.09,1574.5 720.5,1556.5C 801.223,1588.96 881.89,1621.63 962.5,1654.5C 962.833,1654.17 963.167,1653.83 963.5,1653.5C 850.249,1480 736.749,1306.66 623,1133.5C 603.048,1094.93 589.381,1054.27 582,1011.5C 579.906,991.063 582.906,971.396 591,952.5C 603.24,923 620.24,896.667 642,873.5C 699.433,815.189 765.599,769.355 840.5,736C 898.786,709.689 958.786,688.189 1020.5,671.5 Z"/></g>
<g><path style="opacity:1" fill="#824a31" d="M 1025.5,729.5 C 1026.04,731.117 1026.37,732.784 1026.5,734.5C 1012.82,736.127 998.817,737.627 984.5,739C 937.946,747.962 892.946,761.962 849.5,781C 802.614,800.564 762.448,829.397 729,867.5C 723.027,875.777 718.361,884.777 715,894.5C 714.333,900.833 714.333,907.167 715,913.5C 720.914,924.555 730.08,931.389 742.5,934C 758.76,938.09 775.094,938.424 791.5,935C 846.547,922.658 897.547,900.991 944.5,870C 960.365,860.305 974.865,848.805 988,835.5C 992.637,829.894 995.971,823.561 998,816.5C 999.54,810.285 998.373,804.785 994.5,800C 941.421,784.894 892.921,794.061 849,827.5C 847.122,825.957 845.622,824.124 844.5,822C 884.441,791.098 929.441,779.764 979.5,788C 986.157,788.997 992.49,790.997 998.5,794C 1005.14,800.456 1007.31,808.29 1005,817.5C 999.39,833.125 989.89,845.958 976.5,856C 955.684,871.246 934.017,885.246 911.5,898C 870.413,920.696 826.746,936.029 780.5,944C 764.03,945.699 748.03,943.699 732.5,938C 719.104,933.274 710.604,924.108 707,910.5C 705.973,895.909 709.64,882.576 718,870.5C 739.454,842.375 765.288,819.208 795.5,801C 837.555,777.088 881.888,758.421 928.5,745C 959.98,734.42 992.313,729.253 1025.5,729.5 Z"/></g>
<g><path style="opacity:1" fill="#824a31" d="M 1087.5,795.5 C 1089.11,798.378 1090.44,801.378 1091.5,804.5C 1083.75,826.992 1073.59,848.325 1061,868.5C 1018.09,930.063 961.585,974.563 891.5,1002C 813.459,1030.77 732.793,1044.1 649.5,1042C 625.27,1039.88 604.27,1030.71 586.5,1014.5C 587.833,1012.5 589.5,1010.83 591.5,1009.5C 606.516,1023.13 624.183,1031.3 644.5,1034C 662.802,1035.55 681.135,1035.89 699.5,1035C 738.895,1031.96 777.895,1026.3 816.5,1018C 871.267,1005.61 921.934,983.942 968.5,953C 1025.12,913.227 1064.79,860.727 1087.5,795.5 Z"/></g>
<g><path style="opacity:1" fill="#824a31" d="M 1019.5,988.5 C 1118.56,1127.59 1217.39,1266.92 1316,1406.5C 1321.4,1415.62 1325.4,1425.29 1328,1435.5C 1328.5,1439.15 1328.67,1442.82 1328.5,1446.5C 1326.17,1446.5 1323.83,1446.5 1321.5,1446.5C 1321.49,1439.64 1320.33,1432.97 1318,1426.5C 1314.59,1419.34 1310.92,1412.34 1307,1405.5C 1209.31,1267.97 1111.81,1130.31 1014.5,992.5C 1016.21,991.113 1017.88,989.779 1019.5,988.5 Z"/></g>
<g><path style="opacity:0.995" fill="#338d73" d="M 720.5,1556.5 C 722.09,1574.5 723.423,1592.5 724.5,1610.5C 724.657,1611.87 724.49,1613.21 724,1614.5C 722.275,1613.54 720.441,1612.87 718.5,1612.5C 675.66,1591.08 636.993,1563.75 602.5,1530.5C 557.375,1483.63 523.875,1429.3 502,1367.5C 472.112,1283.95 448.779,1198.62 432,1111.5C 429.636,1097.42 428.136,1083.26 427.5,1069C 427.253,1063.31 428.086,1057.81 430,1052.5C 432.064,1051.41 434.231,1051.24 436.5,1052C 439.04,1054.2 441.207,1056.7 443,1059.5C 453.492,1079.82 464.492,1099.82 476,1119.5C 511.727,1173.56 547.06,1227.9 582,1282.5C 605.426,1316.27 630.759,1348.6 658,1379.5C 674.333,1400.49 687.333,1423.49 697,1448.5C 704.902,1472.11 711.235,1496.11 716,1520.5C 717.665,1532.49 719.165,1544.49 720.5,1556.5 Z"/></g>
<g><path style="opacity:1" fill="#824a31" d="M 895.5,1062.5 C 896.822,1062.33 897.989,1062.66 899,1063.5C 1017.64,1221.62 1132.48,1382.45 1243.5,1546C 1242.11,1548.42 1240.11,1549.42 1237.5,1549C 1125.8,1385.8 1010.8,1224.97 892.5,1066.5C 893.524,1065.15 894.524,1063.81 895.5,1062.5 Z"/></g>
<g><path style="opacity:1" fill="#824a31" d="M 744.5,1099.5 C 746.017,1099.51 747.184,1100.18 748,1101.5C 1075.14,1588.13 1414.81,2065.8 1767,2534.5C 1767.67,2535.17 1767.67,2535.83 1767,2536.5C 1765.33,2537.83 1763.67,2539.17 1762,2540.5C 1409.63,2070.45 1069.3,1591.78 741,1104.5C 740.333,1103.83 740.333,1103.17 741,1102.5C 742.518,1101.84 743.685,1100.84 744.5,1099.5 Z"/></g>
<g><path style="opacity:1" fill="#824a31" d="M 1279.5,1135.5 C 1305.85,1177.7 1334.02,1218.7 1364,1258.5C 1407.62,1313.79 1451.62,1368.79 1496,1423.5C 1495.63,1425.92 1494.3,1427.92 1492,1429.5C 1437.31,1363.77 1384.31,1296.77 1333,1228.5C 1312.51,1199.52 1293.01,1169.85 1274.5,1139.5C 1276.01,1137.92 1277.68,1136.58 1279.5,1135.5 Z"/></g>
<g><path style="opacity:1" fill="#338d74" d="M 1868.5,1184.5 C 1880.4,1211.65 1892.9,1238.65 1906,1265.5C 1913.29,1286.21 1919.46,1307.21 1924.5,1328.5C 1928.58,1346.69 1931.91,1365.03 1934.5,1383.5C 1944.02,1441.84 1946.52,1500.5 1942,1559.5C 1940.38,1563.9 1937.88,1567.73 1934.5,1571C 1929.66,1572.72 1926.49,1571.22 1925,1566.5C 1923.19,1553.87 1921.52,1541.2 1920,1528.5C 1913.68,1506.53 1905.68,1485.2 1896,1464.5C 1887.79,1447.41 1879.62,1430.41 1871.5,1413.5C 1862.1,1393.04 1852.44,1372.71 1842.5,1352.5C 1825.27,1316.36 1811.1,1279.03 1800,1240.5C 1798.12,1232.25 1796.95,1223.92 1796.5,1215.5C 1823.54,1212.31 1847.54,1201.98 1868.5,1184.5 Z"/></g>
<g><path style="opacity:1" fill="#a29494" d="M 2349.5,2433.5 C 2322.41,2445.81 2295.08,2457.64 2267.5,2469C 2239.68,2479.87 2211.34,2489.04 2182.5,2496.5C 2180.05,2497.07 2177.71,2497.73 2175.5,2498.5C 2157.62,2503.01 2139.45,2505.01 2121,2504.5C 2098.82,2503.7 2076.65,2502.53 2054.5,2501C 2012.51,2496 1970.51,2491 1928.5,2486C 1906.09,2482.06 1884.09,2476.56 1862.5,2469.5C 1844.78,2462.14 1827.11,2454.48 1809.5,2446.5C 1787.31,2436.97 1770.65,2421.64 1759.5,2400.5C 1756.63,2392.56 1753.96,2384.56 1751.5,2376.5C 1758.07,2377.68 1764.4,2376.85 1770.5,2374C 1775.09,2369.81 1776.59,2364.64 1775,2358.5C 1771.09,2352.61 1765.59,2349.11 1758.5,2348C 1754.21,2347.08 1749.88,2346.58 1745.5,2346.5C 1742.6,2327.27 1740.6,2307.94 1739.5,2288.5C 1743.37,2290.26 1747.37,2291.76 1751.5,2293C 1769.88,2294.95 1777.72,2286.78 1775,2268.5C 1773.14,2261.64 1769.31,2256.14 1763.5,2252C 1756.2,2248.07 1748.53,2245.24 1740.5,2243.5C 1741.12,2231.36 1743.79,2219.69 1748.5,2208.5C 1750.34,2206.15 1751.67,2203.48 1752.5,2200.5C 1759.85,2206.33 1767.85,2211.16 1776.5,2215C 1793.05,2216.13 1798.55,2208.97 1793,2193.5C 1786.55,2187.37 1779.39,2182.37 1771.5,2178.5C 1773.24,2176.45 1775.24,2174.62 1777.5,2173C 1796.03,2161.12 1816.36,2155.28 1838.5,2155.5C 1849.52,2155.93 1860.52,2156.59 1871.5,2157.5C 1868.14,2134.87 1864.98,2112.21 1862,2089.5C 1859.43,2066.9 1857.93,2044.24 1857.5,2021.5C 1857.5,2020.17 1857.5,2018.83 1857.5,2017.5C 1857.33,2001.83 1857.5,1986.16 1858,1970.5C 1859.3,1944.72 1864.3,1919.72 1873,1895.5C 1879.67,1881.5 1886.83,1867.83 1894.5,1854.5C 1905.36,1836.79 1918.36,1820.62 1933.5,1806C 1953.35,1791.15 1975.69,1782.15 2000.5,1779C 2032.48,1774.84 2064.15,1776.51 2095.5,1784C 2107.5,1785.97 2119.5,1785.97 2131.5,1784C 2141.67,1781.83 2148.84,1775.99 2153,1766.5C 2157.3,1752.48 2158.63,1738.15 2157,1723.5C 2156.03,1715.05 2152.53,1707.89 2146.5,1702C 2143.92,1700.75 2141.26,1700.42 2138.5,1701C 2106.97,1715.96 2074.63,1728.96 2041.5,1740C 2010.9,1747.81 1980.56,1756.47 1950.5,1766C 1922.93,1772.75 1895.26,1779.08 1867.5,1785C 1861.39,1786.86 1855.39,1788.69 1849.5,1790.5C 1813.66,1800.1 1777.66,1809.27 1741.5,1818C 1720.9,1821.7 1700.24,1825.04 1679.5,1828C 1619.06,1835.83 1558.73,1835.16 1498.5,1826C 1454.54,1820.17 1423.21,1797.34 1404.5,1757.5C 1407.95,1756.91 1411.45,1756.58 1415,1756.5C 1423.39,1758.19 1431.89,1758.69 1440.5,1758C 1446.16,1756.17 1447.99,1752.34 1446,1746.5C 1444.21,1743.7 1442.04,1741.2 1439.5,1739C 1425.11,1729.83 1409.77,1727.99 1393.5,1733.5C 1389.56,1719.07 1386.89,1704.4 1385.5,1689.5C 1400.23,1689.73 1414.9,1690.56 1429.5,1692C 1433.6,1689.12 1435.27,1685.12 1434.5,1680C 1433.88,1662.68 1424.88,1654.51 1407.5,1655.5C 1400.01,1655.63 1392.68,1656.63 1385.5,1658.5C 1385.41,1645.35 1386.75,1632.35 1389.5,1619.5C 1398.58,1622.68 1407.91,1623.85 1417.5,1623C 1433.32,1616.52 1439.49,1605.02 1436,1588.5C 1429.77,1581.48 1421.94,1578.81 1412.5,1580.5C 1418.5,1572.17 1424.5,1563.83 1430.5,1555.5C 1440.43,1557.82 1450.43,1559.82 1460.5,1561.5C 1464.98,1560.93 1469.31,1559.76 1473.5,1558C 1477.26,1554.26 1478.43,1549.76 1477,1544.5C 1473.2,1537.53 1467.7,1532.53 1460.5,1529.5C 1483.12,1515.19 1507.45,1504.69 1533.5,1498C 1566.45,1490.34 1599.78,1485.01 1633.5,1482C 1641.38,1480.9 1649.04,1479.4 1656.5,1477.5C 1730.23,1466.42 1801.23,1445.92 1869.5,1416C 1870.76,1415.58 1871.42,1414.75 1871.5,1413.5C 1879.62,1430.41 1887.79,1447.41 1896,1464.5C 1905.68,1485.2 1913.68,1506.53 1920,1528.5C 1921.52,1541.2 1923.19,1553.87 1925,1566.5C 1926.49,1571.22 1929.66,1572.72 1934.5,1571C 1937.88,1567.73 1940.38,1563.9 1942,1559.5C 1946.52,1500.5 1944.02,1441.84 1934.5,1383.5C 1983.21,1357.48 2028.87,1326.98 2071.5,1292C 2077.1,1286.9 2082.1,1281.4 2086.5,1275.5C 2086.56,1276.04 2086.89,1276.38 2087.5,1276.5C 2133.79,1259.44 2173.62,1232.78 2207,1196.5C 2207.67,1195.5 2207.67,1194.5 2207,1193.5C 2204.29,1190.45 2201.29,1187.78 2198,1185.5C 2188.76,1198.07 2178.1,1209.41 2166,1219.5C 2165.67,1216.5 2165.33,1213.5 2165,1210.5C 2151.5,1223.17 2137,1234.5 2121.5,1244.5C 2120.83,1242.83 2120.17,1241.17 2119.5,1239.5C 2113.65,1242.26 2107.98,1245.26 2102.5,1248.5C 2061.96,1273.11 2019.3,1294.77 1974.5,1313.5C 1974.32,1310.77 1974.32,1308.1 1974.5,1305.5C 1958.29,1314.28 1941.62,1321.94 1924.5,1328.5C 1919.46,1307.21 1913.29,1286.21 1906,1265.5C 1892.9,1238.65 1880.4,1211.65 1868.5,1184.5C 1882.97,1172.58 1893.8,1157.91 1901,1140.5C 1908.54,1149.7 1917.04,1157.87 1926.5,1165C 1935.12,1167.96 1938.29,1165.13 1936,1156.5C 1910.28,1138.08 1895.62,1113.08 1892,1081.5C 1886.76,1075.78 1882.6,1076.45 1879.5,1083.5C 1881.21,1098.62 1885.54,1112.96 1892.5,1126.5C 1883.39,1154.46 1865.72,1175.29 1839.5,1189C 1815.44,1203.33 1790.11,1206.33 1763.5,1198C 1763,1197.5 1762.5,1197 1762,1196.5C 1759.29,1181.61 1757.79,1166.61 1757.5,1151.5C 1787,1149 1811.83,1137 1832,1115.5C 1844.5,1099.36 1851.5,1081.03 1853,1060.5C 1855.18,1016.52 1855.84,972.522 1855,928.5C 1841.99,868.873 1804.82,838.373 1743.5,837C 1717.93,833.579 1694.27,838.579 1672.5,852C 1652.36,873.445 1638.86,898.612 1632,927.5C 1620.95,983.357 1624.29,1038.36 1642,1092.5C 1646.44,1104.72 1652.44,1116.05 1660,1126.5C 1669.46,1137.32 1681.29,1144.15 1695.5,1147C 1711.87,1151.44 1728.54,1153.61 1745.5,1153.5C 1745.85,1169.59 1747.01,1185.59 1749,1201.5C 1738.52,1209.44 1726.69,1214.28 1713.5,1216C 1686.33,1217.94 1660.66,1212.61 1636.5,1200C 1620.99,1189.97 1608.66,1176.97 1599.5,1161C 1590.15,1160.93 1587.98,1165.1 1593,1173.5C 1607.94,1197.09 1628.77,1213.25 1655.5,1222C 1678.12,1228.56 1701.12,1230.23 1724.5,1227C 1737.46,1223.94 1748.96,1218.1 1759,1209.5C 1771.02,1214.24 1783.52,1216.24 1796.5,1215.5C 1796.95,1223.92 1798.12,1232.25 1800,1240.5C 1811.1,1279.03 1825.27,1316.36 1842.5,1352.5C 1828.9,1354.59 1815.23,1356.25 1801.5,1357.5C 1799.5,1357.17 1797.5,1356.83 1795.5,1356.5C 1796.04,1355.25 1796.71,1354.09 1797.5,1353C 1796.33,1352.83 1795.17,1352.67 1794,1352.5C 1763.95,1357.31 1734.12,1362.81 1704.5,1369C 1700.17,1369.67 1695.83,1369.67 1691.5,1369C 1653,1356.56 1616,1340.73 1580.5,1321.5C 1551.26,1305.6 1522.26,1289.26 1493.5,1272.5C 1492.21,1274.87 1491.21,1277.37 1490.5,1280C 1490.15,1281.26 1489.48,1281.59 1488.5,1281C 1452.57,1246.55 1413.91,1215.72 1372.5,1188.5C 1371.51,1192.45 1371.18,1196.45 1371.5,1200.5C 1364.12,1197.97 1357.45,1194.14 1351.5,1189C 1322.63,1157.08 1296.8,1122.91 1274,1086.5C 1242.91,1036.12 1231.08,981.454 1238.5,922.5C 1230.69,920.506 1223.02,918.006 1215.5,915C 1162.05,891.709 1120.71,854.875 1091.5,804.5C 1090.44,801.378 1089.11,798.378 1087.5,795.5C 1084.83,790.162 1082.16,784.829 1079.5,779.5C 1069.99,785.087 1060.33,790.42 1050.5,795.5C 1039.73,776.164 1031.73,755.83 1026.5,734.5C 1026.37,732.784 1026.04,731.117 1025.5,729.5C 1021.79,710.355 1020.12,691.022 1020.5,671.5C 1020.33,666.156 1020.5,660.823 1021,655.5C 1022.45,645.13 1023.79,634.797 1025,624.5C 1015.22,628.26 1005.39,631.927 995.5,635.5C 1007.02,576.78 1031.19,523.78 1068,476.5C 1077.61,464.39 1087.77,452.723 1098.5,441.5C 1085.65,437.863 1072.65,434.863 1059.5,432.5C 1060.96,428.183 1063.13,424.183 1066,420.5C 1118.09,350.828 1187.25,308.661 1273.5,294C 1261.14,287.493 1249.14,280.493 1237.5,273C 1239.7,267.798 1243.03,263.465 1247.5,260C 1285.19,236.857 1326.19,227.19 1370.5,231C 1409.68,234.711 1446.68,245.711 1481.5,264C 1515.08,282.592 1546.74,303.925 1576.5,328C 1596.38,344.534 1612.55,364.034 1625,386.5C 1625.75,387.99 1626.91,388.99 1628.5,389.5C 1669.47,378.228 1711.13,371.061 1753.5,368C 1829.86,366.408 1904.19,377.908 1976.5,402.5C 2015.6,368.097 2058.94,339.93 2106.5,318C 2160.7,294.146 2216.36,289.813 2273.5,305C 2288.78,310.143 2303.12,317.143 2316.5,326C 2320.89,329.215 2323.89,333.382 2325.5,338.5C 2313.86,346.593 2301.53,353.76 2288.5,360C 2378.81,374.395 2449.98,418.895 2502,493.5C 2503.24,494.877 2503.41,496.21 2502.5,497.5C 2489.54,500.823 2476.54,503.989 2463.5,507C 2517.93,561.044 2552.43,625.544 2567,700.5C 2557.16,697.221 2547.49,693.555 2538,689.5C 2550.2,749.34 2542.2,806.34 2514,860.5C 2513.59,860.957 2513.09,861.291 2512.5,861.5C 2502.76,856.547 2493.26,851.213 2484,845.5C 2456.47,907.695 2411.64,952.528 2349.5,980C 2331.19,987.603 2312.19,992.436 2292.5,994.5C 2291.78,1032.15 2284.62,1068.48 2271,1103.5C 2254.59,1136.91 2230.76,1163.75 2199.5,1184C 2281.52,1267.32 2358.35,1354.82 2430,1446.5C 2506.72,1547.58 2566.06,1658.58 2608,1779.5C 2643.95,1893.05 2650.95,2008.39 2629,2125.5C 2609.65,2216.12 2563.48,2289.62 2490.5,2346C 2446.46,2379.7 2399.46,2408.87 2349.5,2433.5 Z"/></g>
<g><path style="opacity:1" fill="#7f6969" d="M 2086.5,1275.5 C 2092.09,1266.66 2097.42,1257.66 2102.5,1248.5C 2107.98,1245.26 2113.65,1242.26 2119.5,1239.5C 2120.17,1241.17 2120.83,1242.83 2121.5,1244.5C 2137,1234.5 2151.5,1223.17 2165,1210.5C 2165.33,1213.5 2165.67,1216.5 2166,1219.5C 2178.1,1209.41 2188.76,1198.07 2198,1185.5C 2201.29,1187.78 2204.29,1190.45 2207,1193.5C 2207.67,1194.5 2207.67,1195.5 2207,1196.5C 2173.62,1232.78 2133.79,1259.44 2087.5,1276.5C 2086.89,1276.38 2086.56,1276.04 2086.5,1275.5 Z"/></g>
<g><path style="opacity:1" fill="#182951" d="M 1915.5,842.5 C 1920.06,842.55 1923.56,844.55 1926,848.5C 1931.59,859.165 1938.75,868.665 1947.5,877C 1959.52,884.622 1972.52,886.622 1986.5,883C 1998.64,879.501 2009.31,873.501 2018.5,865C 2023.83,859 2029.17,853 2034.5,847C 2043.75,841.472 2050.25,843.972 2054,854.5C 2056.64,880.718 2046.48,900.218 2023.5,913C 2005.2,922.527 1985.87,925.861 1965.5,923C 1943.26,917.141 1925.42,904.974 1912,886.5C 1905.4,874.549 1904.73,862.216 1910,849.5C 1911.67,847.004 1913.5,844.671 1915.5,842.5 Z"/></g>
<g><path style="opacity:1" fill="#172951" d="M 1868.5,1184.5 C 1847.54,1201.98 1823.54,1212.31 1796.5,1215.5C 1783.52,1216.24 1771.02,1214.24 1759,1209.5C 1748.96,1218.1 1737.46,1223.94 1724.5,1227C 1701.12,1230.23 1678.12,1228.56 1655.5,1222C 1628.77,1213.25 1607.94,1197.09 1593,1173.5C 1587.98,1165.1 1590.15,1160.93 1599.5,1161C 1608.66,1176.97 1620.99,1189.97 1636.5,1200C 1660.66,1212.61 1686.33,1217.94 1713.5,1216C 1726.69,1214.28 1738.52,1209.44 1749,1201.5C 1747.01,1185.59 1745.85,1169.59 1745.5,1153.5C 1728.54,1153.61 1711.87,1151.44 1695.5,1147C 1681.29,1144.15 1669.46,1137.32 1660,1126.5C 1652.44,1116.05 1646.44,1104.72 1642,1092.5C 1624.29,1038.36 1620.95,983.357 1632,927.5C 1638.86,898.612 1652.36,873.445 1672.5,852C 1694.27,838.579 1717.93,833.579 1743.5,837C 1804.82,838.373 1841.99,868.873 1855,928.5C 1855.84,972.522 1855.18,1016.52 1853,1060.5C 1851.5,1081.03 1844.5,1099.36 1832,1115.5C 1811.83,1137 1787,1149 1757.5,1151.5C 1757.79,1166.61 1759.29,1181.61 1762,1196.5C 1762.5,1197 1763,1197.5 1763.5,1198C 1790.11,1206.33 1815.44,1203.33 1839.5,1189C 1865.72,1175.29 1883.39,1154.46 1892.5,1126.5C 1885.54,1112.96 1881.21,1098.62 1879.5,1083.5C 1882.6,1076.45 1886.76,1075.78 1892,1081.5C 1895.62,1113.08 1910.28,1138.08 1936,1156.5C 1938.29,1165.13 1935.12,1167.96 1926.5,1165C 1917.04,1157.87 1908.54,1149.7 1901,1140.5C 1893.8,1157.91 1882.97,1172.58 1868.5,1184.5 Z"/></g>
<g><path style="opacity:1" fill="#182951" d="M 1470.5,793.5 C 1475.45,792.628 1479.61,793.961 1483,797.5C 1489.85,811.687 1499.01,824.187 1510.5,835C 1531.45,852.084 1552.78,852.751 1574.5,837C 1580.89,830.613 1587.22,824.279 1593.5,818C 1599.29,816.129 1602.96,818.129 1604.5,824C 1608.4,842.163 1603.07,856.83 1588.5,868C 1551.7,893.579 1515.7,892.579 1480.5,865C 1460.84,847.509 1455,826.342 1463,801.5C 1465.03,798.308 1467.53,795.641 1470.5,793.5 Z"/></g>
<g><path style="opacity:1" fill="#fef4ea" d="M 2108.5,457.5 C 2160.57,459.199 2210.9,469.366 2259.5,488C 2280.49,497.153 2299.83,508.82 2317.5,523C 2309.12,523.671 2300.79,524.671 2292.5,526C 2342.5,552 2380.5,590 2406.5,640C 2398.73,637.947 2391.07,635.614 2383.5,633C 2400.64,671.639 2408.14,712.139 2406,754.5C 2405.49,766.421 2403.83,778.088 2401,789.5C 2395.13,783.091 2390.79,775.758 2388,767.5C 2376.48,811.765 2357.48,852.432 2331,889.5C 2330.09,883.33 2328.75,877.33 2327,871.5C 2319.26,883.289 2308.76,891.622 2295.5,896.5C 2294.91,896.291 2294.41,895.957 2294,895.5C 2293.64,893.392 2292.97,891.392 2292,889.5C 2287.21,829.594 2276.21,770.927 2259,713.5C 2240.95,656.392 2213.29,604.725 2176,558.5C 2150.77,529.933 2123.6,503.433 2094.5,479C 2088.42,475.877 2082.58,472.377 2077,468.5C 2076.33,467.5 2076.33,466.5 2077,465.5C 2079.09,464.206 2081.25,463.039 2083.5,462C 2091.88,459.974 2100.22,458.474 2108.5,457.5 Z"/></g>
<g><path style="opacity:1" fill="#fef4ea" d="M 1436.5,428.5 C 1453.84,428.333 1471.17,428.5 1488.5,429C 1499.32,431.373 1509.99,434.373 1520.5,438C 1522.33,439.167 1524.17,440.333 1526,441.5C 1526.78,442.944 1526.61,444.277 1525.5,445.5C 1514.39,450.219 1503.73,455.719 1493.5,462C 1458.03,486.455 1425.19,514.289 1395,545.5C 1351.58,595.625 1318.92,652.292 1297,715.5C 1285.26,749.966 1275.59,784.966 1268,820.5C 1266.25,828.928 1263.41,836.928 1259.5,844.5C 1246.55,838.721 1237.05,829.388 1231,816.5C 1228.24,821.849 1226.24,827.516 1225,833.5C 1203.41,794.074 1189.41,752.074 1183,707.5C 1182.67,707.167 1182.33,706.833 1182,706.5C 1178.13,714.37 1172.79,721.037 1166,726.5C 1162.91,671.861 1174.74,620.695 1201.5,573C 1194.11,573.683 1186.77,574.683 1179.5,576C 1210.72,529.881 1252.38,496.881 1304.5,477C 1296.81,475.129 1289.15,473.129 1281.5,471C 1312.49,451.556 1346.16,439.223 1382.5,434C 1400.6,431.53 1418.6,429.697 1436.5,428.5 Z"/></g>
<g><path style="opacity:1" fill="#2c7c63" d="M 1835.5,1217.5 C 1838.04,1217.1 1840.21,1217.77 1842,1219.5C 1843.69,1250.29 1850.36,1279.96 1862,1308.5C 1876.56,1342.84 1891.89,1376.84 1908,1410.5C 1920.45,1437.17 1929.28,1465.01 1934.5,1494C 1933.82,1497.91 1931.48,1499.25 1927.5,1498C 1922.36,1473.92 1915.2,1450.42 1906,1427.5C 1887.78,1388.4 1870.12,1349.07 1853,1309.5C 1842.32,1281.61 1835.82,1252.78 1833.5,1223C 1833.39,1220.82 1834.06,1218.99 1835.5,1217.5 Z"/></g>
<g><path style="opacity:1" fill="#fef4ea" d="M 2102.5,1248.5 C 2097.42,1257.66 2092.09,1266.66 2086.5,1275.5C 2082.1,1281.4 2077.1,1286.9 2071.5,1292C 2028.87,1326.98 1983.21,1357.48 1934.5,1383.5C 1931.91,1365.03 1928.58,1346.69 1924.5,1328.5C 1941.62,1321.94 1958.29,1314.28 1974.5,1305.5C 1974.32,1308.1 1974.32,1310.77 1974.5,1313.5C 2019.3,1294.77 2061.96,1273.11 2102.5,1248.5 Z"/></g>
<g><path style="opacity:1" fill="#fef4ea" d="M 1580.5,1321.5 C 1616,1340.73 1653,1356.56 1691.5,1369C 1695.83,1369.67 1700.17,1369.67 1704.5,1369C 1734.12,1362.81 1763.95,1357.31 1794,1352.5C 1795.17,1352.67 1796.33,1352.83 1797.5,1353C 1796.71,1354.09 1796.04,1355.25 1795.5,1356.5C 1797.5,1356.83 1799.5,1357.17 1801.5,1357.5C 1815.23,1356.25 1828.9,1354.59 1842.5,1352.5C 1852.44,1372.71 1862.1,1393.04 1871.5,1413.5C 1871.42,1414.75 1870.76,1415.58 1869.5,1416C 1801.23,1445.92 1730.23,1466.42 1656.5,1477.5C 1631.17,1425.5 1605.83,1373.5 1580.5,1321.5 Z"/></g>
<g><path style="opacity:1" fill="#7f6969" d="M 2311.5,1386.5 C 2314.65,1386.21 2317.65,1386.71 2320.5,1388C 2360.86,1429.01 2394.19,1475.01 2420.5,1526C 2417.58,1533.71 2412.74,1535.21 2406,1530.5C 2380.17,1482.66 2348.17,1439.33 2310,1400.5C 2306.33,1395.34 2306.83,1390.68 2311.5,1386.5 Z"/></g>
<g><path style="opacity:0.998" fill="#2b7b62" d="M 602.5,1530.5 C 636.993,1563.75 675.66,1591.08 718.5,1612.5C 708.59,1618.64 697.923,1623.14 686.5,1626C 669.95,1629.52 653.617,1633.85 637.5,1639C 613.056,1645.12 588.39,1646.12 563.5,1642C 534.843,1638.25 507.176,1630.92 480.5,1620C 430.56,1593.39 392.727,1554.89 367,1504.5C 364.338,1498.68 362.171,1492.68 360.5,1486.5C 362.041,1483.13 364.374,1482.63 367.5,1485C 380.277,1498.12 393.944,1510.12 408.5,1521C 426.115,1530.46 444.948,1534.96 465,1534.5C 489.186,1533.31 513.353,1531.81 537.5,1530C 559.179,1529.27 580.846,1529.44 602.5,1530.5 Z"/></g>
<g><path style="opacity:1" fill="#192951" d="M 1460.5,1529.5 C 1467.7,1532.53 1473.2,1537.53 1477,1544.5C 1478.43,1549.76 1477.26,1554.26 1473.5,1558C 1469.31,1559.76 1464.98,1560.93 1460.5,1561.5C 1450.43,1559.82 1440.43,1557.82 1430.5,1555.5C 1423.25,1554.18 1415.92,1553.51 1408.5,1553.5C 1393.89,1555.39 1379.22,1556.22 1364.5,1556C 1359.23,1553.77 1357.07,1549.94 1358,1544.5C 1389.72,1523.52 1423.89,1518.52 1460.5,1529.5 Z"/></g>
<g><path style="opacity:1" fill="#7f6969" d="M 2368.5,1561.5 C 2373.95,1561.14 2377.78,1563.48 2380,1568.5C 2405.15,1617.8 2426.15,1668.8 2443,1721.5C 2444.32,1730.9 2440.48,1734.4 2431.5,1732C 2429.96,1730.42 2428.79,1728.59 2428,1726.5C 2411.49,1673.98 2390.49,1623.32 2365,1574.5C 2363.75,1571.92 2363.42,1569.26 2364,1566.5C 2365.71,1564.96 2367.21,1563.3 2368.5,1561.5 Z"/></g>
<g><path style="opacity:1" fill="#192951" d="M 1412.5,1580.5 C 1421.94,1578.81 1429.77,1581.48 1436,1588.5C 1439.49,1605.02 1433.32,1616.52 1417.5,1623C 1407.91,1623.85 1398.58,1622.68 1389.5,1619.5C 1380.3,1617.56 1370.97,1617.06 1361.5,1618C 1353.4,1621.03 1345.07,1622.03 1336.5,1621C 1333.14,1619.57 1332.64,1617.41 1335,1614.5C 1357.34,1595.42 1383.17,1584.09 1412.5,1580.5 Z"/></g>
<g><path style="opacity:1" fill="#182951" d="M 1385.5,1689.5 C 1370.51,1691.39 1355.51,1693.05 1340.5,1694.5C 1337.83,1694.33 1335.17,1694.17 1332.5,1694C 1331.58,1693.63 1330.75,1693.13 1330,1692.5C 1328.82,1688.74 1329.99,1685.91 1333.5,1684C 1349.64,1673.1 1366.97,1664.6 1385.5,1658.5C 1392.68,1656.63 1400.01,1655.63 1407.5,1655.5C 1424.88,1654.51 1433.88,1662.68 1434.5,1680C 1435.27,1685.12 1433.6,1689.12 1429.5,1692C 1414.9,1690.56 1400.23,1689.73 1385.5,1689.5 Z"/></g>
<g><path style="opacity:1" fill="#7f6969" d="M 2495.5,1657.5 C 2498.93,1657.11 2502.1,1657.77 2505,1659.5C 2532.4,1719.03 2555.07,1780.36 2573,1843.5C 2573.55,1850.95 2570.05,1854.45 2562.5,1854C 2560.33,1853.17 2558.83,1851.67 2558,1849.5C 2540.22,1787.61 2518.22,1727.27 2492,1668.5C 2490.66,1663.87 2491.83,1660.21 2495.5,1657.5 Z"/></g>
<g><path style="opacity:1" fill="#fef4ea" d="M 1894.5,1854.5 C 1879.49,1833.13 1864.49,1811.8 1849.5,1790.5C 1855.39,1788.69 1861.39,1786.86 1867.5,1785C 1895.26,1779.08 1922.93,1772.75 1950.5,1766C 1980.56,1756.47 2010.9,1747.81 2041.5,1740C 2074.63,1728.96 2106.97,1715.96 2138.5,1701C 2141.26,1700.42 2143.92,1700.75 2146.5,1702C 2152.53,1707.89 2156.03,1715.05 2157,1723.5C 2158.63,1738.15 2157.3,1752.48 2153,1766.5C 2148.84,1775.99 2141.67,1781.83 2131.5,1784C 2119.5,1785.97 2107.5,1785.97 2095.5,1784C 2064.15,1776.51 2032.48,1774.84 2000.5,1779C 1975.69,1782.15 1953.35,1791.15 1933.5,1806C 1918.36,1820.62 1905.36,1836.79 1894.5,1854.5 Z"/></g>
<g><path style="opacity:1" fill="#182951" d="M 1404.5,1757.5 C 1392.46,1759.34 1380.46,1761.51 1368.5,1764C 1363.5,1764.67 1358.5,1764.67 1353.5,1764C 1350.91,1762.47 1350.08,1760.31 1351,1757.5C 1363.75,1747.04 1377.92,1739.04 1393.5,1733.5C 1409.77,1727.99 1425.11,1729.83 1439.5,1739C 1442.04,1741.2 1444.21,1743.7 1446,1746.5C 1447.99,1752.34 1446.16,1756.17 1440.5,1758C 1431.89,1758.69 1423.39,1758.19 1415,1756.5C 1411.45,1756.58 1407.95,1756.91 1404.5,1757.5 Z"/></g>
<g><path style="opacity:1" fill="#7f6969" d="M 2142.5,1791.5 C 2170.41,1791.96 2195.08,1801.12 2216.5,1819C 2247.91,1847.64 2270.41,1882.14 2284,1922.5C 2288.75,1940.61 2289.75,1958.94 2287,1977.5C 2271.27,1915.86 2238.77,1865.02 2189.5,1825C 2176,1816.75 2162.33,1808.75 2148.5,1801C 2146.09,1798.72 2143.59,1796.55 2141,1794.5C 2140.76,1793.21 2141.26,1792.21 2142.5,1791.5 Z"/></g>
<g><path style="opacity:1" fill="#824a31" d="M 1857.5,2017.5 C 1857.5,2018.83 1857.5,2020.17 1857.5,2021.5C 1834.5,1989.15 1811.83,1956.48 1789.5,1923.5C 1790.94,1921.94 1792.61,1920.6 1794.5,1919.5C 1814.83,1948 1835,1976.67 1855,2005.5C 1856.03,2009.57 1856.86,2013.57 1857.5,2017.5 Z"/></g>
<g><path style="opacity:1" fill="#824a31" d="M 1719.5,2159.5 C 1714.66,2159.09 1709.99,2158.42 1705.5,2157.5C 1706.87,2157.66 1708.21,2157.49 1709.5,2157C 1658.63,2091.78 1605.13,2028.61 1549,1967.5C 1548.33,1966.83 1548.33,1966.17 1549,1965.5C 1550.59,1964.62 1552.09,1963.62 1553.5,1962.5C 1562.49,1971.66 1571.32,1980.99 1580,1990.5C 1628.6,2045.25 1675.1,2101.58 1719.5,2159.5 Z"/></g>
<g><path style="opacity:1" fill="#824a31" d="M 1717.5,2241.5 C 1710.83,2241.5 1704.17,2241.5 1697.5,2241.5C 1699.61,2240.53 1701.94,2240.2 1704.5,2240.5C 1687.92,2198.16 1663.92,2160.66 1632.5,2128C 1622.14,2117.66 1609.8,2110.66 1595.5,2107C 1589.39,2106.09 1583.39,2106.42 1577.5,2108C 1575.52,2111.93 1575.02,2116.1 1576,2120.5C 1612.59,2202.91 1660.09,2278.08 1718.5,2346C 1719.79,2346.49 1721.13,2346.66 1722.5,2346.5C 1718.27,2347.22 1713.94,2347.89 1709.5,2348.5C 1709.65,2347.45 1709.48,2346.45 1709,2345.5C 1652.63,2278.82 1606.3,2205.49 1570,2125.5C 1565.78,2116.77 1566.95,2108.93 1573.5,2102C 1581.53,2098.13 1589.86,2097.46 1598.5,2100C 1611.98,2104.07 1623.98,2110.74 1634.5,2120C 1668.73,2154.75 1694.73,2194.92 1712.5,2240.5C 1714.41,2240.22 1716.08,2240.55 1717.5,2241.5 Z"/></g>
<g><path style="opacity:1" fill="#985b3d" d="M 1697.5,2241.5 C 1688.77,2241.16 1680.11,2241.66 1671.5,2243C 1666.95,2244.86 1662.78,2247.36 1659,2250.5C 1658.35,2252.24 1658.52,2253.9 1659.5,2255.5C 1664.18,2258.84 1669.18,2261.67 1674.5,2264C 1690.5,2269.33 1706.5,2274.67 1722.5,2280C 1728.16,2282.83 1733.83,2285.66 1739.5,2288.5C 1740.6,2307.94 1742.6,2327.27 1745.5,2346.5C 1737.83,2346.5 1730.17,2346.5 1722.5,2346.5C 1721.13,2346.66 1719.79,2346.49 1718.5,2346C 1660.09,2278.08 1612.59,2202.91 1576,2120.5C 1575.02,2116.1 1575.52,2111.93 1577.5,2108C 1583.39,2106.42 1589.39,2106.09 1595.5,2107C 1609.8,2110.66 1622.14,2117.66 1632.5,2128C 1663.92,2160.66 1687.92,2198.16 1704.5,2240.5C 1701.94,2240.2 1699.61,2240.53 1697.5,2241.5 Z"/></g>
<g><path style="opacity:1" fill="#192951" d="M 1705.5,2157.5 C 1709.99,2158.42 1714.66,2159.09 1719.5,2159.5C 1723.14,2160.08 1726.81,2160.58 1730.5,2161C 1744.68,2165.76 1758.35,2171.59 1771.5,2178.5C 1779.39,2182.37 1786.55,2187.37 1793,2193.5C 1798.55,2208.97 1793.05,2216.13 1776.5,2215C 1767.85,2211.16 1759.85,2206.33 1752.5,2200.5C 1746.34,2196.25 1740,2192.25 1733.5,2188.5C 1721.93,2182.47 1709.93,2177.31 1697.5,2173C 1691.49,2169.69 1689.82,2165.02 1692.5,2159C 1696.7,2157.63 1701.03,2157.13 1705.5,2157.5 Z"/></g>
<g><path style="opacity:1" fill="#814a32" d="M 1733.5,2188.5 C 1740,2192.25 1746.34,2196.25 1752.5,2200.5C 1751.67,2203.48 1750.34,2206.15 1748.5,2208.5C 1743.5,2201.84 1738.5,2195.18 1733.5,2188.5 Z"/></g>
<g><path style="opacity:1" fill="#182951" d="M 1697.5,2241.5 C 1704.17,2241.5 1710.83,2241.5 1717.5,2241.5C 1725.27,2241.2 1732.94,2241.86 1740.5,2243.5C 1748.53,2245.24 1756.2,2248.07 1763.5,2252C 1769.31,2256.14 1773.14,2261.64 1775,2268.5C 1777.72,2286.78 1769.88,2294.95 1751.5,2293C 1747.37,2291.76 1743.37,2290.26 1739.5,2288.5C 1733.83,2285.66 1728.16,2282.83 1722.5,2280C 1706.5,2274.67 1690.5,2269.33 1674.5,2264C 1669.18,2261.67 1664.18,2258.84 1659.5,2255.5C 1658.52,2253.9 1658.35,2252.24 1659,2250.5C 1662.78,2247.36 1666.95,2244.86 1671.5,2243C 1680.11,2241.66 1688.77,2241.16 1697.5,2241.5 Z"/></g>
<g><path style="opacity:1" fill="#192951" d="M 1722.5,2346.5 C 1730.17,2346.5 1737.83,2346.5 1745.5,2346.5C 1749.88,2346.58 1754.21,2347.08 1758.5,2348C 1765.59,2349.11 1771.09,2352.61 1775,2358.5C 1776.59,2364.64 1775.09,2369.81 1770.5,2374C 1764.4,2376.85 1758.07,2377.68 1751.5,2376.5C 1744.71,2373.57 1737.71,2371.24 1730.5,2369.5C 1716.21,2368.7 1701.88,2368.2 1687.5,2368C 1683.9,2366.67 1682.73,2364.17 1684,2360.5C 1690.9,2353.13 1699.4,2349.13 1709.5,2348.5C 1713.94,2347.89 1718.27,2347.22 1722.5,2346.5 Z"/></g>
<g><path style="opacity:1" fill="#854d34" d="M 1730.5,2369.5 C 1737.71,2371.24 1744.71,2373.57 1751.5,2376.5C 1753.96,2384.56 1756.63,2392.56 1759.5,2400.5C 1749.49,2390.49 1739.83,2380.16 1730.5,2369.5 Z"/></g>
<g><path style="opacity:1" fill="#834b33" d="M 1809.5,2446.5 C 1827.11,2454.48 1844.78,2462.14 1862.5,2469.5C 1860.09,2470.11 1857.59,2470.44 1855,2470.5C 1836.69,2468.1 1821.52,2460.1 1809.5,2446.5 Z"/></g>
<g><path style="opacity:1" fill="#824a31" d="M 2182.5,2496.5 C 2190.94,2510.12 2199.61,2523.62 2208.5,2537C 2206.73,2538.3 2204.9,2539.46 2203,2540.5C 2193.08,2526.99 2183.91,2512.99 2175.5,2498.5C 2177.71,2497.73 2180.05,2497.07 2182.5,2496.5 Z"/></g>
</svg>
