<?xml version="1.0" encoding="UTF-8"?>
<!DOCTYPE svg PUBLIC "-//W3C//DTD SVG 1.1//EN" "http://www.w3.org/Graphics/SVG/1.1/DTD/svg11.dtd">
<svg xmlns="http://www.w3.org/2000/svg" version="1.1" width="3000px" height="3000px" style="shape-rendering:geometricPrecision; text-rendering:geometricPrecision; image-rendering:optimizeQuality; fill-rule:evenodd; clip-rule:evenodd" xmlns:xlink="http://www.w3.org/1999/xlink">
<g><path style="opacity:0.999" fill="#8d5aa5" d="M 893.5,167.5 C 1021.63,164.428 1136.63,201.261 1238.5,278C 1278.52,308.686 1314.69,343.519 1347,382.5C 1417.7,477.219 1489.36,571.219 1562,664.5C 1651.48,777.008 1745.81,885.675 1845,990.5C 1986.33,1136.52 2133.83,1275.35 2287.5,1407C 2413.93,1522.15 2508.09,1659.65 2570,1819.5C 2654.83,2042.16 2674.83,2270.5 2630,2504.5C 2615.27,2576.69 2590.27,2645.03 2555,2709.5C 2507.6,2792.88 2437.43,2847.04 2344.5,2872C 2290.13,2883.44 2235.8,2883.1 2181.5,2871C 2136.43,2860.75 2092.43,2847.09 2049.5,2830C 1977.25,2799.58 1905.25,2768.58 1833.5,2737C 1774.54,2711.9 1714.2,2690.57 1652.5,2673C 1583.17,2653.33 1512.5,2644.33 1440.5,2646C 1390.07,2648.69 1343.07,2662.69 1299.5,2688C 1270.9,2706.27 1242.56,2724.94 1214.5,2744C 1160.31,2778.95 1100.98,2799.62 1036.5,2806C 937.579,2812.83 839.912,2804.49 743.5,2781C 625.509,2748.96 531.009,2683.46 460,2584.5C 408.569,2509.29 370.235,2427.62 345,2339.5C 313.663,2230.15 292.663,2118.81 282,2005.5C 268.38,1863.5 261.88,1721.17 262.5,1578.5C 263.612,1393.31 270.112,1208.31 282,1023.5C 290.152,909.586 310.485,797.92 343,688.5C 373.187,587.135 418.521,493.468 479,407.5C 532.643,333.846 598.809,274.346 677.5,229C 745.02,192.321 817.02,171.821 893.5,167.5 Z"/></g>
</svg>
