<?xml version="1.0" encoding="UTF-8"?>
<!DOCTYPE svg PUBLIC "-//W3C//DTD SVG 1.1//EN" "http://www.w3.org/Graphics/SVG/1.1/DTD/svg11.dtd">
<svg xmlns="http://www.w3.org/2000/svg" version="1.1" width="3000px" height="3000px" style="shape-rendering:geometricPrecision; text-rendering:geometricPrecision; image-rendering:optimizeQuality; fill-rule:evenodd; clip-rule:evenodd" xmlns:xlink="http://www.w3.org/1999/xlink">
<g><path style="opacity:0.999" fill="#ea596e" d="M 991.5,435.5 C 991.5,435.833 991.5,436.167 991.5,436.5C 805.785,621.215 620.785,806.548 436.5,992.5C 413.201,969.702 390.035,946.702 367,923.5C 317.33,870.845 299.663,808.845 314,737.5C 322.111,705.606 336.778,677.273 358,652.5C 456.5,554 555,455.5 653.5,357C 713.808,308.188 780.808,296.521 854.5,322C 875.29,330.484 894.29,341.817 911.5,356C 938.673,382.007 965.34,408.507 991.5,435.5 Z"/></g>
<g><path style="opacity:0.941" fill="#deb3bf" d="M 991.5,435.5 C 1015.17,458.5 1038.5,481.833 1061.5,505.5C 1061.17,505.5 1060.83,505.5 1060.5,505.5C 1037.17,482.833 1014.17,459.833 991.5,436.5C 991.5,436.167 991.5,435.833 991.5,435.5 Z"/></g>
<g><path style="opacity:1" fill="#cbd5dc" d="M 991.5,436.5 C 1014.17,459.833 1037.17,482.833 1060.5,505.5C 875.833,690.833 690.833,875.833 505.5,1060.5C 501.773,1055.77 497.44,1051.77 492.5,1048.5C 484.091,1038.59 475.091,1029.09 465.5,1020C 464.906,1019.54 464.239,1019.37 463.5,1019.5C 455.759,1010.25 447.426,1001.42 438.5,993C 437.906,992.536 437.239,992.369 436.5,992.5C 620.785,806.548 805.785,621.215 991.5,436.5 Z"/></g>
<g><path style="opacity:1" fill="#99aab5" d="M 1060.5,505.5 C 1060.83,505.5 1061.17,505.5 1061.5,505.5C 1084.5,527.833 1107.17,550.5 1129.5,573.5C 1129.5,574.167 1129.5,574.833 1129.5,575.5C 945.14,760.527 760.473,945.194 575.5,1129.5C 562.035,1116.54 548.701,1103.37 535.5,1090C 534.906,1089.54 534.239,1089.37 533.5,1089.5C 523.833,1080.5 514.5,1071.17 505.5,1061.5C 505.5,1061.17 505.5,1060.83 505.5,1060.5C 690.833,875.833 875.833,690.833 1060.5,505.5 Z"/></g>
<g><path style="opacity:0.949" fill="#dfb2bb" d="M 1129.5,573.5 C 1153.5,596.833 1177.17,620.5 1200.5,644.5C 1200.17,644.5 1199.83,644.5 1199.5,644.5C 1176.17,621.5 1152.83,598.5 1129.5,575.5C 1129.5,574.833 1129.5,574.167 1129.5,573.5 Z"/></g>
<g><path style="opacity:1" fill="#cbd5dc" d="M 1129.5,575.5 C 1152.83,598.5 1176.17,621.5 1199.5,644.5C 1014.53,829.14 829.527,1013.81 644.5,1198.5C 621.167,1175.83 598.167,1152.83 575.5,1129.5C 760.473,945.194 945.14,760.527 1129.5,575.5 Z"/></g>
<g><path style="opacity:1" fill="#99aab5" d="M 1199.5,644.5 C 1199.83,644.5 1200.17,644.5 1200.5,644.5C 1223.5,666.833 1246.17,689.5 1268.5,712.5C 1268.63,713.239 1268.46,713.906 1268,714.5C 1083.5,899 899,1083.5 714.5,1268C 713.906,1268.46 713.239,1268.63 712.5,1268.5C 689.5,1246.17 666.833,1223.5 644.5,1200.5C 644.5,1199.83 644.5,1199.17 644.5,1198.5C 829.527,1013.81 1014.53,829.14 1199.5,644.5 Z"/></g>
<g><path style="opacity:0.999" fill="#cbd5dc" d="M 1268.5,712.5 C 1292.55,735.55 1315.88,759.217 1338.5,783.5C 1153.17,968.5 967.833,1153.5 782.5,1338.5C 758.86,1315.53 735.527,1292.19 712.5,1268.5C 713.239,1268.63 713.906,1268.46 714.5,1268C 899,1083.5 1083.5,899 1268,714.5C 1268.46,713.906 1268.63,713.239 1268.5,712.5 Z"/></g>
<g><path style="opacity:0.999" fill="#fecc4c" d="M 1338.5,783.5 C 1339.24,783.369 1339.91,783.536 1340.5,784C 1686.64,1130.14 2032.81,1476.31 2379,1822.5C 2379.46,1823.09 2379.63,1823.76 2379.5,1824.5C 2194.7,2008.8 2010.03,2193.3 1825.5,2378C 1824.83,2378.67 1824.17,2378.67 1823.5,2378C 1821.56,2375.55 1819.23,2373.71 1816.5,2372.5C 1471.5,2028.17 1126.83,1683.5 782.5,1338.5C 967.833,1153.5 1153.17,968.5 1338.5,783.5 Z"/></g>
<g><path style="opacity:0.898" fill="#ec989c" d="M 436.5,992.5 C 437.239,992.369 437.906,992.536 438.5,993C 447.426,1001.42 455.759,1010.25 463.5,1019.5C 454.167,1010.83 445.167,1001.83 436.5,992.5 Z"/></g>
<g><path style="opacity:0.914" fill="#e0a5aa" d="M 463.5,1019.5 C 464.239,1019.37 464.906,1019.54 465.5,1020C 475.091,1029.09 484.091,1038.59 492.5,1048.5C 482.5,1039.17 472.833,1029.5 463.5,1019.5 Z"/></g>
<g><path style="opacity:0.925" fill="#e2acb1" d="M 492.5,1048.5 C 497.44,1051.77 501.773,1055.77 505.5,1060.5C 505.5,1060.83 505.5,1061.17 505.5,1061.5C 500.833,1057.5 496.5,1053.17 492.5,1048.5 Z"/></g>
<g><path style="opacity:0.949" fill="#c9bfc5" d="M 533.5,1089.5 C 534.239,1089.37 534.906,1089.54 535.5,1090C 548.701,1103.37 562.035,1116.54 575.5,1129.5C 598.167,1152.83 621.167,1175.83 644.5,1198.5C 644.5,1199.17 644.5,1199.83 644.5,1200.5C 607.167,1163.83 570.167,1126.83 533.5,1089.5 Z"/></g>
<g><path style="opacity:0.999" fill="#d99e82" d="M 2379.5,1824.5 C 2386.57,1830.6 2392.74,1837.6 2398,1845.5C 2415.57,1871.97 2430.57,1899.97 2443,1929.5C 2468.41,1986.4 2491.08,2044.4 2511,2103.5C 2545.02,2212.4 2577.52,2321.74 2608.5,2431.5C 2607.52,2431.19 2606.86,2430.52 2606.5,2429.5C 2561.08,2430.58 2520.75,2445.42 2485.5,2474C 2447.1,2509.65 2427.94,2553.81 2428,2606.5C 2428.99,2607.07 2429.83,2607.73 2430.5,2608.5C 2324.74,2578.86 2219.41,2547.69 2114.5,2515C 2036.47,2489.32 1960.47,2458.65 1886.5,2423C 1866.76,2412.58 1848.09,2400.58 1830.5,2387C 1825.63,2382.3 1820.96,2377.46 1816.5,2372.5C 1819.23,2373.71 1821.56,2375.55 1823.5,2378C 1824.17,2378.67 1824.83,2378.67 1825.5,2378C 2010.03,2193.3 2194.7,2008.8 2379.5,1824.5 Z"/></g>
<g><path style="opacity:0.997" fill="#292f33" d="M 2608.5,2431.5 C 2630.13,2471.76 2647.63,2513.76 2661,2557.5C 2666.57,2576.11 2669.74,2595.11 2670.5,2614.5C 2671.76,2631.56 2666.76,2646.39 2655.5,2659C 2646.92,2665.42 2637.25,2669.09 2626.5,2670C 2606.52,2671.15 2586.85,2669.15 2567.5,2664C 2519.72,2650.47 2474.05,2631.97 2430.5,2608.5C 2429.83,2607.73 2428.99,2607.07 2428,2606.5C 2427.94,2553.81 2447.1,2509.65 2485.5,2474C 2520.75,2445.42 2561.08,2430.58 2606.5,2429.5C 2606.86,2430.52 2607.52,2431.19 2608.5,2431.5 Z"/></g>
</svg>
