<?xml version="1.0" encoding="UTF-8"?>
<!DOCTYPE svg PUBLIC "-//W3C//DTD SVG 1.1//EN" "http://www.w3.org/Graphics/SVG/1.1/DTD/svg11.dtd">
<svg xmlns="http://www.w3.org/2000/svg" version="1.1" width="3000px" height="3000px" style="shape-rendering:geometricPrecision; text-rendering:geometricPrecision; image-rendering:optimizeQuality; fill-rule:evenodd; clip-rule:evenodd" xmlns:xlink="http://www.w3.org/1999/xlink">
<g><path style="opacity:0.997" fill="#be6201" d="M 2005.5,2018.5 C 2000.88,2020.81 1996.55,2023.65 1992.5,2027C 1991.52,2027.59 1990.85,2027.26 1990.5,2026C 1987.93,2017.34 1986.1,2008.51 1985,1999.5C 1984.79,1988.12 1984.29,1976.79 1983.5,1965.5C 1984.74,1948.86 1985.58,1932.2 1986,1915.5C 1981.75,1923.86 1976.91,1931.86 1971.5,1939.5C 1941.69,1983.34 1907.69,2024 1869.5,2061.5C 1851.65,2078.52 1833.65,2095.35 1815.5,2112C 1814.67,2112.69 1814,2112.52 1813.5,2111.5C 1810.47,2107.64 1807.64,2103.64 1805,2099.5C 1799.45,2088.39 1793.95,2077.39 1788.5,2066.5C 1780.8,2098.77 1770.97,2130.44 1759,2161.5C 1743.72,2195.09 1723.72,2225.42 1699,2252.5C 1688.6,2263.06 1678.1,2273.4 1667.5,2283.5C 1666.83,2283.5 1666.5,2283.83 1666.5,2284.5C 1660.87,2288.96 1655.37,2293.62 1650,2298.5C 1650.96,2223.49 1626.46,2158.49 1576.5,2103.5C 1573.24,2132.86 1566.08,2161.19 1555,2188.5C 1541.94,2216.95 1530.28,2245.95 1520,2275.5C 1506.62,2305.61 1488.28,2332.28 1465,2355.5C 1456.84,2365.82 1449.67,2376.82 1443.5,2388.5C 1440.19,2385.23 1437.36,2381.57 1435,2377.5C 1412.05,2339.55 1390.38,2300.88 1370,2261.5C 1356.55,2240.25 1342.39,2219.58 1327.5,2199.5C 1319.68,2187.86 1311.84,2176.2 1304,2164.5C 1288.33,2135.83 1272.67,2107.17 1257,2078.5C 1230.72,2037.05 1201.56,1997.72 1169.5,1960.5C 1168.68,1959.61 1167.68,1959.28 1166.5,1959.5C 1160.38,1987.37 1154.88,2015.37 1150,2043.5C 1144.36,2076.61 1142.02,2109.94 1143,2143.5C 1144.58,2151.13 1145.58,2158.8 1146,2166.5C 1119.69,2141.19 1093.69,2115.53 1068,2089.5C 1039.14,2060.3 1010.64,2030.8 982.5,2001C 981.552,2000.52 980.552,2000.35 979.5,2000.5C 979.461,1999.42 979.127,1998.42 978.5,1997.5C 938.359,1958.88 902.526,1916.88 871,1871.5C 852.482,1841.13 834.482,1810.46 817,1779.5C 798.587,1745.01 780.92,1710.01 764,1674.5C 763.829,1710.51 763.163,1746.51 762,1782.5C 761.16,1794.55 759.827,1806.55 758,1818.5C 757.964,1820.94 757.131,1822.94 755.5,1824.5C 723.196,1768.55 693.029,1711.55 665,1653.5C 657.718,1636.6 650.718,1619.6 644,1602.5C 624.325,1548.8 611.658,1493.47 606,1436.5C 602.021,1383.61 606.687,1331.61 620,1280.5C 603.722,1304.44 587.056,1328.11 570,1351.5C 564.415,1360.34 559.081,1369.34 554,1378.5C 551.283,1383.27 549.116,1388.27 547.5,1393.5C 546.675,1394.39 545.675,1394.72 544.5,1394.5C 529.416,1345.49 525.249,1295.49 532,1244.5C 538.162,1195.69 548.162,1147.69 562,1100.5C 586.931,1020.5 616.431,942.329 650.5,866C 649.964,864.623 648.964,864.623 647.5,866C 637.52,872.663 628.186,879.996 619.5,888C 597.981,905.916 576.314,923.582 554.5,941C 548.663,944.418 542.996,948.084 537.5,952C 532.766,953.841 528.1,955.675 523.5,957.5C 526.089,948.226 528.589,938.892 531,929.5C 561.956,843.212 607.956,766.212 669,698.5C 724.87,640.455 791.37,598.955 868.5,574C 879.399,571.2 890.065,567.7 900.5,563.5C 879.439,558.827 858.106,556.327 836.5,556C 811.476,555.254 786.476,555.754 761.5,557.5C 759.167,557.167 756.833,556.833 754.5,556.5C 772.188,534.842 792.854,516.675 816.5,502C 847.712,485.067 880.378,471.4 914.5,461C 975.196,444.425 1037.03,436.258 1100,436.5C 1112.84,436.93 1125.67,437.097 1138.5,437C 1127.31,429.904 1115.65,423.571 1103.5,418C 1082.59,410.082 1061.26,403.415 1039.5,398C 1022.43,395.221 1005.27,393.388 988,392.5C 978.527,392.647 969.194,393.647 960,395.5C 958.77,394.725 958.437,393.725 959,392.5C 987.52,370.195 1019.69,355.362 1055.5,348C 1107.11,337.888 1157.78,341.221 1207.5,358C 1230.59,367.859 1251.26,381.193 1269.5,398C 1271.38,399.543 1272.88,401.376 1274,403.5C 1274.32,401.447 1273.99,399.447 1273,397.5C 1254.68,346.522 1230.35,298.855 1200,254.5C 1190.55,242.711 1180.71,231.211 1170.5,220C 1170.83,219.5 1171.17,219 1171.5,218.5C 1172.91,219.806 1174.58,220.64 1176.5,221C 1185.01,221.817 1193.34,223.484 1201.5,226C 1217.31,231.57 1232.64,238.236 1247.5,246C 1280.15,265.657 1312.15,286.324 1343.5,308C 1355.96,318.126 1368.13,328.626 1380,339.5C 1387.99,349.157 1396.32,358.49 1405,367.5C 1416.32,382.795 1427.65,398.129 1439,413.5C 1441.6,416.696 1444.77,418.029 1448.5,417.5C 1441.49,400.481 1433.66,383.815 1425,367.5C 1387.82,301.647 1351.49,235.314 1316,168.5C 1315.65,166.782 1315.15,165.115 1314.5,163.5C 1315.17,163.167 1315.83,162.833 1316.5,162.5C 1467.75,177.185 1589.92,243.852 1683,362.5C 1682.96,354.981 1681.62,347.648 1679,340.5C 1666.6,303.042 1650.94,267.042 1632,232.5C 1625.44,219.704 1618.1,207.37 1610,195.5C 1609.5,194.5 1609,193.5 1608.5,192.5C 1609.17,192.167 1609.83,191.833 1610.5,191.5C 1647.93,203.475 1684.6,217.308 1720.5,233C 1765.77,253.635 1803.93,283.135 1835,321.5C 1850.18,342.855 1862.51,365.855 1872,390.5C 1882.45,365.043 1898.61,343.877 1920.5,327C 1933.83,317.833 1948.5,312 1964.5,309.5C 1956.34,325.811 1948.18,342.144 1940,358.5C 1937.13,368.114 1934.46,377.78 1932,387.5C 1931.2,389.259 1931.37,390.926 1932.5,392.5C 1965.11,381.512 1998.45,378.345 2032.5,383C 2079.9,387.798 2123.24,403.464 2162.5,430C 2168.67,435.5 2174.83,441 2181,446.5C 2183.69,449.692 2186.19,453.025 2188.5,456.5C 2188,456.833 2187.5,457.167 2187,457.5C 2162.52,447.506 2137.02,441.506 2110.5,439.5C 2100.61,440.011 2090.95,441.678 2081.5,444.5C 2081.35,445.552 2081.52,446.552 2082,447.5C 2096.37,460.542 2111.87,472.042 2128.5,482C 2154,499.248 2179.66,516.248 2205.5,533C 2221.43,544.589 2237.1,556.589 2252.5,569C 2258.67,575.167 2264.83,581.333 2271,587.5C 2299.74,623.983 2327.74,660.983 2355,698.5C 2362.33,709.833 2369.67,721.167 2377,732.5C 2421.62,805.177 2448.45,884.177 2457.5,969.5C 2456.32,969.719 2455.32,969.386 2454.5,968.5C 2441.43,948.269 2425.43,930.769 2406.5,916C 2393.72,906.884 2381.22,897.384 2369,887.5C 2383.19,920.725 2395.86,954.725 2407,989.5C 2414.43,1015.83 2421.76,1042.16 2429,1068.5C 2439.79,1097.55 2449.79,1126.88 2459,1156.5C 2467.38,1185.27 2472.72,1214.6 2475,1244.5C 2477.04,1274.57 2473.37,1303.9 2464,1332.5C 2463.31,1334.55 2462.15,1336.22 2460.5,1337.5C 2451.18,1290.86 2431.68,1249.19 2402,1212.5C 2404.49,1229.05 2406.49,1245.72 2408,1262.5C 2408.67,1288.83 2408.67,1315.17 2408,1341.5C 2399.9,1437.21 2378.9,1529.88 2345,1619.5C 2336.32,1639.18 2326.32,1658.18 2315,1676.5C 2310.66,1681.67 2306.16,1686.67 2301.5,1691.5C 2299.72,1688.33 2298.22,1684.99 2297,1681.5C 2291.72,1663.05 2287.39,1644.38 2284,1625.5C 2280.8,1615.56 2277.8,1605.56 2275,1595.5C 2271.4,1603.96 2268.4,1612.63 2266,1621.5C 2261.62,1641.76 2257.62,1662.09 2254,1682.5C 2249.07,1705.21 2241.4,1726.87 2231,1747.5C 2195.92,1808.34 2155.92,1865.67 2111,1919.5C 2086.86,1946.31 2061.36,1971.81 2034.5,1996C 2025,2003.66 2015.34,2011.16 2005.5,2018.5 Z M 1983.5,1965.5 C 1980.08,1956.66 1976.08,1947.99 1971.5,1939.5C 1976.91,1931.86 1981.75,1923.86 1986,1915.5C 1985.58,1932.2 1984.74,1948.86 1983.5,1965.5 Z"/></g>
<g><path style="opacity:1" fill="#eeb034" d="M 2125.5,1407.5 C 2062.12,1412.73 2000.45,1425.9 1940.5,1447C 1925.34,1452.27 1910.34,1457.94 1895.5,1464C 1892.61,1465.93 1891.95,1468.43 1893.5,1471.5C 1895.43,1472.52 1897.43,1472.69 1899.5,1472C 1967.56,1442.15 2038.56,1423.65 2112.5,1416.5C 2115.5,1416.5 2118.5,1416.5 2121.5,1416.5C 2117.08,1432.02 2112.08,1447.35 2106.5,1462.5C 2088.82,1462.38 2071.16,1462.72 2053.5,1463.5C 2049.15,1463.33 2044.82,1463.5 2040.5,1464C 2039.26,1464.23 2038.26,1464.73 2037.5,1465.5C 2035.17,1465.5 2032.83,1465.5 2030.5,1465.5C 2025.25,1465.3 2020.25,1465.97 2015.5,1467.5C 2014.83,1467.5 2014.17,1467.5 2013.5,1467.5C 2008.25,1467.3 2003.25,1467.97 1998.5,1469.5C 1986.53,1471.33 1974.53,1473 1962.5,1474.5C 1958.2,1474.75 1954.2,1475.75 1950.5,1477.5C 1936.75,1479.85 1923.08,1482.69 1909.5,1486C 1906.43,1489.8 1907.09,1492.64 1911.5,1494.5C 1924.26,1490.39 1937.26,1487.39 1950.5,1485.5C 1953.43,1485.43 1956.09,1484.77 1958.5,1483.5C 1965.14,1482.31 1971.8,1481.31 1978.5,1480.5C 1990.4,1479.57 2002.07,1477.9 2013.5,1475.5C 2042.91,1472.03 2072.58,1470.37 2102.5,1470.5C 2096.71,1484.08 2090.38,1497.41 2083.5,1510.5C 2082.31,1511.43 2080.98,1511.76 2079.5,1511.5C 2063.87,1510.07 2048.2,1509.07 2032.5,1508.5C 2022.34,1507.83 2012.01,1507.5 2001.5,1507.5C 1986.63,1507.3 1971.97,1507.97 1957.5,1509.5C 1944.09,1509.78 1930.75,1510.95 1917.5,1513C 1916.41,1515.06 1916.24,1517.23 1917,1519.5C 1917.72,1520.06 1918.56,1520.39 1919.5,1520.5C 1926.44,1519.25 1933.44,1518.58 1940.5,1518.5C 1949.35,1518.31 1958.02,1517.64 1966.5,1516.5C 2003.64,1514.7 2040.64,1515.7 2077.5,1519.5C 2054.88,1562.07 2026.88,1600.73 1993.5,1635.5C 1899.12,1540.12 1785.78,1478.29 1653.5,1450C 1639.67,1446.4 1625.67,1443.9 1611.5,1442.5C 1610.29,1438.41 1608.79,1434.41 1607,1430.5C 1593.38,1415.43 1576.54,1405.6 1556.5,1401C 1547.94,1398.59 1539.28,1396.76 1530.5,1395.5C 1520.88,1393.96 1511.05,1393.29 1501,1393.5C 1493.66,1393.5 1486.49,1393.83 1479.5,1394.5C 1474.27,1394.44 1469.27,1395.11 1464.5,1396.5C 1446.53,1399.44 1429.53,1405.27 1413.5,1414C 1404.28,1419.55 1397.12,1427.05 1392,1436.5C 1391.56,1438.87 1391.06,1441.2 1390.5,1443.5C 1258.57,1463.81 1142.9,1517.98 1043.5,1606C 1031.58,1616.75 1020.25,1627.92 1009.5,1639.5C 1002.17,1633 995.338,1626 989,1618.5C 963.657,1588.31 941.157,1556.14 921.5,1522C 923.708,1521.81 925.708,1521.31 927.5,1520.5C 932.805,1519.81 938.138,1519.47 943.5,1519.5C 970.49,1518.64 997.49,1518.31 1024.5,1518.5C 1036.19,1518.5 1047.85,1519 1059.5,1520C 1068.5,1521.36 1077.5,1522.36 1086.5,1523C 1089.17,1520.67 1089.17,1518.33 1086.5,1516C 1029.94,1508.44 973.27,1507.61 916.5,1513.5C 912.525,1504.22 908.025,1495.22 903,1486.5C 901.153,1481.48 899.319,1476.48 897.5,1471.5C 951.046,1471.75 1004.05,1477.25 1056.5,1488C 1068.97,1491.08 1081.47,1493.91 1094,1496.5C 1097.07,1495.55 1098.07,1493.55 1097,1490.5C 1094.51,1488.66 1091.67,1487.66 1088.5,1487.5C 1086.49,1486.08 1084.15,1485.41 1081.5,1485.5C 1040.82,1476.11 999.82,1469.44 958.5,1465.5C 948.049,1463.81 937.383,1463.14 926.5,1463.5C 915.167,1463.5 903.833,1463.5 892.5,1463.5C 887.266,1447.97 881.933,1432.47 876.5,1417C 878.81,1416.5 881.143,1416.34 883.5,1416.5C 895.519,1417.67 907.519,1419 919.5,1420.5C 927.268,1422.45 935.268,1423.78 943.5,1424.5C 1000.22,1435.13 1055.06,1452.13 1108,1475.5C 1112.76,1474.31 1113.59,1471.81 1110.5,1468C 1080.54,1454.96 1049.87,1443.79 1018.5,1434.5C 1014.5,1432.39 1010.16,1431.06 1005.5,1430.5C 987.98,1425.77 970.313,1421.6 952.5,1418C 944.881,1416.43 937.214,1415.27 929.5,1414.5C 929.082,1413.78 928.416,1413.28 927.5,1413C 922.192,1412.17 916.859,1411.67 911.5,1411.5C 901.177,1410.43 890.843,1409.43 880.5,1408.5C 878.302,1407.83 875.969,1407.17 873.5,1406.5C 830.509,1237.97 860.509,1084.13 963.5,945C 896.059,912.847 864.559,859.347 869,784.5C 876.423,739.493 897.923,702.66 933.5,674C 1000,625.25 1071,617.583 1146.5,651C 1178.39,667.887 1202.55,692.387 1219,724.5C 1221.73,730.63 1223.9,736.963 1225.5,743.5C 1274.67,724.059 1325.34,709.559 1377.5,700C 1399.69,696.219 1422.03,693.719 1444.5,692.5C 1469.47,690.898 1494.47,690.231 1519.5,690.5C 1574.84,692.254 1629.5,700.087 1683.5,714C 1705,720.185 1726.33,726.685 1747.5,733.5C 1758.75,698.857 1779.75,671.691 1810.5,652C 1858.89,622.878 1910.56,615.544 1965.5,630C 2019.54,644.889 2060.21,676.723 2087.5,725.5C 2114.62,784.444 2108.79,839.777 2070,891.5C 2056.27,906.567 2040.77,919.4 2023.5,930C 2124.17,1056.18 2161.67,1199.34 2136,1359.5C 2132.18,1375.44 2128.68,1391.44 2125.5,1407.5 Z"/></g>
<g><path style="opacity:1" fill="#d38517" d="M 1519.5,690.5 C 1494.47,690.231 1469.47,690.898 1444.5,692.5C 1451.97,691.19 1459.63,690.357 1467.5,690C 1485,689.171 1502.34,689.338 1519.5,690.5 Z"/></g>
<g><path style="opacity:1" fill="#965f2d" d="M 1880.5,710.5 C 1926.11,705.64 1964.61,719.64 1996,752.5C 2025.96,790.871 2028.29,830.871 2003,872.5C 1998.53,877.968 1993.7,883.135 1988.5,888C 1987.83,888.667 1987.17,888.667 1986.5,888C 1934.47,834.965 1874.97,792.465 1808,760.5C 1807.33,759.5 1807.33,758.5 1808,757.5C 1818.36,741.804 1831.86,729.637 1848.5,721C 1858.99,716.557 1869.66,713.057 1880.5,710.5 Z"/></g>
<g><path style="opacity:1" fill="#965f2d" d="M 1060.5,717.5 C 1099.41,714.882 1131.91,727.882 1158,756.5C 1161.58,761.073 1164.74,765.907 1167.5,771C 1103.64,805.828 1046.97,850.162 997.5,904C 996.5,904.667 995.5,904.667 994.5,904C 957.266,876.664 944.433,840.497 956,795.5C 969.96,760.874 994.46,737.04 1029.5,724C 1039.79,720.976 1050.12,718.81 1060.5,717.5 Z"/></g>
<g><path style="opacity:1" fill="#020100" d="M 1318.5,1301.5 C 1318.72,1305.16 1319.72,1308.5 1321.5,1311.5C 1325.51,1342.65 1314.51,1366.81 1288.5,1384C 1251.98,1402.16 1221.14,1395.33 1196,1363.5C 1183.53,1342.59 1181.2,1320.59 1189,1297.5C 1210.08,1258.67 1241.58,1246.83 1283.5,1262C 1300.34,1270.67 1312.01,1283.83 1318.5,1301.5 Z"/></g>
<g><path style="opacity:1" fill="#020100" d="M 1753.5,1255.5 C 1789.27,1254.12 1814.1,1269.79 1828,1302.5C 1835.59,1331.39 1828.76,1356.22 1807.5,1377C 1781.11,1396.5 1753.45,1398.5 1724.5,1383C 1702.07,1366.64 1691.57,1344.47 1693,1316.5C 1699.37,1282.29 1719.54,1261.96 1753.5,1255.5 Z"/></g>
<g><path style="opacity:1" fill="#f8f8f8" d="M 1268.5,1285.5 C 1284.76,1287.03 1290.93,1295.69 1287,1311.5C 1281.28,1321.2 1273.11,1324.03 1262.5,1320C 1253.17,1313.02 1251,1304.19 1256,1293.5C 1259.38,1289.41 1263.54,1286.74 1268.5,1285.5 Z"/></g>
<g><path style="opacity:1" fill="#f8f8f8" d="M 1773.5,1286.5 C 1790.16,1284.71 1797.99,1292.04 1797,1308.5C 1791.43,1321.36 1782.27,1324.86 1769.5,1319C 1759.69,1309.91 1759.02,1300.25 1767.5,1290C 1769.43,1288.54 1771.43,1287.37 1773.5,1286.5 Z"/></g>
<g><path style="opacity:1" fill="#5b4315" d="M 1318.5,1301.5 C 1320.28,1304.5 1321.28,1307.84 1321.5,1311.5C 1319.72,1308.5 1318.72,1305.16 1318.5,1301.5 Z"/></g>
<g><path style="opacity:1" fill="#f59783" d="M 1861.5,1393.5 C 1852.48,1393.45 1843.48,1393.78 1834.5,1394.5C 1839.58,1392.98 1844.91,1392.32 1850.5,1392.5C 1854.35,1392.5 1858.02,1392.83 1861.5,1393.5 Z"/></g>
<g><path style="opacity:1" fill="#f88ca5" d="M 1153.5,1392.5 C 1178.83,1389.1 1200.66,1396.1 1219,1413.5C 1229.69,1431.09 1227.19,1446.59 1211.5,1460C 1194.2,1471.46 1175.2,1475.79 1154.5,1473C 1132.95,1470.83 1117.79,1460 1109,1440.5C 1106.75,1424.83 1112.25,1412.67 1125.5,1404C 1134.39,1398.71 1143.72,1394.88 1153.5,1392.5 Z"/></g>
<g><path style="opacity:1" fill="#594214" d="M 1479.5,1394.5 C 1486.49,1393.83 1493.66,1393.5 1501,1393.5C 1511.05,1393.29 1520.88,1393.96 1530.5,1395.5C 1513.51,1394.66 1496.51,1394.33 1479.5,1394.5 Z"/></g>
<g><path style="opacity:1" fill="#f88ca5" d="M 1861.5,1393.5 C 1883.44,1394.53 1899.6,1404.53 1910,1423.5C 1913.32,1439.7 1908.16,1452.53 1894.5,1462C 1875.52,1473.36 1855.19,1476.7 1833.5,1472C 1815.06,1468.22 1802.23,1457.72 1795,1440.5C 1792.83,1423.33 1799.33,1410.5 1814.5,1402C 1820.79,1398.4 1827.46,1395.9 1834.5,1394.5C 1843.48,1393.78 1852.48,1393.45 1861.5,1393.5 Z"/></g>
<g><path style="opacity:1" fill="#020101" d="M 1479.5,1394.5 C 1496.51,1394.33 1513.51,1394.66 1530.5,1395.5C 1539.28,1396.76 1547.94,1398.59 1556.5,1401C 1576.54,1405.6 1593.38,1415.43 1607,1430.5C 1608.79,1434.41 1610.29,1438.41 1611.5,1442.5C 1612.07,1454.19 1608.07,1464.02 1599.5,1472C 1583.95,1483.58 1566.62,1491.41 1547.5,1495.5C 1542.88,1495.76 1538.54,1496.76 1534.5,1498.5C 1527.22,1498.48 1520.06,1499.15 1513,1500.5C 1512.33,1519.5 1512.33,1538.5 1513,1557.5C 1519.46,1566.3 1526.96,1574.13 1535.5,1581C 1548.97,1589.28 1562.63,1589.61 1576.5,1582C 1579.83,1579.67 1583.17,1577.33 1586.5,1575C 1593.83,1566.33 1601.17,1557.67 1608.5,1549C 1623.2,1547.68 1628.03,1553.85 1623,1567.5C 1613.83,1582 1602,1593.83 1587.5,1603C 1582.03,1605.88 1576.36,1608.04 1570.5,1609.5C 1562.53,1610.32 1554.53,1610.66 1546.5,1610.5C 1537.49,1608.67 1529.16,1605.17 1521.5,1600C 1514.31,1593.81 1507.48,1587.31 1501,1580.5C 1488.64,1595.76 1473.14,1605.76 1454.5,1610.5C 1446.15,1610.52 1437.82,1610.19 1429.5,1609.5C 1414.11,1604.72 1401.28,1596.05 1391,1583.5C 1386.28,1577.78 1381.95,1571.78 1378,1565.5C 1375.13,1558.42 1376.96,1552.92 1383.5,1549C 1388.07,1548.11 1392.41,1548.78 1396.5,1551C 1402.36,1560.53 1409.36,1569.2 1417.5,1577C 1435.52,1590.96 1453.52,1590.96 1471.5,1577C 1478.46,1571.05 1484.29,1564.22 1489,1556.5C 1489.83,1537.66 1489.66,1519 1488.5,1500.5C 1483.33,1499.62 1478,1498.95 1472.5,1498.5C 1448.85,1496.45 1427.19,1488.95 1407.5,1476C 1402.97,1471.8 1398.8,1467.3 1395,1462.5C 1391.95,1456.52 1390.45,1450.18 1390.5,1443.5C 1391.06,1441.2 1391.56,1438.87 1392,1436.5C 1397.12,1427.05 1404.28,1419.55 1413.5,1414C 1429.53,1405.27 1446.53,1399.44 1464.5,1396.5C 1469.73,1396.56 1474.73,1395.89 1479.5,1394.5 Z"/></g>
<g><path style="opacity:1" fill="#493611" d="M 1479.5,1394.5 C 1474.73,1395.89 1469.73,1396.56 1464.5,1396.5C 1469.27,1395.11 1474.27,1394.44 1479.5,1394.5 Z"/></g>
<g><path style="opacity:1" fill="#1d1f1c" d="M 2112.5,1416.5 C 2038.56,1423.65 1967.56,1442.15 1899.5,1472C 1897.43,1472.69 1895.43,1472.52 1893.5,1471.5C 1891.95,1468.43 1892.61,1465.93 1895.5,1464C 1910.34,1457.94 1925.34,1452.27 1940.5,1447C 2000.45,1425.9 2062.12,1412.73 2125.5,1407.5C 2175.21,1403.88 2223.21,1411.04 2269.5,1429C 2274.17,1431.33 2278.83,1433.67 2283.5,1436C 2284.78,1438.13 2284.78,1440.3 2283.5,1442.5C 2282.28,1443.61 2280.94,1443.78 2279.5,1443C 2238.84,1423.29 2195.84,1413.79 2150.5,1414.5C 2137.65,1414.63 2124.98,1415.3 2112.5,1416.5 Z"/></g>
<g><path style="opacity:1" fill="#1d1e1c" d="M 880.5,1408.5 C 890.843,1409.43 901.177,1410.43 911.5,1411.5C 917.31,1412.86 923.31,1413.86 929.5,1414.5C 937.214,1415.27 944.881,1416.43 952.5,1418C 970.313,1421.6 987.98,1425.77 1005.5,1430.5C 1009.5,1432.61 1013.84,1433.94 1018.5,1434.5C 1049.87,1443.79 1080.54,1454.96 1110.5,1468C 1113.59,1471.81 1112.76,1474.31 1108,1475.5C 1055.06,1452.13 1000.22,1435.13 943.5,1424.5C 935.837,1421.89 927.837,1420.56 919.5,1420.5C 907.519,1419 895.519,1417.67 883.5,1416.5C 837.136,1411.84 791.803,1417 747.5,1432C 740.42,1435.04 733.42,1438.37 726.5,1442C 721.333,1443.5 719.5,1441.67 721,1436.5C 721.308,1435.69 721.808,1435.03 722.5,1434.5C 755.632,1418.37 790.632,1409.54 827.5,1408C 845.181,1407.29 862.847,1407.45 880.5,1408.5 Z"/></g>
<g><path style="opacity:1" fill="#8c6c29" d="M 911.5,1411.5 C 916.859,1411.67 922.192,1412.17 927.5,1413C 928.416,1413.28 929.082,1413.78 929.5,1414.5C 923.31,1413.86 917.31,1412.86 911.5,1411.5 Z"/></g>
<g><path style="opacity:1" fill="#5b4b24" d="M 919.5,1420.5 C 927.837,1420.56 935.837,1421.89 943.5,1424.5C 935.268,1423.78 927.268,1422.45 919.5,1420.5 Z"/></g>
<g><path style="opacity:1" fill="#94722a" d="M 1005.5,1430.5 C 1010.16,1431.06 1014.5,1432.39 1018.5,1434.5C 1013.84,1433.94 1009.5,1432.61 1005.5,1430.5 Z"/></g>
<g><path style="opacity:1" fill="#fce6cb" d="M 1611.5,1442.5 C 1625.67,1443.9 1639.67,1446.4 1653.5,1450C 1785.78,1478.29 1899.12,1540.12 1993.5,1635.5C 1932.93,1699.21 1862.26,1748.71 1781.5,1784C 1656.26,1836.41 1526.26,1853.07 1391.5,1834C 1250.87,1812.34 1128.87,1753.34 1025.5,1657C 1019.65,1651.65 1014.31,1645.81 1009.5,1639.5C 1020.25,1627.92 1031.58,1616.75 1043.5,1606C 1142.9,1517.98 1258.57,1463.81 1390.5,1443.5C 1390.45,1450.18 1391.95,1456.52 1395,1462.5C 1398.8,1467.3 1402.97,1471.8 1407.5,1476C 1427.19,1488.95 1448.85,1496.45 1472.5,1498.5C 1472.61,1499.12 1472.94,1499.62 1473.5,1500C 1478.49,1500.5 1483.49,1500.67 1488.5,1500.5C 1489.66,1519 1489.83,1537.66 1489,1556.5C 1484.29,1564.22 1478.46,1571.05 1471.5,1577C 1453.52,1590.96 1435.52,1590.96 1417.5,1577C 1409.36,1569.2 1402.36,1560.53 1396.5,1551C 1392.41,1548.78 1388.07,1548.11 1383.5,1549C 1376.96,1552.92 1375.13,1558.42 1378,1565.5C 1381.95,1571.78 1386.28,1577.78 1391,1583.5C 1401.28,1596.05 1414.11,1604.72 1429.5,1609.5C 1434.06,1611.04 1438.9,1611.71 1444,1611.5C 1447.68,1611.5 1451.18,1611.17 1454.5,1610.5C 1473.14,1605.76 1488.64,1595.76 1501,1580.5C 1507.48,1587.31 1514.31,1593.81 1521.5,1600C 1529.16,1605.17 1537.49,1608.67 1546.5,1610.5C 1549.65,1611.17 1552.98,1611.5 1556.5,1611.5C 1561.44,1611.7 1566.1,1611.03 1570.5,1609.5C 1576.36,1608.04 1582.03,1605.88 1587.5,1603C 1602,1593.83 1613.83,1582 1623,1567.5C 1628.03,1553.85 1623.2,1547.68 1608.5,1549C 1601.17,1557.67 1593.83,1566.33 1586.5,1575C 1583.17,1577.33 1579.83,1579.67 1576.5,1582C 1562.63,1589.61 1548.97,1589.28 1535.5,1581C 1526.96,1574.13 1519.46,1566.3 1513,1557.5C 1512.33,1538.5 1512.33,1519.5 1513,1500.5C 1520.06,1499.15 1527.22,1498.48 1534.5,1498.5C 1539.19,1498.45 1543.52,1497.45 1547.5,1495.5C 1566.62,1491.41 1583.95,1483.58 1599.5,1472C 1608.07,1464.02 1612.07,1454.19 1611.5,1442.5 Z"/></g>
<g><path style="opacity:1" fill="#af852d" d="M 926.5,1463.5 C 937.383,1463.14 948.049,1463.81 958.5,1465.5C 947.653,1465.28 936.986,1464.61 926.5,1463.5 Z"/></g>
<g><path style="opacity:1" fill="#8e6e29" d="M 2053.5,1463.5 C 2048.35,1464.55 2043.02,1465.22 2037.5,1465.5C 2038.26,1464.73 2039.26,1464.23 2040.5,1464C 2044.82,1463.5 2049.15,1463.33 2053.5,1463.5 Z"/></g>
<g><path style="opacity:1" fill="#1c1e1c" d="M 2106.5,1462.5 C 2121.51,1463.36 2136.51,1464.36 2151.5,1465.5C 2156.94,1466.88 2162.61,1467.55 2168.5,1467.5C 2213.7,1473.5 2255.36,1488.67 2293.5,1513C 2295.24,1514.62 2297.07,1516.12 2299,1517.5C 2300.29,1520.86 2299.29,1522.86 2296,1523.5C 2280.79,1513.81 2264.96,1504.97 2248.5,1497C 2201.67,1478.74 2153,1469.9 2102.5,1470.5C 2072.58,1470.37 2042.91,1472.03 2013.5,1475.5C 2001.57,1476.21 1989.9,1477.88 1978.5,1480.5C 1971.8,1481.31 1965.14,1482.31 1958.5,1483.5C 1955.5,1483.29 1952.84,1483.96 1950.5,1485.5C 1937.26,1487.39 1924.26,1490.39 1911.5,1494.5C 1907.09,1492.64 1906.43,1489.8 1909.5,1486C 1923.08,1482.69 1936.75,1479.85 1950.5,1477.5C 1954.84,1477.34 1958.84,1476.34 1962.5,1474.5C 1974.53,1473 1986.53,1471.33 1998.5,1469.5C 2003.73,1469.56 2008.73,1468.89 2013.5,1467.5C 2014.17,1467.5 2014.83,1467.5 2015.5,1467.5C 2020.73,1467.56 2025.73,1466.89 2030.5,1465.5C 2032.83,1465.5 2035.17,1465.5 2037.5,1465.5C 2043.02,1465.22 2048.35,1464.55 2053.5,1463.5C 2071.16,1462.72 2088.82,1462.38 2106.5,1462.5 Z"/></g>
<g><path style="opacity:1" fill="#1d1f1c" d="M 892.5,1463.5 C 903.833,1463.5 915.167,1463.5 926.5,1463.5C 936.986,1464.61 947.653,1465.28 958.5,1465.5C 999.82,1469.44 1040.82,1476.11 1081.5,1485.5C 1083.51,1486.92 1085.85,1487.59 1088.5,1487.5C 1091.67,1487.66 1094.51,1488.66 1097,1490.5C 1098.07,1493.55 1097.07,1495.55 1094,1496.5C 1081.47,1493.91 1068.97,1491.08 1056.5,1488C 1004.05,1477.25 951.046,1471.75 897.5,1471.5C 841.805,1470.2 788.805,1481.37 738.5,1505C 728.398,1510.8 718.564,1516.96 709,1523.5C 705.795,1522.2 704.795,1519.87 706,1516.5C 730.955,1498.44 758.455,1485.28 788.5,1477C 808.664,1472.37 828.997,1468.87 849.5,1466.5C 855.712,1466.48 861.712,1465.81 867.5,1464.5C 875.831,1464.12 884.164,1463.78 892.5,1463.5 Z"/></g>
<g><path style="opacity:1" fill="#593712" d="M 867.5,1464.5 C 861.712,1465.81 855.712,1466.48 849.5,1466.5C 855.261,1464.94 861.261,1464.28 867.5,1464.5 Z"/></g>
<g><path style="opacity:1" fill="#693e10" d="M 2151.5,1465.5 C 2157.4,1465.32 2163.07,1465.99 2168.5,1467.5C 2162.61,1467.55 2156.94,1466.88 2151.5,1465.5 Z"/></g>
<g><path style="opacity:1" fill="#5d4c24" d="M 2030.5,1465.5 C 2025.73,1466.89 2020.73,1467.56 2015.5,1467.5C 2020.25,1465.97 2025.25,1465.3 2030.5,1465.5 Z"/></g>
<g><path style="opacity:1" fill="#4d4022" d="M 2013.5,1467.5 C 2008.73,1468.89 2003.73,1469.56 1998.5,1469.5C 2003.25,1467.97 2008.25,1467.3 2013.5,1467.5 Z"/></g>
<g><path style="opacity:1" fill="#806428" d="M 1962.5,1474.5 C 1958.84,1476.34 1954.84,1477.34 1950.5,1477.5C 1954.2,1475.75 1958.2,1474.75 1962.5,1474.5 Z"/></g>
<g><path style="opacity:1" fill="#b3872e" d="M 2013.5,1475.5 C 2002.07,1477.9 1990.4,1479.57 1978.5,1480.5C 1989.9,1477.88 2001.57,1476.21 2013.5,1475.5 Z"/></g>
<g><path style="opacity:1" fill="#735b26" d="M 1958.5,1483.5 C 1956.09,1484.77 1953.43,1485.43 1950.5,1485.5C 1952.84,1483.96 1955.5,1483.29 1958.5,1483.5 Z"/></g>
<g><path style="opacity:1" fill="#765d27" d="M 1081.5,1485.5 C 1084.15,1485.41 1086.49,1486.08 1088.5,1487.5C 1085.85,1487.59 1083.51,1486.92 1081.5,1485.5 Z"/></g>
<g><path style="opacity:1" fill="#9d907f" d="M 1547.5,1495.5 C 1543.52,1497.45 1539.19,1498.45 1534.5,1498.5C 1538.54,1496.76 1542.88,1495.76 1547.5,1495.5 Z"/></g>
<g><path style="opacity:1" fill="#ab9c8a" d="M 1472.5,1498.5 C 1478,1498.95 1483.33,1499.62 1488.5,1500.5C 1483.49,1500.67 1478.49,1500.5 1473.5,1500C 1472.94,1499.62 1472.61,1499.12 1472.5,1498.5 Z"/></g>
<g><path style="opacity:1" fill="#5e4c24" d="M 2032.5,1508.5 C 2007.49,1508.38 1982.49,1508.71 1957.5,1509.5C 1971.97,1507.97 1986.63,1507.3 2001.5,1507.5C 2012.01,1507.5 2022.34,1507.83 2032.5,1508.5 Z"/></g>
<g><path style="opacity:1" fill="#1c1e1c" d="M 2032.5,1508.5 C 2048.2,1509.07 2063.87,1510.07 2079.5,1511.5C 2119.92,1515.94 2159.26,1525.44 2197.5,1540C 2218.42,1549.27 2238.08,1560.6 2256.5,1574C 2261.97,1578.47 2267.13,1583.3 2272,1588.5C 2272.83,1593 2271,1594.83 2266.5,1594C 2239.54,1568.35 2208.2,1550.18 2172.5,1539.5C 2167.92,1536.86 2162.92,1535.19 2157.5,1534.5C 2131.15,1527.96 2104.48,1522.96 2077.5,1519.5C 2040.64,1515.7 2003.64,1514.7 1966.5,1516.5C 1957.61,1516.14 1948.94,1516.81 1940.5,1518.5C 1933.44,1518.58 1926.44,1519.25 1919.5,1520.5C 1918.56,1520.39 1917.72,1520.06 1917,1519.5C 1916.24,1517.23 1916.41,1515.06 1917.5,1513C 1930.75,1510.95 1944.09,1509.78 1957.5,1509.5C 1982.49,1508.71 2007.49,1508.38 2032.5,1508.5 Z"/></g>
<g><path style="opacity:1" fill="#1c1e1c" d="M 1024.5,1518.5 C 1000,1517.34 975.337,1517.17 950.5,1518C 947.964,1518.19 945.631,1518.69 943.5,1519.5C 938.138,1519.47 932.805,1519.81 927.5,1520.5C 878.179,1524.41 831.179,1536.91 786.5,1558C 768.413,1568.37 751.413,1580.2 735.5,1593.5C 732.025,1592.86 730.859,1590.86 732,1587.5C 761.751,1560.2 796.251,1541.03 835.5,1530C 853.638,1524.98 871.971,1520.81 890.5,1517.5C 894.122,1517.68 897.456,1517.01 900.5,1515.5C 905.907,1515.3 911.24,1514.63 916.5,1513.5C 973.27,1507.61 1029.94,1508.44 1086.5,1516C 1089.17,1518.33 1089.17,1520.67 1086.5,1523C 1077.5,1522.36 1068.5,1521.36 1059.5,1520C 1047.85,1519 1036.19,1518.5 1024.5,1518.5 Z"/></g>
<g><path style="opacity:1" fill="#663d10" d="M 900.5,1515.5 C 897.456,1517.01 894.122,1517.68 890.5,1517.5C 893.589,1516.22 896.922,1515.55 900.5,1515.5 Z"/></g>
<g><path style="opacity:1" fill="#ad832d" d="M 1024.5,1518.5 C 997.49,1518.31 970.49,1518.64 943.5,1519.5C 945.631,1518.69 947.964,1518.19 950.5,1518C 975.337,1517.17 1000,1517.34 1024.5,1518.5 Z"/></g>
<g><path style="opacity:1" fill="#806428" d="M 1966.5,1516.5 C 1958.02,1517.64 1949.35,1518.31 1940.5,1518.5C 1948.94,1516.81 1957.61,1516.14 1966.5,1516.5 Z"/></g>
<g><path style="opacity:1" fill="#553613" d="M 2157.5,1534.5 C 2162.92,1535.19 2167.92,1536.86 2172.5,1539.5C 2167.22,1538.41 2162.22,1536.74 2157.5,1534.5 Z"/></g>
<g><path style="opacity:1" fill="#817667" d="M 1429.5,1609.5 C 1437.82,1610.19 1446.15,1610.52 1454.5,1610.5C 1451.18,1611.17 1447.68,1611.5 1444,1611.5C 1438.9,1611.71 1434.06,1611.04 1429.5,1609.5 Z"/></g>
<g><path style="opacity:1" fill="#8b7f70" d="M 1570.5,1609.5 C 1566.1,1611.03 1561.44,1611.7 1556.5,1611.5C 1552.98,1611.5 1549.65,1611.17 1546.5,1610.5C 1554.53,1610.66 1562.53,1610.32 1570.5,1609.5 Z"/></g>
<g><path style="opacity:0.998" fill="#eeb035" d="M 1971.5,1939.5 C 1976.08,1947.99 1980.08,1956.66 1983.5,1965.5C 1984.29,1976.79 1984.79,1988.12 1985,1999.5C 1986.1,2008.51 1987.93,2017.34 1990.5,2026C 1990.85,2027.26 1991.52,2027.59 1992.5,2027C 1996.55,2023.65 2000.88,2020.81 2005.5,2018.5C 2026.7,2066.25 2043.86,2115.58 2057,2166.5C 2058.42,2172.09 2059.25,2177.76 2059.5,2183.5C 2123.67,2175.91 2184.34,2186.74 2241.5,2216C 2300.96,2251.08 2337.13,2302.58 2350,2370.5C 2362.15,2432.96 2356.32,2493.63 2332.5,2552.5C 2327.01,2548.52 2321.34,2544.69 2315.5,2541C 2309.58,2538.86 2303.58,2537.03 2297.5,2535.5C 2316.28,2510.5 2320.44,2483.17 2310,2453.5C 2292.54,2420.51 2265.04,2405.35 2227.5,2408C 2220.99,2409.38 2214.66,2411.21 2208.5,2413.5C 2209.57,2403.19 2209.73,2392.86 2209,2382.5C 2208.79,2380.94 2208.29,2379.61 2207.5,2378.5C 2201.68,2353.74 2187.35,2335.58 2164.5,2324C 2128.55,2310.32 2097.22,2317.16 2070.5,2344.5C 2060.86,2331.03 2048.19,2321.53 2032.5,2316C 2019.09,2313.06 2006.09,2314.23 1993.5,2319.5C 1992.39,2325.82 1991.39,2332.16 1990.5,2338.5C 1987.46,2361.55 1984.12,2384.55 1980.5,2407.5C 1971.63,2453.04 1962.63,2498.71 1953.5,2544.5C 1943.95,2588.81 1929.62,2631.48 1910.5,2672.5C 1902.85,2688.48 1894.18,2703.82 1884.5,2718.5C 1872.94,2735.07 1860.61,2751.07 1847.5,2766.5C 1836.31,2778.86 1824.31,2790.36 1811.5,2801C 1802.88,2806.94 1794.21,2812.94 1785.5,2819C 1777.59,2823.79 1769.26,2827.79 1760.5,2831C 1726.11,2838.36 1691.77,2838.03 1657.5,2830C 1636.42,2824.72 1617.92,2814.88 1602,2800.5C 1599.48,2796.78 1596.98,2793.11 1594.5,2789.5C 1591.72,2784.02 1589.22,2778.35 1587,2772.5C 1586.39,2767.09 1585.39,2761.76 1584,2756.5C 1583.43,2748.8 1583.76,2741.14 1585,2733.5C 1586.73,2728.65 1587.73,2723.65 1588,2718.5C 1603.19,2679.26 1616.19,2639.26 1627,2598.5C 1634.2,2558.21 1641.2,2517.88 1648,2477.5C 1662.31,2432.3 1668.81,2385.97 1667.5,2338.5C 1668.83,2320.17 1668.83,2301.83 1667.5,2283.5C 1678.1,2273.4 1688.6,2263.06 1699,2252.5C 1723.72,2225.42 1743.72,2195.09 1759,2161.5C 1770.97,2130.44 1780.8,2098.77 1788.5,2066.5C 1793.95,2077.39 1799.45,2088.39 1805,2099.5C 1807.64,2103.64 1810.47,2107.64 1813.5,2111.5C 1814,2112.52 1814.67,2112.69 1815.5,2112C 1833.65,2095.35 1851.65,2078.52 1869.5,2061.5C 1907.69,2024 1941.69,1983.34 1971.5,1939.5 Z"/></g>
<g><path style="opacity:0.998" fill="#eeb035" d="M 1327.5,2199.5 C 1324.32,2254.47 1323.82,2309.47 1326,2364.5C 1327.48,2386.92 1329.81,2409.26 1333,2431.5C 1343.34,2466.2 1350.67,2501.53 1355,2537.5C 1363.77,2595.81 1379.44,2652.15 1402,2706.5C 1406.69,2719.79 1409.52,2733.45 1410.5,2747.5C 1410.33,2752.2 1409.83,2756.87 1409,2761.5C 1407.05,2770.84 1404.22,2779.84 1400.5,2788.5C 1390.5,2802.65 1377.5,2813.48 1361.5,2821C 1352.83,2824 1344.17,2827 1335.5,2830C 1300.48,2837.29 1265.48,2837.29 1230.5,2830C 1222.04,2825.94 1213.71,2821.6 1205.5,2817C 1193.24,2808.41 1181.24,2799.41 1169.5,2790C 1161.67,2783.17 1154.17,2776 1147,2768.5C 1146.54,2767.91 1146.37,2767.24 1146.5,2766.5C 1133.34,2750.82 1120.67,2734.82 1108.5,2718.5C 1099.82,2703.13 1091.15,2687.79 1082.5,2672.5C 1063.28,2631.84 1049.28,2589.5 1040.5,2545.5C 1030.89,2499.77 1021.55,2454.1 1012.5,2408.5C 1008.41,2382.76 1004.74,2357.1 1001.5,2331.5C 1001.7,2328.27 1001.37,2325.11 1000.5,2322C 994.543,2317.9 987.877,2315.57 980.5,2315C 965.202,2313.57 951.535,2317.57 939.5,2327C 933.76,2333.04 927.926,2338.87 922,2344.5C 889.145,2313 853.312,2309.16 814.5,2333C 789.152,2354.54 779.485,2381.71 785.5,2414.5C 761.927,2405.53 738.927,2406.7 716.5,2418C 681.875,2440.86 670.375,2472.36 682,2512.5C 685.491,2520.82 689.991,2528.49 695.5,2535.5C 688.558,2537.08 681.892,2539.58 675.5,2543C 668.968,2547.71 662.968,2552.88 657.5,2558.5C 637.55,2513.38 629.717,2466.05 634,2416.5C 638.101,2361.86 655.101,2311.86 685,2266.5C 725.976,2210.91 781.142,2180.08 850.5,2174C 873.928,2172.85 897.261,2173.68 920.5,2176.5C 933.358,2122.43 950.525,2069.76 972,2018.5C 975.355,2012.8 977.855,2006.8 979.5,2000.5C 980.552,2000.35 981.552,2000.52 982.5,2001C 1010.64,2030.8 1039.14,2060.3 1068,2089.5C 1093.69,2115.53 1119.69,2141.19 1146,2166.5C 1145.58,2158.8 1144.58,2151.13 1143,2143.5C 1142.02,2109.94 1144.36,2076.61 1150,2043.5C 1154.88,2015.37 1160.38,1987.37 1166.5,1959.5C 1167.68,1959.28 1168.68,1959.61 1169.5,1960.5C 1201.56,1997.72 1230.72,2037.05 1257,2078.5C 1272.67,2107.17 1288.33,2135.83 1304,2164.5C 1311.84,2176.2 1319.68,2187.86 1327.5,2199.5 Z"/></g>
<g><path style="opacity:1" fill="#fce6cb" d="M 1666.5,2284.5 C 1667.5,2302.33 1667.83,2320.33 1667.5,2338.5C 1668.81,2385.97 1662.31,2432.3 1648,2477.5C 1641.2,2517.88 1634.2,2558.21 1627,2598.5C 1616.19,2639.26 1603.19,2679.26 1588,2718.5C 1587.73,2723.65 1586.73,2728.65 1585,2733.5C 1583.76,2741.14 1583.43,2748.8 1584,2756.5C 1585.39,2761.76 1586.39,2767.09 1587,2772.5C 1589.22,2778.35 1591.72,2784.02 1594.5,2789.5C 1529.83,2789.74 1465.16,2789.41 1400.5,2788.5C 1404.22,2779.84 1407.05,2770.84 1409,2761.5C 1409.83,2756.87 1410.33,2752.2 1410.5,2747.5C 1409.52,2733.45 1406.69,2719.79 1402,2706.5C 1379.44,2652.15 1363.77,2595.81 1355,2537.5C 1350.67,2501.53 1343.34,2466.2 1333,2431.5C 1329.81,2409.26 1327.48,2386.92 1326,2364.5C 1323.82,2309.47 1324.32,2254.47 1327.5,2199.5C 1342.39,2219.58 1356.55,2240.25 1370,2261.5C 1390.38,2300.88 1412.05,2339.55 1435,2377.5C 1437.36,2381.57 1440.19,2385.23 1443.5,2388.5C 1449.67,2376.82 1456.84,2365.82 1465,2355.5C 1488.28,2332.28 1506.62,2305.61 1520,2275.5C 1530.28,2245.95 1541.94,2216.95 1555,2188.5C 1566.08,2161.19 1573.24,2132.86 1576.5,2103.5C 1626.46,2158.49 1650.96,2223.49 1650,2298.5C 1655.37,2293.62 1660.87,2288.96 1666.5,2284.5 Z"/></g>
<g><path style="opacity:1" fill="#f7d08d" d="M 1666.5,2284.5 C 1666.5,2283.83 1666.83,2283.5 1667.5,2283.5C 1668.83,2301.83 1668.83,2320.17 1667.5,2338.5C 1667.83,2320.33 1667.5,2302.33 1666.5,2284.5 Z"/></g>
<g><path style="opacity:0.998" fill="#6f4535" d="M 1001.5,2331.5 C 1001.66,2333.86 1001.5,2336.19 1001,2338.5C 971.524,2326.33 949.857,2334.66 936,2363.5C 930.854,2385.07 937.021,2402.57 954.5,2416C 975.736,2427.68 995.069,2425.18 1012.5,2408.5C 1021.55,2454.1 1030.89,2499.77 1040.5,2545.5C 997.573,2498.36 945.24,2482.86 883.5,2499C 840.047,2518.8 814.214,2552.3 806,2599.5C 799.403,2663.07 819.903,2715.9 867.5,2758C 889.165,2775.49 913.832,2786.49 941.5,2791C 989.784,2796.25 1028.62,2779.75 1058,2741.5C 1071.95,2720.63 1080.12,2697.63 1082.5,2672.5C 1091.15,2687.79 1099.82,2703.13 1108.5,2718.5C 1101.74,2732.09 1093.57,2744.76 1084,2756.5C 1083.52,2757.45 1083.35,2758.45 1083.5,2759.5C 1024.89,2822.17 953.561,2842.67 869.5,2821C 852.559,2815.35 836.226,2808.35 820.5,2800C 805.609,2790.73 791.275,2780.73 777.5,2770C 762.368,2756.87 747.868,2743.04 734,2728.5C 724.304,2716.81 714.637,2705.14 705,2693.5C 686.49,2667.82 669.49,2641.15 654,2613.5C 648.888,2598.7 648.221,2583.7 652,2568.5C 653.592,2564.98 655.425,2561.65 657.5,2558.5C 662.968,2552.88 668.968,2547.71 675.5,2543C 681.892,2539.58 688.558,2537.08 695.5,2535.5C 689.991,2528.49 685.491,2520.82 682,2512.5C 670.375,2472.36 681.875,2440.86 716.5,2418C 738.927,2406.7 761.927,2405.53 785.5,2414.5C 779.485,2381.71 789.152,2354.54 814.5,2333C 853.312,2309.16 889.145,2313 922,2344.5C 927.926,2338.87 933.76,2333.04 939.5,2327C 951.535,2317.57 965.202,2313.57 980.5,2315C 987.877,2315.57 994.543,2317.9 1000.5,2322C 1001.37,2325.11 1001.7,2328.27 1001.5,2331.5 Z"/></g>
<g><path style="opacity:0.998" fill="#6f4535" d="M 2207.5,2378.5 C 2208.42,2390.91 2208.75,2402.57 2208.5,2413.5C 2214.66,2411.21 2220.99,2409.38 2227.5,2408C 2265.04,2405.35 2292.54,2420.51 2310,2453.5C 2320.44,2483.17 2316.28,2510.5 2297.5,2535.5C 2303.58,2537.03 2309.58,2538.86 2315.5,2541C 2321.34,2544.69 2327.01,2548.52 2332.5,2552.5C 2343.72,2567.08 2347.22,2583.41 2343,2601.5C 2340.2,2609.77 2336.86,2617.77 2333,2625.5C 2312.79,2659.26 2290.12,2691.26 2265,2721.5C 2237.48,2752.68 2205.98,2779.18 2170.5,2801C 2164.26,2803.45 2158.26,2806.45 2152.5,2810C 2106.24,2830.22 2058.57,2834.22 2009.5,2822C 1970.2,2810.37 1937.2,2789.2 1910.5,2758.5C 1905.58,2751.06 1900.41,2743.73 1895,2736.5C 1891.64,2730.33 1888.14,2724.33 1884.5,2718.5C 1894.18,2703.82 1902.85,2688.48 1910.5,2672.5C 1914.43,2708.63 1929.76,2739.13 1956.5,2764C 1992.32,2791.56 2031.99,2798.56 2075.5,2785C 2124.48,2767.02 2158.64,2733.86 2178,2685.5C 2192.79,2646.21 2193.13,2606.88 2179,2567.5C 2157.04,2518.74 2119.2,2493.08 2065.5,2490.5C 2020.24,2492.47 1982.9,2510.47 1953.5,2544.5C 1962.63,2498.71 1971.63,2453.04 1980.5,2407.5C 1996.38,2423.81 2014.72,2426.98 2035.5,2417C 2048.45,2410.03 2055.95,2399.2 2058,2384.5C 2060.33,2359.66 2049.83,2342.82 2026.5,2334C 2013.8,2330.83 2001.8,2332.33 1990.5,2338.5C 1991.39,2332.16 1992.39,2325.82 1993.5,2319.5C 2006.09,2314.23 2019.09,2313.06 2032.5,2316C 2048.19,2321.53 2060.86,2331.03 2070.5,2344.5C 2097.22,2317.16 2128.55,2310.32 2164.5,2324C 2187.35,2335.58 2201.68,2353.74 2207.5,2378.5 Z"/></g>
<g><path style="opacity:1" fill="#f5b78b" d="M 1001.5,2331.5 C 1004.74,2357.1 1008.41,2382.76 1012.5,2408.5C 995.069,2425.18 975.736,2427.68 954.5,2416C 937.021,2402.57 930.854,2385.07 936,2363.5C 949.857,2334.66 971.524,2326.33 1001,2338.5C 1001.5,2336.19 1001.66,2333.86 1001.5,2331.5 Z"/></g>
<g><path style="opacity:1" fill="#f5b88c" d="M 1980.5,2407.5 C 1984.12,2384.55 1987.46,2361.55 1990.5,2338.5C 2001.8,2332.33 2013.8,2330.83 2026.5,2334C 2049.83,2342.82 2060.33,2359.66 2058,2384.5C 2055.95,2399.2 2048.45,2410.03 2035.5,2417C 2014.72,2426.98 1996.38,2423.81 1980.5,2407.5 Z"/></g>
<g><path style="opacity:1" fill="#f6b88c" d="M 853.5,2337.5 C 882.04,2335.49 904.207,2346.15 920,2369.5C 934.139,2399.77 929.639,2426.94 906.5,2451C 889.726,2464.09 870.726,2469.09 849.5,2466C 825.263,2459.43 809.097,2444.26 801,2420.5C 793.823,2376.79 811.323,2349.13 853.5,2337.5 Z"/></g>
<g><path style="opacity:1" fill="#f6b88c" d="M 2065.5,2410.5 C 2065.09,2400.34 2066.09,2390.34 2068.5,2380.5C 2081.15,2349.05 2104.48,2334.55 2138.5,2337C 2176.93,2346.08 2195.43,2370.25 2194,2409.5C 2186.67,2444.83 2165,2463.83 2129,2466.5C 2093.94,2463.61 2072.78,2444.94 2065.5,2410.5 Z"/></g>
<g><path style="opacity:1" fill="#956535" d="M 2207.5,2378.5 C 2208.29,2379.61 2208.79,2380.94 2209,2382.5C 2209.73,2392.86 2209.57,2403.19 2208.5,2413.5C 2208.75,2402.57 2208.42,2390.91 2207.5,2378.5 Z"/></g>
<g><path style="opacity:1" fill="#af7b5e" d="M 2068.5,2380.5 C 2066.09,2390.34 2065.09,2400.34 2065.5,2410.5C 2064.35,2404.01 2064.18,2397.35 2065,2390.5C 2065.7,2386.89 2066.87,2383.56 2068.5,2380.5 Z"/></g>
<g><path style="opacity:1" fill="#f6b88c" d="M 2224.5,2423.5 C 2259.27,2419.63 2284.1,2433.29 2299,2464.5C 2308.72,2500.34 2297.56,2527.51 2265.5,2546C 2227.63,2559.38 2198.97,2548.71 2179.5,2514C 2166.96,2478.12 2176.62,2450.12 2208.5,2430C 2213.61,2426.94 2218.94,2424.77 2224.5,2423.5 Z"/></g>
<g><path style="opacity:1" fill="#f6b88c" d="M 739.5,2424.5 C 766.803,2420.1 789.303,2428.43 807,2449.5C 826.198,2481.11 823.031,2510.28 797.5,2537C 775.292,2553.74 751.292,2556.74 725.5,2546C 700.378,2530.59 688.878,2508.09 691,2478.5C 694.083,2461.08 702.583,2446.92 716.5,2436C 723.806,2431.3 731.473,2427.46 739.5,2424.5 Z"/></g>
<g><path style="opacity:1" fill="#f6b88c" d="M 1910.5,2672.5 C 1929.62,2631.48 1943.95,2588.81 1953.5,2544.5C 1982.9,2510.47 2020.24,2492.47 2065.5,2490.5C 2119.2,2493.08 2157.04,2518.74 2179,2567.5C 2193.13,2606.88 2192.79,2646.21 2178,2685.5C 2158.64,2733.86 2124.48,2767.02 2075.5,2785C 2031.99,2798.56 1992.32,2791.56 1956.5,2764C 1929.76,2739.13 1914.43,2708.63 1910.5,2672.5 Z"/></g>
<g><path style="opacity:1" fill="#f6b88c" d="M 1040.5,2545.5 C 1049.28,2589.5 1063.28,2631.84 1082.5,2672.5C 1080.12,2697.63 1071.95,2720.63 1058,2741.5C 1028.62,2779.75 989.784,2796.25 941.5,2791C 913.832,2786.49 889.165,2775.49 867.5,2758C 819.903,2715.9 799.403,2663.07 806,2599.5C 814.214,2552.3 840.047,2518.8 883.5,2499C 945.24,2482.86 997.573,2498.36 1040.5,2545.5 Z"/></g>
<g><path style="opacity:1" fill="#f5b88c" d="M 2282.5,2547.5 C 2309.49,2546.04 2326.99,2558.04 2335,2583.5C 2338.02,2612.99 2325.19,2631.15 2296.5,2638C 2269.19,2639.7 2252.36,2627.2 2246,2600.5C 2244.24,2573.11 2256.41,2555.44 2282.5,2547.5 Z"/></g>
<g><path style="opacity:1" fill="#f5b78c" d="M 693.5,2548.5 C 711.012,2546.61 725.845,2551.95 738,2564.5C 754.134,2589.15 751.301,2611.32 729.5,2631C 703.581,2645.89 681.748,2641.39 664,2617.5C 652.667,2595.58 655.834,2576.08 673.5,2559C 679.818,2554.68 686.484,2551.18 693.5,2548.5 Z"/></g>
<g><path style="opacity:0.979" fill="#fbe4c9" d="M 1108.5,2718.5 C 1120.67,2734.82 1133.34,2750.82 1146.5,2766.5C 1125.55,2763.7 1104.55,2761.36 1083.5,2759.5C 1083.35,2758.45 1083.52,2757.45 1084,2756.5C 1093.57,2744.76 1101.74,2732.09 1108.5,2718.5 Z"/></g>
<g><path style="opacity:0.98" fill="#fbe5c9" d="M 1884.5,2718.5 C 1888.14,2724.33 1891.64,2730.33 1895,2736.5C 1900.41,2743.73 1905.58,2751.06 1910.5,2758.5C 1889.53,2761.05 1868.53,2763.71 1847.5,2766.5C 1860.61,2751.07 1872.94,2735.07 1884.5,2718.5 Z"/></g>
</svg>
