<?xml version="1.0" encoding="UTF-8"?>
<!DOCTYPE svg PUBLIC "-//W3C//DTD SVG 1.1//EN" "http://www.w3.org/Graphics/SVG/1.1/DTD/svg11.dtd">
<svg xmlns="http://www.w3.org/2000/svg" version="1.1" width="3000px" height="3000px" style="shape-rendering:geometricPrecision; text-rendering:geometricPrecision; image-rendering:optimizeQuality; fill-rule:evenodd; clip-rule:evenodd" xmlns:xlink="http://www.w3.org/1999/xlink">
<g><path style="opacity:0.999" fill="#4958a6" d="M 1698.5,236.5 C 1708.85,235.326 1717.68,238.326 1725,245.5C 1789.58,324.401 1852.24,404.735 1913,486.5C 2088.33,729.167 2263.67,971.833 2439,1214.5C 2518.95,1327.44 2599.28,1440.11 2680,1552.5C 2694.83,1574.16 2709.16,1596.16 2723,1618.5C 2738.99,1644.88 2734.82,1667.38 2710.5,1686C 2699.81,1693.35 2688.48,1699.68 2676.5,1705C 2661.17,1711.33 2645.83,1717.67 2630.5,1724C 2603.09,1782.73 2593.92,1844.23 2603,1908.5C 2614.44,1966.88 2642.27,2015.71 2686.5,2055C 2695.66,2061.75 2704.99,2068.25 2714.5,2074.5C 2738.62,2065.11 2762.95,2064.28 2787.5,2072C 2807.93,2083.95 2814.1,2101.11 2806,2123.5C 2801.19,2131.98 2794.69,2138.81 2786.5,2144C 2781.67,2147.25 2776.67,2150.25 2771.5,2153C 2694.1,2191.53 2615.77,2228.2 2536.5,2263C 2164.38,2428.06 1787.72,2582.06 1406.5,2725C 1370.15,2738.34 1333.49,2750.67 1296.5,2762C 1286.16,2763.89 1276.49,2762.23 1267.5,2757C 1253.07,2745.91 1239.9,2733.41 1228,2719.5C 1178,2654.17 1128,2588.83 1078,2523.5C 940.667,2339.5 803.333,2155.5 666,1971.5C 561.022,1829.54 457.022,1686.88 354,1543.5C 293.937,1458.08 239.937,1368.75 192,1275.5C 184.238,1199.55 183.571,1123.55 190,1047.5C 198.889,957.174 224.889,872.174 268,792.5C 281.03,768.805 298.863,749.639 321.5,735C 330.352,730.742 339.352,726.742 348.5,723C 377.885,714.97 405.218,702.637 430.5,686C 487.306,658.097 544.973,632.097 603.5,608C 838.982,515.502 1077.32,430.502 1318.5,353C 1444.84,312.59 1571.5,273.757 1698.5,236.5 Z"/></g>
<g><path style="opacity:1" fill="#2f3c87" d="M 1655.5,284.5 C 1662.23,283.499 1666.56,286.166 1668.5,292.5C 1668.24,294.187 1667.57,295.687 1666.5,297C 1626.37,315.489 1585.03,330.823 1542.5,343C 1499.2,354.575 1456.2,367.242 1413.5,381C 1228.19,442.326 1042.86,503.659 857.5,565C 820.592,577.636 783.758,590.469 747,603.5C 743.42,601.427 742.586,598.427 744.5,594.5C 875.832,542.553 1008.17,493.053 1141.5,446C 1279.33,399.722 1417.33,354.055 1555.5,309C 1588.42,298.603 1621.75,290.437 1655.5,284.5 Z"/></g>
<g><path style="opacity:1" fill="#2f3c87" d="M 1747.5,334.5 C 1749.9,334.393 1751.74,335.393 1753,337.5C 1794.83,400.327 1837.83,462.327 1882,523.5C 1994.33,677.833 2106.67,832.167 2219,986.5C 2347.03,1159.87 2477.36,1331.54 2610,1501.5C 2634.33,1533.83 2658.67,1566.17 2683,1598.5C 2683.75,1601.79 2682.58,1604.29 2679.5,1606C 2674.27,1608.66 2668.93,1608.99 2663.5,1607C 2650.62,1591.79 2638.12,1576.29 2626,1560.5C 2571.95,1488.11 2518.28,1415.45 2465,1342.5C 2383.12,1236.4 2302.45,1129.4 2223,1021.5C 2145.35,921.859 2070.02,820.526 1997,717.5C 1939.59,635.02 1882.93,552.02 1827,468.5C 1799.75,425.668 1772.75,382.668 1746,339.5C 1745.39,337.505 1745.89,335.838 1747.5,334.5 Z"/></g>
<g><path style="opacity:1" fill="#2f3c87" d="M 1619.5,339.5 C 1626.37,339.538 1628.87,342.871 1627,349.5C 1625.83,354.186 1624.66,358.852 1623.5,363.5C 1635.85,364.451 1647.35,368.117 1658,374.5C 1675.02,365.945 1691.69,366.612 1708,376.5C 1710.77,369.801 1713.93,363.301 1717.5,357C 1727.31,351.896 1734.81,354.062 1740,363.5C 1740.67,365.833 1740.67,368.167 1740,370.5C 1737.55,377.393 1734.55,384.06 1731,390.5C 1729.75,393.077 1729.42,395.743 1730,398.5C 1749.68,421.021 1765.18,446.187 1776.5,474C 1784.76,497.581 1785.59,521.415 1779,545.5C 1770.43,567.034 1754.93,575.201 1732.5,570C 1724.95,565.45 1719.12,559.283 1715,551.5C 1703.67,529.534 1697.01,506.2 1695,481.5C 1693.87,453.09 1696.03,424.923 1701.5,397C 1697.28,390.726 1691.28,387.893 1683.5,388.5C 1679.8,388.158 1676.47,388.991 1673.5,391C 1677.38,399.395 1679.88,408.228 1681,417.5C 1686.13,446.724 1686.8,476.057 1683,505.5C 1680.25,528.508 1670.08,547.342 1652.5,562C 1627.1,575.028 1607.94,568.862 1595,543.5C 1589.28,526.541 1587.95,509.208 1591,491.5C 1594.62,470.321 1601.62,450.321 1612,431.5C 1621.92,417.076 1632.42,403.076 1643.5,389.5C 1636.97,382.761 1628.97,379.094 1619.5,378.5C 1609.79,410.929 1593.62,439.596 1571,464.5C 1560.8,475.03 1550.3,485.197 1539.5,495C 1529.57,502.716 1518.4,507.549 1506,509.5C 1496.83,508.916 1489.5,504.916 1484,497.5C 1480.67,489.167 1480.67,480.833 1484,472.5C 1495.37,444.459 1512.87,420.959 1536.5,402C 1554.05,387.725 1573.05,375.725 1593.5,366C 1599.46,364.508 1605.46,363.341 1611.5,362.5C 1613.02,355.781 1614.85,349.114 1617,342.5C 1618.04,341.627 1618.88,340.627 1619.5,339.5 Z"/></g>
<g><path style="opacity:1" fill="#4958a6" d="M 1602.5,378.5 C 1603.68,378.281 1604.68,378.614 1605.5,379.5C 1590.01,423.333 1563.67,459.166 1526.5,487C 1500.78,500.902 1492.62,494.068 1502,466.5C 1511.06,447.764 1523.56,431.597 1539.5,418C 1552.32,406.841 1565.99,396.841 1580.5,388C 1587.65,384.128 1594.98,380.961 1602.5,378.5 Z"/></g>
<g><path style="opacity:1" fill="#4958a6" d="M 1653.5,410.5 C 1657.58,438.767 1658.42,467.434 1656,496.5C 1654.43,510.779 1650.1,524.112 1643,536.5C 1637.79,543.349 1630.96,545.849 1622.5,544C 1615.9,539.252 1612.06,532.752 1611,524.5C 1609.96,495.654 1616.63,468.654 1631,443.5C 1638.51,432.471 1646.01,421.471 1653.5,410.5 Z"/></g>
<g><path style="opacity:1" fill="#4958a6" d="M 1721.5,423.5 C 1735.94,445.711 1747.77,469.378 1757,494.5C 1759.9,506.755 1760.23,519.088 1758,531.5C 1755.26,540.794 1749.09,544.294 1739.5,542C 1733.32,538.183 1729.15,532.683 1727,525.5C 1721.96,512.3 1718.96,498.633 1718,484.5C 1715.06,463.855 1716.22,443.521 1721.5,423.5 Z"/></g>
<g><path style="opacity:1" fill="#2f3c87" d="M 671.5,681.5 C 682.938,681.084 694.271,681.917 705.5,684C 724.456,690.429 733.623,703.596 733,723.5C 730.029,733.807 723.529,740.974 713.5,745C 693.05,752.756 671.884,756.256 650,755.5C 623.424,755.654 597.59,751.321 572.5,742.5C 562.141,748.554 556.974,757.554 557,769.5C 566.539,766.101 576.372,763.934 586.5,763C 641.698,761.066 695.031,770.066 746.5,790C 755.485,794.158 764.152,798.825 772.5,804C 794.35,820.277 795.017,837.277 774.5,855C 765.179,860.441 755.179,864.108 744.5,866C 719.44,869.664 694.44,869.331 669.5,865C 660.017,863.293 650.684,861.293 641.5,859C 653.788,868.951 664.288,880.451 673,893.5C 681.406,909.097 682.406,925.097 676,941.5C 670.975,947.864 664.475,951.697 656.5,953C 597.256,952.721 553.089,926.888 524,875.5C 515.842,860.699 511.675,844.865 511.5,828C 510.789,820.576 512.122,813.576 515.5,807C 505.154,801.987 501.321,793.82 504,782.5C 506.296,777.86 509.963,775.194 515,774.5C 520.978,776.403 526.811,778.737 532.5,781.5C 534.029,781.471 535.196,780.804 536,779.5C 535.914,762.92 541.081,748.254 551.5,735.5C 546.319,732.655 541.152,729.655 536,726.5C 534.52,719.325 537.353,715.825 544.5,716C 549.833,718 555.167,720 560.5,722C 562.167,722.667 563.833,722.667 565.5,722C 597.218,698.929 632.552,685.429 671.5,681.5 Z"/></g>
<g><path style="opacity:1" fill="#4958a6" d="M 668.5,704.5 C 682.679,702.64 696.012,705.14 708.5,712C 713.66,715.764 713.66,719.431 708.5,723C 701.868,726.655 694.868,729.321 687.5,731C 665.337,735.015 643.004,736.348 620.5,735C 610.647,734.481 600.981,732.981 591.5,730.5C 616.177,718.608 641.843,709.942 668.5,704.5 Z"/></g>
<g><path style="opacity:1" fill="#2f3c87" d="M 370.5,773.5 C 378.578,771.96 384.744,774.626 389,781.5C 467.333,891.833 545.667,1002.17 624,1112.5C 791.667,1353.83 959.333,1595.17 1127,1836.5C 1199.23,1943.55 1272.39,2049.88 1346.5,2155.5C 1341.88,2165.32 1336.05,2165.98 1329,2157.5C 1252.73,2054.63 1175.73,1952.3 1098,1850.5C 980.504,1690 864.171,1528.67 749,1366.5C 615.75,1177.23 486.417,985.23 361,790.5C 360.183,787.036 360.517,783.702 362,780.5C 364.441,777.546 367.275,775.213 370.5,773.5 Z"/></g>
<g><path style="opacity:1" fill="#4958a6" d="M 589.5,787.5 C 635.231,786.414 680.231,791.581 724.5,803C 736.209,805.897 746.876,810.897 756.5,818C 761.617,822.391 763.783,827.891 763,834.5C 762.654,836.848 761.487,838.681 759.5,840C 714.921,848.444 671.254,844.777 628.5,829C 609.326,822.617 591.326,813.951 574.5,803C 570.694,800.105 567.36,796.772 564.5,793C 565.623,791.956 566.956,791.29 568.5,791C 575.69,790.124 582.69,788.958 589.5,787.5 Z"/></g>
<g><path style="opacity:1" fill="#2f3c87" d="M 317.5,805.5 C 326.157,803.679 330.323,807.012 330,815.5C 288.662,875.87 261.329,942.203 248,1014.5C 240.478,1056.49 236.144,1098.83 235,1141.5C 234.354,1183.85 234.687,1226.18 236,1268.5C 231.601,1272.65 227.601,1272.32 224,1267.5C 213.947,1181.91 215.614,1096.58 229,1011.5C 239.439,952.179 259.773,896.512 290,844.5C 298.22,830.789 307.386,817.789 317.5,805.5 Z"/></g>
<g><path style="opacity:1" fill="#4958a6" d="M 536.5,821.5 C 573.044,843.532 607.21,868.865 639,897.5C 644.029,904.452 644.695,911.785 641,919.5C 638.137,922.515 634.637,924.349 630.5,925C 617.78,925.54 606.113,922.207 595.5,915C 568.153,898.12 548.986,874.62 538,844.5C 536.738,836.887 536.238,829.22 536.5,821.5 Z"/></g>
<g><path style="opacity:1" fill="#2f3c87" d="M 2451.5,1407.5 C 2468.44,1407.55 2482.28,1414.22 2493,1427.5C 2515.13,1455.79 2529.13,1487.79 2535,1523.5C 2542.85,1528.01 2551.02,1531.84 2559.5,1535C 2569.02,1542.17 2570.02,1550.5 2562.5,1560C 2552.76,1562.26 2543.76,1560.43 2535.5,1554.5C 2532.28,1565.89 2525.45,1574.55 2515,1580.5C 2516.62,1585.64 2517.95,1590.97 2519,1596.5C 2520.28,1608.61 2516.95,1619.28 2509,1628.5C 2505.15,1631.69 2501.31,1634.86 2497.5,1638C 2501.21,1643.24 2505.04,1648.41 2509,1653.5C 2509.16,1661 2505.66,1663.5 2498.5,1661C 2493.59,1655.58 2488.25,1650.75 2482.5,1646.5C 2454.85,1658.92 2426.51,1660.76 2397.5,1652C 2381.14,1646.25 2368.97,1635.75 2361,1620.5C 2357.38,1610 2357.71,1599.67 2362,1589.5C 2370.94,1577.74 2382.77,1573.24 2397.5,1576C 2415.54,1579.68 2432.21,1586.68 2447.5,1597C 2457.92,1603.58 2467.92,1610.75 2477.5,1618.5C 2493.66,1611.71 2496.99,1600.88 2487.5,1586C 2448.26,1583.52 2410.93,1573.86 2375.5,1557C 2354.48,1545.65 2337.65,1529.81 2325,1509.5C 2317.3,1497.52 2315.63,1484.85 2320,1471.5C 2329.42,1458.21 2342.25,1452.71 2358.5,1455C 2369.84,1456.25 2380.84,1458.92 2391.5,1463C 2438.25,1484.08 2475.42,1516.25 2503,1559.5C 2508.37,1560.3 2512.03,1557.96 2514,1552.5C 2515.52,1549.51 2516.02,1546.51 2515.5,1543.5C 2488.52,1526.36 2466.36,1504.36 2449,1477.5C 2438.63,1462.38 2433.96,1445.72 2435,1427.5C 2437.01,1417.75 2442.51,1411.08 2451.5,1407.5 Z"/></g>
<g><path style="opacity:1" fill="#4958a6" d="M 2456.5,1423.5 C 2460.6,1423.37 2464.27,1424.53 2467.5,1427C 2490.48,1448.8 2504.65,1475.3 2510,1506.5C 2485.25,1488.1 2466.92,1464.76 2455,1436.5C 2454.06,1431.94 2454.56,1427.61 2456.5,1423.5 Z"/></g>
<g><path style="opacity:1" fill="#4958a6" d="M 2341.5,1477.5 C 2359.1,1477.29 2375.43,1481.79 2390.5,1491C 2421.06,1509.31 2447.73,1532.31 2470.5,1560C 2434.7,1556.96 2401.37,1546.29 2370.5,1528C 2357.91,1518.75 2347.41,1507.58 2339,1494.5C 2335.77,1490.1 2335.1,1485.43 2337,1480.5C 2338.65,1479.6 2340.15,1478.6 2341.5,1477.5 Z"/></g>
<g><path style="opacity:1" fill="#4958a6" d="M 2382.5,1593.5 C 2403.68,1594.5 2423.01,1601 2440.5,1613C 2447.52,1617.17 2454.18,1621.84 2460.5,1627C 2441.43,1636.21 2421.77,1637.88 2401.5,1632C 2391.33,1627.17 2383.83,1619.67 2379,1609.5C 2376.12,1603.06 2377.29,1597.73 2382.5,1593.5 Z"/></g>
<g><path style="opacity:1" fill="#2f3c87" d="M 2667.5,1628.5 C 2679.35,1628.47 2684.52,1634.47 2683,1646.5C 2682.12,1649.1 2680.62,1651.27 2678.5,1653C 2630.34,1672.61 2582.34,1692.61 2534.5,1713C 2460.09,1742.14 2385.75,1771.47 2311.5,1801C 2072.12,1899.68 1831.79,1996.02 1590.5,2090C 1538.47,2110.12 1485.8,2128.46 1432.5,2145C 1422.36,2148.12 1412.03,2149.45 1401.5,2149C 1400.32,2146.31 1398.48,2144.15 1396,2142.5C 1395.35,2140.76 1395.52,2139.1 1396.5,2137.5C 1421.6,2126.52 1446.93,2116.02 1472.5,2106C 1798.85,1977.22 2125.52,1849.22 2452.5,1722C 2525.19,1692.98 2596.86,1661.82 2667.5,1628.5 Z"/></g>
<g><path style="opacity:1" fill="#fefefe" d="M 2594.5,1738.5 C 2595.38,1738.37 2596.04,1738.7 2596.5,1739.5C 2566.47,1820.94 2565.97,1902.6 2595,1984.5C 2610.45,2026.75 2633.95,2063.75 2665.5,2095.5C 2589.47,2130.01 2513.13,2163.84 2436.5,2197C 2085.75,2347.81 1735.08,2498.81 1384.5,2650C 1383.17,2650.67 1381.83,2650.67 1380.5,2650C 1367.47,2642.64 1356.64,2632.81 1348,2620.5C 1337.52,2605.21 1328.85,2588.88 1322,2571.5C 1283.11,2475.38 1284.11,2379.72 1325,2284.5C 1330.67,2264.98 1341.84,2249.48 1358.5,2238C 1368.61,2231.61 1379.28,2226.28 1390.5,2222C 1687.83,2104.33 1985.17,1986.67 2282.5,1869C 2387.21,1826.94 2491.21,1783.44 2594.5,1738.5 Z"/></g>
<g><path style="opacity:1" fill="#2f3c87" d="M 1443.5,1806.5 C 1461.68,1804.67 1474.51,1812 1482,1828.5C 1486.73,1840.89 1488.9,1853.72 1488.5,1867C 1486.75,1921.79 1468.75,1970.29 1434.5,2012.5C 1437.73,2019.56 1443.07,2024.39 1450.5,2027C 1460.07,2028.17 1469.4,2027.34 1478.5,2024.5C 1481.53,1991.9 1492.37,1962.23 1511,1935.5C 1521.77,1921.05 1535.6,1910.89 1552.5,1905C 1572.91,1901.75 1583.24,1910.42 1583.5,1931C 1581.5,1952.33 1574,1971.49 1561,1988.5C 1548.52,2004.32 1534.68,2018.82 1519.5,2032C 1513.27,2036.56 1506.77,2040.73 1500,2044.5C 1499.26,2054.89 1498.26,2065.22 1497,2075.5C 1489.02,2082.84 1482.36,2081.84 1477,2072.5C 1476.5,2066.51 1476.33,2060.51 1476.5,2054.5C 1450.68,2060.67 1429.68,2053.34 1413.5,2032.5C 1392.67,2051.88 1370,2054.38 1345.5,2040C 1339.08,2036.08 1333.08,2031.58 1327.5,2026.5C 1320.28,2033.89 1312.61,2040.72 1304.5,2047C 1298.06,2049.56 1294.9,2047.39 1295,2040.5C 1302.56,2032.38 1309.39,2023.71 1315.5,2014.5C 1279.32,1973.14 1264.49,1925.14 1271,1870.5C 1279.76,1845.04 1296.93,1836.54 1322.5,1845C 1337.86,1851.36 1348.03,1862.53 1353,1878.5C 1362.95,1922.86 1358.45,1965.69 1339.5,2007C 1351.47,2023.16 1367.14,2028.83 1386.5,2024C 1390.11,2022.06 1393.44,2019.72 1396.5,2017C 1398.56,2015.28 1400.22,2013.28 1401.5,2011C 1381.19,1959.11 1380.36,1906.95 1399,1854.5C 1404.75,1839.49 1413.58,1826.66 1425.5,1816C 1431.15,1812.01 1437.15,1808.84 1443.5,1806.5 Z"/></g>
<g><path style="opacity:1" fill="#4958a6" d="M 1447.5,1838.5 C 1450.04,1838.1 1452.21,1838.77 1454,1840.5C 1456.32,1843.78 1457.65,1847.44 1458,1851.5C 1462.43,1900.79 1450.76,1945.79 1423,1986.5C 1414.08,1949.43 1414.41,1912.43 1424,1875.5C 1427.84,1860.46 1435.67,1848.12 1447.5,1838.5 Z"/></g>
<g><path style="opacity:1" fill="#4958a6" d="M 1301.5,1858.5 C 1319.89,1860.05 1330.39,1870.05 1333,1888.5C 1336.84,1916.28 1336.17,1943.95 1331,1971.5C 1329.45,1978.82 1327.12,1985.82 1324,1992.5C 1294.69,1956.91 1283.03,1916.24 1289,1870.5C 1291.21,1864.34 1295.37,1860.34 1301.5,1858.5 Z"/></g>
<g><path style="opacity:1" fill="#4b59a7" d="M 2482.5,1872.5 C 2488.36,1870.95 2491.7,1873.12 2492.5,1879C 2492.36,1881.15 2491.36,1882.82 2489.5,1884C 2413.77,1919.53 2337.1,1952.87 2259.5,1984C 2087.57,2058.75 1914.9,2131.75 1741.5,2203C 1701.58,2219.14 1661.58,2234.97 1621.5,2250.5C 1621.8,2274.94 1623.47,2299.27 1626.5,2323.5C 1729.05,2279.06 1831.72,2234.89 1934.5,2191C 2033.17,2150.33 2131.83,2109.67 2230.5,2069C 2286.48,2043.84 2342.82,2019.51 2399.5,1996C 2425.51,1986.33 2451.85,1977.66 2478.5,1970C 2488.62,1967.55 2494.62,1971.39 2496.5,1981.5C 2496.02,1986.82 2493.36,1990.65 2488.5,1993C 2461.72,2007.39 2434.39,2020.72 2406.5,2033C 2345.61,2057.28 2284.61,2081.28 2223.5,2105C 2146.74,2137.59 2069.74,2169.59 1992.5,2201C 1871.58,2249.2 1750.58,2297.2 1629.5,2345C 1628.87,2346.74 1628.54,2348.57 1628.5,2350.5C 1630.74,2374.15 1632.74,2397.82 1634.5,2421.5C 1935.31,2304.76 2233.64,2181.93 2529.5,2053C 2542.51,2051.68 2548.68,2057.51 2548,2070.5C 2547.53,2071.93 2546.7,2073.1 2545.5,2074C 2247.37,2207.38 1945.37,2331.38 1639.5,2446C 1638.34,2447.01 1637.68,2448.34 1637.5,2450C 1638.85,2456.46 1639.35,2462.96 1639,2469.5C 1633.99,2463.15 1628.32,2457.49 1622,2452.5C 1581.5,2467.11 1541.16,2482.11 1501,2497.5C 1498.92,2502.65 1496.59,2507.65 1494,2512.5C 1493.36,2508.51 1492.86,2504.51 1492.5,2500.5C 1473.98,2506.73 1455.48,2513.06 1437,2519.5C 1429.73,2517.64 1427.06,2512.97 1429,2505.5C 1429.47,2504.07 1430.3,2502.9 1431.5,2502C 1450.13,2494.4 1468.79,2486.9 1487.5,2479.5C 1488.66,2475.2 1488.83,2470.87 1488,2466.5C 1485.13,2445.57 1482.96,2424.57 1481.5,2403.5C 1457.64,2412.09 1433.98,2421.26 1410.5,2431C 1405.37,2431.93 1402.7,2429.76 1402.5,2424.5C 1402.39,2422.63 1403.06,2421.13 1404.5,2420C 1428.96,2409.02 1453.46,2398.19 1478,2387.5C 1476.96,2361.46 1475.12,2335.46 1472.5,2309.5C 1456.98,2314.73 1441.48,2320.06 1426,2325.5C 1419.55,2323.62 1416.89,2319.29 1418,2312.5C 1419.17,2311.33 1420.33,2310.17 1421.5,2309C 1471.9,2283.97 1522.9,2260.3 1574.5,2238C 1690.27,2190.11 1806.27,2142.78 1922.5,2096C 2075.62,2029.74 2229.96,1966.4 2385.5,1906C 2417.75,1894.31 2450.09,1883.14 2482.5,1872.5 Z"/></g>
<g><path style="opacity:1" fill="#4958a6" d="M 1558.5,1927.5 C 1565.82,1926.99 1568.66,1930.33 1567,1937.5C 1555.05,1969.12 1534.71,1993.78 1506,2011.5C 1509.78,1988.5 1518.44,1967.5 1532,1948.5C 1539.87,1940.11 1548.7,1933.11 1558.5,1927.5 Z"/></g>
<g><path style="opacity:1" fill="#2f3c87" d="M 2728.5,2114.5 C 2737.5,2114.33 2741.33,2118.66 2740,2127.5C 2739.22,2129.29 2738.05,2130.79 2736.5,2132C 2704.42,2149.87 2671.42,2165.87 2637.5,2180C 2483.28,2245.61 2328.95,2310.94 2174.5,2376C 1929.42,2477.92 1682.76,2575.92 1434.5,2670C 1432.43,2670.54 1430.6,2670.04 1429,2668.5C 1427.36,2663.57 1428.86,2660.07 1433.5,2658C 1770.19,2518.66 2106.19,2377.66 2441.5,2235C 2497.93,2208.79 2554.6,2183.12 2611.5,2158C 2649.95,2141.8 2688.95,2127.3 2728.5,2114.5 Z"/></g>
<g><path style="opacity:1" fill="#2f3c87" d="M 1263.5,2234.5 C 1269.4,2233.49 1274.57,2234.82 1279,2238.5C 1279.98,2240.37 1280.48,2242.37 1280.5,2244.5C 1243.06,2346.16 1230.89,2450.83 1244,2558.5C 1250.29,2601.34 1261.13,2643.01 1276.5,2683.5C 1274.52,2687.7 1271.69,2688.37 1268,2685.5C 1213.99,2563.39 1202.65,2437.39 1234,2307.5C 1240.42,2284.25 1248.42,2261.58 1258,2239.5C 1259.73,2237.6 1261.56,2235.93 1263.5,2234.5 Z"/></g>
<g><path style="opacity:1" fill="#fdfdfe" d="M 1554.5,2387.5 C 1572.03,2401.35 1588.36,2416.69 1603.5,2433.5C 1573.85,2445.91 1544.02,2457.91 1514,2469.5C 1526.67,2441.83 1540.17,2414.49 1554.5,2387.5 Z"/></g>
</svg>
