<?xml version="1.0" encoding="UTF-8"?>
<!DOCTYPE svg PUBLIC "-//W3C//DTD SVG 1.1//EN" "http://www.w3.org/Graphics/SVG/1.1/DTD/svg11.dtd">
<svg xmlns="http://www.w3.org/2000/svg" version="1.1" width="3000px" height="3000px" style="shape-rendering:geometricPrecision; text-rendering:geometricPrecision; image-rendering:optimizeQuality; fill-rule:evenodd; clip-rule:evenodd" xmlns:xlink="http://www.w3.org/1999/xlink">
<g><path style="opacity:0.997" fill="#427638" d="M 2339.5,1905.5 C 2338.43,1892.74 2336.6,1880.07 2334,1867.5C 2332.21,1849.18 2330.55,1830.84 2329,1812.5C 2329.84,1667.62 2317.51,1523.95 2292,1381.5C 2279.79,1323.55 2267.79,1265.55 2256,1207.5C 2250.86,1178.95 2246.69,1150.29 2243.5,1121.5C 2233.29,1006.33 2207.79,894.667 2167,786.5C 2131.24,693.642 2090.57,602.976 2045,514.5C 2005.16,534.337 1978.16,565.337 1964,607.5C 1960.09,622.072 1958.26,636.905 1958.5,652C 1960.04,682.209 1962.2,712.376 1965,742.5C 1968.12,777.896 1963.62,812.23 1951.5,845.5C 1942.58,841.444 1934.74,835.777 1928,828.5C 1918.51,816.185 1909.51,803.518 1901,790.5C 1892.24,780.547 1881.74,773.214 1869.5,768.5C 1869.42,767.07 1869.75,765.736 1870.5,764.5C 1868.77,734.832 1866.6,705.166 1864,675.5C 1860.38,636.843 1865.21,599.343 1878.5,563C 1808.26,573.103 1737.59,577.77 1666.5,577C 1640.83,577.667 1615.17,577.667 1589.5,577C 1580.41,576.239 1571.41,574.906 1562.5,573C 1538.58,566.353 1514.58,560.019 1490.5,554C 1444.12,545.138 1397.79,545.471 1351.5,555C 1305.77,564.766 1260.44,576.099 1215.5,589C 1195.73,595.222 1176.39,602.556 1157.5,611C 1125.19,626.488 1093.19,642.488 1061.5,659C 1029.37,673.822 996.373,686.489 962.5,697C 916.966,710.134 871.299,722.8 825.5,735C 793.383,743.86 762.05,754.86 731.5,768C 704.759,781.038 677.759,793.704 650.5,806C 626.047,815.717 600.713,819.384 574.5,817C 561.126,815.662 547.793,813.995 534.5,812C 411.368,790.257 288.368,768.09 165.5,745.5C 195.573,709.591 227.907,675.758 262.5,644C 285.197,625.316 309.531,608.982 335.5,595C 375.077,576.546 413.744,556.546 451.5,535C 467.5,523.667 483.5,512.333 499.5,501C 542.409,465.084 586.742,431.084 632.5,399C 675.976,372.099 722.309,351.432 771.5,337C 966.078,282.606 1163.41,269.273 1363.5,297C 1407.63,304.867 1450.97,315.867 1493.5,330C 1503.43,332.649 1513.43,334.982 1523.5,337C 1554.07,341.457 1584.73,345.124 1615.5,348C 1647.06,352.472 1677.39,361.138 1706.5,374C 1733.17,386 1759.83,398 1786.5,410C 1826.49,423.33 1866.49,436.663 1906.5,450C 1919.93,455.255 1933.1,461.088 1946,467.5C 1977.37,439.556 2013.54,420.056 2054.5,409C 2165.61,381.823 2266.95,402.156 2358.5,470C 2402.84,505.179 2435.68,549.012 2457,601.5C 2463.06,617.694 2468.73,634.028 2474,650.5C 2484.02,687.256 2494.36,723.922 2505,760.5C 2515,793.242 2531,822.575 2553,848.5C 2566.91,864.076 2583.74,875.242 2603.5,882C 2611.37,884.015 2619.37,884.848 2627.5,884.5C 2629.21,916.199 2631.21,947.866 2633.5,979.5C 2582.78,981.21 2538.78,965.043 2501.5,931C 2466.14,897.136 2439.64,857.302 2422,811.5C 2407.09,765.208 2393.43,718.541 2381,671.5C 2354.15,579.653 2294.32,522.153 2201.5,499C 2163.82,490.349 2126.15,490.349 2088.5,499C 2122.21,540.701 2154.37,583.535 2185,627.5C 2226.16,689.158 2266.83,751.158 2307,813.5C 2352.79,884.385 2393.45,958.385 2429,1035.5C 2438.92,1058.93 2448.25,1082.6 2457,1106.5C 2471.13,1150.03 2484.8,1193.69 2498,1237.5C 2508.46,1268.42 2521.13,1298.42 2536,1327.5C 2554.43,1360.69 2572.1,1394.36 2589,1428.5C 2604.16,1461.64 2617.16,1495.64 2628,1530.5C 2684.48,1723.22 2725.48,1919.22 2751,2118.5C 2761.51,2207.41 2771.17,2296.41 2780,2385.5C 2786.24,2420.14 2793.91,2454.48 2803,2488.5C 2808.08,2510.05 2810.91,2531.88 2811.5,2554C 2812.18,2579.78 2805.35,2603.28 2791,2624.5C 2790.04,2625.89 2788.71,2626.56 2787,2626.5C 2769.26,2623.09 2755.6,2613.76 2746,2598.5C 2741.27,2591.43 2736.93,2584.09 2733,2576.5C 2700.6,2497.69 2661.93,2422.36 2617,2350.5C 2600.82,2326.81 2584.16,2303.48 2567,2280.5C 2526.62,2229.79 2486.62,2178.79 2447,2127.5C 2413.99,2083.18 2386.32,2035.51 2364,1984.5C 2353.88,1958.65 2345.71,1932.31 2339.5,1905.5 Z"/></g>
<g><path style="opacity:1" fill="#efca76" d="M 913.5,370.5 C 952.105,369.752 990.438,372.585 1028.5,379C 1033.86,381.797 1034.86,385.797 1031.5,391C 1029.3,392.022 1026.96,392.522 1024.5,392.5C 987.733,386.778 950.733,384.278 913.5,385C 906.899,380.171 906.899,375.338 913.5,370.5 Z"/></g>
<g><path style="opacity:1" fill="#f3cd78" d="M 1349.5,421.5 C 1508.79,417.877 1666.46,432.044 1822.5,464C 1867.3,473.69 1911.97,484.023 1956.5,495C 1963.5,498.139 1965.33,503.306 1962,510.5C 1960.5,512 1959,513.5 1957.5,515C 1951.07,515.478 1944.73,514.812 1938.5,513C 1816,481.195 1691.67,459.862 1565.5,449C 1409.84,436.818 1255.17,444.485 1101.5,472C 978.307,494.839 856.974,525.173 737.5,563C 590.699,610.377 445.366,661.71 301.5,717C 291.586,718.081 287.419,713.581 289,703.5C 290.588,698.948 293.755,696.115 298.5,695C 422.586,647.637 547.586,602.637 673.5,560C 814.262,512.982 957.596,475.982 1103.5,449C 1185.11,435.054 1267.11,425.887 1349.5,421.5 Z"/></g>
<g><path style="opacity:1" fill="#f3cc78" d="M 881.5,427.5 C 889.124,427.972 891.957,431.972 890,439.5C 876.309,448.73 861.142,453.563 844.5,454C 830.5,454.667 816.5,454.667 802.5,454C 755.57,449.805 708.57,448.638 661.5,450.5C 654.085,449.686 651.751,445.686 654.5,438.5C 655.5,437.667 656.5,436.833 657.5,436C 707.247,434.561 756.914,435.894 806.5,440C 824.979,441.339 843.313,440.339 861.5,437C 868.691,434.673 875.357,431.506 881.5,427.5 Z"/></g>
<g><path style="opacity:1" fill="#f2cc77" d="M 736.5,585.5 C 743.985,584.829 747.152,588.163 746,595.5C 735.036,607.44 725.036,620.106 716,633.5C 703.493,654.51 691.493,675.843 680,697.5C 667.582,720.59 652.082,741.424 633.5,760C 628.891,762.426 625.391,761.26 623,756.5C 622.294,754.029 622.627,751.695 624,749.5C 635.469,737.704 645.802,725.037 655,711.5C 671.919,682.663 688.586,653.663 705,624.5C 713.878,610.129 724.378,597.129 736.5,585.5 Z"/></g>
<g><path style="opacity:1" fill="#f4cd78" d="M 2212.5,717.5 C 2215.65,717.211 2218.65,717.711 2221.5,719C 2224.95,722.734 2227.79,726.9 2230,731.5C 2244.6,761.03 2257.27,791.363 2268,822.5C 2332.93,1035.29 2398.26,1247.95 2464,1460.5C 2473.61,1489.32 2483.61,1517.98 2494,1546.5C 2514.39,1597.01 2534.39,1647.67 2554,1698.5C 2577.81,1768.21 2596.81,1839.21 2611,1911.5C 2641.74,2067.22 2672.74,2222.88 2704,2378.5C 2705.02,2384.96 2702.52,2389.46 2696.5,2392C 2689.38,2394.03 2684.88,2391.53 2683,2384.5C 2651.21,2227.22 2619.54,2069.89 2588,1912.5C 2573.11,1835.27 2552.44,1759.6 2526,1685.5C 2497.39,1615.94 2470.72,1545.6 2446,1474.5C 2383.36,1270.59 2321.02,1066.59 2259,862.5C 2245.43,816.79 2227.77,772.79 2206,730.5C 2205.48,724.868 2207.65,720.535 2212.5,717.5 Z"/></g>
<g><path style="opacity:0.999" fill="#fade1b" d="M 1869.5,768.5 C 1881.74,773.214 1892.24,780.547 1901,790.5C 1909.51,803.518 1918.51,816.185 1928,828.5C 1934.74,835.777 1942.58,841.444 1951.5,845.5C 1970.53,855.679 1990.2,864.846 2010.5,873C 2042.95,888.771 2071.45,909.938 2096,936.5C 2135.7,982.68 2172.87,1030.68 2207.5,1080.5C 2179.42,1055.26 2161.25,1060.92 2153,1097.5C 2149.42,1116.84 2147.92,1136.34 2148.5,1156C 2149.36,1207.83 2149.69,1259.66 2149.5,1311.5C 2143.14,1312.25 2136.8,1313.25 2130.5,1314.5C 2132.42,1327.01 2137.09,1338.34 2144.5,1348.5C 2146.25,1346.75 2148.25,1345.42 2150.5,1344.5C 2150.88,1382.7 2149.88,1420.7 2147.5,1458.5C 2143.43,1457.82 2139.43,1456.82 2135.5,1455.5C 2131.85,1463.89 2129.19,1472.72 2127.5,1482C 2127.59,1483.11 2127.92,1484.11 2128.5,1485C 2134.14,1486.66 2139.81,1488.16 2145.5,1489.5C 2144.14,1512.39 2141.14,1535.06 2136.5,1557.5C 2130.36,1561.07 2124.36,1564.91 2118.5,1569C 2121.46,1573.75 2124.29,1578.58 2127,1583.5C 2127.76,1585.06 2128.93,1586.06 2130.5,1586.5C 2125.07,1610.53 2118.24,1634.2 2110,1657.5C 2100.67,1682.83 2091.33,1708.17 2082,1733.5C 2081.02,1734.81 2079.85,1735.81 2078.5,1736.5C 2078.5,1739.17 2078.5,1741.83 2078.5,1744.5C 2069.26,1770.74 2061.09,1797.4 2054,1824.5C 2047.53,1849.4 2041.53,1874.4 2036,1899.5C 2024.09,1957.9 2011.76,2016.23 1999,2074.5C 1988.68,2118.14 1968.68,2156.47 1939,2189.5C 1925.53,2203.97 1911.7,2218.14 1897.5,2232C 1870.64,2256.7 1843.97,2281.53 1817.5,2306.5C 1814.44,2305.53 1811.44,2304.7 1808.5,2304C 1805.87,2309.38 1803.54,2314.88 1801.5,2320.5C 1778.08,2339.74 1753.91,2358.08 1729,2375.5C 1728.54,2374.91 1728.37,2374.24 1728.5,2373.5C 1729,2369.98 1729.67,2366.48 1730.5,2363C 1730.17,2362.5 1729.83,2362 1729.5,2361.5C 1723.48,2359.81 1717.82,2357.64 1712.5,2355C 1705.76,2364.07 1699.43,2373.4 1693.5,2383C 1697.36,2386.09 1701.36,2388.92 1705.5,2391.5C 1656.53,2420.82 1605.86,2447.32 1553.5,2471C 1502.63,2493.01 1451.96,2515.51 1401.5,2538.5C 1400.83,2527.01 1400.17,2515.67 1399.5,2504.5C 1393.5,2504.5 1387.5,2504.5 1381.5,2504.5C 1381.5,2516.5 1381.5,2528.5 1381.5,2540.5C 1386.17,2540.5 1390.83,2540.5 1395.5,2540.5C 1339.84,2566.49 1286.5,2596.32 1235.5,2630C 1224.38,2638.08 1216.55,2648.58 1212,2661.5C 1208.63,2690.13 1221.13,2702.63 1249.5,2699C 1255.2,2697.82 1260.87,2696.49 1266.5,2695C 1300.92,2684.14 1335.26,2672.97 1369.5,2661.5C 1338.13,2675.01 1306.13,2687.17 1273.5,2698C 1200.97,2722.6 1142.47,2704.1 1098,2642.5C 1081.62,2616.73 1069.28,2589.06 1061,2559.5C 1051.6,2522.57 1041.27,2485.9 1030,2449.5C 1016.89,2414.26 998.888,2381.93 976,2352.5C 954.712,2325.54 933.045,2298.88 911,2272.5C 841.397,2181.91 796.73,2079.91 777,1966.5C 763.527,1890.7 759.193,1814.37 764,1737.5C 771.124,1638.54 787.791,1541.21 814,1445.5C 829.32,1388.21 846.653,1331.54 866,1275.5C 884.529,1225.65 913.362,1182.82 952.5,1147C 965.167,1136.33 977.833,1125.67 990.5,1115C 1069.23,1055.45 1151.57,1001.12 1237.5,952C 1319.76,906.91 1405.76,870.577 1495.5,843C 1587.69,815.035 1680.69,790.035 1774.5,768C 1806.26,760.593 1837.93,760.76 1869.5,768.5 Z"/></g>
<g><path style="opacity:1" fill="#f7e4b9" d="M 1865.5,849.5 C 1871.81,855.146 1877.81,861.146 1883.5,867.5C 1875.5,876.167 1867.17,884.5 1858.5,892.5C 1852.35,886.848 1846.35,881.015 1840.5,875C 1849.04,866.632 1857.37,858.132 1865.5,849.5 Z"/></g>
<g><path style="opacity:1" fill="#f7e4b8" d="M 1967.5,915.5 C 1975.27,918.704 1982.94,922.204 1990.5,926C 1985.22,936.019 1980.22,946.185 1975.5,956.5C 1974.83,956.833 1974.17,957.167 1973.5,957.5C 1966.37,954.769 1959.7,951.269 1953.5,947C 1958.32,936.537 1962.98,926.037 1967.5,915.5 Z"/></g>
<g><path style="opacity:1" fill="#f7e4b8" d="M 1824.5,928.5 C 1835.88,933.021 1846.88,938.354 1857.5,944.5C 1852.4,954.641 1847.4,964.807 1842.5,975C 1841.5,975.667 1840.5,975.667 1839.5,975C 1829.62,970.227 1819.95,965.227 1810.5,960C 1815.32,949.537 1819.98,939.037 1824.5,928.5 Z"/></g>
<g><path style="opacity:1" fill="#f7e4b8" d="M 1742.5,941.5 C 1752.69,946.851 1762.53,952.851 1772,959.5C 1772.67,960.5 1772.67,961.5 1772,962.5C 1767.3,969.03 1762.8,975.697 1758.5,982.5C 1748.37,976.197 1738.37,969.697 1728.5,963C 1733.3,955.89 1737.97,948.724 1742.5,941.5 Z"/></g>
<g><path style="opacity:1" fill="#f7e4b8" d="M 1942.5,965.5 C 1953.87,967.575 1965.21,969.908 1976.5,972.5C 1976.83,973.167 1977.17,973.833 1977.5,974.5C 1974.87,989.377 1973.87,1004.38 1974.5,1019.5C 1962.14,1019.79 1949.81,1020.46 1937.5,1021.5C 1936.53,1002.58 1938.2,983.91 1942.5,965.5 Z"/></g>
<g><path style="opacity:1" fill="#f7e4b8" d="M 1618.5,977.5 C 1619.5,977.5 1620.5,977.5 1621.5,977.5C 1622.98,988.579 1624.98,999.579 1627.5,1010.5C 1627.18,1011.65 1626.52,1012.48 1625.5,1013C 1620.23,1014.25 1614.89,1015.09 1609.5,1015.5C 1607.55,1003.75 1605.22,992.082 1602.5,980.5C 1608.09,980.246 1613.43,979.246 1618.5,977.5 Z"/></g>
<g><path style="opacity:1" fill="#f7e4b9" d="M 1353.5,992.5 C 1355.29,992.215 1356.95,992.548 1358.5,993.5C 1354.17,1002.66 1347.84,1010.16 1339.5,1016C 1317.72,1029.39 1294.72,1040.39 1270.5,1049C 1249.29,1058.25 1229.62,1069.91 1211.5,1084C 1178.29,1108.87 1149.46,1138.04 1125,1171.5C 1100.94,1207.9 1077.27,1244.56 1054,1281.5C 1016.9,1333.77 970.069,1374.77 913.5,1404.5C 912.193,1378.68 917.027,1354.02 928,1330.5C 932.061,1321.38 936.394,1312.38 941,1303.5C 956.174,1277.15 970.841,1250.49 985,1223.5C 994.117,1202.82 1002.45,1181.82 1010,1160.5C 1020.88,1131.31 1039.38,1108.47 1065.5,1092C 1073.68,1087.41 1082.01,1083.08 1090.5,1079C 1130.28,1062.78 1170.28,1047.11 1210.5,1032C 1256.98,1013.97 1304.64,1000.8 1353.5,992.5 Z"/></g>
<g><path style="opacity:1" fill="#f7e4b8" d="M 2026.5,992.5 C 2038.43,994.603 2050.43,996.27 2062.5,997.5C 2061.85,1005.89 2063.85,1013.56 2068.5,1020.5C 2059.84,1028.32 2051.01,1035.99 2042,1043.5C 2033.75,1033.66 2028.75,1022.33 2027,1009.5C 2026.5,1003.84 2026.33,998.176 2026.5,992.5 Z"/></g>
<g><path style="opacity:1" fill="#f7e4b7" d="M 2117.5,1036.5 C 2122.95,1039.79 2127.95,1043.62 2132.5,1048C 2126.04,1057.79 2118.87,1066.95 2111,1075.5C 2105.92,1072.37 2101.09,1068.87 2096.5,1065C 2104.13,1055.89 2111.13,1046.39 2117.5,1036.5 Z"/></g>
<g><path style="opacity:1" fill="#f7e4b8" d="M 1714.5,1045.5 C 1715.68,1045.28 1716.68,1045.61 1717.5,1046.5C 1721.97,1056.61 1726.3,1066.78 1730.5,1077C 1722.35,1081.89 1713.69,1085.72 1704.5,1088.5C 1700.57,1077.71 1696.23,1067.04 1691.5,1056.5C 1699.11,1052.53 1706.77,1048.86 1714.5,1045.5 Z"/></g>
<g><path style="opacity:0.999" fill="#ebb81d" d="M 2207.5,1080.5 C 2220.99,1092.98 2232.99,1106.65 2243.5,1121.5C 2246.69,1150.29 2250.86,1178.95 2256,1207.5C 2267.79,1265.55 2279.79,1323.55 2292,1381.5C 2317.51,1523.95 2329.84,1667.62 2329,1812.5C 2330.55,1830.84 2332.21,1849.18 2334,1867.5C 2336.6,1880.07 2338.43,1892.74 2339.5,1905.5C 2324.75,2015.25 2291.25,2118.92 2239,2216.5C 2191.04,2306.8 2135.38,2391.8 2072,2471.5C 2047.01,2499.89 2018.17,2523.39 1985.5,2542C 1873.72,2600.36 1754.72,2632.03 1628.5,2637C 1585.5,2637.4 1542.5,2638.06 1499.5,2639C 1455.07,2640.35 1411.74,2647.85 1369.5,2661.5C 1335.26,2672.97 1300.92,2684.14 1266.5,2695C 1260.87,2696.49 1255.2,2697.82 1249.5,2699C 1221.13,2702.63 1208.63,2690.13 1212,2661.5C 1216.55,2648.58 1224.38,2638.08 1235.5,2630C 1286.5,2596.32 1339.84,2566.49 1395.5,2540.5C 1396.83,2540.5 1398.17,2540.5 1399.5,2540.5C 1399.5,2528.5 1399.5,2516.5 1399.5,2504.5C 1400.17,2515.67 1400.83,2527.01 1401.5,2538.5C 1451.96,2515.51 1502.63,2493.01 1553.5,2471C 1605.86,2447.32 1656.53,2420.82 1705.5,2391.5C 1711.28,2393.36 1717.11,2395.02 1723,2396.5C 1724.79,2388.69 1726.62,2381.03 1728.5,2373.5C 1728.37,2374.24 1728.54,2374.91 1729,2375.5C 1753.91,2358.08 1778.08,2339.74 1801.5,2320.5C 1798.71,2325.87 1796.71,2331.54 1795.5,2337.5C 1801.75,2339.79 1808.08,2341.79 1814.5,2343.5C 1818.2,2332.92 1822.2,2322.42 1826.5,2312C 1823.77,2309.64 1820.77,2307.8 1817.5,2306.5C 1843.97,2281.53 1870.64,2256.7 1897.5,2232C 1911.7,2218.14 1925.53,2203.97 1939,2189.5C 1968.68,2156.47 1988.68,2118.14 1999,2074.5C 2011.76,2016.23 2024.09,1957.9 2036,1899.5C 2041.53,1874.4 2047.53,1849.4 2054,1824.5C 2061.09,1797.4 2069.26,1770.74 2078.5,1744.5C 2078.5,1749.17 2078.5,1753.83 2078.5,1758.5C 2090.5,1758.5 2102.5,1758.5 2114.5,1758.5C 2114.5,1751.17 2114.5,1743.83 2114.5,1736.5C 2102.5,1736.5 2090.5,1736.5 2078.5,1736.5C 2079.85,1735.81 2081.02,1734.81 2082,1733.5C 2091.33,1708.17 2100.67,1682.83 2110,1657.5C 2118.24,1634.2 2125.07,1610.53 2130.5,1586.5C 2140.28,1580.56 2149.95,1574.4 2159.5,1568C 2156.41,1561.75 2152.74,1555.92 2148.5,1550.5C 2144.47,1552.84 2140.47,1555.18 2136.5,1557.5C 2141.14,1535.06 2144.14,1512.39 2145.5,1489.5C 2150.28,1490.9 2155.11,1492.24 2160,1493.5C 2160.5,1493.17 2161,1492.83 2161.5,1492.5C 2164.14,1483.93 2166.48,1475.26 2168.5,1466.5C 2168.39,1465.56 2168.06,1464.72 2167.5,1464C 2160.6,1462.45 2153.94,1460.61 2147.5,1458.5C 2149.88,1420.7 2150.88,1382.7 2150.5,1344.5C 2158.28,1339.1 2165.94,1333.43 2173.5,1327.5C 2169.59,1322.12 2167.26,1316.12 2166.5,1309.5C 2160.86,1310.31 2155.19,1310.98 2149.5,1311.5C 2149.69,1259.66 2149.36,1207.83 2148.5,1156C 2147.92,1136.34 2149.42,1116.84 2153,1097.5C 2161.25,1060.92 2179.42,1055.26 2207.5,1080.5 Z"/></g>
<g><path style="opacity:1" fill="#f7e4b8" d="M 1896.5,1069.5 C 1897.5,1069.5 1898.5,1069.5 1899.5,1069.5C 1902.54,1077.91 1905.87,1086.25 1909.5,1094.5C 1899.21,1099.56 1888.71,1104.23 1878,1108.5C 1876.35,1108.18 1875.35,1107.18 1875,1105.5C 1872.16,1098.5 1869.33,1091.5 1866.5,1084.5C 1866.82,1083.35 1867.48,1082.52 1868.5,1082C 1878.04,1078.06 1887.37,1073.89 1896.5,1069.5 Z"/></g>
<g><path style="opacity:1" fill="#f7e4b9" d="M 2020.5,1070.5 C 2029.3,1078.8 2037.96,1087.3 2046.5,1096C 2040.65,1102.01 2034.65,1107.85 2028.5,1113.5C 2019.83,1105.5 2011.5,1097.17 2003.5,1088.5C 2009.19,1082.48 2014.85,1076.48 2020.5,1070.5 Z"/></g>
<g><path style="opacity:1" fill="#f7e4b8" d="M 1733.5,1117.5 C 1734.82,1117.33 1735.99,1117.66 1737,1118.5C 1743.5,1127.67 1750,1136.83 1756.5,1146C 1748.09,1152.29 1739.59,1158.46 1731,1164.5C 1723.97,1154.97 1717.14,1145.31 1710.5,1135.5C 1718.19,1129.48 1725.85,1123.48 1733.5,1117.5 Z"/></g>
<g><path style="opacity:1" fill="#f7e4b8" d="M 2093.5,1138.5 C 2105.51,1138.59 2117.51,1138.92 2129.5,1139.5C 2129.82,1145.41 2131.15,1151.08 2133.5,1156.5C 2123.22,1162.22 2112.72,1167.56 2102,1172.5C 2100.52,1171.56 2099.52,1170.22 2099,1168.5C 2095.21,1158.86 2093.38,1148.86 2093.5,1138.5 Z"/></g>
<g><path style="opacity:1" fill="#f6e4b8" d="M 2170.5,1180.5 C 2182.44,1182.54 2194.44,1184.21 2206.5,1185.5C 2206.63,1188.77 2207.63,1191.77 2209.5,1194.5C 2202.97,1204.23 2195.97,1213.56 2188.5,1222.5C 2174.96,1211.93 2168.96,1197.93 2170.5,1180.5 Z"/></g>
<g><path style="opacity:1" fill="#f7e4b8" d="M 2044.5,1203.5 C 2045.55,1203.35 2046.55,1203.52 2047.5,1204C 2055.2,1211.37 2063.2,1218.37 2071.5,1225C 2063.61,1233.97 2055.61,1242.8 2047.5,1251.5C 2038.55,1244.88 2030.21,1237.55 2022.5,1229.5C 2030.23,1221.11 2037.57,1212.44 2044.5,1203.5 Z"/></g>
<g><path style="opacity:1" fill="#f7e4b8" d="M 1934.5,1229.5 C 1946.49,1230.93 1958.49,1232.26 1970.5,1233.5C 1968.94,1242.1 1967.94,1250.76 1967.5,1259.5C 1955.46,1258.12 1943.46,1256.46 1931.5,1254.5C 1932.78,1246.2 1933.78,1237.87 1934.5,1229.5 Z"/></g>
<g><path style="opacity:1" fill="#f7e4b8" d="M 1858.5,1237.5 C 1860.77,1237.14 1862.6,1237.81 1864,1239.5C 1867.31,1249.42 1869.98,1259.42 1872,1269.5C 1861.62,1273.13 1851.12,1276.46 1840.5,1279.5C 1839.35,1279.18 1838.52,1278.52 1838,1277.5C 1834.93,1267.46 1831.77,1257.46 1828.5,1247.5C 1838.61,1244.15 1848.61,1240.81 1858.5,1237.5 Z"/></g>
<g><path style="opacity:1" fill="#f6e5b9" d="M 1684.5,1253.5 C 1696.17,1253.5 1707.83,1253.5 1719.5,1253.5C 1719.5,1260.83 1719.5,1268.17 1719.5,1275.5C 1707.83,1275.5 1696.17,1275.5 1684.5,1275.5C 1684.5,1268.17 1684.5,1260.83 1684.5,1253.5 Z"/></g>
<g><path style="opacity:1" fill="#f6e4b7" d="M 2150.5,1344.5 C 2148.25,1345.42 2146.25,1346.75 2144.5,1348.5C 2137.09,1338.34 2132.42,1327.01 2130.5,1314.5C 2136.8,1313.25 2143.14,1312.25 2149.5,1311.5C 2155.19,1310.98 2160.86,1310.31 2166.5,1309.5C 2167.26,1316.12 2169.59,1322.12 2173.5,1327.5C 2165.94,1333.43 2158.28,1339.1 2150.5,1344.5 Z"/></g>
<g><path style="opacity:1" fill="#f6e4b8" d="M 2209.5,1319.5 C 2219.83,1319.5 2230.17,1319.5 2240.5,1319.5C 2241.06,1330.84 2244.06,1341.5 2249.5,1351.5C 2239.33,1357.42 2228.99,1363.09 2218.5,1368.5C 2209.82,1353.78 2205.15,1337.78 2204.5,1320.5C 2206.41,1320.78 2208.08,1320.45 2209.5,1319.5 Z"/></g>
<g><path style="opacity:1" fill="#f7e4b8" d="M 1895.5,1362.5 C 1901.52,1372.7 1907.19,1383.2 1912.5,1394C 1903.22,1399.22 1893.72,1404.06 1884,1408.5C 1877.64,1398.96 1872.14,1388.8 1867.5,1378C 1867.64,1377.23 1867.98,1376.56 1868.5,1376C 1877.84,1372 1886.84,1367.5 1895.5,1362.5 Z"/></g>
<g><path style="opacity:1" fill="#f7e4b7" d="M 2097.5,1370.5 C 2102.76,1372.46 2107.76,1374.96 2112.5,1378C 2107.2,1388.77 2101.53,1399.27 2095.5,1409.5C 2090.67,1407.25 2086.01,1404.75 2081.5,1402C 2086.97,1391.55 2092.31,1381.05 2097.5,1370.5 Z"/></g>
<g><path style="opacity:1" fill="#f7e4b8" d="M 2013.5,1373.5 C 2014.82,1373.33 2015.99,1373.66 2017,1374.5C 2020.97,1381.3 2025.14,1387.97 2029.5,1394.5C 2019.96,1401.52 2010.13,1408.19 2000,1414.5C 1994.92,1407.34 1990.08,1400 1985.5,1392.5C 1994.9,1386.14 2004.23,1379.81 2013.5,1373.5 Z"/></g>
<g><path style="opacity:1" fill="#f2cc77" d="M 2377.5,1399.5 C 2383.31,1398.89 2386.64,1401.39 2387.5,1407C 2372.34,1484.77 2359.51,1562.94 2349,1641.5C 2347.91,1646.8 2344.74,1648.63 2339.5,1647C 2336.82,1645.16 2335.15,1642.66 2334.5,1639.5C 2345.4,1560.44 2358.57,1481.77 2374,1403.5C 2374.69,1401.65 2375.86,1400.32 2377.5,1399.5 Z"/></g>
<g><path style="opacity:1" fill="#f2cc77" d="M 2505.5,1453.5 C 2508.93,1453.11 2512.1,1453.77 2515,1455.5C 2537.14,1521.12 2569.14,1581.12 2611,1635.5C 2611.86,1639.95 2610.36,1643.45 2606.5,1646C 2604.36,1646.63 2602.36,1646.3 2600.5,1645C 2557.27,1589.05 2524.6,1527.22 2502.5,1459.5C 2502.63,1457.05 2503.63,1455.05 2505.5,1453.5 Z"/></g>
<g><path style="opacity:1" fill="#f7e4b8" d="M 2147.5,1458.5 C 2153.94,1460.61 2160.6,1462.45 2167.5,1464C 2168.06,1464.72 2168.39,1465.56 2168.5,1466.5C 2166.48,1475.26 2164.14,1483.93 2161.5,1492.5C 2161,1492.83 2160.5,1493.17 2160,1493.5C 2155.11,1492.24 2150.28,1490.9 2145.5,1489.5C 2139.81,1488.16 2134.14,1486.66 2128.5,1485C 2127.92,1484.11 2127.59,1483.11 2127.5,1482C 2129.19,1472.72 2131.85,1463.89 2135.5,1455.5C 2139.43,1456.82 2143.43,1457.82 2147.5,1458.5 Z"/></g>
<g><path style="opacity:1" fill="#f7e4b8" d="M 2054.5,1473.5 C 2056.59,1473.56 2058.09,1474.56 2059,1476.5C 2061.71,1481.42 2064.54,1486.25 2067.5,1491C 2057.67,1497.42 2047.67,1503.58 2037.5,1509.5C 2032.41,1503.94 2028.91,1497.61 2027,1490.5C 2036.48,1485.18 2045.65,1479.52 2054.5,1473.5 Z"/></g>
<g><path style="opacity:1" fill="#f6e4b8" d="M 2252.5,1515.5 C 2254.5,1515.5 2256.5,1515.5 2258.5,1515.5C 2260.98,1525.07 2262.98,1534.74 2264.5,1544.5C 2253.62,1546.93 2242.79,1549.59 2232,1552.5C 2231.23,1552.36 2230.56,1552.02 2230,1551.5C 2227.35,1542.23 2225.35,1532.9 2224,1523.5C 2233.61,1520.89 2243.11,1518.22 2252.5,1515.5 Z"/></g>
<g><path style="opacity:1" fill="#f7e4b7" d="M 1903.5,1516.5 C 1905.72,1517.2 1907.55,1518.54 1909,1520.5C 1914.81,1528.61 1920.97,1536.44 1927.5,1544C 1921.33,1548.83 1915.17,1553.67 1909,1558.5C 1901.26,1549.35 1893.76,1540.02 1886.5,1530.5C 1892.21,1525.78 1897.88,1521.11 1903.5,1516.5 Z"/></g>
<g><path style="opacity:1" fill="#f6e4b8" d="M 2130.5,1586.5 C 2128.93,1586.06 2127.76,1585.06 2127,1583.5C 2124.29,1578.58 2121.46,1573.75 2118.5,1569C 2124.36,1564.91 2130.36,1561.07 2136.5,1557.5C 2140.47,1555.18 2144.47,1552.84 2148.5,1550.5C 2152.74,1555.92 2156.41,1561.75 2159.5,1568C 2149.95,1574.4 2140.28,1580.56 2130.5,1586.5 Z"/></g>
<g><path style="opacity:1" fill="#f7e4b8" d="M 2010.5,1602.5 C 2018.11,1606.64 2025.78,1610.81 2033.5,1615C 2036.56,1616.52 2039.22,1618.52 2041.5,1621C 2037.05,1629.4 2032.22,1637.56 2027,1645.5C 2016.75,1639.63 2006.58,1633.63 1996.5,1627.5C 2001.43,1619.3 2006.1,1610.97 2010.5,1602.5 Z"/></g>
<g><path style="opacity:1" fill="#f6e4b8" d="M 2228.5,1646.5 C 2231.5,1646.5 2234.5,1646.5 2237.5,1646.5C 2238.41,1656.18 2239.41,1665.84 2240.5,1675.5C 2228.46,1676.47 2216.46,1677.8 2204.5,1679.5C 2203.5,1669.5 2202.5,1659.5 2201.5,1649.5C 2210.74,1649.39 2219.74,1648.39 2228.5,1646.5 Z"/></g>
<g><path style="opacity:1" fill="#f6e5b9" d="M 2078.5,1736.5 C 2090.5,1736.5 2102.5,1736.5 2114.5,1736.5C 2114.5,1743.83 2114.5,1751.17 2114.5,1758.5C 2102.5,1758.5 2090.5,1758.5 2078.5,1758.5C 2078.5,1753.83 2078.5,1749.17 2078.5,1744.5C 2078.5,1741.83 2078.5,1739.17 2078.5,1736.5 Z"/></g>
<g><path style="opacity:1" fill="#f2cc77" d="M 2490.5,1746.5 C 2493.27,1746.22 2495.77,1746.89 2498,1748.5C 2498.67,1753.17 2498.67,1757.83 2498,1762.5C 2490.08,1830.42 2480.75,1898.08 2470,1965.5C 2462.67,1969.08 2458.5,1966.75 2457.5,1958.5C 2467.1,1889.56 2476.27,1820.56 2485,1751.5C 2486.73,1749.6 2488.56,1747.93 2490.5,1746.5 Z"/></g>
<g><path style="opacity:1" fill="#f3d584" d="M 2276.5,1791.5 C 2276.5,1783.17 2276.5,1774.83 2276.5,1766.5C 2264.83,1766.5 2253.17,1766.5 2241.5,1766.5C 2241.5,1774.83 2241.5,1783.17 2241.5,1791.5C 2240.51,1783.02 2240.17,1774.35 2240.5,1765.5C 2252.83,1765.5 2265.17,1765.5 2277.5,1765.5C 2277.83,1774.35 2277.49,1783.02 2276.5,1791.5 Z"/></g>
<g><path style="opacity:1" fill="#f6e5b9" d="M 2276.5,1791.5 C 2264.83,1791.5 2253.17,1791.5 2241.5,1791.5C 2241.5,1783.17 2241.5,1774.83 2241.5,1766.5C 2253.17,1766.5 2264.83,1766.5 2276.5,1766.5C 2276.5,1774.83 2276.5,1783.17 2276.5,1791.5 Z"/></g>
<g><path style="opacity:1" fill="#f2cc77" d="M 2519.5,1813.5 C 2523.01,1812.99 2526.17,1813.66 2529,1815.5C 2525.12,1879.01 2519.12,1942.34 2511,2005.5C 2508.02,2011.49 2503.69,2012.82 2498,2009.5C 2497.02,2007.63 2496.52,2005.63 2496.5,2003.5C 2504.4,1941.66 2510.9,1879.66 2516,1817.5C 2517.38,1816.29 2518.54,1814.96 2519.5,1813.5 Z"/></g>
<g><path style="opacity:1" fill="#f7e4b7" d="M 1358.5,2229.5 C 1359.5,2229.41 1360.33,2229.75 1361,2230.5C 1362.71,2234.09 1364.55,2237.59 1366.5,2241C 1356.92,2247.73 1346.92,2253.9 1336.5,2259.5C 1333.49,2255.8 1331.32,2251.8 1330,2247.5C 1339.65,2241.6 1349.15,2235.6 1358.5,2229.5 Z"/></g>
<g><path style="opacity:1" fill="#f7e4b8" d="M 1725.5,2251.5 C 1736.5,2254.83 1747.5,2258.17 1758.5,2261.5C 1754.78,2273.17 1750.94,2284.84 1747,2296.5C 1736.03,2292.79 1725.2,2288.79 1714.5,2284.5C 1718.37,2273.55 1722.04,2262.55 1725.5,2251.5 Z"/></g>
<g><path style="opacity:1" fill="#f7e4b7" d="M 1523.5,2291.5 C 1525.72,2292.2 1527.55,2293.54 1529,2295.5C 1532.36,2299.36 1535.52,2303.36 1538.5,2307.5C 1530.1,2315.87 1521.1,2323.53 1511.5,2330.5C 1506.3,2325.47 1501.63,2319.97 1497.5,2314C 1506.36,2306.64 1515.03,2299.14 1523.5,2291.5 Z"/></g>
<g><path style="opacity:1" fill="#f7e4b9" d="M 993.5,2297.5 C 1000.83,2297.5 1008.17,2297.5 1015.5,2297.5C 1015.5,2309.5 1015.5,2321.5 1015.5,2333.5C 1008.17,2333.5 1000.83,2333.5 993.5,2333.5C 993.5,2321.5 993.5,2309.5 993.5,2297.5 Z"/></g>
<g><path style="opacity:1" fill="#f6e4b8" d="M 1817.5,2306.5 C 1820.77,2307.8 1823.77,2309.64 1826.5,2312C 1822.2,2322.42 1818.2,2332.92 1814.5,2343.5C 1808.08,2341.79 1801.75,2339.79 1795.5,2337.5C 1796.71,2331.54 1798.71,2325.87 1801.5,2320.5C 1803.54,2314.88 1805.87,2309.38 1808.5,2304C 1811.44,2304.7 1814.44,2305.53 1817.5,2306.5 Z"/></g>
<g><path style="opacity:1" fill="#f7e4b8" d="M 1671.5,2305.5 C 1673.29,2305.21 1674.95,2305.55 1676.5,2306.5C 1677.44,2308.77 1678.77,2310.77 1680.5,2312.5C 1674.08,2322.34 1667.41,2332.01 1660.5,2341.5C 1651.45,2334.44 1645.11,2325.44 1641.5,2314.5C 1651.61,2311.48 1661.61,2308.48 1671.5,2305.5 Z"/></g>
<g><path style="opacity:1" fill="#f7e4b8" d="M 1443.5,2320.5 C 1447.83,2320.5 1452.17,2320.5 1456.5,2320.5C 1457.98,2332.45 1458.98,2344.45 1459.5,2356.5C 1446.15,2356.95 1432.82,2357.61 1419.5,2358.5C 1419.1,2347.09 1418.1,2335.76 1416.5,2324.5C 1425.5,2322.38 1434.5,2321.04 1443.5,2320.5 Z"/></g>
<g><path style="opacity:1" fill="#f7e4b8" d="M 1205.5,2322.5 C 1217.5,2322.5 1229.5,2322.5 1241.5,2322.5C 1241.67,2327.85 1242.67,2333.02 1244.5,2338C 1233.85,2342.22 1223.02,2346.05 1212,2349.5C 1210.26,2348.32 1209.26,2346.65 1209,2344.5C 1207.07,2337.28 1205.91,2329.95 1205.5,2322.5 Z"/></g>
<g><path style="opacity:1" fill="#f7e4b7" d="M 1303.5,2323.5 C 1312.17,2323.5 1320.83,2323.5 1329.5,2323.5C 1329.5,2335.5 1329.5,2347.5 1329.5,2359.5C 1320.83,2359.5 1312.17,2359.5 1303.5,2359.5C 1303.5,2347.5 1303.5,2335.5 1303.5,2323.5 Z"/></g>
<g><path style="opacity:1" fill="#f6e4b8" d="M 1904.5,2327.5 C 1924.91,2326.34 1936.91,2335.67 1940.5,2355.5C 1930.48,2355.97 1920.48,2356.64 1910.5,2357.5C 1908.7,2347.45 1906.7,2337.45 1904.5,2327.5 Z"/></g>
<g><path style="opacity:1" fill="#f7e4b8" d="M 1127.5,2332.5 C 1132.63,2337.13 1137.63,2341.96 1142.5,2347C 1134,2355.5 1125.5,2364 1117,2372.5C 1112.17,2367.67 1107.33,2362.83 1102.5,2358C 1111.04,2349.63 1119.37,2341.13 1127.5,2332.5 Z"/></g>
<g><path style="opacity:1" fill="#f7e4b8" d="M 1596.5,2343.5 C 1597.83,2343.5 1599.17,2343.5 1600.5,2343.5C 1603.62,2354.2 1606.95,2364.86 1610.5,2375.5C 1610.18,2376.65 1609.52,2377.48 1608.5,2378C 1599,2381.17 1589.5,2384.33 1580,2387.5C 1579.23,2387.36 1578.56,2387.02 1578,2386.5C 1574.4,2375.86 1570.9,2365.19 1567.5,2354.5C 1577.15,2350.62 1586.82,2346.95 1596.5,2343.5 Z"/></g>
<g><path style="opacity:1" fill="#f7e4b8" d="M 1728.5,2373.5 C 1726.62,2381.03 1724.79,2388.69 1723,2396.5C 1717.11,2395.02 1711.28,2393.36 1705.5,2391.5C 1701.36,2388.92 1697.36,2386.09 1693.5,2383C 1699.43,2373.4 1705.76,2364.07 1712.5,2355C 1717.82,2357.64 1723.48,2359.81 1729.5,2361.5C 1729.83,2362 1730.17,2362.5 1730.5,2363C 1729.67,2366.48 1729,2369.98 1728.5,2373.5 Z"/></g>
<g><path style="opacity:1" fill="#f6e4b7" d="M 1960.5,2389.5 C 1966.02,2390.93 1971.02,2393.43 1975.5,2397C 1970.28,2405.93 1965.45,2415.1 1961,2424.5C 1960.22,2425.73 1959.22,2426.73 1958,2427.5C 1952.9,2425.71 1948.4,2423.04 1944.5,2419.5C 1950.29,2409.72 1955.63,2399.72 1960.5,2389.5 Z"/></g>
<g><path style="opacity:1" fill="#f7e4b8" d="M 1387.5,2394.5 C 1394.82,2395.5 1402.16,2396.5 1409.5,2397.5C 1407.61,2409.19 1405.61,2420.85 1403.5,2432.5C 1396.83,2431.78 1390.16,2430.94 1383.5,2430C 1382.69,2429.69 1382.03,2429.19 1381.5,2428.5C 1383.72,2417.21 1385.72,2405.87 1387.5,2394.5 Z"/></g>
<g><path style="opacity:1" fill="#f6e4b7" d="M 1796.5,2395.5 C 1801.17,2395.5 1805.83,2395.5 1810.5,2395.5C 1810.5,2407.5 1810.5,2419.5 1810.5,2431.5C 1805.83,2431.5 1801.17,2431.5 1796.5,2431.5C 1796.5,2419.5 1796.5,2407.5 1796.5,2395.5 Z"/></g>
<g><path style="opacity:1" fill="#f1cf71" d="M 1796.5,2395.5 C 1801.31,2394.51 1806.31,2394.18 1811.5,2394.5C 1811.83,2407.01 1811.5,2419.34 1810.5,2431.5C 1810.5,2419.5 1810.5,2407.5 1810.5,2395.5C 1805.83,2395.5 1801.17,2395.5 1796.5,2395.5 Z"/></g>
<g><path style="opacity:1" fill="#f6e4b7" d="M 1897.5,2401.5 C 1900.06,2402.54 1902.22,2404.21 1904,2406.5C 1907.17,2410.33 1910.33,2414.17 1913.5,2418C 1904.35,2425.65 1895.35,2433.48 1886.5,2441.5C 1881.34,2436.18 1876.34,2430.68 1871.5,2425C 1880.66,2417.67 1889.33,2409.84 1897.5,2401.5 Z"/></g>
<g><path style="opacity:1" fill="#f6e5b9" d="M 1259.5,2404.5 C 1262.83,2404.5 1266.17,2404.5 1269.5,2404.5C 1269.5,2416.5 1269.5,2428.5 1269.5,2440.5C 1266.17,2440.5 1262.83,2440.5 1259.5,2440.5C 1259.5,2428.5 1259.5,2416.5 1259.5,2404.5 Z"/></g>
<g><path style="opacity:1" fill="#f7e4b8" d="M 1513.5,2420.5 C 1514.5,2420.5 1515.5,2420.5 1516.5,2420.5C 1519.34,2432.2 1522.34,2443.87 1525.5,2455.5C 1516.73,2457.52 1508.07,2459.86 1499.5,2462.5C 1497.21,2451.17 1494.21,2440 1490.5,2429C 1490.91,2428.05 1491.57,2427.39 1492.5,2427C 1499.76,2425.28 1506.76,2423.11 1513.5,2420.5 Z"/></g>
<g><path style="opacity:1" fill="#f6e4b7" d="M 1722.5,2432.5 C 1725.12,2432.23 1727.62,2432.56 1730,2433.5C 1731.94,2444.84 1733.78,2456.17 1735.5,2467.5C 1726.51,2469.26 1717.51,2470.93 1708.5,2472.5C 1707.24,2460.71 1705.24,2449.04 1702.5,2437.5C 1709.21,2435.65 1715.88,2433.98 1722.5,2432.5 Z"/></g>
<g><path style="opacity:1" fill="#f7e4b8" d="M 1217.5,2442.5 C 1218.83,2442.5 1220.17,2442.5 1221.5,2442.5C 1223.06,2448.13 1225.06,2453.63 1227.5,2459C 1227.17,2459.5 1226.83,2460 1226.5,2460.5C 1215.93,2464.7 1205.43,2469.04 1195,2473.5C 1192.22,2467.66 1189.72,2461.66 1187.5,2455.5C 1197.59,2451.14 1207.59,2446.81 1217.5,2442.5 Z"/></g>
<g><path style="opacity:1" fill="#f7e4b9" d="M 1089.5,2456.5 C 1096.83,2456.5 1104.17,2456.5 1111.5,2456.5C 1111.5,2468.5 1111.5,2480.5 1111.5,2492.5C 1104.17,2492.5 1096.83,2492.5 1089.5,2492.5C 1089.5,2480.5 1089.5,2468.5 1089.5,2456.5 Z"/></g>
<g><path style="opacity:1" fill="#f7e4b7" d="M 1352.5,2457.5 C 1357.17,2458.5 1361.83,2459.5 1366.5,2460.5C 1363.36,2472.06 1360.69,2483.73 1358.5,2495.5C 1353.53,2494.34 1348.53,2493.34 1343.5,2492.5C 1346.04,2480.69 1349.04,2469.02 1352.5,2457.5 Z"/></g>
<g><path style="opacity:1" fill="#f6e3b4" d="M 1628.5,2456.5 C 1632.17,2456.5 1635.83,2456.5 1639.5,2456.5C 1639.5,2468.5 1639.5,2480.5 1639.5,2492.5C 1635.83,2492.5 1632.17,2492.5 1628.5,2492.5C 1628.5,2480.5 1628.5,2468.5 1628.5,2456.5 Z"/></g>
<g><path style="opacity:1" fill="#f6e4b8" d="M 1842.5,2457.5 C 1846.11,2462.11 1850.45,2466.11 1855.5,2469.5C 1850.17,2480.16 1844.34,2490.49 1838,2500.5C 1828.02,2494.36 1819.86,2486.36 1813.5,2476.5C 1823.02,2469.91 1832.69,2463.57 1842.5,2457.5 Z"/></g>
<g><path style="opacity:1" fill="#f6e4b7" d="M 1950.5,2476.5 C 1956.52,2479.01 1962.18,2482.18 1967.5,2486C 1962.06,2496.58 1956.06,2506.75 1949.5,2516.5C 1943.79,2513.65 1938.46,2510.32 1933.5,2506.5C 1939.18,2496.47 1944.85,2486.47 1950.5,2476.5 Z"/></g>
<g><path style="opacity:1" fill="#f7e4b9" d="M 1399.5,2504.5 C 1399.5,2516.5 1399.5,2528.5 1399.5,2540.5C 1398.17,2540.5 1396.83,2540.5 1395.5,2540.5C 1390.83,2540.5 1386.17,2540.5 1381.5,2540.5C 1381.5,2528.5 1381.5,2516.5 1381.5,2504.5C 1387.5,2504.5 1393.5,2504.5 1399.5,2504.5 Z"/></g>
<g><path style="opacity:1" fill="#f7e4b9" d="M 1742.5,2504.5 C 1751.17,2504.5 1759.83,2504.5 1768.5,2504.5C 1768.5,2516.5 1768.5,2528.5 1768.5,2540.5C 1759.83,2540.5 1751.17,2540.5 1742.5,2540.5C 1742.5,2528.5 1742.5,2516.5 1742.5,2504.5 Z"/></g>
<g><path style="opacity:1" fill="#f6e5b9" d="M 1558.5,2511.5 C 1565.83,2511.5 1573.17,2511.5 1580.5,2511.5C 1580.5,2523.5 1580.5,2535.5 1580.5,2547.5C 1573.17,2547.5 1565.83,2547.5 1558.5,2547.5C 1558.5,2535.5 1558.5,2523.5 1558.5,2511.5 Z"/></g>
<g><path style="opacity:1" fill="#f7e4b7" d="M 1247.5,2519.5 C 1254.79,2520.82 1262.13,2521.82 1269.5,2522.5C 1267.72,2534.54 1265.72,2546.54 1263.5,2558.5C 1256.57,2557.54 1249.73,2556.21 1243,2554.5C 1243.41,2542.71 1244.91,2531.04 1247.5,2519.5 Z"/></g>
<g><path style="opacity:1" fill="#f6e4b7" d="M 1870.5,2523.5 C 1876.82,2524.25 1883.16,2524.92 1889.5,2525.5C 1888,2537.48 1886.67,2549.48 1885.5,2561.5C 1879.21,2560.54 1872.87,2559.87 1866.5,2559.5C 1867.18,2547.41 1868.51,2535.41 1870.5,2523.5 Z"/></g>
<g><path style="opacity:1" fill="#f7e4b8" d="M 1156.5,2562.5 C 1168.5,2562.5 1180.5,2562.5 1192.5,2562.5C 1192.5,2571.17 1192.5,2579.83 1192.5,2588.5C 1180.5,2588.5 1168.5,2588.5 1156.5,2588.5C 1156.5,2579.83 1156.5,2571.17 1156.5,2562.5 Z"/></g>
<g><path style="opacity:1" fill="#f6e3b6" d="M 1491.5,2563.5 C 1499.17,2563.5 1506.83,2563.5 1514.5,2563.5C 1514.5,2575.5 1514.5,2587.5 1514.5,2599.5C 1506.83,2599.5 1499.17,2599.5 1491.5,2599.5C 1491.5,2587.5 1491.5,2575.5 1491.5,2563.5 Z"/></g>
<g><path style="opacity:1" fill="#f6e4b8" d="M 1603.5,2565.5 C 1612.3,2573.8 1620.96,2582.3 1629.5,2591C 1627.27,2593.93 1624.61,2595.93 1621.5,2597C 1613.67,2589.17 1605.83,2581.33 1598,2573.5C 1597.33,2572.83 1597.33,2572.17 1598,2571.5C 1600.04,2569.63 1601.87,2567.63 1603.5,2565.5 Z"/></g>
<g><path style="opacity:1" fill="#f6e4b7" d="M 1695.5,2569.5 C 1696.5,2569.41 1697.33,2569.75 1698,2570.5C 1703.04,2580.74 1708.21,2590.91 1713.5,2601C 1708.59,2603.37 1703.75,2605.87 1699,2608.5C 1693.37,2598.08 1687.87,2587.58 1682.5,2577C 1686.9,2574.47 1691.23,2571.97 1695.5,2569.5 Z"/></g>
<g><path style="opacity:1" fill="#f3db99" d="M 1440.5,2585.5 C 1440.5,2597.17 1440.5,2608.83 1440.5,2620.5C 1446.5,2620.5 1452.5,2620.5 1458.5,2620.5C 1452.36,2621.49 1446.02,2621.82 1439.5,2621.5C 1439.17,2609.32 1439.5,2597.32 1440.5,2585.5 Z"/></g>
<g><path style="opacity:1" fill="#f6e5b9" d="M 1440.5,2585.5 C 1446.5,2585.5 1452.5,2585.5 1458.5,2585.5C 1458.5,2597.17 1458.5,2608.83 1458.5,2620.5C 1452.5,2620.5 1446.5,2620.5 1440.5,2620.5C 1440.5,2608.83 1440.5,2597.17 1440.5,2585.5 Z"/></g>
<g><path style="opacity:1" fill="#f6e4b7" d="M 1321.5,2589.5 C 1331.5,2589.5 1341.5,2589.5 1351.5,2589.5C 1351.5,2601.5 1351.5,2613.5 1351.5,2625.5C 1341.5,2625.5 1331.5,2625.5 1321.5,2625.5C 1321.5,2613.5 1321.5,2601.5 1321.5,2589.5 Z"/></g>
<g><path style="opacity:1" fill="#f7e4b7" d="M 1136.5,2591.5 C 1139.73,2594.63 1141.89,2598.3 1143,2602.5C 1135.08,2608.21 1127.24,2614.04 1119.5,2620C 1117.95,2621.29 1116.28,2621.96 1114.5,2622C 1111.7,2619.22 1109.87,2616.05 1109,2612.5C 1118.15,2605.36 1127.31,2598.36 1136.5,2591.5 Z"/></g>
<g><path style="opacity:1" fill="#f7e4b7" d="M 1151.5,2634.5 C 1158.25,2636.02 1164.91,2637.85 1171.5,2640C 1168.11,2651.41 1164.94,2662.91 1162,2674.5C 1155.91,2672.6 1149.74,2670.94 1143.5,2669.5C 1145.87,2657.76 1148.54,2646.1 1151.5,2634.5 Z"/></g>
</svg>
