<?xml version="1.0" encoding="UTF-8"?>
<!DOCTYPE svg PUBLIC "-//W3C//DTD SVG 1.1//EN" "http://www.w3.org/Graphics/SVG/1.1/DTD/svg11.dtd">
<svg xmlns="http://www.w3.org/2000/svg" version="1.1" width="3000px" height="3000px" style="shape-rendering:geometricPrecision; text-rendering:geometricPrecision; image-rendering:optimizeQuality; fill-rule:evenodd; clip-rule:evenodd" xmlns:xlink="http://www.w3.org/1999/xlink">
<g><path style="opacity:0.998" fill="#f25a35" d="M 1541.5,1679.5 C 1479.46,1637.32 1423.63,1587.66 1374,1530.5C 1356.2,1508.22 1338.7,1485.89 1321.5,1463.5C 1204.83,1289.15 1159.67,1097.48 1186,888.5C 1221.76,658.683 1332.59,475.183 1518.5,338C 1696.09,214.105 1892.76,166.105 2108.5,194C 2326.42,227.821 2503.25,330.654 2639,502.5C 2771.18,678.481 2825.84,876.481 2803,1096.5C 2775.79,1305.12 2683.96,1478.62 2527.5,1617C 2362.93,1756.09 2172.27,1822.09 1955.5,1815C 1804.81,1807.49 1666.81,1762.32 1541.5,1679.5 Z"/></g>
<g><path style="opacity:1" fill="#e9e9e7" d="M 1957.5,307.5 C 2146.51,301.106 2312.18,359.273 2454.5,482C 2614,629.039 2691.5,811.539 2687,1029.5C 2675.74,1224.5 2598.57,1387.67 2455.5,1519C 2312.93,1642.2 2146.93,1700.53 1957.5,1694C 1749.02,1679.35 1579.19,1591.52 1448,1430.5C 1330.7,1276.85 1283.03,1103.52 1305,910.5C 1334.76,713.039 1429.26,555.206 1588.5,437C 1699,358.774 1822,315.608 1957.5,307.5 Z"/></g>
<g><path style="opacity:1" fill="#bdeaf2" d="M 1959.5,421.5 C 2145.44,415.377 2301.27,480.044 2427,615.5C 2528.76,732.75 2577.43,869.417 2573,1025.5C 2563.74,1186.17 2500.57,1321 2383.5,1430C 2279.35,1523.2 2157.01,1573.2 2016.5,1580C 1841.3,1583.74 1692.8,1523.24 1571,1398.5C 1461.43,1278.51 1409.1,1136.85 1414,973.5C 1426.74,790.481 1505.57,643.647 1650.5,533C 1742.68,466.436 1845.68,429.27 1959.5,421.5 Z"/></g>
<g><path style="opacity:1" fill="#fefefe" d="M 2273.5,809.5 C 2344.73,805.695 2399.23,833.695 2437,893.5C 2469.83,958.402 2465.16,1020.4 2423,1079.5C 2385.41,1124.27 2337.24,1145.44 2278.5,1143C 2213.18,1135.11 2166.34,1101.61 2138,1042.5C 2113.25,979.036 2121.91,920.703 2164,867.5C 2193.22,834.31 2229.72,814.977 2273.5,809.5 Z"/></g>
<g><path style="opacity:0.999" fill="#f78f3f" d="M 1321.5,1463.5 C 1338.7,1485.89 1356.2,1508.22 1374,1530.5C 1423.63,1587.66 1479.46,1637.32 1541.5,1679.5C 1516.83,1704.5 1492.17,1729.5 1467.5,1754.5C 1466.76,1754.63 1466.09,1754.46 1465.5,1754C 1429.63,1717.97 1393.63,1682.13 1357.5,1646.5C 1321.87,1610.37 1286.03,1574.37 1250,1538.5C 1249.54,1537.91 1249.37,1537.24 1249.5,1536.5C 1273.5,1512.17 1297.5,1487.83 1321.5,1463.5 Z"/></g>
<g><path style="opacity:0.999" fill="#f25934" d="M 1249.5,1536.5 C 1249.37,1537.24 1249.54,1537.91 1250,1538.5C 1286.03,1574.37 1321.87,1610.37 1357.5,1646.5C 996.167,2007.5 634.833,2368.5 273.5,2729.5C 253.475,2710.64 234.308,2690.98 216,2670.5C 192.733,2635.24 185.733,2596.91 195,2555.5C 200.304,2535.56 209.304,2517.56 222,2501.5C 553.279,2168.89 885.279,1836.89 1218,1505.5C 1228.37,1516.04 1238.87,1526.37 1249.5,1536.5 Z"/></g>
<g><path style="opacity:1" fill="#e03d24" d="M 1357.5,1646.5 C 1393.63,1682.13 1429.63,1717.97 1465.5,1754C 1466.09,1754.46 1466.76,1754.63 1467.5,1754.5C 1477.63,1765.13 1487.96,1775.63 1498.5,1786C 1166.14,2118.69 833.473,2451.03 500.5,2783C 457.023,2814.64 410.023,2820.98 359.5,2802C 346.445,2796.25 334.445,2788.92 323.5,2780C 306.632,2763.3 289.965,2746.47 273.5,2729.5C 634.833,2368.5 996.167,2007.5 1357.5,1646.5 Z"/></g>
</svg>
