<?xml version="1.0" encoding="UTF-8"?>
<!DOCTYPE svg PUBLIC "-//W3C//DTD SVG 1.1//EN" "http://www.w3.org/Graphics/SVG/1.1/DTD/svg11.dtd">
<svg xmlns="http://www.w3.org/2000/svg" version="1.1" width="3000px" height="3000px" style="shape-rendering:geometricPrecision; text-rendering:geometricPrecision; image-rendering:optimizeQuality; fill-rule:evenodd; clip-rule:evenodd" xmlns:xlink="http://www.w3.org/1999/xlink">
<g><path style="opacity:0.999" fill="#ac6f40" d="M 1878.5,595.5 C 1964.01,685.848 1991.17,791.515 1960,912.5C 1954.27,929.963 1947.43,946.963 1939.5,963.5C 1918.75,933.134 1890.42,922.468 1854.5,931.5C 1861.21,960.197 1861.04,988.864 1854,1017.5C 1837.54,960.05 1807.04,911.55 1762.5,872C 1756.83,867 1751.17,862 1745.5,857C 1712.68,831.757 1679.68,806.757 1646.5,782C 1627.41,766.914 1609.58,750.414 1593,732.5C 1576.07,712.994 1562.4,691.328 1552,667.5C 1538.39,698.896 1519.22,726.396 1494.5,750C 1479.46,763.375 1464.13,776.375 1448.5,789C 1412.02,814.803 1376.69,842.137 1342.5,871C 1297.08,911.012 1266.24,960.179 1250,1018.5C 1242.99,990.522 1242.83,962.522 1249.5,934.5C 1249.17,933.833 1248.83,933.167 1248.5,932.5C 1227.5,925.47 1207.5,927.636 1188.5,939C 1182.36,943.385 1176.69,948.218 1171.5,953.5C 1137.11,876.727 1133.28,798.394 1160,718.5C 1176.12,674.733 1199.95,635.899 1231.5,602C 1208.72,577.894 1188.22,552.061 1170,524.5C 1161.88,510.817 1156.55,496.15 1154,480.5C 1152.49,468.058 1154.82,456.391 1161,445.5C 1168.97,436.192 1176.97,426.858 1185,417.5C 1192.22,407.501 1196.06,396.334 1196.5,384C 1194.18,369.232 1192.34,354.398 1191,339.5C 1186.87,280.575 1210.7,237.408 1262.5,210C 1288.1,198.135 1314.76,189.468 1342.5,184C 1397.24,146.64 1457.91,125.973 1524.5,122C 1595.52,117.137 1662.85,130.47 1726.5,162C 1738.43,168.938 1750.1,176.271 1761.5,184C 1795.42,189.749 1827.09,201.416 1856.5,219C 1894.41,245.137 1913.41,281.47 1913.5,328C 1912.44,346.772 1910.44,365.439 1907.5,384C 1908.13,397.096 1912.3,408.929 1920,419.5C 1928.04,427.87 1935.71,436.536 1943,445.5C 1951.68,462.361 1952.68,479.694 1946,497.5C 1942.55,506.406 1938.55,515.073 1934,523.5C 1917.66,549.193 1899.16,573.193 1878.5,595.5 Z"/></g>
<g><path style="opacity:1" fill="#423334" d="M 1878.5,595.5 C 1802.38,522.459 1711.38,480.626 1605.5,470C 1510.68,460.791 1421.01,478.124 1336.5,522C 1298.59,543.033 1264.59,568.533 1234.5,598.5C 1286.4,512.145 1361.06,455.311 1458.5,428C 1574.4,399.408 1681.4,418.741 1779.5,486C 1820.52,515.51 1853.52,552.01 1878.5,595.5 Z"/></g>
<g><path style="opacity:0.999" fill="#faba95" d="M 1939.5,963.5 C 1959.08,998.142 1963.91,1034.81 1954,1073.5C 1941.45,1115.05 1914.28,1141.88 1872.5,1154C 1862.27,1156.44 1851.94,1158.27 1841.5,1159.5C 1820.51,1218.35 1787.85,1269.52 1743.5,1313C 1717.41,1336.37 1687.75,1354.03 1654.5,1366C 1664.18,1397.52 1677.51,1427.35 1694.5,1455.5C 1599.5,1455.5 1504.5,1455.5 1409.5,1455.5C 1410.68,1452.46 1412.35,1449.79 1414.5,1447.5C 1481.06,1436.52 1545.72,1418.02 1608.5,1392C 1623.94,1384.87 1638.6,1376.53 1652.5,1367C 1638,1370.96 1623.34,1374.62 1608.5,1378C 1554.32,1388.18 1501.32,1384.01 1449.5,1365.5C 1406.44,1350.21 1369.61,1325.55 1339,1291.5C 1305.59,1252.38 1280.09,1208.38 1262.5,1159.5C 1186.34,1151.17 1147,1108.67 1144.5,1032C 1145.08,1002.77 1154.08,976.602 1171.5,953.5C 1176.69,948.218 1182.36,943.385 1188.5,939C 1207.5,927.636 1227.5,925.47 1248.5,932.5C 1248.83,933.167 1249.17,933.833 1249.5,934.5C 1242.83,962.522 1242.99,990.522 1250,1018.5C 1266.24,960.179 1297.08,911.012 1342.5,871C 1376.69,842.137 1412.02,814.803 1448.5,789C 1464.13,776.375 1479.46,763.375 1494.5,750C 1519.22,726.396 1538.39,698.896 1552,667.5C 1562.4,691.328 1576.07,712.994 1593,732.5C 1609.58,750.414 1627.41,766.914 1646.5,782C 1679.68,806.757 1712.68,831.757 1745.5,857C 1751.17,862 1756.83,867 1762.5,872C 1807.04,911.55 1837.54,960.05 1854,1017.5C 1861.04,988.864 1861.21,960.197 1854.5,931.5C 1890.42,922.468 1918.75,933.134 1939.5,963.5 Z"/></g>
<g><path style="opacity:1" fill="#ae7141" d="M 1431.5,953.5 C 1444.04,952.702 1456.37,953.869 1468.5,957C 1472.42,958.54 1475.92,960.707 1479,963.5C 1480.46,969.051 1478.29,972.218 1472.5,973C 1466.87,973.869 1461.2,974.369 1455.5,974.5C 1443.21,972.843 1430.88,972.343 1418.5,973C 1403.5,974.401 1388.83,977.068 1374.5,981C 1391.19,966.986 1410.19,957.819 1431.5,953.5 Z"/></g>
<g><path style="opacity:1" fill="#ae7141" d="M 1618.5,953.5 C 1649.88,951.795 1677.55,960.961 1701.5,981C 1690.01,978.215 1678.34,975.882 1666.5,974C 1645.5,973.667 1624.5,973.333 1603.5,973C 1597.71,972.218 1595.54,969.051 1597,963.5C 1603.44,958.362 1610.6,955.029 1618.5,953.5 Z"/></g>
<g><path style="opacity:1" fill="#351413" d="M 1433.5,1022.5 C 1444.39,1021.32 1454.73,1023.16 1464.5,1028C 1471.72,1034.01 1471.05,1038.67 1462.5,1042C 1446.83,1042.33 1431.17,1042.67 1415.5,1043C 1410.32,1043.75 1405.15,1044.59 1400,1045.5C 1391.89,1044.37 1386.56,1040.04 1384,1032.5C 1386.2,1035.04 1388.7,1037.21 1391.5,1039C 1393.83,1039.67 1396.17,1039.67 1398.5,1039C 1405.34,1034.75 1412.34,1030.75 1419.5,1027C 1424.37,1025.71 1429.04,1024.21 1433.5,1022.5 Z"/></g>
<g><path style="opacity:1" fill="#351413" d="M 1625.5,1022.5 C 1643.28,1021.6 1659.28,1026.43 1673.5,1037C 1680.96,1041.07 1687.12,1039.57 1692,1032.5C 1689.57,1039.58 1684.57,1043.91 1677,1045.5C 1655.59,1042.94 1634.09,1041.77 1612.5,1042C 1604.85,1038.06 1604.52,1033.39 1611.5,1028C 1616.02,1025.45 1620.68,1023.61 1625.5,1022.5 Z"/></g>
<g><path style="opacity:1" fill="#f47d54" d="M 1395.5,1068.5 C 1427.8,1066.01 1448.97,1080.01 1459,1110.5C 1462.92,1142.52 1449.76,1163.68 1419.5,1174C 1387.09,1179.05 1365.26,1166.22 1354,1135.5C 1349.06,1101.36 1362.89,1079.03 1395.5,1068.5 Z"/></g>
<g><path style="opacity:1" fill="#f47d54" d="M 1704.5,1068.5 C 1735.96,1065.84 1757.13,1079.18 1768,1108.5C 1773.08,1141.52 1759.92,1163.35 1728.5,1174C 1695.18,1179 1673.34,1165.5 1663,1133.5C 1658.96,1110.6 1666.13,1092.1 1684.5,1078C 1690.86,1073.98 1697.53,1070.82 1704.5,1068.5 Z"/></g>
<g><path style="opacity:1" fill="#bc6f51" d="M 1499.5,1154.5 C 1519.5,1154.33 1539.5,1154.5 1559.5,1155C 1548.09,1173.87 1532.43,1178.53 1512.5,1169C 1506.88,1165.22 1502.55,1160.39 1499.5,1154.5 Z"/></g>
<g><path style="opacity:1" fill="#fefefd" d="M 1621.5,1168.5 C 1622.74,1198.54 1612.41,1224.04 1590.5,1245C 1576.87,1257.41 1560.87,1262.41 1542.5,1260C 1523.6,1253.37 1512.26,1240.2 1508.5,1220.5C 1553.16,1218 1590.83,1200.66 1621.5,1168.5 Z"/></g>
<g><path style="opacity:0.998" fill="#ad7040" d="M 1259.5,1606.5 C 1258.58,1613.11 1258.24,1619.78 1258.5,1626.5C 1254.2,1611.02 1249.7,1595.35 1245,1579.5C 1233.43,1545.35 1216.43,1514.35 1194,1486.5C 1159.3,1447.98 1116.3,1423.98 1065,1414.5C 1031.63,1420.18 1003.63,1435.52 981,1460.5C 964.561,1480.64 950.894,1502.64 940,1526.5C 930.273,1547.62 920.273,1568.62 910,1589.5C 896.707,1615.24 879.207,1637.74 857.5,1657C 841.816,1668.18 825.149,1677.85 807.5,1686C 784.9,1704.15 777.733,1727.31 786,1755.5C 792.684,1773.94 796.017,1792.94 796,1812.5C 794.281,1820.37 789.781,1822.54 782.5,1819C 765.401,1807.57 750.568,1793.73 738,1777.5C 722.696,1759.51 704.529,1745.35 683.5,1735C 661.882,1725.85 640.548,1726.35 619.5,1736.5C 602.711,1704.15 590.045,1670.15 581.5,1634.5C 560.284,1656.89 535.618,1674.39 507.5,1687C 482.007,1697.38 456.341,1698.05 430.5,1689C 408.192,1677.24 395.692,1658.74 393,1633.5C 391.212,1610.77 395.212,1589.11 405,1568.5C 411.117,1555.09 418.617,1542.59 427.5,1531C 366.586,1527.08 337.753,1494.58 341,1433.5C 343.646,1403.05 355.813,1377.21 377.5,1356C 393.685,1342 412.018,1338.16 432.5,1344.5C 432.679,1314.47 441.179,1287.14 458,1262.5C 483.768,1229.91 516.601,1219.41 556.5,1231C 576.681,1239.85 592.514,1253.68 604,1272.5C 618.379,1297.3 627.379,1323.97 631,1352.5C 638.833,1336.67 650.667,1324.83 666.5,1317C 684.8,1311.1 698.967,1316.26 709,1332.5C 714.762,1342.11 718.762,1352.45 721,1363.5C 722.675,1373.59 724.341,1383.59 726,1393.5C 789.42,1355.26 858.253,1333.93 932.5,1329.5C 913.427,1283.22 925.093,1247.06 967.5,1221C 995.845,1205.92 1025.18,1203.58 1055.5,1214C 1077.58,1223.63 1092.74,1239.8 1101,1262.5C 1132.04,1247.44 1164.21,1244.27 1197.5,1253C 1230.99,1265.3 1248.66,1289.3 1250.5,1325C 1249.24,1349.67 1240.41,1371.17 1224,1389.5C 1213.38,1400.46 1201.88,1410.29 1189.5,1419C 1225.89,1456.96 1248.06,1502.12 1256,1554.5C 1258.88,1571.72 1260.05,1589.05 1259.5,1606.5 Z"/></g>
<g><path style="opacity:0.999" fill="#ad7040" d="M 2412.5,1695.5 C 2390.07,1687.84 2369.07,1690.67 2349.5,1704C 2333.25,1715.59 2319.75,1729.75 2309,1746.5C 2302.87,1758.46 2295.37,1769.46 2286.5,1779.5C 2276.36,1787.97 2270.19,1785.64 2268,1772.5C 2264.87,1749.52 2264.87,1726.52 2268,1703.5C 2269.22,1694.34 2270.39,1685.17 2271.5,1676C 2271.17,1674.5 2270.83,1673 2270.5,1671.5C 2254.04,1683.36 2235.71,1688.19 2215.5,1686C 2199.43,1681.75 2191.43,1671.25 2191.5,1654.5C 2181.51,1658.49 2171.18,1661.32 2160.5,1663C 2142.98,1665.92 2127.31,1661.92 2113.5,1651C 2107.57,1645.4 2102.07,1639.57 2097,1633.5C 2089.32,1636.73 2081.49,1639.56 2073.5,1642C 2096.06,1643.61 2115.39,1652.28 2131.5,1668C 2136.17,1673.33 2140.83,1678.67 2145.5,1684C 2131.35,1674.93 2116.01,1667.93 2099.5,1663C 2074.97,1657.11 2051.97,1660.77 2030.5,1674C 2018.15,1681.35 2007.32,1690.51 1998,1701.5C 2006.27,1682.53 2018.77,1666.7 2035.5,1654C 2039.67,1651.41 2044.01,1649.08 2048.5,1647C 2021.08,1647.64 1998.25,1637.81 1980,1617.5C 1968.77,1604.26 1959.1,1589.93 1951,1574.5C 1941.82,1555.15 1933.49,1535.48 1926,1515.5C 1910.25,1551 1892.92,1585.67 1874,1619.5C 1861.15,1641.69 1845.98,1662.19 1828.5,1681C 1855.13,1685.65 1877.79,1697.65 1896.5,1717C 1886.78,1712.64 1876.78,1708.64 1866.5,1705C 1835.29,1694.48 1806.63,1698.98 1780.5,1718.5C 1769.17,1726.33 1759.67,1736 1752,1747.5C 1751.35,1748.7 1750.85,1748.7 1750.5,1747.5C 1756.94,1728.26 1767.6,1711.93 1782.5,1698.5C 1784.01,1697.16 1785.68,1696 1787.5,1695C 1786.09,1693.63 1784.42,1692.79 1782.5,1692.5C 1770.48,1698.32 1760.31,1695.98 1752,1685.5C 1745.06,1674.7 1740.06,1663.03 1737,1650.5C 1728.3,1605.73 1730.13,1561.39 1742.5,1517.5C 1769.07,1434.52 1826.07,1393.02 1913.5,1393C 1948.65,1357.25 1990.99,1334.25 2040.5,1324C 2149.91,1305.05 2247.25,1330.71 2332.5,1401C 2408.13,1472.23 2437.3,1559.4 2420,1662.5C 2418.07,1673.67 2415.57,1684.67 2412.5,1695.5 Z"/></g>
<g><path style="opacity:1" fill="#f6936f" d="M 1449.5,1365.5 C 1501.32,1384.01 1554.32,1388.18 1608.5,1378C 1623.34,1374.62 1638,1370.96 1652.5,1367C 1638.6,1376.53 1623.94,1384.87 1608.5,1392C 1545.72,1418.02 1481.06,1436.52 1414.5,1447.5C 1428.9,1421.37 1440.56,1394.04 1449.5,1365.5 Z"/></g>
<g><path style="opacity:1" fill="#faba95" d="M 1258.5,1626.5 C 1258.55,1630.2 1258.89,1633.86 1259.5,1637.5C 1230.14,1621.17 1202.14,1623.34 1175.5,1644C 1164.94,1652.72 1155.61,1662.56 1147.5,1673.5C 1152.43,1670.99 1157.43,1667.82 1162.5,1664C 1186.39,1648.19 1212.39,1642.86 1240.5,1648C 1249.1,1649.92 1257.1,1653.08 1264.5,1657.5C 1277.57,1712.54 1281.23,1768.2 1275.5,1824.5C 1255.34,1805.12 1233.01,1802.28 1208.5,1816C 1186.21,1835.68 1182.38,1858.51 1197,1884.5C 1212.84,1903.92 1232.67,1909.59 1256.5,1901.5C 1225.04,1981.12 1167.37,2029.95 1083.5,2048C 1069.42,2050.35 1055.42,2052.19 1041.5,2053.5C 982.874,2054.34 927.54,2041.34 875.5,2014.5C 818.552,1984.4 770.552,1943.57 731.5,1892C 697.87,1893.11 665.87,1886.61 635.5,1872.5C 594.028,1847.54 580.528,1811.87 595,1765.5C 600.491,1753.51 608.658,1743.85 619.5,1736.5C 640.548,1726.35 661.882,1725.85 683.5,1735C 704.529,1745.35 722.696,1759.51 738,1777.5C 750.568,1793.73 765.401,1807.57 782.5,1819C 789.781,1822.54 794.281,1820.37 796,1812.5C 796.017,1792.94 792.684,1773.94 786,1755.5C 777.733,1727.31 784.9,1704.15 807.5,1686C 825.149,1677.85 841.816,1668.18 857.5,1657C 879.207,1637.74 896.707,1615.24 910,1589.5C 920.273,1568.62 930.273,1547.62 940,1526.5C 950.894,1502.64 964.561,1480.64 981,1460.5C 1003.63,1435.52 1031.63,1420.18 1065,1414.5C 1116.3,1423.98 1159.3,1447.98 1194,1486.5C 1216.43,1514.35 1233.43,1545.35 1245,1579.5C 1249.7,1595.35 1254.2,1611.02 1258.5,1626.5 Z"/></g>
<g><path style="opacity:0.999" fill="#96a18e" d="M 1409.5,1455.5 C 1504.5,1455.5 1599.5,1455.5 1694.5,1455.5C 1708.58,1477.65 1724.58,1498.32 1742.5,1517.5C 1730.13,1561.39 1728.3,1605.73 1737,1650.5C 1740.06,1663.03 1745.06,1674.7 1752,1685.5C 1760.31,1695.98 1770.48,1698.32 1782.5,1692.5C 1782.5,1694.5 1782.5,1696.5 1782.5,1698.5C 1767.6,1711.93 1756.94,1728.26 1750.5,1747.5C 1750.85,1748.7 1751.35,1748.7 1752,1747.5C 1759.67,1736 1769.17,1726.33 1780.5,1718.5C 1774.86,1787.7 1784.36,1854.7 1809,1919.5C 1847.58,2009.55 1915.74,2058.55 2013.5,2066.5C 2014.23,2073.48 2014.56,2080.48 2014.5,2087.5C 2013.51,2087.33 2012.84,2087.66 2012.5,2088.5C 1975.18,2098.82 1941.51,2115.99 1911.5,2140C 1887.82,2161.21 1870.48,2186.71 1859.5,2216.5C 1776.57,2215.19 1694.24,2207.69 1612.5,2194C 1601.14,2182.3 1589.47,2170.97 1577.5,2160C 1571.25,2154.62 1564.42,2150.12 1557,2146.5C 1555.01,2147.23 1554.17,2148.73 1554.5,2151C 1558.64,2166.28 1564.97,2180.61 1573.5,2194C 1554.83,2189.67 1536.16,2185 1517.5,2180C 1504.97,2177.16 1492.3,2175.83 1479.5,2176C 1477.88,2177.12 1476.88,2178.62 1476.5,2180.5C 1477.36,2183.53 1478.86,2186.19 1481,2188.5C 1493.64,2200.15 1507.14,2210.65 1521.5,2220C 1503.44,2220.54 1485.44,2221.87 1467.5,2224C 1462.53,2225.46 1457.53,2226.79 1452.5,2228C 1447.36,2229.77 1445.53,2233.27 1447,2238.5C 1452.37,2244.1 1458.54,2248.6 1465.5,2252C 1485.05,2261.11 1505.05,2269.11 1525.5,2276C 1510.62,2280.07 1496.62,2286.07 1483.5,2294C 1481.08,2296 1480.24,2298.5 1481,2301.5C 1489.44,2307.66 1498.94,2311.16 1509.5,2312C 1524.09,2314.32 1538.76,2315.98 1553.5,2317C 1567.59,2326.23 1583.09,2330.4 1600,2329.5C 1608.32,2329.67 1616.49,2328.67 1624.5,2326.5C 1693.25,2344.79 1762.92,2358.46 1833.5,2367.5C 1831.65,2383.14 1829.99,2398.81 1828.5,2414.5C 1798.86,2407.34 1769.86,2398.17 1741.5,2387C 1733.22,2382.95 1725.06,2378.78 1717,2374.5C 1715.99,2381.8 1717.65,2388.46 1722,2394.5C 1728.72,2404.22 1736.55,2413.06 1745.5,2421C 1730.05,2416.44 1715.72,2409.44 1702.5,2400C 1683.32,2386.17 1665.32,2370.83 1648.5,2354C 1644.11,2350.14 1639.11,2347.3 1633.5,2345.5C 1630.93,2345.9 1629.6,2347.4 1629.5,2350C 1631.74,2357.56 1634.08,2365.06 1636.5,2372.5C 1630.13,2372.87 1626.8,2376.2 1626.5,2382.5C 1628.95,2393.89 1633.95,2404.06 1641.5,2413C 1635.74,2410.51 1629.74,2408.18 1623.5,2406C 1621.53,2405.5 1619.53,2405.34 1617.5,2405.5C 1618.36,2411.88 1620.86,2417.55 1625,2422.5C 1636.79,2436.63 1648.96,2450.46 1661.5,2464C 1656.52,2463.67 1651.52,2463.67 1646.5,2464C 1645.1,2465.06 1644.1,2466.39 1643.5,2468C 1647.58,2477.09 1653.58,2484.75 1661.5,2491C 1705.72,2530.44 1754.05,2563.94 1806.5,2591.5C 1799.47,2657.76 1791.47,2723.76 1782.5,2789.5C 1613.83,2789.5 1445.17,2789.5 1276.5,2789.5C 1263.86,2692.39 1251.86,2595.06 1240.5,2497.5C 1279.01,2473.18 1314.85,2445.18 1348,2413.5C 1350.39,2410.77 1352.39,2407.77 1354,2404.5C 1354.81,2402.42 1354.64,2400.42 1353.5,2398.5C 1347.83,2397.44 1342.17,2397.27 1336.5,2398C 1349.37,2384.13 1361.87,2369.96 1374,2355.5C 1377.28,2351.27 1379.78,2346.61 1381.5,2341.5C 1381.39,2340.56 1381.06,2339.72 1380.5,2339C 1378.5,2338.33 1376.5,2338.33 1374.5,2339C 1368.84,2341.68 1363.17,2344.01 1357.5,2346C 1363.57,2338.25 1368.4,2329.75 1372,2320.5C 1373.82,2311.82 1370.32,2306.82 1361.5,2305.5C 1363.76,2299.87 1365.93,2294.21 1368,2288.5C 1368.78,2285.24 1368.62,2282.07 1367.5,2279C 1366.17,2278.33 1364.83,2278.33 1363.5,2279C 1358.56,2281.61 1353.9,2284.61 1349.5,2288C 1329.19,2308.66 1306.86,2326.66 1282.5,2342C 1273.11,2347.01 1263.45,2351.01 1253.5,2354C 1266.26,2343.97 1275.76,2331.47 1282,2316.5C 1282.5,2313.85 1282.66,2311.19 1282.5,2308.5C 1263.4,2318.15 1243.57,2326.15 1223,2332.5C 1221.99,2331.94 1221.16,2331.28 1220.5,2330.5C 1218.59,2315.19 1216.93,2299.86 1215.5,2284.5C 1215.26,2282.53 1215.59,2280.7 1216.5,2279C 1289.89,2226.64 1358.89,2168.64 1423.5,2105C 1446.76,2098.13 1466.26,2085.63 1482,2067.5C 1484.46,2062.75 1487.29,2058.25 1490.5,2054C 1511.06,2041.45 1529.89,2026.62 1547,2009.5C 1549.64,2006.26 1550.64,2002.6 1550,1998.5C 1548.58,1997.54 1547.08,1996.71 1545.5,1996C 1528.76,1994.89 1512.26,1996.39 1496,2000.5C 1495.5,2000.17 1495,1999.83 1494.5,1999.5C 1511.33,1980.84 1526.83,1961.17 1541,1940.5C 1543.33,1935.83 1545.67,1931.17 1548,1926.5C 1550.66,1918.17 1547.66,1914.17 1539,1914.5C 1525.89,1916.8 1513.39,1920.97 1501.5,1927C 1489.81,1933.01 1478.14,1938.68 1466.5,1944C 1475.79,1926.58 1483.29,1908.41 1489,1889.5C 1491.02,1882.3 1488.52,1879.13 1481.5,1880C 1473.31,1884.18 1465.65,1889.18 1458.5,1895C 1439.33,1912.34 1420.66,1930.17 1402.5,1948.5C 1401.88,1933.48 1401.04,1918.48 1400,1903.5C 1399.4,1900.36 1398.4,1897.36 1397,1894.5C 1395.87,1892.79 1394.37,1892.29 1392.5,1893C 1387.51,1899.14 1383.68,1905.97 1381,1913.5C 1374.75,1932.25 1368.91,1951.09 1363.5,1970C 1303.72,2017.11 1241.72,2061.11 1177.5,2102C 1162.52,2111.49 1147.19,2120.32 1131.5,2128.5C 1103.41,2109.9 1073.08,2095.9 1040.5,2086.5C 1040.79,2075.5 1041.13,2064.5 1041.5,2053.5C 1055.42,2052.19 1069.42,2050.35 1083.5,2048C 1167.37,2029.95 1225.04,1981.12 1256.5,1901.5C 1280.13,1889.25 1289.63,1869.91 1285,1843.5C 1282.86,1836.56 1279.69,1830.22 1275.5,1824.5C 1281.23,1768.2 1277.57,1712.54 1264.5,1657.5C 1277.5,1663.65 1289,1671.99 1299,1682.5C 1290.41,1663.73 1277.25,1648.73 1259.5,1637.5C 1258.89,1633.86 1258.55,1630.2 1258.5,1626.5C 1258.24,1619.78 1258.58,1613.11 1259.5,1606.5C 1319.58,1566.09 1369.58,1515.76 1409.5,1455.5 Z"/></g>
<g><path style="opacity:1" fill="#faba95" d="M 2412.5,1695.5 C 2430.63,1703.71 2442.8,1717.38 2449,1736.5C 2458,1772.84 2448.17,1803 2419.5,1827C 2403.17,1839.16 2385.17,1848.16 2365.5,1854C 2353.52,1857.03 2341.52,1859.86 2329.5,1862.5C 2323.2,1874.11 2316.54,1885.44 2309.5,1896.5C 2290.62,1922.9 2269.62,1947.74 2246.5,1971C 2219.72,1995.94 2190.06,2016.78 2157.5,2033.5C 2112.19,2056.05 2064.19,2067.05 2013.5,2066.5C 1915.74,2058.55 1847.58,2009.55 1809,1919.5C 1784.36,1854.7 1774.86,1787.7 1780.5,1718.5C 1806.63,1698.98 1835.29,1694.48 1866.5,1705C 1876.78,1708.64 1886.78,1712.64 1896.5,1717C 1877.79,1697.65 1855.13,1685.65 1828.5,1681C 1845.98,1662.19 1861.15,1641.69 1874,1619.5C 1892.92,1585.67 1910.25,1551 1926,1515.5C 1933.49,1535.48 1941.82,1555.15 1951,1574.5C 1959.1,1589.93 1968.77,1604.26 1980,1617.5C 1998.25,1637.81 2021.08,1647.64 2048.5,1647C 2044.01,1649.08 2039.67,1651.41 2035.5,1654C 2018.77,1666.7 2006.27,1682.53 1998,1701.5C 2007.32,1690.51 2018.15,1681.35 2030.5,1674C 2051.97,1660.77 2074.97,1657.11 2099.5,1663C 2116.01,1667.93 2131.35,1674.93 2145.5,1684C 2140.83,1678.67 2136.17,1673.33 2131.5,1668C 2115.39,1652.28 2096.06,1643.61 2073.5,1642C 2081.49,1639.56 2089.32,1636.73 2097,1633.5C 2102.07,1639.57 2107.57,1645.4 2113.5,1651C 2127.31,1661.92 2142.98,1665.92 2160.5,1663C 2171.18,1661.32 2181.51,1658.49 2191.5,1654.5C 2191.43,1671.25 2199.43,1681.75 2215.5,1686C 2235.71,1688.19 2254.04,1683.36 2270.5,1671.5C 2270.83,1673 2271.17,1674.5 2271.5,1676C 2270.39,1685.17 2269.22,1694.34 2268,1703.5C 2264.87,1726.52 2264.87,1749.52 2268,1772.5C 2270.19,1785.64 2276.36,1787.97 2286.5,1779.5C 2295.37,1769.46 2302.87,1758.46 2309,1746.5C 2319.75,1729.75 2333.25,1715.59 2349.5,1704C 2369.07,1690.67 2390.07,1687.84 2412.5,1695.5 Z"/></g>
<g><path style="opacity:1" fill="#5b1e39" d="M 955.5,1626.5 C 979.618,1625.37 1000.62,1632.87 1018.5,1649C 1025.03,1655.2 1031.2,1661.7 1037,1668.5C 1038.6,1670.37 1039.6,1672.37 1040,1674.5C 987.248,1633.35 936.915,1636.02 889,1682.5C 902.44,1653.57 924.607,1634.9 955.5,1626.5 Z"/></g>
<g><path style="opacity:1" fill="#5b1d39" d="M 1259.5,1637.5 C 1277.25,1648.73 1290.41,1663.73 1299,1682.5C 1289,1671.99 1277.5,1663.65 1264.5,1657.5C 1257.1,1653.08 1249.1,1649.92 1240.5,1648C 1212.39,1642.86 1186.39,1648.19 1162.5,1664C 1157.43,1667.82 1152.43,1670.99 1147.5,1673.5C 1155.61,1662.56 1164.94,1652.72 1175.5,1644C 1202.14,1623.34 1230.14,1621.17 1259.5,1637.5 Z"/></g>
<g><path style="opacity:1" fill="#efb38d" d="M 1782.5,1692.5 C 1784.42,1692.79 1786.09,1693.63 1787.5,1695C 1785.68,1696 1784.01,1697.16 1782.5,1698.5C 1782.5,1696.5 1782.5,1694.5 1782.5,1692.5 Z"/></g>
<g><path style="opacity:1" fill="#5d1f3a" d="M 966.5,1717.5 C 979.859,1716.45 991.859,1719.95 1002.5,1728C 1008.7,1733.86 1014.53,1740.03 1020,1746.5C 1022.67,1750.5 1025.33,1754.5 1028,1758.5C 1029.95,1761.72 1031.29,1765.05 1032,1768.5C 1022.46,1755.96 1011.29,1745.13 998.5,1736C 977.95,1723.33 960.45,1726.49 946,1745.5C 939.027,1755.78 933.36,1766.78 929,1778.5C 930.875,1757.25 939.375,1739.08 954.5,1724C 958.434,1721.54 962.434,1719.37 966.5,1717.5 Z"/></g>
<g><path style="opacity:1" fill="#5e203b" d="M 1205.5,1717.5 C 1224.3,1716.15 1238.14,1723.82 1247,1740.5C 1254.18,1754.04 1258.51,1768.37 1260,1783.5C 1254.62,1764.24 1244.79,1747.74 1230.5,1734C 1215.55,1725.92 1201.21,1726.92 1187.5,1737C 1174.63,1746.87 1163.46,1758.37 1154,1771.5C 1161.8,1752.13 1174.3,1736.3 1191.5,1724C 1196.14,1721.51 1200.8,1719.34 1205.5,1717.5 Z"/></g>
<g><path style="opacity:1" fill="#5e203b" d="M 2065.5,1731.5 C 2081.38,1730.19 2094.21,1735.85 2104,1748.5C 2112.78,1760.39 2119.11,1773.39 2123,1787.5C 2116.49,1773.65 2107.66,1761.49 2096.5,1751C 2081.74,1738.84 2066.74,1738.51 2051.5,1750C 2039.42,1761.74 2029.25,1774.91 2021,1789.5C 2025.25,1771.16 2034.09,1755.33 2047.5,1742C 2053.1,1737.7 2059.1,1734.2 2065.5,1731.5 Z"/></g>
<g><path style="opacity:1" fill="#5d1f3a" d="M 1835.5,1768.5 C 1852.64,1767.6 1867.64,1772.77 1880.5,1784C 1888.74,1791.57 1896.24,1799.73 1903,1808.5C 1903.67,1809.17 1903.67,1809.83 1903,1810.5C 1889,1795.51 1872.17,1785.01 1852.5,1779C 1838.15,1777.26 1826.98,1782.42 1819,1794.5C 1811.23,1807.82 1806.23,1822.16 1804,1837.5C 1803.16,1819.21 1806.83,1801.88 1815,1785.5C 1820.22,1777.77 1827.06,1772.1 1835.5,1768.5 Z"/></g>
<g><path style="opacity:1" fill="#f47d54" d="M 945.5,1807.5 C 975.088,1805.27 994.255,1818.27 1003,1846.5C 1005.64,1876.17 992.808,1895.33 964.5,1904C 938.792,1907.73 920.292,1897.9 909,1874.5C 900.449,1847.45 908.282,1826.61 932.5,1812C 936.846,1810.16 941.179,1808.66 945.5,1807.5 Z"/></g>
<g><path style="opacity:1" fill="#f37d54" d="M 1275.5,1824.5 C 1279.69,1830.22 1282.86,1836.56 1285,1843.5C 1289.63,1869.91 1280.13,1889.25 1256.5,1901.5C 1232.67,1909.59 1212.84,1903.92 1197,1884.5C 1182.38,1858.51 1186.21,1835.68 1208.5,1816C 1233.01,1802.28 1255.34,1805.12 1275.5,1824.5 Z"/></g>
<g><path style="opacity:1" fill="#bc6f51" d="M 1101.5,1841.5 C 1119.25,1838.42 1121.91,1842.25 1109.5,1853C 1093.94,1861.11 1081.27,1857.94 1071.5,1843.5C 1081.66,1842.83 1091.66,1842.17 1101.5,1841.5 Z"/></g>
<g><path style="opacity:1" fill="#bc7051" d="M 1931.5,1857.5 C 1951.5,1857.33 1971.5,1857.5 1991.5,1858C 1981.42,1874.54 1967.09,1880.21 1948.5,1875C 1940.59,1871.26 1934.93,1865.43 1931.5,1857.5 Z"/></g>
<g><path style="opacity:0.999" fill="#96a18e" d="M 635.5,1872.5 C 665.87,1886.61 697.87,1893.11 731.5,1892C 770.552,1943.57 818.552,1984.4 875.5,2014.5C 881.5,2020.17 887.5,2025.83 893.5,2031.5C 883.912,2044.43 873.912,2057.1 863.5,2069.5C 843.653,2094.19 822.486,2117.86 800,2140.5C 775.976,2166.85 754.642,2195.18 736,2225.5C 725.323,2242.85 717.99,2261.52 714,2281.5C 710.99,2307.31 719.49,2328.48 739.5,2345C 759.602,2359.38 781.602,2370.05 805.5,2377C 839.203,2386.26 873.203,2394.26 907.5,2401C 929.863,2404.89 952.196,2408.89 974.5,2413C 978.916,2415.41 982.749,2418.58 986,2422.5C 990.461,2429.77 994.628,2437.1 998.5,2444.5C 1015.5,2487.17 1024.83,2531.5 1026.5,2577.5C 1026.73,2587.87 1026.23,2598.2 1025,2608.5C 1024.38,2614.6 1022.88,2620.44 1020.5,2626C 911.82,2671.29 799.486,2683.79 683.5,2663.5C 599.151,2647.78 521.817,2615.62 451.5,2567C 421.1,2545.2 392.267,2521.36 365,2495.5C 305.399,2430.74 287.732,2355.74 312,2270.5C 327.096,2223.13 348.763,2179.13 377,2138.5C 407.135,2096.29 440.135,2056.29 476,2018.5C 526.965,1967.02 580.131,1918.35 635.5,1872.5 Z"/></g>
<g><path style="opacity:1" fill="#fefcfb" d="M 1026.5,1870.5 C 1034.72,1881.96 1045.05,1891.13 1057.5,1898C 1068.86,1902.61 1080.52,1903.61 1092.5,1901C 1099.27,1898.96 1105.93,1896.96 1112.5,1895C 1098.52,1907.44 1082.19,1913.1 1063.5,1912C 1043.26,1905.26 1030.92,1891.42 1026.5,1870.5 Z"/></g>
<g><path style="opacity:1" fill="#faba95" d="M 1215.5,2284.5 C 1214.84,2283.6 1214.18,2282.6 1213.5,2281.5C 1187.19,2300.99 1160.52,2319.99 1133.5,2338.5C 1119.88,2277.42 1095.88,2220.92 1061.5,2169C 1078.48,2158.84 1095.82,2149.17 1113.5,2140C 1119.73,2136.39 1125.73,2132.56 1131.5,2128.5C 1147.19,2120.32 1162.52,2111.49 1177.5,2102C 1241.72,2061.11 1303.72,2017.11 1363.5,1970C 1368.91,1951.09 1374.75,1932.25 1381,1913.5C 1383.68,1905.97 1387.51,1899.14 1392.5,1893C 1394.37,1892.29 1395.87,1892.79 1397,1894.5C 1398.4,1897.36 1399.4,1900.36 1400,1903.5C 1401.04,1918.48 1401.88,1933.48 1402.5,1948.5C 1420.66,1930.17 1439.33,1912.34 1458.5,1895C 1465.65,1889.18 1473.31,1884.18 1481.5,1880C 1488.52,1879.13 1491.02,1882.3 1489,1889.5C 1483.29,1908.41 1475.79,1926.58 1466.5,1944C 1478.14,1938.68 1489.81,1933.01 1501.5,1927C 1513.39,1920.97 1525.89,1916.8 1539,1914.5C 1547.66,1914.17 1550.66,1918.17 1548,1926.5C 1545.67,1931.17 1543.33,1935.83 1541,1940.5C 1526.83,1961.17 1511.33,1980.84 1494.5,1999.5C 1495,1999.83 1495.5,2000.17 1496,2000.5C 1512.26,1996.39 1528.76,1994.89 1545.5,1996C 1547.08,1996.71 1548.58,1997.54 1550,1998.5C 1550.64,2002.6 1549.64,2006.26 1547,2009.5C 1529.89,2026.62 1511.06,2041.45 1490.5,2054C 1487.29,2058.25 1484.46,2062.75 1482,2067.5C 1466.26,2085.63 1446.76,2098.13 1423.5,2105C 1358.89,2168.64 1289.89,2226.64 1216.5,2279C 1215.59,2280.7 1215.26,2282.53 1215.5,2284.5 Z"/></g>
<g><path style="opacity:1" fill="#fefcfa" d="M 2041.5,1885.5 C 2041.3,1903.39 2033.97,1917.89 2019.5,1929C 2000.32,1937.49 1981.99,1935.82 1964.5,1924C 1979.28,1926.56 1993.95,1925.89 2008.5,1922C 2024.44,1914.29 2035.44,1902.12 2041.5,1885.5 Z"/></g>
<g><path style="opacity:1" fill="#96a08f" d="M 2309.5,1896.5 C 2361.74,1937.22 2412.4,1980.05 2461.5,2025C 2519.21,2078.01 2571.04,2135.85 2617,2198.5C 2643.79,2235.73 2665.12,2276.06 2681,2319.5C 2698.72,2368.09 2701.38,2417.43 2689,2467.5C 2678.01,2502.76 2660.01,2533.76 2635,2560.5C 2571.65,2623.28 2498.15,2670.61 2414.5,2702.5C 2267.97,2754.76 2122.64,2751.6 1978.5,2693C 1975.13,2685.97 1973.29,2678.47 1973,2670.5C 1972.5,2661.84 1972.33,2653.17 1972.5,2644.5C 1974.01,2598.62 1983.01,2554.29 1999.5,2511.5C 2003.47,2503.57 2007.97,2495.9 2013,2488.5C 2016.25,2484.58 2020.08,2481.41 2024.5,2479C 2069,2471.17 2113.33,2462.5 2157.5,2453C 2187.41,2446.03 2216.07,2435.7 2243.5,2422C 2285.02,2396.47 2295.52,2361.31 2275,2316.5C 2259.73,2284.93 2240.73,2255.93 2218,2229.5C 2196.67,2206.17 2175.33,2182.83 2154,2159.5C 2141.15,2143.76 2128.31,2128.1 2115.5,2112.5C 2106.5,2099.17 2097.5,2085.83 2088.5,2072.5C 2113.87,2063.32 2136.87,2050.32 2157.5,2033.5C 2190.06,2016.78 2219.72,1995.94 2246.5,1971C 2269.62,1947.74 2290.62,1922.9 2309.5,1896.5 Z"/></g>
<g><path style="opacity:1" fill="#ad7040" d="M 875.5,2014.5 C 927.54,2041.34 982.874,2054.34 1041.5,2053.5C 1041.13,2064.5 1040.79,2075.5 1040.5,2086.5C 1002.68,2084.5 967.011,2074.67 933.5,2057C 919.73,2049.04 906.397,2040.54 893.5,2031.5C 887.5,2025.83 881.5,2020.17 875.5,2014.5 Z"/></g>
<g><path style="opacity:1" fill="#faba95" d="M 893.5,2031.5 C 906.397,2040.54 919.73,2049.04 933.5,2057C 967.011,2074.67 1002.68,2084.5 1040.5,2086.5C 1040.26,2099.24 1034.26,2108.07 1022.5,2113C 1003.3,2119.53 983.629,2121.19 963.5,2118C 931.935,2113.71 903.268,2102.37 877.5,2084C 872.603,2079.27 867.936,2074.44 863.5,2069.5C 873.912,2057.1 883.912,2044.43 893.5,2031.5 Z"/></g>
<g><path style="opacity:1" fill="#bb6f51" d="M 2157.5,2033.5 C 2136.87,2050.32 2113.87,2063.32 2088.5,2072.5C 2064.73,2081.8 2040.06,2086.8 2014.5,2087.5C 2014.56,2080.48 2014.23,2073.48 2013.5,2066.5C 2064.19,2067.05 2112.19,2056.05 2157.5,2033.5 Z"/></g>
<g><path style="opacity:1" fill="#fdbe53" d="M 863.5,2069.5 C 867.936,2074.44 872.603,2079.27 877.5,2084C 903.268,2102.37 931.935,2113.71 963.5,2118C 983.629,2121.19 1003.3,2119.53 1022.5,2113C 1034.26,2108.07 1040.26,2099.24 1040.5,2086.5C 1073.08,2095.9 1103.41,2109.9 1131.5,2128.5C 1125.73,2132.56 1119.73,2136.39 1113.5,2140C 1095.82,2149.17 1078.48,2158.84 1061.5,2169C 1095.88,2220.92 1119.88,2277.42 1133.5,2338.5C 1160.52,2319.99 1187.19,2300.99 1213.5,2281.5C 1214.18,2282.6 1214.84,2283.6 1215.5,2284.5C 1216.93,2299.86 1218.59,2315.19 1220.5,2330.5C 1220.64,2332.12 1219.97,2333.29 1218.5,2334C 1191.58,2341.19 1164.92,2349.19 1138.5,2358C 1091.07,2376.88 1050.41,2405.38 1016.5,2443.5C 1010.54,2444.5 1004.54,2444.83 998.5,2444.5C 994.628,2437.1 990.461,2429.77 986,2422.5C 982.749,2418.58 978.916,2415.41 974.5,2413C 952.196,2408.89 929.863,2404.89 907.5,2401C 873.203,2394.26 839.203,2386.26 805.5,2377C 781.602,2370.05 759.602,2359.38 739.5,2345C 719.49,2328.48 710.99,2307.31 714,2281.5C 717.99,2261.52 725.323,2242.85 736,2225.5C 754.642,2195.18 775.976,2166.85 800,2140.5C 822.486,2117.86 843.653,2094.19 863.5,2069.5 Z"/></g>
<g><path style="opacity:1" fill="#faba95" d="M 2088.5,2072.5 C 2097.5,2085.83 2106.5,2099.17 2115.5,2112.5C 2093.62,2119.03 2071.29,2121.19 2048.5,2119C 2036.83,2117.75 2027,2112.92 2019,2104.5C 2016.28,2099.13 2014.11,2093.8 2012.5,2088.5C 2012.84,2087.66 2013.51,2087.33 2014.5,2087.5C 2040.06,2086.8 2064.73,2081.8 2088.5,2072.5 Z"/></g>
<g><path style="opacity:1" fill="#f2869b" d="M 2012.5,2088.5 C 2014.11,2093.8 2016.28,2099.13 2019,2104.5C 2027,2112.92 2036.83,2117.75 2048.5,2119C 2071.29,2121.19 2093.62,2119.03 2115.5,2112.5C 2128.31,2128.1 2141.15,2143.76 2154,2159.5C 2175.33,2182.83 2196.67,2206.17 2218,2229.5C 2240.73,2255.93 2259.73,2284.93 2275,2316.5C 2295.52,2361.31 2285.02,2396.47 2243.5,2422C 2216.07,2435.7 2187.41,2446.03 2157.5,2453C 2113.33,2462.5 2069,2471.17 2024.5,2479C 2020.08,2481.41 2016.25,2484.58 2013,2488.5C 2007.97,2495.9 2003.47,2503.57 1999.5,2511.5C 1994.16,2511.67 1988.82,2511.5 1983.5,2511C 1957.29,2482.77 1927.63,2459.1 1894.5,2440C 1873.36,2429.23 1851.36,2420.73 1828.5,2414.5C 1829.99,2398.81 1831.65,2383.14 1833.5,2367.5C 1874.39,2372.88 1915.39,2377.21 1956.5,2380.5C 1943.83,2337.63 1937.49,2293.8 1937.5,2249C 1937.57,2237.82 1937.91,2226.65 1938.5,2215.5C 1912.17,2216.26 1885.84,2216.59 1859.5,2216.5C 1870.48,2186.71 1887.82,2161.21 1911.5,2140C 1941.51,2115.99 1975.18,2098.82 2012.5,2088.5 Z"/></g>
<g><path style="opacity:1" fill="#faba95" d="M 1859.5,2216.5 C 1885.84,2216.59 1912.17,2216.26 1938.5,2215.5C 1937.91,2226.65 1937.57,2237.82 1937.5,2249C 1937.49,2293.8 1943.83,2337.63 1956.5,2380.5C 1915.39,2377.21 1874.39,2372.88 1833.5,2367.5C 1762.92,2358.46 1693.25,2344.79 1624.5,2326.5C 1616.49,2328.67 1608.32,2329.67 1600,2329.5C 1583.09,2330.4 1567.59,2326.23 1553.5,2317C 1538.76,2315.98 1524.09,2314.32 1509.5,2312C 1498.94,2311.16 1489.44,2307.66 1481,2301.5C 1480.24,2298.5 1481.08,2296 1483.5,2294C 1496.62,2286.07 1510.62,2280.07 1525.5,2276C 1505.05,2269.11 1485.05,2261.11 1465.5,2252C 1458.54,2248.6 1452.37,2244.1 1447,2238.5C 1445.53,2233.27 1447.36,2229.77 1452.5,2228C 1457.53,2226.79 1462.53,2225.46 1467.5,2224C 1485.44,2221.87 1503.44,2220.54 1521.5,2220C 1507.14,2210.65 1493.64,2200.15 1481,2188.5C 1478.86,2186.19 1477.36,2183.53 1476.5,2180.5C 1476.88,2178.62 1477.88,2177.12 1479.5,2176C 1492.3,2175.83 1504.97,2177.16 1517.5,2180C 1536.16,2185 1554.83,2189.67 1573.5,2194C 1564.97,2180.61 1558.64,2166.28 1554.5,2151C 1554.17,2148.73 1555.01,2147.23 1557,2146.5C 1564.42,2150.12 1571.25,2154.62 1577.5,2160C 1589.47,2170.97 1601.14,2182.3 1612.5,2194C 1694.24,2207.69 1776.57,2215.19 1859.5,2216.5 Z"/></g>
<g><path style="opacity:1" fill="#faba95" d="M 1240.5,2497.5 C 1174.51,2538.17 1103.17,2564.84 1026.5,2577.5C 1024.83,2531.5 1015.5,2487.17 998.5,2444.5C 1004.54,2444.83 1010.54,2444.5 1016.5,2443.5C 1050.41,2405.38 1091.07,2376.88 1138.5,2358C 1164.92,2349.19 1191.58,2341.19 1218.5,2334C 1219.97,2333.29 1220.64,2332.12 1220.5,2330.5C 1221.16,2331.28 1221.99,2331.94 1223,2332.5C 1243.57,2326.15 1263.4,2318.15 1282.5,2308.5C 1282.66,2311.19 1282.5,2313.85 1282,2316.5C 1275.76,2331.47 1266.26,2343.97 1253.5,2354C 1263.45,2351.01 1273.11,2347.01 1282.5,2342C 1306.86,2326.66 1329.19,2308.66 1349.5,2288C 1353.9,2284.61 1358.56,2281.61 1363.5,2279C 1364.83,2278.33 1366.17,2278.33 1367.5,2279C 1368.62,2282.07 1368.78,2285.24 1368,2288.5C 1365.93,2294.21 1363.76,2299.87 1361.5,2305.5C 1370.32,2306.82 1373.82,2311.82 1372,2320.5C 1368.4,2329.75 1363.57,2338.25 1357.5,2346C 1363.17,2344.01 1368.84,2341.68 1374.5,2339C 1376.5,2338.33 1378.5,2338.33 1380.5,2339C 1381.06,2339.72 1381.39,2340.56 1381.5,2341.5C 1379.78,2346.61 1377.28,2351.27 1374,2355.5C 1361.87,2369.96 1349.37,2384.13 1336.5,2398C 1342.17,2397.27 1347.83,2397.44 1353.5,2398.5C 1354.64,2400.42 1354.81,2402.42 1354,2404.5C 1352.39,2407.77 1350.39,2410.77 1348,2413.5C 1314.85,2445.18 1279.01,2473.18 1240.5,2497.5 Z"/></g>
<g><path style="opacity:1" fill="#faba95" d="M 1828.5,2414.5 C 1851.36,2420.73 1873.36,2429.23 1894.5,2440C 1927.63,2459.1 1957.29,2482.77 1983.5,2511C 1988.82,2511.5 1994.16,2511.67 1999.5,2511.5C 1983.01,2554.29 1974.01,2598.62 1972.5,2644.5C 1914.6,2634.86 1859.26,2617.2 1806.5,2591.5C 1754.05,2563.94 1705.72,2530.44 1661.5,2491C 1653.58,2484.75 1647.58,2477.09 1643.5,2468C 1644.1,2466.39 1645.1,2465.06 1646.5,2464C 1651.52,2463.67 1656.52,2463.67 1661.5,2464C 1648.96,2450.46 1636.79,2436.63 1625,2422.5C 1620.86,2417.55 1618.36,2411.88 1617.5,2405.5C 1619.53,2405.34 1621.53,2405.5 1623.5,2406C 1629.74,2408.18 1635.74,2410.51 1641.5,2413C 1633.95,2404.06 1628.95,2393.89 1626.5,2382.5C 1626.8,2376.2 1630.13,2372.87 1636.5,2372.5C 1634.08,2365.06 1631.74,2357.56 1629.5,2350C 1629.6,2347.4 1630.93,2345.9 1633.5,2345.5C 1639.11,2347.3 1644.11,2350.14 1648.5,2354C 1665.32,2370.83 1683.32,2386.17 1702.5,2400C 1715.72,2409.44 1730.05,2416.44 1745.5,2421C 1736.55,2413.06 1728.72,2404.22 1722,2394.5C 1717.65,2388.46 1715.99,2381.8 1717,2374.5C 1725.06,2378.78 1733.22,2382.95 1741.5,2387C 1769.86,2398.17 1798.86,2407.34 1828.5,2414.5 Z"/></g>
<g><path style="opacity:0.998" fill="#fdbe53" d="M 1240.5,2497.5 C 1251.86,2595.06 1263.86,2692.39 1276.5,2789.5C 1278.25,2805.83 1279.92,2822.16 1281.5,2838.5C 1104.18,2886.9 924.514,2897.73 742.5,2871C 706.994,2866.13 671.661,2860.3 636.5,2853.5C 656.554,2791.29 672.22,2727.95 683.5,2663.5C 799.486,2683.79 911.82,2671.29 1020.5,2626C 1022.88,2620.44 1024.38,2614.6 1025,2608.5C 1026.23,2598.2 1026.73,2587.87 1026.5,2577.5C 1103.17,2564.84 1174.51,2538.17 1240.5,2497.5 Z"/></g>
<g><path style="opacity:0.998" fill="#f2869b" d="M 1806.5,2591.5 C 1859.26,2617.2 1914.6,2634.86 1972.5,2644.5C 1972.33,2653.17 1972.5,2661.84 1973,2670.5C 1973.29,2678.47 1975.13,2685.97 1978.5,2693C 2122.64,2751.6 2267.97,2754.76 2414.5,2702.5C 2416.79,2746.14 2418.29,2789.81 2419,2833.5C 2264.36,2866.09 2108.53,2873.26 1951.5,2855C 1893.65,2847.43 1836.65,2835.76 1780.5,2820C 1779.89,2818.77 1779.56,2817.44 1779.5,2816C 1780.76,2807.19 1781.76,2798.36 1782.5,2789.5C 1791.47,2723.76 1799.47,2657.76 1806.5,2591.5 Z"/></g>
</svg>
