<?xml version="1.0" encoding="UTF-8"?>
<!DOCTYPE svg PUBLIC "-//W3C//DTD SVG 1.1//EN" "http://www.w3.org/Graphics/SVG/1.1/DTD/svg11.dtd">
<svg xmlns="http://www.w3.org/2000/svg" version="1.1" width="3000px" height="3000px" style="shape-rendering:geometricPrecision; text-rendering:geometricPrecision; image-rendering:optimizeQuality; fill-rule:evenodd; clip-rule:evenodd" xmlns:xlink="http://www.w3.org/1999/xlink">
<g><path style="opacity:0.999" fill="#dc434b" d="M 2540.5,639.5 C 2538.69,639.491 2537.02,639.991 2535.5,641C 2356.33,753.763 2175.33,863.763 1992.5,971C 1956.16,991.841 1919.49,1012.17 1882.5,1032C 1893.59,1029.31 1904.59,1025.97 1915.5,1022C 2163.45,937.629 2411.12,852.795 2658.5,767.5C 2691.33,810.452 2719.67,856.452 2743.5,905.5C 2614.87,907.046 2515.71,961.379 2446,1068.5C 2389.61,1166.74 2381.94,1268.74 2423,1374.5C 2465.91,1471.37 2537.75,1536.21 2638.5,1569C 2686.69,1582.99 2735.69,1586.49 2785.5,1579.5C 2756.97,1658.08 2718.47,1731.08 2670,1798.5C 2654.33,1819 2638.5,1839.33 2622.5,1859.5C 2621.5,1859.41 2620.67,1859.75 2620,1860.5C 2604.39,1878.75 2588.55,1896.75 2572.5,1914.5C 2480.93,2005.91 2377.93,2081.74 2263.5,2142C 2103.4,2224.98 1934.73,2283.15 1757.5,2316.5C 1722.93,2322.12 1688.27,2327.29 1653.5,2332C 1652.94,2332.38 1652.61,2332.88 1652.5,2333.5C 1578.94,2342.46 1505.11,2347.46 1431,2348.5C 1389.79,2348.26 1348.62,2346.76 1307.5,2344C 1279.57,2342.34 1251.9,2339.51 1224.5,2335.5C 1325.34,2283.5 1409.18,2211.5 1476,2119.5C 1574.33,1974.22 1602.33,1816.22 1560,1645.5C 1531.62,1548.69 1483.62,1463.36 1416,1389.5C 1327.7,1295.9 1222.54,1227.73 1100.5,1185C 1014.6,1155.61 926.264,1139.11 835.5,1135.5C 867.841,1062.68 923.507,1020.18 1002.5,1008C 1015.43,1006.14 1028.43,1005.3 1041.5,1005.5C 1045.58,1027.75 1058.58,1041.92 1080.5,1048C 1100.45,1050.91 1116.95,1044.74 1130,1029.5C 1147.48,1001.61 1143.31,977.439 1117.5,957C 1091.6,943.582 1069.1,947.749 1050,969.5C 1046.11,974.939 1043.61,980.939 1042.5,987.5C 977.239,986.494 920.239,1007.33 871.5,1050C 847.464,1074.89 828.797,1103.39 815.5,1135.5C 750.354,1135.81 686.021,1143.15 622.5,1157.5C 621.228,1157.43 620.062,1157.1 619,1156.5C 608.287,1122.73 591.62,1092.39 569,1065.5C 558.224,1054.56 547.391,1043.89 536.5,1033.5C 580.125,974.675 628.459,919.509 681.5,868C 775.03,778.933 877.697,702.433 989.5,638.5C 1014.9,749.064 1081.23,822.898 1188.5,860C 1291.8,888.237 1384.46,868.237 1466.5,800C 1541.71,729.394 1573.21,642.561 1561,539.5C 1555.19,501.553 1542.35,466.22 1522.5,433.5C 1674.13,398.884 1827.46,389.051 1982.5,404C 2124.06,418.633 2257.39,459.633 2382.5,527C 2439.24,558.928 2491.91,596.428 2540.5,639.5 Z"/></g>
<g><path style="opacity:1" fill="#000000" d="M 1522.5,433.5 C 1542.35,466.22 1555.19,501.553 1561,539.5C 1573.21,642.561 1541.71,729.394 1466.5,800C 1384.46,868.237 1291.8,888.237 1188.5,860C 1081.23,822.898 1014.9,749.064 989.5,638.5C 1156.07,542.078 1333.74,473.744 1522.5,433.5 Z"/></g>
<g><path style="opacity:1" fill="#000000" d="M 1858.5,579.5 C 1912.66,575.785 1953.83,596.785 1982,642.5C 2005.03,690.811 2000.69,736.477 1969,779.5C 1936.16,815.448 1895.66,829.281 1847.5,821C 1801.78,808.901 1771.61,780.401 1757,735.5C 1743.17,675.288 1762,628.454 1813.5,595C 1827.64,586.912 1842.64,581.745 1858.5,579.5 Z"/></g>
<g><path style="opacity:1" fill="#010000" d="M 2540.5,639.5 C 2558.77,655.102 2576.1,671.769 2592.5,689.5C 2594.43,693.1 2597.1,696.1 2600.5,698.5C 2602.5,699.833 2604.17,701.5 2605.5,703.5C 2606.42,706.089 2608.09,708.089 2610.5,709.5C 2612.17,710.5 2613.5,711.833 2614.5,713.5C 2615.08,715.749 2616.41,717.415 2618.5,718.5C 2633.02,733.876 2646.35,750.209 2658.5,767.5C 2411.12,852.795 2163.45,937.629 1915.5,1022C 1904.59,1025.97 1893.59,1029.31 1882.5,1032C 1919.49,1012.17 1956.16,991.841 1992.5,971C 2175.33,863.763 2356.33,753.763 2535.5,641C 2537.02,639.991 2538.69,639.491 2540.5,639.5 Z"/></g>
<g><path style="opacity:0.961" fill="#691919" d="M 2592.5,689.5 C 2595.9,691.9 2598.57,694.9 2600.5,698.5C 2597.1,696.1 2594.43,693.1 2592.5,689.5 Z"/></g>
<g><path style="opacity:0.98" fill="#5d1917" d="M 2605.5,703.5 C 2607.91,704.911 2609.58,706.911 2610.5,709.5C 2608.09,708.089 2606.42,706.089 2605.5,703.5 Z"/></g>
<g><path style="opacity:0.988" fill="#5e1b1a" d="M 2614.5,713.5 C 2616.59,714.585 2617.92,716.251 2618.5,718.5C 2616.41,717.415 2615.08,715.749 2614.5,713.5 Z"/></g>
<g><path style="opacity:1" fill="#000000" d="M 2743.5,905.5 C 2831.78,1087.3 2855.95,1277.3 2816,1475.5C 2808.29,1511.02 2798.13,1545.68 2785.5,1579.5C 2735.69,1586.49 2686.69,1582.99 2638.5,1569C 2537.75,1536.21 2465.91,1471.37 2423,1374.5C 2381.94,1268.74 2389.61,1166.74 2446,1068.5C 2515.71,961.379 2614.87,907.046 2743.5,905.5 Z"/></g>
<g><path style="opacity:0.999" fill="#000000" d="M 536.5,1033.5 C 547.391,1043.89 558.224,1054.56 569,1065.5C 591.62,1092.39 608.287,1122.73 619,1156.5C 620.062,1157.1 621.228,1157.43 622.5,1157.5C 686.021,1143.15 750.354,1135.81 815.5,1135.5C 828.797,1103.39 847.464,1074.89 871.5,1050C 920.239,1007.33 977.239,986.494 1042.5,987.5C 1043.61,980.939 1046.11,974.939 1050,969.5C 1069.1,947.749 1091.6,943.582 1117.5,957C 1143.31,977.439 1147.48,1001.61 1130,1029.5C 1116.95,1044.74 1100.45,1050.91 1080.5,1048C 1058.58,1041.92 1045.58,1027.75 1041.5,1005.5C 1028.43,1005.3 1015.43,1006.14 1002.5,1008C 923.507,1020.18 867.841,1062.68 835.5,1135.5C 926.264,1139.11 1014.6,1155.61 1100.5,1185C 1222.54,1227.73 1327.7,1295.9 1416,1389.5C 1483.62,1463.36 1531.62,1548.69 1560,1645.5C 1602.33,1816.22 1574.33,1974.22 1476,2119.5C 1409.18,2211.5 1325.34,2283.5 1224.5,2335.5C 1094.25,2400.59 956.25,2430.09 810.5,2424C 757.214,2421.79 704.548,2414.96 652.5,2403.5C 626.772,2397.15 601.105,2390.15 575.5,2382.5C 444.4,2340.24 332.234,2268.91 239,2168.5C 176.128,2099.14 130.462,2019.47 102,1929.5C 71.3853,1826.31 69.8853,1722.98 97.5,1619.5C 76.7009,1570.25 73.8676,1519.91 89,1468.5C 115.938,1385.23 171.438,1331.4 255.5,1307C 275.866,1302.04 296.533,1299.37 317.5,1299C 350.518,1273.49 385.518,1250.99 422.5,1231.5C 478.812,1201.62 537.812,1178.62 599.5,1162.5C 600.614,1161.28 600.781,1159.94 600,1158.5C 586.379,1116.91 563.212,1081.74 530.5,1053C 528.922,1051.91 527.255,1051.07 525.5,1050.5C 483.946,1020.43 437.28,1005.76 385.5,1006.5C 379.783,1033.38 363.117,1047.72 335.5,1049.5C 304.686,1046.35 288.019,1029.35 285.5,998.5C 288.688,967.48 305.854,950.813 337,948.5C 361.373,950.725 377.207,963.392 384.5,986.5C 440.265,986.429 490.932,1002.1 536.5,1033.5 Z M 329.5,968.5 C 351.762,967.097 364.428,977.43 367.5,999.5C 364.778,1017.72 354.278,1028.06 336,1030.5C 311.863,1026.17 302.197,1012.17 307,988.5C 311.268,978.058 318.768,971.392 329.5,968.5 Z"/></g>
<g><path style="opacity:1" fill="#db434b" d="M 1083.5,967.5 C 1101.73,965.864 1114.23,973.531 1121,990.5C 1123.9,1010.59 1115.73,1023.76 1096.5,1030C 1078.73,1031.56 1066.57,1024.06 1060,1007.5C 1056.83,987.485 1064.66,974.152 1083.5,967.5 Z"/></g>
<g><path style="opacity:0.996" fill="#dc434b" d="M 525.5,1050.5 C 527.255,1051.07 528.922,1051.91 530.5,1053C 563.212,1081.74 586.379,1116.91 600,1158.5C 600.781,1159.94 600.614,1161.28 599.5,1162.5C 537.812,1178.62 478.812,1201.62 422.5,1231.5C 450.776,1167.35 485.109,1107.01 525.5,1050.5 Z"/></g>
<g><path style="opacity:1" fill="#000000" d="M 1858.5,1207.5 C 1946.77,1205.23 2017.93,1238.56 2072,1307.5C 2120.98,1378.68 2131.65,1455.35 2104,1537.5C 2075.2,1611.63 2023.04,1661.13 1947.5,1686C 1859.27,1710.79 1780.27,1693.79 1710.5,1635C 1646.96,1574.06 1620.96,1499.73 1632.5,1412C 1648.28,1331.92 1691.94,1272.59 1763.5,1234C 1793.59,1219.07 1825.25,1210.23 1858.5,1207.5 Z"/></g>
<g><path style="opacity:1" fill="#fdfdfd" d="M 289.5,1318.5 C 368.64,1312.66 429.807,1342.66 473,1408.5C 508.085,1467.01 518.751,1529.67 505,1596.5C 492.044,1644.79 462.211,1677.96 415.5,1696C 367.41,1712.79 318.076,1717.79 267.5,1711C 216.501,1704.75 173.334,1683.25 138,1646.5C 111.15,1613.62 97.9833,1575.79 98.5,1533C 101.319,1452.33 136.652,1390.66 204.5,1348C 231.112,1332.85 259.445,1323.02 289.5,1318.5 Z"/></g>
<g><path style="opacity:1" fill="#fdfdfd" d="M 803.5,1331.5 C 886.622,1329.98 952.455,1362.64 1001,1429.5C 1032.27,1477.9 1043.27,1530.57 1034,1587.5C 1020.05,1648.78 983.885,1690.94 925.5,1714C 869.412,1733.8 812.079,1738.13 753.5,1727C 663.103,1706.76 618.103,1650.26 618.5,1557.5C 618.572,1486.21 644.238,1426.05 695.5,1377C 726.798,1350.62 762.798,1335.46 803.5,1331.5 Z"/></g>
<g><path style="opacity:1" fill="#000000" d="M 323.5,1374.5 C 390.901,1370.51 440.735,1397.85 473,1456.5C 481.494,1473.83 486.161,1492.17 487,1511.5C 493.488,1563.69 478.988,1608.86 443.5,1647C 398.75,1687.14 347.75,1697.81 290.5,1679C 235.822,1656.19 204.322,1615.35 196,1556.5C 189.379,1512.16 198.379,1471.49 223,1434.5C 248.607,1401.28 282.107,1381.28 323.5,1374.5 Z"/></g>
<g><path style="opacity:1" fill="#000000" d="M 837.5,1388.5 C 915.178,1384.41 968.011,1418.41 996,1490.5C 1002.08,1514.46 1004.08,1538.8 1002,1563.5C 997.232,1625.25 966.732,1668.75 910.5,1694C 845.948,1716.05 790.448,1702.22 744,1652.5C 725.31,1629.11 714.31,1602.44 711,1572.5C 701.508,1513.74 718.008,1463.9 760.5,1423C 783.022,1404.4 808.689,1392.9 837.5,1388.5 Z"/></g>
<g><path style="opacity:1" fill="#000000" d="M 2365.5,1689.5 C 2419.09,1686.37 2459.92,1707.37 2488,1752.5C 2503.41,1782.82 2506.74,1814.49 2498,1847.5C 2475.37,1907.41 2431.87,1936.25 2367.5,1934C 2304.61,1922.78 2268.45,1885.62 2259,1822.5C 2256.45,1770.1 2277.61,1730.6 2322.5,1704C 2336.27,1697.24 2350.61,1692.41 2365.5,1689.5 Z"/></g>
<g><path style="opacity:0.994" fill="#9b1427" d="M 2622.5,1859.5 C 2666.21,1896.03 2704.04,1937.7 2736,1984.5C 2766.76,2029.34 2793.43,2076.67 2816,2126.5C 2830.32,2143.39 2834.98,2162.73 2830,2184.5C 2817.07,2226.1 2789.9,2253.93 2748.5,2268C 2721.87,2276.95 2696.21,2274.95 2671.5,2262C 2649.66,2246.46 2640.82,2225.29 2645,2198.5C 2648.3,2180.89 2655.64,2165.23 2667,2151.5C 2683.26,2133.23 2702.76,2119.73 2725.5,2111C 2704.37,2072.56 2680.87,2035.73 2655,2000.5C 2630.07,1969.41 2602.57,1940.74 2572.5,1914.5C 2588.55,1896.75 2604.39,1878.75 2620,1860.5C 2620.67,1859.75 2621.5,1859.41 2622.5,1859.5 Z"/></g>
<g><path style="opacity:1" fill="#d9424a" d="M 510.5,1879.5 C 514.516,1878.9 518.016,1879.9 521,1882.5C 520.999,1902.17 530.499,1914.67 549.5,1920C 560.621,1921.2 570.954,1918.87 580.5,1913C 586.775,1907.62 590.275,1900.78 591,1892.5C 595.872,1884.04 601.538,1883.37 608,1890.5C 608.374,1908.91 600.54,1922.75 584.5,1932C 555.453,1945.26 530.953,1939.42 511,1914.5C 505.252,1905.25 503.252,1895.25 505,1884.5C 506.73,1882.6 508.563,1880.93 510.5,1879.5 Z"/></g>
<g><path style="opacity:1" fill="#000000" d="M 1856.5,1959.5 C 1900.06,1955.85 1931.23,1973.52 1950,2012.5C 1961.41,2046.66 1955.41,2077.33 1932,2104.5C 1904.49,2129.64 1872.99,2136.14 1837.5,2124C 1798.56,2104.79 1781.22,2073.46 1785.5,2030C 1794.48,1991.52 1818.15,1968.02 1856.5,1959.5 Z"/></g>
<g><path style="opacity:0.994" fill="#9b1427" d="M 1757.5,2316.5 C 1821.13,2372.5 1873.3,2437.5 1914,2511.5C 1927.05,2534.94 1939.05,2558.94 1950,2583.5C 1965.71,2602.42 1970.04,2623.76 1963,2647.5C 1945.75,2692.74 1913.25,2719.9 1865.5,2729C 1839.22,2733.93 1815.89,2727.93 1795.5,2711C 1779.6,2692.51 1774.76,2671.34 1781,2647.5C 1790.7,2618.14 1808.86,2595.64 1835.5,2580C 1843.17,2575.5 1851.17,2571.66 1859.5,2568.5C 1824.09,2499.23 1778.09,2437.73 1721.5,2384C 1713.79,2377.8 1706.45,2371.13 1699.5,2364C 1688.83,2356.67 1678.17,2349.33 1667.5,2342C 1662.59,2338.91 1657.59,2336.08 1652.5,2333.5C 1652.61,2332.88 1652.94,2332.38 1653.5,2332C 1688.27,2327.29 1722.93,2322.12 1757.5,2316.5 Z"/></g>
<g><path style="opacity:0.994" fill="#9a1427" d="M 575.5,2382.5 C 601.105,2390.15 626.772,2397.15 652.5,2403.5C 619.952,2448.06 591.285,2495.22 566.5,2545C 573.722,2563.79 572.889,2582.29 564,2600.5C 544.99,2632.13 517.157,2651.3 480.5,2658C 450.88,2663.84 423.547,2658.51 398.5,2642C 371.779,2616.95 367.612,2588.45 386,2556.5C 405.68,2527.89 432.847,2510.72 467.5,2505C 479.818,2504.02 492.151,2503.18 504.5,2502.5C 525.155,2460.49 548.821,2420.49 575.5,2382.5 Z"/></g>
</svg>
