<?xml version="1.0" encoding="UTF-8"?>
<!DOCTYPE svg PUBLIC "-//W3C//DTD SVG 1.1//EN" "http://www.w3.org/Graphics/SVG/1.1/DTD/svg11.dtd">
<svg xmlns="http://www.w3.org/2000/svg" version="1.1" width="3000px" height="3000px" style="shape-rendering:geometricPrecision; text-rendering:geometricPrecision; image-rendering:optimizeQuality; fill-rule:evenodd; clip-rule:evenodd" xmlns:xlink="http://www.w3.org/1999/xlink">
<g><path style="opacity:0.999" fill="#38afd8" d="M 2129.5,1467.5 C 2121.55,1466.87 2113.88,1468.03 2106.5,1471C 2098.63,1474.88 2091.3,1479.54 2084.5,1485C 2076.3,1492.86 2068.47,1501.03 2061,1509.5C 2047.3,1527.59 2033.13,1545.26 2018.5,1562.5C 1999.87,1582.99 1977.2,1597.16 1950.5,1605C 1931.14,1609.37 1911.81,1609.54 1892.5,1605.5C 1875.38,1601.23 1861.22,1592.23 1850,1578.5C 1838.32,1559.81 1827.65,1540.48 1818,1520.5C 1803.44,1495.46 1781.6,1482.8 1752.5,1482.5C 1729.78,1481.44 1711.28,1489.78 1697,1507.5C 1692,1514.5 1687,1521.5 1682,1528.5C 1667.75,1554.69 1651.75,1579.69 1634,1603.5C 1612.27,1629.68 1584.44,1645.02 1550.5,1649.5C 1507.86,1654.79 1471.69,1642.12 1442,1611.5C 1434.59,1602.94 1427.43,1594.27 1420.5,1585.5C 1405.94,1563.44 1390.78,1541.77 1375,1520.5C 1344.2,1483.21 1304.7,1468.38 1256.5,1476C 1244.09,1477.31 1232.09,1480.14 1220.5,1484.5C 1206,1489.42 1193,1496.92 1181.5,1507C 1174.65,1513.88 1168.15,1521.05 1162,1528.5C 1151.16,1544.85 1139.82,1560.85 1128,1576.5C 1110.09,1596.75 1087.59,1607.75 1060.5,1609.5C 1036.47,1610.21 1015.14,1603.05 996.5,1588C 974.266,1567.61 955.599,1544.44 940.5,1518.5C 926.915,1495.67 912.082,1473.67 896,1452.5C 884.86,1438.69 871.36,1427.86 855.5,1420C 847.058,1417.2 838.391,1416.04 829.5,1416.5C 793.28,1417.73 763.114,1431.73 739,1458.5C 727.273,1472.29 716.273,1486.63 706,1501.5C 696.346,1513.74 684.513,1523.24 670.5,1530C 645.696,1538.21 623.363,1533.88 603.5,1517C 580.5,1494.2 563.667,1467.36 553,1436.5C 532.749,1379.58 521.082,1320.91 518,1260.5C 511.71,1165.76 515.376,1071.43 529,977.5C 548.152,860.039 587.152,749.706 646,646.5C 689.676,570.165 740.342,498.831 798,432.5C 882.81,344.311 983.31,280.144 1099.5,240C 1215.9,200.68 1335.57,181.514 1458.5,182.5C 1586.73,182.206 1711.73,202.039 1833.5,242C 1884.76,259.297 1933.42,281.964 1979.5,310C 2162.22,431.213 2292.72,594.38 2371,799.5C 2402.28,884.881 2421.94,972.881 2430,1063.5C 2439.08,1149.44 2439.75,1235.44 2432,1321.5C 2427.02,1372.73 2416.36,1422.73 2400,1471.5C 2389.95,1500.29 2375.28,1526.29 2356,1549.5C 2325.47,1580.22 2290.97,1585.06 2252.5,1564C 2239.57,1555.74 2229.4,1544.9 2222,1531.5C 2213.41,1514.15 2202.24,1498.65 2188.5,1485C 2170.9,1472.51 2151.23,1466.68 2129.5,1467.5 Z"/></g>
<g><path style="opacity:1" fill="#1088a5" d="M 785.5,645.5 C 802.436,644.565 813.603,652.231 819,668.5C 827.109,701.772 822.776,733.438 806,763.5C 799.114,776.053 789.28,785.553 776.5,792C 763.948,796.328 753.448,793.495 745,783.5C 739.482,774.614 736.149,764.947 735,754.5C 730.832,716.004 741.998,682.837 768.5,655C 773.938,651.284 779.605,648.118 785.5,645.5 Z"/></g>
<g><path style="opacity:1" fill="#1088a5" d="M 658.5,764.5 C 674.061,761.962 686.894,766.629 697,778.5C 706.078,791.396 711.411,805.73 713,821.5C 716.648,869.537 704.315,912.87 676,951.5C 668.224,961.286 658.724,968.786 647.5,974C 629.721,981.536 614.555,978.036 602,963.5C 592.691,949.575 587.358,934.242 586,917.5C 582.472,870.93 594.472,828.93 622,791.5C 631.901,779.163 644.068,770.163 658.5,764.5 Z"/></g>
<g><path style="opacity:1" fill="#fdfefe" d="M 2173.5,864.5 C 2135.03,831.312 2092.03,823.812 2044.5,842C 2004.23,863.29 1978.4,896.124 1967,940.5C 1954.58,994.674 1963.92,1044.67 1995,1090.5C 2031.2,1137.12 2077.7,1152.29 2134.5,1136C 2152.48,1128.84 2168.15,1118.34 2181.5,1104.5C 2144.9,1161.3 2092.9,1185.46 2025.5,1177C 1990.44,1168.27 1961.28,1150.11 1938,1122.5C 1901.72,1075.07 1886.38,1021.4 1892,961.5C 1897.96,909.733 1920.13,866.566 1958.5,832C 2005.73,794.431 2057.06,787.764 2112.5,812C 2132.28,822.438 2149.78,835.938 2165,852.5C 2168.1,856.383 2170.93,860.383 2173.5,864.5 Z"/></g>
<g><path style="opacity:1" fill="#fdfefe" d="M 1558.5,883.5 C 1526.48,855.41 1489.48,845.576 1447.5,854C 1406.31,867.187 1377.14,893.687 1360,933.5C 1336.7,992.709 1341.7,1049.38 1375,1103.5C 1416.88,1160.79 1470.38,1175.29 1535.5,1147C 1546.86,1140.14 1557.19,1131.98 1566.5,1122.5C 1530.34,1179.24 1478.68,1203.74 1411.5,1196C 1361.81,1183.58 1324.98,1154.74 1301,1109.5C 1271.9,1051.64 1267.56,991.97 1288,930.5C 1302.02,891.595 1326.18,860.761 1360.5,838C 1417.27,806.464 1471.94,809.797 1524.5,848C 1537.75,858.081 1549.08,869.914 1558.5,883.5 Z"/></g>
<g><path style="opacity:1" fill="#1088a5" d="M 782.5,829.5 C 793.077,827.295 801.243,830.629 807,839.5C 810.127,844.419 812.127,849.752 813,855.5C 816.518,882.263 810.518,906.596 795,928.5C 788.37,938.069 779.203,943.402 767.5,944.5C 759.465,942.636 753.632,937.97 750,930.5C 740.716,899.582 745.383,870.916 764,844.5C 769.197,838.119 775.364,833.119 782.5,829.5 Z"/></g>
<g><path style="opacity:1" fill="#0e0606" d="M 2173.5,864.5 C 2201.14,901.747 2214.8,943.747 2214.5,990.5C 2214.35,1031.78 2203.35,1069.78 2181.5,1104.5C 2168.15,1118.34 2152.48,1128.84 2134.5,1136C 2077.7,1152.29 2031.2,1137.12 1995,1090.5C 1963.92,1044.67 1954.58,994.674 1967,940.5C 1978.4,896.124 2004.23,863.29 2044.5,842C 2092.03,823.812 2135.03,831.312 2173.5,864.5 Z"/></g>
<g><path style="opacity:1" fill="#0e0606" d="M 1558.5,883.5 C 1595.03,936.314 1606.53,994.314 1593,1057.5C 1588.01,1080.8 1579.18,1102.47 1566.5,1122.5C 1557.19,1131.98 1546.86,1140.14 1535.5,1147C 1470.38,1175.29 1416.88,1160.79 1375,1103.5C 1341.7,1049.38 1336.7,992.709 1360,933.5C 1377.14,893.687 1406.31,867.187 1447.5,854C 1489.48,845.576 1526.48,855.41 1558.5,883.5 Z"/></g>
<g><path style="opacity:1" fill="#010304" d="M 1820.5,1134.5 C 1828.88,1132.76 1833.04,1136.09 1833,1144.5C 1835.62,1166.18 1832.28,1186.85 1823,1206.5C 1812.96,1223.78 1798.13,1234.62 1778.5,1239C 1749.37,1245.75 1722.37,1241.08 1697.5,1225C 1679.58,1209.68 1669.08,1190.18 1666,1166.5C 1665.33,1158.5 1665.33,1150.5 1666,1142.5C 1671.08,1137.01 1675.75,1137.35 1680,1143.5C 1679.39,1164.58 1684.72,1183.91 1696,1201.5C 1706.69,1214.1 1720.19,1221.93 1736.5,1225C 1797.1,1230.4 1824.1,1202.74 1817.5,1142C 1817.11,1138.88 1818.11,1136.38 1820.5,1134.5 Z"/></g>
<g><path style="opacity:0.995" fill="#0f88a5" d="M 829.5,1416.5 C 838.391,1416.04 847.058,1417.2 855.5,1420C 871.36,1427.86 884.86,1438.69 896,1452.5C 912.082,1473.67 926.915,1495.67 940.5,1518.5C 906.674,1600.79 891.841,1686.45 896,1775.5C 899.885,1833.15 915.885,1887.15 944,1937.5C 1010.13,2042.57 1047.47,2157.24 1056,2281.5C 1060.73,2349.67 1051.06,2415.67 1027,2479.5C 982.757,2583.25 904.59,2643.08 792.5,2659C 720.974,2668.41 652.974,2657.08 588.5,2625C 499.754,2575.38 445.421,2500.55 425.5,2400.5C 414.222,2339.82 424.389,2283.16 456,2230.5C 484.799,2188.66 523.966,2161.49 573.5,2149C 614.848,2138.08 655.848,2139.08 696.5,2152C 747.913,2173.08 784.413,2209.25 806,2260.5C 815.475,2300.04 802.308,2329.21 766.5,2348C 734.494,2358.96 706.994,2352.12 684,2327.5C 678.748,2319.33 673.748,2311 669,2302.5C 658.235,2286.04 643.068,2279.2 623.5,2282C 583.319,2287.68 562.652,2310.85 561.5,2351.5C 565.096,2409.88 590.43,2456.05 637.5,2490C 685.507,2519.72 737.174,2528.39 792.5,2516C 841.316,2504.52 875.482,2475.68 895,2429.5C 909.547,2391.72 916.714,2352.55 916.5,2312C 912.352,2199.23 879.518,2095.73 818,2001.5C 768.744,1908.23 747.744,1808.89 755,1703.5C 761.225,1619.6 779.892,1538.6 811,1460.5C 816.903,1445.7 823.07,1431.03 829.5,1416.5 Z"/></g>
<g><path style="opacity:0.995" fill="#0f88a5" d="M 2129.5,1467.5 C 2177.12,1561.87 2215.62,1659.87 2245,1761.5C 2263.68,1828.06 2273.84,1895.9 2275.5,1965C 2275.83,2013.87 2267.99,2061.37 2252,2107.5C 2233.05,2148.74 2218.05,2191.41 2207,2235.5C 2193.87,2290.77 2191.87,2346.11 2201,2401.5C 2207.75,2438.99 2223.08,2472.32 2247,2501.5C 2281.5,2536.44 2322.84,2548.1 2371,2536.5C 2398.99,2531.85 2424.15,2521.02 2446.5,2504C 2451.71,2498.46 2456.54,2492.62 2461,2486.5C 2486.72,2461.85 2515.88,2457.02 2548.5,2472C 2579.97,2493.07 2590.47,2521.91 2580,2558.5C 2574.42,2570.67 2567.08,2581.67 2558,2591.5C 2527.79,2623.86 2491.63,2647.03 2449.5,2661C 2400.83,2678.34 2350.83,2684.34 2299.5,2679C 2224.41,2667.51 2164.91,2631.01 2121,2569.5C 2088.51,2522.06 2068.18,2469.73 2060,2412.5C 2048.72,2330.9 2054.72,2250.57 2078,2171.5C 2089.15,2133.54 2102.82,2096.54 2119,2060.5C 2127.85,2035.6 2132.85,2009.94 2134,1983.5C 2135.28,1936.25 2130.61,1889.59 2120,1843.5C 2096.75,1745.92 2062.92,1652.25 2018.5,1562.5C 2033.13,1545.26 2047.3,1527.59 2061,1509.5C 2068.47,1501.03 2076.3,1492.86 2084.5,1485C 2091.3,1479.54 2098.63,1474.88 2106.5,1471C 2113.88,1468.03 2121.55,1466.87 2129.5,1467.5 Z"/></g>
<g><path style="opacity:0.995" fill="#0f88a5" d="M 1752.5,1482.5 C 1781.6,1482.8 1803.44,1495.46 1818,1520.5C 1827.65,1540.48 1838.32,1559.81 1850,1578.5C 1861.22,1592.23 1875.38,1601.23 1892.5,1605.5C 1894.46,1629.06 1897.96,1652.39 1903,1675.5C 1909.2,1701.29 1915.86,1726.96 1923,1752.5C 1943.63,1838.05 1947.63,1924.39 1935,2011.5C 1925.3,2070 1914.64,2128.34 1903,2186.5C 1885.04,2289.51 1885.04,2392.51 1903,2495.5C 1914.14,2557.28 1936.8,2614.28 1971,2666.5C 1984.36,2684.85 1999.36,2701.85 2016,2717.5C 2038.94,2748.25 2039.28,2779.25 2017,2810.5C 1992.52,2835.26 1964.02,2841.1 1931.5,2828C 1925.89,2824.72 1920.56,2821.06 1915.5,2817C 1867.3,2769.8 1830.13,2714.97 1804,2652.5C 1771.7,2572.32 1753.7,2488.99 1750,2402.5C 1745.58,2322.29 1750.24,2242.63 1764,2163.5C 1774.05,2112.24 1783.72,2060.9 1793,2009.5C 1806.2,1934.33 1803.86,1859.66 1786,1785.5C 1765.91,1721.31 1753.91,1655.64 1750,1588.5C 1748.84,1553.11 1749.68,1517.78 1752.5,1482.5 Z"/></g>
<g><path style="opacity:0.995" fill="#0f88a5" d="M 1220.5,1484.5 C 1202.74,1573.32 1195.24,1662.98 1198,1753.5C 1199.46,1789.62 1205.46,1824.96 1216,1859.5C 1219.45,1869.07 1223.45,1878.4 1228,1887.5C 1257.25,1936.34 1286.25,1985.34 1315,2034.5C 1341.05,2080.93 1360.72,2129.93 1374,2181.5C 1390.48,2258.89 1385.48,2334.89 1359,2409.5C 1349.45,2435.49 1339.12,2461.15 1328,2486.5C 1302.87,2550.17 1288.2,2616.17 1284,2684.5C 1281.56,2731.52 1287.22,2777.52 1301,2822.5C 1306.74,2859.2 1293.24,2886.03 1260.5,2903C 1227.91,2915.02 1200.07,2908.18 1177,2882.5C 1168.62,2870.39 1162.95,2857.06 1160,2842.5C 1140.39,2761.08 1137.72,2679.08 1152,2596.5C 1165.74,2520.22 1188.74,2446.88 1221,2376.5C 1252.35,2297.15 1249.35,2219.15 1212,2142.5C 1201.18,2120.85 1189.84,2099.52 1178,2078.5C 1154,2038.5 1130,1998.5 1106,1958.5C 1084.38,1916.97 1070.38,1872.97 1064,1826.5C 1058.51,1787.69 1055.68,1748.69 1055.5,1709.5C 1056.37,1676.13 1058.04,1642.79 1060.5,1609.5C 1087.59,1607.75 1110.09,1596.75 1128,1576.5C 1139.82,1560.85 1151.16,1544.85 1162,1528.5C 1168.15,1521.05 1174.65,1513.88 1181.5,1507C 1193,1496.92 1206,1489.42 1220.5,1484.5 Z"/></g>
<g><path style="opacity:0.995" fill="#0f88a5" d="M 1420.5,1585.5 C 1427.43,1594.27 1434.59,1602.94 1442,1611.5C 1471.69,1642.12 1507.86,1654.79 1550.5,1649.5C 1539.01,1720.72 1538.51,1792.05 1549,1863.5C 1554.87,1904.84 1562.53,1945.84 1572,1986.5C 1591.37,2065.33 1611.37,2143.99 1632,2222.5C 1650.93,2295.8 1663.93,2370.14 1671,2445.5C 1675.95,2504.58 1672.95,2563.25 1662,2621.5C 1649.04,2671.75 1629.71,2719.42 1604,2764.5C 1579.08,2808.4 1551.42,2850.4 1521,2890.5C 1496.91,2913.16 1469.41,2918.32 1438.5,2906C 1406.36,2887.62 1393.86,2860.12 1401,2823.5C 1403.04,2816.38 1406.04,2809.71 1410,2803.5C 1447.81,2754.26 1479.81,2701.26 1506,2644.5C 1525.4,2599.4 1534.23,2552.23 1532.5,2503C 1531.69,2451.67 1526.19,2400.83 1516,2350.5C 1511.18,2325.72 1505.84,2301.05 1500,2276.5C 1478.2,2192.28 1456.86,2107.95 1436,2023.5C 1416.02,1941.32 1404.35,1857.98 1401,1773.5C 1399.25,1709.95 1405.75,1647.28 1420.5,1585.5 Z"/></g>
</svg>
