<?xml version="1.0" encoding="UTF-8"?>
<!DOCTYPE svg PUBLIC "-//W3C//DTD SVG 1.1//EN" "http://www.w3.org/Graphics/SVG/1.1/DTD/svg11.dtd">
<svg xmlns="http://www.w3.org/2000/svg" version="1.1" width="3000px" height="3000px" style="shape-rendering:geometricPrecision; text-rendering:geometricPrecision; image-rendering:optimizeQuality; fill-rule:evenodd; clip-rule:evenodd" xmlns:xlink="http://www.w3.org/1999/xlink">
<g><path style="opacity:0.995" fill="#f68c10" d="M 2783.5,471.5 C 2693.35,325.908 2562.01,257.408 2389.5,266C 2339.25,269.15 2290.25,278.65 2242.5,294.5C 2242.17,295 2241.83,295.5 2241.5,296C 2286.9,442.097 2332.07,588.264 2377,734.5C 2382.66,761.913 2382,789.247 2375,816.5C 2363.39,858.384 2344.39,896.384 2318,930.5C 2277.15,983.831 2226.32,1024.66 2165.5,1053C 2135.82,1066.71 2104.66,1073.88 2072,1074.5C 2027.03,1076.01 1991.03,1059.01 1964,1023.5C 1949.46,1000.51 1942.29,975.344 1942.5,948C 1944.38,912.656 1953.21,879.156 1969,847.5C 2012.72,764.447 2077.22,703.281 2162.5,664C 2194.13,650.616 2227.13,643.45 2261.5,642.5C 2206.01,464.219 2150.68,285.886 2095.5,107.5C 2095.83,106.833 2096.17,106.167 2096.5,105.5C 2280.25,70.526 2446.58,109.026 2595.5,221C 2680.46,287.787 2743.12,371.287 2783.5,471.5 Z"/></g>
<g><path style="opacity:0.998" fill="#56bda9" d="M 881.5,322.5 C 1147.27,351.119 1367.44,465.452 1542,665.5C 1676.58,825.757 1753.24,1010.76 1772,1220.5C 1705.12,959.618 1542.28,792.118 1283.5,718C 1195.76,694.013 1106.43,683.18 1015.5,685.5C 1015.67,936.5 1015.5,1187.5 1015,1438.5C 1009.55,1484.2 994.212,1526.2 969,1564.5C 938.517,1610.32 901.684,1650.49 858.5,1685C 765.296,1758.55 659.629,1804.21 541.5,1822C 504.537,1826.23 467.537,1826.56 430.5,1823C 377.585,1817.49 330.918,1797.83 290.5,1764C 238.998,1713.54 220.164,1652.71 234,1581.5C 243.767,1538.5 261.434,1499.16 287,1463.5C 324.609,1412.56 369.443,1369.06 421.5,1333C 497.203,1280.99 580.203,1245.66 670.5,1227C 735.521,1213.17 800.188,1214.51 864.5,1231C 869.871,1232.73 875.204,1234.57 880.5,1236.5C 881.5,931.834 881.833,627.167 881.5,322.5 Z"/></g>
<g><path style="opacity:0.043" fill="#fe8b00" d="M 2783.5,471.5 C 2784.83,472.167 2784.83,472.167 2783.5,471.5 Z"/></g>
<g><path style="opacity:0.998" fill="#ed156c" d="M 1477.5,1526.5 C 1720.01,1524.9 1926.17,1609.57 2096,1780.5C 2126.68,1812.66 2154.51,1846.99 2179.5,1883.5C 2179.33,1883.83 2179.17,1884.17 2179,1884.5C 2019.99,1720.08 1829.15,1666.58 1606.5,1724C 1536.41,1743.23 1470.41,1771.39 1408.5,1808.5C 1407.69,1810.95 1408.19,1813.28 1410,1815.5C 1510.33,1990.83 1610.67,2166.17 1711,2341.5C 1732.01,2381.23 1741.01,2423.56 1738,2468.5C 1732.58,2539.41 1712.25,2605.75 1677,2667.5C 1635.57,2741.93 1579.74,2803.43 1509.5,2852C 1477.54,2872.88 1442.88,2887.55 1405.5,2896C 1350.94,2907.7 1301.94,2896.36 1258.5,2862C 1227.2,2832.91 1208.37,2797.08 1202,2754.5C 1194.9,2700.06 1199.9,2646.73 1217,2594.5C 1254.03,2483.19 1319.2,2392.35 1412.5,2322C 1450.33,2294.92 1492,2276.25 1537.5,2266C 1410.45,2044.74 1283.79,1823.24 1157.5,1601.5C 1259.19,1555.1 1365.86,1530.1 1477.5,1526.5 Z"/></g>
</svg>
