<?xml version="1.0" encoding="UTF-8"?>
<!DOCTYPE svg PUBLIC "-//W3C//DTD SVG 1.1//EN" "http://www.w3.org/Graphics/SVG/1.1/DTD/svg11.dtd">
<svg xmlns="http://www.w3.org/2000/svg" version="1.1" width="3000px" height="3000px" style="shape-rendering:geometricPrecision; text-rendering:geometricPrecision; image-rendering:optimizeQuality; fill-rule:evenodd; clip-rule:evenodd" xmlns:xlink="http://www.w3.org/1999/xlink">
<g><path style="opacity:0.999" fill="#000000" d="M 893.5,167.5 C 1027.66,164.801 1146.99,204.968 1251.5,288C 1286.3,316.465 1318.13,347.965 1347,382.5C 1417.7,477.219 1489.36,571.219 1562,664.5C 1651.48,777.008 1745.81,885.675 1845,990.5C 1986.33,1136.52 2133.83,1275.35 2287.5,1407C 2409.81,1518.35 2501.98,1650.85 2564,1804.5C 2653.76,2031.43 2675.76,2264.77 2630,2504.5C 2614.33,2581.87 2586.66,2654.54 2547,2722.5C 2505.58,2790.15 2447.41,2837.32 2372.5,2864C 2321.53,2880.31 2269.53,2884.64 2216.5,2877C 2182.88,2872.01 2149.88,2864.34 2117.5,2854C 2094.53,2846.79 2071.86,2838.79 2049.5,2830C 1977.25,2799.58 1905.25,2768.58 1833.5,2737C 1774.54,2711.9 1714.2,2690.57 1652.5,2673C 1583.17,2653.33 1512.5,2644.33 1440.5,2646C 1390.07,2648.69 1343.07,2662.69 1299.5,2688C 1270.9,2706.27 1242.56,2724.94 1214.5,2744C 1141.29,2789.81 1061.29,2811.64 974.5,2809.5C 903.743,2808.41 833.743,2800.57 764.5,2786C 637.065,2757.41 535.565,2690.24 460,2584.5C 408.569,2509.29 370.235,2427.62 345,2339.5C 313.663,2230.15 292.663,2118.81 282,2005.5C 268.38,1863.5 261.88,1721.17 262.5,1578.5C 263.612,1393.31 270.112,1208.31 282,1023.5C 290.152,909.586 310.485,797.92 343,688.5C 373.187,587.135 418.521,493.468 479,407.5C 532.643,333.846 598.809,274.346 677.5,229C 745.02,192.321 817.02,171.821 893.5,167.5 Z"/></g>
</svg>
