<?xml version="1.0" encoding="UTF-8"?>
<!DOCTYPE svg PUBLIC "-//W3C//DTD SVG 1.1//EN" "http://www.w3.org/Graphics/SVG/1.1/DTD/svg11.dtd">
<svg xmlns="http://www.w3.org/2000/svg" version="1.1" width="3000px" height="3000px" style="shape-rendering:geometricPrecision; text-rendering:geometricPrecision; image-rendering:optimizeQuality; fill-rule:evenodd; clip-rule:evenodd" xmlns:xlink="http://www.w3.org/1999/xlink">
<g><path style="opacity:0.997" fill="#67c1ee" d="M 1225.5,386.5 C 1255.01,383.5 1276.84,394.834 1291,420.5C 1299.86,443.422 1308.53,466.422 1317,489.5C 1328,473.833 1339,458.167 1350,442.5C 1369.59,423.229 1392.42,418.063 1418.5,427C 1445.58,440.321 1457.75,462.155 1455,492.5C 1453.74,499.867 1451.41,506.867 1448,513.5C 1437.71,527.913 1427.54,542.413 1417.5,557C 1444.47,555.732 1471.47,555.065 1498.5,555C 1527.02,561.182 1543.52,578.682 1548,607.5C 1549.42,640.52 1534.59,662.353 1503.5,673C 1499.21,673.912 1494.87,674.579 1490.5,675C 1436.82,677.508 1383.16,680.175 1329.5,683C 1255.83,788 1182.17,893 1108.5,998C 1237.82,997.758 1367.15,997.092 1496.5,996C 1524.29,952.91 1552.46,910.077 1581,867.5C 1603.45,846.529 1628.61,842.696 1656.5,856C 1681.52,872.7 1690.69,895.867 1684,925.5C 1682.55,930.399 1680.55,935.065 1678,939.5C 1666.03,958.302 1653.86,976.968 1641.5,995.5C 1667.11,995.402 1692.78,995.569 1718.5,996C 1754.07,1000.23 1773.4,1020.23 1776.5,1056C 1773.99,1089.5 1756.32,1109.5 1723.5,1116C 1696.17,1116.33 1668.83,1116.67 1641.5,1117C 1658.71,1137.88 1675.55,1159.05 1692,1180.5C 1706.95,1213.89 1699.78,1241.39 1670.5,1263C 1644.4,1276.11 1620.06,1273.44 1597.5,1255C 1560.62,1209.41 1523.62,1163.91 1486.5,1118.5C 1461.17,1118.17 1435.83,1117.83 1410.5,1117.5C 1312.83,1118.1 1215.17,1118.6 1117.5,1119C 1201.17,1214.67 1284.83,1310.33 1368.5,1406C 1371.17,1406.67 1373.83,1406.67 1376.5,1406C 1425.27,1398.97 1474.1,1392.47 1523,1386.5C 1552.33,1389.5 1571,1405.17 1579,1433.5C 1584.12,1470.11 1569.29,1494.28 1534.5,1506C 1511.11,1509.18 1487.77,1512.68 1464.5,1516.5C 1480.15,1534.65 1495.98,1552.65 1512,1570.5C 1529.44,1592.47 1532.1,1616.13 1520,1641.5C 1502.46,1667.57 1478.3,1676.74 1447.5,1669C 1439.03,1665.6 1431.37,1660.94 1424.5,1655C 1407.33,1635.17 1390.17,1615.33 1373,1595.5C 1367.69,1621.03 1362.69,1646.69 1358,1672.5C 1348.52,1699.41 1329.52,1713.74 1301,1715.5C 1269.56,1714.39 1249.56,1698.72 1241,1668.5C 1240.12,1664.21 1239.62,1659.88 1239.5,1655.5C 1249.08,1596.37 1259.41,1537.37 1270.5,1478.5C 1178.84,1372.85 1086.84,1267.51 994.5,1162.5C 911.266,1280.62 828.266,1398.95 745.5,1517.5C 765.945,1566.33 785.111,1615.67 803,1665.5C 805.15,1697.88 791.15,1719.88 761,1731.5C 733.357,1738.4 710.69,1730.73 693,1708.5C 682.219,1684.82 672.219,1660.82 663,1636.5C 647.842,1656.82 633.175,1677.48 619,1698.5C 597.329,1723.03 571.495,1728.53 541.5,1715C 517.586,1700.66 507.419,1679.49 511,1651.5C 512.339,1644.48 514.672,1637.82 518,1631.5C 532.972,1609.7 548.139,1588.03 563.5,1566.5C 543.333,1567.28 523,1568.44 502.5,1570C 471.269,1574.3 448.103,1562.8 433,1535.5C 422.079,1506.02 428.579,1481.18 452.5,1461C 460.049,1455.73 468.382,1452.39 477.5,1451C 536.191,1446.8 594.858,1442.47 653.5,1438C 727.305,1332.03 801.305,1226.2 875.5,1120.5C 874.667,1120.17 873.833,1119.83 873,1119.5C 739.849,1120.32 606.682,1121.16 473.5,1122C 443.037,1167.09 412.204,1211.93 381,1256.5C 360.573,1273.99 337.74,1277.82 312.5,1268C 282.574,1250.58 272.407,1225.08 282,1191.5C 285.145,1184.54 288.811,1177.88 293,1171.5C 304.167,1155.17 315.333,1138.83 326.5,1122.5C 308.264,1122.61 289.931,1122.44 271.5,1122C 241.849,1117.69 223.682,1100.85 217,1071.5C 214.198,1041.27 226.364,1019.43 253.5,1006C 258.677,1004.04 264.01,1002.71 269.5,1002C 287.833,1001.67 306.167,1001.33 324.5,1001C 308.879,980.923 293.379,960.757 278,940.5C 264.543,911.737 269.043,886.237 291.5,864C 311.124,849.494 332.457,846.494 355.5,855C 365.107,859.598 373.274,866.098 380,874.5C 412.5,916.333 445,958.167 477.5,1000C 602.5,1000.19 727.5,999.857 852.5,999C 770.167,904.667 687.833,810.333 605.5,716C 551.832,721.5 498.165,727.333 444.5,733.5C 416.229,730.382 397.729,715.382 389,688.5C 382.893,654.544 395.393,630.377 426.5,616C 452.677,611.313 479.01,607.647 505.5,605C 506.308,604.692 506.975,604.192 507.5,603.5C 496.853,591.018 486.019,578.685 475,566.5C 458.853,544.367 456.853,521.033 469,496.5C 490.138,467.457 517.305,459.957 550.5,474C 553.672,475.752 556.672,477.752 559.5,480C 572.667,494.5 585.833,509 599,523.5C 603.872,498.806 608.872,474.139 614,449.5C 627.365,418.561 650.865,405.394 684.5,410C 720.633,421.839 735.8,446.672 730,484.5C 719.961,535.694 709.795,586.86 699.5,638C 793.947,747.451 888.78,856.617 984,965.5C 1067.04,846.579 1150.21,727.746 1233.5,609C 1213.98,559.122 1195.15,508.956 1177,458.5C 1173.16,420.865 1189.33,396.865 1225.5,386.5 Z"/></g>
<g><path style="opacity:0.988" fill="#2e93d3" d="M 2433.5,717.5 C 2447.97,715.316 2458.47,720.649 2465,733.5C 2467.82,742.481 2471.32,751.147 2475.5,759.5C 2480.14,754.227 2484.31,748.56 2488,742.5C 2502.3,728.89 2516.3,729.223 2530,743.5C 2535.95,753.818 2535.95,764.151 2530,774.5C 2526.17,779.667 2522.33,784.833 2518.5,790C 2528.67,789.939 2538.83,789.439 2549,788.5C 2569.62,792.736 2577.29,805.07 2572,825.5C 2568.68,832.754 2563.18,837.588 2555.5,840C 2530.48,841.541 2505.48,843.207 2480.5,845C 2449.62,889.254 2418.62,933.421 2387.5,977.5C 2442.5,978.539 2497.5,978.206 2552.5,976.5C 2563.8,958.698 2575.3,941.032 2587,923.5C 2598.25,912.993 2610.42,911.826 2623.5,920C 2633.83,930.129 2635.66,941.629 2629,954.5C 2624.17,962 2619.33,969.5 2614.5,977C 2626.83,977.333 2639.17,977.667 2651.5,978C 2668.72,984.617 2674.56,996.783 2669,1014.5C 2665.18,1022.32 2659.01,1027.15 2650.5,1029C 2638.5,1029.33 2626.5,1029.67 2614.5,1030C 2621.69,1038.23 2628.53,1046.73 2635,1055.5C 2640.39,1066.81 2639.39,1077.47 2632,1087.5C 2620.76,1096.97 2608.93,1097.8 2596.5,1090C 2579.98,1070.31 2563.64,1050.48 2547.5,1030.5C 2545.17,1030.17 2542.83,1029.83 2540.5,1029.5C 2490.84,1030.3 2441.17,1030.8 2391.5,1031C 2426.5,1071.33 2461.5,1111.67 2496.5,1152C 2518.33,1149.79 2540.16,1147.29 2562,1144.5C 2582.93,1147.66 2590.93,1159.66 2586,1180.5C 2583.1,1187.73 2577.93,1192.56 2570.5,1195C 2559.87,1196.88 2549.2,1198.55 2538.5,1200C 2546.33,1209.17 2554.17,1218.33 2562,1227.5C 2568.79,1244.13 2564.29,1256.63 2548.5,1265C 2537.96,1268.35 2528.62,1266.35 2520.5,1259C 2513.69,1250.55 2506.52,1242.39 2499,1234.5C 2497,1245.17 2495,1255.83 2493,1266.5C 2484.66,1284.39 2471.49,1289.23 2453.5,1281C 2445.95,1275.41 2441.95,1267.91 2441.5,1258.5C 2446.43,1233.24 2450.6,1207.91 2454,1182.5C 2414.95,1138.29 2376.12,1093.96 2337.5,1049.5C 2302.17,1099.83 2266.83,1150.17 2231.5,1200.5C 2240.22,1221.28 2248.39,1242.28 2256,1263.5C 2256.98,1277.72 2250.82,1287.22 2237.5,1292C 2225.93,1294.81 2216.43,1291.64 2209,1282.5C 2204.28,1272.33 2199.94,1262 2196,1251.5C 2189.67,1260.5 2183.33,1269.5 2177,1278.5C 2166.83,1288.27 2155.33,1290.1 2142.5,1284C 2130.49,1274.44 2127.65,1262.61 2134,1248.5C 2139.97,1239.69 2146.14,1231.03 2152.5,1222.5C 2142.18,1221.96 2131.85,1222.29 2121.5,1223.5C 2102.28,1220.78 2093.78,1209.78 2096,1190.5C 2098.83,1181 2105,1174.83 2114.5,1172C 2140.17,1170.04 2165.84,1168.04 2191.5,1166C 2223.17,1121 2254.83,1076 2286.5,1031C 2229.52,1031.3 2172.52,1031.63 2115.5,1032C 2102.61,1049.89 2090.11,1068.06 2078,1086.5C 2067.67,1097.49 2055.84,1099.32 2042.5,1092C 2032.61,1083.94 2029.44,1073.77 2033,1061.5C 2038.67,1051.49 2044.83,1041.83 2051.5,1032.5C 2042.52,1031.67 2033.52,1031.17 2024.5,1031C 2009.44,1025.4 2003.28,1014.57 2006,998.5C 2009.83,987.985 2017.33,981.819 2028.5,980C 2035.83,979.667 2043.17,979.333 2050.5,979C 2045.33,972.5 2040.17,966 2035,959.5C 2027.19,948.641 2026.52,937.307 2033,925.5C 2040.28,916.963 2049.44,913.796 2060.5,916C 2065.06,916.946 2069.06,918.946 2072.5,922C 2087.36,940.69 2102.02,959.524 2116.5,978.5C 2169.5,979.729 2222.5,979.562 2275.5,978C 2241.21,938.037 2206.54,898.371 2171.5,859C 2149.16,860.75 2126.83,862.917 2104.5,865.5C 2084.58,863.408 2076.08,852.408 2079,832.5C 2082.02,822.146 2088.86,815.979 2099.5,814C 2109.55,812.994 2119.55,811.66 2129.5,810C 2121.04,802.55 2114.54,793.717 2110,783.5C 2108.04,769.255 2113.54,759.089 2126.5,753C 2134.96,750.421 2142.96,751.421 2150.5,756C 2156.67,761.838 2162.5,768.005 2168,774.5C 2170.78,763.597 2173.45,752.597 2176,741.5C 2184.19,728.436 2195.69,724.27 2210.5,729C 2220.17,733.837 2225.17,741.67 2225.5,752.5C 2221.66,776.853 2217,801.02 2211.5,825C 2252,871.5 2292.5,918 2333,964.5C 2367.61,914.223 2402.61,864.223 2438,814.5C 2438.67,813.167 2438.67,811.833 2438,810.5C 2431.2,791.756 2424.2,773.089 2417,754.5C 2411.67,737.163 2417.17,724.829 2433.5,717.5 Z"/></g>
<g><path style="opacity:0.995" fill="#8dd2f4" d="M 2363.5,1586.5 C 2387.8,1584.56 2404.96,1594.56 2415,1616.5C 2420.88,1632.65 2427.05,1648.65 2433.5,1664.5C 2441.59,1652.66 2449.92,1640.99 2458.5,1629.5C 2477.5,1612.09 2498.17,1609.92 2520.5,1623C 2539.5,1639.47 2544,1659.3 2534,1682.5C 2526.41,1694.01 2518.58,1705.34 2510.5,1716.5C 2527.59,1716.52 2544.76,1715.85 2562,1714.5C 2591.21,1716.38 2607.38,1731.88 2610.5,1761C 2608.3,1787.19 2594.3,1802.53 2568.5,1807C 2526.46,1808.99 2484.46,1811.32 2442.5,1814C 2386.5,1894 2330.5,1974 2274.5,2054C 2373.17,2053.98 2471.83,2053.31 2570.5,2052C 2591.29,2019.58 2612.46,1987.41 2634,1955.5C 2651.42,1937.88 2671.26,1934.71 2693.5,1946C 2711.68,1958.51 2718.51,1975.68 2714,1997.5C 2712.89,2001.73 2711.22,2005.73 2709,2009.5C 2699.96,2023.75 2690.79,2037.92 2681.5,2052C 2703.17,2052.33 2724.83,2052.67 2746.5,2053C 2774.05,2061.25 2786.22,2079.75 2783,2108.5C 2777.73,2127.43 2765.57,2139.27 2746.5,2144C 2724.83,2144.17 2703.16,2144.67 2681.5,2145.5C 2693.48,2160.64 2705.64,2175.64 2718,2190.5C 2728.51,2209.3 2727.84,2227.63 2716,2245.5C 2700.57,2262.32 2682.07,2266.82 2660.5,2259C 2653.19,2255.69 2647.02,2250.86 2642,2244.5C 2615.88,2211.38 2589.38,2178.54 2562.5,2146C 2468.83,2145.53 2375.16,2145.87 2281.5,2147C 2345.17,2220 2408.83,2293 2472.5,2366C 2511.08,2360.84 2549.75,2356.01 2588.5,2351.5C 2611.3,2352.33 2626.14,2363.66 2633,2385.5C 2637.76,2411.82 2627.92,2430.32 2603.5,2441C 2584.22,2444.33 2564.89,2447.33 2545.5,2450C 2558.22,2464.59 2571.05,2479.09 2584,2493.5C 2598.78,2516.4 2596.95,2537.9 2578.5,2558C 2558.77,2572.97 2538.77,2573.3 2518.5,2559C 2503.96,2543.46 2489.8,2527.63 2476,2511.5C 2471.8,2531.38 2467.8,2551.38 2464,2571.5C 2452.19,2597.45 2432.35,2606.95 2404.5,2600C 2385.22,2591.97 2374.89,2577.47 2373.5,2556.5C 2380.99,2511.4 2388.99,2466.4 2397.5,2421.5C 2327.15,2340.98 2256.98,2260.31 2187,2179.5C 2123.38,2269.91 2059.88,2360.41 1996.5,2451C 2011.68,2487.54 2026.18,2524.37 2040,2561.5C 2042.81,2590.33 2030.31,2608.5 2002.5,2616C 1982.19,2618.42 1966.36,2611.26 1955,2594.5C 1947.08,2577.08 1939.75,2559.41 1933,2541.5C 1921.91,2558.01 1910.58,2574.34 1899,2590.5C 1880.59,2609.31 1859.76,2612.48 1836.5,2600C 1815.4,2581.85 1811.24,2560.35 1824,2535.5C 1834.64,2520.03 1845.47,2504.69 1856.5,2489.5C 1854.33,2489.17 1852.17,2488.83 1850,2488.5C 1830.53,2490.35 1811.03,2491.19 1791.5,2491C 1764.68,2483.83 1752.18,2466.33 1754,2438.5C 1758.06,2417.44 1770.56,2404.61 1791.5,2400C 1835.15,2396.73 1878.81,2393.73 1922.5,2391C 1923.94,2390.78 1925.27,2390.28 1926.5,2389.5C 1982.64,2308.86 2038.97,2228.36 2095.5,2148C 1993.16,2147.4 1890.83,2147.74 1788.5,2149C 1767.96,2178.57 1747.8,2208.41 1728,2238.5C 1712.69,2262.6 1691.52,2269.77 1664.5,2260C 1643.96,2247.42 1636.13,2229.25 1641,2205.5C 1642.53,2200.11 1644.86,2195.11 1648,2190.5C 1657.62,2176.75 1667.12,2162.92 1676.5,2149C 1663.22,2149.61 1649.89,2149.61 1636.5,2149C 1608.82,2145.82 1593.82,2130.32 1591.5,2102.5C 1593.7,2077.47 1607.03,2062.3 1631.5,2057C 1645.83,2056.67 1660.17,2056.33 1674.5,2056C 1664.33,2043.17 1654.17,2030.33 1644,2017.5C 1631.62,2000 1630.28,1981.67 1640,1962.5C 1654.39,1942.93 1673.22,1936.76 1696.5,1944C 1702,1946.25 1707,1949.25 1711.5,1953C 1738.5,1987.33 1765.5,2021.67 1792.5,2056C 1887.48,2055.9 1982.48,2055.24 2077.5,2054C 2014.69,1981.55 1951.52,1909.39 1888,1837.5C 1848.13,1842.89 1808.13,1847.56 1768,1851.5C 1743.12,1849.96 1728.12,1836.96 1723,1812.5C 1720.88,1792.59 1728.04,1777.09 1744.5,1766C 1748.27,1763.78 1752.27,1762.11 1756.5,1761C 1775.84,1758.33 1795.17,1755.67 1814.5,1753C 1805.67,1742.83 1796.83,1732.67 1788,1722.5C 1774.75,1700.95 1776.25,1680.45 1792.5,1661C 1807.99,1647.88 1825.32,1644.88 1844.5,1652C 1847.83,1654 1851.17,1656 1854.5,1658C 1864.69,1668.89 1874.52,1680.05 1884,1691.5C 1888.13,1672.53 1892.13,1653.53 1896,1634.5C 1904.13,1615.08 1918.8,1604.75 1940,1603.5C 1968.15,1606.31 1983.65,1621.81 1986.5,1650C 1978.06,1693.51 1969.9,1737.01 1962,1780.5C 2034.01,1863.34 2106.18,1946.01 2178.5,2028.5C 2241.9,1938.71 2305.07,1848.71 2368,1758.5C 2368.67,1757.17 2368.67,1755.83 2368,1754.5C 2353.41,1717.05 2339.41,1679.39 2326,1641.5C 2323.39,1612.65 2335.89,1594.31 2363.5,1586.5 Z"/></g>
</svg>
