<?xml version="1.0" encoding="UTF-8"?>
<!DOCTYPE svg PUBLIC "-//W3C//DTD SVG 1.1//EN" "http://www.w3.org/Graphics/SVG/1.1/DTD/svg11.dtd">
<svg xmlns="http://www.w3.org/2000/svg" version="1.1" width="3000px" height="3000px" style="shape-rendering:geometricPrecision; text-rendering:geometricPrecision; image-rendering:optimizeQuality; fill-rule:evenodd; clip-rule:evenodd" xmlns:xlink="http://www.w3.org/1999/xlink">
<g><path style="opacity:0.998" fill="#c87b01" d="M 1325.5,782.5 C 1324.02,782.238 1322.69,782.571 1321.5,783.5C 1324.99,788.448 1327.82,793.781 1330,799.5C 1339.49,811.701 1350.15,812.701 1362,802.5C 1365.19,797.942 1366.52,792.942 1366,787.5C 1364.06,781.846 1362.23,776.179 1360.5,770.5C 1393.76,753.85 1429.09,744.683 1466.5,743C 1502.36,741.517 1538.19,739.684 1574,737.5C 1576.65,737.621 1579.15,738.288 1581.5,739.5C 1580.47,740.7 1579.64,742.034 1579,743.5C 1566.17,752.679 1553.67,762.179 1541.5,772C 1556.3,770.375 1570.96,767.708 1585.5,764C 1618.93,758.294 1652.6,754.627 1686.5,753C 1708.82,751.451 1731.16,750.451 1753.5,750C 1754.31,750.308 1754.97,750.808 1755.5,751.5C 1753.68,752.815 1752.02,754.315 1750.5,756C 1730.93,768.275 1711.6,780.775 1692.5,793.5C 1689.01,793.245 1686.34,794.578 1684.5,797.5C 1687.41,800.115 1690.08,799.782 1692.5,796.5C 1727.77,787.673 1763.61,783.34 1800,783.5C 1828.5,784.109 1857,784.609 1885.5,785C 1886.67,785.419 1887.67,786.085 1888.5,787C 1873.4,799.437 1857.73,811.104 1841.5,822C 1838.57,824.376 1838.91,825.876 1842.5,826.5C 1870.73,820.589 1898.73,813.756 1926.5,806C 1945.82,802.224 1965.32,800.057 1985,799.5C 2018.13,801.909 2051.3,803.742 2084.5,805C 2088.38,805.257 2092.04,806.257 2095.5,808C 2093.83,809.667 2092.17,811.333 2090.5,813C 2072,824.751 2053.66,836.751 2035.5,849C 2037.1,849.273 2038.6,849.773 2040,850.5C 2063.7,846.079 2087.53,842.245 2111.5,839C 2129.97,837.749 2148.3,838.749 2166.5,842C 2194.5,849.667 2222.5,857.333 2250.5,865C 2252.84,865.837 2254.84,867.171 2256.5,869C 2255.5,870 2254.5,871 2253.5,872C 2225,887.747 2196.67,903.747 2168.5,920C 2169.17,920.667 2169.83,921.333 2170.5,922C 2177.61,924.443 2184.95,925.61 2192.5,925.5C 2212.65,923.668 2232.82,922.002 2253,920.5C 2294.28,925.157 2334.78,933.657 2374.5,946C 2376.33,946.748 2378,947.748 2379.5,949C 2378.17,950.333 2376.83,951.667 2375.5,953C 2358,962.58 2341,972.913 2324.5,984C 2341.12,985.298 2357.79,986.298 2374.5,987C 2382.3,987.578 2389.97,988.911 2397.5,991C 2424.91,1001.37 2451.57,1013.37 2477.5,1027C 2481.12,1029.55 2480.78,1031.88 2476.5,1034C 2462.09,1042.73 2447.42,1051.07 2432.5,1059C 2431.64,1059.69 2430.98,1060.52 2430.5,1061.5C 2439.41,1064.95 2447.74,1069.45 2455.5,1075C 2463.8,1082.3 2471.8,1089.97 2479.5,1098C 2483.22,1100.3 2487.22,1100.97 2491.5,1100C 2510.34,1090.89 2530.01,1087.73 2550.5,1090.5C 2548.42,1102.75 2547.08,1115.08 2546.5,1127.5C 2546.67,1131.5 2546.83,1135.5 2547,1139.5C 2549.29,1147.15 2550.79,1154.82 2551.5,1162.5C 2550.64,1164.39 2549.64,1166.22 2548.5,1168C 2550.81,1168.5 2553.14,1168.66 2555.5,1168.5C 2560.89,1190.56 2565.89,1212.72 2570.5,1235C 2570.7,1237.35 2570.03,1239.35 2568.5,1241C 2560.19,1242.44 2552.52,1245.44 2545.5,1250C 2539.76,1255.65 2536.26,1262.49 2535,1270.5C 2534.39,1279.53 2534.73,1288.53 2536,1297.5C 2540.08,1319.21 2544.41,1340.88 2549,1362.5C 2551.28,1374.82 2551.61,1387.16 2550,1399.5C 2549,1401.5 2548,1403.5 2547,1405.5C 2539.54,1411.62 2534.54,1419.28 2532,1428.5C 2531.67,1443.5 2531.33,1458.5 2531,1473.5C 2530.12,1476.79 2529.45,1480.12 2529,1483.5C 2527.19,1485.4 2525.03,1485.9 2522.5,1485C 2507.83,1479.04 2492.66,1474.87 2477,1472.5C 2458.39,1473.97 2444.73,1482.97 2436,1499.5C 2422.64,1526.59 2410.64,1554.26 2400,1582.5C 2397.86,1586.15 2394.69,1587.82 2390.5,1587.5C 2386.03,1584.43 2381.36,1581.59 2376.5,1579C 2373.17,1578.33 2369.83,1578.33 2366.5,1579C 2363,1581.67 2359.67,1584.5 2356.5,1587.5C 2341.07,1593.77 2330.57,1604.77 2325,1620.5C 2321.2,1633.38 2317.86,1646.38 2315,1659.5C 2314.15,1665.72 2310.98,1667.55 2305.5,1665C 2290.08,1655.19 2273.25,1649.36 2255,1647.5C 2242.87,1648.32 2232.37,1652.82 2223.5,1661C 2214.85,1669.98 2207.35,1679.81 2201,1690.5C 2197.04,1694.32 2192.88,1694.49 2188.5,1691C 2180.7,1682.86 2172.03,1675.86 2162.5,1670C 2139.38,1660.09 2119.21,1664.26 2102,1682.5C 2091.33,1697.17 2080.67,1711.83 2070,1726.5C 2065.44,1733.08 2059.27,1735.24 2051.5,1733C 2030.86,1723.42 2009.19,1718.76 1986.5,1719C 1978.39,1719.89 1970.73,1722.22 1963.5,1726C 1943.3,1740.53 1923.96,1756.2 1905.5,1773C 1900.78,1777.86 1895.11,1779.53 1888.5,1778C 1879.23,1772.53 1869.56,1767.87 1859.5,1764C 1850.47,1762.11 1841.47,1762.28 1832.5,1764.5C 1819.46,1759.68 1810.3,1763.68 1805,1776.5C 1804.42,1780.95 1804.92,1785.29 1806.5,1789.5C 1804.47,1789.66 1802.47,1789.5 1800.5,1789C 1789.53,1776.02 1775.86,1767.35 1759.5,1763C 1735.62,1761.03 1718.45,1770.86 1708,1792.5C 1705.72,1794.98 1703.22,1795.15 1700.5,1793C 1691.54,1781.7 1681.54,1771.37 1670.5,1762C 1653.47,1752.03 1636.47,1752.03 1619.5,1762C 1608.17,1774 1596.83,1786 1585.5,1798C 1578.26,1803.05 1570.26,1804.72 1561.5,1803C 1550.58,1799.04 1539.58,1795.37 1528.5,1792C 1511.86,1790.49 1497.19,1795.16 1484.5,1806C 1472.1,1817.73 1460.44,1830.06 1449.5,1843C 1446.73,1845.05 1443.73,1846.55 1440.5,1847.5C 1436.63,1846.57 1432.96,1845.07 1429.5,1843C 1419.17,1836 1408.83,1829 1398.5,1822C 1375.33,1810.48 1351.67,1809.48 1327.5,1819C 1320.99,1820.76 1315.49,1819.26 1311,1814.5C 1303.17,1801.33 1292.67,1790.83 1279.5,1783C 1269.03,1779.26 1258.37,1778.6 1247.5,1781C 1228.12,1786.24 1208.96,1792.07 1190,1798.5C 1187.68,1798.09 1185.51,1797.26 1183.5,1796C 1177.17,1788.33 1170.83,1780.67 1164.5,1773C 1159.52,1769.06 1153.86,1767.23 1147.5,1767.5C 1140.96,1767.59 1134.63,1768.76 1128.5,1771C 1114.81,1780.51 1101.48,1790.51 1088.5,1801C 1086,1802.75 1083.33,1804.25 1080.5,1805.5C 1079.5,1805 1078.5,1804.5 1077.5,1804C 1074.04,1798.38 1069.71,1793.54 1064.5,1789.5C 1065.2,1778.06 1060.2,1770.23 1049.5,1766C 1046.17,1765.33 1042.83,1765.33 1039.5,1766C 1034.4,1768.61 1029.74,1771.77 1025.5,1775.5C 1015.83,1777.07 1006.17,1778.74 996.5,1780.5C 991.489,1780.65 988.322,1778.32 987,1773.5C 985.827,1764.88 985.161,1756.22 985,1747.5C 979.86,1724.44 965.527,1713.44 942,1714.5C 932.132,1715.12 922.299,1716.12 912.5,1717.5C 907.812,1718.54 904.645,1716.87 903,1712.5C 901.936,1705.54 901.269,1698.54 901,1691.5C 896.829,1671.33 884.663,1659.16 864.5,1655C 842.155,1652.39 819.822,1649.73 797.5,1647C 796.584,1646.63 795.75,1646.13 795,1645.5C 794.267,1631.62 789.433,1619.45 780.5,1609C 772.779,1603.43 764.112,1600.43 754.5,1600C 741.171,1599.5 727.837,1599.33 714.5,1599.5C 703.975,1592.87 692.975,1591.87 681.5,1596.5C 679.032,1588.82 677.532,1580.82 677,1572.5C 673.489,1561.32 666.656,1552.82 656.5,1547C 642.99,1539.74 629.323,1532.74 615.5,1526C 613.291,1524.13 611.458,1521.96 610,1519.5C 610.974,1499.96 604.141,1483.79 589.5,1471C 578.167,1462.33 566.833,1453.67 555.5,1445C 549.719,1440.6 546.719,1434.77 546.5,1427.5C 548.504,1419.15 550.671,1410.82 553,1402.5C 555.056,1384 549.222,1368.5 535.5,1356C 533.612,1354.61 531.612,1353.44 529.5,1352.5C 529.5,1351.5 529.5,1350.5 529.5,1349.5C 538.884,1347.95 545.05,1342.62 548,1333.5C 551.512,1319.87 547.012,1310.2 534.5,1304.5C 534.5,1303.5 534.5,1302.5 534.5,1301.5C 540.514,1274.04 533.014,1251.04 512,1232.5C 511,1230.5 510,1228.5 509,1226.5C 501.448,1196.29 493.615,1166.29 485.5,1136.5C 492.584,1130.11 500.584,1124.95 509.5,1121C 520.221,1116.47 531.221,1112.81 542.5,1110C 546.466,1107.04 550.133,1103.7 553.5,1100C 532.243,1097.34 510.91,1095.34 489.5,1094C 488.167,1093.33 486.833,1092.67 485.5,1092C 515.011,1065.49 546.011,1040.83 578.5,1018C 600.915,1005.73 624.915,999.062 650.5,998C 622.291,992.799 593.958,988.132 565.5,984C 563.369,983.457 561.369,982.624 559.5,981.5C 559.977,980.522 560.643,979.689 561.5,979C 587.004,964.08 612.671,949.414 638.5,935C 663.763,920.483 690.93,913.316 720,913.5C 720.315,912.092 719.982,910.759 719,909.5C 709.285,900.287 700.119,890.62 691.5,880.5C 691.833,880.167 692.167,879.833 692.5,879.5C 713.125,878.302 733.792,877.302 754.5,876.5C 769.211,877.099 783.877,877.932 798.5,879C 803.08,860.773 806.913,842.273 810,823.5C 811.077,818.885 813.91,817.385 818.5,819C 832.953,825.393 847.287,832.06 861.5,839C 864.742,840.639 868.076,841.639 871.5,842C 872.416,841.626 873.25,841.126 874,840.5C 882.69,824.808 894.524,811.975 909.5,802C 932.661,789.587 955.661,776.92 978.5,764C 982.635,761.597 986.968,759.763 991.5,758.5C 990.905,770.976 988.572,783.142 984.5,795C 984.734,796.732 985.734,797.566 987.5,797.5C 1025.52,790.107 1063.52,782.607 1101.5,775C 1115.33,767.501 1129.67,761.168 1144.5,756C 1167.64,748.732 1190.64,741.066 1213.5,733C 1220.61,731.437 1222.11,733.604 1218,739.5C 1207,756.165 1196.5,773.165 1186.5,790.5C 1187,790.833 1187.5,791.167 1188,791.5C 1202.47,783.717 1216.97,775.883 1231.5,768C 1238.75,764.805 1246.09,761.805 1253.5,759C 1286.74,749.357 1320.07,740.023 1353.5,731C 1356.15,730.503 1358.81,730.336 1361.5,730.5C 1361.24,733.016 1360.41,735.35 1359,737.5C 1348.67,750.167 1338.33,762.833 1328,775.5C 1326.59,777.65 1325.76,779.984 1325.5,782.5 Z"/></g>
<g><path style="opacity:0.99" fill="#d49735" d="M 1360.5,770.5 C 1362.23,776.179 1364.06,781.846 1366,787.5C 1366.52,792.942 1365.19,797.942 1362,802.5C 1350.15,812.701 1339.49,811.701 1330,799.5C 1327.82,793.781 1324.99,788.448 1321.5,783.5C 1322.69,782.571 1324.02,782.238 1325.5,782.5C 1337.17,778.498 1348.84,774.498 1360.5,770.5 Z"/></g>
<g><path style="opacity:1" fill="#dcbc89" d="M 1692.5,793.5 C 1692.5,794.5 1692.5,795.5 1692.5,796.5C 1690.08,799.782 1687.41,800.115 1684.5,797.5C 1686.34,794.578 1689.01,793.245 1692.5,793.5 Z"/></g>
<g><path style="opacity:0.997" fill="#d39735" d="M 1388.5,824.5 C 1402.69,823.867 1409.86,830.533 1410,844.5C 1404.47,858.081 1394.97,862.248 1381.5,857C 1370.49,843.278 1372.82,832.445 1388.5,824.5 Z"/></g>
<g><path style="opacity:0.997" fill="#d39735" d="M 912.5,850.5 C 926.138,850.308 934.472,856.808 937.5,870C 933.961,882.861 925.461,890.027 912,891.5C 906.847,891.784 902.847,889.784 900,885.5C 892.663,869.323 896.83,857.657 912.5,850.5 Z"/></g>
<g><path style="opacity:0.998" fill="#d39735" d="M 2086.5,871.5 C 2104.03,872.531 2110.2,881.531 2105,898.5C 2103.21,901.295 2101.04,903.795 2098.5,906C 2091.4,909.881 2084.07,913.215 2076.5,916C 2067.49,917.987 2064.32,914.487 2067,905.5C 2068.92,895.076 2072.42,885.243 2077.5,876C 2080.32,873.921 2083.32,872.421 2086.5,871.5 Z"/></g>
<g><path style="opacity:1" fill="#9b5f00" d="M 2227.5,1482.5 C 2220.66,1455.15 2207.83,1431.15 2189,1410.5C 2187.99,1407.42 2187.49,1404.26 2187.5,1401C 2192.93,1353.83 2173.59,1321.83 2129.5,1305C 2126.06,1302.86 2122.89,1300.36 2120,1297.5C 2114.8,1285.43 2108.8,1273.76 2102,1262.5C 2101.51,1261.21 2101.34,1259.87 2101.5,1258.5C 2109.4,1214.22 2101.9,1172.89 2079,1134.5C 2065.6,1115.59 2048.43,1101.26 2027.5,1091.5C 2009.52,1081.34 1990.19,1074.84 1969.5,1072C 1901.2,1065.16 1836.54,1077.49 1775.5,1109C 1746.36,1124.22 1719.36,1142.38 1694.5,1163.5C 1679.9,1152.01 1663.23,1147.01 1644.5,1148.5C 1625.29,1101.56 1597.29,1060.72 1560.5,1026C 1532.36,1000.43 1499.36,984.765 1461.5,979C 1431.5,975.832 1404.17,982.666 1379.5,999.5C 1358.47,1011.69 1340.3,1027.35 1325,1046.5C 1307.06,1070.38 1292.72,1096.38 1282,1124.5C 1275.23,1144.25 1269.4,1164.25 1264.5,1184.5C 1253.42,1177.63 1241.75,1171.79 1229.5,1167C 1208,1162.29 1189,1167.13 1172.5,1181.5C 1169.74,1184.25 1167.4,1187.25 1165.5,1190.5C 1079.82,1177.34 998.821,1191.17 922.5,1232C 889.386,1250.95 863.052,1276.78 843.5,1309.5C 830.014,1329.82 823.681,1352.32 824.5,1377C 824.672,1384.85 825.006,1392.68 825.5,1400.5C 808.804,1407.35 792.804,1415.51 777.5,1425C 763.424,1437.8 759.257,1453.3 765,1471.5C 768.206,1477.07 770.706,1482.91 772.5,1489C 772.218,1492.44 770.552,1494.94 767.5,1496.5C 746.583,1487.38 725.917,1477.71 705.5,1467.5C 704.067,1465.19 704.734,1463.69 707.5,1463C 720.167,1460 732.833,1457 745.5,1454C 747.286,1453.8 748.619,1452.97 749.5,1451.5C 734.574,1445.37 720.908,1437.21 708.5,1427C 692.105,1411.27 676.438,1394.94 661.5,1378C 664.167,1377.33 666.833,1377.33 669.5,1378C 686.733,1381.91 704.066,1384.91 721.5,1387C 711.024,1376.96 700.857,1366.46 691,1355.5C 675.595,1333.32 661.262,1310.65 648,1287.5C 656.242,1291.52 664.742,1294.86 673.5,1297.5C 673.657,1296.13 673.49,1294.79 673,1293.5C 666.718,1285.27 661.718,1276.27 658,1266.5C 653.651,1255.62 649.817,1244.62 646.5,1233.5C 659.669,1236.04 672.669,1239.38 685.5,1243.5C 686.737,1243.44 687.737,1242.94 688.5,1242C 676.03,1228.53 663.196,1215.36 650,1202.5C 648.333,1200.17 646.667,1197.83 645,1195.5C 644.316,1194.22 644.483,1193.05 645.5,1192C 666.519,1192.57 687.519,1193.73 708.5,1195.5C 709.5,1195.17 710.5,1194.83 711.5,1194.5C 701.251,1181.75 690.085,1169.75 678,1158.5C 676.459,1156.52 675.959,1154.52 676.5,1152.5C 699.86,1146.79 723.526,1144.12 747.5,1144.5C 739.615,1131.78 731.115,1119.44 722,1107.5C 720.418,1105.38 720.251,1103.21 721.5,1101C 742.303,1098.35 762.97,1099.02 783.5,1103C 786.876,1104.07 790.21,1105.24 793.5,1106.5C 795.942,1105.96 798.275,1105.13 800.5,1104C 811.599,1097.39 822.265,1090.22 832.5,1082.5C 823.41,1077.4 814.077,1072.57 804.5,1068C 802.078,1065.89 802.078,1063.89 804.5,1062C 822.462,1054.35 840.795,1047.68 859.5,1042C 875.497,1039.84 891.497,1038 907.5,1036.5C 907.023,1035.52 906.357,1034.69 905.5,1034C 896.167,1029.67 886.833,1025.33 877.5,1021C 874.871,1018.21 875.538,1016.21 879.5,1015C 901.558,1009.24 923.891,1004.9 946.5,1002C 966.255,1000.9 985.922,1001.73 1005.5,1004.5C 1009.88,1004.38 1014.21,1003.88 1018.5,1003C 1019.5,1002 1020.5,1001 1021.5,1000C 1020.5,999 1019.5,998 1018.5,997C 1000.67,988.612 982.667,980.612 964.5,973C 962.987,970.546 963.654,968.879 966.5,968C 989.377,962.691 1012.38,958.025 1035.5,954C 1047.83,953.333 1060.17,953.333 1072.5,954C 1086.15,955.851 1099.82,957.184 1113.5,958C 1114.06,956.434 1113.39,955.101 1111.5,954C 1100.51,948.507 1089.84,942.507 1079.5,936C 1083.6,934.266 1087.93,933.266 1092.5,933C 1116.81,931.159 1141.14,930.159 1165.5,930C 1178.57,931.105 1191.57,932.772 1204.5,935C 1221.44,938.821 1238.44,942.321 1255.5,945.5C 1256.83,945.167 1258.17,944.833 1259.5,944.5C 1259.33,944.167 1259.17,943.833 1259,943.5C 1250.59,937.374 1241.75,931.874 1232.5,927C 1229.58,924.929 1229.92,923.595 1233.5,923C 1276.04,918.586 1318.38,920.086 1360.5,927.5C 1364.21,927.27 1364.88,926.103 1362.5,924C 1350.25,917.293 1338.09,910.46 1326,903.5C 1325.83,903.167 1325.67,902.833 1325.5,902.5C 1328.67,902.167 1331.83,901.833 1335,901.5C 1381.69,904.014 1428.19,907.848 1474.5,913C 1467.14,906.986 1459.14,901.986 1450.5,898C 1449.07,896.286 1449.41,894.953 1451.5,894C 1477.5,894.6 1503.5,895.6 1529.5,897C 1544.63,898.022 1559.63,900.022 1574.5,903C 1593.41,907.804 1612.07,913.304 1630.5,919.5C 1631.17,919.333 1631.83,919.167 1632.5,919C 1627.03,912.531 1621.2,906.364 1615,900.5C 1613.01,898.182 1611.84,895.516 1611.5,892.5C 1613.2,892.38 1614.87,892.046 1616.5,891.5C 1638.18,896.269 1659.85,901.102 1681.5,906C 1697.83,911.005 1713.83,916.838 1729.5,923.5C 1729.83,923.333 1730.17,923.167 1730.5,923C 1724.03,913.03 1717.36,903.197 1710.5,893.5C 1711.56,892.304 1712.89,891.637 1714.5,891.5C 1742.5,898.557 1770.17,906.724 1797.5,916C 1824.09,920.878 1850.76,924.878 1877.5,928C 1878.06,927.275 1878.39,926.442 1878.5,925.5C 1876.85,920.285 1875.85,914.951 1875.5,909.5C 1900.44,915.306 1923.44,925.473 1944.5,940C 1949.2,945.034 1954.2,949.7 1959.5,954C 1961.5,954.667 1963.5,954.667 1965.5,954C 1977.21,948.765 1989.21,944.765 2001.5,942C 2004.28,945.315 2006.11,949.149 2007,953.5C 2008.46,961.131 2010.29,968.631 2012.5,976C 2037.16,975.654 2061.83,975.654 2086.5,976C 2087.67,977.868 2087.51,979.702 2086,981.5C 2081.38,984.45 2077.05,987.784 2073,991.5C 2071.99,993.025 2071.49,994.692 2071.5,996.5C 2086.2,996.788 2100.54,999.288 2114.5,1004C 2135.4,1012.45 2156.07,1021.45 2176.5,1031C 2179.36,1031.93 2181.69,1033.6 2183.5,1036C 2182.38,1037.04 2181.04,1037.71 2179.5,1038C 2161.5,1040.33 2143.5,1042.67 2125.5,1045C 2145.09,1047.42 2164.76,1054.09 2184.5,1065C 2200,1075.25 2215.66,1085.25 2231.5,1095C 2233.54,1096.71 2235.21,1098.71 2236.5,1101C 2235.83,1101.33 2235.17,1101.67 2234.5,1102C 2222.8,1102.23 2211.14,1102.9 2199.5,1104C 2197.33,1105.59 2195,1106.92 2192.5,1108C 2202.86,1112.79 2213.52,1116.79 2224.5,1120C 2246.78,1131.38 2267.61,1144.88 2287,1160.5C 2287.87,1162.89 2287.03,1164.39 2284.5,1165C 2276.83,1165.33 2269.17,1165.67 2261.5,1166C 2259,1167.08 2256.67,1168.41 2254.5,1170C 2256.5,1172.67 2258.5,1175.33 2260.5,1178C 2280.04,1184.34 2296.88,1194.84 2311,1209.5C 2317.34,1217.5 2322.67,1226.16 2327,1235.5C 2331.21,1249.47 2336.21,1263.14 2342,1276.5C 2345.11,1282.92 2346.28,1289.59 2345.5,1296.5C 2337.17,1292.33 2328.83,1288.17 2320.5,1284C 2318.26,1283.02 2315.93,1282.52 2313.5,1282.5C 2314.93,1287.34 2317.43,1291.67 2321,1295.5C 2326.24,1304.57 2329.91,1314.23 2332,1324.5C 2336.15,1346.71 2338.32,1369.04 2338.5,1391.5C 2335.48,1391.16 2332.82,1389.99 2330.5,1388C 2324.46,1382.29 2318.13,1376.96 2311.5,1372C 2310.17,1371.33 2308.83,1371.33 2307.5,1372C 2307.12,1384.11 2304.95,1395.94 2301,1407.5C 2292.67,1424.83 2284.33,1442.17 2276,1459.5C 2273.46,1460.88 2271.46,1460.21 2270,1457.5C 2264.08,1446.66 2258.41,1435.66 2253,1424.5C 2252.31,1423.64 2251.48,1422.98 2250.5,1422.5C 2250.84,1440.32 2246.67,1456.99 2238,1472.5C 2234.66,1476.01 2231.16,1479.34 2227.5,1482.5 Z"/></g>
<g><path style="opacity:0.997" fill="#d39735" d="M 799.5,918.5 C 811.831,917.418 819.997,922.751 824,934.5C 825.247,946.494 820.081,954.327 808.5,958C 797.38,958.682 789.547,953.849 785,943.5C 783.373,931.318 788.206,922.985 799.5,918.5 Z"/></g>
<g><path style="opacity:0.997" fill="#d39735" d="M 2103.5,917.5 C 2126.16,918.336 2133.33,929.336 2125,950.5C 2117.21,959.548 2108.38,960.715 2098.5,954C 2093.42,950.263 2089.92,945.43 2088,939.5C 2087.53,928.08 2092.7,920.746 2103.5,917.5 Z"/></g>
<g><path style="opacity:0.999" fill="#c5d0d0" d="M 1644.5,1148.5 C 1649.42,1162.77 1654.26,1177.1 1659,1191.5C 1660,1193.66 1661.5,1195.33 1663.5,1196.5C 1664.02,1202.85 1664.69,1209.19 1665.5,1215.5C 1670.6,1239.22 1672.93,1263.22 1672.5,1287.5C 1673.63,1315.64 1670.63,1343.3 1663.5,1370.5C 1660.81,1381.4 1656.97,1392.07 1652,1402.5C 1644.6,1418.96 1636.44,1434.96 1627.5,1450.5C 1617.4,1461.1 1607.06,1471.6 1596.5,1482C 1536.24,1532.47 1469.58,1542.8 1396.5,1513C 1382.17,1506.51 1368.84,1498.51 1356.5,1489C 1353.92,1488.46 1351.92,1489.29 1350.5,1491.5C 1349.04,1487.18 1346.87,1483.18 1344,1479.5C 1333.04,1466.2 1321.71,1453.2 1310,1440.5C 1308.88,1438.59 1308.04,1436.59 1307.5,1434.5C 1318.96,1442.07 1330.96,1448.9 1343.5,1455C 1364.99,1462.94 1386.99,1464.6 1409.5,1460C 1450.6,1450.21 1484.1,1428.71 1510,1395.5C 1543.13,1353.55 1562.79,1305.89 1569,1252.5C 1567.91,1183.34 1545.24,1122.34 1501,1069.5C 1477.88,1042.69 1450.04,1022.53 1417.5,1009C 1405.06,1004.89 1392.39,1001.72 1379.5,999.5C 1404.17,982.666 1431.5,975.832 1461.5,979C 1499.36,984.765 1532.36,1000.43 1560.5,1026C 1597.29,1060.72 1625.29,1101.56 1644.5,1148.5 Z"/></g>
<g><path style="opacity:1" fill="#d4dfe1" d="M 1379.5,999.5 C 1392.39,1001.72 1405.06,1004.89 1417.5,1009C 1450.04,1022.53 1477.88,1042.69 1501,1069.5C 1545.24,1122.34 1567.91,1183.34 1569,1252.5C 1562.79,1305.89 1543.13,1353.55 1510,1395.5C 1484.1,1428.71 1450.6,1450.21 1409.5,1460C 1386.99,1464.6 1364.99,1462.94 1343.5,1455C 1330.96,1448.9 1318.96,1442.07 1307.5,1434.5C 1300.69,1424.54 1295.19,1413.87 1291,1402.5C 1288.66,1399.99 1286.16,1397.66 1283.5,1395.5C 1283.66,1393.8 1283.49,1392.13 1283,1390.5C 1261.49,1336.05 1253.66,1279.72 1259.5,1221.5C 1260.95,1209.14 1262.61,1196.8 1264.5,1184.5C 1269.4,1164.25 1275.23,1144.25 1282,1124.5C 1292.72,1096.38 1307.06,1070.38 1325,1046.5C 1340.3,1027.35 1358.47,1011.69 1379.5,999.5 Z"/></g>
<g><path style="opacity:1" fill="#e0e5e6" d="M 1367.5,1062.5 C 1387.3,1061.8 1400.47,1070.8 1407,1089.5C 1409.41,1135.63 1399.41,1178.96 1377,1219.5C 1368.73,1233.45 1358.56,1245.95 1346.5,1257C 1329.43,1272.93 1311.1,1274.59 1291.5,1262C 1283.28,1254.69 1278.44,1245.52 1277,1234.5C 1275.18,1215.5 1276.84,1196.83 1282,1178.5C 1291.16,1150.69 1302.82,1124.02 1317,1098.5C 1330.81,1082.18 1347.65,1070.18 1367.5,1062.5 Z"/></g>
<g><path style="opacity:0.998" fill="#d39735" d="M 623.5,1069.5 C 638.225,1068.19 646.225,1074.85 647.5,1089.5C 645.161,1103.68 636.828,1109.52 622.5,1107C 606.788,1099.34 604.455,1088.67 615.5,1075C 618.07,1072.91 620.737,1071.08 623.5,1069.5 Z"/></g>
<g><path style="opacity:1" fill="#e6f3f4" d="M 2027.5,1091.5 C 2031.49,1102.97 2034.99,1114.64 2038,1126.5C 2045.11,1161.25 2043.44,1195.58 2033,1229.5C 2017.12,1278.8 1990.95,1321.63 1954.5,1358C 1918.92,1390.44 1876.92,1408.78 1828.5,1413C 1796.63,1416.04 1764.96,1414.7 1733.5,1409C 1710.91,1403.87 1690.58,1394.2 1672.5,1380C 1670.04,1378.44 1667.38,1377.44 1664.5,1377C 1663.58,1374.96 1663.24,1372.79 1663.5,1370.5C 1670.63,1343.3 1673.63,1315.64 1672.5,1287.5C 1689.17,1285.41 1702.67,1277.75 1713,1264.5C 1719.84,1255.83 1724.84,1246.16 1728,1235.5C 1730.68,1221.02 1725.51,1210.52 1712.5,1204C 1708.14,1202.28 1703.64,1201.12 1699,1200.5C 1686.82,1203.28 1675.65,1208.28 1665.5,1215.5C 1664.69,1209.19 1664.02,1202.85 1663.5,1196.5C 1673.47,1185.2 1683.8,1174.2 1694.5,1163.5C 1719.36,1142.38 1746.36,1124.22 1775.5,1109C 1836.54,1077.49 1901.2,1065.16 1969.5,1072C 1990.19,1074.84 2009.52,1081.34 2027.5,1091.5 Z"/></g>
<g><path style="opacity:0.987" fill="#b97507" d="M 2551.5,1162.5 C 2550.79,1154.82 2549.29,1147.15 2547,1139.5C 2546.83,1135.5 2546.67,1131.5 2546.5,1127.5C 2547.08,1115.08 2548.42,1102.75 2550.5,1090.5C 2564.41,1088.94 2578.41,1088.44 2592.5,1089C 2593.06,1089.72 2593.39,1090.56 2593.5,1091.5C 2582.6,1111.62 2571.44,1131.62 2560,1151.5C 2557.69,1155.64 2554.85,1159.3 2551.5,1162.5 Z"/></g>
<g><path style="opacity:0.999" fill="#d5e1e3" d="M 2027.5,1091.5 C 2048.43,1101.26 2065.6,1115.59 2079,1134.5C 2101.9,1172.89 2109.4,1214.22 2101.5,1258.5C 2077.13,1367.68 2016.8,1450.51 1920.5,1507C 1862.32,1539.84 1800.65,1548.84 1735.5,1534C 1688.49,1520.13 1652.49,1492.3 1627.5,1450.5C 1636.44,1434.96 1644.6,1418.96 1652,1402.5C 1656.97,1392.07 1660.81,1381.4 1663.5,1370.5C 1663.24,1372.79 1663.58,1374.96 1664.5,1377C 1667.38,1377.44 1670.04,1378.44 1672.5,1380C 1690.58,1394.2 1710.91,1403.87 1733.5,1409C 1764.96,1414.7 1796.63,1416.04 1828.5,1413C 1876.92,1408.78 1918.92,1390.44 1954.5,1358C 1990.95,1321.63 2017.12,1278.8 2033,1229.5C 2043.44,1195.58 2045.11,1161.25 2038,1126.5C 2034.99,1114.64 2031.49,1102.97 2027.5,1091.5 Z"/></g>
<g><path style="opacity:1" fill="#f4f9fa" d="M 1884.5,1092.5 C 1917.57,1088.55 1946.07,1097.88 1970,1120.5C 1978.85,1139 1975.35,1154.83 1959.5,1168C 1945.37,1178.83 1929.7,1186.83 1912.5,1192C 1872.82,1207.23 1832.16,1210.57 1790.5,1202C 1767.35,1194.53 1756.51,1178.69 1758,1154.5C 1761.06,1143.45 1767.22,1134.62 1776.5,1128C 1799.3,1113.61 1823.97,1103.61 1850.5,1098C 1861.93,1095.82 1873.26,1093.99 1884.5,1092.5 Z"/></g>
<g><path style="opacity:0.998" fill="#d39735" d="M 2408.5,1114.5 C 2424.25,1116.62 2430.75,1125.62 2428,1141.5C 2425.18,1151.17 2418.68,1155.84 2408.5,1155.5C 2396.07,1153.83 2390.07,1146.66 2390.5,1134C 2390.83,1122.17 2396.83,1115.67 2408.5,1114.5 Z"/></g>
<g><path style="opacity:0.985" fill="#9a4a0d" d="M 2714.5,1123.5 C 2718.44,1125.14 2722.11,1127.31 2725.5,1130C 2733.9,1138.07 2742.56,1145.73 2751.5,1153C 2776.97,1179.14 2802.47,1205.31 2828,1231.5C 2828.5,1233.47 2828.66,1235.47 2828.5,1237.5C 2825.44,1237.86 2822.77,1237.02 2820.5,1235C 2793.21,1213.38 2766.21,1191.38 2739.5,1169C 2730.26,1160.43 2721.76,1151.27 2714,1141.5C 2709.24,1135.26 2709.4,1129.26 2714.5,1123.5 Z"/></g>
<g><path style="opacity:0.996" fill="#b77101" d="M 485.5,1136.5 C 493.615,1166.29 501.448,1196.29 509,1226.5C 510,1228.5 511,1230.5 512,1232.5C 533.014,1251.04 540.514,1274.04 534.5,1301.5C 509.472,1300.36 499.305,1312.02 504,1336.5C 508.483,1348 516.983,1353.34 529.5,1352.5C 531.612,1353.44 533.612,1354.61 535.5,1356C 549.222,1368.5 555.056,1384 553,1402.5C 550.671,1410.82 548.504,1419.15 546.5,1427.5C 546.719,1434.77 549.719,1440.6 555.5,1445C 566.833,1453.67 578.167,1462.33 589.5,1471C 604.141,1483.79 610.974,1499.96 610,1519.5C 611.458,1521.96 613.291,1524.13 615.5,1526C 629.323,1532.74 642.99,1539.74 656.5,1547C 666.656,1552.82 673.489,1561.32 677,1572.5C 677.532,1580.82 679.032,1588.82 681.5,1596.5C 672.69,1606.79 671.19,1618.12 677,1630.5C 689.936,1644.86 702.936,1644.86 716,1630.5C 719.104,1625.56 720.104,1620.23 719,1614.5C 717.595,1609.45 716.095,1604.45 714.5,1599.5C 727.837,1599.33 741.171,1599.5 754.5,1600C 764.112,1600.43 772.779,1603.43 780.5,1609C 789.433,1619.45 794.267,1631.62 795,1645.5C 795.75,1646.13 796.584,1646.63 797.5,1647C 819.822,1649.73 842.155,1652.39 864.5,1655C 884.663,1659.16 896.829,1671.33 901,1691.5C 901.269,1698.54 901.936,1705.54 903,1712.5C 904.645,1716.87 907.812,1718.54 912.5,1717.5C 922.299,1716.12 932.132,1715.12 942,1714.5C 965.527,1713.44 979.86,1724.44 985,1747.5C 985.161,1756.22 985.827,1764.88 987,1773.5C 988.322,1778.32 991.489,1780.65 996.5,1780.5C 1006.17,1778.74 1015.83,1777.07 1025.5,1775.5C 1021.62,1795.98 1029.95,1805.81 1050.5,1805C 1057.58,1802 1062.25,1796.83 1064.5,1789.5C 1069.71,1793.54 1074.04,1798.38 1077.5,1804C 1078.5,1804.5 1079.5,1805 1080.5,1805.5C 1083.33,1804.25 1086,1802.75 1088.5,1801C 1101.48,1790.51 1114.81,1780.51 1128.5,1771C 1134.63,1768.76 1140.96,1767.59 1147.5,1767.5C 1153.86,1767.23 1159.52,1769.06 1164.5,1773C 1170.83,1780.67 1177.17,1788.33 1183.5,1796C 1185.51,1797.26 1187.68,1798.09 1190,1798.5C 1208.96,1792.07 1228.12,1786.24 1247.5,1781C 1258.37,1778.6 1269.03,1779.26 1279.5,1783C 1292.67,1790.83 1303.17,1801.33 1311,1814.5C 1315.49,1819.26 1320.99,1820.76 1327.5,1819C 1351.67,1809.48 1375.33,1810.48 1398.5,1822C 1408.83,1829 1419.17,1836 1429.5,1843C 1432.96,1845.07 1436.63,1846.57 1440.5,1847.5C 1443.73,1846.55 1446.73,1845.05 1449.5,1843C 1460.44,1830.06 1472.1,1817.73 1484.5,1806C 1497.19,1795.16 1511.86,1790.49 1528.5,1792C 1539.58,1795.37 1550.58,1799.04 1561.5,1803C 1570.26,1804.72 1578.26,1803.05 1585.5,1798C 1596.83,1786 1608.17,1774 1619.5,1762C 1636.47,1752.03 1653.47,1752.03 1670.5,1762C 1681.54,1771.37 1691.54,1781.7 1700.5,1793C 1703.22,1795.15 1705.72,1794.98 1708,1792.5C 1718.45,1770.86 1735.62,1761.03 1759.5,1763C 1775.86,1767.35 1789.53,1776.02 1800.5,1789C 1802.47,1789.5 1804.47,1789.66 1806.5,1789.5C 1815.84,1797.8 1825.84,1798.63 1836.5,1792C 1840.12,1787.44 1841.29,1782.27 1840,1776.5C 1838.1,1772.1 1835.6,1768.1 1832.5,1764.5C 1841.47,1762.28 1850.47,1762.11 1859.5,1764C 1869.56,1767.87 1879.23,1772.53 1888.5,1778C 1895.11,1779.53 1900.78,1777.86 1905.5,1773C 1923.96,1756.2 1943.3,1740.53 1963.5,1726C 1970.73,1722.22 1978.39,1719.89 1986.5,1719C 2009.19,1718.76 2030.86,1723.42 2051.5,1733C 2059.27,1735.24 2065.44,1733.08 2070,1726.5C 2080.67,1711.83 2091.33,1697.17 2102,1682.5C 2119.21,1664.26 2139.38,1660.09 2162.5,1670C 2172.03,1675.86 2180.7,1682.86 2188.5,1691C 2192.88,1694.49 2197.04,1694.32 2201,1690.5C 2207.35,1679.81 2214.85,1669.98 2223.5,1661C 2232.37,1652.82 2242.87,1648.32 2255,1647.5C 2273.25,1649.36 2290.08,1655.19 2305.5,1665C 2310.98,1667.55 2314.15,1665.72 2315,1659.5C 2317.86,1646.38 2321.2,1633.38 2325,1620.5C 2330.57,1604.77 2341.07,1593.77 2356.5,1587.5C 2354.71,1598.88 2358.05,1608.38 2366.5,1616C 2371.34,1618.4 2375.67,1617.74 2379.5,1614C 2387.36,1606.93 2391.02,1598.1 2390.5,1587.5C 2394.69,1587.82 2397.86,1586.15 2400,1582.5C 2410.64,1554.26 2422.64,1526.59 2436,1499.5C 2444.73,1482.97 2458.39,1473.97 2477,1472.5C 2492.66,1474.87 2507.83,1479.04 2522.5,1485C 2525.03,1485.9 2527.19,1485.4 2529,1483.5C 2529.45,1480.12 2530.12,1476.79 2531,1473.5C 2531.33,1458.5 2531.67,1443.5 2532,1428.5C 2534.54,1419.28 2539.54,1411.62 2547,1405.5C 2548,1403.5 2549,1401.5 2550,1399.5C 2551.61,1387.16 2551.28,1374.82 2549,1362.5C 2544.41,1340.88 2540.08,1319.21 2536,1297.5C 2534.73,1288.53 2534.39,1279.53 2535,1270.5C 2536.26,1262.49 2539.76,1255.65 2545.5,1250C 2552.52,1245.44 2560.19,1242.44 2568.5,1241C 2570.03,1239.35 2570.7,1237.35 2570.5,1235C 2565.89,1212.72 2560.89,1190.56 2555.5,1168.5C 2567.09,1167.36 2578.76,1167.19 2590.5,1168C 2611.95,1171.02 2633.12,1175.19 2654,1180.5C 2654.86,1183.55 2654.19,1186.22 2652,1188.5C 2634,1209.83 2616,1231.17 2598,1252.5C 2597.52,1253.45 2597.35,1254.45 2597.5,1255.5C 2626.81,1252.23 2656.14,1249.06 2685.5,1246C 2690.2,1245.17 2694.87,1245.34 2699.5,1246.5C 2698.76,1248.54 2697.93,1250.54 2697,1252.5C 2674.31,1280.36 2651.81,1308.36 2629.5,1336.5C 2631.76,1337.65 2634.1,1337.81 2636.5,1337C 2653.09,1330.47 2669.76,1324.14 2686.5,1318C 2692.09,1316.09 2694.26,1317.92 2693,1323.5C 2686.19,1344.92 2679.19,1366.25 2672,1387.5C 2666.29,1403.14 2658.79,1417.81 2649.5,1431.5C 2648.23,1432.08 2648.23,1432.74 2649.5,1433.5C 2650.3,1433.04 2650.63,1432.38 2650.5,1431.5C 2664.5,1423.5 2678.5,1415.5 2692.5,1407.5C 2691.17,1412.5 2689.83,1417.5 2688.5,1422.5C 2683.05,1431.06 2678.38,1440.06 2674.5,1449.5C 2660.16,1474.69 2645.99,1500.02 2632,1525.5C 2626,1534.17 2620,1542.83 2614,1551.5C 2605.17,1561.67 2596.33,1571.83 2587.5,1582C 2591.21,1582.44 2594.88,1582.11 2598.5,1581C 2619.18,1575.66 2639.84,1570.33 2660.5,1565C 2665.1,1563.88 2669.77,1563.38 2674.5,1563.5C 2674.65,1564.55 2674.48,1565.55 2674,1566.5C 2652,1593.83 2630,1621.17 2608,1648.5C 2590.81,1667.59 2570.48,1682.25 2547,1692.5C 2546.31,1693.33 2546.48,1694 2547.5,1694.5C 2558.32,1697.95 2569.32,1700.62 2580.5,1702.5C 2589.92,1707.19 2599.92,1710.53 2610.5,1712.5C 2612.48,1713.49 2614.48,1714.49 2616.5,1715.5C 2615.69,1716.81 2614.69,1717.98 2613.5,1719C 2587.16,1735.5 2560.5,1751.5 2533.5,1767C 2513.1,1776.13 2491.77,1781.8 2469.5,1784C 2471.66,1785.91 2473.99,1787.58 2476.5,1789C 2496.5,1798 2516.5,1807 2536.5,1816C 2539.89,1817.69 2542.89,1819.86 2545.5,1822.5C 2511.41,1832.11 2477.07,1840.94 2442.5,1849C 2431.24,1851.38 2419.91,1853.21 2408.5,1854.5C 2399.39,1854.06 2390.39,1854.56 2381.5,1856C 2380.16,1862.53 2382.82,1866.7 2389.5,1868.5C 2397.07,1879.95 2404.9,1891.28 2413,1902.5C 2414.52,1904.83 2415.02,1907.16 2414.5,1909.5C 2394.09,1904.03 2373.75,1898.36 2353.5,1892.5C 2349.77,1890.59 2345.77,1889.26 2341.5,1888.5C 2334.08,1884.34 2326.75,1884.51 2319.5,1889C 2313.39,1896.06 2307.89,1903.56 2303,1911.5C 2275.48,1937.2 2246.65,1961.2 2216.5,1983.5C 2215.34,1978.87 2215.17,1974.2 2216,1969.5C 2219.88,1942.5 2223.71,1915.5 2227.5,1888.5C 2228.57,1887.75 2228.74,1886.75 2228,1885.5C 2226.96,1886.24 2226.46,1887.24 2226.5,1888.5C 2211.53,1908.98 2194.53,1927.81 2175.5,1945C 2133.53,1975.99 2090.53,2005.49 2046.5,2033.5C 2046.17,2033.17 2045.83,2032.83 2045.5,2032.5C 2054.47,2013.9 2063.47,1995.23 2072.5,1976.5C 2072,1976.17 2071.5,1975.83 2071,1975.5C 2058.12,1984.71 2044.95,1993.54 2031.5,2002C 2002.33,2018.36 1973.33,2034.86 1944.5,2051.5C 1935.56,2054.37 1926.89,2058.04 1918.5,2062.5C 1917.53,2060.6 1917.2,2058.6 1917.5,2056.5C 1921.23,2052.04 1924.73,2047.38 1928,2042.5C 1941.86,2020.11 1955.69,1997.78 1969.5,1975.5C 1970.5,1975.59 1971.33,1975.25 1972,1974.5C 1976.04,1969.63 1975.21,1968.47 1969.5,1971C 1968.75,1971.67 1968.41,1972.5 1968.5,1973.5C 1930.43,1993.71 1892.43,2014.21 1854.5,2035C 1847.17,2038.92 1839.67,2042.42 1832,2045.5C 1844.44,2025.34 1857.94,2005.67 1872.5,1986.5C 1875.18,1983.67 1877.51,1980.5 1879.5,1977C 1878.09,1976.68 1876.76,1977.02 1875.5,1978C 1872.73,1979.37 1870.4,1981.2 1868.5,1983.5C 1837.75,1999.07 1807.08,2014.9 1776.5,2031C 1773.88,2031.82 1771.22,2032.32 1768.5,2032.5C 1768.67,2029.13 1769.17,2025.79 1770,2022.5C 1773.3,2012.94 1776.14,2003.28 1778.5,1993.5C 1779.12,1993.39 1779.62,1993.06 1780,1992.5C 1780.99,1989.87 1781.33,1987.21 1781,1984.5C 1778.47,1987.17 1776.64,1990.17 1775.5,1993.5C 1752.95,2019.09 1727.61,2041.42 1699.5,2060.5C 1699.17,2059.5 1698.83,2058.5 1698.5,2057.5C 1697.41,2049.72 1696.24,2042.06 1695,2034.5C 1683.41,2053.33 1672.08,2072.33 1661,2091.5C 1659.13,2094.58 1656.79,2097.25 1654,2099.5C 1651.43,2095.46 1649.43,2091.12 1648,2086.5C 1639.2,2060.45 1630.2,2034.45 1621,2008.5C 1610.77,2034.96 1601.1,2061.63 1592,2088.5C 1590.93,2092.32 1589.09,2095.65 1586.5,2098.5C 1584.16,2095.83 1582.33,2092.83 1581,2089.5C 1571.26,2064.36 1561.26,2039.36 1551,2014.5C 1546.43,2053.42 1542.1,2092.42 1538,2131.5C 1537.53,2133.78 1536.53,2135.78 1535,2137.5C 1531.94,2135.04 1529.61,2132.04 1528,2128.5C 1508.21,2092.42 1488.05,2056.59 1467.5,2021C 1466.26,2020.54 1465.42,2021.04 1465,2022.5C 1462.85,2038.48 1460.85,2054.48 1459,2070.5C 1458.48,2071.52 1457.65,2072.18 1456.5,2072.5C 1454.39,2071.57 1452.39,2070.4 1450.5,2069C 1440.9,2059.23 1430.57,2050.4 1419.5,2042.5C 1418.71,2046.15 1418.55,2049.81 1419,2053.5C 1389.02,2035.67 1359.18,2017.67 1329.5,1999.5C 1335.35,2023.57 1341.52,2047.57 1348,2071.5C 1348.5,2073.81 1348.66,2076.14 1348.5,2078.5C 1346.01,2078.7 1343.68,2078.2 1341.5,2077C 1315.5,2061.33 1289.5,2045.67 1263.5,2030C 1245.56,2015.84 1228.56,2000.5 1212.5,1984C 1210.11,1982.14 1207.45,1980.81 1204.5,1980C 1197,1978.29 1189.5,1976.79 1182,1975.5C 1180.46,1977.47 1179.29,1979.63 1178.5,1982C 1180.2,1997.11 1181.86,2012.28 1183.5,2027.5C 1183,2029.82 1182.67,2032.15 1182.5,2034.5C 1177.11,2033.81 1172.11,2031.98 1167.5,2029C 1149.34,2019.42 1131.67,2009.09 1114.5,1998C 1101.73,1989.2 1090.57,1978.7 1081,1966.5C 1068.96,1953.73 1054.13,1946.73 1036.5,1945.5C 1036.44,1944.96 1036.11,1944.62 1035.5,1944.5C 1034.23,1945.26 1034.23,1945.92 1035.5,1946.5C 1040.59,1959.93 1045.59,1973.43 1050.5,1987C 1052.44,1991.31 1053.44,1995.81 1053.5,2000.5C 1050.73,2000.58 1048.06,2000.08 1045.5,1999C 1018.1,1986.13 991.095,1972.46 964.5,1958C 942.895,1943.69 922.562,1927.69 903.5,1910C 898.009,1905.75 892.342,1901.75 886.5,1898C 869.705,1890.6 852.705,1883.77 835.5,1877.5C 834.749,1876.43 833.749,1876.26 832.5,1877C 833.044,1877.72 833.711,1878.22 834.5,1878.5C 844.248,1896.16 853.581,1914 862.5,1932C 862.167,1932.17 861.833,1932.33 861.5,1932.5C 825.375,1914.27 789.375,1895.77 753.5,1877C 728.854,1863.02 708.687,1844.19 693,1820.5C 691.556,1818.84 689.722,1818.18 687.5,1818.5C 693.035,1841.97 699.202,1865.31 706,1888.5C 706.462,1892.45 707.296,1896.28 708.5,1900C 708.167,1900.17 707.833,1900.33 707.5,1900.5C 703.996,1898.58 700.663,1896.42 697.5,1894C 664.73,1864.57 632.563,1834.4 601,1803.5C 587.745,1788 576.745,1771 568,1752.5C 566.883,1753.95 566.216,1755.62 566,1757.5C 563.667,1780.17 561.333,1802.83 559,1825.5C 558.64,1827.61 557.973,1829.61 557,1831.5C 555.333,1830.17 553.667,1828.83 552,1827.5C 532.419,1799.34 513.086,1771.01 494,1742.5C 475.666,1712.5 466.999,1679.84 468,1644.5C 458.467,1664.9 449.467,1685.57 441,1706.5C 439.898,1708.38 438.565,1710.05 437,1711.5C 435.779,1710.73 434.779,1709.73 434,1708.5C 421.112,1676.72 408.778,1644.72 397,1612.5C 392.368,1593.05 390.535,1573.38 391.5,1553.5C 390.21,1552.59 388.877,1552.76 387.5,1554C 375.5,1566 363.5,1578 351.5,1590C 349.649,1590.84 347.816,1591.67 346,1592.5C 348.015,1548.67 352.015,1505 358,1461.5C 363.003,1441.17 371.503,1422.5 383.5,1405.5C 387.92,1401.91 391.92,1397.74 395.5,1393C 391.524,1394.48 387.524,1396.31 383.5,1398.5C 382.702,1398.96 382.369,1399.62 382.5,1400.5C 368.386,1409.4 354.386,1418.56 340.5,1428C 338.091,1429.71 335.425,1430.54 332.5,1430.5C 342.792,1388.68 354.958,1347.34 369,1306.5C 380.966,1276.2 401.133,1253.03 429.5,1237C 438.022,1232.91 446.355,1228.57 454.5,1224C 458.774,1219.73 462.274,1214.89 465,1209.5C 465.72,1207.89 465.554,1206.39 464.5,1205C 449.844,1203.56 435.177,1202.22 420.5,1201C 417.968,1200.38 415.635,1199.38 413.5,1198C 415.461,1195.04 417.794,1192.37 420.5,1190C 442.331,1172.33 463.998,1154.5 485.5,1136.5 Z"/></g>
<g><path style="opacity:0.998" fill="#7a4d05" d="M 1644.5,1148.5 C 1663.23,1147.01 1679.9,1152.01 1694.5,1163.5C 1683.8,1174.2 1673.47,1185.2 1663.5,1196.5C 1661.5,1195.33 1660,1193.66 1659,1191.5C 1654.26,1177.1 1649.42,1162.77 1644.5,1148.5 Z"/></g>
<g><path style="opacity:0.958" fill="#77553a" d="M 297.5,1240.5 C 306.346,1237.99 311.679,1232.32 313.5,1223.5C 316.806,1222.18 319.806,1220.35 322.5,1218C 340.167,1201 357.833,1184 375.5,1167C 379.78,1164.52 383.28,1165.36 386,1169.5C 386.841,1173.12 386.174,1176.45 384,1179.5C 368.433,1197.07 351.6,1213.24 333.5,1228C 317.5,1240.67 301.5,1253.33 285.5,1266C 283.866,1266.49 282.199,1266.66 280.5,1266.5C 280.338,1264.47 280.505,1262.47 281,1260.5C 286,1255.5 291,1250.5 296,1245.5C 297.009,1243.98 297.509,1242.31 297.5,1240.5 Z"/></g>
<g><path style="opacity:0.999" fill="#7a4d05" d="M 1264.5,1184.5 C 1262.61,1196.8 1260.95,1209.14 1259.5,1221.5C 1234.82,1212.77 1210.15,1203.94 1185.5,1195C 1178.84,1193.39 1172.17,1191.89 1165.5,1190.5C 1167.4,1187.25 1169.74,1184.25 1172.5,1181.5C 1189,1167.13 1208,1162.29 1229.5,1167C 1241.75,1171.79 1253.42,1177.63 1264.5,1184.5 Z"/></g>
<g><path style="opacity:1" fill="#e6f3f4" d="M 1165.5,1190.5 C 1172.17,1191.89 1178.84,1193.39 1185.5,1195C 1210.15,1203.94 1234.82,1212.77 1259.5,1221.5C 1253.66,1279.72 1261.49,1336.05 1283,1390.5C 1283.49,1392.13 1283.66,1393.8 1283.5,1395.5C 1247.93,1439.13 1203.27,1469.63 1149.5,1487C 1116.68,1497.18 1083.35,1499.51 1049.5,1494C 997.297,1482.4 950.963,1459.4 910.5,1425C 876.115,1393.39 853.782,1354.89 843.5,1309.5C 863.052,1276.78 889.386,1250.95 922.5,1232C 998.821,1191.17 1079.82,1177.34 1165.5,1190.5 Z"/></g>
<g><path style="opacity:0.998" fill="#d39735" d="M 2345.5,1193.5 C 2365.32,1192.81 2373.15,1202.14 2369,1221.5C 2362.19,1231.99 2353.03,1234.82 2341.5,1230C 2331.01,1223.19 2328.18,1214.03 2333,1202.5C 2336.3,1198.12 2340.47,1195.12 2345.5,1193.5 Z"/></g>
<g><path style="opacity:0.999" fill="#f4f9fa" d="M 1672.5,1287.5 C 1672.93,1263.22 1670.6,1239.22 1665.5,1215.5C 1675.65,1208.28 1686.82,1203.28 1699,1200.5C 1703.64,1201.12 1708.14,1202.28 1712.5,1204C 1725.51,1210.52 1730.68,1221.02 1728,1235.5C 1724.84,1246.16 1719.84,1255.83 1713,1264.5C 1702.67,1277.75 1689.17,1285.41 1672.5,1287.5 Z"/></g>
<g><path style="opacity:1" fill="#f4f9fa" d="M 1058.5,1204.5 C 1076.04,1203.05 1092.04,1207.22 1106.5,1217C 1113.37,1224.44 1116.37,1233.27 1115.5,1243.5C 1115.35,1255.78 1111.19,1266.45 1103,1275.5C 1071.57,1304.47 1034.74,1323.3 992.5,1332C 974.677,1336.45 956.677,1337.45 938.5,1335C 916.406,1329.59 906.573,1315.75 909,1293.5C 918.394,1267.77 935.227,1248.61 959.5,1236C 990.517,1218.94 1023.52,1208.44 1058.5,1204.5 Z"/></g>
<g><path style="opacity:0.999" fill="#f4f9fa" d="M 1194.5,1218.5 C 1213.24,1219.77 1230.91,1224.94 1247.5,1234C 1250.17,1236 1252.83,1238 1255.5,1240C 1256.66,1252.76 1256.82,1265.59 1256,1278.5C 1247.48,1284.51 1237.98,1287.84 1227.5,1288.5C 1209.66,1287.8 1193.33,1282.63 1178.5,1273C 1162.11,1258.3 1161.44,1242.97 1176.5,1227C 1182.21,1223.31 1188.21,1220.48 1194.5,1218.5 Z"/></g>
<g><path style="opacity:0.989" fill="#98490c" d="M 313.5,1223.5 C 311.679,1232.32 306.346,1237.99 297.5,1240.5C 250.073,1255.03 202.406,1268.86 154.5,1282C 151.515,1282.87 148.515,1283.2 145.5,1283C 143.18,1281.51 143.013,1279.68 145,1277.5C 187.668,1259.94 230.501,1242.78 273.5,1226C 284.966,1222.57 296.632,1220.57 308.5,1220C 310.323,1221 311.99,1222.16 313.5,1223.5 Z"/></g>
<g><path style="opacity:0.998" fill="#d39735" d="M 2493.5,1237.5 C 2512.62,1236.46 2522.12,1245.46 2522,1264.5C 2517.73,1279.39 2507.9,1285.23 2492.5,1282C 2483.07,1277.84 2478.41,1270.5 2478.5,1260C 2479.2,1255.24 2480.7,1250.74 2483,1246.5C 2486.1,1242.89 2489.6,1239.89 2493.5,1237.5 Z"/></g>
<g><path style="opacity:1" fill="#784b01" d="M 2101.5,1258.5 C 2101.34,1259.87 2101.51,1261.21 2102,1262.5C 2108.8,1273.76 2114.8,1285.43 2120,1297.5C 2122.89,1300.36 2126.06,1302.86 2129.5,1305C 2173.59,1321.83 2192.93,1353.83 2187.5,1401C 2187.49,1404.26 2187.99,1407.42 2189,1410.5C 2207.83,1431.15 2220.66,1455.15 2227.5,1482.5C 2226.82,1486.2 2225.32,1489.53 2223,1492.5C 2212.21,1505.63 2201.04,1518.46 2189.5,1531C 2188,1531.51 2186.84,1531.01 2186,1529.5C 2184.33,1517.5 2182.67,1505.5 2181,1493.5C 2179.93,1491.72 2178.43,1491.22 2176.5,1492C 2169.12,1503.4 2160.12,1513.4 2149.5,1522C 2127.25,1538.75 2104.58,1554.92 2081.5,1570.5C 2081.17,1570 2080.83,1569.5 2080.5,1569C 2085.04,1555.35 2088.54,1541.51 2091,1527.5C 2089.93,1528.19 2088.77,1528.69 2087.5,1529C 2077.61,1539.61 2066.27,1548.27 2053.5,1555C 2028.4,1566.55 2003.07,1577.55 1977.5,1588C 1975.1,1588.81 1972.76,1588.65 1970.5,1587.5C 1974.52,1578.63 1979.18,1570.13 1984.5,1562C 1960.36,1564.91 1939.36,1574.57 1921.5,1591C 1910.98,1597.76 1899.98,1603.76 1888.5,1609C 1871.17,1616 1853.83,1623 1836.5,1630C 1833.09,1631.24 1831.43,1630.07 1831.5,1626.5C 1833.43,1619.96 1835.93,1613.63 1839,1607.5C 1839.5,1605.19 1839.66,1602.86 1839.5,1600.5C 1829.48,1600.23 1820.48,1603.06 1812.5,1609C 1803.73,1617.55 1794.06,1624.88 1783.5,1631C 1768.18,1639.38 1752.18,1645.88 1735.5,1650.5C 1735.3,1641.93 1735.97,1633.43 1737.5,1625C 1738.08,1621.31 1736.74,1618.81 1733.5,1617.5C 1728.49,1618.25 1723.49,1619.08 1718.5,1620C 1704.05,1631.11 1689.05,1641.45 1673.5,1651C 1655.84,1660.83 1637.51,1669 1618.5,1675.5C 1618.33,1672.15 1618.5,1668.82 1619,1665.5C 1622.89,1654.99 1626.06,1644.32 1628.5,1633.5C 1626.8,1633.34 1625.13,1633.51 1623.5,1634C 1605.47,1643.02 1587.47,1652.02 1569.5,1661C 1566.29,1660.08 1562.95,1659.75 1559.5,1660C 1552.94,1664.07 1546.27,1667.9 1539.5,1671.5C 1537.97,1671.47 1536.8,1670.8 1536,1669.5C 1534.49,1661.4 1532.66,1653.4 1530.5,1645.5C 1515.76,1665.32 1501.26,1685.32 1487,1705.5C 1485.32,1707.35 1483.48,1709.02 1481.5,1710.5C 1480.07,1708.78 1479.23,1706.78 1479,1704.5C 1476.01,1685.21 1473.34,1665.88 1471,1646.5C 1470.78,1644.62 1470.12,1642.95 1469,1641.5C 1461.49,1655.19 1454.49,1669.19 1448,1683.5C 1446.67,1684.83 1445.33,1686.17 1444,1687.5C 1442.09,1685.34 1440.42,1683.01 1439,1680.5C 1433.47,1668.25 1428.14,1655.92 1423,1643.5C 1421.91,1641.65 1420.57,1639.98 1419,1638.5C 1412.05,1654.67 1404.72,1670.67 1397,1686.5C 1396.44,1687.02 1395.77,1687.36 1395,1687.5C 1392.38,1685.89 1390.05,1683.89 1388,1681.5C 1381.55,1672.05 1374.72,1662.88 1367.5,1654C 1366.52,1653.41 1365.85,1653.74 1365.5,1655C 1364.81,1657.8 1364.31,1660.63 1364,1663.5C 1363.63,1664.91 1362.8,1665.91 1361.5,1666.5C 1345.99,1656.25 1330.66,1645.75 1315.5,1635C 1313.35,1633.59 1311.02,1632.76 1308.5,1632.5C 1309.76,1637.72 1310.43,1643.06 1310.5,1648.5C 1307.06,1648.7 1303.73,1648.2 1300.5,1647C 1280.17,1638.5 1259.83,1630 1239.5,1621.5C 1239.17,1621.83 1238.83,1622.17 1238.5,1622.5C 1245.88,1633.72 1254.22,1644.22 1263.5,1654C 1251.73,1650.63 1240.06,1646.63 1228.5,1642C 1209.93,1633.88 1191.26,1626.05 1172.5,1618.5C 1171.5,1618.67 1170.5,1618.83 1169.5,1619C 1178.47,1632.43 1188.31,1645.26 1199,1657.5C 1200.83,1660.5 1202.67,1663.5 1204.5,1666.5C 1194.44,1663.98 1184.44,1660.48 1174.5,1656C 1148.62,1644.32 1122.95,1632.15 1097.5,1619.5C 1100.99,1628.66 1105.32,1637.83 1110.5,1647C 1100.81,1644.17 1091.48,1640.17 1082.5,1635C 1056.84,1620.5 1031.5,1605.5 1006.5,1590C 1000.26,1584.26 994.592,1578.1 989.5,1571.5C 1020.52,1583.76 1052.52,1592.59 1085.5,1598C 1141.85,1606.74 1196.52,1600.74 1249.5,1580C 1288.2,1563.29 1319.7,1537.79 1344,1503.5C 1346.43,1499.63 1348.6,1495.63 1350.5,1491.5C 1351.92,1489.29 1353.92,1488.46 1356.5,1489C 1368.84,1498.51 1382.17,1506.51 1396.5,1513C 1469.58,1542.8 1536.24,1532.47 1596.5,1482C 1607.06,1471.6 1617.4,1461.1 1627.5,1450.5C 1652.49,1492.3 1688.49,1520.13 1735.5,1534C 1800.65,1548.84 1862.32,1539.84 1920.5,1507C 2016.8,1450.51 2077.13,1367.68 2101.5,1258.5 Z"/></g>
<g><path style="opacity:0.941" fill="#9a4d11" d="M 2854.5,1270.5 C 2860.55,1271.85 2866.21,1274.18 2871.5,1277.5C 2873.55,1282.11 2872.21,1285.27 2867.5,1287C 2841.32,1292.09 2814.99,1295.75 2788.5,1298C 2786.41,1296.01 2786.74,1294.01 2789.5,1292C 2811.36,1285.1 2833.03,1277.93 2854.5,1270.5 Z"/></g>
<g><path style="opacity:0.937" fill="#78563b" d="M 250.5,1297.5 C 271.171,1302 291.505,1307.83 311.5,1315C 318.923,1317.58 319.09,1320.08 312,1322.5C 289.447,1319.37 266.947,1315.87 244.5,1312C 240.787,1310.31 239.621,1307.48 241,1303.5C 244.04,1301.22 247.206,1299.22 250.5,1297.5 Z"/></g>
<g><path style="opacity:0.999" fill="#c18931" d="M 534.5,1301.5 C 534.5,1302.5 534.5,1303.5 534.5,1304.5C 529.079,1314.4 524.413,1324.73 520.5,1335.5C 521.917,1341.24 524.917,1345.9 529.5,1349.5C 529.5,1350.5 529.5,1351.5 529.5,1352.5C 516.983,1353.34 508.483,1348 504,1336.5C 499.305,1312.02 509.472,1300.36 534.5,1301.5 Z"/></g>
<g><path style="opacity:0.996" fill="#d39735" d="M 534.5,1304.5 C 547.012,1310.2 551.512,1319.87 548,1333.5C 545.05,1342.62 538.884,1347.95 529.5,1349.5C 524.917,1345.9 521.917,1341.24 520.5,1335.5C 524.413,1324.73 529.079,1314.4 534.5,1304.5 Z"/></g>
<g><path style="opacity:1" fill="#d5e1e3" d="M 843.5,1309.5 C 853.782,1354.89 876.115,1393.39 910.5,1425C 950.963,1459.4 997.297,1482.4 1049.5,1494C 1083.35,1499.51 1116.68,1497.18 1149.5,1487C 1203.27,1469.63 1247.93,1439.13 1283.5,1395.5C 1286.16,1397.66 1288.66,1399.99 1291,1402.5C 1295.19,1413.87 1300.69,1424.54 1307.5,1434.5C 1308.04,1436.59 1308.88,1438.59 1310,1440.5C 1321.71,1453.2 1333.04,1466.2 1344,1479.5C 1346.87,1483.18 1349.04,1487.18 1350.5,1491.5C 1348.6,1495.63 1346.43,1499.63 1344,1503.5C 1319.7,1537.79 1288.2,1563.29 1249.5,1580C 1196.52,1600.74 1141.85,1606.74 1085.5,1598C 1052.52,1592.59 1020.52,1583.76 989.5,1571.5C 986.833,1570.17 984.167,1568.83 981.5,1567.5C 951.44,1551.92 923.107,1533.76 896.5,1513C 860.785,1483.06 837.118,1445.56 825.5,1400.5C 825.006,1392.68 824.672,1384.85 824.5,1377C 823.681,1352.32 830.014,1329.82 843.5,1309.5 Z"/></g>
<g><path style="opacity:1" fill="#e0e5e6" d="M 1316.5,1320.5 C 1329.2,1320.27 1339.37,1325.27 1347,1335.5C 1349.77,1339.94 1352.11,1344.61 1354,1349.5C 1356.88,1360.24 1359.38,1371.08 1361.5,1382C 1359.56,1393.88 1354.23,1403.88 1345.5,1412C 1330.9,1420.59 1318.4,1418.09 1308,1404.5C 1296.44,1386.16 1290.78,1366.16 1291,1344.5C 1295.23,1331.77 1303.73,1323.77 1316.5,1320.5 Z"/></g>
<g><path style="opacity:0.993" fill="#e0c59a" d="M 2624.5,1337.5 C 2628.08,1337.77 2628.41,1339.1 2625.5,1341.5C 2622.59,1342.98 2619.59,1343.81 2616.5,1344C 2619.36,1341.97 2622.02,1339.8 2624.5,1337.5 Z"/></g>
<g><path style="opacity:0.956" fill="#9b4c10" d="M 193.5,1418.5 C 193.328,1419.49 193.662,1420.16 194.5,1420.5C 196.278,1422.83 197.278,1425.5 197.5,1428.5C 192.713,1429.03 188.38,1427.86 184.5,1425C 162.244,1413.07 140.244,1400.73 118.5,1388C 105.08,1377.92 92.247,1367.08 80,1355.5C 77.792,1352.45 76.792,1349.11 77,1345.5C 78.6912,1341.79 81.5245,1340.62 85.5,1342C 87.8333,1343 90.1667,1344 92.5,1345C 120.783,1365.62 148.783,1386.62 176.5,1408C 181.888,1412.02 187.554,1415.52 193.5,1418.5 Z"/></g>
<g><path style="opacity:1" fill="#c18931" d="M 410.5,1393.5 C 424.157,1393.32 433.324,1399.66 438,1412.5C 437.658,1431.17 428.158,1439.67 409.5,1438C 393.322,1430.82 389.156,1419.32 397,1403.5C 400.579,1398.73 405.079,1395.4 410.5,1393.5 Z"/></g>
<g><path style="opacity:0.97" fill="#dcbf8f" d="M 383.5,1405.5 C 383.371,1403.78 383.038,1402.12 382.5,1400.5C 382.369,1399.62 382.702,1398.96 383.5,1398.5C 387.524,1396.31 391.524,1394.48 395.5,1393C 391.92,1397.74 387.92,1401.91 383.5,1405.5 Z"/></g>
<g><path style="opacity:1" fill="#c18931" d="M 508.5,1397.5 C 530.975,1398.38 540.142,1410.05 536,1432.5C 526.386,1452.81 511.886,1456.98 492.5,1445C 482.024,1433.72 480.857,1421.55 489,1408.5C 494.341,1402.58 500.841,1398.92 508.5,1397.5 Z"/></g>
<g><path style="opacity:0.988" fill="#9a4a0d" d="M 2886.5,1398.5 C 2897.84,1398.33 2909.17,1398.5 2920.5,1399C 2924.15,1402.11 2923.48,1404.45 2918.5,1406C 2876.71,1413.77 2834.88,1421.27 2793,1428.5C 2783.89,1426.31 2781.72,1421.31 2786.5,1413.5C 2790.51,1410.49 2794.84,1407.99 2799.5,1406C 2810.07,1403.68 2820.73,1402.02 2831.5,1401C 2849.99,1400.18 2868.33,1399.35 2886.5,1398.5 Z"/></g>
<g><path style="opacity:0.999" fill="#794b01" d="M 825.5,1400.5 C 837.118,1445.56 860.785,1483.06 896.5,1513C 923.107,1533.76 951.44,1551.92 981.5,1567.5C 985.131,1584.69 987.797,1602.02 989.5,1619.5C 986.575,1619.54 983.909,1618.71 981.5,1617C 963.979,1606.07 946.979,1594.41 930.5,1582C 924.802,1575.97 918.802,1570.3 912.5,1565C 909.833,1564.33 907.167,1564.33 904.5,1565C 886.91,1569.48 869.244,1573.65 851.5,1577.5C 850.5,1577.17 849.5,1576.83 848.5,1576.5C 849.333,1574.83 850.167,1573.17 851,1571.5C 857.873,1564.3 864.373,1556.8 870.5,1549C 851.133,1546.92 831.8,1544.25 812.5,1541C 793.457,1537.12 774.457,1533.12 755.5,1529C 754.786,1527.66 755.12,1526.32 756.5,1525C 769.756,1519.8 783.089,1514.8 796.5,1510C 801.689,1507.69 801.689,1505.69 796.5,1504C 786.675,1501.96 777.008,1499.46 767.5,1496.5C 770.552,1494.94 772.218,1492.44 772.5,1489C 770.706,1482.91 768.206,1477.07 765,1471.5C 759.257,1453.3 763.424,1437.8 777.5,1425C 792.804,1415.51 808.804,1407.35 825.5,1400.5 Z"/></g>
<g><path style="opacity:0.059" fill="#b97300" d="M 2692.5,1407.5 C 2692.9,1406.47 2693.56,1406.31 2694.5,1407C 2693.91,1407.46 2693.24,1407.63 2692.5,1407.5 Z"/></g>
<g><path style="opacity:0.947" fill="#78563b" d="M 194.5,1420.5 C 193.662,1420.16 193.328,1419.49 193.5,1418.5C 194.089,1414.74 196.256,1412.41 200,1411.5C 227.796,1413.35 255.629,1414.85 283.5,1416C 296.71,1415.09 308.543,1418.59 319,1426.5C 322.148,1433.87 319.814,1438.21 312,1439.5C 272.997,1432.07 233.831,1425.73 194.5,1420.5 Z"/></g>
<g><path style="opacity:0.98" fill="#7a583d" d="M 2688.5,1422.5 C 2692.57,1425.37 2693.41,1429.03 2691,1433.5C 2685.63,1439.04 2680.13,1444.37 2674.5,1449.5C 2678.38,1440.06 2683.05,1431.06 2688.5,1422.5 Z"/></g>
<g><path style="opacity:0.867" fill="#f9f1e7" d="M 2649.5,1431.5 C 2649.83,1431.5 2650.17,1431.5 2650.5,1431.5C 2650.63,1432.38 2650.3,1433.04 2649.5,1433.5C 2648.23,1432.74 2648.23,1432.08 2649.5,1431.5 Z"/></g>
<g><path style="opacity:0.999" fill="#c58c32" d="M 2390.5,1587.5 C 2391.02,1598.1 2387.36,1606.93 2379.5,1614C 2375.67,1617.74 2371.34,1618.4 2366.5,1616C 2358.05,1608.38 2354.71,1598.88 2356.5,1587.5C 2359.67,1584.5 2363,1581.67 2366.5,1579C 2369.83,1578.33 2373.17,1578.33 2376.5,1579C 2381.36,1581.59 2386.03,1584.43 2390.5,1587.5 Z"/></g>
<g><path style="opacity:1" fill="#c18931" d="M 714.5,1599.5 C 716.095,1604.45 717.595,1609.45 719,1614.5C 720.104,1620.23 719.104,1625.56 716,1630.5C 702.936,1644.86 689.936,1644.86 677,1630.5C 671.19,1618.12 672.69,1606.79 681.5,1596.5C 692.975,1591.87 703.975,1592.87 714.5,1599.5 Z"/></g>
<g><path style="opacity:0.94" fill="#9d5217" d="M 110.5,1642.5 C 172.026,1647.52 233.36,1654.36 294.5,1663C 306.503,1666.83 306.003,1669.33 293,1670.5C 235.209,1665.03 177.375,1659.87 119.5,1655C 113.234,1655.21 108.567,1652.71 105.5,1647.5C 106.882,1645.45 108.548,1643.78 110.5,1642.5 Z"/></g>
<g><path style="opacity:1" fill="#c18931" d="M 749.5,1653.5 C 770.932,1654.44 779.432,1665.44 775,1686.5C 771.857,1693.96 767.357,1700.46 761.5,1706C 758.37,1708.9 754.703,1710.73 750.5,1711.5C 740.87,1708.04 734.37,1701.37 731,1691.5C 725.447,1672.94 731.614,1660.28 749.5,1653.5 Z"/></g>
<g><path style="opacity:1" fill="#c18931" d="M 2384.5,1669.5 C 2405.28,1668.12 2414.78,1677.78 2413,1698.5C 2405.61,1714.12 2394.11,1718.28 2378.5,1711C 2368.61,1702.66 2366.11,1692.49 2371,1680.5C 2374.34,1675.27 2378.84,1671.6 2384.5,1669.5 Z"/></g>
<g><path style="opacity:1" fill="#c18931" d="M 2306.5,1679.5 C 2329.58,1677.41 2339.41,1687.74 2336,1710.5C 2328.68,1726.2 2317.18,1730.37 2301.5,1723C 2292.38,1714.62 2289.54,1704.46 2293,1692.5C 2296.1,1686.56 2300.6,1682.23 2306.5,1679.5 Z"/></g>
<g><path style="opacity:0.982" fill="#79583e" d="M 280.5,1683.5 C 312.878,1683.96 345.212,1685.13 377.5,1687C 382.102,1688.54 382.435,1690.54 378.5,1693C 348.226,1696.97 317.892,1700.47 287.5,1703.5C 280.441,1703.14 273.441,1702.31 266.5,1701C 263.088,1699.55 259.921,1697.71 257,1695.5C 255.959,1692.36 256.793,1689.86 259.5,1688C 266.466,1685.8 273.466,1684.3 280.5,1683.5 Z"/></g>
<g><path style="opacity:1" fill="#c18931" d="M 657.5,1686.5 C 675.249,1684.78 687.415,1692.12 694,1708.5C 696.631,1728.18 688.464,1740.68 669.5,1746C 652.565,1746.44 641.398,1738.61 636,1722.5C 634.204,1705.08 641.371,1693.08 657.5,1686.5 Z"/></g>
<g><path style="opacity:0.981" fill="#7a583e" d="M 2610.5,1712.5 C 2599.92,1710.53 2589.92,1707.19 2580.5,1702.5C 2603.86,1700.33 2627.19,1697.83 2650.5,1695C 2656.7,1693.37 2662.03,1694.7 2666.5,1699C 2665.27,1701.14 2663.61,1702.81 2661.5,1704C 2644.18,1705.78 2627.18,1708.61 2610.5,1712.5 Z"/></g>
<g><path style="opacity:0.99" fill="#98490c" d="M 2776.5,1699.5 C 2800.54,1699.81 2824.54,1700.98 2848.5,1703C 2854.1,1705.7 2855.6,1709.86 2853,1715.5C 2851.2,1717.32 2849.03,1718.48 2846.5,1719C 2802.53,1720.25 2759.03,1716.75 2716,1708.5C 2715.56,1705.26 2717.06,1703.43 2720.5,1703C 2739.16,1702.5 2757.83,1702.33 2776.5,1702.5C 2776.5,1701.5 2776.5,1700.5 2776.5,1699.5 Z"/></g>
<g><path style="opacity:0.998" fill="#d39735" d="M 1158.5,1703.5 C 1173.2,1702.04 1182.7,1708.37 1187,1722.5C 1186.35,1738.15 1178.18,1745.98 1162.5,1746C 1145.24,1740.2 1140.4,1729.04 1148,1712.5C 1151.1,1708.89 1154.6,1705.89 1158.5,1703.5 Z"/></g>
<g><path style="opacity:0.998" fill="#c58c32" d="M 1832.5,1764.5 C 1835.6,1768.1 1838.1,1772.1 1840,1776.5C 1841.29,1782.27 1840.12,1787.44 1836.5,1792C 1825.84,1798.63 1815.84,1797.8 1806.5,1789.5C 1804.92,1785.29 1804.42,1780.95 1805,1776.5C 1810.3,1763.68 1819.46,1759.68 1832.5,1764.5 Z"/></g>
<g><path style="opacity:0.999" fill="#c58c32" d="M 1064.5,1789.5 C 1062.25,1796.83 1057.58,1802 1050.5,1805C 1029.95,1805.81 1021.62,1795.98 1025.5,1775.5C 1029.74,1771.77 1034.4,1768.61 1039.5,1766C 1042.83,1765.33 1046.17,1765.33 1049.5,1766C 1060.2,1770.23 1065.2,1778.06 1064.5,1789.5 Z"/></g>
<g><path style="opacity:0.991" fill="#99490c" d="M 433.5,1832.5 C 425.5,1833.5 417.5,1834.5 409.5,1835.5C 399.236,1827.35 388.903,1819.19 378.5,1811C 368.534,1802.05 360.534,1791.72 354.5,1780C 356.752,1773.43 361.085,1771.77 367.5,1775C 369.833,1776.67 372.167,1778.33 374.5,1780C 394.616,1797.05 414.282,1814.55 433.5,1832.5 Z"/></g>
<g><path style="opacity:0.998" fill="#dbbd8d" d="M 682.5,1803.5 C 684.86,1805.71 686.694,1808.38 688,1811.5C 688.774,1813.4 688.44,1815.07 687,1816.5C 683.941,1812.48 682.441,1808.15 682.5,1803.5 Z"/></g>
<g><path style="opacity:1" fill="#c18931" d="M 1265.5,1818.5 C 1290.97,1817.8 1303.13,1830.13 1302,1855.5C 1297.68,1871.69 1287.01,1879.35 1270,1878.5C 1257.28,1877.8 1248.61,1871.47 1244,1859.5C 1239.71,1839.67 1246.88,1826 1265.5,1818.5 Z"/></g>
<g><path style="opacity:0.965" fill="#77553a" d="M 458.5,1852.5 C 452.355,1852 446.355,1852.66 440.5,1854.5C 405.545,1854.48 370.545,1854.31 335.5,1854C 333.369,1853.46 331.369,1852.62 329.5,1851.5C 332.505,1849.33 335.839,1847.83 339.5,1847C 362.791,1842.84 386.124,1839.01 409.5,1835.5C 417.5,1834.5 425.5,1833.5 433.5,1832.5C 457.423,1831.11 481.423,1830.61 505.5,1831C 512.748,1832.37 514.915,1836.54 512,1843.5C 511.25,1844.13 510.416,1844.63 509.5,1845C 492.47,1848.2 475.47,1850.7 458.5,1852.5 Z"/></g>
<g><path style="opacity:0.934" fill="#9e5117" d="M 458.5,1852.5 C 462.121,1857.29 465.954,1861.96 470,1866.5C 470.813,1868.44 471.313,1870.44 471.5,1872.5C 467.869,1872.84 464.536,1872.01 461.5,1870C 454.317,1864.97 447.317,1859.8 440.5,1854.5C 446.355,1852.66 452.355,1852 458.5,1852.5 Z"/></g>
<g><path style="opacity:0.962" fill="#785334" d="M 2408.5,1854.5 C 2402.19,1859.14 2395.86,1863.8 2389.5,1868.5C 2382.82,1866.7 2380.16,1862.53 2381.5,1856C 2390.39,1854.56 2399.39,1854.06 2408.5,1854.5 Z"/></g>
<g><path style="opacity:1" fill="#c18931" d="M 1859.5,1856.5 C 1875.69,1854.7 1885.35,1861.7 1888.5,1877.5C 1885.84,1890.99 1877.67,1898.33 1864,1899.5C 1849.27,1897.73 1842.27,1889.4 1843,1874.5C 1845.62,1865.72 1851.12,1859.72 1859.5,1856.5 Z"/></g>
<g><path style="opacity:0.953" fill="#984709" d="M 2593.5,1862.5 C 2621.29,1861.81 2648.95,1863.31 2676.5,1867C 2706.85,1871.89 2737.19,1876.89 2767.5,1882C 2774.49,1884.18 2774.82,1886.51 2768.5,1889C 2741.32,1889.21 2714.15,1889.71 2687,1890.5C 2652.83,1887.33 2618.67,1884.17 2584.5,1881C 2579.98,1880.27 2575.65,1878.94 2571.5,1877C 2567.56,1871.48 2568.89,1867.48 2575.5,1865C 2581.63,1864.09 2587.63,1863.25 2593.5,1862.5 Z"/></g>
<g><path style="opacity:1" fill="#c18931" d="M 1740.5,1873.5 C 1761.95,1873.45 1771.78,1884.12 1770,1905.5C 1764.78,1919.7 1754.61,1925.54 1739.5,1923C 1723.09,1916.68 1717.59,1905.18 1723,1888.5C 1727.53,1881.79 1733.36,1876.79 1740.5,1873.5 Z"/></g>
<g><path style="opacity:0.49" fill="#faf5ed" d="M 835.5,1877.5 C 835.5,1878.17 835.167,1878.5 834.5,1878.5C 833.711,1878.22 833.044,1877.72 832.5,1877C 833.749,1876.26 834.749,1876.43 835.5,1877.5 Z"/></g>
<g><path style="opacity:0.867" fill="#fcf9f6" d="M 2227.5,1888.5 C 2227.17,1888.5 2226.83,1888.5 2226.5,1888.5C 2226.46,1887.24 2226.96,1886.24 2228,1885.5C 2228.74,1886.75 2228.57,1887.75 2227.5,1888.5 Z"/></g>
<g><path style="opacity:0.968" fill="#79583d" d="M 2341.5,1888.5 C 2345.77,1889.26 2349.77,1890.59 2353.5,1892.5C 2348.97,1897.71 2343.3,1900.71 2336.5,1901.5C 2336.77,1896.62 2338.44,1892.29 2341.5,1888.5 Z"/></g>
<g><path style="opacity:0.944" fill="#78563b" d="M 571.5,1900.5 C 612.828,1908.2 653.828,1917.37 694.5,1928C 696.527,1929.4 696.86,1931.06 695.5,1933C 655.009,1930.4 614.675,1926.06 574.5,1920C 565.707,1919.04 559.041,1914.87 554.5,1907.5C 559.478,1903.17 565.144,1900.83 571.5,1900.5 Z"/></g>
<g><path style="opacity:0.966" fill="#775235" d="M 392.5,1982.5 C 383.952,1986.11 375.619,1990.27 367.5,1995C 362.744,1997.7 358.411,2000.87 354.5,2004.5C 345.742,2008.04 337.075,2011.88 328.5,2016C 325.773,2016.82 323.106,2016.65 320.5,2015.5C 323.811,2010.35 327.978,2006.02 333,2002.5C 334.5,1998.93 336,1995.43 337.5,1992C 344.5,1989 351.5,1986 358.5,1983C 378.895,1968.94 399.562,1955.27 420.5,1942C 429.199,1942.54 432.032,1947.04 429,1955.5C 417.033,1964.89 404.866,1973.89 392.5,1982.5 Z"/></g>
<g><path style="opacity:0.986" fill="#994a0d" d="M 2500.5,1941.5 C 2506.58,1941.2 2512.58,1941.7 2518.5,1943C 2525.09,1947.14 2525.09,1951.48 2518.5,1956C 2513.76,1958.43 2508.76,1960.1 2503.5,1961C 2458.4,1968.97 2413.07,1974.14 2367.5,1976.5C 2364.74,1973.49 2365.4,1971.32 2369.5,1970C 2413.21,1959.98 2456.88,1950.48 2500.5,1941.5 Z"/></g>
<g><path style="opacity:0.11" fill="#f7eee1" d="M 1036.5,1945.5 C 1036.5,1946.17 1036.17,1946.5 1035.5,1946.5C 1034.23,1945.92 1034.23,1945.26 1035.5,1944.5C 1036.11,1944.62 1036.44,1944.96 1036.5,1945.5 Z"/></g>
<g><path style="opacity:0.75" fill="#f3e6d3" d="M 1969.5,1975.5 C 1969.67,1974.51 1969.34,1973.84 1968.5,1973.5C 1968.41,1972.5 1968.75,1971.67 1969.5,1971C 1975.21,1968.47 1976.04,1969.63 1972,1974.5C 1971.33,1975.25 1970.5,1975.59 1969.5,1975.5 Z"/></g>
<g><path style="opacity:0.981" fill="#dcbf90" d="M 1872.5,1986.5 C 1871.17,1985.5 1869.83,1984.5 1868.5,1983.5C 1870.4,1981.2 1872.73,1979.37 1875.5,1978C 1876.76,1977.02 1878.09,1976.68 1879.5,1977C 1877.51,1980.5 1875.18,1983.67 1872.5,1986.5 Z"/></g>
<g><path style="opacity:0.993" fill="#99490c" d="M 745.5,2050.5 C 740.915,2052.69 736.249,2054.69 731.5,2056.5C 707.907,2036.41 684.74,2015.75 662,1994.5C 657.722,1984.77 660.889,1980.93 671.5,1983C 673.5,1983.67 675.5,1984.33 677.5,1985C 703.918,2002.92 726.584,2024.75 745.5,2050.5 Z"/></g>
<g><path style="opacity:0.987" fill="#994a0d" d="M 392.5,1982.5 C 395.903,1983.93 399.57,1984.76 403.5,1985C 445.572,1988.79 487.572,1993.13 529.5,1998C 532.474,1999.51 532.807,2001.17 530.5,2003C 485.917,2004.41 441.25,2005.25 396.5,2005.5C 382.48,2005.45 368.48,2005.12 354.5,2004.5C 358.411,2000.87 362.744,1997.7 367.5,1995C 375.619,1990.27 383.952,1986.11 392.5,1982.5 Z"/></g>
<g><path style="opacity:0.943" fill="#dcbe8f" d="M 1778.5,1993.5 C 1777.5,1993.5 1776.5,1993.5 1775.5,1993.5C 1776.64,1990.17 1778.47,1987.17 1781,1984.5C 1781.33,1987.21 1780.99,1989.87 1780,1992.5C 1779.62,1993.06 1779.12,1993.39 1778.5,1993.5 Z"/></g>
<g><path style="opacity:0.989" fill="#9a4a0d" d="M 2667.5,1985.5 C 2670.31,1985.83 2672.98,1986.66 2675.5,1988C 2711.45,2009.62 2745.45,2033.95 2777.5,2061C 2780,2062.08 2782.33,2063.41 2784.5,2065C 2785.42,2068.44 2783.92,2070.28 2780,2070.5C 2753.84,2058 2728,2044.83 2702.5,2031C 2690.22,2024.28 2678.72,2016.45 2668,2007.5C 2662.51,2001.41 2661.51,1994.74 2665,1987.5C 2665.99,1986.93 2666.83,1986.27 2667.5,1985.5 Z"/></g>
<g><path style="opacity:0.78" fill="#f5eada" d="M 1329.5,1999.5 C 1327.92,1999 1327.42,1998 1328,1996.5C 1329.04,1997.24 1329.54,1998.24 1329.5,1999.5 Z"/></g>
<g><path style="opacity:0.949" fill="#78563b" d="M 2154.5,2001.5 C 2158.68,2001.19 2162.68,2001.86 2166.5,2003.5C 2165.63,2006.94 2164.47,2010.27 2163,2013.5C 2127.5,2045.67 2092,2077.83 2056.5,2110C 2053.88,2110.52 2052.55,2109.35 2052.5,2106.5C 2052.72,2105.06 2053.22,2103.73 2054,2102.5C 2072.67,2080.5 2091.33,2058.5 2110,2036.5C 2118.88,2027.65 2128.05,2019.15 2137.5,2011C 2142.94,2007.28 2148.6,2004.12 2154.5,2001.5 Z"/></g>
<g><path style="opacity:0.947" fill="#78563b" d="M 2415.5,2002.5 C 2427.63,2002.9 2439.63,2004.4 2451.5,2007C 2454.46,2008.96 2457.13,2011.29 2459.5,2014C 2456.77,2016.39 2453.77,2018.39 2450.5,2020C 2427.51,2021.02 2404.51,2021.85 2381.5,2022.5C 2349.19,2020.91 2316.86,2020.08 2284.5,2020C 2280.83,2019 2280.5,2017.33 2283.5,2015C 2327.57,2010.19 2371.57,2006.02 2415.5,2002.5 Z"/></g>
<g><path style="opacity:0.992" fill="#765338" d="M 755.5,2058.5 C 749.42,2059.1 743.753,2060.77 738.5,2063.5C 733.833,2063.5 731.5,2061.17 731.5,2056.5C 736.249,2054.69 740.915,2052.69 745.5,2050.5C 771.126,2038.52 797.126,2027.36 823.5,2017C 837.953,2012.72 852.62,2009.39 867.5,2007C 872.887,2006.22 878.22,2006.38 883.5,2007.5C 886.356,2010.62 887.189,2014.29 886,2018.5C 882.703,2021.57 878.869,2023.73 874.5,2025C 835.738,2039.53 796.072,2050.7 755.5,2058.5 Z"/></g>
<g><path style="opacity:0.98" fill="#9a4c0f" d="M 1944.5,2051.5 C 1947.95,2052.36 1951.29,2053.53 1954.5,2055C 1951.5,2057.5 1948.16,2059.5 1944.5,2061C 1911.91,2068.98 1879.24,2076.65 1846.5,2084C 1841.5,2084.67 1836.5,2084.67 1831.5,2084C 1826.27,2084.1 1822.6,2081.77 1820.5,2077C 1822.02,2072.73 1825.02,2070.06 1829.5,2069C 1858.74,2064.18 1888.07,2060.01 1917.5,2056.5C 1917.2,2058.6 1917.53,2060.6 1918.5,2062.5C 1926.89,2058.04 1935.56,2054.37 1944.5,2051.5 Z"/></g>
<g><path style="opacity:0.99" fill="#99490c" d="M 2164.5,2057.5 C 2188.46,2059.79 2211.79,2064.96 2234.5,2073C 2264.4,2085.95 2294.07,2099.45 2323.5,2113.5C 2327.07,2119.44 2325.4,2121.61 2318.5,2120C 2282.64,2112.12 2246.98,2103.45 2211.5,2094C 2193.3,2088.71 2175.63,2082.05 2158.5,2074C 2154.04,2070.86 2153.37,2067.02 2156.5,2062.5C 2158.93,2060.29 2161.59,2058.63 2164.5,2057.5 Z"/></g>
<g><path style="opacity:0.945" fill="#9e5217" d="M 755.5,2058.5 C 764.047,2070.56 773.214,2082.23 783,2093.5C 789.331,2102.69 787.498,2104.86 777.5,2100C 764.426,2087.82 751.426,2075.65 738.5,2063.5C 743.753,2060.77 749.42,2059.1 755.5,2058.5 Z"/></g>
<g><path style="opacity:0.957" fill="#77553a" d="M 1734.5,2071.5 C 1738.58,2072.54 1742.25,2074.54 1745.5,2077.5C 1743.35,2080.15 1741.02,2082.65 1738.5,2085C 1690.5,2110 1642.5,2135 1594.5,2160C 1591.27,2161.2 1587.94,2161.7 1584.5,2161.5C 1585.12,2157.77 1587.12,2154.94 1590.5,2153C 1619.23,2133.27 1648.23,2113.94 1677.5,2095C 1695.57,2084.7 1714.57,2076.87 1734.5,2071.5 Z"/></g>
<g><path style="opacity:0.955" fill="#9b4c10" d="M 963.5,2096.5 C 971.208,2096.36 978.875,2096.86 986.5,2098C 1003.17,2100.67 1019.83,2103.33 1036.5,2106C 1041.65,2106.91 1046.32,2108.91 1050.5,2112C 1048.61,2112.97 1046.61,2113.64 1044.5,2114C 1029.15,2114.75 1013.82,2114.59 998.5,2113.5C 982.32,2114.39 966.153,2115.39 950,2116.5C 942.054,2116.26 939.387,2112.59 942,2105.5C 948.397,2100.43 955.564,2097.43 963.5,2096.5 Z"/></g>
<g><path style="opacity:0.98" fill="#79583e" d="M 1884.5,2103.5 C 1892.78,2104.07 1900.78,2105.9 1908.5,2109C 1915.06,2114.08 1914.72,2118.08 1907.5,2121C 1893.85,2120.78 1880.18,2120.28 1866.5,2119.5C 1850.51,2120.49 1834.51,2120.66 1818.5,2120C 1813.46,2117.25 1813.96,2115.08 1820,2113.5C 1841.58,2109.76 1863.08,2106.43 1884.5,2103.5 Z"/></g>
<g><path style="opacity:0.987" fill="#98490c" d="M 1286.5,2163.5 C 1270.13,2162.55 1253.8,2161.22 1237.5,2159.5C 1229.23,2155.36 1220.89,2151.2 1212.5,2147C 1207.69,2144.69 1204.03,2141.19 1201.5,2136.5C 1205.08,2132.88 1209.41,2131.21 1214.5,2131.5C 1241.3,2136.24 1265.3,2146.91 1286.5,2163.5 Z"/></g>
<g><path style="opacity:0.986" fill="#79583e" d="M 898.5,2139.5 C 914.224,2139.06 929.891,2139.56 945.5,2141C 949.124,2143.16 950.291,2146.33 949,2150.5C 947.786,2152.05 946.286,2153.22 944.5,2154C 898.564,2157.63 852.564,2159.29 806.5,2159C 802.538,2157.79 801.871,2155.79 804.5,2153C 835.901,2147.97 867.234,2143.47 898.5,2139.5 Z"/></g>
<g><path style="opacity:0.982" fill="#745135" d="M 1237.5,2159.5 C 1253.8,2161.22 1270.13,2162.55 1286.5,2163.5C 1298.12,2164.27 1309.45,2166.44 1320.5,2170C 1321.43,2171.19 1322.1,2172.53 1322.5,2174C 1321.36,2176.63 1320.02,2179.13 1318.5,2181.5C 1308.58,2181.42 1298.91,2182.42 1289.5,2184.5C 1268.08,2184.89 1246.75,2183.72 1225.5,2181C 1189.41,2175.8 1153.41,2170.13 1117.5,2164C 1112.85,2162.76 1112.52,2161.1 1116.5,2159C 1156.84,2158.4 1197.17,2158.56 1237.5,2159.5 Z"/></g>
<g><path style="opacity:0.956" fill="#9d5217" d="M 1318.5,2181.5 C 1320.67,2184.5 1323.33,2187 1326.5,2189C 1342.83,2200 1359.17,2211 1375.5,2222C 1378.23,2224.13 1380.23,2226.8 1381.5,2230C 1376.46,2230.88 1371.79,2229.88 1367.5,2227C 1341.28,2213.06 1315.28,2198.89 1289.5,2184.5C 1298.91,2182.42 1308.58,2181.42 1318.5,2181.5 Z"/></g>
<g><path style="opacity:0.949" fill="#9b4d11" d="M 2103.5,2205.5 C 2124.28,2204.79 2144.95,2205.95 2165.5,2209C 2191.62,2212.35 2217.62,2216.35 2243.5,2221C 2245.17,2222.17 2246.83,2223.33 2248.5,2224.5C 2247.27,2225.28 2245.94,2225.78 2244.5,2226C 2228.84,2226.81 2213.18,2227.31 2197.5,2227.5C 2162.55,2225.2 2127.71,2223.54 2093,2222.5C 2085.99,2221.1 2083.66,2217.1 2086,2210.5C 2086.83,2209.67 2087.67,2208.83 2088.5,2208C 2093.66,2207.27 2098.66,2206.43 2103.5,2205.5 Z"/></g>
<g><path style="opacity:0.99" fill="#98490c" d="M 1820.5,2224.5 C 1845.23,2226.83 1870.06,2227.17 1895,2225.5C 1906.07,2227.62 1906.24,2230.46 1895.5,2234C 1843.99,2242.2 1792.33,2249.2 1740.5,2255C 1718.77,2255.72 1697.1,2255.06 1675.5,2253C 1671.22,2249.27 1670.38,2244.77 1673,2239.5C 1675.54,2237.65 1678.38,2236.48 1681.5,2236C 1728.01,2232.49 1774.35,2228.65 1820.5,2224.5 Z"/></g>
<g><path style="opacity:0.963" fill="#77553a" d="M 2116.5,2233.5 C 2129.9,2233.49 2143.23,2234.33 2156.5,2236C 2160.75,2239.38 2161.58,2243.54 2159,2248.5C 2158.25,2249.13 2157.42,2249.63 2156.5,2250C 2102.02,2256.73 2047.36,2259.73 1992.5,2259C 1988.55,2256.96 1988.55,2254.96 1992.5,2253C 2033.82,2245.5 2075.16,2239 2116.5,2233.5 Z"/></g>
<g><path style="opacity:0.991" fill="#994a0d" d="M 694.5,2240.5 C 715.982,2240.59 737.315,2242.43 758.5,2246C 790.549,2251.45 822.549,2257.12 854.5,2263C 856.146,2264.55 856.479,2266.22 855.5,2268C 793.61,2269.7 731.943,2266.7 670.5,2259C 669.069,2258.53 667.903,2257.7 667,2256.5C 666.333,2253.17 666.333,2249.83 667,2246.5C 668.8,2244.68 670.966,2243.52 673.5,2243C 680.669,2242.32 687.669,2241.49 694.5,2240.5 Z"/></g>
</svg>
