<?xml version="1.0" encoding="UTF-8"?>
<!DOCTYPE svg PUBLIC "-//W3C//DTD SVG 1.1//EN" "http://www.w3.org/Graphics/SVG/1.1/DTD/svg11.dtd">
<svg xmlns="http://www.w3.org/2000/svg" version="1.1" width="3000px" height="3000px" style="shape-rendering:geometricPrecision; text-rendering:geometricPrecision; image-rendering:optimizeQuality; fill-rule:evenodd; clip-rule:evenodd" xmlns:xlink="http://www.w3.org/1999/xlink">
<g><path style="opacity:0.998" fill="#af724c" d="M 2183.5,1563.5 C 2099.08,1390.88 1995.91,1230.88 1874,1083.5C 1839.63,1042.46 1802.47,1003.96 1762.5,968C 1698.45,914.659 1624.78,883.159 1541.5,873.5C 1510.94,793.051 1474.44,715.384 1432,640.5C 1399.81,585.122 1362.48,533.455 1320,485.5C 1227.61,389.885 1115.11,332.718 982.5,314C 912.506,303.815 842.84,305.482 773.5,319C 770.524,319.705 767.858,320.871 765.5,322.5C 674.827,330.127 597.827,366.127 534.5,430.5C 588.49,334.362 667.823,268.528 772.5,233C 864.991,204.025 959.658,191.025 1056.5,194C 1154.06,199.136 1245.06,226.136 1329.5,275C 1365.08,295.621 1398.75,318.954 1430.5,345C 1475.8,382.291 1518.63,422.457 1559,465.5C 1691.7,608.477 1811.03,761.477 1917,924.5C 1978.13,1019.74 2031.8,1119.4 2078,1223.5C 2123.53,1333.59 2158.7,1446.92 2183.5,1563.5 Z"/></g>
<g><path style="opacity:1" fill="#ae927f" d="M 1541.5,873.5 C 1422.93,862.921 1317.1,894.254 1224,967.5C 1223.51,966.207 1223.34,964.873 1223.5,963.5C 1236.72,889.081 1242.22,814.081 1240,738.5C 1237.41,668.234 1220.74,601.567 1190,538.5C 1152.5,469 1099,415.5 1029.5,378C 946.963,333.592 858.963,315.092 765.5,322.5C 767.858,320.871 770.524,319.705 773.5,319C 842.84,305.482 912.506,303.815 982.5,314C 1115.11,332.718 1227.61,389.885 1320,485.5C 1362.48,533.455 1399.81,585.122 1432,640.5C 1474.44,715.384 1510.94,793.051 1541.5,873.5 Z"/></g>
<g><path style="opacity:1" fill="#f47515" d="M 1223.5,963.5 C 1222.69,965.292 1222.19,967.292 1222,969.5C 1173.85,1008.08 1140.85,1057.08 1123,1116.5C 1105.65,1178.93 1101.65,1242.27 1111,1306.5C 1115.28,1334.42 1120.78,1362.09 1127.5,1389.5C 1108.13,1464.56 1075.63,1533.23 1030,1595.5C 1003.92,1630.08 973.42,1660.08 938.5,1685.5C 931.955,1673.41 926.788,1660.74 923,1647.5C 919.205,1644.2 915.038,1643.7 910.5,1646C 907.682,1649.34 906.849,1653.17 908,1657.5C 911.764,1671 916.597,1684 922.5,1696.5C 876.149,1726.01 825.483,1742.84 770.5,1747C 709.237,1752.7 649.57,1745.7 591.5,1726C 533.553,1703.39 490.053,1664.56 461,1609.5C 457.121,1601.74 453.287,1594.07 449.5,1586.5C 443.795,1573.75 438.628,1560.75 434,1547.5C 423.798,1515.89 413.798,1484.23 404,1452.5C 395.962,1411.86 390.628,1370.86 388,1329.5C 377.787,1178.32 379.954,1027.32 394.5,876.5C 413.836,876.667 433.17,876.5 452.5,876C 464.298,875.8 475.964,874.467 487.5,872C 511.013,865.607 534.346,858.607 557.5,851C 604.629,834.082 634.629,801.416 647.5,753C 647.693,750.992 647.026,749.492 645.5,748.5C 645.528,746.418 644.861,744.584 643.5,743C 634.94,737.553 625.94,732.886 616.5,729C 572.344,712.129 527.677,696.796 482.5,683C 478.074,682.209 473.741,682.543 469.5,684C 451.549,692.829 434.549,702.995 418.5,714.5C 431.312,645.569 451.478,578.902 479,514.5C 493.301,483.519 511.801,455.519 534.5,430.5C 597.827,366.127 674.827,330.127 765.5,322.5C 858.963,315.092 946.963,333.592 1029.5,378C 1099,415.5 1152.5,469 1190,538.5C 1220.74,601.567 1237.41,668.234 1240,738.5C 1242.22,814.081 1236.72,889.081 1223.5,963.5 Z"/></g>
<g><path style="opacity:1" fill="#201d1b" d="M 854.5,585.5 C 874.499,583.8 893.499,587.3 911.5,596C 939.613,616.655 949.78,644.155 942,678.5C 934.535,701.965 919.035,717.465 895.5,725C 861.009,734.502 832.176,725.669 809,698.5C 796.424,679.796 794.091,659.796 802,638.5C 811.737,612.93 829.237,595.264 854.5,585.5 Z"/></g>
<g><path style="opacity:0.999" fill="#72645d" d="M 645.5,748.5 C 616.327,759.711 586.661,770.544 556.5,781C 506.687,796.501 455.854,808.334 404,816.5C 403.127,816.265 402.293,815.931 401.5,815.5C 367.561,821.539 333.561,827.205 299.5,832.5C 298.5,832.5 297.5,832.5 296.5,832.5C 295.833,832.833 295.167,833.167 294.5,833.5C 278.135,834.946 261.802,834.779 245.5,833C 235.701,829.275 234.367,823.608 241.5,816C 247.997,810.915 254.997,806.582 262.5,803C 295.475,788.679 327.809,773.012 359.5,756C 379.323,742.336 398.99,728.503 418.5,714.5C 434.549,702.995 451.549,692.829 469.5,684C 473.741,682.543 478.074,682.209 482.5,683C 527.677,696.796 572.344,712.129 616.5,729C 625.94,732.886 634.94,737.553 643.5,743C 644.861,744.584 645.528,746.418 645.5,748.5 Z"/></g>
<g><path style="opacity:0.998" fill="#685c57" d="M 645.5,748.5 C 647.026,749.492 647.693,750.992 647.5,753C 634.629,801.416 604.629,834.082 557.5,851C 534.346,858.607 511.013,865.607 487.5,872C 475.964,874.467 464.298,875.8 452.5,876C 433.17,876.5 413.836,876.667 394.5,876.5C 354.916,874.775 315.582,870.608 276.5,864C 262.627,861.761 249.127,858.261 236,853.5C 235.219,852.056 235.386,850.723 236.5,849.5C 238.833,848.333 241.167,847.167 243.5,846C 260.501,841.333 277.501,837.166 294.5,833.5C 295.167,833.167 295.833,832.833 296.5,832.5C 297.5,833.833 298.5,833.833 299.5,832.5C 333.561,827.205 367.561,821.539 401.5,815.5C 402.293,815.931 403.127,816.265 404,816.5C 455.854,808.334 506.687,796.501 556.5,781C 586.661,770.544 616.327,759.711 645.5,748.5 Z"/></g>
<g><path style="opacity:1" fill="#a66c44" d="M 1541.5,873.5 C 1624.78,883.159 1698.45,914.659 1762.5,968C 1802.47,1003.96 1839.63,1042.46 1874,1083.5C 1995.91,1230.88 2099.08,1390.88 2183.5,1563.5C 2222.69,1643.12 2268.52,1718.45 2321,1789.5C 2353.05,1831.88 2384.72,1874.55 2416,1917.5C 2422.26,1926.52 2426.76,1936.35 2429.5,1947C 2428.92,1948.9 2428.26,1950.73 2427.5,1952.5C 2418.08,1957.72 2408.08,1958.89 2397.5,1956C 2378.14,1948.49 2359.8,1939.15 2342.5,1928C 2341.36,1927.25 2340.36,1927.42 2339.5,1928.5C 2365.09,1951.92 2390.26,1975.92 2415,2000.5C 2424.25,2010.42 2431.92,2021.42 2438,2033.5C 2439.68,2039.8 2437.85,2044.63 2432.5,2048C 2424.29,2050.94 2415.96,2051.28 2407.5,2049C 2395.51,2046 2383.85,2042 2372.5,2037C 2351.83,2027.67 2331.17,2018.33 2310.5,2009C 2305.33,2006.53 2300,2005.7 2294.5,2006.5C 2310.95,2018.57 2327.62,2030.4 2344.5,2042C 2351.76,2047.26 2357.59,2053.76 2362,2061.5C 2362.99,2069.19 2359.49,2073.36 2351.5,2074C 2341.83,2074.67 2332.17,2074.67 2322.5,2074C 2252.14,2061.5 2183.14,2044 2115.5,2021.5C 2115.17,2021.67 2114.83,2021.83 2114.5,2022C 2122.82,2026.91 2123.49,2032.58 2116.5,2039C 2094.45,2049.62 2071.45,2052.28 2047.5,2047C 2032.03,2043.43 2016.53,2039.93 2001,2036.5C 2000.24,2036.57 1999.74,2036.9 1999.5,2037.5C 1825.79,1985.88 1659.79,1916.05 1501.5,1828C 1454.15,1801 1408.15,1772 1363.5,1741C 1279.08,1676.65 1214.25,1596.48 1169,1500.5C 1152.3,1464.56 1138.47,1427.56 1127.5,1389.5C 1120.78,1362.09 1115.28,1334.42 1111,1306.5C 1101.65,1242.27 1105.65,1178.93 1123,1116.5C 1140.85,1057.08 1173.85,1008.08 1222,969.5C 1222.19,967.292 1222.69,965.292 1223.5,963.5C 1223.34,964.873 1223.51,966.207 1224,967.5C 1317.1,894.254 1422.93,862.921 1541.5,873.5 Z"/></g>
<g><path style="opacity:1" fill="#b77b52" d="M 1898.5,1347.5 C 1903.13,1346.7 1906.96,1348.03 1910,1351.5C 1983.13,1459.97 2060.13,1565.64 2141,1668.5C 2185.32,1725.17 2232.99,1779.17 2284,1830.5C 2285.6,1841.57 2281.1,1845.4 2270.5,1842C 2230.12,1801.63 2191.95,1759.46 2156,1715.5C 2063.78,1600.39 1976.45,1481.72 1894,1359.5C 1892.47,1354.24 1893.97,1350.24 1898.5,1347.5 Z"/></g>
<g><path style="opacity:0.999" fill="#e1a75c" d="M 1127.5,1389.5 C 1138.47,1427.56 1152.3,1464.56 1169,1500.5C 1214.25,1596.48 1279.08,1676.65 1363.5,1741C 1408.15,1772 1454.15,1801 1501.5,1828C 1659.79,1916.05 1825.79,1985.88 1999.5,2037.5C 2012.7,2044.93 2025.7,2052.6 2038.5,2060.5C 1950.5,2152.03 1844.5,2213.53 1720.5,2245C 1664.81,2259.24 1608.48,2270.07 1551.5,2277.5C 1553.74,2264.56 1555.58,2251.56 1557,2238.5C 1557.91,2227.44 1557.57,2216.44 1556,2205.5C 1554.1,2200.6 1550.6,2197.43 1545.5,2196C 1529.11,2193.46 1514.44,2197.46 1501.5,2208C 1491.47,2216.9 1486.47,2228.07 1486.5,2241.5C 1487.5,2254.84 1488.5,2268.18 1489.5,2281.5C 1489.46,2282.42 1489.12,2283.08 1488.5,2283.5C 1409.18,2290.09 1329.85,2290.09 1250.5,2283.5C 1231.68,2280.44 1212.68,2277.77 1193.5,2275.5C 1059.8,2257.62 936.133,2212.79 822.5,2141C 732.667,2080.5 657.5,2005.33 597,1915.5C 528.908,1814.62 479.741,1704.96 449.5,1586.5C 453.287,1594.07 457.121,1601.74 461,1609.5C 490.053,1664.56 533.553,1703.39 591.5,1726C 649.57,1745.7 709.237,1752.7 770.5,1747C 825.483,1742.84 876.149,1726.01 922.5,1696.5C 931.365,1708.56 940.531,1720.56 950,1732.5C 952.205,1735.04 954.705,1737.21 957.5,1739C 966.83,1740 970.663,1735.83 969,1726.5C 957.075,1714.08 946.908,1700.42 938.5,1685.5C 973.42,1660.08 1003.92,1630.08 1030,1595.5C 1075.63,1533.23 1108.13,1464.56 1127.5,1389.5 Z"/></g>
<g><path style="opacity:1" fill="#b77b52" d="M 1810.5,1464.5 C 1813.52,1464.34 1816.52,1464.5 1819.5,1465C 1952.28,1610.8 2094.12,1746.3 2245,1871.5C 2245.85,1879.98 2242.02,1883.82 2233.5,1883C 2189.33,1848.17 2146.33,1811.84 2104.5,1774C 2003.39,1681.56 1906.23,1585.06 1813,1484.5C 1811,1481.83 1809,1479.17 1807,1476.5C 1805.59,1471.64 1806.76,1467.64 1810.5,1464.5 Z"/></g>
<g><path style="opacity:1" fill="#b77b52" d="M 1696.5,1557.5 C 1699.65,1557.21 1702.65,1557.71 1705.5,1559C 1858.39,1705.94 2028.72,1828.61 2216.5,1927C 2219.8,1930.79 2220.3,1934.96 2218,1939.5C 2214.66,1942.32 2210.83,1943.15 2206.5,1942C 2018.3,1842.98 1847.47,1719.81 1694,1572.5C 1690.15,1566.62 1690.98,1561.62 1696.5,1557.5 Z"/></g>
<g><path style="opacity:1" fill="#f2ae67" d="M 729.5,1585.5 C 733.839,1584.85 737.673,1585.85 741,1588.5C 746.656,1619.8 759.322,1647.8 779,1672.5C 779.833,1681 776,1684.83 767.5,1684C 765.376,1682.88 763.543,1681.38 762,1679.5C 742.584,1654.49 730.084,1626.33 724.5,1595C 724.744,1591.01 726.41,1587.84 729.5,1585.5 Z"/></g>
<g><path style="opacity:1" fill="#f2ae67" d="M 588.5,1601.5 C 592.422,1601.07 595.922,1602.07 599,1604.5C 604.629,1635.75 617.295,1663.75 637,1688.5C 637.833,1697 634,1700.83 625.5,1700C 623.376,1698.88 621.543,1697.38 620,1695.5C 602.37,1672.57 590.37,1646.9 584,1618.5C 583.333,1614.17 583.333,1609.83 584,1605.5C 585.397,1603.93 586.897,1602.6 588.5,1601.5 Z"/></g>
<g><path style="opacity:1" fill="#b77b52" d="M 1577.5,1642.5 C 1580.19,1642.34 1582.85,1642.5 1585.5,1643C 1644.55,1695.39 1707.55,1742.39 1774.5,1784C 1899.95,1862.05 2033.29,1923.39 2174.5,1968C 2180.25,1974.14 2179.59,1979.47 2172.5,1984C 2170.17,1984.67 2167.83,1984.67 2165.5,1984C 1961.06,1919.14 1775.73,1820.48 1609.5,1688C 1598,1677.83 1586.5,1667.67 1575,1657.5C 1571.15,1651.62 1571.98,1646.62 1577.5,1642.5 Z"/></g>
<g><path style="opacity:1" fill="#f1ae68" d="M 938.5,1685.5 C 946.908,1700.42 957.075,1714.08 969,1726.5C 970.663,1735.83 966.83,1740 957.5,1739C 954.705,1737.21 952.205,1735.04 950,1732.5C 940.531,1720.56 931.365,1708.56 922.5,1696.5C 916.597,1684 911.764,1671 908,1657.5C 906.849,1653.17 907.682,1649.34 910.5,1646C 915.038,1643.7 919.205,1644.2 923,1647.5C 926.788,1660.74 931.955,1673.41 938.5,1685.5 Z"/></g>
<g><path style="opacity:1" fill="#f1ae68" d="M 839.5,1748.5 C 843.426,1748.05 846.592,1749.38 849,1752.5C 856.982,1781.81 871.649,1807.14 893,1828.5C 896.407,1833.13 896.241,1837.63 892.5,1842C 887.762,1844.37 883.429,1843.87 879.5,1840.5C 856.178,1817.03 840.511,1789.19 832.5,1757C 833.256,1752.75 835.589,1749.92 839.5,1748.5 Z"/></g>
<g><path style="opacity:1" fill="#f1ae68" d="M 602.5,1787.5 C 606.516,1786.9 610.016,1787.9 613,1790.5C 619.126,1811.42 628.459,1830.75 641,1848.5C 646.626,1855.79 652.626,1862.79 659,1869.5C 660.205,1881.48 655.372,1884.98 644.5,1880C 622.159,1857.16 606.659,1830.32 598,1799.5C 597.333,1797.17 597.333,1794.83 598,1792.5C 599.366,1790.64 600.866,1788.97 602.5,1787.5 Z"/></g>
<g><path style="opacity:1" fill="#f1ae68" d="M 757.5,1848.5 C 761.505,1848.56 765.005,1849.89 768,1852.5C 779.545,1881.05 797.545,1904.72 822,1923.5C 825.121,1933.72 821.287,1938.22 810.5,1937C 783.71,1916.56 764.21,1890.73 752,1859.5C 751.176,1854.48 753.009,1850.82 757.5,1848.5 Z"/></g>
<g><path style="opacity:1" fill="#f1ae68" d="M 1000.5,1849.5 C 1004.68,1849.17 1008.18,1850.5 1011,1853.5C 1023.33,1881.35 1041.83,1904.35 1066.5,1922.5C 1070.54,1930.42 1068.21,1935.08 1059.5,1936.5C 1057.37,1936.48 1055.37,1935.98 1053.5,1935C 1027.63,1915.47 1008.13,1890.97 995,1861.5C 993.873,1856.09 995.707,1852.09 1000.5,1849.5 Z"/></g>
<g><path style="opacity:0.996" fill="#7a4f37" d="M 2427.5,1952.5 C 2490.19,2014.69 2552.02,2077.69 2613,2141.5C 2644.04,2175.54 2674.7,2209.87 2705,2244.5C 2727.7,2270.91 2748.7,2298.58 2768,2327.5C 2772.43,2334.85 2775.59,2342.68 2777.5,2351C 2776.95,2355.21 2774.62,2357.88 2770.5,2359C 2761.13,2360.75 2752.13,2359.41 2743.5,2355C 2737.4,2351.44 2731.07,2348.77 2724.5,2347C 2732.54,2361.7 2741.37,2375.86 2751,2389.5C 2753.83,2394.31 2755.66,2399.48 2756.5,2405C 2754.96,2411.55 2750.96,2415.88 2744.5,2418C 2737.77,2418.83 2731.1,2418.5 2724.5,2417C 2712.16,2411.83 2699.82,2406.66 2687.5,2401.5C 2686.05,2402.17 2685.39,2403.34 2685.5,2405C 2686.57,2409.32 2688.07,2413.48 2690,2417.5C 2690.67,2420.5 2690.67,2423.5 2690,2426.5C 2689.1,2427.7 2687.93,2428.53 2686.5,2429C 2682.5,2429.67 2678.5,2429.67 2674.5,2429C 2647.06,2420.74 2620.73,2409.74 2595.5,2396C 2515.19,2352.19 2436.52,2305.85 2359.5,2257C 2255.25,2187.31 2148.25,2121.81 2038.5,2060.5C 2025.7,2052.6 2012.7,2044.93 1999.5,2037.5C 1999.74,2036.9 2000.24,2036.57 2001,2036.5C 2016.53,2039.93 2032.03,2043.43 2047.5,2047C 2071.45,2052.28 2094.45,2049.62 2116.5,2039C 2123.49,2032.58 2122.82,2026.91 2114.5,2022C 2114.83,2021.83 2115.17,2021.67 2115.5,2021.5C 2183.14,2044 2252.14,2061.5 2322.5,2074C 2332.17,2074.67 2341.83,2074.67 2351.5,2074C 2359.49,2073.36 2362.99,2069.19 2362,2061.5C 2357.59,2053.76 2351.76,2047.26 2344.5,2042C 2327.62,2030.4 2310.95,2018.57 2294.5,2006.5C 2300,2005.7 2305.33,2006.53 2310.5,2009C 2331.17,2018.33 2351.83,2027.67 2372.5,2037C 2383.85,2042 2395.51,2046 2407.5,2049C 2415.96,2051.28 2424.29,2050.94 2432.5,2048C 2437.85,2044.63 2439.68,2039.8 2438,2033.5C 2431.92,2021.42 2424.25,2010.42 2415,2000.5C 2390.26,1975.92 2365.09,1951.92 2339.5,1928.5C 2340.36,1927.42 2341.36,1927.25 2342.5,1928C 2359.8,1939.15 2378.14,1948.49 2397.5,1956C 2408.08,1958.89 2418.08,1957.72 2427.5,1952.5 Z"/></g>
<g><path style="opacity:1" fill="#f1ae68" d="M 702.5,1957.5 C 707.039,1956.96 710.873,1958.29 714,1961.5C 725.981,1989.82 743.981,2013.49 768,2032.5C 770.884,2041.95 767.384,2046.45 757.5,2046C 730.107,2025.94 710.274,2000.11 698,1968.5C 697.333,1966.83 697.333,1965.17 698,1963.5C 699.332,1961.34 700.832,1959.34 702.5,1957.5 Z"/></g>
<g><path style="opacity:1" fill="#f1ae68" d="M 993.5,2009.5 C 996.32,2009.25 998.986,2009.75 1001.5,2011C 1019.68,2035.59 1042.68,2054.26 1070.5,2067C 1077.39,2072.84 1077.06,2078.17 1069.5,2083C 1067.17,2083.67 1064.83,2083.67 1062.5,2083C 1032.66,2069.33 1008.16,2049.16 989,2022.5C 987.381,2016.97 988.881,2012.63 993.5,2009.5 Z"/></g>
<g><path style="opacity:1" fill="#f1ae68" d="M 850.5,2021.5 C 853.893,2021.06 856.893,2021.9 859.5,2024C 876.265,2049.6 898.265,2069.43 925.5,2083.5C 930.704,2091.21 928.871,2096.55 920,2099.5C 893.586,2087.1 871.252,2069.43 853,2046.5C 850.083,2042.33 847.416,2038 845,2033.5C 843.873,2028.09 845.707,2024.09 850.5,2021.5 Z"/></g>
<g><path style="opacity:1" fill="#a56b43" d="M 2435.5,2058.5 C 2438.32,2058.25 2440.99,2058.75 2443.5,2060C 2533.24,2131.06 2616.74,2209.22 2694,2294.5C 2696.89,2298.6 2697.22,2302.93 2695,2307.5C 2690.6,2311.15 2686.1,2311.32 2681.5,2308C 2648.3,2269.46 2612.96,2232.79 2575.5,2198C 2528.81,2154.3 2480.64,2112.47 2431,2072.5C 2428.21,2066.41 2429.71,2061.75 2435.5,2058.5 Z"/></g>
<g><path style="opacity:1" fill="#a56b43" d="M 2207.5,2081.5 C 2210.65,2081.21 2213.65,2081.71 2216.5,2083C 2303.7,2138.21 2388.7,2196.54 2471.5,2258C 2520.99,2291.91 2570.66,2325.58 2620.5,2359C 2627.09,2364.59 2627.09,2370.26 2620.5,2376C 2619.33,2376.17 2618.17,2376.33 2617,2376.5C 2614.01,2375.87 2611.17,2374.7 2608.5,2373C 2562.83,2342 2517.17,2311 2471.5,2280C 2384.76,2215.79 2295.76,2154.79 2204.5,2097C 2201.16,2090.85 2202.16,2085.69 2207.5,2081.5 Z"/></g>
<g><path style="opacity:1" fill="#a56b43" d="M 2365.5,2093.5 C 2368.65,2093.21 2371.65,2093.71 2374.5,2095C 2473.56,2166.7 2568.56,2243.7 2659.5,2326C 2666.03,2334.37 2664.2,2339.87 2654,2342.5C 2651.09,2342.27 2648.59,2341.1 2646.5,2339C 2555.98,2256.21 2461.14,2179.04 2362,2107.5C 2360.68,2104.59 2360.35,2101.59 2361,2098.5C 2362.71,2096.96 2364.21,2095.3 2365.5,2093.5 Z"/></g>
<g><path style="opacity:0.995" fill="#71645d" d="M 1551.5,2277.5 C 1547.62,2302.68 1540.79,2327.02 1531,2350.5C 1492.13,2432.56 1452.47,2514.23 1412,2595.5C 1393.83,2637.35 1375.66,2679.18 1357.5,2721C 1384.77,2714.21 1412.43,2709.21 1440.5,2706C 1472.67,2702.15 1504.67,2703.15 1536.5,2709C 1547.51,2715.38 1550.01,2724.21 1544,2735.5C 1540.15,2739.84 1535.32,2742.17 1529.5,2742.5C 1482.06,2736.16 1435.06,2738.66 1388.5,2750C 1333.44,2762.13 1280.1,2779.47 1228.5,2802C 1196.32,2816.57 1166.65,2834.91 1139.5,2857C 1131.1,2864.73 1123.43,2873.07 1116.5,2882C 1107.83,2888.12 1099.33,2887.95 1091,2881.5C 1084.74,2872.05 1085.4,2863.05 1093,2854.5C 1118.21,2826.82 1147.38,2804.32 1180.5,2787C 1148.97,2795.17 1119.64,2808.17 1092.5,2826C 1087.32,2831.52 1081.32,2835.86 1074.5,2839C 1062.13,2839.97 1055.13,2834.3 1053.5,2822C 1053.52,2818.62 1054.35,2815.45 1056,2812.5C 1064.27,2803.9 1073.44,2796.4 1083.5,2790C 1107.83,2775.77 1133.49,2764.44 1160.5,2756C 1121.96,2759.31 1084.46,2767.48 1048,2780.5C 1032.14,2776.78 1027.47,2767.44 1034,2752.5C 1035.87,2750.29 1038.04,2748.46 1040.5,2747C 1073.13,2734.76 1106.8,2726.76 1141.5,2723C 1197.06,2717.11 1252.73,2715.94 1308.5,2719.5C 1314.3,2701.93 1320.8,2684.6 1328,2667.5C 1346.67,2623.5 1365.33,2579.5 1384,2535.5C 1415.7,2468.77 1447.37,2402.11 1479,2335.5C 1486.81,2318.97 1489.98,2301.64 1488.5,2283.5C 1489.12,2283.08 1489.46,2282.42 1489.5,2281.5C 1488.5,2268.18 1487.5,2254.84 1486.5,2241.5C 1486.47,2228.07 1491.47,2216.9 1501.5,2208C 1514.44,2197.46 1529.11,2193.46 1545.5,2196C 1550.6,2197.43 1554.1,2200.6 1556,2205.5C 1557.57,2216.44 1557.91,2227.44 1557,2238.5C 1555.58,2251.56 1553.74,2264.56 1551.5,2277.5 Z"/></g>
<g><path style="opacity:0.994" fill="#71645d" d="M 1193.5,2275.5 C 1212.68,2277.77 1231.68,2280.44 1250.5,2283.5C 1218.45,2351.6 1185.28,2419.27 1151,2486.5C 1133.89,2526.91 1117.89,2567.24 1103,2607.5C 1152.14,2599.92 1200.64,2602.76 1248.5,2616C 1258.73,2622.75 1260.9,2631.58 1255,2642.5C 1251.66,2646.67 1247.33,2648.67 1242,2648.5C 1204.4,2638.7 1166.23,2635.54 1127.5,2639C 1070.24,2644.19 1014.24,2655.52 959.5,2673C 922.105,2685.53 887.772,2703.53 856.5,2727C 851.36,2731.23 846.694,2735.89 842.5,2741C 829.44,2747.39 820.94,2743.55 817,2729.5C 816.542,2726.44 816.876,2723.44 818,2720.5C 819.752,2717.33 821.752,2714.33 824,2711.5C 850.089,2687.53 879.589,2668.69 912.5,2655C 882.579,2659.31 854.246,2668.64 827.5,2683C 822.833,2686.33 818.167,2689.67 813.5,2693C 800.386,2695.4 793.052,2689.9 791.5,2676.5C 792.295,2670.08 795.295,2664.91 800.5,2661C 813.116,2651.86 826.783,2644.52 841.5,2639C 858.829,2632.42 876.495,2626.92 894.5,2622.5C 861.696,2621.42 829.363,2624.92 797.5,2633C 783.249,2633.75 776.749,2626.91 778,2612.5C 780.24,2605.26 785.074,2600.76 792.5,2599C 826.002,2590.88 860.002,2587.05 894.5,2587.5C 949.034,2588.21 1002.87,2594.55 1056,2606.5C 1076.68,2552.48 1099.01,2499.14 1123,2446.5C 1146.51,2389.48 1170.01,2332.48 1193.5,2275.5 Z"/></g>
</svg>
