<?xml version="1.0" encoding="UTF-8"?>
<!DOCTYPE svg PUBLIC "-//W3C//DTD SVG 1.1//EN" "http://www.w3.org/Graphics/SVG/1.1/DTD/svg11.dtd">
<svg xmlns="http://www.w3.org/2000/svg" version="1.1" width="3000px" height="3000px" style="shape-rendering:geometricPrecision; text-rendering:geometricPrecision; image-rendering:optimizeQuality; fill-rule:evenodd; clip-rule:evenodd" xmlns:xlink="http://www.w3.org/1999/xlink">
<g><path style="opacity:1" fill="#eab195" d="M 1453.5,214.5 C 1587.14,211.26 1714.47,237.76 1835.5,294C 2002.04,377.543 2120.54,505.71 2191,678.5C 2236.4,796.536 2259.73,918.869 2261,1045.5C 2265.31,1249.31 2211.98,1436.31 2101,1606.5C 2064.98,1661.53 2025.31,1713.86 1982,1763.5C 1957.04,1791.47 1931.7,1819.13 1906,1846.5C 1849.31,1904.53 1792.64,1962.53 1736,2020.5C 1722.33,2035.83 1708.67,2051.17 1695,2066.5C 1669.29,2096.55 1646.29,2128.55 1626,2162.5C 1610.53,2189.9 1599.2,2218.9 1592,2249.5C 1586.21,2313.86 1565.55,2372.86 1530,2426.5C 1488.34,2488.17 1437.17,2540.67 1376.5,2584C 1260.67,2667.87 1131.34,2717.87 988.5,2734C 912.719,2741.94 838.719,2733.94 766.5,2710C 728.372,2696.11 693.038,2677.27 660.5,2653.5C 659.333,2006.5 659.167,1359.5 660,712.5C 720.791,584.698 808.291,478.864 922.5,395C 1080.92,281.578 1257.92,221.412 1453.5,214.5 Z"/></g>
<g><path style="opacity:1" fill="#be685a" d="M 1584.5,525.5 C 1722.65,521.493 1831.81,575.16 1912,686.5C 1949.64,744.151 1973.64,807.151 1984,875.5C 1993.73,948.041 1992.4,1020.37 1980,1092.5C 1964.73,1026.43 1944.07,962.099 1918,899.5C 1899.91,856.614 1876.24,817.28 1847,781.5C 1798.78,726.477 1737.95,696.644 1664.5,692C 1626.48,689.72 1588.81,692.386 1551.5,700C 1524.29,705.844 1498.96,716.177 1475.5,731C 1443.2,753.436 1413.7,779.27 1387,808.5C 1349.68,850.84 1315.01,895.173 1283,941.5C 1245.03,996.971 1206.86,1052.3 1168.5,1107.5C 1272.56,1123.9 1352.73,1176.24 1409,1264.5C 1435.14,1305.59 1451.81,1350.26 1459,1398.5C 1463.47,1581.76 1388.64,1721.93 1234.5,1819C 1181.2,1850.54 1124.53,1873.88 1064.5,1889C 1142.53,1857.28 1208.36,1809.11 1262,1744.5C 1325.67,1660.27 1346.34,1566.27 1324,1462.5C 1313.54,1408.05 1288.37,1361.89 1248.5,1324C 1212.89,1294.37 1171.89,1277.04 1125.5,1272C 1105.19,1270.45 1084.86,1270.12 1064.5,1271C 1054.05,1271.56 1043.71,1272.89 1033.5,1275C 993.253,1318.44 946.587,1353.11 893.5,1379C 861,1393.12 827,1400.62 791.5,1401.5C 791.167,1306.83 791.5,1212.16 792.5,1117.5C 816.656,1111.06 839.323,1101.23 860.5,1088C 891.547,1067.63 920.88,1044.96 948.5,1020C 977.303,993.53 1005.14,966.03 1032,937.5C 1088.33,876.5 1144.67,815.5 1201,754.5C 1239.32,714.511 1279.15,676.344 1320.5,640C 1349.57,615.298 1380.57,593.298 1413.5,574C 1455.67,551.72 1500.34,537.054 1547.5,530C 1560.03,528.891 1572.37,527.391 1584.5,525.5 Z"/></g>
<g><path style="opacity:1" fill="#be685a" d="M 1282.5,2035.5 C 1245.1,2101.14 1200.93,2162.48 1150,2219.5C 1105.38,2268.82 1054.88,2310.65 998.5,2345C 934.504,2382.39 865.504,2403.55 791.5,2408.5C 791.167,2339.5 791.5,2270.5 792.5,2201.5C 826.595,2211.45 861.262,2213.95 896.5,2209C 956.941,2200.39 1014.94,2183.39 1070.5,2158C 1145.58,2123.99 1216.25,2083.15 1282.5,2035.5 Z"/></g>
</svg>
