<?xml version="1.0" encoding="UTF-8"?>
<!DOCTYPE svg PUBLIC "-//W3C//DTD SVG 1.1//EN" "http://www.w3.org/Graphics/SVG/1.1/DTD/svg11.dtd">
<svg xmlns="http://www.w3.org/2000/svg" version="1.1" width="3000px" height="3000px" style="shape-rendering:geometricPrecision; text-rendering:geometricPrecision; image-rendering:optimizeQuality; fill-rule:evenodd; clip-rule:evenodd" xmlns:xlink="http://www.w3.org/1999/xlink">
<g><path style="opacity:1" fill="#a56445" d="M 1446.5,862.5 C 1517.72,1174.7 1398.38,1368.2 1088.5,1443C 1039.66,1453.69 990.33,1461.36 940.5,1466C 900.136,1467.46 859.803,1469.46 819.5,1472C 799.836,1472.5 780.169,1472.67 760.5,1472.5C 682.602,1471.6 606.268,1460.43 531.5,1439C 328.081,1374.9 228.081,1235.4 231.5,1020.5C 231.686,899.016 259.853,784.682 316,677.5C 324.387,663.218 332.887,649.051 341.5,635C 307.064,634.309 274.731,625.975 244.5,610C 212.922,588.329 195.422,558.163 192,519.5C 188.454,474.631 200.787,434.964 229,400.5C 254.993,374.25 286.493,358.083 323.5,352C 364.687,345.141 402.687,352.808 437.5,375C 461.495,394.459 477.329,419.293 485,449.5C 486.725,458.864 488.558,468.197 490.5,477.5C 524.566,454.636 561.232,436.802 600.5,424C 659.505,406.131 719.505,392.465 780.5,383C 821.497,379.752 862.497,379.752 903.5,383C 954.735,387.539 1005.4,395.539 1055.5,407C 1104.58,419.383 1149.58,440.049 1190.5,469C 1191.45,469.483 1192.45,469.649 1193.5,469.5C 1212.13,409.228 1253.13,377.895 1316.5,375.5C 1354.07,376.413 1388.07,387.58 1418.5,409C 1450.75,435.002 1468.91,468.835 1473,510.5C 1477.47,591.329 1439.97,638.162 1360.5,651C 1367.4,661.571 1373.9,672.405 1380,683.5C 1390.45,704.341 1400.45,725.341 1410,746.5C 1418.92,769.594 1427.25,792.928 1435,816.5C 1439.96,831.552 1443.8,846.886 1446.5,862.5 Z"/></g>
<g><path style="opacity:1" fill="#fea283" d="M 344.5,445.5 C 370.971,442.137 392.805,450.47 410,470.5C 422.89,487.289 429.89,506.289 431,527.5C 408.788,549.032 388.121,571.699 369,595.5C 340.507,589.091 316.174,575.424 296,554.5C 285.177,539.624 281.177,522.957 284,504.5C 287.028,477.142 301.528,458.975 327.5,450C 333.276,448.419 338.942,446.919 344.5,445.5 Z"/></g>
<g><path style="opacity:1" fill="#fea283" d="M 1299.5,467.5 C 1322.57,465.388 1343.57,470.888 1362.5,484C 1372.43,492.368 1378.93,502.868 1382,515.5C 1389.32,555.04 1374.48,582.54 1337.5,598C 1333.96,599.02 1330.46,600.187 1327,601.5C 1303.59,571.079 1277.59,542.746 1249,516.5C 1248.33,514.833 1248.33,513.167 1249,511.5C 1259.56,489.424 1276.4,474.757 1299.5,467.5 Z"/></g>
<g><path style="opacity:0.999" fill="#8d4f37" d="M 2131.5,2514.5 C 2159.73,2471.74 2189.23,2429.74 2220,2388.5C 2227.42,2376.66 2235.08,2365 2243,2353.5C 2246.06,2347.67 2248.72,2341.67 2251,2335.5C 2257.28,2303.8 2259.28,2271.8 2257,2239.5C 2256.05,2224.16 2255.05,2208.83 2254,2193.5C 2244.02,2120.3 2231.02,2047.63 2215,1975.5C 2212.54,1973.68 2209.71,1973.01 2206.5,1973.5C 2209.62,1972.52 2212.96,1972.19 2216.5,1972.5C 2216.37,1924.69 2210.2,1877.69 2198,1831.5C 2190.05,1801.93 2177.05,1774.93 2159,1750.5C 2145.49,1734.14 2128.65,1722.31 2108.5,1715C 2067.27,1701.29 2024.94,1693.29 1981.5,1691C 1906.47,1685.91 1833.47,1695.58 1762.5,1720C 1629.68,1772.41 1557.68,1870.25 1546.5,2013.5C 1539.22,2045.73 1531.05,2077.73 1522,2109.5C 1508.96,2153.25 1495.63,2196.92 1482,2240.5C 1456.61,2320.98 1416.94,2393.31 1363,2457.5C 1286,2544.73 1190.83,2602.9 1077.5,2632C 1042.58,2639.65 1007.25,2644.15 971.5,2645.5C 952.347,2645.24 933.347,2643.41 914.5,2640C 901.169,2636.79 888.835,2631.45 877.5,2624C 869.494,2616.68 865.328,2607.51 865,2596.5C 863.191,2573.55 867.524,2551.88 878,2531.5C 885.273,2518.61 892.773,2505.94 900.5,2493.5C 934.47,2449.35 968.303,2405.02 1002,2360.5C 1010.53,2348.8 1016.53,2335.8 1020,2321.5C 1026.84,2284.48 1029.18,2247.15 1027,2209.5C 1021.08,2124.16 1010.42,2039.5 995,1955.5C 991.667,1944.17 988.334,1932.84 985,1921.5C 977.049,1880.36 970.382,1839.03 965,1797.5C 955.384,1757.09 945.384,1716.76 935,1676.5C 931.156,1658.61 927.822,1640.61 925,1622.5C 923.056,1618.89 920.723,1615.56 918,1612.5C 909.779,1604.28 901.613,1596.11 893.5,1588C 863.025,1562.36 832.692,1536.53 802.5,1510.5C 787.635,1498.75 773.635,1486.08 760.5,1472.5C 780.169,1472.67 799.836,1472.5 819.5,1472C 859.803,1469.46 900.136,1467.46 940.5,1466C 990.33,1461.36 1039.66,1453.69 1088.5,1443C 1398.38,1368.2 1517.72,1174.7 1446.5,862.5C 1546.75,803.213 1652.75,756.713 1764.5,723C 1856.29,696.602 1949.96,685.268 2045.5,689C 2178.91,695.03 2300.74,734.53 2411,807.5C 2422.04,780.887 2437.87,757.72 2458.5,738C 2492.78,710.443 2531.45,702.443 2574.5,714C 2637.37,732.338 2686.2,769.171 2721,824.5C 2746.5,872.357 2746.84,920.357 2722,968.5C 2711.05,986.779 2697.89,1003.28 2682.5,1018C 2673.82,1025.34 2665.15,1032.67 2656.5,1040C 2663.05,1049.6 2669.21,1059.43 2675,1069.5C 2692.46,1103.33 2708.13,1138 2722,1173.5C 2774.76,1320.73 2802.76,1472.73 2806,1629.5C 2809.52,1748.88 2800.19,1867.21 2778,1984.5C 2759.01,2080.47 2735.01,2175.14 2706,2268.5C 2669.47,2372.37 2608.63,2459.2 2523.5,2529C 2440.89,2593.79 2347.22,2633.12 2242.5,2647C 2221.19,2648.53 2199.86,2648.86 2178.5,2648C 2158.98,2646.49 2140.65,2641.16 2123.5,2632C 2115.1,2624.37 2109.93,2614.87 2108,2603.5C 2106.91,2590.72 2107.58,2578.06 2110,2565.5C 2112.21,2559.21 2114.21,2552.88 2116,2546.5C 2121.08,2535.77 2126.24,2525.1 2131.5,2514.5 Z"/></g>
<g><path style="opacity:1" fill="#31302f" d="M 595.5,798.5 C 595.629,791.155 595.962,783.822 596.5,776.5C 603.553,743.972 621.886,735.139 651.5,750C 663.492,759.11 668.825,771.277 667.5,786.5C 667.541,805.556 661.208,822.056 648.5,836C 633.502,845.862 619.669,844.362 607,831.5C 599.893,821.679 596.059,810.679 595.5,798.5 Z"/></g>
<g><path style="opacity:1" fill="#32302f" d="M 1063.5,760.5 C 1081.09,759.532 1092.92,767.198 1099,783.5C 1105.07,806.451 1102.07,828.118 1090,848.5C 1078.36,863.609 1063.86,867.442 1046.5,860C 1037.79,852.777 1031.96,843.611 1029,832.5C 1026.15,819.231 1025.82,805.898 1028,792.5C 1033.12,774.204 1044.96,763.537 1063.5,760.5 Z"/></g>
<g><path style="opacity:1" fill="#674838" d="M 596.5,776.5 C 595.962,783.822 595.629,791.155 595.5,798.5C 594.836,795.854 594.502,793.021 594.5,790C 594.366,785.242 595.032,780.742 596.5,776.5 Z"/></g>
<g><path style="opacity:1" fill="#e7b79b" d="M 806.5,868.5 C 873.582,864.785 929.082,888.118 973,938.5C 1004.4,977.63 1027.74,1021.3 1043,1069.5C 1054.65,1104.77 1061.48,1140.93 1063.5,1178C 1065.85,1189.29 1062.52,1198.29 1053.5,1205C 1040.81,1212.01 1027.47,1217.68 1013.5,1222C 968.235,1233.38 922.235,1239.72 875.5,1241C 833.349,1242.76 791.349,1241.1 749.5,1236C 719.238,1231.8 689.905,1224.13 661.5,1213C 648.532,1207.19 636.532,1199.85 625.5,1191C 609.323,1176.64 600.989,1158.64 600.5,1137C 600.819,1130.49 601.319,1123.99 602,1117.5C 621.486,1041.67 658.652,976.166 713.5,921C 732.537,902.961 753.537,887.627 776.5,875C 786.407,871.855 796.407,869.688 806.5,868.5 Z"/></g>
<g><path style="opacity:1" fill="#fea283" d="M 493.5,901.5 C 519.826,900.662 544.826,905.829 568.5,917C 593.702,933.735 598.535,955.235 583,981.5C 580.608,984.228 578.608,987.228 577,990.5C 564.888,1003.14 550.055,1010.3 532.5,1012C 504.73,1015.65 477.73,1012.65 451.5,1003C 437.044,997.201 424.877,988.368 415,976.5C 405.423,954.974 409.923,936.807 428.5,922C 448.211,908.829 469.877,901.995 493.5,901.5 Z"/></g>
<g><path style="opacity:1" fill="#fea283" d="M 1176.5,926.5 C 1204,924.714 1230,929.88 1254.5,942C 1277.34,955.807 1288.5,975.974 1288,1002.5C 1284.12,1017.03 1276.28,1028.86 1264.5,1038C 1227.46,1063.08 1187.46,1069.41 1144.5,1057C 1133.9,1052.4 1125.07,1045.57 1118,1036.5C 1081.54,985.59 1093.04,950.423 1152.5,931C 1160.64,929.491 1168.64,927.991 1176.5,926.5 Z"/></g>
<g><path style="opacity:1" fill="#32302f" d="M 838.5,1088.5 C 838.5,1106.17 838.5,1123.83 838.5,1141.5C 839.791,1141.74 840.791,1141.4 841.5,1140.5C 856.648,1136.16 868.481,1127.5 877,1114.5C 880.137,1105.42 883.47,1096.42 887,1087.5C 888.264,1085.39 890.097,1084.39 892.5,1084.5C 891.777,1096.51 889.277,1108.18 885,1119.5C 872.479,1146.52 851.313,1158.02 821.5,1154C 793.069,1147.56 777.236,1129.73 774,1100.5C 773.333,1096.83 773.333,1093.17 774,1089.5C 775.011,1088.66 776.178,1088.33 777.5,1088.5C 781.794,1103.42 788.961,1116.76 799,1128.5C 806.828,1136.5 816.328,1140.83 827.5,1141.5C 829.018,1133.58 829.685,1125.58 829.5,1117.5C 830.497,1096.67 830.831,1075.67 830.5,1054.5C 825.167,1054.5 819.833,1054.5 814.5,1054.5C 786.2,1053.35 766.033,1040.02 754,1014.5C 744.359,992.793 740.859,970.126 743.5,946.5C 793.568,922.691 844.568,920.525 896.5,940C 902.135,943.153 907.801,946.319 913.5,949.5C 916.256,955.859 917.756,962.525 918,969.5C 922.165,991.975 917.498,1012.31 904,1030.5C 892.26,1043.12 877.76,1050.62 860.5,1053C 853.192,1054.1 845.858,1054.94 838.5,1055.5C 838.5,1066.5 838.5,1077.5 838.5,1088.5 Z"/></g>
<g><path style="opacity:1" fill="#b9957f" d="M 814.5,1054.5 C 819.833,1054.5 825.167,1054.5 830.5,1054.5C 830.831,1075.67 830.497,1096.67 829.5,1117.5C 829.5,1096.83 829.5,1076.17 829.5,1055.5C 824.305,1055.82 819.305,1055.49 814.5,1054.5 Z"/></g>
<g><path style="opacity:1" fill="#7f6a5d" d="M 838.5,1088.5 C 838.838,1106.02 839.838,1123.36 841.5,1140.5C 840.791,1141.4 839.791,1141.74 838.5,1141.5C 838.5,1123.83 838.5,1106.17 838.5,1088.5 Z"/></g>
<g><path style="opacity:0.997" fill="#663423" d="M 802.5,1510.5 C 832.692,1536.53 863.025,1562.36 893.5,1588C 901.613,1596.11 909.779,1604.28 918,1612.5C 920.723,1615.56 923.056,1618.89 925,1622.5C 927.822,1640.61 931.156,1658.61 935,1676.5C 945.384,1716.76 955.384,1757.09 965,1797.5C 970.382,1839.03 977.049,1880.36 985,1921.5C 988.334,1932.84 991.667,1944.17 995,1955.5C 1010.42,2039.5 1021.08,2124.16 1027,2209.5C 1029.18,2247.15 1026.84,2284.48 1020,2321.5C 1016.53,2335.8 1010.53,2348.8 1002,2360.5C 968.303,2405.02 934.47,2449.35 900.5,2493.5C 894.78,2494.6 888.78,2496.1 882.5,2498C 854.122,2504.07 825.456,2508.4 796.5,2511C 753.712,2514.75 712.045,2509.75 671.5,2496C 638.665,2482.16 615.498,2458.66 602,2425.5C 595.899,2404.2 598.233,2383.87 609,2364.5C 619.649,2347.63 631.982,2331.96 646,2317.5C 681.417,2285.15 717.583,2253.31 754.5,2222C 771.194,2206.39 787.36,2190.23 803,2173.5C 807.594,2167.23 812.594,2161.23 818,2155.5C 834.094,2134.31 845.094,2110.64 851,2084.5C 858.26,2050.91 861.927,2016.91 862,1982.5C 862.332,1945.14 861.332,1907.8 859,1870.5C 853.337,1806.53 845.337,1742.86 835,1679.5C 825.145,1622.94 814.311,1566.61 802.5,1510.5 Z"/></g>
<g><path style="opacity:1" fill="#e7b79b" d="M 2206.5,1973.5 C 2142.41,1982.88 2078.07,1990.21 2013.5,1995.5C 2007.27,1995.39 2001.27,1996.05 1995.5,1997.5C 1967.31,1999.27 1939.31,2001.6 1911.5,2004.5C 1789.93,2011.17 1668.26,2014.17 1546.5,2013.5C 1557.68,1870.25 1629.68,1772.41 1762.5,1720C 1833.47,1695.58 1906.47,1685.91 1981.5,1691C 2024.94,1693.29 2067.27,1701.29 2108.5,1715C 2128.65,1722.31 2145.49,1734.14 2159,1750.5C 2177.05,1774.93 2190.05,1801.93 2198,1831.5C 2210.2,1877.69 2216.37,1924.69 2216.5,1972.5C 2212.96,1972.19 2209.62,1972.52 2206.5,1973.5 Z"/></g>
<g><path style="opacity:0.998" fill="#663524" d="M 2206.5,1973.5 C 2209.71,1973.01 2212.54,1973.68 2215,1975.5C 2231.02,2047.63 2244.02,2120.3 2254,2193.5C 2255.05,2208.83 2256.05,2224.16 2257,2239.5C 2259.28,2271.8 2257.28,2303.8 2251,2335.5C 2248.72,2341.67 2246.06,2347.67 2243,2353.5C 2235.08,2365 2227.42,2376.66 2220,2388.5C 2189.23,2429.74 2159.73,2471.74 2131.5,2514.5C 2119.94,2517.11 2108.27,2519.28 2096.5,2521C 2045.36,2526.44 1994.36,2525.44 1943.5,2518C 1925.18,2514.92 1907.18,2510.59 1889.5,2505C 1864.24,2496.96 1842.4,2483.46 1824,2464.5C 1816.36,2454.52 1812.53,2443.18 1812.5,2430.5C 1813.14,2414.69 1816.97,2399.69 1824,2385.5C 1843.69,2346.51 1874.86,2321.34 1917.5,2310C 1930.12,2307.51 1942.79,2305.34 1955.5,2303.5C 1963.77,2293.22 1969.27,2281.56 1972,2268.5C 1973.58,2251.54 1973.91,2234.54 1973,2217.5C 1967.5,2181.48 1959.16,2146.15 1948,2111.5C 1935.82,2075.81 1923.65,2040.14 1911.5,2004.5C 1939.31,2001.6 1967.31,1999.27 1995.5,1997.5C 2001.74,1997.72 2007.74,1997.06 2013.5,1995.5C 2078.07,1990.21 2142.41,1982.88 2206.5,1973.5 Z"/></g>
<g><path style="opacity:1" fill="#a2705a" d="M 2013.5,1995.5 C 2007.74,1997.06 2001.74,1997.72 1995.5,1997.5C 2001.27,1996.05 2007.27,1995.39 2013.5,1995.5 Z"/></g>
</svg>
