<?xml version="1.0" encoding="UTF-8"?>
<!DOCTYPE svg PUBLIC "-//W3C//DTD SVG 1.1//EN" "http://www.w3.org/Graphics/SVG/1.1/DTD/svg11.dtd">
<svg xmlns="http://www.w3.org/2000/svg" version="1.1" width="3000px" height="3000px" style="shape-rendering:geometricPrecision; text-rendering:geometricPrecision; image-rendering:optimizeQuality; fill-rule:evenodd; clip-rule:evenodd" xmlns:xlink="http://www.w3.org/1999/xlink">
<g><path style="opacity:1" fill="#ed9f5f" d="M 1973.5,500.5 C 1973.57,500.938 1973.4,501.272 1973,501.5C 1971.33,499.833 1969.67,498.167 1968,496.5C 1967.33,497.5 1967.33,498.5 1968,499.5C 2090.49,726.312 2165.49,967.979 2193,1224.5C 2208.58,1386.8 2200.24,1547.8 2168,1707.5C 2142.96,1824.89 2100.63,1935.56 2041,2039.5C 1944.97,2201.86 1810.47,2320.7 1637.5,2396C 1490.44,2454.82 1338.11,2475.49 1180.5,2458C 994.157,2436.72 832.324,2363.22 695,2237.5C 694.536,2238.09 694.369,2238.76 694.5,2239.5C 650.072,2139.15 619.905,2034.48 604,1925.5C 575.089,1725.92 582.089,1527.58 625,1330.5C 681.562,1069.6 786.229,830.597 939,613.5C 993.227,538.914 1054.39,470.081 1122.5,407C 1168.2,366.299 1217.53,330.633 1270.5,300C 1318.84,272.776 1370.17,253.443 1424.5,242C 1502.87,227.799 1579.21,235.132 1653.5,264C 1708.77,285.294 1760.11,313.294 1807.5,348C 1867.99,392.975 1923.32,443.809 1973.5,500.5 Z"/></g>
<g><path style="opacity:1" fill="#f0b076" d="M 1458.5,353.5 C 1486.18,350.831 1512.84,354.664 1538.5,365C 1560.94,377.347 1576.77,395.514 1586,419.5C 1596.13,445.173 1598.13,471.506 1592,498.5C 1590.59,506.223 1588.92,513.89 1587,521.5C 1572.36,566.739 1558.02,612.073 1544,657.5C 1512.85,773.664 1501.68,891.831 1510.5,1012C 1509.9,1079.14 1489.73,1139.64 1450,1193.5C 1409.54,1246.3 1360.71,1289.47 1303.5,1323C 1214.04,1375.86 1117.38,1401.53 1013.5,1400C 952.846,1392.97 907.346,1363.14 877,1310.5C 857.345,1272.53 846.011,1232.2 843,1189.5C 838.817,1134.48 843.15,1080.15 856,1026.5C 879.412,931.687 917.079,843.021 969,760.5C 1030.51,661.276 1105.01,572.443 1192.5,494C 1240.19,452.011 1292.52,416.678 1349.5,388C 1384.2,370.933 1420.53,359.433 1458.5,353.5 Z"/></g>
<g><path style="opacity:1" fill="#d78f56" d="M 1973.5,500.5 C 2058.65,597.884 2131.15,704.217 2191,819.5C 2311.54,1050.47 2383.54,1295.8 2407,1555.5C 2419.26,1706.79 2410.26,1856.79 2380,2005.5C 2352.35,2139.86 2301.68,2264.53 2228,2379.5C 2081.52,2597 1877.35,2723.17 1615.5,2758C 1456.74,2777.18 1303.08,2757.51 1154.5,2699C 1001.05,2634.22 876.886,2533.39 782,2396.5C 748.217,2346.95 719.05,2294.62 694.5,2239.5C 694.369,2238.76 694.536,2238.09 695,2237.5C 832.324,2363.22 994.157,2436.72 1180.5,2458C 1338.11,2475.49 1490.44,2454.82 1637.5,2396C 1810.47,2320.7 1944.97,2201.86 2041,2039.5C 2100.63,1935.56 2142.96,1824.89 2168,1707.5C 2200.24,1547.8 2208.58,1386.8 2193,1224.5C 2165.49,967.979 2090.49,726.312 1968,499.5C 1967.33,498.5 1967.33,497.5 1968,496.5C 1969.67,498.167 1971.33,499.833 1973,501.5C 1973.4,501.272 1973.57,500.938 1973.5,500.5 Z"/></g>
</svg>
