<?xml version="1.0" encoding="UTF-8"?>
<!DOCTYPE svg PUBLIC "-//W3C//DTD SVG 1.1//EN" "http://www.w3.org/Graphics/SVG/1.1/DTD/svg11.dtd">
<svg xmlns="http://www.w3.org/2000/svg" version="1.1" width="3000px" height="3000px" style="shape-rendering:geometricPrecision; text-rendering:geometricPrecision; image-rendering:optimizeQuality; fill-rule:evenodd; clip-rule:evenodd" xmlns:xlink="http://www.w3.org/1999/xlink">
<g><path style="opacity:0.989" fill="#86c47c" d="M 1516.5,411.5 C 1508.76,407.326 1500.59,404.993 1492,404.5C 1486.02,405.385 1480.35,407.051 1475,409.5C 1474.44,408.978 1473.77,408.645 1473,408.5C 1470.21,410.17 1467.38,411.503 1464.5,412.5C 1464.17,412.5 1463.83,412.5 1463.5,412.5C 1464.59,397.855 1465.42,383.188 1466,368.5C 1466.9,315.438 1468.23,262.438 1470,209.5C 1470.89,201.549 1474.06,194.716 1479.5,189C 1483.5,187 1487.5,187 1491.5,189C 1501.78,196.894 1506.95,207.394 1507,220.5C 1508.33,223.167 1509.67,225.833 1511,228.5C 1512.55,246.149 1513.89,263.816 1515,281.5C 1515.46,324.835 1515.96,368.168 1516.5,411.5 Z"/></g>
<g><path style="opacity:1" fill="#a1d898" d="M 1463.5,412.5 C 1463.83,412.5 1464.17,412.5 1464.5,412.5C 1464.5,413.5 1464.5,414.5 1464.5,415.5C 1479.09,413.272 1493.42,414.272 1507.5,418.5C 1510.18,418.064 1512.85,417.564 1515.5,417C 1516.08,415.698 1516.75,414.531 1517.5,413.5C 1565.66,414.588 1613.99,414.754 1662.5,414C 1694.04,413.676 1725.38,411.01 1756.5,406C 1820.17,400.501 1868.5,424.667 1901.5,478.5C 1900.84,480.487 1899.67,482.154 1898,483.5C 1897.33,485.167 1897.33,486.833 1898,488.5C 1903.31,493.479 1908.31,498.813 1913,504.5C 1914.14,508.243 1915.47,511.91 1917,515.5C 1936.66,544.199 1954.33,574.199 1970,605.5C 1977.78,625.066 1986.12,644.399 1995,663.5C 2004.24,688.877 2012.58,714.543 2020,740.5C 2021.67,743.5 2023.33,746.5 2025,749.5C 2031.38,776.637 2039.38,803.303 2049,829.5C 2050.68,840.581 2052.34,851.581 2054,862.5C 2055.99,866.48 2058.49,870.146 2061.5,873.5C 2060.94,874.939 2060.6,876.439 2060.5,878C 2062.37,885.079 2063.87,892.246 2065,899.5C 2066.41,903.985 2068.57,907.985 2071.5,911.5C 2069.65,915.568 2070.32,919.068 2073.5,922C 2072.21,922.49 2070.87,922.657 2069.5,922.5C 2069.24,925.565 2070.24,928.065 2072.5,930C 2071.22,932.79 2072.05,934.957 2075,936.5C 2077.94,940.449 2078.11,944.449 2075.5,948.5C 2078.14,959.133 2080.31,969.8 2082,980.5C 2084.18,981.67 2086.35,982.836 2088.5,984C 2086.36,987.126 2084.7,990.459 2083.5,994C 2084.28,998.287 2085.45,1002.45 2087,1006.5C 2087.05,1012.31 2087.88,1017.98 2089.5,1023.5C 2088.87,1024.42 2088.54,1025.42 2088.5,1026.5C 2077.13,1022.6 2065.46,1019.77 2053.5,1018C 2019.35,1011.47 1985.01,1006.14 1950.5,1002C 1941.65,1001.34 1932.82,1001.51 1924,1002.5C 1912.25,1000.74 1900.58,999.072 1889,997.5C 1871.5,998.187 1854,998.521 1836.5,998.5C 1825.02,996.075 1813.52,994.742 1802,994.5C 1797.24,995.045 1792.91,996.712 1789,999.5C 1787.51,998.683 1786.01,997.85 1784.5,997C 1775.17,996.333 1765.83,996.333 1756.5,997C 1753.61,998.029 1750.78,999.195 1748,1000.5C 1745.74,999.618 1743.57,998.618 1741.5,997.5C 1739.3,997.848 1737.47,998.848 1736,1000.5C 1735.82,998.512 1735.99,996.512 1736.5,994.5C 1734.17,994.5 1731.83,994.5 1729.5,994.5C 1729.28,999.629 1728.61,999.629 1727.5,994.5C 1724.32,996.13 1720.99,997.63 1717.5,999C 1715.53,999.495 1713.53,999.662 1711.5,999.5C 1711.5,998.167 1711.5,996.833 1711.5,995.5C 1702.29,995.857 1693.12,995.857 1684,995.5C 1680.54,996.218 1677.04,996.718 1673.5,997C 1672.37,999.428 1670.87,1001.59 1669,1003.5C 1665.89,998.708 1661.56,996.041 1656,995.5C 1644.75,996.226 1633.58,996.226 1622.5,995.5C 1618.26,996.189 1614.1,997.189 1610,998.5C 1608,997.833 1606,997.167 1604,996.5C 1594.52,997.268 1585.02,997.768 1575.5,998C 1573,998.375 1570.67,999.208 1568.5,1000.5C 1567.5,1000.17 1566.83,999.5 1566.5,998.5C 1550.66,997.795 1534.83,998.128 1519,999.5C 1511.44,996.886 1506.94,999.553 1505.5,1007.5C 1504.83,1007.17 1504.17,1006.83 1503.5,1006.5C 1503.68,1004.06 1503.02,1001.9 1501.5,1000C 1494.06,999.718 1486.73,1000.55 1479.5,1002.5C 1475.16,1001.45 1470.83,1000.28 1466.5,999C 1428.79,998.03 1391.12,998.863 1353.5,1001.5C 1346.51,1001 1339.51,1000.67 1332.5,1000.5C 1305.53,1002.02 1278.53,1002.85 1251.5,1003C 1248.37,1003.76 1245.21,1004.26 1242,1004.5C 1226.16,1003.22 1210.32,1003.39 1194.5,1005C 1193.67,1005.91 1192.67,1006.58 1191.5,1007C 1179.81,1007.21 1168.14,1007.71 1156.5,1008.5C 1154.76,1007.6 1152.93,1006.93 1151,1006.5C 1133.21,1009.14 1115.37,1011.47 1097.5,1013.5C 1089.54,1011.84 1081.7,1012.18 1074,1014.5C 1068.87,1012.24 1063.71,1012.07 1058.5,1014C 1055.97,1016.03 1053.3,1017.86 1050.5,1019.5C 1049.65,1018.48 1048.65,1017.64 1047.5,1017C 1038.47,1016.39 1029.47,1016.73 1020.5,1018C 1016.94,1019.7 1013.44,1021.53 1010,1023.5C 1006.75,1020.08 1003.25,1019.75 999.5,1022.5C 998.702,1022.04 998.369,1021.38 998.5,1020.5C 999.404,1019.79 999.737,1018.79 999.5,1017.5C 996.941,1017.2 994.607,1017.53 992.5,1018.5C 991.71,1019.61 991.21,1020.94 991,1022.5C 990.417,1021 989.584,1019.67 988.5,1018.5C 986.321,1019.76 984.321,1021.26 982.5,1023C 979.883,1023.82 977.216,1024.32 974.5,1024.5C 974.5,1023.17 974.5,1021.83 974.5,1020.5C 961.81,1021.67 949.144,1022.51 936.5,1023C 934.858,1025.79 933.358,1028.62 932,1031.5C 929.5,1029 927,1026.5 924.5,1024C 911.923,1024.67 899.423,1024.5 887,1023.5C 882.247,1024.54 877.581,1025.88 873,1027.5C 871.566,1027.07 870.399,1026.24 869.5,1025C 868.207,1024.51 866.873,1024.34 865.5,1024.5C 880.578,978.345 895.078,932.012 909,885.5C 929.864,828.576 950.53,771.576 971,714.5C 990.509,667.815 1010.84,621.482 1032,575.5C 1036.14,564.089 1040.47,552.755 1045,541.5C 1050.33,530.173 1056.66,519.506 1064,509.5C 1064.38,504.249 1062.54,499.915 1058.5,496.5C 1077.1,458.329 1106.43,431.829 1146.5,417C 1179.38,405.778 1213.22,400.612 1248,401.5C 1278.97,402.181 1309.81,404.681 1340.5,409C 1381.5,410.088 1422.5,411.255 1463.5,412.5 Z"/></g>
<g><path style="opacity:0.998" fill="#437584" d="M 1516.5,411.5 C 1517.34,411.842 1517.67,412.508 1517.5,413.5C 1516.75,414.531 1516.08,415.698 1515.5,417C 1512.85,417.564 1510.18,418.064 1507.5,418.5C 1493.42,414.272 1479.09,413.272 1464.5,415.5C 1464.5,414.5 1464.5,413.5 1464.5,412.5C 1467.38,411.503 1470.21,410.17 1473,408.5C 1473.77,408.645 1474.44,408.978 1475,409.5C 1480.35,407.051 1486.02,405.385 1492,404.5C 1500.59,404.993 1508.76,407.326 1516.5,411.5 Z"/></g>
<g><path style="opacity:0.999" fill="#fdfefd" d="M 1922.5,484.5 C 1932.34,500.18 1943.17,515.18 1955,529.5C 1969.46,552.086 1982.13,575.752 1993,600.5C 2037.21,712.004 2069.87,826.67 2091,944.5C 2098.4,972.196 2104.23,1000.2 2108.5,1028.5C 2106.17,1028.5 2103.83,1028.5 2101.5,1028.5C 2100.62,1025.74 2099.46,1023.08 2098,1020.5C 2097.86,1022.92 2098.36,1025.25 2099.5,1027.5C 2095.73,1027.76 2092.06,1027.42 2088.5,1026.5C 2088.54,1025.42 2088.87,1024.42 2089.5,1023.5C 2087.88,1017.98 2087.05,1012.31 2087,1006.5C 2085.45,1002.45 2084.28,998.287 2083.5,994C 2084.7,990.459 2086.36,987.126 2088.5,984C 2086.35,982.836 2084.18,981.67 2082,980.5C 2080.31,969.8 2078.14,959.133 2075.5,948.5C 2078.11,944.449 2077.94,940.449 2075,936.5C 2072.05,934.957 2071.22,932.79 2072.5,930C 2070.24,928.065 2069.24,925.565 2069.5,922.5C 2070.87,922.657 2072.21,922.49 2073.5,922C 2070.32,919.068 2069.65,915.568 2071.5,911.5C 2068.57,907.985 2066.41,903.985 2065,899.5C 2063.87,892.246 2062.37,885.079 2060.5,878C 2060.6,876.439 2060.94,874.939 2061.5,873.5C 2058.49,870.146 2055.99,866.48 2054,862.5C 2052.34,851.581 2050.68,840.581 2049,829.5C 2039.38,803.303 2031.38,776.637 2025,749.5C 2023.33,746.5 2021.67,743.5 2020,740.5C 2012.58,714.543 2004.24,688.877 1995,663.5C 1986.12,644.399 1977.78,625.066 1970,605.5C 1954.33,574.199 1936.66,544.199 1917,515.5C 1915.47,511.91 1914.14,508.243 1913,504.5C 1908.31,498.813 1903.31,493.479 1898,488.5C 1897.33,486.833 1897.33,485.167 1898,483.5C 1899.67,482.154 1900.84,480.487 1901.5,478.5C 1902.06,477.21 1903.06,476.377 1904.5,476C 1907.5,475.333 1910.5,475.333 1913.5,476C 1917,478.334 1920,481.168 1922.5,484.5 Z"/></g>
<g><path style="opacity:0.999" fill="#a1d898" d="M 1922.5,484.5 C 2040.32,510.93 2151.66,553.764 2256.5,613C 2296.68,636.765 2334.02,664.432 2368.5,696C 2426.13,751.624 2481.63,809.124 2535,868.5C 2627.7,972.641 2718.04,1078.64 2806,1186.5C 2820.42,1204.38 2834.59,1222.38 2848.5,1240.5C 2787.54,1208 2724.54,1179.84 2659.5,1156C 2655.53,1155.15 2651.53,1154.48 2647.5,1154C 2620.09,1142.48 2591.76,1133.81 2562.5,1128C 2551.53,1123.73 2540.53,1119.73 2529.5,1116C 2525.97,1115.38 2522.47,1115.54 2519,1116.5C 2505.25,1110.28 2490.75,1107.12 2475.5,1107C 2472.84,1103.6 2469.51,1102.6 2465.5,1104C 2468.26,1101.04 2467.43,1099.54 2463,1099.5C 2461.29,1099.44 2459.96,1100.11 2459,1101.5C 2458.52,1100.55 2458.35,1099.55 2458.5,1098.5C 2453.52,1099.33 2448.52,1099.5 2443.5,1099C 2442.66,1097.99 2442.33,1096.82 2442.5,1095.5C 2430.59,1092.87 2418.76,1090.2 2407,1087.5C 2404.48,1088.18 2402.31,1089.51 2400.5,1091.5C 2397.98,1089.81 2395.98,1087.64 2394.5,1085C 2393.17,1084.33 2391.83,1083.67 2390.5,1083C 2385.15,1082.48 2379.81,1081.81 2374.5,1081C 2364.09,1076.41 2353.09,1074.24 2341.5,1074.5C 2340.91,1073.2 2339.91,1072.37 2338.5,1072C 2326.27,1069.52 2313.94,1067.68 2301.5,1066.5C 2301.29,1065.91 2300.96,1065.41 2300.5,1065C 2282.53,1061.88 2264.7,1058.38 2247,1054.5C 2243.46,1055.2 2240.96,1057.2 2239.5,1060.5C 2238.83,1058.83 2238.17,1057.17 2237.5,1055.5C 2236.65,1054.03 2235.32,1053.2 2233.5,1053C 2226.86,1052.11 2220.19,1051.45 2213.5,1051C 2208.17,1047.83 2202.5,1045.5 2196.5,1044C 2167.21,1038.51 2137.88,1033.34 2108.5,1028.5C 2104.23,1000.2 2098.4,972.196 2091,944.5C 2069.87,826.67 2037.21,712.004 1993,600.5C 1982.13,575.752 1969.46,552.086 1955,529.5C 1943.17,515.18 1932.34,500.18 1922.5,484.5 Z"/></g>
<g><path style="opacity:0.999" fill="#fdfefd" d="M 1058.5,496.5 C 1062.54,499.915 1064.38,504.249 1064,509.5C 1056.66,519.506 1050.33,530.173 1045,541.5C 1040.47,552.755 1036.14,564.089 1032,575.5C 1010.84,621.482 990.509,667.815 971,714.5C 950.53,771.576 929.864,828.576 909,885.5C 895.078,932.012 880.578,978.345 865.5,1024.5C 865.389,1025.12 865.056,1025.62 864.5,1026C 860.179,1026.5 855.846,1026.67 851.5,1026.5C 852.845,1024.3 854.011,1021.97 855,1019.5C 855.333,1016.17 855.667,1012.83 856,1009.5C 857.601,1002.93 859.934,996.592 863,990.5C 863.882,987.211 864.548,983.877 865,980.5C 866.814,976.698 869.314,973.531 872.5,971C 869.873,967.22 869.873,963.387 872.5,959.5C 872.291,958.914 871.957,958.414 871.5,958C 872.701,957.097 873.535,955.931 874,954.5C 874.826,947.692 876.659,941.192 879.5,935C 880.448,934.517 881.448,934.351 882.5,934.5C 883.206,929.773 883.206,925.107 882.5,920.5C 883.552,920.649 884.552,920.483 885.5,920C 882.994,917.451 883.16,914.951 886,912.5C 886.667,913.167 887.333,913.833 888,914.5C 887.707,910.432 889.041,907.098 892,904.5C 891.912,894.093 893.912,884.093 898,874.5C 899.546,872.301 901.046,870.134 902.5,868C 900.299,861.098 901.466,854.931 906,849.5C 907.739,841.911 910.405,834.578 914,827.5C 917.456,812.796 921.122,798.13 925,783.5C 928.587,774.098 932.587,764.765 937,755.5C 939.574,740.342 943.907,725.675 950,711.5C 951.385,710.449 952.385,709.116 953,707.5C 963.054,681.342 972.72,655.009 982,628.5C 984.139,622.888 986.806,617.554 990,612.5C 994.686,597.441 1000.35,582.774 1007,568.5C 1014.67,553.167 1022.33,537.833 1030,522.5C 1033.33,519.167 1036.67,515.833 1040,512.5C 1041.91,507.687 1044.07,503.02 1046.5,498.5C 1049.56,492.595 1053.56,491.928 1058.5,496.5 Z"/></g>
<g><path style="opacity:0.999" fill="#a1d898" d="M 1046.5,498.5 C 1044.07,503.02 1041.91,507.687 1040,512.5C 1036.67,515.833 1033.33,519.167 1030,522.5C 1022.33,537.833 1014.67,553.167 1007,568.5C 1000.35,582.774 994.686,597.441 990,612.5C 986.806,617.554 984.139,622.888 982,628.5C 972.72,655.009 963.054,681.342 953,707.5C 952.385,709.116 951.385,710.449 950,711.5C 943.907,725.675 939.574,740.342 937,755.5C 932.587,764.765 928.587,774.098 925,783.5C 921.122,798.13 917.456,812.796 914,827.5C 910.405,834.578 907.739,841.911 906,849.5C 901.466,854.931 900.299,861.098 902.5,868C 901.046,870.134 899.546,872.301 898,874.5C 893.912,884.093 891.912,894.093 892,904.5C 889.041,907.098 887.707,910.432 888,914.5C 887.333,913.833 886.667,913.167 886,912.5C 883.16,914.951 882.994,917.451 885.5,920C 884.552,920.483 883.552,920.649 882.5,920.5C 883.206,925.107 883.206,929.773 882.5,934.5C 881.448,934.351 880.448,934.517 879.5,935C 876.659,941.192 874.826,947.692 874,954.5C 873.535,955.931 872.701,957.097 871.5,958C 871.957,958.414 872.291,958.914 872.5,959.5C 869.873,963.387 869.873,967.22 872.5,971C 869.314,973.531 866.814,976.698 865,980.5C 864.548,983.877 863.882,987.211 863,990.5C 859.934,996.592 857.601,1002.93 856,1009.5C 855.667,1012.83 855.333,1016.17 855,1019.5C 854.011,1021.97 852.845,1024.3 851.5,1026.5C 844.22,1025.67 837.387,1027.01 831,1030.5C 828.658,1029.36 826.158,1028.69 823.5,1028.5C 811.853,1029.89 800.186,1031.05 788.5,1032C 784.58,1033.82 780.58,1034.32 776.5,1033.5C 774.303,1033.85 772.47,1034.85 771,1036.5C 769.539,1039.68 768.705,1043.01 768.5,1046.5C 769.5,1046.5 770.5,1046.5 771.5,1046.5C 771.5,1048.17 771.5,1049.83 771.5,1051.5C 770.833,1052.17 770.167,1052.83 769.5,1053.5C 768.402,1048.85 767.235,1044.18 766,1039.5C 764.352,1037.97 762.352,1037.3 760,1037.5C 754.861,1037.99 750.028,1039.49 745.5,1042C 739.363,1042.82 733.363,1042.32 727.5,1040.5C 712.937,1043.6 698.271,1046.1 683.5,1048C 660.619,1053.18 637.953,1059.18 615.5,1066C 609.392,1066.36 603.392,1067.36 597.5,1069C 568.731,1078.56 539.731,1087.22 510.5,1095C 495.447,1097.43 480.78,1101.43 466.5,1107C 463.833,1109 461.167,1111 458.5,1113C 447.691,1115.16 437.191,1118.33 427,1122.5C 425.535,1121.67 424.035,1121.5 422.5,1122C 410.356,1128.49 397.689,1133.83 384.5,1138C 380.5,1140.33 376.5,1142.67 372.5,1145C 366.756,1145.58 361.089,1146.58 355.5,1148C 354.167,1149.33 352.833,1150.67 351.5,1152C 347.5,1152.33 343.5,1152.67 339.5,1153C 335.202,1156.09 331.702,1159.92 329,1164.5C 326.879,1162.54 324.379,1162.04 321.5,1163C 314.646,1166.26 307.646,1169.26 300.5,1172C 297.833,1174.67 295.167,1177.33 292.5,1180C 287.797,1178.3 283.964,1179.47 281,1183.5C 280.51,1182.21 280.343,1180.87 280.5,1179.5C 275.917,1179.03 273.417,1181.03 273,1185.5C 272.163,1183.99 270.996,1183.49 269.5,1184C 267.5,1187.33 264.833,1190 261.5,1192C 258.97,1191.2 256.304,1190.87 253.5,1191C 247.943,1192.73 242.943,1195.4 238.5,1199C 232.822,1200.4 227.489,1202.57 222.5,1205.5C 221.526,1207.74 221.192,1210.08 221.5,1212.5C 216.948,1211.06 212.281,1210.56 207.5,1211C 200.86,1215.65 193.526,1218.65 185.5,1220C 177.742,1223.72 170.408,1228.22 163.5,1233.5C 161.902,1232.52 160.235,1232.35 158.5,1233C 148.524,1237.77 138.857,1243.1 129.5,1249C 118.475,1253.01 107.809,1257.85 97.5,1263.5C 200.756,1125.37 309.923,991.704 425,862.5C 477.204,804.296 532.704,749.463 591.5,698C 609.733,683.106 629.066,669.772 649.5,658C 713.455,624.023 778.121,591.689 843.5,561C 908.619,531.969 976.286,511.136 1046.5,498.5 Z"/></g>
<g><path style="opacity:1" fill="#407284" d="M 2088.5,1026.5 C 2092.06,1027.42 2095.73,1027.76 2099.5,1027.5C 2099.84,1028.34 2100.51,1028.67 2101.5,1028.5C 2103.83,1028.5 2106.17,1028.5 2108.5,1028.5C 2137.88,1033.34 2167.21,1038.51 2196.5,1044C 2202.5,1045.5 2208.17,1047.83 2213.5,1051C 2220.19,1051.45 2226.86,1052.11 2233.5,1053C 2235.32,1053.2 2236.65,1054.03 2237.5,1055.5C 2240.49,1066.87 2236.16,1072.87 2224.5,1073.5C 2200.94,1067.3 2176.94,1063.8 2152.5,1063C 2139.45,1061.02 2126.45,1058.86 2113.5,1056.5C 2107.11,1055.62 2100.78,1054.62 2094.5,1053.5C 2090.51,1053 2086.51,1052.5 2082.5,1052C 2039.01,1039.05 1994.68,1030.38 1949.5,1026C 1926.17,1024.39 1902.84,1022.89 1879.5,1021.5C 1879.17,1021.5 1878.83,1021.5 1878.5,1021.5C 1855.01,1020.1 1831.35,1019.27 1807.5,1019C 1779.07,1015.34 1750.57,1014.84 1722,1017.5C 1717.3,1016.11 1712.47,1015.44 1707.5,1015.5C 1701.04,1015.88 1694.71,1016.88 1688.5,1018.5C 1683.18,1018.03 1677.84,1017.7 1672.5,1017.5C 1648.52,1019.1 1624.52,1020.1 1600.5,1020.5C 1591.77,1020.48 1583.27,1019.82 1575,1018.5C 1572.1,1020.02 1569.1,1021.36 1566,1022.5C 1564.11,1021.07 1561.94,1020.4 1559.5,1020.5C 1555.98,1021.06 1552.48,1021.73 1549,1022.5C 1545.73,1021.54 1542.4,1020.87 1539,1020.5C 1533.43,1021.63 1527.93,1021.63 1522.5,1020.5C 1521.37,1019.88 1520.37,1019.04 1519.5,1018C 1515.18,1017.5 1510.85,1017.33 1506.5,1017.5C 1506.72,1015.66 1507.06,1013.82 1507.5,1012C 1506.93,1010.39 1506.26,1008.89 1505.5,1007.5C 1506.94,999.553 1511.44,996.886 1519,999.5C 1534.83,998.128 1550.66,997.795 1566.5,998.5C 1566.83,999.5 1567.5,1000.17 1568.5,1000.5C 1570.67,999.208 1573,998.375 1575.5,998C 1585.02,997.768 1594.52,997.268 1604,996.5C 1606,997.167 1608,997.833 1610,998.5C 1614.1,997.189 1618.26,996.189 1622.5,995.5C 1633.58,996.226 1644.75,996.226 1656,995.5C 1661.56,996.041 1665.89,998.708 1669,1003.5C 1670.87,1001.59 1672.37,999.428 1673.5,997C 1677.04,996.718 1680.54,996.218 1684,995.5C 1693.12,995.857 1702.29,995.857 1711.5,995.5C 1711.5,996.833 1711.5,998.167 1711.5,999.5C 1713.53,999.662 1715.53,999.495 1717.5,999C 1720.99,997.63 1724.32,996.13 1727.5,994.5C 1728.61,999.629 1729.28,999.629 1729.5,994.5C 1731.83,994.5 1734.17,994.5 1736.5,994.5C 1735.99,996.512 1735.82,998.512 1736,1000.5C 1737.47,998.848 1739.3,997.848 1741.5,997.5C 1743.57,998.618 1745.74,999.618 1748,1000.5C 1750.78,999.195 1753.61,998.029 1756.5,997C 1765.83,996.333 1775.17,996.333 1784.5,997C 1786.01,997.85 1787.51,998.683 1789,999.5C 1792.91,996.712 1797.24,995.045 1802,994.5C 1813.52,994.742 1825.02,996.075 1836.5,998.5C 1854,998.521 1871.5,998.187 1889,997.5C 1900.58,999.072 1912.25,1000.74 1924,1002.5C 1932.82,1001.51 1941.65,1001.34 1950.5,1002C 1985.01,1006.14 2019.35,1011.47 2053.5,1018C 2065.46,1019.77 2077.13,1022.6 2088.5,1026.5 Z"/></g>
<g><path style="opacity:1" fill="#407284" d="M 1503.5,1006.5 C 1507.06,1020.94 1501.4,1027.94 1486.5,1027.5C 1478.85,1026.74 1471.18,1026.4 1463.5,1026.5C 1446.16,1027.76 1428.83,1029.26 1411.5,1031C 1352.83,1030.91 1294.17,1030.91 1235.5,1031C 1195.14,1032.39 1154.81,1034.22 1114.5,1036.5C 1108.8,1036.37 1103.13,1036.71 1097.5,1037.5C 1084.84,1038.25 1072.17,1038.92 1059.5,1039.5C 1034.61,1038.96 1009.78,1040.29 985,1043.5C 975.2,1041.75 965.7,1042.59 956.5,1046C 939.08,1046.41 921.746,1047.74 904.5,1050C 882.473,1051.55 860.473,1051.72 838.5,1050.5C 835.727,1051.97 832.894,1053.3 830,1054.5C 828.445,1053.15 826.611,1052.49 824.5,1052.5C 818.238,1055.43 811.738,1056.1 805,1054.5C 800.923,1055.69 796.756,1056.36 792.5,1056.5C 785.693,1054.84 778.693,1054.18 771.5,1054.5C 771.5,1053.5 771.5,1052.5 771.5,1051.5C 771.5,1049.83 771.5,1048.17 771.5,1046.5C 770.5,1046.5 769.5,1046.5 768.5,1046.5C 768.705,1043.01 769.539,1039.68 771,1036.5C 772.47,1034.85 774.303,1033.85 776.5,1033.5C 780.58,1034.32 784.58,1033.82 788.5,1032C 800.186,1031.05 811.853,1029.89 823.5,1028.5C 826.158,1028.69 828.658,1029.36 831,1030.5C 837.387,1027.01 844.22,1025.67 851.5,1026.5C 855.846,1026.67 860.179,1026.5 864.5,1026C 865.056,1025.62 865.389,1025.12 865.5,1024.5C 866.873,1024.34 868.207,1024.51 869.5,1025C 870.399,1026.24 871.566,1027.07 873,1027.5C 877.581,1025.88 882.247,1024.54 887,1023.5C 899.423,1024.5 911.923,1024.67 924.5,1024C 927,1026.5 929.5,1029 932,1031.5C 933.358,1028.62 934.858,1025.79 936.5,1023C 949.144,1022.51 961.81,1021.67 974.5,1020.5C 974.5,1021.83 974.5,1023.17 974.5,1024.5C 977.216,1024.32 979.883,1023.82 982.5,1023C 984.321,1021.26 986.321,1019.76 988.5,1018.5C 989.584,1019.67 990.417,1021 991,1022.5C 991.21,1020.94 991.71,1019.61 992.5,1018.5C 995.082,1018.03 997.082,1018.69 998.5,1020.5C 998.369,1021.38 998.702,1022.04 999.5,1022.5C 1003.25,1019.75 1006.75,1020.08 1010,1023.5C 1013.44,1021.53 1016.94,1019.7 1020.5,1018C 1029.47,1016.73 1038.47,1016.39 1047.5,1017C 1048.65,1017.64 1049.65,1018.48 1050.5,1019.5C 1053.3,1017.86 1055.97,1016.03 1058.5,1014C 1063.71,1012.07 1068.87,1012.24 1074,1014.5C 1081.7,1012.18 1089.54,1011.84 1097.5,1013.5C 1115.37,1011.47 1133.21,1009.14 1151,1006.5C 1152.93,1006.93 1154.76,1007.6 1156.5,1008.5C 1168.14,1007.71 1179.81,1007.21 1191.5,1007C 1192.67,1006.58 1193.67,1005.91 1194.5,1005C 1210.32,1003.39 1226.16,1003.22 1242,1004.5C 1245.21,1004.26 1248.37,1003.76 1251.5,1003C 1278.53,1002.85 1305.53,1002.02 1332.5,1000.5C 1339.51,1000.67 1346.51,1001 1353.5,1001.5C 1391.12,998.863 1428.79,998.03 1466.5,999C 1470.83,1000.28 1475.16,1001.45 1479.5,1002.5C 1486.73,1000.55 1494.06,999.718 1501.5,1000C 1503.02,1001.9 1503.68,1004.06 1503.5,1006.5 Z"/></g>
<g><path style="opacity:1" fill="#90c694" d="M 1647.5,998.5 C 1648.38,998.369 1649.04,998.702 1649.5,999.5C 1647.19,1000.87 1646.52,1000.54 1647.5,998.5 Z"/></g>
<g><path style="opacity:1" fill="#88bd92" d="M 1689.5,1003.5 C 1692.01,1004.22 1692.01,1005.22 1689.5,1006.5C 1688.44,1005.58 1688.44,1004.58 1689.5,1003.5 Z"/></g>
<g><path style="opacity:1" fill="#81b691" d="M 1628.5,1006.5 C 1631.6,1006.41 1631.93,1006.91 1629.5,1008C 1627.83,1008.67 1626.17,1008.67 1624.5,1008C 1626.06,1007.79 1627.39,1007.29 1628.5,1006.5 Z"/></g>
<g><path style="opacity:1" fill="#d0eccb" d="M 863.5,1005.5 C 864.617,1009.77 864.283,1014.1 862.5,1018.5C 862.167,1017.83 861.833,1017.17 861.5,1016.5C 862.426,1012.87 863.093,1009.2 863.5,1005.5 Z"/></g>
<g><path style="opacity:0.997" fill="#86c47d" d="M 1503.5,1006.5 C 1504.17,1006.83 1504.83,1007.17 1505.5,1007.5C 1506.26,1008.89 1506.93,1010.39 1507.5,1012C 1507.06,1013.82 1506.72,1015.66 1506.5,1017.5C 1510.85,1017.33 1515.18,1017.5 1519.5,1018C 1520.37,1019.04 1521.37,1019.88 1522.5,1020.5C 1522.73,1092.5 1522.89,1164.5 1523,1236.5C 1522.2,1239.2 1521.03,1241.7 1519.5,1244C 1523.51,1244.85 1525.51,1247.35 1525.5,1251.5C 1524.67,1265.82 1524.67,1280.15 1525.5,1294.5C 1522.27,1375.13 1521.27,1455.79 1522.5,1536.5C 1522.33,1549.83 1522.17,1563.17 1522,1576.5C 1520.65,1578.59 1520.15,1580.93 1520.5,1583.5C 1519.45,1583.35 1518.45,1583.52 1517.5,1584C 1519.85,1584.35 1521.68,1585.51 1523,1587.5C 1523.17,1605.67 1523.67,1623.67 1524.5,1641.5C 1521.37,1696.93 1519.7,1752.43 1519.5,1808C 1520.27,1843.26 1520.6,1878.42 1520.5,1913.5C 1519.44,1916.24 1518.77,1919.07 1518.5,1922C 1520.2,1925.6 1521.2,1929.43 1521.5,1933.5C 1520.62,1945.82 1520.62,1958.15 1521.5,1970.5C 1518.85,2016.74 1517.18,2062.74 1516.5,2108.5C 1498.54,2103.79 1480.54,2103.45 1462.5,2107.5C 1463.07,2060.66 1463.73,2013.82 1464.5,1967C 1463.23,1932.76 1462.23,1898.59 1461.5,1864.5C 1462.29,1858.85 1462.95,1853.19 1463.5,1847.5C 1463.71,1844.77 1462.87,1842.44 1461,1840.5C 1461.32,1826.84 1460.82,1813.18 1459.5,1799.5C 1462.06,1747.14 1463.06,1694.48 1462.5,1641.5C 1463.17,1633.34 1463.5,1625.01 1463.5,1616.5C 1462.28,1585.79 1461.61,1555.12 1461.5,1524.5C 1462.09,1517.57 1463.09,1510.73 1464.5,1504C 1462.67,1503.5 1461.5,1502.33 1461,1500.5C 1460.83,1487.33 1460.67,1474.17 1460.5,1461C 1461.91,1398.84 1462.91,1336.68 1463.5,1274.5C 1462.98,1244.06 1462.31,1213.73 1461.5,1183.5C 1462.5,1177.2 1463.16,1170.87 1463.5,1164.5C 1464.55,1164.65 1465.55,1164.48 1466.5,1164C 1461.87,1162.6 1459.87,1159.43 1460.5,1154.5C 1460.68,1131.18 1460.85,1107.85 1461,1084.5C 1462.73,1065.2 1463.56,1045.87 1463.5,1026.5C 1471.18,1026.4 1478.85,1026.74 1486.5,1027.5C 1501.4,1027.94 1507.06,1020.94 1503.5,1006.5 Z"/></g>
<g><path style="opacity:0.999" fill="#75a5b4" d="M 1878.5,1021.5 C 1873.83,1021.5 1869.17,1021.5 1864.5,1021.5C 1864.44,1024.69 1864.11,1027.86 1863.5,1031C 1865.55,1038.36 1866.71,1045.86 1867,1053.5C 1868.14,1056.58 1869.47,1059.58 1871,1062.5C 1874.04,1084.01 1879.04,1105.35 1886,1126.5C 1885.82,1131.96 1887.15,1136.96 1890,1141.5C 1893.75,1155.41 1897.08,1169.41 1900,1183.5C 1904.52,1191.56 1906.85,1200.23 1907,1209.5C 1915.43,1236.69 1921.76,1264.36 1926,1292.5C 1948.42,1381.96 1966.76,1472.29 1981,1563.5C 1987.04,1590.65 1993.54,1617.65 2000.5,1644.5C 1841.89,1643.13 1683.22,1642.13 1524.5,1641.5C 1523.67,1623.67 1523.17,1605.67 1523,1587.5C 1521.68,1585.51 1519.85,1584.35 1517.5,1584C 1518.45,1583.52 1519.45,1583.35 1520.5,1583.5C 1520.15,1580.93 1520.65,1578.59 1522,1576.5C 1522.17,1563.17 1522.33,1549.83 1522.5,1536.5C 1521.27,1455.79 1522.27,1375.13 1525.5,1294.5C 1524.67,1280.15 1524.67,1265.82 1525.5,1251.5C 1525.51,1247.35 1523.51,1244.85 1519.5,1244C 1521.03,1241.7 1522.2,1239.2 1523,1236.5C 1522.89,1164.5 1522.73,1092.5 1522.5,1020.5C 1527.93,1021.63 1533.43,1021.63 1539,1020.5C 1542.4,1020.87 1545.73,1021.54 1549,1022.5C 1552.48,1021.73 1555.98,1021.06 1559.5,1020.5C 1561.94,1020.4 1564.11,1021.07 1566,1022.5C 1569.1,1021.36 1572.1,1020.02 1575,1018.5C 1583.27,1019.82 1591.77,1020.48 1600.5,1020.5C 1624.52,1020.1 1648.52,1019.1 1672.5,1017.5C 1677.84,1017.7 1683.18,1018.03 1688.5,1018.5C 1694.71,1016.88 1701.04,1015.88 1707.5,1015.5C 1712.47,1015.44 1717.3,1016.11 1722,1017.5C 1750.57,1014.84 1779.07,1015.34 1807.5,1019C 1831.35,1019.27 1855.01,1020.1 1878.5,1021.5 Z"/></g>
<g><path style="opacity:1" fill="#679a8b" d="M 992.5,1018.5 C 994.607,1017.53 996.941,1017.2 999.5,1017.5C 999.737,1018.79 999.404,1019.79 998.5,1020.5C 997.082,1018.69 995.082,1018.03 992.5,1018.5 Z"/></g>
<g><path style="opacity:0.997" fill="#fdfdfe" d="M 1878.5,1021.5 C 1878.83,1021.5 1879.17,1021.5 1879.5,1021.5C 1881.94,1034.75 1885.44,1047.75 1890,1060.5C 1890.63,1062.71 1890.46,1064.88 1889.5,1067C 1895.93,1079.56 1899.43,1092.73 1900,1106.5C 1901.67,1109.17 1903.33,1111.83 1905,1114.5C 1906.72,1120.69 1907.72,1127.02 1908,1133.5C 1910.89,1139.58 1912.23,1145.91 1912,1152.5C 1910.63,1154.37 1909.47,1156.37 1908.5,1158.5C 1910.68,1160.29 1913.18,1161.63 1916,1162.5C 1917.92,1172.99 1920.42,1183.32 1923.5,1193.5C 1923.51,1195.61 1922.85,1197.44 1921.5,1199C 1922.84,1203.17 1925.17,1206.67 1928.5,1209.5C 1927.5,1210.33 1926.5,1211.17 1925.5,1212C 1929.88,1212 1931.55,1214.17 1930.5,1218.5C 1924.4,1217.81 1923.9,1219.15 1929,1222.5C 1928.87,1225.49 1928.87,1228.49 1929,1231.5C 1931.74,1233.98 1933.74,1236.98 1935,1240.5C 1936.82,1247.1 1938.32,1253.77 1939.5,1260.5C 1939.67,1262.69 1939.01,1264.53 1937.5,1266C 1941.09,1268.92 1943.92,1272.42 1946,1276.5C 1947.66,1288.09 1949.32,1299.75 1951,1311.5C 1952,1313.5 1953,1315.5 1954,1317.5C 1958.54,1335.99 1962.88,1354.33 1967,1372.5C 1966.42,1382.63 1968.76,1391.96 1974,1400.5C 1977.5,1414.99 1979.83,1429.66 1981,1444.5C 1982.65,1449.75 1983.98,1455.09 1985,1460.5C 1991.05,1493.77 1996.72,1527.1 2002,1560.5C 2005.84,1587.9 2009.01,1615.23 2011.5,1642.5C 2011.27,1654.72 2011.94,1666.88 2013.5,1679C 2013.6,1681.15 2012.94,1682.98 2011.5,1684.5C 2009.39,1680.74 2007.89,1676.74 2007,1672.5C 2004.89,1663.11 2002.72,1653.78 2000.5,1644.5C 1993.54,1617.65 1987.04,1590.65 1981,1563.5C 1966.76,1472.29 1948.42,1381.96 1926,1292.5C 1921.76,1264.36 1915.43,1236.69 1907,1209.5C 1906.85,1200.23 1904.52,1191.56 1900,1183.5C 1897.08,1169.41 1893.75,1155.41 1890,1141.5C 1887.15,1136.96 1885.82,1131.96 1886,1126.5C 1879.04,1105.35 1874.04,1084.01 1871,1062.5C 1869.47,1059.58 1868.14,1056.58 1867,1053.5C 1866.71,1045.86 1865.55,1038.36 1863.5,1031C 1864.11,1027.86 1864.44,1024.69 1864.5,1021.5C 1869.17,1021.5 1873.83,1021.5 1878.5,1021.5 Z"/></g>
<g><path style="opacity:0.999" fill="#75a5b4" d="M 1879.5,1021.5 C 1902.84,1022.89 1926.17,1024.39 1949.5,1026C 1994.68,1030.38 2039.01,1039.05 2082.5,1052C 2086.51,1052.5 2090.51,1053 2094.5,1053.5C 2094.43,1061.89 2096.1,1069.89 2099.5,1077.5C 2098.98,1079.64 2098.65,1081.8 2098.5,1084C 2101.35,1100.09 2103.52,1116.26 2105,1132.5C 2106.95,1135.56 2109.79,1137.23 2113.5,1137.5C 2113.28,1136.32 2113.61,1135.32 2114.5,1134.5C 2115.74,1135.25 2117.07,1135.58 2118.5,1135.5C 2118.25,1128.37 2118.92,1121.37 2120.5,1114.5C 2120.31,1110.09 2119.65,1105.76 2118.5,1101.5C 2118.78,1099.66 2119.11,1097.82 2119.5,1096C 2118.26,1091.89 2117.26,1087.73 2116.5,1083.5C 2118.03,1079.9 2117.53,1076.57 2115,1073.5C 2114.79,1067.75 2114.29,1062.09 2113.5,1056.5C 2126.45,1058.86 2139.45,1061.02 2152.5,1063C 2176.94,1063.8 2200.94,1067.3 2224.5,1073.5C 2236.16,1072.87 2240.49,1066.87 2237.5,1055.5C 2238.17,1057.17 2238.83,1058.83 2239.5,1060.5C 2239.72,1061.73 2240.39,1062.73 2241.5,1063.5C 2239.56,1065.12 2239.23,1066.96 2240.5,1069C 2242.5,1069.33 2244.5,1069.67 2246.5,1070C 2250.5,1072 2254.5,1074 2258.5,1076C 2274.07,1079.22 2289.73,1081.89 2305.5,1084C 2334.24,1091.34 2363.24,1097.18 2392.5,1101.5C 2393.75,1103.93 2395.25,1106.27 2397,1108.5C 2397.82,1115 2400.82,1120.34 2406,1124.5C 2407.52,1129.36 2410.52,1133.02 2415,1135.5C 2415.23,1139.71 2417.4,1142.37 2421.5,1143.5C 2423.08,1146.98 2424.91,1150.32 2427,1153.5C 2436.9,1166.03 2447.23,1178.03 2458,1189.5C 2465.07,1197.98 2471.91,1206.65 2478.5,1215.5C 2485.64,1220.81 2491.14,1227.47 2495,1235.5C 2509.91,1250.73 2522.91,1267.4 2534,1285.5C 2581.09,1343.02 2624.76,1403.02 2665,1465.5C 2676.28,1481.28 2688.12,1496.61 2700.5,1511.5C 2535.78,1536.95 2371.45,1564.79 2207.5,1595C 2148.99,1605.79 2090.99,1618.79 2033.5,1634C 2025.86,1636.15 2018.53,1638.99 2011.5,1642.5C 2009.01,1615.23 2005.84,1587.9 2002,1560.5C 1996.72,1527.1 1991.05,1493.77 1985,1460.5C 1983.98,1455.09 1982.65,1449.75 1981,1444.5C 1979.83,1429.66 1977.5,1414.99 1974,1400.5C 1968.76,1391.96 1966.42,1382.63 1967,1372.5C 1962.88,1354.33 1958.54,1335.99 1954,1317.5C 1953,1315.5 1952,1313.5 1951,1311.5C 1949.32,1299.75 1947.66,1288.09 1946,1276.5C 1943.92,1272.42 1941.09,1268.92 1937.5,1266C 1939.01,1264.53 1939.67,1262.69 1939.5,1260.5C 1938.32,1253.77 1936.82,1247.1 1935,1240.5C 1933.74,1236.98 1931.74,1233.98 1929,1231.5C 1928.87,1228.49 1928.87,1225.49 1929,1222.5C 1923.9,1219.15 1924.4,1217.81 1930.5,1218.5C 1931.55,1214.17 1929.88,1212 1925.5,1212C 1926.5,1211.17 1927.5,1210.33 1928.5,1209.5C 1925.17,1206.67 1922.84,1203.17 1921.5,1199C 1922.85,1197.44 1923.51,1195.61 1923.5,1193.5C 1920.42,1183.32 1917.92,1172.99 1916,1162.5C 1913.18,1161.63 1910.68,1160.29 1908.5,1158.5C 1909.47,1156.37 1910.63,1154.37 1912,1152.5C 1912.23,1145.91 1910.89,1139.58 1908,1133.5C 1907.72,1127.02 1906.72,1120.69 1905,1114.5C 1903.33,1111.83 1901.67,1109.17 1900,1106.5C 1899.43,1092.73 1895.93,1079.56 1889.5,1067C 1890.46,1064.88 1890.63,1062.71 1890,1060.5C 1885.44,1047.75 1881.94,1034.75 1879.5,1021.5 Z"/></g>
<g><path style="opacity:1" fill="#b7ddb5" d="M 2101.5,1028.5 C 2100.51,1028.67 2099.84,1028.34 2099.5,1027.5C 2098.36,1025.25 2097.86,1022.92 2098,1020.5C 2099.46,1023.08 2100.62,1025.74 2101.5,1028.5 Z"/></g>
<g><path style="opacity:0.999" fill="#75a5b4" d="M 1463.5,1026.5 C 1463.56,1045.87 1462.73,1065.2 1461,1084.5C 1460.85,1107.85 1460.68,1131.18 1460.5,1154.5C 1459.87,1159.43 1461.87,1162.6 1466.5,1164C 1465.55,1164.48 1464.55,1164.65 1463.5,1164.5C 1463.16,1170.87 1462.5,1177.2 1461.5,1183.5C 1462.31,1213.73 1462.98,1244.06 1463.5,1274.5C 1462.91,1336.68 1461.91,1398.84 1460.5,1461C 1460.67,1474.17 1460.83,1487.33 1461,1500.5C 1461.5,1502.33 1462.67,1503.5 1464.5,1504C 1463.09,1510.73 1462.09,1517.57 1461.5,1524.5C 1461.61,1555.12 1462.28,1585.79 1463.5,1616.5C 1463.5,1625.01 1463.17,1633.34 1462.5,1641.5C 1347.83,1641.33 1233.17,1641.5 1118.5,1642C 1078.14,1642.14 1037.81,1642.97 997.5,1644.5C 1003.42,1614.26 1008.92,1583.93 1014,1553.5C 1015.08,1548.76 1016.41,1544.1 1018,1539.5C 1025.74,1497.22 1034.41,1455.22 1044,1413.5C 1044.33,1407.83 1044.67,1402.17 1045,1396.5C 1047.51,1388.13 1049.84,1379.8 1052,1371.5C 1054.5,1354.51 1056.83,1337.51 1059,1320.5C 1062.07,1313.5 1063.73,1306.16 1064,1298.5C 1068.04,1292.5 1068.54,1286.17 1065.5,1279.5C 1068.81,1272.24 1070.98,1264.58 1072,1256.5C 1072.68,1251.97 1072.51,1247.47 1071.5,1243C 1072.5,1240.67 1073.5,1238.33 1074.5,1236C 1074.36,1234.77 1074.02,1233.61 1073.5,1232.5C 1074.83,1232.17 1076.17,1231.83 1077.5,1231.5C 1079.01,1229.03 1078.67,1226.86 1076.5,1225C 1077.45,1224.52 1078.45,1224.35 1079.5,1224.5C 1077.89,1220.01 1077.22,1215.34 1077.5,1210.5C 1078.82,1210.67 1079.99,1210.34 1081,1209.5C 1083.66,1198.92 1085.49,1188.42 1086.5,1178C 1086.07,1175.28 1084.74,1173.12 1082.5,1171.5C 1084.09,1169.37 1086.09,1167.7 1088.5,1166.5C 1089.81,1165.09 1090.64,1163.42 1091,1161.5C 1091.33,1157.5 1091.67,1153.5 1092,1149.5C 1095.82,1139.18 1097.82,1128.52 1098,1117.5C 1098.67,1116.83 1099.33,1116.17 1100,1115.5C 1100.15,1109.67 1101.15,1104.01 1103,1098.5C 1103.33,1092.83 1103.67,1087.17 1104,1081.5C 1105.75,1080.33 1106.75,1078.66 1107,1076.5C 1108.89,1062.97 1111.39,1049.63 1114.5,1036.5C 1154.81,1034.22 1195.14,1032.39 1235.5,1031C 1294.17,1030.91 1352.83,1030.91 1411.5,1031C 1428.83,1029.26 1446.16,1027.76 1463.5,1026.5 Z"/></g>
<g><path style="opacity:1" fill="#94cb95" d="M 910.5,1026.5 C 911.376,1026.37 912.043,1026.7 912.5,1027.5C 910.192,1028.87 909.525,1028.54 910.5,1026.5 Z"/></g>
<g><path style="opacity:1" fill="#9ad196" d="M 952.5,1030.5 C 953.376,1030.37 954.043,1030.7 954.5,1031.5C 952.192,1032.87 951.525,1032.54 952.5,1030.5 Z"/></g>
<g><path style="opacity:1" fill="#407284" d="M 769.5,1053.5 C 769.203,1059.28 766.536,1063.44 761.5,1066C 750.478,1067.04 739.478,1068.38 728.5,1070C 684.57,1082.9 640.237,1093.73 595.5,1102.5C 585.883,1104.2 576.55,1106.54 567.5,1109.5C 558.103,1110.24 549.103,1112.24 540.5,1115.5C 508.016,1123.55 476.016,1133.22 444.5,1144.5C 427.279,1150.13 410.279,1156.13 393.5,1162.5C 372.474,1169.73 351.474,1176.73 330.5,1183.5C 325.824,1184.06 321.491,1185.39 317.5,1187.5C 304.115,1192.69 290.781,1198.19 277.5,1204C 265.929,1206.19 255.262,1210.52 245.5,1217C 231.932,1222.28 218.265,1227.28 204.5,1232C 199.445,1235.69 193.778,1238.02 187.5,1239C 184.289,1240.85 180.956,1242.52 177.5,1244C 147.37,1255.4 117.036,1266.23 86.5,1276.5C 85.8333,1276.5 85.5,1276.83 85.5,1277.5C 81.3138,1278.23 77.3138,1279.56 73.5,1281.5C 69.5621,1280.26 69.5621,1278.09 73.5,1275C 81.431,1270.87 89.431,1267.03 97.5,1263.5C 107.809,1257.85 118.475,1253.01 129.5,1249C 138.857,1243.1 148.524,1237.77 158.5,1233C 160.235,1232.35 161.902,1232.52 163.5,1233.5C 170.408,1228.22 177.742,1223.72 185.5,1220C 193.526,1218.65 200.86,1215.65 207.5,1211C 212.281,1210.56 216.948,1211.06 221.5,1212.5C 221.192,1210.08 221.526,1207.74 222.5,1205.5C 227.489,1202.57 232.822,1200.4 238.5,1199C 242.943,1195.4 247.943,1192.73 253.5,1191C 256.304,1190.87 258.97,1191.2 261.5,1192C 264.833,1190 267.5,1187.33 269.5,1184C 270.996,1183.49 272.163,1183.99 273,1185.5C 273.417,1181.03 275.917,1179.03 280.5,1179.5C 280.343,1180.87 280.51,1182.21 281,1183.5C 283.964,1179.47 287.797,1178.3 292.5,1180C 295.167,1177.33 297.833,1174.67 300.5,1172C 307.646,1169.26 314.646,1166.26 321.5,1163C 324.379,1162.04 326.879,1162.54 329,1164.5C 331.702,1159.92 335.202,1156.09 339.5,1153C 343.5,1152.67 347.5,1152.33 351.5,1152C 352.833,1150.67 354.167,1149.33 355.5,1148C 361.089,1146.58 366.756,1145.58 372.5,1145C 376.5,1142.67 380.5,1140.33 384.5,1138C 397.689,1133.83 410.356,1128.49 422.5,1122C 424.035,1121.5 425.535,1121.67 427,1122.5C 437.191,1118.33 447.691,1115.16 458.5,1113C 461.167,1111 463.833,1109 466.5,1107C 480.78,1101.43 495.447,1097.43 510.5,1095C 539.731,1087.22 568.731,1078.56 597.5,1069C 603.392,1067.36 609.392,1066.36 615.5,1066C 637.953,1059.18 660.619,1053.18 683.5,1048C 698.271,1046.1 712.937,1043.6 727.5,1040.5C 733.363,1042.32 739.363,1042.82 745.5,1042C 750.028,1039.49 754.861,1037.99 760,1037.5C 762.352,1037.3 764.352,1037.97 766,1039.5C 767.235,1044.18 768.402,1048.85 769.5,1053.5 Z"/></g>
<g><path style="opacity:0.996" fill="#fdfdfd" d="M 1114.5,1036.5 C 1111.39,1049.63 1108.89,1062.97 1107,1076.5C 1106.75,1078.66 1105.75,1080.33 1104,1081.5C 1103.67,1087.17 1103.33,1092.83 1103,1098.5C 1101.15,1104.01 1100.15,1109.67 1100,1115.5C 1099.33,1116.17 1098.67,1116.83 1098,1117.5C 1097.82,1128.52 1095.82,1139.18 1092,1149.5C 1091.67,1153.5 1091.33,1157.5 1091,1161.5C 1090.64,1163.42 1089.81,1165.09 1088.5,1166.5C 1086.09,1167.7 1084.09,1169.37 1082.5,1171.5C 1084.74,1173.12 1086.07,1175.28 1086.5,1178C 1085.49,1188.42 1083.66,1198.92 1081,1209.5C 1079.99,1210.34 1078.82,1210.67 1077.5,1210.5C 1077.22,1215.34 1077.89,1220.01 1079.5,1224.5C 1078.45,1224.35 1077.45,1224.52 1076.5,1225C 1078.67,1226.86 1079.01,1229.03 1077.5,1231.5C 1076.17,1231.83 1074.83,1232.17 1073.5,1232.5C 1074.02,1233.61 1074.36,1234.77 1074.5,1236C 1073.5,1238.33 1072.5,1240.67 1071.5,1243C 1072.51,1247.47 1072.68,1251.97 1072,1256.5C 1070.98,1264.58 1068.81,1272.24 1065.5,1279.5C 1068.54,1286.17 1068.04,1292.5 1064,1298.5C 1063.73,1306.16 1062.07,1313.5 1059,1320.5C 1056.83,1337.51 1054.5,1354.51 1052,1371.5C 1049.84,1379.8 1047.51,1388.13 1045,1396.5C 1044.67,1402.17 1044.33,1407.83 1044,1413.5C 1034.41,1455.22 1025.74,1497.22 1018,1539.5C 1016.41,1544.1 1015.08,1548.76 1014,1553.5C 1008.92,1583.93 1003.42,1614.26 997.5,1644.5C 997.08,1650.33 995.247,1655.67 992,1660.5C 991.639,1667.2 990.972,1673.87 990,1680.5C 984.426,1685.77 979.093,1685.44 974,1679.5C 973.833,1677 973.667,1674.5 973.5,1672C 975.084,1661.83 976.751,1651.66 978.5,1641.5C 980.876,1618.14 984.376,1594.81 989,1571.5C 1010.37,1479.3 1029.71,1386.64 1047,1293.5C 1054.03,1268.25 1059.03,1242.58 1062,1216.5C 1065.88,1205.85 1067.88,1194.85 1068,1183.5C 1074.29,1147.46 1080.96,1111.46 1088,1075.5C 1088.91,1074.67 1089.58,1073.67 1090,1072.5C 1090.33,1068.17 1090.67,1063.83 1091,1059.5C 1093.21,1052.1 1095.38,1044.77 1097.5,1037.5C 1103.13,1036.71 1108.8,1036.37 1114.5,1036.5 Z"/></g>
<g><path style="opacity:1" fill="#72a3a9" d="M 888.5,1036.5 C 890.199,1036.34 891.866,1036.51 893.5,1037C 889.279,1038.36 885.113,1039.86 881,1041.5C 880.5,1041.17 880,1040.83 879.5,1040.5C 882.305,1038.72 885.305,1037.38 888.5,1036.5 Z"/></g>
<g><path style="opacity:0.999" fill="#75a5b4" d="M 1097.5,1037.5 C 1095.38,1044.77 1093.21,1052.1 1091,1059.5C 1090.67,1063.83 1090.33,1068.17 1090,1072.5C 1089.58,1073.67 1088.91,1074.67 1088,1075.5C 1080.96,1111.46 1074.29,1147.46 1068,1183.5C 1067.88,1194.85 1065.88,1205.85 1062,1216.5C 1059.03,1242.58 1054.03,1268.25 1047,1293.5C 1029.71,1386.64 1010.37,1479.3 989,1571.5C 984.376,1594.81 980.876,1618.14 978.5,1641.5C 797.023,1599.17 614.356,1562.67 430.5,1532C 389.902,1525.49 349.069,1521.32 308,1519.5C 300.382,1519.44 292.882,1520.1 285.5,1521.5C 313.144,1483.68 340.644,1445.68 368,1407.5C 376.062,1398.37 383.395,1388.71 390,1378.5C 400.985,1368.18 409.651,1356.18 416,1342.5C 430.935,1325.99 443.935,1307.99 455,1288.5C 458.683,1285.81 462.017,1282.81 465,1279.5C 465.333,1278.17 465.667,1276.83 466,1275.5C 472.698,1272.25 475.531,1266.92 474.5,1259.5C 475.552,1259.65 476.552,1259.48 477.5,1259C 484.878,1252.3 489.711,1244.13 492,1234.5C 493.441,1233.13 495.108,1232.13 497,1231.5C 496.874,1226.32 498.041,1225.65 500.5,1229.5C 503.279,1228.33 503.946,1226.49 502.5,1224C 503.793,1223.51 505.127,1223.34 506.5,1223.5C 506.184,1220.02 506.684,1216.69 508,1213.5C 509.32,1213.2 510.82,1213.03 512.5,1213C 515.859,1209.66 518.359,1205.82 520,1201.5C 522.901,1198.69 525.568,1195.69 528,1192.5C 527.847,1189.83 527.347,1187.16 526.5,1184.5C 530.401,1185.14 533.734,1184.14 536.5,1181.5C 539.16,1175.83 542.993,1171.17 548,1167.5C 548.93,1164.64 550.597,1162.31 553,1160.5C 554.265,1157.54 555.431,1154.54 556.5,1151.5C 557.991,1150.76 559.491,1150.09 561,1149.5C 563.528,1144.3 566.861,1139.63 571,1135.5C 572.442,1132.95 573.608,1130.28 574.5,1127.5C 576.747,1126.76 578.58,1125.42 580,1123.5C 584.688,1116.11 589.855,1109.11 595.5,1102.5C 640.237,1093.73 684.57,1082.9 728.5,1070C 739.478,1068.38 750.478,1067.04 761.5,1066C 766.536,1063.44 769.203,1059.28 769.5,1053.5C 770.167,1052.83 770.833,1052.17 771.5,1051.5C 771.5,1052.5 771.5,1053.5 771.5,1054.5C 778.693,1054.18 785.693,1054.84 792.5,1056.5C 796.756,1056.36 800.923,1055.69 805,1054.5C 811.738,1056.1 818.238,1055.43 824.5,1052.5C 826.611,1052.49 828.445,1053.15 830,1054.5C 832.894,1053.3 835.727,1051.97 838.5,1050.5C 860.473,1051.72 882.473,1051.55 904.5,1050C 921.746,1047.74 939.08,1046.41 956.5,1046C 965.7,1042.59 975.2,1041.75 985,1043.5C 1009.78,1040.29 1034.61,1038.96 1059.5,1039.5C 1072.17,1038.92 1084.84,1038.25 1097.5,1037.5 Z"/></g>
<g><path style="opacity:1" fill="#fafbfc" d="M 844.5,1052.5 C 848.182,1052.33 851.848,1052.5 855.5,1053C 849.25,1072.02 842.25,1090.85 834.5,1109.5C 833.372,1110.26 832.205,1110.93 831,1111.5C 829.543,1108.63 829.21,1105.63 830,1102.5C 834.853,1085.74 839.686,1069.08 844.5,1052.5 Z"/></g>
<g><path style="opacity:1" fill="#fcfdfd" d="M 2094.5,1053.5 C 2100.78,1054.62 2107.11,1055.62 2113.5,1056.5C 2114.29,1062.09 2114.79,1067.75 2115,1073.5C 2117.53,1076.57 2118.03,1079.9 2116.5,1083.5C 2117.26,1087.73 2118.26,1091.89 2119.5,1096C 2119.11,1097.82 2118.78,1099.66 2118.5,1101.5C 2119.65,1105.76 2120.31,1110.09 2120.5,1114.5C 2118.92,1121.37 2118.25,1128.37 2118.5,1135.5C 2117.07,1135.58 2115.74,1135.25 2114.5,1134.5C 2113.61,1135.32 2113.28,1136.32 2113.5,1137.5C 2109.79,1137.23 2106.95,1135.56 2105,1132.5C 2103.52,1116.26 2101.35,1100.09 2098.5,1084C 2098.65,1081.8 2098.98,1079.64 2099.5,1077.5C 2096.1,1069.89 2094.43,1061.89 2094.5,1053.5 Z"/></g>
<g><path style="opacity:0.998" fill="#417384" d="M 2848.5,1240.5 C 2865.22,1250.38 2881.55,1260.88 2897.5,1272C 2902.8,1276.3 2907.8,1280.97 2912.5,1286C 2918.45,1289.56 2923.95,1293.73 2929,1298.5C 2929.2,1306.13 2925.7,1308.3 2918.5,1305C 2910.55,1299.38 2902.88,1293.38 2895.5,1287C 2887.47,1281.32 2879.14,1276.15 2870.5,1271.5C 2785.39,1220.83 2695.06,1181.67 2599.5,1154C 2566.37,1144.8 2533.37,1135.13 2500.5,1125C 2484.97,1121.04 2469.3,1117.71 2453.5,1115C 2447.09,1113.2 2440.76,1111.2 2434.5,1109C 2428.16,1108.08 2421.82,1107.24 2415.5,1106.5C 2407.95,1104.3 2400.29,1102.63 2392.5,1101.5C 2363.24,1097.18 2334.24,1091.34 2305.5,1084C 2289.73,1081.89 2274.07,1079.22 2258.5,1076C 2254.5,1074 2250.5,1072 2246.5,1070C 2244.5,1069.67 2242.5,1069.33 2240.5,1069C 2239.23,1066.96 2239.56,1065.12 2241.5,1063.5C 2240.39,1062.73 2239.72,1061.73 2239.5,1060.5C 2240.96,1057.2 2243.46,1055.2 2247,1054.5C 2264.7,1058.38 2282.53,1061.88 2300.5,1065C 2300.96,1065.41 2301.29,1065.91 2301.5,1066.5C 2313.94,1067.68 2326.27,1069.52 2338.5,1072C 2339.91,1072.37 2340.91,1073.2 2341.5,1074.5C 2353.09,1074.24 2364.09,1076.41 2374.5,1081C 2379.81,1081.81 2385.15,1082.48 2390.5,1083C 2391.83,1083.67 2393.17,1084.33 2394.5,1085C 2395.98,1087.64 2397.98,1089.81 2400.5,1091.5C 2402.31,1089.51 2404.48,1088.18 2407,1087.5C 2418.76,1090.2 2430.59,1092.87 2442.5,1095.5C 2442.33,1096.82 2442.66,1097.99 2443.5,1099C 2448.52,1099.5 2453.52,1099.33 2458.5,1098.5C 2458.35,1099.55 2458.52,1100.55 2459,1101.5C 2459.96,1100.11 2461.29,1099.44 2463,1099.5C 2467.43,1099.54 2468.26,1101.04 2465.5,1104C 2469.51,1102.6 2472.84,1103.6 2475.5,1107C 2490.75,1107.12 2505.25,1110.28 2519,1116.5C 2522.47,1115.54 2525.97,1115.38 2529.5,1116C 2540.53,1119.73 2551.53,1123.73 2562.5,1128C 2591.76,1133.81 2620.09,1142.48 2647.5,1154C 2651.53,1154.48 2655.53,1155.15 2659.5,1156C 2724.54,1179.84 2787.54,1208 2848.5,1240.5 Z"/></g>
<g><path style="opacity:1" fill="#6c9da4" d="M 2347.5,1084.5 C 2351.9,1084.42 2356.23,1084.92 2360.5,1086C 2358.33,1086.17 2356.17,1086.33 2354,1086.5C 2351.39,1086.47 2349.22,1085.8 2347.5,1084.5 Z"/></g>
<g><path style="opacity:1" fill="#82b791" d="M 2419.5,1096.5 C 2420.38,1096.37 2421.04,1096.7 2421.5,1097.5C 2419.19,1098.87 2418.52,1098.54 2419.5,1096.5 Z"/></g>
<g><path style="opacity:0.994" fill="#fdfdfe" d="M 2392.5,1101.5 C 2400.29,1102.63 2407.95,1104.3 2415.5,1106.5C 2420.93,1113.77 2426.6,1120.94 2432.5,1128C 2431.55,1128.72 2431.38,1129.55 2432,1130.5C 2438.92,1134.66 2444.25,1140.33 2448,1147.5C 2451.68,1148.87 2453.35,1151.54 2453,1155.5C 2460.27,1160.35 2465.94,1166.68 2470,1174.5C 2474.15,1177.81 2477.32,1181.81 2479.5,1186.5C 2478.78,1188.78 2478.44,1191.12 2478.5,1193.5C 2480.82,1192.83 2483.15,1192.67 2485.5,1193C 2488.34,1195.68 2490.51,1198.85 2492,1202.5C 2496.88,1205.71 2500.71,1209.88 2503.5,1215C 2501.99,1215.84 2501.49,1217 2502,1218.5C 2504.48,1221.49 2507.65,1222.82 2511.5,1222.5C 2511.67,1223.82 2511.34,1224.99 2510.5,1226C 2513.17,1225.42 2515.17,1226.58 2516.5,1229.5C 2515.33,1230.58 2514,1231.42 2512.5,1232C 2516.46,1232.79 2518.29,1235.29 2518,1239.5C 2522.31,1240.82 2525.98,1243.16 2529,1246.5C 2531.19,1250.2 2533.85,1253.53 2537,1256.5C 2538.44,1259.05 2538.94,1261.55 2538.5,1264C 2546.13,1264.3 2550.63,1268.13 2552,1275.5C 2556.83,1280 2560.49,1285.33 2563,1291.5C 2570.4,1297.9 2576.73,1305.23 2582,1313.5C 2586.55,1317.03 2589.88,1321.36 2592,1326.5C 2597.45,1332.61 2602.11,1339.28 2606,1346.5C 2607.58,1348.04 2609.41,1349.21 2611.5,1350C 2618.03,1358.23 2624.2,1366.73 2630,1375.5C 2643.74,1397.96 2658.74,1419.63 2675,1440.5C 2676.67,1443.83 2678.33,1447.17 2680,1450.5C 2692.42,1468.74 2704.59,1487.07 2716.5,1505.5C 2722.45,1515.07 2727.62,1525.07 2732,1535.5C 2736.62,1540.4 2739.29,1546.07 2740,1552.5C 2738.12,1554.7 2735.96,1554.86 2733.5,1553C 2731.33,1550.83 2729.17,1548.67 2727,1546.5C 2718.72,1534.39 2709.89,1522.72 2700.5,1511.5C 2688.12,1496.61 2676.28,1481.28 2665,1465.5C 2624.76,1403.02 2581.09,1343.02 2534,1285.5C 2522.91,1267.4 2509.91,1250.73 2495,1235.5C 2491.14,1227.47 2485.64,1220.81 2478.5,1215.5C 2471.91,1206.65 2465.07,1197.98 2458,1189.5C 2447.23,1178.03 2436.9,1166.03 2427,1153.5C 2424.91,1150.32 2423.08,1146.98 2421.5,1143.5C 2417.4,1142.37 2415.23,1139.71 2415,1135.5C 2410.52,1133.02 2407.52,1129.36 2406,1124.5C 2400.82,1120.34 2397.82,1115 2397,1108.5C 2395.25,1106.27 2393.75,1103.93 2392.5,1101.5 Z"/></g>
<g><path style="opacity:0.997" fill="#fcfdfd" d="M 595.5,1102.5 C 589.855,1109.11 584.688,1116.11 580,1123.5C 578.58,1125.42 576.747,1126.76 574.5,1127.5C 573.608,1130.28 572.442,1132.95 571,1135.5C 566.861,1139.63 563.528,1144.3 561,1149.5C 559.491,1150.09 557.991,1150.76 556.5,1151.5C 555.431,1154.54 554.265,1157.54 553,1160.5C 550.597,1162.31 548.93,1164.64 548,1167.5C 542.993,1171.17 539.16,1175.83 536.5,1181.5C 533.734,1184.14 530.401,1185.14 526.5,1184.5C 527.347,1187.16 527.847,1189.83 528,1192.5C 525.568,1195.69 522.901,1198.69 520,1201.5C 518.359,1205.82 515.859,1209.66 512.5,1213C 510.82,1213.03 509.32,1213.2 508,1213.5C 506.684,1216.69 506.184,1220.02 506.5,1223.5C 505.127,1223.34 503.793,1223.51 502.5,1224C 503.946,1226.49 503.279,1228.33 500.5,1229.5C 498.041,1225.65 496.874,1226.32 497,1231.5C 495.108,1232.13 493.441,1233.13 492,1234.5C 489.711,1244.13 484.878,1252.3 477.5,1259C 476.552,1259.48 475.552,1259.65 474.5,1259.5C 475.531,1266.92 472.698,1272.25 466,1275.5C 465.667,1276.83 465.333,1278.17 465,1279.5C 462.017,1282.81 458.683,1285.81 455,1288.5C 443.935,1307.99 430.935,1325.99 416,1342.5C 409.651,1356.18 400.985,1368.18 390,1378.5C 383.395,1388.71 376.062,1398.37 368,1407.5C 340.644,1445.68 313.144,1483.68 285.5,1521.5C 282.901,1526.52 279.901,1531.35 276.5,1536C 270.333,1537.83 268.167,1535.67 270,1529.5C 271.588,1525.33 273.421,1521.33 275.5,1517.5C 278.135,1514.92 280.301,1511.92 282,1508.5C 295.401,1480.68 311.067,1454.35 329,1429.5C 372.104,1373.06 414.437,1316.06 456,1258.5C 469.46,1243.57 481.46,1227.57 492,1210.5C 498.254,1204.92 502.92,1198.25 506,1190.5C 509.333,1186.5 512.667,1182.5 516,1178.5C 531.558,1154.14 548.724,1131.14 567.5,1109.5C 576.55,1106.54 585.883,1104.2 595.5,1102.5 Z"/></g>
<g><path style="opacity:0.999" fill="#75a5b4" d="M 2415.5,1106.5 C 2421.82,1107.24 2428.16,1108.08 2434.5,1109C 2440.76,1111.2 2447.09,1113.2 2453.5,1115C 2469.3,1117.71 2484.97,1121.04 2500.5,1125C 2533.37,1135.13 2566.37,1144.8 2599.5,1154C 2695.06,1181.67 2785.39,1220.83 2870.5,1271.5C 2817.68,1348.47 2766.34,1426.47 2716.5,1505.5C 2704.59,1487.07 2692.42,1468.74 2680,1450.5C 2678.33,1447.17 2676.67,1443.83 2675,1440.5C 2658.74,1419.63 2643.74,1397.96 2630,1375.5C 2624.2,1366.73 2618.03,1358.23 2611.5,1350C 2609.41,1349.21 2607.58,1348.04 2606,1346.5C 2602.11,1339.28 2597.45,1332.61 2592,1326.5C 2589.88,1321.36 2586.55,1317.03 2582,1313.5C 2576.73,1305.23 2570.4,1297.9 2563,1291.5C 2560.49,1285.33 2556.83,1280 2552,1275.5C 2550.63,1268.13 2546.13,1264.3 2538.5,1264C 2538.94,1261.55 2538.44,1259.05 2537,1256.5C 2533.85,1253.53 2531.19,1250.2 2529,1246.5C 2525.98,1243.16 2522.31,1240.82 2518,1239.5C 2518.29,1235.29 2516.46,1232.79 2512.5,1232C 2514,1231.42 2515.33,1230.58 2516.5,1229.5C 2515.17,1226.58 2513.17,1225.42 2510.5,1226C 2511.34,1224.99 2511.67,1223.82 2511.5,1222.5C 2507.65,1222.82 2504.48,1221.49 2502,1218.5C 2501.49,1217 2501.99,1215.84 2503.5,1215C 2500.71,1209.88 2496.88,1205.71 2492,1202.5C 2490.51,1198.85 2488.34,1195.68 2485.5,1193C 2483.15,1192.67 2480.82,1192.83 2478.5,1193.5C 2478.44,1191.12 2478.78,1188.78 2479.5,1186.5C 2477.32,1181.81 2474.15,1177.81 2470,1174.5C 2465.94,1166.68 2460.27,1160.35 2453,1155.5C 2453.35,1151.54 2451.68,1148.87 2448,1147.5C 2444.25,1140.33 2438.92,1134.66 2432,1130.5C 2431.38,1129.55 2431.55,1128.72 2432.5,1128C 2426.6,1120.94 2420.93,1113.77 2415.5,1106.5 Z"/></g>
<g><path style="opacity:0.999" fill="#75a5b4" d="M 567.5,1109.5 C 548.724,1131.14 531.558,1154.14 516,1178.5C 512.667,1182.5 509.333,1186.5 506,1190.5C 502.92,1198.25 498.254,1204.92 492,1210.5C 481.46,1227.57 469.46,1243.57 456,1258.5C 414.437,1316.06 372.104,1373.06 329,1429.5C 311.067,1454.35 295.401,1480.68 282,1508.5C 280.301,1511.92 278.135,1514.92 275.5,1517.5C 267.239,1497.64 257.405,1478.64 246,1460.5C 217.465,1417.28 185.131,1376.95 149,1339.5C 128.216,1318.21 107.049,1297.55 85.5,1277.5C 86.1667,1277.5 86.5,1277.17 86.5,1276.5C 117.036,1266.23 147.37,1255.4 177.5,1244C 180.956,1242.52 184.289,1240.85 187.5,1239C 193.778,1238.02 199.445,1235.69 204.5,1232C 218.265,1227.28 231.932,1222.28 245.5,1217C 255.262,1210.52 265.929,1206.19 277.5,1204C 290.781,1198.19 304.115,1192.69 317.5,1187.5C 322.165,1186.94 326.498,1185.61 330.5,1183.5C 351.474,1176.73 372.474,1169.73 393.5,1162.5C 410.784,1157.41 427.784,1151.74 444.5,1145.5C 476.645,1135.67 508.645,1125.67 540.5,1115.5C 549.103,1112.24 558.103,1110.24 567.5,1109.5 Z"/></g>
<g><path style="opacity:1" fill="#8fb6c2" d="M 1889.5,1112.5 C 1890.5,1112.41 1891.33,1112.75 1892,1113.5C 1893.97,1117.4 1895.3,1121.4 1896,1125.5C 1893.3,1121.42 1891.13,1117.09 1889.5,1112.5 Z"/></g>
<g><path style="opacity:1" fill="#a1c2cc" d="M 1085.5,1122.5 C 1086.79,1124.05 1087.46,1126.05 1087.5,1128.5C 1087.33,1130.5 1087.17,1132.5 1087,1134.5C 1085.65,1130.64 1085.15,1126.64 1085.5,1122.5 Z"/></g>
<g><path style="opacity:0.94" fill="#96cc98" d="M 540.5,1115.5 C 508.645,1125.67 476.645,1135.67 444.5,1145.5C 444.5,1145.17 444.5,1144.83 444.5,1144.5C 476.016,1133.22 508.016,1123.55 540.5,1115.5 Z"/></g>
<g><path style="opacity:1" fill="#99bcc7" d="M 544.5,1148.5 C 545.478,1148.81 546.145,1149.48 546.5,1150.5C 545,1153.5 543.5,1156.5 542,1159.5C 542.293,1155.77 543.126,1152.1 544.5,1148.5 Z"/></g>
<g><path style="opacity:0.816" fill="#83b79d" d="M 444.5,1144.5 C 444.5,1144.83 444.5,1145.17 444.5,1145.5C 427.784,1151.74 410.784,1157.41 393.5,1162.5C 410.279,1156.13 427.279,1150.13 444.5,1144.5 Z"/></g>
<g><path style="opacity:1" fill="#8db4c1" d="M 2446.5,1166.5 C 2447.25,1165.43 2448.25,1165.26 2449.5,1166C 2451.79,1167.29 2453.79,1168.96 2455.5,1171C 2452.34,1170.09 2449.34,1168.59 2446.5,1166.5 Z"/></g>
<g><path style="opacity:0.91" fill="#8abe9a" d="M 330.5,1183.5 C 326.498,1185.61 322.165,1186.94 317.5,1187.5C 321.491,1185.39 325.824,1184.06 330.5,1183.5 Z"/></g>
<g><path style="opacity:1" fill="#98ce95" d="M 240.5,1204.5 C 241.713,1205.5 241.546,1206.5 240,1207.5C 239.53,1206.42 239.697,1205.42 240.5,1204.5 Z"/></g>
<g><path style="opacity:1" fill="#79ad8f" d="M 199.5,1216.5 C 201.934,1217.35 201.767,1218.35 199,1219.5C 198.53,1218.42 198.697,1217.42 199.5,1216.5 Z"/></g>
<g><path style="opacity:1" fill="#89be95" d="M 181.5,1231.5 C 183.842,1231.77 183.842,1232.61 181.5,1234C 179.083,1235.63 176.583,1237.13 174,1238.5C 173.312,1237.67 173.479,1237 174.5,1236.5C 177.077,1235.06 179.41,1233.39 181.5,1231.5 Z"/></g>
<g><path style="opacity:0.988" fill="#a4d99a" d="M 1516.5,2108.5 C 1518.17,2109.17 1519.83,2109.83 1521.5,2110.5C 1516.56,2112.89 1511.4,2114.23 1506,2114.5C 1503.88,2113.94 1501.71,2113.6 1499.5,2113.5C 1494.25,2114.24 1488.92,2115.24 1483.5,2116.5C 1481.94,2115.93 1480.44,2115.26 1479,2114.5C 1477.2,2116.16 1475.04,2117.16 1472.5,2117.5C 1471.75,2116.62 1471.25,2115.62 1471,2114.5C 1470,2115.83 1469,2117.17 1468,2118.5C 1467.52,2117.55 1467.35,2116.55 1467.5,2115.5C 1465.86,2115.29 1464.36,2115.62 1463,2116.5C 1461.12,2113.98 1458.79,2113.32 1456,2114.5C 1454.15,2112.22 1452.48,2112.22 1451,2114.5C 1450.52,2113.55 1450.35,2112.55 1450.5,2111.5C 1454.43,2109.97 1458.43,2108.64 1462.5,2107.5C 1480.54,2103.45 1498.54,2103.79 1516.5,2108.5 Z"/></g>
<g><path style="opacity:0.983" fill="#fcfefc" d="M 1450.5,2111.5 C 1450.35,2112.55 1450.52,2113.55 1451,2114.5C 1452.48,2112.22 1454.15,2112.22 1456,2114.5C 1458.79,2113.32 1461.12,2113.98 1463,2116.5C 1464.36,2115.62 1465.86,2115.29 1467.5,2115.5C 1467.35,2116.55 1467.52,2117.55 1468,2118.5C 1469,2117.17 1470,2115.83 1471,2114.5C 1471.25,2115.62 1471.75,2116.62 1472.5,2117.5C 1475.04,2117.16 1477.2,2116.16 1479,2114.5C 1480.44,2115.26 1481.94,2115.93 1483.5,2116.5C 1488.92,2115.24 1494.25,2114.24 1499.5,2113.5C 1501.71,2113.6 1503.88,2113.94 1506,2114.5C 1511.4,2114.23 1516.56,2112.89 1521.5,2110.5C 1525.53,2109.89 1529.03,2109.89 1532,2110.5C 1535.62,2116.73 1537.79,2123.4 1538.5,2130.5C 1537.5,2130.5 1536.5,2130.5 1535.5,2130.5C 1532.64,2130.6 1530.31,2131.76 1528.5,2134C 1524.56,2134.92 1520.56,2135.42 1516.5,2135.5C 1499.17,2135.36 1482,2134.02 1465,2131.5C 1458.42,2133.09 1452.09,2132.42 1446,2129.5C 1444.98,2130.63 1444.32,2130.3 1444,2128.5C 1443.67,2128.83 1443.33,2129.17 1443,2129.5C 1442.58,2128.24 1441.75,2127.58 1440.5,2127.5C 1439.47,2126.09 1438.8,2124.42 1438.5,2122.5C 1439.62,2117.62 1441.79,2113.29 1445,2109.5C 1446.58,2110.86 1448.42,2111.53 1450.5,2111.5 Z"/></g>
<g><path style="opacity:0.994" fill="#a2d998" d="M 1440.5,2127.5 C 1441.75,2127.58 1442.58,2128.24 1443,2129.5C 1443.33,2129.17 1443.67,2128.83 1444,2128.5C 1444.32,2130.3 1444.98,2130.63 1446,2129.5C 1452.09,2132.42 1458.42,2133.09 1465,2131.5C 1482,2134.02 1499.17,2135.36 1516.5,2135.5C 1520.56,2135.42 1524.56,2134.92 1528.5,2134C 1530.31,2131.76 1532.64,2130.6 1535.5,2130.5C 1533.01,2270.16 1531.18,2409.83 1530,2549.5C 1552.85,2589.68 1583.35,2622.85 1621.5,2649C 1669.02,2677.84 1716.35,2677.51 1763.5,2648C 1794.79,2625.58 1821.29,2598.42 1843,2566.5C 1842.66,2524.14 1841.83,2481.81 1840.5,2439.5C 1844.22,2441.69 1848.22,2443.36 1852.5,2444.5C 1853.29,2444.07 1854.13,2443.74 1855,2443.5C 1862.11,2444.98 1868.94,2446.65 1875.5,2448.5C 1878.4,2448.77 1879.9,2447.44 1880,2444.5C 1881.46,2446.42 1883.13,2447.09 1885,2446.5C 1888.59,2442.62 1892.76,2441.29 1897.5,2442.5C 1897.34,2441.13 1897.51,2439.79 1898,2438.5C 1898.74,2439.64 1899.57,2439.64 1900.5,2438.5C 1900.96,2432.19 1902.46,2431.86 1905,2437.5C 1905.33,2435.5 1905.67,2433.5 1906,2431.5C 1907.64,2435.42 1909.48,2435.42 1911.5,2431.5C 1910.36,2429.92 1909.86,2428.26 1910,2426.5C 1911.09,2428.35 1912.43,2430.02 1914,2431.5C 1915.07,2430.81 1916.23,2430.31 1917.5,2430C 1919.65,2428.41 1921.48,2425.91 1923,2422.5C 1923.38,2423.06 1923.88,2423.39 1924.5,2423.5C 1929.85,2470.71 1931.69,2518.05 1930,2565.5C 1928.36,2597.08 1918.03,2625.42 1899,2650.5C 1860.4,2702.74 1809.9,2738.24 1747.5,2757C 1695.32,2769.31 1644.99,2763.98 1596.5,2741C 1542.53,2715.03 1498.37,2677.53 1464,2628.5C 1457.55,2617.94 1451.89,2606.94 1447,2595.5C 1444.51,2439.5 1442.34,2283.5 1440.5,2127.5 Z"/></g>
<g><path style="opacity:0.978" fill="#fdfefd" d="M 1924.5,2423.5 C 1923.88,2423.39 1923.38,2423.06 1923,2422.5C 1921.48,2425.91 1919.65,2428.41 1917.5,2430C 1916.23,2430.31 1915.07,2430.81 1914,2431.5C 1912.43,2430.02 1911.09,2428.35 1910,2426.5C 1909.86,2428.26 1910.36,2429.92 1911.5,2431.5C 1909.48,2435.42 1907.64,2435.42 1906,2431.5C 1905.67,2433.5 1905.33,2435.5 1905,2437.5C 1902.46,2431.86 1900.96,2432.19 1900.5,2438.5C 1899.57,2439.64 1898.74,2439.64 1898,2438.5C 1897.51,2439.79 1897.34,2441.13 1897.5,2442.5C 1892.76,2441.29 1888.59,2442.62 1885,2446.5C 1883.13,2447.09 1881.46,2446.42 1880,2444.5C 1879.9,2447.44 1878.4,2448.77 1875.5,2448.5C 1868.94,2446.65 1862.11,2444.98 1855,2443.5C 1854.13,2443.74 1853.29,2444.07 1852.5,2444.5C 1848.22,2443.36 1844.22,2441.69 1840.5,2439.5C 1840.66,2438.13 1840.49,2436.79 1840,2435.5C 1838.66,2436.9 1837.82,2436.57 1837.5,2434.5C 1839.84,2425.49 1843.51,2417.16 1848.5,2409.5C 1849.39,2410.32 1849.72,2411.32 1849.5,2412.5C 1851.68,2412.41 1853.68,2411.75 1855.5,2410.5C 1857.08,2411.46 1858.74,2412.12 1860.5,2412.5C 1865.58,2420.03 1872.58,2422.53 1881.5,2420C 1885.42,2418.9 1889.42,2418.23 1893.5,2418C 1895,2417.17 1896.17,2416 1897,2414.5C 1897.41,2414.96 1897.91,2415.29 1898.5,2415.5C 1900.96,2412.73 1902.96,2409.73 1904.5,2406.5C 1906.95,2404.23 1909.78,2402.56 1913,2401.5C 1919.81,2406.31 1925.64,2412.14 1930.5,2419C 1928.34,2420.33 1926.34,2421.83 1924.5,2423.5 Z"/></g>
<g><path style="opacity:0.965" fill="#a3d999" d="M 1904.5,2406.5 C 1902.96,2409.73 1900.96,2412.73 1898.5,2415.5C 1897.91,2415.29 1897.41,2414.96 1897,2414.5C 1896.17,2416 1895,2417.17 1893.5,2418C 1889.42,2418.23 1885.42,2418.9 1881.5,2420C 1872.58,2422.53 1865.58,2420.03 1860.5,2412.5C 1874.68,2407.25 1889.34,2405.25 1904.5,2406.5 Z"/></g>
</svg>
