<?xml version="1.0" encoding="UTF-8"?>
<!DOCTYPE svg PUBLIC "-//W3C//DTD SVG 1.1//EN" "http://www.w3.org/Graphics/SVG/1.1/DTD/svg11.dtd">
<svg xmlns="http://www.w3.org/2000/svg" version="1.1" width="3000px" height="3000px" style="shape-rendering:geometricPrecision; text-rendering:geometricPrecision; image-rendering:optimizeQuality; fill-rule:evenodd; clip-rule:evenodd" xmlns:xlink="http://www.w3.org/1999/xlink">
<g><path style="opacity:1" fill="#79bd8f" d="M 1319.5,484.5 C 1255.09,524.352 1195.93,571.352 1142,625.5C 1077.77,690.8 1020.27,761.133 969.5,836.5C 895.803,844.342 824.136,860.842 754.5,886C 738.436,892.409 722.436,898.909 706.5,905.5C 752.438,819.606 802.938,736.606 858,656.5C 887.219,615.27 918.719,575.77 952.5,538C 961.182,535.821 969.182,532.321 976.5,527.5C 991.412,521.195 1006.75,515.862 1022.5,511.5C 1039.5,508.083 1056.17,503.75 1072.5,498.5C 1123.91,486.362 1176.08,480.695 1229,481.5C 1259.21,481.57 1289.37,482.57 1319.5,484.5 Z"/></g>
<g><path style="opacity:0.998" fill="#bdea9e" d="M 1319.5,484.5 C 1422.06,489.6 1522.73,506.1 1621.5,534C 1658.74,545.8 1695.41,558.966 1731.5,573.5C 1731.26,574.097 1730.76,574.43 1730,574.5C 1714.15,568.604 1698.32,562.604 1682.5,556.5C 1613.11,583.028 1547.77,617.195 1486.5,659C 1411.46,710.773 1341.79,769.439 1277.5,835C 1272.54,834.65 1267.54,834.15 1262.5,833.5C 1227.09,830.034 1191.59,828.034 1156,827.5C 1110.97,828.131 1066.14,829.798 1021.5,832.5C 1010.63,832.299 999.961,832.965 989.5,834.5C 982.709,834.39 976.043,835.056 969.5,836.5C 1020.27,761.133 1077.77,690.8 1142,625.5C 1195.93,571.352 1255.09,524.352 1319.5,484.5 Z"/></g>
<g><path style="opacity:0.418" fill="#9ed497" d="M 1072.5,498.5 C 1056.17,503.75 1039.5,508.083 1022.5,511.5C 1038.58,505.312 1055.25,500.979 1072.5,498.5 Z"/></g>
<g><path style="opacity:0.993" fill="#bdea9e" d="M 976.5,527.5 C 969.182,532.321 961.182,535.821 952.5,538C 918.719,575.77 887.219,615.27 858,656.5C 802.938,736.606 752.438,819.606 706.5,905.5C 641.505,934.324 580.505,969.824 523.5,1012C 501.257,1029.28 479.257,1046.78 457.5,1064.5C 502.604,968.896 557.77,879.896 623,797.5C 635.929,781.565 649.262,765.898 663,750.5C 690.143,721.691 718.309,693.858 747.5,667C 759.393,658.449 770.726,649.116 781.5,639C 819.249,610.278 858.915,584.278 900.5,561C 919.338,551.749 938.338,542.749 957.5,534C 963.669,531.243 970.003,529.077 976.5,527.5 Z"/></g>
<g><path style="opacity:1" fill="#79bd8f" d="M 1731.5,573.5 C 1732.71,573.932 1733.71,574.599 1734.5,575.5C 1751.5,584.991 1769.5,593.658 1788.5,601.5C 1805.92,612.257 1823.59,622.59 1841.5,632.5C 1854.87,638.852 1866.87,647.186 1877.5,657.5C 1882.64,662.468 1887.97,667.301 1893.5,672C 1897,674.022 1900.34,676.189 1903.5,678.5C 1905.26,680.478 1906.93,682.644 1908.5,685C 1915.72,691.73 1923.06,698.23 1930.5,704.5C 1948.98,723.457 1963.48,745.123 1974,769.5C 1981.83,788.667 1983.5,808.334 1979,828.5C 1975.68,839.828 1969.85,849.494 1961.5,857.5C 1932.3,860.22 1903.3,864.386 1874.5,870C 1751.69,893.532 1631.69,926.698 1514.5,969.5C 1473.5,922.853 1424.84,886.687 1368.5,861C 1334.1,847.734 1298.76,838.567 1262.5,833.5C 1267.54,834.15 1272.54,834.65 1277.5,835C 1341.79,769.439 1411.46,710.773 1486.5,659C 1547.77,617.195 1613.11,583.028 1682.5,556.5C 1698.32,562.604 1714.15,568.604 1730,574.5C 1730.76,574.43 1731.26,574.097 1731.5,573.5 Z"/></g>
<g><path style="opacity:0.388" fill="#aedf9a" d="M 1734.5,575.5 C 1753.32,582.578 1771.32,591.245 1788.5,601.5C 1769.5,593.658 1751.5,584.991 1734.5,575.5 Z"/></g>
<g><path style="opacity:0.999" fill="#79bd8f" d="M 2871.5,844.5 C 2870.6,843.791 2870.26,842.791 2870.5,841.5C 2855.44,842.308 2840.44,843.808 2825.5,846C 2802.79,849.743 2780.12,853.743 2757.5,858C 2671.96,877.846 2588.63,904.512 2507.5,938C 2373.83,994.335 2244.83,1060 2120.5,1135C 2024.88,1192.83 1931.88,1254.33 1841.5,1319.5C 1834.7,1313.88 1828.04,1308.04 1821.5,1302C 1817.89,1298.9 1814.89,1295.4 1812.5,1291.5C 1814.11,1277.01 1816.45,1262.68 1819.5,1248.5C 1821.72,1247.8 1823.55,1246.46 1825,1244.5C 1949.63,1102.53 2081.8,967.698 2221.5,840C 2281.7,786.276 2344.03,735.442 2408.5,687.5C 2500.11,650.355 2594.78,623.855 2692.5,608C 2716.79,605.205 2741.12,602.871 2765.5,601C 2810.44,598.134 2855.11,600.467 2899.5,608C 2909.62,610.54 2919.62,613.374 2929.5,616.5C 2926.03,655.342 2919.53,693.676 2910,731.5C 2899.24,769.962 2886.4,807.629 2871.5,844.5 Z"/></g>
<g><path style="opacity:0.686" fill="#addf9a" d="M 1788.5,601.5 C 1803.17,607.668 1817.17,615.168 1830.5,624C 1834.6,626.37 1838.26,629.203 1841.5,632.5C 1823.59,622.59 1805.92,612.257 1788.5,601.5 Z"/></g>
<g><path style="opacity:0.059" fill="#abdf98" d="M 1877.5,657.5 C 1887.33,662.99 1896,669.99 1903.5,678.5C 1900.34,676.189 1897,674.022 1893.5,672C 1887.97,667.301 1882.64,662.468 1877.5,657.5 Z"/></g>
<g><path style="opacity:0.733" fill="#a8df95" d="M 1903.5,678.5 C 1907.62,681.453 1911.62,684.619 1915.5,688C 1920.34,693.67 1925.34,699.17 1930.5,704.5C 1923.06,698.23 1915.72,691.73 1908.5,685C 1906.93,682.644 1905.26,680.478 1903.5,678.5 Z"/></g>
<g><path style="opacity:0.99" fill="#bdea9e" d="M 2408.5,687.5 C 2344.03,735.442 2281.7,786.276 2221.5,840C 2081.8,967.698 1949.63,1102.53 1825,1244.5C 1823.55,1246.46 1821.72,1247.8 1819.5,1248.5C 1820.68,1242.11 1822.18,1235.78 1824,1229.5C 1855.55,1133.1 1904.88,1047.44 1972,972.5C 1973.94,968.89 1976.28,965.557 1979,962.5C 1997.14,943.362 2015.64,924.528 2034.5,906C 2044.44,899.056 2053.44,891.056 2061.5,882C 2138.92,817.673 2223.92,765.006 2316.5,724C 2343.98,713.06 2371.32,701.727 2398.5,690C 2401.72,688.648 2405.05,687.814 2408.5,687.5 Z"/></g>
<g><path style="opacity:1" fill="#00a388" d="M 1262.5,833.5 C 1298.76,838.567 1334.1,847.734 1368.5,861C 1424.84,886.687 1473.5,922.853 1514.5,969.5C 1557.42,1019.26 1600.92,1068.59 1645,1117.5C 1645.82,1118.82 1646.98,1119.49 1648.5,1119.5C 1675.14,1149.98 1702.64,1179.64 1731,1208.5C 1732.33,1210.5 1733.67,1212.5 1735,1214.5C 1760.67,1240.34 1786.51,1266.01 1812.5,1291.5C 1814.89,1295.4 1817.89,1298.9 1821.5,1302C 1828.04,1308.04 1834.7,1313.88 1841.5,1319.5C 1862.36,1339.26 1885.02,1356.59 1909.5,1371.5C 1920.03,1378.41 1931.69,1382.58 1944.5,1384C 1897.82,1430.81 1855.49,1480.98 1817.5,1534.5C 1816.66,1534.84 1816.33,1535.51 1816.5,1536.5C 1792.64,1569.27 1772.14,1604.27 1755,1641.5C 1730.72,1712.39 1699.22,1779.72 1660.5,1843.5C 1611.99,1923.74 1551.32,1993.74 1478.5,2053.5C 1410.51,2107.92 1334.35,2147.59 1250,2172.5C 1248.97,2172.84 1248.47,2173.5 1248.5,2174.5C 1247.88,2174.39 1247.38,2174.06 1247,2173.5C 1240.32,2176 1233.49,2178 1226.5,2179.5C 1224.8,2179.66 1223.13,2179.49 1221.5,2179C 1193.47,2160.31 1164.13,2143.64 1133.5,2129C 1087.38,2107.12 1040.38,2087.29 992.5,2069.5C 967.564,2060.76 942.231,2052.93 916.5,2046C 905.082,2044.05 893.748,2041.72 882.5,2039C 869.572,2036.8 856.572,2035.3 843.5,2034.5C 820.627,2032.04 797.961,2033.7 775.5,2039.5C 780.304,2058.34 785.804,2077 792,2095.5C 801.026,2119.97 810.192,2144.31 819.5,2168.5C 798.378,2163.64 777.378,2158.3 756.5,2152.5C 728.217,2144.76 700.217,2136.1 672.5,2126.5C 653.152,2119 633.819,2111.17 614.5,2103C 613.072,2102.42 611.738,2102.59 610.5,2103.5C 593.683,2095.39 576.683,2087.56 559.5,2080C 468.413,2036 384.747,1981.34 308.5,1916C 302.694,1911.11 297.36,1905.77 292.5,1900C 287.017,1895.09 281.351,1890.43 275.5,1886C 266.333,1875.5 256.5,1865.67 246,1856.5C 237.375,1846.2 228.541,1836.2 219.5,1826.5C 221.149,1809.77 220.649,1793.1 218,1776.5C 211.545,1744.68 203.212,1713.35 193,1682.5C 186.152,1664.47 177.486,1647.47 167,1631.5C 163.535,1627.03 159.702,1622.87 155.5,1619C 149.1,1614.48 142.767,1609.98 136.5,1605.5C 139.654,1558.23 149.154,1512.23 165,1467.5C 172.975,1448.18 180.975,1428.85 189,1409.5C 212.417,1361.81 239.417,1316.48 270,1273.5C 317.256,1207.88 370.09,1146.72 428.5,1090C 438.386,1081.61 448.052,1073.11 457.5,1064.5C 479.257,1046.78 501.257,1029.28 523.5,1012C 580.505,969.824 641.505,934.324 706.5,905.5C 722.436,898.909 738.436,892.409 754.5,886C 824.136,860.842 895.803,844.342 969.5,836.5C 976.043,835.056 982.709,834.39 989.5,834.5C 1000.38,834.758 1011.04,834.091 1021.5,832.5C 1066.14,829.798 1110.97,828.131 1156,827.5C 1191.59,828.034 1227.09,830.034 1262.5,833.5 Z"/></g>
<g><path style="opacity:1" fill="#61c692" d="M 1021.5,832.5 C 1011.04,834.091 1000.38,834.758 989.5,834.5C 999.961,832.965 1010.63,832.299 1021.5,832.5 Z"/></g>
<g><path style="opacity:1" fill="#bdea9e" d="M 2871.5,844.5 C 2868.48,850.534 2865.48,856.534 2862.5,862.5C 2856.47,872.221 2851.81,882.555 2848.5,893.5C 2836.04,919.764 2822.04,945.097 2806.5,969.5C 2806.63,968.761 2806.46,968.094 2806,967.5C 2803.4,972.729 2800.07,977.396 2796,981.5C 2795.51,982.793 2795.34,984.127 2795.5,985.5C 2783.45,1001.55 2771.79,1017.88 2760.5,1034.5C 2759.97,1036.23 2758.97,1037.56 2757.5,1038.5C 2750.21,1045.76 2743.87,1053.76 2738.5,1062.5C 2736.88,1065.78 2734.55,1068.45 2731.5,1070.5C 2726.79,1074.9 2722.29,1079.57 2718,1084.5C 2716.25,1086.73 2714.75,1089.07 2713.5,1091.5C 2712.83,1092.83 2711.83,1093.83 2710.5,1094.5C 2694.37,1111.47 2677.7,1127.97 2660.5,1144C 2605.94,1155.89 2551.61,1168.89 2497.5,1183C 2304.74,1236.92 2114.41,1298.25 1926.5,1367C 1920.93,1368.64 1915.26,1370.14 1909.5,1371.5C 1885.02,1356.59 1862.36,1339.26 1841.5,1319.5C 1931.88,1254.33 2024.88,1192.83 2120.5,1135C 2244.83,1060 2373.83,994.335 2507.5,938C 2588.63,904.512 2671.96,877.846 2757.5,858C 2780.12,853.743 2802.79,849.743 2825.5,846C 2840.44,843.808 2855.44,842.308 2870.5,841.5C 2870.26,842.791 2870.6,843.791 2871.5,844.5 Z"/></g>
<g><path style="opacity:0.996" fill="#bdea9e" d="M 1961.5,857.5 C 1956.28,864.9 1950.44,871.9 1944,878.5C 1909.01,914.159 1872.18,947.659 1833.5,979C 1773.14,1027.52 1711.48,1074.35 1648.5,1119.5C 1646.98,1119.49 1645.82,1118.82 1645,1117.5C 1600.92,1068.59 1557.42,1019.26 1514.5,969.5C 1631.69,926.698 1751.69,893.532 1874.5,870C 1903.3,864.386 1932.3,860.22 1961.5,857.5 Z"/></g>
<g><path style="opacity:0.384" fill="#98d496" d="M 2862.5,862.5 C 2862.66,863.873 2862.49,865.207 2862,866.5C 2857.77,875.735 2853.27,884.735 2848.5,893.5C 2851.81,882.555 2856.47,872.221 2862.5,862.5 Z"/></g>
<g><path style="opacity:0.4" fill="#84bb88" d="M 2806.5,969.5 C 2803.61,975.388 2799.94,980.722 2795.5,985.5C 2795.34,984.127 2795.51,982.793 2796,981.5C 2800.07,977.396 2803.4,972.729 2806,967.5C 2806.46,968.094 2806.63,968.761 2806.5,969.5 Z"/></g>
<g><path style="opacity:0.251" fill="#8dc991" d="M 2795.5,985.5 C 2789.25,995.6 2782.75,1005.6 2776,1015.5C 2771.29,1022.27 2766.13,1028.6 2760.5,1034.5C 2771.79,1017.88 2783.45,1001.55 2795.5,985.5 Z"/></g>
<g><path style="opacity:0.451" fill="#8dc792" d="M 2757.5,1038.5 C 2752.61,1047.6 2746.28,1055.6 2738.5,1062.5C 2743.87,1053.76 2750.21,1045.76 2757.5,1038.5 Z"/></g>
<g><path style="opacity:0.4" fill="#82c38b" d="M 2731.5,1070.5 C 2727.03,1078.65 2721.03,1085.65 2713.5,1091.5C 2714.75,1089.07 2716.25,1086.73 2718,1084.5C 2722.29,1079.57 2726.79,1074.9 2731.5,1070.5 Z"/></g>
<g><path style="opacity:1" fill="#78bc8e" d="M 1405.5,1821.5 C 1404.15,1816.5 1402.48,1811.5 1400.5,1806.5C 1329.97,1850.88 1252.97,1871.38 1169.5,1868C 1130.33,1865.1 1092.66,1856.1 1056.5,1841C 1010.27,1820.56 967.937,1794.06 929.5,1761.5C 920.098,1775.29 910.931,1789.29 902,1803.5C 901.333,1804.5 901.333,1805.5 902,1806.5C 962.926,1876.41 1036.76,1927.91 1123.5,1961C 1193.72,1985.45 1265.39,1990.79 1338.5,1977C 1345.7,1969.63 1353.04,1962.46 1360.5,1955.5C 1325.45,1996.38 1282.45,2025.88 1231.5,2044C 1168.07,2062.32 1109.07,2052.99 1054.5,2016C 1017.45,1989.95 985.287,1958.79 958,1922.5C 933.426,1889.7 911.093,1855.37 891,1819.5C 868.209,1851.4 844.209,1882.4 819,1912.5C 851.339,1839.44 881.339,1765.1 909,1689.5C 919.635,1656.94 929.635,1624.27 939,1591.5C 945.832,1564.18 950.832,1536.51 954,1508.5C 955.759,1487.88 954.093,1467.54 949,1447.5C 938.35,1406.89 923.35,1367.89 904,1330.5C 867.44,1259.68 825.606,1192.34 778.5,1128.5C 851.058,1189.24 911.224,1260.57 959,1342.5C 980.533,1381.24 996.2,1422.24 1006,1465.5C 1013.8,1511.02 1011.47,1556.02 999,1600.5C 991.406,1625.95 983.072,1650.95 974,1675.5C 991.591,1692.55 1012.42,1703.71 1036.5,1709C 1064.11,1715.81 1092.11,1718.14 1120.5,1716C 1136.25,1715.06 1151.91,1713.39 1167.5,1711C 1202.54,1703.07 1237.87,1701.41 1273.5,1706C 1318.79,1712.04 1355.29,1732.88 1383,1768.5C 1391.23,1780.28 1397.89,1792.95 1403,1806.5C 1404.05,1811.47 1404.88,1816.47 1405.5,1821.5 Z"/></g>
<g><path style="opacity:0.998" fill="#79bd8e" d="M 2710.5,1094.5 C 2708.91,1097.27 2707.08,1099.93 2705,1102.5C 2695.64,1111.53 2686.64,1120.86 2678,1130.5C 2603.56,1199.92 2526.06,1265.42 2445.5,1327C 2417.86,1347.16 2389.19,1365.83 2359.5,1383C 2348.17,1388.5 2336.5,1393.16 2324.5,1397C 2395.87,1438.57 2460.54,1489.07 2518.5,1548.5C 2526.81,1558.31 2535.65,1567.65 2545,1576.5C 2549.74,1582.4 2554.24,1588.4 2558.5,1594.5C 2557.04,1593.54 2555.71,1592.38 2554.5,1591C 2526.15,1590.26 2497.82,1590.6 2469.5,1592C 2427.45,1596.84 2385.45,1602.17 2343.5,1608C 2273.18,1613.45 2202.85,1613.79 2132.5,1609C 2023.89,1598.49 1918.89,1573.66 1817.5,1534.5C 1855.49,1480.98 1897.82,1430.81 1944.5,1384C 1931.69,1382.58 1920.03,1378.41 1909.5,1371.5C 1915.26,1370.14 1920.93,1368.64 1926.5,1367C 2114.41,1298.25 2304.74,1236.92 2497.5,1183C 2551.61,1168.89 2605.94,1155.89 2660.5,1144C 2677.7,1127.97 2694.37,1111.47 2710.5,1094.5 Z"/></g>
<g><path style="opacity:1" fill="#bdea9e" d="M 1432.5,1585.5 C 1434.44,1570.72 1435.44,1555.72 1435.5,1540.5C 1436.73,1491.82 1436.73,1443.15 1435.5,1394.5C 1435.81,1380.26 1434.81,1366.26 1432.5,1352.5C 1429.36,1312.85 1426.19,1273.18 1423,1233.5C 1422.33,1224.83 1422.33,1216.17 1423,1207.5C 1423.79,1202.37 1426.62,1199.87 1431.5,1200C 1437.74,1205.24 1442.9,1211.41 1447,1218.5C 1465.71,1255.63 1479.04,1294.63 1487,1335.5C 1504.44,1428.36 1503.44,1521.03 1484,1613.5C 1475.6,1648.6 1463.6,1682.26 1448,1714.5C 1443.96,1722.54 1438.46,1729.37 1431.5,1735C 1429.74,1735.8 1428.07,1735.63 1426.5,1734.5C 1424.45,1731.51 1423.28,1728.18 1423,1724.5C 1422.33,1713.83 1422.33,1703.17 1423,1692.5C 1426.7,1656.88 1429.86,1621.21 1432.5,1585.5 Z"/></g>
<g><path style="opacity:1" fill="#fbfcfc" d="M 594.5,1279.5 C 641.588,1276.47 681.088,1292.14 713,1326.5C 749.513,1373.78 754.179,1424.12 727,1477.5C 704.274,1516.31 670.441,1538.81 625.5,1545C 570.14,1549.01 526.974,1528.18 496,1482.5C 467.426,1429.46 470.426,1378.46 505,1329.5C 528.389,1301.22 558.222,1284.56 594.5,1279.5 Z"/></g>
<g><path style="opacity:1" fill="#231f20" d="M 723.5,1373.5 C 724.259,1378.43 725.592,1383.1 727.5,1387.5C 730.383,1400.06 731.05,1412.72 729.5,1425.5C 728.419,1428.63 727.753,1431.96 727.5,1435.5C 727.58,1438.78 726.913,1441.78 725.5,1444.5C 724.129,1446.94 723.129,1449.6 722.5,1452.5C 705.93,1492.47 676.263,1516.31 633.5,1524C 625.173,1524.5 616.84,1524.67 608.5,1524.5C 603.731,1523.11 598.731,1522.44 593.5,1522.5C 553.799,1512.96 526.299,1489.3 511,1451.5C 496.701,1410.01 503.368,1372.34 531,1338.5C 563.779,1304.09 603.279,1292.93 649.5,1305C 685.02,1316.24 709.687,1339.07 723.5,1373.5 Z"/></g>
<g><path style="opacity:1" fill="#fdfdfd" d="M 596.5,1371.5 C 594.95,1361.75 595.283,1352.08 597.5,1342.5C 608.812,1319.18 627.146,1310.34 652.5,1316C 672.824,1322.66 683.824,1336.66 685.5,1358C 684.394,1382.88 671.727,1398.21 647.5,1404C 621.761,1406.74 604.761,1395.91 596.5,1371.5 Z"/></g>
<g><path style="opacity:1" fill="#bcea9e" d="M 1144.5,1428.5 C 1145.24,1443.82 1145.57,1459.16 1145.5,1474.5C 1144.75,1479.46 1144.41,1484.46 1144.5,1489.5C 1142.52,1498.65 1140.85,1507.99 1139.5,1517.5C 1135.96,1537.31 1128.79,1555.64 1118,1572.5C 1109.86,1583.45 1102.53,1583.12 1096,1571.5C 1092.37,1558.1 1090.04,1544.43 1089,1530.5C 1086.1,1470.52 1084.43,1410.52 1084,1350.5C 1084.56,1340.38 1086.89,1330.71 1091,1321.5C 1093.91,1318.61 1097.41,1317.77 1101.5,1319C 1105.46,1321.23 1108.96,1324.07 1112,1327.5C 1127.09,1351.41 1137.09,1377.41 1142,1405.5C 1143.54,1413.1 1144.37,1420.76 1144.5,1428.5 Z"/></g>
<g><path style="opacity:1" fill="#bbe99e" d="M 1588.5,1411.5 C 1589.38,1433.15 1589.71,1454.82 1589.5,1476.5C 1588.76,1493.61 1586.93,1510.61 1584,1527.5C 1582.94,1533.03 1581.27,1538.36 1579,1543.5C 1576.55,1545.01 1574.88,1544.35 1574,1541.5C 1571.61,1528.28 1570.28,1514.95 1570,1501.5C 1568.68,1469.51 1567.84,1437.51 1567.5,1405.5C 1567.27,1382.15 1567.6,1358.82 1568.5,1335.5C 1568.81,1334.52 1569.48,1333.86 1570.5,1333.5C 1571.81,1334.31 1572.98,1335.31 1574,1336.5C 1578.73,1347.75 1582.06,1359.42 1584,1371.5C 1586.16,1384.76 1587.66,1398.1 1588.5,1411.5 Z"/></g>
<g><path style="opacity:1" fill="#bcea9e" d="M 1222.5,1491.5 C 1220.85,1455.8 1221.18,1420.13 1223.5,1384.5C 1223.48,1374.1 1225.31,1364.1 1229,1354.5C 1231.08,1350.42 1233.91,1346.92 1237.5,1344C 1240.23,1343.18 1242.89,1343.35 1245.5,1344.5C 1250.14,1347.31 1253.98,1350.98 1257,1355.5C 1270.7,1379.29 1278.03,1404.96 1279,1432.5C 1280.82,1450.18 1280.82,1467.85 1279,1485.5C 1276.81,1506.35 1271.48,1526.35 1263,1545.5C 1249.45,1566.68 1238.45,1565.35 1230,1541.5C 1226.78,1524.81 1224.28,1508.14 1222.5,1491.5 Z"/></g>
<g><path style="opacity:1" fill="#86d597" d="M 1568.5,1335.5 C 1567.6,1358.82 1567.27,1382.15 1567.5,1405.5C 1566.34,1383.67 1566.17,1361.67 1567,1339.5C 1567.21,1337.94 1567.71,1336.61 1568.5,1335.5 Z"/></g>
<g><path style="opacity:1" fill="#aaa9a9" d="M 597.5,1342.5 C 595.283,1352.08 594.95,1361.75 596.5,1371.5C 595.732,1370.74 595.232,1369.74 595,1368.5C 594.333,1361.83 594.333,1355.17 595,1348.5C 595.566,1346.28 596.4,1344.28 597.5,1342.5 Z"/></g>
<g><path style="opacity:1" fill="#bbea9e" d="M 1666.5,1356.5 C 1669.62,1356.64 1672.12,1357.98 1674,1360.5C 1680.58,1372.72 1684.91,1385.72 1687,1399.5C 1691.59,1428.84 1691.59,1458.17 1687,1487.5C 1685.45,1497.82 1682.11,1507.49 1677,1516.5C 1674,1520.5 1671,1520.5 1668,1516.5C 1664.59,1509.87 1662.26,1502.87 1661,1495.5C 1655.86,1461.68 1654.2,1427.68 1656,1393.5C 1656.94,1382.17 1659.28,1371.17 1663,1360.5C 1664.38,1359.29 1665.54,1357.96 1666.5,1356.5 Z"/></g>
<g><path style="opacity:1" fill="#64c793" d="M 1432.5,1352.5 C 1434.81,1366.26 1435.81,1380.26 1435.5,1394.5C 1433.85,1380.7 1432.85,1366.7 1432.5,1352.5 Z"/></g>
<g><path style="opacity:1" fill="#858383" d="M 723.5,1373.5 C 725.816,1377.79 727.15,1382.46 727.5,1387.5C 725.592,1383.1 724.259,1378.43 723.5,1373.5 Z"/></g>
<g><path style="opacity:1" fill="#bcea9e" d="M 1382.5,1430.5 C 1385.15,1452.5 1385.15,1474.5 1382.5,1496.5C 1380.23,1503.25 1378.39,1510.25 1377,1517.5C 1375.58,1521.87 1373.08,1525.37 1369.5,1528C 1367.83,1528.67 1366.17,1528.67 1364.5,1528C 1362.57,1525.74 1361.07,1523.24 1360,1520.5C 1357.51,1508.57 1355.68,1496.57 1354.5,1484.5C 1354.31,1464.15 1354.65,1443.82 1355.5,1423.5C 1356.56,1416.49 1357.72,1409.49 1359,1402.5C 1362.01,1393.17 1366.67,1392.17 1373,1399.5C 1377.92,1409.41 1381.09,1419.75 1382.5,1430.5 Z"/></g>
<g><path style="opacity:1" fill="#66c793" d="M 1223.5,1384.5 C 1221.18,1420.13 1220.85,1455.8 1222.5,1491.5C 1220.95,1473.69 1220.28,1455.69 1220.5,1437.5C 1220.43,1420.48 1220.93,1403.48 1222,1386.5C 1222.28,1385.58 1222.78,1384.92 1223.5,1384.5 Z"/></g>
<g><path style="opacity:1" fill="#9a9899" d="M 729.5,1425.5 C 729.664,1428.19 729.497,1430.85 729,1433.5C 728.722,1434.42 728.222,1435.08 727.5,1435.5C 727.753,1431.96 728.419,1428.63 729.5,1425.5 Z"/></g>
<g><path style="opacity:1" fill="#75ce95" d="M 1588.5,1411.5 C 1589.31,1413.63 1589.81,1415.96 1590,1418.5C 1590.83,1438 1590.66,1457.34 1589.5,1476.5C 1589.71,1454.82 1589.38,1433.15 1588.5,1411.5 Z"/></g>
<g><path style="opacity:1" fill="#60c693" d="M 1355.5,1423.5 C 1354.65,1443.82 1354.31,1464.15 1354.5,1484.5C 1353.34,1466 1353.17,1447.34 1354,1428.5C 1354.2,1426.62 1354.7,1424.95 1355.5,1423.5 Z"/></g>
<g><path style="opacity:1" fill="#939192" d="M 725.5,1444.5 C 725.655,1447.72 724.655,1450.38 722.5,1452.5C 723.129,1449.6 724.129,1446.94 725.5,1444.5 Z"/></g>
<g><path style="opacity:1" fill="#5ac492" d="M 1144.5,1428.5 C 1146.01,1437.45 1146.67,1446.62 1146.5,1456C 1146.5,1462.34 1146.17,1468.51 1145.5,1474.5C 1145.57,1459.16 1145.24,1443.82 1144.5,1428.5 Z"/></g>
<g><path style="opacity:1" fill="#46bb8f" d="M 1382.5,1430.5 C 1383.98,1434.23 1384.81,1438.23 1385,1442.5C 1385.67,1455.17 1385.67,1467.83 1385,1480.5C 1384.48,1486.03 1383.65,1491.36 1382.5,1496.5C 1385.15,1474.5 1385.15,1452.5 1382.5,1430.5 Z"/></g>
<g><path style="opacity:1" fill="#68c893" d="M 1144.5,1489.5 C 1144.12,1499.2 1142.45,1508.53 1139.5,1517.5C 1140.85,1507.99 1142.52,1498.65 1144.5,1489.5 Z"/></g>
<g><path style="opacity:1" fill="#5b5859" d="M 593.5,1522.5 C 598.731,1522.44 603.731,1523.11 608.5,1524.5C 603.25,1524.7 598.25,1524.03 593.5,1522.5 Z"/></g>
<g><path style="opacity:1" fill="#bdea9e" d="M 1817.5,1534.5 C 1918.89,1573.66 2023.89,1598.49 2132.5,1609C 2202.85,1613.79 2273.18,1613.45 2343.5,1608C 2385.45,1602.17 2427.45,1596.84 2469.5,1592C 2497.82,1590.6 2526.15,1590.26 2554.5,1591C 2555.71,1592.38 2557.04,1593.54 2558.5,1594.5C 2561.46,1596.96 2564.3,1599.63 2567,1602.5C 2599.57,1643.27 2627.9,1686.94 2652,1733.5C 2687.81,1804.94 2708.14,1880.61 2713,1960.5C 2713.5,1979.83 2713.67,1999.16 2713.5,2018.5C 2712.78,2018.92 2712.28,2019.58 2712,2020.5C 2627.62,1930.54 2525.12,1871.37 2404.5,1843C 2364.08,1833.32 2323.08,1827.99 2281.5,1827C 2199.97,1818.16 2120.3,1801.16 2042.5,1776C 1979.61,1755.54 1918.61,1730.71 1859.5,1701.5C 1857.96,1693.05 1855.13,1685.05 1851,1677.5C 1847.29,1665.51 1843.12,1653.85 1838.5,1642.5C 1827.96,1611.87 1820.29,1580.54 1815.5,1548.5C 1815.31,1544.43 1815.64,1540.43 1816.5,1536.5C 1816.33,1535.51 1816.66,1534.84 1817.5,1534.5 Z"/></g>
<g><path style="opacity:0.995" fill="#78bd8e" d="M 1816.5,1536.5 C 1815.64,1540.43 1815.31,1544.43 1815.5,1548.5C 1805.23,1606.64 1798.07,1665.31 1794,1724.5C 1790.81,1772.35 1792.47,1820.02 1799,1867.5C 1800.56,1875.86 1802.23,1884.19 1804,1892.5C 1812.37,1918.3 1818.37,1944.63 1822,1971.5C 1825.11,2016.96 1817.77,2060.63 1800,2102.5C 1786.76,2132.67 1769.76,2160.34 1749,2185.5C 1739.52,2194.64 1730.36,2204.14 1721.5,2214C 1715.55,2217.95 1710.22,2222.62 1705.5,2228C 1665.34,2260.16 1619.67,2280.49 1568.5,2289C 1561.2,2290.04 1553.87,2290.54 1546.5,2290.5C 1551.43,2288.7 1556.76,2287.53 1562.5,2287C 1583.97,2261.9 1601.8,2234.4 1616,2204.5C 1625.32,2182.21 1633.65,2159.54 1641,2136.5C 1664.25,2039.94 1670.75,1942.28 1660.5,1843.5C 1699.22,1779.72 1730.72,1712.39 1755,1641.5C 1772.14,1604.27 1792.64,1569.27 1816.5,1536.5 Z"/></g>
<g><path style="opacity:1" fill="#71cc95" d="M 1435.5,1540.5 C 1435.44,1555.72 1434.44,1570.72 1432.5,1585.5C 1432.67,1570.29 1433.67,1555.29 1435.5,1540.5 Z"/></g>
<g><path style="opacity:0.99" fill="#bdea9e" d="M 136.5,1605.5 C 142.767,1609.98 149.1,1614.48 155.5,1619C 159.702,1622.87 163.535,1627.03 167,1631.5C 177.486,1647.47 186.152,1664.47 193,1682.5C 203.212,1713.35 211.545,1744.68 218,1776.5C 220.649,1793.1 221.149,1809.77 219.5,1826.5C 213.419,1852.04 198.085,1859.88 173.5,1850C 170.328,1848.25 167.328,1846.25 164.5,1844C 150.848,1831.67 139.348,1817.5 130,1801.5C 114.667,1772.83 99.3333,1744.17 84,1715.5C 81.6283,1707.75 78.9616,1700.08 76,1692.5C 70.1857,1675.95 68.1857,1658.95 70,1641.5C 73.3264,1625.35 82.4931,1613.85 97.5,1607C 110.359,1601.75 123.359,1601.25 136.5,1605.5 Z"/></g>
<g><path style="opacity:0.869" fill="#9dd494" d="M 1838.5,1642.5 C 1843.12,1653.85 1847.29,1665.51 1851,1677.5C 1855.13,1685.05 1857.96,1693.05 1859.5,1701.5C 1859.5,1701.83 1859.5,1702.17 1859.5,1702.5C 1850.85,1683.17 1843.85,1663.17 1838.5,1642.5 Z"/></g>
<g><path style="opacity:1" fill="#06a388" d="M 125.5,1684.5 C 135.682,1685.17 143.515,1689.84 149,1698.5C 158.096,1717.89 163.596,1738.22 165.5,1759.5C 166.263,1766.22 164.93,1772.39 161.5,1778C 157.361,1780.86 153.028,1781.19 148.5,1779C 141.933,1773.43 136.433,1766.93 132,1759.5C 123.362,1744.22 116.362,1728.22 111,1711.5C 107.556,1697.71 112.389,1688.71 125.5,1684.5 Z"/></g>
<g><path style="opacity:0.999" fill="#79bd8f" d="M 1859.5,1701.5 C 1918.61,1730.71 1979.61,1755.54 2042.5,1776C 2120.3,1801.16 2199.97,1818.16 2281.5,1827C 2323.08,1827.99 2364.08,1833.32 2404.5,1843C 2525.12,1871.37 2627.62,1930.54 2712,2020.5C 2712.28,2019.58 2712.78,2018.92 2713.5,2018.5C 2710.41,2120.81 2689.24,2219.15 2650,2313.5C 2644.58,2326 2638.42,2338 2631.5,2349.5C 2632.93,2346.99 2633.43,2344.32 2633,2341.5C 2591.26,2245.43 2522.43,2176.26 2426.5,2134C 2409.01,2126.28 2391.01,2119.95 2372.5,2115C 2294.57,2090.21 2221.24,2055.87 2152.5,2012C 2070.06,1958.27 1993.4,1896.93 1922.5,1828C 1921.56,1827.31 1920.9,1827.47 1920.5,1828.5C 1897.01,1788.18 1876.68,1746.18 1859.5,1702.5C 1859.5,1702.17 1859.5,1701.83 1859.5,1701.5 Z"/></g>
<g><path style="opacity:1" fill="#bdea9e" d="M 1405.5,1821.5 C 1407.23,1826.99 1408.23,1832.66 1408.5,1838.5C 1408.83,1848.19 1408.5,1857.86 1407.5,1867.5C 1405.16,1877.51 1402.83,1887.51 1400.5,1897.5C 1394.69,1907.46 1389.19,1917.46 1384,1927.5C 1375.93,1936.63 1368.1,1945.96 1360.5,1955.5C 1353.04,1962.46 1345.7,1969.63 1338.5,1977C 1265.39,1990.79 1193.72,1985.45 1123.5,1961C 1036.76,1927.91 962.926,1876.41 902,1806.5C 901.333,1805.5 901.333,1804.5 902,1803.5C 910.931,1789.29 920.098,1775.29 929.5,1761.5C 967.937,1794.06 1010.27,1820.56 1056.5,1841C 1092.66,1856.1 1130.33,1865.1 1169.5,1868C 1252.97,1871.38 1329.97,1850.88 1400.5,1806.5C 1402.48,1811.5 1404.15,1816.5 1405.5,1821.5 Z"/></g>
<g><path style="opacity:0.996" fill="#bdea9e" d="M 2631.5,2349.5 C 2631.34,2351.15 2630.67,2352.49 2629.5,2353.5C 2619.92,2369.66 2610.58,2386 2601.5,2402.5C 2595.82,2415.5 2588.15,2427.17 2578.5,2437.5C 2565.83,2454.13 2552.67,2470.46 2539,2486.5C 2524.37,2503.47 2508.7,2519.47 2492,2534.5C 2491.54,2535.09 2491.37,2535.76 2491.5,2536.5C 2477.51,2550.33 2462.17,2562.49 2445.5,2573C 2444.55,2573.48 2443.55,2573.65 2442.5,2573.5C 2436.17,2517.37 2425.67,2462.03 2411,2407.5C 2403.45,2382.85 2395.12,2358.52 2386,2334.5C 2375.61,2311.38 2363.94,2289.05 2351,2267.5C 2345.25,2260.99 2340.25,2253.99 2336,2246.5C 2326.47,2236.97 2316.97,2227.47 2307.5,2218C 2290,2207.08 2272.33,2196.42 2254.5,2186C 2117.11,2091.11 2005.78,1971.94 1920.5,1828.5C 1920.9,1827.47 1921.56,1827.31 1922.5,1828C 1993.4,1896.93 2070.06,1958.27 2152.5,2012C 2221.24,2055.87 2294.57,2090.21 2372.5,2115C 2391.01,2119.95 2409.01,2126.28 2426.5,2134C 2522.43,2176.26 2591.26,2245.43 2633,2341.5C 2633.43,2344.32 2632.93,2346.99 2631.5,2349.5 Z"/></g>
<g><path style="opacity:0.999" fill="#bdea9e" d="M 1660.5,1843.5 C 1670.75,1942.28 1664.25,2039.94 1641,2136.5C 1633.65,2159.54 1625.32,2182.21 1616,2204.5C 1601.8,2234.4 1583.97,2261.9 1562.5,2287C 1556.76,2287.53 1551.43,2288.7 1546.5,2290.5C 1520.54,2291.88 1494.87,2289.38 1469.5,2283C 1449.57,2277.77 1429.91,2271.77 1410.5,2265C 1397.52,2259.63 1384.85,2253.79 1372.5,2247.5C 1414,2211.51 1443.84,2167.51 1462,2115.5C 1469.07,2095.2 1474.57,2074.54 1478.5,2053.5C 1551.32,1993.74 1611.99,1923.74 1660.5,1843.5 Z"/></g>
<g><path style="opacity:1" fill="#6fbe8f" d="M 1408.5,1838.5 C 1409.66,1848.66 1409.83,1858.99 1409,1869.5C 1406.87,1876.35 1405.2,1883.35 1404,1890.5C 1403.1,1893.07 1401.93,1895.4 1400.5,1897.5C 1402.83,1887.51 1405.16,1877.51 1407.5,1867.5C 1408.5,1857.86 1408.83,1848.19 1408.5,1838.5 Z"/></g>
<g><path style="opacity:0.997" fill="#bdea9e" d="M 843.5,2034.5 C 885.733,2115.65 936.9,2190.65 997,2259.5C 1027.67,2293.51 1060.84,2324.68 1096.5,2353C 1137.16,2383.93 1181.5,2408.6 1229.5,2427C 1243.52,2431.84 1257.52,2436.34 1271.5,2440.5C 1257.06,2449.55 1241.72,2456.72 1225.5,2462C 1191.15,2475.9 1155.48,2483.74 1118.5,2485.5C 1090.98,2485.62 1064.98,2479.45 1040.5,2467C 1032.33,2462.08 1023.99,2457.41 1015.5,2453C 1003.83,2444 992.167,2435 980.5,2426C 970.669,2415.17 960.503,2404.67 950,2394.5C 943.703,2385.57 936.703,2377.24 929,2369.5C 923.836,2361.18 918.169,2353.18 912,2345.5C 908.116,2374.84 897.783,2401.51 881,2425.5C 870.666,2438.08 858.166,2447.92 843.5,2455C 827.148,2461.64 810.148,2465.14 792.5,2465.5C 794.419,2422.05 792.919,2378.72 788,2335.5C 781.169,2273.85 770.669,2212.85 756.5,2152.5C 777.378,2158.3 798.378,2163.64 819.5,2168.5C 810.192,2144.31 801.026,2119.97 792,2095.5C 785.804,2077 780.304,2058.34 775.5,2039.5C 797.961,2033.7 820.627,2032.04 843.5,2034.5 Z"/></g>
<g><path style="opacity:1" fill="#79bd8f" d="M 843.5,2034.5 C 856.572,2035.3 869.572,2036.8 882.5,2039C 893.748,2041.72 905.082,2044.05 916.5,2046C 942.231,2052.93 967.564,2060.76 992.5,2069.5C 1046.95,2139.15 1107.61,2203.98 1174.5,2264C 1202.69,2288.2 1232.02,2310.86 1262.5,2332C 1286.43,2347.3 1311.43,2360.46 1337.5,2371.5C 1323,2401.67 1301,2424.67 1271.5,2440.5C 1257.52,2436.34 1243.52,2431.84 1229.5,2427C 1181.5,2408.6 1137.16,2383.93 1096.5,2353C 1060.84,2324.68 1027.67,2293.51 997,2259.5C 936.9,2190.65 885.733,2115.65 843.5,2034.5 Z"/></g>
<g><path style="opacity:0.997" fill="#78bc8e" d="M 1478.5,2053.5 C 1474.57,2074.54 1469.07,2095.2 1462,2115.5C 1443.84,2167.51 1414,2211.51 1372.5,2247.5C 1362.68,2243.5 1353.01,2239 1343.5,2234C 1329.48,2225.97 1315.48,2217.97 1301.5,2210C 1283.8,2198.16 1266.14,2186.32 1248.5,2174.5C 1248.47,2173.5 1248.97,2172.84 1250,2172.5C 1334.35,2147.59 1410.51,2107.92 1478.5,2053.5 Z"/></g>
<g><path style="opacity:0.996" fill="#bdea9e" d="M 992.5,2069.5 C 1040.38,2087.29 1087.38,2107.12 1133.5,2129C 1164.13,2143.64 1193.47,2160.31 1221.5,2179C 1223.13,2179.49 1224.8,2179.66 1226.5,2179.5C 1235.08,2186.47 1244.08,2192.97 1253.5,2199C 1260.58,2206.09 1268.25,2212.42 1276.5,2218C 1285.97,2228.47 1295.8,2238.64 1306,2248.5C 1318.39,2263.59 1328.39,2280.26 1336,2298.5C 1344.05,2322.7 1344.55,2347.03 1337.5,2371.5C 1311.43,2360.46 1286.43,2347.3 1262.5,2332C 1232.02,2310.86 1202.69,2288.2 1174.5,2264C 1107.61,2203.98 1046.95,2139.15 992.5,2069.5 Z"/></g>
<g><path style="opacity:0.993" fill="#bdea9e" d="M 672.5,2126.5 C 680.605,2184.29 682.438,2242.29 678,2300.5C 674.965,2339.98 664.465,2377.31 646.5,2412.5C 604.518,2383.24 581.018,2342.9 576,2291.5C 572.638,2244.4 578.304,2198.4 593,2153.5C 599.142,2136.89 604.975,2120.23 610.5,2103.5C 611.738,2102.59 613.072,2102.42 614.5,2103C 633.819,2111.17 653.152,2119 672.5,2126.5 Z"/></g>
<g><path style="opacity:0.999" fill="#79bd8f" d="M 672.5,2126.5 C 700.217,2136.1 728.217,2144.76 756.5,2152.5C 770.669,2212.85 781.169,2273.85 788,2335.5C 792.919,2378.72 794.419,2422.05 792.5,2465.5C 760.346,2463.96 729.68,2456.46 700.5,2443C 681.818,2433.85 663.818,2423.68 646.5,2412.5C 664.465,2377.31 674.965,2339.98 678,2300.5C 682.438,2242.29 680.605,2184.29 672.5,2126.5 Z"/></g>
<g><path style="opacity:0.608" fill="#8bca90" d="M 2629.5,2353.5 C 2627.23,2360.05 2624.39,2366.38 2621,2372.5C 2615.41,2381.34 2610.08,2390.34 2605,2399.5C 2603.96,2400.71 2602.79,2401.71 2601.5,2402.5C 2610.58,2386 2619.92,2369.66 2629.5,2353.5 Z"/></g>
<g><path style="opacity:0.267" fill="#87c58e" d="M 2578.5,2437.5 C 2576.92,2440.93 2575.09,2444.26 2573,2447.5C 2548.86,2479.81 2521.69,2509.48 2491.5,2536.5C 2491.37,2535.76 2491.54,2535.09 2492,2534.5C 2508.7,2519.47 2524.37,2503.47 2539,2486.5C 2552.67,2470.46 2565.83,2454.13 2578.5,2437.5 Z"/></g>
</svg>
