<?xml version="1.0" encoding="UTF-8"?>
<!DOCTYPE svg PUBLIC "-//W3C//DTD SVG 1.1//EN" "http://www.w3.org/Graphics/SVG/1.1/DTD/svg11.dtd">
<svg xmlns="http://www.w3.org/2000/svg" version="1.1" width="3000px" height="3000px" style="shape-rendering:geometricPrecision; text-rendering:geometricPrecision; image-rendering:optimizeQuality; fill-rule:evenodd; clip-rule:evenodd" xmlns:xlink="http://www.w3.org/1999/xlink">
<g><path style="opacity:1" fill="#ee7015" d="M 1722.5,391.5 C 1801.41,503.297 1863.57,624.297 1909,754.5C 1940.81,845.406 1964.31,938.406 1979.5,1033.5C 1979.5,1034.83 1979.5,1036.17 1979.5,1037.5C 1975.5,1037.5 1971.5,1037.5 1967.5,1037.5C 1876.14,1034.42 1784.81,1035.09 1693.5,1039.5C 1689.83,1039.17 1686.17,1038.83 1682.5,1038.5C 1661.81,960.112 1625.64,890.112 1574,828.5C 1527.29,773.441 1474.13,725.941 1414.5,686C 1323.25,626.045 1225.92,577.711 1122.5,541C 1075.74,524.358 1028.74,508.858 981.5,494.5C 1216.73,376.611 1463.73,342.278 1722.5,391.5 Z"/></g>
<g><path style="opacity:1" fill="#593014" d="M 1722.5,391.5 C 1754.14,397.911 1785.48,405.578 1816.5,414.5C 1935.32,607.59 2011.65,816.59 2045.5,1041.5C 2121.76,1045.86 2197.76,1052.86 2273.5,1062.5C 2247.29,918.856 2228.96,774.189 2218.5,628.5C 2243.05,648.048 2266.39,669.048 2288.5,691.5C 2300.16,818.963 2317.66,945.63 2341,1071.5C 2414.88,1083.71 2488.38,1098.04 2561.5,1114.5C 2570.67,1138.35 2578.67,1162.69 2585.5,1187.5C 2509.36,1167.62 2432.36,1151.62 2354.5,1139.5C 2392.25,1329.59 2448.09,1514.26 2522,1693.5C 2540.32,1737.14 2560.49,1779.8 2582.5,1821.5C 2574.4,1850.15 2564.73,1878.15 2553.5,1905.5C 2473.67,1755.14 2409.83,1598.14 2362,1434.5C 2331.98,1334.07 2306.81,1232.4 2286.5,1129.5C 2209.91,1117.94 2132.91,1110.27 2055.5,1106.5C 2072.12,1240.39 2076.62,1374.72 2069,1509.5C 2060.23,1667.23 2038.9,1823.23 2005,1977.5C 1958.84,2183.78 1897.34,2385.45 1820.5,2582.5C 1795.31,2590.55 1769.64,2597.22 1743.5,2602.5C 1830.78,2386.17 1898.78,2164.01 1947.5,1936C 1974.16,1807.03 1992.33,1676.86 2002,1545.5C 2012.32,1397.43 2008.48,1249.76 1990.5,1102.5C 1891.82,1099.58 1793.15,1099.91 1694.5,1103.5C 1701.26,1170.44 1697.43,1236.78 1683,1302.5C 1664.78,1381.17 1637.44,1456.5 1601,1528.5C 1558.98,1610.12 1510.98,1687.79 1457,1761.5C 1385.47,1857.43 1308.47,1949.09 1226,2036.5C 1099.78,2167.91 967.611,2292.24 829.5,2409.5C 811.568,2396.56 794.234,2382.9 777.5,2368.5C 916.573,2251.95 1049.41,2127.95 1176,1996.5C 1249.45,1918.74 1318.79,1837.74 1384,1753.5C 1441.31,1678.12 1492.31,1598.46 1537,1514.5C 1574.69,1442.42 1602.69,1366.75 1621,1287.5C 1633.4,1228.32 1636.56,1168.65 1630.5,1108.5C 1416.34,1122.64 1205.34,1156.47 997.5,1210C 782.374,1265.21 573.707,1338.37 371.5,1429.5C 373.113,1404.76 375.446,1380.09 378.5,1355.5C 583.283,1265.85 794.283,1194.02 1011.5,1140C 1210.65,1090.54 1412.65,1058.71 1617.5,1044.5C 1600.96,985.742 1574.12,932.409 1537,884.5C 1495.86,832.683 1448.36,787.85 1394.5,750C 1326.13,703.134 1253.46,663.467 1176.5,631C 1087.02,594.119 995.358,563.953 901.5,540.5C 927.479,524.171 954.145,508.838 981.5,494.5C 1028.74,508.858 1075.74,524.358 1122.5,541C 1225.92,577.711 1323.25,626.045 1414.5,686C 1474.13,725.941 1527.29,773.441 1574,828.5C 1625.64,890.112 1661.81,960.112 1682.5,1038.5C 1686.17,1038.83 1689.83,1039.17 1693.5,1039.5C 1784.81,1035.09 1876.14,1034.42 1967.5,1037.5C 1971.63,1038.48 1975.97,1038.82 1980.5,1038.5C 1980.78,1036.59 1980.45,1034.92 1979.5,1033.5C 1964.31,938.406 1940.81,845.406 1909,754.5C 1863.57,624.297 1801.41,503.297 1722.5,391.5 Z"/></g>
<g><path style="opacity:1" fill="#ee7015" d="M 1816.5,414.5 C 1965.75,458.768 2099.75,530.102 2218.5,628.5C 2228.96,774.189 2247.29,918.856 2273.5,1062.5C 2197.76,1052.86 2121.76,1045.86 2045.5,1041.5C 2011.65,816.59 1935.32,607.59 1816.5,414.5 Z"/></g>
<g><path style="opacity:1" fill="#ee7015" d="M 901.5,540.5 C 995.358,563.953 1087.02,594.119 1176.5,631C 1253.46,663.467 1326.13,703.134 1394.5,750C 1448.36,787.85 1495.86,832.683 1537,884.5C 1574.12,932.409 1600.96,985.742 1617.5,1044.5C 1412.65,1058.71 1210.65,1090.54 1011.5,1140C 794.283,1194.02 583.283,1265.85 378.5,1355.5C 414.741,1095.52 525.407,873.687 710.5,690C 769.12,633.4 832.787,583.567 901.5,540.5 Z"/></g>
<g><path style="opacity:0.999" fill="#ee7015" d="M 2288.5,691.5 C 2411.86,811.122 2502.86,952.122 2561.5,1114.5C 2488.38,1098.04 2414.88,1083.71 2341,1071.5C 2317.66,945.63 2300.16,818.963 2288.5,691.5 Z"/></g>
<g><path style="opacity:1" fill="#a55014" d="M 1979.5,1033.5 C 1980.45,1034.92 1980.78,1036.59 1980.5,1038.5C 1975.97,1038.82 1971.63,1038.48 1967.5,1037.5C 1971.5,1037.5 1975.5,1037.5 1979.5,1037.5C 1979.5,1036.17 1979.5,1034.83 1979.5,1033.5 Z"/></g>
<g><path style="opacity:1" fill="#ee7015" d="M 1743.5,2602.5 C 1501.27,2653.97 1266.61,2630.47 1039.5,2532C 964.779,2498.5 894.779,2457.67 829.5,2409.5C 967.611,2292.24 1099.78,2167.91 1226,2036.5C 1308.47,1949.09 1385.47,1857.43 1457,1761.5C 1510.98,1687.79 1558.98,1610.12 1601,1528.5C 1637.44,1456.5 1664.78,1381.17 1683,1302.5C 1697.43,1236.78 1701.26,1170.44 1694.5,1103.5C 1793.15,1099.91 1891.82,1099.58 1990.5,1102.5C 2008.48,1249.76 2012.32,1397.43 2002,1545.5C 1992.33,1676.86 1974.16,1807.03 1947.5,1936C 1898.78,2164.01 1830.78,2386.17 1743.5,2602.5 Z"/></g>
<g><path style="opacity:1" fill="#ee7015" d="M 2553.5,1905.5 C 2455.16,2154.39 2290.5,2346.22 2059.5,2481C 1983.88,2524.27 1904.21,2558.1 1820.5,2582.5C 1897.34,2385.45 1958.84,2183.78 2005,1977.5C 2038.9,1823.23 2060.23,1667.23 2069,1509.5C 2076.62,1374.72 2072.12,1240.39 2055.5,1106.5C 2132.91,1110.27 2209.91,1117.94 2286.5,1129.5C 2306.81,1232.4 2331.98,1334.07 2362,1434.5C 2409.83,1598.14 2473.67,1755.14 2553.5,1905.5 Z"/></g>
<g><path style="opacity:1" fill="#ee7015" d="M 777.5,2368.5 C 568.474,2192.25 438.308,1968.91 387,1698.5C 371.379,1609.44 366.212,1519.77 371.5,1429.5C 573.707,1338.37 782.374,1265.21 997.5,1210C 1205.34,1156.47 1416.34,1122.64 1630.5,1108.5C 1636.56,1168.65 1633.4,1228.32 1621,1287.5C 1602.69,1366.75 1574.69,1442.42 1537,1514.5C 1492.31,1598.46 1441.31,1678.12 1384,1753.5C 1318.79,1837.74 1249.45,1918.74 1176,1996.5C 1049.41,2127.95 916.573,2251.95 777.5,2368.5 Z"/></g>
<g><path style="opacity:0.999" fill="#ee7015" d="M 2585.5,1187.5 C 2628.62,1339.79 2639.79,1494.46 2619,1651.5C 2611.24,1709.16 2599.07,1765.83 2582.5,1821.5C 2560.49,1779.8 2540.32,1737.14 2522,1693.5C 2448.09,1514.26 2392.25,1329.59 2354.5,1139.5C 2432.36,1151.62 2509.36,1167.62 2585.5,1187.5 Z"/></g>
</svg>
