<?xml version="1.0" encoding="UTF-8"?>
<!DOCTYPE svg PUBLIC "-//W3C//DTD SVG 1.1//EN" "http://www.w3.org/Graphics/SVG/1.1/DTD/svg11.dtd">
<svg xmlns="http://www.w3.org/2000/svg" version="1.1" width="3000px" height="3000px" style="shape-rendering:geometricPrecision; text-rendering:geometricPrecision; image-rendering:optimizeQuality; fill-rule:evenodd; clip-rule:evenodd" xmlns:xlink="http://www.w3.org/1999/xlink">
<g><path style="opacity:0.997" fill="#f14758" d="M 1406.5,156.5 C 1466.9,155.421 1527.24,156.921 1587.5,161C 1634.14,164.195 1679.48,173.529 1723.5,189C 1757.87,205.35 1787.7,227.85 1813,256.5C 1846.34,296.601 1872.34,341.267 1891,390.5C 1915.01,455.559 1931.01,522.559 1939,591.5C 1944.56,637.672 1947.89,684.006 1949,730.5C 1953.97,878.644 1951.3,1026.64 1941,1174.5C 1935.43,1251.69 1925.77,1328.36 1912,1404.5C 1902.75,1455.49 1889.75,1505.49 1873,1554.5C 1848.47,1613.09 1824.14,1671.75 1800,1730.5C 1787.16,1763.18 1775.16,1796.18 1764,1829.5C 1746.43,1890.94 1739.1,1953.61 1742,2017.5C 1745.62,2098.89 1759.29,2178.55 1783,2256.5C 1800.75,2309.41 1817.08,2362.74 1832,2416.5C 1848.73,2478.87 1860.06,2542.21 1866,2606.5C 1868.75,2636.81 1869.08,2667.15 1867,2697.5C 1859.62,2765.81 1824.12,2812.64 1760.5,2838C 1707.85,2856.53 1653.85,2862.53 1598.5,2856C 1529.27,2842.42 1478.77,2804.25 1447,2741.5C 1432.26,2709.33 1426.93,2675.66 1431,2640.5C 1437.5,2593.18 1445.83,2546.18 1456,2499.5C 1475.3,2416.98 1493.96,2334.31 1512,2251.5C 1527.97,2173.8 1536.47,2095.3 1537.5,2016C 1537.3,1943.9 1529.14,1872.73 1513,1802.5C 1504.33,1769.53 1487.16,1742.03 1461.5,1720C 1436.95,1701.56 1409.95,1687.56 1380.5,1678C 1345.44,1666.65 1309.77,1657.65 1273.5,1651C 1235.98,1644.36 1198.31,1638.69 1160.5,1634C 1143.79,1629.73 1129.62,1621.23 1118,1608.5C 1100.48,1586.52 1104.65,1570.02 1130.5,1559C 1160.05,1549.51 1190.38,1545.01 1221.5,1545.5C 1296.17,1549.92 1370.5,1546.76 1444.5,1536C 1499.22,1527.99 1551.22,1511.66 1600.5,1487C 1630.42,1470.75 1655.76,1449.08 1676.5,1422C 1504.83,1421.67 1333.17,1421.33 1161.5,1421C 1149.81,1410.64 1142.31,1397.81 1139,1382.5C 1137.36,1371.08 1140.36,1361.08 1148,1352.5C 1153.15,1346.65 1159.32,1342.49 1166.5,1340C 1347.5,1327.05 1528.5,1314.05 1709.5,1301C 1710.42,1300.63 1711.25,1300.13 1712,1299.5C 1714.25,1270.86 1716.09,1242.19 1717.5,1213.5C 1539.47,1208.87 1361.47,1203.37 1183.5,1197C 1173.96,1188.12 1166.79,1177.62 1162,1165.5C 1157.15,1143.37 1164.65,1126.87 1184.5,1116C 1364.5,1108.01 1544.5,1100.17 1724.5,1092.5C 1725.69,1056.27 1727.02,1020.1 1728.5,984C 1553.8,976.483 1379.13,968.483 1204.5,960C 1178.97,942.377 1174.81,920.543 1192,894.5C 1196.19,889.313 1200.69,884.48 1205.5,880C 1380.15,874.128 1554.82,868.628 1729.5,863.5C 1729.6,827.495 1729.27,791.495 1728.5,755.5C 1547.17,742.077 1365.83,728.577 1184.5,715C 1159.23,699.498 1153.73,678.665 1168,652.5C 1172.1,645.501 1177.26,639.334 1183.5,634C 1363.17,633.5 1542.83,633.333 1722.5,633.5C 1719.66,589.301 1715,545.301 1708.5,501.5C 1527.83,488.179 1347.16,474.679 1166.5,461C 1149.31,454.471 1139.97,441.971 1138.5,423.5C 1140.68,406.14 1148.35,391.64 1161.5,380C 1333.5,379.833 1505.5,379.333 1677.5,378.5C 1669.15,354.938 1656.15,334.438 1638.5,317C 1605.98,290.577 1568.98,273.577 1527.5,266C 1404.83,265.667 1282.17,265.333 1159.5,265C 1137.58,263.365 1117.91,256.031 1100.5,243C 1091.66,233.129 1088.49,221.629 1091,208.5C 1093.48,197.705 1097.98,187.872 1104.5,179C 1205.01,167.333 1305.67,159.833 1406.5,156.5 Z"/></g>
<g><path style="opacity:1" fill="#9ec19b" d="M 1643.5,2352.5 C 1655.93,2351.63 1665.76,2356.3 1673,2366.5C 1685.89,2384.61 1695.89,2404.27 1703,2425.5C 1726,2492.33 1740.16,2560.99 1745.5,2631.5C 1741.89,2680.93 1716.22,2712.1 1668.5,2725C 1625.12,2731.45 1591.29,2716.61 1567,2680.5C 1557.48,2664.1 1552.98,2646.44 1553.5,2627.5C 1559.57,2554.38 1575.07,2483.38 1600,2414.5C 1606.52,2397.79 1614.85,2382.12 1625,2367.5C 1630.2,2361.12 1636.36,2356.12 1643.5,2352.5 Z"/></g>
</svg>
