<?xml version="1.0" encoding="UTF-8"?>
<!DOCTYPE svg PUBLIC "-//W3C//DTD SVG 1.1//EN" "http://www.w3.org/Graphics/SVG/1.1/DTD/svg11.dtd">
<svg xmlns="http://www.w3.org/2000/svg" version="1.1" width="3000px" height="3000px" style="shape-rendering:geometricPrecision; text-rendering:geometricPrecision; image-rendering:optimizeQuality; fill-rule:evenodd; clip-rule:evenodd" xmlns:xlink="http://www.w3.org/1999/xlink">
<g><path style="opacity:1" fill="#fcf4e8" d="M 2272.5,520.5 C 2159.01,446.089 2038.01,385.922 1909.5,340C 1616.87,238.507 1327.87,247.84 1042.5,368C 983.948,393.109 927.281,421.609 872.5,453.5C 868.543,442.461 864.876,431.294 861.5,420C 988.219,339.999 1124.89,282.999 1271.5,249C 1465.75,206.609 1658.42,212.943 1849.5,268C 1978.81,306.164 2101.14,359.83 2216.5,429C 2240.33,443.416 2264,458.083 2287.5,473C 2288.02,473.561 2288.36,474.228 2288.5,475C 2283.66,490.368 2278.32,505.534 2272.5,520.5 Z"/></g>
<g><path style="opacity:1" fill="#000000" d="M 2272.5,520.5 C 2236.97,601.873 2182.3,667.373 2108.5,717C 2059.45,749.941 2006.95,776.441 1951,796.5C 1950.1,796.257 1949.26,795.923 1948.5,795.5C 1801.97,687.615 1637.3,637.782 1454.5,646C 1357.26,652.477 1263.26,673.477 1172.5,709C 1158.92,714.305 1145.42,719.805 1132,725.5C 1126.2,723.015 1120.37,720.682 1114.5,718.5C 1071.97,700.407 1032.64,677.24 996.5,649C 951.278,609.763 916.778,562.597 893,507.5C 885.32,489.809 878.487,471.809 872.5,453.5C 927.281,421.609 983.948,393.109 1042.5,368C 1327.87,247.84 1616.87,238.507 1909.5,340C 2038.01,385.922 2159.01,446.089 2272.5,520.5 Z"/></g>
<g><path style="opacity:1" fill="#fcf4e8" d="M 1546.5,505.5 C 1545.17,505.5 1543.83,505.5 1542.5,505.5C 1542.5,528.833 1542.5,552.167 1542.5,575.5C 1534.83,575.5 1527.17,575.5 1519.5,575.5C 1519.55,556.486 1519.05,537.486 1518,518.5C 1515.81,514.128 1512.81,513.461 1509,516.5C 1509.36,536.158 1509.86,555.825 1510.5,575.5C 1499.5,575.5 1488.5,575.5 1477.5,575.5C 1476.33,558.811 1474.83,542.145 1473,525.5C 1473.34,518.489 1470.34,516.156 1464,518.5C 1463.83,521 1463.67,523.5 1463.5,526C 1465.04,542.492 1466.38,558.992 1467.5,575.5C 1459.5,575.5 1451.5,575.5 1443.5,575.5C 1441.47,557.822 1439.31,540.155 1437,522.5C 1434.52,517.632 1431.52,517.299 1428,521.5C 1429.68,539.481 1431.51,557.481 1433.5,575.5C 1421.83,575.5 1410.17,575.5 1398.5,575.5C 1398.67,546.831 1398.5,518.165 1398,489.5C 1380.37,481.688 1365.04,470.688 1352,456.5C 1336.67,436.167 1336.67,415.833 1352,395.5C 1374.3,372.762 1401.13,357.929 1432.5,351C 1487.67,340.77 1541.33,346.103 1593.5,367C 1611.51,374.36 1627.34,384.86 1641,398.5C 1658.45,419.204 1659.78,440.871 1645,463.5C 1626.63,481.442 1604.79,493.275 1579.5,499C 1568.6,501.747 1557.6,503.913 1546.5,505.5 Z"/></g>
<g><path style="opacity:1" fill="#030201" d="M 1421.5,387.5 C 1435.52,385.591 1445.68,390.925 1452,403.5C 1456.29,414.435 1457.62,425.768 1456,437.5C 1455.08,442.188 1452.58,445.688 1448.5,448C 1436.57,449.604 1424.57,449.937 1412.5,449C 1388.63,444.383 1382.13,431.216 1393,409.5C 1396.8,404.699 1400.97,400.199 1405.5,396C 1410.77,392.868 1416.1,390.035 1421.5,387.5 Z"/></g>
<g><path style="opacity:1" fill="#030202" d="M 1517.5,386.5 C 1539.04,388.547 1553.87,399.547 1562,419.5C 1564.61,429.068 1562.11,436.902 1554.5,443C 1544.03,448.626 1532.87,450.793 1521,449.5C 1501.93,453.092 1492.77,445.259 1493.5,426C 1493.49,412.677 1498.16,401.343 1507.5,392C 1510.77,389.87 1514.1,388.037 1517.5,386.5 Z"/></g>
<g><path style="opacity:1" fill="#070404" d="M 1470.5,442.5 C 1477.72,457.958 1484.72,473.625 1491.5,489.5C 1477.04,491.548 1462.54,493.215 1448,494.5C 1447.5,494.167 1447,493.833 1446.5,493.5C 1454.24,476.353 1462.24,459.353 1470.5,442.5 Z"/></g>
<g><path style="opacity:1" fill="#3d2120" d="M 1546.5,505.5 C 1545.79,506.404 1544.79,506.737 1543.5,506.5C 1543.83,529.673 1543.5,552.673 1542.5,575.5C 1542.5,552.167 1542.5,528.833 1542.5,505.5C 1543.83,505.5 1545.17,505.5 1546.5,505.5 Z"/></g>
<g><path style="opacity:1" fill="#b73232" d="M 1948.5,795.5 C 1965.97,836.113 1967.97,877.446 1954.5,919.5C 1924.05,920.151 1896.71,929.651 1872.5,948C 1863.61,954.286 1855.28,961.286 1847.5,969C 1816.48,964.215 1787.15,954.215 1759.5,939C 1709.12,910.457 1669.12,871.29 1639.5,821.5C 1611.5,833.944 1585.17,831.111 1560.5,813C 1556.5,809.667 1552.5,806.333 1548.5,803C 1543.3,796.971 1537.97,791.138 1532.5,785.5C 1527.5,778.158 1522.5,770.825 1517.5,763.5C 1509.79,751.109 1502.46,738.443 1495.5,725.5C 1483.29,743.546 1467.29,757.046 1447.5,766C 1418.86,776.137 1395.36,769.304 1377,745.5C 1375.33,741.5 1373.67,737.5 1372,733.5C 1363.79,746.046 1353.29,756.213 1340.5,764C 1328.61,770.311 1316.94,769.978 1305.5,763C 1299.75,757.671 1295.92,751.171 1294,743.5C 1273.04,773.465 1247.2,798.298 1216.5,818C 1201.56,827.652 1185.23,831.818 1167.5,830.5C 1161.7,829.189 1156.2,826.856 1151,823.5C 1141.76,833.07 1131.59,841.57 1120.5,849C 1104.13,858.585 1087.13,859.919 1069.5,853C 1055.5,844.829 1049.67,832.663 1052,816.5C 1053.7,806.096 1057.37,796.43 1063,787.5C 1078.23,763.041 1095.39,740.041 1114.5,718.5C 1120.37,720.682 1126.2,723.015 1132,725.5C 1145.42,719.805 1158.92,714.305 1172.5,709C 1263.26,673.477 1357.26,652.477 1454.5,646C 1637.3,637.782 1801.97,687.615 1948.5,795.5 Z"/></g>
<g><path style="opacity:1" fill="#f1b178" d="M 1517.5,763.5 C 1402.68,830.562 1282.01,884.896 1155.5,926.5C 1156.88,894.164 1160.88,862.164 1167.5,830.5C 1185.23,831.818 1201.56,827.652 1216.5,818C 1247.2,798.298 1273.04,773.465 1294,743.5C 1295.92,751.171 1299.75,757.671 1305.5,763C 1316.94,769.978 1328.61,770.311 1340.5,764C 1353.29,756.213 1363.79,746.046 1372,733.5C 1373.67,737.5 1375.33,741.5 1377,745.5C 1395.36,769.304 1418.86,776.137 1447.5,766C 1467.29,757.046 1483.29,743.546 1495.5,725.5C 1502.46,738.443 1509.79,751.109 1517.5,763.5 Z"/></g>
<g><path style="opacity:1" fill="#020000" d="M 1517.5,763.5 C 1522.5,770.825 1527.5,778.158 1532.5,785.5C 1464.88,824.309 1395.22,859.475 1323.5,891C 1319.54,949.261 1294.21,995.594 1247.5,1030C 1232.24,1039.87 1215.58,1044.2 1197.5,1043C 1191.53,1041.85 1185.87,1039.85 1180.5,1037C 1174.04,1032.37 1168.04,1027.2 1162.5,1021.5C 1156.44,990.263 1154.1,958.597 1155.5,926.5C 1282.01,884.896 1402.68,830.562 1517.5,763.5 Z"/></g>
<g><path style="opacity:1" fill="#f1b178" d="M 1532.5,785.5 C 1537.97,791.138 1543.3,796.971 1548.5,803C 1552.5,806.333 1556.5,809.667 1560.5,813C 1585.17,831.111 1611.5,833.944 1639.5,821.5C 1669.12,871.29 1709.12,910.457 1759.5,939C 1787.15,954.215 1816.48,964.215 1847.5,969C 1855.28,961.286 1863.61,954.286 1872.5,948C 1896.71,929.651 1924.05,920.151 1954.5,919.5C 1984.56,919.783 2009.06,931.45 2028,954.5C 2038.83,971.643 2042.83,990.31 2040,1010.5C 2036.98,1030.89 2029.65,1049.56 2018,1066.5C 1996.69,1097.82 1971.19,1125.32 1941.5,1149C 1915.37,1168.49 1886.04,1176.82 1853.5,1174C 1839.1,1172.31 1825.94,1167.48 1814,1159.5C 1767.63,1210.77 1712.13,1248.77 1647.5,1273.5C 1645.14,1273.67 1642.81,1274.01 1640.5,1274.5C 1640.13,1301.09 1632.63,1325.43 1618,1347.5C 1604.88,1364.94 1587.71,1376.44 1566.5,1382C 1549.19,1386.02 1531.85,1389.19 1514.5,1391.5C 1505.14,1391.69 1495.81,1391.35 1486.5,1390.5C 1475.5,1387.91 1467.34,1381.57 1462,1371.5C 1459.75,1365.67 1458.09,1359.67 1457,1353.5C 1453.27,1333.46 1449.44,1313.46 1445.5,1293.5C 1497.06,1297.76 1545.39,1287.26 1590.5,1262C 1593.42,1256.57 1591.75,1253.9 1585.5,1254C 1541.37,1278.49 1494.04,1288.83 1443.5,1285C 1440.91,1287.49 1440.91,1289.99 1443.5,1292.5C 1427.5,1290.25 1411.83,1286.58 1396.5,1281.5C 1390.06,1278.4 1383.39,1275.57 1376.5,1273C 1374.87,1272.51 1373.2,1272.34 1371.5,1272.5C 1316.57,1249.28 1269.74,1214.94 1231,1169.5C 1195.41,1126.29 1172.58,1076.96 1162.5,1021.5C 1168.04,1027.2 1174.04,1032.37 1180.5,1037C 1185.87,1039.85 1191.53,1041.85 1197.5,1043C 1215.58,1044.2 1232.24,1039.87 1247.5,1030C 1294.21,995.594 1319.54,949.261 1323.5,891C 1395.22,859.475 1464.88,824.309 1532.5,785.5 Z"/></g>
<g><path style="opacity:1" fill="#b83333" d="M 1502.5,809.5 C 1519.33,808.167 1535.67,810.334 1551.5,816C 1558.67,819.167 1563.83,824.333 1567,831.5C 1568.77,838.126 1566.6,842.96 1560.5,846C 1549.88,849.084 1539.21,849.084 1528.5,846C 1515.14,843.559 1503.31,838.059 1493,829.5C 1489.92,826.021 1488.59,822.021 1489,817.5C 1492.6,813.123 1497.1,810.457 1502.5,809.5 Z"/></g>
<g><path style="opacity:1" fill="#b83333" d="M 1262.5,814.5 C 1268.18,814.334 1273.84,814.501 1279.5,815C 1288.54,817.019 1292.37,822.519 1291,831.5C 1288.59,835.916 1285.42,839.749 1281.5,843C 1266.5,852.614 1250.16,858.78 1232.5,861.5C 1225.86,861.759 1220.36,859.426 1216,854.5C 1215.16,850.88 1215.83,847.546 1218,844.5C 1230.02,830.305 1244.86,820.305 1262.5,814.5 Z"/></g>
<g><path style="opacity:1" fill="#493b9a" d="M 849.5,1060.5 C 840.229,1072.58 836.729,1086.25 839,1101.5C 841.609,1111.61 847.442,1119.28 856.5,1124.5C 844.042,1132.53 830.375,1136.37 815.5,1136C 800.532,1124.23 792.865,1108.73 792.5,1089.5C 793.383,1069.01 799.217,1050.01 810,1032.5C 822.281,1013.61 833.281,993.943 843,973.5C 852.301,951.691 852.301,930.024 843,908.5C 832.98,892.152 818.313,883.819 799,883.5C 771.491,885.251 750.158,897.585 735,920.5C 723.868,939.225 715.868,959.225 711,980.5C 708.529,952.209 711.529,924.542 720,897.5C 740.793,850.651 775.959,834.818 825.5,850C 853.859,862.692 872.692,883.859 882,913.5C 891.453,948.763 888.787,983.096 874,1016.5C 866.807,1031.82 858.641,1046.49 849.5,1060.5 Z"/></g>
<g><path style="opacity:1" fill="#0e0604" d="M 1365.5,885.5 C 1368.04,885.104 1370.21,885.771 1372,887.5C 1376,909.068 1375,930.401 1369,951.5C 1360.89,963.311 1352.39,963.478 1343.5,952C 1338.15,950.348 1333.99,951.848 1331,956.5C 1321.34,982.875 1327.68,1004.54 1350,1021.5C 1350.69,1028.39 1347.86,1030.23 1341.5,1027C 1322.77,1012.04 1314.61,992.536 1317,968.5C 1318.13,956.048 1324.3,947.214 1335.5,942C 1343.53,940.568 1349.87,943.235 1354.5,950C 1356.11,950.72 1357.61,950.554 1359,949.5C 1361.73,943.127 1363.4,936.46 1364,929.5C 1364.78,916.481 1364.61,903.481 1363.5,890.5C 1363.44,888.486 1364.1,886.819 1365.5,885.5 Z"/></g>
<g><path style="opacity:1" fill="#040101" d="M 1508.5,889.5 C 1515.58,888.125 1521.08,890.458 1525,896.5C 1531.15,909.391 1532.15,922.724 1528,936.5C 1524.78,946.093 1518.28,950.26 1508.5,949C 1501.11,943.385 1496.94,935.885 1496,926.5C 1493.34,911.657 1497.5,899.324 1508.5,889.5 Z"/></g>
<g><path style="opacity:1" fill="#0c0503" d="M 1924.5,989.5 C 1946.71,987.909 1961.21,997.575 1968,1018.5C 1968.94,1023.4 1968.27,1028.07 1966,1032.5C 1963.54,1035.1 1961.04,1035.1 1958.5,1032.5C 1960.72,1011.72 1951.39,1000.72 1930.5,999.5C 1917.99,999.836 1906.66,1003.67 1896.5,1011C 1885.91,1018.25 1876.58,1026.92 1868.5,1037C 1884.1,1037.92 1894.6,1045.75 1900,1060.5C 1903.45,1097.08 1887.28,1119.91 1851.5,1129C 1841.23,1131.55 1831.23,1130.88 1821.5,1127C 1818.73,1124.03 1819.07,1121.37 1822.5,1119C 1849.88,1124.99 1871.38,1116.49 1887,1093.5C 1891.06,1084.92 1892.73,1075.92 1892,1066.5C 1888.25,1052.05 1879.08,1045.55 1864.5,1047C 1861.26,1048.98 1859.09,1051.81 1858,1055.5C 1854.93,1059.05 1851.43,1059.39 1847.5,1056.5C 1845.88,1055.13 1845.38,1053.46 1846,1051.5C 1852.77,1044.07 1858.77,1036.07 1864,1027.5C 1879.99,1007.98 1900.15,995.314 1924.5,989.5 Z"/></g>
<g><path style="opacity:1" fill="#010000" d="M 1516.5,1059.5 C 1486.42,1071.88 1458.75,1088.38 1433.5,1109C 1408.1,1131.39 1387.6,1157.56 1372,1187.5C 1371.33,1188.25 1370.5,1188.59 1369.5,1188.5C 1332.64,1185.68 1306.47,1167.68 1291,1134.5C 1279.25,1098.15 1292.09,1076.32 1329.5,1069C 1354.86,1068.12 1380.19,1066.79 1405.5,1065C 1434.92,1059.28 1464.59,1056.28 1494.5,1056C 1501.85,1057.12 1509.19,1058.29 1516.5,1059.5 Z"/></g>
<g><path style="opacity:1" fill="#010000" d="M 1058.5,1212.5 C 985.837,1294.35 894.837,1328.18 785.5,1314C 773.257,1312.11 761.257,1309.27 749.5,1305.5C 736.842,1265.15 734.009,1224.15 741,1182.5C 747.022,1154.13 758.688,1128.47 776,1105.5C 781.395,1099.94 786.895,1094.6 792.5,1089.5C 792.865,1108.73 800.532,1124.23 815.5,1136C 830.375,1136.37 844.042,1132.53 856.5,1124.5C 847.442,1119.28 841.609,1111.61 839,1101.5C 836.729,1086.25 840.229,1072.58 849.5,1060.5C 896.67,1054.37 939.003,1065.87 976.5,1095C 1014.56,1126.58 1041.9,1165.75 1058.5,1212.5 Z"/></g>
<g><path style="opacity:1" fill="#b73233" d="M 1516.5,1059.5 C 1549.76,1070.68 1561.26,1093.02 1551,1126.5C 1546.12,1137.39 1538.96,1146.55 1529.5,1154C 1498.4,1173.92 1464.4,1185.92 1427.5,1190C 1407.93,1192.43 1388.6,1191.93 1369.5,1188.5C 1370.5,1188.59 1371.33,1188.25 1372,1187.5C 1387.6,1157.56 1408.1,1131.39 1433.5,1109C 1458.75,1088.38 1486.42,1071.88 1516.5,1059.5 Z"/></g>
<g><path style="opacity:1" fill="#fcf4e8" d="M 1058.5,1212.5 C 1063.3,1223.05 1067.63,1233.88 1071.5,1245C 1055.7,1266.96 1037.04,1286.13 1015.5,1302.5C 973.024,1335.67 925.024,1356 871.5,1363.5C 836.921,1367.33 802.588,1365.83 768.5,1359C 761.273,1341.48 754.939,1323.65 749.5,1305.5C 761.257,1309.27 773.257,1312.11 785.5,1314C 894.837,1328.18 985.837,1294.35 1058.5,1212.5 Z"/></g>
<g><path style="opacity:1" fill="#0e0604" d="M 1445.5,1293.5 C 1444.83,1293.17 1444.17,1292.83 1443.5,1292.5C 1440.91,1289.99 1440.91,1287.49 1443.5,1285C 1494.04,1288.83 1541.37,1278.49 1585.5,1254C 1591.75,1253.9 1593.42,1256.57 1590.5,1262C 1545.39,1287.26 1497.06,1297.76 1445.5,1293.5 Z"/></g>
<g><path style="opacity:1" fill="#b73132" d="M 1371.5,1272.5 C 1373.2,1272.34 1374.87,1272.51 1376.5,1273C 1383.39,1275.57 1390.06,1278.4 1396.5,1281.5C 1373.69,1300.09 1358.69,1323.75 1351.5,1352.5C 1328.14,1404.73 1305.14,1457.23 1282.5,1510C 1282.91,1510.95 1283.57,1511.61 1284.5,1512C 1310.89,1519.13 1337.22,1526.46 1363.5,1534C 1337.17,1567 1310.83,1600 1284.5,1633C 1333.71,1671.71 1383.04,1710.21 1432.5,1748.5C 1434.62,1765.96 1435.95,1783.62 1436.5,1801.5C 1437.66,1811.8 1438.33,1822.13 1438.5,1832.5C 1401.82,1831.41 1365.15,1829.91 1328.5,1828C 1287.07,1825.83 1245.74,1822.66 1204.5,1818.5C 1203.5,1861.83 1203.17,1905.16 1203.5,1948.5C 1203.17,1948.5 1202.83,1948.5 1202.5,1948.5C 1202.83,1857.5 1202.5,1766.5 1201.5,1675.5C 1145.85,1699.85 1089.85,1700.69 1033.5,1678C 991.411,1657.57 958.244,1627.41 934,1587.5C 911.059,1548.6 895.059,1506.93 886,1462.5C 879.532,1429.73 874.699,1396.73 871.5,1363.5C 925.024,1356 973.024,1335.67 1015.5,1302.5C 1018.1,1311.03 1022.26,1318.7 1028,1325.5C 1057.28,1357.97 1093.78,1371.13 1137.5,1365C 1159.28,1362.18 1180.28,1356.52 1200.5,1348C 1238.23,1329.3 1275.9,1310.3 1313.5,1291C 1332.16,1282.72 1351.5,1276.56 1371.5,1272.5 Z"/></g>
<g><path style="opacity:1" fill="#fcf5e9" d="M 1647.5,1273.5 C 1660.39,1278.95 1671.06,1287.28 1679.5,1298.5C 1685.29,1311.53 1690.29,1324.86 1694.5,1338.5C 1694.5,1343.5 1694.5,1348.5 1694.5,1353.5C 1688.08,1400.25 1661.75,1428.25 1615.5,1437.5C 1572.87,1441.34 1539.2,1426.01 1514.5,1391.5C 1531.85,1389.19 1549.19,1386.02 1566.5,1382C 1587.71,1376.44 1604.88,1364.94 1618,1347.5C 1632.63,1325.43 1640.13,1301.09 1640.5,1274.5C 1642.81,1274.01 1645.14,1273.67 1647.5,1273.5 Z"/></g>
<g><path style="opacity:1" fill="#fcf5e9" d="M 1396.5,1281.5 C 1411.83,1286.58 1427.5,1290.25 1443.5,1292.5C 1444.17,1292.83 1444.83,1293.17 1445.5,1293.5C 1449.44,1313.46 1453.27,1333.46 1457,1353.5C 1458.09,1359.67 1459.75,1365.67 1462,1371.5C 1467.34,1381.57 1475.5,1387.91 1486.5,1390.5C 1477.24,1405.6 1465.58,1418.77 1451.5,1430C 1439.53,1437.99 1426.53,1443.16 1412.5,1445.5C 1383.44,1446.58 1363.94,1433.58 1354,1406.5C 1348.97,1388.71 1348.14,1370.71 1351.5,1352.5C 1358.69,1323.75 1373.69,1300.09 1396.5,1281.5 Z"/></g>
<g><path style="opacity:1" fill="#b73132" d="M 2100.5,1873.5 C 2084.25,1889.25 2068.08,1905.25 2052,1921.5C 2033.63,1940.37 2015.46,1959.37 1997.5,1978.5C 1996.85,1978.8 1996.18,1979.14 1995.5,1979.5C 1944.72,1908.36 1888.72,1841.36 1827.5,1778.5C 1830.36,1676.39 1819.86,1575.72 1796,1476.5C 1795.51,1473.2 1794.35,1470.2 1792.5,1467.5C 1786.49,1466.02 1784.32,1468.35 1786,1474.5C 1811.96,1580.29 1822.63,1687.63 1818,1796.5C 1819.17,1798.67 1821.01,1799.67 1823.5,1799.5C 1823.5,1807.83 1823.5,1816.17 1823.5,1824.5C 1823.17,1824.5 1822.83,1824.5 1822.5,1824.5C 1759.91,1828.86 1697.25,1831.52 1634.5,1832.5C 1634.42,1820.98 1633.75,1809.65 1632.5,1798.5C 1631.06,1768.17 1629.72,1737.84 1628.5,1707.5C 1635.58,1707.66 1642.58,1706.99 1649.5,1705.5C 1678.88,1670.79 1707.88,1635.79 1736.5,1600.5C 1720.68,1585.51 1704.68,1570.68 1688.5,1556C 1711.83,1542.67 1735.17,1529.33 1758.5,1516C 1759.02,1515.44 1759.36,1514.77 1759.5,1514C 1738.2,1456.59 1717.2,1399.09 1696.5,1341.5C 1696.07,1340.29 1695.4,1339.29 1694.5,1338.5C 1690.29,1324.86 1685.29,1311.53 1679.5,1298.5C 1677.74,1293.73 1676.08,1288.89 1674.5,1284C 1674.67,1283.5 1674.83,1283 1675,1282.5C 1861.53,1444.01 2006.53,1636.68 2110,1860.5C 2110.67,1861.5 2110.67,1862.5 2110,1863.5C 2106.63,1866.7 2103.46,1870.04 2100.5,1873.5 Z"/></g>
<g><path style="opacity:1" fill="#473c9b" d="M 1696.5,1341.5 C 1717.2,1399.09 1738.2,1456.59 1759.5,1514C 1759.36,1514.77 1759.02,1515.44 1758.5,1516C 1735.17,1529.33 1711.83,1542.67 1688.5,1556C 1704.68,1570.68 1720.68,1585.51 1736.5,1600.5C 1707.88,1635.79 1678.88,1670.79 1649.5,1705.5C 1642.58,1706.99 1635.58,1707.66 1628.5,1707.5C 1628.17,1707.5 1627.83,1707.5 1627.5,1707.5C 1626.73,1680.49 1625.73,1653.49 1624.5,1626.5C 1623.63,1599.96 1621.96,1573.63 1619.5,1547.5C 1619.03,1524.14 1618.03,1500.81 1616.5,1477.5C 1616.23,1464.16 1615.9,1450.83 1615.5,1437.5C 1661.75,1428.25 1688.08,1400.25 1694.5,1353.5C 1695.17,1349.5 1695.83,1345.5 1696.5,1341.5 Z"/></g>
<g><path style="opacity:1" fill="#b38ea8" d="M 1694.5,1338.5 C 1695.4,1339.29 1696.07,1340.29 1696.5,1341.5C 1695.83,1345.5 1695.17,1349.5 1694.5,1353.5C 1694.5,1348.5 1694.5,1343.5 1694.5,1338.5 Z"/></g>
<g><path style="opacity:1" fill="#473c9b" d="M 1351.5,1352.5 C 1348.14,1370.71 1348.97,1388.71 1354,1406.5C 1363.94,1433.58 1383.44,1446.58 1412.5,1445.5C 1412.94,1456.36 1413.94,1467.03 1415.5,1477.5C 1416.48,1499.53 1417.82,1521.53 1419.5,1543.5C 1421.41,1574.51 1423.41,1605.51 1425.5,1636.5C 1427.79,1662.46 1429.45,1688.46 1430.5,1714.5C 1431.32,1725.82 1431.99,1737.16 1432.5,1748.5C 1383.04,1710.21 1333.71,1671.71 1284.5,1633C 1310.83,1600 1337.17,1567 1363.5,1534C 1337.22,1526.46 1310.89,1519.13 1284.5,1512C 1283.57,1511.61 1282.91,1510.95 1282.5,1510C 1305.14,1457.23 1328.14,1404.73 1351.5,1352.5 Z"/></g>
<g><path style="opacity:1" fill="#070101" d="M 1265.5,1359.5 C 1271,1358.83 1273.17,1361.16 1272,1366.5C 1235.36,1460.72 1214.19,1558.22 1208.5,1659C 1206.5,1659.67 1204.5,1659.67 1202.5,1659C 1204.91,1555.27 1225.91,1455.43 1265.5,1359.5 Z"/></g>
<g><path style="opacity:1" fill="#050100" d="M 1101.5,1380.5 C 1106.19,1379.68 1108.69,1381.68 1109,1386.5C 1122.78,1446.58 1126.12,1507.25 1119,1568.5C 1117.15,1572.79 1114.49,1573.46 1111,1570.5C 1117.52,1508.2 1113.69,1446.53 1099.5,1385.5C 1099.44,1383.49 1100.1,1381.82 1101.5,1380.5 Z"/></g>
<g><path style="opacity:1" fill="#020101" d="M 1486.5,1390.5 C 1495.81,1391.35 1505.14,1391.69 1514.5,1391.5C 1539.2,1426.01 1572.87,1441.34 1615.5,1437.5C 1615.9,1450.83 1616.23,1464.16 1616.5,1477.5C 1549.5,1477.5 1482.5,1477.5 1415.5,1477.5C 1413.94,1467.03 1412.94,1456.36 1412.5,1445.5C 1426.53,1443.16 1439.53,1437.99 1451.5,1430C 1465.58,1418.77 1477.24,1405.6 1486.5,1390.5 Z"/></g>
<g><path style="opacity:1" fill="#050100" d="M 1827.5,1778.5 C 1827.67,1784.51 1827.5,1790.51 1827,1796.5C 1826.28,1798.06 1825.11,1799.06 1823.5,1799.5C 1821.01,1799.67 1819.17,1798.67 1818,1796.5C 1822.63,1687.63 1811.96,1580.29 1786,1474.5C 1784.32,1468.35 1786.49,1466.02 1792.5,1467.5C 1794.35,1470.2 1795.51,1473.2 1796,1476.5C 1819.86,1575.72 1830.36,1676.39 1827.5,1778.5 Z"/></g>
<g><path style="opacity:1" fill="#fcf4e9" d="M 1415.5,1477.5 C 1482.5,1477.5 1549.5,1477.5 1616.5,1477.5C 1618.03,1500.81 1619.03,1524.14 1619.5,1547.5C 1552.83,1546.35 1486.16,1545.02 1419.5,1543.5C 1417.82,1521.53 1416.48,1499.53 1415.5,1477.5 Z"/></g>
<g><path style="opacity:1" fill="#020101" d="M 1419.5,1543.5 C 1486.16,1545.02 1552.83,1546.35 1619.5,1547.5C 1621.96,1573.63 1623.63,1599.96 1624.5,1626.5C 1558.02,1627.15 1491.69,1630.48 1425.5,1636.5C 1423.41,1605.51 1421.41,1574.51 1419.5,1543.5 Z"/></g>
<g><path style="opacity:1" fill="#fcf5e9" d="M 1624.5,1626.5 C 1625.73,1653.49 1626.73,1680.49 1627.5,1707.5C 1561.83,1709.81 1496.17,1712.14 1430.5,1714.5C 1429.45,1688.46 1427.79,1662.46 1425.5,1636.5C 1491.69,1630.48 1558.02,1627.15 1624.5,1626.5 Z"/></g>
<g><path style="opacity:1" fill="#020101" d="M 1627.5,1707.5 C 1627.83,1707.5 1628.17,1707.5 1628.5,1707.5C 1629.72,1737.84 1631.06,1768.17 1632.5,1798.5C 1567.34,1800.02 1502,1801.02 1436.5,1801.5C 1435.95,1783.62 1434.62,1765.96 1432.5,1748.5C 1431.99,1737.16 1431.32,1725.82 1430.5,1714.5C 1496.17,1712.14 1561.83,1709.81 1627.5,1707.5 Z"/></g>
<g><path style="opacity:1" fill="#fbf4e8" d="M 1632.5,1798.5 C 1633.75,1809.65 1634.42,1820.98 1634.5,1832.5C 1569.33,1833.67 1504,1833.67 1438.5,1832.5C 1438.33,1822.13 1437.66,1811.8 1436.5,1801.5C 1502,1801.02 1567.34,1800.02 1632.5,1798.5 Z"/></g>
<g><path style="opacity:1" fill="#000000" d="M 1438.5,1832.5 C 1504,1833.67 1569.33,1833.67 1634.5,1832.5C 1697.25,1831.52 1759.91,1828.86 1822.5,1824.5C 1822.5,1867.17 1822.5,1909.83 1822.5,1952.5C 1820.17,1952.5 1817.83,1952.5 1815.5,1952.5C 1741.5,1952.5 1667.5,1952.5 1593.5,1952.5C 1542.83,1952.5 1492.17,1952.5 1441.5,1952.5C 1362.17,1952.5 1282.83,1952.5 1203.5,1952.5C 1203.5,1951.17 1203.5,1949.83 1203.5,1948.5C 1203.17,1905.16 1203.5,1861.83 1204.5,1818.5C 1245.74,1822.66 1287.07,1825.83 1328.5,1828C 1365.15,1829.91 1401.82,1831.41 1438.5,1832.5 Z"/></g>
<g><path style="opacity:0.796" fill="#3a0f0f" d="M 1822.5,1824.5 C 1822.83,1824.5 1823.17,1824.5 1823.5,1824.5C 1823.5,1867.5 1823.5,1910.5 1823.5,1953.5C 1821.17,1953.5 1818.83,1953.5 1816.5,1953.5C 1815.83,1953.5 1815.5,1953.17 1815.5,1952.5C 1817.83,1952.5 1820.17,1952.5 1822.5,1952.5C 1822.5,1909.83 1822.5,1867.17 1822.5,1824.5 Z"/></g>
<g><path style="opacity:1" fill="#f1b078" d="M 2100.5,1873.5 C 2149.18,1888.89 2197.85,1904.39 2246.5,1920C 2253.7,1922.71 2255.04,1927.04 2250.5,1933C 2247.75,1934.75 2244.75,1935.75 2241.5,1936C 2214.46,1936.51 2187.46,1937.51 2160.5,1939C 2190.91,1950.14 2221.24,1961.47 2251.5,1973C 2260.2,1975.87 2265.54,1981.7 2267.5,1990.5C 2266.92,1996.25 2263.92,2000.08 2258.5,2002C 2247.97,2004.44 2237.31,2005.11 2226.5,2004C 2215.4,2002.94 2204.4,2001.6 2193.5,2000C 2207.71,2007.27 2222.04,2014.27 2236.5,2021C 2243.89,2024.07 2249.73,2028.9 2254,2035.5C 2256.56,2042.49 2254.73,2047.99 2248.5,2052C 2244.41,2053.21 2240.25,2054.04 2236,2054.5C 2204.03,2051.31 2172.86,2044.81 2142.5,2035C 2160.61,2051.11 2178.11,2067.94 2195,2085.5C 2200.46,2092.45 2201.79,2100.11 2199,2108.5C 2193.64,2115.08 2186.81,2117.25 2178.5,2115C 2175.38,2113.94 2172.38,2112.61 2169.5,2111C 2137.04,2084.21 2104.87,2057.04 2073,2029.5C 2072.75,2059.74 2066.75,2088.74 2055,2116.5C 2046.93,2128.63 2036.43,2131.46 2023.5,2125C 2016.89,2118.95 2013.06,2111.45 2012,2102.5C 2007.2,2061.11 2002.36,2019.78 1997.5,1978.5C 2015.46,1959.37 2033.63,1940.37 2052,1921.5C 2068.08,1905.25 2084.25,1889.25 2100.5,1873.5 Z"/></g>
<g><path style="opacity:1" fill="#b73133" d="M 1202.5,1948.5 C 1202.83,1948.5 1203.17,1948.5 1203.5,1948.5C 1203.5,1949.83 1203.5,1951.17 1203.5,1952.5C 1282.83,1952.5 1362.17,1952.5 1441.5,1952.5C 1441.5,1952.83 1441.5,1953.17 1441.5,1953.5C 1424.36,2030.39 1407.69,2107.39 1391.5,2184.5C 1336.75,2170.48 1282.09,2156.15 1227.5,2141.5C 1189.83,2131.78 1152.16,2121.94 1114.5,2112C 1113.57,2111.61 1112.91,2110.95 1112.5,2110C 1142.12,2055.91 1172.12,2002.08 1202.5,1948.5 Z"/></g>
<g><path style="opacity:1" fill="#4e2b62" d="M 1441.5,1953.5 C 1441.5,1953.17 1441.5,1952.83 1441.5,1952.5C 1492.17,1952.5 1542.83,1952.5 1593.5,1952.5C 1593.82,1959.69 1593.49,1966.69 1592.5,1973.5C 1592.5,1966.83 1592.5,1960.17 1592.5,1953.5C 1542.17,1953.5 1491.83,1953.5 1441.5,1953.5 Z"/></g>
<g><path style="opacity:1" fill="#473b9b" d="M 1441.5,1953.5 C 1491.83,1953.5 1542.17,1953.5 1592.5,1953.5C 1592.5,1960.17 1592.5,1966.83 1592.5,1973.5C 1592,2051.17 1591.33,2128.83 1590.5,2206.5C 1678.11,2185.01 1765.78,2163.68 1853.5,2142.5C 1856.14,2322.83 1858.47,2503.16 1860.5,2683.5C 1861.13,2699.74 1860.46,2715.74 1858.5,2731.5C 1852.99,2733.33 1847.32,2735 1841.5,2736.5C 1800.69,2747.04 1760.02,2758.2 1719.5,2770C 1718.94,2770.38 1718.61,2770.88 1718.5,2771.5C 1708.29,2773.93 1698.12,2776.59 1688,2779.5C 1687.05,2779.09 1686.39,2778.43 1686,2777.5C 1626.99,2575.79 1579.16,2371.46 1542.5,2164.5C 1549.17,2171.99 1555.51,2179.82 1561.5,2188C 1568.39,2188.69 1570.23,2185.86 1567,2179.5C 1529.31,2131.31 1491.81,2082.98 1454.5,2034.5C 1447.62,2032.55 1445.45,2034.88 1448,2041.5C 1474.67,2075.53 1500.84,2109.87 1526.5,2144.5C 1504.16,2343.24 1490.16,2542.57 1484.5,2742.5C 1483.53,2742.01 1482.53,2741.51 1481.5,2741C 1425.19,2737.78 1370.19,2727.78 1316.5,2711C 1314.19,2710.5 1311.86,2710.34 1309.5,2710.5C 1282.17,2520.83 1254.83,2331.17 1227.5,2141.5C 1282.09,2156.15 1336.75,2170.48 1391.5,2184.5C 1407.69,2107.39 1424.36,2030.39 1441.5,1953.5 Z"/></g>
<g><path style="opacity:1" fill="#b73132" d="M 1593.5,1952.5 C 1667.5,1952.5 1741.5,1952.5 1815.5,1952.5C 1815.5,1953.17 1815.83,1953.5 1816.5,1953.5C 1854.36,2010.05 1892.36,2066.55 1930.5,2123C 1930.09,2123.95 1929.43,2124.61 1928.5,2125C 1903.59,2131.31 1878.59,2137.14 1853.5,2142.5C 1765.78,2163.68 1678.11,2185.01 1590.5,2206.5C 1591.33,2128.83 1592,2051.17 1592.5,1973.5C 1593.49,1966.69 1593.82,1959.69 1593.5,1952.5 Z"/></g>
<g><path style="opacity:1" fill="#090204" d="M 1542.5,2164.5 C 1537.52,2157.52 1532.18,2150.85 1526.5,2144.5C 1500.84,2109.87 1474.67,2075.53 1448,2041.5C 1445.45,2034.88 1447.62,2032.55 1454.5,2034.5C 1491.81,2082.98 1529.31,2131.31 1567,2179.5C 1570.23,2185.86 1568.39,2188.69 1561.5,2188C 1555.51,2179.82 1549.17,2171.99 1542.5,2164.5 Z"/></g>
<g><path style="opacity:1" fill="#0b0407" d="M 1847.5,2687.5 C 1850.45,2687.22 1853.28,2687.56 1856,2688.5C 1858.29,2692.76 1857.12,2695.59 1852.5,2697C 1795.64,2709.37 1738.8,2721.87 1682,2734.5C 1677.79,2733.47 1676.46,2730.81 1678,2726.5C 1679.65,2725.28 1681.48,2724.45 1683.5,2724C 1738.37,2712.13 1793.03,2699.96 1847.5,2687.5 Z"/></g>
<g><path style="opacity:1" fill="#0a0307" d="M 1309.5,2710.5 C 1311.86,2710.34 1314.19,2710.5 1316.5,2711C 1370.19,2727.78 1425.19,2737.78 1481.5,2741C 1482.53,2741.51 1483.53,2742.01 1484.5,2742.5C 1484.67,2744.62 1484.34,2746.62 1483.5,2748.5C 1424.82,2747.28 1367.49,2737.61 1311.5,2719.5C 1306.85,2718.83 1305.35,2716.16 1307,2711.5C 1307.67,2710.75 1308.5,2710.41 1309.5,2710.5 Z"/></g>
<g><path style="opacity:1" fill="#483b9a" d="M 1311.5,2719.5 C 1367.49,2737.61 1424.82,2747.28 1483.5,2748.5C 1483.5,2754.5 1483.5,2760.5 1483.5,2766.5C 1457.15,2766.83 1430.81,2766.33 1404.5,2765C 1378.66,2762.67 1352.99,2759.17 1327.5,2754.5C 1323.57,2753.45 1319.57,2752.78 1315.5,2752.5C 1314.17,2741.5 1312.83,2730.5 1311.5,2719.5 Z"/></g>
<g><path style="opacity:0.797" fill="#6e3674" d="M 1860.5,2683.5 C 1861.5,2699.32 1861.83,2715.32 1861.5,2731.5C 1860.5,2731.5 1859.5,2731.5 1858.5,2731.5C 1860.46,2715.74 1861.13,2699.74 1860.5,2683.5 Z"/></g>
<g><path style="opacity:1" fill="#020000" d="M 1841.5,2736.5 C 1914,2754.41 1973,2792.91 2018.5,2852C 2008.83,2852.67 1999.17,2852.67 1989.5,2852C 1902.44,2846.87 1815.44,2841.2 1728.5,2835C 1725.2,2813.73 1721.87,2792.56 1718.5,2771.5C 1718.61,2770.88 1718.94,2770.38 1719.5,2770C 1760.02,2758.2 1800.69,2747.04 1841.5,2736.5 Z"/></g>
<g><path style="opacity:1" fill="#030000" d="M 1327.5,2754.5 C 1352.99,2759.17 1378.66,2762.67 1404.5,2765C 1430.81,2766.33 1457.15,2766.83 1483.5,2766.5C 1482.89,2778.16 1482.56,2789.82 1482.5,2801.5C 1399.88,2829.99 1314.88,2845.82 1227.5,2849C 1206.48,2849.81 1185.48,2849.48 1164.5,2848C 1182.99,2824.17 1204.66,2803.84 1229.5,2787C 1260.26,2770.03 1292.92,2759.19 1327.5,2754.5 Z"/></g>
</svg>
