<?xml version="1.0" encoding="UTF-8"?>
<!DOCTYPE svg PUBLIC "-//W3C//DTD SVG 1.1//EN" "http://www.w3.org/Graphics/SVG/1.1/DTD/svg11.dtd">
<svg xmlns="http://www.w3.org/2000/svg" version="1.1" width="3000px" height="3000px" style="shape-rendering:geometricPrecision; text-rendering:geometricPrecision; image-rendering:optimizeQuality; fill-rule:evenodd; clip-rule:evenodd" xmlns:xlink="http://www.w3.org/1999/xlink">
<g><path style="opacity:0.999" fill="#652012" d="M 1593.5,634.5 C 1592.83,634.5 1592.5,634.833 1592.5,635.5C 1590.19,643.667 1588.86,652.001 1588.5,660.5C 1584.81,683.378 1582.14,706.378 1580.5,729.5C 1578.41,740.926 1577.25,752.593 1577,764.5C 1576.67,782.167 1576.33,799.833 1576,817.5C 1569.08,861.262 1543.58,884.595 1499.5,887.5C 1466.77,886.935 1443.27,871.935 1429,842.5C 1426.21,835.006 1424.21,827.339 1423,819.5C 1422.79,789.825 1423.29,760.158 1424.5,730.5C 1434.9,581.48 1475.73,441.48 1547,310.5C 1583.45,246.356 1627.95,188.189 1680.5,136C 1710.9,114.18 1742.23,112.847 1774.5,132C 1806.52,158.261 1815.02,190.761 1800,229.5C 1797.58,234.001 1794.92,238.334 1792,242.5C 1715.83,319.767 1660.16,410.1 1625,513.5C 1611.21,552.989 1600.71,593.322 1593.5,634.5 Z"/></g>
<g><path style="opacity:0.999" fill="#77b154" d="M 2262.5,710.5 C 2244.83,714.5 2227.16,718.667 2209.5,723C 2168.34,732.347 2126.67,736.014 2084.5,734C 2007.74,731.091 1931.41,723.758 1855.5,712C 1815.84,705.279 1776.17,698.779 1736.5,692.5C 1686.97,682.728 1637.64,672.061 1588.5,660.5C 1588.86,652.001 1590.19,643.667 1592.5,635.5C 1593.17,635.5 1593.5,635.167 1593.5,634.5C 1688.59,528.103 1802.59,448.603 1935.5,396C 2051.74,352.936 2171.41,339.269 2294.5,355C 2399.75,366.984 2497.75,399.984 2588.5,454C 2601.17,462.667 2613.83,471.333 2626.5,480C 2635.91,487.371 2644.91,495.205 2653.5,503.5C 2557.98,573.793 2455.31,632.627 2345.5,680C 2318.15,691.282 2290.48,701.448 2262.5,710.5 Z"/></g>
<g><path style="opacity:0.999" fill="#dd2d43" d="M 1424.5,730.5 C 1423.29,760.158 1422.79,789.825 1423,819.5C 1424.21,827.339 1426.21,835.006 1429,842.5C 1443.27,871.935 1466.77,886.935 1499.5,887.5C 1543.58,884.595 1569.08,861.262 1576,817.5C 1576.33,799.833 1576.67,782.167 1577,764.5C 1577.25,752.593 1578.41,740.926 1580.5,729.5C 1634.29,724.279 1686.29,711.946 1736.5,692.5C 1776.17,698.779 1815.84,705.279 1855.5,712C 1931.41,723.758 2007.74,731.091 2084.5,734C 2126.67,736.014 2168.34,732.347 2209.5,723C 2227.16,718.667 2244.83,714.5 2262.5,710.5C 2448.24,784.082 2568.41,917.082 2623,1109.5C 2641.6,1178.6 2651.6,1248.93 2653,1320.5C 2656.53,1654.49 2592.53,1974.83 2461,2281.5C 2410.54,2397.15 2348.87,2505.82 2276,2607.5C 2226.98,2675.87 2170.14,2737.37 2105.5,2792C 2065.87,2825.22 2021.87,2851.56 1973.5,2871C 1927.18,2887.73 1879.51,2893.07 1830.5,2887C 1784.76,2884.92 1740.09,2876.92 1696.5,2863C 1670.72,2853.28 1645.06,2843.28 1619.5,2833C 1539.16,2804.33 1458.83,2804.33 1378.5,2833C 1352.07,2843.92 1325.4,2854.26 1298.5,2864C 1256.16,2877.2 1212.83,2884.87 1168.5,2887C 1117.25,2893.48 1067.58,2887.48 1019.5,2869C 976.457,2850.66 936.79,2826.99 900.5,2798C 842.873,2750.04 791.04,2696.54 745,2637.5C 663.226,2529.04 594.893,2412.04 540,2286.5C 411.856,1990.79 347.022,1681.62 345.5,1359C 343.149,1256.79 358.316,1157.29 391,1060.5C 448.075,906.76 550.908,795.26 699.5,726C 787.074,687.19 878.741,664.857 974.5,659C 1032.67,654.833 1090.67,656.5 1148.5,664C 1170.72,667.645 1192.72,672.311 1214.5,678C 1253.73,690.52 1293.06,702.853 1332.5,715C 1362.77,722.555 1393.44,727.721 1424.5,730.5 Z"/></g>
</svg>
