<?xml version="1.0" encoding="UTF-8"?>
<!DOCTYPE svg PUBLIC "-//W3C//DTD SVG 1.1//EN" "http://www.w3.org/Graphics/SVG/1.1/DTD/svg11.dtd">
<svg xmlns="http://www.w3.org/2000/svg" version="1.1" width="3000px" height="3000px" style="shape-rendering:geometricPrecision; text-rendering:geometricPrecision; image-rendering:optimizeQuality; fill-rule:evenodd; clip-rule:evenodd" xmlns:xlink="http://www.w3.org/1999/xlink">
<g><path style="opacity:0.986" fill="#fe9acd" d="M 1908.5,292.5 C 1903.91,305.75 1900.58,319.417 1898.5,333.5C 1893.15,364.181 1893.32,394.848 1899,425.5C 1900.47,430.147 1903.14,433.814 1907,436.5C 1913.75,434.89 1918.92,431.223 1922.5,425.5C 1928.16,418.683 1931.82,410.85 1933.5,402C 1938.53,401.586 1943.53,401.919 1948.5,403C 1951.45,403.096 1954.12,403.929 1956.5,405.5C 1953.7,419.766 1947.7,432.433 1938.5,443.5C 1930.41,453.462 1919.91,458.795 1907,459.5C 1897.42,459.207 1889.75,455.207 1884,447.5C 1876.09,432.861 1872.09,417.195 1872,400.5C 1870.81,378.403 1871.65,356.403 1874.5,334.5C 1877.11,320.093 1880.11,305.759 1883.5,291.5C 1889.01,266.465 1898.51,243.132 1912,221.5C 1922.18,207.667 1935.68,199.334 1952.5,196.5C 1963.18,196.561 1971.68,200.894 1978,209.5C 1987.95,225.704 1992.78,243.371 1992.5,262.5C 1991.59,271.139 1991.25,279.806 1991.5,288.5C 1983.11,288.83 1974.77,288.33 1966.5,287C 1967.89,271.871 1967.72,256.704 1966,241.5C 1964.48,235.471 1962.15,229.804 1959,224.5C 1957.5,222.323 1955.5,220.99 1953,220.5C 1948.01,221.912 1943.51,224.245 1939.5,227.5C 1928.38,238.719 1920.55,252.052 1916,267.5C 1912.99,275.702 1910.49,284.036 1908.5,292.5 Z"/></g>
<g><path style="opacity:0.986" fill="#fe9acd" d="M 910.5,288.5 C 902.68,289.002 894.68,289.002 886.5,288.5C 887.999,273.812 887.833,259.145 886,244.5C 884.605,235.965 881.105,228.465 875.5,222C 869.383,221.718 864.049,223.718 859.5,228C 848.84,238.139 841.34,250.306 837,264.5C 834.191,272.427 831.691,280.427 829.5,288.5C 823.459,306.335 819.126,324.668 816.5,343.5C 814.551,361.11 814.051,378.777 815,396.5C 815.118,406.994 816.452,417.328 819,427.5C 820.979,435.851 825.812,438.351 833.5,435C 836.666,433 839.332,430.5 841.5,427.5C 847.587,420.317 851.254,411.984 852.5,402.5C 860.19,402.92 867.856,403.586 875.5,404.5C 873.404,421.022 866.737,435.356 855.5,447.5C 847.719,455.056 838.386,459.389 827.5,460.5C 816.183,460.259 807.683,455.259 802,445.5C 795.623,432.957 792.29,419.624 792,405.5C 791.253,385.151 791.42,364.818 792.5,344.5C 795.454,325.403 799.454,306.403 804.5,287.5C 809.779,265.157 818.279,244.157 830,224.5C 839.058,211.894 850.892,203.06 865.5,198C 881.514,195.424 893.348,201.257 901,215.5C 906.663,226.485 909.997,238.152 911,250.5C 911.708,263.185 911.541,275.852 910.5,288.5 Z M 886.5,288.5 C 867.5,288.5 848.5,288.5 829.5,288.5C 831.691,280.427 834.191,272.427 837,264.5C 841.34,250.306 848.84,238.139 859.5,228C 864.049,223.718 869.383,221.718 875.5,222C 881.105,228.465 884.605,235.965 886,244.5C 887.833,259.145 887.999,273.812 886.5,288.5 Z"/></g>
<g><path style="opacity:0.986" fill="#fe9acd" d="M 1446.5,290.5 C 1440.81,305.913 1437.15,321.913 1435.5,338.5C 1432.55,351.023 1431.22,363.856 1431.5,377C 1431.48,393.653 1432.98,410.153 1436,426.5C 1436.96,429.377 1438.29,432.044 1440,434.5C 1443.5,438.039 1447.34,438.206 1451.5,435C 1454.72,433.285 1457.05,430.785 1458.5,427.5C 1464.72,420.554 1468.72,412.387 1470.5,403C 1478.14,403.412 1485.81,403.912 1493.5,404.5C 1491.11,420.618 1484.44,434.618 1473.5,446.5C 1463.72,456.887 1451.72,461.387 1437.5,460C 1428.87,457.037 1422.37,451.537 1418,443.5C 1411.67,429.196 1408.67,414.196 1409,398.5C 1408.33,384.5 1408.33,370.5 1409,356.5C 1409.38,350.389 1410.21,344.389 1411.5,338.5C 1413.57,322.211 1416.91,306.211 1421.5,290.5C 1426.53,266.112 1435.7,243.445 1449,222.5C 1459.18,208.667 1472.68,200.334 1489.5,197.5C 1501.47,197.961 1510.64,203.294 1517,213.5C 1525.42,229.068 1529.58,245.734 1529.5,263.5C 1528.76,271.813 1528.26,280.147 1528,288.5C 1524.25,289.15 1520.42,289.483 1516.5,289.5C 1512.05,289.604 1507.72,289.104 1503.5,288C 1504.91,273.2 1504.74,258.367 1503,243.5C 1501.65,237.117 1499.32,231.117 1496,225.5C 1491.47,220.481 1486.64,220.315 1481.5,225C 1474.2,229.757 1468.37,235.923 1464,243.5C 1456.47,258.552 1450.64,274.219 1446.5,290.5 Z"/></g>
<g><path style="opacity:0.986" fill="#fe9acd" d="M 2217.5,293.5 C 2216.88,293.611 2216.38,293.944 2216,294.5C 2212.53,306.659 2210.03,318.993 2208.5,331.5C 2204.77,347.305 2203.11,363.472 2203.5,380C 2203.26,394.62 2204.43,409.12 2207,423.5C 2211.12,440.325 2218.62,441.992 2229.5,428.5C 2236.71,421.41 2240.71,412.743 2241.5,402.5C 2249.57,403.193 2257.57,404.36 2265.5,406C 2262.34,422.148 2255.34,436.315 2244.5,448.5C 2239.25,452.568 2233.58,456.068 2227.5,459C 2205.15,463.564 2190.98,454.731 2185,432.5C 2183.34,424.555 2182.01,416.555 2181,408.5C 2179.75,382.742 2180.58,357.076 2183.5,331.5C 2186.16,318.85 2189.16,306.183 2192.5,293.5C 2197.59,268.004 2207.09,244.338 2221,222.5C 2230.99,208.847 2244.32,200.514 2261,197.5C 2273.32,198.324 2282.65,203.99 2289,214.5C 2295.29,225.696 2298.95,237.696 2300,250.5C 2300.69,263.849 2300.52,277.183 2299.5,290.5C 2291.53,289.677 2283.53,289.344 2275.5,289.5C 2276.98,274.477 2276.81,259.477 2275,244.5C 2273.45,237.393 2270.78,230.726 2267,224.5C 2265.25,223.373 2263.41,222.373 2261.5,221.5C 2252.41,225.088 2244.91,230.755 2239,238.5C 2228.98,255.72 2221.82,274.053 2217.5,293.5 Z"/></g>
<g><path style="opacity:0.985" fill="#fe9acd" d="M 1836.5,291.5 C 1834.17,291.5 1831.83,291.5 1829.5,291.5C 1824.02,290.511 1818.36,290.178 1812.5,290.5C 1814.22,274.089 1813.72,257.755 1811,241.5C 1809.55,236.601 1807.55,231.935 1805,227.5C 1803.26,225.259 1801.09,223.592 1798.5,222.5C 1789.46,226.024 1781.96,231.691 1776,239.5C 1766.59,255.91 1759.42,273.244 1754.5,291.5C 1750.02,305.882 1746.69,320.549 1744.5,335.5C 1739.67,364.02 1739.17,392.686 1743,421.5C 1744.3,427.602 1746.8,433.102 1750.5,438C 1758.17,438.497 1763.84,435.33 1767.5,428.5C 1774.05,421.532 1777.72,413.199 1778.5,403.5C 1786.64,404.018 1794.64,405.351 1802.5,407.5C 1799.26,422.98 1792.59,436.647 1782.5,448.5C 1772.28,458.741 1759.94,462.908 1745.5,461C 1737.21,458.376 1731.04,453.209 1727,445.5C 1721.54,433.787 1718.54,421.454 1718,408.5C 1717.33,390.167 1717.33,371.833 1718,353.5C 1718.7,347.467 1719.53,341.467 1720.5,335.5C 1723.18,320.767 1726.18,306.1 1729.5,291.5C 1735.35,269.11 1743.85,247.777 1755,227.5C 1763.92,214.577 1775.76,205.41 1790.5,200C 1805.98,196.817 1817.82,201.984 1826,215.5C 1832.29,226.696 1835.95,238.696 1837,251.5C 1837.69,264.849 1837.52,278.183 1836.5,291.5 Z M 1829.5,291.5 C 1804.5,291.5 1779.5,291.5 1754.5,291.5C 1759.42,273.244 1766.59,255.91 1776,239.5C 1781.96,231.691 1789.46,226.024 1798.5,222.5C 1801.09,223.592 1803.26,225.259 1805,227.5C 1807.55,231.935 1809.55,236.601 1811,241.5C 1813.72,257.755 1814.22,274.089 1812.5,290.5C 1818.36,290.178 1824.02,290.511 1829.5,291.5 Z"/></g>
<g><path style="opacity:0.986" fill="#fe9acd" d="M 2063.5,292.5 C 2062.88,292.611 2062.38,292.944 2062,293.5C 2058.37,306.345 2055.54,319.345 2053.5,332.5C 2050.16,347.777 2048.83,363.277 2049.5,379C 2049,394.636 2050.16,410.136 2053,425.5C 2054.06,428.618 2055.39,431.618 2057,434.5C 2060.88,438.235 2065.05,438.402 2069.5,435C 2072.04,432.63 2074.37,430.13 2076.5,427.5C 2082.59,420.317 2086.25,411.984 2087.5,402.5C 2094.46,403.566 2101.46,404.399 2108.5,405C 2109.52,405.519 2110.18,406.353 2110.5,407.5C 2107.7,421.771 2101.7,434.438 2092.5,445.5C 2082.23,457.536 2069.23,462.369 2053.5,460C 2041.4,454.663 2033.9,445.497 2031,432.5C 2024.41,399.259 2023.91,365.926 2029.5,332.5C 2031.86,319.047 2034.86,305.714 2038.5,292.5C 2043.7,268.383 2052.54,245.717 2065,224.5C 2075.52,209.406 2089.86,200.406 2108,197.5C 2123.02,199.834 2133.35,208.167 2139,222.5C 2142.99,232.802 2145.33,243.469 2146,254.5C 2146.5,266.508 2146.33,278.508 2145.5,290.5C 2137.52,289.724 2129.52,289.39 2121.5,289.5C 2122.87,275.144 2122.71,260.811 2121,246.5C 2119.8,240.227 2117.8,234.227 2115,228.5C 2113.31,225.305 2110.81,222.972 2107.5,221.5C 2097.73,224.968 2089.9,230.968 2084,239.5C 2074.51,256.137 2067.68,273.804 2063.5,292.5 Z"/></g>
<g><path style="opacity:0.986" fill="#fe9acd" d="M 1373.5,290.5 C 1365.32,290.826 1357.32,290.492 1349.5,289.5C 1351,275.145 1350.83,260.812 1349,246.5C 1347.78,237.889 1344.28,230.389 1338.5,224C 1335.41,223.348 1332.41,223.682 1329.5,225C 1314.91,235.321 1305.07,249.154 1300,266.5C 1296.99,274.018 1294.49,281.685 1292.5,289.5C 1287.12,305.719 1283.12,322.386 1280.5,339.5C 1276.73,366.783 1276.56,394.116 1280,421.5C 1280.97,427.749 1283.47,433.249 1287.5,438C 1295.2,438.466 1300.87,435.299 1304.5,428.5C 1310.74,421.527 1314.74,413.36 1316.5,404C 1323.81,404.685 1331.14,405.519 1338.5,406.5C 1336.58,422.009 1330.58,435.676 1320.5,447.5C 1312.17,455.665 1302.17,460.665 1290.5,462.5C 1275.91,461.087 1266.07,453.42 1261,439.5C 1257.29,428.827 1255.29,417.827 1255,406.5C 1254,384.446 1254.5,362.446 1256.5,340.5C 1259.37,323.355 1263.04,306.355 1267.5,289.5C 1273.19,265.467 1282.69,243.134 1296,222.5C 1304.47,212.18 1314.97,204.68 1327.5,200C 1341.35,197.06 1352.52,201.227 1361,212.5C 1368.73,224.699 1373.07,238.033 1374,252.5C 1374.71,265.185 1374.54,277.852 1373.5,290.5 Z M 1349.5,289.5 C 1330.5,289.5 1311.5,289.5 1292.5,289.5C 1294.49,281.685 1296.99,274.018 1300,266.5C 1305.07,249.154 1314.91,235.321 1329.5,225C 1332.41,223.682 1335.41,223.348 1338.5,224C 1344.28,230.389 1347.78,237.889 1349,246.5C 1350.83,260.812 1351,275.145 1349.5,289.5 Z"/></g>
<g><path style="opacity:0.988" fill="#fe9acd" d="M 756.5,287.5 C 756.884,289.665 756.217,291.332 754.5,292.5C 747.224,291.535 739.891,291.201 732.5,291.5C 732.5,290.167 732.5,288.833 732.5,287.5C 734.144,273.091 733.644,258.757 731,244.5C 729.501,238.501 727.168,232.834 724,227.5C 719.904,222.768 715.404,222.601 710.5,227C 703.667,231.167 698.167,236.667 694,243.5C 686.221,257.392 680.388,272.058 676.5,287.5C 669.69,306.191 665.024,325.524 662.5,345.5C 660.473,366.772 659.973,388.105 661,409.5C 661.311,419.047 663.645,428.047 668,436.5C 671.851,440.096 676.017,440.263 680.5,437C 682.706,434.963 684.706,432.797 686.5,430.5C 693.16,423.173 697.16,414.506 698.5,404.5C 706.156,405.582 713.822,406.582 721.5,407.5C 719.11,423.612 712.443,437.612 701.5,449.5C 693.701,457.482 684.201,462.149 673,463.5C 662.836,463.086 654.836,458.753 649,450.5C 642.556,439.402 638.889,427.402 638,414.5C 635.834,391.47 636.001,368.47 638.5,345.5C 641.829,326.16 645.829,306.827 650.5,287.5C 654.768,272.863 659.935,258.53 666,244.5C 674.614,223.552 689.447,209.052 710.5,201C 719.933,199.121 728.6,200.788 736.5,206C 747.674,217.52 754.174,231.353 756,247.5C 757.772,260.818 757.939,274.151 756.5,287.5 Z M 732.5,287.5 C 713.833,287.5 695.167,287.5 676.5,287.5C 680.388,272.058 686.221,257.392 694,243.5C 698.167,236.667 703.667,231.167 710.5,227C 715.404,222.601 719.904,222.768 724,227.5C 727.168,232.834 729.501,238.501 731,244.5C 733.644,258.757 734.144,273.091 732.5,287.5 Z"/></g>
<g><path style="opacity:0.987" fill="#fe9acd" d="M 1065.5,288.5 C 1064.57,289.568 1064.23,290.901 1064.5,292.5C 1056.85,291.93 1049.18,291.596 1041.5,291.5C 1041.5,290.5 1041.5,289.5 1041.5,288.5C 1041.89,274.122 1041.39,259.789 1040,245.5C 1038.5,239.501 1036.17,233.834 1033,228.5C 1031.5,226.323 1029.5,224.99 1027,224.5C 1017.58,227.719 1009.91,233.386 1004,241.5C 995.453,256.307 988.953,271.974 984.5,288.5C 978.622,306.014 974.289,324.014 971.5,342.5C 967.198,371.249 967.698,399.916 973,428.5C 974.059,431.618 975.392,434.618 977,437.5C 981.153,440.108 985.32,439.941 989.5,437C 992.039,434.63 994.372,432.13 996.5,429.5C 1002.16,422.683 1005.82,414.85 1007.5,406C 1015.19,405.918 1022.86,406.418 1030.5,407.5C 1028.28,422.605 1022.28,435.938 1012.5,447.5C 1004.37,456.647 994.206,461.981 982,463.5C 969.816,462.907 960.816,457.24 955,446.5C 949.429,433.081 946.429,419.081 946,404.5C 945.047,383.785 945.547,363.118 947.5,342.5C 950.585,324.422 954.585,306.422 959.5,288.5C 964.972,266.56 973.472,245.893 985,226.5C 993.377,215.566 1003.88,207.4 1016.5,202C 1036.25,197.624 1050.08,204.791 1058,223.5C 1063.43,237.484 1066.26,251.984 1066.5,267C 1065.55,274.122 1065.22,281.288 1065.5,288.5 Z M 1041.5,288.5 C 1022.5,288.5 1003.5,288.5 984.5,288.5C 988.953,271.974 995.453,256.307 1004,241.5C 1009.91,233.386 1017.58,227.719 1027,224.5C 1029.5,224.99 1031.5,226.323 1033,228.5C 1036.17,233.834 1038.5,239.501 1040,245.5C 1041.39,259.789 1041.89,274.122 1041.5,288.5 Z"/></g>
<g><path style="opacity:0.986" fill="#fe9acd" d="M 1682.5,291.5 C 1674.58,292.181 1666.58,292.181 1658.5,291.5C 1660.27,275.753 1659.77,260.087 1657,244.5C 1655.44,236.874 1651.94,230.374 1646.5,225C 1641.29,224.926 1636.63,226.593 1632.5,230C 1623.32,238.176 1616.49,248.009 1612,259.5C 1607.8,269.608 1604.3,279.942 1601.5,290.5C 1599.23,295.894 1597.39,301.56 1596,307.5C 1593.46,317.046 1591.62,326.712 1590.5,336.5C 1587.1,351.426 1585.76,366.593 1586.5,382C 1586.21,395.91 1587.04,409.744 1589,423.5C 1590.01,429.195 1592.17,434.361 1595.5,439C 1596.61,439.638 1597.78,440.138 1599,440.5C 1605.49,438.858 1610.32,435.192 1613.5,429.5C 1619.83,422.836 1623.49,414.836 1624.5,405.5C 1632.15,406.313 1639.82,406.98 1647.5,407.5C 1645.89,422.341 1640.23,435.341 1630.5,446.5C 1617.89,462.401 1602.22,466.568 1583.5,459C 1573.67,450.859 1567.84,440.359 1566,427.5C 1561.3,397.405 1561.47,367.405 1566.5,337.5C 1568.73,321.59 1572.06,305.924 1576.5,290.5C 1581.87,266.864 1591.04,244.864 1604,224.5C 1612.26,214.451 1622.42,206.951 1634.5,202C 1654.95,197.978 1668.78,205.811 1676,225.5C 1680.23,235.741 1682.56,246.408 1683,257.5C 1683.51,268.842 1683.35,280.176 1682.5,291.5 Z M 1658.5,291.5 C 1639.53,290.551 1620.53,290.218 1601.5,290.5C 1604.3,279.942 1607.8,269.608 1612,259.5C 1616.49,248.009 1623.32,238.176 1632.5,230C 1636.63,226.593 1641.29,224.926 1646.5,225C 1651.94,230.374 1655.44,236.874 1657,244.5C 1659.77,260.087 1660.27,275.753 1658.5,291.5 Z"/></g>
<g><path style="opacity:0.987" fill="#fe9acd" d="M 1219.5,289.5 C 1219.5,291.167 1219.5,292.833 1219.5,294.5C 1211.5,294.5 1203.5,294.5 1195.5,294.5C 1195.5,292.833 1195.5,291.167 1195.5,289.5C 1197.14,275.094 1196.64,260.76 1194,246.5C 1192.73,242.01 1191.06,237.677 1189,233.5C 1187.31,230.305 1184.81,227.972 1181.5,226.5C 1172.25,229.871 1164.75,235.538 1159,243.5C 1150.27,257.862 1143.77,273.195 1139.5,289.5C 1133.8,305.31 1129.8,321.644 1127.5,338.5C 1126.6,339.209 1126.26,340.209 1126.5,341.5C 1123.57,363.386 1122.73,385.386 1124,407.5C 1123.98,418.722 1126.31,429.388 1131,439.5C 1134.88,443.235 1139.05,443.402 1143.5,440C 1146.37,437.297 1149.04,434.464 1151.5,431.5C 1157,424.482 1160.34,416.482 1161.5,407.5C 1169.15,408.609 1176.82,409.609 1184.5,410.5C 1182.52,424.117 1177.52,436.45 1169.5,447.5C 1165,451.83 1160.34,455.997 1155.5,460C 1130.56,472.287 1113.73,465.12 1105,438.5C 1098.84,406.315 1098,373.981 1102.5,341.5C 1105.59,324.077 1109.59,306.744 1114.5,289.5C 1119.85,265.927 1129.35,244.261 1143,224.5C 1153.37,212.459 1166.37,205.125 1182,202.5C 1196.32,204.477 1206.32,212.144 1212,225.5C 1219.8,246.179 1222.3,267.512 1219.5,289.5 Z M 1195.5,289.5 C 1176.83,289.5 1158.17,289.5 1139.5,289.5C 1143.77,273.195 1150.27,257.862 1159,243.5C 1164.75,235.538 1172.25,229.871 1181.5,226.5C 1184.81,227.972 1187.31,230.305 1189,233.5C 1191.06,237.677 1192.73,242.01 1194,246.5C 1196.64,260.76 1197.14,275.094 1195.5,289.5 Z"/></g>
<g><path style="opacity:0.996" fill="#6dc0db" d="M 650.5,287.5 C 645.829,306.827 641.829,326.16 638.5,345.5C 633.167,345.5 627.833,345.5 622.5,345.5C 629.101,1122.5 635.768,1899.5 642.5,2676.5C 642.5,2686.17 642.5,2695.83 642.5,2705.5C 659.009,2705.83 675.342,2705.5 691.5,2704.5C 1253.17,2699.63 1814.83,2694.63 2376.5,2689.5C 2369.76,1903.17 2363.1,1116.83 2356.5,330.5C 2307.16,330.248 2257.83,330.581 2208.5,331.5C 2210.03,318.993 2212.53,306.659 2216,294.5C 2216.38,293.944 2216.88,293.611 2217.5,293.5C 2284.17,293.5 2350.83,293.5 2417.5,293.5C 2416.29,852.404 2414.29,1411.24 2411.5,1970C 2411.83,1970.33 2412.17,1970.67 2412.5,1971C 2411.13,2247.77 2409.79,2524.6 2408.5,2801.5C 1799.17,2799.97 1189.83,2797.97 580.5,2795.5C 583.712,1959.5 586.712,1123.5 589.5,287.5C 609.833,287.5 630.167,287.5 650.5,287.5 Z"/></g>
<g><path style="opacity:0.993" fill="#6dbfda" d="M 676.5,287.5 C 695.167,287.5 713.833,287.5 732.5,287.5C 732.5,288.833 732.5,290.167 732.5,291.5C 739.891,291.201 747.224,291.535 754.5,292.5C 756.217,291.332 756.884,289.665 756.5,287.5C 772.5,287.5 788.5,287.5 804.5,287.5C 799.454,306.403 795.454,325.403 792.5,344.5C 749.16,344.288 705.827,344.621 662.5,345.5C 665.024,325.524 669.69,306.191 676.5,287.5 Z"/></g>
<g><path style="opacity:0.998" fill="#6dc0db" d="M 829.5,288.5 C 848.5,288.5 867.5,288.5 886.5,288.5C 894.68,289.002 902.68,289.002 910.5,288.5C 926.833,288.5 943.167,288.5 959.5,288.5C 954.585,306.422 950.585,324.422 947.5,342.5C 903.838,343.302 860.172,343.635 816.5,343.5C 819.126,324.668 823.459,306.335 829.5,288.5 Z"/></g>
<g><path style="opacity:0.995" fill="#6dbfdb" d="M 984.5,288.5 C 1003.5,288.5 1022.5,288.5 1041.5,288.5C 1041.5,289.5 1041.5,290.5 1041.5,291.5C 1049.18,291.596 1056.85,291.93 1064.5,292.5C 1064.23,290.901 1064.57,289.568 1065.5,288.5C 1081.86,288.243 1098.19,288.576 1114.5,289.5C 1109.59,306.744 1105.59,324.077 1102.5,341.5C 1058.83,341.516 1015.16,341.849 971.5,342.5C 974.289,324.014 978.622,306.014 984.5,288.5 Z"/></g>
<g><path style="opacity:0.998" fill="#6dc0db" d="M 1139.5,289.5 C 1158.17,289.5 1176.83,289.5 1195.5,289.5C 1195.5,291.167 1195.5,292.833 1195.5,294.5C 1203.5,294.5 1211.5,294.5 1219.5,294.5C 1219.5,292.833 1219.5,291.167 1219.5,289.5C 1235.5,289.5 1251.5,289.5 1267.5,289.5C 1263.04,306.355 1259.37,323.355 1256.5,340.5C 1225.83,340.5 1195.17,340.5 1164.5,340.5C 1151.79,341.146 1139.45,340.48 1127.5,338.5C 1129.8,321.644 1133.8,305.31 1139.5,289.5 Z"/></g>
<g><path style="opacity:0.996" fill="#6dbfda" d="M 1292.5,289.5 C 1311.5,289.5 1330.5,289.5 1349.5,289.5C 1357.32,290.492 1365.32,290.826 1373.5,290.5C 1389.5,290.5 1405.5,290.5 1421.5,290.5C 1416.91,306.211 1413.57,322.211 1411.5,338.5C 1367.83,338.766 1324.17,339.099 1280.5,339.5C 1283.12,322.386 1287.12,305.719 1292.5,289.5 Z"/></g>
<g><path style="opacity:0.993" fill="#6dc0db" d="M 1446.5,290.5 C 1489.83,290.5 1533.17,290.5 1576.5,290.5C 1572.06,305.924 1568.73,321.59 1566.5,337.5C 1522.83,337.382 1479.16,337.716 1435.5,338.5C 1437.15,321.913 1440.81,305.913 1446.5,290.5 Z"/></g>
<g><path style="opacity:0.998" fill="#6ec0db" d="M 1601.5,290.5 C 1620.53,290.218 1639.53,290.551 1658.5,291.5C 1666.58,292.181 1674.58,292.181 1682.5,291.5C 1698.17,291.5 1713.83,291.5 1729.5,291.5C 1726.18,306.1 1723.18,320.767 1720.5,335.5C 1677.17,336.3 1633.84,336.633 1590.5,336.5C 1591.62,326.712 1593.46,317.046 1596,307.5C 1597.39,301.56 1599.23,295.894 1601.5,290.5 Z"/></g>
<g><path style="opacity:0.991" fill="#6ec0db" d="M 1754.5,291.5 C 1779.5,291.5 1804.5,291.5 1829.5,291.5C 1831.83,291.5 1834.17,291.5 1836.5,291.5C 1852.17,291.5 1867.83,291.5 1883.5,291.5C 1880.11,305.759 1877.11,320.093 1874.5,334.5C 1831.17,335.11 1787.84,335.443 1744.5,335.5C 1746.69,320.549 1750.02,305.882 1754.5,291.5 Z"/></g>
<g><path style="opacity:0.998" fill="#6dbfda" d="M 1908.5,292.5 C 1951.83,292.5 1995.17,292.5 2038.5,292.5C 2034.86,305.714 2031.86,319.047 2029.5,332.5C 1985.84,333.343 1942.17,333.676 1898.5,333.5C 1900.58,319.417 1903.91,305.75 1908.5,292.5 Z"/></g>
<g><path style="opacity:0.992" fill="#6dc0db" d="M 2063.5,292.5 C 2106.51,292.205 2149.51,292.538 2192.5,293.5C 2189.16,306.183 2186.16,318.85 2183.5,331.5C 2140.17,331.775 2096.83,332.108 2053.5,332.5C 2055.54,319.345 2058.37,306.345 2062,293.5C 2062.38,292.944 2062.88,292.611 2063.5,292.5 Z"/></g>
<g><path style="opacity:1" fill="#fefefe" d="M 691.5,2704.5 C 675.5,2704.5 659.5,2704.5 643.5,2704.5C 643.827,2694.99 643.494,2685.65 642.5,2676.5C 635.768,1899.5 629.101,1122.5 622.5,345.5C 627.833,345.5 633.167,345.5 638.5,345.5C 636.001,368.47 635.834,391.47 638,414.5C 638.889,427.402 642.556,439.402 649,450.5C 654.836,458.753 662.836,463.086 673,463.5C 684.201,462.149 693.701,457.482 701.5,449.5C 715.314,456.096 726.814,453.096 736,440.5C 745.378,422.373 742.878,406.206 728.5,392C 709.014,383.157 695.18,388.657 687,408.5C 685.17,415.794 685.003,423.127 686.5,430.5C 684.706,432.797 682.706,434.963 680.5,437C 676.017,440.263 671.851,440.096 668,436.5C 663.645,428.047 661.311,419.047 661,409.5C 659.973,388.105 660.473,366.772 662.5,345.5C 705.827,344.621 749.16,344.288 792.5,344.5C 791.42,364.818 791.253,385.151 792,405.5C 792.29,419.624 795.623,432.957 802,445.5C 807.683,455.259 816.183,460.259 827.5,460.5C 838.386,459.389 847.719,455.056 855.5,447.5C 872.081,454.247 884.581,449.58 893,433.5C 899.546,416.562 896.046,402.062 882.5,390C 864.279,381.519 850.779,386.352 842,404.5C 838.984,412.256 838.817,419.923 841.5,427.5C 839.332,430.5 836.666,433 833.5,435C 825.812,438.351 820.979,435.851 819,427.5C 816.452,417.328 815.118,406.994 815,396.5C 814.051,378.777 814.551,361.11 816.5,343.5C 860.172,343.635 903.838,343.302 947.5,342.5C 945.547,363.118 945.047,383.785 946,404.5C 946.429,419.081 949.429,433.081 955,446.5C 960.816,457.24 969.816,462.907 982,463.5C 994.206,461.981 1004.37,456.647 1012.5,447.5C 1020.6,451.627 1028.6,451.127 1036.5,446C 1049.61,434.401 1053.44,420.235 1048,403.5C 1038.17,384.207 1024,380.04 1005.5,391C 994.478,402.015 991.478,414.848 996.5,429.5C 994.372,432.13 992.039,434.63 989.5,437C 985.32,439.941 981.153,440.108 977,437.5C 975.392,434.618 974.059,431.618 973,428.5C 967.698,399.916 967.198,371.249 971.5,342.5C 1015.16,341.849 1058.83,341.516 1102.5,341.5C 1098,373.981 1098.84,406.315 1105,438.5C 1113.73,465.12 1130.56,472.287 1155.5,460C 1160.34,455.997 1165,451.83 1169.5,447.5C 1184.71,450.808 1195.54,445.142 1202,430.5C 1208.46,411.817 1203.63,396.984 1187.5,386C 1167.5,380.923 1154.67,388.423 1149,408.5C 1147.94,416.413 1148.78,424.08 1151.5,431.5C 1149.04,434.464 1146.37,437.297 1143.5,440C 1139.05,443.402 1134.88,443.235 1131,439.5C 1126.31,429.388 1123.98,418.722 1124,407.5C 1122.73,385.386 1123.57,363.386 1126.5,341.5C 1139.34,341.829 1152.01,341.495 1164.5,340.5C 1195.17,340.5 1225.83,340.5 1256.5,340.5C 1254.5,362.446 1254,384.446 1255,406.5C 1255.29,417.827 1257.29,428.827 1261,439.5C 1266.07,453.42 1275.91,461.087 1290.5,462.5C 1302.17,460.665 1312.17,455.665 1320.5,447.5C 1339.56,453.042 1352.06,446.042 1358,426.5C 1361.65,410.436 1356.81,397.603 1343.5,388C 1329.81,381.797 1318.31,384.63 1309,396.5C 1302.35,406.468 1300.85,417.135 1304.5,428.5C 1300.87,435.299 1295.2,438.466 1287.5,438C 1283.47,433.249 1280.97,427.749 1280,421.5C 1276.56,394.116 1276.73,366.783 1280.5,339.5C 1324.17,339.099 1367.83,338.766 1411.5,338.5C 1410.21,344.389 1409.38,350.389 1409,356.5C 1408.33,370.5 1408.33,384.5 1409,398.5C 1408.67,414.196 1411.67,429.196 1418,443.5C 1422.37,451.537 1428.87,457.037 1437.5,460C 1451.72,461.387 1463.72,456.887 1473.5,446.5C 1487.55,452.11 1499.05,448.777 1508,436.5C 1516.36,420.576 1515.03,405.576 1504,391.5C 1487.99,379.335 1473.99,381.335 1462,397.5C 1456.41,407.004 1455.24,417.004 1458.5,427.5C 1457.05,430.785 1454.72,433.285 1451.5,435C 1447.34,438.206 1443.5,438.039 1440,434.5C 1438.29,432.044 1436.96,429.377 1436,426.5C 1432.98,410.153 1431.48,393.653 1431.5,377C 1431.22,363.856 1432.55,351.023 1435.5,338.5C 1479.16,337.716 1522.83,337.382 1566.5,337.5C 1561.47,367.405 1561.3,397.405 1566,427.5C 1567.84,440.359 1573.67,450.859 1583.5,459C 1602.22,466.568 1617.89,462.401 1630.5,446.5C 1649.15,450.41 1661.32,443.077 1667,424.5C 1669.8,409.224 1665.3,396.724 1653.5,387C 1638.01,379.5 1625.51,383 1616,397.5C 1611.02,407.822 1610.19,418.489 1613.5,429.5C 1610.32,435.192 1605.49,438.858 1599,440.5C 1597.78,440.138 1596.61,439.638 1595.5,439C 1592.17,434.361 1590.01,429.195 1589,423.5C 1587.04,409.744 1586.21,395.91 1586.5,382C 1585.76,366.593 1587.1,351.426 1590.5,336.5C 1633.84,336.633 1677.17,336.3 1720.5,335.5C 1719.53,341.467 1718.7,347.467 1718,353.5C 1717.33,371.833 1717.33,390.167 1718,408.5C 1718.54,421.454 1721.54,433.787 1727,445.5C 1731.04,453.209 1737.21,458.376 1745.5,461C 1759.94,462.908 1772.28,458.741 1782.5,448.5C 1794.25,454.343 1804.75,452.343 1814,442.5C 1827.53,421.953 1824.7,404.12 1805.5,389C 1781.17,383.866 1767.84,393.866 1765.5,419C 1765.42,422.451 1766.09,425.618 1767.5,428.5C 1763.84,435.33 1758.17,438.497 1750.5,438C 1746.8,433.102 1744.3,427.602 1743,421.5C 1739.17,392.686 1739.67,364.02 1744.5,335.5C 1787.84,335.443 1831.17,335.11 1874.5,334.5C 1871.65,356.403 1870.81,378.403 1872,400.5C 1872.09,417.195 1876.09,432.861 1884,447.5C 1889.75,455.207 1897.42,459.207 1907,459.5C 1919.91,458.795 1930.41,453.462 1938.5,443.5C 1956.75,448.285 1968.92,441.618 1975,423.5C 1979.43,405.206 1973.6,391.373 1957.5,382C 1938.98,378.182 1926.81,385.349 1921,403.5C 1919.99,411.007 1920.49,418.34 1922.5,425.5C 1918.92,431.223 1913.75,434.89 1907,436.5C 1903.14,433.814 1900.47,430.147 1899,425.5C 1893.32,394.848 1893.15,364.181 1898.5,333.5C 1942.17,333.676 1985.84,333.343 2029.5,332.5C 2023.91,365.926 2024.41,399.259 2031,432.5C 2033.9,445.497 2041.4,454.663 2053.5,460C 2069.23,462.369 2082.23,457.536 2092.5,445.5C 2112.38,450.297 2124.88,442.63 2130,422.5C 2132.58,408.233 2128.41,396.4 2117.5,387C 2096.49,378.085 2082.32,384.585 2075,406.5C 2074.05,413.642 2074.55,420.642 2076.5,427.5C 2074.37,430.13 2072.04,432.63 2069.5,435C 2065.05,438.402 2060.88,438.235 2057,434.5C 2055.39,431.618 2054.06,428.618 2053,425.5C 2050.16,410.136 2049,394.636 2049.5,379C 2048.83,363.277 2050.16,347.777 2053.5,332.5C 2096.83,332.108 2140.17,331.775 2183.5,331.5C 2180.58,357.076 2179.75,382.742 2181,408.5C 2182.01,416.555 2183.34,424.555 2185,432.5C 2190.98,454.731 2205.15,463.564 2227.5,459C 2233.58,456.068 2239.25,452.568 2244.5,448.5C 2246.12,450.117 2248.12,451.284 2250.5,452C 2257.51,453.195 2264.18,452.195 2270.5,449C 2287.71,433.365 2289.88,415.865 2277,396.5C 2265.75,385.993 2253.58,384.826 2240.5,393C 2230.3,402.777 2226.63,414.61 2229.5,428.5C 2218.62,441.992 2211.12,440.325 2207,423.5C 2204.43,409.12 2203.26,394.62 2203.5,380C 2203.11,363.472 2204.77,347.305 2208.5,331.5C 2257.83,330.581 2307.16,330.248 2356.5,330.5C 2363.1,1116.83 2369.76,1903.17 2376.5,2689.5C 1814.83,2694.63 1253.17,2699.63 691.5,2704.5 Z"/></g>
<g><path style="opacity:0.804" fill="#cfe9f2" d="M 1127.5,338.5 C 1139.45,340.48 1151.79,341.146 1164.5,340.5C 1152.01,341.495 1139.34,341.829 1126.5,341.5C 1126.26,340.209 1126.6,339.209 1127.5,338.5 Z"/></g>
<g><path style="opacity:1" fill="#287c99" d="M 1938.5,443.5 C 1947.7,432.433 1953.7,419.766 1956.5,405.5C 1954.12,403.929 1951.45,403.096 1948.5,403C 1943.53,401.919 1938.53,401.586 1933.5,402C 1931.82,410.85 1928.16,418.683 1922.5,425.5C 1920.49,418.34 1919.99,411.007 1921,403.5C 1926.81,385.349 1938.98,378.182 1957.5,382C 1973.6,391.373 1979.43,405.206 1975,423.5C 1968.92,441.618 1956.75,448.285 1938.5,443.5 Z"/></g>
<g><path style="opacity:1" fill="#287c99" d="M 2092.5,445.5 C 2101.7,434.438 2107.7,421.771 2110.5,407.5C 2110.18,406.353 2109.52,405.519 2108.5,405C 2101.46,404.399 2094.46,403.566 2087.5,402.5C 2086.25,411.984 2082.59,420.317 2076.5,427.5C 2074.55,420.642 2074.05,413.642 2075,406.5C 2082.32,384.585 2096.49,378.085 2117.5,387C 2128.41,396.4 2132.58,408.233 2130,422.5C 2124.88,442.63 2112.38,450.297 2092.5,445.5 Z"/></g>
<g><path style="opacity:1" fill="#297d9a" d="M 1630.5,446.5 C 1640.23,435.341 1645.89,422.341 1647.5,407.5C 1639.82,406.98 1632.15,406.313 1624.5,405.5C 1623.49,414.836 1619.83,422.836 1613.5,429.5C 1610.19,418.489 1611.02,407.822 1616,397.5C 1625.51,383 1638.01,379.5 1653.5,387C 1665.3,396.724 1669.8,409.224 1667,424.5C 1661.32,443.077 1649.15,450.41 1630.5,446.5 Z"/></g>
<g><path style="opacity:1" fill="#287d99" d="M 1169.5,447.5 C 1177.52,436.45 1182.52,424.117 1184.5,410.5C 1176.82,409.609 1169.15,408.609 1161.5,407.5C 1160.34,416.482 1157,424.482 1151.5,431.5C 1148.78,424.08 1147.94,416.413 1149,408.5C 1154.67,388.423 1167.5,380.923 1187.5,386C 1203.63,396.984 1208.46,411.817 1202,430.5C 1195.54,445.142 1184.71,450.808 1169.5,447.5 Z"/></g>
<g><path style="opacity:1" fill="#2a7d9a" d="M 1473.5,446.5 C 1484.44,434.618 1491.11,420.618 1493.5,404.5C 1485.81,403.912 1478.14,403.412 1470.5,403C 1468.72,412.387 1464.72,420.554 1458.5,427.5C 1455.24,417.004 1456.41,407.004 1462,397.5C 1473.99,381.335 1487.99,379.335 1504,391.5C 1515.03,405.576 1516.36,420.576 1508,436.5C 1499.05,448.777 1487.55,452.11 1473.5,446.5 Z"/></g>
<g><path style="opacity:1" fill="#2a7d9a" d="M 855.5,447.5 C 866.737,435.356 873.404,421.022 875.5,404.5C 867.856,403.586 860.19,402.92 852.5,402.5C 851.254,411.984 847.587,420.317 841.5,427.5C 838.817,419.923 838.984,412.256 842,404.5C 850.779,386.352 864.279,381.519 882.5,390C 896.046,402.062 899.546,416.562 893,433.5C 884.581,449.58 872.081,454.247 855.5,447.5 Z"/></g>
<g><path style="opacity:1" fill="#287d99" d="M 1012.5,447.5 C 1022.28,435.938 1028.28,422.605 1030.5,407.5C 1022.86,406.418 1015.19,405.918 1007.5,406C 1005.82,414.85 1002.16,422.683 996.5,429.5C 991.478,414.848 994.478,402.015 1005.5,391C 1024,380.04 1038.17,384.207 1048,403.5C 1053.44,420.235 1049.61,434.401 1036.5,446C 1028.6,451.127 1020.6,451.627 1012.5,447.5 Z"/></g>
<g><path style="opacity:1" fill="#297d9a" d="M 1320.5,447.5 C 1330.58,435.676 1336.58,422.009 1338.5,406.5C 1331.14,405.519 1323.81,404.685 1316.5,404C 1314.74,413.36 1310.74,421.527 1304.5,428.5C 1300.85,417.135 1302.35,406.468 1309,396.5C 1318.31,384.63 1329.81,381.797 1343.5,388C 1356.81,397.603 1361.65,410.436 1358,426.5C 1352.06,446.042 1339.56,453.042 1320.5,447.5 Z"/></g>
<g><path style="opacity:1" fill="#297d9a" d="M 1782.5,448.5 C 1792.59,436.647 1799.26,422.98 1802.5,407.5C 1794.64,405.351 1786.64,404.018 1778.5,403.5C 1777.72,413.199 1774.05,421.532 1767.5,428.5C 1766.09,425.618 1765.42,422.451 1765.5,419C 1767.84,393.866 1781.17,383.866 1805.5,389C 1824.7,404.12 1827.53,421.953 1814,442.5C 1804.75,452.343 1794.25,454.343 1782.5,448.5 Z"/></g>
<g><path style="opacity:1" fill="#287d9a" d="M 701.5,449.5 C 712.443,437.612 719.11,423.612 721.5,407.5C 713.822,406.582 706.156,405.582 698.5,404.5C 697.16,414.506 693.16,423.173 686.5,430.5C 685.003,423.127 685.17,415.794 687,408.5C 695.18,388.657 709.014,383.157 728.5,392C 742.878,406.206 745.378,422.373 736,440.5C 726.814,453.096 715.314,456.096 701.5,449.5 Z"/></g>
<g><path style="opacity:1" fill="#297d9a" d="M 2244.5,448.5 C 2255.34,436.315 2262.34,422.148 2265.5,406C 2257.57,404.36 2249.57,403.193 2241.5,402.5C 2240.71,412.743 2236.71,421.41 2229.5,428.5C 2226.63,414.61 2230.3,402.777 2240.5,393C 2253.58,384.826 2265.75,385.993 2277,396.5C 2289.88,415.865 2287.71,433.365 2270.5,449C 2264.18,452.195 2257.51,453.195 2250.5,452C 2248.12,451.284 2246.12,450.117 2244.5,448.5 Z"/></g>
<g><path style="opacity:0.761" fill="#d1ebf3" d="M 642.5,2676.5 C 643.494,2685.65 643.827,2694.99 643.5,2704.5C 659.5,2704.5 675.5,2704.5 691.5,2704.5C 675.342,2705.5 659.009,2705.83 642.5,2705.5C 642.5,2695.83 642.5,2686.17 642.5,2676.5 Z"/></g>
</svg>
