<?xml version="1.0" encoding="UTF-8"?>
<!DOCTYPE svg PUBLIC "-//W3C//DTD SVG 1.1//EN" "http://www.w3.org/Graphics/SVG/1.1/DTD/svg11.dtd">
<svg xmlns="http://www.w3.org/2000/svg" version="1.1" width="3000px" height="3000px" style="shape-rendering:geometricPrecision; text-rendering:geometricPrecision; image-rendering:optimizeQuality; fill-rule:evenodd; clip-rule:evenodd" xmlns:xlink="http://www.w3.org/1999/xlink">
<g><path style="opacity:0.991" fill="#010101" d="M 1703.5,218.5 C 1720.27,245.665 1723.1,274.332 1712,304.5C 1561.33,680.5 1410.67,1056.5 1260,1432.5C 1258.58,1446.75 1264.75,1455.92 1278.5,1460C 1288.68,1460.82 1298.68,1460.66 1308.5,1459.5C 1401.5,1459.67 1494.5,1459.5 1587.5,1459C 1595.72,1456.65 1601.22,1451.49 1604,1443.5C 1604.33,1256.83 1604.67,1070.17 1605,883.5C 1608.26,845.599 1627.09,818.766 1661.5,803C 1669.23,799.986 1677.23,797.986 1685.5,797C 1790.83,796.333 1896.17,796.333 2001.5,797C 2024.19,800.092 2043.35,809.926 2059,826.5C 2061.39,829.379 2063.55,832.379 2065.5,835.5C 2073.74,848.329 2078.91,862.329 2081,877.5C 2081.33,1065.83 2081.67,1254.17 2082,1442.5C 2088.06,1457.46 2099.23,1463.46 2115.5,1460.5C 2120.68,1460.5 2125.68,1460.17 2130.5,1459.5C 2147.5,1459.33 2164.5,1459.5 2181.5,1460C 2209.23,1463.35 2231.23,1476.19 2247.5,1498.5C 2251.85,1506.54 2255.69,1514.88 2259,1523.5C 2260.84,1531.07 2262.18,1538.74 2263,1546.5C 2263.67,1655.5 2263.67,1764.5 2263,1873.5C 2261.12,1895.34 2252.95,1914.34 2238.5,1930.5C 2222.35,1947.74 2202.35,1957.24 2178.5,1959C 2169.17,1959.5 2159.84,1959.67 2150.5,1959.5C 2135.31,1958.22 2119.98,1958.22 2104.5,1959.5C 2104.67,2218.5 2104.5,2477.5 2104,2736.5C 2101.28,2756.91 2093.45,2774.91 2080.5,2790.5C 2063.42,2808.16 2042.42,2817.66 2017.5,2819C 1917.17,2819.69 1816.83,2820.02 1716.5,2820C 1668.46,2813.12 1640.96,2785.62 1634,2737.5C 1633.67,2485.83 1633.33,2234.17 1633,1982.5C 1630.49,1973.32 1624.66,1967.49 1615.5,1965C 1318.5,1964.67 1021.5,1964.33 724.5,1964C 679.124,1957.29 651.957,1931.46 643,1886.5C 642.333,1774.5 642.333,1662.5 643,1550.5C 644.039,1543.68 645.706,1537.01 648,1530.5C 850.727,1094.71 1053.73,659.046 1257,223.5C 1274.29,196.265 1299.12,181.432 1331.5,179C 1432.17,178.333 1532.83,178.333 1633.5,179C 1662.99,181.569 1686.32,194.736 1703.5,218.5 Z M 1364.5,247.5 C 1162.74,680.02 961.241,1112.69 760,1545.5C 758.039,1550.68 756.706,1556.01 756,1561.5C 755.333,1669.83 755.333,1778.17 756,1886.5C 756.696,1889.48 757.196,1892.48 757.5,1895.5C 746.436,1895.91 735.436,1895.41 724.5,1894C 717.446,1890.61 712.946,1885.11 711,1877.5C 710.333,1771.5 710.333,1665.5 711,1559.5C 711.667,1557.5 712.333,1555.5 713,1553.5C 911.667,1126.83 1110.33,700.167 1309,273.5C 1312.08,267.009 1315.41,260.675 1319,254.5C 1322.52,251.156 1326.69,248.989 1331.5,248C 1342.49,247.5 1353.49,247.333 1364.5,247.5 Z M 1725.5,865.5 C 1721.46,873.671 1719.29,882.338 1719,891.5C 1718.67,1078.17 1718.33,1264.83 1718,1451.5C 1711.63,1477.77 1695.13,1493.27 1668.5,1498C 1662.51,1498.5 1656.51,1498.67 1650.5,1498.5C 1666.29,1480.97 1674.13,1460.3 1674,1436.5C 1674.83,1253.6 1674.67,1070.76 1673.5,888C 1674.08,877.843 1679.08,870.843 1688.5,867C 1700.76,865.561 1713.09,865.061 1725.5,865.5 Z M 1686.5,1935.5 C 1713.09,1935.53 1731.92,1947.53 1743,1971.5C 1745.36,1977.96 1746.69,1984.62 1747,1991.5C 1747.33,2242.83 1747.67,2494.17 1748,2745.5C 1748.32,2747.59 1748.82,2749.59 1749.5,2751.5C 1742.81,2751.39 1736.15,2751.72 1729.5,2752.5C 1716.96,2753.15 1708.13,2747.82 1703,2736.5C 1702.67,2486.17 1702.33,2235.83 1702,1985.5C 1701.46,1967.33 1696.3,1950.67 1686.5,1935.5 Z"/></g>
<g><path style="opacity:0.991" fill="#29a9e1" d="M 1703.5,218.5 C 1735.8,218.647 1755.97,234.314 1764,265.5C 1765.06,274.974 1764.39,284.307 1762,293.5C 1611.33,669.5 1460.67,1045.5 1310,1421.5C 1305.17,1434.06 1304.67,1446.72 1308.5,1459.5C 1298.68,1460.66 1288.68,1460.82 1278.5,1460C 1264.75,1455.92 1258.58,1446.75 1260,1432.5C 1410.67,1056.5 1561.33,680.5 1712,304.5C 1723.1,274.332 1720.27,245.665 1703.5,218.5 Z"/></g>
<g><path style="opacity:1" fill="#29a9e1" d="M 1364.5,247.5 C 1454.17,247.333 1543.83,247.5 1633.5,248C 1646.53,252.558 1652.03,261.725 1650,275.5C 1499.2,652.246 1348.2,1028.91 1197,1405.5C 1186,1439.84 1192,1470.84 1215,1498.5C 1229.28,1513.06 1246.44,1522.56 1266.5,1527C 1376.83,1527.67 1487.17,1527.67 1597.5,1527C 1618.1,1522.7 1635.77,1513.2 1650.5,1498.5C 1656.51,1498.67 1662.51,1498.5 1668.5,1498C 1695.13,1493.27 1711.63,1477.77 1718,1451.5C 1718.33,1264.83 1718.67,1078.17 1719,891.5C 1719.29,882.338 1721.46,873.671 1725.5,865.5C 1815.1,864.336 1904.76,864.17 1994.5,865C 2003.56,867.73 2009.73,873.564 2013,882.5C 2013.33,1070.17 2013.67,1257.83 2014,1445.5C 2020.68,1490.85 2046.51,1518.01 2091.5,1527C 2120.17,1527.33 2148.83,1527.67 2177.5,1528C 2185.24,1530.74 2190.74,1535.91 2194,1543.5C 2194.67,1653.83 2194.67,1764.17 2194,1874.5C 2191.17,1881.33 2186.33,1886.17 2179.5,1889C 2153.2,1890.28 2126.87,1890.94 2100.5,1891C 2080.87,1893.09 2064.04,1900.92 2050,1914.5C 2043.52,1922.8 2039.18,1932.13 2037,1942.5C 2036.67,2205.83 2036.33,2469.17 2036,2732.5C 2033.81,2742.69 2027.64,2748.86 2017.5,2751C 1928.17,2751.5 1838.83,2751.67 1749.5,2751.5C 1748.82,2749.59 1748.32,2747.59 1748,2745.5C 1747.67,2494.17 1747.33,2242.83 1747,1991.5C 1746.69,1984.62 1745.36,1977.96 1743,1971.5C 1731.92,1947.53 1713.09,1935.53 1686.5,1935.5C 1671.27,1914.81 1650.94,1901.98 1625.5,1897C 1336.1,1896.83 1046.76,1896.33 757.5,1895.5C 757.196,1892.48 756.696,1889.48 756,1886.5C 755.333,1778.17 755.333,1669.83 756,1561.5C 756.706,1556.01 758.039,1550.68 760,1545.5C 961.241,1112.69 1162.74,680.02 1364.5,247.5 Z M 1725.5,865.5 C 1721.46,873.671 1719.29,882.338 1719,891.5C 1718.67,1078.17 1718.33,1264.83 1718,1451.5C 1711.63,1477.77 1695.13,1493.27 1668.5,1498C 1662.51,1498.5 1656.51,1498.67 1650.5,1498.5C 1666.29,1480.97 1674.13,1460.3 1674,1436.5C 1674.83,1253.6 1674.67,1070.76 1673.5,888C 1674.08,877.843 1679.08,870.843 1688.5,867C 1700.76,865.561 1713.09,865.061 1725.5,865.5 Z"/></g>
<g><path style="opacity:0.997" fill="#29a9e1" d="M 2065.5,835.5 C 2098.57,835.596 2119.07,851.596 2127,883.5C 2127.33,1070.5 2127.67,1257.5 2128,1444.5C 2128.29,1449.61 2129.12,1454.61 2130.5,1459.5C 2125.68,1460.17 2120.68,1460.5 2115.5,1460.5C 2099.23,1463.46 2088.06,1457.46 2082,1442.5C 2081.67,1254.17 2081.33,1065.83 2081,877.5C 2078.91,862.329 2073.74,848.329 2065.5,835.5 Z"/></g>
<g><path style="opacity:0.987" fill="#29a9e1" d="M 2247.5,1498.5 C 2270.35,1497.84 2288.19,1506.84 2301,1525.5C 2305.27,1532.97 2307.93,1540.97 2309,1549.5C 2309.67,1659.83 2309.67,1770.17 2309,1880.5C 2304.68,1905.82 2290.18,1921.99 2265.5,1929C 2256.55,1930.31 2247.55,1930.81 2238.5,1930.5C 2252.95,1914.34 2261.12,1895.34 2263,1873.5C 2263.67,1764.5 2263.67,1655.5 2263,1546.5C 2262.18,1538.74 2260.84,1531.07 2259,1523.5C 2255.69,1514.88 2251.85,1506.54 2247.5,1498.5 Z"/></g>
<g><path style="opacity:0.991" fill="#29a9e1" d="M 2150.5,1959.5 C 2150.67,2220.17 2150.5,2480.83 2150,2741.5C 2145.16,2766.68 2130.33,2782.51 2105.5,2789C 2097.22,2790.29 2088.89,2790.79 2080.5,2790.5C 2093.45,2774.91 2101.28,2756.91 2104,2736.5C 2104.5,2477.5 2104.67,2218.5 2104.5,1959.5C 2119.98,1958.22 2135.31,1958.22 2150.5,1959.5 Z"/></g>
</svg>
