<?xml version="1.0" encoding="UTF-8"?>
<!DOCTYPE svg PUBLIC "-//W3C//DTD SVG 1.1//EN" "http://www.w3.org/Graphics/SVG/1.1/DTD/svg11.dtd">
<svg xmlns="http://www.w3.org/2000/svg" version="1.1" width="3000px" height="3000px" style="shape-rendering:geometricPrecision; text-rendering:geometricPrecision; image-rendering:optimizeQuality; fill-rule:evenodd; clip-rule:evenodd" xmlns:xlink="http://www.w3.org/1999/xlink">
<g><path style="opacity:0.979" fill="#d6d4d2" d="M 1986.5,295.5 C 1967.94,301.722 1948.94,306.889 1929.5,311C 1823.24,335.876 1715.57,351.543 1606.5,358C 1581.66,358.83 1557,358.663 1532.5,357.5C 1625.73,351.348 1718.07,338.514 1809.5,319C 1845.52,310.662 1881.52,302.329 1917.5,294C 1940.56,291.835 1963.56,292.335 1986.5,295.5 Z"/></g>
<g><path style="opacity:1" fill="#ece7e6" d="M 1977.5,2776.5 C 1946.82,2762.32 1923.32,2740.32 1907,2710.5C 1885.15,2668.11 1872.15,2623.11 1868,2575.5C 1866.83,2563.18 1865.83,2550.85 1865,2538.5C 1866.97,2453.41 1859.97,2369.08 1844,2285.5C 1822.82,2168.96 1790.49,2055.63 1747,1945.5C 1730.49,1903.8 1709.82,1864.46 1685,1827.5C 1674.4,1812.78 1661.9,1799.94 1647.5,1789C 1630.56,1779.65 1612.56,1776.98 1593.5,1781C 1587.08,1782.38 1580.75,1784.04 1574.5,1786C 1571.37,1786.86 1568.7,1788.36 1566.5,1790.5C 1547.44,1798.53 1530.11,1809.37 1514.5,1823C 1470.73,1863.8 1436.56,1911.64 1412,1966.5C 1387.79,2019 1372.46,2074 1366,2131.5C 1357.81,2224.82 1349.81,2318.15 1342,2411.5C 1335.47,2482.55 1324.47,2552.88 1309,2622.5C 1299.94,2662.67 1285.94,2701.01 1267,2737.5C 1256.05,2757.12 1241.55,2773.62 1223.5,2787C 1209.99,2795.38 1195.33,2799.38 1179.5,2799C 1168.8,2793.77 1158.8,2787.6 1149.5,2780.5C 1140.61,2771.11 1131.44,2761.78 1122,2752.5C 1082.99,2705.19 1052.66,2652.53 1031,2594.5C 998.37,2507.37 975.37,2417.7 962,2325.5C 950.639,2245.45 941.973,2165.11 936,2084.5C 923.807,1934.07 916.474,1783.4 914,1632.5C 913.333,1572.17 913.333,1511.83 914,1451.5C 915.182,1421.49 916.182,1391.49 917,1361.5C 854.876,1239.13 808.209,1111.13 777,977.5C 761.605,908.341 753.438,838.341 752.5,767.5C 750.011,612.275 808.344,485.775 927.5,388C 995.117,336.201 1071.45,306.701 1156.5,299.5C 1231.71,294.99 1305.71,302.49 1378.5,322C 1410.75,330.527 1442.75,339.861 1474.5,350C 1493.65,353.951 1512.99,356.451 1532.5,357.5C 1557,358.663 1581.66,358.83 1606.5,358C 1715.57,351.543 1823.24,335.876 1929.5,311C 1948.94,306.889 1967.94,301.722 1986.5,295.5C 2014.52,291.382 2042.52,291.549 2070.5,296C 2182.81,320.712 2274.98,377.545 2347,466.5C 2397.39,531.639 2424.05,605.639 2427,688.5C 2431.12,762.065 2428.45,835.399 2419,908.5C 2406.51,1014.64 2384.17,1118.64 2352,1220.5C 2342.29,1250.3 2330.62,1279.3 2317,1307.5C 2312.17,1316.5 2306.83,1325.17 2301,1333.5C 2293.79,1526.31 2283.79,1718.98 2271,1911.5C 2266.98,1972.7 2260.98,2033.7 2253,2094.5C 2234.19,2216.56 2211.52,2337.89 2185,2458.5C 2172.01,2516.14 2156.67,2573.14 2139,2629.5C 2126.73,2669.33 2110.4,2707.33 2090,2743.5C 2082.96,2754.21 2074.8,2764.04 2065.5,2773C 2057.51,2779.99 2048.18,2783.66 2037.5,2784C 2016.83,2786.4 1996.83,2783.9 1977.5,2776.5 Z"/></g>
<g><path style="opacity:0.997" fill="#d6d4d2" d="M 1156.5,299.5 C 1071.45,306.701 995.117,336.201 927.5,388C 808.344,485.775 750.011,612.275 752.5,767.5C 753.438,838.341 761.605,908.341 777,977.5C 808.209,1111.13 854.876,1239.13 917,1361.5C 916.182,1391.49 915.182,1421.49 914,1451.5C 913.333,1511.83 913.333,1572.17 914,1632.5C 916.474,1783.4 923.807,1934.07 936,2084.5C 941.973,2165.11 950.639,2245.45 962,2325.5C 975.37,2417.7 998.37,2507.37 1031,2594.5C 1052.66,2652.53 1082.99,2705.19 1122,2752.5C 1131.44,2761.78 1140.61,2771.11 1149.5,2780.5C 1134.16,2793.11 1116.49,2799.28 1096.5,2799C 1075.4,2787.59 1056.9,2772.75 1041,2754.5C 1004.16,2711.21 975.163,2662.88 954,2609.5C 922.069,2529.03 899.069,2446.03 885,2360.5C 871.679,2279.94 862.012,2198.94 856,2117.5C 836.963,1903.58 828.63,1689.25 831,1474.5C 831.525,1437.76 833.025,1401.09 835.5,1364.5C 773.882,1244.15 727.382,1118.15 696,986.5C 679.534,915.774 670.701,844.107 669.5,771.5C 669.456,717.181 676.623,663.847 691,611.5C 704.177,566.15 724.51,524.483 752,486.5C 832.928,371.261 944.094,308.761 1085.5,299C 1109.18,298.229 1132.85,298.395 1156.5,299.5 Z"/></g>
<g><path style="opacity:0.997" fill="#d6d4d2" d="M 1977.5,2776.5 C 1972.26,2780.49 1966.26,2782.65 1959.5,2783C 1913.03,2788.63 1874.53,2773.79 1844,2738.5C 1822.21,2710.56 1806.88,2679.23 1798,2644.5C 1788.56,2607.08 1783.23,2569.08 1782,2530.5C 1783.68,2459.69 1778.68,2389.35 1767,2319.5C 1746.42,2192.52 1712.76,2069.19 1666,1949.5C 1648.01,1904.17 1625.34,1861.5 1598,1821.5C 1588.96,1809.63 1578.46,1799.29 1566.5,1790.5C 1568.7,1788.36 1571.37,1786.86 1574.5,1786C 1580.75,1784.04 1587.08,1782.38 1593.5,1781C 1612.56,1776.98 1630.56,1779.65 1647.5,1789C 1661.9,1799.94 1674.4,1812.78 1685,1827.5C 1709.82,1864.46 1730.49,1903.8 1747,1945.5C 1790.49,2055.63 1822.82,2168.96 1844,2285.5C 1859.97,2369.08 1866.97,2453.41 1865,2538.5C 1865.83,2550.85 1866.83,2563.18 1868,2575.5C 1872.15,2623.11 1885.15,2668.11 1907,2710.5C 1923.32,2740.32 1946.82,2762.32 1977.5,2776.5 Z"/></g>
</svg>
