<?xml version="1.0" encoding="UTF-8"?>
<!DOCTYPE svg PUBLIC "-//W3C//DTD SVG 1.1//EN" "http://www.w3.org/Graphics/SVG/1.1/DTD/svg11.dtd">
<svg xmlns="http://www.w3.org/2000/svg" version="1.1" width="3000px" height="3000px" style="shape-rendering:geometricPrecision; text-rendering:geometricPrecision; image-rendering:optimizeQuality; fill-rule:evenodd; clip-rule:evenodd" xmlns:xlink="http://www.w3.org/1999/xlink">
<g><path style="opacity:0.991" fill="#020202" d="M 2528.5,400.5 C 2536.06,410.664 2541.23,421.997 2544,434.5C 2544.67,535.5 2544.67,636.5 2544,737.5C 2542.4,751.692 2537.23,764.359 2528.5,775.5C 2516.6,790.794 2500.93,799.96 2481.5,803C 2281.83,803.5 2082.17,803.667 1882.5,803.5C 1872.42,803.077 1862.42,803.577 1852.5,805C 1846.51,807.659 1842.67,812.159 1841,818.5C 1840.33,936.5 1840.33,1054.5 1841,1172.5C 1843.72,1183.9 1850.89,1189.06 1862.5,1188C 1869.1,1186.28 1875.43,1184.11 1881.5,1181.5C 1955.18,1161.33 2030.18,1149.16 2106.5,1145C 2192.68,1139.93 2276.35,1151.93 2357.5,1181C 2377.13,1188.82 2396.13,1197.65 2414.5,1207.5C 2500.44,1256.95 2563.94,1326.95 2605,1417.5C 2637.35,1490.55 2657.68,1566.88 2666,1646.5C 2681.31,1769.51 2681.31,1892.51 2666,2015.5C 2653.81,2105.73 2628.48,2192.06 2590,2274.5C 2532.66,2392.57 2447.16,2484.23 2333.5,2549.5C 2214.94,2613.65 2088.94,2635.15 1955.5,2614C 1795.85,2586.28 1661.68,2513.12 1553,2394.5C 1472.59,2301.79 1426.09,2193.96 1413.5,2071C 1415.8,2034.05 1434.47,2009.72 1469.5,1998C 1478.41,1996.21 1487.41,1995.21 1496.5,1995C 1579.46,1991.18 1662.46,1989.18 1745.5,1989C 1766.59,1990.71 1783.92,1999.54 1797.5,2015.5C 1807.4,2032.3 1816.57,2049.63 1825,2067.5C 1842.32,2098.82 1864.15,2126.66 1890.5,2151C 1903.86,2162.02 1918.53,2171.02 1934.5,2178C 1940.37,2180.13 1946.37,2181.63 1952.5,2182.5C 2018.14,2190.81 2081.81,2182.98 2143.5,2159C 2216.98,2125.17 2265.15,2069.34 2288,1991.5C 2308.72,1917.21 2311.72,1842.21 2297,1766.5C 2278.02,1676.62 2226.85,1612.78 2143.5,1575C 2073.22,1548.34 2002.56,1547.17 1931.5,1571.5C 1907.73,1580.05 1886.06,1592.22 1866.5,1608C 1860.59,1613.4 1855.26,1619.24 1850.5,1625.5C 1838.42,1641.38 1822.42,1650.88 1802.5,1654C 1751.53,1652.04 1700.53,1650.87 1649.5,1650.5C 1606.15,1650.85 1562.81,1651.68 1519.5,1653C 1481.8,1646.97 1459.63,1625.13 1453,1587.5C 1449.48,1221.5 1446.31,855.505 1443.5,489.5C 1443.67,475.167 1443.83,460.833 1444,446.5C 1449.52,414.629 1467.68,393.795 1498.5,384C 1507.59,381.674 1516.76,380.84 1526,381.5C 1789.8,378.682 2053.64,376.182 2317.5,374C 2372.83,373.333 2428.17,373.333 2483.5,374C 2501.64,377.726 2516.64,386.56 2528.5,400.5 Z M 1539.5,437.5 C 1538.57,440.454 1537.74,443.454 1537,446.5C 1539.08,823.168 1541.75,1199.84 1545,1576.5C 1545.06,1582.76 1546.22,1588.76 1548.5,1594.5C 1540.18,1595.35 1531.85,1595.52 1523.5,1595C 1517.18,1592.01 1513.01,1587.18 1511,1580.5C 1507.9,1208.5 1504.73,836.497 1501.5,464.5C 1500.16,456.008 1502.16,448.508 1507.5,442C 1509.89,440.139 1512.55,438.806 1515.5,438C 1523.49,437.5 1531.49,437.334 1539.5,437.5 Z M 2225.5,1552.5 C 2282.76,1577.26 2326.6,1616.93 2357,1671.5C 2378.06,1712.02 2391.06,1755.02 2396,1800.5C 2404.3,1873.8 2396.97,1945.46 2374,2015.5C 2351.52,2079.63 2311.68,2129.79 2254.5,2166C 2242.88,2172.65 2230.88,2178.48 2218.5,2183.5C 2280.53,2139.23 2322.37,2080.23 2344,2006.5C 2366.27,1928.17 2370.6,1848.83 2357,1768.5C 2344.62,1694.9 2312.12,1632.07 2259.5,1580C 2248.28,1570.57 2236.95,1561.41 2225.5,1552.5 Z M 1510.5,2051.5 C 1508.91,2057.21 1507.91,2063.05 1507.5,2069C 1527.57,2232.2 1602.9,2362.87 1733.5,2461C 1755.88,2477.18 1778.88,2492.35 1802.5,2506.5C 1685.44,2452.95 1594.94,2370.28 1531,2258.5C 1499.24,2199.47 1479.41,2136.64 1471.5,2070C 1472.1,2061.41 1476.43,2055.74 1484.5,2053C 1493.13,2051.92 1501.8,2051.42 1510.5,2051.5 Z"/></g>
<g><path style="opacity:0.99" fill="#020202" d="M 1306.5,410.5 C 1312.4,420.364 1316.23,431.03 1318,442.5C 1318.67,1145.17 1318.67,1847.83 1318,2550.5C 1315.97,2568.89 1308.8,2584.89 1296.5,2598.5C 1284.01,2610.75 1269.01,2618.25 1251.5,2621C 1134.32,2622.58 1017.16,2624.41 900,2626.5C 861.911,2621.74 838.245,2600.74 829,2563.5C 827.949,2554.53 827.282,2545.53 827,2536.5C 806.711,2084.48 786.211,1632.48 765.5,1180.5C 765.612,1171.9 761.612,1166.07 753.5,1163C 744.877,1160.7 737.711,1162.86 732,1169.5C 687.411,1255.01 643.078,1340.68 599,1426.5C 594.902,1434.38 590.068,1441.71 584.5,1448.5C 569.49,1465.08 550.656,1473.41 528,1473.5C 515.046,1473.18 502.879,1470.01 491.5,1464C 409.004,1417.59 326.671,1370.92 244.5,1324C 220.306,1303.77 210.473,1277.93 215,1246.5C 216.81,1237.74 219.81,1229.4 224,1221.5C 400.941,953.562 578.274,685.895 756,418.5C 768.348,405.241 783.514,397.074 801.5,394C 949.157,387.656 1096.82,381.489 1244.5,375.5C 1270.92,377.365 1291.58,389.032 1306.5,410.5 Z M 839.5,450.5 C 666.222,712.285 492.722,973.951 319,1235.5C 305.704,1257.43 306.538,1278.76 321.5,1299.5C 307.393,1291.94 293.393,1284.11 279.5,1276C 272.217,1269.37 270.384,1261.54 274,1252.5C 448.915,988.338 623.582,724.005 798,459.5C 801.269,456.117 805.103,453.617 809.5,452C 819.486,451.168 829.486,450.668 839.5,450.5 Z M 812.5,1138.5 C 839.873,1139.71 856.373,1153.71 862,1180.5C 882.925,1642.86 904.092,2105.19 925.5,2567.5C 916.827,2567.67 908.16,2567.5 899.5,2567C 893.18,2564.01 889.013,2559.18 887,2552.5C 866.16,2095.84 845.493,1639.18 825,1182.5C 824.782,1166.68 820.615,1152.02 812.5,1138.5 Z"/></g>
<g><path style="opacity:0.997" fill="#2ea7de" d="M 2528.5,400.5 C 2554.09,399.203 2571.25,410.536 2580,434.5C 2581.16,485.622 2581.66,536.789 2581.5,588C 2581.66,639.211 2581.16,690.378 2580,741.5C 2571.29,765.334 2554.13,776.667 2528.5,775.5C 2537.23,764.359 2542.4,751.692 2544,737.5C 2544.67,636.5 2544.67,535.5 2544,434.5C 2541.23,421.997 2536.06,410.664 2528.5,400.5 Z"/></g>
<g><path style="opacity:0.999" fill="#2ea9e0" d="M 1306.5,410.5 C 1334.44,410.711 1351.6,424.377 1358,451.5C 1358.67,1153.5 1358.67,1855.5 1358,2557.5C 1353.86,2577.64 1342.03,2590.8 1322.5,2597C 1313.89,2598.34 1305.23,2598.84 1296.5,2598.5C 1308.8,2584.89 1315.97,2568.89 1318,2550.5C 1318.67,1847.83 1318.67,1145.17 1318,442.5C 1316.23,431.03 1312.4,420.364 1306.5,410.5 Z"/></g>
<g><path style="opacity:1" fill="#2ea9e0" d="M 1810.5,2510.5 C 1810.16,2509.66 1809.49,2509.33 1808.5,2509.5C 1808.16,2508.66 1807.49,2508.33 1806.5,2508.5C 1806.16,2507.66 1805.49,2507.33 1804.5,2507.5C 1804.16,2506.66 1803.49,2506.33 1802.5,2506.5C 1778.88,2492.35 1755.88,2477.18 1733.5,2461C 1602.9,2362.87 1527.57,2232.2 1507.5,2069C 1507.91,2063.05 1508.91,2057.21 1510.5,2051.5C 1575.04,2047.61 1639.7,2045.61 1704.5,2045.5C 1719.23,2045.36 1733.9,2045.86 1748.5,2047C 1752.24,2048.74 1755.41,2051.24 1758,2054.5C 1780.51,2106 1812.01,2151.17 1852.5,2190C 1898.98,2231.22 1953.32,2248.22 2015.5,2241C 2079.85,2239.95 2140.51,2224.61 2197.5,2195C 2203.4,2191.22 2209.4,2187.72 2215.5,2184.5C 2216.79,2184.74 2217.79,2184.4 2218.5,2183.5C 2230.88,2178.48 2242.88,2172.65 2254.5,2166C 2311.68,2129.79 2351.52,2079.63 2374,2015.5C 2396.97,1945.46 2404.3,1873.8 2396,1800.5C 2391.06,1755.02 2378.06,1712.02 2357,1671.5C 2326.6,1616.93 2282.76,1577.26 2225.5,1552.5C 2225.16,1551.66 2224.49,1551.33 2223.5,1551.5C 2223.16,1550.66 2222.49,1550.33 2221.5,1550.5C 2159.18,1511.75 2091.18,1493.92 2017.5,1497C 1957.01,1499.28 1901.34,1516.61 1850.5,1549C 1832.28,1561.55 1816.28,1576.55 1802.5,1594C 1800.04,1595.56 1797.38,1596.56 1794.5,1597C 1772.5,1596.51 1750.5,1595.51 1728.5,1594C 1668.5,1593.31 1608.5,1593.47 1548.5,1594.5C 1546.22,1588.76 1545.06,1582.76 1545,1576.5C 1541.75,1199.84 1539.08,823.168 1537,446.5C 1537.74,443.454 1538.57,440.454 1539.5,437.5C 1834.93,434.13 2130.43,431.13 2426,428.5C 2442.17,428.667 2458.33,428.833 2474.5,429C 2482,431.167 2486.83,436 2489,443.5C 2489.67,539.833 2489.67,636.167 2489,732.5C 2486.86,739.974 2482.03,744.807 2474.5,747C 2266.83,747.333 2059.17,747.667 1851.5,748C 1815.8,754.702 1794.3,775.869 1787,811.5C 1786.33,934.167 1786.33,1056.83 1787,1179.5C 1793.46,1214.29 1813.96,1235.79 1848.5,1244C 1856.5,1244.67 1864.5,1244.67 1872.5,1244C 1931.58,1227.15 1991.58,1214.82 2052.5,1207C 2135.85,1196.62 2218.19,1201.62 2299.5,1222C 2426.57,1259.61 2515.07,1339.78 2565,1462.5C 2587.48,1519.23 2602.48,1577.9 2610,1638.5C 2624.28,1749.61 2626.28,1860.94 2616,1972.5C 2606.62,2063.69 2583.95,2151.35 2548,2235.5C 2491.43,2362.07 2400.93,2455.9 2276.5,2517C 2161.27,2568.53 2042.27,2579.2 1919.5,2549C 1881.81,2539.83 1845.47,2526.99 1810.5,2510.5 Z"/></g>
<g><path style="opacity:0.999" fill="#2ea9e0" d="M 925.5,2567.5 C 904.092,2105.19 882.925,1642.86 862,1180.5C 856.373,1153.71 839.873,1139.71 812.5,1138.5C 790.575,1109.13 761.575,1098.63 725.5,1107C 705.917,1113.38 691.083,1125.54 681,1143.5C 636,1230.5 591,1317.5 546,1404.5C 537.566,1415.4 527.4,1417.24 515.5,1410C 451.021,1373.67 386.688,1337.17 322.5,1300.5C 322.5,1299.83 322.167,1299.5 321.5,1299.5C 306.538,1278.76 305.704,1257.43 319,1235.5C 492.722,973.951 666.222,712.285 839.5,450.5C 970.579,444.61 1101.75,439.277 1233,434.5C 1246.08,432.038 1255.41,436.705 1261,448.5C 1261.67,1149.17 1261.67,1849.83 1261,2550.5C 1258.5,2557 1254,2561.5 1247.5,2564C 1140.17,2565.69 1032.84,2566.85 925.5,2567.5 Z"/></g>
<g><path style="opacity:0.999" fill="#2ea7de" d="M 1882.5,803.5 C 1881.57,807.127 1880.74,810.793 1880,814.5C 1879.33,934.5 1879.33,1054.5 1880,1174.5C 1880.44,1176.87 1880.94,1179.2 1881.5,1181.5C 1875.43,1184.11 1869.1,1186.28 1862.5,1188C 1850.89,1189.06 1843.72,1183.9 1841,1172.5C 1840.33,1054.5 1840.33,936.5 1841,818.5C 1842.67,812.159 1846.51,807.659 1852.5,805C 1862.42,803.577 1872.42,803.077 1882.5,803.5 Z"/></g>
<g><path style="opacity:0.991" fill="#2ea9e0" d="M 765.5,1180.5 C 722.284,1263.93 678.784,1347.26 635,1430.5C 621.844,1446.48 605.01,1452.48 584.5,1448.5C 590.068,1441.71 594.902,1434.38 599,1426.5C 643.078,1340.68 687.411,1255.01 732,1169.5C 737.711,1162.86 744.877,1160.7 753.5,1163C 761.612,1166.07 765.612,1171.9 765.5,1180.5 Z"/></g>
<g><path style="opacity:0.991" fill="#2ea9df" d="M 2414.5,1207.5 C 2509.83,1244.91 2581.99,1308.58 2631,1398.5C 2662.85,1459.71 2684.51,1524.38 2696,1592.5C 2717.72,1725.01 2721.39,1858.01 2707,1991.5C 2695.42,2094.91 2666.08,2192.91 2619,2285.5C 2558.29,2400.21 2469.46,2485.71 2352.5,2542C 2346.36,2545.07 2340.03,2547.57 2333.5,2549.5C 2447.16,2484.23 2532.66,2392.57 2590,2274.5C 2628.48,2192.06 2653.81,2105.73 2666,2015.5C 2681.31,1892.51 2681.31,1769.51 2666,1646.5C 2657.68,1566.88 2637.35,1490.55 2605,1417.5C 2563.94,1326.95 2500.44,1256.95 2414.5,1207.5 Z"/></g>
<g><path style="opacity:0.97" fill="#2ea7de" d="M 1931.5,1571.5 C 1913.81,1584.02 1898.14,1598.85 1884.5,1616C 1874.24,1622.9 1862.91,1626.07 1850.5,1625.5C 1855.26,1619.24 1860.59,1613.4 1866.5,1608C 1886.06,1592.22 1907.73,1580.05 1931.5,1571.5 Z"/></g>
<g><path style="opacity:0.99" fill="#2ea8df" d="M 1797.5,2015.5 C 1815.67,2014.16 1830.83,2020.16 1843,2033.5C 1857.04,2063.93 1873.37,2092.93 1892,2120.5C 1909.32,2143.99 1929.49,2164.66 1952.5,2182.5C 1946.37,2181.63 1940.37,2180.13 1934.5,2178C 1918.53,2171.02 1903.86,2162.02 1890.5,2151C 1864.15,2126.66 1842.32,2098.82 1825,2067.5C 1816.57,2049.63 1807.4,2032.3 1797.5,2015.5 Z"/></g>
</svg>
