<?xml version="1.0" encoding="UTF-8"?>
<!DOCTYPE svg PUBLIC "-//W3C//DTD SVG 1.1//EN" "http://www.w3.org/Graphics/SVG/1.1/DTD/svg11.dtd">
<svg xmlns="http://www.w3.org/2000/svg" version="1.1" width="3000px" height="3000px" style="shape-rendering:geometricPrecision; text-rendering:geometricPrecision; image-rendering:optimizeQuality; fill-rule:evenodd; clip-rule:evenodd" xmlns:xlink="http://www.w3.org/1999/xlink">
<g><path style="opacity:0.996" fill="#999999" d="M 1460.5,620.5 C 1422.58,617.004 1384.58,615.837 1346.5,617C 1312.44,619.082 1278.44,621.748 1244.5,625C 1204.98,578.407 1154.65,552.74 1093.5,548C 1049.08,546.556 1004.75,547.723 960.5,551.5C 1018.41,501.016 1081.74,458.183 1150.5,423C 1179.98,408.507 1210.64,397.173 1242.5,389C 1347.96,363.809 1420.46,401.309 1460,501.5C 1466.73,519.42 1472.06,537.753 1476,556.5C 1475.23,578.895 1470.07,600.228 1460.5,620.5 Z"/></g>
<g><path style="opacity:0.994" fill="#fea48b" d="M 426.5,541.5 C 433.973,546.455 442.306,548.788 451.5,548.5C 455.448,559.546 453.614,569.546 446,578.5C 431.323,592.929 414.156,603.429 394.5,610C 382.218,614.205 369.884,618.205 357.5,622C 344.37,624.882 331.37,628.048 318.5,631.5C 306.725,589.52 303.892,546.854 310,503.5C 317.219,471.961 336.719,459.461 368.5,466C 380.439,468.709 389.606,475.209 396,485.5C 402.195,499.752 408.195,514.085 414,528.5C 416.997,533.996 421.163,538.329 426.5,541.5 Z"/></g>
<g><path style="opacity:0.999" fill="#b3b2b2" d="M 426.5,541.5 C 509.38,541.316 590.047,554.482 668.5,581C 687.965,588.065 706.965,596.232 725.5,605.5C 801.464,577.306 879.797,559.306 960.5,551.5C 1004.75,547.723 1049.08,546.556 1093.5,548C 1154.65,552.74 1204.98,578.407 1244.5,625C 1278.44,621.748 1312.44,619.082 1346.5,617C 1384.58,615.837 1422.58,617.004 1460.5,620.5C 1508.94,624.858 1554.61,638.358 1597.5,661C 1655.31,696.449 1681.48,748.282 1676,816.5C 1673.46,846.648 1667.13,875.982 1657,904.5C 1639.73,929.1 1617.57,947.933 1590.5,961C 1584.66,963.67 1578.66,965.836 1572.5,967.5C 1599.74,946.097 1618.9,918.764 1630,885.5C 1639.94,860.752 1644.61,835.085 1644,808.5C 1640.37,778.737 1626.54,754.904 1602.5,737C 1575.91,719.124 1546.91,706.457 1515.5,699C 1457.68,686.572 1399.18,681.072 1340,682.5C 1301.07,682.687 1262.24,684.687 1223.5,688.5C 1220.92,705.536 1218.42,722.536 1216,739.5C 1245.53,786.901 1278.7,831.568 1315.5,873.5C 1311.07,935.072 1296.07,993.906 1270.5,1050C 1361.68,1144.47 1442.18,1246.97 1512,1357.5C 1554.43,1425.02 1589.43,1496.35 1617,1571.5C 1643.06,1642.55 1655.06,1715.89 1653,1791.5C 1648.88,1866.38 1625.05,1934.04 1581.5,1994.5C 1570.96,2007.56 1560.13,2020.56 1549,2033.5C 1535.6,2047.06 1522.1,2060.4 1508.5,2073.5C 1438.9,2132.8 1358.9,2171.63 1268.5,2190C 1185.8,2206.18 1102.47,2210.52 1018.5,2203C 911.999,2193.74 808.666,2170.9 708.5,2134.5C 704.536,2123.59 700.203,2112.93 695.5,2102.5C 647.221,1925.88 683.387,1768.88 804,1631.5C 821.042,1612.96 838.876,1595.29 857.5,1578.5C 822.123,1562.16 789.456,1541.83 759.5,1517.5C 702.879,1469.62 669.713,1408.62 660,1334.5C 658.715,1323.52 658.382,1312.52 659,1301.5C 668.053,1277.39 679.72,1254.73 694,1233.5C 702.75,1221.58 713.25,1211.58 725.5,1203.5C 745.054,1218.61 766.72,1230.11 790.5,1238C 851.768,1256.66 904.435,1242.99 948.5,1197C 903.154,1178.67 860.488,1155.67 820.5,1128C 808.288,1118.95 795.954,1110.11 783.5,1101.5C 757.24,1082.76 732.573,1061.92 709.5,1039C 610.375,972.261 518.541,896.094 434,810.5C 401.516,776.699 372.85,740.032 348,700.5C 334.948,678.835 325.115,655.835 318.5,631.5C 331.37,628.048 344.37,624.882 357.5,622C 369.884,618.205 382.218,614.205 394.5,610C 414.156,603.429 431.323,592.929 446,578.5C 453.614,569.546 455.448,559.546 451.5,548.5C 442.306,548.788 433.973,546.455 426.5,541.5 Z"/></g>
<g><path style="opacity:0.999" fill="#fea48b" d="M 1572.5,967.5 C 1543.06,985.588 1511.4,990.421 1477.5,982C 1444.51,973.171 1414.51,958.504 1387.5,938C 1361.47,918.801 1337.47,897.301 1315.5,873.5C 1278.7,831.568 1245.53,786.901 1216,739.5C 1218.42,722.536 1220.92,705.536 1223.5,688.5C 1262.24,684.687 1301.07,682.687 1340,682.5C 1399.18,681.072 1457.68,686.572 1515.5,699C 1546.91,706.457 1575.91,719.124 1602.5,737C 1626.54,754.904 1640.37,778.737 1644,808.5C 1644.61,835.085 1639.94,860.752 1630,885.5C 1618.9,918.764 1599.74,946.097 1572.5,967.5 Z"/></g>
<g><path style="opacity:1" fill="#090909" d="M 841.5,688.5 C 842.833,688.5 844.167,688.5 845.5,688.5C 848.43,710.861 858.097,729.695 874.5,745C 886.843,754.669 900.843,758.669 916.5,757C 930.518,754.996 943.851,750.829 956.5,744.5C 957.316,746.287 958.316,747.954 959.5,749.5C 938.178,761.665 915.511,765.498 891.5,761C 874.069,754.906 860.903,743.739 852,727.5C 845.817,715.785 841.317,703.452 838.5,690.5C 839.602,689.824 840.602,689.158 841.5,688.5 Z"/></g>
<g><path style="opacity:0.997" fill="#999999" d="M 783.5,1101.5 C 795.954,1110.11 808.288,1118.95 820.5,1128C 860.488,1155.67 903.154,1178.67 948.5,1197C 904.435,1242.99 851.768,1256.66 790.5,1238C 766.72,1230.11 745.054,1218.61 725.5,1203.5C 732.99,1177.52 744.49,1153.52 760,1131.5C 767.601,1121.29 775.434,1111.29 783.5,1101.5 Z"/></g>
<g><path style="opacity:0.995" fill="#999999" d="M 759.5,1517.5 C 789.456,1541.83 822.123,1562.16 857.5,1578.5C 838.876,1595.29 821.042,1612.96 804,1631.5C 683.387,1768.88 647.221,1925.88 695.5,2102.5C 687.714,2100.9 680.048,2098.9 672.5,2096.5C 672.5,2095.83 672.167,2095.5 671.5,2095.5C 665.202,2089.7 659.035,2083.7 653,2077.5C 651.878,2075.59 651.045,2073.59 650.5,2071.5C 644.48,2056.42 638.48,2041.42 632.5,2026.5C 593.883,1904.47 601.717,1785.47 656,1669.5C 682.152,1612.9 716.652,1562.23 759.5,1517.5 Z"/></g>
<g><path style="opacity:0.987" fill="#fea48b" d="M 632.5,2026.5 C 638.48,2041.42 644.48,2056.42 650.5,2071.5C 588.936,2057.62 526.603,2051.45 463.5,2053C 429.227,2055.07 395.06,2058.23 361,2062.5C 351.267,2062.34 341.767,2060.84 332.5,2058C 326.408,2054.38 325.241,2049.55 329,2043.5C 333.218,2038.61 338.052,2034.45 343.5,2031C 362.572,2020.53 382.905,2013.86 404.5,2011C 389.024,2009.2 373.69,2006.53 358.5,2003C 349.529,2000.68 341.195,1997.01 333.5,1992C 325.215,1984.77 324.549,1977.11 331.5,1969C 335.934,1966.86 340.6,1965.52 345.5,1965C 364.229,1964.01 382.896,1964.68 401.5,1967C 480.609,1978.86 557.609,1998.69 632.5,2026.5 Z"/></g>
<g><path style="opacity:0.991" fill="#fea48b" d="M 1581.5,1994.5 C 1611.36,2011.52 1642.7,2025.35 1675.5,2036C 1751.75,2060.25 1829.75,2075.92 1909.5,2083C 2024.85,2093.06 2140.18,2092.72 2255.5,2082C 2304.85,2077.16 2354.19,2072.16 2403.5,2067C 2474.72,2061.51 2543.06,2072.84 2608.5,2101C 2701.08,2145.93 2752.92,2219.77 2764,2322.5C 2766.95,2417.41 2733.11,2496.24 2662.5,2559C 2611.01,2601.86 2552.01,2629.2 2485.5,2641C 2416.85,2652.28 2348.18,2652.28 2279.5,2641C 2204.47,2625.23 2128.8,2613.57 2052.5,2606C 2002.19,2601.85 1951.85,2601.52 1901.5,2605C 1860.27,2607.72 1821.27,2618.39 1784.5,2637C 1734.18,2669.46 1724.35,2711.62 1755,2763.5C 1779.25,2797.38 1811.08,2821.22 1850.5,2835C 1807.3,2832.87 1767.3,2820.54 1730.5,2798C 1693.81,2771.41 1679.65,2735.57 1688,2690.5C 1697.09,2642.11 1722.59,2605.27 1764.5,2580C 1803.17,2559 1844.5,2546.67 1888.5,2543C 1946.34,2538.51 2004.01,2540.18 2061.5,2548C 2080.88,2550.72 2100.21,2553.72 2119.5,2557C 2163.79,2566.26 2208.12,2575.26 2252.5,2584C 2301.2,2591.84 2350.2,2595.17 2399.5,2594C 2455.58,2592.46 2508.58,2579.12 2558.5,2554C 2629.04,2513.17 2669.2,2452.01 2679,2370.5C 2684.04,2327.81 2680.71,2285.81 2669,2244.5C 2654.43,2204.27 2626.93,2177.1 2586.5,2163C 2557.56,2153.84 2527.89,2149.17 2497.5,2149C 2444.29,2148.74 2391.29,2152.07 2338.5,2159C 2271.94,2167.65 2205.28,2175.32 2138.5,2182C 2060.45,2186.84 1982.78,2183.17 1905.5,2171C 1770.37,2149.63 1638.04,2117.13 1508.5,2073.5C 1522.1,2060.4 1535.6,2047.06 1549,2033.5C 1560.13,2020.56 1570.96,2007.56 1581.5,1994.5 Z"/></g>
<g><path style="opacity:0.986" fill="#fea48b" d="M 671.5,2095.5 C 672.167,2095.5 672.5,2095.83 672.5,2096.5C 680.048,2098.9 687.714,2100.9 695.5,2102.5C 700.203,2112.93 704.536,2123.59 708.5,2134.5C 607.076,2126.51 508.409,2139.34 412.5,2173C 396.617,2178.64 380.284,2181.31 363.5,2181C 354.033,2179.57 351.2,2174.4 355,2165.5C 364.022,2152.47 375.522,2142.31 389.5,2135C 399.582,2129.75 409.915,2125.08 420.5,2121C 404.52,2121.53 388.52,2121.53 372.5,2121C 364.101,2120.52 356.101,2118.52 348.5,2115C 341.242,2110.9 338.408,2104.73 340,2096.5C 344.618,2091.1 350.451,2087.6 357.5,2086C 374.884,2081.49 392.55,2078.82 410.5,2078C 498.165,2074.12 585.165,2079.96 671.5,2095.5 Z"/></g>
</svg>
