<?xml version="1.0" encoding="UTF-8"?>
<!DOCTYPE svg PUBLIC "-//W3C//DTD SVG 1.1//EN" "http://www.w3.org/Graphics/SVG/1.1/DTD/svg11.dtd">
<svg xmlns="http://www.w3.org/2000/svg" version="1.1" width="3000px" height="3000px" style="shape-rendering:geometricPrecision; text-rendering:geometricPrecision; image-rendering:optimizeQuality; fill-rule:evenodd; clip-rule:evenodd" xmlns:xlink="http://www.w3.org/1999/xlink">
<g><path style="opacity:1" fill="#f1a38f" d="M 2076.5,394.5 C 2089.94,396.508 2103.61,397.508 2117.5,397.5C 2122.89,397.267 2128.23,397.6 2133.5,398.5C 2141.95,400.072 2150.62,400.739 2159.5,400.5C 2168.03,400.566 2176.36,401.233 2184.5,402.5C 2199.95,404.649 2215.62,405.982 2231.5,406.5C 2241.96,408.209 2252.62,409.209 2263.5,409.5C 2286.16,411.5 2308.83,413.5 2331.5,415.5C 2331.42,416.75 2330.76,417.583 2329.5,418C 2186.98,483.423 2045.32,550.757 1904.5,620C 2030.44,635.659 2156.44,650.992 2282.5,666C 2318.41,670.114 2354.07,675.781 2389.5,683C 2418.9,689.874 2446.23,701.374 2471.5,717.5C 2477.98,722.248 2484.31,727.248 2490.5,732.5C 2498.51,740.172 2503.67,749.506 2506,760.5C 2512.17,786.512 2516.5,812.845 2519,839.5C 2530.46,966.919 2537.62,1094.59 2540.5,1222.5C 2540.17,1231.02 2540.51,1239.35 2541.5,1247.5C 2549.25,1628.54 2547.92,2009.54 2537.5,2390.5C 2405.83,2465 2273.83,2539 2141.5,2612.5C 2142.42,2236.49 2141.08,1860.49 2137.5,1484.5C 2137.83,1475.98 2137.49,1467.65 2136.5,1459.5C 2136.1,1290.7 2131.27,1122.03 2122,953.5C 2120.55,940.846 2119.21,928.18 2118,915.5C 2117.47,911.962 2116.63,908.628 2115.5,905.5C 2115.43,897.69 2112.43,891.357 2106.5,886.5C 2105.8,884.284 2104.46,882.451 2102.5,881C 2090,870.909 2076.33,862.576 2061.5,856C 2033.46,843.983 2004.79,833.649 1975.5,825C 1897.9,803.85 1819.56,785.684 1740.5,770.5C 1739.83,770.833 1739.17,771.167 1738.5,771.5C 1768.2,819.56 1793.7,869.893 1815,922.5C 1826.76,952.079 1832.6,982.746 1832.5,1014.5C 1793.73,1007.25 1755.06,999.413 1716.5,991C 1710.5,990.333 1704.5,990.333 1698.5,991C 1691.89,993.602 1686.39,997.768 1682,1003.5C 1674.89,1015.4 1668.55,1027.73 1663,1040.5C 1657.73,1049.1 1650.56,1055.6 1641.5,1060C 1624.35,1064.84 1613.52,1058.67 1609,1041.5C 1607.34,1020.63 1605.17,999.962 1602.5,979.5C 1601.98,971.966 1600.98,964.632 1599.5,957.5C 1592.89,901.613 1580.72,846.946 1563,793.5C 1562.63,792.09 1561.8,791.09 1560.5,790.5C 1503.99,817.617 1445.65,840.117 1385.5,858C 1338.39,871.687 1291.39,885.187 1244.5,898.5C 1232.93,901.19 1221.93,905.356 1211.5,911C 1210.18,911.816 1209.51,912.983 1209.5,914.5C 1207.63,929.721 1206.47,945.054 1206,960.5C 1205.12,982.827 1204.45,1005.16 1204,1027.5C 1201.66,1230.16 1200.5,1432.83 1200.5,1635.5C 1199.51,1642.65 1199.18,1649.98 1199.5,1657.5C 1199.09,1973.17 1197.59,2288.84 1195,2604.5C 1194.44,2648.67 1193.61,2692.67 1192.5,2736.5C 1062.34,2709.14 932.344,2681.14 802.5,2652.5C 803.248,2497.82 802.081,2343.15 799,2188.5C 793.869,1983.62 787.036,1778.95 778.5,1574.5C 778.5,1567.17 778.5,1559.83 778.5,1552.5C 771.522,1388.22 766.022,1223.89 762,1059.5C 761.333,1001.5 761.333,943.5 762,885.5C 762.284,868.76 763.451,852.093 765.5,835.5C 766.398,828.139 768.731,821.139 772.5,814.5C 781.662,804.564 792.662,797.064 805.5,792C 843.631,778.384 882.631,768.051 922.5,761C 981.493,750.239 1040.49,739.573 1099.5,729C 1029.4,729.656 966.068,709.656 909.5,669C 894.5,656.667 880.833,643 868.5,628C 747.498,612.916 626.498,597.916 505.5,583C 504.263,582.768 503.263,582.268 502.5,581.5C 568.95,554.942 635.617,528.942 702.5,503.5C 741.198,505.725 779.864,508.391 818.5,511.5C 816.883,494.116 817.216,476.783 819.5,459.5C 826.171,421.707 842.005,388.373 867,359.5C 910.531,311.477 964.698,282.977 1029.5,274C 1085.95,266.479 1140.95,272.479 1194.5,292C 1228.11,304.312 1260.45,319.312 1291.5,337C 1312.93,349.463 1334.1,362.296 1355,375.5C 1366.73,370.961 1378.9,368.961 1391.5,369.5C 1414.46,370.062 1437.13,372.728 1459.5,377.5C 1467.93,379.961 1476.6,381.461 1485.5,382C 1487.04,380.629 1488.37,379.129 1489.5,377.5C 1533.6,330.557 1580.6,287.057 1630.5,247C 1659.59,225.631 1690.92,207.965 1724.5,194C 1788.68,169.527 1854.01,165.861 1920.5,183C 1973.46,199.329 2015.63,230.163 2047,275.5C 2069.85,311.894 2079.68,351.561 2076.5,394.5 Z M 1859.5,383.5 C 1796.18,381.379 1732.85,380.046 1669.5,379.5C 1716.38,361.187 1765.05,353.353 1815.5,356C 1827.25,357.25 1837.92,361.25 1847.5,368C 1852.11,372.745 1856.11,377.912 1859.5,383.5 Z"/></g>
<g><path style="opacity:0.907" fill="#df5e6e" d="M 1459.5,377.5 C 1469.5,377.5 1479.5,377.5 1489.5,377.5C 1488.37,379.129 1487.04,380.629 1485.5,382C 1476.6,381.461 1467.93,379.961 1459.5,377.5 Z"/></g>
<g><path style="opacity:0.997" fill="#de5b6d" d="M 1669.5,379.5 C 1732.85,380.046 1796.18,381.379 1859.5,383.5C 1861.33,385.826 1862.66,388.493 1863.5,391.5C 1772.63,432.605 1681.29,472.605 1589.5,511.5C 1572.98,509.863 1556.65,507.196 1540.5,503.5C 1539.33,488.511 1539.17,473.511 1540,458.5C 1577.42,422.946 1620.59,396.613 1669.5,379.5 Z"/></g>
<g><path style="opacity:0.796" fill="#e67477" d="M 2076.5,394.5 C 2090.35,395.022 2104.02,396.022 2117.5,397.5C 2103.61,397.508 2089.94,396.508 2076.5,394.5 Z"/></g>
<g><path style="opacity:0.741" fill="#e7787a" d="M 2133.5,398.5 C 2142.36,398.608 2151.02,399.275 2159.5,400.5C 2150.62,400.739 2141.95,400.072 2133.5,398.5 Z"/></g>
<g><path style="opacity:0.894" fill="#e7787a" d="M 2184.5,402.5 C 2200.37,403.128 2216.04,404.461 2231.5,406.5C 2215.62,405.982 2199.95,404.649 2184.5,402.5 Z"/></g>
<g><path style="opacity:0.855" fill="#ea7d7b" d="M 2231.5,406.5 C 2242.38,406.791 2253.04,407.791 2263.5,409.5C 2252.62,409.209 2241.96,408.209 2231.5,406.5 Z"/></g>
<g><path style="opacity:0.999" fill="#de5b6d" d="M 2331.5,415.5 C 2493.88,432.959 2654.88,459.126 2814.5,494C 2855.82,502.981 2878.32,528.481 2882,570.5C 2881.85,670.512 2880.52,770.512 2878,870.5C 2877.86,903.981 2873.86,936.981 2866,969.5C 2856.02,1006.15 2837.35,1037.49 2810,1063.5C 2809.67,1066.17 2809.33,1068.83 2809,1071.5C 2804.41,1407.5 2799.74,1743.5 2795,2079.5C 2795.12,2116.05 2790.79,2152.05 2782,2187.5C 2768.77,2232.46 2742.94,2268.29 2704.5,2295C 2692.77,2303.06 2680.77,2310.73 2668.5,2318C 2625.07,2342.71 2581.4,2366.88 2537.5,2390.5C 2547.92,2009.54 2549.25,1628.54 2541.5,1247.5C 2620.61,1198.78 2699.27,1149.28 2777.5,1099C 2782.42,1095.62 2787.26,1092.12 2792,1088.5C 2795.66,1075.29 2790.82,1070.13 2777.5,1073C 2699.15,1123.84 2620.15,1173.68 2540.5,1222.5C 2537.62,1094.59 2530.46,966.919 2519,839.5C 2516.5,812.845 2512.17,786.512 2506,760.5C 2503.67,749.506 2498.51,740.172 2490.5,732.5C 2589.93,687.286 2689.26,641.786 2788.5,596C 2795.17,589.667 2795.17,583.333 2788.5,577C 2786.72,576.296 2784.89,575.796 2783,575.5C 2779.79,576.52 2776.62,577.686 2773.5,579C 2673.01,625.659 2572.34,671.825 2471.5,717.5C 2446.23,701.374 2418.9,689.874 2389.5,683C 2354.07,675.781 2318.41,670.114 2282.5,666C 2156.44,650.992 2030.44,635.659 1904.5,620C 2045.32,550.757 2186.98,483.423 2329.5,418C 2330.76,417.583 2331.42,416.75 2331.5,415.5 Z"/></g>
<g><path style="opacity:1" fill="#de5b6d" d="M 1139.5,438.5 C 1210.67,434.448 1278.17,448.115 1342,479.5C 1347.77,499.54 1355.61,518.707 1365.5,537C 1363.87,538.819 1361.87,540.152 1359.5,541C 1348.83,545 1338.17,549 1327.5,553C 1323.03,554.905 1318.37,555.738 1313.5,555.5C 1222.2,546.503 1130.87,537.836 1039.5,529.5C 1024.01,487.983 1037.68,461.15 1080.5,449C 1100.03,443.969 1119.69,440.469 1139.5,438.5 Z"/></g>
<g><path style="opacity:0.986" fill="#de5b6d" d="M 819.5,459.5 C 817.216,476.783 816.883,494.116 818.5,511.5C 779.864,508.391 741.198,505.725 702.5,503.5C 740.97,487.673 779.97,473.006 819.5,459.5 Z"/></g>
<g><path style="opacity:1" fill="#99525e" d="M 2490.5,732.5 C 2484.31,727.248 2477.98,722.248 2471.5,717.5C 2572.34,671.825 2673.01,625.659 2773.5,579C 2776.62,577.686 2779.79,576.52 2783,575.5C 2784.89,575.796 2786.72,576.296 2788.5,577C 2795.17,583.333 2795.17,589.667 2788.5,596C 2689.26,641.786 2589.93,687.286 2490.5,732.5 Z"/></g>
<g><path style="opacity:0.999" fill="#dd5b6d" d="M 502.5,581.5 C 503.263,582.268 504.263,582.768 505.5,583C 626.498,597.916 747.498,612.916 868.5,628C 880.833,643 894.5,656.667 909.5,669C 966.068,709.656 1029.4,729.656 1099.5,729C 1040.49,739.573 981.493,750.239 922.5,761C 882.631,768.051 843.631,778.384 805.5,792C 792.662,797.064 781.662,804.564 772.5,814.5C 611.166,785.903 450.166,755.403 289.5,723C 284.312,722.296 279.145,721.462 274,720.5C 264.836,722.305 261.836,727.639 265,736.5C 267.076,739.588 269.909,741.421 273.5,742C 437.297,774.452 601.297,805.618 765.5,835.5C 763.451,852.093 762.284,868.76 762,885.5C 761.333,943.5 761.333,1001.5 762,1059.5C 766.022,1223.89 771.522,1388.22 778.5,1552.5C 601.8,1518.33 425.133,1483.83 248.5,1449C 237.331,1448.5 233.165,1453.67 236,1464.5C 237.5,1466 239,1467.5 240.5,1469C 419.727,1504.68 599.06,1539.84 778.5,1574.5C 787.036,1778.95 793.869,1983.62 799,2188.5C 802.081,2343.15 803.248,2497.82 802.5,2652.5C 668.839,2623.73 535.172,2594.9 401.5,2566C 369.704,2558.96 339.371,2547.96 310.5,2533C 264.713,2506.18 236.213,2466.68 225,2414.5C 220.133,2393.1 217.133,2371.43 216,2349.5C 214.923,2325.51 214.257,2301.51 214,2277.5C 211.541,1999.5 208.707,1721.5 205.5,1443.5C 163.71,1421.99 140.21,1387.65 135,1340.5C 134.13,1333.19 133.463,1325.85 133,1318.5C 132.833,1297.83 132.667,1277.17 132.5,1256.5C 134.021,1151.5 134.521,1046.5 134,941.5C 132.167,905.665 130.333,869.832 128.5,834C 126.492,801.539 133.658,771.372 150,743.5C 163.05,726.111 178.883,711.945 197.5,701C 219.374,688.931 242.041,678.597 265.5,670C 288.585,662.626 311.585,654.96 334.5,647C 390.414,624.874 446.414,603.04 502.5,581.5 Z"/></g>
<g><path style="opacity:1" fill="#99525e" d="M 772.5,814.5 C 768.731,821.139 766.398,828.139 765.5,835.5C 601.297,805.618 437.297,774.452 273.5,742C 269.909,741.421 267.076,739.588 265,736.5C 261.836,727.639 264.836,722.305 274,720.5C 279.145,721.462 284.312,722.296 289.5,723C 450.166,755.403 611.166,785.903 772.5,814.5 Z"/></g>
<g><path style="opacity:1" fill="#dd5b6d" d="M 2106.5,886.5 C 2059.46,907.769 2012.63,929.436 1966,951.5C 1961.8,958.797 1963.3,964.63 1970.5,969C 1973.59,969.652 1976.59,969.318 1979.5,968C 2024.98,947.426 2070.31,926.593 2115.5,905.5C 2116.63,908.628 2117.47,911.962 2118,915.5C 2119.21,928.18 2120.55,940.846 2122,953.5C 2131.27,1122.03 2136.1,1290.7 2136.5,1459.5C 2052.69,1507.24 1968.69,1554.74 1884.5,1602C 1839.17,1627.83 1792.17,1650.17 1743.5,1669C 1663.59,1698.14 1581.59,1705.8 1497.5,1692C 1472.05,1688.31 1446.72,1683.98 1421.5,1679C 1347.89,1664.05 1274.23,1649.55 1200.5,1635.5C 1200.5,1432.83 1201.66,1230.16 1204,1027.5C 1204.45,1005.16 1205.12,982.827 1206,960.5C 1206.47,945.054 1207.63,929.721 1209.5,914.5C 1340.4,936.705 1471.4,958.372 1602.5,979.5C 1605.17,999.962 1607.34,1020.63 1609,1041.5C 1613.52,1058.67 1624.35,1064.84 1641.5,1060C 1650.56,1055.6 1657.73,1049.1 1663,1040.5C 1668.55,1027.73 1674.89,1015.4 1682,1003.5C 1686.39,997.768 1691.89,993.602 1698.5,991C 1704.5,990.333 1710.5,990.333 1716.5,991C 1755.06,999.413 1793.73,1007.25 1832.5,1014.5C 1832.6,982.746 1826.76,952.079 1815,922.5C 1793.7,869.893 1768.2,819.56 1738.5,771.5C 1739.17,771.167 1739.83,770.833 1740.5,770.5C 1819.56,785.684 1897.9,803.85 1975.5,825C 2004.79,833.649 2033.46,843.983 2061.5,856C 2076.33,862.576 2090,870.909 2102.5,881C 2104.46,882.451 2105.8,884.284 2106.5,886.5 Z"/></g>
<g><path style="opacity:1" fill="#dd5b6d" d="M 1599.5,957.5 C 1481.05,938.591 1362.71,918.925 1244.5,898.5C 1291.39,885.187 1338.39,871.687 1385.5,858C 1445.65,840.117 1503.99,817.617 1560.5,790.5C 1561.8,791.09 1562.63,792.09 1563,793.5C 1580.72,846.946 1592.89,901.613 1599.5,957.5 Z"/></g>
<g><path style="opacity:1" fill="#99525e" d="M 2106.5,886.5 C 2112.43,891.357 2115.43,897.69 2115.5,905.5C 2070.31,926.593 2024.98,947.426 1979.5,968C 1976.59,969.318 1973.59,969.652 1970.5,969C 1963.3,964.63 1961.8,958.797 1966,951.5C 2012.63,929.436 2059.46,907.769 2106.5,886.5 Z"/></g>
<g><path style="opacity:1" fill="#99525e" d="M 1244.5,898.5 C 1362.71,918.925 1481.05,938.591 1599.5,957.5C 1600.98,964.632 1601.98,971.966 1602.5,979.5C 1471.4,958.372 1340.4,936.705 1209.5,914.5C 1209.51,912.983 1210.18,911.816 1211.5,911C 1221.93,905.356 1232.93,901.19 1244.5,898.5 Z"/></g>
<g><path style="opacity:1" fill="#99525e" d="M 2541.5,1247.5 C 2540.51,1239.35 2540.17,1231.02 2540.5,1222.5C 2620.15,1173.68 2699.15,1123.84 2777.5,1073C 2790.82,1070.13 2795.66,1075.29 2792,1088.5C 2787.26,1092.12 2782.42,1095.62 2777.5,1099C 2699.27,1149.28 2620.61,1198.78 2541.5,1247.5 Z"/></g>
<g><path style="opacity:1" fill="#99525e" d="M 778.5,1552.5 C 778.5,1559.83 778.5,1567.17 778.5,1574.5C 599.06,1539.84 419.727,1504.68 240.5,1469C 239,1467.5 237.5,1466 236,1464.5C 233.165,1453.67 237.331,1448.5 248.5,1449C 425.133,1483.83 601.8,1518.33 778.5,1552.5 Z"/></g>
<g><path style="opacity:1" fill="#99525e" d="M 2136.5,1459.5 C 2137.49,1467.65 2137.83,1475.98 2137.5,1484.5C 2054.55,1530.98 1971.55,1577.48 1888.5,1624C 1848.21,1646.15 1806.87,1666.15 1764.5,1684C 1726.6,1698.35 1687.77,1709.18 1648,1716.5C 1647.33,1729.17 1647.33,1741.83 1648,1754.5C 1657.03,2087.84 1666.2,2421.17 1675.5,2754.5C 1675.33,2760.83 1675.17,2767.17 1675,2773.5C 1672.31,2780.06 1667.48,2782.22 1660.5,2780C 1657.62,2778.75 1655.79,2776.58 1655,2773.5C 1644.9,2421.84 1635.07,2070.18 1625.5,1718.5C 1578.94,1720.82 1532.61,1718.66 1486.5,1712C 1463.43,1708.32 1440.43,1704.32 1417.5,1700C 1344.84,1685.63 1272.17,1671.47 1199.5,1657.5C 1199.18,1649.98 1199.51,1642.65 1200.5,1635.5C 1274.23,1649.55 1347.89,1664.05 1421.5,1679C 1446.72,1683.98 1472.05,1688.31 1497.5,1692C 1581.59,1705.8 1663.59,1698.14 1743.5,1669C 1792.17,1650.17 1839.17,1627.83 1884.5,1602C 1968.69,1554.74 2052.69,1507.24 2136.5,1459.5 Z"/></g>
<g><path style="opacity:1" fill="#dd5b6d" d="M 2137.5,1484.5 C 2141.08,1860.49 2142.42,2236.49 2141.5,2612.5C 2056.19,2661.16 1970.52,2709.33 1884.5,2757C 1844.85,2779.16 1803.51,2797.49 1760.5,2812C 1709.98,2826.56 1658.64,2830.23 1606.5,2823C 1574.27,2818.63 1542.27,2812.96 1510.5,2806C 1404.27,2783.26 1298.27,2760.09 1192.5,2736.5C 1193.61,2692.67 1194.44,2648.67 1195,2604.5C 1197.59,2288.84 1199.09,1973.17 1199.5,1657.5C 1272.17,1671.47 1344.84,1685.63 1417.5,1700C 1440.43,1704.32 1463.43,1708.32 1486.5,1712C 1532.61,1718.66 1578.94,1720.82 1625.5,1718.5C 1635.07,2070.18 1644.9,2421.84 1655,2773.5C 1655.79,2776.58 1657.62,2778.75 1660.5,2780C 1667.48,2782.22 1672.31,2780.06 1675,2773.5C 1675.17,2767.17 1675.33,2760.83 1675.5,2754.5C 1666.2,2421.17 1657.03,2087.84 1648,1754.5C 1647.33,1741.83 1647.33,1729.17 1648,1716.5C 1687.77,1709.18 1726.6,1698.35 1764.5,1684C 1806.87,1666.15 1848.21,1646.15 1888.5,1624C 1971.55,1577.48 2054.55,1530.98 2137.5,1484.5 Z"/></g>
</svg>
