<?xml version="1.0" encoding="UTF-8"?>
<!DOCTYPE svg PUBLIC "-//W3C//DTD SVG 1.1//EN" "http://www.w3.org/Graphics/SVG/1.1/DTD/svg11.dtd">
<svg xmlns="http://www.w3.org/2000/svg" version="1.1" width="3000px" height="3000px" style="shape-rendering:geometricPrecision; text-rendering:geometricPrecision; image-rendering:optimizeQuality; fill-rule:evenodd; clip-rule:evenodd" xmlns:xlink="http://www.w3.org/1999/xlink">
<g><path style="opacity:0.999" fill="#f36856" d="M 1456.5,208.5 C 1765.93,201.487 2043.27,290.987 2288.5,477C 2487.88,632.831 2630.72,829.997 2717,1068.5C 2796.3,1298.34 2811.3,1532.34 2762,1770.5C 2697.15,2058.18 2553.32,2297.34 2330.5,2488C 2107.61,2672.84 1850.61,2773.18 1559.5,2789C 1243.88,2800.67 960.882,2711.67 710.5,2522C 494.484,2352.63 345.317,2136.47 263,1873.5C 201.097,1663.16 191.764,1450.5 235,1235.5C 302.867,928.265 459.034,677.099 703.5,482C 924.814,311.264 1175.81,220.098 1456.5,208.5 Z"/></g>
<g><path style="opacity:1" fill="#fdf1cf" d="M 1451.5,454.5 C 1724.34,446.053 1965.34,528.219 2174.5,701C 2347.92,849.635 2462.09,1035.47 2517,1258.5C 2570.17,1494.96 2546.51,1723.3 2446,1943.5C 2346.12,2151.04 2195.29,2310.21 1993.5,2421C 1784.01,2530.45 1562.34,2567.11 1328.5,2531C 1086.88,2488.31 884.048,2376.81 720,2196.5C 535.031,1984.32 446.698,1736.65 455,1453.5C 468.118,1206.67 555.451,990.671 717,805.5C 898.706,605.556 1124.54,490.056 1394.5,459C 1413.69,457.933 1432.69,456.433 1451.5,454.5 Z"/></g>
<g><path style="opacity:1" fill="#24537c" d="M 1467.5,572.5 C 1488.83,572.5 1510.17,572.5 1531.5,572.5C 1531.5,622.167 1531.5,671.833 1531.5,721.5C 1510.17,721.5 1488.83,721.5 1467.5,721.5C 1467.5,671.833 1467.5,622.167 1467.5,572.5 Z"/></g>
<g><path style="opacity:1" fill="#25537c" d="M 1943.5,685.5 C 1962.3,696.404 1980.97,707.57 1999.5,719C 1974.29,760.586 1949.46,802.419 1925,844.5C 1924.31,845.357 1923.48,846.023 1922.5,846.5C 1904,835.752 1885.67,824.752 1867.5,813.5C 1892.84,770.806 1918.18,728.139 1943.5,685.5 Z"/></g>
<g><path style="opacity:1" fill="#25537c" d="M 1037.5,694.5 C 1039.39,694.297 1040.89,694.963 1042,696.5C 1067.25,738.001 1092.75,779.334 1118.5,820.5C 1100.72,832.443 1082.56,843.776 1064,854.5C 1062.23,853.66 1060.9,852.327 1060,850.5C 1034.96,809.583 1009.79,768.75 984.5,728C 1002.34,716.97 1020.01,705.804 1037.5,694.5 Z"/></g>
<g><path style="opacity:1" fill="#7e949e" d="M 1467.5,572.5 C 1467.5,622.167 1467.5,671.833 1467.5,721.5C 1488.83,721.5 1510.17,721.5 1531.5,721.5C 1510.01,722.497 1488.34,722.831 1466.5,722.5C 1466.17,672.331 1466.5,622.331 1467.5,572.5 Z"/></g>
<g><path style="opacity:1" fill="#6a8596" d="M 1531.5,919.5 C 1510.17,919.5 1488.83,919.5 1467.5,919.5C 1467.5,1065.17 1467.5,1210.83 1467.5,1356.5C 1467.17,1356.5 1466.83,1356.5 1466.5,1356.5C 1466.5,1210.5 1466.5,1064.5 1466.5,918.5C 1488.34,918.169 1510.01,918.503 1531.5,919.5 Z"/></g>
<g><path style="opacity:1" fill="#24527b" d="M 1531.5,919.5 C 1531.5,1065.17 1531.5,1210.83 1531.5,1356.5C 1510.16,1352.56 1488.83,1352.56 1467.5,1356.5C 1467.5,1210.83 1467.5,1065.17 1467.5,919.5C 1488.83,919.5 1510.17,919.5 1531.5,919.5 Z"/></g>
<g><path style="opacity:1" fill="#25537c" d="M 2266.5,982.5 C 2267.55,982.351 2268.55,982.517 2269.5,983C 2279.88,999.585 2290.38,1016.08 2301,1032.5C 2302.19,1034.04 2302.52,1035.71 2302,1037.5C 2260.75,1063.21 2219.58,1089.04 2178.5,1115C 2177.36,1115.75 2176.36,1115.58 2175.5,1114.5C 2163.84,1096.81 2153,1078.81 2143,1060.5C 2184.48,1034.85 2225.65,1008.85 2266.5,982.5 Z"/></g>
<g><path style="opacity:1" fill="#25537c" d="M 690.5,1045.5 C 735.364,1067.27 779.698,1090.1 823.5,1114C 813.706,1132.42 804.039,1150.92 794.5,1169.5C 793.635,1170.58 792.635,1170.75 791.5,1170C 748.097,1147.88 704.931,1125.38 662,1102.5C 670.913,1083.34 680.413,1064.34 690.5,1045.5 Z"/></g>
<g><path style="opacity:1" fill="#d7292f" d="M 1531.5,1356.5 C 1583.18,1370.02 1618.68,1401.68 1638,1451.5C 1653.13,1501.94 1645.13,1548.27 1614,1590.5C 1571.57,1638.7 1519.07,1655.03 1456.5,1639.5C 1434.67,1632.26 1415.33,1620.92 1398.5,1605.5C 1358.57,1564.76 1345.07,1516.43 1358,1460.5C 1375.1,1405.9 1411.27,1371.23 1466.5,1356.5C 1466.83,1356.5 1467.17,1356.5 1467.5,1356.5C 1488.83,1352.56 1510.16,1352.56 1531.5,1356.5 Z"/></g>
<g><path style="opacity:1" fill="#fdf1cf" d="M 1484.5,1418.5 C 1525.32,1414.49 1555.15,1430.49 1574,1466.5C 1587.87,1505.54 1579.03,1538.37 1547.5,1565C 1518.79,1583.53 1489.12,1585.2 1458.5,1570C 1425.83,1548.47 1412.99,1518.3 1420,1479.5C 1430.09,1446.91 1451.59,1426.58 1484.5,1418.5 Z"/></g>
<g><path style="opacity:1" fill="#5c7c91" d="M 2276.5,1467.5 C 2326.33,1466.5 2376.33,1466.17 2426.5,1466.5C 2426.83,1488.34 2426.5,1510.01 2425.5,1531.5C 2425.5,1510.17 2425.5,1488.83 2425.5,1467.5C 2375.83,1467.5 2326.17,1467.5 2276.5,1467.5 Z"/></g>
<g><path style="opacity:1" fill="#24537c" d="M 572.5,1467.5 C 622.167,1467.5 671.833,1467.5 721.5,1467.5C 721.5,1488.83 721.5,1510.17 721.5,1531.5C 671.833,1531.5 622.167,1531.5 572.5,1531.5C 572.5,1510.17 572.5,1488.83 572.5,1467.5 Z"/></g>
<g><path style="opacity:1" fill="#778f9c" d="M 572.5,1467.5 C 622.331,1466.5 672.331,1466.17 722.5,1466.5C 722.831,1488.34 722.497,1510.01 721.5,1531.5C 721.5,1510.17 721.5,1488.83 721.5,1467.5C 671.833,1467.5 622.167,1467.5 572.5,1467.5 Z"/></g>
<g><path style="opacity:1" fill="#24537c" d="M 2276.5,1467.5 C 2326.17,1467.5 2375.83,1467.5 2425.5,1467.5C 2425.5,1488.83 2425.5,1510.17 2425.5,1531.5C 2375.83,1531.5 2326.17,1531.5 2276.5,1531.5C 2276.5,1510.17 2276.5,1488.83 2276.5,1467.5 Z"/></g>
<g><path style="opacity:1" fill="#25537c" d="M 1398.5,1605.5 C 1415.33,1620.92 1434.67,1632.26 1456.5,1639.5C 1316.51,1778.33 1176.01,1916.66 1035,2054.5C 1019.47,2039.3 1004.3,2023.8 989.5,2008C 1126.34,1874.33 1262.67,1740.16 1398.5,1605.5 Z"/></g>
<g><path style="opacity:1" fill="#25537c" d="M 2204.5,1827.5 C 2248.96,1850.23 2293.3,1873.23 2337.5,1896.5C 2327.75,1915.66 2317.75,1934.66 2307.5,1953.5C 2263.59,1930.96 2219.75,1908.29 2176,1885.5C 2185.13,1866.14 2194.63,1846.81 2204.5,1827.5 Z"/></g>
<g><path style="opacity:1" fill="#25537c" d="M 820.5,1883.5 C 822.017,1883.51 823.184,1884.18 824,1885.5C 835.244,1903.02 845.911,1920.69 856,1938.5C 813.982,1964.91 771.815,1990.74 729.5,2016C 717.917,1998.17 706.583,1980.17 695.5,1962C 737.231,1935.81 778.898,1909.64 820.5,1883.5 Z"/></g>
<g><path style="opacity:1" fill="#25537c" d="M 1934.5,2143.5 C 1961.56,2185.27 1987.89,2227.6 2013.5,2270.5C 1995.79,2282.19 1977.79,2293.53 1959.5,2304.5C 1932.68,2262.87 1906.35,2220.87 1880.5,2178.5C 1880.98,2177.52 1881.64,2176.69 1882.5,2176C 1900.07,2165.39 1917.4,2154.56 1934.5,2143.5 Z"/></g>
<g><path style="opacity:1" fill="#25537c" d="M 1074.5,2151.5 C 1092.6,2161.75 1110.6,2172.25 1128.5,2183C 1129.36,2183.69 1130.02,2184.52 1130.5,2185.5C 1105.56,2228.43 1080.23,2271.09 1054.5,2313.5C 1036.96,2302.8 1019.3,2292.3 1001.5,2282C 1000.64,2281.31 999.977,2280.48 999.5,2279.5C 1025.03,2237.11 1050.03,2194.44 1074.5,2151.5 Z"/></g>
<g><path style="opacity:1" fill="#628094" d="M 1467.5,2276.5 C 1467.5,2326.17 1467.5,2375.83 1467.5,2425.5C 1488.83,2425.5 1510.17,2425.5 1531.5,2425.5C 1510.01,2426.5 1488.34,2426.83 1466.5,2426.5C 1466.17,2376.33 1466.5,2326.33 1467.5,2276.5 Z"/></g>
<g><path style="opacity:1" fill="#24537c" d="M 1467.5,2276.5 C 1488.83,2276.5 1510.17,2276.5 1531.5,2276.5C 1531.5,2326.17 1531.5,2375.83 1531.5,2425.5C 1510.17,2425.5 1488.83,2425.5 1467.5,2425.5C 1467.5,2375.83 1467.5,2326.17 1467.5,2276.5 Z"/></g>
</svg>
