<?xml version="1.0" encoding="UTF-8"?>
<!DOCTYPE svg PUBLIC "-//W3C//DTD SVG 1.1//EN" "http://www.w3.org/Graphics/SVG/1.1/DTD/svg11.dtd">
<svg xmlns="http://www.w3.org/2000/svg" version="1.1" width="3000px" height="3000px" style="shape-rendering:geometricPrecision; text-rendering:geometricPrecision; image-rendering:optimizeQuality; fill-rule:evenodd; clip-rule:evenodd" xmlns:xlink="http://www.w3.org/1999/xlink">
<g><path style="opacity:0.996" fill="#3f3338" d="M 1445.5,146.5 C 1499.59,145.704 1553.59,147.538 1607.5,152C 1619.25,153.107 1630.91,154.774 1642.5,157C 1652.57,158.606 1660.07,163.773 1665,172.5C 1665.67,210.5 1665.67,248.5 1665,286.5C 1662.5,291.667 1658.67,295.5 1653.5,298C 1634.42,304.883 1614.75,309.217 1594.5,311C 1579.21,312.625 1563.87,313.459 1548.5,313.5C 1548.99,330.4 1549.65,347.233 1550.5,364C 1549.54,401.277 1548.87,438.777 1548.5,476.5C 1582.6,477.27 1616.27,481.437 1649.5,489C 1659.87,492.022 1664.7,498.855 1664,509.5C 1665.04,533.489 1665.71,557.489 1666,581.5C 1668.41,588.909 1673.24,594.076 1680.5,597C 1697.46,600.565 1712.63,607.732 1726,618.5C 1728.78,621.718 1730.78,625.385 1732,629.5C 1735.46,688.127 1737.96,746.793 1739.5,805.5C 1915.65,882.145 2037.15,1010.48 2104,1190.5C 2124.98,1250.75 2136.98,1312.75 2140,1376.5C 2140.9,1471.86 2142.9,1567.19 2146,1662.5C 2146.45,1783.83 2146.11,1905.17 2145,2026.5C 2142.42,2262.5 2140.09,2498.5 2138,2734.5C 2136.16,2745.01 2130.99,2753.51 2122.5,2760C 2099.92,2775.62 2075.25,2786.95 2048.5,2794C 1999.64,2808.09 1949.97,2818.42 1899.5,2825C 1793.31,2839.44 1686.64,2848.11 1579.5,2851C 1439.51,2855.39 1299.85,2850.73 1160.5,2837C 1089.84,2830.17 1020.17,2817.83 951.5,2800C 929.706,2793.63 908.706,2785.29 888.5,2775C 877.495,2768.99 867.995,2761.16 860,2751.5C 857.473,2747.78 855.473,2743.78 854,2739.5C 852.842,2698.72 852.342,2657.89 852.5,2617C 853.173,2426.5 854.34,2236 856,2045.5C 856.333,1822.83 856.667,1600.17 857,1377.5C 867.962,1187.42 945.129,1030.58 1088.5,907C 1139.73,864.613 1196.23,830.447 1258,804.5C 1259,746.868 1260.17,689.368 1261.5,632C 1262.52,626.942 1264.69,622.442 1268,618.5C 1276.51,611.326 1286.01,605.826 1296.5,602C 1304.32,599.059 1312.32,596.726 1320.5,595C 1327.4,592.101 1331.23,586.934 1332,579.5C 1332.33,552.833 1332.67,526.167 1333,499.5C 1336.32,493.856 1341.15,490.023 1347.5,488C 1363.77,482.733 1380.43,479.399 1397.5,478C 1414.47,476.576 1431.47,475.742 1448.5,475.5C 1447.24,421.359 1449.24,367.359 1454.5,313.5C 1421.12,312.291 1388.12,308.124 1355.5,301C 1349,299.415 1343,296.748 1337.5,293C 1333.24,288.757 1331.41,283.59 1332,277.5C 1327.69,279.085 1323.19,279.919 1318.5,280C 1303.49,280.9 1288.49,281.9 1273.5,283C 1250.6,288.236 1236.76,302.403 1232,325.5C 1234.18,341.329 1228.01,352.163 1213.5,358C 1191.15,358.674 1168.82,358.34 1146.5,357C 1138.26,354.427 1133.09,348.927 1131,340.5C 1131.55,311.67 1132.38,282.837 1133.5,254C 1132.87,236.331 1132.21,218.665 1131.5,201C 1130.78,187.391 1137.11,179.391 1150.5,177C 1202.27,173.149 1253.94,174.316 1305.5,180.5C 1313.41,180.177 1321.07,178.677 1328.5,176C 1332.38,171.279 1336.71,166.946 1341.5,163C 1359.07,155.617 1377.41,151.284 1396.5,150C 1412.98,148.625 1429.31,147.458 1445.5,146.5 Z"/></g>
<g><path style="opacity:1" fill="#efda82" d="M 1468.5,154.5 C 1517.97,151.873 1566.97,155.373 1615.5,165C 1626.27,167.755 1636.6,171.589 1646.5,176.5C 1647.83,211.5 1647.83,246.5 1646.5,281.5C 1629.09,288.185 1611.09,292.685 1592.5,295C 1525.14,302.228 1457.81,302.228 1390.5,295C 1375.89,293.014 1361.89,289.014 1348.5,283C 1348,282.5 1347.5,282 1347,281.5C 1346.33,246.833 1346.33,212.167 1347,177.5C 1352.95,173.512 1359.45,170.679 1366.5,169C 1373.88,167.54 1381.21,165.874 1388.5,164C 1415.25,160.196 1441.91,157.029 1468.5,154.5 Z"/></g>
<g><path style="opacity:1" fill="#efda82" d="M 1277.5,186.5 C 1292.45,184.935 1306.78,187.101 1320.5,193C 1326.2,196.368 1330.04,201.201 1332,207.5C 1333.04,226.826 1333.38,246.16 1333,265.5C 1329.58,267.929 1325.74,268.929 1321.5,268.5C 1304.19,266.868 1286.86,266.034 1269.5,266C 1232.07,275.456 1213.23,299.623 1213,338.5C 1212.17,339.333 1211.33,340.167 1210.5,341C 1192.75,342.267 1174.92,343.1 1157,343.5C 1150.75,344.889 1146.09,342.889 1143,337.5C 1139.41,290.536 1138.74,243.536 1141,196.5C 1142.75,192.421 1145.75,189.755 1150,188.5C 1192.7,191.609 1235.2,190.943 1277.5,186.5 Z"/></g>
<g><path style="opacity:1" fill="#eed982" d="M 1478.5,313.5 C 1501.2,317.34 1517.03,330.007 1526,351.5C 1527.8,356.375 1529.14,361.375 1530,366.5C 1531.56,412.501 1532.56,458.501 1533,504.5C 1531.15,506.679 1528.99,508.513 1526.5,510C 1508.42,517.828 1490.09,518.495 1471.5,512C 1468.06,510.224 1464.89,508.057 1462,505.5C 1462.01,481.831 1462.51,458.164 1463.5,434.5C 1462.54,400.786 1461.04,367.119 1459,333.5C 1462.35,323.65 1468.85,316.983 1478.5,313.5 Z"/></g>
<g><path style="opacity:1" fill="#efda82" d="M 1544.5,506.5 C 1545.49,499.018 1545.83,491.352 1545.5,483.5C 1548.17,483.5 1550.83,483.5 1553.5,483.5C 1572.63,484.607 1591.63,486.774 1610.5,490C 1619.61,492.196 1628.61,494.863 1637.5,498C 1640.91,499.455 1644.08,501.288 1647,503.5C 1647.67,538.5 1647.67,573.5 1647,608.5C 1639.88,612.317 1632.38,615.15 1624.5,617C 1546.14,631.098 1467.47,633.098 1388.5,623C 1376.92,620.937 1365.58,617.937 1354.5,614C 1351.75,612.877 1349.25,611.377 1347,609.5C 1346.99,574.167 1347.49,538.834 1348.5,503.5C 1363.55,496.987 1379.22,492.487 1395.5,490C 1413.78,487.344 1432.12,485.178 1450.5,483.5C 1444.83,505.277 1452.83,518.443 1474.5,523C 1491.61,526.616 1508.61,526.283 1525.5,522C 1531.7,519.984 1537.2,516.817 1542,512.5C 1543.12,510.593 1543.96,508.593 1544.5,506.5 Z"/></g>
<g><path style="opacity:1" fill="#645647" d="M 1553.5,483.5 C 1550.83,483.5 1548.17,483.5 1545.5,483.5C 1545.83,491.352 1545.49,499.018 1544.5,506.5C 1544.5,498.5 1544.5,490.5 1544.5,482.5C 1547.71,482.19 1550.71,482.523 1553.5,483.5 Z"/></g>
<g><path style="opacity:1" fill="#edd882" d="M 1664.5,596.5 C 1680.28,600.813 1695.28,606.98 1709.5,615C 1715.87,619.191 1720.54,624.691 1723.5,631.5C 1723.17,632.5 1722.83,633.5 1722.5,634.5C 1678.9,645.9 1634.9,655.4 1590.5,663C 1522.67,672.5 1455,671.5 1387.5,660C 1376.34,657.586 1366.01,653.253 1356.5,647C 1349.66,641.977 1345.66,635.31 1344.5,627C 1344.67,625.833 1344.83,624.667 1345,623.5C 1358.74,628.477 1372.91,631.977 1387.5,634C 1447.01,640.736 1506.68,642.736 1566.5,640C 1591.12,638.641 1615.45,635.308 1639.5,630C 1648.19,628.404 1655.69,624.57 1662,618.5C 1662.86,616.913 1663.53,615.246 1664,613.5C 1664.5,607.843 1664.67,602.176 1664.5,596.5 Z"/></g>
<g><path style="opacity:1" fill="#edd882" d="M 1721.5,636.5 C 1722.82,639.087 1723.48,642.087 1723.5,645.5C 1722.66,674.203 1721.16,702.869 1719,731.5C 1717.95,777.494 1717.28,823.494 1717,869.5C 1714.83,873 1712,875.833 1708.5,878C 1703.41,880.96 1698.25,883.794 1693,886.5C 1695.16,867.61 1696.33,848.61 1696.5,829.5C 1695.83,802.5 1695.17,775.5 1694.5,748.5C 1696.74,716.541 1695.74,684.707 1691.5,653C 1691.59,651.893 1691.92,650.893 1692.5,650C 1702.74,646.541 1712.4,642.041 1721.5,636.5 Z"/></g>
<g><path style="opacity:1" fill="#edd881" d="M 1273.5,637.5 C 1285.33,643.245 1297.33,648.745 1309.5,654C 1306.41,670.807 1304.74,687.807 1304.5,705C 1305.38,754.165 1305.54,803.332 1305,852.5C 1305.68,865.281 1307.18,877.948 1309.5,890.5C 1309.17,890.833 1308.83,891.167 1308.5,891.5C 1301.22,888.527 1294.22,885.027 1287.5,881C 1283.33,878.167 1279.83,874.667 1277,870.5C 1277.03,792.811 1275.87,715.144 1273.5,637.5 Z"/></g>
<g><path style="opacity:1" fill="#eed982" d="M 1685.5,652.5 C 1686.65,652.791 1687.32,653.624 1687.5,655C 1685.22,667.066 1683.72,679.233 1683,691.5C 1682.87,716.33 1683.04,741.164 1683.5,766C 1683.61,788.029 1682.94,810.029 1681.5,832C 1682.62,851.207 1684.29,870.374 1686.5,889.5C 1675.65,893.119 1664.65,896.119 1653.5,898.5C 1655.87,879.252 1657.2,859.919 1657.5,840.5C 1655.73,800.007 1655.4,759.507 1656.5,719C 1656.37,700.668 1654.7,682.501 1651.5,664.5C 1662.96,660.68 1674.3,656.68 1685.5,652.5 Z"/></g>
<g><path style="opacity:1" fill="#eed982" d="M 1314.5,655.5 C 1325.31,659.493 1336.31,662.993 1347.5,666C 1348.72,667.525 1349.39,669.359 1349.5,671.5C 1345.3,703.375 1344.3,735.375 1346.5,767.5C 1346.39,793.847 1345.72,820.181 1344.5,846.5C 1345.38,865.632 1347.38,884.632 1350.5,903.5C 1338.56,901.431 1326.89,898.264 1315.5,894C 1314.34,892.991 1313.68,891.658 1313.5,890C 1317.23,869.678 1318.9,849.178 1318.5,828.5C 1317.92,801.998 1317.25,775.498 1316.5,749C 1318.42,717.76 1317.75,686.594 1314.5,655.5 Z"/></g>
<g><path style="opacity:1" fill="#edd881" d="M 1644.5,664.5 C 1645.5,664.5 1646.5,664.5 1647.5,664.5C 1643.19,698.884 1642.19,733.384 1644.5,768C 1644.53,791.356 1643.86,814.689 1642.5,838C 1642.9,858.958 1644.57,879.791 1647.5,900.5C 1636.9,902.539 1626.23,904.205 1615.5,905.5C 1617.84,887.918 1618.84,870.252 1618.5,852.5C 1616.67,811.675 1616.34,770.842 1617.5,730C 1617.74,711.493 1616.07,693.159 1612.5,675C 1612.59,673.893 1612.92,672.893 1613.5,672C 1624.07,669.94 1634.4,667.44 1644.5,664.5 Z"/></g>
<g><path style="opacity:1" fill="#edd881" d="M 1355.5,668.5 C 1370.07,671.913 1384.74,674.913 1399.5,677.5C 1396.22,708.262 1395.56,739.095 1397.5,770C 1396.32,802.828 1395.82,835.661 1396,868.5C 1396.92,882.906 1398.42,897.239 1400.5,911.5C 1385.03,910.483 1369.7,908.483 1354.5,905.5C 1357.87,886.495 1359.54,867.329 1359.5,848C 1358.82,820 1358.15,792 1357.5,764C 1359.42,732.093 1358.76,700.26 1355.5,668.5 Z"/></g>
<g><path style="opacity:1" fill="#edd982" d="M 1604.5,673.5 C 1606.5,673.5 1608.5,673.5 1610.5,673.5C 1604.18,707.446 1602.84,741.613 1606.5,776C 1605.94,804.35 1604.94,832.683 1603.5,861C 1604.48,875.196 1605.81,889.362 1607.5,903.5C 1607.35,905.32 1606.68,906.82 1605.5,908C 1594.19,909.496 1582.86,910.663 1571.5,911.5C 1574.35,892.799 1575.68,873.966 1575.5,855C 1573.79,814.506 1573.46,774.006 1574.5,733.5C 1574.48,715.335 1572.81,697.335 1569.5,679.5C 1581.33,677.671 1592.99,675.671 1604.5,673.5 Z"/></g>
<g><path style="opacity:1" fill="#eed982" d="M 1405.5,678.5 C 1421.44,680.494 1437.44,681.828 1453.5,682.5C 1449.33,712.701 1448.33,743.035 1450.5,773.5C 1449.99,801.17 1449.32,828.837 1448.5,856.5C 1448.69,876.299 1450.36,895.966 1453.5,915.5C 1437.17,914.465 1420.83,913.465 1404.5,912.5C 1408.04,892.002 1410.04,871.336 1410.5,850.5C 1409.73,824.152 1408.73,797.819 1407.5,771.5C 1410.81,740.402 1410.14,709.402 1405.5,678.5 Z"/></g>
<g><path style="opacity:1" fill="#eed982" d="M 1558.5,679.5 C 1561.17,679.5 1563.83,679.5 1566.5,679.5C 1561.18,714.821 1559.85,750.321 1562.5,786C 1562.54,810.021 1561.88,834.021 1560.5,858C 1561.26,876.211 1562.6,894.378 1564.5,912.5C 1547.49,913.293 1530.49,914.293 1513.5,915.5C 1517.13,894.855 1518.79,874.021 1518.5,853C 1517.76,828.169 1517.09,803.335 1516.5,778.5C 1517.26,754.835 1517.42,731.168 1517,707.5C 1515.65,699.212 1514.82,690.878 1514.5,682.5C 1529.4,682.736 1544.07,681.736 1558.5,679.5 Z"/></g>
<g><path style="opacity:1" fill="#eed982" d="M 1508.5,913.5 C 1492.2,915.485 1475.53,916.152 1458.5,915.5C 1461.49,894.286 1463.16,872.953 1463.5,851.5C 1461.49,811.011 1461.16,770.511 1462.5,730C 1462.35,714.509 1461.01,699.176 1458.5,684C 1475.16,683.5 1491.83,683.333 1508.5,683.5C 1506.07,698.885 1504.74,714.385 1504.5,730C 1506.04,773.35 1505.71,816.683 1503.5,860C 1504.62,877.884 1506.29,895.717 1508.5,913.5 Z"/></g>
<g><path style="opacity:1" fill="#fefefe" d="M 1233.5,845.5 C 1246.57,843.768 1255.07,849.101 1259,861.5C 1258.03,872.718 1261.86,881.884 1270.5,889C 1285.45,899.214 1301.78,906.548 1319.5,911C 1382.09,925.898 1445.59,932.731 1510,931.5C 1568.8,932.543 1626.63,925.709 1683.5,911C 1698.67,906.619 1712.67,899.953 1725.5,891C 1734.93,883.066 1739.09,872.899 1738,860.5C 1743.27,847.783 1752.43,843.616 1765.5,848C 1915.06,920.567 2019.9,1034.4 2080,1189.5C 2110.68,1276.56 2123.34,1366.22 2118,1458.5C 2116.39,1518.83 2114.72,1579.17 2113,1639.5C 2112.33,1764.17 2112.33,1888.83 2113,2013.5C 2115.02,2157.83 2116.02,2302.16 2116,2446.5C 2113.8,2506.25 2104.8,2564.92 2089,2622.5C 2075.63,2669.58 2053.63,2711.92 2023,2749.5C 2006.18,2769 1986.02,2783.83 1962.5,2794C 1926.47,2801.67 1890.13,2807.67 1853.5,2812C 1712.58,2827.36 1571.25,2833.03 1429.5,2829C 1308.78,2826.51 1188.78,2816.18 1069.5,2798C 1019.97,2790.2 971.634,2777.87 924.5,2761C 912.565,2756.03 901.232,2750.03 890.5,2743C 886.248,2739.42 882.748,2735.25 880,2730.5C 879.305,2454.16 877.971,2177.83 876,1901.5C 875.333,1724.83 875.333,1548.17 876,1371.5C 889.36,1187.26 967.193,1037.1 1109.5,921C 1148.1,891.526 1189.43,866.359 1233.5,845.5 Z"/></g>
<g><path style="opacity:1" fill="#685b4a" d="M 1508.5,913.5 C 1509.4,914.209 1509.74,915.209 1509.5,916.5C 1492.33,916.83 1475.33,916.497 1458.5,915.5C 1475.53,916.152 1492.2,915.485 1508.5,913.5 Z"/></g>
<g><path style="opacity:1" fill="#42363c" d="M 1786.5,919.5 C 1787.04,919.56 1787.38,919.893 1787.5,920.5C 1770.52,942.507 1749.18,959.007 1723.5,970C 1664.77,993.801 1603.77,1003.13 1540.5,998C 1595.84,991.866 1650.17,980.866 1703.5,965C 1728.73,957.383 1752.07,946.049 1773.5,931C 1778.28,927.619 1782.61,923.786 1786.5,919.5 Z"/></g>
<g><path style="opacity:1" fill="#42363c" d="M 935.5,1403.5 C 934.505,1392.01 934.172,1380.35 934.5,1368.5C 942.361,1243.48 989.861,1136.48 1077,1047.5C 1102.85,1021.64 1131.02,998.802 1161.5,979C 1163.4,977.699 1165.4,977.032 1167.5,977C 1027.68,1084.43 950.347,1226.59 935.5,1403.5 Z"/></g>
<g><path style="opacity:0.999" fill="#403439" d="M 1519.5,2441.5 C 1513.97,2441.18 1508.64,2441.51 1503.5,2442.5C 1496.83,2442.5 1490.17,2442.5 1483.5,2442.5C 1480.04,2441.52 1476.37,2441.19 1472.5,2441.5C 1469.71,2440.52 1466.71,2440.19 1463.5,2440.5C 1461.74,2439.54 1459.74,2439.21 1457.5,2439.5C 1455.74,2438.54 1453.74,2438.21 1451.5,2438.5C 1450.43,2437.57 1449.1,2437.23 1447.5,2437.5C 1446.43,2436.57 1445.1,2436.23 1443.5,2436.5C 1442.43,2435.57 1441.1,2435.23 1439.5,2435.5C 1438.43,2434.57 1437.1,2434.23 1435.5,2434.5C 1434.79,2433.6 1433.79,2433.26 1432.5,2433.5C 1431.43,2432.57 1430.1,2432.23 1428.5,2432.5C 1427.79,2431.6 1426.79,2431.26 1425.5,2431.5C 1424.79,2430.6 1423.79,2430.26 1422.5,2430.5C 1419.06,2428.8 1415.39,2427.46 1411.5,2426.5C 1378.58,2412.71 1348.91,2393.88 1322.5,2370C 1267.53,2317.62 1226.36,2255.78 1199,2184.5C 1164.9,2090.89 1148.4,1994.23 1149.5,1894.5C 1147.31,1796.32 1162.47,1700.99 1195,1608.5C 1216.77,1550.83 1246.77,1498.16 1285,1450.5C 1316.59,1412.64 1354.42,1382.8 1398.5,1361C 1477.23,1327.88 1553.23,1333.21 1626.5,1377C 1673.38,1407.55 1711.88,1446.38 1742,1493.5C 1789.96,1570.7 1820.96,1654.37 1835,1744.5C 1853.21,1860.23 1849.55,1975.23 1824,2089.5C 1808.59,2153.31 1784.59,2213.65 1752,2270.5C 1724.39,2317.45 1688.89,2357.62 1645.5,2391C 1607.86,2418.65 1565.86,2435.48 1519.5,2441.5 Z"/></g>
<g><path style="opacity:1" fill="#efda82" d="M 1482.5,1359.5 C 1538.06,1357.63 1588.39,1372.8 1633.5,1405C 1668.46,1430.96 1698.29,1461.79 1723,1497.5C 1768.1,1565.07 1799.43,1638.74 1817,1718.5C 1847.27,1860.4 1840.27,2000.4 1796,2138.5C 1776.94,2194.95 1750.27,2247.29 1716,2295.5C 1686.01,2337.17 1648.84,2370.67 1604.5,2396C 1518.6,2438.22 1436.94,2431.22 1359.5,2375C 1312.15,2338.08 1274.31,2293.24 1246,2240.5C 1181.95,2115.92 1153.62,1983.58 1161,1843.5C 1168.17,1736.01 1196.83,1634.68 1247,1539.5C 1269.38,1499.28 1297.22,1463.11 1330.5,1431C 1356.34,1407.57 1385.34,1388.9 1417.5,1375C 1438.59,1366.82 1460.26,1361.65 1482.5,1359.5 Z"/></g>
<g><path style="opacity:1" fill="#979094" d="M 934.5,1368.5 C 934.172,1380.35 934.505,1392.01 935.5,1403.5C 935.892,1406.72 935.392,1409.72 934,1412.5C 933.172,1397.66 933.339,1382.99 934.5,1368.5 Z"/></g>
<g><path style="opacity:1" fill="#41363b" d="M 1482.5,2759.5 C 1483.49,2759.33 1484.16,2759.66 1484.5,2760.5C 1375.01,2778.63 1265.68,2777.8 1156.5,2758C 1085.3,2744.71 1017.96,2720.71 954.5,2686C 950.334,2683.08 946.001,2680.42 941.5,2678C 1009.22,2709.22 1080.89,2731.55 1156.5,2745C 1264.52,2763.75 1373.18,2768.58 1482.5,2759.5 Z"/></g>
<g><path style="opacity:1" fill="#968f93" d="M 1482.5,2759.5 C 1485.98,2758.36 1489.64,2758.19 1493.5,2759C 1490.52,2759.7 1487.52,2760.2 1484.5,2760.5C 1484.16,2759.66 1483.49,2759.33 1482.5,2759.5 Z"/></g>
</svg>
