<?xml version="1.0" encoding="UTF-8"?>
<!DOCTYPE svg PUBLIC "-//W3C//DTD SVG 1.1//EN" "http://www.w3.org/Graphics/SVG/1.1/DTD/svg11.dtd">
<svg xmlns="http://www.w3.org/2000/svg" version="1.1" width="3000px" height="3000px" style="shape-rendering:geometricPrecision; text-rendering:geometricPrecision; image-rendering:optimizeQuality; fill-rule:evenodd; clip-rule:evenodd" xmlns:xlink="http://www.w3.org/1999/xlink">
<g><path style="opacity:0.999" fill="#b0dc4c" d="M 1854.5,585.5 C 1851.66,582.857 1848.33,582.024 1844.5,583C 1817.64,598.194 1798.14,620.027 1786,648.5C 1773.74,680.729 1766.41,714.062 1764,748.5C 1761.95,819.227 1769.61,888.894 1787,957.5C 1793.72,982.002 1801.06,1006.34 1809,1030.5C 1825.53,1075.76 1841.86,1121.09 1858,1166.5C 1870.92,1205.18 1878.92,1244.85 1882,1285.5C 1883.26,1346.29 1873.59,1405.29 1853,1462.5C 1808.41,1586.11 1742.24,1696.11 1654.5,1792.5C 1639.3,1792.41 1624.3,1794.24 1609.5,1798C 1605.5,1805.86 1607.5,1811.86 1615.5,1816C 1633.76,1819.93 1652.26,1821.76 1671,1821.5C 1727.22,1820.46 1782.39,1812.29 1836.5,1797C 1860.19,1789.49 1881.86,1778.32 1901.5,1763.5C 1898.53,1768.27 1896.53,1773.44 1895.5,1779C 1899.01,1795.52 1909.01,1805.85 1925.5,1810C 1955.83,1810.67 1986.17,1810.67 2016.5,1810C 2031.99,1809.65 2047.32,1807.98 2062.5,1805C 2071.47,1800.53 2077.81,1793.7 2081.5,1784.5C 2096.07,1816.69 2101.4,1850.36 2097.5,1885.5C 2091.21,1882.5 2084.54,1880.67 2077.5,1880C 2028.94,1879.27 1980.61,1882.27 1932.5,1889C 1911.91,1893.33 1903.75,1905.83 1908,1926.5C 1919.93,1966.29 1932.26,2005.95 1945,2045.5C 1949.94,2059.59 1958.44,2070.92 1970.5,2079.5C 1970.59,2080.5 1970.25,2081.33 1969.5,2082C 1946.25,2097.05 1921.75,2109.88 1896,2120.5C 1895.51,2119.21 1895.34,2117.87 1895.5,2116.5C 1896.48,2106.43 1894.32,2097.1 1889,2088.5C 1861.23,2062.72 1831.73,2039.22 1800.5,2018C 1783.07,2009.06 1764.74,2006.39 1745.5,2010C 1741.06,2012.11 1738.56,2015.61 1738,2020.5C 1739.55,2049.34 1736.55,2077.67 1729,2105.5C 1728.38,2118.79 1726.88,2131.96 1724.5,2145C 1725.49,2152.15 1727.49,2158.98 1730.5,2165.5C 1729.49,2166.76 1727.99,2167.43 1726,2167.5C 1691,2172.34 1655.84,2174.34 1620.5,2173.5C 1621.24,2169.36 1621.91,2165.19 1622.5,2161C 1617.37,2126.61 1607.2,2093.78 1592,2062.5C 1583.59,2045.34 1574.92,2028.34 1566,2011.5C 1563.28,2006.45 1559.11,2003.28 1553.5,2002C 1541.1,1998.11 1529.1,1999.11 1517.5,2005C 1477.37,2027.79 1444.2,2058.29 1418,2096.5C 1415.41,2100.67 1413.08,2105.01 1411,2109.5C 1410.19,2113.69 1410.69,2117.69 1412.5,2121.5C 1355.63,2092.13 1313.46,2048.46 1286,1990.5C 1282.67,1983.33 1279.83,1975.99 1277.5,1968.5C 1281.51,1968.5 1285.18,1967.33 1288.5,1965C 1302.65,1952.51 1317.65,1941.18 1333.5,1931C 1353.5,1919.33 1373.5,1907.67 1393.5,1896C 1408.88,1882.92 1419.21,1866.59 1424.5,1847C 1423.07,1841.24 1419.74,1836.9 1414.5,1834C 1382.78,1817.47 1350.78,1801.47 1318.5,1786C 1312.37,1782.93 1306.04,1780.43 1299.5,1778.5C 1311.03,1762.46 1323.53,1747.13 1337,1732.5C 1361.06,1707.94 1385.56,1683.94 1410.5,1660.5C 1415.74,1667.56 1422.4,1673.06 1430.5,1677C 1451.02,1685.2 1472.35,1689.53 1494.5,1690C 1510.5,1690.67 1526.5,1690.67 1542.5,1690C 1554.48,1686.25 1562.65,1678.41 1567,1666.5C 1568.49,1662.21 1569.82,1657.88 1571,1653.5C 1572.59,1628.86 1572.92,1604.2 1572,1579.5C 1570.32,1561.81 1565.98,1544.81 1559,1528.5C 1555.98,1523.96 1551.81,1521.3 1546.5,1520.5C 1545.7,1519.58 1545.53,1518.58 1546,1517.5C 1563.55,1493.07 1579.05,1467.4 1592.5,1440.5C 1600.51,1446.3 1609.51,1448.14 1619.5,1446C 1652.61,1437.08 1685.27,1426.74 1717.5,1415C 1746.11,1405.57 1762.45,1386.07 1766.5,1356.5C 1766.97,1350.1 1765.13,1344.43 1761,1339.5C 1754.92,1333.89 1748.42,1328.89 1741.5,1324.5C 1740.17,1321.65 1737.83,1319.98 1734.5,1319.5C 1712.33,1307.42 1689.33,1296.92 1665.5,1288C 1659.66,1285.75 1653.66,1284.08 1647.5,1283C 1641.18,1282.5 1634.84,1282.33 1628.5,1282.5C 1627.18,1275.17 1625.34,1267.84 1623,1260.5C 1621.57,1256.63 1619.4,1253.29 1616.5,1250.5C 1625.69,1197.43 1627.69,1144.09 1622.5,1090.5C 1629.75,1105.29 1641.09,1109.79 1656.5,1104C 1705.49,1081.83 1737.66,1045 1753,993.5C 1754.03,981.513 1748.87,973.347 1737.5,969C 1707.91,958.102 1677.91,948.436 1647.5,940C 1630.34,937.675 1614.34,940.841 1599.5,949.5C 1597.31,950.758 1594.98,951.758 1592.5,952.5C 1575.63,863.066 1571.63,773.066 1580.5,682.5C 1581.83,689.136 1584.16,695.469 1587.5,701.5C 1586.53,704.445 1586.37,707.445 1587,710.5C 1591.23,720.734 1597.73,729.234 1606.5,736C 1609.59,736.652 1612.59,736.318 1615.5,735C 1621.35,730.572 1627.02,725.906 1632.5,721C 1649.33,710.083 1666.33,699.416 1683.5,689C 1704.2,676.298 1720.04,659.131 1731,637.5C 1735.4,629.327 1737.06,620.66 1736,611.5C 1734.6,608.098 1732.43,605.264 1729.5,603C 1709.89,591.029 1689.56,580.362 1668.5,571C 1651.81,564.08 1634.48,561.747 1616.5,564C 1611.59,565.276 1607.59,567.776 1604.5,571.5C 1619.54,523.408 1643.37,480.408 1676,442.5C 1699.3,418.195 1722.97,394.195 1747,370.5C 1781.64,334.163 1809.64,293.163 1831,247.5C 1837.91,226.43 1846.58,206.096 1857,186.5C 1883.66,140.717 1922.83,111.217 1974.5,98C 2013.81,89.9458 2053.47,87.6124 2093.5,91C 2183.13,96.691 2272.46,105.358 2361.5,117C 2402.58,122.514 2443.25,130.18 2483.5,140C 2496.4,143.617 2508.73,148.617 2520.5,155C 2538.47,167.095 2543.63,183.262 2536,203.5C 2521.06,231.384 2507.73,260.051 2496,289.5C 2487.14,310.568 2474.81,329.235 2459,345.5C 2415.52,388.334 2368.02,425.834 2316.5,458C 2253.24,497.798 2186.91,532.131 2117.5,561C 2034,590.386 1948.67,597.219 1861.5,581.5C 1858.39,581.734 1856.06,583.068 1854.5,585.5 Z"/></g>
<g><path style="opacity:1" fill="#687a46" d="M 2130.5,147.5 C 2149.01,148.156 2167.51,148.156 2186,147.5C 2196.94,147.223 2206.44,150.723 2214.5,158C 2235.09,180.487 2243.26,206.987 2239,237.5C 2237.35,266.784 2228.35,293.451 2212,317.5C 2190.72,338.958 2166.56,343.124 2139.5,330C 2130.7,320.849 2123.87,310.349 2119,298.5C 2106.61,270.731 2103.61,242.065 2110,212.5C 2108.53,210.675 2106.7,210.175 2104.5,211C 2100.17,216 2095.83,221 2091.5,226C 2089.97,226.923 2088.3,227.423 2086.5,227.5C 2076.72,224.226 2069.55,217.893 2065,208.5C 2063.49,201.243 2064.82,194.577 2069,188.5C 2083.15,165.183 2103.65,151.517 2130.5,147.5 Z"/></g>
<g><path style="opacity:1" fill="#fbebb2" d="M 2173.5,194.5 C 2179.91,195.741 2184.41,199.408 2187,205.5C 2189.94,212.69 2191.1,220.19 2190.5,228C 2192.23,243.873 2185.9,255.207 2171.5,262C 2168.72,262.269 2166.55,261.102 2165,258.5C 2156.91,238.676 2156.41,218.676 2163.5,198.5C 2166.58,196.631 2169.91,195.298 2173.5,194.5 Z"/></g>
<g><path style="opacity:1" fill="#aed057" d="M 2173.5,194.5 C 2169.91,195.298 2166.58,196.631 2163.5,198.5C 2165.88,194.294 2169.22,192.961 2173.5,194.5 Z"/></g>
<g><path style="opacity:1" fill="#687a46" d="M 2405.5,220.5 C 2423.64,218.69 2440.98,221.524 2457.5,229C 2460.78,230.396 2462.45,232.896 2462.5,236.5C 2458.64,254.53 2447.64,265.363 2429.5,269C 2414.34,272.339 2399.01,273.339 2383.5,272C 2370.06,267.587 2363.23,258.42 2363,244.5C 2364.74,240.759 2367.24,237.592 2370.5,235C 2375.33,231.748 2380.33,228.748 2385.5,226C 2392.37,224.453 2399.03,222.619 2405.5,220.5 Z"/></g>
<g><path style="opacity:1" fill="#687a46" d="M 2036.5,362.5 C 2041.18,362.334 2045.85,362.501 2050.5,363C 2055.79,364.237 2058.45,367.57 2058.5,373C 2058.07,377.037 2056.9,380.87 2055,384.5C 2054,393.004 2057.17,399.504 2064.5,404C 2081,416.426 2098.67,427.093 2117.5,436C 2136.67,444.417 2156.67,447.417 2177.5,445C 2219.88,441.432 2258.54,427.765 2293.5,404C 2304.72,397.045 2316.72,395.045 2329.5,398C 2331.91,399.562 2333.24,401.729 2333.5,404.5C 2331.15,417.679 2324.82,428.512 2314.5,437C 2259.58,471.736 2199.58,486.403 2134.5,481C 2109.21,474.859 2086.88,463.192 2067.5,446C 2058.13,436.963 2048.46,428.296 2038.5,420C 2036.83,419.333 2035.17,419.333 2033.5,420C 2030.87,421.626 2028.54,423.626 2026.5,426C 2015.79,429.57 2007.95,426.07 2003,415.5C 2002.33,412.167 2002.33,408.833 2003,405.5C 2014.54,394.087 2023.87,381.087 2031,366.5C 2032.81,365.023 2034.65,363.69 2036.5,362.5 Z"/></g>
<g><path style="opacity:1" fill="#fcecb3" d="M 1765.5,472.5 C 1791.05,469.531 1814.72,474.698 1836.5,488C 1845.04,494.923 1847.88,503.756 1845,514.5C 1837.48,538.846 1820.98,550.179 1795.5,548.5C 1773.22,547.82 1751.22,544.987 1729.5,540C 1715.58,536.434 1709.08,527.601 1710,513.5C 1712.5,507 1717,502.5 1723.5,500C 1728.51,498.33 1733.51,496.663 1738.5,495C 1739.7,494.097 1740.53,492.931 1741,491.5C 1741.33,488.5 1741.67,485.5 1742,482.5C 1742.83,481.667 1743.67,480.833 1744.5,480C 1751.29,476.571 1758.29,474.071 1765.5,472.5 Z"/></g>
<g><path style="opacity:1" fill="#b2dd4f" d="M 1760.5,502.5 C 1775.23,503.746 1789.9,505.579 1804.5,508C 1807.93,510.367 1808.27,513.034 1805.5,516C 1802.62,517.127 1799.62,517.794 1796.5,518C 1777.79,518.922 1759.12,518.422 1740.5,516.5C 1745.85,509.791 1752.52,505.125 1760.5,502.5 Z"/></g>
<g><path style="opacity:1" fill="#f79b2b" d="M 1587.5,701.5 C 1589.27,699.229 1591.27,697.063 1593.5,695C 1600.67,690.917 1607.67,686.584 1614.5,682C 1629.99,669.758 1645.65,657.758 1661.5,646C 1664.89,643.815 1667.55,640.981 1669.5,637.5C 1668.96,636.252 1668.29,635.085 1667.5,634C 1653.46,629.544 1640.13,623.544 1627.5,616C 1618.47,609.073 1611.47,600.573 1606.5,590.5C 1604.67,585.327 1603.67,579.994 1603.5,574.5C 1603.26,573.209 1603.6,572.209 1604.5,571.5C 1607.59,567.776 1611.59,565.276 1616.5,564C 1634.48,561.747 1651.81,564.08 1668.5,571C 1689.56,580.362 1709.89,591.029 1729.5,603C 1732.43,605.264 1734.6,608.098 1736,611.5C 1737.06,620.66 1735.4,629.327 1731,637.5C 1720.04,659.131 1704.2,676.298 1683.5,689C 1666.33,699.416 1649.33,710.083 1632.5,721C 1627.02,725.906 1621.35,730.572 1615.5,735C 1612.59,736.318 1609.59,736.652 1606.5,736C 1597.73,729.234 1591.23,720.734 1587,710.5C 1586.37,707.445 1586.53,704.445 1587.5,701.5 Z"/></g>
<g><path style="opacity:0.931" fill="#b3dd4e" d="M 1603.5,574.5 C 1603.67,579.994 1604.67,585.327 1606.5,590.5C 1598.97,606.768 1592.64,623.434 1587.5,640.5C 1590.98,617.935 1596.31,595.935 1603.5,574.5 Z"/></g>
<g><path style="opacity:0.999" fill="#fcecb3" d="M 1854.5,585.5 C 1855.63,588.781 1855.63,592.115 1854.5,595.5C 1853.17,601.833 1853.17,608.167 1854.5,614.5C 1853.2,682.135 1857.04,749.468 1866,816.5C 1874.81,882.606 1896.15,944.273 1930,1001.5C 1962.87,1068.43 1987.2,1138.43 2003,1211.5C 2012.92,1251.7 2020.26,1292.37 2025,1333.5C 2026.89,1353.79 2027.73,1374.12 2027.5,1394.5C 2027.75,1396.17 2028.42,1397.67 2029.5,1399C 2032.48,1399.5 2035.48,1399.66 2038.5,1399.5C 2057.16,1394.66 2071.83,1400.16 2082.5,1416C 2086.01,1418.25 2089.67,1420.25 2093.5,1422C 2102.75,1424.65 2112.09,1426.98 2121.5,1429C 2127.27,1429.96 2131.77,1432.8 2135,1437.5C 2135.49,1438.79 2135.66,1440.13 2135.5,1441.5C 2135.5,1442.5 2135.5,1443.5 2135.5,1444.5C 2125.15,1448.35 2114.81,1452.51 2104.5,1457C 2076.32,1471.92 2047.99,1486.59 2019.5,1501C 2016.68,1503.13 2015.35,1505.97 2015.5,1509.5C 2016.04,1514.1 2017.37,1518.44 2019.5,1522.5C 2017.96,1522.3 2016.62,1521.63 2015.5,1520.5C 2009.65,1540.89 2003.48,1561.22 1997,1581.5C 1988.29,1604.91 1977.96,1627.58 1966,1649.5C 1965.2,1652.37 1965.37,1655.03 1966.5,1657.5C 1954.14,1668.03 1943.31,1680.03 1934,1693.5C 1910.87,1719.29 1884.04,1740.12 1853.5,1756C 1830.46,1765.34 1806.79,1772.68 1782.5,1778C 1741.56,1786.1 1700.23,1791.27 1658.5,1793.5C 1656.95,1793.49 1655.62,1793.16 1654.5,1792.5C 1742.24,1696.11 1808.41,1586.11 1853,1462.5C 1873.59,1405.29 1883.26,1346.29 1882,1285.5C 1878.92,1244.85 1870.92,1205.18 1858,1166.5C 1841.86,1121.09 1825.53,1075.76 1809,1030.5C 1801.06,1006.34 1793.72,982.002 1787,957.5C 1769.61,888.894 1761.95,819.227 1764,748.5C 1766.41,714.062 1773.74,680.729 1786,648.5C 1798.14,620.027 1817.64,598.194 1844.5,583C 1848.33,582.024 1851.66,582.857 1854.5,585.5 Z"/></g>
<g><path style="opacity:0.999" fill="#fcecb3" d="M 1606.5,590.5 C 1611.47,600.573 1618.47,609.073 1627.5,616C 1640.13,623.544 1653.46,629.544 1667.5,634C 1668.29,635.085 1668.96,636.252 1669.5,637.5C 1667.55,640.981 1664.89,643.815 1661.5,646C 1645.65,657.758 1629.99,669.758 1614.5,682C 1607.67,686.584 1600.67,690.917 1593.5,695C 1591.27,697.063 1589.27,699.229 1587.5,701.5C 1584.16,695.469 1581.83,689.136 1580.5,682.5C 1581.36,668.145 1583.69,654.145 1587.5,640.5C 1592.64,623.434 1598.97,606.768 1606.5,590.5 Z"/></g>
<g><path style="opacity:1" fill="#c5e267" d="M 1854.5,595.5 C 1855.69,601.822 1855.69,608.156 1854.5,614.5C 1853.17,608.167 1853.17,601.833 1854.5,595.5 Z"/></g>
<g><path style="opacity:1" fill="#fcecb3" d="M 1689.5,774.5 C 1701.57,772.963 1712.9,775.13 1723.5,781C 1730.04,785.568 1732.54,791.735 1731,799.5C 1727.97,822.069 1717.8,840.569 1700.5,855C 1696.46,857.573 1692.12,859.573 1687.5,861C 1671.67,862.209 1656,861.209 1640.5,858C 1629.51,854.011 1621.35,846.844 1616,836.5C 1615.15,823.381 1620.65,813.881 1632.5,808C 1636.76,806.637 1641.09,806.304 1645.5,807C 1649.25,808.674 1650.75,811.507 1650,815.5C 1648.37,818.128 1646.37,820.461 1644,822.5C 1641.21,827.26 1642.37,830.427 1647.5,832C 1660.02,834.952 1672.02,833.619 1683.5,828C 1690.72,822.052 1694.56,814.552 1695,805.5C 1688.61,803.254 1682.44,800.42 1676.5,797C 1671.91,792.811 1670.41,787.645 1672,781.5C 1676.84,776.454 1682.68,774.121 1689.5,774.5 Z"/></g>
<g><path style="opacity:1" fill="#f79b2b" d="M 1622.5,1090.5 C 1621.43,1088.3 1620.77,1085.97 1620.5,1083.5C 1619.65,1073.04 1623.32,1064.54 1631.5,1058C 1648.29,1048.28 1663.96,1037.12 1678.5,1024.5C 1684.86,1021.98 1686.52,1017.81 1683.5,1012C 1682.26,1011.21 1680.92,1010.71 1679.5,1010.5C 1661.26,1002.72 1642.92,994.885 1624.5,987C 1614.72,983.368 1606.22,977.868 1599,970.5C 1594.21,963.276 1594.38,956.276 1599.5,949.5C 1614.34,940.841 1630.34,937.675 1647.5,940C 1677.91,948.436 1707.91,958.102 1737.5,969C 1748.87,973.347 1754.03,981.513 1753,993.5C 1737.66,1045 1705.49,1081.83 1656.5,1104C 1641.09,1109.79 1629.75,1105.29 1622.5,1090.5 Z"/></g>
<g><path style="opacity:0.993" fill="#fcecb3" d="M 1599.5,949.5 C 1594.38,956.276 1594.21,963.276 1599,970.5C 1606.22,977.868 1614.72,983.368 1624.5,987C 1642.92,994.885 1661.26,1002.72 1679.5,1010.5C 1679.46,1015.19 1679.13,1019.86 1678.5,1024.5C 1663.96,1037.12 1648.29,1048.28 1631.5,1058C 1623.32,1064.54 1619.65,1073.04 1620.5,1083.5C 1615.73,1077.62 1612.23,1070.96 1610,1063.5C 1607.22,1044.14 1604.22,1024.8 1601,1005.5C 1597,994.167 1593,982.833 1589,971.5C 1587.51,964.558 1588.68,958.224 1592.5,952.5C 1594.98,951.758 1597.31,950.758 1599.5,949.5 Z"/></g>
<g><path style="opacity:1" fill="#b4db4c" d="M 1679.5,1010.5 C 1680.92,1010.71 1682.26,1011.21 1683.5,1012C 1686.52,1017.81 1684.86,1021.98 1678.5,1024.5C 1679.13,1019.86 1679.46,1015.19 1679.5,1010.5 Z"/></g>
<g><path style="opacity:1" fill="#fcecb3" d="M 1726.5,1173.5 C 1730.51,1173.33 1734.51,1173.5 1738.5,1174C 1744.36,1178.93 1751.02,1182.26 1758.5,1184C 1782.62,1180.87 1804.29,1186.54 1823.5,1201C 1832.08,1210.13 1833.92,1220.63 1829,1232.5C 1821.86,1249.28 1812.69,1264.78 1801.5,1279C 1795.66,1282.71 1789.32,1284.04 1782.5,1283C 1758.99,1270.74 1735.32,1258.74 1711.5,1247C 1688.11,1232.61 1683.28,1213.44 1697,1189.5C 1704.86,1180.32 1714.69,1174.99 1726.5,1173.5 Z"/></g>
<g><path style="opacity:1" fill="#b1dd4d" d="M 1740.5,1197.5 C 1745.51,1197.33 1750.51,1197.5 1755.5,1198C 1761.88,1203.38 1768.55,1208.38 1775.5,1213C 1781.26,1216.22 1787.26,1218.88 1793.5,1221C 1796.21,1222.86 1797.04,1225.36 1796,1228.5C 1792.78,1234.44 1788.95,1239.94 1784.5,1245C 1783.17,1245.67 1781.83,1245.67 1780.5,1245C 1777.01,1242.09 1773.34,1239.42 1769.5,1237C 1758.99,1232.61 1748.32,1228.61 1737.5,1225C 1731.24,1222.62 1725.74,1219.12 1721,1214.5C 1718.86,1208.57 1720.7,1204.07 1726.5,1201C 1731.18,1199.35 1735.85,1198.18 1740.5,1197.5 Z"/></g>
<g><path style="opacity:1" fill="#9db647" d="M 1616.5,1250.5 C 1619.4,1253.29 1621.57,1256.63 1623,1260.5C 1625.34,1267.84 1627.18,1275.17 1628.5,1282.5C 1629.32,1290.47 1629.66,1298.47 1629.5,1306.5C 1628.17,1309.17 1628.17,1311.83 1629.5,1314.5C 1625.1,1339.88 1619.1,1364.88 1611.5,1389.5C 1605.75,1406.74 1599.42,1423.74 1592.5,1440.5C 1579.05,1467.4 1563.55,1493.07 1546,1517.5C 1545.53,1518.58 1545.7,1519.58 1546.5,1520.5C 1545.18,1520.33 1544.01,1520.66 1543,1521.5C 1532.55,1536.08 1521.38,1550.08 1509.5,1563.5C 1487.17,1588.33 1463.33,1611.67 1438,1633.5C 1437.26,1634.75 1437.43,1635.75 1438.5,1636.5C 1437.05,1637.3 1435.38,1637.8 1433.5,1638C 1425.33,1645 1417.66,1652.5 1410.5,1660.5C 1385.56,1683.94 1361.06,1707.94 1337,1732.5C 1323.53,1747.13 1311.03,1762.46 1299.5,1778.5C 1293.4,1787.03 1288.07,1796.03 1283.5,1805.5C 1280.66,1809.85 1278.33,1814.52 1276.5,1819.5C 1260.51,1853.75 1256.51,1889.41 1264.5,1926.5C 1267.3,1941.05 1271.63,1955.05 1277.5,1968.5C 1279.83,1975.99 1282.67,1983.33 1286,1990.5C 1313.46,2048.46 1355.63,2092.13 1412.5,2121.5C 1419.86,2125.85 1427.53,2129.68 1435.5,2133C 1437.7,2133.41 1439.7,2132.91 1441.5,2131.5C 1442.25,2134.75 1444.25,2136.92 1447.5,2138C 1472.58,2147.69 1498.24,2155.35 1524.5,2161C 1543.69,2165.13 1563.02,2168.3 1582.5,2170.5C 1595.1,2172.21 1607.77,2173.21 1620.5,2173.5C 1655.84,2174.34 1691,2172.34 1726,2167.5C 1727.99,2167.43 1729.49,2166.76 1730.5,2165.5C 1742.18,2164.88 1753.85,2163.21 1765.5,2160.5C 1797.9,2153.82 1829.57,2144.82 1860.5,2133.5C 1871.91,2129.7 1883.24,2125.7 1894.5,2121.5C 1894.22,2119.59 1894.55,2117.92 1895.5,2116.5C 1895.34,2117.87 1895.51,2119.21 1896,2120.5C 1921.75,2109.88 1946.25,2097.05 1969.5,2082C 1970.25,2081.33 1970.59,2080.5 1970.5,2079.5C 1978.36,2076.07 1985.36,2071.41 1991.5,2065.5C 2036.4,2032.09 2068.56,1989.09 2088,1936.5C 2090.31,1929.61 2092.14,1922.61 2093.5,1915.5C 2095.91,1905.68 2097.25,1895.68 2097.5,1885.5C 2101.4,1850.36 2096.07,1816.69 2081.5,1784.5C 2077.54,1773.9 2072.54,1763.9 2066.5,1754.5C 2065.92,1751.67 2064.59,1749.34 2062.5,1747.5C 2048.18,1721.65 2030.18,1698.49 2008.5,1678C 2004.24,1673.9 1999.57,1670.4 1994.5,1667.5C 1989.92,1663.53 1984.92,1660.03 1979.5,1657C 2014.26,1659.13 2043.42,1672.96 2067,1698.5C 2090.51,1727.17 2109.18,1758.83 2123,1793.5C 2146.1,1877.72 2132.43,1955.39 2082,2026.5C 2041.03,2082.14 1988.86,2123.64 1925.5,2151C 1803.47,2205.62 1676.13,2223.96 1543.5,2206C 1476.97,2196.39 1415.64,2173.39 1359.5,2137C 1310.93,2103.04 1274.76,2058.87 1251,2004.5C 1239.65,1979.45 1231.32,1953.45 1226,1926.5C 1218.5,1874.69 1228.16,1826.36 1255,1781.5C 1273.65,1751.84 1294.99,1724.17 1319,1698.5C 1336.17,1681.33 1353.33,1664.17 1370.5,1647C 1404.64,1615.2 1438.47,1583.03 1472,1550.5C 1519.54,1502.12 1555.54,1446.12 1580,1382.5C 1591.76,1349.11 1599.26,1314.78 1602.5,1279.5C 1602.12,1269.26 1604.46,1259.76 1609.5,1251C 1611.81,1250.5 1614.14,1250.34 1616.5,1250.5 Z"/></g>
<g><path style="opacity:0.999" fill="#b0dc4c" d="M 1602.5,1279.5 C 1599.26,1314.78 1591.76,1349.11 1580,1382.5C 1555.54,1446.12 1519.54,1502.12 1472,1550.5C 1438.47,1583.03 1404.64,1615.2 1370.5,1647C 1353.33,1664.17 1336.17,1681.33 1319,1698.5C 1294.99,1724.17 1273.65,1751.84 1255,1781.5C 1228.16,1826.36 1218.5,1874.69 1226,1926.5C 1231.32,1953.45 1239.65,1979.45 1251,2004.5C 1274.76,2058.87 1310.93,2103.04 1359.5,2137C 1415.64,2173.39 1476.97,2196.39 1543.5,2206C 1676.13,2223.96 1803.47,2205.62 1925.5,2151C 1988.86,2123.64 2041.03,2082.14 2082,2026.5C 2132.43,1955.39 2146.1,1877.72 2123,1793.5C 2109.18,1758.83 2090.51,1727.17 2067,1698.5C 2043.42,1672.96 2014.26,1659.13 1979.5,1657C 1984.92,1660.03 1989.92,1663.53 1994.5,1667.5C 1989.67,1669.15 1984.67,1669.82 1979.5,1669.5C 1978.83,1669.5 1978.17,1669.5 1977.5,1669.5C 1973.96,1667.89 1970.96,1665.56 1968.5,1662.5C 1968.36,1660.74 1968.69,1659.07 1969.5,1657.5C 1968.77,1656.91 1967.77,1656.91 1966.5,1657.5C 1965.37,1655.03 1965.2,1652.37 1966,1649.5C 1977.96,1627.58 1988.29,1604.91 1997,1581.5C 2003.48,1561.22 2009.65,1540.89 2015.5,1520.5C 2016.62,1521.63 2017.96,1522.3 2019.5,1522.5C 2024.96,1529.79 2031.29,1536.29 2038.5,1542C 2043.79,1543.87 2049.12,1543.87 2054.5,1542C 2084.66,1526.43 2113.66,1509.09 2141.5,1490C 2146.97,1485.53 2152.13,1480.7 2157,1475.5C 2160.47,1469.57 2163.63,1463.57 2166.5,1457.5C 2210.17,1480.85 2250.5,1508.85 2287.5,1541.5C 2270.3,1534.85 2255.8,1538.52 2244,1552.5C 2230.52,1576.45 2219.52,1601.45 2211,1627.5C 2208.17,1665 2225,1688.16 2261.5,1697C 2289.19,1697.92 2316.86,1697.59 2344.5,1696C 2358.95,1692.22 2368.11,1683.05 2372,1668.5C 2375.19,1661.12 2377.02,1653.45 2377.5,1645.5C 2421.2,1708.58 2446.53,1778.58 2453.5,1855.5C 2452.04,1855.57 2450.71,1855.23 2449.5,1854.5C 2451.33,1844.83 2447.33,1839.66 2437.5,1839C 2381.45,1843.6 2338.62,1869.77 2309,1917.5C 2305.18,1922.97 2303.84,1928.97 2305,1935.5C 2320.5,1966.34 2343,1990.84 2372.5,2009C 2390.77,2020.72 2410.27,2029.89 2431,2036.5C 2433.63,2036.07 2436.13,2035.23 2438.5,2034C 2441.55,2030.7 2444.22,2027.2 2446.5,2023.5C 2445.47,2101.58 2422.14,2171.92 2376.5,2234.5C 2380.87,2226.03 2383.2,2217.03 2383.5,2207.5C 2385.76,2201.23 2387.92,2194.89 2390,2188.5C 2394.67,2171.67 2388.5,2161.5 2371.5,2158C 2350.34,2157.07 2329.17,2156.24 2308,2155.5C 2283.73,2155.41 2260.23,2159.57 2237.5,2168C 2214.7,2177.44 2207.54,2193.94 2216,2217.5C 2222.59,2239.28 2229.59,2260.95 2237,2282.5C 2243.73,2302.89 2254.9,2320.39 2270.5,2335C 2278.95,2338.75 2286.12,2336.91 2292,2329.5C 2294.87,2324.71 2297.03,2319.71 2298.5,2314.5C 2300.34,2312.83 2302.34,2311.33 2304.5,2310C 2307.41,2309.28 2310.07,2309.78 2312.5,2311.5C 2254.99,2370.15 2188.99,2416.99 2114.5,2452C 2103.92,2456.79 2093.25,2461.29 2082.5,2465.5C 2089.43,2460.31 2094.43,2453.65 2097.5,2445.5C 2111.61,2432.68 2118.44,2416.68 2118,2397.5C 2101.8,2366.63 2076.63,2347.13 2042.5,2339C 2027.99,2337.17 2013.66,2334.5 1999.5,2331C 1981.3,2327.58 1964.97,2331.41 1950.5,2342.5C 1916.36,2382.29 1894.36,2428.13 1884.5,2480C 1885.22,2489.27 1889.22,2496.77 1896.5,2502.5C 1840.24,2507.18 1783.91,2508.85 1727.5,2507.5C 1733.05,2495.44 1735.21,2482.77 1734,2469.5C 1727.31,2451.1 1719.64,2433.1 1711,2415.5C 1698.14,2395.98 1680.97,2381.48 1659.5,2372C 1634.76,2359.54 1609.42,2358.21 1583.5,2368C 1561.21,2377.8 1540.54,2390.14 1521.5,2405C 1501.12,2425.1 1487.95,2449.26 1482,2477.5C 1481.47,2481.86 1481.63,2486.19 1482.5,2490.5C 1431,2482.04 1380.67,2469.04 1331.5,2451.5C 1343.91,2430.64 1347.07,2408.31 1341,2384.5C 1338.16,2372.12 1335.16,2359.79 1332,2347.5C 1323.53,2321.77 1314.87,2296.1 1306,2270.5C 1301.47,2259.65 1293.31,2253.82 1281.5,2253C 1276.5,2252.33 1271.5,2252.33 1266.5,2253C 1223.92,2260.97 1183.59,2275.3 1145.5,2296C 1133.67,2302.41 1122,2309.08 1110.5,2316C 1107.58,2317.95 1104.91,2320.11 1102.5,2322.5C 1051.42,2280.1 1007.09,2231.76 969.5,2177.5C 972.854,2176.74 975.687,2175.07 978,2172.5C 982.333,2163.5 986.667,2154.5 991,2145.5C 1007.03,2094.05 1023.36,2042.72 1040,1991.5C 1041.97,1984.95 1042.64,1978.28 1042,1971.5C 1039.69,1966.09 1035.53,1963.25 1029.5,1963C 999.902,1961.84 970.902,1965.51 942.5,1974C 929.528,1977.66 916.528,1981.33 903.5,1985C 899.085,1986.04 895.085,1987.88 891.5,1990.5C 922.103,1905.02 968.103,1829.36 1029.5,1763.5C 1035.41,1778.58 1046.08,1788.75 1061.5,1794C 1098.11,1806.75 1135.77,1813.92 1174.5,1815.5C 1190.21,1816.08 1201.37,1809.41 1208,1795.5C 1220.73,1763.31 1233.06,1730.98 1245,1698.5C 1249.7,1679.77 1251.7,1660.77 1251,1641.5C 1249.95,1634.72 1246.45,1629.72 1240.5,1626.5C 1240.61,1625.88 1240.94,1625.38 1241.5,1625C 1247.79,1622.85 1254.12,1620.85 1260.5,1619C 1277.57,1615.2 1294.57,1611.2 1311.5,1607C 1317.67,1603.15 1319.83,1597.65 1318,1590.5C 1314.6,1586.8 1310.44,1585.63 1305.5,1587C 1176.03,1604.97 1068.53,1662.8 983,1760.5C 900.45,1859.62 846.784,1972.96 822,2100.5C 811.8,2142.3 808.467,2184.63 812,2227.5C 820.85,2282.05 836.183,2334.72 858,2385.5C 872.703,2418.6 888.369,2451.26 905,2483.5C 923.588,2518.34 941.922,2553.34 960,2588.5C 984.901,2646.81 993.234,2707.48 985,2770.5C 982.716,2784.92 980.049,2799.25 977,2813.5C 970.499,2829.34 964.999,2845.5 960.5,2862C 960.749,2867.58 963.582,2871.08 969,2872.5C 970.893,2871.8 972.726,2870.97 974.5,2870C 977.698,2865.97 981.032,2862.14 984.5,2858.5C 977.518,2876.64 967.852,2893.14 955.5,2908C 952.298,2909.48 948.964,2909.82 945.5,2909C 933.369,2901.58 926.702,2890.74 925.5,2876.5C 931.338,2839.89 929.838,2803.56 921,2767.5C 917.801,2753.7 914.134,2740.04 910,2726.5C 906.581,2721.08 902.415,2716.24 897.5,2712C 872.069,2692.96 847.069,2673.46 822.5,2653.5C 830.794,2654.68 837.461,2652.01 842.5,2645.5C 847.41,2654.93 854.076,2663.1 862.5,2670C 870.804,2676.58 878.304,2675.74 885,2667.5C 893.739,2655.62 898.739,2642.29 900,2627.5C 900.667,2593.83 900.667,2560.17 900,2526.5C 899.914,2515.52 896.414,2505.85 889.5,2497.5C 886.107,2494.42 882.107,2492.59 877.5,2492C 871.5,2491.33 865.5,2491.33 859.5,2492C 854.585,2493.42 849.585,2494.42 844.5,2495C 837.149,2498.78 829.482,2501.78 821.5,2504C 804.395,2508.29 787.395,2512.95 770.5,2518C 754.248,2523.6 740.081,2532.44 728,2544.5C 725.853,2549.33 726.186,2553.99 729,2558.5C 734.786,2566.64 742.619,2570.31 752.5,2569.5C 749.06,2574.1 748.56,2579.1 751,2584.5C 752.667,2587.83 754.333,2591.17 756,2594.5C 761.31,2602.3 767.143,2609.64 773.5,2616.5C 717.557,2573.08 664.724,2525.75 615,2474.5C 614.487,2473.47 613.987,2472.47 613.5,2471.5C 618.941,2474.43 623.941,2473.76 628.5,2469.5C 633.744,2483.58 643.078,2494.08 656.5,2501C 659.303,2501.75 661.97,2501.42 664.5,2500C 673.966,2489.91 680.466,2478.08 684,2464.5C 687.504,2445.97 690.17,2427.3 692,2408.5C 698.344,2390.47 703.677,2372.13 708,2353.5C 709.179,2347.2 709.513,2340.87 709,2334.5C 706.429,2326.61 700.929,2322.44 692.5,2322C 682.5,2321.33 672.5,2321.33 662.5,2322C 635.391,2325.24 608.391,2329.24 581.5,2334C 564.698,2336.11 549.031,2341.45 534.5,2350C 531.817,2351.84 530.15,2354.34 529.5,2357.5C 533.371,2368.04 540.371,2375.7 550.5,2380.5C 553.854,2389.54 558.02,2398.21 563,2406.5C 568.522,2415.56 574.022,2424.56 579.5,2433.5C 491.08,2334.09 451.247,2217.42 460,2083.5C 464.458,1984.99 490.292,1892.65 537.5,1806.5C 536.849,1819.53 542.182,1829.2 553.5,1835.5C 559.205,1843.37 566.539,1849.2 575.5,1853C 615.174,1853.67 654.841,1853.34 694.5,1852C 731.475,1850.69 749.641,1831.52 749,1794.5C 748.275,1792.05 747.275,1789.72 746,1787.5C 714.396,1765.57 684.229,1741.74 655.5,1716C 652.205,1713.57 648.538,1711.9 644.5,1711C 635.833,1710.33 627.167,1710.33 618.5,1711C 612.461,1712.21 608.461,1715.71 606.5,1721.5C 602.187,1721.55 598.187,1722.71 594.5,1725C 589.825,1727.82 585.825,1731.32 582.5,1735.5C 633.186,1665.15 693.853,1604.81 764.5,1554.5C 766.287,1559.41 768.62,1564.07 771.5,1568.5C 758.24,1570.35 754.406,1577.35 760,1589.5C 766.541,1595.37 774.041,1599.54 782.5,1602C 813.323,1610.79 844.323,1618.79 875.5,1626C 901.403,1631.38 920.57,1622.55 933,1599.5C 957.627,1557.37 965.794,1512.54 957.5,1465C 944.878,1458.67 931.878,1457.84 918.5,1462.5C 966.879,1437.48 1016.88,1416.15 1068.5,1398.5C 1060.93,1402.29 1053.26,1406.12 1045.5,1410C 1044.29,1411.04 1043.29,1412.21 1042.5,1413.5C 1031.88,1413.19 1022.38,1416.19 1014,1422.5C 1013.69,1427.57 1015.02,1432.24 1018,1436.5C 1024.3,1445.14 1032.14,1451.97 1041.5,1457C 1054.83,1464.11 1068.49,1470.44 1082.5,1476C 1107.02,1485.06 1131.68,1493.73 1156.5,1502C 1162.86,1503.47 1168.53,1502.13 1173.5,1498C 1197.48,1472.9 1214.98,1443.73 1226,1410.5C 1230.95,1395.69 1235.12,1380.69 1238.5,1365.5C 1238.31,1361.3 1236.65,1357.8 1233.5,1355C 1229.5,1353.18 1225.5,1351.68 1221.5,1350.5C 1343.11,1318.81 1466.44,1296.31 1591.5,1283C 1595.42,1282.53 1599.09,1281.36 1602.5,1279.5 Z"/></g>
<g><path style="opacity:1" fill="#f79b2b" d="M 1628.5,1282.5 C 1634.84,1282.33 1641.18,1282.5 1647.5,1283C 1653.66,1284.08 1659.66,1285.75 1665.5,1288C 1689.33,1296.92 1712.33,1307.42 1734.5,1319.5C 1736.53,1321.52 1738.86,1323.19 1741.5,1324.5C 1748.42,1328.89 1754.92,1333.89 1761,1339.5C 1765.13,1344.43 1766.97,1350.1 1766.5,1356.5C 1762.45,1386.07 1746.11,1405.57 1717.5,1415C 1685.27,1426.74 1652.61,1437.08 1619.5,1446C 1609.51,1448.14 1600.51,1446.3 1592.5,1440.5C 1599.42,1423.74 1605.75,1406.74 1611.5,1389.5C 1640.63,1380.72 1669.96,1372.55 1699.5,1365C 1704.2,1361.62 1704.53,1357.96 1700.5,1354C 1677.61,1341.92 1655.94,1328.08 1635.5,1312.5C 1633.5,1310.5 1631.5,1308.5 1629.5,1306.5C 1629.66,1298.47 1629.32,1290.47 1628.5,1282.5 Z"/></g>
<g><path style="opacity:1" fill="#f79b2b" d="M 1381.5,1321.5 C 1388.95,1322.15 1395.95,1324.32 1402.5,1328C 1415.78,1336.95 1428.78,1346.28 1441.5,1356C 1446.99,1360.12 1452.65,1360.45 1458.5,1357C 1469.7,1342.1 1480.53,1326.93 1491,1311.5C 1495.1,1306.89 1499.6,1302.89 1504.5,1299.5C 1519.5,1293.79 1534.84,1292.96 1550.5,1297C 1555.63,1301.22 1556.8,1306.38 1554,1312.5C 1546.59,1328.32 1538.92,1343.99 1531,1359.5C 1520.1,1380.06 1505.27,1397.23 1486.5,1411C 1477.06,1417.05 1467.06,1422.05 1456.5,1426C 1445.3,1428.43 1435.3,1426.1 1426.5,1419C 1400.37,1395.87 1374.53,1372.37 1349,1348.5C 1342.91,1340.43 1343.07,1332.6 1349.5,1325C 1352.25,1323.25 1355.25,1322.25 1358.5,1322C 1366.16,1321.5 1373.83,1321.33 1381.5,1321.5 Z"/></g>
<g><path style="opacity:1" fill="#fcecb2" d="M 1504.5,1299.5 C 1499.6,1302.89 1495.1,1306.89 1491,1311.5C 1480.53,1326.93 1469.7,1342.1 1458.5,1357C 1452.65,1360.45 1446.99,1360.12 1441.5,1356C 1428.78,1346.28 1415.78,1336.95 1402.5,1328C 1395.95,1324.32 1388.95,1322.15 1381.5,1321.5C 1387.58,1317.63 1394.25,1314.8 1401.5,1313C 1435.54,1306.1 1469.87,1301.6 1504.5,1299.5 Z"/></g>
<g><path style="opacity:1" fill="#b3d94c" d="M 1629.5,1306.5 C 1631.5,1308.5 1633.5,1310.5 1635.5,1312.5C 1633.58,1313.36 1631.58,1314.03 1629.5,1314.5C 1628.17,1311.83 1628.17,1309.17 1629.5,1306.5 Z"/></g>
<g><path style="opacity:1" fill="#fcecb2" d="M 1635.5,1312.5 C 1655.94,1328.08 1677.61,1341.92 1700.5,1354C 1704.53,1357.96 1704.2,1361.62 1699.5,1365C 1669.96,1372.55 1640.63,1380.72 1611.5,1389.5C 1619.1,1364.88 1625.1,1339.88 1629.5,1314.5C 1631.58,1314.03 1633.58,1313.36 1635.5,1312.5 Z"/></g>
<g><path style="opacity:1" fill="#f4e49c" d="M 1734.5,1319.5 C 1737.83,1319.98 1740.17,1321.65 1741.5,1324.5C 1738.86,1323.19 1736.53,1321.52 1734.5,1319.5 Z"/></g>
<g><path style="opacity:0.999" fill="#f79b2b" d="M 1221.5,1350.5 C 1225.5,1351.68 1229.5,1353.18 1233.5,1355C 1236.65,1357.8 1238.31,1361.3 1238.5,1365.5C 1235.12,1380.69 1230.95,1395.69 1226,1410.5C 1214.98,1443.73 1197.48,1472.9 1173.5,1498C 1168.53,1502.13 1162.86,1503.47 1156.5,1502C 1131.68,1493.73 1107.02,1485.06 1082.5,1476C 1068.49,1470.44 1054.83,1464.11 1041.5,1457C 1032.14,1451.97 1024.3,1445.14 1018,1436.5C 1015.02,1432.24 1013.69,1427.57 1014,1422.5C 1022.38,1416.19 1031.88,1413.19 1042.5,1413.5C 1048.5,1414.29 1054.5,1415.12 1060.5,1416C 1086.39,1424.41 1112.39,1432.41 1138.5,1440C 1141.5,1440.67 1144.5,1440.67 1147.5,1440C 1154.96,1431.59 1160.8,1422.09 1165,1411.5C 1170.79,1398.13 1175.79,1384.46 1180,1370.5C 1181.75,1368.27 1183.25,1365.93 1184.5,1363.5C 1186.75,1362.88 1188.42,1361.54 1189.5,1359.5C 1199.02,1352.78 1209.68,1349.78 1221.5,1350.5 Z"/></g>
<g><path style="opacity:0.807" fill="#b9dc53" d="M 1189.5,1359.5 C 1188.42,1361.54 1186.75,1362.88 1184.5,1363.5C 1181.5,1363.5 1178.5,1363.5 1175.5,1363.5C 1179.9,1361.59 1184.56,1360.26 1189.5,1359.5 Z"/></g>
<g><path style="opacity:0.996" fill="#fcecb3" d="M 1175.5,1363.5 C 1178.5,1363.5 1181.5,1363.5 1184.5,1363.5C 1183.25,1365.93 1181.75,1368.27 1180,1370.5C 1175.79,1384.46 1170.79,1398.13 1165,1411.5C 1160.8,1422.09 1154.96,1431.59 1147.5,1440C 1144.5,1440.67 1141.5,1440.67 1138.5,1440C 1112.39,1432.41 1086.39,1424.41 1060.5,1416C 1054.5,1415.12 1048.5,1414.29 1042.5,1413.5C 1043.29,1412.21 1044.29,1411.04 1045.5,1410C 1053.26,1406.12 1060.93,1402.29 1068.5,1398.5C 1098.32,1385.28 1128.99,1374.11 1160.5,1365C 1165.45,1363.95 1170.45,1363.45 1175.5,1363.5 Z"/></g>
<g><path style="opacity:0.944" fill="#b4dd51" d="M 2027.5,1394.5 C 2031.35,1395.93 2035.02,1397.59 2038.5,1399.5C 2035.48,1399.66 2032.48,1399.5 2029.5,1399C 2028.42,1397.67 2027.75,1396.17 2027.5,1394.5 Z"/></g>
<g><path style="opacity:0.906" fill="#c6e141" d="M 2135.5,1441.5 C 2136.83,1442.17 2138.17,1442.83 2139.5,1443.5C 2138.43,1444.43 2137.1,1444.77 2135.5,1444.5C 2135.5,1443.5 2135.5,1442.5 2135.5,1441.5 Z"/></g>
<g><path style="opacity:0.999" fill="#f79b2b" d="M 2166.5,1457.5 C 2163.63,1463.57 2160.47,1469.57 2157,1475.5C 2152.13,1480.7 2146.97,1485.53 2141.5,1490C 2113.66,1509.09 2084.66,1526.43 2054.5,1542C 2049.12,1543.87 2043.79,1543.87 2038.5,1542C 2031.29,1536.29 2024.96,1529.79 2019.5,1522.5C 2017.37,1518.44 2016.04,1514.1 2015.5,1509.5C 2015.35,1505.97 2016.68,1503.13 2019.5,1501C 2047.99,1486.59 2076.32,1471.92 2104.5,1457C 2114.81,1452.51 2125.15,1448.35 2135.5,1444.5C 2137.1,1444.77 2138.43,1444.43 2139.5,1443.5C 2147.39,1442.13 2155.06,1442.96 2162.5,1446C 2165.97,1449.04 2167.3,1452.87 2166.5,1457.5 Z"/></g>
<g><path style="opacity:1" fill="#f79b2b" d="M 771.5,1568.5 C 794.825,1567.49 818.158,1567.32 841.5,1568C 851.24,1569.05 860.907,1570.55 870.5,1572.5C 880.007,1571.5 886.507,1566.5 890,1557.5C 898.824,1531.22 902.657,1504.22 901.5,1476.5C 901.878,1474.08 902.545,1471.75 903.5,1469.5C 907.517,1465.33 912.517,1462.99 918.5,1462.5C 931.878,1457.84 944.878,1458.67 957.5,1465C 965.794,1512.54 957.627,1557.37 933,1599.5C 920.57,1622.55 901.403,1631.38 875.5,1626C 844.323,1618.79 813.323,1610.79 782.5,1602C 774.041,1599.54 766.541,1595.37 760,1589.5C 754.406,1577.35 758.24,1570.35 771.5,1568.5 Z"/></g>
<g><path style="opacity:1" fill="#fcecb3" d="M 1309.5,1460.5 C 1323.18,1458.41 1331.35,1464.08 1334,1477.5C 1334.54,1491.89 1333.87,1506.22 1332,1520.5C 1328.03,1546.47 1313.19,1561.97 1287.5,1567C 1276.13,1567.76 1264.8,1567.43 1253.5,1566C 1237.68,1560.84 1230.85,1550.01 1233,1533.5C 1233.25,1530.25 1234.25,1527.25 1236,1524.5C 1252.09,1502.41 1270.92,1482.91 1292.5,1466C 1298.14,1463.68 1303.8,1461.85 1309.5,1460.5 Z"/></g>
<g><path style="opacity:0.893" fill="#b0dd4b" d="M 903.5,1469.5 C 902.545,1471.75 901.878,1474.08 901.5,1476.5C 897.119,1476.37 892.785,1476.71 888.5,1477.5C 893.307,1474.59 898.307,1471.93 903.5,1469.5 Z"/></g>
<g><path style="opacity:0.996" fill="#fcecb3" d="M 901.5,1476.5 C 902.657,1504.22 898.824,1531.22 890,1557.5C 886.507,1566.5 880.007,1571.5 870.5,1572.5C 860.907,1570.55 851.24,1569.05 841.5,1568C 818.158,1567.32 794.825,1567.49 771.5,1568.5C 768.62,1564.07 766.287,1559.41 764.5,1554.5C 764.156,1550.03 765.323,1546.03 768,1542.5C 771.251,1538.58 775.084,1535.41 779.5,1533C 810.135,1518.02 840.135,1502.02 869.5,1485C 875.416,1481.37 881.75,1478.87 888.5,1477.5C 892.785,1476.71 897.119,1476.37 901.5,1476.5 Z"/></g>
<g><path style="opacity:1" fill="#b1dd4d" d="M 1298.5,1486.5 C 1300.83,1486.25 1302.83,1486.91 1304.5,1488.5C 1306.91,1503.21 1304.74,1517.21 1298,1530.5C 1288.34,1540.79 1276.84,1543.62 1263.5,1539C 1261.01,1536.37 1260.85,1533.54 1263,1530.5C 1275.05,1515.96 1286.88,1501.29 1298.5,1486.5 Z"/></g>
<g><path style="opacity:1" fill="#fcecb3" d="M 1739.5,1494.5 C 1756.82,1492.39 1767.32,1499.72 1771,1516.5C 1772.44,1548.47 1757.94,1569.3 1727.5,1579C 1702.88,1581.95 1685.71,1572.11 1676,1549.5C 1672.55,1535.89 1676.38,1524.73 1687.5,1516C 1703.18,1504.65 1720.51,1497.49 1739.5,1494.5 Z"/></g>
<g><path style="opacity:1" fill="#f79b2b" d="M 1546.5,1520.5 C 1551.81,1521.3 1555.98,1523.96 1559,1528.5C 1565.98,1544.81 1570.32,1561.81 1572,1579.5C 1572.92,1604.2 1572.59,1628.86 1571,1653.5C 1569.82,1657.88 1568.49,1662.21 1567,1666.5C 1562.65,1678.41 1554.48,1686.25 1542.5,1690C 1526.5,1690.67 1510.5,1690.67 1494.5,1690C 1472.35,1689.53 1451.02,1685.2 1430.5,1677C 1422.4,1673.06 1415.74,1667.56 1410.5,1660.5C 1417.66,1652.5 1425.33,1645 1433.5,1638C 1435.38,1637.8 1437.05,1637.3 1438.5,1636.5C 1453.62,1636.94 1468.62,1638.44 1483.5,1641C 1496.51,1641.6 1509.51,1641.93 1522.5,1642C 1524.44,1639.85 1524.94,1637.35 1524,1634.5C 1518.47,1610.99 1513.64,1587.32 1509.5,1563.5C 1521.38,1550.08 1532.55,1536.08 1543,1521.5C 1544.01,1520.66 1545.18,1520.33 1546.5,1520.5 Z"/></g>
<g><path style="opacity:1" fill="#b1dd4d" d="M 1723.5,1521.5 C 1731.61,1519.26 1736.61,1522.09 1738.5,1530C 1735.16,1540.67 1727.99,1547.17 1717,1549.5C 1711.67,1549.57 1707.33,1547.57 1704,1543.5C 1703.33,1541.17 1703.33,1538.83 1704,1536.5C 1709.43,1529.89 1715.93,1524.89 1723.5,1521.5 Z"/></g>
<g><path style="opacity:1" fill="#f79b2b" d="M 2287.5,1541.5 C 2290.49,1545.79 2291.16,1550.46 2289.5,1555.5C 2284.06,1577.32 2277.89,1598.99 2271,1620.5C 2268.37,1631.2 2272.54,1636.7 2283.5,1637C 2299.67,1638.36 2315.67,1637.36 2331.5,1634C 2342.17,1633.33 2352.83,1633.33 2363.5,1634C 2368.42,1635.13 2372.75,1637.29 2376.5,1640.5C 2377.04,1642.12 2377.37,1643.78 2377.5,1645.5C 2377.02,1653.45 2375.19,1661.12 2372,1668.5C 2368.11,1683.05 2358.95,1692.22 2344.5,1696C 2316.86,1697.59 2289.19,1697.92 2261.5,1697C 2225,1688.16 2208.17,1665 2211,1627.5C 2219.52,1601.45 2230.52,1576.45 2244,1552.5C 2255.8,1538.52 2270.3,1534.85 2287.5,1541.5 Z"/></g>
<g><path style="opacity:0.906" fill="#b5dc50" d="M 2287.5,1541.5 C 2294.8,1547.13 2301.46,1553.46 2307.5,1560.5C 2305,1558.86 2302.33,1557.36 2299.5,1556C 2296.18,1555.5 2292.85,1555.33 2289.5,1555.5C 2291.16,1550.46 2290.49,1545.79 2287.5,1541.5 Z"/></g>
<g><path style="opacity:0.995" fill="#fcecb3" d="M 2289.5,1555.5 C 2292.85,1555.33 2296.18,1555.5 2299.5,1556C 2302.33,1557.36 2305,1558.86 2307.5,1560.5C 2331.8,1579.64 2353.97,1600.97 2374,1624.5C 2375.8,1629.68 2376.64,1635.02 2376.5,1640.5C 2372.75,1637.29 2368.42,1635.13 2363.5,1634C 2352.83,1633.33 2342.17,1633.33 2331.5,1634C 2315.67,1637.36 2299.67,1638.36 2283.5,1637C 2272.54,1636.7 2268.37,1631.2 2271,1620.5C 2277.89,1598.99 2284.06,1577.32 2289.5,1555.5 Z"/></g>
<g><path style="opacity:1" fill="#fcecb2" d="M 1509.5,1563.5 C 1513.64,1587.32 1518.47,1610.99 1524,1634.5C 1524.94,1637.35 1524.44,1639.85 1522.5,1642C 1509.51,1641.93 1496.51,1641.6 1483.5,1641C 1468.62,1638.44 1453.62,1636.94 1438.5,1636.5C 1437.43,1635.75 1437.26,1634.75 1438,1633.5C 1463.33,1611.67 1487.17,1588.33 1509.5,1563.5 Z"/></g>
<g><path style="opacity:1" fill="#fcecb3" d="M 2098.5,1577.5 C 2103.55,1577.45 2108.55,1577.95 2113.5,1579C 2117.32,1580.91 2121.32,1582.24 2125.5,1583C 2133.88,1582.99 2142.22,1582.16 2150.5,1580.5C 2157.86,1580.52 2164.86,1582.02 2171.5,1585C 2177.05,1589.62 2178.89,1595.45 2177,1602.5C 2171.8,1630.37 2155.3,1646.87 2127.5,1652C 2116.25,1654.14 2104.91,1654.8 2093.5,1654C 2072.85,1647.69 2064.02,1633.85 2067,1612.5C 2073.24,1596.77 2083.74,1585.1 2098.5,1577.5 Z"/></g>
<g><path style="opacity:0.997" fill="#9db647" d="M 1240.5,1626.5 C 1223.81,1630.73 1207.81,1636.73 1192.5,1644.5C 1190.18,1644.99 1188.18,1645.99 1186.5,1647.5C 1134.79,1671.04 1088.96,1703.04 1049,1743.5C 1048.31,1744.44 1048.47,1745.1 1049.5,1745.5C 1041.99,1750.33 1035.33,1756.33 1029.5,1763.5C 968.103,1829.36 922.103,1905.02 891.5,1990.5C 890.051,1992.92 889.385,1995.59 889.5,1998.5C 890.222,2003.33 891.556,2008 893.5,2012.5C 904.043,2039.92 914.877,2067.26 926,2094.5C 929.352,2102.54 933.185,2110.2 937.5,2117.5C 940.816,2127.14 944.983,2136.47 950,2145.5C 956.274,2156.4 962.774,2167.06 969.5,2177.5C 1007.09,2231.76 1051.42,2280.1 1102.5,2322.5C 1117.31,2335.32 1132.98,2346.98 1149.5,2357.5C 1150.99,2359.28 1152.99,2359.95 1155.5,2359.5C 1155.08,2360.22 1154.42,2360.72 1153.5,2361C 1193.57,2388.87 1236.23,2412.37 1281.5,2431.5C 1282.58,2431.31 1283.58,2430.98 1284.5,2430.5C 1285.48,2432.29 1286.82,2433.79 1288.5,2435C 1302.63,2441.07 1316.97,2446.57 1331.5,2451.5C 1380.67,2469.04 1431,2482.04 1482.5,2490.5C 1501.01,2494.98 1519.68,2497.65 1538.5,2498.5C 1538.61,2499.12 1538.94,2499.62 1539.5,2500C 1580.69,2504.9 1622.02,2507.4 1663.5,2507.5C 1684.83,2508.83 1706.17,2508.83 1727.5,2507.5C 1783.91,2508.85 1840.24,2507.18 1896.5,2502.5C 1915.46,2500.95 1934.46,2500.29 1953.5,2500.5C 1945.67,2501.9 1938,2504.23 1930.5,2507.5C 1924.87,2508.57 1919.54,2510.23 1914.5,2512.5C 1906.24,2513.54 1898.24,2515.2 1890.5,2517.5C 1840.35,2527.57 1789.69,2533.07 1738.5,2534C 1615.07,2540.9 1493.74,2528.23 1374.5,2496C 1227.48,2455.62 1103.32,2379.12 1002,2266.5C 974.227,2234.06 949.561,2199.39 928,2162.5C 920.558,2148.17 913.892,2133.5 908,2118.5C 899.069,2092.71 890.736,2066.71 883,2040.5C 882.163,2038.16 880.829,2036.16 879,2034.5C 873.615,2046.37 869.615,2058.7 867,2071.5C 858.305,2105 852.639,2139 850,2173.5C 847.705,2211.51 851.705,2248.84 862,2285.5C 875.042,2329.92 891.709,2372.92 912,2414.5C 937.907,2464.65 963.574,2514.98 989,2565.5C 1010.2,2607.63 1021.37,2652.3 1022.5,2699.5C 1022.5,2712.17 1022.5,2724.83 1022.5,2737.5C 1020.47,2781.31 1007.81,2821.64 984.5,2858.5C 981.032,2862.14 977.698,2865.97 974.5,2870C 972.726,2870.97 970.893,2871.8 969,2872.5C 963.582,2871.08 960.749,2867.58 960.5,2862C 964.999,2845.5 970.499,2829.34 977,2813.5C 980.049,2799.25 982.716,2784.92 985,2770.5C 993.234,2707.48 984.901,2646.81 960,2588.5C 941.922,2553.34 923.588,2518.34 905,2483.5C 888.369,2451.26 872.703,2418.6 858,2385.5C 836.183,2334.72 820.85,2282.05 812,2227.5C 808.467,2184.63 811.8,2142.3 822,2100.5C 846.784,1972.96 900.45,1859.62 983,1760.5C 1068.53,1662.8 1176.03,1604.97 1305.5,1587C 1310.44,1585.63 1314.6,1586.8 1318,1590.5C 1319.83,1597.65 1317.67,1603.15 1311.5,1607C 1294.57,1611.2 1277.57,1615.2 1260.5,1619C 1254.12,1620.85 1247.79,1622.85 1241.5,1625C 1240.94,1625.38 1240.61,1625.88 1240.5,1626.5 Z"/></g>
<g><path style="opacity:1" fill="#b1dd4d" d="M 2116.5,1590.5 C 2121.55,1590.13 2126.22,1591.29 2130.5,1594C 2133.55,1597.93 2136.71,1601.76 2140,1605.5C 2141.3,1607.36 2141.63,1609.36 2141,1611.5C 2127.88,1623.24 2112.71,1627.07 2095.5,1623C 2093.22,1612.52 2096.22,1603.52 2104.5,1596C 2108.48,1593.84 2112.48,1592 2116.5,1590.5 Z"/></g>
<g><path style="opacity:1" fill="#f79b2b" d="M 1240.5,1626.5 C 1246.45,1629.72 1249.95,1634.72 1251,1641.5C 1251.7,1660.77 1249.7,1679.77 1245,1698.5C 1233.06,1730.98 1220.73,1763.31 1208,1795.5C 1201.37,1809.41 1190.21,1816.08 1174.5,1815.5C 1135.77,1813.92 1098.11,1806.75 1061.5,1794C 1046.08,1788.75 1035.41,1778.58 1029.5,1763.5C 1035.33,1756.33 1041.99,1750.33 1049.5,1745.5C 1063.5,1745.33 1077.5,1745.5 1091.5,1746C 1106.85,1748.67 1122.18,1751.34 1137.5,1754C 1143.5,1754.67 1149.5,1754.67 1155.5,1754C 1159.02,1753.5 1161.52,1751.66 1163,1748.5C 1171,1727.83 1179,1707.17 1187,1686.5C 1190.24,1674.03 1192.08,1661.37 1192.5,1648.5C 1192.5,1647.17 1192.5,1645.83 1192.5,1644.5C 1207.81,1636.73 1223.81,1630.73 1240.5,1626.5 Z"/></g>
<g><path style="opacity:1" fill="#b4dc52" d="M 1192.5,1644.5 C 1192.5,1645.83 1192.5,1647.17 1192.5,1648.5C 1190.38,1648.67 1188.38,1648.34 1186.5,1647.5C 1188.18,1645.99 1190.18,1644.99 1192.5,1644.5 Z"/></g>
<g><path style="opacity:1" fill="#fcecb3" d="M 1186.5,1647.5 C 1188.38,1648.34 1190.38,1648.67 1192.5,1648.5C 1192.08,1661.37 1190.24,1674.03 1187,1686.5C 1179,1707.17 1171,1727.83 1163,1748.5C 1161.52,1751.66 1159.02,1753.5 1155.5,1754C 1149.5,1754.67 1143.5,1754.67 1137.5,1754C 1122.18,1751.34 1106.85,1748.67 1091.5,1746C 1077.5,1745.5 1063.5,1745.33 1049.5,1745.5C 1048.47,1745.1 1048.31,1744.44 1049,1743.5C 1088.96,1703.04 1134.79,1671.04 1186.5,1647.5 Z"/></g>
<g><path style="opacity:1" fill="#fcecb3" d="M 868.5,1651.5 C 889.807,1648.96 904.641,1657.62 913,1677.5C 920.153,1697.9 918.486,1717.56 908,1736.5C 895.416,1753.37 878.583,1760.54 857.5,1758C 833.517,1753.35 818.684,1739.18 813,1715.5C 809.925,1695.48 816.425,1679.32 832.5,1667C 843.627,1659.58 855.627,1654.41 868.5,1651.5 Z"/></g>
<g><path style="opacity:1" fill="#9db647" d="M 1968.5,1662.5 C 1967.39,1664.6 1966.72,1666.93 1966.5,1669.5C 1955.87,1708.46 1934.2,1739.8 1901.5,1763.5C 1881.86,1778.32 1860.19,1789.49 1836.5,1797C 1782.39,1812.29 1727.22,1820.46 1671,1821.5C 1652.26,1821.76 1633.76,1819.93 1615.5,1816C 1607.5,1811.86 1605.5,1805.86 1609.5,1798C 1624.3,1794.24 1639.3,1792.41 1654.5,1792.5C 1655.62,1793.16 1656.95,1793.49 1658.5,1793.5C 1700.23,1791.27 1741.56,1786.1 1782.5,1778C 1806.79,1772.68 1830.46,1765.34 1853.5,1756C 1884.04,1740.12 1910.87,1719.29 1934,1693.5C 1943.31,1680.03 1954.14,1668.03 1966.5,1657.5C 1967.77,1656.91 1968.77,1656.91 1969.5,1657.5C 1968.69,1659.07 1968.36,1660.74 1968.5,1662.5 Z"/></g>
<g><path style="opacity:1" fill="#f6e4a2" d="M 1968.5,1662.5 C 1970.96,1665.56 1973.96,1667.89 1977.5,1669.5C 1973.83,1669.5 1970.17,1669.5 1966.5,1669.5C 1966.72,1666.93 1967.39,1664.6 1968.5,1662.5 Z"/></g>
<g><path style="opacity:1" fill="#fcecb3" d="M 1994.5,1667.5 C 1999.57,1670.4 2004.24,1673.9 2008.5,1678C 2030.18,1698.49 2048.18,1721.65 2062.5,1747.5C 2061.69,1749.94 2060.69,1752.28 2059.5,1754.5C 2050.49,1754.33 2041.49,1754.5 2032.5,1755C 2007.89,1757.66 1983.22,1759 1958.5,1759C 1952.82,1757.28 1951.99,1754.11 1956,1749.5C 1969.54,1727.75 1981.54,1705.09 1992,1681.5C 1993.18,1677.74 1992.01,1674.91 1988.5,1673C 1985.43,1671.7 1982.43,1670.54 1979.5,1669.5C 1984.67,1669.82 1989.67,1669.15 1994.5,1667.5 Z"/></g>
<g><path style="opacity:1" fill="#f79b2b" d="M 1966.5,1669.5 C 1970.17,1669.5 1973.83,1669.5 1977.5,1669.5C 1978.17,1669.5 1978.83,1669.5 1979.5,1669.5C 1982.43,1670.54 1985.43,1671.7 1988.5,1673C 1992.01,1674.91 1993.18,1677.74 1992,1681.5C 1981.54,1705.09 1969.54,1727.75 1956,1749.5C 1951.99,1754.11 1952.82,1757.28 1958.5,1759C 1983.22,1759 2007.89,1757.66 2032.5,1755C 2041.49,1754.5 2050.49,1754.33 2059.5,1754.5C 2061.83,1754.5 2064.17,1754.5 2066.5,1754.5C 2072.54,1763.9 2077.54,1773.9 2081.5,1784.5C 2077.81,1793.7 2071.47,1800.53 2062.5,1805C 2047.32,1807.98 2031.99,1809.65 2016.5,1810C 1986.17,1810.67 1955.83,1810.67 1925.5,1810C 1909.01,1805.85 1899.01,1795.52 1895.5,1779C 1896.53,1773.44 1898.53,1768.27 1901.5,1763.5C 1934.2,1739.8 1955.87,1708.46 1966.5,1669.5 Z"/></g>
<g><path style="opacity:1" fill="#b0dd4d" d="M 859.5,1676.5 C 872.931,1675.44 881.098,1681.44 884,1694.5C 888.15,1722.03 876.983,1732.2 850.5,1725C 842.515,1719.19 839.349,1711.35 841,1701.5C 844.334,1691.01 850.501,1682.68 859.5,1676.5 Z"/></g>
<g><path style="opacity:1" fill="#f79b2b" d="M 553.5,1835.5 C 548.007,1829.18 544.673,1821.84 543.5,1813.5C 543.269,1807.22 546.269,1803.39 552.5,1802C 567.253,1797.96 582.253,1795.29 597.5,1794C 617.5,1793.67 637.5,1793.33 657.5,1793C 644.628,1779.13 632.128,1764.96 620,1750.5C 615.667,1743.5 611.333,1736.5 607,1729.5C 606.503,1726.85 606.336,1724.19 606.5,1721.5C 608.461,1715.71 612.461,1712.21 618.5,1711C 627.167,1710.33 635.833,1710.33 644.5,1711C 648.538,1711.9 652.205,1713.57 655.5,1716C 684.229,1741.74 714.396,1765.57 746,1787.5C 747.275,1789.72 748.275,1792.05 749,1794.5C 749.641,1831.52 731.475,1850.69 694.5,1852C 654.841,1853.34 615.174,1853.67 575.5,1853C 566.539,1849.2 559.205,1843.37 553.5,1835.5 Z"/></g>
<g><path style="opacity:0.998" fill="#fcecb2" d="M 606.5,1721.5 C 606.336,1724.19 606.503,1726.85 607,1729.5C 611.333,1736.5 615.667,1743.5 620,1750.5C 632.128,1764.96 644.628,1779.13 657.5,1793C 637.5,1793.33 617.5,1793.67 597.5,1794C 582.253,1795.29 567.253,1797.96 552.5,1802C 546.269,1803.39 543.269,1807.22 543.5,1813.5C 544.673,1821.84 548.007,1829.18 553.5,1835.5C 542.182,1829.2 536.849,1819.53 537.5,1806.5C 538.774,1803.24 540.44,1800.24 542.5,1797.5C 543.906,1797.03 544.573,1796.03 544.5,1794.5C 554.053,1775.73 564.887,1757.73 577,1740.5C 578.704,1738.63 580.537,1736.96 582.5,1735.5C 585.825,1731.32 589.825,1727.82 594.5,1725C 598.187,1722.71 602.187,1721.55 606.5,1721.5 Z"/></g>
<g><path style="opacity:1" fill="#b2dc4f" d="M 2062.5,1747.5 C 2064.59,1749.34 2065.92,1751.67 2066.5,1754.5C 2064.17,1754.5 2061.83,1754.5 2059.5,1754.5C 2060.69,1752.28 2061.69,1749.94 2062.5,1747.5 Z"/></g>
<g><path style="opacity:1" fill="#f79b2b" d="M 1299.5,1778.5 C 1306.04,1780.43 1312.37,1782.93 1318.5,1786C 1350.78,1801.47 1382.78,1817.47 1414.5,1834C 1419.74,1836.9 1423.07,1841.24 1424.5,1847C 1419.21,1866.59 1408.88,1882.92 1393.5,1896C 1373.5,1907.67 1353.5,1919.33 1333.5,1931C 1317.65,1941.18 1302.65,1952.51 1288.5,1965C 1285.18,1967.33 1281.51,1968.5 1277.5,1968.5C 1271.63,1955.05 1267.3,1941.05 1264.5,1926.5C 1289.47,1908.01 1315.47,1891.01 1342.5,1875.5C 1346.54,1874.06 1350.04,1871.72 1353,1868.5C 1353.54,1865.92 1352.71,1863.92 1350.5,1862.5C 1334.07,1851.92 1317.74,1841.09 1301.5,1830C 1295.91,1824.25 1290.91,1818.08 1286.5,1811.5C 1285.47,1809.48 1284.47,1807.48 1283.5,1805.5C 1288.07,1796.03 1293.4,1787.03 1299.5,1778.5 Z"/></g>
<g><path style="opacity:0.573" fill="#d0e96b" d="M 544.5,1794.5 C 544.573,1796.03 543.906,1797.03 542.5,1797.5C 542.427,1795.97 543.094,1794.97 544.5,1794.5 Z"/></g>
<g><path style="opacity:1" fill="#fcecb3" d="M 2216.5,1802.5 C 2221.84,1802.33 2227.18,1802.5 2232.5,1803C 2236.16,1807.54 2236.33,1812.37 2233,1817.5C 2227.68,1821.15 2223.01,1825.49 2219,1830.5C 2217.35,1836.38 2218.85,1841.21 2223.5,1845C 2237.83,1845.67 2252.17,1845.67 2266.5,1845C 2269.17,1842.67 2269.17,1840.33 2266.5,1838C 2257.46,1834.75 2250.3,1829.25 2245,1821.5C 2243.97,1813.85 2247.14,1808.68 2254.5,1806C 2295.48,1804.31 2310.32,1823.15 2299,1862.5C 2295.67,1870.49 2289.84,1875.66 2281.5,1878C 2261.84,1879.97 2242.18,1879.97 2222.5,1878C 2198.94,1871.79 2187.77,1856.62 2189,1832.5C 2193.53,1818.14 2202.7,1808.14 2216.5,1802.5 Z"/></g>
<g><path style="opacity:1" fill="#b4db50" d="M 1283.5,1805.5 C 1284.47,1807.48 1285.47,1809.48 1286.5,1811.5C 1282.88,1813.79 1279.54,1816.45 1276.5,1819.5C 1278.33,1814.52 1280.66,1809.85 1283.5,1805.5 Z"/></g>
<g><path style="opacity:1" fill="#fcecb2" d="M 1286.5,1811.5 C 1290.91,1818.08 1295.91,1824.25 1301.5,1830C 1317.74,1841.09 1334.07,1851.92 1350.5,1862.5C 1347.87,1866.81 1345.2,1871.14 1342.5,1875.5C 1315.47,1891.01 1289.47,1908.01 1264.5,1926.5C 1256.51,1889.41 1260.51,1853.75 1276.5,1819.5C 1279.54,1816.45 1282.88,1813.79 1286.5,1811.5 Z"/></g>
<g><path style="opacity:0.999" fill="#f79b2b" d="M 2449.5,1854.5 C 2445.89,1864.88 2439.89,1873.71 2431.5,1881C 2413.5,1892 2395.5,1903 2377.5,1914C 2374.02,1916.8 2371.35,1920.13 2369.5,1924C 2369.63,1925.63 2370.13,1927.13 2371,1928.5C 2394.03,1950.28 2420.2,1967.45 2449.5,1980C 2453.15,1982.81 2455.82,1986.31 2457.5,1990.5C 2456.41,2002.34 2452.75,2013.34 2446.5,2023.5C 2444.22,2027.2 2441.55,2030.7 2438.5,2034C 2436.13,2035.23 2433.63,2036.07 2431,2036.5C 2410.27,2029.89 2390.77,2020.72 2372.5,2009C 2343,1990.84 2320.5,1966.34 2305,1935.5C 2303.84,1928.97 2305.18,1922.97 2309,1917.5C 2338.62,1869.77 2381.45,1843.6 2437.5,1839C 2447.33,1839.66 2451.33,1844.83 2449.5,1854.5 Z"/></g>
<g><path style="opacity:0.995" fill="#fdecb3" d="M 2449.5,1854.5 C 2450.71,1855.23 2452.04,1855.57 2453.5,1855.5C 2465.31,1866.1 2468.14,1878.77 2462,1893.5C 2460.97,1901.31 2460.14,1909.14 2459.5,1917C 2461.46,1938.17 2461.63,1959.33 2460,1980.5C 2459.69,1984.09 2458.86,1987.42 2457.5,1990.5C 2455.82,1986.31 2453.15,1982.81 2449.5,1980C 2420.2,1967.45 2394.03,1950.28 2371,1928.5C 2370.13,1927.13 2369.63,1925.63 2369.5,1924C 2371.35,1920.13 2374.02,1916.8 2377.5,1914C 2395.5,1903 2413.5,1892 2431.5,1881C 2439.89,1873.71 2445.89,1864.88 2449.5,1854.5 Z"/></g>
<g><path style="opacity:1" fill="#b6da4d" d="M 1350.5,1862.5 C 1352.71,1863.92 1353.54,1865.92 1353,1868.5C 1350.04,1871.72 1346.54,1874.06 1342.5,1875.5C 1345.2,1871.14 1347.87,1866.81 1350.5,1862.5 Z"/></g>
<g><path style="opacity:1" fill="#fcecb3" d="M 1586.5,1864.5 C 1619.41,1861.1 1637.08,1875.76 1639.5,1908.5C 1639.49,1934.73 1627.16,1951.89 1602.5,1960C 1577.23,1963.24 1552.06,1967.07 1527,1971.5C 1511,1971.28 1497.33,1965.62 1486,1954.5C 1478.77,1944.42 1477.77,1933.75 1483,1922.5C 1492.57,1904.63 1506.4,1891.13 1524.5,1882C 1531.67,1878.28 1539,1874.95 1546.5,1872C 1551.95,1871.1 1557.28,1871.44 1562.5,1873C 1566.09,1879.59 1564.76,1884.92 1558.5,1889C 1540.42,1896.12 1524.58,1906.62 1511,1920.5C 1507.01,1925.75 1506.01,1931.42 1508,1937.5C 1509.25,1938.21 1510.42,1939.04 1511.5,1940C 1519.5,1940.67 1527.5,1940.67 1535.5,1940C 1543.02,1938.24 1550.36,1935.9 1557.5,1933C 1567.8,1931.9 1578.13,1931.23 1588.5,1931C 1601.09,1928.9 1607.42,1921.4 1607.5,1908.5C 1606.38,1899.22 1601.04,1894.72 1591.5,1895C 1580.76,1891.76 1573.43,1884.93 1569.5,1874.5C 1569.86,1871.97 1571.2,1870.13 1573.5,1869C 1577.93,1867.43 1582.26,1865.93 1586.5,1864.5 Z"/></g>
<g><path style="opacity:1" fill="#f79b2b" d="M 2097.5,1885.5 C 2097.25,1895.68 2095.91,1905.68 2093.5,1915.5C 2090.55,1917.66 2087.22,1919.16 2083.5,1920C 2054.77,1923.9 2025.94,1926.4 1997,1927.5C 1983.57,1927.74 1970.24,1926.74 1957,1924.5C 1955.83,1924.83 1954.67,1925.17 1953.5,1925.5C 1960.53,1938.22 1967.03,1951.22 1973,1964.5C 1981.53,1987.09 1989.86,2009.76 1998,2032.5C 1998.63,2038.21 1998.3,2043.88 1997,2049.5C 1995.26,2054.88 1993.43,2060.22 1991.5,2065.5C 1985.36,2071.41 1978.36,2076.07 1970.5,2079.5C 1958.44,2070.92 1949.94,2059.59 1945,2045.5C 1932.26,2005.95 1919.93,1966.29 1908,1926.5C 1903.75,1905.83 1911.91,1893.33 1932.5,1889C 1980.61,1882.27 2028.94,1879.27 2077.5,1880C 2084.54,1880.67 2091.21,1882.5 2097.5,1885.5 Z"/></g>
<g><path style="opacity:1" fill="#fcecb3" d="M 2093.5,1915.5 C 2092.14,1922.61 2090.31,1929.61 2088,1936.5C 2068.56,1989.09 2036.4,2032.09 1991.5,2065.5C 1993.43,2060.22 1995.26,2054.88 1997,2049.5C 1998.3,2043.88 1998.63,2038.21 1998,2032.5C 1989.86,2009.76 1981.53,1987.09 1973,1964.5C 1967.03,1951.22 1960.53,1938.22 1953.5,1925.5C 1954.67,1925.17 1955.83,1924.83 1957,1924.5C 1970.24,1926.74 1983.57,1927.74 1997,1927.5C 2025.94,1926.4 2054.77,1923.9 2083.5,1920C 2087.22,1919.16 2090.55,1917.66 2093.5,1915.5 Z"/></g>
<g><path style="opacity:1" fill="#f79b2b" d="M 969.5,2177.5 C 962.774,2167.06 956.274,2156.4 950,2145.5C 944.983,2136.47 940.816,2127.14 937.5,2117.5C 945.822,2088.7 954.655,2060.03 964,2031.5C 965.989,2025.88 964.155,2022.88 958.5,2022.5C 944.917,2024.94 931.251,2026.11 917.5,2026C 908.413,2023.29 900.413,2018.79 893.5,2012.5C 891.556,2008 890.222,2003.33 889.5,1998.5C 889.385,1995.59 890.051,1992.92 891.5,1990.5C 895.085,1987.88 899.085,1986.04 903.5,1985C 916.528,1981.33 929.528,1977.66 942.5,1974C 970.902,1965.51 999.902,1961.84 1029.5,1963C 1035.53,1963.25 1039.69,1966.09 1042,1971.5C 1042.64,1978.28 1041.97,1984.95 1040,1991.5C 1023.36,2042.72 1007.03,2094.05 991,2145.5C 986.667,2154.5 982.333,2163.5 978,2172.5C 975.687,2175.07 972.854,2176.74 969.5,2177.5 Z"/></g>
<g><path style="opacity:1" fill="#f79b2b" d="M 1620.5,2173.5 C 1607.77,2173.21 1595.1,2172.21 1582.5,2170.5C 1577.21,2160.91 1572.71,2150.91 1569,2140.5C 1559.4,2113.36 1550.4,2086.03 1542,2058.5C 1540.96,2056.25 1539.79,2054.09 1538.5,2052C 1536.03,2051.29 1533.7,2051.63 1531.5,2053C 1523.5,2061 1515.5,2069 1507.5,2077C 1491.2,2090.96 1475.2,2105.3 1459.5,2120C 1453.98,2124.59 1447.98,2128.43 1441.5,2131.5C 1439.7,2132.91 1437.7,2133.41 1435.5,2133C 1427.53,2129.68 1419.86,2125.85 1412.5,2121.5C 1410.69,2117.69 1410.19,2113.69 1411,2109.5C 1413.08,2105.01 1415.41,2100.67 1418,2096.5C 1444.2,2058.29 1477.37,2027.79 1517.5,2005C 1529.1,1999.11 1541.1,1998.11 1553.5,2002C 1559.11,2003.28 1563.28,2006.45 1566,2011.5C 1574.92,2028.34 1583.59,2045.34 1592,2062.5C 1607.2,2093.78 1617.37,2126.61 1622.5,2161C 1621.91,2165.19 1621.24,2169.36 1620.5,2173.5 Z"/></g>
<g><path style="opacity:1" fill="#f79b2b" d="M 473.5,2139.5 C 504.838,2123.35 532.671,2102.35 557,2076.5C 560.726,2072.58 560.226,2069.42 555.5,2067C 534.844,2061.78 514.844,2054.78 495.5,2046C 488.334,2041.33 482.334,2035.5 477.5,2028.5C 469.788,2017.06 472.788,2010.23 486.5,2008C 492.851,2006.14 499.351,2004.97 506,2004.5C 546.126,2007.55 584.626,2017.05 621.5,2033C 630.72,2036.55 635.72,2043.21 636.5,2053C 631.788,2077.68 620.954,2099.18 604,2117.5C 577.84,2146.35 547.674,2169.85 513.5,2188C 505.577,2190.77 498.244,2189.77 491.5,2185C 483.511,2176.68 476.678,2167.51 471,2157.5C 468.402,2150.94 469.236,2144.94 473.5,2139.5 Z"/></g>
<g><path style="opacity:1" fill="#f79b2b" d="M 1895.5,2116.5 C 1894.55,2117.92 1894.22,2119.59 1894.5,2121.5C 1883.24,2125.7 1871.91,2129.7 1860.5,2133.5C 1836.04,2108.62 1810.38,2085.12 1783.5,2063C 1778.77,2061.72 1776.27,2063.55 1776,2068.5C 1773.38,2099.31 1769.88,2129.98 1765.5,2160.5C 1753.85,2163.21 1742.18,2164.88 1730.5,2165.5C 1727.49,2158.98 1725.49,2152.15 1724.5,2145C 1726.88,2131.96 1728.38,2118.79 1729,2105.5C 1736.55,2077.67 1739.55,2049.34 1738,2020.5C 1738.56,2015.61 1741.06,2012.11 1745.5,2010C 1764.74,2006.39 1783.07,2009.06 1800.5,2018C 1831.73,2039.22 1861.23,2062.72 1889,2088.5C 1894.32,2097.1 1896.48,2106.43 1895.5,2116.5 Z"/></g>
<g><path style="opacity:1" fill="#fcecb2" d="M 893.5,2012.5 C 900.413,2018.79 908.413,2023.29 917.5,2026C 931.251,2026.11 944.917,2024.94 958.5,2022.5C 964.155,2022.88 965.989,2025.88 964,2031.5C 954.655,2060.03 945.822,2088.7 937.5,2117.5C 933.185,2110.2 929.352,2102.54 926,2094.5C 914.877,2067.26 904.043,2039.92 893.5,2012.5 Z"/></g>
<g><path style="opacity:1" fill="#fcecb3" d="M 477.5,2028.5 C 482.334,2035.5 488.334,2041.33 495.5,2046C 514.844,2054.78 534.844,2061.78 555.5,2067C 560.226,2069.42 560.726,2072.58 557,2076.5C 532.671,2102.35 504.838,2123.35 473.5,2139.5C 471.204,2137.6 469.371,2135.27 468,2132.5C 465.795,2127.56 464.628,2122.39 464.5,2117C 466.072,2108.54 467.572,2100.04 469,2091.5C 468.866,2073.83 468.532,2056.16 468,2038.5C 469.353,2033.32 472.519,2029.98 477.5,2028.5 Z"/></g>
<g><path style="opacity:1" fill="#fcecb3" d="M 2185.5,2036.5 C 2191.84,2036.33 2198.18,2036.5 2204.5,2037C 2220.93,2041.92 2237.59,2045.92 2254.5,2049C 2266.97,2052.79 2273.31,2061.13 2273.5,2074C 2272.77,2092.79 2265.77,2108.79 2252.5,2122C 2250.04,2123.71 2247.38,2125.04 2244.5,2126C 2223.48,2126.75 2202.48,2126.42 2181.5,2125C 2152.29,2119.39 2141.12,2102.22 2148,2073.5C 2155.17,2055.5 2167.67,2043.16 2185.5,2036.5 Z"/></g>
<g><path style="opacity:1" fill="#fcecb3" d="M 1138.5,2048.5 C 1173.8,2041.88 1196.63,2055.55 1207,2089.5C 1211.6,2107.77 1208.26,2124.44 1197,2139.5C 1176.02,2162.57 1149.85,2174.74 1118.5,2176C 1092.82,2178.24 1077.32,2166.74 1072,2141.5C 1071.09,2134.35 1071.76,2127.35 1074,2120.5C 1084.92,2086.76 1106.42,2062.76 1138.5,2048.5 Z"/></g>
<g><path style="opacity:1" fill="#fcecb3" d="M 1582.5,2170.5 C 1563.02,2168.3 1543.69,2165.13 1524.5,2161C 1498.24,2155.35 1472.58,2147.69 1447.5,2138C 1444.25,2136.92 1442.25,2134.75 1441.5,2131.5C 1447.98,2128.43 1453.98,2124.59 1459.5,2120C 1475.2,2105.3 1491.2,2090.96 1507.5,2077C 1515.5,2069 1523.5,2061 1531.5,2053C 1533.7,2051.63 1536.03,2051.29 1538.5,2052C 1539.79,2054.09 1540.96,2056.25 1542,2058.5C 1550.4,2086.03 1559.4,2113.36 1569,2140.5C 1572.71,2150.91 1577.21,2160.91 1582.5,2170.5 Z"/></g>
<g><path style="opacity:1" fill="#fcecb3" d="M 1860.5,2133.5 C 1829.57,2144.82 1797.9,2153.82 1765.5,2160.5C 1769.88,2129.98 1773.38,2099.31 1776,2068.5C 1776.27,2063.55 1778.77,2061.72 1783.5,2063C 1810.38,2085.12 1836.04,2108.62 1860.5,2133.5 Z"/></g>
<g><path style="opacity:1" fill="#b0dd4d" d="M 2185.5,2066.5 C 2201.72,2070.62 2218.05,2074.46 2234.5,2078C 2238.29,2080.05 2239.46,2083.22 2238,2087.5C 2236.5,2090.33 2234.33,2092.5 2231.5,2094C 2214.5,2094.17 2197.5,2093.84 2180.5,2093C 2178.71,2092.22 2177.21,2091.05 2176,2089.5C 2175.33,2086.5 2175.33,2083.5 2176,2080.5C 2178.58,2075.43 2181.74,2070.76 2185.5,2066.5 Z"/></g>
<g><path style="opacity:1" fill="#b0dd4c" d="M 1124.5,2076.5 C 1140.07,2077.22 1155.07,2080.39 1169.5,2086C 1174.64,2093.72 1176.48,2102.22 1175,2111.5C 1174.53,2113.25 1173.86,2114.91 1173,2116.5C 1154.3,2136.93 1131.14,2147.1 1103.5,2147C 1100.27,2145.44 1098.1,2142.94 1097,2139.5C 1096.33,2135.5 1096.33,2131.5 1097,2127.5C 1099.28,2120.67 1101.94,2114.01 1105,2107.5C 1111.36,2097 1117.86,2086.67 1124.5,2076.5 Z"/></g>
<g><path style="opacity:1" fill="#fcecb3" d="M 687.5,2113.5 C 695.507,2113.33 703.507,2113.5 711.5,2114C 731.45,2116.13 740.783,2127.29 739.5,2147.5C 738.873,2163.64 737.04,2179.64 734,2195.5C 728.26,2212.91 716.76,2224.74 699.5,2231C 687.174,2234 674.841,2237 662.5,2240C 653.823,2243.34 645.157,2246.67 636.5,2250C 620.508,2252.09 607.008,2247.25 596,2235.5C 589.924,2226.73 587.924,2217.06 590,2206.5C 592.531,2199.11 595.864,2192.11 600,2185.5C 612.554,2169.27 626.22,2153.94 641,2139.5C 646.793,2129.18 655.293,2122.01 666.5,2118C 673.562,2116.13 680.562,2114.63 687.5,2113.5 Z"/></g>
<g><path style="opacity:1" fill="#b0dd4c" d="M 686.5,2147.5 C 691.844,2147.33 697.177,2147.5 702.5,2148C 704.667,2148.83 706.167,2150.33 707,2152.5C 707.148,2165.95 704.814,2178.95 700,2191.5C 696.245,2196.3 691.412,2199.46 685.5,2201C 666.561,2204.2 648.561,2210.2 631.5,2219C 618.577,2220.66 614.743,2215.5 620,2203.5C 635.339,2176.66 657.505,2157.99 686.5,2147.5 Z"/></g>
<g><path style="opacity:1" fill="#f79b2b" d="M 2383.5,2207.5 C 2381.13,2212.71 2377.46,2216.87 2372.5,2220C 2345.53,2222.27 2318.53,2224.27 2291.5,2226C 2289.48,2226.45 2287.65,2227.28 2286,2228.5C 2285.61,2235.52 2285.94,2242.52 2287,2249.5C 2290.36,2265.98 2294.36,2282.32 2299,2298.5C 2299.43,2303.85 2299.27,2309.18 2298.5,2314.5C 2297.03,2319.71 2294.87,2324.71 2292,2329.5C 2286.12,2336.91 2278.95,2338.75 2270.5,2335C 2254.9,2320.39 2243.73,2302.89 2237,2282.5C 2229.59,2260.95 2222.59,2239.28 2216,2217.5C 2207.54,2193.94 2214.7,2177.44 2237.5,2168C 2260.23,2159.57 2283.73,2155.41 2308,2155.5C 2329.17,2156.24 2350.34,2157.07 2371.5,2158C 2388.5,2161.5 2394.67,2171.67 2390,2188.5C 2387.92,2194.89 2385.76,2201.23 2383.5,2207.5 Z"/></g>
<g><path style="opacity:0.996" fill="#fcecb3" d="M 2383.5,2207.5 C 2383.2,2217.03 2380.87,2226.03 2376.5,2234.5C 2369.65,2248.18 2360.81,2260.52 2350,2271.5C 2341.67,2282.83 2333.33,2294.17 2325,2305.5C 2322.04,2310.06 2317.87,2312.06 2312.5,2311.5C 2310.07,2309.78 2307.41,2309.28 2304.5,2310C 2302.34,2311.33 2300.34,2312.83 2298.5,2314.5C 2299.27,2309.18 2299.43,2303.85 2299,2298.5C 2294.36,2282.32 2290.36,2265.98 2287,2249.5C 2285.94,2242.52 2285.61,2235.52 2286,2228.5C 2287.65,2227.28 2289.48,2226.45 2291.5,2226C 2318.53,2224.27 2345.53,2222.27 2372.5,2220C 2377.46,2216.87 2381.13,2212.71 2383.5,2207.5 Z"/></g>
<g><path style="opacity:1" fill="#f79b2b" d="M 1331.5,2451.5 C 1316.97,2446.57 1302.63,2441.07 1288.5,2435C 1286.82,2433.79 1285.48,2432.29 1284.5,2430.5C 1282.39,2426.06 1280.89,2421.4 1280,2416.5C 1275.22,2383.5 1266.39,2351.67 1253.5,2321C 1249.19,2319.08 1244.86,2319.08 1240.5,2321C 1212.08,2332.55 1183.74,2344.05 1155.5,2355.5C 1153.3,2355.6 1151.3,2356.27 1149.5,2357.5C 1132.98,2346.98 1117.31,2335.32 1102.5,2322.5C 1104.91,2320.11 1107.58,2317.95 1110.5,2316C 1122,2309.08 1133.67,2302.41 1145.5,2296C 1183.59,2275.3 1223.92,2260.97 1266.5,2253C 1271.5,2252.33 1276.5,2252.33 1281.5,2253C 1293.31,2253.82 1301.47,2259.65 1306,2270.5C 1314.87,2296.1 1323.53,2321.77 1332,2347.5C 1335.16,2359.79 1338.16,2372.12 1341,2384.5C 1347.07,2408.31 1343.91,2430.64 1331.5,2451.5 Z"/></g>
<g><path style="opacity:1" fill="#fcecb3" d="M 1815.5,2251.5 C 1830.56,2251.72 1845.56,2252.55 1860.5,2254C 1871.06,2256.45 1880.72,2260.78 1889.5,2267C 1897.06,2274.62 1901.56,2283.78 1903,2294.5C 1904.54,2310.46 1903.21,2326.12 1899,2341.5C 1894.32,2354.34 1885.16,2360.68 1871.5,2360.5C 1839.79,2356.47 1810.46,2345.97 1783.5,2329C 1773.15,2320.95 1769.32,2310.45 1772,2297.5C 1776.54,2282.24 1784.7,2269.4 1796.5,2259C 1802.6,2255.58 1808.94,2253.08 1815.5,2251.5 Z"/></g>
<g><path style="opacity:1" fill="#fcecb3" d="M 1452.5,2275.5 C 1463.88,2275.63 1475.21,2276.47 1486.5,2278C 1512.91,2282.38 1523.41,2297.54 1518,2323.5C 1515.22,2332.89 1510.05,2340.73 1502.5,2347C 1491.55,2354.95 1480.88,2363.28 1470.5,2372C 1439.45,2387.79 1411.95,2382.96 1388,2357.5C 1376.35,2340.6 1376.69,2323.94 1389,2307.5C 1406.12,2288.69 1427.29,2278.02 1452.5,2275.5 Z"/></g>
<g><path style="opacity:1" fill="#b0dd4d" d="M 1808.5,2286.5 C 1823.17,2286.33 1837.84,2286.5 1852.5,2287C 1871.67,2292.84 1877.17,2305.01 1869,2323.5C 1866.16,2325.5 1862.99,2326 1859.5,2325C 1839.98,2318.99 1820.65,2312.49 1801.5,2305.5C 1798.84,2297.49 1801.17,2291.16 1808.5,2286.5 Z"/></g>
<g><path style="opacity:1" fill="#b1dd4d" d="M 1445.5,2308.5 C 1457.2,2308.27 1468.87,2308.77 1480.5,2310C 1486.2,2312.62 1486.86,2316.12 1482.5,2320.5C 1471.82,2327.01 1462.15,2334.84 1453.5,2344C 1444.7,2348.87 1435.37,2349.87 1425.5,2347C 1408.71,2342.73 1403.21,2332.23 1409,2315.5C 1411.59,2311.69 1414.42,2311.52 1417.5,2315C 1421.5,2315.67 1425.5,2315.67 1429.5,2315C 1435.04,2313.06 1440.37,2310.89 1445.5,2308.5 Z"/></g>
<g><path style="opacity:1" fill="#fcecb3" d="M 1284.5,2430.5 C 1283.58,2430.98 1282.58,2431.31 1281.5,2431.5C 1236.23,2412.37 1193.57,2388.87 1153.5,2361C 1154.42,2360.72 1155.08,2360.22 1155.5,2359.5C 1156.5,2359.5 1157.5,2359.5 1158.5,2359.5C 1158.91,2357.03 1157.91,2355.69 1155.5,2355.5C 1183.74,2344.05 1212.08,2332.55 1240.5,2321C 1244.86,2319.08 1249.19,2319.08 1253.5,2321C 1266.39,2351.67 1275.22,2383.5 1280,2416.5C 1280.89,2421.4 1282.39,2426.06 1284.5,2430.5 Z"/></g>
<g><path style="opacity:1" fill="#f79b2b" d="M 628.5,2469.5 C 624.711,2455.76 623.545,2441.76 625,2427.5C 627.617,2415.42 630.617,2403.42 634,2391.5C 636.092,2384.93 633.759,2381.93 627,2382.5C 617.116,2383.24 607.282,2384.41 597.5,2386C 588.5,2386.67 579.5,2386.67 570.5,2386C 563.463,2385.36 556.796,2383.53 550.5,2380.5C 540.371,2375.7 533.371,2368.04 529.5,2357.5C 530.15,2354.34 531.817,2351.84 534.5,2350C 549.031,2341.45 564.698,2336.11 581.5,2334C 608.391,2329.24 635.391,2325.24 662.5,2322C 672.5,2321.33 682.5,2321.33 692.5,2322C 700.929,2322.44 706.429,2326.61 709,2334.5C 709.513,2340.87 709.179,2347.2 708,2353.5C 703.677,2372.13 698.344,2390.47 692,2408.5C 690.17,2427.3 687.504,2445.97 684,2464.5C 680.466,2478.08 673.966,2489.91 664.5,2500C 661.97,2501.42 659.303,2501.75 656.5,2501C 643.078,2494.08 633.744,2483.58 628.5,2469.5 Z"/></g>
<g><path style="opacity:1" fill="#f79b2b" d="M 2097.5,2445.5 C 2091.78,2450.01 2085.45,2451.18 2078.5,2449C 2059.22,2436.06 2040.22,2422.72 2021.5,2409C 2014.33,2404.58 2007,2400.41 1999.5,2396.5C 1998.91,2396.71 1998.41,2397.04 1998,2397.5C 1993.22,2420.61 1986.89,2443.28 1979,2465.5C 1973.5,2477.19 1967,2488.19 1959.5,2498.5C 1957.5,2499.17 1955.5,2499.83 1953.5,2500.5C 1934.46,2500.29 1915.46,2500.95 1896.5,2502.5C 1889.22,2496.77 1885.22,2489.27 1884.5,2480C 1894.36,2428.13 1916.36,2382.29 1950.5,2342.5C 1964.97,2331.41 1981.3,2327.58 1999.5,2331C 2013.66,2334.5 2027.99,2337.17 2042.5,2339C 2076.63,2347.13 2101.8,2366.63 2118,2397.5C 2118.44,2416.68 2111.61,2432.68 2097.5,2445.5 Z"/></g>
<g><path style="opacity:1" fill="#b6db4f" d="M 1155.5,2355.5 C 1157.91,2355.69 1158.91,2357.03 1158.5,2359.5C 1157.5,2359.5 1156.5,2359.5 1155.5,2359.5C 1152.99,2359.95 1150.99,2359.28 1149.5,2357.5C 1151.3,2356.27 1153.3,2355.6 1155.5,2355.5 Z"/></g>
<g><path style="opacity:1" fill="#f79b2b" d="M 1727.5,2507.5 C 1706.17,2508.83 1684.83,2508.83 1663.5,2507.5C 1651.16,2481.36 1637,2456.36 1621,2432.5C 1618.5,2430 1616,2427.5 1613.5,2425C 1610.63,2423.54 1607.63,2423.21 1604.5,2424C 1577.3,2444.36 1555.3,2469.19 1538.5,2498.5C 1519.68,2497.65 1501.01,2494.98 1482.5,2490.5C 1481.63,2486.19 1481.47,2481.86 1482,2477.5C 1487.95,2449.26 1501.12,2425.1 1521.5,2405C 1540.54,2390.14 1561.21,2377.8 1583.5,2368C 1609.42,2358.21 1634.76,2359.54 1659.5,2372C 1680.97,2381.48 1698.14,2395.98 1711,2415.5C 1719.64,2433.1 1727.31,2451.1 1734,2469.5C 1735.21,2482.77 1733.05,2495.44 1727.5,2507.5 Z"/></g>
<g><path style="opacity:0.999" fill="#fcecb3" d="M 550.5,2380.5 C 556.796,2383.53 563.463,2385.36 570.5,2386C 579.5,2386.67 588.5,2386.67 597.5,2386C 607.282,2384.41 617.116,2383.24 627,2382.5C 633.759,2381.93 636.092,2384.93 634,2391.5C 630.617,2403.42 627.617,2415.42 625,2427.5C 623.545,2441.76 624.711,2455.76 628.5,2469.5C 623.941,2473.76 618.941,2474.43 613.5,2471.5C 607.905,2467.41 602.739,2462.74 598,2457.5C 591.235,2449.91 585.069,2441.91 579.5,2433.5C 574.022,2424.56 568.522,2415.56 563,2406.5C 558.02,2398.21 553.854,2389.54 550.5,2380.5 Z"/></g>
<g><path style="opacity:0.996" fill="#fcecb3" d="M 2097.5,2445.5 C 2094.43,2453.65 2089.43,2460.31 2082.5,2465.5C 2076.68,2470.58 2070.01,2474.42 2062.5,2477C 2040.31,2485.56 2017.65,2492.4 1994.5,2497.5C 1982.85,2498.27 1971.18,2498.6 1959.5,2498.5C 1967,2488.19 1973.5,2477.19 1979,2465.5C 1986.89,2443.28 1993.22,2420.61 1998,2397.5C 1998.41,2397.04 1998.91,2396.71 1999.5,2396.5C 2007,2400.41 2014.33,2404.58 2021.5,2409C 2040.22,2422.72 2059.22,2436.06 2078.5,2449C 2085.45,2451.18 2091.78,2450.01 2097.5,2445.5 Z"/></g>
<g><path style="opacity:1" fill="#fcecb3" d="M 1663.5,2507.5 C 1622.02,2507.4 1580.69,2504.9 1539.5,2500C 1538.94,2499.62 1538.61,2499.12 1538.5,2498.5C 1555.3,2469.19 1577.3,2444.36 1604.5,2424C 1607.63,2423.21 1610.63,2423.54 1613.5,2425C 1616,2427.5 1618.5,2430 1621,2432.5C 1637,2456.36 1651.16,2481.36 1663.5,2507.5 Z"/></g>
<g><path style="opacity:1" fill="#f79b2b" d="M 842.5,2645.5 C 840.172,2639.68 838.338,2633.68 837,2627.5C 836.667,2604.5 836.333,2581.5 836,2558.5C 833.521,2556.08 830.521,2555.08 827,2555.5C 815.034,2557.24 803.2,2559.58 791.5,2562.5C 788.505,2562.29 785.838,2562.96 783.5,2564.5C 773.233,2566.49 762.899,2568.16 752.5,2569.5C 742.619,2570.31 734.786,2566.64 729,2558.5C 726.186,2553.99 725.853,2549.33 728,2544.5C 740.081,2532.44 754.248,2523.6 770.5,2518C 787.395,2512.95 804.395,2508.29 821.5,2504C 829.482,2501.78 837.149,2498.78 844.5,2495C 849.585,2494.42 854.585,2493.42 859.5,2492C 865.5,2491.33 871.5,2491.33 877.5,2492C 882.107,2492.59 886.107,2494.42 889.5,2497.5C 896.414,2505.85 899.914,2515.52 900,2526.5C 900.667,2560.17 900.667,2593.83 900,2627.5C 898.739,2642.29 893.739,2655.62 885,2667.5C 878.304,2675.74 870.804,2676.58 862.5,2670C 854.076,2663.1 847.41,2654.93 842.5,2645.5 Z"/></g>
<g><path style="opacity:0.94" fill="#b1dc4c" d="M 1994.5,2497.5 C 1960.84,2508.9 1926.17,2515.56 1890.5,2517.5C 1898.24,2515.2 1906.24,2513.54 1914.5,2512.5C 1920.54,2512.82 1925.87,2511.15 1930.5,2507.5C 1938,2504.23 1945.67,2501.9 1953.5,2500.5C 1955.5,2499.83 1957.5,2499.17 1959.5,2498.5C 1971.18,2498.6 1982.85,2498.27 1994.5,2497.5 Z"/></g>
<g><path style="opacity:1" fill="#e6a531" d="M 1930.5,2507.5 C 1925.87,2511.15 1920.54,2512.82 1914.5,2512.5C 1919.54,2510.23 1924.87,2508.57 1930.5,2507.5 Z"/></g>
<g><path style="opacity:0.998" fill="#fcecb3" d="M 842.5,2645.5 C 837.461,2652.01 830.794,2654.68 822.5,2653.5C 814.215,2649.69 806.548,2644.86 799.5,2639C 790.666,2631.66 781.999,2624.16 773.5,2616.5C 767.143,2609.64 761.31,2602.3 756,2594.5C 754.333,2591.17 752.667,2587.83 751,2584.5C 748.56,2579.1 749.06,2574.1 752.5,2569.5C 762.899,2568.16 773.233,2566.49 783.5,2564.5C 786.553,2564.89 789.22,2564.22 791.5,2562.5C 803.2,2559.58 815.034,2557.24 827,2555.5C 830.521,2555.08 833.521,2556.08 836,2558.5C 836.333,2581.5 836.667,2604.5 837,2627.5C 838.338,2633.68 840.172,2639.68 842.5,2645.5 Z"/></g>
<g><path style="opacity:1" fill="#c8db5f" d="M 791.5,2562.5 C 789.22,2564.22 786.553,2564.89 783.5,2564.5C 785.838,2562.96 788.505,2562.29 791.5,2562.5 Z"/></g>
<g><path style="opacity:0.838" fill="#b0dd4b" d="M 1022.5,2699.5 C 1024.5,2704.34 1025.5,2709.51 1025.5,2715C 1025.02,2722.71 1024.02,2730.21 1022.5,2737.5C 1022.5,2724.83 1022.5,2712.17 1022.5,2699.5 Z"/></g>
</svg>
