<?xml version="1.0" encoding="UTF-8"?>
<!DOCTYPE svg PUBLIC "-//W3C//DTD SVG 1.1//EN" "http://www.w3.org/Graphics/SVG/1.1/DTD/svg11.dtd">
<svg xmlns="http://www.w3.org/2000/svg" version="1.1" width="3000px" height="3000px" style="shape-rendering:geometricPrecision; text-rendering:geometricPrecision; image-rendering:optimizeQuality; fill-rule:evenodd; clip-rule:evenodd" xmlns:xlink="http://www.w3.org/1999/xlink">
<g><path style="opacity:0.999" fill="#fe6d00" d="M 1586.5,2329.5 C 1671.91,2274.62 1747.41,2207.96 1813,2129.5C 1848.88,2086.06 1881.05,2040.06 1909.5,1991.5C 1932.39,1959.96 1942.56,1924.63 1940,1885.5C 1936.74,1840.78 1926.4,1797.78 1909,1756.5C 1882.96,1695.88 1849.63,1639.88 1809,1588.5C 1749.24,1514.74 1682.74,1447.57 1609.5,1387C 1511.38,1306.58 1406.05,1236.58 1293.5,1177C 1173.32,1115.27 1047.65,1067.94 916.5,1035C 849.021,1019.12 780.688,1009.95 711.5,1007.5C 792.944,733.257 956.944,524.423 1203.5,381C 1428.22,257.103 1666.88,218.437 1919.5,265C 2172.42,317.297 2379.25,443.464 2540,643.5C 2710.89,865.969 2783.89,1117.64 2759,1398.5C 2728.54,1661.59 2617.37,1883.09 2425.5,2063C 2207.86,2256.79 1952.53,2347.79 1659.5,2336C 1635.1,2334.49 1610.77,2332.33 1586.5,2329.5 Z"/></g>
<g><path style="opacity:1" fill="#52432e" d="M 1962.5,359.5 C 1971.34,380.663 1980.01,401.996 1988.5,423.5C 2005.87,410.146 2022.87,396.312 2039.5,382C 2040.17,381.333 2040.83,381.333 2041.5,382C 2032.08,402.676 2023.08,423.509 2014.5,444.5C 2036.54,446.183 2058.54,448.349 2080.5,451C 2059.36,459.075 2038.36,467.408 2017.5,476C 2031.5,493.333 2045.5,510.667 2059.5,528C 2038.13,519.482 2016.8,510.649 1995.5,501.5C 1993.66,523.529 1991.5,545.529 1989,567.5C 1980.85,546.72 1972.52,526.053 1964,505.5C 1947,519.167 1930,532.833 1913,546.5C 1921.49,525.829 1930.33,505.162 1939.5,484.5C 1916.85,481.89 1894.18,479.39 1871.5,477C 1892.87,468.324 1914.2,459.658 1935.5,451C 1921.88,433.709 1907.88,416.709 1893.5,400C 1914.17,408.494 1934.84,417.327 1955.5,426.5C 1958.22,404.203 1960.55,381.87 1962.5,359.5 Z"/></g>
<g><path style="opacity:0.999" fill="#f4b600" d="M 711.5,1007.5 C 780.688,1009.95 849.021,1019.12 916.5,1035C 1047.65,1067.94 1173.32,1115.27 1293.5,1177C 1406.05,1236.58 1511.38,1306.58 1609.5,1387C 1682.74,1447.57 1749.24,1514.74 1809,1588.5C 1849.63,1639.88 1882.96,1695.88 1909,1756.5C 1926.4,1797.78 1936.74,1840.78 1940,1885.5C 1942.56,1924.63 1932.39,1959.96 1909.5,1991.5C 1884.23,2020.32 1853.57,2041.48 1817.5,2055C 1772.33,2071.64 1725.67,2080.97 1677.5,2083C 1599.58,2085.97 1522.58,2078.97 1446.5,2062C 1326.52,2035.01 1211.18,1994.67 1100.5,1941C 950.727,1869.42 813.06,1780.08 687.5,1673C 617.881,1612.06 555.381,1544.9 500,1471.5C 470.013,1429.88 444.346,1385.55 423,1338.5C 407.523,1302.92 397.19,1265.92 392,1227.5C 387.065,1189.79 392.565,1153.79 408.5,1119.5C 423.338,1091.83 444.672,1070.66 472.5,1056C 533.873,1025.74 598.873,1009.74 667.5,1008C 682.163,1007.5 696.83,1007.33 711.5,1007.5 Z"/></g>
<g><path style="opacity:1" fill="#fed405" d="M 676.5,1026.5 C 772.294,1025.93 866.627,1037.43 959.5,1061C 1248.5,1135.35 1496,1279.18 1702,1492.5C 1750.64,1543.84 1793.98,1599.18 1832,1658.5C 1856.75,1698.35 1876.42,1740.68 1891,1785.5C 1927.54,1917.95 1880.37,2004.11 1749.5,2044C 1688.03,2059.17 1625.7,2064.17 1562.5,2059C 1480.11,2052.57 1399.44,2037.23 1320.5,2013C 1087.76,1940.01 879.758,1824.68 696.5,1667C 633.996,1612.17 577.496,1552.01 527,1486.5C 491.605,1439.4 462.605,1388.4 440,1333.5C 429.754,1307.34 422.754,1280.34 419,1252.5C 408.266,1165.12 441.766,1101.62 519.5,1062C 548.242,1048.64 578.242,1039.31 609.5,1034C 631.911,1030.87 654.244,1028.37 676.5,1026.5 Z"/></g>
<g><path style="opacity:1" fill="#ff8600" d="M 1146.5,1406.5 C 1147.08,1412.49 1147.58,1418.49 1148,1424.5C 1148.5,1397.84 1148.67,1371.17 1148.5,1344.5C 1148.55,1303.75 1150.39,1263.08 1154,1222.5C 1154.87,1214.09 1156.2,1205.76 1158,1197.5C 1159.22,1193.38 1161.22,1189.72 1164,1186.5C 1166.01,1168.48 1175.84,1161.32 1193.5,1165C 1205.11,1168.2 1216.45,1172.2 1227.5,1177C 1315.73,1217.08 1398.4,1265.75 1475.5,1323C 1486.3,1332.13 1496.8,1341.63 1507,1351.5C 1511.39,1356.89 1515.39,1362.56 1519,1368.5C 1519.28,1374.62 1517.28,1379.95 1513,1384.5C 1500.3,1396.54 1486.47,1407.04 1471.5,1416C 1420.91,1444.79 1368.58,1470.13 1314.5,1492C 1374.97,1472.28 1434.97,1450.95 1494.5,1428C 1513.47,1419.46 1532.8,1412.13 1552.5,1406C 1565.49,1405.58 1577.49,1408.91 1588.5,1416C 1610.19,1433.02 1630.69,1451.52 1650,1471.5C 1682.41,1505.04 1713.41,1539.7 1743,1575.5C 1759.85,1598.69 1775.51,1622.69 1790,1647.5C 1793.85,1655.53 1796.85,1663.87 1799,1672.5C 1799.9,1677.95 1799.56,1683.28 1798,1688.5C 1791.22,1691.6 1784.05,1692.94 1776.5,1692.5C 1750.95,1692.01 1725.62,1689.51 1700.5,1685C 1621.24,1670.78 1542.58,1653.95 1464.5,1634.5C 1450.04,1630.38 1435.37,1626.88 1420.5,1624C 1434.14,1627.99 1447.81,1631.83 1461.5,1635.5C 1572.81,1668.1 1685.14,1696.93 1798.5,1722C 1827.02,1730.52 1844.52,1749.35 1851,1778.5C 1861.12,1817.63 1862.12,1856.96 1854,1896.5C 1846.23,1920.24 1832.39,1939.4 1812.5,1954C 1789.84,1966.63 1767.17,1966.63 1744.5,1954C 1714.7,1939.27 1685.7,1923.27 1657.5,1906C 1568.76,1850.3 1482.09,1791.64 1397.5,1730C 1395.95,1728.71 1394.28,1728.04 1392.5,1728C 1501.98,1813.15 1613.98,1894.81 1728.5,1973C 1734.13,1977.63 1738.63,1983.13 1742,1989.5C 1743.22,1994.9 1741.72,1999.4 1737.5,2003C 1726.02,2009.83 1713.69,2014.49 1700.5,2017C 1621.31,2032.75 1541.97,2033.41 1462.5,2019C 1425.33,2012.96 1389,2003.62 1353.5,1991C 1341.26,1986.22 1329.26,1980.88 1317.5,1975C 1305.49,1965.66 1295.66,1954.5 1288,1941.5C 1277.96,1924.76 1268.96,1907.43 1261,1889.5C 1234.56,1827.34 1212.39,1763.68 1194.5,1698.5C 1192.83,1691.48 1190.99,1684.48 1189,1677.5C 1189.73,1685.39 1191.23,1693.06 1193.5,1700.5C 1207.85,1770.92 1222.69,1841.25 1238,1911.5C 1239.04,1921.82 1239.37,1932.15 1239,1942.5C 1238.17,1944.67 1236.67,1946.17 1234.5,1947C 1222.6,1949.21 1210.93,1948.21 1199.5,1944C 1171.61,1934.37 1144.27,1923.37 1117.5,1911C 1045.29,1876.57 975.295,1838.57 907.5,1797C 854.951,1762.79 804.951,1725.13 757.5,1684C 743.853,1671.69 731.686,1658.19 721,1643.5C 719.699,1641.64 719.365,1639.64 720,1637.5C 726.516,1631.66 734.016,1627.49 742.5,1625C 758.337,1620.04 774.337,1615.71 790.5,1612C 858.547,1598.21 926.88,1586.04 995.5,1575.5C 1004.52,1574.14 1013.52,1572.64 1022.5,1571C 1011.99,1571.56 1001.66,1572.72 991.5,1574.5C 919.356,1582.62 847.022,1588.79 774.5,1593C 756.5,1593.67 738.5,1593.67 720.5,1593C 706.736,1589.59 692.736,1587.59 678.5,1587C 667.487,1584.77 657.153,1580.77 647.5,1575C 624.118,1558.62 603.618,1539.12 586,1516.5C 547.765,1468.21 515.099,1416.21 488,1360.5C 477.461,1335.81 470.461,1310.14 467,1283.5C 466.105,1273.44 466.438,1263.44 468,1253.5C 470.018,1246.95 473.852,1241.79 479.5,1238C 486.526,1239.9 493.526,1242.23 500.5,1245C 620.983,1300.24 740.983,1356.57 860.5,1414C 880.5,1423.33 900.5,1432.67 920.5,1442C 923.742,1443.64 927.076,1444.64 930.5,1445C 812.893,1389.03 697.227,1329.7 583.5,1267C 566.058,1257.62 550.058,1246.29 535.5,1233C 522.994,1224.91 510.661,1216.58 498.5,1208C 490.756,1201.93 484.923,1194.43 481,1185.5C 477.73,1177.82 477.73,1170.15 481,1162.5C 489.441,1145.38 500.941,1130.55 515.5,1118C 543.719,1092.39 576.719,1076.06 614.5,1069C 643.284,1061.34 671.951,1061.67 700.5,1070C 704.833,1073.67 709.167,1077.33 713.5,1081C 734.333,1102.5 755.167,1124 776,1145.5C 848.266,1224.44 921.266,1302.77 995,1380.5C 974.558,1356.04 953.224,1332.04 931,1308.5C 883.829,1255.34 838.163,1201 794,1145.5C 786.667,1134.83 779.333,1124.17 772,1113.5C 771.012,1110.58 770.346,1107.58 770,1104.5C 764.748,1096.33 759.748,1088 755,1079.5C 750.069,1068.2 753.569,1061.03 765.5,1058C 872.183,1061.38 975.517,1081.72 1075.5,1119C 1089.22,1124.36 1102.22,1131.03 1114.5,1139C 1117.76,1141.59 1120.26,1144.76 1122,1148.5C 1126.4,1162.19 1129.4,1176.19 1131,1190.5C 1138.27,1262.35 1143.44,1334.35 1146.5,1406.5 Z"/></g>
<g><path style="opacity:0.999" fill="#fe8e00" d="M 408.5,1119.5 C 392.565,1153.79 387.065,1189.79 392,1227.5C 397.19,1265.92 407.523,1302.92 423,1338.5C 444.346,1385.55 470.013,1429.88 500,1471.5C 555.381,1544.9 617.881,1612.06 687.5,1673C 813.06,1780.08 950.727,1869.42 1100.5,1941C 1211.18,1994.67 1326.52,2035.01 1446.5,2062C 1522.58,2078.97 1599.58,2085.97 1677.5,2083C 1725.67,2080.97 1772.33,2071.64 1817.5,2055C 1853.57,2041.48 1884.23,2020.32 1909.5,1991.5C 1881.05,2040.06 1848.88,2086.06 1813,2129.5C 1747.41,2207.96 1671.91,2274.62 1586.5,2329.5C 1432.27,2422.72 1264.94,2464.22 1084.5,2454C 1004.44,2449.07 926.108,2434.73 849.5,2411C 786.172,2392.78 724.839,2369.45 665.5,2341C 440.378,2226.43 301.212,2045.26 248,1797.5C 215.221,1625.95 231.555,1459.29 297,1297.5C 320.858,1241.73 351.191,1190.07 388,1142.5C 394.328,1134.34 401.161,1126.67 408.5,1119.5 Z"/></g>
<g><path style="opacity:1" fill="#ffb203" d="M 997.5,1382.5 C 1002.03,1385.85 1005.53,1389.85 1008,1394.5C 1003.9,1390.9 1000.4,1386.9 997.5,1382.5 Z"/></g>
<g><path style="opacity:1" fill="#ffab02" d="M 1148.5,1344.5 C 1148.67,1371.17 1148.5,1397.84 1148,1424.5C 1147.58,1418.49 1147.08,1412.49 1146.5,1406.5C 1147.17,1385.83 1147.83,1365.17 1148.5,1344.5 Z"/></g>
<g><path style="opacity:1" fill="#ffb903" d="M 934.5,1448.5 C 935.251,1447.43 936.251,1447.26 937.5,1448C 940.833,1449.67 944.167,1451.33 947.5,1453C 943.043,1452.12 938.71,1450.62 934.5,1448.5 Z"/></g>
<g><path style="opacity:1" fill="#ffd405" d="M 1098.5,1481.5 C 1098.56,1480.96 1098.89,1480.62 1099.5,1480.5C 1114.74,1489.51 1131.07,1492.34 1148.5,1489C 1150.08,1488.29 1151.58,1487.46 1153,1486.5C 1160.62,1512.58 1178.12,1526.08 1205.5,1527C 1200.77,1532.04 1200.27,1537.54 1204,1543.5C 1214.03,1553.44 1225.53,1561.27 1238.5,1567C 1223.75,1569.34 1219.75,1577.17 1226.5,1590.5C 1226,1591.52 1225.33,1591.69 1224.5,1591C 1213.72,1581.78 1201.39,1575.44 1187.5,1572C 1179.39,1570.25 1173.56,1573.09 1170,1580.5C 1158.37,1561.26 1141.2,1551.09 1118.5,1550C 1124.63,1544.79 1125.13,1538.96 1120,1532.5C 1111.29,1523.79 1101.45,1516.62 1090.5,1511C 1103.03,1511.47 1107.86,1505.64 1105,1493.5C 1103.58,1488.99 1101.42,1484.99 1098.5,1481.5 Z"/></g>
<g><path style="opacity:1" fill="#ffb903" d="M 995.5,1575.5 C 994.432,1574.57 993.099,1574.23 991.5,1574.5C 1001.66,1572.72 1011.99,1571.56 1022.5,1571C 1013.52,1572.64 1004.52,1574.14 995.5,1575.5 Z"/></g>
<g><path style="opacity:1" fill="#ffbe03" d="M 1464.5,1634.5 C 1463.21,1634.26 1462.21,1634.6 1461.5,1635.5C 1447.81,1631.83 1434.14,1627.99 1420.5,1624C 1435.37,1626.88 1450.04,1630.38 1464.5,1634.5 Z"/></g>
<g><path style="opacity:1" fill="#ffba03" d="M 1194.5,1698.5 C 1193.66,1698.84 1193.33,1699.51 1193.5,1700.5C 1191.23,1693.06 1189.73,1685.39 1189,1677.5C 1190.99,1684.48 1192.83,1691.48 1194.5,1698.5 Z"/></g>
</svg>
