<?xml version="1.0" encoding="UTF-8"?>
<!DOCTYPE svg PUBLIC "-//W3C//DTD SVG 1.1//EN" "http://www.w3.org/Graphics/SVG/1.1/DTD/svg11.dtd">
<svg xmlns="http://www.w3.org/2000/svg" version="1.1" width="3000px" height="3000px" style="shape-rendering:geometricPrecision; text-rendering:geometricPrecision; image-rendering:optimizeQuality; fill-rule:evenodd; clip-rule:evenodd" xmlns:xlink="http://www.w3.org/1999/xlink">
<g><path style="opacity:0.999" fill="#b3b9c7" d="M 1888.5,963.5 C 1858.83,972.777 1829.17,982.61 1799.5,993C 1765.42,1005.21 1733.09,1020.87 1702.5,1040C 1689.55,1049.28 1676.88,1058.95 1664.5,1069C 1660.29,1070.53 1655.96,1070.87 1651.5,1070C 1638.58,1064.92 1625.92,1059.25 1613.5,1053C 1528.21,1003.85 1441.21,957.518 1352.5,914C 1276.74,878.287 1199.07,847.287 1119.5,821C 1038.9,799.723 956.896,788.057 873.5,786C 820.152,783.925 766.818,784.258 713.5,787C 711.942,787.21 710.609,787.71 709.5,788.5C 698.686,773.588 684.686,762.755 667.5,756C 639.531,751.793 626.198,763.96 627.5,792.5C 561.056,798.056 495.056,806.889 429.5,819C 394.648,824.879 360.648,833.879 327.5,846C 324.582,847.709 321.748,849.542 319,851.5C 317.442,855.007 316.608,858.673 316.5,862.5C 318.144,879.218 321.644,895.552 327,911.5C 343.566,960.959 365.233,1007.96 392,1052.5C 399.022,1063.01 406.189,1073.34 413.5,1083.5C 339.131,1012.99 272.297,936.327 213,853.5C 187.641,817.474 165.308,779.474 146,739.5C 138.251,722.92 132.918,705.586 130,687.5C 126.934,671.36 131.767,658.193 144.5,648C 167.701,632.56 192.034,618.893 217.5,607C 385.687,536.688 561.02,501.521 743.5,501.5C 786.636,500.973 829.636,503.14 872.5,508C 1005.46,523.327 1136.46,548.66 1265.5,584C 1305.6,596.026 1345.6,608.359 1385.5,621C 1394.65,623.859 1403.98,625.192 1413.5,625C 1421.49,621.346 1427.99,615.846 1433,608.5C 1448.4,584.766 1463.4,560.766 1478,536.5C 1505.41,494.416 1537.91,456.583 1575.5,423C 1633.46,374.128 1697.46,334.461 1767.5,304C 1780.11,298.851 1793.11,295.017 1806.5,292.5C 1808.51,292.84 1810.51,293.173 1812.5,293.5C 1812.28,302.323 1810.12,310.657 1806,318.5C 1780.35,371.126 1758.01,425.126 1739,480.5C 1725.09,525.658 1718.25,571.825 1718.5,619C 1719.33,682.824 1727.83,745.657 1744,807.5C 1746.65,820.169 1752.32,831.169 1761,840.5C 1803.4,881.731 1845.9,922.731 1888.5,963.5 Z"/></g>
<g><path style="opacity:1" fill="#3e3a39" d="M 1101.5,667.5 C 1104.5,667.253 1107,668.253 1109,670.5C 1116.05,710.356 1105.21,744.523 1076.5,773C 1068.54,776.451 1065.04,773.951 1066,765.5C 1092.27,739.198 1103.1,707.532 1098.5,670.5C 1099.77,669.712 1100.77,668.712 1101.5,667.5 Z"/></g>
<g><path style="opacity:1" fill="#3e3a39" d="M 1184.5,681.5 C 1187.69,681.02 1190.52,681.686 1193,683.5C 1199.93,706.928 1198.6,729.928 1189,752.5C 1183.33,765.856 1175.66,777.856 1166,788.5C 1162.51,791.337 1159.34,791.004 1156.5,787.5C 1155.46,785.232 1155.29,782.899 1156,780.5C 1180.58,753.754 1189.08,722.588 1181.5,687C 1181.86,684.808 1182.86,682.974 1184.5,681.5 Z"/></g>
<g><path style="opacity:1" fill="#3e3a39" d="M 1271.5,698.5 C 1274.97,697.875 1277.8,698.875 1280,701.5C 1286.52,742.601 1275.02,777.768 1245.5,807C 1237.69,809.522 1234.52,806.689 1236,798.5C 1261.83,772.857 1272.66,741.857 1268.5,705.5C 1268.67,704.167 1268.83,702.833 1269,701.5C 1270.04,700.627 1270.88,699.627 1271.5,698.5 Z"/></g>
<g><path style="opacity:1" fill="#3c3837" d="M 709.5,788.5 C 717.044,798.968 720.211,810.634 719,823.5C 716.47,832.699 710.97,839.532 702.5,844C 691.17,848.622 679.836,848.622 668.5,844C 646.599,833.353 632.932,816.186 627.5,792.5C 626.198,763.96 639.531,751.793 667.5,756C 684.686,762.755 698.686,773.588 709.5,788.5 Z"/></g>
<g><path style="opacity:0.999" fill="#e7e7e7" d="M 1888.5,963.5 C 1937.66,950.029 1987.66,941.195 2038.5,937C 2059.53,936.126 2080.53,936.46 2101.5,938C 2109.33,938.9 2117,940.567 2124.5,943C 2128.51,944.343 2132.01,946.509 2135,949.5C 2135.75,952.303 2135.42,954.97 2134,957.5C 2130.25,963.258 2125.75,968.425 2120.5,973C 2093.17,995.667 2065.83,1018.33 2038.5,1041C 2025.6,1053.4 2012.6,1065.57 1999.5,1077.5C 1992.2,1084.3 1985.04,1091.3 1978,1098.5C 1953.25,1126.58 1929.25,1155.25 1906,1184.5C 1898,1195.16 1891,1206.5 1885,1218.5C 1881.86,1225.18 1880.86,1232.18 1882,1239.5C 1885.47,1243.97 1889.3,1248.13 1893.5,1252C 1942.67,1287.94 1990,1326.27 2035.5,1367C 2082.8,1410.58 2123.3,1459.41 2157,1513.5C 2180.85,1555.04 2198.85,1599.04 2211,1645.5C 2242.25,1757.53 2256.75,1871.53 2254.5,1987.5C 2250.36,1975.55 2244.86,1964.21 2238,1953.5C 2199.49,1896.95 2154.99,1845.12 2104.5,1798C 2021.22,1719.44 1927.55,1655.77 1823.5,1607C 1765.23,1581.08 1704.89,1561.24 1642.5,1547.5C 1630.36,1586.71 1626.86,1626.71 1632,1667.5C 1634.91,1688.18 1637.91,1708.85 1641,1729.5C 1642.26,1737.18 1641.26,1744.51 1638,1751.5C 1632.81,1755.9 1626.98,1756.73 1620.5,1754C 1616.05,1752.27 1611.71,1750.27 1607.5,1748C 1587.37,1734.64 1569.2,1718.81 1553,1700.5C 1511.33,1654.2 1479,1601.87 1456,1543.5C 1451.79,1532.7 1448.29,1521.7 1445.5,1510.5C 1362.79,1497.66 1280.13,1484.49 1197.5,1471C 1091.66,1453.96 987.997,1428.29 886.5,1394C 789.995,1359.67 700.328,1313.01 617.5,1254C 545.217,1202.57 477.217,1145.74 413.5,1083.5C 406.189,1073.34 399.022,1063.01 392,1052.5C 365.233,1007.96 343.566,960.959 327,911.5C 321.644,895.552 318.144,879.218 316.5,862.5C 316.608,858.673 317.442,855.007 319,851.5C 321.748,849.542 324.582,847.709 327.5,846C 360.648,833.879 394.648,824.879 429.5,819C 495.056,806.889 561.056,798.056 627.5,792.5C 632.932,816.186 646.599,833.353 668.5,844C 679.836,848.622 691.17,848.622 702.5,844C 710.97,839.532 716.47,832.699 719,823.5C 720.211,810.634 717.044,798.968 709.5,788.5C 710.609,787.71 711.942,787.21 713.5,787C 766.818,784.258 820.152,783.925 873.5,786C 956.896,788.057 1038.9,799.723 1119.5,821C 1199.07,847.287 1276.74,878.287 1352.5,914C 1441.21,957.518 1528.21,1003.85 1613.5,1053C 1625.92,1059.25 1638.58,1064.92 1651.5,1070C 1655.96,1070.87 1660.29,1070.53 1664.5,1069C 1676.88,1058.95 1689.55,1049.28 1702.5,1040C 1733.09,1020.87 1765.42,1005.21 1799.5,993C 1829.17,982.61 1858.83,972.777 1888.5,963.5 Z"/></g>
<g><path style="opacity:1" fill="#3f3b3a" d="M 685.5,989.5 C 689.639,988.704 692.805,990.037 695,993.5C 709.208,1016.33 714.208,1040.99 710,1067.5C 698.853,1103.46 674.353,1121.79 636.5,1122.5C 627.481,1122.26 618.815,1120.43 610.5,1117C 607.033,1111.5 608.366,1107.67 614.5,1105.5C 642.587,1114.77 666.754,1108.77 687,1087.5C 697.411,1072.06 701.078,1055.06 698,1036.5C 695.156,1022.97 690.156,1010.3 683,998.5C 681.927,994.9 682.76,991.9 685.5,989.5 Z"/></g>
<g><path style="opacity:0.997" fill="#b4bac8" d="M 1999.5,1077.5 C 2076.83,1158.22 2145,1245.89 2204,1340.5C 2236.66,1398.49 2263.33,1459.16 2284,1522.5C 2309.01,1599.2 2329.01,1677.2 2344,1756.5C 2353.97,1809.33 2362.97,1862.33 2371,1915.5C 2373.31,1931.06 2376.65,1946.4 2381,1961.5C 2383.62,1965.78 2386.62,1969.78 2390,1973.5C 2407.03,1989.86 2424.03,2006.19 2441,2022.5C 2478.83,2060.31 2510.49,2102.64 2536,2149.5C 2557.01,2190.88 2571.01,2234.55 2578,2280.5C 2586.16,2323.96 2590.66,2367.79 2591.5,2412C 2591.67,2435.47 2589.17,2458.63 2584,2481.5C 2582.34,2488.84 2578.67,2494.84 2573,2499.5C 2569.45,2497.74 2566.78,2495.07 2565,2491.5C 2549.88,2454.81 2535.55,2417.81 2522,2380.5C 2505.64,2336.78 2485.3,2295.11 2461,2255.5C 2444.77,2231.25 2426.27,2208.75 2405.5,2188C 2394.79,2178.95 2383.79,2170.29 2372.5,2162C 2367.38,2158.96 2362.04,2156.29 2356.5,2154C 2353.92,2152.75 2351.26,2152.42 2348.5,2153C 2339.86,2156.99 2331.86,2161.99 2324.5,2168C 2299.03,2190.19 2277.19,2215.36 2259,2243.5C 2229.95,2288.59 2206.62,2336.59 2189,2387.5C 2173.94,2432.75 2160.27,2478.42 2148,2524.5C 2146.06,2530.99 2143.73,2537.32 2141,2543.5C 2137.84,2546.34 2135.51,2545.67 2134,2541.5C 2124.52,2516.93 2117.86,2491.6 2114,2465.5C 2101.79,2391.97 2102.79,2318.63 2117,2245.5C 2128.74,2193.58 2149.74,2145.92 2180,2102.5C 2201,2074.17 2222,2045.83 2243,2017.5C 2249.37,2008.43 2253.2,1998.43 2254.5,1987.5C 2256.75,1871.53 2242.25,1757.53 2211,1645.5C 2198.85,1599.04 2180.85,1555.04 2157,1513.5C 2123.3,1459.41 2082.8,1410.58 2035.5,1367C 1990,1326.27 1942.67,1287.94 1893.5,1252C 1889.3,1248.13 1885.47,1243.97 1882,1239.5C 1880.86,1232.18 1881.86,1225.18 1885,1218.5C 1891,1206.5 1898,1195.16 1906,1184.5C 1929.25,1155.25 1953.25,1126.58 1978,1098.5C 1985.04,1091.3 1992.2,1084.3 1999.5,1077.5 Z"/></g>
<g><path style="opacity:1" fill="#fefefe" d="M 1300.5,1295.5 C 1328.63,1294.15 1354.3,1301.32 1377.5,1317C 1381.42,1320.25 1384.59,1324.08 1387,1328.5C 1389.25,1335.89 1386.75,1340.72 1379.5,1343C 1373.83,1343.67 1368.17,1343.67 1362.5,1343C 1341.22,1339.1 1320.22,1334.1 1299.5,1328C 1286.31,1322.74 1282.81,1313.9 1289,1301.5C 1292.57,1298.8 1296.41,1296.8 1300.5,1295.5 Z"/></g>
<g><path style="opacity:1" fill="#fefefe" d="M 1133.5,1335.5 C 1137.51,1335.33 1141.51,1335.5 1145.5,1336C 1174.4,1345.14 1203.4,1353.81 1232.5,1362C 1236.44,1363.89 1239.94,1366.39 1243,1369.5C 1246.23,1378.97 1243.07,1385.47 1233.5,1389C 1193.43,1399.52 1158.93,1390.02 1130,1360.5C 1126.11,1355.82 1124.44,1350.49 1125,1344.5C 1126.69,1340.31 1129.52,1337.31 1133.5,1335.5 Z"/></g>
<g><path style="opacity:1" fill="#fefefe" d="M 1460.5,1346.5 C 1479.54,1345.13 1496.37,1350.46 1511,1362.5C 1515.76,1368.28 1515.59,1373.78 1510.5,1379C 1491.28,1381.61 1472.95,1378.61 1455.5,1370C 1448.78,1364.59 1447.78,1358.25 1452.5,1351C 1455.1,1349.2 1457.77,1347.7 1460.5,1346.5 Z"/></g>
<g><path style="opacity:1" fill="#fefefe" d="M 1362.5,1395.5 C 1388.51,1394.78 1412.51,1401.28 1434.5,1415C 1444.42,1423.46 1443.75,1430.79 1432.5,1437C 1426.99,1438.86 1421.32,1439.7 1415.5,1439.5C 1393.54,1438.51 1373.2,1432.34 1354.5,1421C 1343.97,1413.02 1343.97,1405.35 1354.5,1398C 1357.31,1397.22 1359.98,1396.38 1362.5,1395.5 Z"/></g>
</svg>
