<?xml version="1.0" encoding="UTF-8"?>
<!DOCTYPE svg PUBLIC "-//W3C//DTD SVG 1.1//EN" "http://www.w3.org/Graphics/SVG/1.1/DTD/svg11.dtd">
<svg xmlns="http://www.w3.org/2000/svg" version="1.1" width="3000px" height="3000px" style="shape-rendering:geometricPrecision; text-rendering:geometricPrecision; image-rendering:optimizeQuality; fill-rule:evenodd; clip-rule:evenodd" xmlns:xlink="http://www.w3.org/1999/xlink">
<g><path style="opacity:1" fill="#050200" d="M 628.5,219.5 C 606.915,211.45 584.581,207.116 561.5,206.5C 553.001,206.5 544.668,207.667 536.5,210C 532.796,211.381 529.463,213.214 526.5,215.5C 507.269,197.087 484.269,188.754 457.5,190.5C 473.33,171.583 493.663,160.416 518.5,157C 554.364,153.172 584.197,164.672 608,191.5C 615.096,200.715 621.93,210.048 628.5,219.5 Z"/></g>
<g><path style="opacity:1" fill="#030100" d="M 1047.5,172.5 C 1048.78,173.931 1050.45,174.598 1052.5,174.5C 1077.85,186.847 1094.52,206.514 1102.5,233.5C 1094.36,233.524 1086.03,233.69 1077.5,234C 1062.59,234.63 1049.25,239.463 1037.5,248.5C 1025.24,239.681 1011.57,233.847 996.5,231C 981.551,228.383 966.551,227.883 951.5,229.5C 950.761,229.631 950.094,229.464 949.5,229C 956.712,217.412 963.546,205.579 970,193.5C 986.155,173.775 1006.99,165.608 1032.5,169C 1037.56,170.014 1042.56,171.181 1047.5,172.5 Z"/></g>
<g><path style="opacity:0.769" fill="#ad5611" d="M 1047.5,172.5 C 1049.55,172.402 1051.22,173.069 1052.5,174.5C 1050.45,174.598 1048.78,173.931 1047.5,172.5 Z"/></g>
<g><path style="opacity:1" fill="#feebd1" d="M 457.5,190.5 C 484.269,188.754 507.269,197.087 526.5,215.5C 543.402,235.664 553.235,258.998 556,285.5C 557.147,295.134 557.647,304.8 557.5,314.5C 552.369,309.87 547.369,305.037 542.5,300C 513.036,275.504 480.369,270.17 444.5,284C 438.592,286.535 433.092,289.702 428,293.5C 427.5,287.175 427.334,280.842 427.5,274.5C 427.5,271.5 427.5,268.5 427.5,265.5C 428.957,260.402 429.624,255.069 429.5,249.5C 429.216,247.585 429.549,245.919 430.5,244.5C 431.924,242.485 432.59,240.152 432.5,237.5C 433.924,235.485 434.59,233.152 434.5,230.5C 439.11,215.263 446.777,201.93 457.5,190.5 Z"/></g>
<g><path style="opacity:0.749" fill="#cf6714" d="M 1047.5,172.5 C 1042.56,171.181 1037.56,170.014 1032.5,169C 1006.99,165.608 986.155,173.775 970,193.5C 963.546,205.579 956.712,217.412 949.5,229C 950.094,229.464 950.761,229.631 951.5,229.5C 950.053,230.885 949.053,230.552 948.5,228.5C 955.495,217.183 961.995,205.517 968,193.5C 986.805,171.009 1010.64,162.842 1039.5,169C 1042.48,169.705 1045.14,170.871 1047.5,172.5 Z"/></g>
<g><path style="opacity:0.999" fill="#e97518" d="M 628.5,219.5 C 638.337,231.592 649.003,243.092 660.5,254C 666.797,259.982 674.131,264.149 682.5,266.5C 746.774,246.965 811.441,245.465 876.5,262C 907.649,265.586 931.649,254.419 948.5,228.5C 949.053,230.552 950.053,230.885 951.5,229.5C 966.551,227.883 981.551,228.383 996.5,231C 1011.57,233.847 1025.24,239.681 1037.5,248.5C 1017.7,265.741 1005.37,287.408 1000.5,313.5C 999.441,315.726 999.608,318.059 1001,320.5C 1016.91,358.092 1033.07,395.426 1049.5,432.5C 1052.83,440.5 1056.17,448.5 1059.5,456.5C 1058.59,457.738 1058.42,459.072 1059,460.5C 1074.66,491.988 1085.83,524.988 1092.5,559.5C 1091.34,557.014 1090,554.514 1088.5,552C 1086.63,551.289 1085.13,551.789 1084,553.5C 1075.89,572.392 1066.22,590.392 1055,607.5C 1052.82,610.376 1050.32,612.876 1047.5,615C 1066.12,617.683 1084.45,616.517 1102.5,611.5C 1105.39,630.036 1107.05,648.703 1107.5,667.5C 1104.25,669.243 1101.42,671.577 1099,674.5C 1094.08,682.672 1089.41,691.005 1085,699.5C 1082.87,702.63 1080.37,705.463 1077.5,708C 1088.18,705.496 1098.84,702.663 1109.5,699.5C 1109.92,721.899 1108.92,744.233 1106.5,766.5C 1102.09,741.113 1087.42,732.28 1062.5,740C 1054.1,742.015 1045.77,744.182 1037.5,746.5C 1041.31,742.044 1043.64,736.877 1044.5,731C 1044.06,725.39 1041.06,722.223 1035.5,721.5C 1030.11,705.106 1025.28,688.439 1021,671.5C 1011.62,640.739 998.952,611.406 983,583.5C 974.646,570.143 964.479,558.31 952.5,548C 948.159,544.828 943.492,542.161 938.5,540C 900.189,532.735 876.023,547.901 866,585.5C 864.024,592.379 862.691,599.379 862,606.5C 860.688,632.601 861.688,658.601 865,684.5C 867.42,698.207 869.92,711.873 872.5,725.5C 871.101,729.688 871.601,733.688 874,737.5C 880.762,744.767 887.928,751.434 895.5,757.5C 862.698,746.845 829.698,736.678 796.5,727C 784.267,724.153 771.934,721.82 759.5,720C 734.67,715.081 717.003,723.915 706.5,746.5C 686.141,739.91 665.474,734.577 644.5,730.5C 609.072,699.35 585.572,660.683 574,614.5C 564.9,578.368 559.734,541.701 558.5,504.5C 558.561,489.438 559.561,474.438 561.5,459.5C 561.39,452.843 558.89,451.843 554,456.5C 547.726,465.119 542.726,474.452 539,484.5C 522.251,526.325 515.918,569.658 520,614.5C 521.775,624.147 523.441,633.814 525,643.5C 528.738,656.379 533.071,669.046 538,681.5C 540.266,673.486 542.266,665.486 544,657.5C 566.401,689.073 595.234,712.74 630.5,728.5C 609.9,725.623 589.9,727.79 570.5,735C 615.798,737.105 660.132,744.605 703.5,757.5C 703.5,762.5 703.5,767.5 703.5,772.5C 670.491,772.279 638.491,777.779 607.5,789C 596.636,793.593 586.969,799.926 578.5,808C 613.201,796.265 648.867,788.265 685.5,784C 692.167,783.333 698.833,783.333 705.5,784C 707.473,791.081 710.139,797.915 713.5,804.5C 695.595,812.451 678.595,821.951 662.5,833C 652.867,840.296 645.033,849.13 639,859.5C 638.333,860.5 638.333,861.5 639,862.5C 662.435,843.523 687.935,827.689 715.5,815C 717.112,814.28 718.612,814.446 720,815.5C 724.104,821.387 727.938,827.387 731.5,833.5C 730.34,834.265 729.34,835.265 728.5,836.5C 732.177,841.862 735.843,847.196 739.5,852.5C 745.264,865.698 750.764,879.031 756,892.5C 756.522,913.976 746.022,923.809 724.5,922C 670.497,902.658 625.331,870.824 589,826.5C 556.171,784.528 530.838,738.195 513,687.5C 489.963,618.981 475.629,548.648 470,476.5C 468.752,462.854 467.919,449.187 467.5,435.5C 466.958,431.456 467.791,427.789 470,424.5C 499.424,387.955 528.591,351.288 557.5,314.5C 557.647,304.8 557.147,295.134 556,285.5C 553.235,258.998 543.402,235.664 526.5,215.5C 529.463,213.214 532.796,211.381 536.5,210C 544.668,207.667 553.001,206.5 561.5,206.5C 584.581,207.116 606.915,211.45 628.5,219.5 Z"/></g>
<g><path style="opacity:1" fill="#f4a05c" d="M 434.5,230.5 C 434.59,233.152 433.924,235.485 432.5,237.5C 432.41,234.848 433.076,232.515 434.5,230.5 Z"/></g>
<g><path style="opacity:0.997" fill="#feebd2" d="M 1102.5,233.5 C 1103.12,233.611 1103.62,233.944 1104,234.5C 1110.47,262.381 1109.64,290.047 1101.5,317.5C 1084.09,302.871 1064.09,297.705 1041.5,302C 1027.2,304.656 1013.7,309.49 1001,316.5C 1000.52,315.552 1000.35,314.552 1000.5,313.5C 1005.37,287.408 1017.7,265.741 1037.5,248.5C 1049.25,239.463 1062.59,234.63 1077.5,234C 1086.03,233.69 1094.36,233.524 1102.5,233.5 Z"/></g>
<g><path style="opacity:0.91" fill="#f39b54" d="M 432.5,237.5 C 432.59,240.152 431.924,242.485 430.5,244.5C 430.41,241.848 431.076,239.515 432.5,237.5 Z"/></g>
<g><path style="opacity:1" fill="#f7af73" d="M 429.5,249.5 C 429.624,255.069 428.957,260.402 427.5,265.5C 427.5,264.167 427.5,262.833 427.5,261.5C 427.344,257.236 428.011,253.236 429.5,249.5 Z"/></g>
<g><path style="opacity:1" fill="#020000" d="M 815.5,257.5 C 834.153,255.331 851.819,258.498 868.5,267C 876.163,270.829 883.496,275.163 890.5,280C 905.032,292.685 918.032,306.185 929.5,320.5C 914.146,311.547 897.646,306.547 880,305.5C 876.779,305.541 873.612,305.875 870.5,306.5C 870.167,307.5 869.833,308.5 869.5,309.5C 871.493,319.807 873.327,330.14 875,340.5C 875.606,343.548 877.106,346.048 879.5,348C 896.517,353.176 912.517,360.509 927.5,370C 935.735,377.321 942.402,385.821 947.5,395.5C 941.959,394.528 936.292,393.028 930.5,391C 874.563,376.186 824.063,386.686 779,422.5C 781.578,401.008 789.911,382.008 804,365.5C 810.387,359.113 816.721,352.779 823,346.5C 821.663,334.476 818.663,322.809 814,311.5C 784.561,313.226 761.227,326.226 744,350.5C 745.599,317.136 759.099,289.636 784.5,268C 794.583,263.362 804.917,259.862 815.5,257.5 Z"/></g>
<g><path style="opacity:1" fill="#e5d4bf" d="M 427.5,274.5 C 427.334,280.842 427.5,287.175 428,293.5C 433.092,289.702 438.592,286.535 444.5,284C 480.369,270.17 513.036,275.504 542.5,300C 547.369,305.037 552.369,309.87 557.5,314.5C 528.591,351.288 499.424,387.955 470,424.5C 467.791,427.789 466.958,431.456 467.5,435.5C 466.833,433.5 466.167,431.5 465.5,429.5C 453.31,404.786 443.643,379.119 436.5,352.5C 434.944,343.946 432.944,335.613 430.5,327.5C 430.127,320.608 429.127,313.942 427.5,307.5C 426.517,303.702 426.183,299.702 426.5,295.5C 426.175,288.313 426.509,281.313 427.5,274.5 Z"/></g>
<g><path style="opacity:0.353" fill="#ec7b23" d="M 427.5,261.5 C 427.5,262.833 427.5,264.167 427.5,265.5C 427.5,268.5 427.5,271.5 427.5,274.5C 426.509,281.313 426.175,288.313 426.5,295.5C 425.154,284.13 425.487,272.797 427.5,261.5 Z"/></g>
<g><path style="opacity:1" fill="#e5d5c0" d="M 1101.5,317.5 C 1090.35,358.786 1073.02,397.119 1049.5,432.5C 1033.07,395.426 1016.91,358.092 1001,320.5C 999.608,318.059 999.441,315.726 1000.5,313.5C 1000.35,314.552 1000.52,315.552 1001,316.5C 1013.7,309.49 1027.2,304.656 1041.5,302C 1064.09,297.705 1084.09,302.871 1101.5,317.5 Z"/></g>
<g><path style="opacity:0.425" fill="#ec802a" d="M 427.5,307.5 C 429.127,313.942 430.127,320.608 430.5,327.5C 428.585,321.101 427.585,314.435 427.5,307.5 Z"/></g>
<g><path style="opacity:0.348" fill="#ed822f" d="M 430.5,327.5 C 432.944,335.613 434.944,343.946 436.5,352.5C 433.426,344.535 431.426,336.201 430.5,327.5 Z"/></g>
<g><path style="opacity:1" fill="#090300" d="M 983.5,400.5 C 988.325,409.875 993.491,419.208 999,428.5C 1000.19,433.996 998.019,437.496 992.5,439C 984.722,439.925 977.056,439.425 969.5,437.5C 974.461,425.251 979.127,412.918 983.5,400.5 Z"/></g>
<g><path style="opacity:1" fill="#050200" d="M 682.5,419.5 C 693.868,427.026 704.535,435.526 714.5,445C 706.637,447.287 698.804,449.787 691,452.5C 688.006,441.524 685.173,430.524 682.5,419.5 Z"/></g>
<g><path style="opacity:0.998" fill="#feebd2" d="M 465.5,429.5 C 466.167,431.5 466.833,433.5 467.5,435.5C 467.919,449.187 468.752,462.854 470,476.5C 475.629,548.648 489.963,618.981 513,687.5C 530.838,738.195 556.171,784.528 589,826.5C 625.331,870.824 670.497,902.658 724.5,922C 746.022,923.809 756.522,913.976 756,892.5C 750.764,879.031 745.264,865.698 739.5,852.5C 793.517,913.85 854.517,921.35 922.5,875C 932.959,866.876 943.126,858.376 953,849.5C 983.283,895.149 1024.12,908.316 1075.5,889C 1088.1,881.397 1097.6,870.897 1104,857.5C 1108.89,846.63 1111.55,835.296 1112,823.5C 1108.21,821.499 1104.38,820.499 1100.5,820.5C 1099,836.489 1093.83,851.156 1085,864.5C 1073.21,876.805 1058.71,883.305 1041.5,884C 1021.46,886.157 1003.46,881.157 987.5,869C 973.565,857.395 963.065,843.229 956,826.5C 931.728,856.436 901.228,877.269 864.5,889C 837.69,895.648 812.356,891.982 788.5,878C 769.209,865.043 752.876,849.043 739.5,830C 736.579,830.38 733.912,831.547 731.5,833.5C 727.938,827.387 724.104,821.387 720,815.5C 718.612,814.446 717.112,814.28 715.5,815C 687.935,827.689 662.435,843.523 639,862.5C 638.333,861.5 638.333,860.5 639,859.5C 645.033,849.13 652.867,840.296 662.5,833C 678.595,821.951 695.595,812.451 713.5,804.5C 710.139,797.915 707.473,791.081 705.5,784C 698.833,783.333 692.167,783.333 685.5,784C 648.867,788.265 613.201,796.265 578.5,808C 586.969,799.926 596.636,793.593 607.5,789C 638.491,777.779 670.491,772.279 703.5,772.5C 703.5,767.5 703.5,762.5 703.5,757.5C 660.132,744.605 615.798,737.105 570.5,735C 589.9,727.79 609.9,725.623 630.5,728.5C 635.15,729.26 639.817,729.926 644.5,730.5C 665.474,734.577 686.141,739.91 706.5,746.5C 717.003,723.915 734.67,715.081 759.5,720C 771.934,721.82 784.267,724.153 796.5,727C 829.698,736.678 862.698,746.845 895.5,757.5C 913.715,772.836 933.715,785.67 955.5,796C 977.115,796.023 996.115,789.023 1012.5,775C 1022.16,766.517 1030.49,757.017 1037.5,746.5C 1045.77,744.182 1054.1,742.015 1062.5,740C 1087.42,732.28 1102.09,741.113 1106.5,766.5C 1108.92,744.233 1109.92,721.899 1109.5,699.5C 1110.64,689.911 1110.81,680.244 1110,670.5C 1109.76,668.881 1108.93,667.881 1107.5,667.5C 1107.05,648.703 1105.39,630.036 1102.5,611.5C 1100.67,593.866 1097.34,576.533 1092.5,559.5C 1085.83,524.988 1074.66,491.988 1059,460.5C 1058.42,459.072 1058.59,457.738 1059.5,456.5C 1127.73,456.561 1159.56,490.561 1155,558.5C 1154.24,569.326 1152.07,579.826 1148.5,590C 1163.55,591.936 1178.55,594.103 1193.5,596.5C 1194.67,634.496 1194.83,672.496 1194,710.5C 1188.59,717.067 1183.42,723.733 1178.5,730.5C 1173.7,736.146 1169.03,741.979 1164.5,748C 1171.22,746.604 1177.89,745.104 1184.5,743.5C 1207.75,738.917 1231.08,738.417 1254.5,742C 1258.99,743.274 1263.32,744.941 1267.5,747C 1242,748.545 1216.67,751.378 1191.5,755.5C 1188.81,755.336 1186.15,755.503 1183.5,756C 1173.49,758.335 1163.49,760.669 1153.5,763C 1149.12,767.711 1145.12,772.711 1141.5,778C 1153.14,779.193 1164.8,779.693 1176.5,779.5C 1176.5,782.5 1176.5,785.5 1176.5,788.5C 1189.11,789.421 1201.44,791.755 1213.5,795.5C 1230.84,799.499 1245.84,807.666 1258.5,820C 1246.48,816.828 1234.48,813.328 1222.5,809.5C 1207.06,805.145 1191.39,801.812 1175.5,799.5C 1173.86,812.741 1170.2,825.407 1164.5,837.5C 1177.12,845.617 1187.62,855.95 1196,868.5C 1197.3,870.402 1197.97,872.402 1198,874.5C 1187.11,865.947 1175.95,857.78 1164.5,850C 1162.6,848.699 1160.6,848.032 1158.5,848C 1147.37,863.569 1133.37,875.902 1116.5,885C 1126.34,891.755 1136.01,898.755 1145.5,906C 1132.7,935.093 1120.04,964.26 1107.5,993.5C 1105.92,994.298 1104.26,994.798 1102.5,995C 1084.97,995.491 1067.63,996.658 1050.5,998.5C 1037.5,999.109 1024.5,999.776 1011.5,1000.5C 1008.37,1015.77 1002.2,1029.77 993,1042.5C 978.832,1062.01 963.165,1080.34 946,1097.5C 940.045,1085.92 934.378,1074.26 929,1062.5C 923.961,1085.91 913.628,1106.58 898,1124.5C 886.892,1085.44 866.059,1052.61 835.5,1026C 813.389,1013.84 789.723,1008.84 764.5,1011C 731.885,1015.12 699.551,1020.79 667.5,1028C 642.277,1034.26 622.11,1027.1 607,1006.5C 600.112,992.146 597.612,977.146 599.5,961.5C 591.908,968.294 583.242,972.961 573.5,975.5C 556.741,978.735 540.241,977.735 524,972.5C 523.517,973.448 523.351,974.448 523.5,975.5C 502.041,967.783 485.541,953.783 474,933.5C 467.083,917.646 466.749,901.646 473,885.5C 478.733,872.189 487.233,861.022 498.5,852C 446.587,850.225 406.921,827.558 379.5,784C 380.101,782.395 381.101,781.062 382.5,780C 401.013,766.242 419.347,752.242 437.5,738C 417.492,737.833 397.492,737.333 377.5,736.5C 379.138,698.516 376.138,660.849 368.5,623.5C 368.709,622.006 369.376,620.839 370.5,620C 392.966,613.4 415.3,606.4 437.5,599C 407.641,590.787 377.974,582.121 348.5,573C 387.639,525.188 426.639,477.355 465.5,429.5 Z"/></g>
<g><path style="opacity:1" fill="#030100" d="M 877.5,442.5 C 913.533,442.719 938.866,459.219 953.5,492C 938.998,485.199 923.665,480.532 907.5,478C 888.518,476.129 870.185,478.796 852.5,486C 842.586,490.792 832.586,495.292 822.5,499.5C 824.778,474.814 837.445,457.648 860.5,448C 866.249,446.027 871.916,444.194 877.5,442.5 Z"/></g>
<g><path style="opacity:1" fill="#fce7cd" d="M 1001.5,559.5 C 1002.97,557.59 1004.97,556.424 1007.5,556C 1024.42,558.788 1036.26,552.288 1043,536.5C 1045.85,527.882 1047.69,519.049 1048.5,510C 1048.23,504.298 1047.06,498.798 1045,493.5C 1044.6,483.156 1044.1,472.823 1043.5,462.5C 1032.95,464.683 1022.28,466.183 1011.5,467C 999.937,472.581 992.771,481.747 990,494.5C 988.715,505.46 988.215,516.46 988.5,527.5C 982.817,505.791 984.983,484.791 995,464.5C 1005.01,450.915 1018.51,444.415 1035.5,445C 1053.45,451.828 1062.12,464.995 1061.5,484.5C 1061.23,499.629 1059.73,514.629 1057,529.5C 1055.12,536.485 1052.45,543.152 1049,549.5C 1038.79,562.362 1025.62,567.528 1009.5,565C 1006.63,563.404 1003.96,561.57 1001.5,559.5 Z"/></g>
<g><path style="opacity:1" fill="#020100" d="M 644.5,730.5 C 639.817,729.926 635.15,729.26 630.5,728.5C 595.234,712.74 566.401,689.073 544,657.5C 542.266,665.486 540.266,673.486 538,681.5C 533.071,669.046 528.738,656.379 525,643.5C 523.441,633.814 521.775,624.147 520,614.5C 515.918,569.658 522.251,526.325 539,484.5C 542.726,474.452 547.726,465.119 554,456.5C 558.89,451.843 561.39,452.843 561.5,459.5C 559.561,474.438 558.561,489.438 558.5,504.5C 559.734,541.701 564.9,578.368 574,614.5C 585.572,660.683 609.072,699.35 644.5,730.5 Z"/></g>
<g><path style="opacity:1" fill="#fde9d0" d="M 802.5,541.5 C 807.871,497.707 788.538,476.207 744.5,477C 734.016,474.503 723.516,472.003 713,469.5C 712.5,469.833 712,470.167 711.5,470.5C 714.296,483.016 715.462,495.683 715,508.5C 708.911,541.281 722.411,560.615 755.5,566.5C 761.819,565.572 768.153,565.405 774.5,566C 777.802,566.661 780.802,567.828 783.5,569.5C 754.515,579.938 728.182,575.105 704.5,555C 685.585,534.922 676.085,511.089 676,483.5C 681.645,469.243 692.145,461.077 707.5,459C 733.869,454.729 759.203,458.063 783.5,469C 794.43,476.001 801.596,485.834 805,498.5C 806.557,508.106 806.891,517.772 806,527.5C 805.746,532.516 804.579,537.183 802.5,541.5 Z"/></g>
<g><path style="opacity:1" fill="#0b0906" d="M 802.5,541.5 C 803.222,554.829 803.389,568.163 803,581.5C 797.363,576.016 790.863,572.016 783.5,569.5C 780.802,567.828 777.802,566.661 774.5,566C 768.153,565.405 761.819,565.572 755.5,566.5C 722.411,560.615 708.911,541.281 715,508.5C 715.462,495.683 714.296,483.016 711.5,470.5C 712,470.167 712.5,469.833 713,469.5C 723.516,472.003 734.016,474.503 744.5,477C 788.538,476.207 807.871,497.707 802.5,541.5 Z"/></g>
<g><path style="opacity:1" fill="#f5db66" d="M 752.5,481.5 C 772.661,480.657 787.495,488.99 797,506.5C 804.815,531.131 797.315,549.298 774.5,561C 753.516,568.048 736.683,562.548 724,544.5C 712.887,521.79 717.387,502.957 737.5,488C 742.29,485.133 747.29,482.967 752.5,481.5 Z"/></g>
<g><path style="opacity:1" fill="#090704" d="M 751.5,524.5 C 759.484,522.208 759.484,519.874 751.5,517.5C 751.506,511.146 753.006,505.146 756,499.5C 758.282,495.959 760.949,495.626 764,498.5C 770.551,512.514 771.217,526.848 766,541.5C 762.674,547.642 759.007,547.975 755,542.5C 752.741,536.707 751.575,530.707 751.5,524.5 Z"/></g>
<g><path style="opacity:0.998" fill="#000000" d="M 2541.5,536.5 C 2543.17,537.5 2544.5,538.833 2545.5,540.5C 2546.42,543.089 2548.09,545.089 2550.5,546.5C 2550.43,548.027 2551.09,549.027 2552.5,549.5C 2552.43,551.027 2553.09,552.027 2554.5,552.5C 2561.89,565.405 2565.23,579.405 2564.5,594.5C 2563.97,612.302 2560.81,629.635 2555,646.5C 2543.49,678.186 2527.83,707.519 2508,734.5C 2492.13,764.232 2479.63,795.232 2470.5,827.5C 2397.39,820.229 2344.56,783.895 2312,718.5C 2309,711.666 2306.5,704.666 2304.5,697.5C 2326.49,637.664 2360.82,586.164 2407.5,543C 2422.12,530.349 2438.12,519.682 2455.5,511C 2476.42,511.322 2496.75,514.989 2516.5,522C 2525.54,525.847 2533.88,530.68 2541.5,536.5 Z"/></g>
<g><path style="opacity:1" fill="#030100" d="M 611.5,514.5 C 613.903,514.393 615.736,515.393 617,517.5C 648.274,573.202 690.774,618.369 744.5,653C 709.628,647.159 674.962,640.159 640.5,632C 645.061,626.379 648.728,620.212 651.5,613.5C 639.176,611.954 626.842,610.454 614.5,609C 611.993,608.907 609.826,608.074 608,606.5C 603.383,578.532 603.383,550.532 608,522.5C 608.368,519.435 609.535,516.768 611.5,514.5 Z"/></g>
<g><path style="opacity:1" fill="#fcfbf8" d="M 751.5,517.5 C 759.484,519.874 759.484,522.208 751.5,524.5C 747.486,524.666 743.486,524.499 739.5,524C 735.367,521.379 735.701,519.379 740.5,518C 744.152,517.501 747.818,517.335 751.5,517.5 Z"/></g>
<g><path style="opacity:1" fill="#0d0a07" d="M 1001.5,559.5 C 995.57,562.262 991.07,566.595 988,572.5C 988.132,557.51 988.298,542.51 988.5,527.5C 988.215,516.46 988.715,505.46 990,494.5C 992.771,481.747 999.937,472.581 1011.5,467C 1022.28,466.183 1032.95,464.683 1043.5,462.5C 1044.1,472.823 1044.6,483.156 1045,493.5C 1047.06,498.798 1048.23,504.298 1048.5,510C 1047.69,519.049 1045.85,527.882 1043,536.5C 1036.26,552.288 1024.42,558.788 1007.5,556C 1004.97,556.424 1002.97,557.59 1001.5,559.5 Z"/></g>
<g><path style="opacity:1" fill="#f3d965" d="M 1011.5,470.5 C 1025.87,469.61 1035.7,475.944 1041,489.5C 1048.52,509.265 1046.52,527.931 1035,545.5C 1026.08,555.645 1015.91,557.145 1004.5,550C 994.408,539.073 989.408,526.073 989.5,511C 989.511,493.241 996.844,479.741 1011.5,470.5 Z"/></g>
<g><path style="opacity:1" fill="#faf9f5" d="M 1022.5,506.5 C 1024.86,506.337 1027.19,506.503 1029.5,507C 1034.3,508.379 1034.63,510.379 1030.5,513C 1027.85,513.497 1025.19,513.664 1022.5,513.5C 1020.72,512.886 1019.38,511.72 1018.5,510C 1019.73,508.595 1021.06,507.429 1022.5,506.5 Z"/></g>
<g><path style="opacity:1" fill="#080603" d="M 1022.5,506.5 C 1021.06,507.429 1019.73,508.595 1018.5,510C 1019.38,511.72 1020.72,512.886 1022.5,513.5C 1022.69,518.899 1022.19,524.233 1021,529.5C 1018.27,538.782 1015.6,538.782 1013,529.5C 1011.47,517.877 1011.14,506.21 1012,494.5C 1012.41,490.678 1014.07,487.678 1017,485.5C 1019.03,486.52 1020.36,488.187 1021,490.5C 1022.27,495.754 1022.77,501.087 1022.5,506.5 Z"/></g>
<g><path style="opacity:1" fill="#dd6812" d="M 1035.5,721.5 C 1011.88,722.298 988.713,725.964 966,732.5C 946.838,726.501 927.338,722.001 907.5,719C 898.833,718.333 890.167,718.333 881.5,719C 877.475,719.873 874.475,722.039 872.5,725.5C 869.92,711.873 867.42,698.207 865,684.5C 861.688,658.601 860.688,632.601 862,606.5C 862.691,599.379 864.024,592.379 866,585.5C 876.023,547.901 900.189,532.735 938.5,540C 943.492,542.161 948.159,544.828 952.5,548C 964.479,558.31 974.646,570.143 983,583.5C 998.952,611.406 1011.62,640.739 1021,671.5C 1025.28,688.439 1030.11,705.106 1035.5,721.5 Z"/></g>
<g><path style="opacity:0.486" fill="#d76a13" d="M 2541.5,536.5 C 2533.88,530.68 2525.54,525.847 2516.5,522C 2496.75,514.989 2476.42,511.322 2455.5,511C 2438.12,519.682 2422.12,530.349 2407.5,543C 2360.82,586.164 2326.49,637.664 2304.5,697.5C 2303.66,697.158 2303.33,696.492 2303.5,695.5C 2325.85,635.619 2360.51,584.119 2407.5,541C 2421.62,528.431 2437.29,518.097 2454.5,510C 2481.79,509.257 2507.46,515.257 2531.5,528C 2535.46,530.14 2538.8,532.973 2541.5,536.5 Z"/></g>
<g><path style="opacity:1" fill="#ad5611" d="M 2545.5,540.5 C 2547.91,541.911 2549.58,543.911 2550.5,546.5C 2548.09,545.089 2546.42,543.089 2545.5,540.5 Z"/></g>
<g><path style="opacity:0.784" fill="#ae5711" d="M 2550.5,546.5 C 2551.91,546.973 2552.57,547.973 2552.5,549.5C 2551.09,549.027 2550.43,548.027 2550.5,546.5 Z"/></g>
<g><path style="opacity:0.698" fill="#a6520f" d="M 2552.5,549.5 C 2553.91,549.973 2554.57,550.973 2554.5,552.5C 2553.09,552.027 2552.43,551.027 2552.5,549.5 Z"/></g>
<g><path style="opacity:1" fill="#070301" d="M 1092.5,559.5 C 1097.34,576.533 1100.67,593.866 1102.5,611.5C 1084.45,616.517 1066.12,617.683 1047.5,615C 1050.32,612.876 1052.82,610.376 1055,607.5C 1066.22,590.392 1075.89,572.392 1084,553.5C 1085.13,551.789 1086.63,551.289 1088.5,552C 1090,554.514 1091.34,557.014 1092.5,559.5 Z"/></g>
<g><path style="opacity:1" fill="#060302" d="M 1107.5,667.5 C 1108.93,667.881 1109.76,668.881 1110,670.5C 1110.81,680.244 1110.64,689.911 1109.5,699.5C 1098.84,702.663 1088.18,705.496 1077.5,708C 1080.37,705.463 1082.87,702.63 1085,699.5C 1089.41,691.005 1094.08,682.672 1099,674.5C 1101.42,671.577 1104.25,669.243 1107.5,667.5 Z"/></g>
<g><path style="opacity:0.996" fill="#e97517" d="M 2303.5,695.5 C 2303.33,696.492 2303.66,697.158 2304.5,697.5C 2306.5,704.666 2309,711.666 2312,718.5C 2344.56,783.895 2397.39,820.229 2470.5,827.5C 2456.19,883.683 2447.19,940.683 2443.5,998.5C 2372.32,987.233 2309.65,958.233 2255.5,911.5C 2259.65,851.924 2270.48,793.591 2288,736.5C 2292.51,722.462 2297.67,708.795 2303.5,695.5 Z"/></g>
<g><path style="opacity:1" fill="#ea3440" d="M 1035.5,721.5 C 1041.06,722.223 1044.06,725.39 1044.5,731C 1043.64,736.877 1041.31,742.044 1037.5,746.5C 1030.49,757.017 1022.16,766.517 1012.5,775C 996.115,789.023 977.115,796.023 955.5,796C 933.715,785.67 913.715,772.836 895.5,757.5C 887.928,751.434 880.762,744.767 874,737.5C 871.601,733.688 871.101,729.688 872.5,725.5C 874.475,722.039 877.475,719.873 881.5,719C 890.167,718.333 898.833,718.333 907.5,719C 927.338,722.001 946.838,726.501 966,732.5C 988.713,725.964 1011.88,722.298 1035.5,721.5 Z"/></g>
<g><path style="opacity:0.968" fill="#eb7a1f" d="M 1178.5,730.5 C 1180.76,734.683 1182.76,739.016 1184.5,743.5C 1177.89,745.104 1171.22,746.604 1164.5,748C 1169.03,741.979 1173.7,736.146 1178.5,730.5 Z"/></g>
<g><path style="opacity:0.99" fill="#ea771b" d="M 1191.5,755.5 C 1198.83,768.833 1206.17,782.167 1213.5,795.5C 1201.44,791.755 1189.11,789.421 1176.5,788.5C 1176.5,785.5 1176.5,782.5 1176.5,779.5C 1164.8,779.693 1153.14,779.193 1141.5,778C 1145.12,772.711 1149.12,767.711 1153.5,763C 1163.49,760.669 1173.49,758.335 1183.5,756C 1186.15,755.503 1188.81,755.336 1191.5,755.5 Z"/></g>
<g><path style="opacity:1" fill="#151412" d="M 758.5,766.5 C 764.488,766.664 765.821,769.164 762.5,774C 756.202,774.495 754.868,771.995 758.5,766.5 Z"/></g>
<g><path style="opacity:1" fill="#11100e" d="M 1071.5,768.5 C 1076.01,767.527 1078.17,769.194 1078,773.5C 1071.64,777.201 1069.48,775.534 1071.5,768.5 Z"/></g>
<g><path style="opacity:1" fill="#181614" d="M 778.5,774.5 C 784.951,774.092 786.618,776.592 783.5,782C 777.785,782.401 776.119,779.901 778.5,774.5 Z"/></g>
<g><path style="opacity:1" fill="#121110" d="M 1054.5,775.5 C 1061,775.138 1062.67,777.638 1059.5,783C 1053.79,783.401 1052.12,780.901 1054.5,775.5 Z"/></g>
<g><path style="opacity:1" fill="#0b0a09" d="M 1036.5,781.5 C 1041.01,780.527 1043.17,782.194 1043,786.5C 1036.64,790.201 1034.48,788.534 1036.5,781.5 Z"/></g>
<g><path style="opacity:1" fill="#171614" d="M 801.5,785.5 C 807.704,785.314 809.037,787.814 805.5,793C 799.403,793.147 798.07,790.647 801.5,785.5 Z"/></g>
<g><path style="opacity:1" fill="#131210" d="M 753.5,786.5 C 759.313,786.062 760.98,788.562 758.5,794C 752.593,794.746 750.927,792.246 753.5,786.5 Z"/></g>
<g><path style="opacity:1" fill="#181715" d="M 1074.5,786.5 C 1081,786.138 1082.67,788.638 1079.5,794C 1073.59,794.746 1071.93,792.246 1074.5,786.5 Z"/></g>
<g><path style="opacity:1" fill="#151413" d="M 1059.5,796.5 C 1065.7,796.314 1067.04,798.814 1063.5,804C 1057.4,804.147 1056.07,801.647 1059.5,796.5 Z"/></g>
<g><path style="opacity:1" fill="#0d0c0b" d="M 778.5,798.5 C 783.006,797.527 785.172,799.194 785,803.5C 783.116,805.576 780.949,805.91 778.5,804.5C 777.181,802.468 777.181,800.468 778.5,798.5 Z"/></g>
<g><path style="opacity:1" fill="#141311" d="M 1040.5,799.5 C 1047,799.138 1048.67,801.638 1045.5,807C 1039.79,807.401 1038.12,804.901 1040.5,799.5 Z"/></g>
<g><path style="opacity:0.999" fill="#e97518" d="M 1222.5,809.5 C 1243.32,846.478 1265.65,882.478 1289.5,917.5C 1287.72,918.574 1286.55,920.24 1286,922.5C 1276.81,951.799 1271.47,981.799 1270,1012.5C 1268.27,1058.82 1271.27,1104.82 1279,1150.5C 1298.65,1243.69 1312.98,1337.69 1322,1432.5C 1322.33,1443.52 1323,1454.52 1324,1465.5C 1324.33,1559.83 1324.67,1654.17 1325,1748.5C 1353.07,1637.57 1367.23,1524.9 1367.5,1410.5C 1367.53,1391.82 1367.03,1373.15 1366,1354.5C 1360.25,1315.57 1354.91,1276.57 1350,1237.5C 1343.29,1184.37 1340.62,1131.03 1342,1077.5C 1342.75,1061.92 1345.08,1046.59 1349,1031.5C 1351.02,1024.46 1353.85,1017.79 1357.5,1011.5C 1382.42,1042.09 1408.08,1072.09 1434.5,1101.5C 1436.43,1197.85 1438.93,1294.18 1442,1390.5C 1450.37,1384.11 1456.04,1375.78 1459,1365.5C 1466.14,1342.01 1470.47,1318.01 1472,1293.5C 1478.46,1249.47 1484.96,1205.47 1491.5,1161.5C 1511.19,1179.53 1530.86,1197.53 1550.5,1215.5C 1548.98,1215.49 1547.82,1214.82 1547,1213.5C 1562.57,1250.17 1568.57,1288.51 1565,1328.5C 1564.36,1342.3 1562.69,1355.96 1560,1369.5C 1549.95,1407.38 1541.95,1445.71 1536,1484.5C 1531.54,1512.49 1531.37,1540.49 1535.5,1568.5C 1517.4,1663.04 1476.23,1745.7 1412,1816.5C 1411.33,1817.17 1411.33,1817.83 1412,1818.5C 1497.8,1757.31 1555.8,1675.97 1586,1574.5C 1594.55,1543.62 1600.89,1512.28 1605,1480.5C 1608.39,1464.93 1612.73,1449.59 1618,1434.5C 1635.35,1393.6 1653.19,1352.94 1671.5,1312.5C 1714.15,1351.58 1753.81,1393.25 1790.5,1437.5C 1789.12,1471.47 1792.62,1505.14 1801,1538.5C 1805.8,1557.22 1810.8,1575.89 1816,1594.5C 1829.76,1658.26 1825.09,1720.59 1802,1781.5C 1783.96,1820.61 1769.3,1860.95 1758,1902.5C 1755.74,1913.12 1753.74,1923.78 1752,1934.5C 1750.88,1944.65 1751.54,1954.65 1754,1964.5C 1768.57,1923.36 1786.9,1884.03 1809,1846.5C 1816.27,1834.97 1824.27,1823.97 1833,1813.5C 1862.63,1749.6 1885.3,1683.27 1901,1614.5C 1902.61,1604.49 1904.11,1594.49 1905.5,1584.5C 1932.89,1622.26 1958.56,1661.26 1982.5,1701.5C 1974.97,1715.96 1972.47,1731.3 1975,1747.5C 1987.01,1802.25 1990.67,1857.58 1986,1913.5C 1980.8,1987.3 1961.13,2056.97 1927,2122.5C 1913.54,2139.63 1898.37,2155.13 1881.5,2169C 1865.03,2181.74 1848.03,2193.74 1830.5,2205C 1796.68,2230.47 1771.52,2262.64 1755,2301.5C 1750.59,2313.82 1747.75,2326.49 1746.5,2339.5C 1745.18,2346.01 1745.18,2352.68 1746.5,2359.5C 1747.11,2359.38 1747.44,2359.04 1747.5,2358.5C 1756.77,2343.64 1767.27,2329.64 1779,2316.5C 1828.76,2265.37 1884.26,2221.87 1945.5,2186C 1976.52,2160.16 1999.35,2128.32 2014,2090.5C 2023.63,2064.97 2029.96,2038.64 2033,2011.5C 2050.79,1987.37 2071.63,1966.21 2095.5,1948C 2099.37,1945.57 2103.37,1943.4 2107.5,1941.5C 2122.18,1972.53 2135.51,2004.2 2147.5,2036.5C 2145.54,2033.82 2144.04,2030.82 2143,2027.5C 2128.51,2079.33 2101.68,2123.5 2062.5,2160C 2063.65,2161.86 2065.31,2162.69 2067.5,2162.5C 2085.85,2166.04 2103.85,2164.88 2121.5,2159C 2143.05,2151.32 2161.88,2139.49 2178,2123.5C 2178.48,2122.55 2178.65,2121.55 2178.5,2120.5C 2192.42,2159.1 2204.25,2198.43 2214,2238.5C 2219.59,2256.68 2227.59,2273.68 2238,2289.5C 2243.7,2296.36 2249.87,2302.7 2256.5,2308.5C 2255.47,2308.9 2255.31,2309.56 2256,2310.5C 2297,2385.83 2338,2461.17 2379,2536.5C 2363.2,2462.07 2346.87,2387.73 2330,2313.5C 2329.59,2313.04 2329.09,2312.71 2328.5,2312.5C 2318.84,2317.83 2308.51,2320.5 2297.5,2320.5C 2308.73,2319.15 2319.4,2315.65 2329.5,2310C 2356.2,2284.29 2377.04,2254.46 2392,2220.5C 2398.03,2205.24 2403.53,2189.9 2408.5,2174.5C 2408.5,2175.17 2408.5,2175.83 2408.5,2176.5C 2407.77,2181.72 2406.77,2186.88 2405.5,2192C 2405.56,2193.44 2405.89,2194.77 2406.5,2196C 2439.58,2212.57 2474.58,2219.57 2511.5,2217C 2527.26,2214.97 2541.93,2209.97 2555.5,2202C 2516.65,2202.49 2481.98,2190.83 2451.5,2167C 2445.67,2161.83 2439.83,2156.67 2434,2151.5C 2428.59,2145.6 2423.43,2139.6 2418.5,2133.5C 2427.77,2077.89 2431.44,2021.89 2429.5,1965.5C 2443.43,1970.31 2457.77,1975.15 2472.5,1980C 2501.96,1988.51 2531.96,1991.34 2562.5,1988.5C 2568.14,2031.81 2573.64,2075.14 2579,2118.5C 2582.48,2201.65 2577.81,2284.31 2565,2366.5C 2557.32,2413.54 2543.99,2458.87 2525,2502.5C 2507.45,2542.46 2481.62,2575.96 2447.5,2603C 2406.61,2632.51 2361.44,2642.35 2312,2632.5C 2313.8,2649.25 2314.97,2666.08 2315.5,2683C 2316.18,2714.6 2309.35,2744.44 2295,2772.5C 2292.74,2776.01 2290.24,2779.35 2287.5,2782.5C 2268.65,2788.7 2249.32,2792.87 2229.5,2795C 2152.39,2803.98 2075.06,2810.32 1997.5,2814C 1949.52,2816.53 1901.52,2818.53 1853.5,2820C 1811.79,2824.66 1769.95,2827.49 1728,2828.5C 1712.77,2828.09 1697.6,2826.93 1682.5,2825C 1672.39,2823.86 1663.56,2820.03 1656,2813.5C 1655.59,2812.1 1655.09,2810.77 1654.5,2809.5C 1656.47,2808.84 1658.47,2808.17 1660.5,2807.5C 1658.91,2782.17 1667.25,2760.67 1685.5,2743C 1707.56,2725.48 1732.56,2714.14 1760.5,2709C 1789.87,2703.02 1819.54,2700.52 1849.5,2701.5C 1849.5,2696.83 1849.5,2692.17 1849.5,2687.5C 1807.89,2686.36 1767.23,2691.86 1727.5,2704C 1704.23,2711.62 1684.4,2724.45 1668,2742.5C 1651.56,2762.26 1645.06,2784.93 1648.5,2810.5C 1628.47,2815.84 1608.13,2817.34 1587.5,2815C 1571.67,2812.66 1561.67,2803.83 1557.5,2788.5C 1540.92,2795.13 1523.92,2796.63 1506.5,2793C 1492.33,2789.33 1482.33,2780.83 1476.5,2767.5C 1473.73,2756 1472.9,2744.33 1474,2732.5C 1478.5,2717.33 1487,2704.83 1499.5,2695C 1517.34,2682.37 1536.67,2672.37 1557.5,2665C 1594.35,2653.1 1632.01,2644.76 1670.5,2640C 1729.58,2632.5 1788.92,2628.83 1848.5,2629C 1823.83,2603 1799.17,2577 1774.5,2551C 1699.58,2493.55 1651.58,2418.72 1630.5,2326.5C 1626.01,2293.98 1624.18,2261.31 1625,2228.5C 1625.34,2225.12 1625.84,2221.79 1626.5,2218.5C 1626.87,2206.31 1628.53,2194.31 1631.5,2182.5C 1633.72,2183.37 1636.05,2183.7 1638.5,2183.5C 1644.72,2153.73 1656.89,2126.73 1675,2102.5C 1679.24,2097.59 1684.08,2093.42 1689.5,2090C 1686.94,2086.37 1684.28,2082.87 1681.5,2079.5C 1668.35,2089.15 1657.85,2101.15 1650,2115.5C 1644.9,2125.03 1640.4,2134.69 1636.5,2144.5C 1599.27,2105.26 1557.6,2071.59 1511.5,2043.5C 1515.33,2030.19 1518.83,2016.86 1522,2003.5C 1513.97,2014.35 1505.8,2025.02 1497.5,2035.5C 1428.8,1994.27 1354.46,1970.27 1274.5,1963.5C 1270.83,1963.67 1267.17,1963.83 1263.5,1964C 1258.4,1972.7 1254.23,1981.87 1251,1991.5C 1247.02,2003.26 1243.19,2014.93 1239.5,2026.5C 1240.86,2018.74 1242.36,2011.07 1244,2003.5C 1226.98,2028.86 1203.14,2039.36 1172.5,2035C 1145.57,2028.7 1121.91,2016.37 1101.5,1998C 1100.58,1997.63 1099.75,1997.13 1099,1996.5C 1109.56,2025.76 1126.73,2050.59 1150.5,2071C 1171.7,2088.23 1196.04,2096.4 1223.5,2095.5C 1217.99,2120.03 1212.99,2144.7 1208.5,2169.5C 1199.23,2189.95 1186.57,2208.12 1170.5,2224C 1155.97,2236.9 1138.97,2243.4 1119.5,2243.5C 1102.92,2243.36 1087.59,2238.86 1073.5,2230C 1056.43,2215.65 1037.76,2212.98 1017.5,2222C 1011.5,2226 1006.5,2231 1002.5,2237C 1016.82,2240.16 1029.48,2246.49 1040.5,2256C 1059.33,2279.09 1083.33,2294.09 1112.5,2301C 1141.69,2305.12 1167.36,2297.62 1189.5,2278.5C 1186.5,2298.46 1183.84,2318.46 1181.5,2338.5C 1160.07,2481.48 1141.73,2624.64 1126.5,2768C 1099.51,2804.02 1063.35,2821.52 1018,2820.5C 990.92,2820.18 964.753,2815.18 939.5,2805.5C 941.792,2803.73 944.458,2802.73 947.5,2802.5C 945.831,2793.49 943.997,2784.49 942,2775.5C 936.89,2737.48 953.056,2715.15 990.5,2708.5C 989.833,2702.5 989.167,2696.5 988.5,2690.5C 953.254,2693.51 931.754,2712.18 924,2746.5C 921.689,2767.03 923.855,2787.03 930.5,2806.5C 931,2806.83 931.5,2807.17 932,2807.5C 934.154,2806.73 936.321,2806.06 938.5,2805.5C 921.682,2818.99 902.348,2825.33 880.5,2824.5C 855.535,2824.43 832.202,2818.43 810.5,2806.5C 812.019,2805.59 813.685,2804.76 815.5,2804C 816.059,2803.28 816.392,2802.44 816.5,2801.5C 809.985,2785.43 807.152,2768.76 808,2751.5C 811.526,2724.79 826.026,2706.79 851.5,2697.5C 852.614,2696.28 852.781,2694.94 852,2693.5C 850.116,2688.67 847.949,2684 845.5,2679.5C 798.382,2700.74 780.882,2736.74 793,2787.5C 795.325,2794.47 797.492,2801.47 799.5,2808.5C 777.559,2811.66 755.559,2812.16 733.5,2810C 676.772,2798.95 653.938,2765.12 665,2708.5C 671.969,2680.86 688.802,2662.03 715.5,2652C 740.041,2644.57 765.041,2642.57 790.5,2646C 802.486,2647.36 814.319,2649.53 826,2652.5C 826.5,2652.17 827,2651.83 827.5,2651.5C 837.231,2618.91 845.231,2585.91 851.5,2552.5C 852.97,2549.05 854.136,2545.38 855,2541.5C 873.986,2443.25 890.486,2344.58 904.5,2245.5C 908.993,2217.3 913.327,2188.96 917.5,2160.5C 921.845,2126.1 926.511,2091.77 931.5,2057.5C 963.682,2073.21 997.682,2081.71 1033.5,2083C 991.11,2066.11 959.776,2037.27 939.5,1996.5C 950.158,1914.57 960.325,1832.57 970,1750.5C 970.808,1746.97 970.641,1743.64 969.5,1740.5C 978.718,1736.56 987.718,1732.06 996.5,1727C 1051.21,1688.3 1095.38,1640.13 1129,1582.5C 1166.78,1513.61 1181.44,1440.28 1173,1362.5C 1154.04,1443.73 1120.04,1517.73 1071,1584.5C 1045.18,1618.29 1014.68,1646.96 979.5,1670.5C 986.532,1609.88 993.198,1549.22 999.5,1488.5C 1040.28,1447.53 1073.12,1400.86 1098,1348.5C 1105.82,1332.05 1111.82,1315.05 1116,1297.5C 1080.27,1333.06 1044.77,1368.73 1009.5,1404.5C 1011.28,1384.48 1013.28,1364.48 1015.5,1344.5C 1050.39,1299.72 1075.56,1249.72 1091,1194.5C 1097.93,1171.46 1103.26,1148.13 1107,1124.5C 1088.88,1181.77 1060.71,1233.11 1022.5,1278.5C 1029.36,1210.86 1036.03,1143.19 1042.5,1075.5C 1045.62,1050.02 1048.28,1024.35 1050.5,998.5C 1067.63,996.658 1084.97,995.491 1102.5,995C 1104.26,994.798 1105.92,994.298 1107.5,993.5C 1120.04,964.26 1132.7,935.093 1145.5,906C 1136.01,898.755 1126.34,891.755 1116.5,885C 1133.37,875.902 1147.37,863.569 1158.5,848C 1160.6,848.032 1162.6,848.699 1164.5,850C 1175.95,857.78 1187.11,865.947 1198,874.5C 1197.97,872.402 1197.3,870.402 1196,868.5C 1187.62,855.95 1177.12,845.617 1164.5,837.5C 1170.2,825.407 1173.86,812.741 1175.5,799.5C 1191.39,801.812 1207.06,805.145 1222.5,809.5 Z"/></g>
<g><path style="opacity:1" fill="#0f0e0d" d="M 1082.5,804.5 C 1087.26,805.092 1088.6,807.592 1086.5,812C 1080.2,812.495 1078.87,809.995 1082.5,804.5 Z"/></g>
<g><path style="opacity:1" fill="#090807" d="M 754.5,808.5 C 759.006,807.527 761.172,809.194 761,813.5C 754.645,817.201 752.478,815.534 754.5,808.5 Z"/></g>
<g><path style="opacity:1" fill="#171614" d="M 801.5,809.5 C 807.704,809.314 809.037,811.814 805.5,817C 799.403,817.147 798.07,814.647 801.5,809.5 Z"/></g>
<g><path style="opacity:1" fill="#0f0e0c" d="M 1067.5,813.5 C 1073.49,813.664 1074.82,816.164 1071.5,821C 1069.89,821.72 1068.39,821.554 1067,820.5C 1066.3,818.071 1066.46,815.738 1067.5,813.5 Z"/></g>
<g><path style="opacity:1" fill="#161513" d="M 1048.5,817.5 C 1052.06,816.891 1054.06,818.391 1054.5,822C 1052.93,825.452 1050.43,826.286 1047,824.5C 1046.17,821.829 1046.67,819.496 1048.5,817.5 Z"/></g>
<g><path style="opacity:1" fill="#050504" d="M 739.5,852.5 C 735.843,847.196 732.177,841.862 728.5,836.5C 729.34,835.265 730.34,834.265 731.5,833.5C 733.912,831.547 736.579,830.38 739.5,830C 752.876,849.043 769.209,865.043 788.5,878C 812.356,891.982 837.69,895.648 864.5,889C 901.228,877.269 931.728,856.436 956,826.5C 963.065,843.229 973.565,857.395 987.5,869C 1003.46,881.157 1021.46,886.157 1041.5,884C 1058.71,883.305 1073.21,876.805 1085,864.5C 1093.83,851.156 1099,836.489 1100.5,820.5C 1104.38,820.499 1108.21,821.499 1112,823.5C 1111.55,835.296 1108.89,846.63 1104,857.5C 1097.6,870.897 1088.1,881.397 1075.5,889C 1024.12,908.316 983.283,895.149 953,849.5C 943.126,858.376 932.959,866.876 922.5,875C 854.517,921.35 793.517,913.85 739.5,852.5 Z"/></g>
<g><path style="opacity:1" fill="#161513" d="M 780.5,823.5 C 786.729,823.027 788.395,825.36 785.5,830.5C 783.833,831.833 782.167,831.833 780.5,830.5C 779.286,828.141 779.286,825.808 780.5,823.5 Z"/></g>
<g><path style="opacity:1" fill="#100f0e" d="M 802.5,835.5 C 807.006,834.527 809.172,836.194 809,840.5C 802.645,844.201 800.478,842.534 802.5,835.5 Z"/></g>
<g><path style="opacity:1" fill="#010000" d="M 2255.5,911.5 C 2309.65,958.233 2372.32,987.233 2443.5,998.5C 2444.16,1019.86 2443.49,1040.86 2441.5,1061.5C 2400.12,1063.32 2360.12,1056.82 2321.5,1042C 2293.41,1030.73 2270.07,1013.23 2251.5,989.5C 2251.5,986.833 2251.5,984.167 2251.5,981.5C 2252.47,973.34 2253.14,965.007 2253.5,956.5C 2254.02,946.174 2254.35,935.841 2254.5,925.5C 2254.18,920.637 2254.51,915.97 2255.5,911.5 Z"/></g>
<g><path style="opacity:1" fill="#cec0b2" d="M 852.5,917.5 C 865.196,930.03 879.196,940.864 894.5,950C 923.159,964.461 951.492,963.795 979.5,948C 992.63,940.014 1003.8,929.847 1013,917.5C 1016.36,920.358 1019.86,923.025 1023.5,925.5C 997.207,961.477 961.874,976.977 917.5,972C 889.156,963.914 864.989,949.081 845,927.5C 844.333,926.833 844.333,926.167 845,925.5C 847.705,922.964 850.205,920.297 852.5,917.5 Z"/></g>
<g><path style="opacity:0.999" fill="#010000" d="M 1289.5,917.5 C 1312.55,948.548 1335.21,979.882 1357.5,1011.5C 1353.85,1017.79 1351.02,1024.46 1349,1031.5C 1345.08,1046.59 1342.75,1061.92 1342,1077.5C 1340.62,1131.03 1343.29,1184.37 1350,1237.5C 1354.91,1276.57 1360.25,1315.57 1366,1354.5C 1367.03,1373.15 1367.53,1391.82 1367.5,1410.5C 1367.23,1524.9 1353.07,1637.57 1325,1748.5C 1324.67,1654.17 1324.33,1559.83 1324,1465.5C 1323,1454.52 1322.33,1443.52 1322,1432.5C 1312.98,1337.69 1298.65,1243.69 1279,1150.5C 1271.27,1104.82 1268.27,1058.82 1270,1012.5C 1271.47,981.799 1276.81,951.799 1286,922.5C 1286.55,920.24 1287.72,918.574 1289.5,917.5 Z"/></g>
<g><path style="opacity:1" fill="#ae5710" d="M 2254.5,925.5 C 2254.35,935.841 2254.02,946.174 2253.5,956.5C 2253.17,956.5 2252.83,956.5 2252.5,956.5C 2252.55,945.976 2253.22,935.643 2254.5,925.5 Z"/></g>
<g><path style="opacity:1" fill="#e5d5c0" d="M 1050.5,998.5 C 1048.28,1024.35 1045.62,1050.02 1042.5,1075.5C 996.634,1101.59 947.967,1120.76 896.5,1133C 769.164,1158.18 657.997,1127.01 563,1039.5C 562.722,1040.42 562.222,1041.08 561.5,1041.5C 565.629,1019.52 569.629,997.522 573.5,975.5C 583.242,972.961 591.908,968.294 599.5,961.5C 597.612,977.146 600.112,992.146 607,1006.5C 622.11,1027.1 642.277,1034.26 667.5,1028C 699.551,1020.79 731.885,1015.12 764.5,1011C 789.723,1008.84 813.389,1013.84 835.5,1026C 866.059,1052.61 886.892,1085.44 898,1124.5C 913.628,1106.58 923.961,1085.91 929,1062.5C 934.378,1074.26 940.045,1085.92 946,1097.5C 963.165,1080.34 978.832,1062.01 993,1042.5C 1002.2,1029.77 1008.37,1015.77 1011.5,1000.5C 1024.5,999.776 1037.5,999.109 1050.5,998.5 Z"/></g>
<g><path style="opacity:0.994" fill="#ea7619" d="M 573.5,975.5 C 569.629,997.522 565.629,1019.52 561.5,1041.5C 553.652,1080.41 546.319,1119.41 539.5,1158.5C 533.351,1097.72 528.018,1036.72 523.5,975.5C 523.351,974.448 523.517,973.448 524,972.5C 540.241,977.735 556.741,978.735 573.5,975.5 Z"/></g>
<g><path style="opacity:0.702" fill="#9f4f0f" d="M 2252.5,956.5 C 2252.83,956.5 2253.17,956.5 2253.5,956.5C 2253.14,965.007 2252.47,973.34 2251.5,981.5C 2251.43,973.146 2251.76,964.812 2252.5,956.5 Z"/></g>
<g><path style="opacity:0.996" fill="#e97517" d="M 2251.5,989.5 C 2270.07,1013.23 2293.41,1030.73 2321.5,1042C 2360.12,1056.82 2400.12,1063.32 2441.5,1061.5C 2439.76,1151.9 2444.59,1242.23 2456,1332.5C 2468.97,1383.34 2479.64,1434.67 2488,1486.5C 2501.09,1562.98 2512.93,1639.65 2523.5,1716.5C 2522.53,1712.84 2521.36,1709.17 2520,1705.5C 2501.51,1735 2476.68,1757.5 2445.5,1773C 2436.29,1777.4 2426.95,1781.4 2417.5,1785C 2456.61,1790.81 2495.94,1793.31 2535.5,1792.5C 2541.93,1840.16 2548.26,1887.82 2554.5,1935.5C 2552.25,1923.65 2550.08,1911.65 2548,1899.5C 2535.74,1917.07 2518.9,1927.24 2497.5,1930C 2472.53,1932.24 2448.86,1927.74 2426.5,1916.5C 2419.76,1833.06 2406.43,1750.73 2386.5,1669.5C 2408.59,1661.62 2430.59,1653.46 2452.5,1645C 2427.67,1640.57 2402.67,1636.74 2377.5,1633.5C 2343.15,1513.11 2313.99,1391.45 2290,1268.5C 2283.92,1237.59 2278.42,1206.59 2273.5,1175.5C 2300.22,1188.79 2328.55,1196.29 2358.5,1198C 2372.65,1198.98 2386.65,1198.65 2400.5,1197C 2346.92,1180.86 2301.25,1152.36 2263.5,1111.5C 2259.09,1079.91 2255.26,1048.25 2252,1016.5C 2251.5,1007.51 2251.33,998.506 2251.5,989.5 Z"/></g>
<g><path style="opacity:0.999" fill="#feebd2" d="M 1042.5,1075.5 C 1036.03,1143.19 1029.36,1210.86 1022.5,1278.5C 966.841,1345.02 897.175,1390.52 813.5,1415C 894.764,1430.85 962.097,1407.35 1015.5,1344.5C 1013.28,1364.48 1011.28,1384.48 1009.5,1404.5C 970.007,1444.16 930.674,1483.99 891.5,1524C 875.295,1538.54 858.795,1552.71 842,1566.5C 820.121,1592.47 810.454,1622.47 813,1656.5C 818.662,1645.85 825.329,1635.85 833,1626.5C 848.532,1609.3 865.032,1593.13 882.5,1578C 925.076,1552.93 964.076,1523.1 999.5,1488.5C 993.198,1549.22 986.532,1609.88 979.5,1670.5C 937.449,1702.54 905.449,1742.54 883.5,1790.5C 884.002,1791.52 884.668,1791.69 885.5,1791C 911.067,1770.37 939.067,1753.54 969.5,1740.5C 970.641,1743.64 970.808,1746.97 970,1750.5C 960.325,1832.57 950.158,1914.57 939.5,1996.5C 936.273,2016.75 933.607,2037.09 931.5,2057.5C 926.511,2091.77 921.845,2126.1 917.5,2160.5C 896.335,2147.01 874.669,2134.34 852.5,2122.5C 852.333,2087.5 852.5,2052.5 853,2017.5C 871.78,2046.57 892.947,2073.4 916.5,2098C 919.312,2095.1 922.312,2092.43 925.5,2090C 892.408,2053.24 863.575,2013.41 839,1970.5C 838.667,2002.83 838.333,2035.17 838,2067.5C 814.105,2006.71 789.938,1946.05 765.5,1885.5C 761.304,1886.78 757.304,1888.45 753.5,1890.5C 759.478,1917.41 753.978,1941.74 737,1963.5C 729.496,1922.32 720.829,1881.32 711,1840.5C 707.978,1829.08 704.645,1817.75 701,1806.5C 698.078,1797.32 694.078,1788.66 689,1780.5C 685.049,1782.62 681.549,1785.29 678.5,1788.5C 689.555,1812.5 697.722,1837.5 703,1863.5C 712.915,1906.5 721.248,1949.83 728,1993.5C 749.04,1975.29 762.706,1953.29 769,1927.5C 794.077,1990.9 819.243,2054.24 844.5,2117.5C 821.674,2105.72 797.674,2097.22 772.5,2092C 768.5,2091.33 764.5,2091.33 760.5,2092C 795.83,2120.99 829.664,2151.82 862,2184.5C 875.482,2199.64 887.815,2215.64 899,2232.5C 901.397,2236.62 903.231,2240.96 904.5,2245.5C 890.486,2344.58 873.986,2443.25 855,2541.5C 854.136,2545.38 852.97,2549.05 851.5,2552.5C 777.848,2310.37 703.681,2068.37 629,1826.5C 604.873,1748.33 587.54,1668.66 577,1587.5C 569.507,1515.59 563.007,1443.59 557.5,1371.5C 591.637,1397.6 630.304,1411.1 673.5,1412C 661.541,1406.36 650.207,1399.69 639.5,1392C 615.571,1372.07 594.405,1349.57 576,1324.5C 566.895,1311.27 558.061,1297.94 549.5,1284.5C 546.167,1242.5 542.833,1200.5 539.5,1158.5C 546.319,1119.41 553.652,1080.41 561.5,1041.5C 562.222,1041.08 562.722,1040.42 563,1039.5C 657.997,1127.01 769.164,1158.18 896.5,1133C 947.967,1120.76 996.634,1101.59 1042.5,1075.5 Z"/></g>
<g><path style="opacity:0.997" fill="#020100" d="M 1434.5,1101.5 C 1453.95,1121.08 1472.95,1141.08 1491.5,1161.5C 1484.96,1205.47 1478.46,1249.47 1472,1293.5C 1470.47,1318.01 1466.14,1342.01 1459,1365.5C 1456.04,1375.78 1450.37,1384.11 1442,1390.5C 1438.93,1294.18 1436.43,1197.85 1434.5,1101.5 Z"/></g>
<g><path style="opacity:1" fill="#060200" d="M 2263.5,1111.5 C 2301.25,1152.36 2346.92,1180.86 2400.5,1197C 2386.65,1198.65 2372.65,1198.98 2358.5,1198C 2328.55,1196.29 2300.22,1188.79 2273.5,1175.5C 2269.95,1154.21 2266.62,1132.88 2263.5,1111.5 Z"/></g>
<g><path style="opacity:1" fill="#030201" d="M 1015.5,1344.5 C 962.097,1407.35 894.764,1430.85 813.5,1415C 897.175,1390.52 966.841,1345.02 1022.5,1278.5C 1060.71,1233.11 1088.88,1181.77 1107,1124.5C 1103.26,1148.13 1097.93,1171.46 1091,1194.5C 1075.56,1249.72 1050.39,1299.72 1015.5,1344.5 Z"/></g>
<g><path style="opacity:1" fill="#010000" d="M 1550.5,1215.5 C 1551.91,1217.91 1553.91,1219.58 1556.5,1220.5C 1557.91,1222.91 1559.91,1224.58 1562.5,1225.5C 1563.87,1227.86 1565.87,1229.53 1568.5,1230.5C 1569.58,1232.59 1571.25,1233.92 1573.5,1234.5C 1574.58,1236.59 1576.25,1237.92 1578.5,1238.5C 1579.54,1240.53 1581.21,1241.86 1583.5,1242.5C 1589.6,1248.26 1596.26,1253.26 1603.5,1257.5C 1603.97,1258.91 1604.97,1259.57 1606.5,1259.5C 1607.17,1259.5 1607.5,1259.83 1607.5,1260.5C 1607.97,1261.91 1608.97,1262.57 1610.5,1262.5C 1611.26,1264.26 1612.6,1265.26 1614.5,1265.5C 1615.26,1267.26 1616.6,1268.26 1618.5,1268.5C 1619.26,1270.26 1620.6,1271.26 1622.5,1271.5C 1623.17,1271.5 1623.5,1271.83 1623.5,1272.5C 1624.26,1274.26 1625.6,1275.26 1627.5,1275.5C 1628.26,1277.26 1629.6,1278.26 1631.5,1278.5C 1632.5,1278.83 1633.17,1279.5 1633.5,1280.5C 1633.97,1281.91 1634.97,1282.57 1636.5,1282.5C 1637.17,1282.5 1637.5,1282.83 1637.5,1283.5C 1638.26,1285.26 1639.6,1286.26 1641.5,1286.5C 1642.5,1286.83 1643.17,1287.5 1643.5,1288.5C 1644.26,1290.26 1645.6,1291.26 1647.5,1291.5C 1648.5,1291.83 1649.17,1292.5 1649.5,1293.5C 1650.58,1295.59 1652.25,1296.92 1654.5,1297.5C 1656.52,1300.52 1659.19,1302.85 1662.5,1304.5C 1664.85,1307.85 1667.85,1310.52 1671.5,1312.5C 1653.19,1352.94 1635.35,1393.6 1618,1434.5C 1612.73,1449.59 1608.39,1464.93 1605,1480.5C 1600.89,1512.28 1594.55,1543.62 1586,1574.5C 1555.8,1675.97 1497.8,1757.31 1412,1818.5C 1411.33,1817.83 1411.33,1817.17 1412,1816.5C 1476.23,1745.7 1517.4,1663.04 1535.5,1568.5C 1531.37,1540.49 1531.54,1512.49 1536,1484.5C 1541.95,1445.71 1549.95,1407.38 1560,1369.5C 1562.69,1355.96 1564.36,1342.3 1565,1328.5C 1568.57,1288.51 1562.57,1250.17 1547,1213.5C 1547.82,1214.82 1548.98,1215.49 1550.5,1215.5 Z"/></g>
<g><path style="opacity:0.059" fill="#d36711" d="M 1550.5,1215.5 C 1553.09,1216.42 1555.09,1218.09 1556.5,1220.5C 1553.91,1219.58 1551.91,1217.91 1550.5,1215.5 Z"/></g>
<g><path style="opacity:0.102" fill="#d66712" d="M 1556.5,1220.5 C 1559.09,1221.42 1561.09,1223.09 1562.5,1225.5C 1559.91,1224.58 1557.91,1222.91 1556.5,1220.5 Z"/></g>
<g><path style="opacity:0.047" fill="#bc5c13" d="M 1562.5,1225.5 C 1565.11,1226.44 1567.11,1228.11 1568.5,1230.5C 1565.87,1229.53 1563.87,1227.86 1562.5,1225.5 Z"/></g>
<g><path style="opacity:0.075" fill="#d66c10" d="M 1568.5,1230.5 C 1570.75,1231.08 1572.42,1232.41 1573.5,1234.5C 1571.25,1233.92 1569.58,1232.59 1568.5,1230.5 Z"/></g>
<g><path style="opacity:0.075" fill="#d76710" d="M 1573.5,1234.5 C 1575.75,1235.08 1577.42,1236.41 1578.5,1238.5C 1576.25,1237.92 1574.58,1236.59 1573.5,1234.5 Z"/></g>
<g><path style="opacity:0.098" fill="#b65a13" d="M 1578.5,1238.5 C 1580.75,1239.12 1582.42,1240.46 1583.5,1242.5C 1581.21,1241.86 1579.54,1240.53 1578.5,1238.5 Z"/></g>
<g><path style="opacity:0.761" fill="#cd6511" d="M 1583.5,1242.5 C 1590.74,1246.74 1597.4,1251.74 1603.5,1257.5C 1596.26,1253.26 1589.6,1248.26 1583.5,1242.5 Z"/></g>
<g><path style="opacity:0.039" fill="#d56b14" d="M 1603.5,1257.5 C 1605.03,1257.43 1606.03,1258.09 1606.5,1259.5C 1604.97,1259.57 1603.97,1258.91 1603.5,1257.5 Z"/></g>
<g><path style="opacity:0.078" fill="#c8610f" d="M 1607.5,1260.5 C 1609.03,1260.43 1610.03,1261.09 1610.5,1262.5C 1608.97,1262.57 1607.97,1261.91 1607.5,1260.5 Z"/></g>
<g><path style="opacity:0.125" fill="#cd6711" d="M 1610.5,1262.5 C 1612.4,1262.74 1613.74,1263.74 1614.5,1265.5C 1612.6,1265.26 1611.26,1264.26 1610.5,1262.5 Z"/></g>
<g><path style="opacity:0.118" fill="#ce670e" d="M 1614.5,1265.5 C 1616.4,1265.74 1617.74,1266.74 1618.5,1268.5C 1616.6,1268.26 1615.26,1267.26 1614.5,1265.5 Z"/></g>
<g><path style="opacity:0.094" fill="#d36310" d="M 1618.5,1268.5 C 1620.4,1268.74 1621.74,1269.74 1622.5,1271.5C 1620.6,1271.26 1619.26,1270.26 1618.5,1268.5 Z"/></g>
<g><path style="opacity:0.043" fill="#c26112" d="M 1623.5,1272.5 C 1625.4,1272.74 1626.74,1273.74 1627.5,1275.5C 1625.6,1275.26 1624.26,1274.26 1623.5,1272.5 Z"/></g>
<g><path style="opacity:0.008" fill="#cf670d" d="M 1627.5,1275.5 C 1629.4,1275.74 1630.74,1276.74 1631.5,1278.5C 1629.6,1278.26 1628.26,1277.26 1627.5,1275.5 Z"/></g>
<g><path style="opacity:0.086" fill="#c25f13" d="M 1633.5,1280.5 C 1635.03,1280.43 1636.03,1281.09 1636.5,1282.5C 1634.97,1282.57 1633.97,1281.91 1633.5,1280.5 Z"/></g>
<g><path style="opacity:0.008" fill="#d2680e" d="M 1637.5,1283.5 C 1639.4,1283.74 1640.74,1284.74 1641.5,1286.5C 1639.6,1286.26 1638.26,1285.26 1637.5,1283.5 Z"/></g>
<g><path style="opacity:0.99" fill="#030302" d="M 549.5,1284.5 C 558.061,1297.94 566.895,1311.27 576,1324.5C 594.405,1349.57 615.571,1372.07 639.5,1392C 650.207,1399.69 661.541,1406.36 673.5,1412C 630.304,1411.1 591.637,1397.6 557.5,1371.5C 554.125,1342.71 551.459,1313.71 549.5,1284.5 Z"/></g>
<g><path style="opacity:0.039" fill="#cc6513" d="M 1643.5,1288.5 C 1645.4,1288.74 1646.74,1289.74 1647.5,1291.5C 1645.6,1291.26 1644.26,1290.26 1643.5,1288.5 Z"/></g>
<g><path style="opacity:0.024" fill="#cd650f" d="M 1649.5,1293.5 C 1651.75,1294.08 1653.42,1295.41 1654.5,1297.5C 1652.25,1296.92 1650.58,1295.59 1649.5,1293.5 Z"/></g>
<g><path style="opacity:1" fill="#020101" d="M 999.5,1488.5 C 964.076,1523.1 925.076,1552.93 882.5,1578C 865.032,1593.13 848.532,1609.3 833,1626.5C 825.329,1635.85 818.662,1645.85 813,1656.5C 810.454,1622.47 820.121,1592.47 842,1566.5C 858.795,1552.71 875.295,1538.54 891.5,1524C 930.674,1483.99 970.007,1444.16 1009.5,1404.5C 1044.77,1368.73 1080.27,1333.06 1116,1297.5C 1111.82,1315.05 1105.82,1332.05 1098,1348.5C 1073.12,1400.86 1040.28,1447.53 999.5,1488.5 Z"/></g>
<g><path style="opacity:0.094" fill="#c06011" d="M 1654.5,1297.5 C 1657.78,1299.12 1660.45,1301.45 1662.5,1304.5C 1659.19,1302.85 1656.52,1300.52 1654.5,1297.5 Z"/></g>
<g><path style="opacity:0.008" fill="#c36110" d="M 1662.5,1304.5 C 1666.12,1306.45 1669.12,1309.12 1671.5,1312.5C 1667.85,1310.52 1664.85,1307.85 1662.5,1304.5 Z"/></g>
<g><path style="opacity:1" fill="#010000" d="M 969.5,1740.5 C 939.067,1753.54 911.067,1770.37 885.5,1791C 884.668,1791.69 884.002,1791.52 883.5,1790.5C 905.449,1742.54 937.449,1702.54 979.5,1670.5C 1014.68,1646.96 1045.18,1618.29 1071,1584.5C 1120.04,1517.73 1154.04,1443.73 1173,1362.5C 1181.44,1440.28 1166.78,1513.61 1129,1582.5C 1095.38,1640.13 1051.21,1688.3 996.5,1727C 987.718,1732.06 978.718,1736.56 969.5,1740.5 Z"/></g>
<g><path style="opacity:1" fill="#020100" d="M 2462.5,1369.5 C 2463.12,1369.61 2463.62,1369.94 2464,1370.5C 2468.5,1392.51 2473,1414.51 2477.5,1436.5C 2477.77,1439.4 2476.44,1440.9 2473.5,1441C 2451.15,1444.04 2429.15,1442.37 2407.5,1436C 2381.43,1427.8 2357.1,1416.13 2334.5,1401C 2367.84,1403.96 2400.17,1399.62 2431.5,1388C 2442.89,1383.32 2453.22,1377.15 2462.5,1369.5 Z"/></g>
<g><path style="opacity:1" fill="#010000" d="M 1790.5,1437.5 C 1792.09,1440.76 1794.43,1443.43 1797.5,1445.5C 1798.76,1448.43 1800.76,1450.76 1803.5,1452.5C 1804.76,1455.43 1806.76,1457.76 1809.5,1459.5C 1810.42,1462.09 1812.09,1464.09 1814.5,1465.5C 1815.42,1468.09 1817.09,1470.09 1819.5,1471.5C 1820.08,1473.75 1821.41,1475.42 1823.5,1476.5C 1824.08,1478.75 1825.41,1480.42 1827.5,1481.5C 1828.42,1484.09 1830.09,1486.09 1832.5,1487.5C 1833.08,1489.75 1834.41,1491.42 1836.5,1492.5C 1837.08,1494.75 1838.41,1496.42 1840.5,1497.5C 1841.08,1499.75 1842.41,1501.42 1844.5,1502.5C 1845.08,1504.75 1846.41,1506.42 1848.5,1507.5C 1848.74,1509.4 1849.74,1510.74 1851.5,1511.5C 1852.08,1513.75 1853.41,1515.42 1855.5,1516.5C 1855.74,1518.4 1856.74,1519.74 1858.5,1520.5C 1859.08,1522.75 1860.41,1524.42 1862.5,1525.5C 1862.74,1527.4 1863.74,1528.74 1865.5,1529.5C 1865.74,1531.4 1866.74,1532.74 1868.5,1533.5C 1868.74,1535.4 1869.74,1536.74 1871.5,1537.5C 1871.74,1539.4 1872.74,1540.74 1874.5,1541.5C 1874.74,1543.4 1875.74,1544.74 1877.5,1545.5C 1877.74,1547.4 1878.74,1548.74 1880.5,1549.5C 1880.74,1551.4 1881.74,1552.74 1883.5,1553.5C 1883.43,1555.03 1884.09,1556.03 1885.5,1556.5C 1885.74,1558.4 1886.74,1559.74 1888.5,1560.5C 1888.43,1562.03 1889.09,1563.03 1890.5,1563.5C 1895.86,1570.2 1900.86,1577.2 1905.5,1584.5C 1904.11,1594.49 1902.61,1604.49 1901,1614.5C 1885.3,1683.27 1862.63,1749.6 1833,1813.5C 1824.27,1823.97 1816.27,1834.97 1809,1846.5C 1786.9,1884.03 1768.57,1923.36 1754,1964.5C 1751.54,1954.65 1750.88,1944.65 1752,1934.5C 1753.74,1923.78 1755.74,1913.12 1758,1902.5C 1769.3,1860.95 1783.96,1820.61 1802,1781.5C 1825.09,1720.59 1829.76,1658.26 1816,1594.5C 1810.8,1575.89 1805.8,1557.22 1801,1538.5C 1792.62,1505.14 1789.12,1471.47 1790.5,1437.5 Z"/></g>
<g><path style="opacity:0.953" fill="#ac5410" d="M 1790.5,1437.5 C 1793.57,1439.57 1795.91,1442.24 1797.5,1445.5C 1794.43,1443.43 1792.09,1440.76 1790.5,1437.5 Z"/></g>
<g><path style="opacity:0.949" fill="#b25810" d="M 1797.5,1445.5 C 1800.24,1447.24 1802.24,1449.57 1803.5,1452.5C 1800.76,1450.76 1798.76,1448.43 1797.5,1445.5 Z"/></g>
<g><path style="opacity:1" fill="#020100" d="M 1692.5,1448.5 C 1710.78,1604.7 1675.95,1748.04 1588,1878.5C 1579.14,1891.7 1569.14,1904.04 1558,1915.5C 1559.88,1874.85 1568.21,1835.52 1583,1797.5C 1602.14,1756.77 1618.14,1714.77 1631,1671.5C 1653.9,1597.74 1674.4,1523.41 1692.5,1448.5 Z"/></g>
<g><path style="opacity:0.949" fill="#b45910" d="M 1803.5,1452.5 C 1806.24,1454.24 1808.24,1456.57 1809.5,1459.5C 1806.76,1457.76 1804.76,1455.43 1803.5,1452.5 Z"/></g>
<g><path style="opacity:0.78" fill="#b95a10" d="M 1809.5,1459.5 C 1811.91,1460.91 1813.58,1462.91 1814.5,1465.5C 1812.09,1464.09 1810.42,1462.09 1809.5,1459.5 Z"/></g>
<g><path style="opacity:0.878" fill="#b7520e" d="M 1814.5,1465.5 C 1816.91,1466.91 1818.58,1468.91 1819.5,1471.5C 1817.09,1470.09 1815.42,1468.09 1814.5,1465.5 Z"/></g>
<g><path style="opacity:0.871" fill="#aa520e" d="M 1819.5,1471.5 C 1821.59,1472.58 1822.92,1474.25 1823.5,1476.5C 1821.41,1475.42 1820.08,1473.75 1819.5,1471.5 Z"/></g>
<g><path style="opacity:0.949" fill="#8b450f" d="M 1823.5,1476.5 C 1825.59,1477.58 1826.92,1479.25 1827.5,1481.5C 1825.41,1480.42 1824.08,1478.75 1823.5,1476.5 Z"/></g>
<g><path style="opacity:0.965" fill="#8c450f" d="M 1827.5,1481.5 C 1829.91,1482.91 1831.58,1484.91 1832.5,1487.5C 1830.09,1486.09 1828.42,1484.09 1827.5,1481.5 Z"/></g>
<g><path style="opacity:0.965" fill="#94480e" d="M 1832.5,1487.5 C 1834.59,1488.58 1835.92,1490.25 1836.5,1492.5C 1834.41,1491.42 1833.08,1489.75 1832.5,1487.5 Z"/></g>
<g><path style="opacity:0.878" fill="#9f4d0e" d="M 1836.5,1492.5 C 1838.59,1493.58 1839.92,1495.25 1840.5,1497.5C 1838.41,1496.42 1837.08,1494.75 1836.5,1492.5 Z"/></g>
<g><path style="opacity:0.878" fill="#9f4d0e" d="M 1840.5,1497.5 C 1842.59,1498.58 1843.92,1500.25 1844.5,1502.5C 1842.41,1501.42 1841.08,1499.75 1840.5,1497.5 Z"/></g>
<g><path style="opacity:0.624" fill="#a6530e" d="M 1844.5,1502.5 C 1846.59,1503.58 1847.92,1505.25 1848.5,1507.5C 1846.41,1506.42 1845.08,1504.75 1844.5,1502.5 Z"/></g>
<g><path style="opacity:0.914" fill="#984d0f" d="M 1848.5,1507.5 C 1850.26,1508.26 1851.26,1509.6 1851.5,1511.5C 1849.74,1510.74 1848.74,1509.4 1848.5,1507.5 Z"/></g>
<g><path style="opacity:0.631" fill="#a8540e" d="M 1851.5,1511.5 C 1853.59,1512.58 1854.92,1514.25 1855.5,1516.5C 1853.41,1515.42 1852.08,1513.75 1851.5,1511.5 Z"/></g>
<g><path style="opacity:0.922" fill="#974b0e" d="M 1855.5,1516.5 C 1857.26,1517.26 1858.26,1518.6 1858.5,1520.5C 1856.74,1519.74 1855.74,1518.4 1855.5,1516.5 Z"/></g>
<g><path style="opacity:0.639" fill="#a6540e" d="M 1858.5,1520.5 C 1860.59,1521.58 1861.92,1523.25 1862.5,1525.5C 1860.41,1524.42 1859.08,1522.75 1858.5,1520.5 Z"/></g>
<g><path style="opacity:0.89" fill="#9f4e0e" d="M 1862.5,1525.5 C 1864.26,1526.26 1865.26,1527.6 1865.5,1529.5C 1863.74,1528.74 1862.74,1527.4 1862.5,1525.5 Z"/></g>
<g><path style="opacity:0.906" fill="#9a4d0e" d="M 1865.5,1529.5 C 1867.26,1530.26 1868.26,1531.6 1868.5,1533.5C 1866.74,1532.74 1865.74,1531.4 1865.5,1529.5 Z"/></g>
<g><path style="opacity:0.91" fill="#964b0f" d="M 1868.5,1533.5 C 1870.26,1534.26 1871.26,1535.6 1871.5,1537.5C 1869.74,1536.74 1868.74,1535.4 1868.5,1533.5 Z"/></g>
<g><path style="opacity:0.925" fill="#92490e" d="M 1871.5,1537.5 C 1873.26,1538.26 1874.26,1539.6 1874.5,1541.5C 1872.74,1540.74 1871.74,1539.4 1871.5,1537.5 Z"/></g>
<g><path style="opacity:0.898" fill="#944a0e" d="M 1874.5,1541.5 C 1876.26,1542.26 1877.26,1543.6 1877.5,1545.5C 1875.74,1544.74 1874.74,1543.4 1874.5,1541.5 Z"/></g>
<g><path style="opacity:0.878" fill="#974b0d" d="M 1877.5,1545.5 C 1879.26,1546.26 1880.26,1547.6 1880.5,1549.5C 1878.74,1548.74 1877.74,1547.4 1877.5,1545.5 Z"/></g>
<g><path style="opacity:0.843" fill="#a0440b" d="M 1880.5,1549.5 C 1882.26,1550.26 1883.26,1551.6 1883.5,1553.5C 1881.74,1552.74 1880.74,1551.4 1880.5,1549.5 Z"/></g>
<g><path style="opacity:0.757" fill="#8f470e" d="M 1883.5,1553.5 C 1884.91,1553.97 1885.57,1554.97 1885.5,1556.5C 1884.09,1556.03 1883.43,1555.03 1883.5,1553.5 Z"/></g>
<g><path style="opacity:0.886" fill="#7b370b" d="M 1885.5,1556.5 C 1887.26,1557.26 1888.26,1558.6 1888.5,1560.5C 1886.74,1559.74 1885.74,1558.4 1885.5,1556.5 Z"/></g>
<g><path style="opacity:0.78" fill="#7d3e0b" d="M 1888.5,1560.5 C 1889.91,1560.97 1890.57,1561.97 1890.5,1563.5C 1889.09,1563.03 1888.43,1562.03 1888.5,1560.5 Z"/></g>
<g><path style="opacity:0.996" fill="#040100" d="M 2377.5,1633.5 C 2402.67,1636.74 2427.67,1640.57 2452.5,1645C 2430.59,1653.46 2408.59,1661.62 2386.5,1669.5C 2383.81,1657.4 2380.81,1645.4 2377.5,1633.5 Z"/></g>
<g><path style="opacity:0.999" fill="#010000" d="M 1982.5,1701.5 C 2029.34,1778.5 2071.01,1858.5 2107.5,1941.5C 2103.37,1943.4 2099.37,1945.57 2095.5,1948C 2071.63,1966.21 2050.79,1987.37 2033,2011.5C 2029.96,2038.64 2023.63,2064.97 2014,2090.5C 1999.35,2128.32 1976.52,2160.16 1945.5,2186C 1884.26,2221.87 1828.76,2265.37 1779,2316.5C 1767.27,2329.64 1756.77,2343.64 1747.5,2358.5C 1746.51,2352.36 1746.18,2346.02 1746.5,2339.5C 1747.75,2326.49 1750.59,2313.82 1755,2301.5C 1771.52,2262.64 1796.68,2230.47 1830.5,2205C 1848.03,2193.74 1865.03,2181.74 1881.5,2169C 1898.37,2155.13 1913.54,2139.63 1927,2122.5C 1961.13,2056.97 1980.8,1987.3 1986,1913.5C 1990.67,1857.58 1987.01,1802.25 1975,1747.5C 1972.47,1731.3 1974.97,1715.96 1982.5,1701.5 Z"/></g>
<g><path style="opacity:0.995" fill="#020100" d="M 2523.5,1716.5 C 2523.49,1722.48 2524.49,1728.15 2526.5,1733.5C 2529.64,1752.69 2532.97,1771.86 2536.5,1791C 2536.43,1791.76 2536.1,1792.26 2535.5,1792.5C 2495.94,1793.31 2456.61,1790.81 2417.5,1785C 2426.95,1781.4 2436.29,1777.4 2445.5,1773C 2476.68,1757.5 2501.51,1735 2520,1705.5C 2521.36,1709.17 2522.53,1712.84 2523.5,1716.5 Z"/></g>
<g><path style="opacity:0.608" fill="#a9510f" d="M 2523.5,1716.5 C 2524.95,1721.96 2525.95,1727.63 2526.5,1733.5C 2524.49,1728.15 2523.49,1722.48 2523.5,1716.5 Z"/></g>
<g><path style="opacity:1" fill="#cec0b2" d="M 852.5,2122.5 C 852.666,2127.18 852.499,2131.85 852,2136.5C 849.396,2130.18 846.896,2123.85 844.5,2117.5C 819.243,2054.24 794.077,1990.9 769,1927.5C 762.706,1953.29 749.04,1975.29 728,1993.5C 721.248,1949.83 712.915,1906.5 703,1863.5C 697.722,1837.5 689.555,1812.5 678.5,1788.5C 681.549,1785.29 685.049,1782.62 689,1780.5C 694.078,1788.66 698.078,1797.32 701,1806.5C 704.645,1817.75 707.978,1829.08 711,1840.5C 720.829,1881.32 729.496,1922.32 737,1963.5C 753.978,1941.74 759.478,1917.41 753.5,1890.5C 757.304,1888.45 761.304,1886.78 765.5,1885.5C 789.938,1946.05 814.105,2006.71 838,2067.5C 838.333,2035.17 838.667,2002.83 839,1970.5C 863.575,2013.41 892.408,2053.24 925.5,2090C 922.312,2092.43 919.312,2095.1 916.5,2098C 892.947,2073.4 871.78,2046.57 853,2017.5C 852.5,2052.5 852.333,2087.5 852.5,2122.5 Z"/></g>
<g><path style="opacity:0.998" fill="#020000" d="M 2554.5,1935.5 C 2554.4,1942.46 2555.4,1949.13 2557.5,1955.5C 2559.06,1966.52 2560.72,1977.52 2562.5,1988.5C 2531.96,1991.34 2501.96,1988.51 2472.5,1980C 2457.77,1975.15 2443.43,1970.31 2429.5,1965.5C 2428.85,1965.2 2428.18,1964.86 2427.5,1964.5C 2426.5,1948.51 2426.17,1932.51 2426.5,1916.5C 2448.86,1927.74 2472.53,1932.24 2497.5,1930C 2518.9,1927.24 2535.74,1917.07 2548,1899.5C 2550.08,1911.65 2552.25,1923.65 2554.5,1935.5 Z"/></g>
<g><path style="opacity:0.698" fill="#a8530f" d="M 2554.5,1935.5 C 2555.86,1941.98 2556.86,1948.65 2557.5,1955.5C 2555.4,1949.13 2554.4,1942.46 2554.5,1935.5 Z"/></g>
<g><path style="opacity:0.999" fill="#feebd2" d="M 1497.5,2035.5 C 1451.24,2094.6 1396.9,2144.77 1334.5,2186C 1297.59,2209.62 1257.92,2226.95 1215.5,2238C 1304.58,2267.74 1379.41,2246.91 1440,2175.5C 1459.67,2150.85 1476.34,2124.19 1490,2095.5C 1497.5,2078.19 1504.66,2060.86 1511.5,2043.5C 1557.6,2071.59 1599.27,2105.26 1636.5,2144.5C 1631.82,2156.54 1628.15,2168.88 1625.5,2181.5C 1627.5,2181.83 1629.5,2182.17 1631.5,2182.5C 1628.53,2194.31 1626.87,2206.31 1626.5,2218.5C 1601.68,2252.18 1574.01,2283.68 1543.5,2313C 1528.24,2327.26 1511.57,2339.59 1493.5,2350C 1486.83,2352.67 1480.17,2355.33 1473.5,2358C 1515.6,2368.03 1556.6,2364.7 1596.5,2348C 1608.73,2342.06 1620.07,2334.89 1630.5,2326.5C 1651.58,2418.72 1699.58,2493.55 1774.5,2551C 1799.17,2577 1823.83,2603 1848.5,2629C 1788.92,2628.83 1729.58,2632.5 1670.5,2640C 1632.01,2644.76 1594.35,2653.1 1557.5,2665C 1536.67,2672.37 1517.34,2682.37 1499.5,2695C 1487,2704.83 1478.5,2717.33 1474,2732.5C 1472.9,2744.33 1473.73,2756 1476.5,2767.5C 1437.13,2771.98 1397.63,2774.64 1358,2775.5C 1341.59,2776.34 1325.42,2774.84 1309.5,2771C 1307.68,2770.34 1306.34,2769.17 1305.5,2767.5C 1307.57,2766.46 1309.24,2764.96 1310.5,2763C 1299.41,2726.5 1312.41,2703.84 1349.5,2695C 1366.35,2691.87 1383.35,2690.7 1400.5,2691.5C 1400.83,2686.83 1401.17,2682.17 1401.5,2677.5C 1384.36,2676.8 1367.36,2677.97 1350.5,2681C 1302.29,2691.94 1284.79,2721.11 1298,2768.5C 1298.67,2769.25 1299.5,2769.59 1300.5,2769.5C 1288.77,2775.93 1276.11,2778.93 1262.5,2778.5C 1247.86,2778.51 1233.86,2775.84 1220.5,2770.5C 1222.5,2769.96 1224.5,2769.29 1226.5,2768.5C 1222.44,2745.13 1225.6,2722.8 1236,2701.5C 1247.57,2684.29 1263.74,2674.62 1284.5,2672.5C 1284.26,2668.16 1283.93,2663.82 1283.5,2659.5C 1244.19,2665.64 1220.69,2688.31 1213,2727.5C 1211.17,2741.82 1211,2756.15 1212.5,2770.5C 1195.99,2768.94 1180.32,2764.44 1165.5,2757C 1151.22,2748.76 1143.55,2736.43 1142.5,2720C 1142.53,2693.33 1154.19,2673.66 1177.5,2661C 1204.89,2647.23 1233.89,2638.9 1264.5,2636C 1281.62,2634.17 1298.79,2633 1316,2632.5C 1340.42,2635.44 1364.92,2637.77 1389.5,2639.5C 1414.19,2639.88 1438.19,2636.05 1461.5,2628C 1417.34,2597.42 1373.01,2567.09 1328.5,2537C 1265.48,2489.14 1218.81,2428.64 1188.5,2355.5C 1233.24,2416.07 1288.24,2465.24 1353.5,2503C 1432.34,2546.62 1516,2577.62 1604.5,2596C 1667.81,2609.41 1731.81,2616.91 1796.5,2618.5C 1796.5,2614.17 1796.5,2609.83 1796.5,2605.5C 1673.31,2602.48 1554.64,2577.98 1440.5,2532C 1364.03,2501.21 1297.19,2456.37 1240,2397.5C 1223.81,2379.98 1209.14,2361.31 1196,2341.5C 1192.7,2344.23 1189.2,2346.56 1185.5,2348.5C 1184.68,2344.87 1183.35,2341.54 1181.5,2338.5C 1183.84,2318.46 1186.5,2298.46 1189.5,2278.5C 1189.78,2277.71 1190.28,2277.04 1191,2276.5C 1197.05,2240.85 1202.89,2205.19 1208.5,2169.5C 1212.99,2144.7 1217.99,2120.03 1223.5,2095.5C 1228.09,2072.23 1233.43,2049.23 1239.5,2026.5C 1243.19,2014.93 1247.02,2003.26 1251,1991.5C 1254.23,1981.87 1258.4,1972.7 1263.5,1964C 1267.17,1963.83 1270.83,1963.67 1274.5,1963.5C 1354.46,1970.27 1428.8,1994.27 1497.5,2035.5 Z"/></g>
<g><path style="opacity:1" fill="#050201" d="M 939.5,1996.5 C 959.776,2037.27 991.11,2066.11 1033.5,2083C 997.682,2081.71 963.682,2073.21 931.5,2057.5C 933.607,2037.09 936.273,2016.75 939.5,1996.5 Z"/></g>
<g><path style="opacity:1" fill="#030100" d="M 1239.5,2026.5 C 1233.43,2049.23 1228.09,2072.23 1223.5,2095.5C 1196.04,2096.4 1171.7,2088.23 1150.5,2071C 1126.73,2050.59 1109.56,2025.76 1099,1996.5C 1099.75,1997.13 1100.58,1997.63 1101.5,1998C 1121.91,2016.37 1145.57,2028.7 1172.5,2035C 1203.14,2039.36 1226.98,2028.86 1244,2003.5C 1242.36,2011.07 1240.86,2018.74 1239.5,2026.5 Z"/></g>
<g><path style="opacity:1" fill="#020101" d="M 1511.5,2043.5 C 1504.66,2060.86 1497.5,2078.19 1490,2095.5C 1476.34,2124.19 1459.67,2150.85 1440,2175.5C 1379.41,2246.91 1304.58,2267.74 1215.5,2238C 1257.92,2226.95 1297.59,2209.62 1334.5,2186C 1396.9,2144.77 1451.24,2094.6 1497.5,2035.5C 1505.8,2025.02 1513.97,2014.35 1522,2003.5C 1518.83,2016.86 1515.33,2030.19 1511.5,2043.5 Z"/></g>
<g><path style="opacity:1" fill="#020000" d="M 2147.5,2036.5 C 2147.73,2039.54 2148.73,2042.21 2150.5,2044.5C 2158.07,2067.54 2166.4,2090.2 2175.5,2112.5C 2176.4,2113.21 2176.74,2114.21 2176.5,2115.5C 2176.4,2117.55 2177.07,2119.22 2178.5,2120.5C 2178.65,2121.55 2178.48,2122.55 2178,2123.5C 2161.88,2139.49 2143.05,2151.32 2121.5,2159C 2103.85,2164.88 2085.85,2166.04 2067.5,2162.5C 2065.31,2162.69 2063.65,2161.86 2062.5,2160C 2101.68,2123.5 2128.51,2079.33 2143,2027.5C 2144.04,2030.82 2145.54,2033.82 2147.5,2036.5 Z"/></g>
<g><path style="opacity:0.322" fill="#d96c13" d="M 2147.5,2036.5 C 2149.27,2038.79 2150.27,2041.46 2150.5,2044.5C 2148.73,2042.21 2147.73,2039.54 2147.5,2036.5 Z"/></g>
<g><path style="opacity:0.402" fill="#d96a13" d="M 2150.5,2044.5 C 2159.99,2066.64 2168.33,2089.31 2175.5,2112.5C 2166.4,2090.2 2158.07,2067.54 2150.5,2044.5 Z"/></g>
<g><path style="opacity:1" fill="#dd6913" d="M 1631.5,2182.5 C 1629.5,2182.17 1627.5,2181.83 1625.5,2181.5C 1628.15,2168.88 1631.82,2156.54 1636.5,2144.5C 1640.4,2134.69 1644.9,2125.03 1650,2115.5C 1657.85,2101.15 1668.35,2089.15 1681.5,2079.5C 1684.28,2082.87 1686.94,2086.37 1689.5,2090C 1684.08,2093.42 1679.24,2097.59 1675,2102.5C 1656.89,2126.73 1644.72,2153.73 1638.5,2183.5C 1636.05,2183.7 1633.72,2183.37 1631.5,2182.5 Z"/></g>
<g><path style="opacity:1" fill="#020202" d="M 844.5,2117.5 C 846.896,2123.85 849.396,2130.18 852,2136.5C 852.499,2131.85 852.666,2127.18 852.5,2122.5C 874.669,2134.34 896.335,2147.01 917.5,2160.5C 913.327,2188.96 908.993,2217.3 904.5,2245.5C 903.231,2240.96 901.397,2236.62 899,2232.5C 887.815,2215.64 875.482,2199.64 862,2184.5C 829.664,2151.82 795.83,2120.99 760.5,2092C 764.5,2091.33 768.5,2091.33 772.5,2092C 797.674,2097.22 821.674,2105.72 844.5,2117.5 Z"/></g>
<g><path style="opacity:0.255" fill="#d55f10" d="M 2176.5,2115.5 C 2177.93,2116.78 2178.6,2118.45 2178.5,2120.5C 2177.07,2119.22 2176.4,2117.55 2176.5,2115.5 Z"/></g>
<g><path style="opacity:1" fill="#030100" d="M 2418.5,2133.5 C 2423.43,2139.6 2428.59,2145.6 2434,2151.5C 2439.83,2156.67 2445.67,2161.83 2451.5,2167C 2481.98,2190.83 2516.65,2202.49 2555.5,2202C 2541.93,2209.97 2527.26,2214.97 2511.5,2217C 2474.58,2219.57 2439.58,2212.57 2406.5,2196C 2405.89,2194.77 2405.56,2193.44 2405.5,2192C 2406.77,2186.88 2407.77,2181.72 2408.5,2176.5C 2410.59,2171.12 2411.93,2165.45 2412.5,2159.5C 2414.14,2150.63 2416.14,2141.97 2418.5,2133.5 Z"/></g>
<g><path style="opacity:0.878" fill="#9f4e0f" d="M 2412.5,2159.5 C 2411.93,2165.45 2410.59,2171.12 2408.5,2176.5C 2408.5,2175.83 2408.5,2175.17 2408.5,2174.5C 2409.39,2169.27 2410.72,2164.27 2412.5,2159.5 Z"/></g>
<g><path style="opacity:1" fill="#010000" d="M 1208.5,2169.5 C 1202.89,2205.19 1197.05,2240.85 1191,2276.5C 1190.28,2277.04 1189.78,2277.71 1189.5,2278.5C 1167.36,2297.62 1141.69,2305.12 1112.5,2301C 1083.33,2294.09 1059.33,2279.09 1040.5,2256C 1029.48,2246.49 1016.82,2240.16 1002.5,2237C 1006.5,2231 1011.5,2226 1017.5,2222C 1037.76,2212.98 1056.43,2215.65 1073.5,2230C 1087.59,2238.86 1102.92,2243.36 1119.5,2243.5C 1138.97,2243.4 1155.97,2236.9 1170.5,2224C 1186.57,2208.12 1199.23,2189.95 1208.5,2169.5 Z"/></g>
<g><path style="opacity:1" fill="#020000" d="M 2093.5,2190.5 C 2115.07,2188.55 2136.07,2191.05 2156.5,2198C 2170.02,2203.58 2181.02,2212.24 2189.5,2224C 2045.59,2255.85 1920.76,2322.35 1815,2423.5C 1819.35,2413.77 1824.68,2404.43 1831,2395.5C 1856.73,2360.6 1886.23,2329.1 1919.5,2301C 1967.2,2261.31 2018.2,2226.31 2072.5,2196C 2079.56,2193.96 2086.56,2192.13 2093.5,2190.5 Z"/></g>
<g><path style="opacity:1" fill="#020201" d="M 1626.5,2218.5 C 1625.84,2221.79 1625.34,2225.12 1625,2228.5C 1624.18,2261.31 1626.01,2293.98 1630.5,2326.5C 1620.07,2334.89 1608.73,2342.06 1596.5,2348C 1556.6,2364.7 1515.6,2368.03 1473.5,2358C 1480.17,2355.33 1486.83,2352.67 1493.5,2350C 1511.57,2339.59 1528.24,2327.26 1543.5,2313C 1574.01,2283.68 1601.68,2252.18 1626.5,2218.5 Z"/></g>
<g><path style="opacity:1" fill="#7c3e0c" d="M 2381.5,2308.5 C 2378.94,2308.2 2376.61,2308.53 2374.5,2309.5C 2373.71,2309.22 2373.04,2308.72 2372.5,2308C 2375.7,2307.2 2378.7,2307.36 2381.5,2308.5 Z"/></g>
<g><path style="opacity:1" fill="#060200" d="M 2374.5,2309.5 C 2376.61,2308.53 2378.94,2308.2 2381.5,2308.5C 2422.53,2312.41 2454.36,2331.41 2477,2365.5C 2493.84,2392.85 2504.01,2422.52 2507.5,2454.5C 2507.77,2456.1 2507.43,2457.43 2506.5,2458.5C 2485.16,2388.82 2441.16,2339.15 2374.5,2309.5 Z"/></g>
<g><path style="opacity:0.999" fill="#020100" d="M 2256.5,2308.5 C 2269.09,2316.14 2282.76,2320.14 2297.5,2320.5C 2308.51,2320.5 2318.84,2317.83 2328.5,2312.5C 2329.09,2312.71 2329.59,2313.04 2330,2313.5C 2346.87,2387.73 2363.2,2462.07 2379,2536.5C 2338,2461.17 2297,2385.83 2256,2310.5C 2255.31,2309.56 2255.47,2308.9 2256.5,2308.5 Z"/></g>
<g><path style="opacity:1" fill="#cec0b2" d="M 1188.5,2355.5 C 1187.58,2353.25 1186.25,2351.25 1184.5,2349.5C 1184.62,2348.89 1184.96,2348.56 1185.5,2348.5C 1189.2,2346.56 1192.7,2344.23 1196,2341.5C 1209.14,2361.31 1223.81,2379.98 1240,2397.5C 1297.19,2456.37 1364.03,2501.21 1440.5,2532C 1554.64,2577.98 1673.31,2602.48 1796.5,2605.5C 1796.5,2609.83 1796.5,2614.17 1796.5,2618.5C 1731.81,2616.91 1667.81,2609.41 1604.5,2596C 1516,2577.62 1432.34,2546.62 1353.5,2503C 1288.24,2465.24 1233.24,2416.07 1188.5,2355.5 Z"/></g>
<g><path style="opacity:1" fill="#84420d" d="M 1746.5,2339.5 C 1746.18,2346.02 1746.51,2352.36 1747.5,2358.5C 1747.44,2359.04 1747.11,2359.38 1746.5,2359.5C 1745.18,2352.68 1745.18,2346.01 1746.5,2339.5 Z"/></g>
<g><path style="opacity:1" fill="#030100" d="M 1995.5,2414.5 C 2064.62,2411.01 2129.62,2425.51 2190.5,2458C 2196.84,2461.5 2202.84,2465.5 2208.5,2470C 2162.27,2460.63 2115.6,2453.63 2068.5,2449C 2040.85,2447.47 2013.19,2447.14 1985.5,2448C 1955.29,2449.47 1926.29,2456.14 1898.5,2468C 1885.61,2473.89 1874.78,2482.39 1866,2493.5C 1853.69,2480.21 1853.35,2466.55 1865,2452.5C 1869.5,2446.67 1874.67,2441.5 1880.5,2437C 1918.11,2425.04 1956.45,2417.54 1995.5,2414.5 Z"/></g>
<g><path style="opacity:1" fill="#582c0b" d="M 2507.5,2454.5 C 2508.63,2456.97 2508.8,2459.63 2508,2462.5C 2507.59,2461.1 2507.09,2459.77 2506.5,2458.5C 2507.43,2457.43 2507.77,2456.1 2507.5,2454.5 Z"/></g>
<g><path style="opacity:0.999" fill="#e5d5c1" d="M 1220.5,2770.5 C 1218.32,2771.1 1216.15,2771.77 1214,2772.5C 1213.28,2771.96 1212.78,2771.29 1212.5,2770.5C 1211,2756.15 1211.17,2741.82 1213,2727.5C 1220.69,2688.31 1244.19,2665.64 1283.5,2659.5C 1283.93,2663.82 1284.26,2668.16 1284.5,2672.5C 1263.74,2674.62 1247.57,2684.29 1236,2701.5C 1225.6,2722.8 1222.44,2745.13 1226.5,2768.5C 1224.5,2769.29 1222.5,2769.96 1220.5,2770.5 Z"/></g>
<g><path style="opacity:1" fill="#dd6912" d="M 1694.5,2668.5 C 1699.5,2668.5 1704.5,2668.5 1709.5,2668.5C 1709.5,2672.83 1709.5,2677.17 1709.5,2681.5C 1679.06,2681.89 1649.73,2687.72 1621.5,2699C 1597.91,2708.87 1580.75,2725.37 1570,2748.5C 1565.12,2760.7 1563.29,2773.36 1564.5,2786.5C 1560.14,2787.01 1555.81,2787.67 1551.5,2788.5C 1550.07,2747.19 1567.07,2716.02 1602.5,2695C 1631.47,2679.93 1662.14,2671.09 1694.5,2668.5 Z"/></g>
<g><path style="opacity:1" fill="#e5d5c1" d="M 1305.5,2767.5 C 1303.95,2768.44 1302.28,2769.11 1300.5,2769.5C 1299.5,2769.59 1298.67,2769.25 1298,2768.5C 1284.79,2721.11 1302.29,2691.94 1350.5,2681C 1367.36,2677.97 1384.36,2676.8 1401.5,2677.5C 1401.17,2682.17 1400.83,2686.83 1400.5,2691.5C 1383.35,2690.7 1366.35,2691.87 1349.5,2695C 1312.41,2703.84 1299.41,2726.5 1310.5,2763C 1309.24,2764.96 1307.57,2766.46 1305.5,2767.5 Z"/></g>
<g><path style="opacity:0.998" fill="#dd6912" d="M 810.5,2806.5 C 807.753,2807.96 804.92,2809.29 802,2810.5C 800.699,2810.36 799.866,2809.69 799.5,2808.5C 797.492,2801.47 795.325,2794.47 793,2787.5C 780.882,2736.74 798.382,2700.74 845.5,2679.5C 847.949,2684 850.116,2688.67 852,2693.5C 852.781,2694.94 852.614,2696.28 851.5,2697.5C 826.026,2706.79 811.526,2724.79 808,2751.5C 807.152,2768.76 809.985,2785.43 816.5,2801.5C 816.392,2802.44 816.059,2803.28 815.5,2804C 813.685,2804.76 812.019,2805.59 810.5,2806.5 Z"/></g>
<g><path style="opacity:1" fill="#dd6912" d="M 1654.5,2809.5 C 1652.56,2810.15 1650.56,2810.48 1648.5,2810.5C 1645.06,2784.93 1651.56,2762.26 1668,2742.5C 1684.4,2724.45 1704.23,2711.62 1727.5,2704C 1767.23,2691.86 1807.89,2686.36 1849.5,2687.5C 1849.5,2692.17 1849.5,2696.83 1849.5,2701.5C 1819.54,2700.52 1789.87,2703.02 1760.5,2709C 1732.56,2714.14 1707.56,2725.48 1685.5,2743C 1667.25,2760.67 1658.91,2782.17 1660.5,2807.5C 1658.47,2808.17 1656.47,2808.84 1654.5,2809.5 Z"/></g>
<g><path style="opacity:1" fill="#dd6912" d="M 939.5,2805.5 C 939.167,2805.5 938.833,2805.5 938.5,2805.5C 936.321,2806.06 934.154,2806.73 932,2807.5C 931.5,2807.17 931,2806.83 930.5,2806.5C 923.855,2787.03 921.689,2767.03 924,2746.5C 931.754,2712.18 953.254,2693.51 988.5,2690.5C 989.167,2696.5 989.833,2702.5 990.5,2708.5C 953.056,2715.15 936.89,2737.48 942,2775.5C 943.997,2784.49 945.831,2793.49 947.5,2802.5C 944.458,2802.73 941.792,2803.73 939.5,2805.5 Z"/></g>
</svg>
