<?xml version="1.0" encoding="UTF-8"?>
<!DOCTYPE svg PUBLIC "-//W3C//DTD SVG 1.1//EN" "http://www.w3.org/Graphics/SVG/1.1/DTD/svg11.dtd">
<svg xmlns="http://www.w3.org/2000/svg" version="1.1" width="3000px" height="3000px" style="shape-rendering:geometricPrecision; text-rendering:geometricPrecision; image-rendering:optimizeQuality; fill-rule:evenodd; clip-rule:evenodd" xmlns:xlink="http://www.w3.org/1999/xlink">
<g><path style="opacity:0.995" fill="#5a9741" d="M 1134.5,649.5 C 1131.3,663.989 1128.8,678.655 1127,693.5C 1124.08,717.131 1121.58,740.798 1119.5,764.5C 1118.17,764.5 1116.83,764.5 1115.5,764.5C 1113.9,764.232 1112.57,764.566 1111.5,765.5C 1097.87,766.886 1084.2,767.886 1070.5,768.5C 1057.46,768.777 1044.46,768.443 1031.5,767.5C 1028.9,767.451 1026.73,766.451 1025,764.5C 1023.74,727.75 1023.24,691.083 1023.5,654.5C 1024.99,620.648 1029.15,586.981 1036,553.5C 1053.37,495.149 1087.2,448.983 1137.5,415C 1143.27,412.075 1149.27,409.742 1155.5,408C 1180.49,405.952 1204.83,408.952 1228.5,417C 1249.83,426.163 1255.66,441.33 1246,462.5C 1242.67,467.833 1239.33,473.167 1236,478.5C 1218.38,500.459 1200.38,522.125 1182,543.5C 1169.09,560.433 1157.75,578.433 1148,597.5C 1140.4,614.014 1135.9,631.347 1134.5,649.5 Z"/></g>
<g><path style="opacity:0.998" fill="#78ba42" d="M 1310.5,740.5 C 1314.38,745.543 1319.04,749.71 1324.5,753C 1351.68,767.534 1378.35,782.867 1404.5,799C 1422.76,811.257 1437.59,826.757 1449,845.5C 1461.03,865.897 1470.03,887.563 1476,910.5C 1477.82,917.889 1477.82,925.222 1476,932.5C 1472.86,934.948 1469.69,934.781 1466.5,932C 1436.48,909.022 1404.15,889.689 1369.5,874C 1343.95,864.797 1317.62,859.13 1290.5,857C 1255.44,852.722 1220.27,849.888 1185,848.5C 1180.42,848.431 1175.92,848.931 1171.5,850C 1154.58,868.244 1138.42,887.077 1123,906.5C 1101.93,935.02 1089.93,967.02 1087,1002.5C 1086.07,1042.17 1085.07,1081.84 1084,1121.5C 1083.6,1125.02 1082.6,1128.35 1081,1131.5C 1080.2,1132.8 1079.03,1133.47 1077.5,1133.5C 1038.95,1120.76 1006.45,1099.09 980,1068.5C 960.544,1044.13 951.044,1016.3 951.5,985C 951.985,956.038 954.152,927.205 958,898.5C 958.863,892.646 960.363,886.979 962.5,881.5C 916.749,875.543 871.082,876.377 825.5,884C 786.779,889.891 752.446,905.225 722.5,930C 693.833,953.333 665.167,976.667 636.5,1000C 632.993,1002.25 629.327,1004.25 625.5,1006C 623.231,1006.76 621.064,1006.59 619,1005.5C 615.863,959.033 625.196,915.033 647,873.5C 656.954,857.205 669.454,843.038 684.5,831C 705.512,814.473 727.179,798.973 749.5,784.5C 779.153,764.325 811.486,749.825 846.5,741C 855.745,740.136 864.911,740.636 874,742.5C 876.637,742.343 879.137,741.677 881.5,740.5C 882.696,739.441 883.363,738.107 883.5,736.5C 880.66,728.149 875.66,721.316 868.5,716C 843.5,697.002 815.166,688.002 783.5,689C 719.724,686.425 656.058,687.925 592.5,693.5C 592.249,689.669 593.416,686.336 596,683.5C 606.007,673.59 616.841,664.756 628.5,657C 669.822,635.226 713.489,620.226 759.5,612C 807.82,604.647 855.82,606.314 903.5,617C 935.421,623.147 966.755,631.48 997.5,642C 1006.59,645.379 1015.26,649.545 1023.5,654.5C 1023.24,691.083 1023.74,727.75 1025,764.5C 1026.73,766.451 1028.9,767.451 1031.5,767.5C 1031.08,768.124 1030.42,768.457 1029.5,768.5C 1022.83,767 1016.17,765.5 1009.5,764C 991.515,756.595 973.182,750.595 954.5,746C 964.762,759.793 977.429,770.793 992.5,779C 1014.56,791.265 1038.23,797.098 1063.5,796.5C 1081.25,795.542 1098.92,793.708 1116.5,791C 1139.43,781.188 1158.76,766.521 1174.5,747C 1157.71,754.965 1140.04,760.965 1121.5,765C 1119.29,765.789 1117.29,765.622 1115.5,764.5C 1116.83,764.5 1118.17,764.5 1119.5,764.5C 1121.58,740.798 1124.08,717.131 1127,693.5C 1128.8,678.655 1131.3,663.989 1134.5,649.5C 1164.09,623.473 1197.42,603.306 1234.5,589C 1252.34,582.737 1270.67,580.403 1289.5,582C 1332.76,589.479 1374.09,602.812 1413.5,622C 1416.67,624.5 1419.83,627 1423,629.5C 1424.04,632.636 1423.21,635.136 1420.5,637C 1399.95,645.52 1379.28,653.853 1358.5,662C 1339.09,674.077 1322.92,689.577 1310,708.5C 1303.9,719.405 1304.07,730.071 1310.5,740.5 Z"/></g>
<g><path style="opacity:1" fill="#ba2025" d="M 1904.5,1337.5 C 1862.69,1296.07 1814.02,1264.9 1758.5,1244C 1662.57,1206.91 1563.57,1195.25 1461.5,1209C 1421.5,1215.84 1385.17,1231.17 1352.5,1255C 1318.59,1280.25 1289.42,1310.08 1265,1344.5C 1213.89,1418.42 1178.22,1499.42 1158,1587.5C 1136.31,1677.76 1132.65,1768.76 1147,1860.5C 1154.95,1903.85 1167.45,1945.85 1184.5,1986.5C 1019.63,2013.72 859.629,1996.22 704.5,1934C 563.214,1877.67 441.381,1793.5 339,1681.5C 303.967,1641.8 274.634,1598.13 251,1550.5C 227.51,1498.06 214.844,1443.06 213,1385.5C 206.461,1273.27 222.128,1164.27 260,1058.5C 348.054,834.88 511.221,743.547 749.5,784.5C 727.179,798.973 705.512,814.473 684.5,831C 669.454,843.038 656.954,857.205 647,873.5C 625.196,915.033 615.863,959.033 619,1005.5C 621.064,1006.59 623.231,1006.76 625.5,1006C 629.327,1004.25 632.993,1002.25 636.5,1000C 665.167,976.667 693.833,953.333 722.5,930C 752.446,905.225 786.779,889.891 825.5,884C 871.082,876.377 916.749,875.543 962.5,881.5C 960.363,886.979 958.863,892.646 958,898.5C 954.152,927.205 951.985,956.038 951.5,985C 951.044,1016.3 960.544,1044.13 980,1068.5C 1006.45,1099.09 1038.95,1120.76 1077.5,1133.5C 1079.03,1133.47 1080.2,1132.8 1081,1131.5C 1082.6,1128.35 1083.6,1125.02 1084,1121.5C 1085.07,1081.84 1086.07,1042.17 1087,1002.5C 1089.93,967.02 1101.93,935.02 1123,906.5C 1138.42,887.077 1154.58,868.244 1171.5,850C 1175.92,848.931 1180.42,848.431 1185,848.5C 1220.27,849.888 1255.44,852.722 1290.5,857C 1317.62,859.13 1343.95,864.797 1369.5,874C 1404.15,889.689 1436.48,909.022 1466.5,932C 1469.69,934.781 1472.86,934.948 1476,932.5C 1477.82,925.222 1477.82,917.889 1476,910.5C 1470.03,887.563 1461.03,865.897 1449,845.5C 1437.59,826.757 1422.76,811.257 1404.5,799C 1378.35,782.867 1351.68,767.534 1324.5,753C 1319.04,749.71 1314.38,745.543 1310.5,740.5C 1372.52,716.097 1436.85,703.097 1503.5,701.5C 1581.98,699.601 1650.98,723.767 1710.5,774C 1768.01,825.328 1815.85,884.161 1854,950.5C 1906.7,1047.98 1927.36,1151.98 1916,1262.5C 1913.42,1287.71 1909.59,1312.71 1904.5,1337.5 Z"/></g>
<g><path style="opacity:1" fill="#64a342" d="M 1031.5,767.5 C 1044.46,768.443 1057.46,768.777 1070.5,768.5C 1063.01,769.329 1055.34,769.829 1047.5,770C 1069.71,771.59 1091.71,770.256 1113.5,766C 1112.91,765.536 1112.24,765.369 1111.5,765.5C 1112.57,764.566 1113.9,764.232 1115.5,764.5C 1117.29,765.622 1119.29,765.789 1121.5,765C 1140.04,760.965 1157.71,754.965 1174.5,747C 1158.76,766.521 1139.43,781.188 1116.5,791C 1098.92,793.708 1081.25,795.542 1063.5,796.5C 1038.23,797.098 1014.56,791.265 992.5,779C 977.429,770.793 964.762,759.793 954.5,746C 973.182,750.595 991.515,756.595 1009.5,764C 1016.17,765.5 1022.83,767 1029.5,768.5C 1030.42,768.457 1031.08,768.124 1031.5,767.5 Z"/></g>
<g><path style="opacity:1" fill="#75b742" d="M 1111.5,765.5 C 1112.24,765.369 1112.91,765.536 1113.5,766C 1091.71,770.256 1069.71,771.59 1047.5,770C 1055.34,769.829 1063.01,769.329 1070.5,768.5C 1084.2,767.886 1097.87,766.886 1111.5,765.5 Z"/></g>
<g><path style="opacity:0.998" fill="#e02529" d="M 1904.5,1337.5 C 1910.63,1343.8 1916.63,1350.3 1922.5,1357C 1961.09,1385.7 2004.09,1404.2 2051.5,1412.5C 2007.68,1408.73 1967.68,1394.56 1931.5,1370C 1927.69,1367.02 1924.02,1363.85 1920.5,1360.5C 1919.93,1374.07 1919.6,1387.74 1919.5,1401.5C 1895.17,1372.66 1866.5,1349.16 1833.5,1331C 1754.24,1287.81 1669.41,1266.31 1579,1266.5C 1503.51,1261.77 1438.01,1284.6 1382.5,1335C 1336.16,1379.81 1300.33,1431.98 1275,1491.5C 1223.44,1607.98 1206.44,1729.31 1224,1855.5C 1239.15,1937.45 1270.49,2012.45 1318,2080.5C 1377.99,2163.49 1450.15,2233.99 1534.5,2292C 1671.36,2374.5 1819.86,2416 1980,2416.5C 2130.01,2416.04 2269.85,2378.21 2399.5,2303C 2558.77,2203.55 2639.77,2059.21 2642.5,1870C 2642.81,1778.34 2622.64,1691.5 2582,1609.5C 2564.7,1576.06 2542.86,1545.89 2516.5,1519C 2477.2,1483.52 2431.54,1459.85 2379.5,1448C 2301.51,1431.82 2223.84,1433.32 2146.5,1452.5C 2145.29,1452.25 2144.62,1451.59 2144.5,1450.5C 2146.43,1437.78 2149.76,1425.44 2154.5,1413.5C 2240.47,1390.11 2327.47,1385.94 2415.5,1401C 2509.97,1418.77 2582.8,1467.94 2634,1548.5C 2684.55,1633.82 2713.21,1726.15 2720,1825.5C 2727.48,1922.97 2712.14,2016.64 2674,2106.5C 2624.36,2213.81 2548.53,2297.31 2446.5,2357C 2232.9,2476.66 2006.56,2509.33 1767.5,2455C 1671.58,2432.93 1581.58,2396.59 1497.5,2346C 1402.04,2282.21 1320.54,2203.71 1253,2110.5C 1225.79,2071.75 1202.95,2030.42 1184.5,1986.5C 1167.45,1945.85 1154.95,1903.85 1147,1860.5C 1132.65,1768.76 1136.31,1677.76 1158,1587.5C 1178.22,1499.42 1213.89,1418.42 1265,1344.5C 1289.42,1310.08 1318.59,1280.25 1352.5,1255C 1385.17,1231.17 1421.5,1215.84 1461.5,1209C 1563.57,1195.25 1662.57,1206.91 1758.5,1244C 1814.02,1264.9 1862.69,1296.07 1904.5,1337.5 Z"/></g>
<g><path style="opacity:1" fill="#ea4d44" d="M 1919.5,1401.5 C 1919.18,1432.08 1925.68,1461.08 1939,1488.5C 1956.95,1518.9 1983.78,1533.9 2019.5,1533.5C 2070.38,1530.32 2109.88,1507.65 2138,1465.5C 2140.77,1460.63 2142.94,1455.63 2144.5,1450.5C 2144.62,1451.59 2145.29,1452.25 2146.5,1452.5C 2223.84,1433.32 2301.51,1431.82 2379.5,1448C 2431.54,1459.85 2477.2,1483.52 2516.5,1519C 2542.86,1545.89 2564.7,1576.06 2582,1609.5C 2622.64,1691.5 2642.81,1778.34 2642.5,1870C 2639.77,2059.21 2558.77,2203.55 2399.5,2303C 2269.85,2378.21 2130.01,2416.04 1980,2416.5C 1819.86,2416 1671.36,2374.5 1534.5,2292C 1450.15,2233.99 1377.99,2163.49 1318,2080.5C 1270.49,2012.45 1239.15,1937.45 1224,1855.5C 1206.44,1729.31 1223.44,1607.98 1275,1491.5C 1300.33,1431.98 1336.16,1379.81 1382.5,1335C 1438.01,1284.6 1503.51,1261.77 1579,1266.5C 1669.41,1266.31 1754.24,1287.81 1833.5,1331C 1866.5,1349.16 1895.17,1372.66 1919.5,1401.5 Z"/></g>
<g><path style="opacity:1" fill="#da2327" d="M 1615.5,1350.5 C 1661.53,1348.61 1706.53,1354.44 1750.5,1368C 1805.64,1391.08 1830.47,1432.58 1825,1492.5C 1823.26,1512.89 1818.59,1532.56 1811,1551.5C 1735.38,1612.78 1678.38,1688.12 1640,1777.5C 1621.21,1823.69 1616.21,1871.35 1625,1920.5C 1631.98,1958.1 1641.32,1995.1 1653,2031.5C 1670.94,2083.31 1689.27,2134.97 1708,2186.5C 1714.61,2221.76 1700.78,2244.93 1666.5,2256C 1638.08,2262.65 1611.41,2258.32 1586.5,2243C 1579.32,2238.25 1572.32,2233.25 1565.5,2228C 1510.49,2174.41 1464.32,2114.24 1427,2047.5C 1388.89,1980.85 1359.56,1910.52 1339,1836.5C 1325.18,1760.35 1328.85,1685.01 1350,1610.5C 1364.25,1555.73 1386.25,1504.4 1416,1456.5C 1455.15,1402.49 1507.65,1368.99 1573.5,1356C 1587.65,1354.19 1601.65,1352.36 1615.5,1350.5 Z"/></g>
<g><path style="opacity:0.999" fill="#73bc43" d="M 2051.5,1412.5 C 2085.8,1416.09 2120.13,1416.42 2154.5,1413.5C 2149.76,1425.44 2146.43,1437.78 2144.5,1450.5C 2142.94,1455.63 2140.77,1460.63 2138,1465.5C 2109.88,1507.65 2070.38,1530.32 2019.5,1533.5C 1983.78,1533.9 1956.95,1518.9 1939,1488.5C 1925.68,1461.08 1919.18,1432.08 1919.5,1401.5C 1919.6,1387.74 1919.93,1374.07 1920.5,1360.5C 1924.02,1363.85 1927.69,1367.02 1931.5,1370C 1967.68,1394.56 2007.68,1408.73 2051.5,1412.5 Z"/></g>
<g><path style="opacity:1" fill="#fae573" d="M 1625.5,1435.5 C 1642.99,1434.82 1656.49,1441.82 1666,1456.5C 1668.38,1488.8 1669.71,1521.13 1670,1553.5C 1647.13,1532.96 1623.96,1512.79 1600.5,1493C 1586.65,1474.52 1588.99,1458.19 1607.5,1444C 1613.22,1440.3 1619.22,1437.47 1625.5,1435.5 Z"/></g>
<g><path style="opacity:1" fill="#63a543" d="M 1939.5,1446.5 C 1960.41,1454.65 1982.08,1459.82 2004.5,1462C 2037.45,1465.31 2070.45,1466.31 2103.5,1465C 2099.53,1469.77 2096.2,1474.94 2093.5,1480.5C 2082.73,1488.72 2070.73,1494.55 2057.5,1498C 2031.09,1505.18 2004.43,1506.35 1977.5,1501.5C 1948.77,1494.39 1936.1,1476.06 1939.5,1446.5 Z"/></g>
<g><path style="opacity:1" fill="#da2327" d="M 2322.5,1550.5 C 2345.03,1548.84 2366.69,1552.34 2387.5,1561C 2442.38,1585.37 2489.21,1620.53 2528,1666.5C 2572.41,1724.19 2589.08,1789.19 2578,1861.5C 2560.8,1950.53 2526.14,2031.86 2474,2105.5C 2447.78,2140.39 2416.95,2170.55 2381.5,2196C 2274.87,2266.46 2158.54,2313.46 2032.5,2337C 2008,2341.26 1983.34,2342.92 1958.5,2342C 1926,2338.18 1900.5,2323.02 1882,2296.5C 1866.92,2268.5 1871.08,2244 1894.5,2223C 1936.67,2196.75 1979,2170.75 2021.5,2145C 2056.25,2122.62 2089.59,2098.29 2121.5,2072C 2166.05,2034.44 2195.55,1987.27 2210,1930.5C 2231.34,1842.56 2233,1754.23 2215,1665.5C 2214.33,1662.83 2214.33,1660.17 2215,1657.5C 2224.71,1628.89 2239.88,1603.73 2260.5,1582C 2277.94,1565.05 2298.6,1554.55 2322.5,1550.5 Z"/></g>
<g><path style="opacity:1" fill="#fae573" d="M 1521.5,1562.5 C 1531.93,1561.86 1541.6,1564.19 1550.5,1569.5C 1564.71,1596.08 1579.04,1622.58 1593.5,1649C 1565.39,1643.53 1537.39,1637.2 1509.5,1630C 1495.65,1622.17 1490.49,1610.34 1494,1594.5C 1496.81,1585.38 1501.31,1577.22 1507.5,1570C 1511.83,1566.67 1516.49,1564.17 1521.5,1562.5 Z"/></g>
<g><path style="opacity:1" fill="#d92427" d="M 1838.5,1603.5 C 1844.04,1603.09 1849.37,1603.92 1854.5,1606C 1861.69,1609.2 1868.36,1613.2 1874.5,1618C 1897.28,1637.28 1918.62,1658.12 1938.5,1680.5C 1906.31,1729.23 1882.47,1781.9 1867,1838.5C 1854.45,1885.44 1845.45,1933.11 1840,1981.5C 1837.03,2009.13 1834.37,2036.8 1832,2064.5C 1831.31,2071.62 1829.98,2078.62 1828,2085.5C 1825.26,2090.58 1821.09,2093.75 1815.5,2095C 1790.41,2095.04 1769.25,2085.88 1752,2067.5C 1750.09,2063.05 1749.26,2058.38 1749.5,2053.5C 1750.68,2044.12 1751.85,2034.79 1753,2025.5C 1733.8,2016.3 1719.13,2002.3 1709,1983.5C 1708.4,1981.86 1707.9,1980.2 1707.5,1978.5C 1715.54,1958.94 1719.04,1938.6 1718,1917.5C 1717.75,1914.82 1716.75,1912.49 1715,1910.5C 1700.11,1898.39 1693.11,1882.73 1694,1863.5C 1702.1,1847.29 1709.1,1830.63 1715,1813.5C 1715.67,1809.17 1715.67,1804.83 1715,1800.5C 1706.82,1784.1 1703.82,1766.77 1706,1748.5C 1709.23,1743.21 1713.06,1738.38 1717.5,1734C 1727.61,1726.55 1737.11,1718.39 1746,1709.5C 1745.01,1701.58 1744.18,1693.58 1743.5,1685.5C 1745,1666.82 1754,1652.99 1770.5,1644C 1777.36,1643.41 1784.02,1644.08 1790.5,1646C 1792.76,1638.83 1795.26,1631.66 1798,1624.5C 1802.72,1617.11 1809.22,1611.95 1817.5,1609C 1824.5,1606.73 1831.5,1604.9 1838.5,1603.5 Z"/></g>
<g><path style="opacity:1" fill="#d92427" d="M 2103.5,1676.5 C 2112.17,1676.33 2120.84,1676.5 2129.5,1677C 2136.1,1678.28 2141.77,1681.28 2146.5,1686C 2154.18,1692.34 2160.34,1699.84 2165,1708.5C 2168.73,1719.1 2168.07,1729.43 2163,1739.5C 2162.33,1741.17 2162.33,1742.83 2163,1744.5C 2168.24,1746.1 2173.4,1747.94 2178.5,1750C 2192.59,1768.71 2193.09,1787.88 2180,1807.5C 2175.95,1812.05 2172.11,1816.71 2168.5,1821.5C 2172.89,1835.18 2177.39,1848.85 2182,1862.5C 2182.67,1867.83 2182.67,1873.17 2182,1878.5C 2177.73,1885.77 2173.06,1892.77 2168,1899.5C 2160.96,1906.21 2153.63,1912.54 2146,1918.5C 2144.67,1921.17 2143.33,1923.83 2142,1926.5C 2138.14,1944.66 2135.47,1962.99 2134,1981.5C 2129.97,1990.2 2123.8,1997.04 2115.5,2002C 2107.68,2006.41 2099.34,2009.41 2090.5,2011C 2088.38,2012.12 2086.54,2013.62 2085,2015.5C 2073.87,2032.56 2066.87,2051.22 2064,2071.5C 2063.22,2073.29 2062.05,2074.79 2060.5,2076C 2042.11,2086.21 2022.44,2090.55 2001.5,2089C 1999.38,2090.73 1997.88,2092.9 1997,2095.5C 1994.53,2102.58 1991.86,2109.58 1989,2116.5C 1983.67,2125.18 1975.84,2129.35 1965.5,2129C 1947.5,2131.28 1930.5,2128.28 1914.5,2120C 1907.04,2114.68 1904.21,2107.52 1906,2098.5C 1925.27,2056.95 1944.27,2015.29 1963,1973.5C 1987.64,1914.91 2004.98,1854.24 2015,1791.5C 2018.95,1760.23 2020.45,1728.9 2019.5,1697.5C 2047.13,1688.45 2075.13,1681.45 2103.5,1676.5 Z"/></g>
<g><path style="opacity:1" fill="#fae673" d="M 2392.5,1676.5 C 2423.14,1673.14 2439.47,1686.81 2441.5,1717.5C 2440.55,1735.95 2430.88,1746.12 2412.5,1748C 2382.48,1749.06 2352.48,1750.06 2322.5,1751C 2343.22,1727.07 2364.05,1703.24 2385,1679.5C 2387.57,1678.41 2390.07,1677.41 2392.5,1676.5 Z"/></g>
<g><path style="opacity:1" fill="#fae573" d="M 1461.5,1714.5 C 1468.17,1714.33 1474.84,1714.5 1481.5,1715C 1503.83,1734 1526.17,1753 1548.5,1772C 1518.36,1774.62 1488.19,1777.12 1458,1779.5C 1437.92,1774.71 1429.92,1762.05 1434,1741.5C 1437.79,1726.87 1446.96,1717.87 1461.5,1714.5 Z"/></g>
<g><path style="opacity:1" fill="#fae573" d="M 2405.5,1838.5 C 2436.44,1846.04 2445.94,1864.71 2434,1894.5C 2426.95,1908.94 2415.45,1914.78 2399.5,1912C 2373.83,1899.67 2348.17,1887.33 2322.5,1875C 2350.23,1862.8 2377.89,1850.63 2405.5,1838.5 Z"/></g>
<g><path style="opacity:1" fill="#fae673" d="M 1472.5,1879.5 C 1500.84,1883.22 1529.17,1887.06 1557.5,1891C 1532.83,1907.33 1508.17,1923.67 1483.5,1940C 1462.94,1950.13 1449.44,1944.3 1443,1922.5C 1441.18,1911.29 1444.18,1901.63 1452,1893.5C 1458.29,1887.95 1465.13,1883.28 1472.5,1879.5 Z"/></g>
<g><path style="opacity:1" fill="#fae573" d="M 2359.5,1995.5 C 2362.85,1995.33 2366.18,1995.5 2369.5,1996C 2397.57,2014.93 2399.9,2036.6 2376.5,2061C 2365.96,2067.22 2355.63,2066.89 2345.5,2060C 2323.83,2039.67 2302.17,2019.33 2280.5,1999C 2306.97,1997.59 2333.3,1996.42 2359.5,1995.5 Z"/></g>
<g><path style="opacity:1" fill="#fae573" d="M 1591.5,2028.5 C 1593.2,2028.34 1594.87,2028.51 1596.5,2029C 1578.83,2051.33 1561.17,2073.67 1543.5,2096C 1528.92,2105.29 1516.75,2102.79 1507,2088.5C 1499.5,2076.65 1499.83,2064.98 1508,2053.5C 1511.47,2049.03 1515.3,2044.87 1519.5,2041C 1543.69,2037.14 1567.69,2032.97 1591.5,2028.5 Z"/></g>
<g><path style="opacity:1" fill="#fae573" d="M 2199.5,2085.5 C 2223.43,2099.58 2247.26,2113.91 2271,2128.5C 2280.39,2143.22 2281.73,2158.56 2275,2174.5C 2267.45,2184.86 2257.28,2189.69 2244.5,2189C 2236.42,2185.92 2230.59,2180.42 2227,2172.5C 2217.72,2143.5 2208.56,2114.5 2199.5,2085.5 Z"/></g>
<g><path style="opacity:1" fill="#fae673" d="M 2083.5,2168.5 C 2100.46,2187.96 2117.63,2207.3 2135,2226.5C 2136.84,2238.41 2135.18,2249.74 2130,2260.5C 2118.99,2272.13 2106.16,2274.96 2091.5,2269C 2086.34,2265.5 2083.17,2260.67 2082,2254.5C 2081.5,2237.17 2081.33,2219.84 2081.5,2202.5C 2082.17,2191.17 2082.83,2179.83 2083.5,2168.5 Z"/></g>
<g><path style="opacity:1" fill="#f0a459" d="M 2083.5,2168.5 C 2082.83,2179.83 2082.17,2191.17 2081.5,2202.5C 2081.17,2190.81 2081.5,2179.15 2082.5,2167.5C 2083.11,2167.62 2083.44,2167.96 2083.5,2168.5 Z"/></g>
</svg>
