<?xml version="1.0" encoding="UTF-8"?>
<!DOCTYPE svg PUBLIC "-//W3C//DTD SVG 1.1//EN" "http://www.w3.org/Graphics/SVG/1.1/DTD/svg11.dtd">
<svg xmlns="http://www.w3.org/2000/svg" version="1.1" width="3000px" height="3000px" style="shape-rendering:geometricPrecision; text-rendering:geometricPrecision; image-rendering:optimizeQuality; fill-rule:evenodd; clip-rule:evenodd" xmlns:xlink="http://www.w3.org/1999/xlink">
<g><path style="opacity:0.993" fill="#183a59" d="M 1416.5,1033.5 C 1262.83,1033.5 1109.17,1033.5 955.5,1033.5C 928.69,1027.5 917.524,1010.83 922,983.5C 926.466,971.369 934.632,962.869 946.5,958C 1026.46,956.839 1106.46,956.339 1186.5,956.5C 1266.54,956.339 1346.54,956.839 1426.5,958C 1444.86,966.206 1453.36,980.372 1452,1000.5C 1447.87,1019.81 1436.04,1030.81 1416.5,1033.5 Z"/></g>
<g><path style="opacity:0.994" fill="#183958" d="M 2771.5,1033.5 C 2405.83,1033.5 2040.17,1033.5 1674.5,1033.5C 1648.74,1027.22 1637.91,1010.88 1642,984.5C 1646.61,970.228 1656.11,961.061 1670.5,957C 2042.17,956.333 2413.83,956.333 2785.5,957C 2807.75,963.982 2817.58,979.148 2815,1002.5C 2808.7,1024.24 2794.2,1034.58 2771.5,1033.5 Z"/></g>
<g><path style="opacity:0.993" fill="#aeacac" d="M 637.5,1066.5 C 565.627,1067.17 493.627,1067.84 421.5,1068.5C 437.87,1044.62 454.87,1021.12 472.5,998C 515.504,997.167 558.504,997.333 601.5,998.5C 613.525,1021.22 625.525,1043.89 637.5,1066.5 Z"/></g>
<g><path style="opacity:1" fill="#42a3ab" d="M 955.5,1033.5 C 1109.17,1033.5 1262.83,1033.5 1416.5,1033.5C 1416.5,1231.83 1416.5,1430.17 1416.5,1628.5C 1263.17,1629.83 1109.83,1629.83 956.5,1628.5C 956.833,1496.67 956.5,1365 955.5,1233.5C 955.5,1166.83 955.5,1100.17 955.5,1033.5 Z"/></g>
<g><path style="opacity:0.999" fill="#c0253b" d="M 1674.5,1033.5 C 2040.17,1033.5 2405.83,1033.5 2771.5,1033.5C 2771.5,1141.17 2771.5,1248.83 2771.5,1356.5C 2405.83,1356.5 2040.17,1356.5 1674.5,1356.5C 1674.5,1248.83 1674.5,1141.17 1674.5,1033.5 Z"/></g>
<g><path style="opacity:1" fill="#fefefe" d="M 1832.5,1057.5 C 1866.87,1052.95 1895.71,1063.28 1919,1088.5C 1931.09,1104.09 1938.09,1121.76 1940,1141.5C 1940.5,1204.83 1940.67,1268.17 1940.5,1331.5C 1877.5,1331.5 1814.5,1331.5 1751.5,1331.5C 1751.33,1268.83 1751.5,1206.17 1752,1143.5C 1760.14,1097.2 1786.97,1068.53 1832.5,1057.5 Z"/></g>
<g><path style="opacity:1" fill="#fefefe" d="M 2087.5,1057.5 C 2126.2,1052.78 2156.7,1066.12 2179,1097.5C 2186.24,1109.54 2190.9,1122.54 2193,1136.5C 2193.5,1201.5 2193.67,1266.5 2193.5,1331.5C 2130.83,1331.5 2068.17,1331.5 2005.5,1331.5C 2005.33,1267.83 2005.5,1204.17 2006,1140.5C 2014.94,1094.73 2042.1,1067.06 2087.5,1057.5 Z"/></g>
<g><path style="opacity:1" fill="#fefefe" d="M 2339.5,1057.5 C 2381.86,1052.1 2414.03,1067.43 2436,1103.5C 2442.15,1115.45 2445.82,1128.11 2447,1141.5C 2447.5,1204.83 2447.67,1268.17 2447.5,1331.5C 2384.83,1331.5 2322.17,1331.5 2259.5,1331.5C 2259.33,1267.5 2259.5,1203.5 2260,1139.5C 2269.12,1095.22 2295.62,1067.88 2339.5,1057.5 Z"/></g>
<g><path style="opacity:1" fill="#fefefe" d="M 2593.5,1057.5 C 2627.16,1053.33 2655.66,1063.33 2679,1087.5C 2691.58,1103.67 2698.91,1122 2701,1142.5C 2701.5,1205.5 2701.67,1268.5 2701.5,1331.5C 2638.5,1331.5 2575.5,1331.5 2512.5,1331.5C 2512.33,1268.17 2512.5,1204.83 2513,1141.5C 2518.57,1107.18 2536.73,1082.02 2567.5,1066C 2575.99,1062.22 2584.66,1059.39 2593.5,1057.5 Z"/></g>
<g><path style="opacity:0.995" fill="#d3d2d2" d="M 637.5,1066.5 C 645.951,1069.74 648.785,1075.74 646,1084.5C 642.99,1089.57 638.49,1091.9 632.5,1091.5C 565.167,1090.17 497.833,1090.17 430.5,1091.5C 419.89,1090.72 415.39,1085.05 417,1074.5C 417.792,1071.89 419.292,1069.89 421.5,1068.5C 493.627,1067.84 565.627,1067.17 637.5,1066.5 Z"/></g>
<g><path style="opacity:1" fill="#fefffe" d="M 1027.5,1086.5 C 1134.5,1086.5 1241.5,1086.5 1348.5,1086.5C 1348.5,1159.17 1348.5,1231.83 1348.5,1304.5C 1241.5,1304.5 1134.5,1304.5 1027.5,1304.5C 1027.5,1231.83 1027.5,1159.17 1027.5,1086.5 Z"/></g>
<g><path style="opacity:0.995" fill="#aeacac" d="M 632.5,1091.5 C 617.654,1114.53 603.321,1137.86 589.5,1161.5C 554.167,1161.5 518.833,1161.5 483.5,1161.5C 465.833,1138.17 448.167,1114.83 430.5,1091.5C 497.833,1090.17 565.167,1090.17 632.5,1091.5 Z"/></g>
<g><path style="opacity:0.991" fill="#d3d2d2" d="M 483.5,1161.5 C 518.833,1161.5 554.167,1161.5 589.5,1161.5C 599.816,1162.8 603.65,1168.47 601,1178.5C 598.244,1183.3 594.077,1185.63 588.5,1185.5C 553.833,1184.17 519.167,1184.17 484.5,1185.5C 476.231,1185.4 471.564,1181.23 470.5,1173C 471.239,1165.09 475.572,1161.26 483.5,1161.5 Z"/></g>
<g><path style="opacity:0.975" fill="#aeacac" d="M 775.5,1204.5 C 756.5,1204.5 737.5,1204.5 718.5,1204.5C 708.5,1204.5 698.5,1204.5 688.5,1204.5C 689.05,1192.57 694.384,1183.4 704.5,1177C 731.953,1162.09 759.62,1161.76 787.5,1176C 798.608,1182.27 804.608,1191.77 805.5,1204.5C 795.5,1204.5 785.5,1204.5 775.5,1204.5 Z"/></g>
<g><path style="opacity:0.996" fill="#aeacac" d="M 588.5,1185.5 C 588.5,1205.83 588.5,1226.17 588.5,1246.5C 553.833,1247.83 519.167,1247.83 484.5,1246.5C 484.5,1226.17 484.5,1205.83 484.5,1185.5C 519.167,1184.17 553.833,1184.17 588.5,1185.5 Z"/></g>
<g><path style="opacity:0.989" fill="#c3c1c1" d="M 718.5,1204.5 C 737.5,1204.5 756.5,1204.5 775.5,1204.5C 775.5,1225.83 775.5,1247.17 775.5,1268.5C 756.402,1269.82 737.402,1269.82 718.5,1268.5C 718.5,1247.17 718.5,1225.83 718.5,1204.5 Z"/></g>
<g><path style="opacity:0.999" fill="#c03230" d="M 955.5,1233.5 C 956.5,1365 956.833,1496.67 956.5,1628.5C 908.167,1628.5 859.833,1628.5 811.5,1628.5C 811.5,1579.5 811.5,1530.5 811.5,1481.5C 811.5,1410.5 811.5,1339.5 811.5,1268.5C 811.5,1256.83 811.5,1245.17 811.5,1233.5C 859.5,1233.5 907.5,1233.5 955.5,1233.5 Z"/></g>
<g><path style="opacity:0.991" fill="#d2cecd" d="M 484.5,1246.5 C 519.167,1247.83 553.833,1247.83 588.5,1246.5C 601.313,1248.31 608.98,1255.64 611.5,1268.5C 561.264,1269.83 510.931,1269.83 460.5,1268.5C 462.671,1261.16 466.671,1254.99 472.5,1250C 476.187,1247.71 480.187,1246.55 484.5,1246.5 Z"/></g>
<g><path style="opacity:0.999" fill="#a32a27" d="M 417.5,1268.5 C 431.833,1268.5 446.167,1268.5 460.5,1268.5C 510.931,1269.83 561.264,1269.83 611.5,1268.5C 647.167,1268.5 682.833,1268.5 718.5,1268.5C 737.402,1269.82 756.402,1269.82 775.5,1268.5C 787.5,1268.5 799.5,1268.5 811.5,1268.5C 811.5,1339.5 811.5,1410.5 811.5,1481.5C 679.833,1481.5 548.167,1481.5 416.5,1481.5C 416.167,1410.33 416.501,1339.33 417.5,1268.5 Z"/></g>
<g><path style="opacity:0.995" fill="#a32a27" d="M 383.5,1269.5 C 384.499,1351 384.833,1432.66 384.5,1514.5C 360.167,1514.5 335.833,1514.5 311.5,1514.5C 308.518,1497.97 306.851,1481.31 306.5,1464.5C 306.5,1449.83 306.5,1435.17 306.5,1420.5C 309.169,1380.66 319.669,1342.99 338,1307.5C 345.789,1294.41 355.955,1283.58 368.5,1275C 373.19,1272.27 378.19,1270.44 383.5,1269.5 Z"/></g>
<g><path style="opacity:1" fill="#aa1f32" d="M 1674.5,1356.5 C 2040.17,1356.5 2405.83,1356.5 2771.5,1356.5C 2771.5,1358.5 2771.5,1360.5 2771.5,1362.5C 2771.17,1362.5 2770.83,1362.5 2770.5,1362.5C 2770.5,1360.83 2770.5,1359.17 2770.5,1357.5C 2405.5,1357.5 2040.5,1357.5 1675.5,1357.5C 1675.5,1359.17 1675.5,1360.83 1675.5,1362.5C 1675.17,1362.5 1674.83,1362.5 1674.5,1362.5C 1674.5,1360.5 1674.5,1358.5 1674.5,1356.5 Z"/></g>
<g><path style="opacity:1" fill="#971c2c" d="M 2770.5,1362.5 C 2405.5,1362.5 2040.5,1362.5 1675.5,1362.5C 1675.5,1360.83 1675.5,1359.17 1675.5,1357.5C 2040.5,1357.5 2405.5,1357.5 2770.5,1357.5C 2770.5,1359.17 2770.5,1360.83 2770.5,1362.5 Z"/></g>
<g><path style="opacity:0.999" fill="#204b7e" d="M 1674.5,1362.5 C 1674.83,1362.5 1675.17,1362.5 1675.5,1362.5C 2040.5,1362.5 2405.5,1362.5 2770.5,1362.5C 2770.83,1362.5 2771.17,1362.5 2771.5,1362.5C 2782.11,1361.62 2788.11,1366.45 2789.5,1377C 2787.99,1387.27 2781.99,1392.1 2771.5,1391.5C 2405.83,1391.5 2040.17,1391.5 1674.5,1391.5C 1662.48,1389.47 1657.98,1382.47 1661,1370.5C 1663.9,1365.14 1668.4,1362.47 1674.5,1362.5 Z"/></g>
<g><path style="opacity:1" fill="#971c2d" d="M 1674.5,1391.5 C 2040.17,1391.5 2405.83,1391.5 2771.5,1391.5C 2771.5,1470.5 2771.5,1549.5 2771.5,1628.5C 2405.74,1629.83 2040.07,1629.83 1674.5,1628.5C 1674.5,1549.5 1674.5,1470.5 1674.5,1391.5 Z"/></g>
<g><path style="opacity:0.965" fill="#7b1e1b" d="M 306.5,1420.5 C 306.5,1435.17 306.5,1449.83 306.5,1464.5C 287.661,1459.82 281.828,1448.49 289,1430.5C 293.304,1424.43 299.137,1421.1 306.5,1420.5 Z"/></g>
<g><path style="opacity:1" fill="#7b1f1c" d="M 455.5,1435.5 C 470.429,1435.92 475.929,1443.25 472,1457.5C 466.054,1464.86 458.888,1466.36 450.5,1462C 445.798,1457.08 444.298,1451.24 446,1444.5C 448.406,1440.59 451.572,1437.59 455.5,1435.5 Z"/></g>
<g><path style="opacity:1" fill="#7b1f1c" d="M 529.5,1435.5 C 544.429,1435.92 549.929,1443.25 546,1457.5C 540.054,1464.86 532.888,1466.36 524.5,1462C 519.798,1457.08 518.298,1451.24 520,1444.5C 522.406,1440.59 525.572,1437.59 529.5,1435.5 Z"/></g>
<g><path style="opacity:1" fill="#7b1f1c" d="M 603.5,1435.5 C 618.429,1435.92 623.929,1443.25 620,1457.5C 613.481,1465.3 605.981,1466.46 597.5,1461C 590.57,1450.28 592.57,1441.78 603.5,1435.5 Z"/></g>
<g><path style="opacity:1" fill="#7b1f1c" d="M 677.5,1435.5 C 692.429,1435.92 697.929,1443.25 694,1457.5C 687.526,1465.29 680.026,1466.46 671.5,1461C 664.57,1450.28 666.57,1441.78 677.5,1435.5 Z"/></g>
<g><path style="opacity:1" fill="#7b1f1c" d="M 751.5,1435.5 C 766.395,1435.89 771.895,1443.22 768,1457.5C 763.692,1463.38 757.859,1465.55 750.5,1464C 742.39,1459.94 739.557,1453.44 742,1444.5C 744.406,1440.59 747.572,1437.59 751.5,1435.5 Z"/></g>
<g><path style="opacity:1" fill="#7b1f1c" d="M 417.5,1268.5 C 416.501,1339.33 416.167,1410.33 416.5,1481.5C 548.167,1481.5 679.833,1481.5 811.5,1481.5C 811.5,1530.5 811.5,1579.5 811.5,1628.5C 669.167,1628.5 526.833,1628.5 384.5,1628.5C 384.5,1590.5 384.5,1552.5 384.5,1514.5C 384.833,1432.66 384.499,1351 383.5,1269.5C 387.113,1254.53 396.113,1249.86 410.5,1255.5C 414.673,1258.85 417.006,1263.18 417.5,1268.5 Z"/></g>
<g><path style="opacity:1" fill="#9b2725" d="M 311.5,1514.5 C 335.833,1514.5 360.167,1514.5 384.5,1514.5C 384.5,1552.5 384.5,1590.5 384.5,1628.5C 383.5,1628.5 382.5,1628.5 381.5,1628.5C 363.34,1622.19 349.507,1610.52 340,1593.5C 325.845,1568.87 316.345,1542.54 311.5,1514.5 Z"/></g>
<g><path style="opacity:0.994" fill="#a32b27" d="M 348.5,1628.5 C 348.5,1645.83 348.5,1663.17 348.5,1680.5C 341.167,1680.5 333.833,1680.5 326.5,1680.5C 300.56,1683.44 285.893,1697.77 282.5,1723.5C 284.989,1750.32 299.655,1765.32 326.5,1768.5C 334.019,1768.18 341.352,1768.51 348.5,1769.5C 348.168,1814.34 348.501,1859 349.5,1903.5C 349.5,1916.17 349.5,1928.83 349.5,1941.5C 341.833,1941.5 334.167,1941.5 326.5,1941.5C 326.667,1893.5 326.5,1845.5 326,1797.5C 315.384,1845.41 305.218,1893.41 295.5,1941.5C 285.833,1941.5 276.167,1941.5 266.5,1941.5C 277.116,1892.78 287.616,1844.11 298,1795.5C 277.063,1844.15 256.23,1892.82 235.5,1941.5C 221.833,1941.5 208.167,1941.5 194.5,1941.5C 215.052,1893.08 235.552,1844.74 256,1796.5C 224.917,1844.73 194.083,1893.07 163.5,1941.5C 149.163,1941.67 134.829,1941.5 120.5,1941C 184.376,1837.42 247.876,1733.58 311,1629.5C 323.42,1628.51 335.92,1628.18 348.5,1628.5 Z"/></g>
<g><path style="opacity:0.999" fill="#7b7878" d="M 348.5,1628.5 C 359.5,1628.5 370.5,1628.5 381.5,1628.5C 382.5,1628.5 383.5,1628.5 384.5,1628.5C 526.833,1628.5 669.167,1628.5 811.5,1628.5C 859.833,1628.5 908.167,1628.5 956.5,1628.5C 1109.83,1629.83 1263.17,1629.83 1416.5,1628.5C 1432.74,1628.18 1448.91,1628.51 1465,1629.5C 1465.5,1646.5 1465.67,1663.5 1465.5,1680.5C 1457.17,1680.5 1448.83,1680.5 1440.5,1680.5C 1104.67,1680.17 769,1680.5 433.5,1681.5C 405.211,1680.52 376.877,1680.18 348.5,1680.5C 348.5,1663.17 348.5,1645.83 348.5,1628.5 Z"/></g>
<g><path style="opacity:0.998" fill="#7a7979" d="M 1674.5,1628.5 C 2040.07,1629.83 2405.74,1629.83 2771.5,1628.5C 2773.17,1628.5 2774.83,1628.5 2776.5,1628.5C 2776.5,1645.83 2776.5,1663.17 2776.5,1680.5C 2768.17,1680.5 2759.83,1680.5 2751.5,1680.5C 2387.5,1680.5 2023.5,1680.5 1659.5,1680.5C 1659.5,1663.17 1659.5,1645.83 1659.5,1628.5C 1664.5,1628.5 1669.5,1628.5 1674.5,1628.5 Z"/></g>
<g><path style="opacity:0.997" fill="#686666" d="M 1659.5,1680.5 C 2023.5,1680.5 2387.5,1680.5 2751.5,1680.5C 2751.5,1684.83 2751.5,1689.17 2751.5,1693.5C 2767.5,1693.67 2783.5,1693.5 2799.5,1693C 2813.52,1670.11 2832.85,1664.11 2857.5,1675C 2875.65,1687.43 2881.48,1704.27 2875,1725.5C 2866.26,1744.46 2851.43,1752.96 2830.5,1751C 2815.25,1748.25 2804.58,1739.75 2798.5,1725.5C 2782.85,1724.5 2767.18,1724.17 2751.5,1724.5C 2751.5,1739.5 2751.5,1754.5 2751.5,1769.5C 2708.45,1719.75 2654.11,1699.92 2588.5,1710C 2532.13,1723.38 2491.63,1756.21 2467,1808.5C 2464,1815.33 2461.5,1822.33 2459.5,1829.5C 2438.5,1829.5 2417.5,1829.5 2396.5,1829.5C 2373.49,1760 2325.83,1719.5 2253.5,1708C 2174.88,1703.38 2117.71,1735.88 2082,1805.5C 2078.66,1813.35 2075.83,1821.35 2073.5,1829.5C 2051.83,1829.5 2030.17,1829.5 2008.5,1829.5C 2007.51,1829.67 2006.84,1829.34 2006.5,1828.5C 1987.83,1768.33 1948.16,1729.5 1887.5,1712C 1814.84,1697.1 1755.67,1718.6 1710,1776.5C 1698.83,1792.85 1690.33,1810.51 1684.5,1829.5C 1676.17,1829.5 1667.83,1829.5 1659.5,1829.5C 1659.5,1795.5 1659.5,1761.5 1659.5,1727.5C 1647.83,1727.33 1636.16,1727.5 1624.5,1728C 1612.78,1748.47 1595.44,1755.47 1572.5,1749C 1566.49,1746.48 1561.16,1742.98 1556.5,1738.5C 1535.35,1756.11 1514.52,1755.78 1494,1737.5C 1490.76,1733.69 1488.6,1729.36 1487.5,1724.5C 1471.83,1724.5 1456.17,1724.5 1440.5,1724.5C 1440.5,1739.5 1440.5,1754.5 1440.5,1769.5C 1394.57,1717.14 1337.24,1697.97 1268.5,1712C 1207.15,1730.18 1166.82,1769.68 1147.5,1830.5C 1118.5,1829.17 1089.5,1829.17 1060.5,1830.5C 1041.69,1770.86 1002.36,1731.69 942.5,1713C 880.482,1698.02 826.315,1712.19 780,1755.5C 759.292,1776.92 744.792,1801.92 736.5,1830.5C 712.006,1829.5 687.339,1829.17 662.5,1829.5C 629.182,1780.51 582.848,1759.01 523.5,1765C 481.17,1772.48 448.17,1793.98 424.5,1829.5C 399.5,1829.5 374.5,1829.5 349.5,1829.5C 349.5,1854.17 349.5,1878.83 349.5,1903.5C 348.501,1859 348.168,1814.34 348.5,1769.5C 375.169,1769.67 401.835,1769.5 428.5,1769C 443.705,1767.14 453.871,1758.98 459,1744.5C 464.915,1726 462.581,1708.67 452,1692.5C 449.63,1689.96 447.13,1687.63 444.5,1685.5C 441.124,1683.4 437.458,1682.07 433.5,1681.5C 769,1680.5 1104.67,1680.17 1440.5,1680.5C 1440.5,1684.83 1440.5,1689.17 1440.5,1693.5C 1456.51,1693.83 1472.51,1693.5 1488.5,1692.5C 1500.21,1672.99 1517.21,1666.16 1539.5,1672C 1546.1,1674.22 1551.6,1678.05 1556,1683.5C 1573.4,1667.15 1592.23,1665.31 1612.5,1678C 1618.29,1682.59 1622.62,1688.25 1625.5,1695C 1636.83,1695.5 1648.16,1695.67 1659.5,1695.5C 1659.5,1690.5 1659.5,1685.5 1659.5,1680.5 Z M 1522.5,1686.5 C 1542.99,1687.98 1551.32,1698.81 1547.5,1719C 1539.18,1734.42 1527.18,1738.08 1511.5,1730C 1500.89,1720.27 1499.05,1709.1 1506,1696.5C 1510.44,1691.2 1515.94,1687.87 1522.5,1686.5 Z M 1584.5,1686.5 C 1600.63,1686.8 1609.63,1694.96 1611.5,1711C 1609.59,1725.07 1601.59,1732.91 1587.5,1734.5C 1568.78,1731.74 1561.45,1721.08 1565.5,1702.5C 1568.84,1693.49 1575.17,1688.15 1584.5,1686.5 Z M 2833.5,1686.5 C 2851.95,1687.45 2860.79,1697.12 2860,1715.5C 2852.63,1733.6 2840.13,1738.43 2822.5,1730C 2811.8,1719.64 2810.3,1708.14 2818,1695.5C 2822.6,1691.29 2827.77,1688.29 2833.5,1686.5 Z"/></g>
<g><path style="opacity:1" fill="#908e8e" d="M 326.5,1680.5 C 333.833,1680.5 341.167,1680.5 348.5,1680.5C 376.877,1680.18 405.211,1680.52 433.5,1681.5C 437.458,1682.07 441.124,1683.4 444.5,1685.5C 441.873,1703.26 432.873,1716.76 417.5,1726C 400.467,1734.48 382.467,1737.48 363.5,1735C 350.829,1733.5 338.496,1730.66 326.5,1726.5C 326.5,1711.17 326.5,1695.83 326.5,1680.5 Z"/></g>
<g><path style="opacity:1" fill="#fcdb10" d="M 326.5,1680.5 C 326.5,1695.83 326.5,1711.17 326.5,1726.5C 326.5,1740.5 326.5,1754.5 326.5,1768.5C 299.655,1765.32 284.989,1750.32 282.5,1723.5C 285.893,1697.77 300.56,1683.44 326.5,1680.5 Z"/></g>
<g><path style="opacity:1" fill="#858383" d="M 444.5,1685.5 C 447.13,1687.63 449.63,1689.96 452,1692.5C 462.581,1708.67 464.915,1726 459,1744.5C 453.871,1758.98 443.705,1767.14 428.5,1769C 401.835,1769.5 375.169,1769.67 348.5,1769.5C 341.352,1768.51 334.019,1768.18 326.5,1768.5C 326.5,1754.5 326.5,1740.5 326.5,1726.5C 338.496,1730.66 350.829,1733.5 363.5,1735C 382.467,1737.48 400.467,1734.48 417.5,1726C 432.873,1716.76 441.873,1703.26 444.5,1685.5 Z"/></g>
<g><path style="opacity:0.998" fill="#29242c" d="M 1060.5,1830.5 C 1061.09,1833.13 1061.42,1835.79 1061.5,1838.5C 1052.07,1834.62 1042.74,1830.45 1033.5,1826C 1027.45,1823.31 1021.78,1820.15 1016.5,1816.5C 991.239,1768.51 951.239,1743.84 896.5,1742.5C 833.499,1746.91 791.666,1778.91 771,1838.5C 759.154,1889.96 771.654,1934.46 808.5,1972C 848.268,2006.35 893.268,2015.35 943.5,1999C 994.601,1978.22 1023.43,1940.39 1030,1885.5C 1030.75,1876.47 1030.58,1867.47 1029.5,1858.5C 1041.57,1863.64 1053.57,1868.97 1065.5,1874.5C 1065.54,1884.24 1064.87,1893.91 1063.5,1903.5C 1053.98,1955.17 1026.64,1994.34 981.5,2021C 924.485,2050.28 867.819,2049.61 811.5,2019C 768.706,1991.96 742.372,1953.46 732.5,1903.5C 733.097,1903.26 733.43,1902.76 733.5,1902C 730.035,1877.93 731.035,1854.1 736.5,1830.5C 744.792,1801.92 759.292,1776.92 780,1755.5C 826.315,1712.19 880.482,1698.02 942.5,1713C 1002.36,1731.69 1041.69,1770.86 1060.5,1830.5 Z M 786.5,1903.5 C 808.167,1903.5 829.833,1903.5 851.5,1903.5C 837.521,1918.15 823.188,1932.48 808.5,1946.5C 798.295,1933.76 790.962,1919.43 786.5,1903.5 Z M 945.5,1903.5 C 967.167,1903.5 988.833,1903.5 1010.5,1903.5C 1006.07,1919.37 998.732,1933.7 988.5,1946.5C 973.812,1932.48 959.479,1918.15 945.5,1903.5 Z M 884.5,1906.5 C 885.498,1933.99 885.831,1961.66 885.5,1989.5C 863.391,1987.08 843.725,1978.91 826.5,1965C 846.035,1945.63 865.368,1926.13 884.5,1906.5 Z M 911.5,1906.5 C 931.299,1925.8 950.965,1945.3 970.5,1965C 953.161,1978.67 933.494,1986.83 911.5,1989.5C 911.5,1961.83 911.5,1934.17 911.5,1906.5 Z"/></g>
<g><path style="opacity:0.998" fill="#29242c" d="M 1440.5,1769.5 C 1472.82,1811.22 1483.99,1858.22 1474,1910.5C 1456.47,1978.69 1413.64,2021.53 1345.5,2039C 1269.07,2051.68 1209.24,2026.18 1166,1962.5C 1157.05,1947.14 1150.55,1930.8 1146.5,1913.5C 1162.01,1920.11 1177.34,1927.11 1192.5,1934.5C 1212.6,1972.74 1243.93,1996.24 1286.5,2005C 1352.78,2012.28 1400.95,1986.45 1431,1927.5C 1449.52,1880.19 1444.19,1835.85 1415,1794.5C 1375.83,1748.5 1327,1733.33 1268.5,1749C 1216.22,1768.62 1186.05,1806.12 1178,1861.5C 1177.3,1871.52 1177.47,1881.52 1178.5,1891.5C 1178.63,1892.38 1178.3,1893.04 1177.5,1893.5C 1165.62,1888.06 1153.95,1882.39 1142.5,1876.5C 1142.12,1860.93 1143.79,1845.6 1147.5,1830.5C 1166.82,1769.68 1207.15,1730.18 1268.5,1712C 1337.24,1697.97 1394.57,1717.14 1440.5,1769.5 Z M 1243.5,1959.5 C 1261.5,1967.84 1279.5,1976.17 1297.5,1984.5C 1297.5,1986.17 1297.5,1987.83 1297.5,1989.5C 1275.14,1986.89 1255.14,1978.72 1237.5,1965C 1239.37,1962.96 1241.37,1961.13 1243.5,1959.5 Z"/></g>
<g><path style="opacity:0.999" fill="#29242c" d="M 2006.5,1828.5 C 1989.4,1821.78 1973.06,1813.78 1957.5,1804.5C 1927.72,1759.78 1885.72,1739.28 1831.5,1743C 1781.2,1750.56 1745.36,1777.4 1724,1823.5C 1708.68,1864.94 1711.68,1904.94 1733,1943.5C 1763.31,1988.73 1805.81,2009.57 1860.5,2006C 1907.79,1999.02 1942.62,1974.52 1965,1932.5C 1977.16,1905.55 1980.66,1877.55 1975.5,1848.5C 1988.17,1854.5 2000.84,1860.5 2013.5,1866.5C 2013.66,1878.88 2012.99,1891.22 2011.5,1903.5C 1998.57,1965.93 1962.57,2009.1 1903.5,2033C 1841.27,2052.49 1784.94,2041.82 1734.5,2001C 1705.45,1974.74 1687.45,1942.24 1680.5,1903.5C 1676.82,1878.52 1678.15,1853.85 1684.5,1829.5C 1690.33,1810.51 1698.83,1792.85 1710,1776.5C 1755.67,1718.6 1814.84,1697.1 1887.5,1712C 1948.16,1729.5 1987.83,1768.33 2006.5,1828.5 Z M 1734.5,1903.5 C 1755.83,1903.5 1777.17,1903.5 1798.5,1903.5C 1784.54,1917.97 1770.37,1932.3 1756,1946.5C 1745.65,1933.81 1738.49,1919.47 1734.5,1903.5 Z M 1893.5,1903.5 C 1914.83,1903.5 1936.17,1903.5 1957.5,1903.5C 1953.64,1919.51 1946.48,1933.85 1936,1946.5C 1921.63,1932.3 1907.46,1917.97 1893.5,1903.5 Z M 1832.5,1906.5 C 1833.5,1933.99 1833.83,1961.66 1833.5,1989.5C 1811.48,1986.82 1791.81,1978.65 1774.5,1965C 1794.04,1945.63 1813.37,1926.13 1832.5,1906.5 Z M 1858.5,1906.5 C 1878.33,1925.83 1897.99,1945.33 1917.5,1965C 1900.41,1979.21 1880.74,1987.37 1858.5,1989.5C 1858.5,1961.83 1858.5,1934.17 1858.5,1906.5 Z"/></g>
<g><path style="opacity:1" fill="#29242c" d="M 2396.5,1829.5 C 2398.31,1836.41 2399.64,1843.41 2400.5,1850.5C 2387.07,1844.62 2373.74,1838.45 2360.5,1832C 2359.93,1831.01 2359.27,1830.17 2358.5,1829.5C 2340.26,1782.45 2306.26,1753.95 2256.5,1744C 2198.99,1737.35 2154.15,1757.85 2122,1805.5C 2110.71,1823.55 2104.54,1843.22 2103.5,1864.5C 2102.83,1867.69 2102.17,1871.02 2101.5,1874.5C 2090.47,1869.16 2079.47,1863.83 2068.5,1858.5C 2068.75,1848.56 2070.42,1838.9 2073.5,1829.5C 2075.83,1821.35 2078.66,1813.35 2082,1805.5C 2117.71,1735.88 2174.88,1703.38 2253.5,1708C 2325.83,1719.5 2373.49,1760 2396.5,1829.5 Z"/></g>
<g><path style="opacity:0.998" fill="#29242c" d="M 2751.5,1769.5 C 2776.1,1800.11 2788.76,1835.27 2789.5,1875C 2786.13,1945.45 2753.13,1996.45 2690.5,2028C 2627.96,2052.98 2569.62,2045.65 2515.5,2006C 2485.74,1981.38 2466.4,1950.22 2457.5,1912.5C 2472.27,1919.05 2486.93,1925.88 2501.5,1933C 2502.64,1934.15 2503.64,1935.31 2504.5,1936.5C 2529.62,1981.24 2567.95,2004.57 2619.5,2006.5C 2674.14,2005.11 2714.31,1980.44 2740,1932.5C 2761.72,1881.78 2756.05,1834.45 2723,1790.5C 2687.11,1750.54 2642.61,1735.7 2589.5,1746C 2553.94,1755.69 2526.44,1776.19 2507,1807.5C 2491.32,1834.22 2485.82,1862.89 2490.5,1893.5C 2478.08,1888.03 2465.75,1882.36 2453.5,1876.5C 2453.6,1860.57 2455.6,1844.91 2459.5,1829.5C 2461.5,1822.33 2464,1815.33 2467,1808.5C 2491.63,1756.21 2532.13,1723.38 2588.5,1710C 2654.11,1699.92 2708.45,1719.75 2751.5,1769.5 Z M 2555.5,1959.5 C 2572.8,1967.48 2590.14,1975.48 2607.5,1983.5C 2608.34,1985.38 2608.67,1987.38 2608.5,1989.5C 2586.38,1987.08 2566.72,1978.91 2549.5,1965C 2551.37,1962.96 2553.37,1961.13 2555.5,1959.5 Z"/></g>
<g><path style="opacity:0.988" fill="#a32b28" d="M 1016.5,1816.5 C 1016.44,1817.04 1016.11,1817.38 1015.5,1817.5C 1008.29,1813.73 1000.95,1810.23 993.5,1807C 991.983,1805.31 990.316,1803.81 988.5,1802.5C 986.52,1803.38 984.52,1803.22 982.5,1802C 976.075,1798.79 969.741,1795.62 963.5,1792.5C 966.297,1790.2 968.964,1787.7 971.5,1785C 953.881,1770.18 933.548,1761.68 910.5,1759.5C 910.5,1762.17 910.5,1764.83 910.5,1767.5C 899.896,1762.82 891.896,1765.48 886.5,1775.5C 886.821,1769.97 886.488,1764.64 885.5,1759.5C 862.922,1761.79 842.922,1770.13 825.5,1784.5C 844.854,1804.52 864.521,1824.19 884.5,1843.5C 884.783,1844.29 885.283,1844.96 886,1845.5C 886.5,1825.5 886.667,1805.5 886.5,1785.5C 887.879,1788.39 889.879,1790.89 892.5,1793C 898.72,1795.94 904.72,1799.11 910.5,1802.5C 910.5,1811.5 910.5,1820.5 910.5,1829.5C 910.334,1834.84 910.501,1840.18 911,1845.5C 916.037,1840.63 920.87,1835.63 925.5,1830.5C 930.5,1826.17 935.167,1821.5 939.5,1816.5C 948.067,1819.12 956.067,1822.79 963.5,1827.5C 951.702,1838.8 940.035,1850.3 928.5,1862C 956.831,1862.5 985.165,1862.67 1013.5,1862.5C 1013.37,1858.05 1012.7,1853.71 1011.5,1849.5C 1017.82,1851.99 1023.82,1854.99 1029.5,1858.5C 1030.58,1867.47 1030.75,1876.47 1030,1885.5C 1023.43,1940.39 994.601,1978.22 943.5,1999C 893.268,2015.35 848.268,2006.35 808.5,1972C 771.654,1934.46 759.154,1889.96 771,1838.5C 791.666,1778.91 833.499,1746.91 896.5,1742.5C 951.239,1743.84 991.239,1768.51 1016.5,1816.5 Z M 786.5,1903.5 C 808.167,1903.5 829.833,1903.5 851.5,1903.5C 837.521,1918.15 823.188,1932.48 808.5,1946.5C 798.295,1933.76 790.962,1919.43 786.5,1903.5 Z M 945.5,1903.5 C 967.167,1903.5 988.833,1903.5 1010.5,1903.5C 1006.07,1919.37 998.732,1933.7 988.5,1946.5C 973.812,1932.48 959.479,1918.15 945.5,1903.5 Z M 884.5,1906.5 C 865.368,1926.13 846.035,1945.63 826.5,1965C 843.725,1978.91 863.391,1987.08 885.5,1989.5C 885.831,1961.66 885.498,1933.99 884.5,1906.5 Z M 911.5,1906.5 C 911.5,1934.17 911.5,1961.83 911.5,1989.5C 933.494,1986.83 953.161,1978.67 970.5,1965C 950.965,1945.3 931.299,1925.8 911.5,1906.5 Z"/></g>
<g><path style="opacity:0.993" fill="#a32b28" d="M 1192.5,1934.5 C 1209.72,1942.61 1226.72,1950.94 1243.5,1959.5C 1241.37,1961.13 1239.37,1962.96 1237.5,1965C 1255.14,1978.72 1275.14,1986.89 1297.5,1989.5C 1297.5,1987.83 1297.5,1986.17 1297.5,1984.5C 1310.53,1987.95 1318.2,1983.11 1320.5,1970C 1319.98,1964.96 1317.65,1960.96 1313.5,1958C 1307.95,1955.39 1302.61,1952.56 1297.5,1949.5C 1297.67,1934.83 1297.5,1920.16 1297,1905.5C 1286.96,1915.37 1277.13,1925.37 1267.5,1935.5C 1258.95,1932.44 1250.95,1928.44 1243.5,1923.5C 1249.83,1916.83 1256.17,1910.17 1262.5,1903.5C 1268.91,1898.6 1274.91,1893.1 1280.5,1887C 1251.84,1886.5 1223.17,1886.33 1194.5,1886.5C 1195.6,1891.77 1196.27,1897.11 1196.5,1902.5C 1191.07,1900.29 1185.74,1897.79 1180.5,1895C 1179.92,1893.7 1179.25,1892.53 1178.5,1891.5C 1177.47,1881.52 1177.3,1871.52 1178,1861.5C 1186.05,1806.12 1216.22,1768.62 1268.5,1749C 1327,1733.33 1375.83,1748.5 1415,1794.5C 1444.19,1835.85 1449.52,1880.19 1431,1927.5C 1400.95,1986.45 1352.78,2012.28 1286.5,2005C 1243.93,1996.24 1212.6,1972.74 1192.5,1934.5 Z M 1357.5,1903.5 C 1378.83,1903.5 1400.17,1903.5 1421.5,1903.5C 1417.53,1919.43 1410.37,1933.77 1400,1946.5C 1385.63,1932.3 1371.46,1917.97 1357.5,1903.5 Z M 1297.5,1949.5 C 1287.47,1944.82 1277.47,1940.15 1267.5,1935.5C 1277.13,1925.37 1286.96,1915.37 1297,1905.5C 1297.5,1920.16 1297.67,1934.83 1297.5,1949.5 Z M 1322.5,1906.5 C 1342.3,1925.8 1361.97,1945.3 1381.5,1965C 1364.18,1978.65 1344.51,1986.82 1322.5,1989.5C 1322.5,1961.83 1322.5,1934.17 1322.5,1906.5 Z M 1243.5,1959.5 C 1261.5,1967.84 1279.5,1976.17 1297.5,1984.5C 1297.5,1986.17 1297.5,1987.83 1297.5,1989.5C 1275.14,1986.89 1255.14,1978.72 1237.5,1965C 1239.37,1962.96 1241.37,1961.13 1243.5,1959.5 Z"/></g>
<g><path style="opacity:0.992" fill="#a32b28" d="M 1957.5,1804.5 C 1957.44,1805.04 1957.11,1805.38 1956.5,1805.5C 1944.17,1799.67 1931.83,1793.83 1919.5,1788C 1918.75,1787.33 1918.41,1786.5 1918.5,1785.5C 1916.38,1782.55 1913.71,1780.05 1910.5,1778C 1895.19,1768.17 1878.52,1762.01 1860.5,1759.5C 1851.8,1757.43 1845.3,1760.43 1841,1768.5C 1838.85,1781.53 1844.35,1789.2 1857.5,1791.5C 1857.17,1809.51 1857.5,1827.51 1858.5,1845.5C 1859.11,1845.38 1859.44,1845.04 1859.5,1844.5C 1870.5,1832.83 1881.83,1821.5 1893.5,1810.5C 1901.85,1812.84 1909.51,1816.51 1916.5,1821.5C 1903.5,1835.17 1890.17,1848.5 1876.5,1861.5C 1875.96,1861.56 1875.62,1861.89 1875.5,1862.5C 1904.16,1863.5 1932.83,1863.83 1961.5,1863.5C 1961.78,1861.59 1961.45,1859.92 1960.5,1858.5C 1959.95,1851.98 1958.62,1845.65 1956.5,1839.5C 1962.96,1842.23 1969.29,1845.23 1975.5,1848.5C 1980.66,1877.55 1977.16,1905.55 1965,1932.5C 1942.62,1974.52 1907.79,1999.02 1860.5,2006C 1805.81,2009.57 1763.31,1988.73 1733,1943.5C 1711.68,1904.94 1708.68,1864.94 1724,1823.5C 1745.36,1777.4 1781.2,1750.56 1831.5,1743C 1885.72,1739.28 1927.72,1759.78 1957.5,1804.5 Z M 1734.5,1903.5 C 1755.83,1903.5 1777.17,1903.5 1798.5,1903.5C 1784.54,1917.97 1770.37,1932.3 1756,1946.5C 1745.65,1933.81 1738.49,1919.47 1734.5,1903.5 Z M 1893.5,1903.5 C 1914.83,1903.5 1936.17,1903.5 1957.5,1903.5C 1953.64,1919.51 1946.48,1933.85 1936,1946.5C 1921.63,1932.3 1907.46,1917.97 1893.5,1903.5 Z M 1832.5,1906.5 C 1813.37,1926.13 1794.04,1945.63 1774.5,1965C 1791.81,1978.65 1811.48,1986.82 1833.5,1989.5C 1833.83,1961.66 1833.5,1933.99 1832.5,1906.5 Z M 1858.5,1906.5 C 1858.5,1934.17 1858.5,1961.83 1858.5,1989.5C 1880.74,1987.37 1900.41,1979.21 1917.5,1965C 1897.99,1945.33 1878.33,1925.83 1858.5,1906.5 Z"/></g>
<g><path style="opacity:0.994" fill="#a32b28" d="M 2358.5,1829.5 C 2358.44,1830.04 2358.11,1830.38 2357.5,1830.5C 2350.81,1827.49 2344.15,1824.49 2337.5,1821.5C 2334.37,1814.53 2330.2,1808.19 2325,1802.5C 2322.3,1805.37 2319.46,1808.04 2316.5,1810.5C 2308.38,1807.6 2300.71,1803.94 2293.5,1799.5C 2297.8,1794.7 2302.3,1790.04 2307,1785.5C 2307.69,1784.67 2307.52,1784 2306.5,1783.5C 2289.1,1770.03 2269.44,1762.03 2247.5,1759.5C 2246.51,1765.64 2246.18,1771.98 2246.5,1778.5C 2236.13,1778.21 2230.46,1783.21 2229.5,1793.5C 2229.41,1797.07 2230.24,1800.4 2232,1803.5C 2236.09,1806.8 2240.59,1809.46 2245.5,1811.5C 2246.15,1823.23 2246.81,1834.23 2247.5,1844.5C 2254.83,1837.5 2262.17,1830.5 2269.5,1823.5C 2275.58,1825.71 2281.58,1828.21 2287.5,1831C 2289.58,1831.7 2291.25,1832.86 2292.5,1834.5C 2283.73,1843.69 2274.73,1852.69 2265.5,1861.5C 2264.96,1861.56 2264.62,1861.89 2264.5,1862.5C 2278.83,1862.83 2293.17,1863.17 2307.5,1863.5C 2322.18,1863.5 2336.52,1862.83 2350.5,1861.5C 2355.72,1863.69 2360.89,1866.03 2366,1868.5C 2366.5,1872.82 2366.67,1877.15 2366.5,1881.5C 2362.8,1927.41 2341.8,1962.91 2303.5,1988C 2259.97,2011.49 2215.97,2012.49 2171.5,1991C 2139.88,1972.89 2118.88,1946.39 2108.5,1911.5C 2115.87,1915.17 2123.2,1918.84 2130.5,1922.5C 2133.85,1931.36 2138.68,1939.36 2145,1946.5C 2149.04,1942.63 2152.87,1938.63 2156.5,1934.5C 2165.28,1938.06 2173.61,1942.39 2181.5,1947.5C 2175.37,1953.13 2169.37,1958.96 2163.5,1965C 2180.6,1979.21 2200.27,1987.38 2222.5,1989.5C 2222.5,1981.83 2222.5,1974.17 2222.5,1966.5C 2237.42,1967.41 2243.92,1960.41 2242,1945.5C 2240.83,1943.67 2239.67,1941.83 2238.5,1940C 2233.75,1937.03 2228.75,1934.53 2223.5,1932.5C 2222.7,1932.04 2222.37,1931.38 2222.5,1930.5C 2222.67,1922.49 2222.5,1914.49 2222,1906.5C 2216.3,1912.04 2210.8,1917.7 2205.5,1923.5C 2196.98,1919.74 2188.64,1915.74 2180.5,1911.5C 2182.83,1908.83 2185.17,1906.17 2187.5,1903.5C 2193.78,1898.89 2199.44,1893.56 2204.5,1887.5C 2179.91,1886.5 2154.57,1886.17 2128.5,1886.5C 2120.42,1883.29 2112.42,1879.79 2104.5,1876C 2103.54,1872.27 2103.21,1868.44 2103.5,1864.5C 2104.54,1843.22 2110.71,1823.55 2122,1805.5C 2154.15,1757.85 2198.99,1737.35 2256.5,1744C 2306.26,1753.95 2340.26,1782.45 2358.5,1829.5 Z M 2282.5,1903.5 C 2303.83,1903.5 2325.17,1903.5 2346.5,1903.5C 2342.51,1919.47 2335.35,1933.81 2325,1946.5C 2310.63,1932.3 2296.46,1917.97 2282.5,1903.5 Z M 2222.5,1930.5 C 2216.73,1928.45 2211.06,1926.12 2205.5,1923.5C 2210.8,1917.7 2216.3,1912.04 2222,1906.5C 2222.5,1914.49 2222.67,1922.49 2222.5,1930.5 Z M 2247.5,1906.5 C 2267.3,1925.8 2286.97,1945.3 2306.5,1965C 2289.29,1978.91 2269.62,1987.08 2247.5,1989.5C 2247.5,1961.83 2247.5,1934.17 2247.5,1906.5 Z M 2130.5,1922.5 C 2138.92,1927.04 2147.59,1931.04 2156.5,1934.5C 2152.87,1938.63 2149.04,1942.63 2145,1946.5C 2138.68,1939.36 2133.85,1931.36 2130.5,1922.5 Z M 2181.5,1947.5 C 2195.29,1953.56 2208.96,1959.9 2222.5,1966.5C 2222.5,1974.17 2222.5,1981.83 2222.5,1989.5C 2200.27,1987.38 2180.6,1979.21 2163.5,1965C 2169.37,1958.96 2175.37,1953.13 2181.5,1947.5 Z"/></g>
<g><path style="opacity:0.995" fill="#a32b28" d="M 2504.5,1936.5 C 2504.37,1935.62 2504.7,1934.96 2505.5,1934.5C 2522.27,1942.85 2538.94,1951.19 2555.5,1959.5C 2553.37,1961.13 2551.37,1962.96 2549.5,1965C 2566.72,1978.91 2586.38,1987.08 2608.5,1989.5C 2608.67,1987.38 2608.34,1985.38 2607.5,1983.5C 2621.33,1988.59 2629.33,1983.92 2631.5,1969.5C 2631.22,1964.78 2629.22,1960.94 2625.5,1958C 2619.42,1955.3 2613.75,1952.13 2608.5,1948.5C 2608.67,1934.5 2608.5,1920.5 2608,1906.5C 2598.3,1916.03 2588.8,1925.7 2579.5,1935.5C 2570.73,1932.28 2562.4,1928.28 2554.5,1923.5C 2560.83,1916.83 2567.17,1910.17 2573.5,1903.5C 2579.78,1898.89 2585.44,1893.56 2590.5,1887.5C 2562.91,1886.5 2534.57,1886.17 2505.5,1886.5C 2505.22,1888.41 2505.55,1890.08 2506.5,1891.5C 2507.21,1894.79 2507.54,1898.12 2507.5,1901.5C 2501.64,1899.07 2495.98,1896.4 2490.5,1893.5C 2485.82,1862.89 2491.32,1834.22 2507,1807.5C 2526.44,1776.19 2553.94,1755.69 2589.5,1746C 2642.61,1735.7 2687.11,1750.54 2723,1790.5C 2756.05,1834.45 2761.72,1881.78 2740,1932.5C 2714.31,1980.44 2674.14,2005.11 2619.5,2006.5C 2567.95,2004.57 2529.62,1981.24 2504.5,1936.5 Z M 2668.5,1903.5 C 2689.83,1903.5 2711.17,1903.5 2732.5,1903.5C 2728.51,1919.47 2721.35,1933.81 2711,1946.5C 2696.63,1932.3 2682.46,1917.97 2668.5,1903.5 Z M 2608.5,1948.5 C 2598.71,1944.44 2589.04,1940.11 2579.5,1935.5C 2588.8,1925.7 2598.3,1916.03 2608,1906.5C 2608.5,1920.5 2608.67,1934.5 2608.5,1948.5 Z M 2633.5,1906.5 C 2653.3,1925.8 2672.97,1945.3 2692.5,1965C 2675.28,1978.91 2655.62,1987.08 2633.5,1989.5C 2633.5,1961.83 2633.5,1934.17 2633.5,1906.5 Z M 2555.5,1959.5 C 2572.8,1967.48 2590.14,1975.48 2607.5,1983.5C 2608.34,1985.38 2608.67,1987.38 2608.5,1989.5C 2586.38,1987.08 2566.72,1978.91 2549.5,1965C 2551.37,1962.96 2553.37,1961.13 2555.5,1959.5 Z"/></g>
<g><path style="opacity:1" fill="#6a6767" d="M 885.5,1759.5 C 885.831,1787.67 885.498,1815.67 884.5,1843.5C 864.521,1824.19 844.854,1804.52 825.5,1784.5C 842.922,1770.13 862.922,1761.79 885.5,1759.5 Z"/></g>
<g><path style="opacity:1" fill="#6a6565" d="M 963.5,1792.5 C 945.499,1784.73 927.832,1776.4 910.5,1767.5C 910.5,1764.83 910.5,1762.17 910.5,1759.5C 933.548,1761.68 953.881,1770.18 971.5,1785C 968.964,1787.7 966.297,1790.2 963.5,1792.5 Z"/></g>
<g><path style="opacity:1" fill="#6a6767" d="M 1290.5,1759.5 C 1292.83,1759.5 1295.17,1759.5 1297.5,1759.5C 1297.67,1787.84 1297.5,1816.17 1297,1844.5C 1276.99,1824.65 1257.15,1804.65 1237.5,1784.5C 1253.27,1772.11 1270.94,1763.78 1290.5,1759.5 Z"/></g>
<g><path style="opacity:1" fill="#6b6666" d="M 1321.5,1759.5 C 1344.55,1761.68 1364.88,1770.18 1382.5,1785C 1362.33,1805.17 1342.17,1825.33 1322,1845.5C 1321.5,1816.84 1321.33,1788.17 1321.5,1759.5 Z"/></g>
<g><path style="opacity:0.998" fill="#7d1f1d" d="M 1860.5,1759.5 C 1879.06,1768.48 1897.73,1777.48 1916.5,1786.5C 1917.18,1786.14 1917.85,1785.8 1918.5,1785.5C 1918.41,1786.5 1918.75,1787.33 1919.5,1788C 1931.83,1793.83 1944.17,1799.67 1956.5,1805.5C 1957.11,1805.38 1957.44,1805.04 1957.5,1804.5C 1973.06,1813.78 1989.4,1821.78 2006.5,1828.5C 2006.84,1829.34 2007.51,1829.67 2008.5,1829.5C 2028.19,1839.68 2048.19,1849.34 2068.5,1858.5C 2079.47,1863.83 2090.47,1869.16 2101.5,1874.5C 2102.17,1871.02 2102.83,1867.69 2103.5,1864.5C 2103.21,1868.44 2103.54,1872.27 2104.5,1876C 2112.42,1879.79 2120.42,1883.29 2128.5,1886.5C 2128.83,1887.5 2129.5,1888.17 2130.5,1888.5C 2141.93,1894.09 2153.6,1899.09 2165.5,1903.5C 2170.31,1906.41 2175.31,1909.07 2180.5,1911.5C 2188.64,1915.74 2196.98,1919.74 2205.5,1923.5C 2211.06,1926.12 2216.73,1928.45 2222.5,1930.5C 2222.37,1931.38 2222.7,1932.04 2223.5,1932.5C 2228.75,1934.53 2233.75,1937.03 2238.5,1940C 2239.67,1941.83 2240.83,1943.67 2242,1945.5C 2243.92,1960.41 2237.42,1967.41 2222.5,1966.5C 2208.96,1959.9 2195.29,1953.56 2181.5,1947.5C 2173.61,1942.39 2165.28,1938.06 2156.5,1934.5C 2147.59,1931.04 2138.92,1927.04 2130.5,1922.5C 2123.2,1918.84 2115.87,1915.17 2108.5,1911.5C 2095.17,1905.17 2081.83,1898.83 2068.5,1892.5C 2050.05,1884.11 2031.71,1875.44 2013.5,1866.5C 2000.84,1860.5 1988.17,1854.5 1975.5,1848.5C 1969.29,1845.23 1962.96,1842.23 1956.5,1839.5C 1943.39,1832.91 1930.06,1826.91 1916.5,1821.5C 1909.51,1816.51 1901.85,1812.84 1893.5,1810.5C 1882.17,1804.42 1870.67,1798.42 1859,1792.5C 1858.17,1810 1858.34,1827.34 1859.5,1844.5C 1859.44,1845.04 1859.11,1845.38 1858.5,1845.5C 1857.5,1827.51 1857.17,1809.51 1857.5,1791.5C 1844.35,1789.2 1838.85,1781.53 1841,1768.5C 1845.3,1760.43 1851.8,1757.43 1860.5,1759.5 Z"/></g>
<g><path style="opacity:1" fill="#6a6767" d="M 2222.5,1759.5 C 2222.83,1788 2222.5,1816.34 2221.5,1844.5C 2201.85,1824.52 2182.19,1804.52 2162.5,1784.5C 2179.92,1770.12 2199.92,1761.79 2222.5,1759.5 Z"/></g>
<g><path style="opacity:1" fill="#953938" d="M 2222.5,1759.5 C 2223.83,1788 2223.83,1816.67 2222.5,1845.5C 2221.89,1845.38 2221.56,1845.04 2221.5,1844.5C 2222.5,1816.34 2222.83,1788 2222.5,1759.5 Z"/></g>
<g><path style="opacity:1" fill="#696666" d="M 2247.5,1759.5 C 2269.44,1762.03 2289.1,1770.03 2306.5,1783.5C 2307.52,1784 2307.69,1784.67 2307,1785.5C 2302.3,1790.04 2297.8,1794.7 2293.5,1799.5C 2278.17,1792.83 2262.83,1786.17 2247.5,1779.5C 2247.5,1772.83 2247.5,1766.17 2247.5,1759.5 Z"/></g>
<g><path style="opacity:1" fill="#6a6767" d="M 2608.5,1759.5 C 2608.83,1788 2608.5,1816.34 2607.5,1844.5C 2587.85,1824.52 2568.19,1804.52 2548.5,1784.5C 2565.87,1770.16 2585.87,1761.82 2608.5,1759.5 Z"/></g>
<g><path style="opacity:1" fill="#923e3c" d="M 2608.5,1759.5 C 2609.83,1788 2609.83,1816.67 2608.5,1845.5C 2607.89,1845.38 2607.56,1845.04 2607.5,1844.5C 2608.5,1816.34 2608.83,1788 2608.5,1759.5 Z"/></g>
<g><path style="opacity:1" fill="#953a38" d="M 2633.5,1759.5 C 2633.17,1788 2633.5,1816.34 2634.5,1844.5C 2634.44,1845.04 2634.11,1845.38 2633.5,1845.5C 2632.17,1816.67 2632.17,1788 2633.5,1759.5 Z"/></g>
<g><path style="opacity:1" fill="#6a6767" d="M 2633.5,1759.5 C 2655.99,1761.99 2675.99,1770.33 2693.5,1784.5C 2673.81,1804.52 2654.15,1824.52 2634.5,1844.5C 2633.5,1816.34 2633.17,1788 2633.5,1759.5 Z"/></g>
<g><path style="opacity:1" fill="#6a6767" d="M 1830.5,1759.5 C 1831.5,1759.5 1832.5,1759.5 1833.5,1759.5C 1833.67,1787.84 1833.5,1816.17 1833,1844.5C 1812.99,1824.65 1793.15,1804.65 1773.5,1784.5C 1790.28,1770.94 1809.28,1762.61 1830.5,1759.5 Z"/></g>
<g><path style="opacity:1" fill="#6b6363" d="M 1860.5,1759.5 C 1878.52,1762.01 1895.19,1768.17 1910.5,1778C 1913.71,1780.05 1916.38,1782.55 1918.5,1785.5C 1917.85,1785.8 1917.18,1786.14 1916.5,1786.5C 1897.73,1777.48 1879.06,1768.48 1860.5,1759.5 Z"/></g>
<g><path style="opacity:0.998" fill="#29242c" d="M 662.5,1829.5 C 675.75,1852.51 682.75,1877.18 683.5,1903.5C 680.893,1962.56 653.226,2005.06 600.5,2031C 546.56,2051.72 496.893,2044.39 451.5,2009C 420.753,1980.66 404.753,1945.5 403.5,1903.5C 403.97,1877.08 410.97,1852.41 424.5,1829.5C 448.17,1793.98 481.17,1772.48 523.5,1765C 582.848,1759.01 629.182,1780.51 662.5,1829.5 Z M 448.5,1913.5 C 471.502,1913.33 494.502,1913.5 517.5,1914C 501.333,1930.17 485.167,1946.33 469,1962.5C 457.255,1948.33 450.421,1932 448.5,1913.5 Z M 569.5,1914.5 C 592.327,1913.5 615.327,1913.17 638.5,1913.5C 636.627,1931.96 629.794,1948.3 618,1962.5C 601.965,1946.3 585.799,1930.3 569.5,1914.5 Z M 531.5,1929.5 C 532.498,1952.33 532.831,1975.33 532.5,1998.5C 514.26,1996.04 497.926,1989.21 483.5,1978C 499.702,1961.97 515.702,1945.8 531.5,1929.5 Z M 554.5,1929.5 C 570.965,1945.46 587.299,1961.63 603.5,1978C 589.315,1988.92 573.315,1995.76 555.5,1998.5C 554.5,1975.51 554.167,1952.51 554.5,1929.5 Z"/></g>
<g><path style="opacity:0.998" fill="#7c1f1d" d="M 910.5,1767.5 C 927.832,1776.4 945.499,1784.73 963.5,1792.5C 969.741,1795.62 976.075,1798.79 982.5,1802C 984.52,1803.22 986.52,1803.38 988.5,1802.5C 990.316,1803.81 991.983,1805.31 993.5,1807C 1000.95,1810.23 1008.29,1813.73 1015.5,1817.5C 1016.11,1817.38 1016.44,1817.04 1016.5,1816.5C 1021.78,1820.15 1027.45,1823.31 1033.5,1826C 1042.74,1830.45 1052.07,1834.62 1061.5,1838.5C 1088.08,1851.96 1115.08,1864.62 1142.5,1876.5C 1153.95,1882.39 1165.62,1888.06 1177.5,1893.5C 1178.3,1893.04 1178.63,1892.38 1178.5,1891.5C 1179.25,1892.53 1179.92,1893.7 1180.5,1895C 1185.74,1897.79 1191.07,1900.29 1196.5,1902.5C 1198.04,1903.3 1199.71,1903.63 1201.5,1903.5C 1215.19,1910.68 1229.19,1917.34 1243.5,1923.5C 1250.95,1928.44 1258.95,1932.44 1267.5,1935.5C 1277.47,1940.15 1287.47,1944.82 1297.5,1949.5C 1302.61,1952.56 1307.95,1955.39 1313.5,1958C 1317.65,1960.96 1319.98,1964.96 1320.5,1970C 1318.2,1983.11 1310.53,1987.95 1297.5,1984.5C 1279.5,1976.17 1261.5,1967.84 1243.5,1959.5C 1226.72,1950.94 1209.72,1942.61 1192.5,1934.5C 1177.34,1927.11 1162.01,1920.11 1146.5,1913.5C 1139.38,1910.44 1132.38,1907.11 1125.5,1903.5C 1105.56,1893.87 1085.56,1884.2 1065.5,1874.5C 1053.57,1868.97 1041.57,1863.64 1029.5,1858.5C 1023.82,1854.99 1017.82,1851.99 1011.5,1849.5C 995.732,1841.62 979.732,1834.28 963.5,1827.5C 956.067,1822.79 948.067,1819.12 939.5,1816.5C 936.227,1813.86 932.56,1811.69 928.5,1810C 922.583,1807.21 916.583,1804.71 910.5,1802.5C 904.72,1799.11 898.72,1795.94 892.5,1793C 889.879,1790.89 887.879,1788.39 886.5,1785.5C 886.5,1782.17 886.5,1778.83 886.5,1775.5C 891.896,1765.48 899.896,1762.82 910.5,1767.5 Z"/></g>
<g><path style="opacity:0.997" fill="#7c1f1d" d="M 2247.5,1759.5 C 2247.5,1766.17 2247.5,1772.83 2247.5,1779.5C 2262.83,1786.17 2278.17,1792.83 2293.5,1799.5C 2300.71,1803.94 2308.38,1807.6 2316.5,1810.5C 2323.31,1814.41 2330.31,1818.07 2337.5,1821.5C 2344.15,1824.49 2350.81,1827.49 2357.5,1830.5C 2358.11,1830.38 2358.44,1830.04 2358.5,1829.5C 2359.27,1830.17 2359.93,1831.01 2360.5,1832C 2373.74,1838.45 2387.07,1844.62 2400.5,1850.5C 2417.98,1859.41 2435.65,1868.07 2453.5,1876.5C 2465.75,1882.36 2478.08,1888.03 2490.5,1893.5C 2495.98,1896.4 2501.64,1899.07 2507.5,1901.5C 2509.3,1902.73 2511.3,1903.4 2513.5,1903.5C 2526.98,1910.41 2540.65,1917.07 2554.5,1923.5C 2562.4,1928.28 2570.73,1932.28 2579.5,1935.5C 2589.04,1940.11 2598.71,1944.44 2608.5,1948.5C 2613.75,1952.13 2619.42,1955.3 2625.5,1958C 2629.22,1960.94 2631.22,1964.78 2631.5,1969.5C 2629.33,1983.92 2621.33,1988.59 2607.5,1983.5C 2590.14,1975.48 2572.8,1967.48 2555.5,1959.5C 2538.94,1951.19 2522.27,1942.85 2505.5,1934.5C 2504.7,1934.96 2504.37,1935.62 2504.5,1936.5C 2503.64,1935.31 2502.64,1934.15 2501.5,1933C 2486.93,1925.88 2472.27,1919.05 2457.5,1912.5C 2451.08,1909.69 2444.75,1906.69 2438.5,1903.5C 2426.33,1897.25 2413.99,1891.25 2401.5,1885.5C 2390.4,1880.45 2379.4,1875.12 2368.5,1869.5C 2367.83,1873.65 2367.17,1877.65 2366.5,1881.5C 2366.67,1877.15 2366.5,1872.82 2366,1868.5C 2360.89,1866.03 2355.72,1863.69 2350.5,1861.5C 2350.17,1861.5 2349.83,1861.5 2349.5,1861.5C 2330.95,1851.73 2311.95,1842.73 2292.5,1834.5C 2291.25,1832.86 2289.58,1831.7 2287.5,1831C 2281.58,1828.21 2275.58,1825.71 2269.5,1823.5C 2262.72,1819.61 2255.72,1815.94 2248.5,1812.5C 2247.5,1823.15 2247.17,1833.81 2247.5,1844.5C 2246.81,1834.23 2246.15,1823.23 2245.5,1811.5C 2240.59,1809.46 2236.09,1806.8 2232,1803.5C 2230.24,1800.4 2229.41,1797.07 2229.5,1793.5C 2230.46,1783.21 2236.13,1778.21 2246.5,1778.5C 2246.18,1771.98 2246.51,1765.64 2247.5,1759.5 Z"/></g>
<g><path style="opacity:1" fill="#7c5757" d="M 885.5,1759.5 C 886.488,1764.64 886.821,1769.97 886.5,1775.5C 886.5,1778.83 886.5,1782.17 886.5,1785.5C 886.667,1805.5 886.5,1825.5 886,1845.5C 885.283,1844.96 884.783,1844.29 884.5,1843.5C 885.498,1815.67 885.831,1787.67 885.5,1759.5 Z"/></g>
<g><path style="opacity:0.986" fill="#a32b28" d="M 530.5,1793.5 C 586.087,1790.7 624.92,1814.7 647,1865.5C 661.336,1913.33 650.169,1954.16 613.5,1988C 576.09,2015.67 536.09,2020.01 493.5,2001C 451.927,1977.37 432.094,1941.53 434,1893.5C 440.385,1844.78 466.885,1812.61 513.5,1797C 519.229,1795.43 524.896,1794.27 530.5,1793.5 Z M 448.5,1913.5 C 450.421,1932 457.255,1948.33 469,1962.5C 485.167,1946.33 501.333,1930.17 517.5,1914C 494.502,1913.5 471.502,1913.33 448.5,1913.5 Z M 569.5,1914.5 C 585.799,1930.3 601.965,1946.3 618,1962.5C 629.794,1948.3 636.627,1931.96 638.5,1913.5C 615.327,1913.17 592.327,1913.5 569.5,1914.5 Z M 531.5,1929.5 C 515.702,1945.8 499.702,1961.97 483.5,1978C 497.926,1989.21 514.26,1996.04 532.5,1998.5C 532.831,1975.33 532.498,1952.33 531.5,1929.5 Z M 554.5,1929.5 C 554.167,1952.51 554.5,1975.51 555.5,1998.5C 573.315,1995.76 589.315,1988.92 603.5,1978C 587.299,1961.63 570.965,1945.46 554.5,1929.5 Z"/></g>
<g><path style="opacity:1" fill="#6c6969" d="M 1893.5,1810.5 C 1881.83,1821.5 1870.5,1832.83 1859.5,1844.5C 1858.34,1827.34 1858.17,1810 1859,1792.5C 1870.67,1798.42 1882.17,1804.42 1893.5,1810.5 Z"/></g>
<g><path style="opacity:1" fill="#781e1b" d="M 326.5,1941.5 C 316.167,1941.5 305.833,1941.5 295.5,1941.5C 305.218,1893.41 315.384,1845.41 326,1797.5C 326.5,1845.5 326.667,1893.5 326.5,1941.5 Z"/></g>
<g><path style="opacity:1" fill="#781e1b" d="M 266.5,1941.5 C 256.167,1941.5 245.833,1941.5 235.5,1941.5C 256.23,1892.82 277.063,1844.15 298,1795.5C 287.616,1844.11 277.116,1892.78 266.5,1941.5 Z"/></g>
<g><path style="opacity:1" fill="#781e1b" d="M 194.5,1941.5 C 184.167,1941.5 173.833,1941.5 163.5,1941.5C 194.083,1893.07 224.917,1844.73 256,1796.5C 235.552,1844.74 215.052,1893.08 194.5,1941.5 Z"/></g>
<g><path style="opacity:1" fill="#6a6665" d="M 835.5,1829.5 C 820.833,1829.5 806.167,1829.5 791.5,1829.5C 795.407,1819.34 801.074,1810.34 808.5,1802.5C 817.854,1811.19 826.854,1820.19 835.5,1829.5 Z"/></g>
<g><path style="opacity:1" fill="#6a6565" d="M 910.5,1802.5 C 916.583,1804.71 922.583,1807.21 928.5,1810C 932.56,1811.69 936.227,1813.86 939.5,1816.5C 935.167,1821.5 930.5,1826.17 925.5,1830.5C 920.695,1829.51 915.695,1829.18 910.5,1829.5C 910.5,1820.5 910.5,1811.5 910.5,1802.5 Z"/></g>
<g><path style="opacity:1" fill="#6b6565" d="M 1416.5,1829.5 C 1401.83,1829.5 1387.17,1829.5 1372.5,1829.5C 1381.15,1820.19 1390.15,1811.19 1399.5,1802.5C 1406.91,1810.31 1412.58,1819.31 1416.5,1829.5 Z"/></g>
<g><path style="opacity:1" fill="#6a6666" d="M 1783.5,1829.5 C 1768.83,1829.5 1754.17,1829.5 1739.5,1829.5C 1743.55,1819.73 1748.88,1810.73 1755.5,1802.5C 1764.88,1811.55 1774.21,1820.55 1783.5,1829.5 Z"/></g>
<g><path style="opacity:1" fill="#6a6464" d="M 2337.5,1821.5 C 2330.31,1818.07 2323.31,1814.41 2316.5,1810.5C 2319.46,1808.04 2322.3,1805.37 2325,1802.5C 2330.2,1808.19 2334.37,1814.53 2337.5,1821.5 Z"/></g>
<g><path style="opacity:1" fill="#6a6565" d="M 2557.5,1829.5 C 2543.17,1829.5 2528.83,1829.5 2514.5,1829.5C 2518.19,1819.49 2523.52,1810.49 2530.5,1802.5C 2540.52,1810.52 2549.52,1819.52 2557.5,1829.5 Z"/></g>
<g><path style="opacity:1" fill="#696666" d="M 1246.5,1829.5 C 1232.17,1829.5 1217.83,1829.5 1203.5,1829.5C 1207.04,1819.41 1212.38,1810.41 1219.5,1802.5C 1228.85,1811.19 1237.85,1820.19 1246.5,1829.5 Z"/></g>
<g><path style="opacity:1" fill="#696666" d="M 2171.5,1829.5 C 2157.17,1829.5 2142.83,1829.5 2128.5,1829.5C 2132.05,1819.4 2137.38,1810.4 2144.5,1802.5C 2153.85,1811.19 2162.85,1820.19 2171.5,1829.5 Z"/></g>
<g><path style="opacity:1" fill="#696666" d="M 2727.5,1829.5 C 2713.17,1829.5 2698.83,1829.5 2684.5,1829.5C 2693.15,1820.19 2702.15,1811.19 2711.5,1802.5C 2718.12,1810.73 2723.45,1819.73 2727.5,1829.5 Z"/></g>
<g><path style="opacity:1" fill="#6a6666" d="M 533.5,1829.5 C 517.325,1829.17 501.325,1829.5 485.5,1830.5C 484.305,1830.13 483.639,1829.3 483.5,1828C 497.864,1815.73 514.531,1808.9 533.5,1807.5C 533.5,1814.83 533.5,1822.17 533.5,1829.5 Z"/></g>
<g><path style="opacity:1" fill="#696666" d="M 554.5,1807.5 C 573.167,1809.34 589.5,1816.34 603.5,1828.5C 603.145,1829.52 602.478,1830.19 601.5,1830.5C 586.009,1829.5 570.342,1829.17 554.5,1829.5C 554.5,1822.17 554.5,1814.83 554.5,1807.5 Z"/></g>
<g><path style="opacity:1" fill="#6f6b6c" d="M 2269.5,1823.5 C 2262.17,1830.5 2254.83,1837.5 2247.5,1844.5C 2247.17,1833.81 2247.5,1823.15 2248.5,1812.5C 2255.72,1815.94 2262.72,1819.61 2269.5,1823.5 Z"/></g>
<g><path style="opacity:0.994" fill="#817e7f" d="M 424.5,1829.5 C 410.97,1852.41 403.97,1877.08 403.5,1903.5C 385.5,1903.5 367.5,1903.5 349.5,1903.5C 349.5,1878.83 349.5,1854.17 349.5,1829.5C 374.5,1829.5 399.5,1829.5 424.5,1829.5 Z"/></g>
<g><path style="opacity:1" fill="#827d7e" d="M 533.5,1829.5 C 533.667,1845.84 533.5,1862.17 533,1878.5C 516.965,1862.63 501.132,1846.63 485.5,1830.5C 501.325,1829.5 517.325,1829.17 533.5,1829.5 Z"/></g>
<g><path style="opacity:1" fill="#856565" d="M 554.5,1807.5 C 554.5,1814.83 554.5,1822.17 554.5,1829.5C 554.17,1845.34 554.504,1861.01 555.5,1876.5C 555.217,1877.29 554.717,1877.96 554,1878.5C 553.17,1854.66 553.337,1831 554.5,1807.5 Z"/></g>
<g><path style="opacity:1" fill="#827e7f" d="M 554.5,1829.5 C 570.342,1829.17 586.009,1829.5 601.5,1830.5C 586.5,1846.17 571.167,1861.5 555.5,1876.5C 554.504,1861.01 554.17,1845.34 554.5,1829.5 Z"/></g>
<g><path style="opacity:0.994" fill="#817e7f" d="M 662.5,1829.5 C 687.339,1829.17 712.006,1829.5 736.5,1830.5C 731.035,1854.1 730.035,1877.93 733.5,1902C 733.43,1902.76 733.097,1903.26 732.5,1903.5C 716.167,1903.5 699.833,1903.5 683.5,1903.5C 682.75,1877.18 675.75,1852.51 662.5,1829.5 Z"/></g>
<g><path style="opacity:1" fill="#827e7f" d="M 791.5,1829.5 C 806.167,1829.5 820.833,1829.5 835.5,1829.5C 846.833,1840.17 857.833,1851.17 868.5,1862.5C 840.167,1862.5 811.833,1862.5 783.5,1862.5C 783.5,1861.17 783.5,1859.83 783.5,1858.5C 784.546,1848.37 787.213,1838.7 791.5,1829.5 Z"/></g>
<g><path style="opacity:1" fill="#84797a" d="M 910.5,1829.5 C 915.695,1829.18 920.695,1829.51 925.5,1830.5C 920.87,1835.63 916.037,1840.63 911,1845.5C 910.501,1840.18 910.334,1834.84 910.5,1829.5 Z"/></g>
<g><path style="opacity:1" fill="#827e7f" d="M 963.5,1827.5 C 979.732,1834.28 995.732,1841.62 1011.5,1849.5C 1012.7,1853.71 1013.37,1858.05 1013.5,1862.5C 985.165,1862.67 956.831,1862.5 928.5,1862C 940.035,1850.3 951.702,1838.8 963.5,1827.5 Z"/></g>
<g><path style="opacity:1" fill="#817e7f" d="M 1147.5,1830.5 C 1143.79,1845.6 1142.12,1860.93 1142.5,1876.5C 1115.08,1864.62 1088.08,1851.96 1061.5,1838.5C 1061.42,1835.79 1061.09,1833.13 1060.5,1830.5C 1089.5,1829.17 1118.5,1829.17 1147.5,1830.5 Z"/></g>
<g><path style="opacity:1" fill="#827e7f" d="M 1203.5,1829.5 C 1217.83,1829.5 1232.17,1829.5 1246.5,1829.5C 1257.5,1840.17 1268.5,1850.83 1279.5,1861.5C 1251.34,1862.5 1223,1862.83 1194.5,1862.5C 1195.18,1850.76 1198.18,1839.76 1203.5,1829.5 Z"/></g>
<g><path style="opacity:1" fill="#827e7f" d="M 1372.5,1829.5 C 1387.17,1829.5 1401.83,1829.5 1416.5,1829.5C 1421.2,1839.98 1423.87,1850.98 1424.5,1862.5C 1396.33,1862.83 1368.33,1862.5 1340.5,1861.5C 1350.83,1850.5 1361.5,1839.83 1372.5,1829.5 Z"/></g>
<g><path style="opacity:0.952" fill="#817e7f" d="M 1659.5,1829.5 C 1667.83,1829.5 1676.17,1829.5 1684.5,1829.5C 1678.15,1853.85 1676.82,1878.52 1680.5,1903.5C 1673.5,1903.5 1666.5,1903.5 1659.5,1903.5C 1659.5,1878.83 1659.5,1854.17 1659.5,1829.5 Z"/></g>
<g><path style="opacity:1" fill="#827e7f" d="M 1739.5,1829.5 C 1754.17,1829.5 1768.83,1829.5 1783.5,1829.5C 1794.53,1839.86 1805.19,1850.53 1815.5,1861.5C 1787.34,1862.5 1759,1862.83 1730.5,1862.5C 1731.7,1850.9 1734.7,1839.9 1739.5,1829.5 Z"/></g>
<g><path style="opacity:1" fill="#807d7e" d="M 1916.5,1821.5 C 1930.06,1826.91 1943.39,1832.91 1956.5,1839.5C 1958.62,1845.65 1959.95,1851.98 1960.5,1858.5C 1960.5,1859.83 1960.5,1861.17 1960.5,1862.5C 1932.33,1862.83 1904.33,1862.5 1876.5,1861.5C 1890.17,1848.5 1903.5,1835.17 1916.5,1821.5 Z"/></g>
<g><path style="opacity:1" fill="#817d7e" d="M 2008.5,1829.5 C 2030.17,1829.5 2051.83,1829.5 2073.5,1829.5C 2070.42,1838.9 2068.75,1848.56 2068.5,1858.5C 2048.19,1849.34 2028.19,1839.68 2008.5,1829.5 Z"/></g>
<g><path style="opacity:1" fill="#827e7f" d="M 2128.5,1829.5 C 2142.83,1829.5 2157.17,1829.5 2171.5,1829.5C 2182.5,1840.17 2193.5,1850.83 2204.5,1861.5C 2176.34,1862.5 2148,1862.83 2119.5,1862.5C 2120.3,1850.79 2123.3,1839.79 2128.5,1829.5 Z"/></g>
<g><path style="opacity:1" fill="#817e7f" d="M 2396.5,1829.5 C 2417.5,1829.5 2438.5,1829.5 2459.5,1829.5C 2455.6,1844.91 2453.6,1860.57 2453.5,1876.5C 2435.65,1868.07 2417.98,1859.41 2400.5,1850.5C 2399.64,1843.41 2398.31,1836.41 2396.5,1829.5 Z"/></g>
<g><path style="opacity:1" fill="#827e7f" d="M 2514.5,1829.5 C 2528.83,1829.5 2543.17,1829.5 2557.5,1829.5C 2568.5,1840.17 2579.5,1850.83 2590.5,1861.5C 2562.34,1862.5 2534,1862.83 2505.5,1862.5C 2506.49,1850.86 2509.49,1839.86 2514.5,1829.5 Z"/></g>
<g><path style="opacity:1" fill="#827e7f" d="M 2684.5,1829.5 C 2698.83,1829.5 2713.17,1829.5 2727.5,1829.5C 2732.17,1839.21 2734.84,1849.54 2735.5,1860.5C 2721.85,1861.83 2707.85,1862.5 2693.5,1862.5C 2679.33,1862.5 2665.33,1862.17 2651.5,1861.5C 2662.5,1850.83 2673.5,1840.17 2684.5,1829.5 Z"/></g>
<g><path style="opacity:1" fill="#827e7f" d="M 2292.5,1834.5 C 2311.95,1842.73 2330.95,1851.73 2349.5,1861.5C 2321.5,1862.83 2293.5,1862.83 2265.5,1861.5C 2274.73,1852.69 2283.73,1843.69 2292.5,1834.5 Z"/></g>
<g><path style="opacity:1" fill="#827d7e" d="M 517.5,1891.5 C 494.673,1892.5 471.673,1892.83 448.5,1892.5C 448.5,1890.83 448.5,1889.17 448.5,1887.5C 451.102,1870.63 457.769,1855.63 468.5,1842.5C 485.188,1858.52 501.521,1874.85 517.5,1891.5 Z"/></g>
<g><path style="opacity:1" fill="#827e7e" d="M 639.5,1892.5 C 615.994,1892.83 592.661,1892.5 569.5,1891.5C 585.506,1874.83 601.839,1858.49 618.5,1842.5C 630.447,1857.06 637.447,1873.73 639.5,1892.5 Z"/></g>
<g><path style="opacity:1" fill="#29232a" d="M 1303.5,1849.5 C 1326,1849.16 1336.16,1860.16 1334,1882.5C 1326.36,1898.56 1314.2,1903.4 1297.5,1897C 1285.58,1888.49 1282.08,1877.32 1287,1863.5C 1291.06,1857.07 1296.56,1852.4 1303.5,1849.5 Z"/></g>
<g><path style="opacity:1" fill="#29232a" d="M 1840.5,1849.5 C 1855.89,1848.27 1866.05,1854.94 1871,1869.5C 1871.3,1891.53 1860.47,1901.36 1838.5,1899C 1825.91,1893.67 1820.08,1884.17 1821,1870.5C 1823.91,1860.09 1830.41,1853.09 1840.5,1849.5 Z"/></g>
<g><path style="opacity:1" fill="#29232a" d="M 2229.5,1849.5 C 2244.89,1848.27 2255.05,1854.94 2260,1869.5C 2259.25,1894.63 2246.75,1903.8 2222.5,1897C 2209.35,1887.25 2206.52,1875.08 2214,1860.5C 2218.16,1855.19 2223.33,1851.52 2229.5,1849.5 Z"/></g>
<g><path style="opacity:1" fill="#29232a" d="M 2615.5,1849.5 C 2630.89,1848.27 2641.05,1854.94 2646,1869.5C 2646.33,1891.5 2635.5,1901.33 2613.5,1899C 2600.63,1893.43 2594.79,1883.6 2596,1869.5C 2599.35,1859.65 2605.85,1852.98 2615.5,1849.5 Z"/></g>
<g><path style="opacity:1" fill="#29232a" d="M 892.5,1849.5 C 913.977,1848.81 924.144,1859.14 923,1880.5C 915.618,1899.11 902.785,1904.27 884.5,1896C 872.969,1886.54 870.469,1875.04 877,1861.5C 880.659,1855.43 885.826,1851.43 892.5,1849.5 Z"/></g>
<g><path style="opacity:1" fill="#9b403e" d="M 783.5,1858.5 C 783.5,1859.83 783.5,1861.17 783.5,1862.5C 811.833,1862.5 840.167,1862.5 868.5,1862.5C 840.574,1863.5 811.907,1863.83 782.5,1863.5C 782.216,1861.59 782.549,1859.92 783.5,1858.5 Z"/></g>
<g><path style="opacity:1" fill="#9c3f3d" d="M 1279.5,1861.5 C 1280.04,1861.56 1280.38,1861.89 1280.5,1862.5C 1251.67,1863.83 1223,1863.83 1194.5,1862.5C 1223,1862.83 1251.34,1862.5 1279.5,1861.5 Z"/></g>
<g><path style="opacity:1" fill="#9b403e" d="M 1340.5,1861.5 C 1368.33,1862.5 1396.33,1862.83 1424.5,1862.5C 1396,1863.66 1367.34,1863.83 1338.5,1863C 1339.04,1862.28 1339.71,1861.78 1340.5,1861.5 Z"/></g>
<g><path style="opacity:1" fill="#9b403e" d="M 1815.5,1861.5 C 1816.04,1861.56 1816.38,1861.89 1816.5,1862.5C 1787.67,1863.83 1759,1863.83 1730.5,1862.5C 1759,1862.83 1787.34,1862.5 1815.5,1861.5 Z"/></g>
<g><path style="opacity:1" fill="#9b403e" d="M 1960.5,1858.5 C 1961.45,1859.92 1961.78,1861.59 1961.5,1863.5C 1932.83,1863.83 1904.16,1863.5 1875.5,1862.5C 1875.62,1861.89 1875.96,1861.56 1876.5,1861.5C 1904.33,1862.5 1932.33,1862.83 1960.5,1862.5C 1960.5,1861.17 1960.5,1859.83 1960.5,1858.5 Z"/></g>
<g><path style="opacity:1" fill="#9c3f3e" d="M 2204.5,1861.5 C 2205.04,1861.56 2205.38,1861.89 2205.5,1862.5C 2176.67,1863.83 2148,1863.83 2119.5,1862.5C 2148,1862.83 2176.34,1862.5 2204.5,1861.5 Z"/></g>
<g><path style="opacity:1" fill="#9b403e" d="M 2265.5,1861.5 C 2293.5,1862.83 2321.5,1862.83 2349.5,1861.5C 2349.83,1861.5 2350.17,1861.5 2350.5,1861.5C 2336.52,1862.83 2322.18,1863.5 2307.5,1863.5C 2293.17,1863.17 2278.83,1862.83 2264.5,1862.5C 2264.62,1861.89 2264.96,1861.56 2265.5,1861.5 Z"/></g>
<g><path style="opacity:1" fill="#9b403e" d="M 2590.5,1861.5 C 2591.04,1861.56 2591.38,1861.89 2591.5,1862.5C 2562.67,1863.83 2534,1863.83 2505.5,1862.5C 2534,1862.83 2562.34,1862.5 2590.5,1861.5 Z"/></g>
<g><path style="opacity:1" fill="#9b403e" d="M 2735.5,1860.5 C 2736.4,1861.21 2736.74,1862.21 2736.5,1863.5C 2707.83,1863.83 2679.16,1863.5 2650.5,1862.5C 2650.62,1861.89 2650.96,1861.56 2651.5,1861.5C 2665.33,1862.17 2679.33,1862.5 2693.5,1862.5C 2707.85,1862.5 2721.85,1861.83 2735.5,1860.5 Z"/></g>
<g><path style="opacity:0.978" fill="#817e7f" d="M 2013.5,1866.5 C 2031.71,1875.44 2050.05,1884.11 2068.5,1892.5C 2068.72,1896.18 2069.06,1899.85 2069.5,1903.5C 2050.17,1903.5 2030.83,1903.5 2011.5,1903.5C 2012.99,1891.22 2013.66,1878.88 2013.5,1866.5 Z"/></g>
<g><path style="opacity:0.997" fill="#29232b" d="M 2401.5,1885.5 C 2401.3,1891.51 2400.97,1897.51 2400.5,1903.5C 2387.96,1965.2 2352.63,2008.03 2294.5,2032C 2232.16,2053.06 2175.49,2043.06 2124.5,2002C 2094.86,1975.55 2076.52,1942.72 2069.5,1903.5C 2069.06,1899.85 2068.72,1896.18 2068.5,1892.5C 2081.83,1898.83 2095.17,1905.17 2108.5,1911.5C 2118.88,1946.39 2139.88,1972.89 2171.5,1991C 2215.97,2012.49 2259.97,2011.49 2303.5,1988C 2341.8,1962.91 2362.8,1927.41 2366.5,1881.5C 2367.17,1877.65 2367.83,1873.65 2368.5,1869.5C 2379.4,1875.12 2390.4,1880.45 2401.5,1885.5 Z M 2165.5,1903.5 C 2172.83,1903.5 2180.17,1903.5 2187.5,1903.5C 2185.17,1906.17 2182.83,1908.83 2180.5,1911.5C 2175.31,1909.07 2170.31,1906.41 2165.5,1903.5 Z M 2282.5,1903.5 C 2303.83,1903.5 2325.17,1903.5 2346.5,1903.5C 2342.51,1919.47 2335.35,1933.81 2325,1946.5C 2310.63,1932.3 2296.46,1917.97 2282.5,1903.5 Z M 2222.5,1930.5 C 2216.73,1928.45 2211.06,1926.12 2205.5,1923.5C 2210.8,1917.7 2216.3,1912.04 2222,1906.5C 2222.5,1914.49 2222.67,1922.49 2222.5,1930.5 Z M 2247.5,1906.5 C 2247.5,1934.17 2247.5,1961.83 2247.5,1989.5C 2269.62,1987.08 2289.29,1978.91 2306.5,1965C 2286.97,1945.3 2267.3,1925.8 2247.5,1906.5 Z M 2130.5,1922.5 C 2138.92,1927.04 2147.59,1931.04 2156.5,1934.5C 2152.87,1938.63 2149.04,1942.63 2145,1946.5C 2138.68,1939.36 2133.85,1931.36 2130.5,1922.5 Z M 2181.5,1947.5 C 2195.29,1953.56 2208.96,1959.9 2222.5,1966.5C 2222.5,1974.17 2222.5,1981.83 2222.5,1989.5C 2200.27,1987.38 2180.6,1979.21 2163.5,1965C 2169.37,1958.96 2175.37,1953.13 2181.5,1947.5 Z"/></g>
<g><path style="opacity:0.965" fill="#817d7e" d="M 1065.5,1874.5 C 1085.56,1884.2 1105.56,1893.87 1125.5,1903.5C 1104.83,1903.5 1084.17,1903.5 1063.5,1903.5C 1064.87,1893.91 1065.54,1884.24 1065.5,1874.5 Z"/></g>
<g><path style="opacity:1" fill="#29232a" d="M 536.5,1882.5 C 555.994,1880.5 565.161,1889.16 564,1908.5C 559.082,1921.05 549.915,1925.88 536.5,1923C 524.553,1916.94 520.386,1907.44 524,1894.5C 527.088,1889.27 531.255,1885.27 536.5,1882.5 Z"/></g>
<g><path style="opacity:1" fill="#925353" d="M 783.5,1887.5 C 811.997,1886.34 840.664,1886.17 869.5,1887C 868.956,1887.72 868.289,1888.22 867.5,1888.5C 839.672,1887.5 811.672,1887.17 783.5,1887.5 Z"/></g>
<g><path style="opacity:1" fill="#925454" d="M 1013.5,1887.5 C 985.328,1887.17 957.328,1887.5 929.5,1888.5C 928.711,1888.22 928.044,1887.72 927.5,1887C 956.336,1886.17 985.003,1886.34 1013.5,1887.5 Z"/></g>
<g><path style="opacity:1" fill="#925353" d="M 1424.5,1889.5 C 1410.85,1888.17 1396.85,1887.5 1382.5,1887.5C 1368.33,1887.5 1354.33,1887.83 1340.5,1888.5C 1339.96,1888.44 1339.62,1888.11 1339.5,1887.5C 1368.16,1886.5 1396.83,1886.17 1425.5,1886.5C 1425.74,1887.79 1425.4,1888.79 1424.5,1889.5 Z"/></g>
<g><path style="opacity:1" fill="#925353" d="M 1815.5,1888.5 C 1787.67,1887.5 1759.67,1887.17 1731.5,1887.5C 1731.5,1888.83 1731.5,1890.17 1731.5,1891.5C 1730.55,1890.08 1730.22,1888.41 1730.5,1886.5C 1759.17,1886.17 1787.84,1886.5 1816.5,1887.5C 1816.38,1888.11 1816.04,1888.44 1815.5,1888.5 Z"/></g>
<g><path style="opacity:1" fill="#915454" d="M 1960.5,1891.5 C 1960.5,1890.17 1960.5,1888.83 1960.5,1887.5C 1932.5,1887.5 1904.5,1887.5 1876.5,1887.5C 1904.09,1886.5 1932.43,1886.17 1961.5,1886.5C 1961.78,1888.41 1961.45,1890.08 1960.5,1891.5 Z"/></g>
<g><path style="opacity:1" fill="#915353" d="M 2128.5,1886.5 C 2154.57,1886.17 2179.91,1886.5 2204.5,1887.5C 2179.66,1887.17 2154.99,1887.5 2130.5,1888.5C 2129.5,1888.17 2128.83,1887.5 2128.5,1886.5 Z"/></g>
<g><path style="opacity:1" fill="#925353" d="M 2349.5,1891.5 C 2349.5,1890.17 2349.5,1888.83 2349.5,1887.5C 2321.5,1887.5 2293.5,1887.5 2265.5,1887.5C 2293.09,1886.5 2321.43,1886.17 2350.5,1886.5C 2350.78,1888.41 2350.45,1890.08 2349.5,1891.5 Z"/></g>
<g><path style="opacity:0.943" fill="#807c7d" d="M 2401.5,1885.5 C 2413.99,1891.25 2426.33,1897.25 2438.5,1903.5C 2425.83,1903.5 2413.17,1903.5 2400.5,1903.5C 2400.97,1897.51 2401.3,1891.51 2401.5,1885.5 Z"/></g>
<g><path style="opacity:1" fill="#925353" d="M 2590.5,1887.5 C 2562.5,1887.5 2534.5,1887.5 2506.5,1887.5C 2506.5,1888.83 2506.5,1890.17 2506.5,1891.5C 2505.55,1890.08 2505.22,1888.41 2505.5,1886.5C 2534.57,1886.17 2562.91,1886.5 2590.5,1887.5 Z"/></g>
<g><path style="opacity:1" fill="#925353" d="M 2735.5,1891.5 C 2735.5,1890.17 2735.5,1888.83 2735.5,1887.5C 2707.5,1887.5 2679.5,1887.5 2651.5,1887.5C 2679.09,1886.5 2707.43,1886.17 2736.5,1886.5C 2736.78,1888.41 2736.45,1890.08 2735.5,1891.5 Z"/></g>
<g><path style="opacity:0.973" fill="#827e7f" d="M 783.5,1887.5 C 811.672,1887.17 839.672,1887.5 867.5,1888.5C 862.796,1894.21 857.463,1899.21 851.5,1903.5C 829.833,1903.5 808.167,1903.5 786.5,1903.5C 784.643,1898.36 783.643,1893.03 783.5,1887.5 Z"/></g>
<g><path style="opacity:0.973" fill="#827e7f" d="M 1013.5,1887.5 C 1013.14,1892.99 1012.14,1898.32 1010.5,1903.5C 988.833,1903.5 967.167,1903.5 945.5,1903.5C 939.558,1899.23 934.224,1894.23 929.5,1888.5C 957.328,1887.5 985.328,1887.17 1013.5,1887.5 Z"/></g>
<g><path style="opacity:0.973" fill="#837c7c" d="M 1262.5,1903.5 C 1242.17,1903.5 1221.83,1903.5 1201.5,1903.5C 1199.71,1903.63 1198.04,1903.3 1196.5,1902.5C 1196.27,1897.11 1195.6,1891.77 1194.5,1886.5C 1223.17,1886.33 1251.84,1886.5 1280.5,1887C 1274.91,1893.1 1268.91,1898.6 1262.5,1903.5 Z"/></g>
<g><path style="opacity:0.973" fill="#827e7f" d="M 1340.5,1888.5 C 1354.33,1887.83 1368.33,1887.5 1382.5,1887.5C 1396.85,1887.5 1410.85,1888.17 1424.5,1889.5C 1424.23,1894.45 1423.23,1899.12 1421.5,1903.5C 1400.17,1903.5 1378.83,1903.5 1357.5,1903.5C 1351.56,1898.89 1345.89,1893.89 1340.5,1888.5 Z"/></g>
<g><path style="opacity:0.973" fill="#827e7f" d="M 1815.5,1888.5 C 1810.11,1893.89 1804.44,1898.89 1798.5,1903.5C 1777.17,1903.5 1755.83,1903.5 1734.5,1903.5C 1732.72,1899.8 1731.72,1895.8 1731.5,1891.5C 1731.5,1890.17 1731.5,1888.83 1731.5,1887.5C 1759.67,1887.17 1787.67,1887.5 1815.5,1888.5 Z"/></g>
<g><path style="opacity:0.972" fill="#827e7f" d="M 1876.5,1887.5 C 1904.5,1887.5 1932.5,1887.5 1960.5,1887.5C 1960.5,1888.83 1960.5,1890.17 1960.5,1891.5C 1960.42,1895.84 1959.42,1899.84 1957.5,1903.5C 1936.17,1903.5 1914.83,1903.5 1893.5,1903.5C 1887.22,1898.89 1881.56,1893.56 1876.5,1887.5 Z"/></g>
<g><path style="opacity:0.984" fill="#827e7f" d="M 2130.5,1888.5 C 2154.99,1887.5 2179.66,1887.17 2204.5,1887.5C 2199.44,1893.56 2193.78,1898.89 2187.5,1903.5C 2180.17,1903.5 2172.83,1903.5 2165.5,1903.5C 2153.6,1899.09 2141.93,1894.09 2130.5,1888.5 Z"/></g>
<g><path style="opacity:0.973" fill="#827e7f" d="M 2265.5,1887.5 C 2293.5,1887.5 2321.5,1887.5 2349.5,1887.5C 2349.5,1888.83 2349.5,1890.17 2349.5,1891.5C 2349.1,1895.76 2348.1,1899.76 2346.5,1903.5C 2325.17,1903.5 2303.83,1903.5 2282.5,1903.5C 2276.22,1898.89 2270.56,1893.56 2265.5,1887.5 Z"/></g>
<g><path style="opacity:0.974" fill="#827e7f" d="M 2590.5,1887.5 C 2585.44,1893.56 2579.78,1898.89 2573.5,1903.5C 2553.5,1903.5 2533.5,1903.5 2513.5,1903.5C 2511.3,1903.4 2509.3,1902.73 2507.5,1901.5C 2507.54,1898.12 2507.21,1894.79 2506.5,1891.5C 2506.5,1890.17 2506.5,1888.83 2506.5,1887.5C 2534.5,1887.5 2562.5,1887.5 2590.5,1887.5 Z"/></g>
<g><path style="opacity:0.973" fill="#827e7f" d="M 2651.5,1887.5 C 2679.5,1887.5 2707.5,1887.5 2735.5,1887.5C 2735.5,1888.83 2735.5,1890.17 2735.5,1891.5C 2735.23,1895.82 2734.23,1899.82 2732.5,1903.5C 2711.17,1903.5 2689.83,1903.5 2668.5,1903.5C 2662.22,1898.89 2656.56,1893.56 2651.5,1887.5 Z"/></g>
<g><path style="opacity:1" fill="#925353" d="M 569.5,1891.5 C 592.661,1892.5 615.994,1892.83 639.5,1892.5C 615.997,1893.83 592.33,1893.83 568.5,1892.5C 568.624,1891.89 568.957,1891.56 569.5,1891.5 Z"/></g>
<g><path style="opacity:1" fill="#925454" d="M 448.5,1887.5 C 448.5,1889.17 448.5,1890.83 448.5,1892.5C 471.673,1892.83 494.673,1892.5 517.5,1891.5C 518.289,1891.78 518.956,1892.28 519.5,1893C 495.502,1893.5 471.502,1893.67 447.5,1893.5C 447.205,1891.26 447.539,1889.26 448.5,1887.5 Z"/></g>
</svg>
