<?xml version="1.0" encoding="UTF-8"?>
<!DOCTYPE svg PUBLIC "-//W3C//DTD SVG 1.1//EN" "http://www.w3.org/Graphics/SVG/1.1/DTD/svg11.dtd">
<svg xmlns="http://www.w3.org/2000/svg" version="1.1" width="3000px" height="3000px" style="shape-rendering:geometricPrecision; text-rendering:geometricPrecision; image-rendering:optimizeQuality; fill-rule:evenodd; clip-rule:evenodd" xmlns:xlink="http://www.w3.org/1999/xlink">
<g><path style="opacity:0.435" fill="#bacec2" d="M 1524.5,765.5 C 1503.16,765.492 1481.83,765.826 1460.5,766.5C 1460.5,766.167 1460.5,765.833 1460.5,765.5C 1481.99,764.33 1503.33,764.33 1524.5,765.5 Z"/></g>
<g><path style="opacity:0.999" fill="#e6e2d1" d="M 1460.5,765.5 C 1460.5,765.833 1460.5,766.167 1460.5,766.5C 1264.98,779.694 1099.48,856.36 964,996.5C 815.945,1159.65 750.945,1351.65 769,1572.5C 790.681,1764.71 873.181,1924.88 1016.5,2053C 1144.17,2162.08 1292.17,2222.25 1460.5,2233.5C 1074.81,2222.46 730.475,2099.3 427.5,1864C 316.963,1776.46 218.13,1677.3 131,1566.5C 119.91,1551.32 108.576,1536.32 97,1521.5C 91.904,1514.3 87.0707,1506.97 82.5,1499.5C 198.659,1334.51 339.325,1194.01 504.5,1078C 791.326,879.007 1109.99,774.84 1460.5,765.5 Z"/></g>
<g><path style="opacity:1" fill="#4f9d9e" d="M 1524.5,765.5 C 1721.66,775.353 1889.5,850.02 2028,989.5C 2180.58,1153.56 2247.92,1347.89 2230,1572.5C 2203.41,1793.64 2100.91,1969.47 1922.5,2100C 1806.01,2180.89 1676.68,2225.05 1534.5,2232.5C 1513.52,2233.4 1492.52,2233.74 1471.5,2233.5C 1467.83,2233.5 1464.17,2233.5 1460.5,2233.5C 1292.17,2222.25 1144.17,2162.08 1016.5,2053C 873.181,1924.88 790.681,1764.71 769,1572.5C 750.945,1351.65 815.945,1159.65 964,996.5C 1099.48,856.36 1264.98,779.694 1460.5,766.5C 1481.83,765.826 1503.16,765.492 1524.5,765.5 Z"/></g>
<g><path style="opacity:0.999" fill="#e6e2d0" d="M 1524.5,765.5 C 1904.37,772.921 2245.37,890.088 2547.5,1117C 2685.63,1222.8 2805.8,1345.96 2908,1486.5C 2911.24,1490.74 2914.08,1495.24 2916.5,1500C 2714.44,1782.74 2451.78,1988.41 2128.5,2117C 1937.43,2190.91 1739.43,2229.75 1534.5,2233.5C 1534.5,2233.17 1534.5,2232.83 1534.5,2232.5C 1676.68,2225.05 1806.01,2180.89 1922.5,2100C 2100.91,1969.47 2203.41,1793.64 2230,1572.5C 2247.92,1347.89 2180.58,1153.56 2028,989.5C 1889.5,850.02 1721.66,775.353 1524.5,765.5 Z"/></g>
<g><path style="opacity:1" fill="#e6e2d0" d="M 1403.5,1165.5 C 1436.83,1227.65 1435.33,1288.99 1399,1349.5C 1363.9,1400.39 1315.24,1426.39 1253,1427.5C 1221.59,1427.52 1192.42,1419.52 1165.5,1403.5C 1117.93,1374.03 1090.1,1331.36 1082,1275.5C 1076.11,1203.78 1102.61,1147.61 1161.5,1107C 1224.55,1071.29 1287.22,1071.95 1349.5,1109C 1371.1,1124.43 1389.1,1143.27 1403.5,1165.5 Z"/></g>
<g><path style="opacity:1" fill="#333129" d="M 1165.5,1403.5 C 1192.42,1419.52 1221.59,1427.52 1253,1427.5C 1315.24,1426.39 1363.9,1400.39 1399,1349.5C 1435.33,1288.99 1436.83,1227.65 1403.5,1165.5C 1519.7,1136.11 1625.03,1157.94 1719.5,1231C 1795.97,1296.43 1838.13,1379.59 1846,1480.5C 1849.07,1599.84 1804.9,1697.34 1713.5,1773C 1629.05,1836.03 1534.71,1858.36 1430.5,1840C 1308.99,1811.8 1224.15,1740.3 1176,1625.5C 1148.79,1552.64 1145.29,1478.64 1165.5,1403.5 Z"/></g>
<g><path style="opacity:0.54" fill="#b6ccc0" d="M 1534.5,2232.5 C 1534.5,2232.83 1534.5,2233.17 1534.5,2233.5C 1513.35,2234.79 1492.35,2234.79 1471.5,2233.5C 1492.52,2233.74 1513.52,2233.4 1534.5,2232.5 Z"/></g>
</svg>
