<?xml version="1.0" encoding="UTF-8"?>
<!DOCTYPE svg PUBLIC "-//W3C//DTD SVG 1.1//EN" "http://www.w3.org/Graphics/SVG/1.1/DTD/svg11.dtd">
<svg xmlns="http://www.w3.org/2000/svg" version="1.1" width="3000px" height="3000px" style="shape-rendering:geometricPrecision; text-rendering:geometricPrecision; image-rendering:optimizeQuality; fill-rule:evenodd; clip-rule:evenodd" xmlns:xlink="http://www.w3.org/1999/xlink">
<g><path style="opacity:0.994" fill="#8ccdb0" d="M 490.5,1000.5 C 655.206,998.931 818.872,1011.1 981.5,1037C 1068.95,1051.7 1154.95,1072.36 1239.5,1099C 1284.45,1114.54 1329.45,1129.87 1374.5,1145C 1467.31,1170.58 1559.31,1167.92 1650.5,1137C 1816.4,1074.02 1987.74,1034.02 2164.5,1017C 2275.21,1005.81 2386.21,1000.31 2497.5,1000.5C 2606.55,1002.14 2715.55,1004.97 2824.5,1009C 2848.33,1012.83 2862.17,1026.67 2866,1050.5C 2868.77,1102.01 2860.43,1151.68 2841,1199.5C 2820.98,1241.57 2805.31,1285.24 2794,1330.5C 2781.38,1389.86 2770.38,1449.53 2761,1509.5C 2751.25,1564.83 2737.58,1619.17 2720,1672.5C 2692.65,1747.04 2649.48,1810.87 2590.5,1864C 2570.93,1882.11 2550.26,1898.77 2528.5,1914C 2489.22,1938.3 2447.22,1956.64 2402.5,1969C 2297.91,1999.05 2191.91,2005.39 2084.5,1988C 1901.85,1952.65 1771.35,1850.82 1693,1682.5C 1681.27,1656.72 1670.94,1630.38 1662,1603.5C 1642.75,1538.07 1622.08,1473.07 1600,1408.5C 1586.11,1373.44 1560.28,1353.6 1522.5,1349C 1494.53,1344.81 1467.53,1348.14 1441.5,1359C 1427.91,1366.54 1416.74,1376.71 1408,1389.5C 1405.33,1394.83 1402.67,1400.17 1400,1405.5C 1376.53,1472.92 1354.86,1540.92 1335,1609.5C 1307.29,1693.96 1263.96,1768.96 1205,1834.5C 1116.71,1925.22 1009.21,1978.06 882.5,1993C 769.12,2005.7 658.787,1992.7 551.5,1954C 516.17,1941.34 483.503,1924.01 453.5,1902C 406.574,1866.74 366.074,1825.24 332,1777.5C 299.932,1729.67 276.932,1677.67 263,1621.5C 256.704,1597.65 251.038,1573.65 246,1549.5C 235.47,1495.66 225.804,1441.66 217,1387.5C 209.437,1344.58 198.437,1302.58 184,1261.5C 174.333,1238.17 164.667,1214.83 155,1191.5C 138.579,1147.97 130.912,1102.97 132,1056.5C 134.827,1025.82 151.66,1009.66 182.5,1008C 285.322,1005.16 387.988,1002.66 490.5,1000.5 Z M 714.5,1096.5 C 843.209,1096.86 969.543,1114.36 1093.5,1149C 1148.44,1163.99 1195.27,1192.15 1234,1233.5C 1275.79,1284.74 1296.29,1343.4 1295.5,1409.5C 1283.81,1522.07 1248.31,1626.4 1189,1722.5C 1149.73,1785.44 1099.23,1837.61 1037.5,1879C 956.103,1928.49 867.77,1949.49 772.5,1942C 721.07,1938.59 670.736,1929.26 621.5,1914C 565.845,1894.95 516.845,1865.28 474.5,1825C 389.808,1742.81 336.641,1643.31 315,1526.5C 298.638,1431.7 312.638,1341.7 357,1256.5C 383.364,1212.8 418.864,1178.64 463.5,1154C 522.027,1124.38 584.027,1106.72 649.5,1101C 671.296,1099.08 692.962,1097.58 714.5,1096.5 Z M 2236.5,1096.5 C 2309.34,1093.98 2381,1101.82 2451.5,1120C 2502.97,1134.06 2548.97,1158.06 2589.5,1192C 2630.05,1230.28 2657.88,1276.44 2673,1330.5C 2693.82,1403.63 2695.82,1477.3 2679,1551.5C 2654.34,1657.68 2603.18,1748.52 2525.5,1824C 2469.92,1876.96 2404.25,1911.3 2328.5,1927C 2264.88,1942.19 2200.55,1946.52 2135.5,1940C 2038.97,1927.73 1956.3,1887.73 1887.5,1820C 1838.83,1769.87 1799.66,1713.03 1770,1649.5C 1738.6,1582.62 1717.26,1512.62 1706,1439.5C 1698.29,1374.37 1711.62,1314.04 1746,1258.5C 1778.68,1211.83 1821.85,1178.67 1875.5,1159C 1993.17,1122.17 2113.51,1101.33 2236.5,1096.5 Z"/></g>
<g><path style="opacity:1" fill="#fdfefe" d="M 231.5,1070.5 C 254.149,1069.65 263.316,1080.31 259,1102.5C 252.049,1114.46 241.882,1118.29 228.5,1114C 217.217,1107.78 213.05,1098.28 216,1085.5C 219.106,1078.23 224.272,1073.23 231.5,1070.5 Z"/></g>
<g><path style="opacity:1" fill="#fdfefe" d="M 2752.5,1070.5 C 2775.17,1069 2784.67,1079.33 2781,1101.5C 2775.28,1113.61 2765.78,1118.11 2752.5,1115C 2741.01,1109.86 2735.85,1101.02 2737,1088.5C 2739.54,1080.14 2744.7,1074.14 2752.5,1070.5 Z"/></g>
<g><path style="opacity:1" fill="#fdfefe" d="M 231.5,1143.5 C 251.873,1142.04 261.373,1151.37 260,1171.5C 255.94,1184.45 247.107,1190.29 233.5,1189C 216.788,1182.74 211.621,1171.24 218,1154.5C 221.336,1149.27 225.836,1145.6 231.5,1143.5 Z"/></g>
<g><path style="opacity:1" fill="#fdfefd" d="M 2753.5,1143.5 C 2767.1,1141.71 2776.6,1147.05 2782,1159.5C 2784,1179.16 2775.17,1188.99 2755.5,1189C 2741.98,1184.79 2735.81,1175.63 2737,1161.5C 2739.62,1152.72 2745.12,1146.72 2753.5,1143.5 Z"/></g>
</svg>
