<?xml version="1.0" encoding="UTF-8"?>
<!DOCTYPE svg PUBLIC "-//W3C//DTD SVG 1.1//EN" "http://www.w3.org/Graphics/SVG/1.1/DTD/svg11.dtd">
<svg xmlns="http://www.w3.org/2000/svg" version="1.1" width="3000px" height="3000px" style="shape-rendering:geometricPrecision; text-rendering:geometricPrecision; image-rendering:optimizeQuality; fill-rule:evenodd; clip-rule:evenodd" xmlns:xlink="http://www.w3.org/1999/xlink">
<g><path style="opacity:0.999" fill="#fcf4e8" d="M 1808.5,758.5 C 1809.62,845.495 1809.78,932.495 1809,1019.5C 1807.14,1143.22 1803.47,1266.89 1798,1390.5C 1790.79,1434.12 1767.96,1466.62 1729.5,1488C 1692.22,1506.16 1652.88,1517.16 1611.5,1521C 1536.16,1528.31 1460.83,1528.31 1385.5,1521C 1344.33,1516.96 1305.33,1505.63 1268.5,1487C 1225.38,1461.63 1202.55,1423.8 1200,1373.5C 1191.19,1168.92 1188.03,964.251 1190.5,759.5C 1192.47,688.167 1194.63,616.833 1197,545.5C 1200.49,465.658 1226.82,394.658 1276,332.5C 1335.58,264.881 1410.58,228.881 1501,224.5C 1598.62,230.136 1676.96,271.469 1736,348.5C 1778.06,409.029 1800.4,476.362 1803,550.5C 1805.27,619.823 1807.11,689.157 1808.5,758.5 Z"/></g>
<g><path style="opacity:1" fill="#f4e6d5" d="M 1469.5,258.5 C 1550.94,253.922 1622.27,278.088 1683.5,331C 1735.5,382.488 1767.33,444.654 1779,517.5C 1784.65,554.621 1786.82,591.954 1785.5,629.5C 1784.85,711.195 1783.02,792.861 1780,874.5C 1774.88,787.21 1770.55,699.877 1767,612.5C 1764.36,555.27 1752.02,500.27 1730,447.5C 1679.03,339.552 1593.53,283.552 1473.5,279.5C 1439.43,279.947 1406.43,286.113 1374.5,298C 1355.89,304.981 1337.89,312.981 1320.5,322C 1364.24,287.137 1413.9,265.97 1469.5,258.5 Z"/></g>
<g><path style="opacity:0.998" fill="#fec499" d="M 1808.5,758.5 C 1831.96,790.729 1850.79,825.729 1865,863.5C 1892.45,937.756 1908.79,1014.42 1914,1093.5C 1927.99,1317.31 1937.66,1541.31 1943,1765.5C 1951.4,2073.79 1956.23,2382.12 1957.5,2690.5C 1928.16,2707.45 1897.16,2720.62 1864.5,2730C 1786.97,2751.87 1707.97,2765.2 1627.5,2770C 1516.57,2778.05 1405.9,2775.38 1295.5,2762C 1223.45,2753.26 1153.45,2736.26 1085.5,2711C 1070.75,2705.03 1056.41,2698.19 1042.5,2690.5C 1043.4,2391.79 1047.9,2093.12 1056,1794.5C 1061.25,1563.98 1070.91,1333.64 1085,1103.5C 1089.54,1026.49 1104.2,951.491 1129,878.5C 1144.3,835.884 1164.8,796.217 1190.5,759.5C 1188.03,964.251 1191.19,1168.92 1200,1373.5C 1202.55,1423.8 1225.38,1461.63 1268.5,1487C 1305.33,1505.63 1344.33,1516.96 1385.5,1521C 1460.83,1528.31 1536.16,1528.31 1611.5,1521C 1652.88,1517.16 1692.22,1506.16 1729.5,1488C 1767.96,1466.62 1790.79,1434.12 1798,1390.5C 1803.47,1266.89 1807.14,1143.22 1809,1019.5C 1809.78,932.495 1809.62,845.495 1808.5,758.5 Z"/></g>
<g><path style="opacity:1" fill="#edb188" d="M 1192.5,2372.5 C 1228.26,2379.55 1264.59,2384.38 1301.5,2387C 1426.13,2394.87 1550.79,2395.54 1675.5,2389C 1719.35,2387.08 1762.68,2381.75 1805.5,2373C 1783.38,2382.93 1760.38,2390.26 1736.5,2395C 1658.55,2409.67 1579.88,2416.51 1500.5,2415.5C 1421.81,2416.08 1343.81,2409.25 1266.5,2395C 1241.1,2389.81 1216.43,2382.31 1192.5,2372.5 Z"/></g>
<g><path style="opacity:1" fill="#edb188" d="M 1290.5,2496.5 C 1329.97,2505.76 1370.3,2510.93 1411.5,2512C 1495.4,2516.15 1579.07,2513.49 1662.5,2504C 1678.25,2501.43 1693.92,2498.76 1709.5,2496C 1682.43,2509.13 1654.1,2518.47 1624.5,2524C 1539.13,2539.24 1453.79,2539.24 1368.5,2524C 1340.9,2519.11 1314.9,2509.94 1290.5,2496.5 Z"/></g>
</svg>
