<?xml version="1.0" encoding="UTF-8"?>
<!DOCTYPE svg PUBLIC "-//W3C//DTD SVG 1.1//EN" "http://www.w3.org/Graphics/SVG/1.1/DTD/svg11.dtd">
<svg xmlns="http://www.w3.org/2000/svg" version="1.1" width="3000px" height="3000px" style="shape-rendering:geometricPrecision; text-rendering:geometricPrecision; image-rendering:optimizeQuality; fill-rule:evenodd; clip-rule:evenodd" xmlns:xlink="http://www.w3.org/1999/xlink">
<g><path style="opacity:0.997" fill="#6cb39c" d="M 2900.5,878.5 C 2883.26,847.114 2857.1,827.447 2822,819.5C 2821.25,822.303 2821.58,824.97 2823,827.5C 2833.54,837.042 2844.37,846.209 2855.5,855C 2819.8,847.107 2784.13,838.774 2748.5,830C 2736.55,828.95 2732.38,834.117 2736,845.5C 2737.83,847.333 2739.67,849.167 2741.5,851C 2772.17,865.333 2802.83,879.667 2833.5,894C 2832.55,894.483 2831.55,894.649 2830.5,894.5C 2829.83,894.5 2829.17,894.5 2828.5,894.5C 2772.92,872.721 2717.26,850.888 2661.5,829C 2632,816.585 2603.34,802.585 2575.5,787C 2565.5,782.168 2555.17,778.168 2544.5,775C 2539.17,774.333 2533.83,774.333 2528.5,775C 2524.38,778.525 2522.71,783.025 2523.5,788.5C 2523.98,795.239 2524.98,801.906 2526.5,808.5C 2526.17,809.5 2525.83,810.5 2525.5,811.5C 2516.28,815.941 2506.95,820.108 2497.5,824C 2493.58,825.54 2490.08,827.707 2487,830.5C 2486.06,833.88 2486.73,836.88 2489,839.5C 2494.5,844.333 2500,849.167 2505.5,854C 2503.19,853.845 2500.86,853.845 2498.5,854C 2501.82,855.511 2505.16,856.011 2508.5,855.5C 2514.34,857.46 2520.34,858.46 2526.5,858.5C 2526.5,858.833 2526.5,859.167 2526.5,859.5C 2524.19,866.035 2525.86,871.535 2531.5,876C 2534.83,878 2538.17,880 2541.5,882C 2553.33,886.61 2565,891.61 2576.5,897C 2581.63,899.654 2586.13,903.154 2590,907.5C 2591.1,911.735 2589.43,913.401 2585,912.5C 2577.68,911.207 2570.51,909.707 2563.5,908C 2567.1,911.441 2571.1,914.275 2575.5,916.5C 2580.49,920.331 2585.82,923.664 2591.5,926.5C 2605.11,936.108 2618.44,946.108 2631.5,956.5C 2632.57,957.885 2633.91,959.051 2635.5,960C 2628.14,958.161 2620.81,955.995 2613.5,953.5C 2600.53,950.011 2587.7,946.011 2575,941.5C 2574.5,941.667 2574,941.833 2573.5,942C 2577.04,945.369 2580.37,948.869 2583.5,952.5C 2576.98,952.177 2570.64,952.51 2564.5,953.5C 2564.17,953.5 2563.83,953.5 2563.5,953.5C 2547.99,938.733 2530.66,926.4 2511.5,916.5C 2511.17,916.833 2510.83,917.167 2510.5,917.5C 2533.47,953.634 2556.64,989.634 2580,1025.5C 2588.91,1037.75 2598.58,1049.42 2609,1060.5C 2611.97,1064.78 2614.14,1069.45 2615.5,1074.5C 2615.25,1075.71 2614.59,1076.38 2613.5,1076.5C 2605.24,1074.78 2596.91,1074.28 2588.5,1075C 2598.73,1080.94 2608.73,1087.11 2618.5,1093.5C 2618.82,1097.7 2618.48,1101.7 2617.5,1105.5C 2597.79,1098.37 2578.79,1089.71 2560.5,1079.5C 2559.09,1075.46 2556.42,1074.13 2552.5,1075.5C 2523.52,1059.35 2496.02,1041.02 2470,1020.5C 2469.33,1023.5 2469.33,1026.5 2470,1029.5C 2473.08,1035.9 2475.25,1042.57 2476.5,1049.5C 2474.89,1056.73 2474.22,1064.06 2474.5,1071.5C 2440.82,1016.74 2430.65,957.742 2444,894.5C 2468.72,800.776 2527.89,741.276 2621.5,716C 2711.32,698.832 2787.82,722.999 2851,788.5C 2873.99,814.805 2890.49,844.805 2900.5,878.5 Z"/></g>
<g><path style="opacity:0.984" fill="#5bc0b0" d="M 2267.5,730.5 C 2270.65,730.211 2273.65,730.711 2276.5,732C 2283.86,740.356 2291.52,748.356 2299.5,756C 2310.75,755.871 2321.91,754.704 2333,752.5C 2339.83,753.171 2342.5,756.838 2341,763.5C 2335.54,773.427 2330.37,783.427 2325.5,793.5C 2329.18,803.865 2333.68,813.865 2339,823.5C 2339.65,833.159 2335.15,836.659 2325.5,834C 2316.91,832.415 2308.41,830.582 2300,828.5C 2298.18,829.329 2296.35,830.163 2294.5,831C 2287.5,838 2280.5,845 2273.5,852C 2267.43,855.044 2262.93,853.544 2260,847.5C 2258.99,836.033 2257.32,824.7 2255,813.5C 2244.34,808.005 2234.01,802.005 2224,795.5C 2221.83,791.493 2222.33,787.826 2225.5,784.5C 2235.17,780 2244.83,775.5 2254.5,771C 2255.33,770.167 2256.17,769.333 2257,768.5C 2259.38,758.268 2261.38,747.935 2263,737.5C 2263.9,734.767 2265.4,732.433 2267.5,730.5 Z"/></g>
<g><path style="opacity:1" fill="#94c4a6" d="M 2763.5,759.5 C 2772.29,759.311 2779.79,762.311 2786,768.5C 2786.67,770.833 2786.67,773.167 2786,775.5C 2783.67,776.833 2781.33,778.167 2779,779.5C 2777.82,783.26 2778.99,786.093 2782.5,788C 2787.55,791.194 2792.89,793.861 2798.5,796C 2800.23,797.389 2801.56,799.056 2802.5,801C 2795.34,806.477 2792.51,813.643 2794,822.5C 2790.64,820.65 2787.64,818.317 2785,815.5C 2784.33,814.167 2784.33,812.833 2785,811.5C 2789.28,806.66 2789.44,801.827 2785.5,797C 2777.34,790.755 2769.01,784.755 2760.5,779C 2757.92,777.75 2755.26,777.416 2752.5,778C 2749.69,779.977 2747.02,782.144 2744.5,784.5C 2743.62,783.24 2742.62,782.074 2741.5,781C 2750.03,777.808 2755.86,771.974 2759,763.5C 2760.67,762.267 2762.17,760.933 2763.5,759.5 Z"/></g>
<g><path style="opacity:1" fill="#487d70" d="M 2687.5,768.5 C 2693.78,768.83 2700.11,768.996 2706.5,769C 2711.81,773.316 2712.81,778.483 2709.5,784.5C 2702.38,787.981 2696.54,792.981 2692,799.5C 2690.21,791.04 2685.04,785.873 2676.5,784C 2674.01,780.552 2674.68,777.552 2678.5,775C 2681.57,772.812 2684.57,770.645 2687.5,768.5 Z"/></g>
<g><path style="opacity:1" fill="#77cbb1" d="M 2828.5,894.5 C 2825.1,894.18 2821.77,894.513 2818.5,895.5C 2823.7,900.866 2829.37,905.699 2835.5,910C 2817.41,905.306 2799.41,899.973 2781.5,894C 2750.3,884.783 2718.63,877.617 2686.5,872.5C 2685.17,872.667 2683.83,872.833 2682.5,873C 2686.07,874.942 2689.4,877.108 2692.5,879.5C 2641.19,865.34 2589.85,851.506 2538.5,838C 2548.07,843.608 2557.4,849.441 2566.5,855.5C 2558.54,852.903 2550.37,851.236 2542,850.5C 2535.21,850.145 2530.04,852.812 2526.5,858.5C 2520.34,858.46 2514.34,857.46 2508.5,855.5C 2505.16,856.011 2501.82,855.511 2498.5,854C 2500.86,853.845 2503.19,853.845 2505.5,854C 2500,849.167 2494.5,844.333 2489,839.5C 2486.73,836.88 2486.06,833.88 2487,830.5C 2490.08,827.707 2493.58,825.54 2497.5,824C 2506.95,820.108 2516.28,815.941 2525.5,811.5C 2525.83,810.5 2526.17,809.5 2526.5,808.5C 2524.98,801.906 2523.98,795.239 2523.5,788.5C 2522.71,783.025 2524.38,778.525 2528.5,775C 2533.83,774.333 2539.17,774.333 2544.5,775C 2555.17,778.168 2565.5,782.168 2575.5,787C 2603.34,802.585 2632,816.585 2661.5,829C 2717.26,850.888 2772.92,872.721 2828.5,894.5 Z"/></g>
<g><path style="opacity:1" fill="#479077" d="M 2900.5,878.5 C 2904.68,890.396 2907.35,902.729 2908.5,915.5C 2910.02,938.53 2909.68,961.53 2907.5,984.5C 2905.3,1001.97 2900.64,1018.64 2893.5,1034.5C 2888.93,1043.31 2884.6,1052.31 2880.5,1061.5C 2874.92,1069.66 2869.59,1077.99 2864.5,1086.5C 2858.62,1095.72 2851.62,1104.05 2843.5,1111.5C 2835.98,1115.24 2827.98,1116.41 2819.5,1115C 2801.64,1112.65 2784.3,1108.65 2767.5,1103C 2775.83,1111.33 2784.17,1119.67 2792.5,1128C 2795.82,1128.5 2799.15,1128.67 2802.5,1128.5C 2788.86,1130.49 2775.2,1130.82 2761.5,1129.5C 2762.87,1129.66 2764.21,1129.49 2765.5,1129C 2747,1122.09 2729.67,1113.09 2713.5,1102C 2696.92,1089.42 2680.92,1076.09 2665.5,1062C 2659.5,1057.66 2653.17,1053.83 2646.5,1050.5C 2646.17,1050.83 2645.83,1051.17 2645.5,1051.5C 2653.84,1066.83 2660.5,1082.83 2665.5,1099.5C 2655.22,1094.36 2644.89,1089.19 2634.5,1084C 2627.42,1081.36 2620.42,1078.86 2613.5,1076.5C 2614.59,1076.38 2615.25,1075.71 2615.5,1074.5C 2614.14,1069.45 2611.97,1064.78 2609,1060.5C 2598.58,1049.42 2588.91,1037.75 2580,1025.5C 2556.64,989.634 2533.47,953.634 2510.5,917.5C 2510.83,917.167 2511.17,916.833 2511.5,916.5C 2530.66,926.4 2547.99,938.733 2563.5,953.5C 2559.52,956.877 2559.52,960.377 2563.5,964C 2569.74,967.394 2576.4,969.561 2583.5,970.5C 2584.39,971.11 2585.39,971.443 2586.5,971.5C 2595.81,979.968 2605.31,988.301 2615,996.5C 2611.58,989.206 2607.42,982.206 2602.5,975.5C 2674.44,991.985 2747.1,1004.82 2820.5,1014C 2810.05,1017.22 2799.38,1019.56 2788.5,1021C 2767.3,1024.39 2745.96,1026.39 2724.5,1027C 2770.88,1032.09 2817.22,1031.42 2863.5,1025C 2869.07,1023.61 2874.41,1021.61 2879.5,1019C 2884.86,1015.12 2887.03,1009.95 2886,1003.5C 2882.01,999.242 2877.18,996.075 2871.5,994C 2839.9,980.354 2807.56,968.687 2774.5,959C 2719.39,945.26 2664.05,932.594 2608.5,921C 2597.6,918.755 2586.6,917.255 2575.5,916.5C 2571.1,914.275 2567.1,911.441 2563.5,908C 2570.51,909.707 2577.68,911.207 2585,912.5C 2589.43,913.401 2591.1,911.735 2590,907.5C 2586.13,903.154 2581.63,899.654 2576.5,897C 2565,891.61 2553.33,886.61 2541.5,882C 2538.17,880 2534.83,878 2531.5,876C 2525.86,871.535 2524.19,866.035 2526.5,859.5C 2546.26,862.823 2566.09,865.823 2586,868.5C 2586.83,868.333 2587.67,868.167 2588.5,868C 2583.1,865.308 2578.1,862.142 2573.5,858.5C 2593.02,866.844 2612.35,875.677 2631.5,885C 2640.17,888.333 2648.83,891.667 2657.5,895C 2689.46,902.881 2721.46,910.548 2753.5,918C 2758.17,918.667 2762.83,918.667 2767.5,918C 2743.17,906.505 2719.5,894.005 2696.5,880.5C 2750.21,895.929 2804.21,910.429 2858.5,924C 2867.42,925.992 2876.42,926.992 2885.5,927C 2880.12,921.956 2874.46,917.289 2868.5,913C 2856.14,905.986 2843.47,899.819 2830.5,894.5C 2831.55,894.649 2832.55,894.483 2833.5,894C 2802.83,879.667 2772.17,865.333 2741.5,851C 2739.67,849.167 2737.83,847.333 2736,845.5C 2732.38,834.117 2736.55,828.95 2748.5,830C 2784.13,838.774 2819.8,847.107 2855.5,855C 2844.37,846.209 2833.54,837.042 2823,827.5C 2821.58,824.97 2821.25,822.303 2822,819.5C 2857.1,827.447 2883.26,847.114 2900.5,878.5 Z"/></g>
<g><path style="opacity:1" fill="#6cb39c" d="M 2692.5,879.5 C 2693.83,879.833 2695.17,880.167 2696.5,880.5C 2719.5,894.005 2743.17,906.505 2767.5,918C 2762.83,918.667 2758.17,918.667 2753.5,918C 2721.46,910.548 2689.46,902.881 2657.5,895C 2648.83,891.667 2640.17,888.333 2631.5,885C 2612.35,875.677 2593.02,866.844 2573.5,858.5C 2570.84,858.065 2568.51,857.065 2566.5,855.5C 2557.4,849.441 2548.07,843.608 2538.5,838C 2589.85,851.506 2641.19,865.34 2692.5,879.5 Z"/></g>
<g><path style="opacity:1" fill="#54b094" d="M 2566.5,855.5 C 2568.51,857.065 2570.84,858.065 2573.5,858.5C 2578.1,862.142 2583.1,865.308 2588.5,868C 2587.67,868.167 2586.83,868.333 2586,868.5C 2566.09,865.823 2546.26,862.823 2526.5,859.5C 2526.5,859.167 2526.5,858.833 2526.5,858.5C 2530.04,852.812 2535.21,850.145 2542,850.5C 2550.37,851.236 2558.54,852.903 2566.5,855.5 Z"/></g>
<g><path style="opacity:1" fill="#55b194" d="M 2828.5,894.5 C 2829.17,894.5 2829.83,894.5 2830.5,894.5C 2843.47,899.819 2856.14,905.986 2868.5,913C 2874.46,917.289 2880.12,921.956 2885.5,927C 2876.42,926.992 2867.42,925.992 2858.5,924C 2804.21,910.429 2750.21,895.929 2696.5,880.5C 2695.17,880.167 2693.83,879.833 2692.5,879.5C 2689.4,877.108 2686.07,874.942 2682.5,873C 2683.83,872.833 2685.17,872.667 2686.5,872.5C 2718.63,877.617 2750.3,884.783 2781.5,894C 2799.41,899.973 2817.41,905.306 2835.5,910C 2829.37,905.699 2823.7,900.866 2818.5,895.5C 2821.77,894.513 2825.1,894.18 2828.5,894.5 Z"/></g>
<g><path style="opacity:1" fill="#54b194" d="M 2575.5,916.5 C 2586.6,917.255 2597.6,918.755 2608.5,921C 2664.05,932.594 2719.39,945.26 2774.5,959C 2807.56,968.687 2839.9,980.354 2871.5,994C 2877.18,996.075 2882.01,999.242 2886,1003.5C 2887.03,1009.95 2884.86,1015.12 2879.5,1019C 2874.41,1021.61 2869.07,1023.61 2863.5,1025C 2817.22,1031.42 2770.88,1032.09 2724.5,1027C 2745.96,1026.39 2767.3,1024.39 2788.5,1021C 2799.38,1019.56 2810.05,1017.22 2820.5,1014C 2747.1,1004.82 2674.44,991.985 2602.5,975.5C 2602.5,974.833 2602.17,974.5 2601.5,974.5C 2596.14,967.481 2590.81,960.481 2585.5,953.5C 2595.01,953.953 2604.35,953.953 2613.5,953.5C 2620.81,955.995 2628.14,958.161 2635.5,960C 2633.91,959.051 2632.57,957.885 2631.5,956.5C 2659.48,959.924 2687.48,963.091 2715.5,966C 2701.5,955.999 2686.16,948.666 2669.5,944C 2643.48,938.162 2617.48,932.329 2591.5,926.5C 2585.82,923.664 2580.49,920.331 2575.5,916.5 Z"/></g>
<g><path style="opacity:1" fill="#479077" d="M 2591.5,926.5 C 2617.48,932.329 2643.48,938.162 2669.5,944C 2686.16,948.666 2701.5,955.999 2715.5,966C 2687.48,963.091 2659.48,959.924 2631.5,956.5C 2618.44,946.108 2605.11,936.108 2591.5,926.5 Z"/></g>
<g><path style="opacity:1" fill="#489178" d="M 2613.5,953.5 C 2604.35,953.953 2595.01,953.953 2585.5,953.5C 2584.83,953.167 2584.17,952.833 2583.5,952.5C 2580.37,948.869 2577.04,945.369 2573.5,942C 2574,941.833 2574.5,941.667 2575,941.5C 2587.7,946.011 2600.53,950.011 2613.5,953.5 Z"/></g>
<g><path style="opacity:1" fill="#5da88e" d="M 2908.5,915.5 C 2912.65,938.557 2912.32,961.557 2907.5,984.5C 2909.68,961.53 2910.02,938.53 2908.5,915.5 Z"/></g>
<g><path style="opacity:1" fill="#77cbb1" d="M 2564.5,953.5 C 2570.64,952.51 2576.98,952.177 2583.5,952.5C 2584.17,952.833 2584.83,953.167 2585.5,953.5C 2590.81,960.481 2596.14,967.481 2601.5,974.5C 2596.44,973.651 2591.44,972.651 2586.5,971.5C 2585.39,971.443 2584.39,971.11 2583.5,970.5C 2577.49,964.491 2571.16,958.825 2564.5,953.5 Z"/></g>
<g><path style="opacity:1" fill="#54b093" d="M 2563.5,953.5 C 2563.83,953.5 2564.17,953.5 2564.5,953.5C 2571.16,958.825 2577.49,964.491 2583.5,970.5C 2576.4,969.561 2569.74,967.394 2563.5,964C 2559.52,960.377 2559.52,956.877 2563.5,953.5 Z"/></g>
<g><path style="opacity:1" fill="#427061" d="M 2488.5,955.5 C 2504.2,953.764 2515.7,959.764 2523,973.5C 2524.99,981.187 2522.83,987.354 2516.5,992C 2509.85,993.74 2504.02,996.907 2499,1001.5C 2498.14,1003.09 2497.47,1004.75 2497,1006.5C 2495.03,1003.19 2493.03,999.854 2491,996.5C 2483.72,990.899 2478.39,983.899 2475,975.5C 2474.26,965.306 2478.76,958.64 2488.5,955.5 Z"/></g>
<g><path style="opacity:1" fill="#6bb29b" d="M 2586.5,971.5 C 2591.44,972.651 2596.44,973.651 2601.5,974.5C 2602.17,974.5 2602.5,974.833 2602.5,975.5C 2607.42,982.206 2611.58,989.206 2615,996.5C 2605.31,988.301 2595.81,979.968 2586.5,971.5 Z"/></g>
<g><path style="opacity:0.999" fill="#3a7661" d="M 2552.5,1075.5 C 2547.75,1079.55 2543.41,1084.05 2539.5,1089C 2541.73,1093.24 2544.73,1096.9 2548.5,1100C 2551.96,1101.12 2554.79,1100.29 2557,1097.5C 2561.01,1091.99 2562.18,1085.99 2560.5,1079.5C 2578.79,1089.71 2597.79,1098.37 2617.5,1105.5C 2629.65,1111.16 2642.32,1115.33 2655.5,1118C 2643.45,1109.32 2631.12,1101.15 2618.5,1093.5C 2608.73,1087.11 2598.73,1080.94 2588.5,1075C 2596.91,1074.28 2605.24,1074.78 2613.5,1076.5C 2620.42,1078.86 2627.42,1081.36 2634.5,1084C 2644.89,1089.19 2655.22,1094.36 2665.5,1099.5C 2694.88,1117.52 2726.88,1127.52 2761.5,1129.5C 2775.2,1130.82 2788.86,1130.49 2802.5,1128.5C 2809.3,1127.81 2815.63,1129.14 2821.5,1132.5C 2808.75,1142.05 2795.41,1150.89 2781.5,1159C 2778.23,1160.15 2774.9,1160.98 2771.5,1161.5C 2739.08,1163.8 2707.08,1161.13 2675.5,1153.5C 2659.89,1149.68 2644.22,1145.68 2628.5,1141.5C 2618.92,1138.14 2609.26,1135.3 2599.5,1133C 2612.4,1138.8 2625.4,1144.3 2638.5,1149.5C 2641.35,1151.08 2644.35,1152.58 2647.5,1154C 2642.18,1154.5 2636.84,1154.67 2631.5,1154.5C 2619.99,1153.78 2608.66,1152.28 2597.5,1150C 2610.17,1155.67 2622.83,1161.33 2635.5,1167C 2636.86,1168.58 2637.53,1170.42 2637.5,1172.5C 2629.49,1172.67 2621.49,1172.5 2613.5,1172C 2604.42,1170.02 2595.42,1167.85 2586.5,1165.5C 2559.41,1155.72 2535.75,1140.72 2515.5,1120.5C 2510.5,1114.83 2505.17,1109.5 2499.5,1104.5C 2493.2,1098.03 2487.03,1091.36 2481,1084.5C 2478.3,1080.42 2476.13,1076.09 2474.5,1071.5C 2474.22,1064.06 2474.89,1056.73 2476.5,1049.5C 2475.25,1042.57 2473.08,1035.9 2470,1029.5C 2469.33,1026.5 2469.33,1023.5 2470,1020.5C 2496.02,1041.02 2523.52,1059.35 2552.5,1075.5 Z"/></g>
<g><path style="opacity:0.6" fill="#69b29a" d="M 2893.5,1034.5 C 2890.48,1044.2 2886.15,1053.2 2880.5,1061.5C 2884.6,1052.31 2888.93,1043.31 2893.5,1034.5 Z"/></g>
<g><path style="opacity:1" fill="#6cb39c" d="M 2761.5,1129.5 C 2726.88,1127.52 2694.88,1117.52 2665.5,1099.5C 2660.5,1082.83 2653.84,1066.83 2645.5,1051.5C 2645.83,1051.17 2646.17,1050.83 2646.5,1050.5C 2653.17,1053.83 2659.5,1057.66 2665.5,1062C 2680.92,1076.09 2696.92,1089.42 2713.5,1102C 2729.67,1113.09 2747,1122.09 2765.5,1129C 2764.21,1129.49 2762.87,1129.66 2761.5,1129.5 Z"/></g>
<g><path style="opacity:0.475" fill="#68b099" d="M 2880.5,1061.5 C 2876.41,1070.69 2871.08,1079.02 2864.5,1086.5C 2869.59,1077.99 2874.92,1069.66 2880.5,1061.5 Z"/></g>
<g><path style="opacity:1" fill="#223b32" d="M 2560.5,1079.5 C 2562.18,1085.99 2561.01,1091.99 2557,1097.5C 2554.79,1100.29 2551.96,1101.12 2548.5,1100C 2544.73,1096.9 2541.73,1093.24 2539.5,1089C 2543.41,1084.05 2547.75,1079.55 2552.5,1075.5C 2556.42,1074.13 2559.09,1075.46 2560.5,1079.5 Z"/></g>
<g><path style="opacity:1" fill="#468f76" d="M 2618.5,1093.5 C 2631.12,1101.15 2643.45,1109.32 2655.5,1118C 2642.32,1115.33 2629.65,1111.16 2617.5,1105.5C 2618.48,1101.7 2618.82,1097.7 2618.5,1093.5 Z"/></g>
<g><path style="opacity:0.995" fill="#6cb39c" d="M 2843.5,1111.5 C 2836.77,1119.23 2829.44,1126.23 2821.5,1132.5C 2815.63,1129.14 2809.3,1127.81 2802.5,1128.5C 2799.15,1128.67 2795.82,1128.5 2792.5,1128C 2784.17,1119.67 2775.83,1111.33 2767.5,1103C 2784.3,1108.65 2801.64,1112.65 2819.5,1115C 2827.98,1116.41 2835.98,1115.24 2843.5,1111.5 Z"/></g>
<g><path style="opacity:0.078" fill="#62a991" d="M 2499.5,1104.5 C 2505.17,1109.5 2510.5,1114.83 2515.5,1120.5C 2509.17,1116.17 2503.83,1110.83 2499.5,1104.5 Z"/></g>
<g><path style="opacity:1" fill="#67ae97" d="M 2628.5,1141.5 C 2631.83,1144.17 2635.17,1146.83 2638.5,1149.5C 2625.4,1144.3 2612.4,1138.8 2599.5,1133C 2609.26,1135.3 2618.92,1138.14 2628.5,1141.5 Z"/></g>
<g><path style="opacity:1" fill="#479077" d="M 2628.5,1141.5 C 2644.22,1145.68 2659.89,1149.68 2675.5,1153.5C 2673.42,1155.42 2671.42,1157.59 2669.5,1160C 2667.13,1161.23 2664.63,1162.07 2662,1162.5C 2656.73,1161.28 2651.9,1159.12 2647.5,1156C 2641.98,1155.83 2636.65,1155.33 2631.5,1154.5C 2636.84,1154.67 2642.18,1154.5 2647.5,1154C 2644.35,1152.58 2641.35,1151.08 2638.5,1149.5C 2635.17,1146.83 2631.83,1144.17 2628.5,1141.5 Z"/></g>
<g><path style="opacity:0.99" fill="#6cb39c" d="M 2631.5,1154.5 C 2636.65,1155.33 2641.98,1155.83 2647.5,1156C 2651.9,1159.12 2656.73,1161.28 2662,1162.5C 2664.63,1162.07 2667.13,1161.23 2669.5,1160C 2671.42,1157.59 2673.42,1155.42 2675.5,1153.5C 2707.08,1161.13 2739.08,1163.8 2771.5,1161.5C 2747.87,1172.83 2722.87,1179.66 2696.5,1182C 2658.35,1185.38 2621.69,1179.88 2586.5,1165.5C 2595.42,1167.85 2604.42,1170.02 2613.5,1172C 2621.49,1172.5 2629.49,1172.67 2637.5,1172.5C 2637.53,1170.42 2636.86,1168.58 2635.5,1167C 2622.83,1161.33 2610.17,1155.67 2597.5,1150C 2608.66,1152.28 2619.99,1153.78 2631.5,1154.5 Z"/></g>
<g><path style="opacity:0.988" fill="#bb9743" d="M 2762.5,1289.5 C 2768.42,1288.88 2772.59,1291.21 2775,1296.5C 2775.33,1306.5 2775.67,1316.5 2776,1326.5C 2776.16,1330.29 2776.83,1333.95 2778,1337.5C 2788.08,1344.46 2798.25,1351.29 2808.5,1358C 2813.35,1362.92 2813.68,1368.09 2809.5,1373.5C 2796.69,1378.6 2783.86,1383.6 2771,1388.5C 2766.87,1400.67 2763.21,1413.01 2760,1425.5C 2757.18,1431.17 2752.68,1433 2746.5,1431C 2737.44,1421.27 2729.1,1410.94 2721.5,1400C 2719.54,1399.07 2717.54,1398.24 2715.5,1397.5C 2702.89,1398.93 2690.22,1399.43 2677.5,1399C 2673.74,1397.4 2671.74,1394.57 2671.5,1390.5C 2672.1,1387.3 2673.27,1384.3 2675,1381.5C 2682.36,1372.16 2688.86,1362.33 2694.5,1352C 2689.42,1339.34 2684.76,1326.51 2680.5,1313.5C 2681.28,1307.89 2684.44,1304.89 2690,1304.5C 2701.6,1307.26 2713.1,1310.42 2724.5,1314C 2726.83,1314.67 2729.17,1314.67 2731.5,1314C 2741.73,1305.59 2752.07,1297.42 2762.5,1289.5 Z"/></g>
<g><path style="opacity:1" fill="#e1bfb4" d="M 2514.5,1649.5 C 2394.69,1569.75 2267.36,1503.25 2132.5,1450C 2106.8,1440.48 2081.13,1430.98 2055.5,1421.5C 2113.36,1397.87 2173.36,1390.7 2235.5,1400C 2344.59,1418.91 2427.09,1475.74 2483,1570.5C 2496.86,1595.54 2507.36,1621.87 2514.5,1649.5 Z"/></g>
<g><path style="opacity:1" fill="#e1aca2" d="M 2050.5,1423.5 C 2052.2,1423.34 2053.87,1423.51 2055.5,1424C 2218.69,1481.43 2372.02,1557.6 2515.5,1652.5C 2518.39,1661.62 2520.39,1670.95 2521.5,1680.5C 2440.52,1628.3 2356.18,1580.46 2268.5,1537C 2189.44,1498.82 2108.77,1464.65 2026.5,1434.5C 2034.12,1430.07 2042.12,1426.4 2050.5,1423.5 Z"/></g>
<g><path style="opacity:1" fill="#e1beb3" d="M 2026.5,1434.5 C 2108.77,1464.65 2189.44,1498.82 2268.5,1537C 2356.18,1580.46 2440.52,1628.3 2521.5,1680.5C 2524.13,1693.58 2525.8,1706.91 2526.5,1720.5C 2510.81,1709.99 2494.81,1699.99 2478.5,1690.5C 2325.68,1593.76 2163.68,1515.1 1992.5,1454.5C 2003.14,1446.84 2014.47,1440.17 2026.5,1434.5 Z"/></g>
<g><path style="opacity:1" fill="#f7e2bb" d="M 2055.5,1421.5 C 2081.13,1430.98 2106.8,1440.48 2132.5,1450C 2267.36,1503.25 2394.69,1569.75 2514.5,1649.5C 2515.4,1650.21 2515.74,1651.21 2515.5,1652.5C 2372.02,1557.6 2218.69,1481.43 2055.5,1424C 2053.87,1423.51 2052.2,1423.34 2050.5,1423.5C 2051.78,1422.07 2053.45,1421.4 2055.5,1421.5 Z"/></g>
<g><path style="opacity:0.988" fill="#d3cece" d="M 1913.5,1527.5 C 1913.27,1529.06 1912.6,1530.4 1911.5,1531.5C 1910.83,1532.83 1909.83,1533.83 1908.5,1534.5C 1848.58,1507.81 1786.58,1486.97 1722.5,1472C 1699.05,1467.2 1675.39,1465.54 1651.5,1467C 1639.12,1468.56 1628.62,1473.72 1620,1482.5C 1616.17,1488.82 1615.5,1495.48 1618,1502.5C 1622.01,1513.17 1627.67,1522.83 1635,1531.5C 1661.09,1558.93 1689.59,1583.43 1720.5,1605C 1815.49,1671.18 1914.15,1731.85 2016.5,1787C 2151.32,1861.24 2289.65,1928.24 2431.5,1988C 2477.96,2006.72 2524.96,2024.06 2572.5,2040C 2598.09,2047.79 2624.09,2053.79 2650.5,2058C 2663.73,2059.4 2676.73,2058.4 2689.5,2055C 2698.94,2050.81 2703.61,2043.47 2703.5,2033C 2702.15,2022.13 2698.65,2011.96 2693,2002.5C 2681.09,1983.91 2666.92,1967.08 2650.5,1952C 2606.44,1913.09 2559.44,1878.26 2509.5,1847.5C 2509.6,1844.36 2510.6,1841.7 2512.5,1839.5C 2563.13,1871.28 2611.13,1906.78 2656.5,1946C 2666,1955.5 2675.5,1965 2685,1974.5C 2698.5,1989.49 2709.5,2006.15 2718,2024.5C 2721.01,2032.06 2722.85,2039.89 2723.5,2048C 2723.27,2061.14 2716.93,2069.81 2704.5,2074C 2690.33,2077.78 2676,2078.45 2661.5,2076C 2634.31,2072.3 2607.65,2066.3 2581.5,2058C 2524.21,2039.63 2467.88,2018.79 2412.5,1995.5C 2215.61,1910.39 2025.61,1812.73 1842.5,1702.5C 1785.3,1668.07 1729.96,1630.9 1676.5,1591C 1653.13,1573.63 1631.63,1554.13 1612,1532.5C 1602.05,1521.53 1595.05,1508.86 1591,1494.5C 1589.19,1482.93 1593.02,1473.76 1602.5,1467C 1619.71,1458.02 1638.04,1454.19 1657.5,1455.5C 1689.43,1456.32 1720.77,1461.16 1751.5,1470C 1806.71,1485.9 1860.71,1505.07 1913.5,1527.5 Z M 2496.5,1881.5 C 2535.35,1906.02 2572.19,1933.35 2607,1963.5C 2609.3,1966.8 2611.96,1969.8 2615,1972.5C 2616.59,1974.65 2617.26,1976.98 2617,1979.5C 2613.89,1981.13 2610.56,1982.13 2607,1982.5C 2578.51,1978.42 2550.68,1971.59 2523.5,1962C 2503.36,1954.76 2483.36,1947.26 2463.5,1939.5C 2476.01,1921.17 2487.01,1901.84 2496.5,1881.5 Z"/></g>
<g><path style="opacity:1" fill="#e6c7a7" d="M 1992.5,1454.5 C 2161.96,1518.23 2323.96,1596.9 2478.5,1690.5C 2494.81,1699.99 2510.81,1709.99 2526.5,1720.5C 2527.78,1739.71 2527.12,1758.71 2524.5,1777.5C 2524.82,1774.1 2524.49,1770.77 2523.5,1767.5C 2342.71,1656.28 2153.04,1561.95 1954.5,1484.5C 1966.28,1473.39 1978.95,1463.39 1992.5,1454.5 Z"/></g>
<g><path style="opacity:1" fill="#c6a197" d="M 1908.5,1534.5 C 1908.57,1536.03 1907.91,1537.03 1906.5,1537.5C 1849.68,1512.39 1791.02,1492.56 1730.5,1478C 1706.1,1472.2 1681.43,1470.53 1656.5,1473C 1645.22,1474.87 1636.39,1480.37 1630,1489.5C 1628.47,1502.26 1631.81,1513.59 1640,1523.5C 1658.28,1545.45 1678.78,1564.95 1701.5,1582C 1779.27,1639.06 1860.27,1691.39 1944.5,1739C 2101.35,1828.59 2263.01,1908.92 2429.5,1980C 2473.95,1998.06 2518.95,2014.72 2564.5,2030C 2590.64,2038.69 2617.3,2045.02 2644.5,2049C 2695.7,2053.12 2707.2,2033.62 2679,1990.5C 2661.2,1967.7 2641.04,1947.2 2618.5,1929C 2583.14,1900.67 2546.14,1874.84 2507.5,1851.5C 2507.99,1850 2508.66,1848.67 2509.5,1847.5C 2559.44,1878.26 2606.44,1913.09 2650.5,1952C 2666.92,1967.08 2681.09,1983.91 2693,2002.5C 2698.65,2011.96 2702.15,2022.13 2703.5,2033C 2703.61,2043.47 2698.94,2050.81 2689.5,2055C 2676.73,2058.4 2663.73,2059.4 2650.5,2058C 2624.09,2053.79 2598.09,2047.79 2572.5,2040C 2524.96,2024.06 2477.96,2006.72 2431.5,1988C 2289.65,1928.24 2151.32,1861.24 2016.5,1787C 1914.15,1731.85 1815.49,1671.18 1720.5,1605C 1689.59,1583.43 1661.09,1558.93 1635,1531.5C 1627.67,1522.83 1622.01,1513.17 1618,1502.5C 1615.5,1495.48 1616.17,1488.82 1620,1482.5C 1628.62,1473.72 1639.12,1468.56 1651.5,1467C 1675.39,1465.54 1699.05,1467.2 1722.5,1472C 1786.58,1486.97 1848.58,1507.81 1908.5,1534.5 Z M 2496.5,1881.5 C 2535.35,1906.02 2572.19,1933.35 2607,1963.5C 2609.3,1966.8 2611.96,1969.8 2615,1972.5C 2616.59,1974.65 2617.26,1976.98 2617,1979.5C 2613.89,1981.13 2610.56,1982.13 2607,1982.5C 2578.51,1978.42 2550.68,1971.59 2523.5,1962C 2503.36,1954.76 2483.36,1947.26 2463.5,1939.5C 2476.01,1921.17 2487.01,1901.84 2496.5,1881.5 Z"/></g>
<g><path style="opacity:1" fill="#897360" d="M 1906.5,1537.5 C 1905.53,1539.8 1904.19,1541.8 1902.5,1543.5C 1860,1526.72 1817,1511.22 1773.5,1497C 1752.83,1490.93 1731.83,1486.27 1710.5,1483C 1697.46,1482.12 1684.46,1482.46 1671.5,1484C 1665.75,1486.29 1660.58,1489.46 1656,1493.5C 1653.03,1498.99 1652.69,1504.66 1655,1510.5C 1663.89,1526.07 1675.05,1539.9 1688.5,1552C 1730.2,1586.7 1773.87,1618.7 1819.5,1648C 1995.2,1758.03 2178.2,1855.36 2368.5,1940C 2428,1966.27 2488.33,1989.94 2549.5,2011C 2576.08,2019.4 2603.08,2026.06 2630.5,2031C 2676.09,2036.77 2686.25,2020.61 2661,1982.5C 2643.12,1961.29 2623.29,1942.12 2601.5,1925C 2570.45,1901.44 2538.45,1879.28 2505.5,1858.5C 2505.88,1856.08 2506.54,1853.75 2507.5,1851.5C 2546.14,1874.84 2583.14,1900.67 2618.5,1929C 2641.04,1947.2 2661.2,1967.7 2679,1990.5C 2707.2,2033.62 2695.7,2053.12 2644.5,2049C 2617.3,2045.02 2590.64,2038.69 2564.5,2030C 2518.95,2014.72 2473.95,1998.06 2429.5,1980C 2263.01,1908.92 2101.35,1828.59 1944.5,1739C 1860.27,1691.39 1779.27,1639.06 1701.5,1582C 1678.78,1564.95 1658.28,1545.45 1640,1523.5C 1631.81,1513.59 1628.47,1502.26 1630,1489.5C 1636.39,1480.37 1645.22,1474.87 1656.5,1473C 1681.43,1470.53 1706.1,1472.2 1730.5,1478C 1791.02,1492.56 1849.68,1512.39 1906.5,1537.5 Z M 2496.5,1881.5 C 2535.35,1906.02 2572.19,1933.35 2607,1963.5C 2609.3,1966.8 2611.96,1969.8 2615,1972.5C 2616.59,1974.65 2617.26,1976.98 2617,1979.5C 2613.89,1981.13 2610.56,1982.13 2607,1982.5C 2578.51,1978.42 2550.68,1971.59 2523.5,1962C 2503.36,1954.76 2483.36,1947.26 2463.5,1939.5C 2476.01,1921.17 2487.01,1901.84 2496.5,1881.5 Z"/></g>
<g><path style="opacity:1" fill="#917b64" d="M 1902.5,1543.5 C 1901.97,1545.23 1900.97,1546.56 1899.5,1547.5C 1846.64,1524.71 1792.3,1506.21 1736.5,1492C 1720,1488.46 1703.33,1487.13 1686.5,1488C 1665.56,1491.38 1660.39,1502.21 1671,1520.5C 1686.87,1540.7 1705.04,1558.54 1725.5,1574C 1795.44,1625.32 1868.1,1672.65 1943.5,1716C 2099,1805.58 2259.33,1885.92 2424.5,1957C 2473.94,1977.7 2524.27,1996.04 2575.5,2012C 2589.96,2016.28 2604.62,2019.61 2619.5,2022C 2631.93,2024.33 2644.27,2023.99 2656.5,2021C 2663.49,2017.19 2666.32,2011.35 2665,2003.5C 2661.97,1994.44 2657.64,1986.11 2652,1978.5C 2635.4,1959.56 2617.23,1942.39 2597.5,1927C 2567.33,1903.75 2535.99,1882.25 2503.5,1862.5C 2503.99,1861 2504.66,1859.67 2505.5,1858.5C 2538.45,1879.28 2570.45,1901.44 2601.5,1925C 2623.29,1942.12 2643.12,1961.29 2661,1982.5C 2686.25,2020.61 2676.09,2036.77 2630.5,2031C 2603.08,2026.06 2576.08,2019.4 2549.5,2011C 2488.33,1989.94 2428,1966.27 2368.5,1940C 2178.2,1855.36 1995.2,1758.03 1819.5,1648C 1773.87,1618.7 1730.2,1586.7 1688.5,1552C 1675.05,1539.9 1663.89,1526.07 1655,1510.5C 1652.69,1504.66 1653.03,1498.99 1656,1493.5C 1660.58,1489.46 1665.75,1486.29 1671.5,1484C 1684.46,1482.46 1697.46,1482.12 1710.5,1483C 1731.83,1486.27 1752.83,1490.93 1773.5,1497C 1817,1511.22 1860,1526.72 1902.5,1543.5 Z M 2496.5,1881.5 C 2535.35,1906.02 2572.19,1933.35 2607,1963.5C 2609.3,1966.8 2611.96,1969.8 2615,1972.5C 2616.59,1974.65 2617.26,1976.98 2617,1979.5C 2613.89,1981.13 2610.56,1982.13 2607,1982.5C 2578.51,1978.42 2550.68,1971.59 2523.5,1962C 2503.36,1954.76 2483.36,1947.26 2463.5,1939.5C 2476.01,1921.17 2487.01,1901.84 2496.5,1881.5 Z"/></g>
<g><path style="opacity:1" fill="#e5ca9c" d="M 1954.5,1484.5 C 2153.04,1561.95 2342.71,1656.28 2523.5,1767.5C 2524.49,1770.77 2524.82,1774.1 2524.5,1777.5C 2523.78,1789.84 2521.78,1801.84 2518.5,1813.5C 2517.97,1811.38 2516.64,1809.88 2514.5,1809C 2324.82,1698.49 2128.49,1600.66 1925.5,1515.5C 1924.82,1515.86 1924.15,1516.2 1923.5,1516.5C 1932.44,1504.56 1942.77,1493.89 1954.5,1484.5 Z"/></g>
<g><path style="opacity:1" fill="#745a4d" d="M 1899.5,1547.5 C 1897.92,1551.08 1895.92,1554.41 1893.5,1557.5C 1858.62,1543.59 1823.29,1530.76 1787.5,1519C 1768.77,1513.23 1749.77,1508.57 1730.5,1505C 1723.5,1504.33 1716.5,1504.33 1709.5,1505C 1701.97,1506.62 1699.47,1511.12 1702,1518.5C 1706.45,1527.06 1712.11,1534.72 1719,1541.5C 1736.34,1557.41 1754.51,1572.24 1773.5,1586C 1832.47,1627.16 1893.14,1665.83 1955.5,1702C 2098.18,1783.67 2244.85,1858.01 2395.5,1925C 2445.97,1946.83 2497.31,1966.49 2549.5,1984C 2571.81,1991.45 2594.64,1996.29 2618,1998.5C 2636.13,2000.07 2640.8,1993.07 2632,1977.5C 2626.24,1969.74 2619.74,1962.57 2612.5,1956C 2576.64,1925.96 2538.97,1898.46 2499.5,1873.5C 2500.83,1869.83 2502.17,1866.16 2503.5,1862.5C 2535.99,1882.25 2567.33,1903.75 2597.5,1927C 2617.23,1942.39 2635.4,1959.56 2652,1978.5C 2657.64,1986.11 2661.97,1994.44 2665,2003.5C 2666.32,2011.35 2663.49,2017.19 2656.5,2021C 2644.27,2023.99 2631.93,2024.33 2619.5,2022C 2604.62,2019.61 2589.96,2016.28 2575.5,2012C 2524.27,1996.04 2473.94,1977.7 2424.5,1957C 2259.33,1885.92 2099,1805.58 1943.5,1716C 1868.1,1672.65 1795.44,1625.32 1725.5,1574C 1705.04,1558.54 1686.87,1540.7 1671,1520.5C 1660.39,1502.21 1665.56,1491.38 1686.5,1488C 1703.33,1487.13 1720,1488.46 1736.5,1492C 1792.3,1506.21 1846.64,1524.71 1899.5,1547.5 Z M 2496.5,1881.5 C 2535.35,1906.02 2572.19,1933.35 2607,1963.5C 2609.3,1966.8 2611.96,1969.8 2615,1972.5C 2616.59,1974.65 2617.26,1976.98 2617,1979.5C 2613.89,1981.13 2610.56,1982.13 2607,1982.5C 2578.51,1978.42 2550.68,1971.59 2523.5,1962C 2503.36,1954.76 2483.36,1947.26 2463.5,1939.5C 2476.01,1921.17 2487.01,1901.84 2496.5,1881.5 Z"/></g>
<g><path style="opacity:1" fill="#9b7c69" d="M 1893.5,1557.5 C 1893.07,1558.71 1892.4,1559.71 1891.5,1560.5C 1848.41,1541.63 1804.08,1525.8 1758.5,1513C 1743.11,1508.72 1727.44,1507.05 1711.5,1508C 1708.36,1509.27 1706.7,1511.6 1706.5,1515C 1707.99,1519.82 1710.16,1524.32 1713,1528.5C 1724.9,1542.41 1738.07,1554.91 1752.5,1566C 1803.1,1604.31 1855.76,1639.64 1910.5,1672C 2072.02,1768.1 2239.35,1853.76 2412.5,1929C 2461.21,1949.85 2510.87,1968.18 2561.5,1984C 2578.71,1988.96 2596.21,1992.46 2614,1994.5C 2632.95,1995.58 2636.95,1988.58 2626,1973.5C 2609.41,1956.24 2591.57,1940.41 2572.5,1926C 2548.3,1908.41 2523.63,1891.57 2498.5,1875.5C 2498.33,1874.51 2498.66,1873.84 2499.5,1873.5C 2538.97,1898.46 2576.64,1925.96 2612.5,1956C 2619.74,1962.57 2626.24,1969.74 2632,1977.5C 2640.8,1993.07 2636.13,2000.07 2618,1998.5C 2594.64,1996.29 2571.81,1991.45 2549.5,1984C 2497.31,1966.49 2445.97,1946.83 2395.5,1925C 2244.85,1858.01 2098.18,1783.67 1955.5,1702C 1893.14,1665.83 1832.47,1627.16 1773.5,1586C 1754.51,1572.24 1736.34,1557.41 1719,1541.5C 1712.11,1534.72 1706.45,1527.06 1702,1518.5C 1699.47,1511.12 1701.97,1506.62 1709.5,1505C 1716.5,1504.33 1723.5,1504.33 1730.5,1505C 1749.77,1508.57 1768.77,1513.23 1787.5,1519C 1823.29,1530.76 1858.62,1543.59 1893.5,1557.5 Z M 2496.5,1881.5 C 2535.35,1906.02 2572.19,1933.35 2607,1963.5C 2609.3,1966.8 2611.96,1969.8 2615,1972.5C 2616.59,1974.65 2617.26,1976.98 2617,1979.5C 2613.89,1981.13 2610.56,1982.13 2607,1982.5C 2578.51,1978.42 2550.68,1971.59 2523.5,1962C 2503.36,1954.76 2483.36,1947.26 2463.5,1939.5C 2476.01,1921.17 2487.01,1901.84 2496.5,1881.5 Z"/></g>
<g><path style="opacity:0.992" fill="#7b5c4b" d="M 1891.5,1560.5 C 1890.88,1562.75 1889.54,1564.42 1887.5,1565.5C 1850.97,1550.15 1813.63,1536.65 1775.5,1525C 1761.04,1520.88 1746.37,1517.72 1731.5,1515.5C 1729.16,1515.67 1726.99,1516.34 1725,1517.5C 1724.33,1518.83 1724.33,1520.17 1725,1521.5C 1726.58,1525.67 1728.92,1529.34 1732,1532.5C 1752.6,1553.02 1774.76,1571.52 1798.5,1588C 1818.68,1601.36 1838.68,1614.86 1858.5,1628.5C 1932.8,1676 2009.14,1720.5 2087.5,1762C 2196.3,1820.23 2307.3,1873.9 2420.5,1923C 2434.75,1928.8 2449.08,1934.3 2463.5,1939.5C 2483.36,1947.26 2503.36,1954.76 2523.5,1962C 2550.68,1971.59 2578.51,1978.42 2607,1982.5C 2610.56,1982.13 2613.89,1981.13 2617,1979.5C 2617.26,1976.98 2616.59,1974.65 2615,1972.5C 2611.96,1969.8 2609.3,1966.8 2607,1963.5C 2572.19,1933.35 2535.35,1906.02 2496.5,1881.5C 2496.5,1880.5 2496.5,1879.5 2496.5,1878.5C 2497.4,1877.71 2498.07,1876.71 2498.5,1875.5C 2523.63,1891.57 2548.3,1908.41 2572.5,1926C 2591.57,1940.41 2609.41,1956.24 2626,1973.5C 2636.95,1988.58 2632.95,1995.58 2614,1994.5C 2596.21,1992.46 2578.71,1988.96 2561.5,1984C 2510.87,1968.18 2461.21,1949.85 2412.5,1929C 2239.35,1853.76 2072.02,1768.1 1910.5,1672C 1855.76,1639.64 1803.1,1604.31 1752.5,1566C 1738.07,1554.91 1724.9,1542.41 1713,1528.5C 1710.16,1524.32 1707.99,1519.82 1706.5,1515C 1706.7,1511.6 1708.36,1509.27 1711.5,1508C 1727.44,1507.05 1743.11,1508.72 1758.5,1513C 1804.08,1525.8 1848.41,1541.63 1891.5,1560.5 Z M 2496.5,1881.5 C 2535.35,1906.02 2572.19,1933.35 2607,1963.5C 2609.3,1966.8 2611.96,1969.8 2615,1972.5C 2616.59,1974.65 2617.26,1976.98 2617,1979.5C 2613.89,1981.13 2610.56,1982.13 2607,1982.5C 2578.51,1978.42 2550.68,1971.59 2523.5,1962C 2503.36,1954.76 2483.36,1947.26 2463.5,1939.5C 2476.01,1921.17 2487.01,1901.84 2496.5,1881.5 Z"/></g>
<g><path style="opacity:1" fill="#f6dfbb" d="M 2518.5,1813.5 C 2517.8,1819.64 2516.46,1825.64 2514.5,1831.5C 2369.2,1749.84 2220.87,1673.34 2069.5,1602C 2017.2,1577.68 1964.53,1554.18 1911.5,1531.5C 1912.6,1530.4 1913.27,1529.06 1913.5,1527.5C 1916.6,1523.64 1919.93,1519.98 1923.5,1516.5C 1924.15,1516.2 1924.82,1515.86 1925.5,1515.5C 2128.49,1600.66 2324.82,1698.49 2514.5,1809C 2516.64,1809.88 2517.97,1811.38 2518.5,1813.5 Z"/></g>
<g><path style="opacity:1" fill="#e9d2aa" d="M 1911.5,1531.5 C 1964.53,1554.18 2017.2,1577.68 2069.5,1602C 2220.87,1673.34 2369.2,1749.84 2514.5,1831.5C 2513.83,1834.17 2513.17,1836.83 2512.5,1839.5C 2510.6,1841.7 2509.6,1844.36 2509.5,1847.5C 2508.66,1848.67 2507.99,1850 2507.5,1851.5C 2506.54,1853.75 2505.88,1856.08 2505.5,1858.5C 2504.66,1859.67 2503.99,1861 2503.5,1862.5C 2502.17,1866.16 2500.83,1869.83 2499.5,1873.5C 2498.66,1873.84 2498.33,1874.51 2498.5,1875.5C 2498.07,1876.71 2497.4,1877.71 2496.5,1878.5C 2317.23,1784.53 2136.23,1693.7 1953.5,1606C 1930.25,1594.88 1906.92,1584.04 1883.5,1573.5C 1884.83,1570.83 1886.17,1568.17 1887.5,1565.5C 1889.54,1564.42 1890.88,1562.75 1891.5,1560.5C 1892.4,1559.71 1893.07,1558.71 1893.5,1557.5C 1895.92,1554.41 1897.92,1551.08 1899.5,1547.5C 1900.97,1546.56 1901.97,1545.23 1902.5,1543.5C 1904.19,1541.8 1905.53,1539.8 1906.5,1537.5C 1907.91,1537.03 1908.57,1536.03 1908.5,1534.5C 1909.83,1533.83 1910.83,1532.83 1911.5,1531.5 Z"/></g>
<g><path style="opacity:1" fill="#e0ba82" d="M 1883.5,1573.5 C 1906.92,1584.04 1930.25,1594.88 1953.5,1606C 2136.23,1693.7 2317.23,1784.53 2496.5,1878.5C 2496.5,1879.5 2496.5,1880.5 2496.5,1881.5C 2487.01,1901.84 2476.01,1921.17 2463.5,1939.5C 2449.08,1934.3 2434.75,1928.8 2420.5,1923C 2307.3,1873.9 2196.3,1820.23 2087.5,1762C 2009.14,1720.5 1932.8,1676 1858.5,1628.5C 1864.91,1609.33 1873.25,1591 1883.5,1573.5 Z"/></g>
<g><path style="opacity:1" fill="#d8aa8b" d="M 1992.5,1454.5 C 2163.68,1515.1 2325.68,1593.76 2478.5,1690.5C 2323.96,1596.9 2161.96,1518.23 1992.5,1454.5 Z"/></g>
<g><path style="opacity:0.998" fill="#ab736e" d="M 911.5,1812.5 C 905.797,1810.05 899.797,1809.05 893.5,1809.5C 885.155,1809.81 876.822,1810.31 868.5,1811C 864.667,1812.17 862.167,1814.67 861,1818.5C 858.415,1838.85 855.748,1859.18 853,1879.5C 852.196,1890.29 847.03,1898.12 837.5,1903C 824.944,1907.07 812.611,1911.74 800.5,1917C 787.338,1924.08 774.338,1931.41 761.5,1939C 745.571,1948.39 728.405,1953.55 710,1954.5C 702.785,1955.07 696.285,1953.24 690.5,1949C 675.751,1932.92 659.751,1918.25 642.5,1905C 632.279,1898.86 622.279,1899.03 612.5,1905.5C 610.834,1906.99 609.834,1908.83 609.5,1911C 619.611,1938.73 621.111,1966.89 614,1995.5C 608.675,2011.58 597.509,2019.42 580.5,2019C 578.714,2019.78 577.214,2020.95 576,2022.5C 575.333,2025.83 575.333,2029.17 576,2032.5C 580.525,2053.24 585.359,2073.91 590.5,2094.5C 590.5,2094.83 590.5,2095.17 590.5,2095.5C 583.286,2102.21 575.619,2108.38 567.5,2114C 546.654,2124.59 525.654,2134.92 504.5,2145C 493.534,2149.27 482.201,2150.94 470.5,2150C 463.661,2148.16 456.828,2146.33 450,2144.5C 448.033,2144.54 446.199,2145.04 444.5,2146C 435.105,2153.4 427.938,2162.57 423,2173.5C 421.949,2179.79 422.783,2185.79 425.5,2191.5C 363.649,2124.13 335.816,2044.46 342,1952.5C 354.673,1840.92 409.84,1758.08 507.5,1704C 593.545,1662.07 681.212,1658.4 770.5,1693C 829.982,1718.33 876.982,1758.16 911.5,1812.5 Z"/></g>
<g><path style="opacity:0.989" fill="#dab05b" d="M 128.5,1689.5 C 131.649,1689.21 134.649,1689.71 137.5,1691C 148.252,1698.37 159.252,1705.2 170.5,1711.5C 182.594,1707.3 194.594,1702.8 206.5,1698C 216.496,1697 220.662,1701.5 219,1711.5C 215.631,1722.61 212.464,1733.78 209.5,1745C 210.137,1747.25 210.97,1749.41 212,1751.5C 219.667,1760.5 227.333,1769.5 235,1778.5C 237.663,1785.51 235.496,1790.35 228.5,1793C 215.833,1793.67 203.167,1794.33 190.5,1795C 189.5,1795.5 188.5,1796 187.5,1796.5C 180.417,1807 173.584,1817.66 167,1828.5C 161.667,1833.83 156.333,1833.83 151,1828.5C 146.47,1817.24 142.137,1805.91 138,1794.5C 136.878,1792.38 135.378,1790.54 133.5,1789C 121.5,1786 109.5,1783 97.5,1780C 89.2287,1774.9 88.562,1768.9 95.5,1762C 105.316,1754.51 114.816,1746.68 124,1738.5C 123.844,1724.16 123.51,1709.82 123,1695.5C 124.36,1692.98 126.193,1690.98 128.5,1689.5 Z"/></g>
<g><path style="opacity:1" fill="#d8c398" d="M 1842.5,1702.5 C 2025.61,1812.73 2215.61,1910.39 2412.5,1995.5C 2215.48,1914.66 2025.82,1819.49 1843.5,1710C 1842.66,1708.99 1842.33,1707.82 1842.5,1706.5C 1842.5,1705.17 1842.5,1703.83 1842.5,1702.5 Z"/></g>
<g><path style="opacity:1" fill="#c1b38f" d="M 1842.5,1706.5 C 1842.33,1707.82 1842.66,1708.99 1843.5,1710C 2025.82,1819.49 2215.48,1914.66 2412.5,1995.5C 2401.26,2005.79 2389.26,2015.12 2376.5,2023.5C 2370.55,2023.13 2364.89,2021.63 2359.5,2019C 2178.18,1947.51 2005.51,1860.01 1841.5,1756.5C 1840.83,1750.34 1840.5,1744.01 1840.5,1737.5C 1840.38,1726.96 1841.04,1716.63 1842.5,1706.5 Z"/></g>
<g><path style="opacity:0.987" fill="#bb9743" d="M 1533.5,1722.5 C 1538.28,1721.64 1541.78,1723.31 1544,1727.5C 1544.33,1735.5 1544.67,1743.5 1545,1751.5C 1545.16,1755.29 1545.83,1758.95 1547,1762.5C 1555.41,1768.29 1563.91,1773.96 1572.5,1779.5C 1576.45,1783.7 1576.45,1787.87 1572.5,1792C 1563.31,1795.73 1553.97,1799.06 1544.5,1802C 1542.71,1802.78 1541.21,1803.95 1540,1805.5C 1537.16,1815.88 1534.16,1826.21 1531,1836.5C 1526.42,1841.7 1521.75,1841.7 1517,1836.5C 1511.21,1828.38 1505.05,1820.55 1498.5,1813C 1497.23,1812.69 1496.07,1812.19 1495,1811.5C 1484.58,1812.73 1474.08,1813.23 1463.5,1813C 1458.69,1809.91 1457.53,1805.74 1460,1800.5C 1466.24,1791.93 1472.07,1783.09 1477.5,1774C 1474.14,1764.78 1470.64,1755.61 1467,1746.5C 1464.83,1739.51 1467.33,1735.51 1474.5,1734.5C 1484.89,1737.3 1495.23,1740.3 1505.5,1743.5C 1506.79,1742.9 1508.13,1742.4 1509.5,1742C 1517.4,1735.26 1525.4,1728.76 1533.5,1722.5 Z"/></g>
<g><path style="opacity:1" fill="#7f605c" d="M 653.5,1739.5 C 663.183,1738.82 668.85,1743.15 670.5,1752.5C 670.534,1755.43 669.701,1758.1 668,1760.5C 660.758,1766.31 654.925,1773.31 650.5,1781.5C 645.808,1771.32 637.808,1766.48 626.5,1767C 622.784,1763.46 622.618,1759.63 626,1755.5C 630.333,1751.17 634.667,1746.83 639,1742.5C 644.277,1743.69 649.11,1742.69 653.5,1739.5 Z"/></g>
<g><path style="opacity:1" fill="#e1beb3" d="M 1841.5,1756.5 C 2005.51,1860.01 2178.18,1947.51 2359.5,2019C 2364.89,2021.63 2370.55,2023.13 2376.5,2023.5C 2352.49,2040.17 2326.49,2053.17 2298.5,2062.5C 2141.95,2004.73 1994.28,1930.39 1855.5,1839.5C 1847.05,1812.48 1842.39,1784.81 1841.5,1756.5 Z"/></g>
<g><path style="opacity:1" fill="#7a504a" d="M 911.5,1812.5 C 915.906,1816.42 919.406,1821.08 922,1826.5C 937.238,1855.98 948.238,1886.98 955,1919.5C 957.561,1932.38 959.061,1945.38 959.5,1958.5C 961.624,2019.33 948.624,2076.66 920.5,2130.5C 913.731,2144.25 905.398,2156.92 895.5,2168.5C 894.876,2168.08 894.543,2167.42 894.5,2166.5C 895.76,2163.58 896.26,2160.58 896,2157.5C 890.446,2163.53 883.613,2167.36 875.5,2169C 860.192,2170.63 844.858,2171.96 829.5,2173C 824.744,2174.02 820.077,2175.36 815.5,2177C 803.506,2183.16 791.173,2188.5 778.5,2193C 762.363,2197.91 748.529,2194.41 737,2182.5C 723.59,2154.22 704.757,2130.05 680.5,2110C 669.679,2100.18 658.013,2091.51 645.5,2084C 631.121,2077.44 617.121,2078.11 603.5,2086C 599.266,2089.08 594.933,2091.92 590.5,2094.5C 585.359,2073.91 580.525,2053.24 576,2032.5C 575.333,2029.17 575.333,2025.83 576,2022.5C 577.214,2020.95 578.714,2019.78 580.5,2019C 597.509,2019.42 608.675,2011.58 614,1995.5C 621.111,1966.89 619.611,1938.73 609.5,1911C 609.834,1908.83 610.834,1906.99 612.5,1905.5C 622.279,1899.03 632.279,1898.86 642.5,1905C 659.751,1918.25 675.751,1932.92 690.5,1949C 696.285,1953.24 702.785,1955.07 710,1954.5C 728.405,1953.55 745.571,1948.39 761.5,1939C 774.338,1931.41 787.338,1924.08 800.5,1917C 812.611,1911.74 824.944,1907.07 837.5,1903C 847.03,1898.12 852.196,1890.29 853,1879.5C 855.748,1859.18 858.415,1838.85 861,1818.5C 862.167,1814.67 864.667,1812.17 868.5,1811C 876.822,1810.31 885.155,1809.81 893.5,1809.5C 899.797,1809.05 905.797,1810.05 911.5,1812.5 Z"/></g>
<g><path style="opacity:1" fill="#c09893" d="M 1855.5,1839.5 C 1994.28,1930.39 2141.95,2004.73 2298.5,2062.5C 2287.95,2067.01 2276.95,2070.35 2265.5,2072.5C 2155.89,2032.69 2050.89,1983.19 1950.5,1924C 1922.67,1906.98 1895,1889.81 1867.5,1872.5C 1862.71,1861.81 1858.71,1850.81 1855.5,1839.5 Z"/></g>
<g><path style="opacity:1" fill="#e1beb3" d="M 1867.5,1872.5 C 1895,1889.81 1922.67,1906.98 1950.5,1924C 2050.89,1983.19 2155.89,2032.69 2265.5,2072.5C 2157.32,2096.7 2058.99,2075.54 1970.5,2009C 1924.66,1972.15 1890.33,1926.65 1867.5,1872.5 Z"/></g>
<g><path style="opacity:1" fill="#c5917d" d="M 462.5,1955.5 C 471.212,1954.93 479.545,1956.43 487.5,1960C 491.966,1963.1 493.466,1967.27 492,1972.5C 489.333,1974.5 486.667,1976.5 484,1978.5C 483.254,1981.79 484.42,1984.29 487.5,1986C 496.685,1990.71 506.352,1994.05 516.5,1996C 518.227,1997.39 519.561,1999.06 520.5,2001C 514.025,2007.09 511.525,2014.59 513,2023.5C 514.59,2025.65 515.257,2027.98 515,2030.5C 511.599,2028.81 508.099,2027.31 504.5,2026C 500.874,2023.75 499.707,2020.58 501,2016.5C 503.933,2011.69 504.1,2006.85 501.5,2002C 487.956,1995.06 474.289,1988.39 460.5,1982C 451.193,1981.28 445.027,1985.45 442,1994.5C 440.167,1992.67 438.333,1990.83 436.5,1989C 447.418,1983.43 453.584,1974.59 455,1962.5C 457.015,1959.59 459.515,1957.25 462.5,1955.5 Z"/></g>
<g><path style="opacity:0.988" fill="#86d6c5" d="M 1238.5,1977.5 C 1246.51,1975.76 1252.35,1978.43 1256,1985.5C 1258,2002.12 1259.66,2018.79 1261,2035.5C 1261.12,2040.9 1263.62,2044.74 1268.5,2047C 1283.86,2055.04 1298.69,2063.87 1313,2073.5C 1317.21,2081.4 1315.71,2087.9 1308.5,2093C 1293.62,2099.61 1278.62,2105.94 1263.5,2112C 1259.4,2114.36 1256.9,2117.86 1256,2122.5C 1252.79,2138.2 1249.46,2153.87 1246,2169.5C 1240.74,2178.61 1233.57,2180.44 1224.5,2175C 1213.98,2163.45 1203.81,2151.61 1194,2139.5C 1192.06,2136.89 1189.56,2135.06 1186.5,2134C 1171.8,2134.6 1157.13,2135.93 1142.5,2138C 1137.5,2138.67 1132.5,2138.67 1127.5,2138C 1120.09,2133.68 1117.92,2127.51 1121,2119.5C 1129.08,2105.67 1137.42,2092 1146,2078.5C 1147.4,2074.93 1147.74,2071.26 1147,2067.5C 1139.14,2051.28 1131.97,2034.78 1125.5,2018C 1126.34,2009.83 1130.84,2005.33 1139,2004.5C 1154.88,2007.76 1170.72,2011.26 1186.5,2015C 1191.11,2016.01 1195.44,2015.34 1199.5,2013C 1212.1,2000.56 1225.1,1988.73 1238.5,1977.5 Z"/></g>
<g><path style="opacity:1" fill="#573d2e" d="M 791.5,1981.5 C 807.467,1979.32 820.633,1984.32 831,1996.5C 836.846,2007.23 835.346,2016.73 826.5,2025C 821.06,2028.11 815.893,2031.61 811,2035.5C 808.522,2038.79 806.856,2042.46 806,2046.5C 800.312,2038.58 793.145,2032.41 784.5,2028C 780.367,2024.87 776.534,2021.37 773,2017.5C 765.74,2005.77 767.573,1995.6 778.5,1987C 782.717,1984.55 787.05,1982.72 791.5,1981.5 Z"/></g>
<g><path style="opacity:1" fill="#aa746c" d="M 895.5,2168.5 C 895.672,2169.49 895.338,2170.16 894.5,2170.5C 874.54,2195.29 851.54,2216.79 825.5,2235C 817.101,2240.52 808.768,2246.02 800.5,2251.5C 794.818,2255.01 788.818,2258.01 782.5,2260.5C 766.228,2264.82 749.895,2268.98 733.5,2273C 716.627,2277.71 700.627,2275.71 685.5,2267C 669.169,2256.17 652.502,2245.83 635.5,2236C 629.992,2230.15 626.158,2223.32 624,2215.5C 611.711,2175.8 600.544,2135.8 590.5,2095.5C 590.5,2095.17 590.5,2094.83 590.5,2094.5C 594.933,2091.92 599.266,2089.08 603.5,2086C 617.121,2078.11 631.121,2077.44 645.5,2084C 658.013,2091.51 669.679,2100.18 680.5,2110C 704.757,2130.05 723.59,2154.22 737,2182.5C 748.529,2194.41 762.363,2197.91 778.5,2193C 791.173,2188.5 803.506,2183.16 815.5,2177C 820.077,2175.36 824.744,2174.02 829.5,2173C 844.858,2171.96 860.192,2170.63 875.5,2169C 883.613,2167.36 890.446,2163.53 896,2157.5C 896.26,2160.58 895.76,2163.58 894.5,2166.5C 894.543,2167.42 894.876,2168.08 895.5,2168.5 Z"/></g>
<g><path style="opacity:1" fill="#c98f87" d="M 590.5,2095.5 C 600.544,2135.8 611.711,2175.8 624,2215.5C 626.158,2223.32 629.992,2230.15 635.5,2236C 652.502,2245.83 669.169,2256.17 685.5,2267C 700.627,2275.71 716.627,2277.71 733.5,2273C 749.895,2268.98 766.228,2264.82 782.5,2260.5C 749.321,2276.05 714.321,2285.21 677.5,2288C 586.123,2293.88 506.456,2266.54 438.5,2206C 433.589,2201.59 429.255,2196.76 425.5,2191.5C 422.783,2185.79 421.949,2179.79 423,2173.5C 427.938,2162.57 435.105,2153.4 444.5,2146C 446.199,2145.04 448.033,2144.54 450,2144.5C 456.828,2146.33 463.661,2148.16 470.5,2150C 482.201,2150.94 493.534,2149.27 504.5,2145C 525.654,2134.92 546.654,2124.59 567.5,2114C 575.619,2108.38 583.286,2102.21 590.5,2095.5 Z"/></g>
<g><path style="opacity:0.498" fill="#a66f6a" d="M 959.5,1958.5 C 962.882,2004.89 956.048,2049.89 939,2093.5C 933.857,2106.45 927.691,2118.79 920.5,2130.5C 948.624,2076.66 961.624,2019.33 959.5,1958.5 Z"/></g>
<g><path style="opacity:1" fill="#7d7554" d="M 524.5,2155.5 C 532.681,2157.34 536.681,2162.5 536.5,2171C 536.533,2177.54 534.867,2183.54 531.5,2189C 527.258,2191.2 523.258,2190.87 519.5,2188C 515.661,2184.99 511.994,2181.82 508.5,2178.5C 514.099,2170.95 519.433,2163.28 524.5,2155.5 Z"/></g>
<g><path style="opacity:0.81" fill="#bc9190" d="M 894.5,2170.5 C 893.399,2175.37 891.232,2179.7 888,2183.5C 864.687,2209.17 838.187,2230.67 808.5,2248C 805.929,2249.45 803.262,2250.62 800.5,2251.5C 808.768,2246.02 817.101,2240.52 825.5,2235C 851.54,2216.79 874.54,2195.29 894.5,2170.5 Z"/></g>
</svg>
