<?xml version="1.0" encoding="UTF-8"?>
<!DOCTYPE svg PUBLIC "-//W3C//DTD SVG 1.1//EN" "http://www.w3.org/Graphics/SVG/1.1/DTD/svg11.dtd">
<svg xmlns="http://www.w3.org/2000/svg" version="1.1" width="3000px" height="3000px" style="shape-rendering:geometricPrecision; text-rendering:geometricPrecision; image-rendering:optimizeQuality; fill-rule:evenodd; clip-rule:evenodd" xmlns:xlink="http://www.w3.org/1999/xlink">
<g><path style="opacity:0.995" fill="#999999" d="M 1244.5,940.5 C 1188.17,940.5 1131.83,940.5 1075.5,940.5C 1074.42,924.509 1073.42,908.509 1072.5,892.5C 1127.5,892.5 1182.5,892.5 1237.5,892.5C 1239.65,908.531 1241.98,924.531 1244.5,940.5 Z"/></g>
<g><path style="opacity:0.995" fill="#999999" d="M 1531.5,940.5 C 1475.17,940.5 1418.83,940.5 1362.5,940.5C 1361.99,924.581 1360.99,908.748 1359.5,893C 1414.5,892.333 1469.5,892.333 1524.5,893C 1527.25,908.736 1529.58,924.57 1531.5,940.5 Z"/></g>
<g><path style="opacity:0.995" fill="#999999" d="M 1819.5,940.5 C 1763.17,940.5 1706.83,940.5 1650.5,940.5C 1649.19,924.534 1648.19,908.534 1647.5,892.5C 1702.5,892.5 1757.5,892.5 1812.5,892.5C 1814.46,908.567 1816.8,924.567 1819.5,940.5 Z"/></g>
<g><path style="opacity:1" fill="#bd4e54" d="M 1075.5,940.5 C 1131.83,940.5 1188.17,940.5 1244.5,940.5C 1244.5,940.833 1244.5,941.167 1244.5,941.5C 1188.5,941.5 1132.5,941.5 1076.5,941.5C 1076.5,945.167 1076.5,948.833 1076.5,952.5C 1075.52,948.702 1075.18,944.702 1075.5,940.5 Z"/></g>
<g><path style="opacity:1" fill="#bd4e54" d="M 1362.5,940.5 C 1418.83,940.5 1475.17,940.5 1531.5,940.5C 1531.5,940.833 1531.5,941.167 1531.5,941.5C 1475.5,941.5 1419.5,941.5 1363.5,941.5C 1363.5,942.5 1363.5,943.5 1363.5,944.5C 1362.57,943.432 1362.23,942.099 1362.5,940.5 Z"/></g>
<g><path style="opacity:1" fill="#bd4d53" d="M 1650.5,940.5 C 1706.83,940.5 1763.17,940.5 1819.5,940.5C 1819.5,940.833 1819.5,941.167 1819.5,941.5C 1763.5,941.5 1707.5,941.5 1651.5,941.5C 1651.5,945.833 1651.5,950.167 1651.5,954.5C 1650.51,950.03 1650.18,945.363 1650.5,940.5 Z"/></g>
<g><path style="opacity:1" fill="#e10713" d="M 1244.5,941.5 C 1247.35,960.471 1250.02,979.471 1252.5,998.5C 1194.5,998.5 1136.5,998.5 1078.5,998.5C 1077.64,983.176 1076.97,967.842 1076.5,952.5C 1076.5,948.833 1076.5,945.167 1076.5,941.5C 1132.5,941.5 1188.5,941.5 1244.5,941.5 Z"/></g>
<g><path style="opacity:1" fill="#e10713" d="M 1531.5,941.5 C 1534.58,960.367 1537.58,979.367 1540.5,998.5C 1482.5,998.5 1424.5,998.5 1366.5,998.5C 1364.88,980.561 1363.88,962.561 1363.5,944.5C 1363.5,943.5 1363.5,942.5 1363.5,941.5C 1419.5,941.5 1475.5,941.5 1531.5,941.5 Z"/></g>
<g><path style="opacity:1" fill="#e10713" d="M 1819.5,941.5 C 1822.17,960.5 1824.83,979.5 1827.5,998.5C 1769.5,998.5 1711.5,998.5 1653.5,998.5C 1652.54,983.848 1651.87,969.182 1651.5,954.5C 1651.5,950.167 1651.5,945.833 1651.5,941.5C 1707.5,941.5 1763.5,941.5 1819.5,941.5 Z"/></g>
<g><path style="opacity:0.996" fill="#989898" d="M 1078.5,998.5 C 1136.5,998.5 1194.5,998.5 1252.5,998.5C 1262.29,1063.06 1271.63,1127.73 1280.5,1192.5C 1216.93,1193.83 1153.26,1193.83 1089.5,1192.5C 1086.22,1127.81 1082.56,1063.14 1078.5,998.5 Z"/></g>
<g><path style="opacity:0.996" fill="#989898" d="M 1366.5,998.5 C 1424.5,998.5 1482.5,998.5 1540.5,998.5C 1549.55,1063.21 1558.89,1127.88 1568.5,1192.5C 1504.83,1193.83 1441.17,1193.83 1377.5,1192.5C 1373.52,1127.85 1369.85,1063.19 1366.5,998.5 Z"/></g>
<g><path style="opacity:0.996" fill="#989898" d="M 1653.5,998.5 C 1711.5,998.5 1769.5,998.5 1827.5,998.5C 1837.11,1063.11 1846.45,1127.78 1855.5,1192.5C 1791.93,1193.83 1728.26,1193.83 1664.5,1192.5C 1661.07,1127.82 1657.4,1063.15 1653.5,998.5 Z"/></g>
<g><path style="opacity:0.997" fill="#4d4d4d" d="M 1089.5,1192.5 C 1153.26,1193.83 1216.93,1193.83 1280.5,1192.5C 1312.83,1192.5 1345.17,1192.5 1377.5,1192.5C 1441.17,1193.83 1504.83,1193.83 1568.5,1192.5C 1600.5,1192.5 1632.5,1192.5 1664.5,1192.5C 1728.26,1193.83 1791.93,1193.83 1855.5,1192.5C 1867.84,1192.33 1880.17,1192.5 1892.5,1193C 1909.96,1195.31 1923.46,1203.81 1933,1218.5C 1939.27,1231.38 1945.77,1244.05 1952.5,1256.5C 1646.26,1257.83 1339.93,1257.83 1033.5,1256.5C 1033.33,1241.5 1033.5,1226.5 1034,1211.5C 1035.16,1202 1040.33,1195.84 1049.5,1193C 1062.83,1192.5 1076.16,1192.33 1089.5,1192.5 Z"/></g>
<g><path style="opacity:0.999" fill="#e5e5e5" d="M 1033.5,1256.5 C 1339.93,1257.83 1646.26,1257.83 1952.5,1256.5C 1986.5,1256.33 2020.5,1256.5 2054.5,1257C 2085.36,1257.59 2115.36,1262.92 2144.5,1273C 2157.27,1277.88 2168.94,1284.55 2179.5,1293C 2184.43,1298.09 2188.76,1303.59 2192.5,1309.5C 2101,1310.5 2009.33,1310.83 1917.5,1310.5C 1928.7,1352.21 1955.04,1379.37 1996.5,1392C 2001.76,1393.39 2007.09,1394.39 2012.5,1395C 2088.83,1395.5 2165.17,1395.67 2241.5,1395.5C 2288.71,1426.88 2324.54,1468.21 2349,1519.5C 2359.47,1543.74 2369.63,1568.07 2379.5,1592.5C 2369.96,1593.19 2360.3,1593.86 2350.5,1594.5C 2349.15,1596.61 2349.48,1598.44 2351.5,1600C 2355.82,1600.5 2360.15,1600.67 2364.5,1600.5C 2363.66,1606.2 2362.66,1611.87 2361.5,1617.5C 2355.31,1617.18 2349.31,1617.51 2343.5,1618.5C 2337.91,1646.93 2331.91,1675.26 2325.5,1703.5C 2321.83,1703.5 2318.17,1703.5 2314.5,1703.5C 2314.5,1694.17 2314.5,1684.83 2314.5,1675.5C 2317.52,1675.66 2320.52,1675.5 2323.5,1675C 2326.4,1672.14 2326.07,1669.97 2322.5,1668.5C 2311.35,1667.51 2300.01,1667.17 2288.5,1667.5C 2288.67,1637.5 2288.5,1607.5 2288,1577.5C 2284.65,1569.48 2278.82,1564.31 2270.5,1562C 2252.5,1561.33 2234.5,1561.33 2216.5,1562C 2209.33,1565.17 2204.17,1570.33 2201,1577.5C 2200.5,1607.5 2200.33,1637.5 2200.5,1667.5C 1607.33,1667.17 1014.33,1667.5 421.5,1668.5C 417.932,1669.97 417.598,1672.14 420.5,1675C 423.482,1675.5 426.482,1675.66 429.5,1675.5C 429.5,1684.83 429.5,1694.17 429.5,1703.5C 426.167,1703.5 422.833,1703.5 419.5,1703.5C 417.499,1692.5 415.499,1681.5 413.5,1670.5C 410.833,1670.5 408.167,1670.5 405.5,1670.5C 405.5,1669.5 405.5,1668.5 405.5,1667.5C 407.474,1661.6 409.141,1655.6 410.5,1649.5C 410.5,1649.17 410.5,1648.83 410.5,1648.5C 411.338,1648.16 411.672,1647.49 411.5,1646.5C 411.5,1646.17 411.5,1645.83 411.5,1645.5C 415.659,1630.87 419.826,1616.2 424,1601.5C 440.241,1562.93 469.074,1540.43 510.5,1534C 584.167,1533.67 657.833,1533.33 731.5,1533C 741.61,1510.68 752.11,1488.51 763,1466.5C 782.701,1435.72 810.868,1418.89 847.5,1416C 856.851,1415.83 866.184,1415.33 875.5,1414.5C 889,1381.5 902.5,1348.5 916,1315.5C 934.659,1280.54 963.826,1261.04 1003.5,1257C 1013.49,1256.5 1023.49,1256.33 1033.5,1256.5 Z"/></g>
<g><path style="opacity:1" fill="#01aad7" d="M 2192.5,1309.5 C 2209.32,1337.81 2225.66,1366.47 2241.5,1395.5C 2165.17,1395.67 2088.83,1395.5 2012.5,1395C 2007.09,1394.39 2001.76,1393.39 1996.5,1392C 1955.04,1379.37 1928.7,1352.21 1917.5,1310.5C 2009.33,1310.83 2101,1310.5 2192.5,1309.5 Z"/></g>
<g><path style="opacity:1" fill="#0caad7" d="M 1013.5,1322.5 C 1035.62,1324.78 1044.45,1336.78 1040,1358.5C 1030.82,1374.34 1017.98,1378.17 1001.5,1370C 989.1,1359.02 987.267,1346.52 996,1332.5C 1000.67,1326.92 1006.5,1323.59 1013.5,1322.5 Z"/></g>
<g><path style="opacity:1" fill="#0caad7" d="M 1112.5,1322.5 C 1126.18,1322.36 1135.35,1328.69 1140,1341.5C 1142.17,1364 1132,1374.83 1109.5,1374C 1093.23,1367.97 1087.07,1356.47 1091,1339.5C 1095.18,1329.85 1102.34,1324.19 1112.5,1322.5 Z"/></g>
<g><path style="opacity:1" fill="#0baad7" d="M 1206.5,1323.5 C 1231.74,1322.01 1242.24,1333.68 1238,1358.5C 1231.13,1372.02 1220.3,1376.85 1205.5,1373C 1190.51,1365.36 1185.67,1353.52 1191,1337.5C 1194.49,1330.83 1199.66,1326.17 1206.5,1323.5 Z"/></g>
<g><path style="opacity:1" fill="#0eabd7" d="M 1305.5,1323.5 C 1320.84,1320.92 1331.67,1326.58 1338,1340.5C 1341.39,1360.72 1332.89,1372.06 1312.5,1374.5C 1297.39,1372.39 1289.06,1363.73 1287.5,1348.5C 1288.88,1336.7 1294.88,1328.37 1305.5,1323.5 Z"/></g>
<g><path style="opacity:1" fill="#0eabd7" d="M 1405.5,1323.5 C 1424.87,1321 1435.87,1329.33 1438.5,1348.5C 1435.52,1368.97 1423.85,1377.14 1403.5,1373C 1390.13,1366.1 1384.97,1355.27 1388,1340.5C 1391.14,1331.86 1396.97,1326.2 1405.5,1323.5 Z"/></g>
<g><path style="opacity:1" fill="#0caad7" d="M 1504.5,1323.5 C 1523.88,1321 1534.88,1329.34 1537.5,1348.5C 1535.77,1364.39 1526.94,1373.06 1511,1374.5C 1495.45,1372.78 1487.28,1364.12 1486.5,1348.5C 1487.12,1336.22 1493.12,1327.89 1504.5,1323.5 Z"/></g>
<g><path style="opacity:1" fill="#0baad7" d="M 1603.5,1323.5 C 1625.96,1321.79 1636.79,1332.13 1636,1354.5C 1628.63,1372.77 1615.8,1378.27 1597.5,1371C 1585.01,1361.2 1582.18,1349.03 1589,1334.5C 1592.91,1329.4 1597.74,1325.74 1603.5,1323.5 Z"/></g>
<g><path style="opacity:1" fill="#09aad7" d="M 1702.5,1323.5 C 1718.69,1320.89 1729.53,1327.22 1735,1342.5C 1737.02,1358.29 1730.52,1368.79 1715.5,1374C 1700.02,1375.68 1689.85,1369.18 1685,1354.5C 1683.01,1339.68 1688.84,1329.34 1702.5,1323.5 Z"/></g>
<g><path style="opacity:1" fill="#07aad7" d="M 1801.5,1323.5 C 1817.8,1320.73 1828.64,1327.06 1834,1342.5C 1836.28,1356.89 1830.78,1367.05 1817.5,1373C 1800.91,1376.62 1789.75,1370.46 1784,1354.5C 1782.09,1339.65 1787.92,1329.32 1801.5,1323.5 Z"/></g>
<g><path style="opacity:1" fill="#0aaad7" d="M 910.5,1448.5 C 925.385,1447.35 935.552,1453.69 941,1467.5C 942.321,1490.51 931.488,1501.01 908.5,1499C 894.777,1493.39 888.943,1483.22 891,1468.5C 894.351,1458.65 900.851,1451.98 910.5,1448.5 Z"/></g>
<g><path style="opacity:1" fill="#0aaad7" d="M 1009.5,1448.5 C 1031.03,1447.86 1041.2,1458.19 1040,1479.5C 1034.92,1495.3 1024.08,1501.8 1007.5,1499C 993.777,1493.39 987.943,1483.22 990,1468.5C 993.351,1458.65 999.851,1451.98 1009.5,1448.5 Z"/></g>
<g><path style="opacity:1" fill="#0caad7" d="M 1108.5,1448.5 C 1130.52,1448.02 1140.68,1458.68 1139,1480.5C 1133.56,1495.91 1122.72,1502.08 1106.5,1499C 1089.86,1491.09 1085.03,1478.59 1092,1461.5C 1095.94,1455.05 1101.44,1450.71 1108.5,1448.5 Z"/></g>
<g><path style="opacity:1" fill="#0caad7" d="M 1208.5,1448.5 C 1229.99,1448.49 1239.83,1459.16 1238,1480.5C 1232.56,1495.9 1221.73,1502.07 1205.5,1499C 1189.25,1490.91 1184.41,1478.41 1191,1461.5C 1195.05,1454.6 1200.88,1450.27 1208.5,1448.5 Z"/></g>
<g><path style="opacity:1" fill="#0daad7" d="M 1307.5,1448.5 C 1325.54,1447.71 1335.87,1456.21 1338.5,1474C 1335.34,1493.5 1324.01,1501.83 1304.5,1499C 1288.23,1490.86 1283.4,1478.36 1290,1461.5C 1294.38,1455.07 1300.21,1450.74 1307.5,1448.5 Z"/></g>
<g><path style="opacity:1" fill="#0baad7" d="M 1406.5,1448.5 C 1426.34,1448.18 1436.51,1457.85 1437,1477.5C 1430.61,1498.11 1417.44,1504.28 1397.5,1496C 1385.92,1486.12 1383.42,1474.28 1390,1460.5C 1394.23,1454.64 1399.73,1450.64 1406.5,1448.5 Z"/></g>
<g><path style="opacity:1" fill="#0baad7" d="M 1505.5,1448.5 C 1523.55,1447.73 1533.89,1456.23 1536.5,1474C 1533.1,1494.71 1521.1,1502.71 1500.5,1498C 1485.46,1489.01 1481.63,1476.51 1489,1460.5C 1493.26,1454.74 1498.76,1450.74 1505.5,1448.5 Z"/></g>
<g><path style="opacity:1" fill="#0caad7" d="M 1604.5,1448.5 C 1619.57,1447.75 1629.74,1454.41 1635,1468.5C 1635.81,1491.02 1624.98,1501.19 1602.5,1499C 1585.26,1490.97 1580.43,1478.13 1588,1460.5C 1592.26,1454.74 1597.76,1450.74 1604.5,1448.5 Z"/></g>
<g><path style="opacity:1" fill="#0caad7" d="M 1703.5,1448.5 C 1718.57,1447.75 1728.74,1454.41 1734,1468.5C 1734.83,1491 1724,1501.17 1701.5,1499C 1684.25,1490.93 1679.42,1478.09 1687,1460.5C 1691.26,1454.74 1696.76,1450.74 1703.5,1448.5 Z"/></g>
<g><path style="opacity:1" fill="#0baad7" d="M 1802.5,1448.5 C 1817.4,1447.36 1827.56,1453.69 1833,1467.5C 1834.32,1490.51 1823.49,1501.01 1800.5,1499C 1784.23,1491.62 1779.06,1479.45 1785,1462.5C 1789.26,1455.72 1795.1,1451.05 1802.5,1448.5 Z"/></g>
<g><path style="opacity:1" fill="#0baad7" d="M 1901.5,1448.5 C 1923.52,1448.02 1933.68,1458.68 1932,1480.5C 1926.34,1495.58 1915.51,1501.75 1899.5,1499C 1885.79,1493.41 1879.95,1483.25 1882,1468.5C 1885.35,1458.65 1891.85,1451.98 1901.5,1448.5 Z"/></g>
<g><path style="opacity:1" fill="#0baad7" d="M 2000.5,1448.5 C 2022.53,1448.03 2032.7,1458.69 2031,1480.5C 2025.56,1495.91 2014.72,1502.08 1998.5,1499C 1981.05,1490.31 1976.55,1477.15 1985,1459.5C 1989.48,1454.69 1994.64,1451.03 2000.5,1448.5 Z"/></g>
<g><path style="opacity:1" fill="#0baad7" d="M 2100.5,1448.5 C 2122.03,1448.52 2131.86,1459.19 2130,1480.5C 2124.56,1495.9 2113.73,1502.07 2097.5,1499C 2084.62,1493.4 2078.78,1483.57 2080,1469.5C 2083.02,1458.65 2089.85,1451.65 2100.5,1448.5 Z"/></g>
<g><path style="opacity:1" fill="#0eaad7" d="M 2199.5,1448.5 C 2219.82,1448.32 2229.98,1458.32 2230,1478.5C 2223.07,1498.38 2209.9,1504.21 2190.5,1496C 2177.39,1485.36 2175.22,1472.86 2184,1458.5C 2188.31,1453.66 2193.48,1450.33 2199.5,1448.5 Z"/></g>
<g><path style="opacity:1" fill="#0caad7" d="M 513.5,1574.5 C 535.131,1572.97 545.964,1582.97 546,1604.5C 540.48,1621.51 528.98,1628.01 511.5,1624C 495.204,1615.22 491.038,1602.38 499,1585.5C 502.951,1580.47 507.784,1576.8 513.5,1574.5 Z"/></g>
<g><path style="opacity:1" fill="#0baad7" d="M 612.5,1574.5 C 634.003,1572.51 644.836,1582.18 645,1603.5C 641.178,1619.65 631.011,1626.82 614.5,1625C 597.428,1619.03 591.261,1607.19 596,1589.5C 599.822,1582.5 605.322,1577.5 612.5,1574.5 Z"/></g>
<g><path style="opacity:1" fill="#0caad7" d="M 712.5,1574.5 C 734.478,1573.31 744.978,1583.65 744,1605.5C 737.299,1622.77 725.133,1628.6 707.5,1623C 693.874,1614.45 690.041,1602.62 696,1587.5C 699.969,1581.01 705.469,1576.68 712.5,1574.5 Z"/></g>
<g><path style="opacity:1" fill="#0aaad7" d="M 811.5,1574.5 C 833.489,1573.32 843.989,1583.66 843,1605.5C 835.254,1624.46 822.087,1629.62 803.5,1621C 791.418,1610.72 789.251,1598.55 797,1584.5C 801.012,1579.76 805.845,1576.43 811.5,1574.5 Z"/></g>
<g><path style="opacity:1" fill="#09aad7" d="M 910.5,1574.5 C 932.978,1573.48 943.478,1584.14 942,1606.5C 933.722,1624.72 920.556,1629.56 902.5,1621C 891.231,1611.42 888.731,1599.92 895,1586.5C 898.659,1580.43 903.826,1576.43 910.5,1574.5 Z"/></g>
<g><path style="opacity:1" fill="#0baad7" d="M 1009.5,1574.5 C 1028.49,1572.51 1039.16,1580.85 1041.5,1599.5C 1039.47,1617.87 1029.13,1626.37 1010.5,1625C 992.217,1617.6 986.717,1604.77 994,1586.5C 998.02,1580.92 1003.19,1576.92 1009.5,1574.5 Z"/></g>
<g><path style="opacity:1" fill="#0baad7" d="M 1108.5,1574.5 C 1127.24,1572.42 1137.9,1580.59 1140.5,1599C 1139.76,1615.58 1131.09,1624.41 1114.5,1625.5C 1093.74,1621.31 1086.24,1608.98 1092,1588.5C 1095.68,1581.59 1101.18,1576.92 1108.5,1574.5 Z"/></g>
<g><path style="opacity:1" fill="#0aaad7" d="M 1207.5,1574.5 C 1226.47,1572.49 1237.14,1580.83 1239.5,1599.5C 1238.53,1615.8 1229.86,1624.47 1213.5,1625.5C 1198.16,1623.33 1189.83,1614.49 1188.5,1599C 1190.25,1587.1 1196.58,1578.94 1207.5,1574.5 Z"/></g>
<g><path style="opacity:1" fill="#0daad7" d="M 1306.5,1574.5 C 1325.05,1572.55 1336.05,1580.72 1339.5,1599C 1336.42,1619.37 1324.75,1627.71 1304.5,1624C 1288.11,1615.15 1283.94,1602.32 1292,1585.5C 1295.91,1580.4 1300.74,1576.74 1306.5,1574.5 Z"/></g>
<g><path style="opacity:1" fill="#0daad7" d="M 1405.5,1574.5 C 1424.35,1572.7 1435.35,1581.03 1438.5,1599.5C 1435.52,1619.97 1423.85,1628.14 1403.5,1624C 1389.16,1616.49 1384.33,1604.99 1389,1589.5C 1392.82,1582.5 1398.32,1577.5 1405.5,1574.5 Z"/></g>
<g><path style="opacity:1" fill="#0aaad7" d="M 1504.5,1574.5 C 1521.16,1572.57 1531.99,1579.57 1537,1595.5C 1538.43,1611.07 1531.6,1620.9 1516.5,1625C 1494.51,1625.34 1484.68,1614.51 1487,1592.5C 1490.35,1583.98 1496.19,1577.98 1504.5,1574.5 Z"/></g>
<g><path style="opacity:1" fill="#0caad7" d="M 1603.5,1574.5 C 1625.98,1572.81 1636.81,1583.15 1636,1605.5C 1628.63,1623.77 1615.8,1629.27 1597.5,1622C 1586.39,1613.75 1582.89,1602.92 1587,1589.5C 1590.82,1582.5 1596.32,1577.5 1603.5,1574.5 Z"/></g>
<g><path style="opacity:1" fill="#0aaad7" d="M 1703.5,1574.5 C 1725.49,1573.32 1735.99,1583.66 1735,1605.5C 1728.3,1622.77 1716.13,1628.6 1698.5,1623C 1683.88,1613.13 1680.72,1600.29 1689,1584.5C 1693.01,1579.76 1697.85,1576.43 1703.5,1574.5 Z"/></g>
<g><path style="opacity:1" fill="#08aad7" d="M 1802.5,1574.5 C 1824.49,1573.32 1834.99,1583.66 1834,1605.5C 1826.25,1624.46 1813.09,1629.62 1794.5,1621C 1782.97,1611.48 1780.47,1599.98 1787,1586.5C 1790.7,1580.42 1795.86,1576.42 1802.5,1574.5 Z"/></g>
<g><path style="opacity:1" fill="#09aad7" d="M 1901.5,1574.5 C 1923.95,1573.45 1934.45,1584.11 1933,1606.5C 1924.76,1624.7 1911.6,1629.53 1893.5,1621C 1879.25,1607.3 1878.91,1593.3 1892.5,1579C 1895.59,1577.45 1898.59,1575.95 1901.5,1574.5 Z"/></g>
<g><path style="opacity:1" fill="#0aaad7" d="M 2000.5,1574.5 C 2015.8,1572.33 2026.3,1578.33 2032,1592.5C 2034.17,1615 2024,1625.83 2001.5,1625C 1983.36,1617.58 1977.86,1604.74 1985,1586.5C 1989.02,1580.92 1994.19,1576.92 2000.5,1574.5 Z"/></g>
<g><path style="opacity:1" fill="#0baad7" d="M 2099.5,1574.5 C 2118.45,1572.47 2129.12,1580.8 2131.5,1599.5C 2130.53,1615.8 2121.86,1624.47 2105.5,1625.5C 2087.83,1622.67 2079.67,1612.33 2081,1594.5C 2083.59,1584.42 2089.75,1577.75 2099.5,1574.5 Z"/></g>
<g><path style="opacity:0.923" fill="#656666" d="M 2862.5,1613.5 C 2859.17,1613.5 2855.83,1613.5 2852.5,1613.5C 2853.37,1607.81 2854.37,1602.14 2855.5,1596.5C 2850.46,1596.17 2845.46,1596.51 2840.5,1597.5C 2839.16,1602.84 2837.83,1608.17 2836.5,1613.5C 2833.17,1613.5 2829.83,1613.5 2826.5,1613.5C 2827.66,1607.86 2828.66,1602.19 2829.5,1596.5C 2824.5,1596.5 2819.5,1596.5 2814.5,1596.5C 2813.42,1602.25 2812.08,1607.92 2810.5,1613.5C 2807.17,1614.83 2803.83,1614.83 2800.5,1613.5C 2801.6,1607.92 2802.94,1602.42 2804.5,1597C 2799.18,1596.5 2793.84,1596.33 2788.5,1596.5C 2787.37,1602.14 2786.37,1607.81 2785.5,1613.5C 2781.73,1614.79 2778.06,1614.79 2774.5,1613.5C 2775.7,1608.14 2777.04,1602.81 2778.5,1597.5C 2773.21,1596.51 2767.87,1596.17 2762.5,1596.5C 2761.5,1602.5 2760.5,1608.5 2759.5,1614.5C 2755.83,1614.5 2752.17,1614.5 2748.5,1614.5C 2749.7,1609.14 2751.04,1603.81 2752.5,1598.5C 2747.21,1597.51 2741.87,1597.17 2736.5,1597.5C 2735.63,1603.19 2734.63,1608.86 2733.5,1614.5C 2729.83,1614.5 2726.17,1614.5 2722.5,1614.5C 2723.83,1609.2 2725.16,1603.86 2726.5,1598.5C 2721.28,1597.2 2716.11,1597.2 2711,1598.5C 2709.77,1603.83 2708.6,1609.17 2707.5,1614.5C 2704.06,1615.78 2700.73,1615.78 2697.5,1614.5C 2698.34,1608.81 2699.34,1603.14 2700.5,1597.5C 2695.49,1597.33 2690.49,1597.5 2685.5,1598C 2683.93,1603.43 2682.6,1608.93 2681.5,1614.5C 2678.17,1615.83 2674.83,1615.83 2671.5,1614.5C 2672.63,1608.86 2673.63,1603.19 2674.5,1597.5C 2669.46,1597.17 2664.46,1597.51 2659.5,1598.5C 2658.01,1604.14 2656.67,1609.8 2655.5,1615.5C 2652.17,1615.5 2648.83,1615.5 2645.5,1615.5C 2646.67,1609.5 2647.5,1603.5 2648,1597.5C 2643.22,1598.14 2638.38,1598.81 2633.5,1599.5C 2632.16,1604.84 2630.83,1610.17 2629.5,1615.5C 2626.17,1615.5 2622.83,1615.5 2619.5,1615.5C 2620.66,1609.86 2621.66,1604.19 2622.5,1598.5C 2617.5,1598.5 2612.5,1598.5 2607.5,1598.5C 2606.42,1604.25 2605.08,1609.92 2603.5,1615.5C 2600.17,1615.5 2596.83,1615.5 2593.5,1615.5C 2594.6,1609.92 2595.94,1604.42 2597.5,1599C 2592.18,1598.5 2586.84,1598.33 2581.5,1598.5C 2580.37,1604.14 2579.37,1609.81 2578.5,1615.5C 2574.73,1616.79 2571.06,1616.79 2567.5,1615.5C 2568.7,1610.14 2570.04,1604.81 2571.5,1599.5C 2566.21,1598.51 2560.87,1598.17 2555.5,1598.5C 2554.63,1604.19 2553.63,1609.86 2552.5,1615.5C 2548.94,1616.42 2545.27,1616.76 2541.5,1616.5C 2542.96,1610.53 2544.29,1604.53 2545.5,1598.5C 2540.49,1598.33 2535.49,1598.5 2530.5,1599C 2528.72,1604.71 2527.39,1610.55 2526.5,1616.5C 2522.83,1616.5 2519.17,1616.5 2515.5,1616.5C 2516.98,1610.89 2518.32,1605.23 2519.5,1599.5C 2514.49,1599.33 2509.49,1599.5 2504.5,1600C 2502.85,1605.4 2501.52,1610.9 2500.5,1616.5C 2497.17,1616.5 2493.83,1616.5 2490.5,1616.5C 2491.34,1610.81 2492.34,1605.14 2493.5,1599.5C 2488.49,1599.33 2483.49,1599.5 2478.5,1600C 2476.93,1605.43 2475.6,1610.93 2474.5,1616.5C 2471.17,1617.83 2467.83,1617.83 2464.5,1616.5C 2465.63,1610.86 2466.63,1605.19 2467.5,1599.5C 2462.46,1599.17 2457.46,1599.51 2452.5,1600.5C 2451.16,1605.86 2449.83,1611.2 2448.5,1616.5C 2445.17,1617.83 2441.83,1617.83 2438.5,1616.5C 2439.66,1610.86 2440.66,1605.19 2441.5,1599.5C 2436.5,1599.5 2431.5,1599.5 2426.5,1599.5C 2425.48,1605.57 2424.15,1611.57 2422.5,1617.5C 2419.17,1617.5 2415.83,1617.5 2412.5,1617.5C 2413.44,1611.56 2414.78,1605.72 2416.5,1600C 2411.25,1600.4 2405.92,1600.56 2400.5,1600.5C 2399.42,1606.25 2398.08,1611.92 2396.5,1617.5C 2393.5,1617.5 2390.5,1617.5 2387.5,1617.5C 2387.5,1615.17 2387.5,1612.83 2387.5,1610.5C 2388.68,1607.48 2389.68,1604.31 2390.5,1601C 2388.19,1600.5 2385.86,1600.34 2383.5,1600.5C 2380.61,1599.6 2377.61,1599.26 2374.5,1599.5C 2373.27,1605.18 2371.94,1610.85 2370.5,1616.5C 2375.79,1617.49 2381.13,1617.83 2386.5,1617.5C 2372.34,1618.5 2358.01,1618.83 2343.5,1618.5C 2349.31,1617.51 2355.31,1617.18 2361.5,1617.5C 2362.66,1611.87 2363.66,1606.2 2364.5,1600.5C 2360.15,1600.67 2355.82,1600.5 2351.5,1600C 2349.48,1598.44 2349.15,1596.61 2350.5,1594.5C 2360.3,1593.86 2369.96,1593.19 2379.5,1592.5C 2545.83,1590.78 2712.16,1589.61 2878.5,1589C 2879.83,1591 2879.83,1593 2878.5,1595C 2874.3,1595.88 2870.13,1596.71 2866,1597.5C 2864.83,1602.85 2863.66,1608.18 2862.5,1613.5 Z M 2774.5,1613.5 C 2769.54,1614.25 2764.54,1614.59 2759.5,1614.5C 2760.5,1608.5 2761.5,1602.5 2762.5,1596.5C 2767.87,1596.17 2773.21,1596.51 2778.5,1597.5C 2777.04,1602.81 2775.7,1608.14 2774.5,1613.5 Z M 2800.5,1613.5 C 2795.5,1613.5 2790.5,1613.5 2785.5,1613.5C 2786.37,1607.81 2787.37,1602.14 2788.5,1596.5C 2793.84,1596.33 2799.18,1596.5 2804.5,1597C 2802.94,1602.42 2801.6,1607.92 2800.5,1613.5 Z M 2826.5,1613.5 C 2821.17,1613.5 2815.83,1613.5 2810.5,1613.5C 2812.08,1607.92 2813.42,1602.25 2814.5,1596.5C 2819.5,1596.5 2824.5,1596.5 2829.5,1596.5C 2828.66,1602.19 2827.66,1607.86 2826.5,1613.5 Z M 2852.5,1613.5 C 2847.17,1613.5 2841.83,1613.5 2836.5,1613.5C 2837.83,1608.17 2839.16,1602.84 2840.5,1597.5C 2845.46,1596.51 2850.46,1596.17 2855.5,1596.5C 2854.37,1602.14 2853.37,1607.81 2852.5,1613.5 Z M 2645.5,1615.5 C 2640.17,1615.5 2634.83,1615.5 2629.5,1615.5C 2630.83,1610.17 2632.16,1604.84 2633.5,1599.5C 2638.38,1598.81 2643.22,1598.14 2648,1597.5C 2647.5,1603.5 2646.67,1609.5 2645.5,1615.5 Z M 2671.5,1614.5 C 2666.07,1614.22 2660.74,1614.55 2655.5,1615.5C 2656.67,1609.8 2658.01,1604.14 2659.5,1598.5C 2664.46,1597.51 2669.46,1597.17 2674.5,1597.5C 2673.63,1603.19 2672.63,1608.86 2671.5,1614.5 Z M 2697.5,1614.5 C 2692.17,1614.5 2686.83,1614.5 2681.5,1614.5C 2682.6,1608.93 2683.93,1603.43 2685.5,1598C 2690.49,1597.5 2695.49,1597.33 2700.5,1597.5C 2699.34,1603.14 2698.34,1608.81 2697.5,1614.5 Z M 2722.5,1614.5 C 2717.5,1614.5 2712.5,1614.5 2707.5,1614.5C 2708.6,1609.17 2709.77,1603.83 2711,1598.5C 2716.11,1597.2 2721.28,1597.2 2726.5,1598.5C 2725.16,1603.86 2723.83,1609.2 2722.5,1614.5 Z M 2748.5,1614.5 C 2743.5,1614.5 2738.5,1614.5 2733.5,1614.5C 2734.63,1608.86 2735.63,1603.19 2736.5,1597.5C 2741.87,1597.17 2747.21,1597.51 2752.5,1598.5C 2751.04,1603.81 2749.7,1609.14 2748.5,1614.5 Z M 2541.5,1616.5 C 2536.5,1616.5 2531.5,1616.5 2526.5,1616.5C 2527.39,1610.55 2528.72,1604.71 2530.5,1599C 2535.49,1598.5 2540.49,1598.33 2545.5,1598.5C 2544.29,1604.53 2542.96,1610.53 2541.5,1616.5 Z M 2567.5,1615.5 C 2562.5,1615.5 2557.5,1615.5 2552.5,1615.5C 2553.63,1609.86 2554.63,1604.19 2555.5,1598.5C 2560.87,1598.17 2566.21,1598.51 2571.5,1599.5C 2570.04,1604.81 2568.7,1610.14 2567.5,1615.5 Z M 2593.5,1615.5 C 2588.5,1615.5 2583.5,1615.5 2578.5,1615.5C 2579.37,1609.81 2580.37,1604.14 2581.5,1598.5C 2586.84,1598.33 2592.18,1598.5 2597.5,1599C 2595.94,1604.42 2594.6,1609.92 2593.5,1615.5 Z M 2619.5,1615.5 C 2614.17,1615.5 2608.83,1615.5 2603.5,1615.5C 2605.08,1609.92 2606.42,1604.25 2607.5,1598.5C 2612.5,1598.5 2617.5,1598.5 2622.5,1598.5C 2621.66,1604.19 2620.66,1609.86 2619.5,1615.5 Z M 2412.5,1617.5 C 2407.17,1617.5 2401.83,1617.5 2396.5,1617.5C 2398.08,1611.92 2399.42,1606.25 2400.5,1600.5C 2405.92,1600.56 2411.25,1600.4 2416.5,1600C 2414.78,1605.72 2413.44,1611.56 2412.5,1617.5 Z M 2438.5,1616.5 C 2433.19,1617.1 2427.85,1617.43 2422.5,1617.5C 2424.15,1611.57 2425.48,1605.57 2426.5,1599.5C 2431.5,1599.5 2436.5,1599.5 2441.5,1599.5C 2440.66,1605.19 2439.66,1610.86 2438.5,1616.5 Z M 2464.5,1616.5 C 2459.17,1616.5 2453.83,1616.5 2448.5,1616.5C 2449.83,1611.2 2451.16,1605.86 2452.5,1600.5C 2457.46,1599.51 2462.46,1599.17 2467.5,1599.5C 2466.63,1605.19 2465.63,1610.86 2464.5,1616.5 Z M 2490.5,1616.5 C 2485.17,1616.5 2479.83,1616.5 2474.5,1616.5C 2475.6,1610.93 2476.93,1605.43 2478.5,1600C 2483.49,1599.5 2488.49,1599.33 2493.5,1599.5C 2492.34,1605.14 2491.34,1610.81 2490.5,1616.5 Z M 2515.5,1616.5 C 2510.5,1616.5 2505.5,1616.5 2500.5,1616.5C 2501.52,1610.9 2502.85,1605.4 2504.5,1600C 2509.49,1599.5 2514.49,1599.33 2519.5,1599.5C 2518.32,1605.23 2516.98,1610.89 2515.5,1616.5 Z M 2383.5,1600.5 C 2385.86,1600.34 2388.19,1600.5 2390.5,1601C 2389.68,1604.31 2388.68,1607.48 2387.5,1610.5C 2385.65,1607.46 2384.32,1604.13 2383.5,1600.5 Z"/></g>
<g><path style="opacity:0.978" fill="#e3e3e3" d="M 2383.5,1600.5 C 2384.32,1604.13 2385.65,1607.46 2387.5,1610.5C 2387.5,1612.83 2387.5,1615.17 2387.5,1617.5C 2387.17,1617.5 2386.83,1617.5 2386.5,1617.5C 2381.13,1617.83 2375.79,1617.49 2370.5,1616.5C 2371.94,1610.85 2373.27,1605.18 2374.5,1599.5C 2377.61,1599.26 2380.61,1599.6 2383.5,1600.5 Z"/></g>
<g><path style="opacity:1" fill="#02529c" d="M 2774.5,1613.5 C 2778.06,1614.79 2781.73,1614.79 2785.5,1613.5C 2790.5,1613.5 2795.5,1613.5 2800.5,1613.5C 2803.83,1614.83 2807.17,1614.83 2810.5,1613.5C 2815.83,1613.5 2821.17,1613.5 2826.5,1613.5C 2829.83,1613.5 2833.17,1613.5 2836.5,1613.5C 2841.83,1613.5 2847.17,1613.5 2852.5,1613.5C 2855.83,1613.5 2859.17,1613.5 2862.5,1613.5C 2866.5,1613.5 2870.5,1613.5 2874.5,1613.5C 2830.74,1726.13 2786.4,1838.47 2741.5,1950.5C 1891,1949.5 1040.33,1949.17 189.5,1949.5C 169.12,1856.11 148.786,1762.61 128.5,1669C 131.146,1668.5 133.813,1668.34 136.5,1668.5C 139.833,1668.5 143.167,1668.5 146.5,1668.5C 151.833,1668.5 157.167,1668.5 162.5,1668.5C 165.833,1669.83 169.167,1669.83 172.5,1668.5C 177.833,1668.5 183.167,1668.5 188.5,1668.5C 191.833,1669.83 195.167,1669.83 198.5,1668.5C 203.5,1668.5 208.5,1668.5 213.5,1668.5C 217.064,1669.42 220.731,1669.76 224.5,1669.5C 229.5,1669.5 234.5,1669.5 239.5,1669.5C 243.167,1669.5 246.833,1669.5 250.5,1669.5C 255.5,1669.5 260.5,1669.5 265.5,1669.5C 269.167,1669.5 272.833,1669.5 276.5,1669.5C 281.5,1669.5 286.5,1669.5 291.5,1669.5C 295.167,1670.83 298.833,1670.83 302.5,1669.5C 307.5,1669.5 312.5,1669.5 317.5,1669.5C 320.833,1670.83 324.167,1670.83 327.5,1669.5C 332.833,1669.5 338.167,1669.5 343.5,1669.5C 346.625,1670.48 349.958,1670.81 353.5,1670.5C 358.833,1670.5 364.167,1670.5 369.5,1670.5C 372.833,1670.5 376.167,1670.5 379.5,1670.5C 384.833,1670.5 390.167,1670.5 395.5,1670.5C 398.833,1670.5 402.167,1670.5 405.5,1670.5C 408.167,1670.5 410.833,1670.5 413.5,1670.5C 415.499,1681.5 417.499,1692.5 419.5,1703.5C 1054.83,1704.83 1690.17,1704.83 2325.5,1703.5C 2331.91,1675.26 2337.91,1646.93 2343.5,1618.5C 2358.01,1618.83 2372.34,1618.5 2386.5,1617.5C 2386.83,1617.5 2387.17,1617.5 2387.5,1617.5C 2390.5,1617.5 2393.5,1617.5 2396.5,1617.5C 2401.83,1617.5 2407.17,1617.5 2412.5,1617.5C 2415.83,1617.5 2419.17,1617.5 2422.5,1617.5C 2427.85,1617.43 2433.19,1617.1 2438.5,1616.5C 2441.83,1617.83 2445.17,1617.83 2448.5,1616.5C 2453.83,1616.5 2459.17,1616.5 2464.5,1616.5C 2467.83,1617.83 2471.17,1617.83 2474.5,1616.5C 2479.83,1616.5 2485.17,1616.5 2490.5,1616.5C 2493.83,1616.5 2497.17,1616.5 2500.5,1616.5C 2505.5,1616.5 2510.5,1616.5 2515.5,1616.5C 2519.17,1616.5 2522.83,1616.5 2526.5,1616.5C 2531.5,1616.5 2536.5,1616.5 2541.5,1616.5C 2545.27,1616.76 2548.94,1616.42 2552.5,1615.5C 2557.5,1615.5 2562.5,1615.5 2567.5,1615.5C 2571.06,1616.79 2574.73,1616.79 2578.5,1615.5C 2583.5,1615.5 2588.5,1615.5 2593.5,1615.5C 2596.83,1615.5 2600.17,1615.5 2603.5,1615.5C 2608.83,1615.5 2614.17,1615.5 2619.5,1615.5C 2622.83,1615.5 2626.17,1615.5 2629.5,1615.5C 2634.83,1615.5 2640.17,1615.5 2645.5,1615.5C 2648.83,1615.5 2652.17,1615.5 2655.5,1615.5C 2660.74,1614.55 2666.07,1614.22 2671.5,1614.5C 2674.83,1615.83 2678.17,1615.83 2681.5,1614.5C 2686.83,1614.5 2692.17,1614.5 2697.5,1614.5C 2700.73,1615.78 2704.06,1615.78 2707.5,1614.5C 2712.5,1614.5 2717.5,1614.5 2722.5,1614.5C 2726.17,1614.5 2729.83,1614.5 2733.5,1614.5C 2738.5,1614.5 2743.5,1614.5 2748.5,1614.5C 2752.17,1614.5 2755.83,1614.5 2759.5,1614.5C 2764.54,1614.59 2769.54,1614.25 2774.5,1613.5 Z"/></g>
<g><path style="opacity:0.922" fill="#656565" d="M 411.5,1645.5 C 411.5,1645.83 411.5,1646.17 411.5,1646.5C 410.662,1646.84 410.328,1647.51 410.5,1648.5C 410.5,1648.83 410.5,1649.17 410.5,1649.5C 407.57,1650.3 404.57,1650.63 401.5,1650.5C 402.342,1656.4 403.676,1662.06 405.5,1667.5C 405.5,1668.5 405.5,1669.5 405.5,1670.5C 402.167,1670.5 398.833,1670.5 395.5,1670.5C 393.455,1663.61 391.789,1656.61 390.5,1649.5C 385.5,1649.5 380.5,1649.5 375.5,1649.5C 376.675,1656.53 378.008,1663.53 379.5,1670.5C 376.167,1670.5 372.833,1670.5 369.5,1670.5C 367.841,1663.86 366.174,1657.2 364.5,1650.5C 359.544,1649.51 354.544,1649.17 349.5,1649.5C 350.992,1656.47 352.325,1663.47 353.5,1670.5C 349.958,1670.81 346.625,1670.48 343.5,1669.5C 341.853,1663.24 340.353,1656.91 339,1650.5C 333.886,1649.2 328.719,1649.2 323.5,1650.5C 325.309,1656.74 326.642,1663.07 327.5,1669.5C 324.167,1670.83 320.833,1670.83 317.5,1669.5C 315.783,1662.91 314.449,1656.25 313.5,1649.5C 308.125,1649.17 302.792,1649.51 297.5,1650.5C 299.044,1656.89 300.71,1663.23 302.5,1669.5C 298.833,1670.83 295.167,1670.83 291.5,1669.5C 290.038,1662.86 288.705,1656.19 287.5,1649.5C 282.238,1649.8 277.072,1649.47 272,1648.5C 273.043,1655.54 274.543,1662.54 276.5,1669.5C 272.833,1669.5 269.167,1669.5 265.5,1669.5C 264.008,1662.53 262.675,1655.53 261.5,1648.5C 256.156,1648.33 250.823,1648.5 245.5,1649C 247.398,1655.76 249.065,1662.59 250.5,1669.5C 246.833,1669.5 243.167,1669.5 239.5,1669.5C 238.325,1662.47 236.992,1655.47 235.5,1648.5C 230.5,1648.5 225.5,1648.5 220.5,1648.5C 221.576,1655.55 222.91,1662.55 224.5,1669.5C 220.731,1669.76 217.064,1669.42 213.5,1668.5C 212.642,1662.07 211.309,1655.74 209.5,1649.5C 204.544,1648.51 199.544,1648.17 194.5,1648.5C 195.705,1655.19 197.038,1661.86 198.5,1668.5C 195.167,1669.83 191.833,1669.83 188.5,1668.5C 186.71,1662.23 185.044,1655.89 183.5,1649.5C 178.544,1648.51 173.544,1648.17 168.5,1648.5C 169.962,1655.14 171.295,1661.81 172.5,1668.5C 169.167,1669.83 165.833,1669.83 162.5,1668.5C 160.853,1662.24 159.353,1655.91 158,1649.5C 153,1648.83 148,1648.17 143,1647.5C 143.988,1654.47 145.155,1661.47 146.5,1668.5C 143.167,1668.5 139.833,1668.5 136.5,1668.5C 135.005,1661.85 133.505,1655.18 132,1648.5C 128.255,1647.7 124.421,1647.2 120.5,1647C 119.167,1645 119.167,1643 120.5,1641C 216.842,1640.48 313.175,1641.15 409.5,1643C 410.066,1643.99 410.733,1644.83 411.5,1645.5 Z M 162.5,1668.5 C 157.167,1668.5 151.833,1668.5 146.5,1668.5C 145.155,1661.47 143.988,1654.47 143,1647.5C 148,1648.17 153,1648.83 158,1649.5C 159.353,1655.91 160.853,1662.24 162.5,1668.5 Z M 188.5,1668.5 C 183.167,1668.5 177.833,1668.5 172.5,1668.5C 171.295,1661.81 169.962,1655.14 168.5,1648.5C 173.544,1648.17 178.544,1648.51 183.5,1649.5C 185.044,1655.89 186.71,1662.23 188.5,1668.5 Z M 213.5,1668.5 C 208.5,1668.5 203.5,1668.5 198.5,1668.5C 197.038,1661.86 195.705,1655.19 194.5,1648.5C 199.544,1648.17 204.544,1648.51 209.5,1649.5C 211.309,1655.74 212.642,1662.07 213.5,1668.5 Z M 239.5,1669.5 C 234.5,1669.5 229.5,1669.5 224.5,1669.5C 222.91,1662.55 221.576,1655.55 220.5,1648.5C 225.5,1648.5 230.5,1648.5 235.5,1648.5C 236.992,1655.47 238.325,1662.47 239.5,1669.5 Z M 265.5,1669.5 C 260.5,1669.5 255.5,1669.5 250.5,1669.5C 249.065,1662.59 247.398,1655.76 245.5,1649C 250.823,1648.5 256.156,1648.33 261.5,1648.5C 262.675,1655.53 264.008,1662.53 265.5,1669.5 Z M 291.5,1669.5 C 286.5,1669.5 281.5,1669.5 276.5,1669.5C 274.543,1662.54 273.043,1655.54 272,1648.5C 277.072,1649.47 282.238,1649.8 287.5,1649.5C 288.705,1656.19 290.038,1662.86 291.5,1669.5 Z M 317.5,1669.5 C 312.5,1669.5 307.5,1669.5 302.5,1669.5C 300.71,1663.23 299.044,1656.89 297.5,1650.5C 302.792,1649.51 308.125,1649.17 313.5,1649.5C 314.449,1656.25 315.783,1662.91 317.5,1669.5 Z M 343.5,1669.5 C 338.167,1669.5 332.833,1669.5 327.5,1669.5C 326.642,1663.07 325.309,1656.74 323.5,1650.5C 328.719,1649.2 333.886,1649.2 339,1650.5C 340.353,1656.91 341.853,1663.24 343.5,1669.5 Z M 369.5,1670.5 C 364.167,1670.5 358.833,1670.5 353.5,1670.5C 352.325,1663.47 350.992,1656.47 349.5,1649.5C 354.544,1649.17 359.544,1649.51 364.5,1650.5C 366.174,1657.2 367.841,1663.86 369.5,1670.5 Z M 395.5,1670.5 C 390.167,1670.5 384.833,1670.5 379.5,1670.5C 378.008,1663.53 376.675,1656.53 375.5,1649.5C 380.5,1649.5 385.5,1649.5 390.5,1649.5C 391.789,1656.61 393.455,1663.61 395.5,1670.5 Z"/></g>
<g><path style="opacity:1" fill="#c7c7c7" d="M 2322.5,1668.5 C 1688.83,1668.5 1055.17,1668.5 421.5,1668.5C 1014.33,1667.5 1607.33,1667.17 2200.5,1667.5C 2200.33,1637.5 2200.5,1607.5 2201,1577.5C 2204.17,1570.33 2209.33,1565.17 2216.5,1562C 2234.5,1561.33 2252.5,1561.33 2270.5,1562C 2278.82,1564.31 2284.65,1569.48 2288,1577.5C 2288.5,1607.5 2288.67,1637.5 2288.5,1667.5C 2300.01,1667.17 2311.35,1667.51 2322.5,1668.5 Z"/></g>
<g><path style="opacity:1" fill="#e5e5e5" d="M 2218.5,1567.5 C 2235.5,1567.33 2252.5,1567.5 2269.5,1568C 2275.67,1570.17 2279.83,1574.33 2282,1580.5C 2282.5,1609.5 2282.67,1638.5 2282.5,1667.5C 2257.17,1667.5 2231.83,1667.5 2206.5,1667.5C 2206.33,1638.16 2206.5,1608.83 2207,1579.5C 2209.42,1574.06 2213.26,1570.06 2218.5,1567.5 Z"/></g>
<g><path style="opacity:1" fill="#11abd7" d="M 2241.5,1582.5 C 2260.47,1584.3 2267.31,1594.3 2262,1612.5C 2254.95,1622.51 2245.78,1625.01 2234.5,1620C 2221.56,1609.14 2221.23,1597.81 2233.5,1586C 2236.16,1584.52 2238.82,1583.36 2241.5,1582.5 Z"/></g>
<g><path style="opacity:1" fill="#68696b" d="M 421.5,1668.5 C 1055.17,1668.5 1688.83,1668.5 2322.5,1668.5C 2326.07,1669.97 2326.4,1672.14 2323.5,1675C 2320.52,1675.5 2317.52,1675.66 2314.5,1675.5C 2314.5,1684.83 2314.5,1694.17 2314.5,1703.5C 2318.17,1703.5 2321.83,1703.5 2325.5,1703.5C 1690.17,1704.83 1054.83,1704.83 419.5,1703.5C 422.833,1703.5 426.167,1703.5 429.5,1703.5C 429.5,1694.17 429.5,1684.83 429.5,1675.5C 426.482,1675.66 423.482,1675.5 420.5,1675C 417.598,1672.14 417.932,1669.97 421.5,1668.5 Z"/></g>
<g><path style="opacity:1" fill="#e0e0e0" d="M 438.5,1675.5 C 442.5,1675.5 446.5,1675.5 450.5,1675.5C 450.5,1684.83 450.5,1694.17 450.5,1703.5C 446.5,1703.5 442.5,1703.5 438.5,1703.5C 438.5,1694.17 438.5,1684.83 438.5,1675.5 Z"/></g>
<g><path style="opacity:1" fill="#e5e6e5" d="M 459.5,1675.5 C 463.167,1675.5 466.833,1675.5 470.5,1675.5C 470.5,1684.83 470.5,1694.17 470.5,1703.5C 466.833,1703.5 463.167,1703.5 459.5,1703.5C 459.5,1694.17 459.5,1684.83 459.5,1675.5 Z"/></g>
<g><path style="opacity:1" fill="#e0e0e0" d="M 479.5,1675.5 C 483.5,1675.5 487.5,1675.5 491.5,1675.5C 491.5,1684.83 491.5,1694.17 491.5,1703.5C 487.5,1703.5 483.5,1703.5 479.5,1703.5C 479.5,1694.17 479.5,1684.83 479.5,1675.5 Z"/></g>
<g><path style="opacity:1" fill="#e5e6e5" d="M 500.5,1675.5 C 504.167,1675.5 507.833,1675.5 511.5,1675.5C 511.5,1684.83 511.5,1694.17 511.5,1703.5C 507.833,1703.5 504.167,1703.5 500.5,1703.5C 500.5,1694.17 500.5,1684.83 500.5,1675.5 Z"/></g>
<g><path style="opacity:1" fill="#e5e5e5" d="M 521.5,1675.5 C 525.167,1675.5 528.833,1675.5 532.5,1675.5C 532.5,1684.83 532.5,1694.17 532.5,1703.5C 528.833,1703.5 525.167,1703.5 521.5,1703.5C 521.5,1694.17 521.5,1684.83 521.5,1675.5 Z"/></g>
<g><path style="opacity:1" fill="#e0e0e0" d="M 541.5,1675.5 C 545.5,1675.5 549.5,1675.5 553.5,1675.5C 553.5,1684.83 553.5,1694.17 553.5,1703.5C 549.5,1703.5 545.5,1703.5 541.5,1703.5C 541.5,1694.17 541.5,1684.83 541.5,1675.5 Z"/></g>
<g><path style="opacity:1" fill="#e5e6e5" d="M 562.5,1675.5 C 566.167,1675.5 569.833,1675.5 573.5,1675.5C 573.5,1684.83 573.5,1694.17 573.5,1703.5C 569.833,1703.5 566.167,1703.5 562.5,1703.5C 562.5,1694.17 562.5,1684.83 562.5,1675.5 Z"/></g>
<g><path style="opacity:1" fill="#e0e0e0" d="M 582.5,1675.5 C 586.5,1675.5 590.5,1675.5 594.5,1675.5C 594.5,1684.83 594.5,1694.17 594.5,1703.5C 590.5,1703.5 586.5,1703.5 582.5,1703.5C 582.5,1694.17 582.5,1684.83 582.5,1675.5 Z"/></g>
<g><path style="opacity:1" fill="#e5e5e5" d="M 603.5,1675.5 C 607.167,1675.5 610.833,1675.5 614.5,1675.5C 614.5,1684.83 614.5,1694.17 614.5,1703.5C 610.833,1703.5 607.167,1703.5 603.5,1703.5C 603.5,1694.17 603.5,1684.83 603.5,1675.5 Z"/></g>
<g><path style="opacity:1" fill="#e5e6e5" d="M 624.5,1675.5 C 628.167,1675.5 631.833,1675.5 635.5,1675.5C 635.5,1684.83 635.5,1694.17 635.5,1703.5C 631.833,1703.5 628.167,1703.5 624.5,1703.5C 624.5,1694.17 624.5,1684.83 624.5,1675.5 Z"/></g>
<g><path style="opacity:1" fill="#e0e0e0" d="M 644.5,1675.5 C 648.5,1675.5 652.5,1675.5 656.5,1675.5C 656.5,1684.83 656.5,1694.17 656.5,1703.5C 652.5,1703.5 648.5,1703.5 644.5,1703.5C 644.5,1694.17 644.5,1684.83 644.5,1675.5 Z"/></g>
<g><path style="opacity:1" fill="#e5e6e5" d="M 665.5,1675.5 C 669.167,1675.5 672.833,1675.5 676.5,1675.5C 676.5,1684.83 676.5,1694.17 676.5,1703.5C 672.833,1703.5 669.167,1703.5 665.5,1703.5C 665.5,1694.17 665.5,1684.83 665.5,1675.5 Z"/></g>
<g><path style="opacity:1" fill="#e0e0e0" d="M 685.5,1675.5 C 689.5,1675.5 693.5,1675.5 697.5,1675.5C 697.5,1684.83 697.5,1694.17 697.5,1703.5C 693.5,1703.5 689.5,1703.5 685.5,1703.5C 685.5,1694.17 685.5,1684.83 685.5,1675.5 Z"/></g>
<g><path style="opacity:1" fill="#e0e0e0" d="M 706.5,1675.5 C 710.5,1675.5 714.5,1675.5 718.5,1675.5C 718.5,1684.83 718.5,1694.17 718.5,1703.5C 714.5,1703.5 710.5,1703.5 706.5,1703.5C 706.5,1694.17 706.5,1684.83 706.5,1675.5 Z"/></g>
<g><path style="opacity:1" fill="#e5e6e5" d="M 727.5,1675.5 C 731.167,1675.5 734.833,1675.5 738.5,1675.5C 738.5,1684.83 738.5,1694.17 738.5,1703.5C 734.833,1703.5 731.167,1703.5 727.5,1703.5C 727.5,1694.17 727.5,1684.83 727.5,1675.5 Z"/></g>
<g><path style="opacity:1" fill="#dfdfdf" d="M 747.5,1675.5 C 751.5,1675.5 755.5,1675.5 759.5,1675.5C 759.5,1684.83 759.5,1694.17 759.5,1703.5C 755.5,1703.5 751.5,1703.5 747.5,1703.5C 747.5,1694.17 747.5,1684.83 747.5,1675.5 Z"/></g>
<g><path style="opacity:1" fill="#e5e6e5" d="M 768.5,1675.5 C 772.167,1675.5 775.833,1675.5 779.5,1675.5C 779.5,1684.83 779.5,1694.17 779.5,1703.5C 775.833,1703.5 772.167,1703.5 768.5,1703.5C 768.5,1694.17 768.5,1684.83 768.5,1675.5 Z"/></g>
<g><path style="opacity:1" fill="#e5e5e5" d="M 789.5,1675.5 C 793.167,1675.5 796.833,1675.5 800.5,1675.5C 800.5,1684.83 800.5,1694.17 800.5,1703.5C 796.833,1703.5 793.167,1703.5 789.5,1703.5C 789.5,1694.17 789.5,1684.83 789.5,1675.5 Z"/></g>
<g><path style="opacity:1" fill="#dfdfdf" d="M 809.5,1675.5 C 813.5,1675.5 817.5,1675.5 821.5,1675.5C 821.5,1684.83 821.5,1694.17 821.5,1703.5C 817.5,1703.5 813.5,1703.5 809.5,1703.5C 809.5,1694.17 809.5,1684.83 809.5,1675.5 Z"/></g>
<g><path style="opacity:1" fill="#e5e6e5" d="M 830.5,1675.5 C 834.167,1675.5 837.833,1675.5 841.5,1675.5C 841.5,1684.83 841.5,1694.17 841.5,1703.5C 837.833,1703.5 834.167,1703.5 830.5,1703.5C 830.5,1694.17 830.5,1684.83 830.5,1675.5 Z"/></g>
<g><path style="opacity:1" fill="#e0e0e0" d="M 850.5,1675.5 C 854.5,1675.5 858.5,1675.5 862.5,1675.5C 862.5,1684.83 862.5,1694.17 862.5,1703.5C 858.5,1703.5 854.5,1703.5 850.5,1703.5C 850.5,1694.17 850.5,1684.83 850.5,1675.5 Z"/></g>
<g><path style="opacity:1" fill="#e5e6e5" d="M 871.5,1675.5 C 875.167,1675.5 878.833,1675.5 882.5,1675.5C 882.5,1684.83 882.5,1694.17 882.5,1703.5C 878.833,1703.5 875.167,1703.5 871.5,1703.5C 871.5,1694.17 871.5,1684.83 871.5,1675.5 Z"/></g>
<g><path style="opacity:1" fill="#e5e5e5" d="M 892.5,1675.5 C 896.167,1675.5 899.833,1675.5 903.5,1675.5C 903.5,1684.83 903.5,1694.17 903.5,1703.5C 899.833,1703.5 896.167,1703.5 892.5,1703.5C 892.5,1694.17 892.5,1684.83 892.5,1675.5 Z"/></g>
<g><path style="opacity:1" fill="#e0e0e0" d="M 912.5,1675.5 C 916.5,1675.5 920.5,1675.5 924.5,1675.5C 924.5,1684.83 924.5,1694.17 924.5,1703.5C 920.5,1703.5 916.5,1703.5 912.5,1703.5C 912.5,1694.17 912.5,1684.83 912.5,1675.5 Z"/></g>
<g><path style="opacity:1" fill="#e5e6e5" d="M 933.5,1675.5 C 937.167,1675.5 940.833,1675.5 944.5,1675.5C 944.5,1684.83 944.5,1694.17 944.5,1703.5C 940.833,1703.5 937.167,1703.5 933.5,1703.5C 933.5,1694.17 933.5,1684.83 933.5,1675.5 Z"/></g>
<g><path style="opacity:1" fill="#e0e0e0" d="M 953.5,1675.5 C 957.5,1675.5 961.5,1675.5 965.5,1675.5C 965.5,1684.83 965.5,1694.17 965.5,1703.5C 961.5,1703.5 957.5,1703.5 953.5,1703.5C 953.5,1694.17 953.5,1684.83 953.5,1675.5 Z"/></g>
<g><path style="opacity:1" fill="#e5e5e5" d="M 974.5,1675.5 C 978.167,1675.5 981.833,1675.5 985.5,1675.5C 985.5,1684.83 985.5,1694.17 985.5,1703.5C 981.833,1703.5 978.167,1703.5 974.5,1703.5C 974.5,1694.17 974.5,1684.83 974.5,1675.5 Z"/></g>
<g><path style="opacity:1" fill="#e5e6e5" d="M 995.5,1675.5 C 999.167,1675.5 1002.83,1675.5 1006.5,1675.5C 1006.5,1684.83 1006.5,1694.17 1006.5,1703.5C 1002.83,1703.5 999.167,1703.5 995.5,1703.5C 995.5,1694.17 995.5,1684.83 995.5,1675.5 Z"/></g>
<g><path style="opacity:1" fill="#e0e0e0" d="M 1015.5,1675.5 C 1019.5,1675.5 1023.5,1675.5 1027.5,1675.5C 1027.5,1684.83 1027.5,1694.17 1027.5,1703.5C 1023.5,1703.5 1019.5,1703.5 1015.5,1703.5C 1015.5,1694.17 1015.5,1684.83 1015.5,1675.5 Z"/></g>
<g><path style="opacity:1" fill="#e5e6e5" d="M 1036.5,1675.5 C 1040.17,1675.5 1043.83,1675.5 1047.5,1675.5C 1047.5,1684.83 1047.5,1694.17 1047.5,1703.5C 1043.83,1703.5 1040.17,1703.5 1036.5,1703.5C 1036.5,1694.17 1036.5,1684.83 1036.5,1675.5 Z"/></g>
<g><path style="opacity:1" fill="#e0e0e0" d="M 1056.5,1675.5 C 1060.5,1675.5 1064.5,1675.5 1068.5,1675.5C 1068.5,1684.83 1068.5,1694.17 1068.5,1703.5C 1064.5,1703.5 1060.5,1703.5 1056.5,1703.5C 1056.5,1694.17 1056.5,1684.83 1056.5,1675.5 Z"/></g>
<g><path style="opacity:1" fill="#e0e0e0" d="M 1077.5,1675.5 C 1081.5,1675.5 1085.5,1675.5 1089.5,1675.5C 1089.5,1684.83 1089.5,1694.17 1089.5,1703.5C 1085.5,1703.5 1081.5,1703.5 1077.5,1703.5C 1077.5,1694.17 1077.5,1684.83 1077.5,1675.5 Z"/></g>
<g><path style="opacity:1" fill="#e5e6e5" d="M 1098.5,1675.5 C 1102.17,1675.5 1105.83,1675.5 1109.5,1675.5C 1109.5,1684.83 1109.5,1694.17 1109.5,1703.5C 1105.83,1703.5 1102.17,1703.5 1098.5,1703.5C 1098.5,1694.17 1098.5,1684.83 1098.5,1675.5 Z"/></g>
<g><path style="opacity:1" fill="#e0e0e0" d="M 1118.5,1675.5 C 1122.5,1675.5 1126.5,1675.5 1130.5,1675.5C 1130.5,1684.83 1130.5,1694.17 1130.5,1703.5C 1126.5,1703.5 1122.5,1703.5 1118.5,1703.5C 1118.5,1694.17 1118.5,1684.83 1118.5,1675.5 Z"/></g>
<g><path style="opacity:1" fill="#e5e6e5" d="M 1139.5,1675.5 C 1143.17,1675.5 1146.83,1675.5 1150.5,1675.5C 1150.5,1684.83 1150.5,1694.17 1150.5,1703.5C 1146.83,1703.5 1143.17,1703.5 1139.5,1703.5C 1139.5,1694.17 1139.5,1684.83 1139.5,1675.5 Z"/></g>
<g><path style="opacity:1" fill="#e5e5e5" d="M 1160.5,1675.5 C 1164.17,1675.5 1167.83,1675.5 1171.5,1675.5C 1171.5,1684.83 1171.5,1694.17 1171.5,1703.5C 1167.83,1703.5 1164.17,1703.5 1160.5,1703.5C 1160.5,1694.17 1160.5,1684.83 1160.5,1675.5 Z"/></g>
<g><path style="opacity:1" fill="#e0e0e0" d="M 1180.5,1675.5 C 1184.5,1675.5 1188.5,1675.5 1192.5,1675.5C 1192.5,1684.83 1192.5,1694.17 1192.5,1703.5C 1188.5,1703.5 1184.5,1703.5 1180.5,1703.5C 1180.5,1694.17 1180.5,1684.83 1180.5,1675.5 Z"/></g>
<g><path style="opacity:1" fill="#e5e6e5" d="M 1201.5,1675.5 C 1205.17,1675.5 1208.83,1675.5 1212.5,1675.5C 1212.5,1684.83 1212.5,1694.17 1212.5,1703.5C 1208.83,1703.5 1205.17,1703.5 1201.5,1703.5C 1201.5,1694.17 1201.5,1684.83 1201.5,1675.5 Z"/></g>
<g><path style="opacity:1" fill="#e0e0e0" d="M 1221.5,1675.5 C 1225.5,1675.5 1229.5,1675.5 1233.5,1675.5C 1233.5,1684.83 1233.5,1694.17 1233.5,1703.5C 1229.5,1703.5 1225.5,1703.5 1221.5,1703.5C 1221.5,1694.17 1221.5,1684.83 1221.5,1675.5 Z"/></g>
<g><path style="opacity:1" fill="#e5e6e5" d="M 1242.5,1675.5 C 1246.17,1675.5 1249.83,1675.5 1253.5,1675.5C 1253.5,1684.83 1253.5,1694.17 1253.5,1703.5C 1249.83,1703.5 1246.17,1703.5 1242.5,1703.5C 1242.5,1694.17 1242.5,1684.83 1242.5,1675.5 Z"/></g>
<g><path style="opacity:1" fill="#e5e6e5" d="M 1263.5,1675.5 C 1267.17,1675.5 1270.83,1675.5 1274.5,1675.5C 1274.5,1684.83 1274.5,1694.17 1274.5,1703.5C 1270.83,1703.5 1267.17,1703.5 1263.5,1703.5C 1263.5,1694.17 1263.5,1684.83 1263.5,1675.5 Z"/></g>
<g><path style="opacity:1" fill="#e0e0e0" d="M 1283.5,1675.5 C 1287.5,1675.5 1291.5,1675.5 1295.5,1675.5C 1295.5,1684.83 1295.5,1694.17 1295.5,1703.5C 1291.5,1703.5 1287.5,1703.5 1283.5,1703.5C 1283.5,1694.17 1283.5,1684.83 1283.5,1675.5 Z"/></g>
<g><path style="opacity:1" fill="#e5e6e5" d="M 1304.5,1675.5 C 1308.17,1675.5 1311.83,1675.5 1315.5,1675.5C 1315.5,1684.83 1315.5,1694.17 1315.5,1703.5C 1311.83,1703.5 1308.17,1703.5 1304.5,1703.5C 1304.5,1694.17 1304.5,1684.83 1304.5,1675.5 Z"/></g>
<g><path style="opacity:1" fill="#e0e0e0" d="M 1324.5,1675.5 C 1328.5,1675.5 1332.5,1675.5 1336.5,1675.5C 1336.5,1684.83 1336.5,1694.17 1336.5,1703.5C 1332.5,1703.5 1328.5,1703.5 1324.5,1703.5C 1324.5,1694.17 1324.5,1684.83 1324.5,1675.5 Z"/></g>
<g><path style="opacity:1" fill="#e5e5e5" d="M 1345.5,1675.5 C 1349.17,1675.5 1352.83,1675.5 1356.5,1675.5C 1356.5,1684.83 1356.5,1694.17 1356.5,1703.5C 1352.83,1703.5 1349.17,1703.5 1345.5,1703.5C 1345.5,1694.17 1345.5,1684.83 1345.5,1675.5 Z"/></g>
<g><path style="opacity:1" fill="#e5e6e5" d="M 1366.5,1675.5 C 1370.17,1675.5 1373.83,1675.5 1377.5,1675.5C 1377.5,1684.83 1377.5,1694.17 1377.5,1703.5C 1373.83,1703.5 1370.17,1703.5 1366.5,1703.5C 1366.5,1694.17 1366.5,1684.83 1366.5,1675.5 Z"/></g>
<g><path style="opacity:1" fill="#e0e0e0" d="M 1386.5,1675.5 C 1390.5,1675.5 1394.5,1675.5 1398.5,1675.5C 1398.5,1684.83 1398.5,1694.17 1398.5,1703.5C 1394.5,1703.5 1390.5,1703.5 1386.5,1703.5C 1386.5,1694.17 1386.5,1684.83 1386.5,1675.5 Z"/></g>
<g><path style="opacity:1" fill="#e5e6e5" d="M 1407.5,1675.5 C 1411.17,1675.5 1414.83,1675.5 1418.5,1675.5C 1418.5,1684.83 1418.5,1694.17 1418.5,1703.5C 1414.83,1703.5 1411.17,1703.5 1407.5,1703.5C 1407.5,1694.17 1407.5,1684.83 1407.5,1675.5 Z"/></g>
<g><path style="opacity:1" fill="#dfdfdf" d="M 1427.5,1675.5 C 1431.5,1675.5 1435.5,1675.5 1439.5,1675.5C 1439.5,1684.83 1439.5,1694.17 1439.5,1703.5C 1435.5,1703.5 1431.5,1703.5 1427.5,1703.5C 1427.5,1694.17 1427.5,1684.83 1427.5,1675.5 Z"/></g>
<g><path style="opacity:1" fill="#e0e0e0" d="M 1448.5,1675.5 C 1452.5,1675.5 1456.5,1675.5 1460.5,1675.5C 1460.5,1684.83 1460.5,1694.17 1460.5,1703.5C 1456.5,1703.5 1452.5,1703.5 1448.5,1703.5C 1448.5,1694.17 1448.5,1684.83 1448.5,1675.5 Z"/></g>
<g><path style="opacity:1" fill="#e5e6e5" d="M 1469.5,1675.5 C 1473.17,1675.5 1476.83,1675.5 1480.5,1675.5C 1480.5,1684.83 1480.5,1694.17 1480.5,1703.5C 1476.83,1703.5 1473.17,1703.5 1469.5,1703.5C 1469.5,1694.17 1469.5,1684.83 1469.5,1675.5 Z"/></g>
<g><path style="opacity:1" fill="#e0e0e0" d="M 1489.5,1675.5 C 1493.5,1675.5 1497.5,1675.5 1501.5,1675.5C 1501.5,1684.83 1501.5,1694.17 1501.5,1703.5C 1497.5,1703.5 1493.5,1703.5 1489.5,1703.5C 1489.5,1694.17 1489.5,1684.83 1489.5,1675.5 Z"/></g>
<g><path style="opacity:1" fill="#e5e6e5" d="M 1510.5,1675.5 C 1514.17,1675.5 1517.83,1675.5 1521.5,1675.5C 1521.5,1684.83 1521.5,1694.17 1521.5,1703.5C 1517.83,1703.5 1514.17,1703.5 1510.5,1703.5C 1510.5,1694.17 1510.5,1684.83 1510.5,1675.5 Z"/></g>
<g><path style="opacity:1" fill="#e5e5e5" d="M 1531.5,1675.5 C 1535.17,1675.5 1538.83,1675.5 1542.5,1675.5C 1542.5,1684.83 1542.5,1694.17 1542.5,1703.5C 1538.83,1703.5 1535.17,1703.5 1531.5,1703.5C 1531.5,1694.17 1531.5,1684.83 1531.5,1675.5 Z"/></g>
<g><path style="opacity:1" fill="#e0e0e0" d="M 1551.5,1675.5 C 1555.5,1675.5 1559.5,1675.5 1563.5,1675.5C 1563.5,1684.83 1563.5,1694.17 1563.5,1703.5C 1559.5,1703.5 1555.5,1703.5 1551.5,1703.5C 1551.5,1694.17 1551.5,1684.83 1551.5,1675.5 Z"/></g>
<g><path style="opacity:1" fill="#e5e6e5" d="M 1572.5,1675.5 C 1576.17,1675.5 1579.83,1675.5 1583.5,1675.5C 1583.5,1684.83 1583.5,1694.17 1583.5,1703.5C 1579.83,1703.5 1576.17,1703.5 1572.5,1703.5C 1572.5,1694.17 1572.5,1684.83 1572.5,1675.5 Z"/></g>
<g><path style="opacity:1" fill="#e0e0e0" d="M 1592.5,1675.5 C 1596.5,1675.5 1600.5,1675.5 1604.5,1675.5C 1604.5,1684.83 1604.5,1694.17 1604.5,1703.5C 1600.5,1703.5 1596.5,1703.5 1592.5,1703.5C 1592.5,1694.17 1592.5,1684.83 1592.5,1675.5 Z"/></g>
<g><path style="opacity:1" fill="#e5e6e5" d="M 1613.5,1675.5 C 1617.17,1675.5 1620.83,1675.5 1624.5,1675.5C 1624.5,1684.83 1624.5,1694.17 1624.5,1703.5C 1620.83,1703.5 1617.17,1703.5 1613.5,1703.5C 1613.5,1694.17 1613.5,1684.83 1613.5,1675.5 Z"/></g>
<g><path style="opacity:1" fill="#e5e6e5" d="M 1634.5,1675.5 C 1638.17,1675.5 1641.83,1675.5 1645.5,1675.5C 1645.5,1684.83 1645.5,1694.17 1645.5,1703.5C 1641.83,1703.5 1638.17,1703.5 1634.5,1703.5C 1634.5,1694.17 1634.5,1684.83 1634.5,1675.5 Z"/></g>
<g><path style="opacity:1" fill="#dfdfdf" d="M 1654.5,1675.5 C 1658.5,1675.5 1662.5,1675.5 1666.5,1675.5C 1666.5,1684.83 1666.5,1694.17 1666.5,1703.5C 1662.5,1703.5 1658.5,1703.5 1654.5,1703.5C 1654.5,1694.17 1654.5,1684.83 1654.5,1675.5 Z"/></g>
<g><path style="opacity:1" fill="#e5e6e5" d="M 1675.5,1675.5 C 1679.17,1675.5 1682.83,1675.5 1686.5,1675.5C 1686.5,1684.83 1686.5,1694.17 1686.5,1703.5C 1682.83,1703.5 1679.17,1703.5 1675.5,1703.5C 1675.5,1694.17 1675.5,1684.83 1675.5,1675.5 Z"/></g>
<g><path style="opacity:1" fill="#dfdfdf" d="M 1695.5,1675.5 C 1699.5,1675.5 1703.5,1675.5 1707.5,1675.5C 1707.5,1684.83 1707.5,1694.17 1707.5,1703.5C 1703.5,1703.5 1699.5,1703.5 1695.5,1703.5C 1695.5,1694.17 1695.5,1684.83 1695.5,1675.5 Z"/></g>
<g><path style="opacity:1" fill="#e5e5e5" d="M 1716.5,1675.5 C 1720.17,1675.5 1723.83,1675.5 1727.5,1675.5C 1727.5,1684.83 1727.5,1694.17 1727.5,1703.5C 1723.83,1703.5 1720.17,1703.5 1716.5,1703.5C 1716.5,1694.17 1716.5,1684.83 1716.5,1675.5 Z"/></g>
<g><path style="opacity:1" fill="#e5e6e5" d="M 1737.5,1675.5 C 1741.17,1675.5 1744.83,1675.5 1748.5,1675.5C 1748.5,1684.83 1748.5,1694.17 1748.5,1703.5C 1744.83,1703.5 1741.17,1703.5 1737.5,1703.5C 1737.5,1694.17 1737.5,1684.83 1737.5,1675.5 Z"/></g>
<g><path style="opacity:1" fill="#e0e0e0" d="M 1757.5,1675.5 C 1761.5,1675.5 1765.5,1675.5 1769.5,1675.5C 1769.5,1684.83 1769.5,1694.17 1769.5,1703.5C 1765.5,1703.5 1761.5,1703.5 1757.5,1703.5C 1757.5,1694.17 1757.5,1684.83 1757.5,1675.5 Z"/></g>
<g><path style="opacity:1" fill="#e5e6e5" d="M 1778.5,1675.5 C 1782.17,1675.5 1785.83,1675.5 1789.5,1675.5C 1789.5,1684.83 1789.5,1694.17 1789.5,1703.5C 1785.83,1703.5 1782.17,1703.5 1778.5,1703.5C 1778.5,1694.17 1778.5,1684.83 1778.5,1675.5 Z"/></g>
<g><path style="opacity:1" fill="#dfdfdf" d="M 1798.5,1675.5 C 1802.5,1675.5 1806.5,1675.5 1810.5,1675.5C 1810.5,1684.83 1810.5,1694.17 1810.5,1703.5C 1806.5,1703.5 1802.5,1703.5 1798.5,1703.5C 1798.5,1694.17 1798.5,1684.83 1798.5,1675.5 Z"/></g>
<g><path style="opacity:1" fill="#dfdfdf" d="M 1819.5,1675.5 C 1823.5,1675.5 1827.5,1675.5 1831.5,1675.5C 1831.5,1684.83 1831.5,1694.17 1831.5,1703.5C 1827.5,1703.5 1823.5,1703.5 1819.5,1703.5C 1819.5,1694.17 1819.5,1684.83 1819.5,1675.5 Z"/></g>
<g><path style="opacity:1" fill="#e5e6e5" d="M 1840.5,1675.5 C 1844.17,1675.5 1847.83,1675.5 1851.5,1675.5C 1851.5,1684.83 1851.5,1694.17 1851.5,1703.5C 1847.83,1703.5 1844.17,1703.5 1840.5,1703.5C 1840.5,1694.17 1840.5,1684.83 1840.5,1675.5 Z"/></g>
<g><path style="opacity:1" fill="#dfdfdf" d="M 1860.5,1675.5 C 1864.5,1675.5 1868.5,1675.5 1872.5,1675.5C 1872.5,1684.83 1872.5,1694.17 1872.5,1703.5C 1868.5,1703.5 1864.5,1703.5 1860.5,1703.5C 1860.5,1694.17 1860.5,1684.83 1860.5,1675.5 Z"/></g>
<g><path style="opacity:1" fill="#e5e6e5" d="M 1881.5,1675.5 C 1885.17,1675.5 1888.83,1675.5 1892.5,1675.5C 1892.5,1684.83 1892.5,1694.17 1892.5,1703.5C 1888.83,1703.5 1885.17,1703.5 1881.5,1703.5C 1881.5,1694.17 1881.5,1684.83 1881.5,1675.5 Z"/></g>
<g><path style="opacity:1" fill="#e5e5e5" d="M 1902.5,1675.5 C 1906.17,1675.5 1909.83,1675.5 1913.5,1675.5C 1913.5,1684.83 1913.5,1694.17 1913.5,1703.5C 1909.83,1703.5 1906.17,1703.5 1902.5,1703.5C 1902.5,1694.17 1902.5,1684.83 1902.5,1675.5 Z"/></g>
<g><path style="opacity:1" fill="#dfdfdf" d="M 1922.5,1675.5 C 1926.5,1675.5 1930.5,1675.5 1934.5,1675.5C 1934.5,1684.83 1934.5,1694.17 1934.5,1703.5C 1930.5,1703.5 1926.5,1703.5 1922.5,1703.5C 1922.5,1694.17 1922.5,1684.83 1922.5,1675.5 Z"/></g>
<g><path style="opacity:1" fill="#e5e6e5" d="M 1943.5,1675.5 C 1947.17,1675.5 1950.83,1675.5 1954.5,1675.5C 1954.5,1684.83 1954.5,1694.17 1954.5,1703.5C 1950.83,1703.5 1947.17,1703.5 1943.5,1703.5C 1943.5,1694.17 1943.5,1684.83 1943.5,1675.5 Z"/></g>
<g><path style="opacity:1" fill="#dfdfdf" d="M 1963.5,1675.5 C 1967.5,1675.5 1971.5,1675.5 1975.5,1675.5C 1975.5,1684.83 1975.5,1694.17 1975.5,1703.5C 1971.5,1703.5 1967.5,1703.5 1963.5,1703.5C 1963.5,1694.17 1963.5,1684.83 1963.5,1675.5 Z"/></g>
<g><path style="opacity:1" fill="#e5e5e5" d="M 1984.5,1675.5 C 1988.17,1675.5 1991.83,1675.5 1995.5,1675.5C 1995.5,1684.83 1995.5,1694.17 1995.5,1703.5C 1991.83,1703.5 1988.17,1703.5 1984.5,1703.5C 1984.5,1694.17 1984.5,1684.83 1984.5,1675.5 Z"/></g>
<g><path style="opacity:1" fill="#e5e6e5" d="M 2005.5,1675.5 C 2009.17,1675.5 2012.83,1675.5 2016.5,1675.5C 2016.5,1684.83 2016.5,1694.17 2016.5,1703.5C 2012.83,1703.5 2009.17,1703.5 2005.5,1703.5C 2005.5,1694.17 2005.5,1684.83 2005.5,1675.5 Z"/></g>
<g><path style="opacity:1" fill="#dfdfdf" d="M 2025.5,1675.5 C 2029.5,1675.5 2033.5,1675.5 2037.5,1675.5C 2037.5,1684.83 2037.5,1694.17 2037.5,1703.5C 2033.5,1703.5 2029.5,1703.5 2025.5,1703.5C 2025.5,1694.17 2025.5,1684.83 2025.5,1675.5 Z"/></g>
<g><path style="opacity:1" fill="#e5e6e5" d="M 2046.5,1675.5 C 2050.17,1675.5 2053.83,1675.5 2057.5,1675.5C 2057.5,1684.83 2057.5,1694.17 2057.5,1703.5C 2053.83,1703.5 2050.17,1703.5 2046.5,1703.5C 2046.5,1694.17 2046.5,1684.83 2046.5,1675.5 Z"/></g>
<g><path style="opacity:1" fill="#dfdfdf" d="M 2066.5,1675.5 C 2070.5,1675.5 2074.5,1675.5 2078.5,1675.5C 2078.5,1684.83 2078.5,1694.17 2078.5,1703.5C 2074.5,1703.5 2070.5,1703.5 2066.5,1703.5C 2066.5,1694.17 2066.5,1684.83 2066.5,1675.5 Z"/></g>
<g><path style="opacity:1" fill="#e5e5e5" d="M 2087.5,1675.5 C 2091.17,1675.5 2094.83,1675.5 2098.5,1675.5C 2098.5,1684.83 2098.5,1694.17 2098.5,1703.5C 2094.83,1703.5 2091.17,1703.5 2087.5,1703.5C 2087.5,1694.17 2087.5,1684.83 2087.5,1675.5 Z"/></g>
<g><path style="opacity:1" fill="#e5e6e5" d="M 2108.5,1675.5 C 2112.17,1675.5 2115.83,1675.5 2119.5,1675.5C 2119.5,1684.83 2119.5,1694.17 2119.5,1703.5C 2115.83,1703.5 2112.17,1703.5 2108.5,1703.5C 2108.5,1694.17 2108.5,1684.83 2108.5,1675.5 Z"/></g>
<g><path style="opacity:1" fill="#dfdfdf" d="M 2128.5,1675.5 C 2132.5,1675.5 2136.5,1675.5 2140.5,1675.5C 2140.5,1684.83 2140.5,1694.17 2140.5,1703.5C 2136.5,1703.5 2132.5,1703.5 2128.5,1703.5C 2128.5,1694.17 2128.5,1684.83 2128.5,1675.5 Z"/></g>
<g><path style="opacity:1" fill="#e5e6e5" d="M 2149.5,1675.5 C 2153.17,1675.5 2156.83,1675.5 2160.5,1675.5C 2160.5,1684.83 2160.5,1694.17 2160.5,1703.5C 2156.83,1703.5 2153.17,1703.5 2149.5,1703.5C 2149.5,1694.17 2149.5,1684.83 2149.5,1675.5 Z"/></g>
<g><path style="opacity:1" fill="#e5e5e5" d="M 2170.5,1675.5 C 2174.17,1675.5 2177.83,1675.5 2181.5,1675.5C 2181.5,1684.83 2181.5,1694.17 2181.5,1703.5C 2177.83,1703.5 2174.17,1703.5 2170.5,1703.5C 2170.5,1694.17 2170.5,1684.83 2170.5,1675.5 Z"/></g>
<g><path style="opacity:1" fill="#dedede" d="M 2190.5,1675.5 C 2194.5,1675.5 2198.5,1675.5 2202.5,1675.5C 2202.5,1684.83 2202.5,1694.17 2202.5,1703.5C 2198.5,1703.5 2194.5,1703.5 2190.5,1703.5C 2190.5,1694.17 2190.5,1684.83 2190.5,1675.5 Z"/></g>
<g><path style="opacity:1" fill="#e0e0e0" d="M 2211.5,1675.5 C 2215.17,1675.5 2218.83,1675.5 2222.5,1675.5C 2222.5,1684.83 2222.5,1694.17 2222.5,1703.5C 2218.83,1703.5 2215.17,1703.5 2211.5,1703.5C 2211.5,1694.17 2211.5,1684.83 2211.5,1675.5 Z"/></g>
<g><path style="opacity:1" fill="#e1e1e1" d="M 2252.5,1675.5 C 2256.17,1675.5 2259.83,1675.5 2263.5,1675.5C 2263.5,1684.83 2263.5,1694.17 2263.5,1703.5C 2259.83,1703.5 2256.17,1703.5 2252.5,1703.5C 2252.5,1694.17 2252.5,1684.83 2252.5,1675.5 Z"/></g>
<g><path style="opacity:1" fill="#d8d8d8" d="M 2273.5,1675.5 C 2277.17,1675.5 2280.83,1675.5 2284.5,1675.5C 2284.5,1684.83 2284.5,1694.17 2284.5,1703.5C 2280.83,1703.5 2277.17,1703.5 2273.5,1703.5C 2273.5,1694.17 2273.5,1684.83 2273.5,1675.5 Z"/></g>
<g><path style="opacity:1" fill="#dfdfdf" d="M 2293.5,1675.5 C 2297.5,1675.5 2301.5,1675.5 2305.5,1675.5C 2305.5,1684.83 2305.5,1694.17 2305.5,1703.5C 2301.5,1703.5 2297.5,1703.5 2293.5,1703.5C 2293.5,1694.17 2293.5,1684.83 2293.5,1675.5 Z"/></g>
<g><path style="opacity:1" fill="#e0e2e4" d="M 2699.5,1676.5 C 2710.86,1675.69 2715.03,1680.69 2712,1691.5C 2709.08,1695.21 2705.24,1697.21 2700.5,1697.5C 2698.29,1700.5 2698.29,1703.34 2700.5,1706C 2705,1708.42 2709.33,1711.08 2713.5,1714C 2714.93,1716.54 2714.26,1718.37 2711.5,1719.5C 2704.78,1716.9 2697.94,1715.9 2691,1716.5C 2681.33,1733.33 2673.17,1750.83 2666.5,1769C 2666.95,1771.57 2667.95,1773.9 2669.5,1776C 2678.04,1780.38 2686.71,1780.55 2695.5,1776.5C 2693.73,1775.18 2693.4,1773.68 2694.5,1772C 2699.72,1768.72 2705.38,1767.22 2711.5,1767.5C 2709.82,1774.52 2706.32,1780.52 2701,1785.5C 2699.96,1784.38 2699.29,1783.04 2699,1781.5C 2690.47,1788.79 2680.63,1791.62 2669.5,1790C 2661.37,1786.96 2653.21,1786.8 2645,1789.5C 2642.83,1785.36 2640.83,1781.03 2639,1776.5C 2626.15,1766.66 2620.99,1753.82 2623.5,1738C 2622.21,1737.51 2620.87,1737.34 2619.5,1737.5C 2620.29,1730.25 2623.46,1724.25 2629,1719.5C 2632.84,1725.19 2634.34,1731.52 2633.5,1738.5C 2632.17,1738.5 2630.83,1738.5 2629.5,1738.5C 2630.48,1745.96 2633.48,1752.46 2638.5,1758C 2642.26,1760.87 2646.26,1761.2 2650.5,1759C 2663.58,1744.08 2674.92,1727.91 2684.5,1710.5C 2679.81,1705.65 2675.31,1700.65 2671,1695.5C 2670.78,1693.58 2671.45,1691.91 2673,1690.5C 2678.25,1693.21 2683.41,1696.04 2688.5,1699C 2689.5,1699.67 2690.5,1699.67 2691.5,1699C 2693.4,1697.18 2695.07,1695.18 2696.5,1693C 2692.05,1686.54 2693.05,1681.04 2699.5,1676.5 Z"/></g>
<g><path style="opacity:1" fill="#11579f" d="M 2701.5,1680.5 C 2708.57,1681.41 2710.24,1684.91 2706.5,1691C 2700,1692.5 2697.5,1690 2699,1683.5C 2700.04,1682.63 2700.88,1681.63 2701.5,1680.5 Z"/></g>
<g><path style="opacity:1" fill="#d2d2d2" d="M 2231.5,1675.5 C 2235.5,1675.5 2239.5,1675.5 2243.5,1675.5C 2243.5,1684.83 2243.5,1694.17 2243.5,1703.5C 2239.5,1703.5 2235.5,1703.5 2231.5,1703.5C 2231.5,1694.17 2231.5,1684.83 2231.5,1675.5 Z"/></g>
<g><path style="opacity:1" fill="#00a9d6" d="M 519.5,1785.5 C 533.758,1782.88 544.258,1787.88 551,1800.5C 555.738,1816.52 550.572,1828.02 535.5,1835C 513.035,1837.86 501.869,1828.03 502,1805.5C 504.525,1795.82 510.358,1789.15 519.5,1785.5 Z"/></g>
<g><path style="opacity:1" fill="#00a9d6" d="M 629.5,1785.5 C 645.299,1782.84 656.132,1788.84 662,1803.5C 664.416,1819.18 658.25,1829.68 643.5,1835C 624.355,1837.52 613.688,1829.19 611.5,1810C 612.528,1798.09 618.528,1789.92 629.5,1785.5 Z"/></g>
<g><path style="opacity:1" fill="#00a9d6" d="M 739.5,1785.5 C 758.307,1783.05 769.307,1791.05 772.5,1809.5C 770.151,1829.85 758.818,1838.35 738.5,1835C 722.965,1827.1 718.132,1814.93 724,1798.5C 727.869,1792.45 733.035,1788.12 739.5,1785.5 Z"/></g>
<g><path style="opacity:1" fill="#00a9d6" d="M 849.5,1785.5 C 871.5,1783.67 882.334,1793.67 882,1815.5C 874.586,1834.62 861.42,1840.12 842.5,1832C 830.909,1822.16 828.409,1810.33 835,1796.5C 838.906,1791.4 843.739,1787.74 849.5,1785.5 Z"/></g>
<g><path style="opacity:1" fill="#00a9d6" d="M 958.5,1785.5 C 972.758,1782.88 983.258,1787.88 990,1800.5C 994.738,1816.52 989.572,1828.02 974.5,1835C 950.24,1837.41 939.407,1826.57 942,1802.5C 945.019,1794.32 950.519,1788.65 958.5,1785.5 Z"/></g>
<g><path style="opacity:1" fill="#00a8d6" d="M 1068.5,1785.5 C 1084.31,1782.82 1095.15,1788.82 1101,1803.5C 1103.22,1822.6 1094.89,1833.6 1076,1836.5C 1057.6,1833.69 1049.26,1823.02 1051,1804.5C 1053.96,1795.38 1059.79,1789.05 1068.5,1785.5 Z"/></g>
<g><path style="opacity:1" fill="#00a9d6" d="M 1178.5,1785.5 C 1197.33,1783.06 1208.33,1791.06 1211.5,1809.5C 1209.18,1829.84 1197.85,1838.34 1177.5,1835C 1164.23,1828.62 1158.73,1818.12 1161,1803.5C 1164.38,1794.96 1170.21,1788.96 1178.5,1785.5 Z"/></g>
<g><path style="opacity:1" fill="#00a9d6" d="M 1288.5,1785.5 C 1310.01,1783.52 1320.85,1793.19 1321,1814.5C 1316.11,1831.37 1304.94,1838.2 1287.5,1835C 1271.08,1826.41 1266.58,1813.58 1274,1796.5C 1277.91,1791.4 1282.74,1787.74 1288.5,1785.5 Z"/></g>
<g><path style="opacity:1" fill="#00a9d6" d="M 1397.5,1785.5 C 1420.34,1783.51 1431.17,1793.84 1430,1816.5C 1422.67,1835.08 1409.83,1840.24 1391.5,1832C 1376.96,1819.33 1375.96,1805.66 1388.5,1791C 1391.56,1789.14 1394.56,1787.31 1397.5,1785.5 Z"/></g>
<g><path style="opacity:1" fill="#00a8d6" d="M 1507.5,1785.5 C 1529.53,1783.7 1540.36,1793.7 1540,1815.5C 1536.56,1828.27 1528.23,1835.27 1515,1836.5C 1497.04,1833.87 1488.7,1823.54 1490,1805.5C 1492.52,1795.82 1498.35,1789.16 1507.5,1785.5 Z"/></g>
<g><path style="opacity:1" fill="#00a9d6" d="M 1617.5,1785.5 C 1639.97,1783.8 1650.8,1794.14 1650,1816.5C 1644.37,1832.4 1633.2,1838.56 1616.5,1835C 1602.28,1828.02 1597.12,1816.85 1601,1801.5C 1604.44,1793.89 1609.94,1788.56 1617.5,1785.5 Z"/></g>
<g><path style="opacity:1" fill="#00a9d6" d="M 1727.5,1785.5 C 1749.5,1783.67 1760.33,1793.67 1760,1815.5C 1754.6,1831.63 1743.43,1838.13 1726.5,1835C 1710.89,1827.17 1706.05,1815 1712,1798.5C 1715.87,1792.45 1721.04,1788.12 1727.5,1785.5 Z"/></g>
<g><path style="opacity:1" fill="#00a9d6" d="M 1836.5,1785.5 C 1851.81,1782.9 1862.65,1788.57 1869,1802.5C 1872.11,1817.78 1866.61,1828.62 1852.5,1835C 1828.35,1837.52 1817.52,1826.69 1820,1802.5C 1823.02,1794.32 1828.52,1788.65 1836.5,1785.5 Z"/></g>
<g><path style="opacity:1" fill="#00a9d6" d="M 1946.5,1785.5 C 1962.31,1782.82 1973.15,1788.82 1979,1803.5C 1981.27,1818.12 1975.77,1828.62 1962.5,1835C 1940.5,1837.99 1929.34,1828.49 1929,1806.5C 1931.07,1796.28 1936.9,1789.28 1946.5,1785.5 Z"/></g>
<g><path style="opacity:1" fill="#00a9d6" d="M 2056.5,1785.5 C 2079,1783.83 2089.83,1794.17 2089,1816.5C 2083.37,1832.4 2072.2,1838.56 2055.5,1835C 2041.28,1828.02 2036.12,1816.85 2040,1801.5C 2043.44,1793.89 2048.94,1788.56 2056.5,1785.5 Z"/></g>
<g><path style="opacity:1" fill="#00a9d6" d="M 2166.5,1785.5 C 2188.49,1783.66 2199.32,1793.66 2199,1815.5C 2193.6,1831.63 2182.43,1838.13 2165.5,1835C 2149.89,1827.17 2145.05,1815 2151,1798.5C 2154.87,1792.45 2160.04,1788.12 2166.5,1785.5 Z"/></g>
<g><path style="opacity:1" fill="#ec1c24" d="M 189.5,1949.5 C 1040.33,1949.17 1891,1949.5 2741.5,1950.5C 2734.3,1969.58 2726.8,1988.58 2719,2007.5C 2687.66,2066.8 2638.49,2099.97 2571.5,2107C 2546.33,2107.17 2521.17,2107.33 2496,2107.5C 1745.16,2104.81 994.323,2101.64 243.5,2098C 230.424,2094.72 221.257,2086.88 216,2074.5C 206.589,2032.94 197.756,1991.28 189.5,1949.5 Z"/></g>
</svg>
