<?xml version="1.0" encoding="UTF-8"?>
<!DOCTYPE svg PUBLIC "-//W3C//DTD SVG 1.1//EN" "http://www.w3.org/Graphics/SVG/1.1/DTD/svg11.dtd">
<svg xmlns="http://www.w3.org/2000/svg" version="1.1" width="3000px" height="3000px" style="shape-rendering:geometricPrecision; text-rendering:geometricPrecision; image-rendering:optimizeQuality; fill-rule:evenodd; clip-rule:evenodd" xmlns:xlink="http://www.w3.org/1999/xlink">
<g><path style="opacity:0.986" fill="#8d1212" d="M 1464.5,189.5 C 1464.5,208.5 1464.5,227.5 1464.5,246.5C 1460.5,246.5 1456.5,246.5 1452.5,246.5C 1452.82,237.249 1452.48,228.083 1451.5,219C 1436.71,212.646 1421.38,210.646 1405.5,213C 1402.94,213.685 1401.11,215.185 1400,217.5C 1399.5,227.494 1399.33,237.494 1399.5,247.5C 1395.5,247.5 1391.5,247.5 1387.5,247.5C 1387.82,273.241 1387.49,298.908 1386.5,324.5C 1380.08,323.862 1373.74,322.862 1367.5,321.5C 1363.38,321.512 1359.55,320.512 1356,318.5C 1354.38,303.536 1353.21,288.536 1352.5,273.5C 1352.6,265.989 1353.76,258.656 1356,251.5C 1358.97,248.046 1362.8,246.546 1367.5,247C 1366.51,229.577 1366.17,212.077 1366.5,194.5C 1399.05,191.024 1431.72,189.358 1464.5,189.5 Z"/></g>
<g><path style="opacity:1" fill="#7f0e0e" d="M 1504.5,189.5 C 1532.38,189.039 1560.04,190.039 1587.5,192.5C 1559.66,191.784 1532,190.784 1504.5,189.5 Z"/></g>
<g><path style="opacity:0.999" fill="#620a09" d="M 1464.5,189.5 C 1477.83,189.5 1491.17,189.5 1504.5,189.5C 1532,190.784 1559.66,191.784 1587.5,192.5C 1597.68,192.855 1607.68,194.355 1617.5,197C 1619.49,197.574 1620.99,198.741 1622,200.5C 1622.17,216.51 1622.67,232.51 1623.5,248.5C 1627.93,250.435 1630.77,253.768 1632,258.5C 1638.8,277.735 1639.14,297.069 1633,316.5C 1630.2,319.653 1626.7,321.319 1622.5,321.5C 1622.18,428.178 1622.52,534.845 1623.5,641.5C 1615.83,642.119 1608.16,642.786 1600.5,643.5C 1600.5,540.5 1600.5,437.5 1600.5,334.5C 1601.17,334.5 1601.5,334.167 1601.5,333.5C 1608.18,332.998 1614.85,332.331 1621.5,331.5C 1621.5,328.5 1621.5,325.5 1621.5,322.5C 1614.83,323.5 1608.16,324.5 1601.5,325.5C 1599.83,325.5 1598.17,325.5 1596.5,325.5C 1600.94,324.199 1605.61,323.532 1610.5,323.5C 1610.5,297.833 1610.5,272.167 1610.5,246.5C 1607.21,245.793 1603.88,245.46 1600.5,245.5C 1600.67,237.493 1600.5,229.493 1600,221.5C 1599.5,221 1599,220.5 1598.5,220C 1591.09,219.395 1583.76,219.895 1576.5,221.5C 1576.5,229.167 1576.5,236.833 1576.5,244.5C 1579.5,244.5 1582.5,244.5 1585.5,244.5C 1585.5,271.5 1585.5,298.5 1585.5,325.5C 1587.41,325.216 1589.08,325.549 1590.5,326.5C 1585.82,326.669 1581.15,327.002 1576.5,327.5C 1539.52,329.662 1502.52,329.995 1465.5,328.5C 1461.17,328.5 1456.83,328.5 1452.5,328.5C 1452.5,328.167 1452.5,327.833 1452.5,327.5C 1452.5,300.5 1452.5,273.5 1452.5,246.5C 1456.5,246.5 1460.5,246.5 1464.5,246.5C 1464.5,227.5 1464.5,208.5 1464.5,189.5 Z"/></g>
<g><path style="opacity:1" fill="#9e3434" d="M 1452.5,246.5 C 1448.83,246.5 1445.17,246.5 1441.5,246.5C 1441.5,273.5 1441.5,300.5 1441.5,327.5C 1426.85,326.501 1412.19,325.834 1397.5,325.5C 1393.9,324.656 1390.23,324.323 1386.5,324.5C 1387.49,298.908 1387.82,273.241 1387.5,247.5C 1391.5,247.5 1395.5,247.5 1399.5,247.5C 1399.33,237.494 1399.5,227.494 1400,217.5C 1401.11,215.185 1402.94,213.685 1405.5,213C 1421.38,210.646 1436.71,212.646 1451.5,219C 1452.48,228.083 1452.82,237.249 1452.5,246.5 Z"/></g>
<g><path style="opacity:1" fill="#712221" d="M 1596.5,325.5 C 1594.62,326.341 1592.62,326.675 1590.5,326.5C 1589.08,325.549 1587.41,325.216 1585.5,325.5C 1585.5,298.5 1585.5,271.5 1585.5,244.5C 1582.5,244.5 1579.5,244.5 1576.5,244.5C 1576.5,236.833 1576.5,229.167 1576.5,221.5C 1583.76,219.895 1591.09,219.395 1598.5,220C 1599,220.5 1599.5,221 1600,221.5C 1600.5,229.493 1600.67,237.493 1600.5,245.5C 1603.88,245.46 1607.21,245.793 1610.5,246.5C 1610.5,272.167 1610.5,297.833 1610.5,323.5C 1605.61,323.532 1600.94,324.199 1596.5,325.5 Z"/></g>
<g><path style="opacity:1" fill="#8d1111" d="M 1452.5,246.5 C 1452.5,273.5 1452.5,300.5 1452.5,327.5C 1448.83,327.5 1445.17,327.5 1441.5,327.5C 1441.5,300.5 1441.5,273.5 1441.5,246.5C 1445.17,246.5 1448.83,246.5 1452.5,246.5 Z"/></g>
<g><path style="opacity:1" fill="#4b0f10" d="M 1367.5,321.5 C 1373.74,322.862 1380.08,323.862 1386.5,324.5C 1390.23,324.323 1393.9,324.656 1397.5,325.5C 1397.5,328.167 1397.5,330.833 1397.5,333.5C 1396.5,333.5 1395.5,333.5 1394.5,333.5C 1385.82,333.054 1377.15,332.387 1368.5,331.5C 1367.52,328.375 1367.19,325.042 1367.5,321.5 Z"/></g>
<g><path style="opacity:1" fill="#320504" d="M 1601.5,333.5 C 1601.5,330.833 1601.5,328.167 1601.5,325.5C 1608.16,324.5 1614.83,323.5 1621.5,322.5C 1621.5,325.5 1621.5,328.5 1621.5,331.5C 1614.85,332.331 1608.18,332.998 1601.5,333.5 Z"/></g>
<g><path style="opacity:1" fill="#593534" d="M 1596.5,325.5 C 1598.17,325.5 1599.83,325.5 1601.5,325.5C 1601.5,328.167 1601.5,330.833 1601.5,333.5C 1601.5,334.167 1601.17,334.5 1600.5,334.5C 1592.49,334.731 1584.49,335.065 1576.5,335.5C 1576.5,332.833 1576.5,330.167 1576.5,327.5C 1581.15,327.002 1585.82,326.669 1590.5,326.5C 1592.62,326.675 1594.62,326.341 1596.5,325.5 Z"/></g>
<g><path style="opacity:1" fill="#642e2e" d="M 1397.5,325.5 C 1412.19,325.834 1426.85,326.501 1441.5,327.5C 1445.17,327.5 1448.83,327.5 1452.5,327.5C 1452.5,327.833 1452.5,328.167 1452.5,328.5C 1452.5,331.167 1452.5,333.833 1452.5,336.5C 1434.07,336.247 1415.74,335.247 1397.5,333.5C 1397.5,330.833 1397.5,328.167 1397.5,325.5 Z"/></g>
<g><path style="opacity:1" fill="#320504" d="M 1576.5,327.5 C 1576.5,330.167 1576.5,332.833 1576.5,335.5C 1576.5,335.833 1576.5,336.167 1576.5,336.5C 1539.84,337.418 1503.18,337.752 1466.5,337.5C 1466.17,337.5 1465.83,337.5 1465.5,337.5C 1465.5,334.5 1465.5,331.5 1465.5,328.5C 1502.52,329.995 1539.52,329.662 1576.5,327.5 Z"/></g>
<g><path style="opacity:1" fill="#490909" d="M 1452.5,328.5 C 1456.83,328.5 1461.17,328.5 1465.5,328.5C 1465.5,331.5 1465.5,334.5 1465.5,337.5C 1461.17,337.5 1456.83,337.5 1452.5,337.5C 1452.5,337.167 1452.5,336.833 1452.5,336.5C 1452.5,333.833 1452.5,331.167 1452.5,328.5 Z"/></g>
<g><path style="opacity:0.985" fill="#8d1111" d="M 1368.5,331.5 C 1377.15,332.387 1385.82,333.054 1394.5,333.5C 1395.21,334.404 1396.21,334.737 1397.5,334.5C 1396.02,438.165 1394.69,541.831 1393.5,645.5C 1386.16,645.371 1378.82,645.038 1371.5,644.5C 1370.44,540.173 1369.44,435.84 1368.5,331.5 Z"/></g>
<g><path style="opacity:1" fill="#9e3434" d="M 1394.5,333.5 C 1395.5,333.5 1396.5,333.5 1397.5,333.5C 1415.74,335.247 1434.07,336.247 1452.5,336.5C 1452.5,336.833 1452.5,337.167 1452.5,337.5C 1452.5,440.5 1452.5,543.5 1452.5,646.5C 1432.81,646.771 1413.14,646.438 1393.5,645.5C 1394.69,541.831 1396.02,438.165 1397.5,334.5C 1396.21,334.737 1395.21,334.404 1394.5,333.5 Z"/></g>
<g><path style="opacity:1" fill="#803a39" d="M 1600.5,334.5 C 1600.5,437.5 1600.5,540.5 1600.5,643.5C 1592.52,644.224 1584.52,644.558 1576.5,644.5C 1576.5,541.833 1576.5,439.167 1576.5,336.5C 1576.5,336.167 1576.5,335.833 1576.5,335.5C 1584.49,335.065 1592.49,334.731 1600.5,334.5 Z"/></g>
<g><path style="opacity:1" fill="#620a09" d="M 1576.5,336.5 C 1576.5,439.167 1576.5,541.833 1576.5,644.5C 1576.5,644.833 1576.5,645.167 1576.5,645.5C 1548.84,646.196 1521.17,646.529 1493.5,646.5C 1485.01,645.426 1476.35,644.759 1467.5,644.5C 1467.47,542.165 1467.13,439.832 1466.5,337.5C 1503.18,337.752 1539.84,337.418 1576.5,336.5 Z"/></g>
<g><path style="opacity:1" fill="#8d1212" d="M 1452.5,337.5 C 1456.83,337.5 1461.17,337.5 1465.5,337.5C 1465.83,337.5 1466.17,337.5 1466.5,337.5C 1467.13,439.832 1467.47,542.165 1467.5,644.5C 1476.35,644.759 1485.01,645.426 1493.5,646.5C 1479.83,646.5 1466.17,646.5 1452.5,646.5C 1452.5,543.5 1452.5,440.5 1452.5,337.5 Z"/></g>
<g><path style="opacity:0.995" fill="#000000" d="M 1623.5,641.5 C 1623.51,724.224 1625.68,806.891 1630,889.5C 1630.77,903.611 1632.43,917.611 1635,931.5C 1637.12,935.288 1639.95,938.455 1643.5,941C 1681.35,968.166 1716.85,998.332 1750,1031.5C 1759.05,1042.21 1767.71,1053.21 1776,1064.5C 1794.25,1097.57 1807.58,1132.57 1816,1169.5C 1817.28,1177.47 1818.28,1185.47 1819,1193.5C 1820.26,1252.49 1820.92,1311.49 1821,1370.5C 1823.19,1795.83 1823.86,2221.16 1823,2646.5C 1822.73,2678.51 1822.06,2710.51 1821,2742.5C 1817.48,2757.87 1811.48,2772.2 1803,2785.5C 1797.52,2792.99 1790.35,2798.16 1781.5,2801C 1730.54,2804.18 1679.54,2806.51 1628.5,2808C 1506.88,2812.77 1385.21,2814.77 1263.5,2814C 1229.89,2814.45 1209.39,2798.28 1202,2765.5C 1197.65,2744.39 1195.65,2723.06 1196,2701.5C 1186.65,2287.54 1179.98,1873.54 1176,1459.5C 1175.33,1379.83 1175.33,1300.17 1176,1220.5C 1176.27,1204.15 1176.93,1187.82 1178,1171.5C 1185.04,1138.7 1197.38,1108.04 1215,1079.5C 1250.74,1021.42 1298.91,976.917 1359.5,946C 1360.13,945.25 1360.63,944.416 1361,943.5C 1363.73,932.667 1365.4,921.667 1366,910.5C 1367.38,891.187 1368.38,871.854 1369,852.5C 1370.52,783.175 1371.36,713.842 1371.5,644.5C 1378.82,645.038 1386.16,645.371 1393.5,645.5C 1391.74,732.157 1391.24,818.824 1392,905.5C 1393.3,913.914 1394.96,922.247 1397,930.5C 1398.43,935.55 1401.77,937.883 1407,937.5C 1420.99,935.864 1434.49,932.364 1447.5,927C 1449.07,925.174 1449.91,923.007 1450,920.5C 1452.15,829.181 1452.99,737.848 1452.5,646.5C 1466.17,646.5 1479.83,646.5 1493.5,646.5C 1521.17,646.529 1548.84,646.196 1576.5,645.5C 1576.67,728.501 1576.5,811.501 1576,894.5C 1573.08,902.93 1569.58,911.097 1565.5,919C 1573.11,921.023 1580.78,922.856 1588.5,924.5C 1594.2,917.435 1598.03,909.435 1600,900.5C 1600.5,814.834 1600.67,729.167 1600.5,643.5C 1608.16,642.786 1615.83,642.119 1623.5,641.5 Z"/></g>
<g><path style="opacity:1" fill="#323232" d="M 1600.5,643.5 C 1600.67,729.167 1600.5,814.834 1600,900.5C 1598.03,909.435 1594.2,917.435 1588.5,924.5C 1580.78,922.856 1573.11,921.023 1565.5,919C 1569.58,911.097 1573.08,902.93 1576,894.5C 1576.5,811.501 1576.67,728.501 1576.5,645.5C 1576.5,645.167 1576.5,644.833 1576.5,644.5C 1584.52,644.558 1592.52,644.224 1600.5,643.5 Z"/></g>
<g><path style="opacity:1" fill="#4c4c4c" d="M 1393.5,645.5 C 1413.14,646.438 1432.81,646.771 1452.5,646.5C 1452.99,737.848 1452.15,829.181 1450,920.5C 1449.91,923.007 1449.07,925.174 1447.5,927C 1434.49,932.364 1420.99,935.864 1407,937.5C 1401.77,937.883 1398.43,935.55 1397,930.5C 1394.96,922.247 1393.3,913.914 1392,905.5C 1391.24,818.824 1391.74,732.157 1393.5,645.5 Z"/></g>
<g><path style="opacity:1" fill="#323232" d="M 1775.5,1682.5 C 1755.83,1682.5 1736.17,1682.5 1716.5,1682.5C 1716.67,1567.5 1716.5,1452.5 1716,1337.5C 1715.88,1286.48 1714.88,1235.48 1713,1184.5C 1709.43,1161.53 1702.76,1139.53 1693,1118.5C 1687.48,1107.74 1678.81,1101.07 1667,1098.5C 1663.68,1091.06 1664.01,1083.72 1668,1076.5C 1676.86,1057.25 1689.36,1054.42 1705.5,1068C 1737.19,1100.87 1758.36,1139.7 1769,1184.5C 1771.35,1231.13 1772.69,1277.8 1773,1324.5C 1774.21,1443.83 1775.05,1563.16 1775.5,1682.5 Z"/></g>
<g><path style="opacity:1" fill="#656565" d="M 1390.5,1682.5 C 1345.17,1682.5 1299.83,1682.5 1254.5,1682.5C 1252.73,1516.17 1252.23,1349.84 1253,1183.5C 1256.56,1161.83 1263.89,1141.5 1275,1122.5C 1283.51,1108.33 1293.17,1094.99 1304,1082.5C 1308.42,1077.41 1313.42,1073.07 1319,1069.5C 1347.75,1076.86 1375.25,1087.36 1401.5,1101C 1404.54,1103.7 1407.2,1106.7 1409.5,1110C 1406.04,1114.42 1403.2,1119.26 1401,1124.5C 1382.94,1170.21 1376.94,1217.54 1383,1266.5C 1386.65,1405.15 1389.15,1543.82 1390.5,1682.5 Z"/></g>
<g><path style="opacity:1" fill="#d6d6d6" d="M 1254.5,1682.5 C 1299.83,1682.5 1345.17,1682.5 1390.5,1682.5C 1499.17,1682.5 1607.83,1682.5 1716.5,1682.5C 1716.5,1682.83 1716.5,1683.17 1716.5,1683.5C 1607.83,1683.5 1499.17,1683.5 1390.5,1683.5C 1345.5,1683.5 1300.5,1683.5 1255.5,1683.5C 1257.75,1988.19 1261.75,2292.86 1267.5,2597.5C 1251.17,2597.5 1234.83,2597.5 1218.5,2597.5C 1214.03,2292.5 1209.7,1987.5 1205.5,1682.5C 1221.83,1682.5 1238.17,1682.5 1254.5,1682.5 Z"/></g>
<g><path style="opacity:1" fill="#e7e7e7" d="M 1390.5,1683.5 C 1395.71,1988.2 1402.38,2292.87 1410.5,2597.5C 1363.17,2597.5 1315.83,2597.5 1268.5,2597.5C 1268.17,2597.5 1267.83,2597.5 1267.5,2597.5C 1261.75,2292.86 1257.75,1988.19 1255.5,1683.5C 1300.5,1683.5 1345.5,1683.5 1390.5,1683.5 Z"/></g>
<g><path style="opacity:1" fill="#d7d7d7" d="M 1390.5,1683.5 C 1499.17,1683.5 1607.83,1683.5 1716.5,1683.5C 1716.48,1988.98 1716.48,2294.31 1716.5,2599.5C 1627.83,2599.68 1539.16,2599.34 1450.5,2598.5C 1437.34,2597.5 1424.01,2597.17 1410.5,2597.5C 1402.38,2292.87 1395.71,1988.2 1390.5,1683.5 Z"/></g>
<g><path style="opacity:1" fill="#dfdfdf" d="M 1716.5,1683.5 C 1736.17,1683.5 1755.83,1683.5 1775.5,1683.5C 1776.62,1989.22 1777.29,2294.89 1777.5,2600.5C 1757.17,2600.5 1736.83,2600.5 1716.5,2600.5C 1716.5,2600.17 1716.5,2599.83 1716.5,2599.5C 1716.48,2294.31 1716.48,1988.98 1716.5,1683.5 Z"/></g>
<g><path style="opacity:1" fill="#d7d7d7" d="M 1716.5,1683.5 C 1716.5,1683.17 1716.5,1682.83 1716.5,1682.5C 1736.17,1682.5 1755.83,1682.5 1775.5,1682.5C 1782.83,1682.5 1790.17,1682.5 1797.5,1682.5C 1797.5,1988.5 1797.5,2294.5 1797.5,2600.5C 1790.83,2600.5 1784.17,2600.5 1777.5,2600.5C 1777.29,2294.89 1776.62,1989.22 1775.5,1683.5C 1755.83,1683.5 1736.17,1683.5 1716.5,1683.5 Z"/></g>
<g><path style="opacity:1" fill="#656565" d="M 1268.5,2597.5 C 1315.83,2597.5 1363.17,2597.5 1410.5,2597.5C 1424.01,2597.17 1437.34,2597.5 1450.5,2598.5C 1437.17,2598.5 1423.83,2598.5 1410.5,2598.5C 1411.59,2643.66 1412.59,2688.83 1413.5,2734C 1413.17,2743.17 1412.83,2752.33 1412.5,2761.5C 1406.38,2764.04 1400.05,2765.87 1393.5,2767C 1361.59,2771.45 1329.59,2772.45 1297.5,2770C 1292.89,2768.79 1288.22,2767.79 1283.5,2767C 1281.71,2766.22 1280.21,2765.05 1279,2763.5C 1276.45,2753.54 1274.12,2743.54 1272,2733.5C 1269.86,2688.19 1268.7,2642.86 1268.5,2597.5 Z"/></g>
<g><path style="opacity:1" fill="#323232" d="M 1716.5,2600.5 C 1736.83,2600.5 1757.17,2600.5 1777.5,2600.5C 1777.33,2632.84 1777.5,2665.17 1778,2697.5C 1783.4,2718.42 1779.73,2737.42 1767,2754.5C 1764.11,2757.06 1760.94,2759.22 1757.5,2761C 1738.32,2762.65 1719.16,2764.49 1700,2766.5C 1697.17,2766.33 1694.33,2766.17 1691.5,2766C 1690.17,2765.33 1690.17,2764.67 1691.5,2764C 1698.21,2760.99 1705.21,2758.99 1712.5,2758C 1713.93,2757.53 1715.1,2756.7 1716,2755.5C 1716.5,2703.83 1716.67,2652.17 1716.5,2600.5 Z"/></g>
</svg>
