<?xml version="1.0" encoding="UTF-8"?>
<!DOCTYPE svg PUBLIC "-//W3C//DTD SVG 1.1//EN" "http://www.w3.org/Graphics/SVG/1.1/DTD/svg11.dtd">
<svg xmlns="http://www.w3.org/2000/svg" version="1.1" width="3000px" height="3000px" style="shape-rendering:geometricPrecision; text-rendering:geometricPrecision; image-rendering:optimizeQuality; fill-rule:evenodd; clip-rule:evenodd" xmlns:xlink="http://www.w3.org/1999/xlink">
<g><path style="opacity:0.99" fill="#c03921" d="M 1101.5,204.5 C 1094.28,202.041 1086.95,199.874 1079.5,198C 1056.57,193.656 1040.73,202.156 1032,223.5C 1028.59,241.522 1033.09,257.188 1045.5,270.5C 1021.75,265.547 1002.59,253.547 988,234.5C 979.761,219.024 981.428,204.69 993,191.5C 1016.1,166.459 1042.27,162.959 1071.5,181C 1082.48,187.647 1092.48,195.48 1101.5,204.5 Z"/></g>
<g><path style="opacity:0.993" fill="#f0461e" d="M 1101.5,204.5 C 1109.91,211.575 1117.24,219.575 1123.5,228.5C 1114.22,223.209 1104.22,221.043 1093.5,222C 1074.61,227.268 1067.78,239.435 1073,258.5C 1076.98,265.974 1082.48,271.974 1089.5,276.5C 1074.57,276.134 1059.9,274.134 1045.5,270.5C 1033.09,257.188 1028.59,241.522 1032,223.5C 1040.73,202.156 1056.57,193.656 1079.5,198C 1086.95,199.874 1094.28,202.041 1101.5,204.5 Z"/></g>
<g><path style="opacity:0.985" fill="#e9a417" d="M 1123.5,228.5 C 1140.3,246.775 1154.47,266.775 1166,288.5C 1140.83,282.611 1115.33,278.611 1089.5,276.5C 1082.48,271.974 1076.98,265.974 1073,258.5C 1067.78,239.435 1074.61,227.268 1093.5,222C 1104.22,221.043 1114.22,223.209 1123.5,228.5 Z"/></g>
<g><path style="opacity:0.994" fill="#c03921" d="M 1642.5,410.5 C 1635.66,391.502 1625,375.002 1610.5,361C 1589.07,344.062 1565.4,340.062 1539.5,349C 1528.61,354.936 1521.11,363.769 1517,375.5C 1514.05,384.284 1512.22,393.284 1511.5,402.5C 1499.64,386.122 1489.8,368.456 1482,349.5C 1472.37,315.838 1479.21,286.005 1502.5,260C 1519.69,246.205 1539.02,242.205 1560.5,248C 1596.06,260.563 1620.9,284.396 1635,319.5C 1642.12,338.517 1645.29,358.184 1644.5,378.5C 1644.57,389.367 1643.91,400.034 1642.5,410.5 Z"/></g>
<g><path style="opacity:0.989" fill="#c03921" d="M 1948.5,397.5 C 1961.75,385.381 1963.92,371.381 1955,355.5C 1945.57,345.572 1933.9,340.905 1920,341.5C 1913.04,341.807 1906.21,342.807 1899.5,344.5C 1912.35,328.826 1928.69,318.659 1948.5,314C 1962.42,312.42 1974.76,316.087 1985.5,325C 1995.25,333.74 2003.08,343.907 2009,355.5C 2012.63,364.993 2010.46,372.826 2002.5,379C 1985.39,387.649 1967.39,393.816 1948.5,397.5 Z"/></g>
<g><path style="opacity:0.991" fill="#f0461e" d="M 1948.5,397.5 C 1934.12,401.625 1919.79,405.959 1905.5,410.5C 1912.83,404.007 1916.83,395.84 1917.5,386C 1916.95,378.771 1913.28,373.771 1906.5,371C 1900.3,368.132 1893.96,367.799 1887.5,370C 1882.4,372.083 1877.4,374.25 1872.5,376.5C 1880.56,365.052 1889.56,354.385 1899.5,344.5C 1906.21,342.807 1913.04,341.807 1920,341.5C 1933.9,340.905 1945.57,345.572 1955,355.5C 1963.92,371.381 1961.75,385.381 1948.5,397.5 Z"/></g>
<g><path style="opacity:0.995" fill="#f0461e" d="M 1642.5,410.5 C 1640.63,436.295 1636.63,461.628 1630.5,486.5C 1628.35,469.025 1621.01,454.192 1608.5,442C 1586.35,433.319 1570.18,439.819 1560,461.5C 1556.14,470.273 1554.64,479.44 1555.5,489C 1555.4,497.246 1556.07,505.412 1557.5,513.5C 1546.79,484.893 1535.96,456.227 1525,427.5C 1520.48,419.113 1515.98,410.779 1511.5,402.5C 1512.22,393.284 1514.05,384.284 1517,375.5C 1521.11,363.769 1528.61,354.936 1539.5,349C 1565.4,340.062 1589.07,344.062 1610.5,361C 1625,375.002 1635.66,391.502 1642.5,410.5 Z"/></g>
<g><path style="opacity:0.979" fill="#e9a417" d="M 1905.5,410.5 C 1879.91,418.63 1855.91,429.964 1833.5,444.5C 1844.45,420.6 1857.45,397.933 1872.5,376.5C 1877.4,374.25 1882.4,372.083 1887.5,370C 1893.96,367.799 1900.3,368.132 1906.5,371C 1913.28,373.771 1916.95,378.771 1917.5,386C 1916.83,395.84 1912.83,404.007 1905.5,410.5 Z"/></g>
<g><path style="opacity:0.989" fill="#e9a417" d="M 1630.5,486.5 C 1621.49,531.042 1609.32,574.709 1594,617.5C 1581.34,583.02 1569.17,548.353 1557.5,513.5C 1556.07,505.412 1555.4,497.246 1555.5,489C 1554.64,479.44 1556.14,470.273 1560,461.5C 1570.18,439.819 1586.35,433.319 1608.5,442C 1621.01,454.192 1628.35,469.025 1630.5,486.5 Z"/></g>
<g><path style="opacity:0.035" fill="#feaa00" d="M 1833.5,444.5 C 1832.83,445.167 1832.83,445.167 1833.5,444.5 Z"/></g>
<g><path style="opacity:0.992" fill="#c03921" d="M 1433.5,643.5 C 1416.77,619.636 1397.77,597.469 1376.5,577C 1362.37,564.598 1346.37,555.264 1328.5,549C 1317.24,546.137 1305.91,545.804 1294.5,548C 1274.46,555.054 1265.29,569.221 1267,590.5C 1269.19,602.061 1273.52,612.727 1280,622.5C 1292.08,639.064 1303.91,655.731 1315.5,672.5C 1293.54,652.367 1270.54,633.533 1246.5,616C 1235.64,606.473 1225.47,596.306 1216,585.5C 1204.4,568.662 1202.4,550.662 1210,531.5C 1224.28,496.939 1250.12,482.106 1287.5,487C 1304.19,489.895 1319.85,495.561 1334.5,504C 1362.43,521.926 1384.93,545.093 1402,573.5C 1415.11,595.67 1425.61,619.003 1433.5,643.5 Z"/></g>
<g><path style="opacity:0.998" fill="#f0461e" d="M 1433.5,643.5 C 1439.48,660.109 1444.48,677.109 1448.5,694.5C 1437.19,679.687 1423.52,667.52 1407.5,658C 1396.47,652.325 1384.8,650.325 1372.5,652C 1361.17,656.001 1354,663.834 1351,675.5C 1348.85,689.654 1349.68,703.654 1353.5,717.5C 1342.37,701.352 1329.7,686.352 1315.5,672.5C 1303.91,655.731 1292.08,639.064 1280,622.5C 1273.52,612.727 1269.19,602.061 1267,590.5C 1265.29,569.221 1274.46,555.054 1294.5,548C 1305.91,545.804 1317.24,546.137 1328.5,549C 1346.37,555.264 1362.37,564.598 1376.5,577C 1397.77,597.469 1416.77,619.636 1433.5,643.5 Z"/></g>
<g><path style="opacity:0.988" fill="#c03921" d="M 899.5,611.5 C 887.911,610.976 877.244,613.809 867.5,620C 856.683,630.714 853.183,643.547 857,658.5C 859.285,666.451 864.119,672.285 871.5,676C 877.16,678.493 882.826,680.659 888.5,682.5C 863.568,688.457 840.568,684.29 819.5,670C 808.556,659.949 806.056,648.115 812,634.5C 827.478,607.015 850.644,596.848 881.5,604C 887.934,605.725 893.934,608.225 899.5,611.5 Z"/></g>
<g><path style="opacity:0.994" fill="#f0461e" d="M 899.5,611.5 C 915.496,619.17 929.829,629.17 942.5,641.5C 934.364,637.133 925.698,634.966 916.5,635C 899.432,640.312 893.265,651.478 898,668.5C 905.048,675.938 913.548,680.605 923.5,682.5C 911.809,681.714 900.142,681.714 888.5,682.5C 882.826,680.659 877.16,678.493 871.5,676C 864.119,672.285 859.285,666.451 857,658.5C 853.183,643.547 856.683,630.714 867.5,620C 877.244,613.809 887.911,610.976 899.5,611.5 Z"/></g>
<g><path style="opacity:0.993" fill="#c03921" d="M 1821.5,779.5 C 1842.54,770.479 1861.87,758.645 1879.5,744C 1903.04,720.866 1902.04,698.866 1876.5,678C 1863.57,669.726 1849.41,665.893 1834,666.5C 1813.63,667.8 1794.13,672.634 1775.5,681C 1768.93,684.451 1762.27,687.618 1755.5,690.5C 1777.1,665.057 1802.44,644.224 1831.5,628C 1855.94,614.948 1880.94,613.615 1906.5,624C 1926.48,631.989 1942.98,644.489 1956,661.5C 1969.09,681.729 1972.09,703.396 1965,726.5C 1955.6,751.24 1938.1,766.74 1912.5,773C 1891.18,774.146 1869.85,775.146 1848.5,776C 1839.43,776.758 1830.43,777.925 1821.5,779.5 Z"/></g>
<g><path style="opacity:0.985" fill="#e9a417" d="M 942.5,641.5 C 942.973,642.906 943.973,643.573 945.5,643.5C 956.462,652.628 966.629,662.628 976,673.5C 979.667,677.833 983.333,682.167 987,686.5C 988.289,688.055 988.956,689.721 989,691.5C 967.413,686.989 945.579,683.989 923.5,682.5C 913.548,680.605 905.048,675.938 898,668.5C 893.265,651.478 899.432,640.312 916.5,635C 925.698,634.966 934.364,637.133 942.5,641.5 Z"/></g>
<g><path style="opacity:0.075" fill="#f14a1c" d="M 942.5,641.5 C 944.027,641.427 945.027,642.094 945.5,643.5C 943.973,643.573 942.973,642.906 942.5,641.5 Z"/></g>
<g><path style="opacity:0.989" fill="#e9a417" d="M 1448.5,694.5 C 1461.72,755.907 1466.56,817.907 1463,880.5C 1427.45,825.467 1390.95,771.134 1353.5,717.5C 1349.68,703.654 1348.85,689.654 1351,675.5C 1354,663.834 1361.17,656.001 1372.5,652C 1384.8,650.325 1396.47,652.325 1407.5,658C 1423.52,667.52 1437.19,679.687 1448.5,694.5 Z"/></g>
<g><path style="opacity:0.997" fill="#f0461e" d="M 1821.5,779.5 C 1797.97,784.233 1775.3,791.567 1753.5,801.5C 1757.43,796.393 1761.6,791.393 1766,786.5C 1775.08,774.877 1775.75,762.877 1768,750.5C 1760.47,743.432 1751.47,740.099 1741,740.5C 1729.31,741.047 1718.15,743.714 1707.5,748.5C 1722.4,728.267 1738.4,708.934 1755.5,690.5C 1762.27,687.618 1768.93,684.451 1775.5,681C 1794.13,672.634 1813.63,667.8 1834,666.5C 1849.41,665.893 1863.57,669.726 1876.5,678C 1902.04,698.866 1903.04,720.866 1879.5,744C 1861.87,758.645 1842.54,770.479 1821.5,779.5 Z"/></g>
<g><path style="opacity:0.985" fill="#e9a417" d="M 1753.5,801.5 C 1707.68,823.183 1664.85,849.516 1625,880.5C 1648.68,834.136 1676.18,790.136 1707.5,748.5C 1718.15,743.714 1729.31,741.047 1741,740.5C 1751.47,740.099 1760.47,743.432 1768,750.5C 1775.75,762.877 1775.08,774.877 1766,786.5C 1761.6,791.393 1757.43,796.393 1753.5,801.5 Z"/></g>
<g><path style="opacity:0.989" fill="#c03921" d="M 1117.5,841.5 C 1107.92,844.445 1098.59,848.279 1089.5,853C 1073.2,863.89 1067.03,879.056 1071,898.5C 1075.09,914.248 1085.25,923.414 1101.5,926C 1109.76,927.775 1118.09,928.941 1126.5,929.5C 1106.56,932.1 1086.56,935.267 1066.5,939C 1046.33,943.518 1031.17,937.018 1021,919.5C 1005.07,881.184 1017.24,856.35 1057.5,845C 1077.3,840.564 1097.3,839.397 1117.5,841.5 Z"/></g>
<g><path style="opacity:0.993" fill="#f0461e" d="M 1117.5,841.5 C 1150.65,847.734 1177.98,863.734 1199.5,889.5C 1188.03,881.271 1175.37,875.437 1161.5,872C 1143.52,870.132 1133.86,878.299 1132.5,896.5C 1133.54,907.077 1138.54,915.243 1147.5,921C 1154.99,925.08 1162.65,928.58 1170.5,931.5C 1155.9,929.781 1141.23,929.115 1126.5,929.5C 1118.09,928.941 1109.76,927.775 1101.5,926C 1085.25,923.414 1075.09,914.248 1071,898.5C 1067.03,879.056 1073.2,863.89 1089.5,853C 1098.59,848.279 1107.92,844.445 1117.5,841.5 Z"/></g>
<g><path style="opacity:0.987" fill="#e9a417" d="M 1199.5,889.5 C 1216.59,908.145 1230.59,928.978 1241.5,952C 1218.73,942.468 1195.06,935.635 1170.5,931.5C 1162.65,928.58 1154.99,925.08 1147.5,921C 1138.54,915.243 1133.54,907.077 1132.5,896.5C 1133.86,878.299 1143.52,870.132 1161.5,872C 1175.37,875.437 1188.03,881.271 1199.5,889.5 Z"/></g>
<g><path style="opacity:0.992" fill="#f0461e" d="M 1980.5,954.5 C 1991.62,961.844 2001.78,970.511 2011,980.5C 2020.16,992.307 2023.82,1005.64 2022,1020.5C 2019.64,1028.11 2014.47,1032.61 2006.5,1034C 2000.98,1034.17 1995.65,1034.67 1990.5,1035.5C 1971.72,1031.15 1953.05,1026.81 1934.5,1022.5C 1942.64,1024.24 1950.64,1023.74 1958.5,1021C 1965.72,1017.24 1969.05,1011.24 1968.5,1003C 1966.37,978.334 1952.87,966.501 1928,967.5C 1922.35,967.361 1916.85,968.027 1911.5,969.5C 1933.25,959.315 1956.25,954.315 1980.5,954.5 Z"/></g>
<g><path style="opacity:0.987" fill="#c03921" d="M 1980.5,954.5 C 2018.54,956.264 2048.04,972.931 2069,1004.5C 2075.34,1014.17 2080.34,1024.5 2084,1035.5C 2086.17,1048 2080.83,1053.33 2068,1051.5C 2041.71,1048.28 2015.88,1042.94 1990.5,1035.5C 1995.65,1034.67 2000.98,1034.17 2006.5,1034C 2014.47,1032.61 2019.64,1028.11 2022,1020.5C 2023.82,1005.64 2020.16,992.307 2011,980.5C 2001.78,970.511 1991.62,961.844 1980.5,954.5 Z"/></g>
<g><path style="opacity:0.986" fill="#e9a417" d="M 1934.5,1022.5 C 1904.57,1017.07 1874.57,1012.07 1844.5,1007.5C 1864.82,991.502 1887.15,978.835 1911.5,969.5C 1916.85,968.027 1922.35,967.361 1928,967.5C 1952.87,966.501 1966.37,978.334 1968.5,1003C 1969.05,1011.24 1965.72,1017.24 1958.5,1021C 1950.64,1023.74 1942.64,1024.24 1934.5,1022.5 Z"/></g>
<g><path style="opacity:0.997" fill="#e9a417" d="M 1798.5,1348.5 C 1784.35,1335.85 1770.68,1322.68 1757.5,1309C 1754.66,1307.08 1751.66,1305.41 1748.5,1304C 1737.48,1302.44 1734.31,1306.94 1739,1317.5C 1747.05,1330.94 1754.05,1344.94 1760,1359.5C 1763.88,1371.18 1761.04,1380.68 1751.5,1388C 1722.54,1402.72 1697.71,1397.55 1677,1372.5C 1672.09,1365.67 1667.42,1358.67 1663,1351.5C 1655.59,1337.67 1647.92,1324 1640,1310.5C 1626.27,1290.73 1610.94,1289.39 1594,1306.5C 1591.75,1310.01 1589.75,1313.67 1588,1317.5C 1585.41,1330.03 1583.74,1342.7 1583,1355.5C 1581.16,1368.69 1574,1377.52 1561.5,1382C 1543.99,1389.38 1529.16,1385.88 1517,1371.5C 1509.22,1357.6 1502.22,1343.26 1496,1328.5C 1489.63,1316.27 1480.13,1313.11 1467.5,1319C 1457.64,1326.86 1449.14,1336.03 1442,1346.5C 1433.62,1355.52 1423.29,1360.86 1411,1362.5C 1409.1,1362.39 1407.44,1361.72 1406,1360.5C 1403.74,1356.05 1402.07,1351.38 1401,1346.5C 1399.75,1343.42 1397.92,1340.75 1395.5,1338.5C 1393.23,1337.46 1390.9,1337.29 1388.5,1338C 1383.61,1340.28 1378.61,1342.28 1373.5,1344C 1365.93,1345.03 1359.1,1343.2 1353,1338.5C 1348.43,1328.53 1342.27,1319.7 1334.5,1312C 1327.83,1307.44 1320.5,1305.11 1312.5,1305C 1307,1307.83 1302.83,1312 1300,1317.5C 1292.6,1333.97 1283.94,1349.64 1274,1364.5C 1262.73,1376.19 1249.56,1378.69 1234.5,1372C 1224.46,1366.96 1217.62,1359.13 1214,1348.5C 1212.47,1343.04 1210.97,1337.71 1209.5,1332.5C 1217.82,1317.87 1225.65,1302.87 1233,1287.5C 1247.64,1250.59 1263.64,1214.25 1281,1178.5C 1289.58,1162.91 1300.75,1149.41 1314.5,1138C 1327.9,1128.09 1342.9,1124.09 1359.5,1126C 1363.73,1127.11 1367.73,1128.78 1371.5,1131C 1397.74,1150.47 1426.08,1154.14 1456.5,1142C 1463.78,1137.05 1470.78,1131.72 1477.5,1126C 1494.67,1114.27 1513.34,1111.27 1533.5,1117C 1543.28,1120.72 1552.95,1124.72 1562.5,1129C 1573.99,1134.04 1585.99,1136.54 1598.5,1136.5C 1625.46,1134.17 1652.46,1134 1679.5,1136C 1698.72,1138.52 1714.22,1147.35 1726,1162.5C 1731.43,1170.35 1736.09,1178.68 1740,1187.5C 1748.98,1214.07 1757.64,1240.74 1766,1267.5C 1776.35,1294.72 1787.18,1321.72 1798.5,1348.5 Z"/></g>
<g><path style="opacity:0.99" fill="#e9a417" d="M 1039.5,1353.5 C 1036.09,1363.21 1031.25,1372.21 1025,1380.5C 1015.68,1390.7 1004.18,1394.54 990.5,1392C 967.906,1388.75 958.406,1375.92 962,1353.5C 966.413,1339.34 972.913,1326.34 981.5,1314.5C 1001.39,1298.21 1022.05,1282.88 1043.5,1268.5C 1044.57,1296.94 1043.24,1325.27 1039.5,1353.5 Z"/></g>
<g><path style="opacity:0.999" fill="#f0461e" d="M 1798.5,1348.5 C 1811.22,1376.96 1823.72,1405.63 1836,1434.5C 1841.45,1445.29 1848.45,1454.95 1857,1463.5C 1874.56,1481.73 1892.73,1499.23 1911.5,1516C 1918.44,1519.45 1924.1,1524.28 1928.5,1530.5C 1937.46,1554.22 1944.29,1578.55 1949,1603.5C 1949.67,1610.17 1949.67,1616.83 1949,1623.5C 1946.61,1633.04 1940.44,1637.38 1930.5,1636.5C 1921.41,1635.53 1912.74,1633.03 1904.5,1629C 1888.5,1620.67 1872.5,1612.33 1856.5,1604C 1848.88,1600.34 1840.88,1599.01 1832.5,1600C 1826.5,1604.67 1820.5,1609.33 1814.5,1614C 1805.15,1619.84 1795.15,1621.51 1784.5,1619C 1769.07,1616.87 1756.57,1609.7 1747,1597.5C 1733.41,1577.23 1717.58,1558.73 1699.5,1542C 1686.05,1531.07 1671.05,1522.9 1654.5,1517.5C 1635.32,1496.49 1614.65,1476.99 1592.5,1459C 1590.65,1457.87 1588.65,1457.37 1586.5,1457.5C 1587.89,1465.83 1590.39,1473.83 1594,1481.5C 1607.67,1510.83 1621.33,1540.17 1635,1569.5C 1642.67,1585.85 1648.34,1602.85 1652,1620.5C 1652.67,1626.5 1652.67,1632.5 1652,1638.5C 1649.41,1658.21 1646.58,1677.88 1643.5,1697.5C 1638.27,1720.32 1630.44,1742.32 1620,1763.5C 1613.99,1774.51 1606.16,1784.01 1596.5,1792C 1581.68,1800.16 1566.68,1800.5 1551.5,1793C 1540.18,1787.02 1530.68,1778.85 1523,1768.5C 1506.67,1745.84 1494,1721.17 1485,1694.5C 1475,1667.18 1467.84,1639.18 1463.5,1610.5C 1468.16,1580.69 1473.66,1551.02 1480,1521.5C 1484.62,1492.05 1476.79,1466.55 1456.5,1445C 1453.83,1443.33 1451.17,1441.67 1448.5,1440C 1441.83,1437.22 1436.33,1438.72 1432,1444.5C 1424.11,1457.84 1418.77,1472.18 1416,1487.5C 1412.11,1504.28 1409.94,1521.28 1409.5,1538.5C 1410.05,1556.24 1411.38,1573.9 1413.5,1591.5C 1410.59,1622.74 1400.09,1651.08 1382,1676.5C 1366.18,1693.83 1347.35,1698.33 1325.5,1690C 1314.58,1682.7 1307.75,1672.53 1305,1659.5C 1300.7,1629.01 1302.86,1599.01 1311.5,1569.5C 1324.93,1538.97 1338.1,1508.3 1351,1477.5C 1356.15,1464.39 1359.65,1450.89 1361.5,1437C 1362.04,1427.2 1357.71,1423.87 1348.5,1427C 1336.72,1436.06 1326.89,1446.89 1319,1459.5C 1293.21,1501.18 1274.21,1545.84 1262,1593.5C 1255.51,1620.47 1249.34,1647.47 1243.5,1674.5C 1216.03,1701.47 1188.7,1728.63 1161.5,1756C 1138.47,1778.33 1111.81,1795 1081.5,1806C 1071.68,1808.8 1061.68,1810.64 1051.5,1811.5C 1047.04,1811.17 1042.71,1810.34 1038.5,1809C 1036.56,1807.28 1035.56,1805.11 1035.5,1802.5C 1036.82,1796.85 1038.99,1791.51 1042,1786.5C 1055.88,1768.28 1070.88,1750.95 1087,1734.5C 1091.67,1728.17 1095,1721.17 1097,1713.5C 1103.73,1691.63 1106.06,1669.3 1104,1646.5C 1100.56,1615.45 1101.06,1584.45 1105.5,1553.5C 1121.89,1522.38 1136.39,1490.38 1149,1457.5C 1151.32,1443.19 1155.66,1429.53 1162,1416.5C 1176.59,1387.63 1192.43,1359.63 1209.5,1332.5C 1210.97,1337.71 1212.47,1343.04 1214,1348.5C 1217.62,1359.13 1224.46,1366.96 1234.5,1372C 1249.56,1378.69 1262.73,1376.19 1274,1364.5C 1283.94,1349.64 1292.6,1333.97 1300,1317.5C 1302.83,1312 1307,1307.83 1312.5,1305C 1320.5,1305.11 1327.83,1307.44 1334.5,1312C 1342.27,1319.7 1348.43,1328.53 1353,1338.5C 1359.1,1343.2 1365.93,1345.03 1373.5,1344C 1378.61,1342.28 1383.61,1340.28 1388.5,1338C 1390.9,1337.29 1393.23,1337.46 1395.5,1338.5C 1397.92,1340.75 1399.75,1343.42 1401,1346.5C 1402.07,1351.38 1403.74,1356.05 1406,1360.5C 1407.44,1361.72 1409.1,1362.39 1411,1362.5C 1423.29,1360.86 1433.62,1355.52 1442,1346.5C 1449.14,1336.03 1457.64,1326.86 1467.5,1319C 1480.13,1313.11 1489.63,1316.27 1496,1328.5C 1502.22,1343.26 1509.22,1357.6 1517,1371.5C 1529.16,1385.88 1543.99,1389.38 1561.5,1382C 1574,1377.52 1581.16,1368.69 1583,1355.5C 1583.74,1342.7 1585.41,1330.03 1588,1317.5C 1589.75,1313.67 1591.75,1310.01 1594,1306.5C 1610.94,1289.39 1626.27,1290.73 1640,1310.5C 1647.92,1324 1655.59,1337.67 1663,1351.5C 1667.42,1358.67 1672.09,1365.67 1677,1372.5C 1697.71,1397.55 1722.54,1402.72 1751.5,1388C 1761.04,1380.68 1763.88,1371.18 1760,1359.5C 1754.05,1344.94 1747.05,1330.94 1739,1317.5C 1734.31,1306.94 1737.48,1302.44 1748.5,1304C 1751.66,1305.41 1754.66,1307.08 1757.5,1309C 1770.68,1322.68 1784.35,1335.85 1798.5,1348.5 Z"/></g>
<g><path style="opacity:0.995" fill="#f0461e" d="M 981.5,1314.5 C 972.913,1326.34 966.413,1339.34 962,1353.5C 958.406,1375.92 967.906,1388.75 990.5,1392C 1004.18,1394.54 1015.68,1390.7 1025,1380.5C 1031.25,1372.21 1036.09,1363.21 1039.5,1353.5C 1036.7,1373.19 1032.36,1392.52 1026.5,1411.5C 1019.38,1418.45 1012.05,1425.28 1004.5,1432C 981.1,1448.63 957.767,1448.63 934.5,1432C 921.166,1417.83 917.333,1401.33 923,1382.5C 925.637,1373.74 929.137,1365.41 933.5,1357.5C 948.257,1341.74 964.257,1327.41 981.5,1314.5 Z"/></g>
<g><path style="opacity:0.987" fill="#c03921" d="M 933.5,1357.5 C 929.137,1365.41 925.637,1373.74 923,1382.5C 917.333,1401.33 921.166,1417.83 934.5,1432C 957.767,1448.63 981.1,1448.63 1004.5,1432C 1012.05,1425.28 1019.38,1418.45 1026.5,1411.5C 1015.21,1449.96 989.877,1472.79 950.5,1480C 918.892,1481.41 899.726,1466.57 893,1435.5C 890.535,1425.28 891.202,1415.28 895,1405.5C 904.744,1386.93 917.577,1370.93 933.5,1357.5 Z"/></g>
<g><path style="opacity:0.991" fill="#e9a417" d="M 2035.5,1436.5 C 2043.72,1442.21 2051.55,1448.55 2059,1455.5C 2073.71,1471.91 2075.38,1489.58 2064,1508.5C 2052.81,1521.72 2038.98,1525.22 2022.5,1519C 2018.5,1517 2014.5,1515 2010.5,1513C 2002.65,1507.31 1994.99,1501.48 1987.5,1495.5C 1968.12,1462.08 1945.79,1430.75 1920.5,1401.5C 1959.81,1409.25 1998.14,1420.92 2035.5,1436.5 Z"/></g>
<g><path style="opacity:1" fill="#502f1a" d="M 1311.5,1569.5 C 1293.77,1605.21 1281.93,1642.88 1276,1682.5C 1273.85,1701.65 1275.85,1720.32 1282,1738.5C 1290.09,1756.92 1303.92,1768.42 1323.5,1773C 1371.42,1782.14 1401.58,1763.31 1414,1716.5C 1419.26,1687.4 1420.93,1658.07 1419,1628.5C 1417.97,1615.91 1416.14,1603.57 1413.5,1591.5C 1411.38,1573.9 1410.05,1556.24 1409.5,1538.5C 1409.94,1521.28 1412.11,1504.28 1416,1487.5C 1418.77,1472.18 1424.11,1457.84 1432,1444.5C 1436.33,1438.72 1441.83,1437.22 1448.5,1440C 1451.17,1441.67 1453.83,1443.33 1456.5,1445C 1476.79,1466.55 1484.62,1492.05 1480,1521.5C 1473.66,1551.02 1468.16,1580.69 1463.5,1610.5C 1456.84,1645.13 1455.17,1680.13 1458.5,1715.5C 1453.56,1763.34 1456.39,1810.67 1467,1857.5C 1469.51,1874.65 1468.85,1891.65 1465,1908.5C 1460.66,1919.84 1456.33,1931.18 1452,1942.5C 1451.31,1947.89 1451.64,1953.22 1453,1958.5C 1479.16,2004.15 1504.83,2050.15 1530,2096.5C 1544.94,2125.34 1557.94,2155 1569,2185.5C 1572.74,2196.22 1574.41,2207.22 1574,2218.5C 1570.22,2229.39 1565.89,2240.06 1561,2250.5C 1553.28,2267.63 1552.61,2284.96 1559,2302.5C 1565.28,2313.79 1573.45,2323.63 1583.5,2332C 1597.5,2342 1611.5,2352 1625.5,2362C 1637.12,2371.29 1646.96,2382.12 1655,2394.5C 1660.08,2405.64 1661.75,2417.3 1660,2429.5C 1656.25,2447.76 1649.91,2465.1 1641,2481.5C 1627.81,2503.88 1615.15,2526.54 1603,2549.5C 1597.56,2560.34 1595.9,2571.67 1598,2583.5C 1600.9,2590.73 1606.07,2595.56 1613.5,2598C 1628.11,2601.88 1642.77,2605.55 1657.5,2609C 1671.27,2612.44 1681.93,2620.11 1689.5,2632C 1696.62,2638.39 1704.96,2642.39 1714.5,2644C 1723.19,2645.19 1731.86,2646.52 1740.5,2648C 1745.23,2650.38 1746.73,2654.21 1745,2659.5C 1713.71,2724.09 1679.88,2787.09 1643.5,2848.5C 1605.9,2847.68 1568.9,2842.51 1532.5,2833C 1510.65,2826.94 1488.99,2820.27 1467.5,2813C 1431.65,2799.27 1395.65,2785.94 1359.5,2773C 1351.27,2770.69 1342.93,2768.86 1334.5,2767.5C 1326.41,2768.03 1318.41,2769.2 1310.5,2771C 1294.24,2778.98 1277.57,2785.98 1260.5,2792C 1218.39,2802.8 1175.73,2806.13 1132.5,2802C 1098.25,2795.71 1065.91,2784.04 1035.5,2767C 1007.15,2750.83 979.812,2733.16 953.5,2714C 925.765,2692.81 898.098,2671.65 870.5,2650.5C 874.524,2615.14 887.357,2583.47 909,2555.5C 920.478,2542.54 931.478,2529.2 942,2515.5C 946.188,2507.6 949.188,2499.27 951,2490.5C 952.536,2476.2 952.869,2461.87 952,2447.5C 948.905,2421.69 944.905,2396.03 940,2370.5C 936.864,2357.29 938.198,2344.62 944,2332.5C 947.94,2325.56 952.273,2318.9 957,2312.5C 977,2286.5 997,2260.5 1017,2234.5C 1024.84,2223.83 1030.84,2212.16 1035,2199.5C 1035.65,2196.41 1035.32,2193.41 1034,2190.5C 1028.18,2183.53 1024.52,2175.53 1023,2166.5C 1020.35,2150.57 1019.85,2134.57 1021.5,2118.5C 1035.31,2102.24 1047.14,2084.57 1057,2065.5C 1064.41,2046.8 1069.41,2027.47 1072,2007.5C 1075.45,1976.81 1079.11,1946.14 1083,1915.5C 1085.29,1897.64 1090.95,1880.97 1100,1865.5C 1107.03,1857.8 1115.2,1851.63 1124.5,1847C 1144.32,1837.59 1163.99,1827.92 1183.5,1818C 1198.45,1810.39 1209.28,1798.89 1216,1783.5C 1227.89,1747.86 1237.06,1711.53 1243.5,1674.5C 1249.34,1647.47 1255.51,1620.47 1262,1593.5C 1274.21,1545.84 1293.21,1501.18 1319,1459.5C 1326.89,1446.89 1336.72,1436.06 1348.5,1427C 1357.71,1423.87 1362.04,1427.2 1361.5,1437C 1359.65,1450.89 1356.15,1464.39 1351,1477.5C 1338.1,1508.3 1324.93,1538.97 1311.5,1569.5 Z"/></g>
<g><path style="opacity:0.995" fill="#f0461e" d="M 2035.5,1436.5 C 2060.05,1446.1 2082.72,1458.77 2103.5,1474.5C 2113.32,1490.45 2117.48,1507.78 2116,1526.5C 2112.42,1544.84 2101.92,1557.34 2084.5,1564C 2064.23,1568.68 2045.56,1565.01 2028.5,1553C 2022.89,1547.87 2017.22,1543.04 2011.5,1538.5C 2003.75,1524.01 1995.75,1509.67 1987.5,1495.5C 1994.99,1501.48 2002.65,1507.31 2010.5,1513C 2014.5,1515 2018.5,1517 2022.5,1519C 2038.98,1525.22 2052.81,1521.72 2064,1508.5C 2075.38,1489.58 2073.71,1471.91 2059,1455.5C 2051.55,1448.55 2043.72,1442.21 2035.5,1436.5 Z"/></g>
<g><path style="opacity:0.999" fill="#502e1a" d="M 1654.5,1517.5 C 1674.44,1538.97 1689.27,1563.64 1699,1591.5C 1706.63,1638.73 1724.63,1681.4 1753,1719.5C 1761.04,1729.22 1770.54,1737.05 1781.5,1743C 1798.02,1749.38 1810.85,1745.22 1820,1730.5C 1821.35,1721.74 1820.02,1713.4 1816,1705.5C 1815.5,1703.19 1815.34,1700.86 1815.5,1698.5C 1830.53,1702.18 1844.53,1708.35 1857.5,1717C 1861.33,1720.83 1865.17,1724.67 1869,1728.5C 1871.22,1732.27 1872.89,1736.27 1874,1740.5C 1876.73,1782.09 1893.56,1816.59 1924.5,1844C 1939.37,1855.26 1956.03,1862.43 1974.5,1865.5C 1979.38,1880.59 1985.88,1894.92 1994,1908.5C 1995.5,1910 1997,1911.5 1998.5,1913C 2028.57,1922.76 2053.4,1939.92 2073,1964.5C 2084.1,1981.14 2090.44,1999.48 2092,2019.5C 2092.33,2028.83 2092.67,2038.17 2093,2047.5C 2094.37,2060.21 2101.37,2066.54 2114,2066.5C 2127.13,2064.77 2140.29,2063.94 2153.5,2064C 2171.97,2067.79 2186.8,2077.29 2198,2092.5C 2214.75,2116.67 2225.41,2143.34 2230,2172.5C 2232.69,2178.2 2236.52,2183.03 2241.5,2187C 2251.83,2194.17 2262.5,2200.83 2273.5,2207C 2295.01,2218.26 2316.68,2229.26 2338.5,2240C 2351.97,2247.48 2364.47,2256.31 2376,2266.5C 2381.63,2272.76 2384.79,2280.09 2385.5,2288.5C 2384.46,2294.81 2384.29,2301.14 2385,2307.5C 2388.37,2313.87 2392.87,2319.37 2398.5,2324C 2422.48,2338.99 2447.82,2351.33 2474.5,2361C 2486.25,2365.42 2498.25,2368.92 2510.5,2371.5C 2533.15,2387.29 2556.48,2402.13 2580.5,2416C 2608.37,2433.43 2635.37,2452.1 2661.5,2472C 2677.16,2484.48 2690.66,2498.98 2702,2515.5C 2720,2544.73 2714.17,2567.56 2684.5,2584C 2664.39,2594.04 2643.39,2601.71 2621.5,2607C 2574.35,2617.59 2526.68,2624.93 2478.5,2629C 2438.56,2632.31 2398.56,2634.64 2358.5,2636C 2343.01,2638.16 2328.01,2642.16 2313.5,2648C 2282.17,2660.67 2250.83,2673.33 2219.5,2686C 2204.91,2691.47 2190.24,2696.64 2175.5,2701.5C 2122.95,2681.31 2077.12,2650.98 2038,2610.5C 2028.28,2598.45 2018.95,2586.12 2010,2573.5C 1999.67,2563.09 1988.17,2554.26 1975.5,2547C 1965.92,2542.04 1956.26,2537.38 1946.5,2533C 1934.06,2524.87 1926.89,2513.37 1925,2498.5C 1924.86,2477.81 1924.19,2457.14 1923,2436.5C 1918.55,2413.39 1907.38,2394.22 1889.5,2379C 1883.5,2374.67 1877.5,2370.33 1871.5,2366C 1846.66,2352.74 1821.66,2339.74 1796.5,2327C 1786.22,2322.05 1777.06,2315.55 1769,2307.5C 1767.94,2304.79 1767.44,2301.96 1767.5,2299C 1771.34,2279.5 1769.17,2260.67 1761,2242.5C 1757.49,2235.47 1753.99,2228.47 1750.5,2221.5C 1753.12,2200.91 1753.95,2180.24 1753,2159.5C 1752.11,2148.16 1748.44,2137.83 1742,2128.5C 1719.36,2106.86 1697.03,2084.86 1675,2062.5C 1666.27,2052.71 1658.27,2042.38 1651,2031.5C 1644.4,2020.02 1640.4,2007.69 1639,1994.5C 1635.76,1971.6 1634.76,1948.6 1636,1925.5C 1636.47,1918.95 1638.47,1912.95 1642,1907.5C 1645.55,1904.92 1649.05,1905.08 1652.5,1908C 1657.03,1912.2 1661.2,1916.7 1665,1921.5C 1678.51,1940.52 1692.51,1959.19 1707,1977.5C 1715.58,1987.08 1725.08,1995.58 1735.5,2003C 1757.27,2010.19 1770.11,2002.35 1774,1979.5C 1775.12,1961.97 1771.78,1945.3 1764,1929.5C 1753.07,1907.58 1739.4,1887.58 1723,1869.5C 1709.61,1855.44 1695.61,1842.1 1681,1829.5C 1653.61,1801.53 1640.45,1767.86 1641.5,1728.5C 1641.41,1718.11 1642.08,1707.77 1643.5,1697.5C 1646.58,1677.88 1649.41,1658.21 1652,1638.5C 1652.67,1632.5 1652.67,1626.5 1652,1620.5C 1648.34,1602.85 1642.67,1585.85 1635,1569.5C 1621.33,1540.17 1607.67,1510.83 1594,1481.5C 1590.39,1473.83 1587.89,1465.83 1586.5,1457.5C 1588.65,1457.37 1590.65,1457.87 1592.5,1459C 1614.65,1476.99 1635.32,1496.49 1654.5,1517.5 Z"/></g>
<g><path style="opacity:0.991" fill="#c03921" d="M 2103.5,1474.5 C 2122.7,1487.2 2137.53,1503.87 2148,1524.5C 2162.39,1563.54 2150.56,1591.37 2112.5,1608C 2092.31,1615.65 2072.31,1615.31 2052.5,1607C 2047.08,1603.58 2042.24,1599.41 2038,1594.5C 2029.43,1575.69 2020.59,1557.02 2011.5,1538.5C 2017.22,1543.04 2022.89,1547.87 2028.5,1553C 2045.56,1565.01 2064.23,1568.68 2084.5,1564C 2101.92,1557.34 2112.42,1544.84 2116,1526.5C 2117.48,1507.78 2113.32,1490.45 2103.5,1474.5 Z"/></g>
<g><path style="opacity:0.999" fill="#bf3921" d="M 1654.5,1517.5 C 1671.05,1522.9 1686.05,1531.07 1699.5,1542C 1717.58,1558.73 1733.41,1577.23 1747,1597.5C 1756.57,1609.7 1769.07,1616.87 1784.5,1619C 1795.15,1621.51 1805.15,1619.84 1814.5,1614C 1820.5,1609.33 1826.5,1604.67 1832.5,1600C 1840.88,1599.01 1848.88,1600.34 1856.5,1604C 1872.5,1612.33 1888.5,1620.67 1904.5,1629C 1912.74,1633.03 1921.41,1635.53 1930.5,1636.5C 1940.44,1637.38 1946.61,1633.04 1949,1623.5C 1949.67,1616.83 1949.67,1610.17 1949,1603.5C 1944.29,1578.55 1937.46,1554.22 1928.5,1530.5C 1936.22,1539.58 1942.72,1549.58 1948,1560.5C 1952.97,1570.41 1956.97,1580.74 1960,1591.5C 1964.8,1597.3 1969.97,1602.8 1975.5,1608C 2006.86,1633.35 2036.36,1660.85 2064,1690.5C 2071,1699.83 2078,1709.17 2085,1718.5C 2117.81,1757.47 2150.14,1796.8 2182,1836.5C 2198.18,1858.35 2213.18,1881.02 2227,1904.5C 2229.99,1909.98 2232.49,1915.65 2234.5,1921.5C 2234.08,1922.12 2233.42,1922.46 2232.5,1922.5C 2211.59,1916.03 2190.92,1908.86 2170.5,1901C 2154.98,1897.29 2139.64,1892.95 2124.5,1888C 2111.69,1882.43 2100.02,1875.1 2089.5,1866C 2079.8,1861.03 2069.47,1858.53 2058.5,1858.5C 2040.98,1859.24 2023.65,1861.41 2006.5,1865C 1995.83,1866.37 1985.16,1866.54 1974.5,1865.5C 1956.03,1862.43 1939.37,1855.26 1924.5,1844C 1893.56,1816.59 1876.73,1782.09 1874,1740.5C 1872.89,1736.27 1871.22,1732.27 1869,1728.5C 1865.17,1724.67 1861.33,1720.83 1857.5,1717C 1844.53,1708.35 1830.53,1702.18 1815.5,1698.5C 1815.34,1700.86 1815.5,1703.19 1816,1705.5C 1820.02,1713.4 1821.35,1721.74 1820,1730.5C 1810.85,1745.22 1798.02,1749.38 1781.5,1743C 1770.54,1737.05 1761.04,1729.22 1753,1719.5C 1724.63,1681.4 1706.63,1638.73 1699,1591.5C 1689.27,1563.64 1674.44,1538.97 1654.5,1517.5 Z"/></g>
<g><path style="opacity:0.999" fill="#bf3921" d="M 1105.5,1553.5 C 1101.06,1584.45 1100.56,1615.45 1104,1646.5C 1106.06,1669.3 1103.73,1691.63 1097,1713.5C 1095,1721.17 1091.67,1728.17 1087,1734.5C 1070.88,1750.95 1055.88,1768.28 1042,1786.5C 1038.99,1791.51 1036.82,1796.85 1035.5,1802.5C 1035.56,1805.11 1036.56,1807.28 1038.5,1809C 1042.71,1810.34 1047.04,1811.17 1051.5,1811.5C 1061.68,1810.64 1071.68,1808.8 1081.5,1806C 1111.81,1795 1138.47,1778.33 1161.5,1756C 1188.7,1728.63 1216.03,1701.47 1243.5,1674.5C 1237.06,1711.53 1227.89,1747.86 1216,1783.5C 1209.28,1798.89 1198.45,1810.39 1183.5,1818C 1163.99,1827.92 1144.32,1837.59 1124.5,1847C 1115.2,1851.63 1107.03,1857.8 1100,1865.5C 1090.95,1880.97 1085.29,1897.64 1083,1915.5C 1079.11,1946.14 1075.45,1976.81 1072,2007.5C 1069.41,2027.47 1064.41,2046.8 1057,2065.5C 1047.14,2084.57 1035.31,2102.24 1021.5,2118.5C 1000.69,2141.39 977.36,2161.22 951.5,2178C 940.178,2185.33 927.845,2189.83 914.5,2191.5C 901.82,2189.81 895.487,2182.48 895.5,2169.5C 896.354,2147.75 900.854,2126.75 909,2106.5C 920.665,2073.1 936.665,2042.1 957,2013.5C 963.364,2006.8 970.031,2000.47 977,1994.5C 981.748,1987.93 984.748,1980.6 986,1972.5C 986.667,1963.5 986.667,1954.5 986,1945.5C 985.73,1942.64 984.896,1939.97 983.5,1937.5C 975.976,1949.86 965.976,1959.69 953.5,1967C 930.39,1973.86 914.224,1966.03 905,1943.5C 904.169,1935.11 904.503,1926.78 906,1918.5C 909.36,1908.09 913.694,1898.09 919,1888.5C 934.954,1862.93 952.62,1838.59 972,1815.5C 991.629,1792.87 1011.63,1770.54 1032,1748.5C 1039.54,1739.32 1041.88,1728.99 1039,1717.5C 1034.97,1708.56 1028.14,1703.06 1018.5,1701C 1010.89,1699.69 1003.23,1699.19 995.5,1699.5C 1007.44,1686.57 1020.1,1674.23 1033.5,1662.5C 1049.74,1644.1 1064.24,1624.43 1077,1603.5C 1086.78,1586.93 1096.28,1570.27 1105.5,1553.5 Z"/></g>
<g><path style="opacity:1" fill="#bf3921" d="M 1311.5,1569.5 C 1302.86,1599.01 1300.7,1629.01 1305,1659.5C 1307.75,1672.53 1314.58,1682.7 1325.5,1690C 1347.35,1698.33 1366.18,1693.83 1382,1676.5C 1400.09,1651.08 1410.59,1622.74 1413.5,1591.5C 1416.14,1603.57 1417.97,1615.91 1419,1628.5C 1420.93,1658.07 1419.26,1687.4 1414,1716.5C 1401.58,1763.31 1371.42,1782.14 1323.5,1773C 1303.92,1768.42 1290.09,1756.92 1282,1738.5C 1275.85,1720.32 1273.85,1701.65 1276,1682.5C 1281.93,1642.88 1293.77,1605.21 1311.5,1569.5 Z"/></g>
<g><path style="opacity:1" fill="#bf3921" d="M 1463.5,1610.5 C 1467.84,1639.18 1475,1667.18 1485,1694.5C 1494,1721.17 1506.67,1745.84 1523,1768.5C 1530.68,1778.85 1540.18,1787.02 1551.5,1793C 1566.68,1800.5 1581.68,1800.16 1596.5,1792C 1606.16,1784.01 1613.99,1774.51 1620,1763.5C 1630.44,1742.32 1638.27,1720.32 1643.5,1697.5C 1642.08,1707.77 1641.41,1718.11 1641.5,1728.5C 1640.45,1767.86 1653.61,1801.53 1681,1829.5C 1695.61,1842.1 1709.61,1855.44 1723,1869.5C 1739.4,1887.58 1753.07,1907.58 1764,1929.5C 1771.78,1945.3 1775.12,1961.97 1774,1979.5C 1770.11,2002.35 1757.27,2010.19 1735.5,2003C 1725.08,1995.58 1715.58,1987.08 1707,1977.5C 1692.51,1959.19 1678.51,1940.52 1665,1921.5C 1661.2,1916.7 1657.03,1912.2 1652.5,1908C 1649.05,1905.08 1645.55,1904.92 1642,1907.5C 1638.47,1912.95 1636.47,1918.95 1636,1925.5C 1634.76,1948.6 1635.76,1971.6 1639,1994.5C 1640.4,2007.69 1644.4,2020.02 1651,2031.5C 1658.27,2042.38 1666.27,2052.71 1675,2062.5C 1697.03,2084.86 1719.36,2106.86 1742,2128.5C 1748.44,2137.83 1752.11,2148.16 1753,2159.5C 1753.95,2180.24 1753.12,2200.91 1750.5,2221.5C 1749.43,2226.32 1748.6,2231.32 1748,2236.5C 1745.46,2241.07 1741.63,2242.57 1736.5,2241C 1720.6,2234.72 1705.93,2226.39 1692.5,2216C 1667.5,2197.67 1643.67,2177.84 1621,2156.5C 1609.17,2137.68 1600.83,2117.35 1596,2095.5C 1587.21,2055.15 1580.21,2014.49 1575,1973.5C 1568.97,1941.75 1557.64,1912.08 1541,1884.5C 1526.47,1861.44 1510.47,1839.44 1493,1818.5C 1486.66,1809.82 1481.32,1800.48 1477,1790.5C 1471.9,1765.11 1465.74,1740.11 1458.5,1715.5C 1455.17,1680.13 1456.84,1645.13 1463.5,1610.5 Z"/></g>
<g><path style="opacity:0.998" fill="#502e1a" d="M 995.5,1699.5 C 1003.23,1699.19 1010.89,1699.69 1018.5,1701C 1028.14,1703.06 1034.97,1708.56 1039,1717.5C 1041.88,1728.99 1039.54,1739.32 1032,1748.5C 1011.63,1770.54 991.629,1792.87 972,1815.5C 952.62,1838.59 934.954,1862.93 919,1888.5C 913.694,1898.09 909.36,1908.09 906,1918.5C 904.503,1926.78 904.169,1935.11 905,1943.5C 914.224,1966.03 930.39,1973.86 953.5,1967C 965.976,1959.69 975.976,1949.86 983.5,1937.5C 984.896,1939.97 985.73,1942.64 986,1945.5C 986.667,1954.5 986.667,1963.5 986,1972.5C 984.748,1980.6 981.748,1987.93 977,1994.5C 970.031,2000.47 963.364,2006.8 957,2013.5C 936.665,2042.1 920.665,2073.1 909,2106.5C 900.854,2126.75 896.354,2147.75 895.5,2169.5C 874.723,2181.73 854.056,2194.23 833.5,2207C 823.295,2212.94 812.962,2218.6 802.5,2224C 795.991,2228.85 792.491,2235.35 792,2243.5C 790.305,2255.15 790.305,2266.82 792,2278.5C 796.214,2306.62 800.047,2334.78 803.5,2363C 803.563,2369.39 801.73,2375.22 798,2380.5C 782.334,2398.17 764.834,2413.67 745.5,2427C 703.012,2455.75 660.012,2483.75 616.5,2511C 608.718,2516.74 603.551,2524.24 601,2533.5C 599.098,2548.11 597.764,2562.77 597,2577.5C 595.776,2584.73 593.776,2591.73 591,2598.5C 586.091,2606.08 580.425,2613.08 574,2619.5C 559.334,2632.33 545.167,2645.67 531.5,2659.5C 525.226,2656.24 518.559,2654.08 511.5,2653C 469.448,2647.39 427.781,2639.72 386.5,2630C 365.624,2624.56 346.291,2615.89 328.5,2604C 323.633,2599.47 319.133,2594.63 315,2589.5C 310.284,2578.4 310.617,2567.4 316,2556.5C 321.811,2544.37 328.811,2533.04 337,2522.5C 359.098,2495.73 383.265,2470.9 409.5,2448C 460.896,2403.61 511.396,2358.11 561,2311.5C 571.089,2300.75 580.422,2289.42 589,2277.5C 595.279,2268.27 599.946,2258.27 603,2247.5C 606.18,2227.48 613.514,2209.14 625,2192.5C 631.913,2183.01 638.58,2173.34 645,2163.5C 669.766,2132.74 693.766,2101.4 717,2069.5C 731.169,2047.17 744.836,2024.5 758,2001.5C 782.864,1963.47 810.864,1927.81 842,1894.5C 852.906,1881.68 863.572,1868.68 874,1855.5C 902.333,1816.83 930.667,1778.17 959,1739.5C 968.292,1727.87 977.959,1716.54 988,1705.5C 990.106,1702.88 992.606,1700.88 995.5,1699.5 Z"/></g>
<g><path style="opacity:0.999" fill="#60371c" d="M 1458.5,1715.5 C 1465.74,1740.11 1471.9,1765.11 1477,1790.5C 1481.32,1800.48 1486.66,1809.82 1493,1818.5C 1510.47,1839.44 1526.47,1861.44 1541,1884.5C 1557.64,1912.08 1568.97,1941.75 1575,1973.5C 1580.21,2014.49 1587.21,2055.15 1596,2095.5C 1600.83,2117.35 1609.17,2137.68 1621,2156.5C 1643.67,2177.84 1667.5,2197.67 1692.5,2216C 1705.93,2226.39 1720.6,2234.72 1736.5,2241C 1741.63,2242.57 1745.46,2241.07 1748,2236.5C 1748.6,2231.32 1749.43,2226.32 1750.5,2221.5C 1753.99,2228.47 1757.49,2235.47 1761,2242.5C 1769.17,2260.67 1771.34,2279.5 1767.5,2299C 1767.44,2301.96 1767.94,2304.79 1769,2307.5C 1777.06,2315.55 1786.22,2322.05 1796.5,2327C 1821.66,2339.74 1846.66,2352.74 1871.5,2366C 1877.5,2370.33 1883.5,2374.67 1889.5,2379C 1907.38,2394.22 1918.55,2413.39 1923,2436.5C 1924.19,2457.14 1924.86,2477.81 1925,2498.5C 1926.89,2513.37 1934.06,2524.87 1946.5,2533C 1956.26,2537.38 1965.92,2542.04 1975.5,2547C 1988.17,2554.26 1999.67,2563.09 2010,2573.5C 2018.95,2586.12 2028.28,2598.45 2038,2610.5C 2077.12,2650.98 2122.95,2681.31 2175.5,2701.5C 2155.61,2708.97 2134.95,2713.3 2113.5,2714.5C 2102.24,2715.02 2092.24,2711.86 2083.5,2705C 2078.75,2703.31 2073.92,2702.14 2069,2701.5C 2060.42,2702.29 2051.92,2703.79 2043.5,2706C 2026.41,2710.88 2009.75,2716.88 1993.5,2724C 1942.17,2747.67 1890.83,2771.33 1839.5,2795C 1805.04,2810.56 1769.7,2823.9 1733.5,2835C 1704.22,2844.38 1674.22,2848.88 1643.5,2848.5C 1679.88,2787.09 1713.71,2724.09 1745,2659.5C 1746.73,2654.21 1745.23,2650.38 1740.5,2648C 1731.86,2646.52 1723.19,2645.19 1714.5,2644C 1704.96,2642.39 1696.62,2638.39 1689.5,2632C 1681.93,2620.11 1671.27,2612.44 1657.5,2609C 1642.77,2605.55 1628.11,2601.88 1613.5,2598C 1606.07,2595.56 1600.9,2590.73 1598,2583.5C 1595.9,2571.67 1597.56,2560.34 1603,2549.5C 1615.15,2526.54 1627.81,2503.88 1641,2481.5C 1649.91,2465.1 1656.25,2447.76 1660,2429.5C 1661.75,2417.3 1660.08,2405.64 1655,2394.5C 1646.96,2382.12 1637.12,2371.29 1625.5,2362C 1611.5,2352 1597.5,2342 1583.5,2332C 1573.45,2323.63 1565.28,2313.79 1559,2302.5C 1552.61,2284.96 1553.28,2267.63 1561,2250.5C 1565.89,2240.06 1570.22,2229.39 1574,2218.5C 1574.41,2207.22 1572.74,2196.22 1569,2185.5C 1557.94,2155 1544.94,2125.34 1530,2096.5C 1504.83,2050.15 1479.16,2004.15 1453,1958.5C 1451.64,1953.22 1451.31,1947.89 1452,1942.5C 1456.33,1931.18 1460.66,1919.84 1465,1908.5C 1468.85,1891.65 1469.51,1874.65 1467,1857.5C 1456.39,1810.67 1453.56,1763.34 1458.5,1715.5 Z"/></g>
<g><path style="opacity:0.997" fill="#5f371c" d="M 2234.5,1921.5 C 2236.8,1925.87 2238.63,1930.54 2240,1935.5C 2241.82,1945.1 2243.15,1954.76 2244,1964.5C 2249.32,1979.46 2255.98,1993.8 2264,2007.5C 2284.1,2038.71 2305.44,2069.04 2328,2098.5C 2342.91,2116.65 2357.57,2134.98 2372,2153.5C 2405.76,2193.35 2439.76,2233.02 2474,2272.5C 2477.23,2279.63 2479.9,2286.96 2482,2294.5C 2485.44,2314.7 2489.77,2334.7 2495,2354.5C 2498.64,2361.64 2503.81,2367.31 2510.5,2371.5C 2498.25,2368.92 2486.25,2365.42 2474.5,2361C 2447.82,2351.33 2422.48,2338.99 2398.5,2324C 2392.87,2319.37 2388.37,2313.87 2385,2307.5C 2384.29,2301.14 2384.46,2294.81 2385.5,2288.5C 2384.79,2280.09 2381.63,2272.76 2376,2266.5C 2364.47,2256.31 2351.97,2247.48 2338.5,2240C 2316.68,2229.26 2295.01,2218.26 2273.5,2207C 2262.5,2200.83 2251.83,2194.17 2241.5,2187C 2236.52,2183.03 2232.69,2178.2 2230,2172.5C 2225.41,2143.34 2214.75,2116.67 2198,2092.5C 2186.8,2077.29 2171.97,2067.79 2153.5,2064C 2140.29,2063.94 2127.13,2064.77 2114,2066.5C 2101.37,2066.54 2094.37,2060.21 2093,2047.5C 2092.67,2038.17 2092.33,2028.83 2092,2019.5C 2090.44,1999.48 2084.1,1981.14 2073,1964.5C 2053.4,1939.92 2028.57,1922.76 1998.5,1913C 1997,1911.5 1995.5,1910 1994,1908.5C 1985.88,1894.92 1979.38,1880.59 1974.5,1865.5C 1985.16,1866.54 1995.83,1866.37 2006.5,1865C 2023.65,1861.41 2040.98,1859.24 2058.5,1858.5C 2069.47,1858.53 2079.8,1861.03 2089.5,1866C 2100.02,1875.1 2111.69,1882.43 2124.5,1888C 2139.64,1892.95 2154.98,1897.29 2170.5,1901C 2190.92,1908.86 2211.59,1916.03 2232.5,1922.5C 2233.42,1922.46 2234.08,1922.12 2234.5,1921.5 Z"/></g>
<g><path style="opacity:0.999" fill="#5f371c" d="M 1021.5,2118.5 C 1019.85,2134.57 1020.35,2150.57 1023,2166.5C 1024.52,2175.53 1028.18,2183.53 1034,2190.5C 1035.32,2193.41 1035.65,2196.41 1035,2199.5C 1030.84,2212.16 1024.84,2223.83 1017,2234.5C 997,2260.5 977,2286.5 957,2312.5C 952.273,2318.9 947.94,2325.56 944,2332.5C 938.198,2344.62 936.864,2357.29 940,2370.5C 944.905,2396.03 948.905,2421.69 952,2447.5C 952.869,2461.87 952.536,2476.2 951,2490.5C 949.188,2499.27 946.188,2507.6 942,2515.5C 931.478,2529.2 920.478,2542.54 909,2555.5C 887.357,2583.47 874.524,2615.14 870.5,2650.5C 865.723,2647.94 861.056,2645.11 856.5,2642C 845.139,2635.24 833.139,2633.9 820.5,2638C 809.32,2640.73 798.32,2644.06 787.5,2648C 754.23,2662.31 720.563,2675.65 686.5,2688C 665.774,2695.29 644.44,2699.45 622.5,2700.5C 608.058,2700.64 594.391,2697.47 581.5,2691C 563.326,2682.61 546.659,2672.11 531.5,2659.5C 545.167,2645.67 559.334,2632.33 574,2619.5C 580.425,2613.08 586.091,2606.08 591,2598.5C 593.776,2591.73 595.776,2584.73 597,2577.5C 597.764,2562.77 599.098,2548.11 601,2533.5C 603.551,2524.24 608.718,2516.74 616.5,2511C 660.012,2483.75 703.012,2455.75 745.5,2427C 764.834,2413.67 782.334,2398.17 798,2380.5C 801.73,2375.22 803.563,2369.39 803.5,2363C 800.047,2334.78 796.214,2306.62 792,2278.5C 790.305,2266.82 790.305,2255.15 792,2243.5C 792.491,2235.35 795.991,2228.85 802.5,2224C 812.962,2218.6 823.295,2212.94 833.5,2207C 854.056,2194.23 874.723,2181.73 895.5,2169.5C 895.487,2182.48 901.82,2189.81 914.5,2191.5C 927.845,2189.83 940.178,2185.33 951.5,2178C 977.36,2161.22 1000.69,2141.39 1021.5,2118.5 Z"/></g>
</svg>
