<?xml version="1.0" encoding="UTF-8"?>
<!DOCTYPE svg PUBLIC "-//W3C//DTD SVG 1.1//EN" "http://www.w3.org/Graphics/SVG/1.1/DTD/svg11.dtd">
<svg xmlns="http://www.w3.org/2000/svg" version="1.1" width="3000px" height="3000px" style="shape-rendering:geometricPrecision; text-rendering:geometricPrecision; image-rendering:optimizeQuality; fill-rule:evenodd; clip-rule:evenodd" xmlns:xlink="http://www.w3.org/1999/xlink">
<g><path style="opacity:0.992" fill="#3782a1" d="M 1601.5,1260.5 C 1566.4,1261.09 1533.73,1270.42 1503.5,1288.5C 1445.22,1020.29 1390.06,751.286 1338,481.5C 1323.27,405.797 1310.27,329.797 1299,253.5C 1295.8,233.946 1294.46,214.28 1295,194.5C 1296.77,190.675 1298.77,190.675 1301,194.5C 1309.89,211.824 1317.22,229.824 1323,248.5C 1344.34,314.854 1364.67,381.521 1384,448.5C 1459.66,718.319 1532.16,988.986 1601.5,1260.5 Z"/></g>
<g><path style="opacity:1" fill="#020405" d="M 1601.5,1260.5 C 1602.79,1264.67 1603.96,1269 1605,1273.5C 1605.67,1274.25 1606.5,1274.59 1607.5,1274.5C 1609.77,1275.32 1612.11,1275.99 1614.5,1276.5C 1615.91,1276.97 1616.57,1277.97 1616.5,1279.5C 1574.76,1281.19 1536.42,1293.53 1501.5,1316.5C 1500.42,1314.18 1500.58,1311.84 1502,1309.5C 1503.9,1308.32 1505.4,1306.82 1506.5,1305C 1505.05,1299.57 1504.05,1294.07 1503.5,1288.5C 1533.73,1270.42 1566.4,1261.09 1601.5,1260.5 Z"/></g>
<g><path style="opacity:0.251" fill="#285f75" d="M 1607.5,1274.5 C 1607.74,1273.9 1608.24,1273.57 1609,1273.5C 1611.3,1273.86 1613.13,1274.86 1614.5,1276.5C 1612.11,1275.99 1609.77,1275.32 1607.5,1274.5 Z"/></g>
<g><path style="opacity:0.999" fill="#3882a1" d="M 1616.5,1279.5 C 1629.94,1330.94 1642.94,1382.61 1655.5,1434.5C 1683.32,1429.69 1711.32,1426.36 1739.5,1424.5C 1744.96,1424.58 1750.29,1425.41 1755.5,1427C 1756.89,1428.17 1757.73,1429.67 1758,1431.5C 1816.3,1685.04 1870.97,1939.37 1922,2194.5C 1937.95,2274.93 1952.62,2355.6 1966,2436.5C 1969.99,2461.41 1973.32,2486.41 1976,2511.5C 1977.8,2525.86 1977.8,2540.2 1976,2554.5C 1970.53,2559.15 1964.37,2562.65 1957.5,2565C 1925.59,2576.06 1893.26,2585.73 1860.5,2594C 1713.94,2631.28 1565.94,2661.45 1416.5,2684.5C 1338.99,2303.28 1261.99,1921.95 1185.5,1540.5C 1183.83,1540.5 1182.17,1540.5 1180.5,1540.5C 1201.56,1535.12 1222.73,1529.78 1244,1524.5C 1245.4,1491.51 1246.57,1458.51 1247.5,1425.5C 1257.5,1423.5 1267.5,1421.5 1277.5,1419.5C 1279.1,1451.53 1281.1,1483.53 1283.5,1515.5C 1290.77,1513.58 1298.1,1511.91 1305.5,1510.5C 1303.92,1480.49 1302.09,1450.49 1300,1420.5C 1299.8,1418.62 1299.3,1416.95 1298.5,1415.5C 1311.69,1412.26 1325.02,1409.26 1338.5,1406.5C 1345.27,1436.82 1351.94,1467.15 1358.5,1497.5C 1365.77,1495.85 1373.1,1494.52 1380.5,1493.5C 1374.24,1463.07 1367.58,1432.74 1360.5,1402.5C 1366.17,1400.56 1371.84,1399.56 1377.5,1399.5C 1392.26,1427.34 1406.76,1455.34 1421,1483.5C 1457.19,1475.24 1493.36,1466.91 1529.5,1458.5C 1519.09,1411.38 1509.76,1364.05 1501.5,1316.5C 1536.42,1293.53 1574.76,1281.19 1616.5,1279.5 Z"/></g>
<g><path style="opacity:1" fill="#020304" d="M 1360.5,1402.5 C 1367.58,1432.74 1374.24,1463.07 1380.5,1493.5C 1373.1,1494.52 1365.77,1495.85 1358.5,1497.5C 1351.94,1467.15 1345.27,1436.82 1338.5,1406.5C 1345.81,1405.04 1353.14,1403.7 1360.5,1402.5 Z"/></g>
<g><path style="opacity:1" fill="#020405" d="M 1298.5,1415.5 C 1299.3,1416.95 1299.8,1418.62 1300,1420.5C 1302.09,1450.49 1303.92,1480.49 1305.5,1510.5C 1298.1,1511.91 1290.77,1513.58 1283.5,1515.5C 1281.1,1483.53 1279.1,1451.53 1277.5,1419.5C 1284.37,1417.66 1291.37,1416.33 1298.5,1415.5 Z"/></g>
<g><path style="opacity:1" fill="#020303" d="M 1715.5,1527.5 C 1727.75,1526.91 1731.58,1532.24 1727,1543.5C 1725.79,1545.05 1724.29,1546.22 1722.5,1547C 1577.53,1561.33 1435.53,1589.99 1296.5,1633C 1286.03,1633.85 1281.86,1629.02 1284,1618.5C 1286.74,1615.21 1290.24,1613.04 1294.5,1612C 1432.26,1570.68 1572.6,1542.51 1715.5,1527.5 Z"/></g>
<g><path style="opacity:1" fill="#010202" d="M 1180.5,1540.5 C 1182.17,1540.5 1183.83,1540.5 1185.5,1540.5C 1261.99,1921.95 1338.99,2303.28 1416.5,2684.5C 1408.97,2685.92 1401.3,2687.26 1393.5,2688.5C 1317.55,2308.75 1241.22,1929.08 1164.5,1549.5C 1167.33,1546.83 1170.33,1544.33 1173.5,1542C 1175.74,1541.02 1178.07,1540.52 1180.5,1540.5 Z"/></g>
<g><path style="opacity:0.998" fill="#3782a1" d="M 1164.5,1549.5 C 1241.22,1929.08 1317.55,2308.75 1393.5,2688.5C 1362.46,2692.59 1331.29,2695.25 1300,2696.5C 1292.02,2696.21 1284.19,2695.04 1276.5,2693C 1272.87,2690.57 1270.03,2687.41 1268,2683.5C 1262.21,2670.14 1257.21,2656.47 1253,2642.5C 1232.15,2566.44 1213.82,2489.78 1198,2412.5C 1187.08,2359.89 1176.41,2307.22 1166,2254.5C 1134.48,2251.31 1115.14,2234.31 1108,2203.5C 1100.98,2169.75 1094.48,2135.92 1088.5,2102C 1089.56,2076.47 1101.56,2058.3 1124.5,2047.5C 1125.64,2045.58 1125.81,2043.58 1125,2041.5C 1120.69,2018.78 1116.19,1996.12 1111.5,1973.5C 1079.7,1971.02 1059.87,1954.36 1052,1923.5C 1046.13,1893.81 1040.13,1864.14 1034,1834.5C 1028.85,1802.13 1041.01,1779.13 1070.5,1765.5C 1070.83,1764.5 1071.17,1763.5 1071.5,1762.5C 1065.04,1730.13 1061.87,1697.46 1062,1664.5C 1062.75,1655.66 1065.75,1647.66 1071,1640.5C 1087.39,1619.77 1105.56,1600.6 1125.5,1583C 1138.53,1571.83 1151.53,1560.66 1164.5,1549.5 Z"/></g>
<g><path style="opacity:1" fill="#020303" d="M 1733.5,1610.5 C 1738.18,1610.33 1742.85,1610.5 1747.5,1611C 1751.76,1615.17 1752.6,1620 1750,1625.5C 1748.46,1627.38 1746.62,1628.88 1744.5,1630C 1598.58,1644.65 1455.58,1673.48 1315.5,1716.5C 1306.1,1713.37 1303.6,1707.37 1308,1698.5C 1329.86,1690.82 1352.03,1683.99 1374.5,1678C 1492.42,1645.8 1612.09,1623.3 1733.5,1610.5 Z"/></g>
<g><path style="opacity:1" fill="#020303" d="M 1760.5,1692.5 C 1771.18,1691.35 1775.35,1696.02 1773,1706.5C 1771.88,1708.62 1770.38,1710.46 1768.5,1712C 1623.05,1727.09 1480.38,1755.76 1340.5,1798C 1331.01,1798.51 1327.18,1794.01 1329,1784.5C 1330.17,1782 1332,1780.17 1334.5,1779C 1473.84,1736.79 1615.84,1707.95 1760.5,1692.5 Z"/></g>
<g><path style="opacity:1" fill="#88c1e4" d="M 1761.5,1814.5 C 1764.19,1814.34 1766.85,1814.5 1769.5,1815C 1773.19,1818.21 1776.02,1822.04 1778,1826.5C 1787,1846.82 1794,1867.82 1799,1889.5C 1806.26,1918.09 1811.26,1947.09 1814,1976.5C 1815.07,1988.61 1814.41,2000.61 1812,2012.5C 1811.22,2014.29 1810.05,2015.79 1808.5,2017C 1800.61,2019.97 1792.61,2022.64 1784.5,2025C 1660.55,2054.26 1535.55,2078.26 1409.5,2097C 1403.5,2097.67 1397.5,2097.67 1391.5,2097C 1388.1,2093.03 1385.6,2088.53 1384,2083.5C 1367.88,2035.7 1357.22,1986.7 1352,1936.5C 1351.33,1925.17 1351.33,1913.83 1352,1902.5C 1352.27,1900.67 1353.11,1899.17 1354.5,1898C 1444.4,1878.69 1534.4,1859.69 1624.5,1841C 1670.14,1831.3 1715.81,1822.47 1761.5,1814.5 Z"/></g>
<g><path style="opacity:1" fill="#88c1e4" d="M 1806.5,2095.5 C 1814.99,2095 1821.49,2098.33 1826,2105.5C 1832.13,2131.66 1837.3,2157.99 1841.5,2184.5C 1801.81,2192.81 1762.14,2201.31 1722.5,2210C 1720.5,2210.67 1718.5,2210.67 1716.5,2210C 1709.66,2180.3 1703.32,2150.47 1697.5,2120.5C 1734.11,2112.9 1770.44,2104.57 1806.5,2095.5 Z"/></g>
<g><path style="opacity:1" fill="#88c1e4" d="M 1674.5,2125.5 C 1676.79,2125.24 1678.96,2125.58 1681,2126.5C 1687.36,2155.11 1693.52,2183.78 1699.5,2212.5C 1699.17,2213.17 1698.83,2213.83 1698.5,2214.5C 1654.3,2224.79 1609.96,2234.46 1565.5,2243.5C 1559.55,2213.74 1553.21,2184.07 1546.5,2154.5C 1589.4,2145.32 1632.07,2135.66 1674.5,2125.5 Z"/></g>
<g><path style="opacity:1" fill="#88c1e4" d="M 1523.5,2159.5 C 1525.83,2159.5 1528.17,2159.5 1530.5,2159.5C 1536.74,2188.71 1543.07,2217.87 1549.5,2247C 1510.2,2255.94 1470.86,2264.77 1431.5,2273.5C 1426.48,2249.9 1421.65,2226.24 1417,2202.5C 1415.18,2193.31 1418.34,2186.48 1426.5,2182C 1458.99,2174.63 1491.32,2167.13 1523.5,2159.5 Z"/></g>
<g><path style="opacity:1" fill="#88c1e4" d="M 1841.5,2200.5 C 1843.45,2200.23 1844.95,2200.89 1846,2202.5C 1853.7,2241.82 1861.2,2281.15 1868.5,2320.5C 1827.57,2329.59 1786.57,2338.25 1745.5,2346.5C 1737.65,2307.26 1729.32,2268.09 1720.5,2229C 1720.91,2228.05 1721.57,2227.39 1722.5,2227C 1762.44,2218.8 1802.1,2209.96 1841.5,2200.5 Z"/></g>
<g><path style="opacity:1" fill="#88c1e4" d="M 1700.5,2231.5 C 1701.5,2231.5 1702.5,2231.5 1703.5,2231.5C 1712.23,2271.22 1720.73,2310.88 1729,2350.5C 1685.11,2360.48 1641.11,2370.15 1597,2379.5C 1596.23,2379.36 1595.56,2379.02 1595,2378.5C 1586.23,2339.19 1577.9,2299.86 1570,2260.5C 1613.54,2250.63 1657.04,2240.96 1700.5,2231.5 Z"/></g>
<g><path style="opacity:1" fill="#88c1e4" d="M 1547.5,2264.5 C 1549.5,2264.5 1551.5,2264.5 1553.5,2264.5C 1561.73,2304.19 1570.06,2343.86 1578.5,2383.5C 1538.13,2392.01 1497.79,2400.68 1457.5,2409.5C 1450.09,2369.45 1442.42,2329.45 1434.5,2289.5C 1472.36,2281.53 1510.03,2273.2 1547.5,2264.5 Z"/></g>
<g><path style="opacity:1" fill="#88c1e4" d="M 1867.5,2337.5 C 1869.47,2337.26 1871.3,2337.59 1873,2338.5C 1879,2368.5 1885,2398.5 1891,2428.5C 1892.76,2439.3 1888.59,2446.46 1878.5,2450C 1843.65,2458.23 1808.65,2465.73 1773.5,2472.5C 1766,2436.81 1758.33,2401.15 1750.5,2365.5C 1750.83,2364.83 1751.17,2364.17 1751.5,2363.5C 1790.28,2354.82 1828.94,2346.15 1867.5,2337.5 Z"/></g>
<g><path style="opacity:1" fill="#88c1e4" d="M 1730.5,2367.5 C 1731.82,2367.33 1732.99,2367.66 1734,2368.5C 1741.21,2402.2 1748.54,2435.87 1756,2469.5C 1756.5,2472.15 1756.66,2474.81 1756.5,2477.5C 1712.18,2486.46 1668.01,2496.13 1624,2506.5C 1615.13,2469.96 1607.13,2433.29 1600,2396.5C 1643.55,2386.63 1687.05,2376.96 1730.5,2367.5 Z"/></g>
<g><path style="opacity:1" fill="#88c1e4" d="M 1578.5,2400.5 C 1580.17,2400.5 1581.83,2400.5 1583.5,2400.5C 1590.95,2437.22 1598.62,2473.89 1606.5,2510.5C 1569.95,2518.59 1533.29,2526.26 1496.5,2533.5C 1487.65,2533.49 1482.15,2529.16 1480,2520.5C 1473.98,2489.08 1467.98,2457.75 1462,2426.5C 1500.95,2417.87 1539.79,2409.21 1578.5,2400.5 Z"/></g>
</svg>
