<?xml version="1.0" encoding="UTF-8"?>
<!DOCTYPE svg PUBLIC "-//W3C//DTD SVG 1.1//EN" "http://www.w3.org/Graphics/SVG/1.1/DTD/svg11.dtd">
<svg xmlns="http://www.w3.org/2000/svg" version="1.1" width="3000px" height="3000px" style="shape-rendering:geometricPrecision; text-rendering:geometricPrecision; image-rendering:optimizeQuality; fill-rule:evenodd; clip-rule:evenodd" xmlns:xlink="http://www.w3.org/1999/xlink">
<g><path style="opacity:0.971" fill="#8ac8e4" d="M 2334.5,1377.5 C 2332.97,1377.43 2331.97,1378.09 2331.5,1379.5C 2330.29,1379.93 2329.29,1380.6 2328.5,1381.5C 2319.52,1387.81 2310.86,1394.48 2302.5,1401.5C 2298.98,1402.76 2295.98,1404.76 2293.5,1407.5C 2277.99,1417.09 2262.32,1426.42 2246.5,1435.5C 2244.94,1435.73 2243.6,1436.4 2242.5,1437.5C 2239.97,1438.6 2237.64,1439.93 2235.5,1441.5C 2234.51,1441.33 2233.84,1441.66 2233.5,1442.5C 2231.97,1442.43 2230.97,1443.09 2230.5,1444.5C 2204.35,1457.33 2177.01,1467 2148.5,1473.5C 2198.49,1570.22 2209.65,1671.22 2182,1776.5C 2173.03,1805.93 2161.2,1834.09 2146.5,1861C 2157.73,1905.2 2165.23,1950.03 2169,1995.5C 2174.79,2058.03 2177.29,2120.7 2176.5,2183.5C 2176.5,2183.83 2176.5,2184.17 2176.5,2184.5C 2175.46,2208.33 2174.79,2232.33 2174.5,2256.5C 2174.5,2259.17 2174.5,2261.83 2174.5,2264.5C 2173.46,2282.04 2172.12,2299.71 2170.5,2317.5C 2170.5,2318.5 2170.5,2319.5 2170.5,2320.5C 2169.38,2329.82 2168.38,2339.16 2167.5,2348.5C 2166.54,2350.26 2166.21,2352.26 2166.5,2354.5C 2159.79,2415.81 2140.62,2472.81 2109,2525.5C 2078.09,2572.08 2038.92,2610.25 1991.5,2640C 1945.13,2667.68 1896.13,2689.68 1844.5,2706C 1672.42,2759.24 1496.42,2790.24 1316.5,2799C 1242.67,2802.7 1169.33,2798.37 1096.5,2786C 1057.46,2779.54 1020.79,2766.54 986.5,2747C 927.276,2702.64 906.109,2644.14 923,2571.5C 952.375,2452.67 982.041,2334 1012,2215.5C 896.165,2190.48 789.665,2144.64 692.5,2078C 638.212,2039.91 591.378,1994.08 552,1940.5C 499.942,1868.35 469.109,1787.85 459.5,1699C 459.474,1685.65 461.974,1672.82 467,1660.5C 470.154,1656.35 473.654,1652.51 477.5,1649C 474.839,1637.94 475.672,1627.11 480,1616.5C 486.59,1601.82 495.757,1588.98 507.5,1578C 528.88,1560.64 551.88,1545.64 576.5,1533C 682.144,1479.78 792.478,1438.78 907.5,1410C 999.602,1385.38 1092.94,1367.05 1187.5,1355C 1207.14,1353.23 1226.8,1351.9 1246.5,1351C 1202.7,1327.63 1177.53,1291.13 1171,1241.5C 1145.43,1051.35 1133.43,860.354 1135,668.5C 1135.64,621.304 1138.97,574.304 1145,527.5C 1147.23,509.707 1150.73,492.207 1155.5,475C 1147.48,458.774 1142.65,441.608 1141,423.5C 1130.29,357.097 1153.79,307.263 1211.5,274C 1305.62,226.737 1404.62,194.071 1508.5,176C 1550.27,169.605 1592.27,167.272 1634.5,169C 1802.27,178.305 1968.94,197.305 2134.5,226C 2200.19,237.674 2265.19,252.341 2329.5,270C 2377.35,283.099 2423.02,301.433 2466.5,325C 2481.81,334.309 2495.31,345.809 2507,359.5C 2517.77,376.347 2522.61,394.847 2521.5,415C 2522.31,430.285 2518.81,444.451 2511,457.5C 2507.16,461.673 2502.99,465.507 2498.5,469C 2515.75,639.111 2520.58,809.611 2513,980.5C 2510.17,1039.31 2501.84,1097.31 2488,1154.5C 2469.22,1218.09 2437.55,1274.09 2393,1322.5C 2374.54,1342.14 2355.04,1360.47 2334.5,1377.5 Z"/></g>
<g><path style="opacity:1" fill="#b3e2f7" d="M 2344.5,280.5 C 2348.73,282.111 2353.06,283.444 2357.5,284.5C 2366.26,289.405 2374.92,294.572 2383.5,300C 2398.11,309.056 2408.61,321.556 2415,337.5C 2417.48,349.096 2415.82,360.096 2410,370.5C 2403.3,381.541 2394.8,391.041 2384.5,399C 2367.69,411.316 2351.36,424.149 2335.5,437.5C 2325.66,444.255 2315.99,451.255 2306.5,458.5C 2287.4,471.086 2268.4,483.92 2249.5,497C 2232.6,505.19 2214.93,511.19 2196.5,515C 2152.25,523.508 2107.58,528.175 2062.5,529C 1980.58,531.464 1898.91,528.13 1817.5,519C 1801.63,500.635 1784.63,483.468 1766.5,467.5C 1847.74,480.53 1929.41,490.03 2011.5,496C 2076.19,499.925 2139.19,491.592 2200.5,471C 2231.09,460.213 2258.76,444.546 2283.5,424C 2298.49,410.85 2309.66,395.017 2317,376.5C 2327.87,342.105 2318.04,315.605 2287.5,297C 2257.25,281.137 2225.59,268.804 2192.5,260C 2133.04,245.175 2073.04,233.175 2012.5,224C 1884.76,205.471 1756.42,193.138 1627.5,187C 1538.11,183.816 1451.44,197.483 1367.5,228C 1344.93,236.523 1322.27,244.857 1299.5,253C 1278.67,260.985 1261.17,273.485 1247,290.5C 1235.78,309.842 1237.95,327.676 1253.5,344C 1258.51,347.507 1263.84,350.507 1269.5,353C 1296.97,364.382 1324.64,375.382 1352.5,386C 1376.95,393.446 1401.62,399.612 1426.5,404.5C 1410.31,412.847 1395.31,423.014 1381.5,435C 1379.5,435.667 1377.5,435.667 1375.5,435C 1327.69,421.091 1281.69,402.757 1237.5,380C 1223.88,372.378 1211.38,363.212 1200,352.5C 1190.08,338.981 1190.08,325.314 1200,311.5C 1214.72,294.469 1232.55,281.635 1253.5,273C 1254.77,270.956 1254.44,269.122 1252.5,267.5C 1231.63,276.348 1213.46,289.015 1198,305.5C 1193.61,311.619 1190.27,318.286 1188,325.5C 1186.34,334.386 1187.67,342.719 1192,350.5C 1202.36,362.866 1214.53,373.033 1228.5,381C 1275.32,405.901 1324.32,425.567 1375.5,440C 1359.2,454.625 1344.7,470.791 1332,488.5C 1319.48,506.871 1307.98,525.871 1297.5,545.5C 1262.21,534.352 1228.21,520.185 1195.5,503C 1183.64,496.646 1173.14,488.479 1164,478.5C 1161.36,474.556 1159.86,470.222 1159.5,465.5C 1158.5,465.5 1157.5,465.5 1156.5,465.5C 1145.63,431.947 1142.47,397.614 1147,362.5C 1156.77,327.47 1177.27,300.637 1208.5,282C 1304.36,233.159 1405.36,199.492 1511.5,181C 1555.27,173.96 1599.27,171.96 1643.5,175C 1817.83,184.943 1990.83,205.609 2162.5,237C 2223.86,248.675 2284.53,263.175 2344.5,280.5 Z"/></g>
<g><path style="opacity:1" fill="#c6e9f6" d="M 1766.5,467.5 C 1741.3,447.166 1714.3,429.332 1685.5,414C 1616.77,380.697 1545.1,372.03 1470.5,388C 1455.39,392.423 1440.73,397.923 1426.5,404.5C 1401.62,399.612 1376.95,393.446 1352.5,386C 1324.64,375.382 1296.97,364.382 1269.5,353C 1263.84,350.507 1258.51,347.507 1253.5,344C 1237.95,327.676 1235.78,309.842 1247,290.5C 1261.17,273.485 1278.67,260.985 1299.5,253C 1322.27,244.857 1344.93,236.523 1367.5,228C 1451.44,197.483 1538.11,183.816 1627.5,187C 1756.42,193.138 1884.76,205.471 2012.5,224C 2073.04,233.175 2133.04,245.175 2192.5,260C 2225.59,268.804 2257.25,281.137 2287.5,297C 2318.04,315.605 2327.87,342.105 2317,376.5C 2309.66,395.017 2298.49,410.85 2283.5,424C 2258.76,444.546 2231.09,460.213 2200.5,471C 2139.19,491.592 2076.19,499.925 2011.5,496C 1929.41,490.03 1847.74,480.53 1766.5,467.5 Z"/></g>
<g><path style="opacity:1" fill="#daf0f8" d="M 1390.5,363.5 C 1378.44,357.787 1366.1,351.287 1353.5,344C 1344.5,338.238 1336.33,331.405 1329,323.5C 1318.57,310.045 1318.24,296.379 1328,282.5C 1338.4,270.771 1350.57,261.271 1364.5,254C 1395.19,238.325 1427.19,225.992 1460.5,217C 1459.91,216.536 1459.24,216.369 1458.5,216.5C 1487.25,209.245 1516.59,205.079 1546.5,204C 1612.98,202.16 1679.32,204.493 1745.5,211C 1718.93,219.731 1694.27,232.065 1671.5,248C 1656.95,258.439 1648.29,272.439 1645.5,290C 1646.25,302.996 1650.75,314.496 1659,324.5C 1670.59,337.425 1683.42,348.925 1697.5,359C 1739.27,385.218 1783.27,407.218 1829.5,425C 1867.17,439.584 1905.17,453.25 1943.5,466C 1889.06,459.403 1834.73,451.736 1780.5,443C 1722.99,396.258 1656.99,370.258 1582.5,365C 1538.9,361.973 1496.07,366.14 1454,377.5C 1432.42,374.127 1411.25,369.46 1390.5,363.5 Z"/></g>
<g><path style="opacity:1" fill="#eaf6fa" d="M 1458.5,216.5 C 1459.24,216.369 1459.91,216.536 1460.5,217C 1427.19,225.992 1395.19,238.325 1364.5,254C 1350.57,261.271 1338.4,270.771 1328,282.5C 1318.24,296.379 1318.57,310.045 1329,323.5C 1336.33,331.405 1344.5,338.238 1353.5,344C 1366.1,351.287 1378.44,357.787 1390.5,363.5C 1358.57,356.359 1328.57,344.526 1300.5,328C 1294,322.833 1288.17,317 1283,310.5C 1277.48,300.074 1278.48,290.408 1286,281.5C 1300.79,268.179 1317.62,258.012 1336.5,251C 1376.21,236.153 1416.88,224.653 1458.5,216.5 Z"/></g>
<g><path style="opacity:1" fill="#918783" d="M 1876.5,259.5 C 1880.21,262.032 1883.54,265.032 1886.5,268.5C 1894.9,284.151 1891.23,296.318 1875.5,305C 1867.02,309.717 1858.02,313.05 1848.5,315C 1857.64,314.846 1866.48,313.013 1875,309.5C 1878.74,309.905 1880.07,311.905 1879,315.5C 1872.91,323.581 1865.08,329.414 1855.5,333C 1823.82,344.85 1791.15,348.516 1757.5,344C 1746.7,342.872 1736.03,341.039 1725.5,338.5C 1708.4,333.538 1694.23,324.204 1683,310.5C 1679.92,304.848 1678.09,298.848 1677.5,292.5C 1678.44,285.627 1680.77,279.294 1684.5,273.5C 1697.36,260.524 1712.7,251.358 1730.5,246C 1764.92,237.165 1799.58,236.165 1834.5,243C 1849.29,246.648 1863.29,252.148 1876.5,259.5 Z"/></g>
<g><path style="opacity:1" fill="#bdb8b3" d="M 1820.5,245.5 C 1831.91,248.282 1842.91,252.448 1853.5,258C 1871.84,269.405 1873.17,282.405 1857.5,297C 1852.97,299.767 1848.3,302.267 1843.5,304.5C 1842.9,303.861 1842.07,303.528 1841,303.5C 1811.88,308.493 1783.04,307.326 1754.5,300C 1742.2,296.773 1731.7,290.607 1723,281.5C 1717.44,272.405 1718.94,264.572 1727.5,258C 1733.32,253.428 1739.65,249.928 1746.5,247.5C 1752.94,245.854 1759.61,244.688 1766.5,244C 1784.55,243.091 1802.55,243.591 1820.5,245.5 Z"/></g>
<g><path style="opacity:1" fill="#aba49f" d="M 1820.5,245.5 C 1839.79,247.429 1857.79,253.263 1874.5,263C 1890.2,277.628 1888.87,290.628 1870.5,302C 1857.73,309.258 1844.06,313.924 1829.5,316C 1803.37,320.322 1777.37,320.489 1751.5,316.5C 1778.62,318.358 1805.28,315.858 1831.5,309C 1834.28,308.478 1836.61,307.311 1838.5,305.5C 1840.22,305.371 1841.88,305.038 1843.5,304.5C 1848.3,302.267 1852.97,299.767 1857.5,297C 1873.17,282.405 1871.84,269.405 1853.5,258C 1842.91,252.448 1831.91,248.282 1820.5,245.5 Z"/></g>
<g><path style="opacity:1" fill="#dedad3" d="M 1746.5,247.5 C 1739.65,249.928 1733.32,253.428 1727.5,258C 1718.94,264.572 1717.44,272.405 1723,281.5C 1731.7,290.607 1742.2,296.773 1754.5,300C 1783.04,307.326 1811.88,308.493 1841,303.5C 1842.07,303.528 1842.9,303.861 1843.5,304.5C 1841.88,305.038 1840.22,305.371 1838.5,305.5C 1806.66,312.944 1774.66,313.444 1742.5,307C 1730.16,304.161 1718.83,299.161 1708.5,292C 1696.92,279.932 1698.26,269.265 1712.5,260C 1720.02,255.903 1727.69,252.403 1735.5,249.5C 1738.95,248.313 1742.61,247.646 1746.5,247.5 Z"/></g>
<g><path style="opacity:1" fill="#bcb7b2" d="M 1735.5,249.5 C 1727.69,252.403 1720.02,255.903 1712.5,260C 1698.26,269.265 1696.92,279.932 1708.5,292C 1718.83,299.161 1730.16,304.161 1742.5,307C 1774.66,313.444 1806.66,312.944 1838.5,305.5C 1836.61,307.311 1834.28,308.478 1831.5,309C 1805.28,315.858 1778.62,318.358 1751.5,316.5C 1732.9,314.578 1715.9,308.411 1700.5,298C 1687.96,285.634 1688.62,273.967 1702.5,263C 1712.68,256.443 1723.68,251.943 1735.5,249.5 Z"/></g>
<g><path style="opacity:1" fill="#8ac8e3" d="M 1876.5,259.5 C 1891.04,265.87 1901.87,276.203 1909,290.5C 1912.68,303.113 1910.34,314.446 1902,324.5C 1892.5,334.672 1881.33,342.505 1868.5,348C 1816.47,367.271 1764.47,367.271 1712.5,348C 1696.32,341.479 1683.49,330.979 1674,316.5C 1667.15,299.566 1670.65,285.233 1684.5,273.5C 1680.77,279.294 1678.44,285.627 1677.5,292.5C 1674.15,301.597 1675.32,310.264 1681,318.5C 1692.54,332.349 1707.04,341.849 1724.5,347C 1774.21,362.57 1823.21,360.57 1871.5,341C 1881.49,336.087 1890.32,329.587 1898,321.5C 1908.4,307.317 1907.9,293.651 1896.5,280.5C 1893.64,276.131 1890.31,272.131 1886.5,268.5C 1883.54,265.032 1880.21,262.032 1876.5,259.5 Z"/></g>
<g><path style="opacity:1" fill="#7c736f" d="M 1886.5,268.5 C 1890.31,272.131 1893.64,276.131 1896.5,280.5C 1901.46,298.749 1896.13,313.249 1880.5,324C 1858.3,338.176 1833.97,346.176 1807.5,348C 1789.09,349.082 1770.76,348.415 1752.5,346C 1743.08,344.565 1734.08,342.065 1725.5,338.5C 1736.03,341.039 1746.7,342.872 1757.5,344C 1791.15,348.516 1823.82,344.85 1855.5,333C 1865.08,329.414 1872.91,323.581 1879,315.5C 1880.07,311.905 1878.74,309.905 1875,309.5C 1866.48,313.013 1857.64,314.846 1848.5,315C 1858.02,313.05 1867.02,309.717 1875.5,305C 1891.23,296.318 1894.9,284.151 1886.5,268.5 Z"/></g>
<g><path style="opacity:1" fill="#60abc0" d="M 1896.5,280.5 C 1907.9,293.651 1908.4,307.317 1898,321.5C 1890.32,329.587 1881.49,336.087 1871.5,341C 1823.21,360.57 1774.21,362.57 1724.5,347C 1707.04,341.849 1692.54,332.349 1681,318.5C 1675.32,310.264 1674.15,301.597 1677.5,292.5C 1678.09,298.848 1679.92,304.848 1683,310.5C 1694.23,324.204 1708.4,333.538 1725.5,338.5C 1734.08,342.065 1743.08,344.565 1752.5,346C 1770.76,348.415 1789.09,349.082 1807.5,348C 1833.97,346.176 1858.3,338.176 1880.5,324C 1896.13,313.249 1901.46,298.749 1896.5,280.5 Z"/></g>
<g><path style="opacity:1" fill="#99d1ea" d="M 2357.5,284.5 C 2393.39,295.404 2427.72,309.904 2460.5,328C 2475.4,336.219 2488.56,346.719 2500,359.5C 2508.69,369.888 2513.69,381.888 2515,395.5C 2518.72,415.777 2516.05,435.11 2507,453.5C 2494.53,464.291 2481.7,474.791 2468.5,485C 2457.6,492.747 2446.6,500.247 2435.5,507.5C 2451.72,492.365 2465.55,475.365 2477,456.5C 2487.29,437.81 2484.79,420.977 2469.5,406C 2462.04,401.842 2454.04,400.509 2445.5,402C 2434.44,404.527 2423.78,408.194 2413.5,413C 2370.68,435.572 2328.35,458.905 2286.5,483C 2283.52,484.972 2280.52,485.472 2277.5,484.5C 2278.98,482.926 2280.65,481.593 2282.5,480.5C 2334.62,444.887 2386.62,409.054 2438.5,373C 2450.4,365.287 2463.07,363.621 2476.5,368C 2480.37,370.6 2484.37,372.6 2488.5,374C 2489.36,373.311 2490.02,372.478 2490.5,371.5C 2477.13,359.861 2462.13,357.361 2445.5,364C 2438.71,366.895 2432.37,370.562 2426.5,375C 2396.27,396.08 2365.93,416.913 2335.5,437.5C 2351.36,424.149 2367.69,411.316 2384.5,399C 2394.8,391.041 2403.3,381.541 2410,370.5C 2415.82,360.096 2417.48,349.096 2415,337.5C 2408.61,321.556 2398.11,309.056 2383.5,300C 2374.92,294.572 2366.26,289.405 2357.5,284.5 Z"/></g>
<g><path style="opacity:1" fill="#9d9590" d="M 1682.5,285.5 C 1687.08,297.919 1695.41,307.086 1707.5,313C 1723.12,319.861 1739.46,324.194 1756.5,326C 1774.48,327.1 1792.48,327.766 1810.5,328C 1794.34,329.707 1778.34,332.373 1762.5,336C 1759.47,336.785 1756.64,337.951 1754,339.5C 1731.32,336.405 1711.16,327.738 1693.5,313.5C 1685.51,305.867 1681.84,296.534 1682.5,285.5 Z"/></g>
<g><path style="opacity:1" fill="#c6e9f6" d="M 1169.5,345.5 C 1174.03,359.232 1182.03,370.732 1193.5,380C 1206.49,389.632 1220.49,397.632 1235.5,404C 1262.18,414.507 1288.52,425.841 1314.5,438C 1317.94,440.139 1321.11,442.639 1324,445.5C 1324.87,446.873 1325.37,448.373 1325.5,450C 1320.08,466.013 1312.41,480.847 1302.5,494.5C 1298.71,496.823 1294.54,497.823 1290,497.5C 1246.32,493.66 1209.65,475.66 1180,443.5C 1158.24,412.893 1154.74,380.226 1169.5,345.5 Z"/></g>
<g><path style="opacity:1" fill="#76bad8" d="M 2282.5,480.5 C 2281.67,479.671 2282,478.838 2283.5,478C 2291.36,471.635 2299.02,465.135 2306.5,458.5C 2315.99,451.255 2325.66,444.255 2335.5,437.5C 2365.93,416.913 2396.27,396.08 2426.5,375C 2432.37,370.562 2438.71,366.895 2445.5,364C 2462.13,357.361 2477.13,359.861 2490.5,371.5C 2490.02,372.478 2489.36,373.311 2488.5,374C 2484.37,372.6 2480.37,370.6 2476.5,368C 2463.07,363.621 2450.4,365.287 2438.5,373C 2386.62,409.054 2334.62,444.887 2282.5,480.5 Z"/></g>
<g><path style="opacity:1" fill="#b3e2f7" d="M 1513.5,385.5 C 1597.67,380.882 1673.34,403.715 1740.5,454C 1794.58,496.398 1839.75,546.565 1876,604.5C 1925.02,683.557 1964.69,767.224 1995,855.5C 2058.66,1042.41 2094.49,1234.58 2102.5,1432C 2103.36,1452.38 2098.53,1471.21 2088,1488.5C 2076.97,1501.06 2063.13,1505.89 2046.5,1503C 1787.57,1453.52 1528.57,1404.19 1269.5,1355C 1260.72,1351.22 1254.22,1345.06 1250,1336.5C 1245.17,1325.66 1242.17,1314.33 1241,1302.5C 1226.09,1177.58 1220.76,1052.25 1225,926.5C 1228.18,831.226 1241.84,737.559 1266,645.5C 1280.18,593.936 1301.51,545.603 1330,500.5C 1353.68,464.815 1383.85,435.982 1420.5,414C 1449.69,398.101 1480.69,388.601 1513.5,385.5 Z"/></g>
<g><path style="opacity:1" fill="#e9f6fa" d="M 1773.5,513.5 C 1739.59,483.855 1701.93,459.688 1660.5,441C 1598.87,413.675 1534.87,406.008 1468.5,418C 1459.89,419.574 1451.56,421.74 1443.5,424.5C 1440.84,425.347 1438.17,425.847 1435.5,426C 1494.37,398.301 1555.37,392.634 1618.5,409C 1650.23,418.198 1679.56,432.198 1706.5,451C 1731.24,469.243 1753.58,490.076 1773.5,513.5 Z"/></g>
<g><path style="opacity:1" fill="#b3e2f7" d="M 2435.5,507.5 C 2433.17,509.5 2430.83,511.5 2428.5,513.5C 2364.48,554.19 2298.15,591.357 2229.5,625C 2200.77,636.213 2171.11,643.88 2140.5,648C 2080.7,655.095 2020.7,657.428 1960.5,655C 1943.78,654.808 1927.11,653.808 1910.5,652C 1885.79,606.972 1856.79,564.972 1823.5,526C 1863.44,528.97 1903.44,531.636 1943.5,534C 1983.83,534.667 2024.17,534.667 2064.5,534C 2107.51,532.969 2150.18,528.635 2192.5,521C 2214.07,516.587 2234.74,509.587 2254.5,500C 2262.2,494.823 2269.86,489.657 2277.5,484.5C 2280.52,485.472 2283.52,484.972 2286.5,483C 2328.35,458.905 2370.68,435.572 2413.5,413C 2423.78,408.194 2434.44,404.527 2445.5,402C 2454.04,400.509 2462.04,401.842 2469.5,406C 2484.79,420.977 2487.29,437.81 2477,456.5C 2465.55,475.365 2451.72,492.365 2435.5,507.5 Z"/></g>
<g><path style="opacity:1" fill="#c6e9f6" d="M 1773.5,513.5 C 1798.72,538.209 1821.55,564.875 1842,593.5C 1883.99,655.134 1918.99,720.8 1947,790.5C 2003.51,935.713 2041.84,1085.71 2062,1240.5C 2070.03,1299.57 2074.87,1358.9 2076.5,1418.5C 2077.11,1435.42 2073.61,1451.42 2066,1466.5C 2054.18,1484.48 2037.68,1490.98 2016.5,1486C 1769.82,1438.85 1523.15,1391.52 1276.5,1344C 1269.05,1340.22 1263.22,1334.72 1259,1327.5C 1255.77,1320.37 1253.1,1313.04 1251,1305.5C 1233.76,1169.28 1228.76,1032.61 1236,895.5C 1240.74,807.731 1255.41,721.731 1280,637.5C 1296.37,584.425 1321.37,536.091 1355,492.5C 1379.78,462.717 1409.94,440.217 1445.5,425C 1444.91,424.536 1444.24,424.369 1443.5,424.5C 1451.56,421.74 1459.89,419.574 1468.5,418C 1534.87,406.008 1598.87,413.675 1660.5,441C 1701.93,459.688 1739.59,483.855 1773.5,513.5 Z"/></g>
<g><path style="opacity:1" fill="#8bc9e4" d="M 1514.5,437.5 C 1592.92,435.029 1662.59,458.195 1723.5,507C 1774.85,550.321 1817.35,600.821 1851,658.5C 1898.21,740.438 1935.55,826.771 1963,917.5C 2011.57,1075.2 2039.07,1236.53 2045.5,1401.5C 2047.03,1418.35 2044.86,1434.68 2039,1450.5C 2027.21,1475 2008.04,1483.5 1981.5,1476C 1749.85,1431 1518.19,1386 1286.5,1341C 1272.76,1333.04 1264.26,1321.21 1261,1305.5C 1242.09,1162.62 1237.76,1019.28 1248,875.5C 1252.82,812.242 1263.15,749.908 1279,688.5C 1293.15,632.215 1316.48,580.215 1349,532.5C 1389.8,475.848 1444.97,444.181 1514.5,437.5 Z"/></g>
<g><path style="opacity:1" fill="#b3e2f7" d="M 1565.5,444.5 C 1615.37,458.266 1660.04,481.766 1699.5,515C 1755.61,565.364 1799.45,624.864 1831,693.5C 1864.45,766.276 1889.11,841.943 1905,920.5C 1916.92,976.926 1924.25,1033.93 1927,1091.5C 1933.85,1324.48 1821.68,1424.81 1590.5,1392.5C 1589.08,1392.62 1587.74,1392.96 1586.5,1393.5C 1487.17,1374.34 1387.84,1355.17 1288.5,1336C 1279.11,1331.08 1272.61,1323.58 1269,1313.5C 1266.04,1304.73 1264.04,1295.73 1263,1286.5C 1248.19,1160.18 1244.19,1033.52 1251,906.5C 1254.75,834.437 1265.41,763.437 1283,693.5C 1294.92,646.34 1312.92,601.674 1337,559.5C 1357.27,524.897 1384.1,496.397 1417.5,474C 1463.32,446.937 1512.65,437.103 1565.5,444.5 Z"/></g>
<g><path style="opacity:1" fill="#a4dbf5" d="M 1565.5,444.5 C 1583.74,446.478 1601.4,450.478 1618.5,456.5C 1666.46,474.973 1708.79,502.14 1745.5,538C 1791.77,585.595 1830.27,638.761 1861,697.5C 1903.3,779.731 1936.97,865.398 1962,954.5C 2004.42,1104.2 2028.25,1256.87 2033.5,1412.5C 2032.74,1427.56 2028.57,1441.56 2021,1454.5C 2011.58,1466.24 1999.41,1471.91 1984.5,1471.5C 1851.69,1445.6 1719.03,1419.6 1586.5,1393.5C 1587.74,1392.96 1589.08,1392.62 1590.5,1392.5C 1821.68,1424.81 1933.85,1324.48 1927,1091.5C 1924.25,1033.93 1916.92,976.926 1905,920.5C 1889.11,841.943 1864.45,766.276 1831,693.5C 1799.45,624.864 1755.61,565.364 1699.5,515C 1660.04,481.766 1615.37,458.266 1565.5,444.5 Z"/></g>
<g><path style="opacity:1" fill="#a1daf4" d="M 1515.5,449.5 C 1527.5,449.333 1539.5,449.5 1551.5,450C 1558.24,450.284 1564.91,451.117 1571.5,452.5C 1507.99,449.831 1453.32,470.331 1407.5,514C 1373.57,548.982 1348.07,589.482 1331,635.5C 1313.16,683.379 1301.16,732.713 1295,783.5C 1285.95,858.571 1282.95,933.905 1286,1009.5C 1286.97,1082.93 1292.97,1155.93 1304,1228.5C 1308.32,1253.14 1314.98,1277.14 1324,1300.5C 1328.55,1313.1 1335.71,1323.93 1345.5,1333C 1356.14,1337.98 1366.8,1342.98 1377.5,1348C 1348.82,1343.11 1320.15,1337.77 1291.5,1332C 1280.07,1325.66 1272.57,1316.16 1269,1303.5C 1263.6,1270.69 1259.6,1237.69 1257,1204.5C 1247.93,1095.87 1247.27,987.207 1255,878.5C 1260.46,797.416 1276.12,718.416 1302,641.5C 1317.94,596.311 1341.28,555.645 1372,519.5C 1410.62,477.271 1458.46,453.938 1515.5,449.5 Z"/></g>
<g><path style="opacity:1" fill="#72b7d6" d="M 2148.5,1469.5 C 2138.47,1470.91 2128.47,1472.57 2118.5,1474.5C 2116.85,1473.81 2115.18,1473.15 2113.5,1472.5C 2130.32,1448.86 2143.49,1423.2 2153,1395.5C 2158.35,1379.63 2163.18,1363.63 2167.5,1347.5C 2167.43,1346.04 2167.77,1344.71 2168.5,1343.5C 2169.89,1341.73 2171.06,1339.73 2172,1337.5C 2171.69,1342.11 2171.52,1346.77 2171.5,1351.5C 2171.5,1352.17 2171.5,1352.83 2171.5,1353.5C 2162.95,1387.29 2150.45,1419.62 2134,1450.5C 2129.89,1457.6 2125.39,1464.44 2120.5,1471C 2148.94,1469.06 2176.27,1462.39 2202.5,1451C 2288.38,1413.1 2360.22,1357.27 2418,1283.5C 2459.45,1227.54 2485.11,1164.88 2495,1095.5C 2504.69,1027.85 2510.02,959.849 2511,891.5C 2512.92,751.621 2507.08,612.121 2493.5,473C 2465.51,493.611 2436.84,513.611 2407.5,533C 2351.91,567.541 2294.57,599.208 2235.5,628C 2217.64,635.399 2199.3,641.399 2180.5,646C 2185.41,649.403 2189.41,653.57 2192.5,658.5C 2192.5,658.833 2192.5,659.167 2192.5,659.5C 2190.88,660.038 2189.22,660.371 2187.5,660.5C 2183.71,654.165 2178.21,649.832 2171,647.5C 2133.52,654.786 2095.68,658.953 2057.5,660C 2009.81,661.928 1962.14,661.428 1914.5,658.5C 1912.07,656.67 1912.24,655.67 1915,655.5C 1967.8,658.824 2020.63,659.324 2073.5,657C 2114.03,654.972 2154.03,649.306 2193.5,640C 2207.05,635.945 2220.39,631.279 2233.5,626C 2297.76,594.882 2359.76,560.215 2419.5,522C 2422.96,519.613 2425.96,516.78 2428.5,513.5C 2430.83,511.5 2433.17,509.5 2435.5,507.5C 2446.6,500.247 2457.6,492.747 2468.5,485C 2481.7,474.791 2494.53,464.291 2507,453.5C 2516.05,435.11 2518.72,415.777 2515,395.5C 2513.69,381.888 2508.69,369.888 2500,359.5C 2488.56,346.719 2475.4,336.219 2460.5,328C 2427.72,309.904 2393.39,295.404 2357.5,284.5C 2353.06,283.444 2348.73,282.111 2344.5,280.5C 2341.86,278.547 2338.86,277.047 2335.5,276C 2380.97,287.828 2424.31,305.162 2465.5,328C 2479.47,336.737 2491.97,347.237 2503,359.5C 2514.63,375.724 2519.79,393.891 2518.5,414C 2519.52,428.028 2516.69,441.195 2510,453.5C 2506.64,458.356 2502.48,462.356 2497.5,465.5C 2497.17,467.667 2496.83,469.833 2496.5,472C 2509.42,609.538 2515.26,747.371 2514,885.5C 2512.97,957.215 2507.3,1028.55 2497,1099.5C 2485.49,1172.48 2457.16,1237.81 2412,1295.5C 2357.43,1361.7 2291.27,1412.86 2213.5,1449C 2201.66,1454.06 2189.66,1458.73 2177.5,1463C 2168.07,1466.27 2158.4,1468.44 2148.5,1469.5 Z"/></g>
<g><path style="opacity:1" fill="#b2e2f7" d="M 1618.5,456.5 C 1651.13,466.647 1681.13,481.813 1708.5,502C 1758.16,540.65 1799.66,586.484 1833,639.5C 1876.95,710.401 1912.61,785.401 1940,864.5C 2002.67,1045.86 2036,1232.53 2040,1424.5C 2039.26,1441.41 2032.76,1455.58 2020.5,1467C 2009.18,1473.8 1997.18,1475.3 1984.5,1471.5C 1999.41,1471.91 2011.58,1466.24 2021,1454.5C 2028.57,1441.56 2032.74,1427.56 2033.5,1412.5C 2028.25,1256.87 2004.42,1104.2 1962,954.5C 1936.97,865.398 1903.3,779.731 1861,697.5C 1830.27,638.761 1791.77,585.595 1745.5,538C 1708.79,502.14 1666.46,474.973 1618.5,456.5 Z"/></g>
<g><path style="opacity:1" fill="#91cce6" d="M 2171.5,1353.5 C 2172.14,1384.98 2187.81,1397.14 2218.5,1390C 2231.35,1386.74 2243.69,1382.07 2255.5,1376C 2332.29,1331.21 2394.79,1271.38 2443,1196.5C 2453.34,1178.16 2461.34,1158.83 2467,1138.5C 2481.97,1080.06 2491.63,1020.73 2496,960.5C 2502.78,872.516 2503.11,784.516 2497,696.5C 2494.41,667.968 2490.41,639.634 2485,611.5C 2480.58,588.231 2472.25,566.565 2460,546.5C 2452.18,536.004 2442.01,532.504 2429.5,536C 2353.99,583.09 2274.99,623.924 2192.5,658.5C 2189.41,653.57 2185.41,649.403 2180.5,646C 2199.3,641.399 2217.64,635.399 2235.5,628C 2294.57,599.208 2351.91,567.541 2407.5,533C 2436.84,513.611 2465.51,493.611 2493.5,473C 2507.08,612.121 2512.92,751.621 2511,891.5C 2510.02,959.849 2504.69,1027.85 2495,1095.5C 2485.11,1164.88 2459.45,1227.54 2418,1283.5C 2360.22,1357.27 2288.38,1413.1 2202.5,1451C 2176.27,1462.39 2148.94,1469.06 2120.5,1471C 2125.39,1464.44 2129.89,1457.6 2134,1450.5C 2150.45,1419.62 2162.95,1387.29 2171.5,1353.5 Z"/></g>
<g><path style="opacity:1" fill="#b4e2f7" d="M 1158.5,481.5 C 1173.29,495.42 1189.96,506.92 1208.5,516C 1236.27,529.55 1264.94,540.883 1294.5,550C 1294.96,550.414 1295.29,550.914 1295.5,551.5C 1266.04,618.006 1246.2,687.34 1236,759.5C 1220.62,865.297 1214.96,971.63 1219,1078.5C 1221.08,1155.1 1226.74,1231.44 1236,1307.5C 1237.49,1321.65 1242.33,1334.49 1250.5,1346C 1212.87,1327.71 1189.37,1297.87 1180,1256.5C 1178.01,1247.89 1176.35,1239.22 1175,1230.5C 1150.05,1038.64 1138.72,845.976 1141,652.5C 1142.08,594.983 1147.92,537.983 1158.5,481.5 Z"/></g>
<g><path style="opacity:1" fill="#e0f2f9" d="M 1229.5,552.5 C 1199.15,665.788 1182.65,781.122 1180,898.5C 1176.73,1020.25 1185.56,1141.08 1206.5,1261C 1206.49,1262.38 1206.15,1263.55 1205.5,1264.5C 1198.33,1250.82 1192.83,1236.49 1189,1221.5C 1184.83,1200.64 1181.5,1179.64 1179,1158.5C 1167.5,1029.06 1159.84,899.395 1156,769.5C 1155.33,721.833 1155.33,674.167 1156,626.5C 1157.11,591.384 1159.61,556.384 1163.5,521.5C 1180.33,531.084 1197.67,539.917 1215.5,548C 1220.02,550.007 1224.69,551.507 1229.5,552.5 Z"/></g>
<g><path style="opacity:1" fill="#c2e8f6" d="M 1524.5,531.5 C 1577.67,531.951 1625.01,548.451 1666.5,581C 1692.5,607.007 1713,636.84 1728,670.5C 1779.61,793.453 1811.61,921.453 1824,1054.5C 1829.1,1106.67 1823.77,1157.67 1808,1207.5C 1782.92,1272.89 1735.76,1311.72 1666.5,1324C 1574.43,1336.13 1487.76,1319.8 1406.5,1275C 1398.58,1269.31 1392.41,1262.15 1388,1253.5C 1354.01,1194.51 1336.01,1130.84 1334,1062.5C 1330.8,965.236 1334.46,868.236 1345,771.5C 1350.19,726.849 1362.19,684.182 1381,643.5C 1396.49,611.34 1417.99,583.84 1445.5,561C 1469.04,543.544 1495.37,533.711 1524.5,531.5 Z"/></g>
<g><path style="opacity:1" fill="#b3e2f7" d="M 2171.5,1353.5 C 2171.5,1352.83 2171.5,1352.17 2171.5,1351.5C 2182.24,1309.85 2190.07,1267.52 2195,1224.5C 2207.65,1106.18 2212.32,987.509 2209,868.5C 2207.27,814.83 2205.6,761.164 2204,707.5C 2203.54,690.635 2199.71,674.635 2192.5,659.5C 2192.5,659.167 2192.5,658.833 2192.5,658.5C 2274.99,623.924 2353.99,583.09 2429.5,536C 2442.01,532.504 2452.18,536.004 2460,546.5C 2472.25,566.565 2480.58,588.231 2485,611.5C 2490.41,639.634 2494.41,667.968 2497,696.5C 2503.11,784.516 2502.78,872.516 2496,960.5C 2491.63,1020.73 2481.97,1080.06 2467,1138.5C 2461.34,1158.83 2453.34,1178.16 2443,1196.5C 2394.79,1271.38 2332.29,1331.21 2255.5,1376C 2243.69,1382.07 2231.35,1386.74 2218.5,1390C 2187.81,1397.14 2172.14,1384.98 2171.5,1353.5 Z"/></g>
<g><path style="opacity:1" fill="#c6e9f6" d="M 2185.5,540.5 C 2186.55,540.351 2187.55,540.517 2188.5,541C 2166.14,555.36 2148.64,574.193 2136,597.5C 2134.62,601.305 2133.45,605.138 2132.5,609C 2060.96,619.082 1989.29,620.082 1917.5,612C 1905.28,591.388 1893.78,570.555 1883,549.5C 1953.82,559.736 2024.99,562.236 2096.5,557C 2126.98,554.785 2156.64,549.285 2185.5,540.5 Z"/></g>
<g><path style="opacity:1" fill="#c7eaf7" d="M 1229.5,552.5 C 1242.65,557.86 1256.31,561.193 1270.5,562.5C 1244.78,638.54 1226.95,716.54 1217,796.5C 1205.05,891.814 1200.72,987.48 1204,1083.5C 1206.58,1148.69 1211.25,1213.69 1218,1278.5C 1213.28,1274.29 1209.12,1269.62 1205.5,1264.5C 1206.15,1263.55 1206.49,1262.38 1206.5,1261C 1185.56,1141.08 1176.73,1020.25 1180,898.5C 1182.65,781.122 1199.15,665.788 1229.5,552.5 Z"/></g>
<g><path style="opacity:1" fill="#c6e9f7" d="M 2394.5,589.5 C 2405.33,589.161 2414.49,592.828 2422,600.5C 2432.53,614.23 2439.86,629.563 2444,646.5C 2452.32,683.018 2456.99,720.018 2458,757.5C 2460.55,850.567 2453.55,942.901 2437,1034.5C 2426.42,1090.25 2409.42,1143.92 2386,1195.5C 2366.45,1238.12 2338.62,1274.29 2302.5,1304C 2289.38,1314.23 2274.71,1321.23 2258.5,1325C 2244.01,1326.84 2235.18,1320.68 2232,1306.5C 2231.33,1296.83 2231.33,1287.17 2232,1277.5C 2237.11,1250.38 2240.78,1223.05 2243,1195.5C 2252.2,1061.65 2255.53,927.653 2253,793.5C 2251.33,765.149 2249.33,736.816 2247,708.5C 2246.33,701.167 2246.33,693.833 2247,686.5C 2288.89,653.634 2332.72,623.467 2378.5,596C 2383.82,593.497 2389.15,591.331 2394.5,589.5 Z"/></g>
<g><path style="opacity:1" fill="#92cde7" d="M 2187.5,660.5 C 2187.5,660.833 2187.5,661.167 2187.5,661.5C 2133.23,670.432 2078.56,675.265 2023.5,676C 2008.3,677.108 1993.3,679.441 1978.5,683C 1971.13,685.434 1964.63,689.267 1959,694.5C 1957.98,696.702 1957.48,699.035 1957.5,701.5C 1958.61,708.343 1960.45,715.009 1963,721.5C 2038.47,901.47 2087.14,1088.47 2109,1282.5C 2112.77,1307.91 2120.1,1332.24 2131,1355.5C 2136.51,1365.89 2144.34,1368.39 2154.5,1363C 2159.45,1358.22 2163.78,1353.06 2167.5,1347.5C 2163.18,1363.63 2158.35,1379.63 2153,1395.5C 2143.49,1423.2 2130.32,1448.86 2113.5,1472.5C 2109.56,1473.33 2105.56,1473.99 2101.5,1474.5C 2105.44,1462.16 2107.44,1449.5 2107.5,1436.5C 2099.49,1218.6 2057.32,1007.6 1981,803.5C 1961.54,753.92 1939.38,705.587 1914.5,658.5C 1962.14,661.428 2009.81,661.928 2057.5,660C 2095.68,658.953 2133.52,654.786 2171,647.5C 2178.21,649.832 2183.71,654.165 2187.5,660.5 Z"/></g>
<g><path style="opacity:1" fill="#8bc9e5" d="M 2192.5,659.5 C 2199.71,674.635 2203.54,690.635 2204,707.5C 2205.6,761.164 2207.27,814.83 2209,868.5C 2212.32,987.509 2207.65,1106.18 2195,1224.5C 2190.07,1267.52 2182.24,1309.85 2171.5,1351.5C 2171.52,1346.77 2171.69,1342.11 2172,1337.5C 2171.06,1339.73 2169.89,1341.73 2168.5,1343.5C 2185.72,1264.41 2196.22,1184.41 2200,1103.5C 2203.33,1020.87 2204.33,938.199 2203,855.5C 2201.51,804.494 2199.85,753.494 2198,702.5C 2197.46,688.023 2193.96,674.357 2187.5,661.5C 2187.5,661.167 2187.5,660.833 2187.5,660.5C 2189.22,660.371 2190.88,660.038 2192.5,659.5 Z"/></g>
<g><path style="opacity:1" fill="#b3e2f7" d="M 2187.5,661.5 C 2193.96,674.357 2197.46,688.023 2198,702.5C 2199.85,753.494 2201.51,804.494 2203,855.5C 2204.33,938.199 2203.33,1020.87 2200,1103.5C 2196.22,1184.41 2185.72,1264.41 2168.5,1343.5C 2167.77,1344.71 2167.43,1346.04 2167.5,1347.5C 2163.78,1353.06 2159.45,1358.22 2154.5,1363C 2144.34,1368.39 2136.51,1365.89 2131,1355.5C 2120.1,1332.24 2112.77,1307.91 2109,1282.5C 2087.14,1088.47 2038.47,901.47 1963,721.5C 1960.45,715.009 1958.61,708.343 1957.5,701.5C 1957.48,699.035 1957.98,696.702 1959,694.5C 1964.63,689.267 1971.13,685.434 1978.5,683C 1993.3,679.441 2008.3,677.108 2023.5,676C 2078.56,675.265 2133.23,670.432 2187.5,661.5 Z"/></g>
<g><path style="opacity:1" fill="#c6e9f7" d="M 2053.5,692.5 C 2114.05,689.687 2147.89,718.354 2155,778.5C 2164.49,861.921 2170.83,945.588 2174,1029.5C 2174.67,1071.17 2174.67,1112.83 2174,1154.5C 2172.44,1193.75 2168.44,1232.75 2162,1271.5C 2160.8,1283.59 2157.3,1294.92 2151.5,1305.5C 2148.66,1308.28 2146.16,1307.95 2144,1304.5C 2136.97,1288.06 2131.64,1271.06 2128,1253.5C 2115.9,1189.87 2103.9,1126.21 2092,1062.5C 2069.82,954.943 2041.82,848.943 2008,744.5C 2004.97,733.676 2003.97,722.676 2005,711.5C 2008.31,705.089 2013.47,700.922 2020.5,699C 2031.49,696.041 2042.49,693.875 2053.5,692.5 Z"/></g>
<g><path style="opacity:1" fill="#b3e2f7" d="M 1221.5,1357.5 C 1244.44,1356.93 1267.11,1359.09 1289.5,1364C 1543.17,1412.33 1796.84,1460.67 2050.5,1509C 2051.67,1509.5 2052.5,1510.33 2053,1511.5C 2057.11,1525.69 2055.77,1539.35 2049,1552.5C 2038.59,1568.91 2025.42,1582.75 2009.5,1594C 1974.89,1617.14 1937.89,1635.8 1898.5,1650C 1814.71,1680.04 1729.04,1703.37 1641.5,1720C 1475.78,1750.92 1308.78,1771.59 1140.5,1782C 1075.89,1785.87 1011.22,1788.04 946.5,1788.5C 857.111,1789.33 768.444,1781.83 680.5,1766C 633.858,1757.23 589.524,1741.9 547.5,1720C 525.223,1707.72 506.723,1691.22 492,1670.5C 487.286,1661.95 483.952,1652.95 482,1643.5C 480.561,1634.08 481.894,1625.08 486,1616.5C 494.193,1600.3 505.36,1586.47 519.5,1575C 537.369,1562.15 556.036,1550.48 575.5,1540C 654.6,1499.63 736.6,1466.3 821.5,1440C 931.065,1406.77 1042.4,1381.44 1155.5,1364C 1177.6,1361.25 1199.6,1359.08 1221.5,1357.5 Z"/></g>
<g><path style="opacity:1" fill="#e0f2f9" d="M 1256.5,1375.5 C 1322.07,1386.3 1387.4,1398.46 1452.5,1412C 1477.02,1417.25 1501.35,1423.25 1525.5,1430C 1529.45,1431.31 1533.11,1433.14 1536.5,1435.5C 1518.73,1436.38 1501.06,1435.21 1483.5,1432C 1432.2,1424.28 1381.2,1414.95 1330.5,1404C 1308.92,1399.22 1287.59,1393.55 1266.5,1387C 1262.19,1385.02 1258.02,1382.85 1254,1380.5C 1253.29,1378.04 1254.13,1376.38 1256.5,1375.5 Z"/></g>
<g><path style="opacity:1" fill="#c6e9f7" d="M 1168.5,1375.5 C 1170.86,1375.34 1173.19,1375.5 1175.5,1376C 1047,1402.76 922.003,1440.76 800.5,1490C 749.473,1511.18 700.806,1536.51 654.5,1566C 645.414,1572.42 636.914,1579.58 629,1587.5C 616.1,1602.14 614.1,1618.14 623,1635.5C 636.958,1653.9 654.791,1667.06 676.5,1675C 736.089,1690.93 796.756,1700.6 858.5,1704C 977.536,1709.08 1096.2,1704.41 1214.5,1690C 1360.78,1672.2 1505.11,1644.87 1647.5,1608C 1686.65,1597.62 1724.32,1583.28 1760.5,1565C 1770.99,1559.5 1779.83,1552 1787,1542.5C 1791.87,1531.1 1789.37,1521.6 1779.5,1514C 1766.2,1504.85 1751.87,1497.52 1736.5,1492C 1695.15,1478.83 1653.15,1468.16 1610.5,1460C 1603.87,1458.21 1597.2,1456.54 1590.5,1455C 1587.01,1453.78 1583.67,1452.28 1580.5,1450.5C 1586.81,1449.34 1593.14,1449.17 1599.5,1450C 1655.59,1456.18 1711.59,1463.18 1767.5,1471C 1833.53,1482.84 1899.53,1494.84 1965.5,1507C 1978.73,1510.73 1990.73,1516.73 2001.5,1525C 2010.6,1535.64 2010.76,1546.48 2002,1557.5C 1996.13,1565.04 1989.29,1571.54 1981.5,1577C 1956.77,1593.53 1930.44,1607.2 1902.5,1618C 1822.63,1648.51 1740.97,1673.18 1657.5,1692C 1407.3,1747.45 1153.96,1772.79 897.5,1768C 825.787,1765.66 754.787,1757.33 684.5,1743C 646.494,1734.99 609.828,1722.99 574.5,1707C 551.264,1696.76 530.43,1682.93 512,1665.5C 490.914,1639.33 491.58,1613.66 514,1588.5C 534.838,1570.33 557.338,1554.5 581.5,1541C 623.315,1518.09 666.648,1498.43 711.5,1482C 800.589,1450.44 891.589,1425.44 984.5,1407C 1045.69,1394.86 1107.03,1384.36 1168.5,1375.5 Z"/></g>
<g><path style="opacity:0.956" fill="#909069" d="M 2334.5,1377.5 C 2334.69,1438.2 2336.19,1498.86 2339,1559.5C 2343.23,1632.89 2348.23,1706.22 2354,1779.5C 2360.18,1875.05 2357.85,1970.39 2347,2065.5C 2340.35,2121.78 2326.35,2176.12 2305,2228.5C 2291.85,2258 2274.35,2284.5 2252.5,2308C 2228.46,2331.83 2199.8,2347.33 2166.5,2354.5C 2166.21,2352.26 2166.54,2350.26 2167.5,2348.5C 2167.79,2349.65 2168.62,2350.32 2170,2350.5C 2205.83,2341.67 2235.83,2323.34 2260,2295.5C 2278.11,2274.6 2292.11,2251.27 2302,2225.5C 2301.29,2226.38 2300.46,2227.05 2299.5,2227.5C 2305.55,2212.34 2311.22,2197.01 2316.5,2181.5C 2316.17,2181.17 2315.83,2180.83 2315.5,2180.5C 2313.19,2181.96 2310.86,2182.29 2308.5,2181.5C 2309.25,2180.26 2309.58,2178.93 2309.5,2177.5C 2310.17,2177.5 2310.5,2177.17 2310.5,2176.5C 2313.58,2176.2 2316.41,2175.2 2319,2173.5C 2322.15,2162.55 2324.82,2151.55 2327,2140.5C 2320.97,2144.43 2319.14,2143.1 2321.5,2136.5C 2323.94,2136.24 2326.27,2135.58 2328.5,2134.5C 2331.27,2124.98 2333.43,2115.31 2335,2105.5C 2335.63,2102.14 2335.96,2098.8 2336,2095.5C 2333.53,2096.6 2331.03,2097.6 2328.5,2098.5C 2328.52,2096.44 2328.85,2094.44 2329.5,2092.5C 2332.03,2091.6 2334.53,2090.6 2337,2089.5C 2340.12,2075.81 2341.95,2062.14 2342.5,2048.5C 2340.27,2049.58 2337.94,2050.24 2335.5,2050.5C 2335.5,2048.83 2335.5,2047.17 2335.5,2045.5C 2338.14,2044.51 2340.8,2043.51 2343.5,2042.5C 2345.83,2025.58 2347.49,2008.58 2348.5,1991.5C 2348.17,1990.5 2347.83,1989.5 2347.5,1988.5C 2345.21,1990.23 2342.71,1991.56 2340,1992.5C 2339.51,1990.87 2339.34,1989.2 2339.5,1987.5C 2339.5,1987.17 2339.5,1986.83 2339.5,1986.5C 2342.72,1985.29 2345.72,1983.62 2348.5,1981.5C 2349.87,1968.86 2350.37,1956.19 2350,1943.5C 2347.58,1944.96 2345.08,1946.29 2342.5,1947.5C 2341.55,1945.95 2341.21,1944.29 2341.5,1942.5C 2341.5,1942.17 2341.5,1941.83 2341.5,1941.5C 2345.23,1940.94 2348.4,1939.28 2351,1936.5C 2351.83,1923.15 2351.67,1909.82 2350.5,1896.5C 2347.85,1898.66 2344.85,1899.99 2341.5,1900.5C 2341.5,1898.83 2341.5,1897.17 2341.5,1895.5C 2344.72,1893.64 2347.89,1891.64 2351,1889.5C 2351.83,1874.82 2351.67,1860.16 2350.5,1845.5C 2347.66,1847.42 2344.66,1849.09 2341.5,1850.5C 2340.17,1848.5 2340.17,1846.5 2341.5,1844.5C 2344.17,1842.83 2346.83,1841.17 2349.5,1839.5C 2350.95,1824.45 2350.62,1809.45 2348.5,1794.5C 2345.67,1796.75 2342.67,1798.75 2339.5,1800.5C 2338.17,1798.5 2338.17,1796.5 2339.5,1794.5C 2342.47,1792.69 2345.31,1790.69 2348,1788.5C 2347.91,1771.12 2346.91,1753.78 2345,1736.5C 2342.63,1739.21 2339.96,1741.54 2337,1743.5C 2336.33,1741.5 2336.33,1739.5 2337,1737.5C 2342.85,1731.98 2345.35,1725.14 2344.5,1717C 2344.27,1709.74 2343.43,1702.58 2342,1695.5C 2340.1,1697.53 2337.94,1699.2 2335.5,1700.5C 2334.36,1698.58 2334.19,1696.58 2335,1694.5C 2337.67,1693.17 2339.67,1691.17 2341,1688.5C 2340.76,1675.5 2340.09,1662.5 2339,1649.5C 2338.81,1647.1 2338.31,1644.77 2337.5,1642.5C 2335.47,1643.84 2333.47,1645.18 2331.5,1646.5C 2331.19,1644.08 2331.53,1641.74 2332.5,1639.5C 2336.97,1636.6 2338.64,1632.44 2337.5,1627C 2336.33,1614.51 2335.33,1602.01 2334.5,1589.5C 2334.17,1588.5 2333.83,1587.5 2333.5,1586.5C 2329.49,1590.75 2327.82,1589.75 2328.5,1583.5C 2331.73,1582.44 2333.73,1580.27 2334.5,1577C 2333.68,1563.82 2332.68,1550.66 2331.5,1537.5C 2329.64,1538.26 2327.97,1539.26 2326.5,1540.5C 2325.66,1536.46 2326.99,1533.46 2330.5,1531.5C 2331.38,1513.5 2331.21,1495.5 2330,1477.5C 2324.74,1482.99 2322.74,1482.33 2324,1475.5C 2326,1474.17 2328,1472.83 2330,1471.5C 2330.07,1459.17 2329.74,1446.84 2329,1434.5C 2314.6,1443.8 2298.76,1448.13 2281.5,1447.5C 2269.79,1447.32 2258.46,1445.16 2247.5,1441C 2245.42,1440.3 2243.75,1439.14 2242.5,1437.5C 2243.6,1436.4 2244.94,1435.73 2246.5,1435.5C 2257.63,1439.49 2269.13,1441.82 2281,1442.5C 2283.69,1442.5 2286.19,1442.16 2288.5,1441.5C 2303.24,1441.14 2316.58,1436.81 2328.5,1428.5C 2329.48,1424.37 2329.82,1420.03 2329.5,1415.5C 2331.48,1403.88 2332.15,1391.88 2331.5,1379.5C 2331.97,1378.09 2332.97,1377.43 2334.5,1377.5 Z"/></g>
<g><path style="opacity:1" fill="#808058" d="M 2331.5,1379.5 C 2332.15,1391.88 2331.48,1403.88 2329.5,1415.5C 2328.67,1409.35 2328.17,1403.01 2328,1396.5C 2317.38,1402.87 2305.88,1406.54 2293.5,1407.5C 2295.98,1404.76 2298.98,1402.76 2302.5,1401.5C 2311.52,1399.66 2319.86,1396.16 2327.5,1391C 2328.45,1387.94 2328.78,1384.78 2328.5,1381.5C 2329.29,1380.6 2330.29,1379.93 2331.5,1379.5 Z"/></g>
<g><path style="opacity:1" fill="#a6a67f" d="M 2328.5,1381.5 C 2328.78,1384.78 2328.45,1387.94 2327.5,1391C 2319.86,1396.16 2311.52,1399.66 2302.5,1401.5C 2310.86,1394.48 2319.52,1387.81 2328.5,1381.5 Z"/></g>
<g><path style="opacity:1" fill="#a6a57e" d="M 2329.5,1415.5 C 2329.82,1420.03 2329.48,1424.37 2328.5,1428.5C 2328.5,1424.5 2328.5,1420.5 2328.5,1416.5C 2310.87,1418.36 2296.87,1426.36 2286.5,1440.5C 2286.96,1441.3 2287.62,1441.63 2288.5,1441.5C 2286.19,1442.16 2283.69,1442.5 2281,1442.5C 2269.13,1441.82 2257.63,1439.49 2246.5,1435.5C 2262.32,1426.42 2277.99,1417.09 2293.5,1407.5C 2305.88,1406.54 2317.38,1402.87 2328,1396.5C 2328.17,1403.01 2328.67,1409.35 2329.5,1415.5 Z"/></g>
<g><path style="opacity:1" fill="#8ac8e4" d="M 1216.5,1413.5 C 1231.84,1413.33 1247.17,1413.5 1262.5,1414C 1408.65,1443.5 1554.65,1473.5 1700.5,1504C 1708.4,1506.18 1715.73,1509.52 1722.5,1514C 1731.33,1521.15 1732.83,1529.65 1727,1539.5C 1717.54,1549.82 1706.04,1556.99 1692.5,1561C 1622.98,1584.05 1552.32,1602.71 1480.5,1617C 1320.48,1649.61 1158.82,1667.95 995.5,1672C 916.91,1673.82 838.577,1670.15 760.5,1661C 737.829,1657.89 715.829,1652.22 694.5,1644C 658.967,1629.33 654.967,1608.66 682.5,1582C 711.01,1559.56 742.01,1540.9 775.5,1526C 814.88,1507.65 855.547,1492.65 897.5,1481C 972.876,1458.74 1049.21,1440.41 1126.5,1426C 1156.56,1421.2 1186.56,1417.03 1216.5,1413.5 Z"/></g>
<g><path style="opacity:1" fill="#bebd9b" d="M 2328.5,1428.5 C 2316.58,1436.81 2303.24,1441.14 2288.5,1441.5C 2287.62,1441.63 2286.96,1441.3 2286.5,1440.5C 2296.87,1426.36 2310.87,1418.36 2328.5,1416.5C 2328.5,1420.5 2328.5,1424.5 2328.5,1428.5 Z"/></g>
<g><path style="opacity:1" fill="#84c5d7" d="M 1484.5,1464.5 C 1488.12,1465.66 1491.79,1466.66 1495.5,1467.5C 1515.63,1474.9 1533.96,1485.4 1550.5,1499C 1572.92,1520.46 1575.42,1543.96 1558,1569.5C 1545.1,1584.19 1529.93,1595.86 1512.5,1604.5C 1510.5,1605.17 1508.5,1605.83 1506.5,1606.5C 1319.7,1646.22 1130.7,1666.55 939.5,1667.5C 928.488,1667.37 917.488,1667.04 906.5,1666.5C 903.455,1666.49 900.455,1666.16 897.5,1665.5C 877.329,1660.92 858.662,1652.75 841.5,1641C 820.327,1621.81 815.493,1598.98 827,1572.5C 836.793,1553.36 850.293,1537.2 867.5,1524C 896.327,1502.25 927.327,1484.08 960.5,1469.5C 964.495,1468.17 968.495,1466.83 972.5,1465.5C 1023.78,1452.51 1075.45,1441.01 1127.5,1431C 1164.49,1423.88 1201.82,1419.71 1239.5,1418.5C 1252.96,1418.28 1266.29,1419.45 1279.5,1422C 1347.86,1436.19 1416.19,1450.35 1484.5,1464.5 Z"/></g>
<g><path style="opacity:1" fill="#a6a57d" d="M 2242.5,1437.5 C 2243.75,1439.14 2245.42,1440.3 2247.5,1441C 2258.46,1445.16 2269.79,1447.32 2281.5,1447.5C 2277.69,1456.25 2275.69,1465.42 2275.5,1475C 2275.6,1478.43 2276.26,1481.6 2277.5,1484.5C 2262.33,1483.72 2248.83,1478.72 2237,1469.5C 2236.08,1460.19 2235.58,1450.85 2235.5,1441.5C 2237.64,1439.93 2239.97,1438.6 2242.5,1437.5 Z"/></g>
<g><path style="opacity:1" fill="#71b8d6" d="M 1506.5,1606.5 C 1508.5,1605.83 1510.5,1605.17 1512.5,1604.5C 1571.98,1591.8 1630.65,1575.96 1688.5,1557C 1697.54,1553.77 1706.21,1549.77 1714.5,1545C 1720.44,1540.92 1724.1,1535.42 1725.5,1528.5C 1725.02,1524.71 1723.35,1521.54 1720.5,1519C 1715.06,1514.95 1709.06,1511.95 1702.5,1510C 1633.52,1495.67 1564.52,1481.5 1495.5,1467.5C 1491.79,1466.66 1488.12,1465.66 1484.5,1464.5C 1478.71,1462.38 1472.71,1460.55 1466.5,1459C 1544.86,1474.45 1623.19,1490.45 1701.5,1507C 1736.01,1519.42 1737.35,1534.75 1705.5,1553C 1665.23,1567.99 1624.23,1580.65 1582.5,1591C 1555.85,1597.45 1529.18,1603.45 1502.5,1609C 1504.07,1608.39 1505.4,1607.56 1506.5,1606.5 Z"/></g>
<g><path style="opacity:1" fill="#72b8d6" d="M 972.5,1465.5 C 968.495,1466.83 964.495,1468.17 960.5,1469.5C 899.774,1483.91 840.774,1503.41 783.5,1528C 756.745,1540.21 731.078,1554.21 706.5,1570C 694.094,1578.07 683.261,1587.9 674,1599.5C 666.613,1611.37 668.447,1621.54 679.5,1630C 690.35,1637.06 702.016,1642.4 714.5,1646C 736.519,1651.75 758.852,1655.75 781.5,1658C 820.052,1662.35 858.718,1664.85 897.5,1665.5C 900.455,1666.16 903.455,1666.49 906.5,1666.5C 909.023,1667.38 911.69,1668.22 914.5,1669C 854.126,1668.41 794.126,1663.41 734.5,1654C 714.748,1650.53 696.415,1643.53 679.5,1633C 664.036,1621.49 662.536,1608.33 675,1593.5C 691.445,1576.87 709.945,1563.03 730.5,1552C 761.443,1534.86 793.443,1519.86 826.5,1507C 877.092,1489.19 928.425,1474.19 980.5,1462C 977.691,1463.09 975.024,1464.26 972.5,1465.5 Z"/></g>
<g><path style="opacity:0.886" fill="#8f8f68" d="M 2233.5,1442.5 C 2235.63,1558.49 2237.47,1674.49 2239,1790.5C 2239.81,1868.84 2239.64,1947.18 2238.5,2025.5C 2236.42,2059.06 2229.92,2091.73 2219,2123.5C 2210.05,2148.44 2195.88,2169.77 2176.5,2187.5C 2176.5,2186.5 2176.5,2185.5 2176.5,2184.5C 2176.5,2184.17 2176.5,2183.83 2176.5,2183.5C 2193.54,2167.12 2206.37,2147.79 2215,2125.5C 2226.26,2095.18 2232.93,2063.84 2235,2031.5C 2236.46,1952.81 2236.96,1874.31 2236.5,1796C 2234.44,1678.62 2232.44,1561.46 2230.5,1444.5C 2230.97,1443.09 2231.97,1442.43 2233.5,1442.5 Z"/></g>
<g><path style="opacity:1" fill="#6db5ca" d="M 1495.5,1467.5 C 1564.52,1481.5 1633.52,1495.67 1702.5,1510C 1709.06,1511.95 1715.06,1514.95 1720.5,1519C 1723.35,1521.54 1725.02,1524.71 1725.5,1528.5C 1724.1,1535.42 1720.44,1540.92 1714.5,1545C 1706.21,1549.77 1697.54,1553.77 1688.5,1557C 1630.65,1575.96 1571.98,1591.8 1512.5,1604.5C 1529.93,1595.86 1545.1,1584.19 1558,1569.5C 1575.42,1543.96 1572.92,1520.46 1550.5,1499C 1533.96,1485.4 1515.63,1474.9 1495.5,1467.5 Z"/></g>
<g><path style="opacity:1" fill="#6db5ca" d="M 960.5,1469.5 C 927.327,1484.08 896.327,1502.25 867.5,1524C 850.293,1537.2 836.793,1553.36 827,1572.5C 815.493,1598.98 820.327,1621.81 841.5,1641C 858.662,1652.75 877.329,1660.92 897.5,1665.5C 858.718,1664.85 820.052,1662.35 781.5,1658C 758.852,1655.75 736.519,1651.75 714.5,1646C 702.016,1642.4 690.35,1637.06 679.5,1630C 668.447,1621.54 666.613,1611.37 674,1599.5C 683.261,1587.9 694.094,1578.07 706.5,1570C 731.078,1554.21 756.745,1540.21 783.5,1528C 840.774,1503.41 899.774,1483.91 960.5,1469.5 Z"/></g>
<g><path style="opacity:1" fill="#99d1ea" d="M 2029.5,1979.5 C 2103.04,1908.72 2139.54,1822.05 2139,1719.5C 2138.17,1686.33 2128.17,1656.33 2109,1629.5C 2086.56,1604.94 2059.39,1597.78 2027.5,1608C 1976.61,1631.35 1924.28,1650.85 1870.5,1666.5C 1913.16,1651.84 1954.16,1633.34 1993.5,1611C 2012.34,1599.65 2029.18,1585.82 2044,1569.5C 2058.74,1552.21 2063.57,1532.54 2058.5,1510.5C 2077.33,1507.23 2091,1496.89 2099.5,1479.5C 2112.97,1478.48 2126.31,1476.48 2139.5,1473.5C 2140.5,1473.83 2141.5,1474.17 2142.5,1474.5C 2197.67,1579.52 2206.17,1688.18 2168,1800.5C 2152.46,1843.61 2129.8,1882.28 2100,1916.5C 2078.1,1939.58 2054.6,1960.58 2029.5,1979.5 Z"/></g>
<g><path style="opacity:1" fill="#a6a57d" d="M 2275.5,1489.5 C 2276.37,1507.48 2276.7,1525.48 2276.5,1543.5C 2262.05,1542.8 2249.39,1537.8 2238.5,1528.5C 2237.7,1513.87 2237.03,1499.2 2236.5,1484.5C 2236.83,1481.83 2237.17,1479.17 2237.5,1476.5C 2249.03,1484.01 2261.7,1488.34 2275.5,1489.5 Z"/></g>
<g><path style="opacity:1" fill="#e0f2f9" d="M 1803.5,1490.5 C 1816.57,1490.79 1829.57,1491.96 1842.5,1494C 1874.62,1498.92 1906.29,1505.58 1937.5,1514C 1953.27,1521.17 1955.77,1531.67 1945,1545.5C 1935.36,1554.81 1924.86,1562.98 1913.5,1570C 1873.16,1592.01 1831.16,1610.34 1787.5,1625C 1666.17,1664.58 1542.51,1694.91 1416.5,1716C 1318.7,1732.02 1220.36,1743.68 1121.5,1751C 1025.74,1757.89 930.073,1756.89 834.5,1748C 769.582,1741.82 705.915,1729.48 643.5,1711C 606.001,1699.62 570.667,1683.62 537.5,1663C 530.404,1657.91 523.904,1652.07 518,1645.5C 508.42,1632.43 508.087,1619.1 517,1605.5C 526.486,1593.02 537.653,1582.18 550.5,1573C 572.57,1558.3 595.904,1546.3 620.5,1537C 603.725,1549.77 591.558,1565.93 584,1585.5C 580.126,1602.32 582.792,1617.99 592,1632.5C 606.255,1651.42 624.088,1665.92 645.5,1676C 688.782,1696.16 734.116,1709.49 781.5,1716C 848.517,1725.3 915.85,1728.63 983.5,1726C 1134.04,1716.34 1284.04,1701.34 1433.5,1681C 1518.23,1668.65 1601.56,1650.32 1683.5,1626C 1714.97,1615.51 1745.97,1603.85 1776.5,1591C 1795.97,1582.44 1814.3,1572.11 1831.5,1560C 1836.41,1555.76 1840.58,1550.92 1844,1545.5C 1846.45,1538.5 1845.79,1531.83 1842,1525.5C 1837.42,1520.25 1832.26,1515.75 1826.5,1512C 1817.04,1506.96 1808.38,1500.96 1800.5,1494C 1801.07,1492.4 1802.07,1491.23 1803.5,1490.5 Z"/></g>
<g><path style="opacity:1" fill="#77bad9" d="M 2058.5,1510.5 C 2063.57,1532.54 2058.74,1552.21 2044,1569.5C 2029.18,1585.82 2012.34,1599.65 1993.5,1611C 1954.16,1633.34 1913.16,1651.84 1870.5,1666.5C 1851.4,1672.98 1832.07,1678.64 1812.5,1683.5C 1811.45,1683.65 1810.45,1683.48 1809.5,1683C 1853,1670.05 1895.67,1654.72 1937.5,1637C 1963.42,1625.38 1988.09,1611.71 2011.5,1596C 2027.42,1584.75 2040.59,1570.91 2051,1554.5C 2058.99,1540.48 2060.49,1525.81 2055.5,1510.5C 2056.42,1509.44 2057.42,1509.44 2058.5,1510.5 Z"/></g>
<g><path style="opacity:1" fill="#84845b" d="M 2235.5,1441.5 C 2235.58,1450.85 2236.08,1460.19 2237,1469.5C 2248.83,1478.72 2262.33,1483.72 2277.5,1484.5C 2287.22,1484.54 2296.89,1483.87 2306.5,1482.5C 2306.5,1484.17 2306.5,1485.83 2306.5,1487.5C 2306.17,1487.5 2305.83,1487.5 2305.5,1487.5C 2303.91,1488.15 2302.25,1488.65 2300.5,1489C 2292.17,1489.5 2283.84,1489.67 2275.5,1489.5C 2261.7,1488.34 2249.03,1484.01 2237.5,1476.5C 2237.17,1479.17 2236.83,1481.83 2236.5,1484.5C 2237.03,1499.2 2237.7,1513.87 2238.5,1528.5C 2249.39,1537.8 2262.05,1542.8 2276.5,1543.5C 2286.2,1543.73 2295.87,1543.39 2305.5,1542.5C 2305.5,1544.17 2305.5,1545.83 2305.5,1547.5C 2302.21,1548.21 2298.88,1548.54 2295.5,1548.5C 2280.4,1549.86 2265.73,1548.02 2251.5,1543C 2246.41,1541.04 2241.91,1538.21 2238,1534.5C 2237.27,1549.52 2237.6,1564.52 2239,1579.5C 2250.41,1588.92 2263.58,1593.92 2278.5,1594.5C 2288.24,1594.69 2297.91,1594.03 2307.5,1592.5C 2307.5,1594.17 2307.5,1595.83 2307.5,1597.5C 2297.92,1599.14 2288.25,1599.81 2278.5,1599.5C 2264.05,1598.93 2250.88,1594.6 2239,1586.5C 2238.83,1589.17 2238.67,1591.83 2238.5,1594.5C 2238.87,1607.92 2239.7,1621.26 2241,1634.5C 2251.99,1644.07 2264.82,1649.41 2279.5,1650.5C 2289.91,1650.85 2300.25,1650.18 2310.5,1648.5C 2310.5,1650.17 2310.5,1651.83 2310.5,1653.5C 2300.6,1655.25 2290.6,1655.92 2280.5,1655.5C 2265.37,1654.74 2251.87,1649.74 2240,1640.5C 2226.79,1680.34 2240.63,1702.34 2281.5,1706.5C 2291.91,1706.8 2302.24,1706.13 2312.5,1704.5C 2312.5,1706.17 2312.5,1707.83 2312.5,1709.5C 2302.59,1711.21 2292.59,1711.88 2282.5,1711.5C 2266.83,1710.78 2253,1705.45 2241,1695.5C 2240.33,1707.5 2240.33,1719.5 2241,1731.5C 2246.67,1739.26 2254.17,1744.42 2263.5,1747C 2269.71,1748.88 2276.05,1750.04 2282.5,1750.5C 2293.24,1750.76 2303.9,1750.1 2314.5,1748.5C 2314.86,1750.77 2314.19,1752.6 2312.5,1754C 2302.88,1755.29 2293.21,1755.79 2283.5,1755.5C 2268.36,1755.09 2254.69,1750.43 2242.5,1741.5C 2241.33,1758.16 2241.17,1774.82 2242,1791.5C 2254.93,1799.76 2269.1,1804.09 2284.5,1804.5C 2295.25,1804.9 2305.92,1804.24 2316.5,1802.5C 2316.5,1804.5 2316.5,1806.5 2316.5,1808.5C 2306.55,1809.83 2296.55,1810.5 2286.5,1810.5C 2270.8,1809.53 2255.97,1805.2 2242,1797.5C 2241.33,1809.5 2241.33,1821.5 2242,1833.5C 2254.68,1843.68 2269.18,1849.68 2285.5,1851.5C 2285.5,1853.17 2285.5,1854.83 2285.5,1856.5C 2270.19,1855.06 2256.19,1850.06 2243.5,1841.5C 2242.18,1856.4 2242.18,1871.23 2243.5,1886C 2256.31,1895.33 2270.65,1900.83 2286.5,1902.5C 2286.83,1902.5 2287.17,1902.5 2287.5,1902.5C 2287.5,1904.17 2287.5,1905.83 2287.5,1907.5C 2270.99,1906.61 2256.16,1901.28 2243,1891.5C 2242.33,1904.17 2242.33,1916.83 2243,1929.5C 2256.11,1940.6 2271.27,1946.93 2288.5,1948.5C 2298.8,1949.68 2309.14,1949.68 2319.5,1948.5C 2319.5,1950.17 2319.5,1951.83 2319.5,1953.5C 2309.54,1954.42 2299.54,1954.76 2289.5,1954.5C 2272.62,1952.15 2257.12,1946.15 2243,1936.5C 2242.33,1949.5 2242.33,1962.5 2243,1975.5C 2256.11,1986.49 2271.28,1992.49 2288.5,1993.5C 2298.5,1994.75 2308.5,1994.75 2318.5,1993.5C 2318.5,1995.17 2318.5,1996.83 2318.5,1998.5C 2318.17,1998.5 2317.83,1998.5 2317.5,1998.5C 2309.2,1999.33 2300.86,1999.67 2292.5,1999.5C 2274.63,1998.43 2258.3,1992.77 2243.5,1982.5C 2242.32,1995.15 2241.82,2007.82 2242,2020.5C 2253.64,2033.58 2268.14,2041.91 2285.5,2045.5C 2295.01,2047.87 2304.68,2048.87 2314.5,2048.5C 2314.5,2050.17 2314.5,2051.83 2314.5,2053.5C 2304.02,2053.87 2293.69,2052.87 2283.5,2050.5C 2267.34,2046.25 2253,2038.58 2240.5,2027.5C 2240.17,2026.5 2239.5,2025.83 2238.5,2025.5C 2239.64,1947.18 2239.81,1868.84 2239,1790.5C 2237.47,1674.49 2235.63,1558.49 2233.5,1442.5C 2233.84,1441.66 2234.51,1441.33 2235.5,1441.5 Z"/></g>
<g><path style="opacity:1" fill="#a6a57d" d="M 2295.5,1548.5 C 2289.69,1549.49 2283.69,1549.82 2277.5,1549.5C 2277.8,1564.5 2278.14,1579.5 2278.5,1594.5C 2263.58,1593.92 2250.41,1588.92 2239,1579.5C 2237.6,1564.52 2237.27,1549.52 2238,1534.5C 2241.91,1538.21 2246.41,1541.04 2251.5,1543C 2265.73,1548.02 2280.4,1549.86 2295.5,1548.5 Z"/></g>
<g><path style="opacity:1" fill="#bebd9b" d="M 2328.5,1583.5 C 2327.81,1569.17 2327.15,1554.84 2326.5,1540.5C 2327.97,1539.26 2329.64,1538.26 2331.5,1537.5C 2332.68,1550.66 2333.68,1563.82 2334.5,1577C 2333.73,1580.27 2331.73,1582.44 2328.5,1583.5 Z"/></g>
<g><path style="opacity:1" fill="#e1e0c0" d="M 2326.5,1540.5 C 2327.15,1554.84 2327.81,1569.17 2328.5,1583.5C 2322.27,1588.11 2315.27,1590.78 2307.5,1591.5C 2306.59,1576.83 2306.59,1562.16 2307.5,1547.5C 2314.08,1545.75 2320.41,1543.42 2326.5,1540.5 Z"/></g>
<g><path style="opacity:1" fill="#bfbe9c" d="M 2326.5,1540.5 C 2320.41,1543.42 2314.08,1545.75 2307.5,1547.5C 2306.59,1562.16 2306.59,1576.83 2307.5,1591.5C 2315.27,1590.78 2322.27,1588.11 2328.5,1583.5C 2327.82,1589.75 2329.49,1590.75 2333.5,1586.5C 2333.83,1587.5 2334.17,1588.5 2334.5,1589.5C 2335.33,1602.01 2336.33,1614.51 2337.5,1627C 2338.64,1632.44 2336.97,1636.6 2332.5,1639.5C 2331.53,1641.74 2331.19,1644.08 2331.5,1646.5C 2324.98,1650.23 2317.98,1652.56 2310.5,1653.5C 2310.5,1651.83 2310.5,1650.17 2310.5,1648.5C 2300.25,1650.18 2289.91,1650.85 2279.5,1650.5C 2279.29,1633.5 2278.95,1616.5 2278.5,1599.5C 2288.25,1599.81 2297.92,1599.14 2307.5,1597.5C 2307.5,1595.83 2307.5,1594.17 2307.5,1592.5C 2297.91,1594.03 2288.24,1594.69 2278.5,1594.5C 2278.14,1579.5 2277.8,1564.5 2277.5,1549.5C 2283.69,1549.82 2289.69,1549.49 2295.5,1548.5C 2298.88,1548.54 2302.21,1548.21 2305.5,1547.5C 2305.5,1545.83 2305.5,1544.17 2305.5,1542.5C 2295.87,1543.39 2286.2,1543.73 2276.5,1543.5C 2276.7,1525.48 2276.37,1507.48 2275.5,1489.5C 2283.84,1489.67 2292.17,1489.5 2300.5,1489C 2302.25,1488.65 2303.91,1488.15 2305.5,1487.5C 2305.5,1505.5 2305.5,1523.5 2305.5,1541.5C 2312.2,1540.43 2318.53,1538.27 2324.5,1535C 2325.15,1531.75 2325.48,1528.42 2325.5,1525C 2324.91,1513.17 2324.41,1501.34 2324,1489.5C 2323.81,1487.1 2323.31,1484.77 2322.5,1482.5C 2317.41,1484.98 2312.07,1486.64 2306.5,1487.5C 2306.5,1485.83 2306.5,1484.17 2306.5,1482.5C 2296.89,1483.87 2287.22,1484.54 2277.5,1484.5C 2276.26,1481.6 2275.6,1478.43 2275.5,1475C 2275.69,1465.42 2277.69,1456.25 2281.5,1447.5C 2298.76,1448.13 2314.6,1443.8 2329,1434.5C 2329.74,1446.84 2330.07,1459.17 2330,1471.5C 2328,1472.83 2326,1474.17 2324,1475.5C 2322.74,1482.33 2324.74,1482.99 2330,1477.5C 2331.21,1495.5 2331.38,1513.5 2330.5,1531.5C 2326.99,1533.46 2325.66,1536.46 2326.5,1540.5 Z"/></g>
<g><path style="opacity:1" fill="#e1e0c0" d="M 2305.5,1487.5 C 2305.83,1487.5 2306.17,1487.5 2306.5,1487.5C 2312.07,1486.64 2317.41,1484.98 2322.5,1482.5C 2323.31,1484.77 2323.81,1487.1 2324,1489.5C 2324.41,1501.34 2324.91,1513.17 2325.5,1525C 2325.48,1528.42 2325.15,1531.75 2324.5,1535C 2318.53,1538.27 2312.2,1540.43 2305.5,1541.5C 2305.5,1523.5 2305.5,1505.5 2305.5,1487.5 Z"/></g>
<g><path style="opacity:1" fill="#e1e0c0" d="M 2312.5,1458.5 C 2320.78,1461.73 2323.78,1467.73 2321.5,1476.5C 2316.77,1479.03 2311.77,1480.7 2306.5,1481.5C 2306.35,1473.18 2308.35,1465.52 2312.5,1458.5 Z"/></g>
<g><path style="opacity:1" fill="#a6a57d" d="M 2278.5,1599.5 C 2278.95,1616.5 2279.29,1633.5 2279.5,1650.5C 2264.82,1649.41 2251.99,1644.07 2241,1634.5C 2239.7,1621.26 2238.87,1607.92 2238.5,1594.5C 2238.67,1591.83 2238.83,1589.17 2239,1586.5C 2250.88,1594.6 2264.05,1598.93 2278.5,1599.5 Z"/></g>
<g><path style="opacity:1" fill="#e1e0c0" d="M 2310.5,1648.5 C 2309.43,1631.52 2308.76,1614.52 2308.5,1597.5C 2315.46,1596.44 2321.96,1594.1 2328,1590.5C 2329.8,1607.13 2330.46,1623.79 2330,1640.5C 2323.95,1644.24 2317.45,1646.91 2310.5,1648.5 Z"/></g>
<g><path style="opacity:1" fill="#b3e2f7" d="M 2029.5,1979.5 C 2022.83,1984.83 2016.17,1990.17 2009.5,1995.5C 1931.06,2050.06 1846.72,2094.23 1756.5,2128C 1596.08,2187.35 1430.42,2220.68 1259.5,2228C 1074.4,2238.64 902.07,2197.31 742.5,2104C 681.158,2067.35 626.991,2021.85 580,1967.5C 518.176,1893.15 480.176,1807.82 466,1711.5C 465.333,1702.17 465.333,1692.83 466,1683.5C 466.928,1675.72 469.262,1668.38 473,1661.5C 474.69,1658.98 476.857,1656.98 479.5,1655.5C 487.519,1676.34 500.519,1693.51 518.5,1707C 542.83,1725.17 569.496,1739.17 598.5,1749C 659.92,1769.36 722.92,1782.02 787.5,1787C 863.714,1793.18 940.048,1795.18 1016.5,1793C 1224.2,1786.46 1430.2,1764.46 1634.5,1727C 1694.61,1715.31 1753.94,1700.81 1812.5,1683.5C 1832.07,1678.64 1851.4,1672.98 1870.5,1666.5C 1924.28,1650.85 1976.61,1631.35 2027.5,1608C 2059.39,1597.78 2086.56,1604.94 2109,1629.5C 2128.17,1656.33 2138.17,1686.33 2139,1719.5C 2139.54,1822.05 2103.04,1908.72 2029.5,1979.5 Z"/></g>
<g><path style="opacity:1" fill="#a6a57d" d="M 2280.5,1655.5 C 2280.53,1672.51 2280.86,1689.51 2281.5,1706.5C 2240.63,1702.34 2226.79,1680.34 2240,1640.5C 2251.87,1649.74 2265.37,1654.74 2280.5,1655.5 Z"/></g>
<g><path style="opacity:1" fill="#e1e0c0" d="M 2331.5,1646.5 C 2332.62,1662.82 2333.12,1679.15 2333,1695.5C 2326.97,1700.23 2320.14,1702.9 2312.5,1703.5C 2312,1686.82 2311.33,1670.15 2310.5,1653.5C 2317.98,1652.56 2324.98,1650.23 2331.5,1646.5 Z"/></g>
<g><path style="opacity:1" fill="#c7e9f7" d="M 2004.5,1652.5 C 2027.81,1652.25 2043.98,1662.91 2053,1684.5C 2058.14,1698.87 2060.97,1713.7 2061.5,1729C 2060.33,1762.5 2053.17,1794.66 2040,1825.5C 2014,1882.64 1977.83,1932.48 1931.5,1975C 1866.1,2033.23 1792.44,2078.56 1710.5,2111C 1616.78,2147.26 1520.11,2172.26 1420.5,2186C 1328.52,2199.02 1236.18,2202.36 1143.5,2196C 1041.46,2188.75 945.128,2161.75 854.5,2115C 783.905,2077.08 725.071,2025.58 678,1960.5C 661.191,1936.45 647.191,1910.78 636,1883.5C 632.378,1873.01 629.378,1862.34 627,1851.5C 625.169,1835.66 631.336,1824.16 645.5,1817C 651.024,1814.87 656.691,1813.2 662.5,1812C 672.833,1811.33 683.167,1811.33 693.5,1812C 997.325,1851.9 1299.32,1841.23 1599.5,1780C 1711.34,1756.38 1820.67,1724.38 1927.5,1684C 1949.2,1675.44 1970.53,1666.1 1991.5,1656C 1996.04,1655.13 2000.37,1653.97 2004.5,1652.5 Z"/></g>
<g><path style="opacity:1" fill="#a6a57d" d="M 2282.5,1711.5 C 2282.5,1724.5 2282.5,1737.5 2282.5,1750.5C 2276.05,1750.04 2269.71,1748.88 2263.5,1747C 2254.17,1744.42 2246.67,1739.26 2241,1731.5C 2240.33,1719.5 2240.33,1707.5 2241,1695.5C 2253,1705.45 2266.83,1710.78 2282.5,1711.5 Z"/></g>
<g><path style="opacity:1" fill="#a6a57d" d="M 2283.5,1755.5 C 2283.43,1771.84 2283.77,1788.18 2284.5,1804.5C 2269.1,1804.09 2254.93,1799.76 2242,1791.5C 2241.17,1774.82 2241.33,1758.16 2242.5,1741.5C 2254.69,1750.43 2268.36,1755.09 2283.5,1755.5 Z"/></g>
<g><path style="opacity:1" fill="#e0f2f9" d="M 1847.5,1746.5 C 1857.84,1746.33 1868.17,1746.5 1878.5,1747C 1901.48,1749.81 1911.32,1762.65 1908,1785.5C 1895.8,1840.23 1872.13,1889.23 1837,1932.5C 1796.89,1980.29 1749.39,2018.79 1694.5,2048C 1632.3,2079.96 1566.96,2102.96 1498.5,2117C 1404.8,2136.35 1310.13,2143.69 1214.5,2139C 1117.9,2132.42 1026.23,2107.75 939.5,2065C 892.917,2041.11 851.417,2010.28 815,1972.5C 803.699,1959.52 794.366,1945.18 787,1929.5C 771.082,1893.84 781.916,1871.67 819.5,1863C 829.468,1861.62 839.468,1861.29 849.5,1862C 933.241,1871.18 1017.24,1874.84 1101.5,1873C 1272.33,1872.5 1440.99,1853.5 1607.5,1816C 1674.46,1800.4 1740.13,1780.4 1804.5,1756C 1818.81,1752.11 1833.15,1748.94 1847.5,1746.5 Z"/></g>
<g><path style="opacity:1" fill="#bfbe9c" d="M 2341.5,1895.5 C 2341.5,1880.83 2341.5,1866.17 2341.5,1851.5C 2334.01,1853.96 2326.34,1855.62 2318.5,1856.5C 2318.5,1854.83 2318.5,1853.17 2318.5,1851.5C 2307.49,1852.77 2296.49,1852.77 2285.5,1851.5C 2285.36,1841.83 2285.03,1832.16 2284.5,1822.5C 2284.51,1818.11 2285.18,1814.11 2286.5,1810.5C 2296.55,1810.5 2306.55,1809.83 2316.5,1808.5C 2316.5,1806.5 2316.5,1804.5 2316.5,1802.5C 2305.92,1804.24 2295.25,1804.9 2284.5,1804.5C 2283.77,1788.18 2283.43,1771.84 2283.5,1755.5C 2293.21,1755.79 2302.88,1755.29 2312.5,1754C 2314.19,1752.6 2314.86,1750.77 2314.5,1748.5C 2303.9,1750.1 2293.24,1750.76 2282.5,1750.5C 2282.5,1737.5 2282.5,1724.5 2282.5,1711.5C 2292.59,1711.88 2302.59,1711.21 2312.5,1709.5C 2312.5,1707.83 2312.5,1706.17 2312.5,1704.5C 2302.24,1706.13 2291.91,1706.8 2281.5,1706.5C 2280.86,1689.51 2280.53,1672.51 2280.5,1655.5C 2290.6,1655.92 2300.6,1655.25 2310.5,1653.5C 2311.33,1670.15 2312,1686.82 2312.5,1703.5C 2320.14,1702.9 2326.97,1700.23 2333,1695.5C 2333.12,1679.15 2332.62,1662.82 2331.5,1646.5C 2333.47,1645.18 2335.47,1643.84 2337.5,1642.5C 2338.31,1644.77 2338.81,1647.1 2339,1649.5C 2340.09,1662.5 2340.76,1675.5 2341,1688.5C 2339.67,1691.17 2337.67,1693.17 2335,1694.5C 2334.19,1696.58 2334.36,1698.58 2335.5,1700.5C 2337.94,1699.2 2340.1,1697.53 2342,1695.5C 2343.43,1702.58 2344.27,1709.74 2344.5,1717C 2345.35,1725.14 2342.85,1731.98 2337,1737.5C 2336.33,1739.5 2336.33,1741.5 2337,1743.5C 2339.96,1741.54 2342.63,1739.21 2345,1736.5C 2346.91,1753.78 2347.91,1771.12 2348,1788.5C 2345.31,1790.69 2342.47,1792.69 2339.5,1794.5C 2338.17,1796.5 2338.17,1798.5 2339.5,1800.5C 2342.67,1798.75 2345.67,1796.75 2348.5,1794.5C 2350.62,1809.45 2350.95,1824.45 2349.5,1839.5C 2346.83,1841.17 2344.17,1842.83 2341.5,1844.5C 2340.17,1846.5 2340.17,1848.5 2341.5,1850.5C 2344.66,1849.09 2347.66,1847.42 2350.5,1845.5C 2351.67,1860.16 2351.83,1874.82 2351,1889.5C 2347.89,1891.64 2344.72,1893.64 2341.5,1895.5 Z"/></g>
<g><path style="opacity:1" fill="#e1e0c0" d="M 2316.5,1802.5 C 2316.14,1786.14 2316.14,1769.81 2316.5,1753.5C 2323.16,1751.61 2329.49,1748.95 2335.5,1745.5C 2337.52,1762.13 2337.85,1778.8 2336.5,1795.5C 2330.1,1798.63 2323.43,1800.97 2316.5,1802.5 Z"/></g>
<g><path style="opacity:1" fill="#e1e0c0" d="M 2331.5,1702.5 C 2332.5,1702.5 2333.5,1702.5 2334.5,1702.5C 2334.76,1714.51 2334.93,1726.51 2335,1738.5C 2328.86,1742.99 2322.02,1745.99 2314.5,1747.5C 2314.04,1734.84 2313.71,1722.17 2313.5,1709.5C 2320.04,1708.33 2326.04,1705.99 2331.5,1702.5 Z"/></g>
<g><path style="opacity:1" fill="#a6a57d" d="M 2286.5,1810.5 C 2285.18,1814.11 2284.51,1818.11 2284.5,1822.5C 2285.03,1832.16 2285.36,1841.83 2285.5,1851.5C 2269.18,1849.68 2254.68,1843.68 2242,1833.5C 2241.33,1821.5 2241.33,1809.5 2242,1797.5C 2255.97,1805.2 2270.8,1809.53 2286.5,1810.5 Z"/></g>
<g><path style="opacity:1" fill="#e1e0c0" d="M 2318.5,1851.5 C 2318.28,1836.83 2317.94,1822.16 2317.5,1807.5C 2325.1,1806.43 2332.44,1804.43 2339.5,1801.5C 2339.83,1816.18 2339.5,1830.85 2338.5,1845.5C 2331.99,1848.13 2325.33,1850.13 2318.5,1851.5 Z"/></g>
<g><path style="opacity:1" fill="#a6a57d" d="M 2285.5,1856.5 C 2287.1,1856.23 2288.43,1856.57 2289.5,1857.5C 2288.5,1857.5 2287.5,1857.5 2286.5,1857.5C 2286.5,1872.5 2286.5,1887.5 2286.5,1902.5C 2270.65,1900.83 2256.31,1895.33 2243.5,1886C 2242.18,1871.23 2242.18,1856.4 2243.5,1841.5C 2256.19,1850.06 2270.19,1855.06 2285.5,1856.5 Z"/></g>
<g><path style="opacity:1" fill="#91916a" d="M 2285.5,1851.5 C 2296.49,1852.77 2307.49,1852.77 2318.5,1851.5C 2318.5,1853.17 2318.5,1854.83 2318.5,1856.5C 2318.5,1856.83 2318.5,1857.17 2318.5,1857.5C 2308.83,1857.5 2299.17,1857.5 2289.5,1857.5C 2288.43,1856.57 2287.1,1856.23 2285.5,1856.5C 2285.5,1854.83 2285.5,1853.17 2285.5,1851.5 Z"/></g>
<g><path style="opacity:1" fill="#e1e0c0" d="M 2341.5,1895.5 C 2334.45,1898.52 2327.12,1900.52 2319.5,1901.5C 2319.68,1886.82 2319.35,1872.15 2318.5,1857.5C 2318.5,1857.17 2318.5,1856.83 2318.5,1856.5C 2326.34,1855.62 2334.01,1853.96 2341.5,1851.5C 2341.5,1866.17 2341.5,1880.83 2341.5,1895.5 Z"/></g>
<g><path style="opacity:1" fill="#77bad9" d="M 2148.5,1469.5 C 2147.05,1470.3 2145.38,1470.8 2143.5,1471C 2201.79,1580.65 2209.63,1693.81 2167,1810.5C 2159.83,1827.68 2151.99,1844.51 2143.5,1861C 2153.84,1900.88 2161.01,1941.38 2165,1982.5C 2172.9,2065.66 2175.57,2148.99 2173,2232.5C 2172.44,2283.89 2167.77,2334.89 2159,2385.5C 2148.51,2443.12 2126.51,2495.79 2093,2543.5C 2069.92,2573.91 2042.92,2600.25 2012,2622.5C 2011.53,2621.42 2011.7,2620.42 2012.5,2619.5C 2021.46,2612.54 2030.13,2605.21 2038.5,2597.5C 2089.69,2553.84 2124.86,2499.5 2144,2434.5C 2159.42,2378.56 2167.75,2321.56 2169,2263.5C 2171.24,2191.49 2170.9,2119.49 2168,2047.5C 2165.13,2001.2 2159.8,1955.2 2152,1909.5C 2149.67,1895.19 2146.34,1881.19 2142,1867.5C 2130.88,1885.96 2118.21,1903.29 2104,1919.5C 2075.34,1949.35 2044.51,1976.35 2011.5,2000.5C 2008.69,2002.41 2005.69,2004.07 2002.5,2005.5C 1998.52,2007.33 1994.52,2008.83 1990.5,2010C 1997.26,2005.63 2003.6,2000.8 2009.5,1995.5C 2016.17,1990.17 2022.83,1984.83 2029.5,1979.5C 2054.6,1960.58 2078.1,1939.58 2100,1916.5C 2129.8,1882.28 2152.46,1843.61 2168,1800.5C 2206.17,1688.18 2197.67,1579.52 2142.5,1474.5C 2141.5,1474.17 2140.5,1473.83 2139.5,1473.5C 2126.31,1476.48 2112.97,1478.48 2099.5,1479.5C 2100.17,1477.83 2100.83,1476.17 2101.5,1474.5C 2105.56,1473.99 2109.56,1473.33 2113.5,1472.5C 2115.18,1473.15 2116.85,1473.81 2118.5,1474.5C 2128.47,1472.57 2138.47,1470.91 2148.5,1469.5 Z"/></g>
<g><path style="opacity:1" fill="#c0bf9d" d="M 2289.5,1857.5 C 2299.17,1857.5 2308.83,1857.5 2318.5,1857.5C 2319.35,1872.15 2319.68,1886.82 2319.5,1901.5C 2327.12,1900.52 2334.45,1898.52 2341.5,1895.5C 2341.5,1897.17 2341.5,1898.83 2341.5,1900.5C 2344.85,1899.99 2347.85,1898.66 2350.5,1896.5C 2351.67,1909.82 2351.83,1923.15 2351,1936.5C 2348.4,1939.28 2345.23,1940.94 2341.5,1941.5C 2341.67,1928.16 2341.5,1914.83 2341,1901.5C 2334.22,1904.82 2327.05,1906.82 2319.5,1907.5C 2319.5,1905.83 2319.5,1904.17 2319.5,1902.5C 2308.82,1903.58 2298.16,1903.58 2287.5,1902.5C 2287.17,1902.5 2286.83,1902.5 2286.5,1902.5C 2286.5,1887.5 2286.5,1872.5 2286.5,1857.5C 2287.5,1857.5 2288.5,1857.5 2289.5,1857.5 Z"/></g>
<g><path style="opacity:1" fill="#99d1ea" d="M 2038.5,2597.5 C 2069.19,2565.58 2092.03,2528.58 2107,2486.5C 2126.1,2432.44 2137.43,2376.77 2141,2319.5C 2146.31,2239.8 2142.98,2160.46 2131,2081.5C 2127.26,2057.04 2121.59,2033.04 2114,2009.5C 2104.78,1992.67 2090.45,1984.67 2071,1985.5C 2059.64,1986.13 2048.48,1987.96 2037.5,1991C 2028.91,1994.47 2020.24,1997.63 2011.5,2000.5C 2044.51,1976.35 2075.34,1949.35 2104,1919.5C 2118.21,1903.29 2130.88,1885.96 2142,1867.5C 2146.34,1881.19 2149.67,1895.19 2152,1909.5C 2159.8,1955.2 2165.13,2001.2 2168,2047.5C 2170.9,2119.49 2171.24,2191.49 2169,2263.5C 2167.75,2321.56 2159.42,2378.56 2144,2434.5C 2124.86,2499.5 2089.69,2553.84 2038.5,2597.5 Z"/></g>
<g><path style="opacity:1" fill="#a6a57d" d="M 2287.5,1907.5 C 2289.1,1907.23 2290.43,1907.57 2291.5,1908.5C 2290.17,1908.5 2288.83,1908.5 2287.5,1908.5C 2287.45,1921.85 2287.79,1935.18 2288.5,1948.5C 2271.27,1946.93 2256.11,1940.6 2243,1929.5C 2242.33,1916.83 2242.33,1904.17 2243,1891.5C 2256.16,1901.28 2270.99,1906.61 2287.5,1907.5 Z"/></g>
<g><path style="opacity:1" fill="#91916b" d="M 2287.5,1902.5 C 2298.16,1903.58 2308.82,1903.58 2319.5,1902.5C 2319.5,1904.17 2319.5,1905.83 2319.5,1907.5C 2310.19,1908.32 2300.86,1908.65 2291.5,1908.5C 2290.43,1907.57 2289.1,1907.23 2287.5,1907.5C 2287.5,1905.83 2287.5,1904.17 2287.5,1902.5 Z"/></g>
<g><path style="opacity:1" fill="#e1e0c0" d="M 2341.5,1941.5 C 2341.5,1941.83 2341.5,1942.17 2341.5,1942.5C 2334.32,1944.79 2326.99,1946.46 2319.5,1947.5C 2319.5,1934.17 2319.5,1920.83 2319.5,1907.5C 2327.05,1906.82 2334.22,1904.82 2341,1901.5C 2341.5,1914.83 2341.67,1928.16 2341.5,1941.5 Z"/></g>
<g><path style="opacity:1" fill="#bfbe9c" d="M 2319.5,1907.5 C 2319.5,1920.83 2319.5,1934.17 2319.5,1947.5C 2326.99,1946.46 2334.32,1944.79 2341.5,1942.5C 2341.21,1944.29 2341.55,1945.95 2342.5,1947.5C 2345.08,1946.29 2347.58,1944.96 2350,1943.5C 2350.37,1956.19 2349.87,1968.86 2348.5,1981.5C 2345.72,1983.62 2342.72,1985.29 2339.5,1986.5C 2340.54,1973.85 2340.71,1961.19 2340,1948.5C 2333.47,1951.34 2326.64,1953.01 2319.5,1953.5C 2319.5,1951.83 2319.5,1950.17 2319.5,1948.5C 2309.14,1949.68 2298.8,1949.68 2288.5,1948.5C 2287.79,1935.18 2287.45,1921.85 2287.5,1908.5C 2288.83,1908.5 2290.17,1908.5 2291.5,1908.5C 2300.86,1908.65 2310.19,1908.32 2319.5,1907.5 Z"/></g>
<g><path style="opacity:1" fill="#a6a57d" d="M 2289.5,1954.5 C 2288.5,1967.32 2288.17,1980.32 2288.5,1993.5C 2271.28,1992.49 2256.11,1986.49 2243,1975.5C 2242.33,1962.5 2242.33,1949.5 2243,1936.5C 2257.12,1946.15 2272.62,1952.15 2289.5,1954.5 Z"/></g>
<g><path style="opacity:1" fill="#e1e0c0" d="M 2339.5,1986.5 C 2339.5,1986.83 2339.5,1987.17 2339.5,1987.5C 2332.76,1990.19 2325.76,1991.86 2318.5,1992.5C 2318.46,1979.49 2318.8,1966.49 2319.5,1953.5C 2326.64,1953.01 2333.47,1951.34 2340,1948.5C 2340.71,1961.19 2340.54,1973.85 2339.5,1986.5 Z"/></g>
<g><path style="opacity:1" fill="#bfbe9c" d="M 2319.5,1953.5 C 2318.8,1966.49 2318.46,1979.49 2318.5,1992.5C 2325.76,1991.86 2332.76,1990.19 2339.5,1987.5C 2339.34,1989.2 2339.51,1990.87 2340,1992.5C 2342.71,1991.56 2345.21,1990.23 2347.5,1988.5C 2347.83,1989.5 2348.17,1990.5 2348.5,1991.5C 2347.49,2008.58 2345.83,2025.58 2343.5,2042.5C 2340.8,2043.51 2338.14,2044.51 2335.5,2045.5C 2337.05,2028.19 2337.88,2010.86 2338,1993.5C 2331.85,1996.5 2325.35,1998.16 2318.5,1998.5C 2318.5,1996.83 2318.5,1995.17 2318.5,1993.5C 2308.5,1994.75 2298.5,1994.75 2288.5,1993.5C 2288.17,1980.32 2288.5,1967.32 2289.5,1954.5C 2299.54,1954.76 2309.54,1954.42 2319.5,1953.5 Z"/></g>
<g><path style="opacity:1" fill="#a6a57d" d="M 2292.5,1999.5 C 2291.17,1999.5 2289.83,1999.5 2288.5,1999.5C 2287.31,2014.82 2286.31,2030.15 2285.5,2045.5C 2268.14,2041.91 2253.64,2033.58 2242,2020.5C 2241.82,2007.82 2242.32,1995.15 2243.5,1982.5C 2258.3,1992.77 2274.63,1998.43 2292.5,1999.5 Z"/></g>
<g><path style="opacity:1" fill="#b3e2f7" d="M 2038.5,2597.5 C 2030.13,2605.21 2021.46,2612.54 2012.5,2619.5C 1953.77,2658.86 1890.1,2688.02 1821.5,2707C 1666.33,2752.7 1508,2781.03 1346.5,2792C 1267.15,2797.76 1188.15,2794.76 1109.5,2783C 1071.84,2776.92 1035.84,2765.58 1001.5,2749C 950.3,2719.3 923.966,2674.63 922.5,2615C 922.747,2606.11 923.58,2597.28 925,2588.5C 954.521,2464.25 985.688,2340.42 1018.5,2217C 1101.76,2231.85 1185.76,2237.18 1270.5,2233C 1452.53,2223.65 1628.2,2185.32 1797.5,2118C 1870.21,2087.63 1938.55,2050.13 2002.5,2005.5C 2005.69,2004.07 2008.69,2002.41 2011.5,2000.5C 2020.24,1997.63 2028.91,1994.47 2037.5,1991C 2048.48,1987.96 2059.64,1986.13 2071,1985.5C 2090.45,1984.67 2104.78,1992.67 2114,2009.5C 2121.59,2033.04 2127.26,2057.04 2131,2081.5C 2142.98,2160.46 2146.31,2239.8 2141,2319.5C 2137.43,2376.77 2126.1,2432.44 2107,2486.5C 2092.03,2528.58 2069.19,2565.58 2038.5,2597.5 Z"/></g>
<g><path style="opacity:1" fill="#e1e0c0" d="M 2335.5,2045.5 C 2328.92,2046.95 2322.26,2047.61 2315.5,2047.5C 2316.38,2031.18 2317.04,2014.84 2317.5,1998.5C 2317.83,1998.5 2318.17,1998.5 2318.5,1998.5C 2325.35,1998.16 2331.85,1996.5 2338,1993.5C 2337.88,2010.86 2337.05,2028.19 2335.5,2045.5 Z"/></g>
<g><path style="opacity:1" fill="#bfbe9c" d="M 2317.5,1998.5 C 2317.04,2014.84 2316.38,2031.18 2315.5,2047.5C 2322.26,2047.61 2328.92,2046.95 2335.5,2045.5C 2335.5,2047.17 2335.5,2048.83 2335.5,2050.5C 2337.94,2050.24 2340.27,2049.58 2342.5,2048.5C 2341.95,2062.14 2340.12,2075.81 2337,2089.5C 2334.53,2090.6 2332.03,2091.6 2329.5,2092.5C 2331.68,2078.9 2333.34,2065.23 2334.5,2051.5C 2327.88,2052.64 2321.22,2053.3 2314.5,2053.5C 2314.5,2051.83 2314.5,2050.17 2314.5,2048.5C 2304.68,2048.87 2295.01,2047.87 2285.5,2045.5C 2286.31,2030.15 2287.31,2014.82 2288.5,1999.5C 2289.83,1999.5 2291.17,1999.5 2292.5,1999.5C 2300.86,1999.67 2309.2,1999.33 2317.5,1998.5 Z"/></g>
<g><path style="opacity:1" fill="#a6a57d" d="M 2240.5,2027.5 C 2253,2038.58 2267.34,2046.25 2283.5,2050.5C 2281.99,2064.59 2279.99,2078.59 2277.5,2092.5C 2277.17,2092.5 2276.83,2092.5 2276.5,2092.5C 2261.78,2089.06 2248.95,2082.06 2238,2071.5C 2237.02,2069.63 2236.52,2067.63 2236.5,2065.5C 2238.49,2052.89 2239.83,2040.22 2240.5,2027.5 Z"/></g>
<g><path style="opacity:1" fill="#c6e9f7" d="M 1993.5,2047.5 C 2030.35,2042.88 2055.18,2057.88 2068,2092.5C 2073.12,2110.11 2076.12,2128.11 2077,2146.5C 2079.44,2200.88 2078.77,2255.21 2075,2309.5C 2070.06,2367.94 2055.72,2423.94 2032,2477.5C 1999.38,2544.13 1951.88,2597.63 1889.5,2638C 1840.33,2668.41 1788,2692.08 1732.5,2709C 1667.92,2727.56 1602.26,2740.89 1535.5,2749C 1455.83,2759.31 1375.83,2763.98 1295.5,2763C 1249.93,2762.06 1205.27,2755.39 1161.5,2743C 1126.31,2732.83 1095.48,2715.33 1069,2690.5C 1040.21,2658.9 1024.55,2621.57 1022,2578.5C 1019.45,2541.37 1022.45,2504.71 1031,2468.5C 1048.43,2397.03 1072.93,2328.03 1104.5,2261.5C 1279.2,2269.75 1451.2,2252.25 1620.5,2209C 1740.44,2177.52 1852.11,2127.85 1955.5,2060C 1967.86,2054.49 1980.53,2050.32 1993.5,2047.5 Z"/></g>
<g><path style="opacity:1" fill="#bfbe9c" d="M 2283.5,2050.5 C 2293.69,2052.87 2304.02,2053.87 2314.5,2053.5C 2313.12,2067.5 2311.78,2081.5 2310.5,2095.5C 2316.93,2095.04 2323.26,2094.04 2329.5,2092.5C 2328.85,2094.44 2328.52,2096.44 2328.5,2098.5C 2322.29,2100.1 2315.95,2100.77 2309.5,2100.5C 2309.5,2098.83 2309.5,2097.17 2309.5,2095.5C 2298.66,2096.09 2287.99,2095.09 2277.5,2092.5C 2279.99,2078.59 2281.99,2064.59 2283.5,2050.5 Z"/></g>
<g><path style="opacity:1" fill="#e1e0c0" d="M 2329.5,2092.5 C 2323.26,2094.04 2316.93,2095.04 2310.5,2095.5C 2311.78,2081.5 2313.12,2067.5 2314.5,2053.5C 2321.22,2053.3 2327.88,2052.64 2334.5,2051.5C 2333.34,2065.23 2331.68,2078.9 2329.5,2092.5 Z"/></g>
<g><path style="opacity:1" fill="#7f7f56" d="M 2238.5,2025.5 C 2239.5,2025.83 2240.17,2026.5 2240.5,2027.5C 2239.83,2040.22 2238.49,2052.89 2236.5,2065.5C 2236.52,2067.63 2237.02,2069.63 2238,2071.5C 2248.95,2082.06 2261.78,2089.06 2276.5,2092.5C 2276.84,2094.48 2276.18,2095.82 2274.5,2096.5C 2259.27,2093.3 2246.11,2086.3 2235,2075.5C 2233.23,2083.18 2231.4,2090.84 2229.5,2098.5C 2231.42,2104.58 2234.75,2109.75 2239.5,2114C 2247.96,2120.95 2257.29,2126.45 2267.5,2130.5C 2267.2,2132.46 2266.2,2133.79 2264.5,2134.5C 2249.61,2128.93 2237.28,2119.93 2227.5,2107.5C 2223.53,2116.58 2220.69,2125.91 2219,2135.5C 2226.82,2149.49 2237.99,2159.82 2252.5,2166.5C 2252.91,2168.97 2251.91,2170.31 2249.5,2170.5C 2235.03,2163.54 2223.53,2153.2 2215,2139.5C 2209.58,2150.69 2203.41,2161.36 2196.5,2171.5C 2203.36,2186.02 2213.69,2197.36 2227.5,2205.5C 2227.5,2205.83 2227.5,2206.17 2227.5,2206.5C 2226.74,2208.26 2225.4,2209.26 2223.5,2209.5C 2210.41,2200.57 2199.91,2189.24 2192,2175.5C 2190.71,2177.79 2189.04,2179.79 2187,2181.5C 2185.09,2191.21 2186.42,2200.55 2191,2209.5C 2194.59,2215.7 2198.43,2221.7 2202.5,2227.5C 2201.17,2228.17 2200.17,2229.17 2199.5,2230.5C 2188.46,2218.75 2181.96,2204.75 2180,2188.5C 2177.52,2191.26 2176.35,2190.93 2176.5,2187.5C 2195.88,2169.77 2210.05,2148.44 2219,2123.5C 2229.92,2091.73 2236.42,2059.06 2238.5,2025.5 Z"/></g>
<g><path style="opacity:1" fill="#a6a57d" d="M 2274.5,2096.5 C 2274.5,2097.17 2274.83,2097.5 2275.5,2097.5C 2273.3,2108.62 2270.64,2119.62 2267.5,2130.5C 2257.29,2126.45 2247.96,2120.95 2239.5,2114C 2234.75,2109.75 2231.42,2104.58 2229.5,2098.5C 2231.4,2090.84 2233.23,2083.18 2235,2075.5C 2246.11,2086.3 2259.27,2093.3 2274.5,2096.5 Z"/></g>
<g><path style="opacity:1" fill="#92926b" d="M 2276.5,2092.5 C 2276.83,2092.5 2277.17,2092.5 2277.5,2092.5C 2287.99,2095.09 2298.66,2096.09 2309.5,2095.5C 2309.5,2097.17 2309.5,2098.83 2309.5,2100.5C 2309.5,2101.17 2309.17,2101.5 2308.5,2101.5C 2297.35,2101.24 2286.35,2099.91 2275.5,2097.5C 2274.83,2097.5 2274.5,2097.17 2274.5,2096.5C 2276.18,2095.82 2276.84,2094.48 2276.5,2092.5 Z"/></g>
<g><path style="opacity:1" fill="#bfbe9b" d="M 2321.5,2136.5 C 2323.83,2123.82 2326.17,2111.16 2328.5,2098.5C 2331.03,2097.6 2333.53,2096.6 2336,2095.5C 2335.96,2098.8 2335.63,2102.14 2335,2105.5C 2333.43,2115.31 2331.27,2124.98 2328.5,2134.5C 2326.27,2135.58 2323.94,2136.24 2321.5,2136.5 Z"/></g>
<g><path style="opacity:1" fill="#bfbe9c" d="M 2275.5,2097.5 C 2286.35,2099.91 2297.35,2101.24 2308.5,2101.5C 2307.16,2113.89 2305.49,2126.22 2303.5,2138.5C 2309.57,2138.32 2315.57,2137.66 2321.5,2136.5C 2319.14,2143.1 2320.97,2144.43 2327,2140.5C 2324.82,2151.55 2322.15,2162.55 2319,2173.5C 2316.41,2175.2 2313.58,2176.2 2310.5,2176.5C 2314.26,2165.34 2317.1,2154 2319,2142.5C 2313.59,2143.47 2308.09,2143.81 2302.5,2143.5C 2302.5,2141.83 2302.5,2140.17 2302.5,2138.5C 2290.45,2137.36 2278.79,2134.69 2267.5,2130.5C 2270.64,2119.62 2273.3,2108.62 2275.5,2097.5 Z"/></g>
<g><path style="opacity:1" fill="#e1e0c0" d="M 2328.5,2098.5 C 2326.17,2111.16 2323.83,2123.82 2321.5,2136.5C 2315.57,2137.66 2309.57,2138.32 2303.5,2138.5C 2305.49,2126.22 2307.16,2113.89 2308.5,2101.5C 2309.17,2101.5 2309.5,2101.17 2309.5,2100.5C 2315.95,2100.77 2322.29,2100.1 2328.5,2098.5 Z"/></g>
<g><path style="opacity:1" fill="#a6a57d" d="M 2264.5,2134.5 C 2264.5,2135.17 2264.83,2135.5 2265.5,2135.5C 2261.89,2145.99 2257.89,2156.32 2253.5,2166.5C 2253.17,2166.5 2252.83,2166.5 2252.5,2166.5C 2237.99,2159.82 2226.82,2149.49 2219,2135.5C 2220.69,2125.91 2223.53,2116.58 2227.5,2107.5C 2237.28,2119.93 2249.61,2128.93 2264.5,2134.5 Z"/></g>
<g><path style="opacity:1" fill="#92926b" d="M 2267.5,2130.5 C 2278.79,2134.69 2290.45,2137.36 2302.5,2138.5C 2302.5,2140.17 2302.5,2141.83 2302.5,2143.5C 2302.17,2143.5 2301.83,2143.5 2301.5,2143.5C 2289.01,2142.96 2277.01,2140.29 2265.5,2135.5C 2264.83,2135.5 2264.5,2135.17 2264.5,2134.5C 2266.2,2133.79 2267.2,2132.46 2267.5,2130.5 Z"/></g>
<g><path style="opacity:1" fill="#a6a57d" d="M 2249.5,2170.5 C 2249.5,2171.17 2249.83,2171.5 2250.5,2171.5C 2244.81,2184.22 2237.14,2195.56 2227.5,2205.5C 2213.69,2197.36 2203.36,2186.02 2196.5,2171.5C 2203.41,2161.36 2209.58,2150.69 2215,2139.5C 2223.53,2153.2 2235.03,2163.54 2249.5,2170.5 Z"/></g>
<g><path style="opacity:1" fill="#e1e0c0" d="M 2310.5,2176.5 C 2310.5,2177.17 2310.17,2177.5 2309.5,2177.5C 2304.39,2177.85 2299.39,2177.85 2294.5,2177.5C 2297.25,2166.25 2299.58,2154.92 2301.5,2143.5C 2301.83,2143.5 2302.17,2143.5 2302.5,2143.5C 2308.09,2143.81 2313.59,2143.47 2319,2142.5C 2317.1,2154 2314.26,2165.34 2310.5,2176.5 Z"/></g>
<g><path style="opacity:1" fill="#92926b" d="M 2252.5,2166.5 C 2252.83,2166.5 2253.17,2166.5 2253.5,2166.5C 2266.23,2172.85 2279.56,2177.19 2293.5,2179.5C 2292.75,2180.74 2292.42,2182.07 2292.5,2183.5C 2277.73,2182.13 2263.73,2178.13 2250.5,2171.5C 2249.83,2171.5 2249.5,2171.17 2249.5,2170.5C 2251.91,2170.31 2252.91,2168.97 2252.5,2166.5 Z"/></g>
<g><path style="opacity:1" fill="#bebd9b" d="M 2265.5,2135.5 C 2277.01,2140.29 2289.01,2142.96 2301.5,2143.5C 2299.58,2154.92 2297.25,2166.25 2294.5,2177.5C 2299.39,2177.85 2304.39,2177.85 2309.5,2177.5C 2309.58,2178.93 2309.25,2180.26 2308.5,2181.5C 2310.86,2182.29 2313.19,2181.96 2315.5,2180.5C 2315.83,2180.83 2316.17,2181.17 2316.5,2181.5C 2311.22,2197.01 2305.55,2212.34 2299.5,2227.5C 2294.55,2228.12 2289.55,2228.79 2284.5,2229.5C 2283.83,2230.5 2283.17,2231.5 2282.5,2232.5C 2286.83,2233.17 2291.17,2233.83 2295.5,2234.5C 2290.97,2244.52 2285.8,2254.19 2280,2263.5C 2277.58,2265.58 2274.75,2266.58 2271.5,2266.5C 2259.04,2265.74 2247.37,2262.24 2236.5,2256C 2223.78,2248.45 2212.78,2238.95 2203.5,2227.5C 2210.75,2222.58 2217.42,2216.92 2223.5,2210.5C 2238.85,2220.09 2255.35,2227.09 2273,2231.5C 2275.63,2230.91 2276.8,2229.24 2276.5,2226.5C 2258.89,2222.86 2242.55,2216.19 2227.5,2206.5C 2227.5,2206.17 2227.5,2205.83 2227.5,2205.5C 2237.14,2195.56 2244.81,2184.22 2250.5,2171.5C 2263.73,2178.13 2277.73,2182.13 2292.5,2183.5C 2292.42,2182.07 2292.75,2180.74 2293.5,2179.5C 2279.56,2177.19 2266.23,2172.85 2253.5,2166.5C 2257.89,2156.32 2261.89,2145.99 2265.5,2135.5 Z"/></g>
<g><path style="opacity:1" fill="#a6a57d" d="M 2223.5,2209.5 C 2223.5,2209.83 2223.5,2210.17 2223.5,2210.5C 2217.42,2216.92 2210.75,2222.58 2203.5,2227.5C 2203.17,2227.5 2202.83,2227.5 2202.5,2227.5C 2198.43,2221.7 2194.59,2215.7 2191,2209.5C 2186.42,2200.55 2185.09,2191.21 2187,2181.5C 2189.04,2179.79 2190.71,2177.79 2192,2175.5C 2199.91,2189.24 2210.41,2200.57 2223.5,2209.5 Z"/></g>
<g><path style="opacity:1" fill="#e1e0c0" d="M 2292.5,2183.5 C 2297.54,2183.17 2302.54,2183.51 2307.5,2184.5C 2302.39,2199.52 2295.39,2213.52 2286.5,2226.5C 2283.26,2227.94 2280.26,2227.61 2277.5,2225.5C 2283.3,2211.76 2288.3,2197.76 2292.5,2183.5 Z"/></g>
<g><path style="opacity:1" fill="#a6a67f" d="M 2176.5,2184.5 C 2176.5,2185.5 2176.5,2186.5 2176.5,2187.5C 2176.35,2190.93 2177.52,2191.26 2180,2188.5C 2181.96,2204.75 2188.46,2218.75 2199.5,2230.5C 2199.5,2230.83 2199.5,2231.17 2199.5,2231.5C 2196.4,2233.66 2194.23,2236.66 2193,2240.5C 2184.75,2274.25 2197.92,2289.42 2232.5,2286C 2245.02,2284.34 2256.02,2279.5 2265.5,2271.5C 2265.83,2271.5 2266.17,2271.5 2266.5,2271.5C 2269.19,2271.34 2271.85,2271.5 2274.5,2272C 2269.22,2279.62 2263.55,2286.95 2257.5,2294C 2237.34,2299.31 2218.68,2295.97 2201.5,2284C 2190.93,2276.27 2181.93,2267.1 2174.5,2256.5C 2174.79,2232.33 2175.46,2208.33 2176.5,2184.5 Z"/></g>
<g><path style="opacity:1" fill="#e0f2f9" d="M 1816.5,2193.5 C 1827.17,2193.33 1837.84,2193.5 1848.5,2194C 1861.55,2196.93 1870.05,2204.77 1874,2217.5C 1930.84,2487.87 1824.01,2648.7 1553.5,2700C 1504.68,2707.75 1455.68,2714.08 1406.5,2719C 1390.14,2719.56 1373.81,2720.56 1357.5,2722C 1315.17,2724.28 1273.17,2721.61 1231.5,2714C 1142.57,2695.74 1103.4,2641.24 1114,2550.5C 1117.19,2517.8 1122.53,2485.47 1130,2453.5C 1133.32,2418.88 1141.65,2385.55 1155,2353.5C 1161.45,2338.72 1170.62,2325.88 1182.5,2315C 1187.51,2310.99 1193.18,2308.33 1199.5,2307C 1321.01,2310.69 1440.68,2297.69 1558.5,2268C 1619.17,2249.33 1679.84,2230.66 1740.5,2212C 1765.67,2204.65 1791.01,2198.48 1816.5,2193.5 Z"/></g>
<g><path style="opacity:1" fill="#91916b" d="M 2227.5,2206.5 C 2242.55,2216.19 2258.89,2222.86 2276.5,2226.5C 2276.8,2229.24 2275.63,2230.91 2273,2231.5C 2255.35,2227.09 2238.85,2220.09 2223.5,2210.5C 2223.5,2210.17 2223.5,2209.83 2223.5,2209.5C 2225.4,2209.26 2226.74,2208.26 2227.5,2206.5 Z"/></g>
<g><path style="opacity:1" fill="#91916a" d="M 2202.5,2227.5 C 2202.83,2227.5 2203.17,2227.5 2203.5,2227.5C 2212.78,2238.95 2223.78,2248.45 2236.5,2256C 2247.37,2262.24 2259.04,2265.74 2271.5,2266.5C 2270.03,2268.39 2268.36,2270.06 2266.5,2271.5C 2266.17,2271.5 2265.83,2271.5 2265.5,2271.5C 2238.72,2266.06 2216.72,2252.73 2199.5,2231.5C 2199.5,2231.17 2199.5,2230.83 2199.5,2230.5C 2200.17,2229.17 2201.17,2228.17 2202.5,2227.5 Z"/></g>
<g><path style="opacity:1" fill="#bebd9b" d="M 2199.5,2231.5 C 2216.72,2252.73 2238.72,2266.06 2265.5,2271.5C 2256.02,2279.5 2245.02,2284.34 2232.5,2286C 2197.92,2289.42 2184.75,2274.25 2193,2240.5C 2194.23,2236.66 2196.4,2233.66 2199.5,2231.5 Z"/></g>
<g><path style="opacity:1" fill="#deddbd" d="M 2274.5,2232.5 C 2276.6,2232.2 2278.6,2232.53 2280.5,2233.5C 2276.95,2238.37 2272.79,2242.71 2268,2246.5C 2269.83,2241.83 2272,2237.16 2274.5,2232.5 Z"/></g>
<g><path style="opacity:1" fill="#808057" d="M 2167.5,2348.5 C 2181.22,2345.54 2194.22,2340.7 2206.5,2334C 2193.3,2332.56 2181.3,2328.06 2170.5,2320.5C 2170.5,2319.5 2170.5,2318.5 2170.5,2317.5C 2171.27,2316.74 2171.77,2315.74 2172,2314.5C 2185.49,2325.75 2200.99,2330.25 2218.5,2328C 2229.9,2320.29 2240.57,2311.62 2250.5,2302C 2218.64,2302.57 2193.31,2290.07 2174.5,2264.5C 2174.5,2261.83 2174.5,2259.17 2174.5,2256.5C 2181.93,2267.1 2190.93,2276.27 2201.5,2284C 2218.68,2295.97 2237.34,2299.31 2257.5,2294C 2263.55,2286.95 2269.22,2279.62 2274.5,2272C 2271.85,2271.5 2269.19,2271.34 2266.5,2271.5C 2268.36,2270.06 2270.03,2268.39 2271.5,2266.5C 2274.75,2266.58 2277.58,2265.58 2280,2263.5C 2285.8,2254.19 2290.97,2244.52 2295.5,2234.5C 2291.17,2233.83 2286.83,2233.17 2282.5,2232.5C 2283.17,2231.5 2283.83,2230.5 2284.5,2229.5C 2289.55,2228.79 2294.55,2228.12 2299.5,2227.5C 2300.46,2227.05 2301.29,2226.38 2302,2225.5C 2292.11,2251.27 2278.11,2274.6 2260,2295.5C 2235.83,2323.34 2205.83,2341.67 2170,2350.5C 2168.62,2350.32 2167.79,2349.65 2167.5,2348.5 Z"/></g>
<g><path style="opacity:1" fill="#a6a57e" d="M 2174.5,2264.5 C 2193.31,2290.07 2218.64,2302.57 2250.5,2302C 2240.57,2311.62 2229.9,2320.29 2218.5,2328C 2200.99,2330.25 2185.49,2325.75 2172,2314.5C 2171.77,2315.74 2171.27,2316.74 2170.5,2317.5C 2172.12,2299.71 2173.46,2282.04 2174.5,2264.5 Z"/></g>
<g><path style="opacity:1" fill="#a6a57e" d="M 2170.5,2320.5 C 2181.3,2328.06 2193.3,2332.56 2206.5,2334C 2194.22,2340.7 2181.22,2345.54 2167.5,2348.5C 2168.38,2339.16 2169.38,2329.82 2170.5,2320.5 Z"/></g>
</svg>
