<?xml version="1.0" encoding="UTF-8"?>
<!DOCTYPE svg PUBLIC "-//W3C//DTD SVG 1.1//EN" "http://www.w3.org/Graphics/SVG/1.1/DTD/svg11.dtd">
<svg xmlns="http://www.w3.org/2000/svg" version="1.1" width="3000px" height="3000px" style="shape-rendering:geometricPrecision; text-rendering:geometricPrecision; image-rendering:optimizeQuality; fill-rule:evenodd; clip-rule:evenodd" xmlns:xlink="http://www.w3.org/1999/xlink">
<g><path style="opacity:0.975" fill="#9edaf6" d="M 1055.5,250.5 C 1058.86,250.07 1061.7,251.07 1064,253.5C 1068.04,261.337 1070.38,269.67 1071,278.5C 1073.36,299.929 1072.7,321.263 1069,342.5C 1068.33,346.02 1067.16,349.353 1065.5,352.5C 1053.21,329.345 1045.88,304.678 1043.5,278.5C 1043.08,267.059 1047.08,257.726 1055.5,250.5 Z"/></g>
<g><path style="opacity:0.906" fill="#a7aba8" d="M 675.5,256.5 C 673.833,256.5 672.167,256.5 670.5,256.5C 670.167,253.5 671.5,252.167 674.5,252.5C 674.433,253.959 674.766,255.292 675.5,256.5 Z"/></g>
<g><path style="opacity:1" fill="#2c3c96" d="M 830.5,278.5 C 842.881,337.083 840.381,395.083 823,452.5C 800.95,520.967 766.783,582.3 720.5,636.5C 704.052,620.058 688.718,602.724 674.5,584.5C 674.5,583.5 674.5,582.5 674.5,581.5C 686.381,535.676 693.715,489.009 696.5,441.5C 696.5,441.167 696.5,440.833 696.5,440.5C 701.339,377.713 694.339,316.38 675.5,256.5C 728.896,252.012 780.562,259.345 830.5,278.5 Z"/></g>
<g><path style="opacity:0.997" fill="#f9b41a" d="M 670.5,256.5 C 670.833,257.833 671.167,259.167 671.5,260.5C 676.092,283.978 679.092,307.645 680.5,331.5C 641.212,325.126 602.212,326.626 563.5,336C 547.967,339.883 532.633,344.383 517.5,349.5C 538.557,330.324 562.224,314.824 588.5,303C 599.833,298.333 611.167,293.667 622.5,289C 624.607,287.736 625.607,285.903 625.5,283.5C 586.262,291.788 551.262,308.621 520.5,334C 511.329,342.339 502.329,350.839 493.5,359.5C 473.156,367.839 453.49,377.505 434.5,388.5C 478.114,329.984 535.114,290.151 605.5,269C 626.819,262.97 648.485,258.803 670.5,256.5 Z"/></g>
<g><path style="opacity:1" fill="#a57c1a" d="M 671.5,260.5 C 681.731,283.748 688.398,308.081 691.5,333.5C 687.738,333.309 684.071,332.642 680.5,331.5C 679.092,307.645 676.092,283.978 671.5,260.5 Z"/></g>
<g><path style="opacity:1" fill="#c8137e" d="M 830.5,278.5 C 849.337,285.918 867.337,294.918 884.5,305.5C 925.842,345.144 954.175,392.811 969.5,448.5C 971.158,455.448 972.491,462.448 973.5,469.5C 951.345,564.22 902.678,641.886 827.5,702.5C 786.173,689.353 750.506,667.353 720.5,636.5C 766.783,582.3 800.95,520.967 823,452.5C 840.381,395.083 842.881,337.083 830.5,278.5 Z"/></g>
<g><path style="opacity:1" fill="#fcfbfb" d="M 517.5,349.5 C 499.21,364.965 484.377,383.298 473,404.5C 452.622,443.342 440.955,484.675 438,528.5C 437.05,538.814 436.55,549.147 436.5,559.5C 435.13,565.536 431.464,569.203 425.5,570.5C 417.692,502.732 433.525,441.065 473,385.5C 479.721,376.628 486.554,367.961 493.5,359.5C 502.329,350.839 511.329,342.339 520.5,334C 551.262,308.621 586.262,291.788 625.5,283.5C 625.607,285.903 624.607,287.736 622.5,289C 611.167,293.667 599.833,298.333 588.5,303C 562.224,314.824 538.557,330.324 517.5,349.5 Z"/></g>
<g><path style="opacity:1" fill="#871053" d="M 884.5,305.5 C 916.947,325.162 945.114,349.828 969,379.5C 975.137,387.124 980.637,395.124 985.5,403.5C 982.915,425.679 979.248,447.679 974.5,469.5C 974.167,469.5 973.833,469.5 973.5,469.5C 972.491,462.448 971.158,455.448 969.5,448.5C 954.175,392.811 925.842,345.144 884.5,305.5 Z"/></g>
<g><path style="opacity:0.98" fill="#9edaf6" d="M 1140.5,319.5 C 1145.23,319.378 1149.9,319.878 1154.5,321C 1159.44,323.882 1161.78,328.215 1161.5,334C 1160.33,343.518 1157.16,352.351 1152,360.5C 1141.21,377.417 1127.71,391.751 1111.5,403.5C 1109.54,381.97 1112.04,360.97 1119,340.5C 1122.81,329.854 1129.98,322.854 1140.5,319.5 Z"/></g>
<g><path style="opacity:1" fill="#2c3d96" d="M 680.5,331.5 C 681.09,332.766 681.59,334.099 682,335.5C 684.568,370.808 685.068,406.142 683.5,441.5C 682.209,441.263 681.209,441.596 680.5,442.5C 625.224,448.805 573.557,465.972 525.5,494C 493.64,512.922 463.974,534.755 436.5,559.5C 436.55,549.147 437.05,538.814 438,528.5C 440.955,484.675 452.622,443.342 473,404.5C 484.377,383.298 499.21,364.965 517.5,349.5C 532.633,344.383 547.967,339.883 563.5,336C 602.212,326.626 641.212,325.126 680.5,331.5 Z"/></g>
<g><path style="opacity:1" fill="#272e65" d="M 670.5,256.5 C 672.167,256.5 673.833,256.5 675.5,256.5C 694.339,316.38 701.339,377.713 696.5,440.5C 692.176,440.927 687.842,441.261 683.5,441.5C 685.068,406.142 684.568,370.808 682,335.5C 681.59,334.099 681.09,332.766 680.5,331.5C 684.071,332.642 687.738,333.309 691.5,333.5C 688.398,308.081 681.731,283.748 671.5,260.5C 671.167,259.167 670.833,257.833 670.5,256.5 Z"/></g>
<g><path style="opacity:0.997" fill="#2d3d97" d="M 493.5,359.5 C 486.554,367.961 479.721,376.628 473,385.5C 433.525,441.065 417.692,502.732 425.5,570.5C 408.357,587.633 392.357,605.633 377.5,624.5C 364.25,546.25 378.75,473.583 421,406.5C 424.979,400.033 429.479,394.033 434.5,388.5C 453.49,377.505 473.156,367.839 493.5,359.5 Z"/></g>
<g><path style="opacity:1" fill="#262e63" d="M 985.5,403.5 C 1014.85,446.528 1031.51,494.195 1035.5,546.5C 1025.68,584.811 1009.85,620.477 988,653.5C 972.184,676.775 954.684,698.775 935.5,719.5C 934,719.833 932.5,720.167 931,720.5C 919.979,719.906 909.145,718.906 898.5,717.5C 962.251,646.896 987.584,564.229 974.5,469.5C 979.248,447.679 982.915,425.679 985.5,403.5 Z"/></g>
<g><path style="opacity:1" fill="#871053" d="M 696.5,440.5 C 696.5,440.833 696.5,441.167 696.5,441.5C 693.864,464.373 691.031,487.373 688,510.5C 683.818,534.241 679.318,557.908 674.5,581.5C 674.5,582.5 674.5,583.5 674.5,584.5C 671.873,585.092 669.206,585.425 666.5,585.5C 672.075,537.811 677.742,490.144 683.5,442.5C 682.5,442.5 681.5,442.5 680.5,442.5C 681.209,441.596 682.209,441.263 683.5,441.5C 687.842,441.261 692.176,440.927 696.5,440.5 Z"/></g>
<g><path style="opacity:1" fill="#c8137f" d="M 680.5,442.5 C 681.5,442.5 682.5,442.5 683.5,442.5C 677.742,490.144 672.075,537.811 666.5,585.5C 619.793,596.691 577.46,616.691 539.5,645.5C 506.109,672.213 478.109,703.546 455.5,739.5C 425.138,713.487 400.805,682.821 382.5,647.5C 380.199,639.999 378.533,632.332 377.5,624.5C 392.357,605.633 408.357,587.633 425.5,570.5C 431.464,569.203 435.13,565.536 436.5,559.5C 463.974,534.755 493.64,512.922 525.5,494C 573.557,465.972 625.224,448.805 680.5,442.5 Z"/></g>
<g><path style="opacity:1" fill="#2c3c96" d="M 973.5,469.5 C 973.833,469.5 974.167,469.5 974.5,469.5C 987.584,564.229 962.251,646.896 898.5,717.5C 898.167,717.5 897.833,717.5 897.5,717.5C 873.396,715.547 850.063,710.547 827.5,702.5C 902.678,641.886 951.345,564.22 973.5,469.5 Z"/></g>
<g><path style="opacity:1" fill="#b71276" d="M 696.5,441.5 C 693.715,489.009 686.381,535.676 674.5,581.5C 679.318,557.908 683.818,534.241 688,510.5C 691.031,487.373 693.864,464.373 696.5,441.5 Z"/></g>
<g><path style="opacity:1" fill="#f9b419" d="M 674.5,584.5 C 688.718,602.724 704.052,620.058 720.5,636.5C 750.506,667.353 786.173,689.353 827.5,702.5C 850.063,710.547 873.396,715.547 897.5,717.5C 894.102,722.406 890.102,726.906 885.5,731C 845.239,768.472 798.239,793.972 744.5,807.5C 743.5,807.5 742.5,807.5 741.5,807.5C 651.968,781.081 584.635,727.081 539.5,645.5C 577.46,616.691 619.793,596.691 666.5,585.5C 669.206,585.425 671.873,585.092 674.5,584.5 Z"/></g>
<g><path style="opacity:1" fill="#fefafc" d="M 437.5,591.5 C 439.617,603.852 443.617,615.852 449.5,627.5C 444.459,639.131 439.626,639.131 435,627.5C 431.856,617.722 430.856,607.722 432,597.5C 433.36,594.977 435.193,592.977 437.5,591.5 Z"/></g>
<g><path style="opacity:0.999" fill="#ed197d" d="M 1507.5,616.5 C 1507.95,617.458 1508.62,618.292 1509.5,619C 1558.12,640.693 1602.79,668.359 1643.5,702C 1662.15,718.877 1678.32,737.711 1692,758.5C 1695.83,765.162 1698.83,772.162 1701,779.5C 1704.24,794.862 1698.41,804.696 1683.5,809C 1669.61,811.455 1655.61,812.122 1641.5,811C 1529.44,793.389 1421.44,807.389 1317.5,853C 1261.29,877.234 1214.46,913.4 1177,961.5C 1157.67,990.167 1138.33,1018.83 1119,1047.5C 1107.58,1064.15 1094.42,1079.32 1079.5,1093C 1061.39,1108.14 1044.56,1106.97 1029,1089.5C 1011.8,1063.26 1000.47,1034.59 995,1003.5C 981.68,927.235 995.513,856.401 1036.5,791C 1036.27,790.601 1035.94,790.435 1035.5,790.5C 1087.41,713.446 1156.74,657.946 1243.5,624C 1330.75,592.952 1418.75,590.452 1507.5,616.5 Z"/></g>
<g><path style="opacity:1" fill="#c1147e" d="M 1507.5,616.5 C 1561.24,633.358 1608.9,660.524 1650.5,698C 1682.98,728.132 1712.15,760.965 1738,796.5C 1762.65,830.748 1778.99,868.748 1787,910.5C 1790.9,932.404 1790.07,954.07 1784.5,975.5C 1770.79,905.617 1729.46,861.117 1660.5,842C 1618.78,831.692 1576.45,827.692 1533.5,830C 1449.14,831.602 1369.47,851.602 1294.5,890C 1178.8,956.85 1122.96,1057.68 1127,1192.5C 1127.23,1247.21 1137.56,1299.88 1158,1350.5C 1177.83,1394.34 1206.66,1431.17 1244.5,1461C 1254.4,1468.42 1264.4,1475.58 1274.5,1482.5C 1223.6,1467.54 1175.93,1445.87 1131.5,1417.5C 1138,1407.51 1141.83,1396.51 1143,1384.5C 1145.05,1353.16 1141.38,1322.49 1132,1292.5C 1122,1258.5 1107.66,1226.5 1089,1196.5C 1082.17,1187 1074,1178.83 1064.5,1172C 1039.78,1157.89 1015.12,1158.06 990.5,1172.5C 961.582,1085.07 958.416,996.736 981,907.5C 992.763,865.318 1010.93,826.318 1035.5,790.5C 1035.94,790.435 1036.27,790.601 1036.5,791C 995.513,856.401 981.68,927.235 995,1003.5C 1000.47,1034.59 1011.8,1063.26 1029,1089.5C 1044.56,1106.97 1061.39,1108.14 1079.5,1093C 1094.42,1079.32 1107.58,1064.15 1119,1047.5C 1138.33,1018.83 1157.67,990.167 1177,961.5C 1214.46,913.4 1261.29,877.234 1317.5,853C 1421.44,807.389 1529.44,793.389 1641.5,811C 1655.61,812.122 1669.61,811.455 1683.5,809C 1698.41,804.696 1704.24,794.862 1701,779.5C 1698.83,772.162 1695.83,765.162 1692,758.5C 1678.32,737.711 1662.15,718.877 1643.5,702C 1602.79,668.359 1558.12,640.693 1509.5,619C 1508.62,618.292 1507.95,617.458 1507.5,616.5 Z"/></g>
<g><path style="opacity:1" fill="#2c3d96" d="M 539.5,645.5 C 584.635,727.081 651.968,781.081 741.5,807.5C 635.176,831.265 539.842,808.931 455.5,740.5C 455.5,740.167 455.5,739.833 455.5,739.5C 478.109,703.546 506.109,672.213 539.5,645.5 Z"/></g>
<g><path style="opacity:1" fill="#881054" d="M 382.5,647.5 C 400.805,682.821 425.138,713.487 455.5,739.5C 455.5,739.833 455.5,740.167 455.5,740.5C 450.646,748.208 446.312,756.208 442.5,764.5C 413.323,730.485 393.323,691.485 382.5,647.5 Z"/></g>
<g><path style="opacity:1" fill="#a77d18" d="M 1035.5,546.5 C 1040.54,611.345 1026.54,671.678 993.5,727.5C 973.835,758.838 949.835,786.505 921.5,810.5C 876.442,819.453 831.109,821.286 785.5,816C 771.455,814.359 757.788,811.525 744.5,807.5C 798.239,793.972 845.239,768.472 885.5,731C 890.102,726.906 894.102,722.406 897.5,717.5C 897.833,717.5 898.167,717.5 898.5,717.5C 909.145,718.906 919.979,719.906 931,720.5C 932.5,720.167 934,719.833 935.5,719.5C 954.684,698.775 972.184,676.775 988,653.5C 1009.85,620.477 1025.68,584.811 1035.5,546.5 Z"/></g>
<g><path style="opacity:1" fill="#df9c6a" d="M 993.5,727.5 C 998.742,727.023 1003.74,727.856 1008.5,730C 1011.89,734.105 1012.39,738.605 1010,743.5C 1007.25,748.008 1004.25,752.341 1001,756.5C 979.972,778.006 961.472,801.339 945.5,826.5C 920.121,842.527 893.788,857.027 866.5,870C 847.305,878.049 827.638,884.716 807.5,890C 778.941,895.649 750.274,900.649 721.5,905C 711.53,906.112 701.53,906.612 691.5,906.5C 689.542,901.457 687.875,896.291 686.5,891C 686.862,889.566 687.528,888.399 688.5,887.5C 776.066,890.553 853.732,864.886 921.5,810.5C 949.835,786.505 973.835,758.838 993.5,727.5 Z"/></g>
<g><path style="opacity:1" fill="#262e63" d="M 455.5,740.5 C 539.842,808.931 635.176,831.265 741.5,807.5C 742.5,807.5 743.5,807.5 744.5,807.5C 757.788,811.525 771.455,814.359 785.5,816C 831.109,821.286 876.442,819.453 921.5,810.5C 853.732,864.886 776.066,890.553 688.5,887.5C 598.46,882.549 521.96,848.216 459,784.5C 452.887,778.232 447.387,771.565 442.5,764.5C 446.312,756.208 450.646,748.208 455.5,740.5 Z"/></g>
<g><path style="opacity:0.996" fill="#f1cdac" d="M 945.5,826.5 C 939.286,839.929 932.786,853.263 926,866.5C 911.417,888.877 890.917,902.877 864.5,908.5C 856.64,908.107 848.806,906.774 841,904.5C 833.29,909.417 834.123,912.584 843.5,914C 849.943,914.769 856.277,914.269 862.5,912.5C 850.928,963.172 844.595,1014.51 843.5,1066.5C 842.247,1154.52 865.081,1235.52 912,1309.5C 941.588,1353.09 978.421,1389.25 1022.5,1418C 1028.22,1421.19 1033.89,1424.36 1039.5,1427.5C 1039.5,1428.17 1039.83,1428.5 1040.5,1428.5C 1040.84,1429.34 1041.51,1429.67 1042.5,1429.5C 1042.5,1430.17 1042.83,1430.5 1043.5,1430.5C 1045.5,1431.5 1047.5,1432.5 1049.5,1433.5C 1049.84,1434.34 1050.51,1434.67 1051.5,1434.5C 1051.84,1435.34 1052.51,1435.67 1053.5,1435.5C 1097.42,1458.48 1143.75,1475.14 1192.5,1485.5C 1194.47,1578.95 1174.97,1667.61 1134,1751.5C 1126.13,1766.69 1117.46,1781.35 1108,1795.5C 1102.53,1803.46 1096.36,1810.79 1089.5,1817.5C 1096.51,1755.35 1099.01,1693.02 1097,1630.5C 1043.91,1599.54 994.079,1564.04 947.5,1524C 793.369,1385.01 727.869,1211.84 751,1004.5C 753.51,984.442 756.343,964.442 759.5,944.5C 760.167,944.5 760.5,944.167 760.5,943.5C 772.748,936.629 785.581,930.962 799,926.5C 803.764,923.403 803.431,921.736 798,921.5C 784.339,924.247 772.172,930.081 761.5,939C 759.859,940.129 758.859,941.629 758.5,943.5C 736.657,956.163 718.49,952.163 704,931.5C 698.768,923.702 694.601,915.369 691.5,906.5C 701.53,906.612 711.53,906.112 721.5,905C 750.274,900.649 778.941,895.649 807.5,890C 827.638,884.716 847.305,878.049 866.5,870C 893.788,857.027 920.121,842.527 945.5,826.5 Z"/></g>
<g><path style="opacity:1" fill="#a87d19" d="M 1784.5,975.5 C 1782.33,983.344 1779.99,991.011 1777.5,998.5C 1767.18,955.375 1742.51,923.208 1703.5,902C 1695.6,897.88 1687.6,894.047 1679.5,890.5C 1675.1,871.223 1663.77,857.723 1645.5,850C 1628.16,843.131 1610.16,839.465 1591.5,839C 1530.06,837.762 1469.4,844.096 1409.5,858C 1378.78,865.858 1349.78,877.858 1322.5,894C 1281.05,917.099 1243.88,945.932 1211,980.5C 1190.4,1004.69 1176.4,1032.36 1169,1063.5C 1167.5,1072.31 1167.34,1080.97 1168.5,1089.5C 1155.21,1126.97 1148.87,1165.64 1149.5,1205.5C 1148.35,1269.55 1163.18,1329.55 1194,1385.5C 1219.61,1428.61 1254.44,1461.94 1298.5,1485.5C 1296.9,1486.29 1296.23,1487.62 1296.5,1489.5C 1288.95,1487.54 1281.61,1485.2 1274.5,1482.5C 1264.4,1475.58 1254.4,1468.42 1244.5,1461C 1206.66,1431.17 1177.83,1394.34 1158,1350.5C 1137.56,1299.88 1127.23,1247.21 1127,1192.5C 1122.96,1057.68 1178.8,956.85 1294.5,890C 1369.47,851.602 1449.14,831.602 1533.5,830C 1576.45,827.692 1618.78,831.692 1660.5,842C 1729.46,861.117 1770.79,905.617 1784.5,975.5 Z"/></g>
<g><path style="opacity:1" fill="#f9b41a" d="M 1679.5,890.5 C 1626.59,870.906 1571.92,863.073 1515.5,867C 1422.44,872.456 1338.77,902.79 1264.5,958C 1220.16,992.847 1188.16,1036.68 1168.5,1089.5C 1167.34,1080.97 1167.5,1072.31 1169,1063.5C 1176.4,1032.36 1190.4,1004.69 1211,980.5C 1243.88,945.932 1281.05,917.099 1322.5,894C 1349.78,877.858 1378.78,865.858 1409.5,858C 1469.4,844.096 1530.06,837.762 1591.5,839C 1610.16,839.465 1628.16,843.131 1645.5,850C 1663.77,857.723 1675.1,871.223 1679.5,890.5 Z"/></g>
<g><path style="opacity:1" fill="#f0cdac" d="M 1679.5,890.5 C 1687.6,894.047 1695.6,897.88 1703.5,902C 1742.51,923.208 1767.18,955.375 1777.5,998.5C 1772.57,1049.34 1777.07,1099.34 1791,1148.5C 1841.54,1284.59 1803.7,1387.76 1677.5,1458C 1653.7,1470.87 1629.04,1481.71 1603.5,1490.5C 1605.89,1488.39 1607.22,1485.72 1607.5,1482.5C 1573.87,1490.16 1540.21,1497.16 1506.5,1503.5C 1505.56,1503.39 1504.72,1503.06 1504,1502.5C 1501.67,1493.38 1497.67,1492.38 1492,1499.5C 1491.39,1502.39 1489.89,1504.55 1487.5,1506C 1466.31,1509.51 1444.98,1511.01 1423.5,1510.5C 1420.5,1510.5 1417.5,1510.5 1414.5,1510.5C 1413.5,1510.5 1412.5,1510.5 1411.5,1510.5C 1391.25,1508.23 1370.92,1505.56 1350.5,1502.5C 1349.43,1501.57 1348.1,1501.23 1346.5,1501.5C 1345.83,1501.5 1345.17,1501.5 1344.5,1501.5C 1344.16,1500.66 1343.49,1500.33 1342.5,1500.5C 1341.5,1500.5 1340.5,1500.5 1339.5,1500.5C 1339.5,1499.83 1339.17,1499.5 1338.5,1499.5C 1324.66,1496.22 1311.33,1491.55 1298.5,1485.5C 1254.44,1461.94 1219.61,1428.61 1194,1385.5C 1163.18,1329.55 1148.35,1269.55 1149.5,1205.5C 1148.87,1165.64 1155.21,1126.97 1168.5,1089.5C 1188.16,1036.68 1220.16,992.847 1264.5,958C 1338.77,902.79 1422.44,872.456 1515.5,867C 1571.92,863.073 1626.59,870.906 1679.5,890.5 Z"/></g>
<g><path style="opacity:0.971" fill="#9edaf6" d="M 455.5,899.5 C 469.37,904.863 481.536,912.863 492,923.5C 497.359,929.91 499.693,937.243 499,945.5C 496.833,948.287 493.999,949.12 490.5,948C 484.871,945.602 480.037,942.102 476,937.5C 466.301,926.438 459.467,913.772 455.5,899.5 Z"/></g>
<g><path style="opacity:1" fill="#bc895f" d="M 864.5,908.5 C 864.34,910.153 863.674,911.486 862.5,912.5C 856.277,914.269 849.943,914.769 843.5,914C 834.123,912.584 833.29,909.417 841,904.5C 848.806,906.774 856.64,908.107 864.5,908.5 Z"/></g>
<g><path style="opacity:1" fill="#ba865c" d="M 760.5,943.5 C 759.833,943.5 759.5,943.833 759.5,944.5C 758.833,944.5 758.5,944.167 758.5,943.5C 758.859,941.629 759.859,940.129 761.5,939C 772.172,930.081 784.339,924.247 798,921.5C 803.431,921.736 803.764,923.403 799,926.5C 785.581,930.962 772.748,936.629 760.5,943.5 Z"/></g>
<g><path style="opacity:1" fill="#541c18" d="M 1624.5,992.5 C 1632.68,991.877 1640.01,994.044 1646.5,999C 1654.78,1007.1 1662.11,1015.94 1668.5,1025.5C 1667.64,1026.58 1666.64,1026.75 1665.5,1026C 1658.06,1017.55 1649.72,1010.22 1640.5,1004C 1633.62,999.973 1626.62,999.639 1619.5,1003C 1615.58,1006.25 1612.41,1010.08 1610,1014.5C 1602.81,1030.42 1595.81,1046.42 1589,1062.5C 1586.79,1065.56 1583.96,1067.56 1580.5,1068.5C 1583.99,1042.85 1594.49,1020.51 1612,1001.5C 1615.79,997.862 1619.96,994.862 1624.5,992.5 Z"/></g>
<g><path style="opacity:0.978" fill="#9edaf6" d="M 482.5,995.5 C 503.506,995.78 522.506,1001.95 539.5,1014C 546.127,1020.14 550.46,1027.64 552.5,1036.5C 550.211,1041.65 546.211,1044.32 540.5,1044.5C 517.262,1039.43 499.429,1026.76 487,1006.5C 485.201,1002.93 483.701,999.263 482.5,995.5 Z"/></g>
<g><path style="opacity:1" fill="#531b17" d="M 1332.5,1090.5 C 1342.15,1090.44 1350.81,1093.27 1358.5,1099C 1367.79,1106.79 1375.29,1115.96 1381,1126.5C 1381.49,1127.79 1381.66,1129.13 1381.5,1130.5C 1380.13,1130.66 1378.79,1130.49 1377.5,1130C 1370.13,1120.96 1361.8,1112.96 1352.5,1106C 1342.09,1099.61 1331.42,1098.94 1320.5,1104C 1316.39,1108.31 1314.23,1113.48 1314,1119.5C 1313.67,1127.5 1313.33,1135.5 1313,1143.5C 1308.37,1151.76 1304.7,1151.42 1302,1142.5C 1299.65,1117.5 1309.82,1100.16 1332.5,1090.5 Z"/></g>
<g><path style="opacity:1" fill="#321715" d="M 1663.5,1124.5 C 1668.78,1125.25 1672.94,1127.91 1676,1132.5C 1687.43,1149.46 1692.76,1168.12 1692,1188.5C 1691.02,1191.1 1689.86,1193.6 1688.5,1196C 1686.5,1196.67 1684.5,1196.67 1682.5,1196C 1674.33,1189.19 1668.5,1180.69 1665,1170.5C 1659.37,1157.7 1657.37,1144.37 1659,1130.5C 1660.28,1128.25 1661.78,1126.25 1663.5,1124.5 Z"/></g>
<g><path style="opacity:1" fill="#f4f2f2" d="M 1660.5,1136.5 C 1662.9,1136.39 1664.74,1137.39 1666,1139.5C 1669.82,1145.68 1670.32,1152.02 1667.5,1158.5C 1664.38,1156.28 1662.21,1153.28 1661,1149.5C 1660.5,1145.18 1660.33,1140.85 1660.5,1136.5 Z"/></g>
<g><path style="opacity:0.998" fill="#a3167e" d="M 1131.5,1417.5 C 1108.58,1436.73 1082.58,1442.73 1053.5,1435.5C 1053.16,1434.66 1052.49,1434.33 1051.5,1434.5C 1051.16,1433.66 1050.49,1433.33 1049.5,1433.5C 1047.5,1432.5 1045.5,1431.5 1043.5,1430.5C 1042.83,1430.5 1042.5,1430.17 1042.5,1429.5C 1042.5,1429.17 1042.5,1428.83 1042.5,1428.5C 1079.71,1443.5 1099.54,1430.83 1102,1390.5C 1102.67,1362.84 1098.67,1335.84 1090,1309.5C 1080.85,1278.69 1067.85,1249.69 1051,1222.5C 1041.96,1208.13 1029.8,1197.29 1014.5,1190C 999.583,1184.45 985.249,1185.61 971.5,1193.5C 976.048,1184.95 982.381,1177.95 990.5,1172.5C 1015.12,1158.06 1039.78,1157.89 1064.5,1172C 1074,1178.83 1082.17,1187 1089,1196.5C 1107.66,1226.5 1122,1258.5 1132,1292.5C 1141.38,1322.49 1145.05,1353.16 1143,1384.5C 1141.83,1396.51 1138,1407.51 1131.5,1417.5 Z"/></g>
<g><path style="opacity:0.998" fill="#ed197d" d="M 1042.5,1428.5 C 1041.83,1428.5 1041.17,1428.5 1040.5,1428.5C 1039.83,1428.5 1039.5,1428.17 1039.5,1427.5C 987.537,1381.9 959.204,1324.24 954.5,1254.5C 954.678,1236.79 958.178,1219.79 965,1203.5C 966.942,1199.93 969.108,1196.6 971.5,1193.5C 985.249,1185.61 999.583,1184.45 1014.5,1190C 1029.8,1197.29 1041.96,1208.13 1051,1222.5C 1067.85,1249.69 1080.85,1278.69 1090,1309.5C 1098.67,1335.84 1102.67,1362.84 1102,1390.5C 1099.54,1430.83 1079.71,1443.5 1042.5,1428.5 Z"/></g>
<g><path style="opacity:1" fill="#f9b9b1" d="M 1738.5,1186.5 C 1745.51,1186.33 1752.51,1186.5 1759.5,1187C 1765.54,1187.79 1770.71,1190.29 1775,1194.5C 1776.36,1201.28 1773.86,1206.11 1767.5,1209C 1749.16,1218.5 1729.83,1221.5 1709.5,1218C 1700.3,1216.19 1697.13,1211.03 1700,1202.5C 1705.63,1197.27 1712.13,1193.43 1719.5,1191C 1725.99,1189.55 1732.32,1188.05 1738.5,1186.5 Z"/></g>
<g><path style="opacity:1" fill="#321715" d="M 1390.5,1213.5 C 1392.65,1213.37 1394.65,1213.87 1396.5,1215C 1407.45,1226.4 1414.62,1239.9 1418,1255.5C 1419.49,1263.45 1419.82,1271.45 1419,1279.5C 1414.79,1287.11 1409.79,1287.45 1404,1280.5C 1390.78,1261.84 1385.11,1241.17 1387,1218.5C 1388,1216.68 1389.16,1215.01 1390.5,1213.5 Z"/></g>
<g><path style="opacity:1" fill="#991161" d="M 1017.5,1223.5 C 1017.82,1236.63 1021.65,1248.63 1029,1259.5C 1031.09,1262.09 1033.59,1264.09 1036.5,1265.5C 1036.31,1271.53 1033.31,1274.03 1027.5,1273C 1016.52,1264.21 1010.35,1252.71 1009,1238.5C 1007.84,1233.27 1008.67,1228.44 1011.5,1224C 1013.46,1222.39 1015.46,1222.22 1017.5,1223.5 Z"/></g>
<g><path style="opacity:1" fill="#9e1636" d="M 1017.5,1223.5 C 1020.64,1224.13 1023.14,1225.8 1025,1228.5C 1033.83,1239.47 1037.66,1251.81 1036.5,1265.5C 1033.59,1264.09 1031.09,1262.09 1029,1259.5C 1021.65,1248.63 1017.82,1236.63 1017.5,1223.5 Z"/></g>
<g><path style="opacity:1" fill="#f5f4f4" d="M 1388.5,1225.5 C 1392.48,1227 1394.98,1230 1396,1234.5C 1396.67,1238.5 1396.67,1242.5 1396,1246.5C 1393.91,1247.5 1392.24,1246.83 1391,1244.5C 1387.66,1238.43 1386.83,1232.1 1388.5,1225.5 Z"/></g>
<g><path style="opacity:1" fill="#ba875c" d="M 1584.5,1237.5 C 1606.1,1239.42 1625.77,1246.59 1643.5,1259C 1660.1,1274.66 1660.76,1290.99 1645.5,1308C 1630.49,1318.76 1614.32,1327.59 1597,1334.5C 1595.66,1332.56 1596.16,1330.72 1598.5,1329C 1613.6,1322.62 1627.93,1314.95 1641.5,1306C 1653.47,1295.65 1654.64,1284.15 1645,1271.5C 1636.61,1262.05 1626.44,1255.22 1614.5,1251C 1604.5,1247.39 1594.5,1243.89 1584.5,1240.5C 1584.5,1239.5 1584.5,1238.5 1584.5,1237.5 Z"/></g>
<g><path style="opacity:1" fill="#991161" d="M 981.5,1255.5 C 981.94,1267.85 986.607,1278.18 995.5,1286.5C 995.778,1292.39 993.112,1294.89 987.5,1294C 979.49,1287.83 974.657,1279.66 973,1269.5C 972.333,1265.5 972.333,1261.5 973,1257.5C 975.146,1253.17 977.979,1252.51 981.5,1255.5 Z"/></g>
<g><path style="opacity:1" fill="#9f1537" d="M 981.5,1255.5 C 984.298,1256.71 986.465,1258.71 988,1261.5C 993.037,1269.11 995.537,1277.44 995.5,1286.5C 986.607,1278.18 981.94,1267.85 981.5,1255.5 Z"/></g>
<g><path style="opacity:1" fill="#f9b9b1" d="M 1372.5,1287.5 C 1380.71,1286.36 1388.21,1288.03 1395,1292.5C 1396.3,1294.36 1396.63,1296.36 1396,1298.5C 1394.02,1302.96 1391.19,1306.79 1387.5,1310C 1370.38,1323.11 1351.04,1328.78 1329.5,1327C 1322.09,1325.02 1319.93,1320.52 1323,1313.5C 1330.42,1304.69 1339.59,1298.19 1350.5,1294C 1357.81,1291.28 1365.14,1289.11 1372.5,1287.5 Z"/></g>
<g><path style="opacity:1" fill="#991161" d="M 1057.5,1313.5 C 1056.91,1326.99 1060.41,1339.32 1068,1350.5C 1070.11,1353.12 1072.61,1355.12 1075.5,1356.5C 1075,1362.18 1072,1364.68 1066.5,1364C 1061.62,1360.79 1057.79,1356.62 1055,1351.5C 1049.77,1341.44 1047.77,1330.77 1049,1319.5C 1050.07,1314.92 1052.91,1312.92 1057.5,1313.5 Z"/></g>
<g><path style="opacity:1" fill="#9e1536" d="M 1057.5,1313.5 C 1066.8,1320.07 1072.64,1329.07 1075,1340.5C 1075.5,1345.82 1075.67,1351.16 1075.5,1356.5C 1072.61,1355.12 1070.11,1353.12 1068,1350.5C 1060.41,1339.32 1056.91,1326.99 1057.5,1313.5 Z"/></g>
<g><path style="opacity:1" fill="#9a1161" d="M 1007.5,1338.5 C 1005.88,1351.97 1010.22,1363.3 1020.5,1372.5C 1020.13,1377.71 1017.47,1380.21 1012.5,1380C 1006.29,1376.1 1002.13,1370.6 1000,1363.5C 997.372,1356.73 996.372,1349.73 997,1342.5C 998.851,1336.34 1002.35,1335.01 1007.5,1338.5 Z"/></g>
<g><path style="opacity:1" fill="#9e1536" d="M 1007.5,1338.5 C 1016.82,1347.83 1021.15,1359.16 1020.5,1372.5C 1010.22,1363.3 1005.88,1351.97 1007.5,1338.5 Z"/></g>
<g><path style="opacity:1" fill="#ba865c" d="M 1490.5,1369.5 C 1491.38,1369.37 1492.04,1369.7 1492.5,1370.5C 1490.16,1379.51 1486,1387.51 1480,1394.5C 1483.15,1418.34 1495.65,1435.51 1517.5,1446C 1539.02,1453.42 1559.69,1451.42 1579.5,1440C 1595.29,1429.21 1608.79,1416.04 1620,1400.5C 1621.26,1398.39 1623.1,1397.39 1625.5,1397.5C 1625.51,1399.31 1625.01,1400.98 1624,1402.5C 1614.55,1414.95 1604.05,1426.45 1592.5,1437C 1572.86,1452.77 1550.52,1459.44 1525.5,1457C 1496.01,1448.86 1479.51,1429.69 1476,1399.5C 1468.73,1406.43 1460.23,1411.26 1450.5,1414C 1442.64,1415.53 1441.31,1413.86 1446.5,1409C 1462.82,1405.44 1475.32,1396.6 1484,1382.5C 1485.69,1377.8 1487.85,1373.46 1490.5,1369.5 Z"/></g>
<g><path style="opacity:0.999" fill="#ed207e" d="M 1603.5,1490.5 C 1603.5,1491.17 1603.17,1491.5 1602.5,1491.5C 1592.66,1495.56 1582.66,1499.22 1572.5,1502.5C 1587.48,1506.51 1600.48,1513.84 1611.5,1524.5C 1615.9,1530.08 1619.73,1536.08 1623,1542.5C 1629.21,1560.37 1624.71,1574.7 1609.5,1585.5C 1601.88,1589.4 1593.88,1590.4 1585.5,1588.5C 1569.82,1582.39 1556.65,1572.73 1546,1559.5C 1534.73,1545.97 1526.9,1530.63 1522.5,1513.5C 1521.5,1513.5 1520.5,1513.5 1519.5,1513.5C 1524.78,1543.06 1536.78,1569.39 1555.5,1592.5C 1568.81,1610.48 1584.48,1626.15 1602.5,1639.5C 1609.36,1644.76 1616.36,1649.76 1623.5,1654.5C 1622.91,1661.11 1621.58,1667.44 1619.5,1673.5C 1611.62,1670.89 1604.28,1667.22 1597.5,1662.5C 1580.82,1649.66 1566.32,1634.66 1554,1617.5C 1548.97,1609.66 1543.8,1601.99 1538.5,1594.5C 1530.62,1580.74 1523.79,1566.4 1518,1551.5C 1519.94,1566.6 1523.44,1581.26 1528.5,1595.5C 1539.02,1631.74 1559.69,1660.58 1590.5,1682C 1589.3,1685.87 1586.8,1688.37 1583,1689.5C 1555.96,1680.13 1536.96,1662.13 1526,1635.5C 1518.17,1616.18 1512.84,1596.18 1510,1575.5C 1509.28,1591.4 1505.28,1606.4 1498,1620.5C 1482.88,1642.02 1463.72,1646.52 1440.5,1634C 1430.24,1624.06 1425.57,1611.89 1426.5,1597.5C 1427.96,1584.3 1432.12,1571.97 1439,1560.5C 1447.1,1545.48 1457.27,1531.98 1469.5,1520C 1435.52,1521.33 1401.52,1521.67 1367.5,1521C 1352.19,1520.01 1337.52,1516.51 1323.5,1510.5C 1317.21,1507.69 1311.21,1504.35 1305.5,1500.5C 1302.15,1497.15 1299.15,1493.48 1296.5,1489.5C 1296.23,1487.62 1296.9,1486.29 1298.5,1485.5C 1311.33,1491.55 1324.66,1496.22 1338.5,1499.5C 1339.17,1499.5 1339.5,1499.83 1339.5,1500.5C 1340.5,1500.5 1341.5,1500.5 1342.5,1500.5C 1342.84,1501.34 1343.51,1501.67 1344.5,1501.5C 1345.17,1501.5 1345.83,1501.5 1346.5,1501.5C 1347.57,1502.43 1348.9,1502.77 1350.5,1502.5C 1370.37,1507.69 1390.7,1510.36 1411.5,1510.5C 1412.5,1510.5 1413.5,1510.5 1414.5,1510.5C 1417.5,1511.83 1420.5,1511.83 1423.5,1510.5C 1444.98,1511.01 1466.31,1509.51 1487.5,1506C 1489.89,1504.55 1491.39,1502.39 1492,1499.5C 1497.67,1492.38 1501.67,1493.38 1504,1502.5C 1504.72,1503.06 1505.56,1503.39 1506.5,1503.5C 1540.21,1497.16 1573.87,1490.16 1607.5,1482.5C 1607.22,1485.72 1605.89,1488.39 1603.5,1490.5 Z M 1350.5,1502.5 C 1370.92,1505.56 1391.25,1508.23 1411.5,1510.5C 1390.7,1510.36 1370.37,1507.69 1350.5,1502.5 Z"/></g>
<g><path style="opacity:1" fill="#df9c6a" d="M 1192.5,1485.5 C 1204.15,1487.96 1215.81,1490.3 1227.5,1492.5C 1228.44,1561.77 1220.94,1630.11 1205,1697.5C 1196.37,1733.08 1182.04,1766.08 1162,1796.5C 1148,1816.51 1129.83,1831.34 1107.5,1841C 1100.31,1843.46 1092.98,1845.3 1085.5,1846.5C 1086.76,1836.78 1088.09,1827.12 1089.5,1817.5C 1096.36,1810.79 1102.53,1803.46 1108,1795.5C 1117.46,1781.35 1126.13,1766.69 1134,1751.5C 1174.97,1667.61 1194.47,1578.95 1192.5,1485.5 Z"/></g>
<g><path style="opacity:1" fill="#db905d" d="M 1602.5,1491.5 C 1605.53,1496.85 1608.53,1502.18 1611.5,1507.5C 1611.5,1513.17 1611.5,1518.83 1611.5,1524.5C 1600.48,1513.84 1587.48,1506.51 1572.5,1502.5C 1582.66,1499.22 1592.66,1495.56 1602.5,1491.5 Z"/></g>
<g><path style="opacity:1" fill="#262e63" d="M 1227.5,1492.5 C 1252.34,1496.63 1277.34,1499.3 1302.5,1500.5C 1291.67,1537.48 1284.17,1575.15 1280,1613.5C 1275.28,1655.85 1278.61,1697.52 1290,1738.5C 1310.1,1796.93 1349.94,1834.43 1409.5,1851C 1466.56,1866.53 1515.06,1852.7 1555,1809.5C 1587.68,1769.69 1609.18,1724.36 1619.5,1673.5C 1621.58,1667.44 1622.91,1661.11 1623.5,1654.5C 1627.54,1636.52 1630.04,1618.18 1631,1599.5C 1631.5,1582.17 1631.67,1564.84 1631.5,1547.5C 1635.73,1555.51 1639.4,1563.85 1642.5,1572.5C 1661.38,1623.9 1673.38,1676.9 1678.5,1731.5C 1681.93,1770.43 1682.93,1809.43 1681.5,1848.5C 1677.79,1834.81 1674.29,1820.81 1671,1806.5C 1667.14,1792.28 1660.31,1779.78 1650.5,1769C 1642.92,1764.18 1635.59,1764.52 1628.5,1770C 1625,1773.5 1621.5,1777 1618,1780.5C 1606.61,1796.9 1595.61,1813.56 1585,1830.5C 1561.23,1864.31 1529.06,1885.48 1488.5,1894C 1442.94,1901.68 1398.61,1897.35 1355.5,1881C 1313.67,1862.17 1284.5,1831.34 1268,1788.5C 1262,1771.14 1256,1753.81 1250,1736.5C 1246.4,1733.65 1243.4,1734.31 1241,1738.5C 1238.41,1742.67 1236.08,1747.01 1234,1751.5C 1207.85,1821.1 1189.68,1892.77 1179.5,1966.5C 1143.08,1955.48 1106.08,1946.81 1068.5,1940.5C 1075.2,1909.36 1080.86,1878.02 1085.5,1846.5C 1092.98,1845.3 1100.31,1843.46 1107.5,1841C 1129.83,1831.34 1148,1816.51 1162,1796.5C 1182.04,1766.08 1196.37,1733.08 1205,1697.5C 1220.94,1630.11 1228.44,1561.77 1227.5,1492.5 Z"/></g>
<g><path style="opacity:1" fill="#f9b41a" d="M 1302.5,1500.5 C 1303.5,1500.5 1304.5,1500.5 1305.5,1500.5C 1311.21,1504.35 1317.21,1507.69 1323.5,1510.5C 1318.2,1534.95 1314.2,1559.62 1311.5,1584.5C 1307.29,1627.65 1310.12,1670.32 1320,1712.5C 1330.57,1754.36 1354.07,1786.53 1390.5,1809C 1427.61,1827.19 1464.61,1826.86 1501.5,1808C 1528.72,1791.78 1550.22,1769.95 1566,1742.5C 1580.33,1717.35 1590.83,1690.69 1597.5,1662.5C 1604.28,1667.22 1611.62,1670.89 1619.5,1673.5C 1609.18,1724.36 1587.68,1769.69 1555,1809.5C 1515.06,1852.7 1466.56,1866.53 1409.5,1851C 1349.94,1834.43 1310.1,1796.93 1290,1738.5C 1278.61,1697.52 1275.28,1655.85 1280,1613.5C 1284.17,1575.15 1291.67,1537.48 1302.5,1500.5 Z"/></g>
<g><path style="opacity:0.999" fill="#f9b41a" d="M 1611.5,1507.5 C 1619.19,1520.21 1625.85,1533.54 1631.5,1547.5C 1631.67,1564.84 1631.5,1582.17 1631,1599.5C 1630.04,1618.18 1627.54,1636.52 1623.5,1654.5C 1616.36,1649.76 1609.36,1644.76 1602.5,1639.5C 1606.14,1621.71 1608.48,1603.71 1609.5,1585.5C 1624.71,1574.7 1629.21,1560.37 1623,1542.5C 1619.73,1536.08 1615.9,1530.08 1611.5,1524.5C 1611.5,1518.83 1611.5,1513.17 1611.5,1507.5 Z"/></g>
<g><path style="opacity:1" fill="#db905c" d="M 1323.5,1510.5 C 1337.52,1516.51 1352.19,1520.01 1367.5,1521C 1401.52,1521.67 1435.52,1521.33 1469.5,1520C 1457.27,1531.98 1447.1,1545.48 1439,1560.5C 1432.12,1571.97 1427.96,1584.3 1426.5,1597.5C 1401.04,1598.04 1375.71,1596.54 1350.5,1593C 1337.37,1590.63 1324.37,1587.8 1311.5,1584.5C 1314.2,1559.62 1318.2,1534.95 1323.5,1510.5 Z"/></g>
<g><path style="opacity:1" fill="#db8f5d" d="M 1585.5,1588.5 C 1575.45,1589.56 1565.45,1590.89 1555.5,1592.5C 1536.78,1569.39 1524.78,1543.06 1519.5,1513.5C 1520.5,1513.5 1521.5,1513.5 1522.5,1513.5C 1526.9,1530.63 1534.73,1545.97 1546,1559.5C 1556.65,1572.73 1569.82,1582.39 1585.5,1588.5 Z"/></g>
<g><path style="opacity:1" fill="#db905c" d="M 1612.5,1548.5 C 1611.66,1555.5 1610.99,1562.66 1610.5,1570C 1610.51,1571.71 1610.84,1573.21 1611.5,1574.5C 1610.4,1575.56 1609.07,1576.39 1607.5,1577C 1595.29,1578.49 1584.29,1575.49 1574.5,1568C 1567,1561.83 1560.17,1555 1554,1547.5C 1546.11,1536.61 1538.61,1525.44 1531.5,1514C 1550.7,1513.97 1569.37,1517.31 1587.5,1524C 1598.33,1529.66 1606.66,1537.83 1612.5,1548.5 Z"/></g>
<g><path style="opacity:1" fill="#db905c" d="M 1498.5,1596.5 C 1478.17,1597.04 1457.84,1597.37 1437.5,1597.5C 1437.5,1598.5 1437.5,1599.5 1437.5,1600.5C 1436.42,1588.76 1438.59,1577.43 1444,1566.5C 1452.82,1548.36 1464.65,1532.53 1479.5,1519C 1483.77,1517.92 1488.1,1517.42 1492.5,1517.5C 1495.42,1532.72 1497.59,1548.05 1499,1563.5C 1499.77,1574.53 1499.6,1585.53 1498.5,1596.5 Z"/></g>
<g><path style="opacity:0.999" fill="#f9b021" d="M 1612.5,1548.5 C 1617.99,1556.04 1618.82,1564.04 1615,1572.5C 1613.89,1573.31 1612.72,1573.97 1611.5,1574.5C 1610.84,1573.21 1610.51,1571.71 1610.5,1570C 1610.99,1562.66 1611.66,1555.5 1612.5,1548.5 Z"/></g>
<g><path style="opacity:1" fill="#dc8e5e" d="M 1538.5,1594.5 C 1534.96,1594.19 1531.62,1594.52 1528.5,1595.5C 1523.44,1581.26 1519.94,1566.6 1518,1551.5C 1523.79,1566.4 1530.62,1580.74 1538.5,1594.5 Z"/></g>
<g><path style="opacity:1" fill="#e09c6a" d="M 1642.5,1572.5 C 1651.22,1575.07 1659.55,1578.4 1667.5,1582.5C 1686.45,1632.29 1699.45,1683.62 1706.5,1736.5C 1706.46,1738.95 1705.79,1740.95 1704.5,1742.5C 1695.83,1738.83 1687.17,1735.17 1678.5,1731.5C 1673.38,1676.9 1661.38,1623.9 1642.5,1572.5 Z"/></g>
<g><path style="opacity:0.996" fill="#f0cead" d="M 1667.5,1582.5 C 1698.79,1594.48 1729.13,1608.65 1758.5,1625C 1830.67,1665.74 1898.67,1712.41 1962.5,1765C 2071.25,1855.09 2169.92,1955.09 2258.5,2065C 2339.35,2067 2401.51,2101.83 2445,2169.5C 2457.69,2189.4 2467.19,2210.73 2473.5,2233.5C 2474.75,2239.85 2474.75,2246.18 2473.5,2252.5C 2472,2252.83 2470.5,2253.17 2469,2253.5C 2465.93,2253.52 2463.09,2252.85 2460.5,2251.5C 2458.54,2249.84 2456.54,2248.18 2454.5,2246.5C 2454.5,2245.83 2454.17,2245.5 2453.5,2245.5C 2453.5,2244.83 2453.17,2244.5 2452.5,2244.5C 2452.5,2243.83 2452.17,2243.5 2451.5,2243.5C 2451.5,2242.83 2451.17,2242.5 2450.5,2242.5C 2445.54,2235.87 2439.87,2229.87 2433.5,2224.5C 2433.5,2223.83 2433.17,2223.5 2432.5,2223.5C 2432.5,2222.83 2432.17,2222.5 2431.5,2222.5C 2413.64,2199.64 2394.31,2177.97 2373.5,2157.5C 2387.14,2179.78 2399.47,2202.78 2410.5,2226.5C 2415.02,2239.56 2419.86,2252.56 2425,2265.5C 2431.04,2281.66 2434.87,2298.32 2436.5,2315.5C 2436.97,2327.27 2431.97,2330.43 2421.5,2325C 2417.45,2322.07 2413.95,2318.57 2411,2314.5C 2397.25,2294.68 2384.25,2274.34 2372,2253.5C 2368.3,2247.41 2364.13,2241.74 2359.5,2236.5C 2352.66,2225.48 2345.32,2214.81 2337.5,2204.5C 2342.11,2214.05 2346.44,2223.72 2350.5,2233.5C 2363.65,2265.72 2372.81,2299.06 2378,2333.5C 2378.67,2342.17 2378.67,2350.83 2378,2359.5C 2377.29,2371.3 2372.29,2373.64 2363,2366.5C 2359,2360.5 2355,2354.5 2351,2348.5C 2335.47,2318.11 2320.47,2287.44 2306,2256.5C 2303.06,2250.94 2299.89,2245.6 2296.5,2240.5C 2292.16,2231.13 2286.82,2222.46 2280.5,2214.5C 2283.78,2224.02 2287.45,2233.35 2291.5,2242.5C 2300.79,2272.78 2308.62,2303.45 2315,2334.5C 2318.2,2347.08 2316.87,2359.08 2311,2370.5C 2302.88,2377.86 2295.88,2376.86 2290,2367.5C 2279.24,2341.03 2268.41,2314.69 2257.5,2288.5C 2247.6,2264.02 2235.1,2241.02 2220,2219.5C 2214.63,2212.78 2208.13,2207.62 2200.5,2204C 2196.45,2203.44 2193.28,2204.94 2191,2208.5C 2188.19,2214.87 2186.53,2221.54 2186,2228.5C 2185.5,2242.16 2185.33,2255.83 2185.5,2269.5C 2185.78,2279.29 2183.95,2288.62 2180,2297.5C 2168.18,2304.77 2159.85,2301.77 2155,2288.5C 2150.71,2272.65 2148.54,2256.65 2148.5,2240.5C 2150.01,2215.1 2155.18,2190.44 2164,2166.5C 2170.36,2149.16 2180.86,2134.99 2195.5,2124C 2074.53,1979.34 1931.2,1862.34 1765.5,1773C 1745.35,1762.26 1725.02,1752.09 1704.5,1742.5C 1705.79,1740.95 1706.46,1738.95 1706.5,1736.5C 1699.45,1683.62 1686.45,1632.29 1667.5,1582.5 Z M 2373.5,2157.5 C 2394.31,2177.97 2413.64,2199.64 2431.5,2222.5C 2426.65,2220.68 2421.65,2220.18 2416.5,2221C 2414,2222.33 2412,2224.16 2410.5,2226.5C 2399.47,2202.78 2387.14,2179.78 2373.5,2157.5 Z M 2337.5,2204.5 C 2345.32,2214.81 2352.66,2225.48 2359.5,2236.5C 2356.42,2235.7 2353.42,2234.7 2350.5,2233.5C 2346.44,2223.72 2342.11,2214.05 2337.5,2204.5 Z M 2280.5,2214.5 C 2286.82,2222.46 2292.16,2231.13 2296.5,2240.5C 2294.95,2241.44 2293.28,2242.11 2291.5,2242.5C 2287.45,2233.35 2283.78,2224.02 2280.5,2214.5 Z M 2454.5,2246.5 C 2456.54,2248.18 2458.54,2249.84 2460.5,2251.5C 2460.22,2252.29 2459.72,2252.96 2459,2253.5C 2457.25,2251.27 2455.75,2248.93 2454.5,2246.5 Z"/></g>
<g><path style="opacity:1" fill="#eabc91" d="M 1528.5,1595.5 C 1531.62,1594.52 1534.96,1594.19 1538.5,1594.5C 1543.8,1601.99 1548.97,1609.66 1554,1617.5C 1566.32,1634.66 1580.82,1649.66 1597.5,1662.5C 1590.83,1690.69 1580.33,1717.35 1566,1742.5C 1550.22,1769.95 1528.72,1791.78 1501.5,1808C 1464.61,1826.86 1427.61,1827.19 1390.5,1809C 1354.07,1786.53 1330.57,1754.36 1320,1712.5C 1310.12,1670.32 1307.29,1627.65 1311.5,1584.5C 1324.37,1587.8 1337.37,1590.63 1350.5,1593C 1375.71,1596.54 1401.04,1598.04 1426.5,1597.5C 1425.57,1611.89 1430.24,1624.06 1440.5,1634C 1463.72,1646.52 1482.88,1642.02 1498,1620.5C 1505.28,1606.4 1509.28,1591.4 1510,1575.5C 1512.84,1596.18 1518.17,1616.18 1526,1635.5C 1536.96,1662.13 1555.96,1680.13 1583,1689.5C 1586.8,1688.37 1589.3,1685.87 1590.5,1682C 1559.69,1660.58 1539.02,1631.74 1528.5,1595.5 Z"/></g>
<g><path style="opacity:1" fill="#e9bc91" d="M 1609.5,1585.5 C 1608.48,1603.71 1606.14,1621.71 1602.5,1639.5C 1584.48,1626.15 1568.81,1610.48 1555.5,1592.5C 1565.45,1590.89 1575.45,1589.56 1585.5,1588.5C 1593.88,1590.4 1601.88,1589.4 1609.5,1585.5 Z"/></g>
<g><path style="opacity:1" fill="#b9865b" d="M 1099.5,1596.5 C 1100.55,1596.35 1101.55,1596.52 1102.5,1597C 1126.17,1613.69 1140.5,1636.35 1145.5,1665C 1145.44,1667.63 1144.28,1669.46 1142,1670.5C 1138.17,1662.82 1134.83,1654.82 1132,1646.5C 1124.08,1628.67 1112.75,1613.34 1098,1600.5C 1097.7,1598.93 1098.2,1597.6 1099.5,1596.5 Z"/></g>
<g><path style="opacity:1" fill="#e9bc91" d="M 1498.5,1596.5 C 1492.22,1630.88 1474.56,1638.05 1445.5,1618C 1440.53,1613.22 1437.86,1607.39 1437.5,1600.5C 1437.5,1599.5 1437.5,1598.5 1437.5,1597.5C 1457.84,1597.37 1478.17,1597.04 1498.5,1596.5 Z"/></g>
<g><path style="opacity:1" fill="#2c3d96" d="M 1681.5,1848.5 C 1678.77,1896.36 1672.77,1943.7 1663.5,1990.5C 1623.53,2012.15 1583.53,2033.82 1543.5,2055.5C 1571.53,2082.19 1599.86,2108.53 1628.5,2134.5C 1628.14,2137.27 1627.48,2139.93 1626.5,2142.5C 1602.48,2179.43 1573.15,2211.76 1538.5,2239.5C 1526.32,2232.5 1513.32,2230.67 1499.5,2234C 1473.43,2242.7 1450.09,2256.03 1429.5,2274C 1421.19,2281.63 1413.19,2289.46 1405.5,2297.5C 1394.24,2299.25 1382.91,2300.25 1371.5,2300.5C 1371.4,2287.34 1366.73,2276.17 1357.5,2267C 1347.15,2262.89 1337.48,2264.23 1328.5,2271C 1317.6,2279.07 1308.26,2288.57 1300.5,2299.5C 1295.75,2298.75 1291.09,2297.75 1286.5,2296.5C 1286.67,2277.16 1286.5,2257.83 1286,2238.5C 1284.88,2217.49 1279.88,2197.49 1271,2178.5C 1262,2164.72 1249.5,2160.22 1233.5,2165C 1224.77,2168.2 1216.44,2172.2 1208.5,2177C 1200.99,2182.36 1193.65,2187.86 1186.5,2193.5C 1174.03,2149.4 1169.03,2104.4 1171.5,2058.5C 1171.5,2058.17 1171.5,2057.83 1171.5,2057.5C 1205.91,2041.13 1239.91,2023.96 1273.5,2006C 1244.4,1989.57 1213.74,1976.74 1181.5,1967.5C 1181.16,1966.66 1180.49,1966.33 1179.5,1966.5C 1189.68,1892.77 1207.85,1821.1 1234,1751.5C 1236.08,1747.01 1238.41,1742.67 1241,1738.5C 1243.4,1734.31 1246.4,1733.65 1250,1736.5C 1256,1753.81 1262,1771.14 1268,1788.5C 1284.5,1831.34 1313.67,1862.17 1355.5,1881C 1398.61,1897.35 1442.94,1901.68 1488.5,1894C 1529.06,1885.48 1561.23,1864.31 1585,1830.5C 1595.61,1813.56 1606.61,1796.9 1618,1780.5C 1621.5,1777 1625,1773.5 1628.5,1770C 1635.59,1764.52 1642.92,1764.18 1650.5,1769C 1660.31,1779.78 1667.14,1792.28 1671,1806.5C 1674.29,1820.81 1677.79,1834.81 1681.5,1848.5 Z"/></g>
<g><path style="opacity:0.989" fill="#9edaf6" d="M 875.5,1782.5 C 882.767,1781.22 888.934,1783.22 894,1788.5C 900.225,1797.5 903.891,1807.5 905,1818.5C 907.279,1850.48 902.946,1881.48 892,1911.5C 876.532,1899.94 866.532,1884.61 862,1865.5C 856.705,1845.34 855.705,1825.01 859,1804.5C 861.41,1794.61 866.91,1787.28 875.5,1782.5 Z"/></g>
<g><path style="opacity:0.984" fill="#9edaf6" d="M 2383.5,1814.5 C 2390.99,1814.48 2395.83,1818.14 2398,1825.5C 2402.62,1842.17 2404.79,1859.17 2404.5,1876.5C 2404.36,1895.67 2402.53,1914.67 2399,1933.5C 2397.46,1940.77 2395.13,1947.77 2392,1954.5C 2388.36,1960.23 2384.03,1960.9 2379,1956.5C 2375.89,1952.61 2373.56,1948.28 2372,1943.5C 2367.92,1913.63 2366.59,1883.63 2368,1853.5C 2368.51,1841.45 2371.51,1830.11 2377,1819.5C 2378.97,1817.45 2381.13,1815.78 2383.5,1814.5 Z"/></g>
<g><path style="opacity:0.99" fill="#9edaf6" d="M 2529.5,1852.5 C 2538.58,1851.45 2543.41,1855.45 2544,1864.5C 2543.87,1879.7 2540.87,1894.37 2535,1908.5C 2515.71,1953.77 2488.54,1993.61 2453.5,2028C 2448.34,2032.41 2442.68,2036.08 2436.5,2039C 2427.74,2040.91 2424.24,2037.41 2426,2028.5C 2434.57,1989.44 2447.91,1952.11 2466,1916.5C 2477.17,1895.33 2492,1877.16 2510.5,1862C 2516.66,1858.25 2522.99,1855.09 2529.5,1852.5 Z"/></g>
<g><path style="opacity:0.986" fill="#9edaf6" d="M 1796.5,1914.5 C 1802.52,1914.35 1807.36,1916.69 1811,1921.5C 1815.13,1929.84 1817.29,1938.68 1817.5,1948C 1813.91,1980.42 1803.75,2010.59 1787,2038.5C 1777.2,2022.98 1771.87,2005.98 1771,1987.5C 1769.93,1969.81 1771.93,1952.48 1777,1935.5C 1780.37,1925.29 1786.87,1918.29 1796.5,1914.5 Z"/></g>
<g><path style="opacity:1" fill="#a67c19" d="M 1068.5,1940.5 C 1106.08,1946.81 1143.08,1955.48 1179.5,1966.5C 1180.49,1966.33 1181.16,1966.66 1181.5,1967.5C 1180.5,1967.41 1179.67,1967.75 1179,1968.5C 1174.62,1997.99 1172.12,2027.66 1171.5,2057.5C 1171.5,2057.83 1171.5,2058.17 1171.5,2058.5C 1112.65,2088.09 1053.65,2117.42 994.5,2146.5C 1027.29,2080.8 1051.96,2012.13 1068.5,1940.5 Z"/></g>
<g><path style="opacity:0.966" fill="#9edaf6" d="M 2612.5,1951.5 C 2614.14,1951.29 2615.64,1951.62 2617,1952.5C 2618.81,1967.28 2616.14,1981.28 2609,1994.5C 2604.48,2000.06 2600.48,1999.73 2597,1993.5C 2596.83,1977.51 2602,1963.51 2612.5,1951.5 Z"/></g>
<g><path style="opacity:1" fill="#f8b31a" d="M 1181.5,1967.5 C 1213.74,1976.74 1244.4,1989.57 1273.5,2006C 1239.91,2023.96 1205.91,2041.13 1171.5,2057.5C 1172.12,2027.66 1174.62,1997.99 1179,1968.5C 1179.67,1967.75 1180.5,1967.41 1181.5,1967.5 Z"/></g>
<g><path style="opacity:0.979" fill="#9edaf6" d="M 772.5,1979.5 C 778.434,1980.38 782.934,1983.38 786,1988.5C 796.648,2007.75 802.648,2028.41 804,2050.5C 804.667,2061.17 804.667,2071.83 804,2082.5C 803.815,2086.66 802.982,2090.66 801.5,2094.5C 786.709,2070.58 774.876,2045.25 766,2018.5C 763.405,2010 762.405,2001.33 763,1992.5C 763.806,1986.23 766.973,1981.89 772.5,1979.5 Z"/></g>
<g><path style="opacity:1" fill="#f7b31b" d="M 1663.5,1990.5 C 1654.95,2039.37 1643.28,2087.37 1628.5,2134.5C 1599.86,2108.53 1571.53,2082.19 1543.5,2055.5C 1583.53,2033.82 1623.53,2012.15 1663.5,1990.5 Z"/></g>
<g><path style="opacity:0.963" fill="#9edaf6" d="M 2005.5,2001.5 C 2022.15,2003.6 2025.48,2011.44 2015.5,2025C 2011.33,2029.09 2006.33,2030.92 2000.5,2030.5C 1999,2023.14 1999.17,2015.8 2001,2008.5C 2002.01,2005.8 2003.51,2003.46 2005.5,2001.5 Z"/></g>
<g><path style="opacity:0.988" fill="#9edaf6" d="M 616.5,2005.5 C 632.553,2005.24 646.553,2010.41 658.5,2021C 677.921,2038.75 693.088,2059.59 704,2083.5C 712.379,2101.64 719.379,2120.3 725,2139.5C 725.781,2140.94 725.614,2142.28 724.5,2143.5C 684.514,2126.34 650.681,2101.01 623,2067.5C 613.16,2054.49 605.994,2040.15 601.5,2024.5C 602.486,2014.8 607.486,2008.47 616.5,2005.5 Z"/></g>
<g><path style="opacity:0.99" fill="#9edaf6" d="M 1879.5,2007.5 C 1890.78,2005.28 1898.28,2009.61 1902,2020.5C 1906.25,2038.37 1904.58,2055.71 1897,2072.5C 1893.84,2079.49 1890.17,2086.15 1886,2092.5C 1868.24,2114.93 1848.4,2135.43 1826.5,2154C 1824,2155.08 1821.67,2156.41 1819.5,2158C 1811.04,2159.32 1808.04,2155.65 1810.5,2147C 1812.13,2101.77 1826.96,2061.6 1855,2026.5C 1861.92,2018.32 1870.08,2011.99 1879.5,2007.5 Z"/></g>
<g><path style="opacity:0.976" fill="#9edaf6" d="M 873.5,2018.5 C 883.123,2019.27 890.29,2023.94 895,2032.5C 903.363,2047.48 906.53,2063.48 904.5,2080.5C 880.98,2068.8 869.147,2049.8 869,2023.5C 870.025,2021.31 871.525,2019.65 873.5,2018.5 Z"/></g>
<g><path style="opacity:0.964" fill="#9edaf6" d="M 2067.5,2043.5 C 2073.4,2042.89 2076.9,2045.56 2078,2051.5C 2079.49,2064.38 2077.49,2076.72 2072,2088.5C 2065.64,2083.44 2062.3,2076.77 2062,2068.5C 2060.47,2059.31 2062.3,2050.98 2067.5,2043.5 Z"/></g>
<g><path style="opacity:0.963" fill="#9edaf6" d="M 386.5,2052.5 C 388.989,2052.3 391.323,2052.8 393.5,2054C 403.425,2064.51 411.092,2076.51 416.5,2090C 413.983,2090.26 411.65,2089.59 409.5,2088C 402.424,2083.59 395.924,2078.43 390,2072.5C 386.634,2068.6 384.467,2064.1 383.5,2059C 384.03,2056.56 385.03,2054.39 386.5,2052.5 Z"/></g>
<g><path style="opacity:1" fill="#262e63" d="M 1171.5,2058.5 C 1169.03,2104.4 1174.03,2149.4 1186.5,2193.5C 1150.58,2230.67 1128.41,2275 1120,2326.5C 1117.52,2342.74 1116.19,2359.07 1116,2375.5C 1113.82,2369.1 1110.99,2363.1 1107.5,2357.5C 1091.1,2314.36 1069.27,2274.36 1042,2237.5C 1027.34,2218.84 1010.17,2203 990.5,2190C 985.142,2187.06 979.808,2184.23 974.5,2181.5C 980.917,2169.66 987.584,2158 994.5,2146.5C 1053.65,2117.42 1112.65,2088.09 1171.5,2058.5 Z"/></g>
<g><path style="opacity:0.987" fill="#9ddaf6" d="M 2591.5,2110.5 C 2598.84,2110.33 2606.17,2110.5 2613.5,2111C 2628.38,2114.52 2631.55,2122.69 2623,2135.5C 2608.1,2150.03 2590.26,2158.87 2569.5,2162C 2562.5,2162.67 2555.5,2162.67 2548.5,2162C 2534.73,2157.62 2530.9,2148.78 2537,2135.5C 2544.07,2127.05 2552.9,2121.21 2563.5,2118C 2572.8,2114.84 2582.13,2112.34 2591.5,2110.5 Z"/></g>
<g><path style="opacity:0.977" fill="#9edaf6" d="M 2024.5,2113.5 C 2030.4,2112.89 2033.9,2115.56 2035,2121.5C 2037.36,2148.47 2025.86,2166.47 2000.5,2175.5C 2001.03,2157.76 2005.53,2141.09 2014,2125.5C 2016.65,2120.69 2020.15,2116.69 2024.5,2113.5 Z"/></g>
<g><path style="opacity:0.955" fill="#9edaf6" d="M 487.5,2118.5 C 491.511,2118.5 495.178,2119.67 498.5,2122C 515.203,2135.7 530.203,2151.04 543.5,2168C 538.713,2166.62 534.046,2164.62 529.5,2162C 517.009,2155.17 505.343,2147.17 494.5,2138C 490.046,2134.05 487.046,2129.22 485.5,2123.5C 485.902,2121.7 486.569,2120.03 487.5,2118.5 Z"/></g>
<g><path style="opacity:1" fill="#262e64" d="M 1626.5,2142.5 C 1613.19,2185.79 1598.19,2228.45 1581.5,2270.5C 1581.5,2270.83 1581.5,2271.17 1581.5,2271.5C 1580.83,2271.5 1580.5,2271.83 1580.5,2272.5C 1570.43,2286.97 1560.6,2301.63 1551,2316.5C 1552.81,2300.91 1553.48,2285.24 1553,2269.5C 1551.62,2257.73 1546.78,2247.73 1538.5,2239.5C 1573.15,2211.76 1602.48,2179.43 1626.5,2142.5 Z"/></g>
<g><path style="opacity:0.998" fill="#9ed9f5" d="M 2002.5,2456.5 C 2012.4,2448.78 2021.9,2440.44 2031,2431.5C 2033.47,2428.27 2034.63,2424.6 2034.5,2420.5C 2033.13,2420.34 2031.79,2420.51 2030.5,2421C 1998.09,2448.22 1962.09,2469.89 1922.5,2486C 1898.83,2495.67 1875.17,2505.33 1851.5,2515C 1849.21,2517.74 1847.05,2520.58 1845,2523.5C 1844.26,2525.44 1844.42,2527.27 1845.5,2529C 1856.57,2529.98 1867.41,2532.14 1878,2535.5C 1882.54,2537.06 1886.21,2539.72 1889,2543.5C 1889.84,2547.12 1889.17,2550.45 1887,2553.5C 1882.04,2559.47 1876.21,2564.3 1869.5,2568C 1818.05,2594.45 1763.38,2605.45 1705.5,2601C 1698.17,2600.11 1690.84,2599.78 1683.5,2600C 1681.96,2601.11 1681.3,2602.61 1681.5,2604.5C 1695.03,2607.4 1708.69,2609.57 1722.5,2611C 1739.21,2611.76 1755.87,2611.26 1772.5,2609.5C 1728,2618.65 1683,2621.82 1637.5,2619C 1647.49,2625.32 1654.99,2633.82 1660,2644.5C 1662.82,2654.7 1659.65,2662.53 1650.5,2668C 1632.35,2675.9 1613.35,2680.23 1593.5,2681C 1566.8,2683.15 1540.14,2682.82 1513.5,2680C 1505.03,2679.22 1497.03,2676.88 1489.5,2673C 1483.01,2667.54 1481.84,2661.04 1486,2653.5C 1490.1,2646.5 1495.26,2640.33 1501.5,2635C 1491.34,2637.16 1481.01,2638.83 1470.5,2640C 1451.79,2640.71 1433.12,2640.37 1414.5,2639C 1429.66,2644.17 1437.99,2654.67 1439.5,2670.5C 1439.81,2678.04 1436.81,2683.87 1430.5,2688C 1416.61,2696.28 1401.94,2702.94 1386.5,2708C 1304.31,2733.44 1220.31,2749.77 1134.5,2757C 1107.87,2759.33 1081.21,2761 1054.5,2762C 1002.53,2770.16 950.527,2770.5 898.5,2763C 872.714,2758.52 848.714,2749.52 826.5,2736C 807.824,2730.33 790.491,2721.99 774.5,2711C 763.103,2702.69 755.269,2691.86 751,2678.5C 749.205,2664.22 752.872,2651.55 762,2640.5C 776.994,2624.51 794.494,2612.01 814.5,2603C 792.296,2606.31 769.963,2608.98 747.5,2611C 714.802,2613.25 682.136,2612.92 649.5,2610C 633.98,2608.37 618.98,2604.7 604.5,2599C 590.678,2591.05 590.011,2582.05 602.5,2572C 616.375,2562.7 631.375,2555.7 647.5,2551C 619.257,2554.98 590.924,2558.65 562.5,2562C 535.825,2565.2 509.159,2565.2 482.5,2562C 467.798,2560.24 454.131,2555.58 441.5,2548C 428.514,2539.2 420.68,2527.04 418,2511.5C 412.419,2486.25 419.252,2465.08 438.5,2448C 463.208,2428.48 490.875,2414.48 521.5,2406C 559.355,2394.8 598.022,2389.47 637.5,2390C 626.28,2382.66 626.947,2376.66 639.5,2372C 610.951,2369.78 583.951,2362.11 558.5,2349C 523.252,2324.6 522.585,2299.26 556.5,2273C 582.855,2255.82 611.855,2246.82 643.5,2246C 712.88,2245.46 777.713,2262.3 838,2296.5C 833.443,2286.66 829.943,2276.33 827.5,2265.5C 827.661,2261.58 829.661,2259.58 833.5,2259.5C 842.765,2261.97 851.431,2265.8 859.5,2271C 871.506,2278 883.173,2285.5 894.5,2293.5C 889.305,2281.7 884.472,2269.37 880,2256.5C 875.938,2244.13 874.271,2231.46 875,2218.5C 877.821,2200.18 887.988,2193.68 905.5,2199C 918.956,2207.62 930.289,2218.46 939.5,2231.5C 970.528,2275.89 995.028,2323.89 1013,2375.5C 1014.71,2359.25 1017.71,2343.25 1022,2327.5C 1023.98,2320.34 1027.82,2314.51 1033.5,2310C 1036.93,2309.3 1040.26,2309.63 1043.5,2311C 1053.69,2321.2 1061.53,2333.04 1067,2346.5C 1071.61,2357.39 1075.94,2368.39 1080,2379.5C 1082.59,2373.98 1085.42,2368.65 1088.5,2363.5C 1090.95,2359.21 1094.29,2355.71 1098.5,2353C 1102.27,2352.89 1105.27,2354.39 1107.5,2357.5C 1110.99,2363.1 1113.82,2369.1 1116,2375.5C 1116.19,2359.07 1117.52,2342.74 1120,2326.5C 1128.41,2275 1150.58,2230.67 1186.5,2193.5C 1193.65,2187.86 1200.99,2182.36 1208.5,2177C 1216.44,2172.2 1224.77,2168.2 1233.5,2165C 1249.5,2160.22 1262,2164.72 1271,2178.5C 1279.88,2197.49 1284.88,2217.49 1286,2238.5C 1286.5,2257.83 1286.67,2277.16 1286.5,2296.5C 1285.36,2306.14 1284.86,2315.81 1285,2325.5C 1289.94,2316.61 1295.1,2307.95 1300.5,2299.5C 1308.26,2288.57 1317.6,2279.07 1328.5,2271C 1337.48,2264.23 1347.15,2262.89 1357.5,2267C 1366.73,2276.17 1371.4,2287.34 1371.5,2300.5C 1372.1,2304.78 1372.44,2309.12 1372.5,2313.5C 1371.61,2324.83 1371.11,2336.17 1371,2347.5C 1380.77,2329.58 1392.27,2312.91 1405.5,2297.5C 1413.19,2289.46 1421.19,2281.63 1429.5,2274C 1450.09,2256.03 1473.43,2242.7 1499.5,2234C 1513.32,2230.67 1526.32,2232.5 1538.5,2239.5C 1546.78,2247.73 1551.62,2257.73 1553,2269.5C 1553.48,2285.24 1552.81,2300.91 1551,2316.5C 1560.6,2301.63 1570.43,2286.97 1580.5,2272.5C 1581.17,2272.5 1581.5,2272.17 1581.5,2271.5C 1581.5,2271.17 1581.5,2270.83 1581.5,2270.5C 1607.12,2236.38 1636.45,2205.54 1669.5,2178C 1680.5,2169.16 1692.5,2161.83 1705.5,2156C 1713.56,2152.26 1721.9,2151.26 1730.5,2153C 1737.61,2157.39 1740.94,2163.89 1740.5,2172.5C 1738.4,2189.64 1733.56,2205.97 1726,2221.5C 1717.59,2238.65 1708.43,2255.31 1698.5,2271.5C 1699,2272.52 1699.67,2272.69 1700.5,2272C 1716.76,2255.06 1734.76,2240.4 1754.5,2228C 1765.47,2220.67 1777.47,2217.67 1790.5,2219C 1798.04,2222.91 1802.54,2229.08 1804,2237.5C 1806.38,2259.77 1804.71,2281.77 1799,2303.5C 1795.17,2317.8 1791.84,2332.13 1789,2346.5C 1810.43,2315.4 1833.76,2285.73 1859,2257.5C 1876.65,2237.84 1897.15,2222.01 1920.5,2210C 1935.51,2203.63 1949.01,2205.8 1961,2216.5C 1962.85,2221.15 1964.02,2225.99 1964.5,2231C 1962.26,2251.12 1957.43,2270.62 1950,2289.5C 1933.35,2332.97 1913.85,2375.14 1891.5,2416C 1918.69,2403.09 1946.69,2391.75 1975.5,2382C 2001.18,2373.14 2027.52,2369.81 2054.5,2372C 2064.13,2373.4 2072.29,2377.56 2079,2384.5C 2081.75,2389.01 2082.09,2393.68 2080,2398.5C 2076.02,2406.49 2070.52,2413.32 2063.5,2419C 2044.45,2433.53 2024.12,2446.03 2002.5,2456.5 Z"/></g>
<g><path style="opacity:1" fill="#fdfefe" d="M 1244.5,2178.5 C 1245.5,2178.5 1246.5,2178.5 1247.5,2178.5C 1247.36,2181.62 1246.02,2184.12 1243.5,2186C 1203.17,2206.33 1174.67,2237.49 1158,2279.5C 1146.9,2309.23 1139.9,2339.89 1137,2371.5C 1135.91,2390.48 1135.24,2409.48 1135,2428.5C 1133.22,2432.61 1130.39,2435.78 1126.5,2438C 1125.06,2438.78 1123.72,2438.61 1122.5,2437.5C 1118.78,2424.21 1112.11,2412.71 1102.5,2403C 1095.92,2398.19 1088.59,2396.19 1080.5,2397C 1074.51,2399.66 1070.67,2404.16 1069,2410.5C 1067.94,2415.93 1067.44,2421.43 1067.5,2427C 1067.83,2433.19 1067.99,2439.36 1068,2445.5C 1065.98,2451.04 1062.15,2454.04 1056.5,2454.5C 1052.83,2442.09 1051.66,2429.43 1053,2416.5C 1058.78,2393.03 1073.61,2381.2 1097.5,2381C 1107.26,2383.93 1115.26,2389.43 1121.5,2397.5C 1123.48,2367.35 1128.31,2337.68 1136,2308.5C 1144.98,2276.2 1159.98,2247.2 1181,2221.5C 1198.79,2202.03 1219.96,2187.7 1244.5,2178.5 Z"/></g>
<g><path style="opacity:1" fill="#df9c6a" d="M 974.5,2181.5 C 979.808,2184.23 985.142,2187.06 990.5,2190C 1010.17,2203 1027.34,2218.84 1042,2237.5C 1069.27,2274.36 1091.1,2314.36 1107.5,2357.5C 1105.27,2354.39 1102.27,2352.89 1098.5,2353C 1094.29,2355.71 1090.95,2359.21 1088.5,2363.5C 1082.11,2350.71 1075.61,2337.71 1069,2324.5C 1052.58,2297.01 1033.24,2271.67 1011,2248.5C 994.938,2232.27 978.772,2216.27 962.5,2200.5C 965.753,2193.65 969.753,2187.32 974.5,2181.5 Z"/></g>
<g><path style="opacity:0.945" fill="#9ddaf6" d="M 378.5,2190.5 C 380.655,2190.37 382.655,2190.87 384.5,2192C 392.63,2199.93 399.297,2208.93 404.5,2219C 394.739,2217.03 386.239,2212.53 379,2205.5C 375.92,2200.55 375.753,2195.55 378.5,2190.5 Z"/></g>
<g><path style="opacity:0.996" fill="#9edaf5" d="M 2148.5,2240.5 C 2148.54,2256.65 2150.71,2272.65 2155,2288.5C 2159.85,2301.77 2168.18,2304.77 2180,2297.5C 2183.95,2288.62 2185.78,2279.29 2185.5,2269.5C 2207.5,2290 2228.34,2311.67 2248,2334.5C 2248.44,2318.46 2251.61,2303.13 2257.5,2288.5C 2268.41,2314.69 2279.24,2341.03 2290,2367.5C 2295.88,2376.86 2302.88,2377.86 2311,2370.5C 2316.87,2359.08 2318.2,2347.08 2315,2334.5C 2308.62,2303.45 2300.79,2272.78 2291.5,2242.5C 2293.28,2242.11 2294.95,2241.44 2296.5,2240.5C 2299.89,2245.6 2303.06,2250.94 2306,2256.5C 2320.47,2287.44 2335.47,2318.11 2351,2348.5C 2355,2354.5 2359,2360.5 2363,2366.5C 2372.29,2373.64 2377.29,2371.3 2378,2359.5C 2378.67,2350.83 2378.67,2342.17 2378,2333.5C 2372.81,2299.06 2363.65,2265.72 2350.5,2233.5C 2353.42,2234.7 2356.42,2235.7 2359.5,2236.5C 2364.13,2241.74 2368.3,2247.41 2372,2253.5C 2384.25,2274.34 2397.25,2294.68 2411,2314.5C 2413.95,2318.57 2417.45,2322.07 2421.5,2325C 2431.97,2330.43 2436.97,2327.27 2436.5,2315.5C 2434.87,2298.32 2431.04,2281.66 2425,2265.5C 2419.86,2252.56 2415.02,2239.56 2410.5,2226.5C 2412,2224.16 2414,2222.33 2416.5,2221C 2421.65,2220.18 2426.65,2220.68 2431.5,2222.5C 2432.17,2222.5 2432.5,2222.83 2432.5,2223.5C 2433.17,2223.5 2433.5,2223.83 2433.5,2224.5C 2439.87,2229.87 2445.54,2235.87 2450.5,2242.5C 2451.17,2242.5 2451.5,2242.83 2451.5,2243.5C 2452.17,2243.5 2452.5,2243.83 2452.5,2244.5C 2453.17,2244.5 2453.5,2244.83 2453.5,2245.5C 2454.17,2245.5 2454.5,2245.83 2454.5,2246.5C 2455.75,2248.93 2457.25,2251.27 2459,2253.5C 2459.72,2252.96 2460.22,2252.29 2460.5,2251.5C 2463.09,2252.85 2465.93,2253.52 2469,2253.5C 2470.5,2253.17 2472,2252.83 2473.5,2252.5C 2474.75,2246.18 2474.75,2239.85 2473.5,2233.5C 2480.3,2226.53 2486.97,2219.36 2493.5,2212C 2502.83,2203 2513.5,2196 2525.5,2191C 2539.64,2188.58 2546.31,2194.58 2545.5,2209C 2543.17,2228.49 2536,2245.99 2524,2261.5C 2516.87,2270.3 2509.37,2278.8 2501.5,2287C 2515.5,2284.34 2529.5,2281.34 2543.5,2278C 2555.06,2275.63 2566.73,2274.13 2578.5,2273.5C 2582.92,2273.44 2587.25,2273.94 2591.5,2275C 2593.44,2277.15 2593.94,2279.65 2593,2282.5C 2585.77,2290.73 2577.61,2297.89 2568.5,2304C 2549.32,2316.09 2529.66,2327.42 2509.5,2338C 2537.01,2337.79 2564.34,2339.79 2591.5,2344C 2602.38,2345.84 2612.21,2350.01 2621,2356.5C 2627.15,2364.66 2626.82,2372.66 2620,2380.5C 2611.82,2388.67 2602.65,2395.51 2592.5,2401C 2552.3,2420.96 2510.3,2435.96 2466.5,2446C 2491.88,2451.42 2516.22,2459.76 2539.5,2471C 2546.24,2475.07 2552.41,2479.9 2558,2485.5C 2564.36,2493.4 2565.03,2501.73 2560,2510.5C 2550.23,2520.64 2538.73,2528.14 2525.5,2533C 2461.08,2556.95 2394.75,2573.29 2326.5,2582C 2252.42,2593.05 2178.09,2595.39 2103.5,2589C 2085.98,2587.54 2069.65,2582.54 2054.5,2574C 2048.88,2569.03 2047.05,2562.86 2049,2555.5C 2050.47,2551.22 2052.47,2547.22 2055,2543.5C 2065.72,2531.77 2077.89,2521.94 2091.5,2514C 2130.08,2491.69 2170.42,2473.02 2212.5,2458C 2193.95,2460.65 2175.28,2462.65 2156.5,2464C 2138.14,2465.7 2120.47,2463.03 2103.5,2456C 2095.03,2450.74 2090.7,2443.07 2090.5,2433C 2092.11,2420.73 2097.27,2410.23 2106,2401.5C 2121.23,2387.79 2138.39,2376.96 2157.5,2369C 2169.01,2364.27 2180.68,2359.94 2192.5,2356C 2151.27,2348.61 2110.94,2337.94 2071.5,2324C 2067.01,2321.92 2062.67,2319.59 2058.5,2317C 2052.4,2312.64 2052.07,2307.97 2057.5,2303C 2062.84,2300.25 2068.5,2298.58 2074.5,2298C 2082.17,2297.33 2089.83,2297.33 2097.5,2298C 2110.29,2299.24 2122.96,2300.91 2135.5,2303C 2119.86,2289.71 2107.69,2273.88 2099,2255.5C 2094.24,2239.35 2100.24,2230.35 2117,2228.5C 2128.47,2230.04 2138.97,2234.04 2148.5,2240.5 Z M 2454.5,2246.5 C 2456.54,2248.18 2458.54,2249.84 2460.5,2251.5C 2460.22,2252.29 2459.72,2252.96 2459,2253.5C 2457.25,2251.27 2455.75,2248.93 2454.5,2246.5 Z"/></g>
<g><path style="opacity:0.999" fill="#f0cdad" d="M 962.5,2200.5 C 978.772,2216.27 994.938,2232.27 1011,2248.5C 1033.24,2271.67 1052.58,2297.01 1069,2324.5C 1075.61,2337.71 1082.11,2350.71 1088.5,2363.5C 1085.42,2368.65 1082.59,2373.98 1080,2379.5C 1075.94,2368.39 1071.61,2357.39 1067,2346.5C 1061.53,2333.04 1053.69,2321.2 1043.5,2311C 1040.26,2309.63 1036.93,2309.3 1033.5,2310C 1027.82,2314.51 1023.98,2320.34 1022,2327.5C 1017.71,2343.25 1014.71,2359.25 1013,2375.5C 995.028,2323.89 970.528,2275.89 939.5,2231.5C 947.41,2221.34 955.077,2211.01 962.5,2200.5 Z"/></g>
<g><path style="opacity:0.966" fill="#9edaf6" d="M 404.5,2265.5 C 414.377,2265.94 423.044,2269.44 430.5,2276C 438.906,2283.66 445.739,2292.49 451,2302.5C 451.667,2303.5 451.667,2304.5 451,2305.5C 434.875,2302.11 420.875,2294.77 409,2283.5C 405.868,2279.07 403.701,2274.24 402.5,2269C 403.305,2267.89 403.972,2266.72 404.5,2265.5 Z"/></g>
<g><path style="opacity:1" fill="#fcfefe" d="M 1468.5,2271.5 C 1486.94,2269.57 1503.44,2274.23 1518,2285.5C 1517.89,2291.38 1515.05,2295.38 1509.5,2297.5C 1476.25,2282.56 1446.58,2287.56 1420.5,2312.5C 1405.63,2328.58 1392.47,2345.91 1381,2364.5C 1372.33,2379.17 1363.67,2393.83 1355,2408.5C 1352.97,2410.69 1350.47,2411.69 1347.5,2411.5C 1349.07,2399.24 1350.24,2386.91 1351,2374.5C 1353.06,2347.93 1350.22,2321.93 1342.5,2296.5C 1329.09,2296.61 1318.93,2302.28 1312,2313.5C 1317.85,2299.31 1327.68,2288.47 1341.5,2281C 1342.94,2280.22 1344.28,2280.39 1345.5,2281.5C 1353.24,2295.55 1358.07,2310.55 1360,2326.5C 1361.67,2344.82 1362,2363.15 1361,2381.5C 1376.33,2354.84 1394,2329.84 1414,2306.5C 1429.23,2290.07 1447.4,2278.41 1468.5,2271.5 Z"/></g>
<g><path style="opacity:1" fill="#2a3469" d="M 1286.5,2296.5 C 1291.09,2297.75 1295.75,2298.75 1300.5,2299.5C 1295.1,2307.95 1289.94,2316.61 1285,2325.5C 1284.86,2315.81 1285.36,2306.14 1286.5,2296.5 Z"/></g>
<g><path style="opacity:1" fill="#273065" d="M 1405.5,2297.5 C 1392.27,2312.91 1380.77,2329.58 1371,2347.5C 1371.11,2336.17 1371.61,2324.83 1372.5,2313.5C 1372.44,2309.12 1372.1,2304.78 1371.5,2300.5C 1382.91,2300.25 1394.24,2299.25 1405.5,2297.5 Z"/></g>
<g><path style="opacity:1" fill="#fdfefe" d="M 720.5,2357.5 C 724.833,2357.5 729.167,2357.5 733.5,2357.5C 733.451,2360.1 732.451,2362.27 730.5,2364C 714.789,2364.94 701.623,2371.11 691,2382.5C 684.512,2393.45 685.512,2403.79 694,2413.5C 695.419,2419.44 693.252,2423.61 687.5,2426C 652.023,2425.62 616.69,2427.62 581.5,2432C 565.22,2434.93 549.22,2438.93 533.5,2444C 498.988,2457.83 484.822,2483.33 491,2520.5C 489.5,2523.33 487.333,2525.5 484.5,2527C 483.216,2527.68 482.049,2527.52 481,2526.5C 468.304,2487.07 480.471,2458.24 517.5,2440C 533.564,2432.53 550.231,2426.87 567.5,2423C 603.192,2416.41 639.192,2413.24 675.5,2413.5C 668.813,2392.04 675.48,2376.21 695.5,2366C 703.576,2362.03 711.909,2359.2 720.5,2357.5 Z"/></g>
<g><path style="opacity:1" fill="#74b3e5" d="M 1583.5,2384.5 C 1595.22,2382.73 1603.05,2387.4 1607,2398.5C 1607.82,2400.79 1608.49,2403.12 1609,2405.5C 1609.67,2417.17 1609.67,2428.83 1609,2440.5C 1607.21,2450.88 1605.55,2461.22 1604,2471.5C 1626.24,2453.3 1651.4,2440.8 1679.5,2434C 1690.2,2432.78 1700.2,2434.78 1709.5,2440C 1716.62,2446.47 1718.45,2454.31 1715,2463.5C 1711.03,2473.27 1705.2,2481.77 1697.5,2489C 1715.86,2483.79 1734.53,2479.46 1753.5,2476C 1763.83,2475.33 1774.17,2475.33 1784.5,2476C 1794.4,2476.86 1802.56,2481.03 1809,2488.5C 1814.81,2498.73 1812.65,2506.9 1802.5,2513C 1785.59,2520.31 1767.92,2524.98 1749.5,2527C 1731.19,2528.62 1712.85,2529.96 1694.5,2531C 1706.29,2532.36 1717.62,2535.36 1728.5,2540C 1736.94,2544.37 1740.44,2551.21 1739,2560.5C 1735.39,2565.57 1730.56,2569.07 1724.5,2571C 1694.54,2580.44 1663.87,2586.44 1632.5,2589C 1586.94,2594.12 1541.27,2595.45 1495.5,2593C 1488.33,2592.67 1482.5,2589.83 1478,2584.5C 1478.16,2578.62 1480.66,2573.79 1485.5,2570C 1497.66,2560.75 1510.66,2552.75 1524.5,2546C 1516.14,2547.22 1507.81,2548.89 1499.5,2551C 1476.48,2555.48 1453.48,2555.48 1430.5,2551C 1414.59,2547.47 1401.76,2539.31 1392,2526.5C 1387.86,2520.82 1388.69,2516.32 1394.5,2513C 1399.37,2511.2 1404.37,2509.86 1409.5,2509C 1423.48,2507.53 1437.48,2506.2 1451.5,2505C 1479.83,2504.67 1508.17,2504.33 1536.5,2504C 1514.36,2484.87 1495.53,2463.04 1480,2438.5C 1475.88,2431.33 1474.55,2423.66 1476,2415.5C 1479.19,2408.88 1484.36,2406.71 1491.5,2409C 1502.82,2414.98 1512.32,2423.15 1520,2433.5C 1528.11,2443.62 1535.45,2454.28 1542,2465.5C 1546.55,2443.85 1553.88,2423.18 1564,2403.5C 1569.07,2395.59 1575.57,2389.26 1583.5,2384.5 Z"/></g>
<g><path style="opacity:1" fill="#fcfefe" d="M 2550.5,2390.5 C 2552.81,2392.59 2552.47,2394.76 2549.5,2397C 2525.93,2411.86 2500.93,2423.86 2474.5,2433C 2459.75,2437.81 2445.08,2442.81 2430.5,2448C 2449.32,2451.66 2465.48,2460.16 2479,2473.5C 2489.2,2487.36 2488.86,2501.03 2478,2514.5C 2467.71,2526.22 2455.55,2535.39 2441.5,2542C 2413.73,2553.28 2385.06,2561.44 2355.5,2566.5C 2354.5,2566.17 2353.83,2565.5 2353.5,2564.5C 2354.87,2560.63 2357.2,2557.46 2360.5,2555C 2387.83,2547.75 2414.83,2539.42 2441.5,2530C 2448.69,2526.8 2455.36,2522.8 2461.5,2518C 2472.98,2507.06 2474.48,2494.9 2466,2481.5C 2447.75,2463.03 2425.59,2454.69 2399.5,2456.5C 2400.37,2452.11 2402.7,2448.61 2406.5,2446C 2440.56,2436.2 2474.22,2425.2 2507.5,2413C 2522.78,2407.03 2537.11,2399.53 2550.5,2390.5 Z"/></g>
<g><path style="opacity:1" fill="#fefefe" d="M 2283.5,2407.5 C 2293.62,2407.01 2303.62,2407.84 2313.5,2410C 2319.23,2412.39 2323.73,2416.23 2327,2421.5C 2329.69,2438.94 2322.86,2451.11 2306.5,2458C 2291.56,2463.52 2276.23,2464.86 2260.5,2462C 2250.49,2460.3 2242.99,2455.14 2238,2446.5C 2235.99,2436.35 2239.16,2428.18 2247.5,2422C 2258.34,2414.07 2270.34,2409.24 2283.5,2407.5 Z"/></g>
<g><path style="opacity:1" fill="#74b3e5" d="M 860.5,2417.5 C 868.066,2417.74 875.066,2419.91 881.5,2424C 893.853,2432.34 905.02,2442.18 915,2453.5C 936.211,2478.92 955.711,2505.59 973.5,2533.5C 974.949,2518.25 977.782,2503.25 982,2488.5C 989.14,2471.87 997.807,2471.2 1008,2486.5C 1018.58,2503.66 1027.58,2521.66 1035,2540.5C 1048.28,2509.91 1064.62,2481.25 1084,2454.5C 1088.6,2449.38 1094.1,2445.71 1100.5,2443.5C 1102.3,2443.58 1103.97,2444.08 1105.5,2445C 1110.43,2450.69 1113.93,2457.19 1116,2464.5C 1118.54,2473.79 1120.87,2483.12 1123,2492.5C 1127.79,2521.06 1131.79,2549.73 1135,2578.5C 1145.73,2562.44 1158.56,2548.27 1173.5,2536C 1178,2533.16 1182.83,2531.33 1188,2530.5C 1194.93,2530.64 1199.6,2533.97 1202,2540.5C 1203.21,2554.67 1200.71,2568.17 1194.5,2581C 1194.83,2581.5 1195.17,2582 1195.5,2582.5C 1205.65,2576.68 1215.98,2576.18 1226.5,2581C 1230.67,2584.85 1231.5,2589.35 1229,2594.5C 1220.45,2602.86 1210.62,2609.36 1199.5,2614C 1187.53,2618.93 1175.53,2623.77 1163.5,2628.5C 1172.34,2634.09 1181.01,2639.92 1189.5,2646C 1194.15,2649.64 1197.65,2654.14 1200,2659.5C 1200.81,2664.06 1198.97,2667.23 1194.5,2669C 1177.69,2676.2 1160.36,2681.87 1142.5,2686C 1094.1,2697.01 1045.1,2701.67 995.5,2700C 978.151,2698.41 961.151,2695.08 944.5,2690C 933.099,2686.22 923.266,2680.06 915,2671.5C 908.577,2660.73 909.243,2650.4 917,2640.5C 927.363,2628.13 939.53,2617.97 953.5,2610C 963.677,2604.41 974.01,2599.08 984.5,2594C 970.262,2597.14 955.929,2600.14 941.5,2603C 928.823,2604.91 916.157,2604.91 903.5,2603C 893.655,2600.15 889.821,2593.65 892,2583.5C 896.576,2575.79 903.076,2570.29 911.5,2567C 922.459,2562.43 933.793,2559.09 945.5,2557C 919.245,2538.76 894.745,2518.26 872,2495.5C 860.941,2483.76 852.274,2470.43 846,2455.5C 841.549,2443.92 843.049,2433.25 850.5,2423.5C 853.311,2420.44 856.645,2418.44 860.5,2417.5 Z"/></g>
<g><path style="opacity:0.99" fill="#fcfefe" d="M 2002.5,2456.5 C 1981.77,2471.2 1959.77,2483.86 1936.5,2494.5C 1916.63,2501.77 1896.96,2509.6 1877.5,2518C 1904.86,2525.57 1909.03,2540.07 1890,2561.5C 1877.91,2571.58 1864.74,2580.08 1850.5,2587C 1835.8,2593.62 1820.8,2599.12 1805.5,2603.5C 1794.81,2606.5 1783.81,2608.5 1772.5,2609.5C 1755.87,2611.26 1739.21,2611.76 1722.5,2611C 1708.69,2609.57 1695.03,2607.4 1681.5,2604.5C 1681.3,2602.61 1681.96,2601.11 1683.5,2600C 1690.84,2599.78 1698.17,2600.11 1705.5,2601C 1763.38,2605.45 1818.05,2594.45 1869.5,2568C 1876.21,2564.3 1882.04,2559.47 1887,2553.5C 1889.17,2550.45 1889.84,2547.12 1889,2543.5C 1886.21,2539.72 1882.54,2537.06 1878,2535.5C 1867.41,2532.14 1856.57,2529.98 1845.5,2529C 1844.42,2527.27 1844.26,2525.44 1845,2523.5C 1847.05,2520.58 1849.21,2517.74 1851.5,2515C 1875.17,2505.33 1898.83,2495.67 1922.5,2486C 1962.09,2469.89 1998.09,2448.22 2030.5,2421C 2031.79,2420.51 2033.13,2420.34 2034.5,2420.5C 2034.63,2424.6 2033.47,2428.27 2031,2431.5C 2021.9,2440.44 2012.4,2448.78 2002.5,2456.5 Z"/></g>
<g><path style="opacity:1" fill="#fdfefe" d="M 2341.5,2477.5 C 2350.71,2476.72 2357.87,2480.06 2363,2487.5C 2364.03,2495.31 2360.53,2499.31 2352.5,2499.5C 2341.52,2498.36 2336.68,2492.36 2338,2481.5C 2339.1,2480.05 2340.27,2478.72 2341.5,2477.5 Z"/></g>
<g><path style="opacity:1" fill="#fdfefe" d="M 784.5,2490.5 C 793.854,2489.43 801.02,2492.76 806,2500.5C 807.71,2506.47 805.543,2510.3 799.5,2512C 785.949,2513.12 779.782,2506.95 781,2493.5C 782.145,2492.36 783.312,2491.36 784.5,2490.5 Z"/></g>
<g><path style="opacity:0.992" fill="#9edaf6" d="M 1936.5,2494.5 C 1955.16,2496.59 1971.33,2503.92 1985,2516.5C 1990.47,2523.05 1992.14,2530.38 1990,2538.5C 1982.98,2545.93 1974.81,2551.76 1965.5,2556C 1928.33,2572.06 1890,2584.72 1850.5,2594C 1835.58,2597.62 1820.58,2600.78 1805.5,2603.5C 1820.8,2599.12 1835.8,2593.62 1850.5,2587C 1864.74,2580.08 1877.91,2571.58 1890,2561.5C 1909.03,2540.07 1904.86,2525.57 1877.5,2518C 1896.96,2509.6 1916.63,2501.77 1936.5,2494.5 Z"/></g>
<g><path style="opacity:1" fill="#fefefe" d="M 714.5,2507.5 C 722.174,2507.33 729.841,2507.5 737.5,2508C 760.681,2512.86 766.515,2525.7 755,2546.5C 746.189,2555.82 735.356,2561.32 722.5,2563C 710.304,2564.12 698.304,2563.12 686.5,2560C 667.939,2552.26 664.773,2540.42 677,2524.5C 688.02,2515.4 700.52,2509.74 714.5,2507.5 Z"/></g>
<g><path style="opacity:1" fill="#fefefe" d="M 1318.5,2549.5 C 1327.89,2549.15 1337.22,2549.65 1346.5,2551C 1362.29,2555.07 1367.79,2564.91 1363,2580.5C 1359.17,2589.67 1352.67,2596.17 1343.5,2600C 1328.58,2605.61 1313.25,2606.94 1297.5,2604C 1291.01,2602.42 1285.01,2599.75 1279.5,2596C 1271.15,2585.78 1271.65,2575.95 1281,2566.5C 1292.02,2557.4 1304.52,2551.74 1318.5,2549.5 Z"/></g>
<g><path style="opacity:1" fill="#fdfefe" d="M 846.5,2608.5 C 848.344,2609.2 848.844,2610.54 848,2612.5C 841.833,2616.67 835.667,2620.83 829.5,2625C 820.957,2631.92 818.123,2640.76 821,2651.5C 828.014,2665.52 838.181,2676.68 851.5,2685C 880.196,2703.46 911.529,2714.79 945.5,2719C 991.529,2725.24 1037.53,2724.9 1083.5,2718C 1105.27,2714.87 1126.94,2711.2 1148.5,2707C 1191.07,2696.52 1233.73,2686.36 1276.5,2676.5C 1275.93,2680.8 1273.93,2684.3 1270.5,2687C 1215.05,2710.61 1157.38,2725.95 1097.5,2733C 1079.5,2734.62 1061.5,2736.29 1043.5,2738C 996.176,2742.38 949.51,2738.72 903.5,2727C 880.393,2719.94 858.726,2709.94 838.5,2697C 823.831,2687.67 813.664,2674.84 808,2658.5C 804.949,2644.11 809.116,2632.27 820.5,2623C 828.486,2616.84 837.153,2612.01 846.5,2608.5 Z"/></g>
<g><path style="opacity:1" fill="#fcfefe" d="M 1378.5,2619.5 C 1384.62,2619.22 1390.28,2620.72 1395.5,2624C 1403.6,2633.96 1401.27,2639.79 1388.5,2641.5C 1379.96,2640.63 1374.96,2635.96 1373.5,2627.5C 1373.55,2623.79 1375.21,2621.13 1378.5,2619.5 Z"/></g>
</svg>
