<?xml version="1.0" encoding="UTF-8"?>
<!DOCTYPE svg PUBLIC "-//W3C//DTD SVG 1.1//EN" "http://www.w3.org/Graphics/SVG/1.1/DTD/svg11.dtd">
<svg xmlns="http://www.w3.org/2000/svg" version="1.1" width="3000px" height="3000px" style="shape-rendering:geometricPrecision; text-rendering:geometricPrecision; image-rendering:optimizeQuality; fill-rule:evenodd; clip-rule:evenodd" xmlns:xlink="http://www.w3.org/1999/xlink">
<g><path style="opacity:0.998" fill="#62c9c9" d="M 2599.5,2184.5 C 2293.83,2184.5 1988.17,2184.5 1682.5,2184.5C 1560.5,2184.5 1438.5,2184.5 1316.5,2184.5C 1011.17,2184.5 705.833,2184.5 400.5,2184.5C 400.333,1714.17 400.5,1243.83 401,773.5C 407.83,687.7 450.663,627.867 529.5,594C 574.36,576.717 620.86,567.884 669,567.5C 1222.67,568.833 1776.33,568.833 2330,567.5C 2377.1,567.655 2422.6,576.155 2466.5,593C 2553.06,629.553 2597.23,695.053 2599,789.5C 2599.5,1254.5 2599.67,1719.5 2599.5,2184.5 Z"/></g>
<g><path style="opacity:1" fill="#e7e7e7" d="M 2484.5,1772.5 C 2133.83,1772.5 1783.17,1772.5 1432.5,1772.5C 1436.21,1768.95 1439.38,1764.95 1442,1760.5C 1443.23,1752.62 1441.23,1745.62 1436,1739.5C 1388.65,1683.65 1341.48,1627.65 1294.5,1571.5C 1359.35,1547.38 1424.35,1523.55 1489.5,1500C 1337.35,1428.09 1185.35,1355.93 1033.5,1283.5C 1052.73,1218.04 1035.73,1164.21 982.5,1122C 936.045,1091.88 887.711,1088.55 837.5,1112C 793.577,1136.31 768.41,1173.48 762,1223.5C 759.172,1282.02 782.338,1326.85 831.5,1358C 858.796,1373.63 887.796,1379.13 918.5,1374.5C 954.745,1506.81 990.079,1639.47 1024.5,1772.5C 854.5,1772.5 684.5,1772.5 514.5,1772.5C 514.333,1446.5 514.5,1120.5 515,794.5C 520.712,757.578 540.879,732.078 575.5,718C 593.823,710.783 612.823,706.45 632.5,705C 920.333,704.833 1208.17,704.667 1496,704.5C 1783.83,704.667 2071.67,704.833 2359.5,705C 2391.84,706.162 2421.5,715.495 2448.5,733C 2468.72,748.58 2480.56,769.08 2484,794.5C 2484.5,1120.5 2484.67,1446.5 2484.5,1772.5 Z"/></g>
<g><path style="opacity:1" fill="#f18615" d="M 690.5,889.5 C 902.833,889.5 1115.17,889.5 1327.5,889.5C 1327.5,913.833 1327.5,938.167 1327.5,962.5C 1115.17,962.5 902.833,962.5 690.5,962.5C 690.5,938.167 690.5,913.833 690.5,889.5 Z"/></g>
<g><path style="opacity:1" fill="#de402a" d="M 1624.5,889.5 C 1863.17,889.5 2101.83,889.5 2340.5,889.5C 2340.5,913.5 2340.5,937.5 2340.5,961.5C 2101.83,961.5 1863.17,961.5 1624.5,961.5C 1624.5,937.5 1624.5,913.5 1624.5,889.5 Z"/></g>
<g><path style="opacity:1" fill="#448cce" d="M 2275.5,1066.5 C 2275.5,1088.5 2275.5,1110.5 2275.5,1132.5C 2055.17,1132.5 1834.83,1132.5 1614.5,1132.5C 1614.5,1110.5 1614.5,1088.5 1614.5,1066.5C 1834.83,1066.5 2055.17,1066.5 2275.5,1066.5 Z"/></g>
<g><path style="opacity:1" fill="#63caca" d="M 1033.5,1283.5 C 1018.41,1276.69 1003.41,1269.69 988.5,1262.5C 998.779,1212.23 981.112,1175.73 935.5,1153C 892.305,1138.62 856.472,1149.12 828,1184.5C 805.503,1220.57 806.17,1256.24 830,1291.5C 849.542,1315.19 874.709,1326.85 905.5,1326.5C 910.435,1342.23 914.769,1358.23 918.5,1374.5C 887.796,1379.13 858.796,1373.63 831.5,1358C 782.338,1326.85 759.172,1282.02 762,1223.5C 768.41,1173.48 793.577,1136.31 837.5,1112C 887.711,1088.55 936.045,1091.88 982.5,1122C 1035.73,1164.21 1052.73,1218.04 1033.5,1283.5 Z"/></g>
<g><path style="opacity:1" fill="#6ca2d3" d="M 2275.5,1066.5 C 2276.5,1088.66 2276.83,1110.99 2276.5,1133.5C 2055.67,1133.83 1835,1133.5 1614.5,1132.5C 1834.83,1132.5 2055.17,1132.5 2275.5,1132.5C 2275.5,1110.5 2275.5,1088.5 2275.5,1066.5 Z"/></g>
<g><path style="opacity:1" fill="#f3f2f2" d="M 988.5,1262.5 C 950.707,1244.77 913.041,1226.77 875.5,1208.5C 875.167,1209 874.833,1209.5 874.5,1210C 885.39,1248.73 895.723,1287.56 905.5,1326.5C 874.709,1326.85 849.542,1315.19 830,1291.5C 806.17,1256.24 805.503,1220.57 828,1184.5C 856.472,1149.12 892.305,1138.62 935.5,1153C 981.112,1175.73 998.779,1212.23 988.5,1262.5 Z"/></g>
<g><path style="opacity:1" fill="#f08613" d="M 988.5,1262.5 C 1003.41,1269.69 1018.41,1276.69 1033.5,1283.5C 1185.35,1355.93 1337.35,1428.09 1489.5,1500C 1424.35,1523.55 1359.35,1547.38 1294.5,1571.5C 1341.48,1627.65 1388.65,1683.65 1436,1739.5C 1441.23,1745.62 1443.23,1752.62 1442,1760.5C 1439.38,1764.95 1436.21,1768.95 1432.5,1772.5C 1397.53,1801.66 1362.53,1830.83 1327.5,1860C 1322.96,1863.27 1317.96,1865.44 1312.5,1866.5C 1305.42,1865.38 1299.59,1862.04 1295,1856.5C 1272.35,1828.02 1249.18,1800.02 1225.5,1772.5C 1202.59,1743.58 1179.26,1714.91 1155.5,1686.5C 1138.41,1714.92 1121.74,1743.59 1105.5,1772.5C 1087.19,1803.15 1068.86,1833.82 1050.5,1864.5C 1042.12,1833.61 1033.45,1802.94 1024.5,1772.5C 990.079,1639.47 954.745,1506.81 918.5,1374.5C 914.769,1358.23 910.435,1342.23 905.5,1326.5C 895.723,1287.56 885.39,1248.73 874.5,1210C 874.833,1209.5 875.167,1209 875.5,1208.5C 913.041,1226.77 950.707,1244.77 988.5,1262.5 Z"/></g>
<g><path style="opacity:1" fill="#bcbbbc" d="M 1624.5,1319.5 C 1727.5,1319.5 1830.5,1319.5 1933.5,1319.5C 1933.5,1343.83 1933.5,1368.17 1933.5,1392.5C 1830.5,1392.5 1727.5,1392.5 1624.5,1392.5C 1624.5,1368.17 1624.5,1343.83 1624.5,1319.5 Z"/></g>
<g><path style="opacity:1" fill="#bcbbbc" d="M 2031.5,1319.5 C 2134.83,1319.5 2238.17,1319.5 2341.5,1319.5C 2341.83,1343.74 2341.49,1367.91 2340.5,1392C 2237.5,1392.5 2134.5,1392.67 2031.5,1392.5C 2031.5,1368.17 2031.5,1343.83 2031.5,1319.5 Z"/></g>
<g><path style="opacity:1" fill="#bcbbbc" d="M 1624.5,1425.5 C 1727.5,1425.5 1830.5,1425.5 1933.5,1425.5C 1933.5,1449.83 1933.5,1474.17 1933.5,1498.5C 1830.17,1498.5 1726.83,1498.5 1623.5,1498.5C 1623.18,1474.09 1623.51,1449.76 1624.5,1425.5 Z"/></g>
<g><path style="opacity:1" fill="#bcbbbc" d="M 2031.5,1425.5 C 2134.5,1425.33 2237.5,1425.5 2340.5,1426C 2341.49,1450.09 2341.83,1474.26 2341.5,1498.5C 2238.17,1498.5 2134.83,1498.5 2031.5,1498.5C 2031.5,1474.17 2031.5,1449.83 2031.5,1425.5 Z"/></g>
<g><path style="opacity:1" fill="#bbbbbb" d="M 1624.5,1536.5 C 1727.5,1536.5 1830.5,1536.5 1933.5,1536.5C 1933.5,1560.5 1933.5,1584.5 1933.5,1608.5C 1830.5,1608.5 1727.5,1608.5 1624.5,1608.5C 1624.5,1584.5 1624.5,1560.5 1624.5,1536.5 Z"/></g>
<g><path style="opacity:1" fill="#bcbbbc" d="M 2031.5,1536.5 C 2134.83,1536.5 2238.17,1536.5 2341.5,1536.5C 2341.5,1560.5 2341.5,1584.5 2341.5,1608.5C 2238.17,1608.5 2134.83,1608.5 2031.5,1608.5C 2031.5,1584.5 2031.5,1560.5 2031.5,1536.5 Z"/></g>
<g><path style="opacity:1" fill="#e8e7e7" d="M 1225.5,1772.5 C 1185.5,1772.5 1145.5,1772.5 1105.5,1772.5C 1121.74,1743.59 1138.41,1714.92 1155.5,1686.5C 1179.26,1714.91 1202.59,1743.58 1225.5,1772.5 Z"/></g>
<g><path style="opacity:1" fill="#de402b" d="M 514.5,1772.5 C 684.5,1772.5 854.5,1772.5 1024.5,1772.5C 1033.45,1802.94 1042.12,1833.61 1050.5,1864.5C 1068.86,1833.82 1087.19,1803.15 1105.5,1772.5C 1145.5,1772.5 1185.5,1772.5 1225.5,1772.5C 1249.18,1800.02 1272.35,1828.02 1295,1856.5C 1299.59,1862.04 1305.42,1865.38 1312.5,1866.5C 1317.96,1865.44 1322.96,1863.27 1327.5,1860C 1362.53,1830.83 1397.53,1801.66 1432.5,1772.5C 1783.17,1772.5 2133.83,1772.5 2484.5,1772.5C 2485.67,1825 2485.83,1877.67 2485,1930.5C 2479.87,1979.97 2453.03,2010.47 2404.5,2022C 2395.2,2023.95 2385.87,2025.61 2376.5,2027C 2084.33,2027.17 1792.17,2027.33 1500,2027.5C 1207.83,2027.33 915.667,2027.17 623.5,2027C 595.986,2024.72 570.986,2015.72 548.5,2000C 528.467,1982.77 517.3,1960.93 515,1934.5C 514.5,1880.5 514.333,1826.5 514.5,1772.5 Z"/></g>
<g><path style="opacity:1" fill="#bbbabb" d="M 400.5,2184.5 C 705.833,2184.5 1011.17,2184.5 1316.5,2184.5C 1316.75,2197.17 1320.25,2208.84 1327,2219.5C 1333.34,2226.75 1341.17,2231.59 1350.5,2234C 1448.5,2234.67 1546.5,2234.67 1644.5,2234C 1662.77,2231.4 1674.6,2221.24 1680,2203.5C 1681.49,2197.25 1682.32,2190.91 1682.5,2184.5C 1988.17,2184.5 2293.83,2184.5 2599.5,2184.5C 2635.83,2184.5 2672.17,2184.5 2708.5,2184.5C 2705.35,2295.71 2651.68,2370.21 2547.5,2408C 2511.79,2419.95 2475.12,2426.95 2437.5,2429C 2124.5,2429.17 1811.5,2429.33 1498.5,2429.5C 1185.5,2429.33 872.5,2429.17 559.5,2429C 504.77,2426.07 453.103,2412.07 404.5,2387C 335.133,2345.83 297.633,2284.67 292,2203.5C 291.5,2197.18 291.334,2190.84 291.5,2184.5C 327.833,2184.5 364.167,2184.5 400.5,2184.5 Z"/></g>
<g><path style="opacity:1" fill="#918f8f" d="M 1316.5,2184.5 C 1438.5,2184.5 1560.5,2184.5 1682.5,2184.5C 1682.32,2190.91 1681.49,2197.25 1680,2203.5C 1674.6,2221.24 1662.77,2231.4 1644.5,2234C 1546.5,2234.67 1448.5,2234.67 1350.5,2234C 1341.17,2231.59 1333.34,2226.75 1327,2219.5C 1320.25,2208.84 1316.75,2197.17 1316.5,2184.5 Z"/></g>
</svg>
