<?xml version="1.0" encoding="UTF-8"?>
<!DOCTYPE svg PUBLIC "-//W3C//DTD SVG 1.1//EN" "http://www.w3.org/Graphics/SVG/1.1/DTD/svg11.dtd">
<svg xmlns="http://www.w3.org/2000/svg" version="1.1" width="3000px" height="3000px" style="shape-rendering:geometricPrecision; text-rendering:geometricPrecision; image-rendering:optimizeQuality; fill-rule:evenodd; clip-rule:evenodd" xmlns:xlink="http://www.w3.org/1999/xlink">
<g><path style="opacity:0.998" fill="#28abe2" d="M 1426.5,546.5 C 1816.9,534.508 2177.9,630.675 2509.5,835C 2634.82,914.517 2749.99,1007.35 2855,1113.5C 2893.01,1162.92 2901.01,1216.92 2879,1275.5C 2846.99,1341.44 2794.16,1372.94 2720.5,1370C 2689.06,1366.86 2661.06,1355.53 2636.5,1336C 2422.96,1120.67 2167.96,976.335 1871.5,903C 1542.54,827.048 1220.88,850.382 906.5,973C 700.793,1056.49 520.126,1176.82 364.5,1334C 312.077,1374.23 255.411,1381.23 194.5,1355C 133.569,1321.33 104.736,1269.49 108,1199.5C 111.837,1164.84 125.17,1134.51 148,1108.5C 414.328,842.195 732.828,668.361 1103.5,587C 1210.24,564.866 1317.9,551.366 1426.5,546.5 Z"/></g>
<g><path style="opacity:0.998" fill="#28abe2" d="M 1456.5,1097.5 C 1766.47,1090.55 2049.47,1173.38 2305.5,1346C 2368.98,1390.12 2428.98,1438.79 2485.5,1492C 2497.7,1503.86 2509.53,1516.03 2521,1528.5C 2553.15,1571.23 2562.48,1618.56 2549,1670.5C 2529.47,1729.7 2489.3,1766.2 2428.5,1780C 2382.13,1787.91 2340.13,1777.91 2302.5,1750C 2071.81,1519.59 1792.47,1406.59 1464.5,1411C 1164.46,1424.41 909.126,1536.74 698.5,1748C 654.944,1781.04 606.611,1790.38 553.5,1776C 506.314,1760.82 473.147,1730.32 454,1684.5C 432.616,1622.78 443.282,1567.45 486,1518.5C 719.608,1285.79 1001.11,1148.63 1330.5,1107C 1372.54,1102.27 1414.54,1099.1 1456.5,1097.5 Z"/></g>
<g><path style="opacity:0.997" fill="#28abe2" d="M 1471.5,1660.5 C 1714.6,1656.44 1924.6,1736.61 2101.5,1901C 2156.3,1949.03 2173.8,2008.2 2154,2078.5C 2129.25,2140.9 2083.42,2175.73 2016.5,2183C 1979.07,2185.14 1945.07,2175.48 1914.5,2154C 1894.17,2135.67 1873.83,2117.33 1853.5,2099C 1723.67,1997.45 1576.67,1957.78 1412.5,1980C 1289.39,2000.38 1184.39,2054.72 1097.5,2143C 1047.35,2184.41 991.683,2193.75 930.5,2171C 870.294,2141.9 838.628,2093.73 835.5,2026.5C 836.88,1979.81 854.546,1940.65 888.5,1909C 1051.11,1753.4 1245.44,1670.57 1471.5,1660.5 Z"/></g>
<g><path style="opacity:0.995" fill="#28abe2" d="M 1484.5,2194.5 C 1531.25,2191.14 1569.75,2207.14 1600,2242.5C 1627.12,2278.29 1634.79,2317.96 1623,2361.5C 1604.35,2415.14 1566.85,2445.64 1510.5,2453C 1454.54,2455.78 1412.37,2433.28 1384,2385.5C 1363.33,2344.5 1363.33,2303.5 1384,2262.5C 1406.38,2223.55 1439.88,2200.88 1484.5,2194.5 Z"/></g>
</svg>
