<?xml version="1.0" encoding="UTF-8"?>
<!DOCTYPE svg PUBLIC "-//W3C//DTD SVG 1.1//EN" "http://www.w3.org/Graphics/SVG/1.1/DTD/svg11.dtd">
<svg xmlns="http://www.w3.org/2000/svg" version="1.1" width="3000px" height="3000px" style="shape-rendering:geometricPrecision; text-rendering:geometricPrecision; image-rendering:optimizeQuality; fill-rule:evenodd; clip-rule:evenodd" xmlns:xlink="http://www.w3.org/1999/xlink">
<g><path style="opacity:0.999" fill="#ebc03f" d="M 2225.5,958.5 C 2123.9,913.137 2018.23,880.303 1908.5,860C 1781.3,839.183 1653.97,819.183 1526.5,800C 1483.36,794.228 1440.02,791.061 1396.5,790.5C 1505.82,655.342 1630.15,536.175 1769.5,433C 1898.78,338.653 2038.78,262.653 2189.5,205C 2235.23,189.201 2280.9,173.201 2326.5,157C 2367.36,142.702 2409.02,131.369 2451.5,123C 2482.35,117.019 2513.35,116.019 2544.5,120C 2558.11,122.385 2569.61,128.552 2579,138.5C 2579.8,144.005 2579.13,149.338 2577,154.5C 2565.12,178.928 2553.79,203.594 2543,228.5C 2436.85,471.811 2331.02,715.144 2225.5,958.5 Z"/></g>
<g><path style="opacity:1" fill="#2c2b2b" d="M 2375.5,360.5 C 2381.46,363.156 2386.8,366.823 2391.5,371.5C 2362.56,418.364 2335.39,466.364 2310,515.5C 2278.06,579.043 2246.4,642.71 2215,706.5C 2203.47,732.084 2192.14,757.75 2181,783.5C 2177.32,789.529 2173.66,795.529 2170,801.5C 2165.2,799.767 2160.54,797.767 2156,795.5C 2155.33,792.167 2155.33,788.833 2156,785.5C 2183.43,692.99 2219.43,603.99 2264,518.5C 2283.97,482.549 2306.3,448.215 2331,415.5C 2346.05,397.292 2360.88,378.959 2375.5,360.5 Z"/></g>
<g><path style="opacity:1" fill="#262025" d="M 1396.5,790.5 C 1440.02,791.061 1483.36,794.228 1526.5,800C 1653.97,819.183 1781.3,839.183 1908.5,860C 2018.23,880.303 2123.9,913.137 2225.5,958.5C 2205.02,1008.12 2184.02,1057.46 2162.5,1106.5C 2120.08,1084.79 2077.41,1063.29 2034.5,1042C 1907.94,983.273 1775.6,943.607 1637.5,923C 1546.2,908.265 1454.54,905.598 1362.5,915C 1341.18,916.15 1319.85,916.65 1298.5,916.5C 1329.26,873.064 1361.93,831.064 1396.5,790.5 Z"/></g>
<g><path style="opacity:1" fill="#ebc03f" d="M 2162.5,1106.5 C 2095.37,1265.59 2029.03,1424.92 1963.5,1584.5C 1962.91,1581.39 1961.24,1578.89 1958.5,1577C 1897.39,1525.58 1830.39,1482.92 1757.5,1449C 1693.61,1419.81 1627.94,1395.14 1560.5,1375C 1531.84,1366.67 1503.17,1358.33 1474.5,1350C 1344.48,1315.83 1214.48,1281.66 1084.5,1247.5C 1149.54,1132.86 1220.87,1022.52 1298.5,916.5C 1319.85,916.65 1341.18,916.15 1362.5,915C 1454.54,905.598 1546.2,908.265 1637.5,923C 1775.6,943.607 1907.94,983.273 2034.5,1042C 2077.41,1063.29 2120.08,1084.79 2162.5,1106.5 Z"/></g>
<g><path style="opacity:1" fill="#2c2b2b" d="M 1997.5,1195.5 C 2003.86,1197.19 2009.52,1200.19 2014.5,1204.5C 2015.64,1206.42 2015.81,1208.42 2015,1210.5C 2004.94,1235.95 1993.27,1260.62 1980,1284.5C 1960.45,1330.27 1941.45,1376.27 1923,1422.5C 1913.66,1422.72 1905.32,1419.72 1898,1413.5C 1897.33,1411.17 1897.33,1408.83 1898,1406.5C 1909,1375.5 1920,1344.5 1931,1313.5C 1946.76,1270.28 1968.93,1230.95 1997.5,1195.5 Z"/></g>
<g><path style="opacity:1" fill="#262025" d="M 1084.5,1247.5 C 1214.48,1281.66 1344.48,1315.83 1474.5,1350C 1503.17,1358.33 1531.84,1366.67 1560.5,1375C 1627.94,1395.14 1693.61,1419.81 1757.5,1449C 1830.39,1482.92 1897.39,1525.58 1958.5,1577C 1961.24,1578.89 1962.91,1581.39 1963.5,1584.5C 1949.2,1621.07 1934.54,1657.4 1919.5,1693.5C 1859.53,1657.34 1797.53,1624.51 1733.5,1595C 1608.64,1538.75 1480.31,1491.75 1348.5,1454C 1269.28,1434.78 1190.28,1414.78 1111.5,1394C 1078.87,1385.85 1045.87,1379.68 1012.5,1375.5C 1035.49,1332.18 1059.49,1289.51 1084.5,1247.5 Z"/></g>
<g><path style="opacity:1" fill="#ebc03f" d="M 1012.5,1375.5 C 1045.87,1379.68 1078.87,1385.85 1111.5,1394C 1190.28,1414.78 1269.28,1434.78 1348.5,1454C 1480.31,1491.75 1608.64,1538.75 1733.5,1595C 1797.53,1624.51 1859.53,1657.34 1919.5,1693.5C 1882.95,1785.83 1846.62,1878.16 1810.5,1970.5C 1738.27,1954.08 1666.61,1934.91 1595.5,1913C 1486.59,1877.25 1377.26,1842.92 1267.5,1810C 1208.83,1790 1150.17,1770 1091.5,1750C 1033.58,1730.44 974.58,1715.1 914.5,1704C 898.179,1701.69 881.845,1699.53 865.5,1697.5C 906.784,1586.65 955.784,1479.32 1012.5,1375.5 Z"/></g>
<g><path style="opacity:1" fill="#262025" d="M 865.5,1697.5 C 881.845,1699.53 898.179,1701.69 914.5,1704C 974.58,1715.1 1033.58,1730.44 1091.5,1750C 1150.17,1770 1208.83,1790 1267.5,1810C 1377.26,1842.92 1486.59,1877.25 1595.5,1913C 1666.61,1934.91 1738.27,1954.08 1810.5,1970.5C 1794.2,2014.4 1777.54,2058.06 1760.5,2101.5C 1682.27,2066.56 1603.61,2032.39 1524.5,1999C 1469.38,1976.63 1413.38,1956.63 1356.5,1939C 1234.53,1904.34 1110.87,1877.34 985.5,1858C 931.96,1849.5 878.294,1841.83 824.5,1835C 822.563,1834.88 821.23,1834.05 820.5,1832.5C 833.33,1786.68 848.33,1741.68 865.5,1697.5 Z"/></g>
<g><path style="opacity:1" fill="#2c2b2b" d="M 1785.5,1709.5 C 1791.21,1709.46 1796.38,1711.13 1801,1714.5C 1801.09,1721.96 1800.09,1729.29 1798,1736.5C 1783.71,1787.38 1764.71,1836.38 1741,1883.5C 1739.14,1886.21 1736.64,1887.04 1733.5,1886C 1729.76,1884.86 1726.09,1883.53 1722.5,1882C 1721.11,1881.04 1720.44,1879.71 1720.5,1878C 1729.54,1828.87 1745.38,1782.04 1768,1737.5C 1773.27,1727.75 1779.1,1718.42 1785.5,1709.5 Z"/></g>
<g><path style="opacity:0.999" fill="#ebc03f" d="M 820.5,1832.5 C 821.23,1834.05 822.563,1834.88 824.5,1835C 878.294,1841.83 931.96,1849.5 985.5,1858C 1110.87,1877.34 1234.53,1904.34 1356.5,1939C 1413.38,1956.63 1469.38,1976.63 1524.5,1999C 1603.61,2032.39 1682.27,2066.56 1760.5,2101.5C 1724.38,2198.19 1689.05,2295.19 1654.5,2392.5C 1653.21,2393.06 1652.38,2394.06 1652,2395.5C 1645.27,2418.68 1637.94,2441.68 1630,2464.5C 1623.09,2483 1614.09,2500.33 1603,2516.5C 1597.24,2523.94 1590.07,2529.44 1581.5,2533C 1555.42,2536.26 1542.42,2524.6 1542.5,2498C 1542.89,2488.73 1544.05,2479.57 1546,2470.5C 1552.67,2447.83 1559.33,2425.17 1566,2402.5C 1567.3,2395.87 1567.64,2389.21 1567,2382.5C 1566.3,2379.56 1565.14,2376.9 1563.5,2374.5C 1559.23,2365.72 1553.23,2358.22 1545.5,2352C 1526.39,2337.61 1505.39,2326.61 1482.5,2319C 1459.44,2311.07 1436.11,2304.07 1412.5,2298C 1263.4,2259.48 1113.07,2226.48 961.5,2199C 935.574,2195.9 909.574,2193.57 883.5,2192C 860.19,2190.4 837.523,2185.74 815.5,2178C 784.731,2165.55 768.231,2142.72 766,2109.5C 765.333,2099.83 765.333,2090.17 766,2080.5C 777.248,1996.19 795.415,1913.52 820.5,1832.5 Z"/></g>
<g><path style="opacity:1" fill="#2c2c2b" d="M 1633.5,2115.5 C 1641.43,2116.97 1648.43,2120.3 1654.5,2125.5C 1643.31,2164.91 1628.47,2202.91 1610,2239.5C 1607.24,2244.36 1603.58,2248.36 1599,2251.5C 1594.32,2249.27 1589.49,2247.44 1584.5,2246C 1583.48,2245.48 1582.82,2244.65 1582.5,2243.5C 1586.5,2223 1593,2203.34 1602,2184.5C 1612.51,2161.48 1623.01,2138.48 1633.5,2115.5 Z"/></g>
<g><path style="opacity:0.998" fill="#35b190" d="M 1563.5,2374.5 C 1565.14,2376.9 1566.3,2379.56 1567,2382.5C 1567.64,2389.21 1567.3,2395.87 1566,2402.5C 1559.33,2425.17 1552.67,2447.83 1546,2470.5C 1544.05,2479.57 1542.89,2488.73 1542.5,2498C 1542.42,2524.6 1555.42,2536.26 1581.5,2533C 1590.07,2529.44 1597.24,2523.94 1603,2516.5C 1614.09,2500.33 1623.09,2483 1630,2464.5C 1637.94,2441.68 1645.27,2418.68 1652,2395.5C 1652.38,2394.06 1653.21,2393.06 1654.5,2392.5C 1720.04,2405.84 1785.37,2420.68 1850.5,2437C 1970.18,2468.56 2084.85,2512.89 2194.5,2570C 2225.1,2586.46 2253.43,2606.13 2279.5,2629C 2296.48,2644.98 2309.98,2663.48 2320,2684.5C 2337.72,2739.01 2323.22,2782.84 2276.5,2816C 2244.01,2837.24 2208.67,2851.91 2170.5,2860C 2116.8,2871.6 2062.47,2877.93 2007.5,2879C 1856.67,2884.29 1706.01,2881.29 1555.5,2870C 1441.48,2862.63 1327.81,2851.63 1214.5,2837C 1074.38,2817.64 936.715,2787.31 801.5,2746C 725.006,2722.25 652.672,2689.58 584.5,2648C 540.247,2620.41 500.414,2587.25 465,2548.5C 445.248,2525 431.248,2498.34 423,2468.5C 413.855,2429.28 424.022,2396.11 453.5,2369C 483.635,2347.27 516.968,2332.27 553.5,2324C 588.728,2315.78 624.395,2310.44 660.5,2308C 833.059,2293.46 1005.39,2295.8 1177.5,2315C 1306.99,2329.57 1435.66,2349.4 1563.5,2374.5 Z"/></g>
<g><path style="opacity:1" fill="#2b2c2c" d="M 856.5,2362.5 C 903.509,2362.21 950.509,2362.71 997.5,2364C 1100.26,2370.59 1202.26,2383.26 1303.5,2402C 1348.26,2406.9 1392.93,2412.57 1437.5,2419C 1449.2,2421.51 1460.87,2424.18 1472.5,2427C 1479.54,2429.02 1486.21,2431.86 1492.5,2435.5C 1488.69,2441.81 1483.19,2445.48 1476,2446.5C 1465.85,2443.34 1455.69,2440.17 1445.5,2437C 1440.5,2436 1435.5,2435 1430.5,2434C 1385.86,2427.76 1341.19,2421.76 1296.5,2416C 1219.95,2401.83 1142.95,2390.83 1065.5,2383C 993.651,2376.37 921.651,2374.04 849.5,2376C 799.53,2378.83 749.53,2381 699.5,2382.5C 673.485,2382.13 647.485,2381.3 621.5,2380C 601.5,2379.33 581.5,2379.33 561.5,2380C 506.389,2386.43 484.889,2416.59 497,2470.5C 505.382,2494.1 518.882,2514.26 537.5,2531C 555.236,2547.36 574.236,2562.03 594.5,2575C 672.095,2623.88 754.761,2662.22 842.5,2690C 917.296,2707.69 992.629,2722.69 1068.5,2735C 1140.73,2744.82 1213.06,2753.82 1285.5,2762C 1372.84,2774.78 1460.18,2787.78 1547.5,2801C 1593.1,2806.94 1638.76,2812.27 1684.5,2817C 1811.95,2829.81 1938.95,2826.48 2065.5,2807C 2101.98,2801.05 2137.32,2791.05 2171.5,2777C 2236.31,2748.92 2246.15,2707.76 2201,2653.5C 2178.11,2629.13 2151.27,2610.3 2120.5,2597C 2094.45,2586.2 2067.78,2577.2 2040.5,2570C 1996.41,2559.23 1952.08,2549.56 1907.5,2541C 1830.49,2526.66 1753.49,2512.33 1676.5,2498C 1668.97,2493.31 1666.63,2486.98 1669.5,2479C 1672.33,2478.83 1675.17,2478.67 1678,2478.5C 1690.52,2480.05 1703.02,2481.88 1715.5,2484C 1815.71,2504.05 1915.71,2525.05 2015.5,2547C 2052.73,2555.85 2089.06,2567.52 2124.5,2582C 2161.9,2597.27 2193.4,2620.44 2219,2651.5C 2231.32,2666.47 2239.65,2683.47 2244,2702.5C 2246.46,2722.67 2241.46,2740.67 2229,2756.5C 2212.97,2773.11 2194.13,2785.61 2172.5,2794C 2130.49,2810.11 2087.16,2821.11 2042.5,2827C 1898.76,2844.25 1755.1,2843.59 1611.5,2825C 1509.64,2811.76 1407.97,2797.09 1306.5,2781C 1230.12,2771.69 1153.79,2762.03 1077.5,2752C 1002.32,2739.9 927.652,2725.23 853.5,2708C 777.309,2684.94 704.309,2654.27 634.5,2616C 599.741,2596.29 567.074,2573.63 536.5,2548C 517.525,2531.71 502.358,2512.54 491,2490.5C 466.318,2418.35 491.818,2378.18 567.5,2370C 580.833,2369.83 594.167,2369.67 607.5,2369.5C 690.784,2371.76 773.784,2369.42 856.5,2362.5 Z"/></g>
<g><path style="opacity:1" fill="#2b2b2b" d="M 1443.5,2521.5 C 1446.85,2521.33 1450.18,2521.5 1453.5,2522C 1486.39,2535.45 1520.39,2544.78 1555.5,2550C 1586.55,2553.67 1616.22,2549 1644.5,2536C 1652.29,2534.38 1658.96,2536.38 1664.5,2542C 1671.46,2547.95 1677.29,2554.78 1682,2562.5C 1682.67,2564.5 1682.67,2566.5 1682,2568.5C 1676.37,2575.46 1669.54,2580.96 1661.5,2585C 1643.05,2592.7 1624.05,2598.7 1604.5,2603C 1584.14,2604.82 1564.8,2601.15 1546.5,2592C 1520.5,2578 1494.5,2564 1468.5,2550C 1457.2,2543.7 1448.2,2535.04 1441.5,2524C 1442.06,2522.99 1442.72,2522.16 1443.5,2521.5 Z"/></g>
</svg>
