<?xml version="1.0" encoding="UTF-8"?>
<!DOCTYPE svg PUBLIC "-//W3C//DTD SVG 1.1//EN" "http://www.w3.org/Graphics/SVG/1.1/DTD/svg11.dtd">
<svg xmlns="http://www.w3.org/2000/svg" version="1.1" width="3000px" height="3000px" style="shape-rendering:geometricPrecision; text-rendering:geometricPrecision; image-rendering:optimizeQuality; fill-rule:evenodd; clip-rule:evenodd" xmlns:xlink="http://www.w3.org/1999/xlink">
<g><path style="opacity:1" fill="#c29d64" d="M 1748.5,738.5 C 1747.68,742.647 1747.18,746.981 1747,751.5C 1745.34,755.658 1742.51,758.658 1738.5,760.5C 1738.67,749.495 1738.5,738.495 1738,727.5C 1732.67,687.558 1727.84,647.558 1723.5,607.5C 1724.32,599.085 1725.65,590.752 1727.5,582.5C 1727.55,579.426 1726.22,577.259 1723.5,576C 1719.96,575.429 1716.62,576.096 1713.5,578C 1671.36,606.393 1625.36,626.06 1575.5,637C 1498.19,653.565 1420.52,655.565 1342.5,643C 1317.08,638.489 1291.75,633.656 1266.5,628.5C 1264.42,628.692 1262.42,629.192 1260.5,630C 1266.3,635.399 1272.63,640.066 1279.5,644C 1282.23,646.626 1284.06,649.793 1285,653.5C 1284.73,667.69 1283.9,681.857 1282.5,696C 1284.41,733.516 1286.58,771.016 1289,808.5C 1289.79,814.973 1293.29,818.139 1299.5,818C 1301,817.167 1302.17,816 1303,814.5C 1303.67,802.833 1303.67,791.167 1303,779.5C 1300.68,737.188 1299.35,694.854 1299,652.5C 1299.72,651.941 1300.56,651.608 1301.5,651.5C 1321.68,656.129 1342.01,659.962 1362.5,663C 1368,663.167 1370.83,666 1371,671.5C 1372.94,719.826 1377.94,767.826 1386,815.5C 1388.81,821.659 1393.31,823.493 1399.5,821C 1400.13,820.25 1400.63,819.416 1401,818.5C 1401.67,813.167 1401.67,807.833 1401,802.5C 1393.36,758.082 1388.03,713.415 1385,668.5C 1387.4,665.987 1390.4,664.987 1394,665.5C 1412.44,667.676 1430.94,668.843 1449.5,669C 1453.1,669.85 1454.77,672.183 1454.5,676C 1452.61,695.794 1452.11,715.627 1453,735.5C 1454.73,764.325 1457.73,792.991 1462,821.5C 1466.55,825.582 1470.88,825.249 1475,820.5C 1476.05,816.587 1476.55,812.587 1476.5,808.5C 1475.58,789.152 1474.42,769.818 1473,750.5C 1468.77,724.295 1466.1,697.962 1465,671.5C 1466.83,669.926 1468.99,669.093 1471.5,669C 1481.17,668.082 1490.84,667.082 1500.5,666C 1505.89,665.216 1511.22,665.382 1516.5,666.5C 1517.33,667.5 1518.17,668.5 1519,669.5C 1519.33,684.5 1519.67,699.5 1520,714.5C 1523.63,746.552 1527.63,778.552 1532,810.5C 1535.23,816.893 1539.56,817.893 1545,813.5C 1546.13,811.275 1546.96,808.942 1547.5,806.5C 1543.08,768.165 1538.58,729.831 1534,691.5C 1532.82,682.856 1532.49,674.19 1533,665.5C 1533.83,664.667 1534.67,663.833 1535.5,663C 1565.24,656.921 1594.74,650.087 1624,642.5C 1630.2,684.144 1636.2,725.811 1642,767.5C 1642.44,774.055 1645.61,778.722 1651.5,781.5C 1656.42,779.259 1659.42,775.592 1660.5,770.5C 1654.66,731.452 1648.49,692.452 1642,653.5C 1641.17,648.839 1640.83,644.172 1641,639.5C 1641.96,638.421 1642.79,637.255 1643.5,636C 1663.5,626 1683.5,616 1703.5,606C 1706.03,605.104 1708.19,605.604 1710,607.5C 1713.19,652.512 1716.52,697.512 1720,742.5C 1721.02,747.268 1722.36,751.934 1724,756.5C 1726.62,759.52 1729.79,761.52 1733.5,762.5C 1724.85,768.16 1715.85,773.327 1706.5,778C 1629.53,809.24 1549.53,827.24 1466.5,832C 1421.52,835.954 1376.52,836.288 1331.5,833C 1321.72,832.049 1312.05,830.383 1302.5,828C 1287.47,822.984 1272.81,817.151 1258.5,810.5C 1254.18,791.078 1251.68,771.411 1251,751.5C 1248.03,709.197 1245.86,666.864 1244.5,624.5C 1244.69,619.674 1246.19,615.341 1249,611.5C 1260.49,599.673 1273.65,590.173 1288.5,583C 1323.3,569.066 1358.97,557.733 1395.5,549C 1397.85,548.654 1399.68,547.487 1401,545.5C 1401.67,542.5 1401.67,539.5 1401,536.5C 1397.59,522.683 1395.25,508.683 1394,494.5C 1392.75,475.827 1391.42,457.161 1390,438.5C 1389.23,426.48 1389.39,414.48 1390.5,402.5C 1390.51,398.349 1388.51,395.849 1384.5,395C 1300.36,386.883 1216.36,388.216 1132.5,399C 1098.75,404.05 1065.09,409.55 1031.5,415.5C 1023.62,415.076 1015.96,413.576 1008.5,411C 991.24,401.399 974.24,391.399 957.5,381C 950.833,378 944.167,375 937.5,372C 935.939,371.059 934.605,369.892 933.5,368.5C 936.561,363.124 941.228,359.958 947.5,359C 1048.01,341.432 1147.34,318.765 1245.5,291C 1292.35,277.621 1339.02,263.621 1385.5,249C 1434.17,234.653 1483.5,231.653 1533.5,240C 1548.21,242.237 1561.88,247.237 1574.5,255C 1587.67,266.846 1594.84,281.68 1596,299.5C 1603.64,335.378 1591.47,361.878 1559.5,379C 1556.44,381.01 1554.77,383.843 1554.5,387.5C 1563.2,431.458 1568.7,475.792 1571,520.5C 1572.07,521.191 1573.23,521.691 1574.5,522C 1593.83,522.333 1613.17,522.667 1632.5,523C 1662.29,524.821 1690.62,532.155 1717.5,545C 1732.53,555.221 1741.37,569.388 1744,587.5C 1747.02,628.468 1749.52,669.468 1751.5,710.5C 1750.94,719.893 1749.94,729.227 1748.5,738.5 Z"/></g>
<g><path style="opacity:1" fill="#be7c5a" d="M 1524.5,369.5 C 1529.18,369.334 1533.85,369.501 1538.5,370C 1544.84,373.735 1545.17,378.069 1539.5,383C 1493.62,397.888 1446.96,401.055 1399.5,392.5C 1399.5,390.5 1399.5,388.5 1399.5,386.5C 1427.74,382.902 1456.07,380.068 1484.5,378C 1498.19,376.229 1511.53,373.396 1524.5,369.5 Z"/></g>
<g><path style="opacity:1" fill="#be7c5b" d="M 1566.5,527.5 C 1571.26,527.963 1574.1,530.63 1575,535.5C 1577.01,548.797 1574.01,560.797 1566,571.5C 1540.52,597.393 1509.52,609.393 1473,607.5C 1457.9,607.785 1443.06,605.952 1428.5,602C 1410.11,594.372 1402.28,580.872 1405,561.5C 1409.5,575.333 1418.67,584.5 1432.5,589C 1454.69,595.054 1477.03,595.721 1499.5,591C 1514.45,586.023 1528.79,579.69 1542.5,572C 1554.47,561.571 1561.3,548.405 1563,532.5C 1564,530.677 1565.16,529.01 1566.5,527.5 Z"/></g>
<g><path style="opacity:1" fill="#be7c5a" d="M 1738.5,760.5 C 1736.49,760.392 1734.82,761.058 1733.5,762.5C 1729.79,761.52 1726.62,759.52 1724,756.5C 1722.36,751.934 1721.02,747.268 1720,742.5C 1716.52,697.512 1713.19,652.512 1710,607.5C 1708.19,605.604 1706.03,605.104 1703.5,606C 1683.5,616 1663.5,626 1643.5,636C 1642.79,637.255 1641.96,638.421 1641,639.5C 1640.83,644.172 1641.17,648.839 1642,653.5C 1648.49,692.452 1654.66,731.452 1660.5,770.5C 1659.42,775.592 1656.42,779.259 1651.5,781.5C 1645.61,778.722 1642.44,774.055 1642,767.5C 1636.2,725.811 1630.2,684.144 1624,642.5C 1594.74,650.087 1565.24,656.921 1535.5,663C 1534.67,663.833 1533.83,664.667 1533,665.5C 1532.49,674.19 1532.82,682.856 1534,691.5C 1538.58,729.831 1543.08,768.165 1547.5,806.5C 1546.96,808.942 1546.13,811.275 1545,813.5C 1539.56,817.893 1535.23,816.893 1532,810.5C 1527.63,778.552 1523.63,746.552 1520,714.5C 1519.67,699.5 1519.33,684.5 1519,669.5C 1518.17,668.5 1517.33,667.5 1516.5,666.5C 1511.22,665.382 1505.89,665.216 1500.5,666C 1490.84,667.082 1481.17,668.082 1471.5,669C 1468.99,669.093 1466.83,669.926 1465,671.5C 1466.1,697.962 1468.77,724.295 1473,750.5C 1474.42,769.818 1475.58,789.152 1476.5,808.5C 1476.55,812.587 1476.05,816.587 1475,820.5C 1470.88,825.249 1466.55,825.582 1462,821.5C 1457.73,792.991 1454.73,764.325 1453,735.5C 1452.11,715.627 1452.61,695.794 1454.5,676C 1454.77,672.183 1453.1,669.85 1449.5,669C 1430.94,668.843 1412.44,667.676 1394,665.5C 1390.4,664.987 1387.4,665.987 1385,668.5C 1388.03,713.415 1393.36,758.082 1401,802.5C 1401.67,807.833 1401.67,813.167 1401,818.5C 1400.63,819.416 1400.13,820.25 1399.5,821C 1393.31,823.493 1388.81,821.659 1386,815.5C 1377.94,767.826 1372.94,719.826 1371,671.5C 1370.83,666 1368,663.167 1362.5,663C 1342.01,659.962 1321.68,656.129 1301.5,651.5C 1300.56,651.608 1299.72,651.941 1299,652.5C 1299.35,694.854 1300.68,737.188 1303,779.5C 1303.67,791.167 1303.67,802.833 1303,814.5C 1302.17,816 1301,817.167 1299.5,818C 1293.29,818.139 1289.79,814.973 1289,808.5C 1286.58,771.016 1284.41,733.516 1282.5,696C 1283.9,681.857 1284.73,667.69 1285,653.5C 1284.06,649.793 1282.23,646.626 1279.5,644C 1272.63,640.066 1266.3,635.399 1260.5,630C 1262.42,629.192 1264.42,628.692 1266.5,628.5C 1291.75,633.656 1317.08,638.489 1342.5,643C 1420.52,655.565 1498.19,653.565 1575.5,637C 1625.36,626.06 1671.36,606.393 1713.5,578C 1716.62,576.096 1719.96,575.429 1723.5,576C 1726.22,577.259 1727.55,579.426 1727.5,582.5C 1725.65,590.752 1724.32,599.085 1723.5,607.5C 1727.84,647.558 1732.67,687.558 1738,727.5C 1738.5,738.495 1738.67,749.495 1738.5,760.5 Z"/></g>
<g><path style="opacity:0.999" fill="#d4868a" d="M 1748.5,738.5 C 1783.13,746.656 1817.79,754.823 1852.5,763C 1896.29,776.474 1932.12,801.308 1960,837.5C 1979.99,862.804 1995.32,890.804 2006,921.5C 2021.09,971.528 2035.09,1021.86 2048,1072.5C 2058.18,1132.89 2063.68,1193.73 2064.5,1255C 2063.06,1295.15 2062.22,1335.32 2062,1375.5C 2059.41,1420.53 2056.41,1465.53 2053,1510.5C 2050.78,1553.49 2048.78,1596.49 2047,1639.5C 2044.04,1837.93 2038.04,2036.26 2029,2234.5C 2026.28,2294.12 2020.61,2353.45 2012,2412.5C 2004.88,2455.2 1997.55,2497.87 1990,2540.5C 1981.08,2585.93 1965.08,2628.59 1942,2668.5C 1927.47,2689.01 1908.31,2703.51 1884.5,2712C 1858.04,2721.6 1831.38,2730.6 1804.5,2739C 1775.36,2747.25 1745.7,2752.58 1715.5,2755C 1653.92,2760.12 1592.26,2763.62 1530.5,2765.5C 1476.54,2765.91 1423.21,2760.41 1370.5,2749C 1338.53,2742.01 1307.86,2731.34 1278.5,2717C 1243.05,2697.93 1219.55,2669.1 1208,2630.5C 1195.21,2552.09 1181.88,2473.75 1168,2395.5C 1151.47,2317.06 1134.47,2238.73 1117,2160.5C 1103.84,2087.7 1088.51,2015.37 1071,1943.5C 1043.31,1792.05 1014.98,1640.71 986,1489.5C 972.382,1413.42 966.715,1336.75 969,1259.5C 970.149,1233.01 972.815,1206.68 977,1180.5C 983.034,1148.37 989.7,1116.37 997,1084.5C 1012.01,1016.95 1046.85,962.116 1101.5,920C 1126.21,900.284 1151.21,880.951 1176.5,862C 1203.74,844.582 1231.07,827.416 1258.5,810.5C 1272.81,817.151 1287.47,822.984 1302.5,828C 1312.05,830.383 1321.72,832.049 1331.5,833C 1376.52,836.288 1421.52,835.954 1466.5,832C 1549.53,827.24 1629.53,809.24 1706.5,778C 1715.85,773.327 1724.85,768.16 1733.5,762.5C 1734.82,761.058 1736.49,760.392 1738.5,760.5C 1742.51,758.658 1745.34,755.658 1747,751.5C 1747.18,746.981 1747.68,742.647 1748.5,738.5 Z"/></g>
<g><path style="opacity:1" fill="#f6e6d8" d="M 1570.5,1137.5 C 1621.9,1136.67 1673.24,1138.17 1724.5,1142C 1765.53,1146.18 1805.2,1155.84 1843.5,1171C 1861.88,1181.91 1872.05,1198.08 1874,1219.5C 1875.86,1255.61 1878.86,1291.61 1883,1327.5C 1885.4,1385.49 1887.4,1443.49 1889,1501.5C 1889.67,1684.17 1889.67,1866.83 1889,2049.5C 1887.66,2092.93 1885,2136.26 1881,2179.5C 1877.98,2188.52 1872.15,2195.02 1863.5,2199C 1840.42,2208.77 1816.42,2215.1 1791.5,2218C 1766.51,2219.17 1741.51,2220.17 1716.5,2221C 1619.52,2227.41 1522.52,2233.41 1425.5,2239C 1398.66,2239.39 1371.83,2239.89 1345,2240.5C 1322.27,2242.59 1302.44,2236.09 1285.5,2221C 1277.9,2212.97 1273.07,2203.47 1271,2192.5C 1250.12,2087.44 1233.12,1981.77 1220,1875.5C 1206.33,1786.79 1192.33,1698.12 1178,1609.5C 1164.49,1539.27 1151.49,1468.94 1139,1398.5C 1136.88,1374.06 1133.88,1349.72 1130,1325.5C 1128.37,1315.7 1130.37,1306.7 1136,1298.5C 1151.07,1279.76 1168.91,1264.26 1189.5,1252C 1287.67,1194.05 1393.33,1157.39 1506.5,1142C 1528.03,1141.08 1549.36,1139.58 1570.5,1137.5 Z"/></g>
<g><path style="opacity:1" fill="#c29e64" d="M 1739.5,1260.5 C 1752.34,1259.25 1764.67,1261.09 1776.5,1266C 1781.87,1270.57 1784.7,1276.4 1785,1283.5C 1793.22,1416.37 1803.89,1549.04 1817,1681.5C 1819.92,1770.65 1825.26,1859.65 1833,1948.5C 1833.67,1992.17 1833.67,2035.83 1833,2079.5C 1831.09,2092.75 1823.59,2100.91 1810.5,2104C 1807.17,2104.67 1803.83,2105.33 1800.5,2106C 1715.81,2114.34 1631.14,2123 1546.5,2132C 1511.55,2136.71 1476.55,2141.04 1441.5,2145C 1424.47,2145.84 1407.47,2145.5 1390.5,2144C 1381.24,2143.57 1373.4,2140.07 1367,2133.5C 1364.66,2129.48 1363.33,2125.15 1363,2120.5C 1354.04,2025.84 1342.38,1931.51 1328,1837.5C 1310.49,1735.08 1290.82,1633.08 1269,1531.5C 1260.76,1493.78 1251.09,1456.45 1240,1419.5C 1235.09,1399.12 1232.92,1378.45 1233.5,1357.5C 1239.16,1358.2 1244.83,1358.37 1250.5,1358C 1263.76,1351.8 1277.43,1346.8 1291.5,1343C 1360.73,1326.03 1430.06,1309.69 1499.5,1294C 1579.2,1279.74 1659.2,1268.57 1739.5,1260.5 Z"/></g>
<g><path style="opacity:1" fill="#f6e6d8" d="M 1739.5,1275.5 C 1746.21,1275.36 1752.88,1275.86 1759.5,1277C 1765.34,1279.17 1768.5,1283.33 1769,1289.5C 1770.39,1322.16 1771.72,1354.83 1773,1387.5C 1782.07,1492.8 1790.74,1598.13 1799,1703.5C 1802.75,1750.77 1805.41,1798.11 1807,1845.5C 1809.84,1882.15 1812.51,1918.82 1815,1955.5C 1815.67,1997.17 1815.67,2038.83 1815,2080.5C 1814.53,2081.93 1813.7,2083.1 1812.5,2084C 1797.19,2088.83 1781.53,2091.83 1765.5,2093C 1731.16,2095.44 1696.82,2098.1 1662.5,2101C 1619.3,2106.98 1575.96,2111.65 1532.5,2115C 1505.26,2119.45 1477.93,2123.11 1450.5,2126C 1435.5,2126.67 1420.5,2126.67 1405.5,2126C 1398.75,2125.88 1392.09,2125.21 1385.5,2124C 1382.73,2122.24 1381.23,2119.74 1381,2116.5C 1379.09,2089.83 1377.09,2063.16 1375,2036.5C 1366.41,1974.21 1358.08,1911.87 1350,1849.5C 1329.76,1727.09 1305.76,1605.42 1278,1484.5C 1267.88,1449.47 1256.55,1414.81 1244,1380.5C 1241.05,1372.9 1243.55,1368.07 1251.5,1366C 1262.58,1365.84 1273.58,1364.84 1284.5,1363C 1364.35,1342.29 1444.68,1323.62 1525.5,1307C 1557.04,1300.91 1588.7,1295.58 1620.5,1291C 1660.31,1285.73 1699.98,1280.57 1739.5,1275.5 Z"/></g>
<g><path style="opacity:1" fill="#f6e5d7" d="M 1930.5,2527.5 C 1937.99,2527.48 1941.49,2531.15 1941,2538.5C 1939.5,2540 1938,2541.5 1936.5,2543C 1908.1,2558.58 1878.43,2571.25 1847.5,2581C 1789.39,2601.55 1730.06,2617.55 1669.5,2629C 1657.89,2630.7 1646.23,2631.7 1634.5,2632C 1586.53,2634.77 1538.53,2636.1 1490.5,2636C 1420.59,2635.13 1352.59,2623.46 1286.5,2601C 1261.62,2593.07 1238.96,2581.23 1218.5,2565.5C 1218.87,2564.1 1219.7,2563.1 1221,2562.5C 1259.78,2574.2 1298.61,2585.7 1337.5,2597C 1388.45,2608.93 1440.12,2615.26 1492.5,2616C 1569.93,2619.27 1646.6,2613.27 1722.5,2598C 1777.39,2582.15 1832.06,2565.48 1886.5,2548C 1901.62,2541.94 1916.28,2535.11 1930.5,2527.5 Z"/></g>
</svg>
