<?xml version="1.0" encoding="UTF-8"?>
<!DOCTYPE svg PUBLIC "-//W3C//DTD SVG 1.1//EN" "http://www.w3.org/Graphics/SVG/1.1/DTD/svg11.dtd">
<svg xmlns="http://www.w3.org/2000/svg" version="1.1" width="3000px" height="3000px" style="shape-rendering:geometricPrecision; text-rendering:geometricPrecision; image-rendering:optimizeQuality; fill-rule:evenodd; clip-rule:evenodd" xmlns:xlink="http://www.w3.org/1999/xlink">
<g><path style="opacity:0.997" fill="#d1793e" d="M 1212.5,881.5 C 1203.16,888.844 1194.16,896.511 1185.5,904.5C 984.842,649.197 784.175,393.864 583.5,138.5C 592.023,131.476 600.69,124.643 609.5,118C 612.1,118.466 614.266,119.966 616,122.5C 814.842,375.53 1013.68,628.53 1212.5,881.5 Z"/></g>
<g><path style="opacity:0.996" fill="#d1793e" d="M 1526.5,1310.5 C 1517,1303.25 1507.34,1296.25 1497.5,1289.5C 1700.95,1036.87 1904.62,784.374 2108.5,532C 2109.91,531.685 2111.24,532.018 2112.5,533C 2120.33,539.5 2128.17,546 2136,552.5C 2135.6,554.631 2134.6,556.631 2133,558.5C 1930.24,808.752 1728.07,1059.42 1526.5,1310.5 Z"/></g>
<g><path style="opacity:0.997" fill="#ed8c49" d="M 1185.5,904.5 C 1194.16,896.511 1203.16,888.844 1212.5,881.5C 1258.28,854.818 1303.94,854.985 1349.5,882C 1391.44,912.059 1409.94,952.892 1405,1004.5C 1396.36,1055.3 1367.86,1089.46 1319.5,1107C 1267,1121.17 1222.17,1108.67 1185,1069.5C 1154.91,1031.19 1147.57,988.859 1163,942.5C 1168.7,928.662 1176.2,915.996 1185.5,904.5 Z"/></g>
<g><path style="opacity:0.997" fill="#ed8c49" d="M 1497.5,1289.5 C 1507.34,1296.25 1517,1303.25 1526.5,1310.5C 1560.87,1347.98 1571.03,1391.31 1557,1440.5C 1547.38,1467.59 1530.88,1489.26 1507.5,1505.5C 1506.83,1505.5 1506.5,1505.83 1506.5,1506.5C 1498.01,1510.57 1489.35,1514.41 1480.5,1518C 1470.91,1520.98 1461.24,1523.48 1451.5,1525.5C 1392.72,1528.83 1349.89,1504.5 1323,1452.5C 1300.84,1392.63 1313.68,1341.8 1361.5,1300C 1404.82,1270.63 1450.16,1267.13 1497.5,1289.5 Z"/></g>
<g><path style="opacity:0.998" fill="#fb78b4" d="M 2242.5,1436.5 C 2246.47,1441.8 2250.8,1446.8 2255.5,1451.5C 2329.4,1531.64 2403.07,1611.98 2476.5,1692.5C 2453.61,1692.7 2434.78,1701.36 2420,1718.5C 2407.62,1741.14 2411.78,1760.31 2432.5,1776C 2459.2,1792.07 2486.86,1793.74 2515.5,1781C 2524.93,1776.07 2532.59,1769.24 2538.5,1760.5C 2558.13,1782.13 2578.13,1803.47 2598.5,1824.5C 2606.29,1833.46 2614.29,1842.3 2622.5,1851C 2611.51,1846.9 2600.18,1843.56 2588.5,1841C 2573.85,1837.98 2559.18,1837.81 2544.5,1840.5C 2531.81,1842.73 2519.81,1846.73 2508.5,1852.5C 2477.55,1866.93 2451.39,1887.59 2430,1914.5C 2421.26,1904.6 2412.76,1894.6 2404.5,1884.5C 2386.55,1862.04 2368.38,1839.71 2350,1817.5C 2344.97,1811.64 2339.8,1805.97 2334.5,1800.5C 2282.12,1737.46 2230.12,1674.12 2178.5,1610.5C 2164.16,1593.13 2149.82,1575.79 2135.5,1558.5C 2117.56,1535.56 2098.89,1513.22 2079.5,1491.5C 2071.49,1480.83 2062.99,1470.5 2054,1460.5C 2053.33,1459.83 2053.33,1459.17 2054,1458.5C 2073.94,1436.88 2097.44,1420.38 2124.5,1409C 2169.61,1394.28 2208.94,1403.45 2242.5,1436.5 Z"/></g>
<g><path style="opacity:1" fill="#f7e6d6" d="M 2167.5,1411.5 C 2187.4,1409.64 2206.07,1413.48 2223.5,1423C 2244.82,1436.62 2250.65,1455.12 2241,1478.5C 2231.36,1492.45 2218.19,1501.29 2201.5,1505C 2172.88,1512.39 2147.71,1506.22 2126,1486.5C 2108.46,1460.45 2112.96,1438.95 2139.5,1422C 2148.32,1416.79 2157.66,1413.29 2167.5,1411.5 Z"/></g>
<g><path style="opacity:0.998" fill="#ed8c49" d="M 2788.5,1789.5 C 2737.52,1797.27 2686.52,1804.94 2635.5,1812.5C 2635.17,1812.5 2634.83,1812.5 2634.5,1812.5C 2632.8,1812.34 2631.13,1812.51 2629.5,1813C 2627.62,1814.87 2625.45,1816.37 2623,1817.5C 2614.9,1820.14 2606.74,1822.48 2598.5,1824.5C 2578.13,1803.47 2558.13,1782.13 2538.5,1760.5C 2548.07,1738.38 2543.07,1720.21 2523.5,1706C 2515.11,1700.49 2506.11,1696.65 2496.5,1694.5C 2496.94,1694.57 2497.27,1694.4 2497.5,1694C 2417.2,1612.53 2336.53,1531.7 2255.5,1451.5C 2250.8,1446.8 2246.47,1441.8 2242.5,1436.5C 2291.76,1428.49 2341.1,1420.99 2390.5,1414C 2523.67,1538.67 2656.33,1663.83 2788.5,1789.5 Z"/></g>
<g><path style="opacity:0.999" fill="#6429b1" d="M 2055.5,1496.5 C 2073.46,1519.43 2092.13,1541.76 2111.5,1563.5C 2125.82,1581.15 2140.49,1598.49 2155.5,1615.5C 2195.9,1663.23 2235.9,1711.23 2275.5,1759.5C 2251.66,1755.1 2229.99,1759.93 2210.5,1774C 2187.62,1796.27 2187.95,1818.27 2211.5,1840C 2236.26,1855.91 2262.59,1858.91 2290.5,1849C 2306.07,1842.6 2317.07,1831.76 2323.5,1816.5C 2344.15,1841.82 2365.15,1866.82 2386.5,1891.5C 2388.94,1894.21 2391.28,1897.04 2393.5,1900C 2337.16,1901 2287.16,1919 2243.5,1954C 2234.33,1961.83 2225.83,1970.33 2218,1979.5C 2209.97,1969.31 2201.8,1959.31 2193.5,1949.5C 2171.11,1919.36 2147.77,1890.03 2123.5,1861.5C 2070.5,1794.17 2017.5,1726.83 1964.5,1659.5C 1950.21,1640.55 1935.55,1621.88 1920.5,1603.5C 1902.34,1580.53 1884.18,1557.53 1866,1534.5C 1865.33,1533.75 1864.5,1533.41 1863.5,1533.5C 1855.5,1522.2 1847,1511.2 1838,1500.5C 1837.67,1498.95 1838.17,1497.62 1839.5,1496.5C 1861.32,1473.25 1886.99,1455.41 1916.5,1443C 1965.55,1426.46 2006.72,1437.96 2040,1477.5C 2045,1484 2050.17,1490.33 2055.5,1496.5 Z"/></g>
<g><path style="opacity:1" fill="#f6e6d6" d="M 1948.5,1451.5 C 1970.63,1448.62 1990.96,1453.12 2009.5,1465C 2031.95,1483.43 2034.45,1504.27 2017,1527.5C 1998.81,1543.34 1977.64,1549.84 1953.5,1547C 1935.04,1545.52 1919.54,1538.02 1907,1524.5C 1891.38,1499.12 1896.22,1478.29 1921.5,1462C 1930.07,1457.12 1939.07,1453.62 1948.5,1451.5 Z"/></g>
<g><path style="opacity:1" fill="#dd5f1b" d="M 2255.5,1451.5 C 2336.53,1531.7 2417.2,1612.53 2497.5,1694C 2497.27,1694.4 2496.94,1694.57 2496.5,1694.5C 2489.89,1693.44 2483.23,1692.77 2476.5,1692.5C 2403.07,1611.98 2329.4,1531.64 2255.5,1451.5 Z"/></g>
<g><path style="opacity:0.998" fill="#0140c8" d="M 1767.5,1485.5 C 1745.66,1483.71 1725.99,1489.21 1708.5,1502C 1690.58,1519.61 1688.74,1538.78 1703,1559.5C 1721.84,1577.67 1744.34,1584.84 1770.5,1581C 1789.62,1578.83 1805.12,1570.33 1817,1555.5C 1823.83,1544.18 1825.33,1532.18 1821.5,1519.5C 1826.83,1525.83 1832.17,1532.17 1837.5,1538.5C 1842.16,1545.8 1847.33,1552.8 1853,1559.5C 1866.52,1575.9 1880.02,1592.24 1893.5,1608.5C 1908.08,1628.08 1923.41,1647.08 1939.5,1665.5C 1981.5,1718.17 2023.5,1770.83 2065.5,1823.5C 2039.29,1816.7 2015.29,1821.2 1993.5,1837C 1975.11,1853.73 1972.61,1872.56 1986,1893.5C 2003.81,1912.22 2025.64,1920.05 2051.5,1917C 2071.61,1915.2 2088.11,1906.7 2101,1891.5C 2104.24,1886.95 2106.41,1881.95 2107.5,1876.5C 2129.17,1903.17 2150.83,1929.83 2172.5,1956.5C 2181.41,1968.91 2190.91,1980.91 2201,1992.5C 2201.67,1993.17 2201.67,1993.83 2201,1994.5C 2164.09,1983.55 2127.92,1985.72 2092.5,2001C 2063.11,2013.57 2037.11,2031.07 2014.5,2053.5C 2004.4,2040.29 1994.07,2027.29 1983.5,2014.5C 1960.21,1983.21 1936.54,1952.21 1912.5,1921.5C 1858.15,1851.14 1804.15,1780.48 1750.5,1709.5C 1735.19,1688.86 1719.52,1668.52 1703.5,1648.5C 1686.26,1625.05 1668.76,1601.71 1651,1578.5C 1650.18,1577.18 1649.02,1576.51 1647.5,1576.5C 1637.1,1562.05 1626.43,1547.71 1615.5,1533.5C 1655.15,1482.73 1705.82,1466.73 1767.5,1485.5 Z"/></g>
<g><path style="opacity:0.998" fill="#f6e6d6" d="M 1767.5,1485.5 C 1785.59,1486.81 1801.09,1493.81 1814,1506.5C 1817.15,1510.48 1819.65,1514.81 1821.5,1519.5C 1825.33,1532.18 1823.83,1544.18 1817,1555.5C 1805.12,1570.33 1789.62,1578.83 1770.5,1581C 1744.34,1584.84 1721.84,1577.67 1703,1559.5C 1688.74,1538.78 1690.58,1519.61 1708.5,1502C 1725.99,1489.21 1745.66,1483.71 1767.5,1485.5 Z"/></g>
<g><path style="opacity:0.997" fill="#ec8b4b" d="M 2079.5,1491.5 C 2098.89,1513.22 2117.56,1535.56 2135.5,1558.5C 2127.48,1560.17 2119.48,1561.84 2111.5,1563.5C 2092.13,1541.76 2073.46,1519.43 2055.5,1496.5C 2063.43,1494.62 2071.43,1492.95 2079.5,1491.5 Z"/></g>
<g><path style="opacity:0.998" fill="#0495d2" d="M 1507.5,1505.5 C 1533.32,1503.61 1556.99,1509.78 1578.5,1524C 1587.92,1530.75 1596.75,1538.25 1605,1546.5C 1612.66,1557.66 1620.5,1568.66 1628.5,1579.5C 1646.27,1604.05 1664.27,1628.38 1682.5,1652.5C 1696.86,1673.89 1712.19,1694.55 1728.5,1714.5C 1780.45,1786.45 1832.78,1858.11 1885.5,1929.5C 1908.02,1961.23 1931.02,1992.56 1954.5,2023.5C 1962.04,2035.22 1970.2,2046.55 1979,2057.5C 1899.22,2036.14 1832.39,2057.47 1778.5,2121.5C 1770.14,2109.48 1761.81,2097.48 1753.5,2085.5C 1732.23,2051.95 1710.23,2018.95 1687.5,1986.5C 1637.92,1910.25 1587.92,1834.25 1537.5,1758.5C 1523.67,1736.19 1509.34,1714.19 1494.5,1692.5C 1477.98,1666.78 1460.98,1641.45 1443.5,1616.5C 1431.71,1598.43 1420.05,1580.26 1408.5,1562C 1420.91,1547.41 1435.24,1535.25 1451.5,1525.5C 1461.24,1523.48 1470.91,1520.98 1480.5,1518C 1489.35,1514.41 1498.01,1510.57 1506.5,1506.5C 1507.17,1506.5 1507.5,1506.17 1507.5,1505.5 Z"/></g>
<g><path style="opacity:1" fill="#f6e6d6" d="M 1522.5,1525.5 C 1542.32,1523.05 1560.98,1526.55 1578.5,1536C 1601.09,1550.11 1606.93,1569.27 1596,1593.5C 1585.32,1608.27 1570.82,1617.11 1552.5,1620C 1524.13,1625.54 1499.96,1618.04 1480,1597.5C 1465.47,1573.14 1469.97,1552.97 1493.5,1537C 1502.6,1531.47 1512.27,1527.64 1522.5,1525.5 Z"/></g>
<g><path style="opacity:0.997" fill="#eb8b4b" d="M 1863.5,1533.5 C 1864.5,1533.41 1865.33,1533.75 1866,1534.5C 1884.18,1557.53 1902.34,1580.53 1920.5,1603.5C 1911.42,1604.78 1902.42,1606.45 1893.5,1608.5C 1880.02,1592.24 1866.52,1575.9 1853,1559.5C 1847.33,1552.8 1842.16,1545.8 1837.5,1538.5C 1846.29,1537.34 1854.96,1535.67 1863.5,1533.5 Z"/></g>
<g><path style="opacity:0.998" fill="#9fcd3e" d="M 1411.5,1622.5 C 1427.45,1648.44 1443.78,1674.11 1460.5,1699.5C 1474.43,1722.38 1489.1,1744.72 1504.5,1766.5C 1553.47,1843.15 1602.47,1919.82 1651.5,1996.5C 1672.34,2030.18 1693.67,2063.51 1715.5,2096.5C 1724.58,2111.43 1733.92,2126.26 1743.5,2141C 1691.11,2134.34 1641.45,2143.01 1594.5,2167C 1570.39,2180.44 1549.22,2197.6 1531,2218.5C 1519.9,2200.64 1509.07,2182.64 1498.5,2164.5C 1478.01,2130.19 1457.51,2095.86 1437,2061.5C 1436.29,2060.62 1435.46,2059.95 1434.5,2059.5C 1386.19,1978.18 1337.86,1896.85 1289.5,1815.5C 1275.67,1791.16 1261.33,1767.16 1246.5,1743.5C 1231,1716.49 1215,1689.83 1198.5,1663.5C 1186.59,1644.03 1174.93,1624.36 1163.5,1604.5C 1188.55,1573.64 1220.22,1552.81 1258.5,1542C 1291.23,1535.2 1322.23,1539.87 1351.5,1556C 1363.64,1562.82 1374.81,1570.99 1385,1580.5C 1393.66,1594.65 1402.5,1608.65 1411.5,1622.5 Z"/></g>
<g><path style="opacity:1" fill="#f6e6d6" d="M 1305.5,1559.5 C 1324.87,1556.96 1343.2,1560.13 1360.5,1569C 1378.85,1579.2 1387.01,1594.7 1385,1615.5C 1380.02,1631.81 1369.52,1642.98 1353.5,1649C 1325.92,1659.61 1299.59,1657.28 1274.5,1642C 1256.61,1628.66 1251.44,1611.49 1259,1590.5C 1265.38,1579.22 1274.55,1571.06 1286.5,1566C 1292.75,1563.19 1299.08,1561.02 1305.5,1559.5 Z"/></g>
<g><path style="opacity:0.998" fill="#dc5d19" d="M 2135.5,1558.5 C 2149.82,1575.79 2164.16,1593.13 2178.5,1610.5C 2170.79,1612.01 2163.13,1613.68 2155.5,1615.5C 2140.49,1598.49 2125.82,1581.15 2111.5,1563.5C 2119.48,1561.84 2127.48,1560.17 2135.5,1558.5 Z"/></g>
<g><path style="opacity:0.997" fill="#f5cf0b" d="M 1180.5,1667.5 C 1194.93,1694.69 1209.6,1721.69 1224.5,1748.5C 1236.74,1773.32 1249.74,1797.65 1263.5,1821.5C 1308.18,1904.2 1352.85,1986.87 1397.5,2069.5C 1415.72,2105.61 1434.72,2141.27 1454.5,2176.5C 1462.39,2191.94 1470.55,2207.27 1479,2222.5C 1401.75,2193.04 1334.75,2209.37 1278,2271.5C 1273.33,2277.67 1268.49,2283.67 1263.5,2289.5C 1255.14,2274.11 1246.81,2258.78 1238.5,2243.5C 1219.59,2206.02 1199.93,2169.02 1179.5,2132.5C 1134.17,2045.83 1088.83,1959.17 1043.5,1872.5C 1030.34,1846.18 1016.67,1820.18 1002.5,1794.5C 988.072,1766.64 973.405,1738.97 958.5,1711.5C 946.179,1688.19 933.846,1664.86 921.5,1641.5C 947.878,1608.29 981.545,1586.13 1022.5,1575C 1059.55,1567.94 1093.88,1574.61 1125.5,1595C 1134.95,1601.45 1144.12,1608.28 1153,1615.5C 1162.45,1632.73 1171.61,1650.06 1180.5,1667.5 Z"/></g>
<g><path style="opacity:0.997" fill="#ea8b4b" d="M 1647.5,1576.5 C 1649.02,1576.51 1650.18,1577.18 1651,1578.5C 1668.76,1601.71 1686.26,1625.05 1703.5,1648.5C 1696.4,1649.36 1689.4,1650.69 1682.5,1652.5C 1664.27,1628.38 1646.27,1604.05 1628.5,1579.5C 1634.81,1578.37 1641.15,1577.37 1647.5,1576.5 Z"/></g>
<g><path style="opacity:0.998" fill="#db5d19" d="M 1920.5,1603.5 C 1935.55,1621.88 1950.21,1640.55 1964.5,1659.5C 1956.22,1661.65 1947.89,1663.65 1939.5,1665.5C 1923.41,1647.08 1908.08,1628.08 1893.5,1608.5C 1902.42,1606.45 1911.42,1604.78 1920.5,1603.5 Z"/></g>
<g><path style="opacity:1" fill="#f7e6d6" d="M 1057.5,1610.5 C 1077.85,1608.74 1096.85,1612.9 1114.5,1623C 1138.76,1641.12 1141.93,1662.29 1124,1686.5C 1104.29,1703.51 1081.46,1710.01 1055.5,1706C 1037.13,1702.91 1022.3,1694.07 1011,1679.5C 1000.52,1659.58 1003.69,1642.08 1020.5,1627C 1031.56,1618.49 1043.89,1612.99 1057.5,1610.5 Z"/></g>
<g><path style="opacity:0.999" fill="#f44505" d="M 921.5,1718.5 C 935.244,1746.32 949.244,1773.99 963.5,1801.5C 976.673,1828.51 990.339,1855.18 1004.5,1881.5C 1049.1,1969.04 1093.44,2056.7 1137.5,2144.5C 1155.99,2182.15 1174.99,2219.49 1194.5,2256.5C 1200.83,2270.67 1207.83,2284.5 1215.5,2298C 1128.05,2276.59 1057.88,2302.09 1005,2374.5C 996.136,2356.77 987.303,2339.11 978.5,2321.5C 960.072,2282.98 941.406,2244.65 922.5,2206.5C 877.894,2114.96 833.561,2023.29 789.5,1931.5C 776.396,1902.83 762.729,1874.5 748.5,1846.5C 734.993,1817.49 720.993,1788.82 706.5,1760.5C 694.12,1734.07 681.453,1707.74 668.5,1681.5C 688.354,1654.48 713.687,1634.32 744.5,1621C 787.083,1605.33 827.083,1610.33 864.5,1636C 873.623,1642.79 882.456,1649.95 891,1657.5C 901.193,1677.89 911.36,1698.22 921.5,1718.5 Z"/></g>
<g><path style="opacity:0.997" fill="#ec8c4a" d="M 1443.5,1616.5 C 1460.98,1641.45 1477.98,1666.78 1494.5,1692.5C 1491.81,1692.34 1489.15,1692.5 1486.5,1693C 1477.56,1694.65 1468.89,1696.81 1460.5,1699.5C 1443.78,1674.11 1427.45,1648.44 1411.5,1622.5C 1422.09,1620.12 1432.76,1618.12 1443.5,1616.5 Z"/></g>
<g><path style="opacity:1" fill="#f7e6d5" d="M 815.5,1638.5 C 836.763,1636.87 856.096,1642.04 873.5,1654C 892.397,1670.23 895.563,1689.06 883,1710.5C 869.506,1725.34 852.673,1733.51 832.5,1735C 812.76,1736.9 794.76,1732.23 778.5,1721C 758.204,1704.19 755.037,1684.69 769,1662.5C 781.74,1649.09 797.24,1641.09 815.5,1638.5 Z"/></g>
<g><path style="opacity:0.998" fill="#e70502" d="M 671.5,1766.5 C 683.577,1796.06 696.243,1825.39 709.5,1854.5C 722.004,1883.5 735.004,1912.17 748.5,1940.5C 789.322,2034.14 830.656,2127.47 872.5,2220.5C 889.054,2260.49 906.387,2300.16 924.5,2339.5C 934.966,2363.55 945.632,2387.55 956.5,2411.5C 871.562,2379.91 798.062,2397.24 736,2463.5C 729.992,2471 723.825,2478.34 717.5,2485.5C 707.632,2461.23 697.966,2436.89 688.5,2412.5C 672.734,2370.52 656.4,2328.85 639.5,2287.5C 601.5,2189.17 563.5,2090.83 525.5,1992.5C 513.729,1961.31 501.729,1930.31 489.5,1899.5C 477.832,1869.5 466.165,1839.5 454.5,1809.5C 443.91,1782.9 433.41,1756.23 423,1729.5C 421.85,1727.25 421.516,1724.91 422,1722.5C 441.907,1695.26 466.74,1673.76 496.5,1658C 532.494,1641.61 567.827,1642.95 602.5,1662C 614.655,1669.17 625.822,1677.67 636,1687.5C 647.334,1714.16 659.168,1740.49 671.5,1766.5 Z"/></g>
<g><path style="opacity:0.999" fill="#db5e19" d="M 1703.5,1648.5 C 1719.52,1668.52 1735.19,1688.86 1750.5,1709.5C 1743.07,1710.86 1735.74,1712.52 1728.5,1714.5C 1712.19,1694.55 1696.86,1673.89 1682.5,1652.5C 1689.4,1650.69 1696.4,1649.36 1703.5,1648.5 Z"/></g>
<g><path style="opacity:0.998" fill="#ec8c49" d="M 1198.5,1663.5 C 1215,1689.83 1231,1716.49 1246.5,1743.5C 1238.88,1744.42 1231.55,1746.09 1224.5,1748.5C 1209.6,1721.69 1194.93,1694.69 1180.5,1667.5C 1186.69,1666.53 1192.69,1665.2 1198.5,1663.5 Z"/></g>
<g><path style="opacity:0.997" fill="#dc5e17" d="M 1494.5,1692.5 C 1509.34,1714.19 1523.67,1736.19 1537.5,1758.5C 1526.28,1760.72 1515.28,1763.39 1504.5,1766.5C 1489.1,1744.72 1474.43,1722.38 1460.5,1699.5C 1468.89,1696.81 1477.56,1694.65 1486.5,1693C 1489.15,1692.5 1491.81,1692.34 1494.5,1692.5 Z"/></g>
<g><path style="opacity:1" fill="#f7e6d6" d="M 2476.5,1692.5 C 2483.23,1692.77 2489.89,1693.44 2496.5,1694.5C 2506.11,1696.65 2515.11,1700.49 2523.5,1706C 2543.07,1720.21 2548.07,1738.38 2538.5,1760.5C 2532.59,1769.24 2524.93,1776.07 2515.5,1781C 2486.86,1793.74 2459.2,1792.07 2432.5,1776C 2411.78,1760.31 2407.62,1741.14 2420,1718.5C 2434.78,1701.36 2453.61,1692.7 2476.5,1692.5 Z"/></g>
<g><path style="opacity:1" fill="#f7e6d6" d="M 558.5,1701.5 C 579.039,1699.71 598.039,1704.21 615.5,1715C 634.599,1728.96 639.432,1746.8 630,1768.5C 620.062,1782.75 606.562,1791.92 589.5,1796C 564.323,1801.43 541.323,1796.76 520.5,1782C 502.772,1765.71 499.939,1747.21 512,1726.5C 524.3,1712.23 539.8,1703.9 558.5,1701.5 Z"/></g>
<g><path style="opacity:0.997" fill="#ed8c49" d="M 958.5,1711.5 C 973.405,1738.97 988.072,1766.64 1002.5,1794.5C 989.473,1796.71 976.473,1799.04 963.5,1801.5C 949.244,1773.99 935.244,1746.32 921.5,1718.5C 933.683,1715.53 946.017,1713.2 958.5,1711.5 Z"/></g>
<g><path style="opacity:0.997" fill="#dc5f17" d="M 1246.5,1743.5 C 1261.33,1767.16 1275.67,1791.16 1289.5,1815.5C 1280.93,1817.81 1272.26,1819.81 1263.5,1821.5C 1249.74,1797.65 1236.74,1773.32 1224.5,1748.5C 1231.55,1746.09 1238.88,1744.42 1246.5,1743.5 Z"/></g>
<g><path style="opacity:0.998" fill="#ed8b49" d="M 454.5,1809.5 C 466.165,1839.5 477.832,1869.5 489.5,1899.5C 469.844,1904.58 449.844,1909.08 429.5,1913C 428.572,1913.39 427.905,1914.05 427.5,1915C 437.518,1946.23 448.185,1977.06 459.5,2007.5C 492.565,2108.7 526.232,2209.7 560.5,2310.5C 586.787,2302.63 613.12,2294.96 639.5,2287.5C 656.4,2328.85 672.734,2370.52 688.5,2412.5C 659.547,2420.71 630.881,2429.71 602.5,2439.5C 611.705,2466.45 620.705,2493.45 629.5,2520.5C 566.747,2531.4 504.08,2542.74 441.5,2554.5C 364.212,2296.04 287.212,2037.37 210.5,1778.5C 265.009,1768.97 319.676,1760.3 374.5,1752.5C 381.426,1774.95 388.759,1797.28 396.5,1819.5C 397.167,1819.83 397.833,1820.17 398.5,1820.5C 417.178,1816.83 435.845,1813.16 454.5,1809.5 Z"/></g>
<g><path style="opacity:0.999" fill="#f6e6d6" d="M 2275.5,1759.5 C 2297.75,1762.6 2313.59,1774.27 2323,1794.5C 2323.95,1797.43 2324.45,1800.43 2324.5,1803.5C 2324.53,1807.87 2324.2,1812.2 2323.5,1816.5C 2317.07,1831.76 2306.07,1842.6 2290.5,1849C 2262.59,1858.91 2236.26,1855.91 2211.5,1840C 2187.95,1818.27 2187.62,1796.27 2210.5,1774C 2229.99,1759.93 2251.66,1755.1 2275.5,1759.5 Z"/></g>
<g><path style="opacity:0.998" fill="#ed8b49" d="M 706.5,1760.5 C 720.993,1788.82 734.993,1817.49 748.5,1846.5C 735.674,1849.4 722.674,1852.07 709.5,1854.5C 696.243,1825.39 683.577,1796.06 671.5,1766.5C 683.165,1764.5 694.832,1762.5 706.5,1760.5 Z"/></g>
<g><path style="opacity:0.998" fill="#dc5e17" d="M 2788.5,1789.5 C 2778.34,1839.95 2767.68,1890.29 2756.5,1940.5C 2717.44,1948.91 2678.44,1956.25 2639.5,1962.5C 2638.47,1944.48 2637.13,1926.48 2635.5,1908.5C 2621.49,1912.56 2607.49,1916.73 2593.5,1921C 2592.24,1921.42 2591.58,1922.25 2591.5,1923.5C 2590.88,1923.39 2590.38,1923.06 2590,1922.5C 1936.66,2122.34 1283.16,2321.67 629.5,2520.5C 620.705,2493.45 611.705,2466.45 602.5,2439.5C 630.881,2429.71 659.547,2420.71 688.5,2412.5C 697.966,2436.89 707.632,2461.23 717.5,2485.5C 723.825,2478.34 729.992,2471 736,2463.5C 798.062,2397.24 871.562,2379.91 956.5,2411.5C 945.632,2387.55 934.966,2363.55 924.5,2339.5C 941.005,2334.58 957.505,2329.58 974,2324.5C 976.185,2324.3 977.685,2323.3 978.5,2321.5C 987.303,2339.11 996.136,2356.77 1005,2374.5C 1057.88,2302.09 1128.05,2276.59 1215.5,2298C 1207.83,2284.5 1200.83,2270.67 1194.5,2256.5C 1209.05,2251.76 1223.72,2247.43 1238.5,2243.5C 1246.81,2258.78 1255.14,2274.11 1263.5,2289.5C 1268.49,2283.67 1273.33,2277.67 1278,2271.5C 1334.75,2209.37 1401.75,2193.04 1479,2222.5C 1470.55,2207.27 1462.39,2191.94 1454.5,2176.5C 1469.02,2171.87 1483.68,2167.87 1498.5,2164.5C 1509.07,2182.64 1519.9,2200.64 1531,2218.5C 1549.22,2197.6 1570.39,2180.44 1594.5,2167C 1641.45,2143.01 1691.11,2134.34 1743.5,2141C 1733.92,2126.26 1724.58,2111.43 1715.5,2096.5C 1728.06,2092.43 1740.72,2088.76 1753.5,2085.5C 1761.81,2097.48 1770.14,2109.48 1778.5,2121.5C 1832.39,2057.47 1899.22,2036.14 1979,2057.5C 1970.2,2046.55 1962.04,2035.22 1954.5,2023.5C 1963.89,2019.93 1973.56,2016.93 1983.5,2014.5C 1994.07,2027.29 2004.4,2040.29 2014.5,2053.5C 2037.11,2031.07 2063.11,2013.57 2092.5,2001C 2127.92,1985.72 2164.09,1983.55 2201,1994.5C 2201.67,1993.83 2201.67,1993.17 2201,1992.5C 2190.91,1980.91 2181.41,1968.91 2172.5,1956.5C 2179.34,1954 2186.34,1951.66 2193.5,1949.5C 2201.8,1959.31 2209.97,1969.31 2218,1979.5C 2225.83,1970.33 2234.33,1961.83 2243.5,1954C 2287.16,1919 2337.16,1901 2393.5,1900C 2391.28,1897.04 2388.94,1894.21 2386.5,1891.5C 2386.61,1890.88 2386.94,1890.38 2387.5,1890C 2393.33,1888.3 2399,1886.47 2404.5,1884.5C 2412.76,1894.6 2421.26,1904.6 2430,1914.5C 2451.39,1887.59 2477.55,1866.93 2508.5,1852.5C 2519.38,1849.19 2530.38,1846.03 2541.5,1843C 2542.94,1842.62 2543.94,1841.79 2544.5,1840.5C 2559.18,1837.81 2573.85,1837.98 2588.5,1841C 2600.18,1843.56 2611.51,1846.9 2622.5,1851C 2614.29,1842.3 2606.29,1833.46 2598.5,1824.5C 2606.74,1822.48 2614.9,1820.14 2623,1817.5C 2625.45,1816.37 2627.62,1814.87 2629.5,1813C 2631.13,1812.51 2632.8,1812.34 2634.5,1812.5C 2634.83,1813.83 2635.17,1813.83 2635.5,1812.5C 2686.52,1804.94 2737.52,1797.27 2788.5,1789.5 Z"/></g>
<g><path style="opacity:0.998" fill="#dd5e17" d="M 1002.5,1794.5 C 1016.67,1820.18 1030.34,1846.18 1043.5,1872.5C 1030.54,1875.66 1017.54,1878.66 1004.5,1881.5C 990.339,1855.18 976.673,1828.51 963.5,1801.5C 976.473,1799.04 989.473,1796.71 1002.5,1794.5 Z"/></g>
<g><path style="opacity:0.998" fill="#ec8b4b" d="M 2334.5,1800.5 C 2339.8,1805.97 2344.97,1811.64 2350,1817.5C 2368.38,1839.71 2386.55,1862.04 2404.5,1884.5C 2399,1886.47 2393.33,1888.3 2387.5,1890C 2386.94,1890.38 2386.61,1890.88 2386.5,1891.5C 2365.15,1866.82 2344.15,1841.82 2323.5,1816.5C 2324.2,1812.2 2324.53,1807.87 2324.5,1803.5C 2327.85,1802.5 2331.18,1801.5 2334.5,1800.5 Z"/></g>
<g><path style="opacity:0.999" fill="#f5e6d6" d="M 2065.5,1823.5 C 2085.26,1827.77 2099.09,1839.11 2107,1857.5C 2107.82,1860.12 2108.32,1862.78 2108.5,1865.5C 2108.68,1869.23 2108.34,1872.9 2107.5,1876.5C 2106.41,1881.95 2104.24,1886.95 2101,1891.5C 2088.11,1906.7 2071.61,1915.2 2051.5,1917C 2025.64,1920.05 2003.81,1912.22 1986,1893.5C 1972.61,1872.56 1975.11,1853.73 1993.5,1837C 2015.29,1821.2 2039.29,1816.7 2065.5,1823.5 Z"/></g>
<g><path style="opacity:1" fill="#ed8850" d="M 2544.5,1840.5 C 2543.94,1841.79 2542.94,1842.62 2541.5,1843C 2530.38,1846.03 2519.38,1849.19 2508.5,1852.5C 2519.81,1846.73 2531.81,1842.73 2544.5,1840.5 Z"/></g>
<g><path style="opacity:0.998" fill="#dd5d17" d="M 748.5,1846.5 C 762.729,1874.5 776.396,1902.83 789.5,1931.5C 775.862,1934.63 762.195,1937.63 748.5,1940.5C 735.004,1912.17 722.004,1883.5 709.5,1854.5C 722.674,1852.07 735.674,1849.4 748.5,1846.5 Z"/></g>
<g><path style="opacity:0.998" fill="#eb8b4b" d="M 2123.5,1861.5 C 2147.77,1890.03 2171.11,1919.36 2193.5,1949.5C 2186.34,1951.66 2179.34,1954 2172.5,1956.5C 2150.83,1929.83 2129.17,1903.17 2107.5,1876.5C 2108.34,1872.9 2108.68,1869.23 2108.5,1865.5C 2113.46,1864.01 2118.46,1862.68 2123.5,1861.5 Z"/></g>
<g><path style="opacity:1" fill="#f6e6d6" d="M 1798.5,1895.5 C 1819.36,1892.63 1839.02,1896.13 1857.5,1906C 1880.67,1920.54 1886.17,1940.04 1874,1964.5C 1860.2,1981.15 1842.37,1989.98 1820.5,1991C 1795.63,1992.98 1774.8,1984.81 1758,1966.5C 1748.88,1952.2 1748.22,1937.53 1756,1922.5C 1760.5,1916.67 1765.67,1911.5 1771.5,1907C 1780.12,1902.02 1789.12,1898.18 1798.5,1895.5 Z"/></g>
<g><path style="opacity:0.998" fill="#dd5e17" d="M 489.5,1899.5 C 501.729,1930.31 513.729,1961.31 525.5,1992.5C 503.502,1997.5 481.502,2002.5 459.5,2007.5C 448.185,1977.06 437.518,1946.23 427.5,1915C 427.905,1914.05 428.572,1913.39 429.5,1913C 449.844,1909.08 469.844,1904.58 489.5,1899.5 Z"/></g>
<g><path style="opacity:0.997" fill="#bc4b12" d="M 2639.5,1962.5 C 2623.16,1949.99 2607.16,1936.99 2591.5,1923.5C 2591.58,1922.25 2592.24,1921.42 2593.5,1921C 2607.49,1916.73 2621.49,1912.56 2635.5,1908.5C 2637.13,1926.48 2638.47,1944.48 2639.5,1962.5 Z"/></g>
<g><path style="opacity:0.998" fill="#eb8b4a" d="M 1912.5,1921.5 C 1936.54,1952.21 1960.21,1983.21 1983.5,2014.5C 1973.56,2016.93 1963.89,2019.93 1954.5,2023.5C 1931.02,1992.56 1908.02,1961.23 1885.5,1929.5C 1894.71,1927.2 1903.71,1924.54 1912.5,1921.5 Z"/></g>
<g><path style="opacity:1" fill="#f6e6d6" d="M 1555.5,1946.5 C 1575.6,1944.29 1594.6,1947.79 1612.5,1957C 1636.35,1971.87 1641.85,1991.7 1629,2016.5C 1615.85,2031.99 1599.02,2040.49 1578.5,2042C 1553.03,2044.77 1531.53,2036.93 1514,2018.5C 1499.05,1991.33 1505.22,1970.16 1532.5,1955C 1540.12,1951.69 1547.78,1948.86 1555.5,1946.5 Z"/></g>
<g><path style="opacity:0.998" fill="#ec8c4a" d="M 1687.5,1986.5 C 1710.23,2018.95 1732.23,2051.95 1753.5,2085.5C 1740.72,2088.76 1728.06,2092.43 1715.5,2096.5C 1693.67,2063.51 1672.34,2030.18 1651.5,1996.5C 1663.59,1993.48 1675.59,1990.14 1687.5,1986.5 Z"/></g>
<g><path style="opacity:1" fill="#f7e6d6" d="M 1293.5,2025.5 C 1314.69,2024.13 1334.03,2029.3 1351.5,2041C 1371.62,2058.9 1373.79,2078.73 1358,2100.5C 1337.87,2118.43 1314.37,2125.26 1287.5,2121C 1268.59,2117.64 1253.75,2108.14 1243,2092.5C 1233.97,2071.59 1238.47,2054.09 1256.5,2040C 1267.79,2032.35 1280.12,2027.52 1293.5,2025.5 Z"/></g>
<g><path style="opacity:0.998" fill="#ec8c49" d="M 1434.5,2059.5 C 1435.46,2059.95 1436.29,2060.62 1437,2061.5C 1457.51,2095.86 1478.01,2130.19 1498.5,2164.5C 1483.68,2167.87 1469.02,2171.87 1454.5,2176.5C 1434.72,2141.27 1415.72,2105.61 1397.5,2069.5C 1409.83,2066.17 1422.17,2062.83 1434.5,2059.5 Z"/></g>
<g><path style="opacity:1" fill="#f7e6d5" d="M 1031.5,2110.5 C 1052.12,2109.24 1071.12,2114.07 1088.5,2125C 1108.09,2140.69 1111.92,2159.53 1100,2181.5C 1086.84,2197 1070.01,2205.5 1049.5,2207C 1029.41,2209.06 1011.08,2204.39 994.5,2193C 973.805,2175.65 970.971,2155.81 986,2133.5C 998.725,2120.89 1013.89,2113.22 1031.5,2110.5 Z"/></g>
<g><path style="opacity:0.998" fill="#ed8c49" d="M 1179.5,2132.5 C 1199.93,2169.02 1219.59,2206.02 1238.5,2243.5C 1223.72,2247.43 1209.05,2251.76 1194.5,2256.5C 1174.99,2219.49 1155.99,2182.15 1137.5,2144.5C 1151.5,2140.5 1165.5,2136.5 1179.5,2132.5 Z"/></g>
<g><path style="opacity:1" fill="#f7e6d6" d="M 754.5,2179.5 C 774.259,2177.42 792.926,2180.92 810.5,2190C 832.506,2203.68 838.672,2222.52 829,2246.5C 818.603,2261.29 804.436,2270.46 786.5,2274C 764.836,2278.53 744.503,2275.2 725.5,2264C 700.838,2246.53 697.005,2225.37 714,2200.5C 725.704,2189.9 739.204,2182.9 754.5,2179.5 Z"/></g>
<g><path style="opacity:0.998" fill="#ed8b49" d="M 922.5,2206.5 C 941.406,2244.65 960.072,2282.98 978.5,2321.5C 977.685,2323.3 976.185,2324.3 974,2324.5C 957.505,2329.58 941.005,2334.58 924.5,2339.5C 906.387,2300.16 889.054,2260.49 872.5,2220.5C 889.109,2215.63 905.776,2210.96 922.5,2206.5 Z"/></g>
<g><path style="opacity:0.997" fill="#dd5e17" d="M 629.5,2520.5 C 638.546,2569.07 647.212,2617.73 655.5,2666.5C 600.883,2677.76 546.216,2688.76 491.5,2699.5C 474.839,2651.18 458.172,2602.85 441.5,2554.5C 504.08,2542.74 566.747,2531.4 629.5,2520.5 Z"/></g>
</svg>
