<?xml version="1.0" encoding="UTF-8"?>
<!DOCTYPE svg PUBLIC "-//W3C//DTD SVG 1.1//EN" "http://www.w3.org/Graphics/SVG/1.1/DTD/svg11.dtd">
<svg xmlns="http://www.w3.org/2000/svg" version="1.1" width="3000px" height="3000px" style="shape-rendering:geometricPrecision; text-rendering:geometricPrecision; image-rendering:optimizeQuality; fill-rule:evenodd; clip-rule:evenodd" xmlns:xlink="http://www.w3.org/1999/xlink">
<g><path style="opacity:1" fill="#fdd34b" d="M 2434.5,549.5 C 2414.9,543.083 2395.24,542.917 2375.5,549C 2342.15,561.007 2314.32,580.84 2292,608.5C 2248.29,666.756 2204.45,724.923 2160.5,783C 2228.28,823.552 2296.61,863.052 2365.5,901.5C 2432.66,940.581 2499.66,979.914 2566.5,1019.5C 2517.43,997.825 2466.43,991.825 2413.5,1001.5C 2366.25,1010.63 2321.59,1026.79 2279.5,1050C 2228.91,1078.59 2182.24,1112.59 2139.5,1152C 2123.33,1168.17 2107.17,1184.33 2091,1200.5C 1740.3,1572.7 1389.47,1944.7 1038.5,2316.5C 769.238,2160.42 500.072,2004.09 231,1847.5C 230.601,1847.73 230.435,1848.06 230.5,1848.5C 229.475,1848.1 229.308,1847.44 230,1846.5C 239.899,1836.36 249.565,1826.02 259,1815.5C 606.12,1448.59 952.787,1081.26 1299,713.5C 1346.34,665.625 1398.51,624.125 1455.5,589C 1497.46,564.354 1542.13,546.354 1589.5,535C 1632.53,525.109 1675.53,525.109 1718.5,535C 1737.4,540.116 1755.4,547.449 1772.5,557C 1884.37,622.366 1996.37,687.533 2108.5,752.5C 2152.16,695.333 2195.66,637.999 2239,580.5C 2258.21,557.483 2281.38,539.65 2308.5,527C 2333.17,515.878 2358.17,514.878 2383.5,524C 2400.59,532.546 2417.59,541.046 2434.5,549.5 Z"/></g>
<g><path style="opacity:0.996" fill="#f1bb34" d="M 2434.5,549.5 C 2458.82,560.662 2475.32,578.996 2484,604.5C 2493.21,634.819 2494.55,665.485 2488,696.5C 2480.34,734.141 2465.34,768.475 2443,799.5C 2417.39,833.748 2391.56,867.748 2365.5,901.5C 2296.61,863.052 2228.28,823.552 2160.5,783C 2204.45,724.923 2248.29,666.756 2292,608.5C 2314.32,580.84 2342.15,561.007 2375.5,549C 2395.24,542.917 2414.9,543.083 2434.5,549.5 Z M 2378.5,607.5 C 2386.14,621.57 2389.81,636.736 2389.5,653C 2387.39,698.359 2370.39,737.026 2338.5,769C 2325.34,781.584 2310.01,790.584 2292.5,796C 2289.57,796.953 2286.57,797.453 2283.5,797.5C 2273.26,775.117 2270.42,751.784 2275,727.5C 2282.89,688.202 2301.72,655.369 2331.5,629C 2345.14,617.515 2360.81,610.348 2378.5,607.5 Z"/></g>
<g><path style="opacity:0.996" fill="#fdd34b" d="M 2378.5,607.5 C 2407.85,604.782 2427.68,617.449 2438,645.5C 2445.25,670.877 2444.92,696.21 2437,721.5C 2426.5,755.971 2407.33,784.471 2379.5,807C 2361.08,821.031 2340.42,826.697 2317.5,824C 2302.44,819.759 2291.11,810.925 2283.5,797.5C 2286.57,797.453 2289.57,796.953 2292.5,796C 2310.01,790.584 2325.34,781.584 2338.5,769C 2370.39,737.026 2387.39,698.359 2389.5,653C 2389.81,636.736 2386.14,621.57 2378.5,607.5 Z"/></g>
<g><path style="opacity:0.999" fill="#f1bb33" d="M 2566.5,1019.5 C 2603.3,1038 2632.8,1064.67 2655,1099.5C 2683.04,1145.96 2699.71,1196.29 2705,1250.5C 2711.47,1318.1 2707.47,1385.1 2693,1451.5C 2649.6,1640.03 2561.6,1803.69 2429,1942.5C 2377.73,1995.35 2320.23,2039.85 2256.5,2076C 2203.52,2105.44 2146.86,2122.77 2086.5,2128C 2034.11,2131.41 1986.11,2118.91 1942.5,2090.5C 1916.68,2071.17 1895.18,2047.84 1878,2020.5C 1871.29,2008.38 1864.96,1996.05 1859,1983.5C 1843.65,1994.03 1828.49,2004.7 1813.5,2015.5C 1582.12,2174.28 1350.62,2332.95 1119,2491.5C 1118.6,2491.27 1118.43,2490.94 1118.5,2490.5C 1091.63,2432.55 1064.97,2374.55 1038.5,2316.5C 1389.47,1944.7 1740.3,1572.7 2091,1200.5C 2107.17,1184.33 2123.33,1168.17 2139.5,1152C 2182.24,1112.59 2228.91,1078.59 2279.5,1050C 2321.59,1026.79 2366.25,1010.63 2413.5,1001.5C 2466.43,991.825 2517.43,997.825 2566.5,1019.5 Z"/></g>
<g><path style="opacity:1" fill="#f8c73a" d="M 1131.5,1067.5 C 1131.56,1066.96 1131.89,1066.62 1132.5,1066.5C 1330.83,1181.67 1529.17,1296.83 1727.5,1412C 1715.63,1424.7 1703.63,1437.2 1691.5,1449.5C 1507.53,1342.85 1323.53,1236.18 1139.5,1129.5C 1137.09,1108.67 1134.43,1088 1131.5,1067.5 Z"/></g>
<g><path style="opacity:1" fill="#f1bb34" d="M 1131.5,1067.5 C 1134.43,1088 1137.09,1108.67 1139.5,1129.5C 1096.57,1175.93 1053.07,1221.93 1009,1267.5C 1006.92,1270.07 1005.09,1272.73 1003.5,1275.5C 990.359,1267.43 977.025,1259.59 963.5,1252C 961.388,1251.09 960.555,1249.59 961,1247.5C 1017.7,1187.3 1074.53,1127.3 1131.5,1067.5 Z"/></g>
<g><path style="opacity:1" fill="#e2ac2f" d="M 2394.5,1128.5 C 2478.93,1122.28 2539.43,1156.94 2576,1232.5C 2591.61,1268.87 2599.94,1306.87 2601,1346.5C 2602.78,1400.79 2596.45,1454.12 2582,1506.5C 2539.98,1656.45 2461.15,1782.95 2345.5,1886C 2322.4,1905.05 2298.06,1922.39 2272.5,1938C 2230.83,1963.22 2185.83,1978.89 2137.5,1985C 2051.53,1989.12 1991.36,1951.95 1957,1873.5C 1941.29,1833.52 1934.12,1792.02 1935.5,1749C 1935.71,1695.75 1943.21,1643.59 1958,1592.5C 2000.82,1451.62 2076.32,1331.79 2184.5,1233C 2213.22,1208.61 2243.89,1186.95 2276.5,1168C 2313.59,1147.69 2352.93,1134.52 2394.5,1128.5 Z"/></g>
<g><path style="opacity:1" fill="#e2ac2f" d="M 1139.5,1129.5 C 1323.53,1236.18 1507.53,1342.85 1691.5,1449.5C 1650.54,1493.63 1609.37,1537.63 1568,1581.5C 1563.62,1586.21 1558.96,1590.55 1554,1594.5C 1370.41,1488.29 1186.91,1381.95 1003.5,1275.5C 1005.09,1272.73 1006.92,1270.07 1009,1267.5C 1053.07,1221.93 1096.57,1175.93 1139.5,1129.5 Z"/></g>
<g><path style="opacity:1" fill="#f0ba33" d="M 2390.5,1185.5 C 2461.06,1183.19 2509.23,1214.86 2535,1280.5C 2548.44,1320.07 2553.77,1360.73 2551,1402.5C 2545.69,1469.14 2529.69,1533.14 2503,1594.5C 2464.2,1684.61 2409.03,1763.11 2337.5,1830C 2301.4,1862.75 2261.07,1889.08 2216.5,1909C 2193.58,1918.09 2169.91,1924.09 2145.5,1927C 2078.23,1930.28 2031.06,1901.12 2004,1839.5C 1987.28,1794.66 1981.28,1748.33 1986,1700.5C 1991.96,1637.6 2007.62,1577.27 2033,1519.5C 2074.57,1421.93 2135.41,1338.43 2215.5,1269C 2252.3,1238.09 2293.3,1214.09 2338.5,1197C 2347.15,1194.54 2355.81,1192.2 2364.5,1190C 2373.41,1189.02 2382.08,1187.52 2390.5,1185.5 Z"/></g>
<g><path style="opacity:0.996" fill="#f9c839" d="M 1038.5,2316.5 C 1064.97,2374.55 1091.63,2432.55 1118.5,2490.5C 1109.41,2485.92 1100.41,2481.09 1091.5,2476C 831.63,2324.63 571.63,2173.47 311.5,2022.5C 283.958,1964.75 256.958,1906.75 230.5,1848.5C 230.435,1848.06 230.601,1847.73 231,1847.5C 500.072,2004.09 769.238,2160.42 1038.5,2316.5 Z"/></g>
<g><path style="opacity:1" fill="#f1bb34" d="M 339.5,1938.5 C 338.957,1938.56 338.624,1938.89 338.5,1939.5C 345.439,1953.04 352.105,1966.71 358.5,1980.5C 358.376,1981.11 358.043,1981.44 357.5,1981.5C 356.448,1981.35 355.448,1981.52 354.5,1982C 347.27,1989.06 340.27,1996.23 333.5,2003.5C 331.19,2000.9 329.357,1997.9 328,1994.5C 314.251,1965.21 300.918,1935.87 288,1906.5C 302.921,1915.71 318.087,1924.55 333.5,1933C 336.023,1934.36 338.023,1936.19 339.5,1938.5 Z"/></g>
<g><path style="opacity:1" fill="#e2ac2f" d="M 339.5,1938.5 C 565.806,2069.99 792.139,2201.49 1018.5,2333C 1026.02,2347.88 1033.35,2362.88 1040.5,2378C 1040.27,2378.4 1039.94,2378.57 1039.5,2378.5C 811.803,2246.66 584.47,2114.32 357.5,1981.5C 358.043,1981.44 358.376,1981.11 358.5,1980.5C 352.105,1966.71 345.439,1953.04 338.5,1939.5C 338.624,1938.89 338.957,1938.56 339.5,1938.5 Z"/></g>
<g><path style="opacity:1" fill="#fdd34b" d="M 357.5,1981.5 C 584.47,2114.32 811.803,2246.66 1039.5,2378.5C 1040.47,2379.31 1041.3,2380.31 1042,2381.5C 1047.43,2395.8 1052.43,2410.14 1057,2424.5C 816.085,2284.96 575.251,2145.29 334.5,2005.5C 333.702,2005.04 333.369,2004.38 333.5,2003.5C 340.27,1996.23 347.27,1989.06 354.5,1982C 355.448,1981.52 356.448,1981.35 357.5,1981.5 Z"/></g>
<g><path style="opacity:0.982" fill="#e2ac2e" d="M 1942.5,2090.5 C 1899,2066.25 1856,2041.25 1813.5,2015.5C 1828.49,2004.7 1843.65,1994.03 1859,1983.5C 1864.96,1996.05 1871.29,2008.38 1878,2020.5C 1895.18,2047.84 1916.68,2071.17 1942.5,2090.5 Z"/></g>
</svg>
