<?xml version="1.0" encoding="UTF-8"?>
<!DOCTYPE svg PUBLIC "-//W3C//DTD SVG 1.1//EN" "http://www.w3.org/Graphics/SVG/1.1/DTD/svg11.dtd">
<svg xmlns="http://www.w3.org/2000/svg" version="1.1" width="3000px" height="3000px" style="shape-rendering:geometricPrecision; text-rendering:geometricPrecision; image-rendering:optimizeQuality; fill-rule:evenodd; clip-rule:evenodd" xmlns:xlink="http://www.w3.org/1999/xlink">
<g><path style="opacity:0.999" fill="#c0684e" d="M 1335.5,408.5 C 1198.19,545.479 1060.85,682.479 923.5,819.5C 832.479,728.812 741.479,638.146 650.5,547.5C 744.66,452.173 839.66,357.673 935.5,264C 956.969,245.093 980.636,229.426 1006.5,217C 1044.16,200.363 1081.83,200.363 1119.5,217C 1150.62,232.226 1178.62,251.892 1203.5,276C 1247.7,320.035 1291.7,364.201 1335.5,408.5 Z"/></g>
<g><path style="opacity:1" fill="#8a4b38" d="M 1335.5,408.5 C 1370.17,442.5 1404.5,476.833 1438.5,511.5C 1301.19,648.146 1164.19,785.146 1027.5,922.5C 1107.16,1003.83 1187.49,1084.49 1268.5,1164.5C 1234.5,1199.17 1200.17,1233.5 1165.5,1267.5C 1085.2,1186.7 1004.7,1106.03 924,1025.5C 786.917,1163.08 649.417,1300.08 511.5,1436.5C 477.167,1402.83 443.167,1368.83 409.5,1334.5C 546.479,1197.19 683.479,1059.85 820.5,922.5C 730.514,832.014 640.347,741.68 550,651.5C 549.333,650.833 549.333,650.167 550,649.5C 554.768,645.24 558.934,640.573 562.5,635.5C 568.833,631.167 574.167,625.833 578.5,619.5C 588.5,608.833 598.833,598.5 609.5,588.5C 615.833,584.167 621.167,578.833 625.5,572.5C 631.833,568.167 637.167,562.833 641.5,556.5C 645.5,554.5 648.5,551.5 650.5,547.5C 741.479,638.146 832.479,728.812 923.5,819.5C 1060.85,682.479 1198.19,545.479 1335.5,408.5 Z"/></g>
<g><path style="opacity:1" fill="#c0694f" d="M 1438.5,511.5 C 1522.83,595.5 1607.17,679.5 1691.5,763.5C 1671.61,771.226 1653.61,782.059 1637.5,796C 1514.63,919.035 1391.63,1041.87 1268.5,1164.5C 1187.49,1084.49 1107.16,1003.83 1027.5,922.5C 1164.19,785.146 1301.19,648.146 1438.5,511.5 Z"/></g>
<g><path style="opacity:0.886" fill="#b8503d" d="M 650.5,547.5 C 648.5,551.5 645.5,554.5 641.5,556.5C 644.167,553.167 647.167,550.167 650.5,547.5 Z"/></g>
<g><path style="opacity:0.886" fill="#aa4a3a" d="M 641.5,556.5 C 637.167,562.833 631.833,568.167 625.5,572.5C 630.5,566.833 635.833,561.5 641.5,556.5 Z"/></g>
<g><path style="opacity:0.878" fill="#bc503f" d="M 625.5,572.5 C 621.167,578.833 615.833,584.167 609.5,588.5C 614.5,582.833 619.833,577.5 625.5,572.5 Z"/></g>
<g><path style="opacity:0.859" fill="#aa6440" d="M 578.5,619.5 C 574.167,625.833 568.833,631.167 562.5,635.5C 567.5,629.833 572.833,624.5 578.5,619.5 Z"/></g>
<g><path style="opacity:0.999" fill="#c0684e" d="M 562.5,635.5 C 558.934,640.573 554.768,645.24 550,649.5C 549.333,650.167 549.333,650.833 550,651.5C 640.347,741.68 730.514,832.014 820.5,922.5C 683.479,1059.85 546.479,1197.19 409.5,1334.5C 364.535,1290.03 319.701,1245.37 275,1200.5C 253.513,1178.01 235.513,1153.01 221,1125.5C 198.204,1076.76 200.87,1029.43 229,983.5C 241.461,963.702 255.461,945.035 271,927.5C 367.701,829.632 464.868,732.299 562.5,635.5 Z"/></g>
<g><path style="opacity:0.999" fill="#cbd5dc" d="M 1988.5,958.5 C 1984.91,969.689 1980.74,980.689 1976,991.5C 1965.21,1015.74 1953.88,1039.74 1942,1063.5C 1909.84,1126.48 1877.18,1189.15 1844,1251.5C 1788.25,1353.99 1732.25,1456.33 1676,1558.5C 1570.41,1747.34 1465.08,1936.34 1360,2125.5C 1328.71,2182.41 1298.21,2239.74 1268.5,2297.5C 1262.17,2315.17 1253,2331.17 1241,2345.5C 1216.47,2372.34 1186.97,2379.84 1152.5,2368C 1131.81,2358.66 1113.14,2346.33 1096.5,2331C 963.333,2197.83 830.167,2064.67 697,1931.5C 678.84,1908.37 668.507,1882.04 666,1852.5C 661.413,1811.74 670.413,1774.4 693,1740.5C 713.007,1719.66 733.173,1698.99 753.5,1678.5C 891.452,1542.22 1028.78,1405.22 1165.5,1267.5C 1200.17,1233.5 1234.5,1199.17 1268.5,1164.5C 1391.63,1041.87 1514.63,919.035 1637.5,796C 1653.61,782.059 1671.61,771.226 1691.5,763.5C 1734.28,753.223 1773.95,760.389 1810.5,785C 1817.45,789.615 1824.12,794.615 1830.5,800C 1883.37,852.701 1936.03,905.535 1988.5,958.5 Z"/></g>
<g><path style="opacity:1" fill="#be1931" d="M 1988.5,958.5 C 2001.79,971.119 2014.79,984.119 2027.5,997.5C 1834.3,1490.42 1641.3,1983.42 1448.5,2476.5C 1388.5,2416.83 1328.5,2357.17 1268.5,2297.5C 1298.21,2239.74 1328.71,2182.41 1360,2125.5C 1465.08,1936.34 1570.41,1747.34 1676,1558.5C 1732.25,1456.33 1788.25,1353.99 1844,1251.5C 1877.18,1189.15 1909.84,1126.48 1942,1063.5C 1953.88,1039.74 1965.21,1015.74 1976,991.5C 1980.74,980.689 1984.91,969.689 1988.5,958.5 Z"/></g>
<g><path style="opacity:0.999" fill="#dc2d43" d="M 2027.5,997.5 C 2258.13,1227.63 2488.63,1457.97 2719,1688.5C 2778.09,1756.11 2802.42,1834.77 2792,1924.5C 2783.39,1984.41 2759.06,2036.74 2719,2081.5C 2506.83,2293.67 2294.67,2505.83 2082.5,2718C 2000.92,2787.64 1907.92,2808.97 1803.5,2782C 1761.15,2769 1723.48,2748 1690.5,2719C 1609.63,2638.3 1528.97,2557.47 1448.5,2476.5C 1641.3,1983.42 1834.3,1490.42 2027.5,997.5 Z"/></g>
<g><path style="opacity:1" fill="#c0694f" d="M 1165.5,1267.5 C 1028.78,1405.22 891.452,1542.22 753.5,1678.5C 672.5,1598.17 591.833,1517.5 511.5,1436.5C 649.417,1300.08 786.917,1163.08 924,1025.5C 1004.7,1106.03 1085.2,1186.7 1165.5,1267.5 Z"/></g>
</svg>
