<?xml version="1.0" encoding="UTF-8"?>
<!DOCTYPE svg PUBLIC "-//W3C//DTD SVG 1.1//EN" "http://www.w3.org/Graphics/SVG/1.1/DTD/svg11.dtd">
<svg xmlns="http://www.w3.org/2000/svg" version="1.1" width="3000px" height="3000px" style="shape-rendering:geometricPrecision; text-rendering:geometricPrecision; image-rendering:optimizeQuality; fill-rule:evenodd; clip-rule:evenodd" xmlns:xlink="http://www.w3.org/1999/xlink">
<g><path style="opacity:0.993" fill="#000000" d="M 2203.5,664.5 C 2298.01,660.723 2390.68,671.889 2481.5,698C 2578.38,727.493 2661.55,778.66 2731,851.5C 2841.92,976.411 2871.92,1118.74 2821,1278.5C 2780.2,1384.96 2708.04,1462.13 2604.5,1510C 2541.95,1532.74 2480.61,1558.41 2420.5,1587C 2340.75,1626.71 2261.75,1667.71 2183.5,1710C 2095.29,1757.06 2004.29,1797.73 1910.5,1832C 1880.32,1842.96 1849.32,1850.63 1817.5,1855C 1784.44,1859.1 1752.94,1853.93 1723,1839.5C 1682.02,1860.83 1639.19,1877.66 1594.5,1890C 1573.84,1906.34 1551.51,1920.17 1527.5,1931.5C 1502.53,1970.43 1475.37,2007.76 1446,2043.5C 1431,2121.15 1397.67,2189.48 1346,2248.5C 1264.71,2336.7 1167.54,2360.2 1054.5,2319C 983.066,2288.23 930.566,2237.73 897,2167.5C 869.201,2106.17 857.201,2041.83 861,1974.5C 866.89,1873.12 900.557,1782.46 962,1702.5C 983.884,1676.94 1010.05,1657.11 1040.5,1643C 1056.66,1636.79 1073.32,1632.46 1090.5,1630C 1129.08,1589.75 1173.08,1556.75 1222.5,1531C 1249.49,1518.34 1277.83,1510.34 1307.5,1507C 1350.98,1471.57 1400.65,1457.74 1456.5,1465.5C 1500.29,1436.45 1548.29,1418.28 1600.5,1411C 1614.37,1383.62 1633.04,1359.95 1656.5,1340C 1695.15,1309.17 1738.15,1285.83 1785.5,1270C 1837.23,1252.57 1889.9,1238.57 1943.5,1228C 1949.89,1226.2 1956.23,1224.2 1962.5,1222C 2028.73,1191.22 2096.73,1164.89 2166.5,1143C 2121.48,1142 2077.15,1147 2033.5,1158C 1983.22,1175.43 1932.22,1190.43 1880.5,1203C 1773.34,1233.61 1669.67,1273.28 1569.5,1322C 1490.55,1360.8 1413.21,1402.14 1337.5,1446C 1219.61,1516.2 1100.94,1585.2 981.5,1653C 915.38,1689.06 848.047,1723.06 779.5,1755C 747.077,1769.25 714.41,1782.92 681.5,1796C 642.866,1814.65 603.532,1831.65 563.5,1847C 508.452,1865.42 452.785,1867.42 396.5,1853C 385.837,1850.06 375.171,1847.22 364.5,1844.5C 371.453,1864.72 375.12,1885.55 375.5,1907C 374.116,1928.24 371.949,1949.41 369,1970.5C 366.55,1989.18 368.884,2007.18 376,2024.5C 386.558,2040.71 401.392,2050.88 420.5,2055C 438.085,2059.12 455.919,2060.95 474,2060.5C 518.18,2060 561.014,2052.16 602.5,2037C 614.276,2035.22 620.943,2040.22 622.5,2052C 621.299,2068.48 620.132,2084.98 619,2101.5C 617.594,2106.57 614.428,2110.07 609.5,2112C 528.579,2143.26 445.912,2148.92 361.5,2129C 335,2122.01 312.5,2108.51 294,2088.5C 277.234,2065.69 269.401,2040.03 270.5,2011.5C 270.675,1998.41 271.841,1985.41 274,1972.5C 278.054,1951.9 281.72,1931.23 285,1910.5C 286.234,1901.19 286.567,1891.86 286,1882.5C 268.438,1901.11 250.771,1901.11 233,1882.5C 223.511,1868.52 222.011,1853.69 228.5,1838C 215.442,1832.61 206.942,1823.11 203,1809.5C 199.601,1797.68 200.101,1786.02 204.5,1774.5C 184.668,1756.18 171.501,1733.85 165,1707.5C 159.042,1703.21 153.376,1698.54 148,1693.5C 137.564,1675.01 140.731,1659.18 157.5,1646C 176.82,1635.06 197.154,1626.56 218.5,1620.5C 224.759,1561.87 245.259,1508.87 280,1461.5C 313.696,1418.13 352.862,1380.63 397.5,1349C 431.36,1325.48 466.027,1303.15 501.5,1282C 911.235,1038.15 1346.57,853.154 1807.5,727C 1937.53,692.605 2069.53,671.772 2203.5,664.5 Z"/></g>
<g><path style="opacity:1" fill="#a92019" d="M 2195.5,708.5 C 2287.96,704.068 2378.63,714.568 2467.5,740C 2564.1,768.684 2645.27,820.851 2711,896.5C 2806.67,1014.21 2826.67,1143.88 2771,1285.5C 2731.72,1370.78 2669.22,1432.62 2583.5,1471C 2486.87,1506.22 2393.2,1548.22 2302.5,1597C 2211.27,1646.95 2118.6,1694.28 2024.5,1739C 1969.61,1764.07 1913.28,1785.41 1855.5,1803C 1842.69,1806.63 1829.69,1808.96 1816.5,1810C 1855.9,1790.6 1884.4,1760.77 1902,1720.5C 1919.16,1679.2 1925.83,1636.2 1922,1591.5C 1914.66,1525.13 1895.99,1462.13 1866,1402.5C 1849.73,1372.23 1826.23,1349.39 1795.5,1334C 1786.5,1330 1777.16,1327 1767.5,1325C 1791.19,1314.43 1815.53,1305.43 1840.5,1298C 1881.31,1287.21 1922.31,1277.21 1963.5,1268C 1974.17,1264 1984.83,1260 1995.5,1256C 2039.9,1234.64 2085.56,1216.31 2132.5,1201C 2151.09,1194.47 2169.76,1188.14 2188.5,1182C 2255.72,1175.04 2315.05,1150.04 2366.5,1107C 2372.34,1101.47 2377.34,1095.31 2381.5,1088.5C 2380.31,1086.62 2378.64,1086.12 2376.5,1087C 2354.62,1096.86 2333.12,1107.36 2312,1118.5C 2311.04,1117.42 2310.21,1116.25 2309.5,1115C 2330.77,1102.4 2347.27,1085.23 2359,1063.5C 2359.95,1060.57 2360.45,1057.57 2360.5,1054.5C 2357.98,1054.76 2355.65,1055.59 2353.5,1057C 2338.06,1069.11 2322.06,1080.44 2305.5,1091C 2295.74,1096.21 2285.74,1100.88 2275.5,1105C 2272.17,1105.67 2268.83,1105.67 2265.5,1105C 2257.94,1103.02 2250.28,1101.69 2242.5,1101C 2213.2,1099.15 2183.86,1098.15 2154.5,1098C 2170.42,1084.66 2180.59,1067.82 2185,1047.5C 2185.67,1043.83 2185.67,1040.17 2185,1036.5C 2182.46,1035.12 2180.46,1035.79 2179,1038.5C 2157.74,1074.77 2126.4,1096.44 2085,1103.5C 2084.5,1103.33 2084,1103.17 2083.5,1103C 2097.61,1084.94 2104.44,1064.44 2104,1041.5C 2103.36,1039.7 2102.2,1038.36 2100.5,1037.5C 2098.52,1038.98 2096.68,1040.65 2095,1042.5C 2082.03,1067.25 2065.53,1089.42 2045.5,1109C 2031.32,1113.37 2016.99,1117.37 2002.5,1121C 1983.67,1127.79 1964.67,1134.13 1945.5,1140C 1811.21,1172.65 1681.88,1218.98 1557.5,1279C 1494.56,1309.8 1432.56,1342.14 1371.5,1376C 1259.17,1440.83 1147.17,1506.16 1035.5,1572C 952.489,1620.01 867.489,1664.68 780.5,1706C 716.266,1733.45 652.266,1761.45 588.5,1790C 558.503,1803.67 527.169,1812.67 494.5,1817C 453.367,1820.37 413.367,1815.03 374.5,1801C 372.58,1795.8 371.913,1790.3 372.5,1784.5C 396.613,1782.2 417.447,1772.86 435,1756.5C 438.161,1753.51 439.661,1749.84 439.5,1745.5C 435.753,1745.39 432.086,1745.89 428.5,1747C 406.841,1756.6 384.174,1760.93 360.5,1760C 390.702,1741.6 408.702,1714.94 414.5,1680C 414.333,1678.5 414.167,1677 414,1675.5C 413.586,1675.04 413.086,1674.71 412.5,1674.5C 404.506,1687.14 396.006,1699.48 387,1711.5C 374.585,1726.09 359.751,1737.43 342.5,1745.5C 342.167,1745.17 341.833,1744.83 341.5,1744.5C 347.305,1728.56 344.972,1714.06 334.5,1701C 331.126,1697.81 327.126,1695.98 322.5,1695.5C 327.099,1680.1 330.599,1664.44 333,1648.5C 333.667,1637.5 333.667,1626.5 333,1615.5C 332.775,1608.93 331.442,1602.6 329,1596.5C 327.921,1594.61 326.587,1594.27 325,1595.5C 322.013,1621.44 316.346,1646.77 308,1671.5C 304.775,1679.62 301.275,1687.62 297.5,1695.5C 294.812,1697.12 291.979,1698.45 289,1699.5C 287.656,1680.7 285.323,1662.04 282,1643.5C 278.668,1633.48 272.502,1625.81 263.5,1620.5C 263.167,1619 262.833,1617.5 262.5,1616C 271.731,1558.38 295.564,1507.88 334,1464.5C 363.486,1432.33 395.986,1403.83 431.5,1379C 458.963,1360.21 486.963,1342.21 515.5,1325C 912.04,1087.93 1333.04,906.262 1778.5,780C 1915.09,741.458 2054.09,717.625 2195.5,708.5 Z"/></g>
<g><path style="opacity:1" fill="#030000" d="M 1946.5,749.5 C 1957.84,748.574 1968.84,750.074 1979.5,754C 1990.69,759.106 1991.02,764.439 1980.5,770C 1961.01,774.652 1941.34,775.652 1921.5,773C 1913.85,769.06 1913.52,764.393 1920.5,759C 1928.74,754.311 1937.41,751.144 1946.5,749.5 Z"/></g>
<g><path style="opacity:1" fill="#020000" d="M 2428.5,757.5 C 2453.63,756.195 2475.96,763.361 2495.5,779C 2503.86,787.03 2511.86,795.363 2519.5,804C 2529.5,808 2539.5,812 2549.5,816C 2574.28,827.778 2592.78,845.944 2605,870.5C 2606.37,873.738 2606.7,877.072 2606,880.5C 2604.49,881.535 2602.99,881.368 2601.5,880C 2585.06,863.563 2566.39,850.229 2545.5,840C 2535.64,836.268 2525.64,832.934 2515.5,830C 2507.82,825.986 2500.98,820.819 2495,814.5C 2482.26,795.438 2465.1,781.938 2443.5,774C 2435.49,771.33 2427.49,768.663 2419.5,766C 2417.61,764.921 2417.27,763.587 2418.5,762C 2421.7,759.997 2425.04,758.497 2428.5,757.5 Z"/></g>
<g><path style="opacity:1" fill="#030000" d="M 1869.5,772.5 C 1875.68,772.107 1881.68,772.94 1887.5,775C 1890.92,776.143 1891.25,777.81 1888.5,780C 1870.34,786.743 1853.68,796.076 1838.5,808C 1826.3,815.957 1812.96,820.957 1798.5,823C 1766.12,824.172 1734.45,829.505 1703.5,839C 1690.17,843.667 1676.83,848.333 1663.5,853C 1660.24,854.043 1656.91,854.543 1653.5,854.5C 1653.34,853.127 1653.51,851.793 1654,850.5C 1670.02,834.225 1688.85,822.058 1710.5,814C 1737.6,803.981 1765.6,798.981 1794.5,799C 1800.57,798.432 1806.57,797.432 1812.5,796C 1824.95,790.607 1837.29,784.94 1849.5,779C 1856.12,776.293 1862.79,774.126 1869.5,772.5 Z"/></g>
<g><path style="opacity:1" fill="#020000" d="M 2617.5,877.5 C 2637.14,881.298 2649.64,892.964 2655,912.5C 2655.67,917.5 2655.67,922.5 2655,927.5C 2653.41,933.42 2649.91,934.92 2644.5,932C 2632.39,918.884 2622.22,904.384 2614,888.5C 2612.52,883.774 2613.68,880.107 2617.5,877.5 Z"/></g>
<g><path style="opacity:1" fill="#030000" d="M 2746.5,1183.5 C 2752.55,1184.03 2756.38,1187.37 2758,1193.5C 2763.63,1211.36 2762.29,1228.69 2754,1245.5C 2750.6,1251.9 2745.6,1256.57 2739,1259.5C 2735.93,1258.71 2734.27,1256.71 2734,1253.5C 2734.12,1232.2 2736.79,1211.2 2742,1190.5C 2743.01,1187.8 2744.51,1185.46 2746.5,1183.5 Z"/></g>
<g><path style="opacity:1" fill="#030000" d="M 1496.5,1228.5 C 1499.36,1228.05 1501.86,1228.72 1504,1230.5C 1504.74,1234.26 1504.4,1237.93 1503,1241.5C 1489.74,1265.09 1469.57,1276.26 1442.5,1275C 1436.39,1273.64 1434.89,1270.14 1438,1264.5C 1453.74,1253.38 1469.91,1242.88 1486.5,1233C 1489.89,1231.38 1493.23,1229.88 1496.5,1228.5 Z"/></g>
<g><path style="opacity:1" fill="#020000" d="M 720.5,1230.5 C 724.846,1230.33 729.179,1230.5 733.5,1231C 738.331,1233.68 738.831,1237.18 735,1241.5C 716.902,1257.8 696.735,1270.97 674.5,1281C 667.837,1282.67 665.004,1280.17 666,1273.5C 673.755,1258.08 685.255,1246.24 700.5,1238C 707.165,1235.15 713.832,1232.65 720.5,1230.5 Z"/></g>
<g><path style="opacity:1" fill="#030000" d="M 1409.5,1277.5 C 1411.66,1277.12 1413.33,1277.78 1414.5,1279.5C 1403.89,1296.27 1389.22,1308.1 1370.5,1315C 1356.31,1320.24 1341.64,1322.91 1326.5,1323C 1291.79,1376.04 1242.79,1406.2 1179.5,1413.5C 1176.43,1413.39 1173.43,1412.89 1170.5,1412C 1169.57,1411.61 1168.91,1410.95 1168.5,1410C 1169.34,1408.23 1170.67,1406.9 1172.5,1406C 1215.8,1390.97 1253.64,1367.47 1286,1335.5C 1295.44,1324.79 1304.27,1313.62 1312.5,1302C 1347.2,1303.07 1379.54,1294.91 1409.5,1277.5 Z"/></g>
<g><path style="opacity:1" fill="#020000" d="M 2722.5,1282.5 C 2724.02,1282.51 2725.18,1283.18 2726,1284.5C 2727.89,1306.85 2720.72,1325.68 2704.5,1341C 2699.94,1344.45 2694.94,1347.11 2689.5,1349C 2680.54,1350.05 2671.54,1350.88 2662.5,1351.5C 2644.83,1388.99 2615.33,1409.99 2574,1414.5C 2568.56,1414.55 2563.56,1413.22 2559,1410.5C 2558.32,1409.22 2558.48,1408.05 2559.5,1407C 2579.28,1400.44 2597.28,1390.78 2613.5,1378C 2626.06,1365.76 2635.9,1351.6 2643,1335.5C 2646.84,1331 2651.67,1328.16 2657.5,1327C 2677.8,1332.07 2693.97,1326.23 2706,1309.5C 2711.01,1300.14 2716.51,1291.14 2722.5,1282.5 Z"/></g>
<g><path style="opacity:1" fill="#020000" d="M 630.5,1293.5 C 633.187,1293.34 635.854,1293.5 638.5,1294C 639.517,1295.05 639.684,1296.22 639,1297.5C 633.189,1303.82 626.689,1309.32 619.5,1314C 586.494,1333.84 553.161,1353.17 519.5,1372C 496.319,1387.51 473.986,1404.18 452.5,1422C 442.758,1429.45 439.925,1427.62 444,1416.5C 465.318,1382.93 493.484,1356.76 528.5,1338C 561.283,1320.1 595.283,1305.27 630.5,1293.5 Z"/></g>
<g><path style="opacity:1" fill="#ed5925" d="M 1738.5,1345.5 C 1773.71,1345.69 1802.88,1359.02 1826,1385.5C 1844.67,1408.82 1858.67,1434.82 1868,1463.5C 1882.39,1501.72 1892.39,1541.06 1898,1581.5C 1904.07,1630.36 1896.74,1677.03 1876,1721.5C 1857.09,1758.08 1828.09,1782.74 1789,1795.5C 1796.42,1787.06 1804.75,1778.39 1814,1769.5C 1845.56,1732.51 1861.56,1689.51 1862,1640.5C 1863.16,1604.13 1860.16,1568.13 1853,1532.5C 1845.49,1501.97 1829.32,1477.13 1804.5,1458C 1774.77,1437.48 1742.1,1423.48 1706.5,1416C 1688.55,1412.89 1670.55,1410.55 1652.5,1409C 1669.76,1385.73 1690.76,1366.73 1715.5,1352C 1723.07,1349.03 1730.73,1346.86 1738.5,1345.5 Z"/></g>
<g><path style="opacity:1" fill="#030000" d="M 2444.5,1358.5 C 2447.76,1359.93 2450.26,1362.26 2452,1365.5C 2462.48,1387.89 2464.15,1410.89 2457,1434.5C 2451.46,1448.7 2442.29,1459.87 2429.5,1468C 2423.27,1470.52 2417.1,1473.02 2411,1475.5C 2412.84,1494.99 2405.34,1509.49 2388.5,1519C 2384.24,1520.36 2379.91,1520.7 2375.5,1520C 2374.33,1518.13 2374.49,1516.3 2376,1514.5C 2388.46,1504.27 2392.63,1491.27 2388.5,1475.5C 2388.44,1466.4 2392.11,1459.24 2399.5,1454C 2407.58,1451.09 2415.25,1447.42 2422.5,1443C 2432.78,1432.26 2438.62,1419.43 2440,1404.5C 2441.15,1391.87 2441.82,1379.2 2442,1366.5C 2442.56,1363.72 2443.39,1361.05 2444.5,1358.5 Z"/></g>
<g><path style="opacity:1" fill="#040000" d="M 2492.5,1415.5 C 2498.19,1416.01 2502.02,1419.01 2504,1424.5C 2508.78,1443.11 2502.28,1455.94 2484.5,1463C 2476.31,1464.8 2472.48,1461.63 2473,1453.5C 2478.22,1443.07 2482.88,1432.4 2487,1421.5C 2488.36,1418.98 2490.19,1416.98 2492.5,1415.5 Z"/></g>
<g><path style="opacity:1" fill="#ee5925" d="M 1619.5,1453.5 C 1646.4,1452.24 1673.06,1454.08 1699.5,1459C 1750.84,1485.24 1777.17,1527.41 1778.5,1585.5C 1778.07,1632.63 1762.57,1673.97 1732,1709.5C 1716.12,1726.56 1698.62,1741.56 1679.5,1754.5C 1692.44,1687.32 1676.94,1627.65 1633,1575.5C 1598.88,1537.38 1559.05,1506.88 1513.5,1484C 1547.01,1467.22 1582.34,1457.05 1619.5,1453.5 Z"/></g>
<g><path style="opacity:1" fill="#020000" d="M 2277.5,1475.5 C 2282.26,1475.96 2285.1,1478.63 2286,1483.5C 2289.72,1511.55 2280.56,1534.38 2258.5,1552C 2253.45,1555.19 2248.11,1557.86 2242.5,1560C 2239.11,1560.75 2235.77,1560.59 2232.5,1559.5C 2231.35,1557.24 2231.19,1554.9 2232,1552.5C 2240.05,1542.11 2247.72,1531.45 2255,1520.5C 2262.53,1505.44 2270.03,1490.44 2277.5,1475.5 Z"/></g>
<g><path style="opacity:1" fill="#a82019" d="M 1756.5,1480.5 C 1784.88,1492.08 1803.04,1513.08 1811,1543.5C 1817.83,1578.86 1820.17,1614.52 1818,1650.5C 1814.85,1694.3 1796.69,1730.46 1763.5,1759C 1730.08,1787.21 1692.75,1808.37 1651.5,1822.5C 1659.63,1808.91 1666.13,1794.58 1671,1779.5C 1719.22,1753.95 1755.22,1716.62 1779,1667.5C 1800.07,1617.68 1800.73,1567.68 1781,1517.5C 1774.8,1503.73 1766.63,1491.39 1756.5,1480.5 Z"/></g>
<g><path style="opacity:1" fill="#ed5925" d="M 1416.5,1506.5 C 1447.37,1505.42 1476.37,1512.26 1503.5,1527C 1528.25,1540.1 1550.42,1556.6 1570,1576.5C 1599.87,1620.43 1606.54,1667.76 1590,1718.5C 1584.92,1732.67 1578.25,1746 1570,1758.5C 1559.02,1699.23 1536.02,1645.23 1501,1596.5C 1470.66,1557.07 1431.82,1529.57 1384.5,1514C 1395.04,1510.4 1405.7,1507.9 1416.5,1506.5 Z"/></g>
<g><path style="opacity:1" fill="#030000" d="M 967.5,1536.5 C 970.808,1535.97 972.974,1537.31 974,1540.5C 974.105,1551.85 970.438,1561.85 963,1570.5C 950.931,1585.29 935.431,1593.95 916.5,1596.5C 905.65,1595.87 903.65,1591.37 910.5,1583C 929.979,1568.01 948.979,1552.51 967.5,1536.5 Z"/></g>
<g><path style="opacity:1" fill="#020000" d="M 2197.5,1540.5 C 2198.75,1540.58 2199.58,1541.24 2200,1542.5C 2199.04,1572.24 2187.88,1597.41 2166.5,1618C 2146.79,1634.48 2124.46,1639.48 2099.5,1633C 2092.17,1659.97 2076.84,1680.97 2053.5,1696C 2040.51,1703.54 2026.68,1706.38 2012,1704.5C 2011.29,1702.63 2011.79,1701.13 2013.5,1700C 2037.5,1689.33 2055.66,1672.5 2068,1649.5C 2071.21,1638.99 2074.88,1628.66 2079,1618.5C 2088.71,1607.24 2100.55,1604.41 2114.5,1610C 2129.34,1611.83 2142.67,1608.16 2154.5,1599C 2168.81,1585.2 2180.31,1569.37 2189,1551.5C 2191.36,1547.44 2194.19,1543.78 2197.5,1540.5 Z"/></g>
<g><path style="opacity:1" fill="#ee5925" d="M 1309.5,1559.5 C 1351.63,1555.49 1390.96,1563.99 1427.5,1585C 1448.89,1600.72 1466.39,1619.88 1480,1642.5C 1501.58,1675.38 1509.24,1711.38 1503,1750.5C 1495.03,1795.78 1474.03,1833.78 1440,1864.5C 1420.85,1788.45 1383.68,1722.95 1328.5,1668C 1282.35,1626.63 1228.35,1610.63 1166.5,1620C 1183.31,1605.43 1201.65,1593.09 1221.5,1583C 1249.9,1571.13 1279.24,1563.3 1309.5,1559.5 Z"/></g>
<g><path style="opacity:1" fill="#020000" d="M 823.5,1617.5 C 824.5,1617.5 825.5,1617.5 826.5,1617.5C 827.03,1622.29 825.863,1626.62 823,1630.5C 807.299,1653.78 785.465,1667.61 757.5,1672C 741.794,1672.97 726.128,1674.3 710.5,1676C 686.572,1683.86 662.572,1691.53 638.5,1699C 626.494,1702.34 614.327,1704.84 602,1706.5C 600.167,1706.33 598.333,1706.17 596.5,1706C 595.483,1704.95 595.316,1703.78 596,1702.5C 599.566,1699.3 603.4,1696.47 607.5,1694C 640.119,1676.35 674.119,1662.02 709.5,1651C 752.454,1655.6 790.454,1644.43 823.5,1617.5 Z"/></g>
<g><path style="opacity:1" fill="#a72019" d="M 1608.5,1615.5 C 1636.63,1652.28 1646.13,1693.62 1637,1739.5C 1626.75,1788.37 1602.08,1828.04 1563,1858.5C 1570.24,1833.8 1573.57,1808.47 1573,1782.5C 1612.88,1732.93 1624.72,1677.26 1608.5,1615.5 Z"/></g>
<g><path style="opacity:1" fill="#c49a6c" d="M 238.5,1644.5 C 247.124,1642.89 252.624,1646.22 255,1654.5C 257.772,1674.43 259.439,1694.43 260,1714.5C 245.456,1724.21 232.29,1735.54 220.5,1748.5C 214.417,1742.92 209.251,1736.58 205,1729.5C 199.815,1716.41 194.482,1703.41 189,1690.5C 183.457,1684.62 177.623,1679.12 171.5,1674C 172.487,1671.68 174.154,1670.01 176.5,1669C 196.473,1658.74 217.139,1650.57 238.5,1644.5 Z"/></g>
<g><path style="opacity:1" fill="#ee5925" d="M 1151.5,1666.5 C 1212.36,1664.51 1267.02,1681.68 1315.5,1718C 1335.91,1739.63 1352.74,1763.8 1366,1790.5C 1376.23,1811.19 1384.9,1832.52 1392,1854.5C 1403.01,1957.46 1375.68,2048.79 1310,2128.5C 1281.67,2161.17 1247.5,2185.67 1207.5,2202C 1153.58,2222.18 1099.58,2222.52 1045.5,2203C 997.632,2182.13 963.466,2147.63 943,2099.5C 922.262,2048.08 914.929,1994.75 921,1939.5C 925.682,1899.42 932.682,1859.76 942,1820.5C 954.441,1791.45 970.107,1764.45 989,1739.5C 1034.82,1696.84 1088.99,1672.51 1151.5,1666.5 Z"/></g>
<g><path style="opacity:1" fill="#a82019" d="M 308.5,1722.5 C 310.833,1722.5 313.167,1722.5 315.5,1722.5C 315.815,1729.76 314.648,1736.76 312,1743.5C 303.628,1749.41 302.295,1756.74 308,1765.5C 309.41,1766.79 310.91,1767.95 312.5,1769C 321.155,1770.77 329.155,1774.11 336.5,1779C 343.023,1784 345.19,1790.5 343,1798.5C 341.062,1801.11 338.562,1802.94 335.5,1804C 325.131,1806.54 314.798,1809.21 304.5,1812C 292.016,1816.99 282.182,1825.16 275,1836.5C 270.748,1844.92 267.082,1853.59 264,1862.5C 261.209,1867.71 258.209,1867.71 255,1862.5C 252.758,1856.52 253.425,1850.86 257,1845.5C 261.281,1838.89 265.947,1832.55 271,1826.5C 274.862,1811.36 269.029,1804.53 253.5,1806C 242.883,1814.57 235.383,1812.41 231,1799.5C 230.016,1793.31 230.682,1787.31 233,1781.5C 246.697,1759.8 264.863,1742.97 287.5,1731C 294.372,1727.55 301.372,1724.72 308.5,1722.5 Z"/></g>
<g><path style="opacity:1" fill="#a72019" d="M 1524.5,1758.5 C 1532.49,1790.26 1530.65,1821.6 1519,1852.5C 1514.08,1865.68 1508.08,1878.35 1501,1890.5C 1485.78,1915.04 1469.78,1939.04 1453,1962.5C 1451.61,1938.35 1449.28,1914.35 1446,1890.5C 1482.18,1860.31 1507.18,1822.64 1521,1777.5C 1522.36,1771.19 1523.53,1764.86 1524.5,1758.5 Z"/></g>
<g><path style="opacity:1" fill="#c39a6b" d="M 325.5,1835.5 C 326.675,1835.28 327.675,1835.61 328.5,1836.5C 342.828,1863.8 348.328,1892.8 345,1923.5C 342.176,1943.6 340.009,1963.77 338.5,1984C 337.266,2031.91 358.933,2064.24 403.5,2081C 425.15,2087.75 447.317,2090.58 470,2089.5C 511.131,2089.98 551.298,2083.98 590.5,2071.5C 591.352,2076.85 591.019,2082.19 589.5,2087.5C 516.769,2114.11 442.769,2118.28 367.5,2100C 320.831,2087.83 298.498,2057.67 300.5,2009.5C 300.474,2000.47 300.974,1991.47 302,1982.5C 307.962,1954.03 312.628,1925.36 316,1896.5C 317.363,1878.4 315.196,1860.74 309.5,1843.5C 309.608,1842.56 309.941,1841.72 310.5,1841C 315.571,1839.04 320.571,1837.2 325.5,1835.5 Z"/></g>
<g><path style="opacity:1" fill="#a82019" d="M 1406.5,1989.5 C 1401.02,2087.29 1363.36,2170.45 1293.5,2239C 1223.06,2299.87 1145.06,2311.21 1059.5,2273C 989.641,2237.81 943.808,2182.64 922,2107.5C 955.392,2185.2 1014.23,2229.03 1098.5,2239C 1171.85,2245.63 1236.52,2225.29 1292.5,2178C 1349.73,2127.07 1387.73,2064.24 1406.5,1989.5 Z"/></g>
</svg>
