<?xml version="1.0" encoding="UTF-8"?>
<!DOCTYPE svg PUBLIC "-//W3C//DTD SVG 1.1//EN" "http://www.w3.org/Graphics/SVG/1.1/DTD/svg11.dtd">
<svg xmlns="http://www.w3.org/2000/svg" version="1.1" width="3000px" height="3000px" style="shape-rendering:geometricPrecision; text-rendering:geometricPrecision; image-rendering:optimizeQuality; fill-rule:evenodd; clip-rule:evenodd" xmlns:xlink="http://www.w3.org/1999/xlink">
<g><path style="opacity:0.999" fill="#dec053" d="M 1556.5,1374.5 C 1563.45,1379.98 1571.11,1384.48 1579.5,1388C 1599.22,1395.14 1619.55,1399.48 1640.5,1401C 1666.46,1403.24 1692.46,1404.91 1718.5,1406C 1741.32,1407.93 1763.65,1412.26 1785.5,1419C 1831.12,1437.38 1852.62,1471.22 1850,1520.5C 1846.91,1545.19 1840.25,1568.85 1830,1591.5C 1807.45,1637.67 1779.79,1680.34 1747,1719.5C 1709.5,1763.67 1668.67,1804.5 1624.5,1842C 1557.9,1890.57 1483.56,1909.57 1401.5,1899C 1382.69,1892.19 1369.86,1879.36 1363,1860.5C 1357.49,1844.29 1354.49,1827.63 1354,1810.5C 1353.83,1798.5 1353.67,1786.5 1353.5,1774.5C 1354.97,1734.84 1355.47,1695.18 1355,1655.5C 1352.95,1632.64 1347.78,1610.64 1339.5,1589.5C 1322.03,1538.56 1292.36,1496.4 1250.5,1463C 1219.77,1440.76 1185.43,1431.09 1147.5,1434C 1085.48,1440.5 1023.48,1447.17 961.5,1454C 913.52,1458.14 865.52,1458.47 817.5,1455C 720.737,1446.09 635.07,1411.09 560.5,1350C 520.184,1308.91 488.684,1261.74 466,1208.5C 401.397,1055.2 400.397,901.536 463,747.5C 504.424,653.775 563.924,573.608 641.5,507C 725.733,442.757 821.066,414.091 927.5,421C 1006.24,426.6 1080.57,447.6 1150.5,484C 1220.41,520.216 1281.25,568.049 1333,627.5C 1363.02,663.253 1386.02,703.253 1402,747.5C 1415.92,787.261 1419.59,827.928 1413,869.5C 1405.07,900.562 1398.4,931.895 1393,963.5C 1382.36,1026.65 1383.03,1089.65 1395,1152.5C 1418.31,1248.94 1472.14,1322.94 1556.5,1374.5 Z"/></g>
<g><path style="opacity:0.999" fill="#a0aac7" d="M 1339.5,1589.5 C 1347.78,1610.64 1352.95,1632.64 1355,1655.5C 1355.47,1695.18 1354.97,1734.84 1353.5,1774.5C 1353.67,1786.5 1353.83,1798.5 1354,1810.5C 1354.49,1827.63 1357.49,1844.29 1363,1860.5C 1369.86,1879.36 1382.69,1892.19 1401.5,1899C 1483.56,1909.57 1557.9,1890.57 1624.5,1842C 1668.67,1804.5 1709.5,1763.67 1747,1719.5C 1779.79,1680.34 1807.45,1637.67 1830,1591.5C 1840.25,1568.85 1846.91,1545.19 1850,1520.5C 1852.62,1471.22 1831.12,1437.38 1785.5,1419C 1763.65,1412.26 1741.32,1407.93 1718.5,1406C 1692.46,1404.91 1666.46,1403.24 1640.5,1401C 1619.55,1399.48 1599.22,1395.14 1579.5,1388C 1571.11,1384.48 1563.45,1379.98 1556.5,1374.5C 1689.08,1241.42 1823.08,1109.92 1958.5,980C 2001,939.45 2045,900.783 2090.5,864C 2139.98,829.171 2194.98,809.171 2255.5,804C 2340.7,800.505 2403.54,836.005 2444,910.5C 2466.21,954.331 2480.54,1000.66 2487,1049.5C 2511.64,1242.17 2486.48,1428.34 2411.5,1608C 2451.58,1647.62 2484.74,1692.46 2511,1742.5C 2555.76,1829.1 2588.42,1920.1 2609,2015.5C 2623.27,2083.59 2627.27,2152.26 2621,2221.5C 2610.8,2316.52 2577.8,2402.52 2522,2479.5C 2475.22,2541.96 2419.72,2595.12 2355.5,2639C 2234.2,2710.46 2103.86,2735.46 1964.5,2714C 1882.77,2699.96 1811.77,2664.96 1751.5,2609C 1690.31,2546.33 1635.98,2478.5 1588.5,2405.5C 1497.77,2445.69 1404.77,2479.86 1309.5,2508C 1242.3,2527.55 1173.97,2541.55 1104.5,2550C 1058.19,2555.41 1011.86,2555.75 965.5,2551C 921.231,2546.46 879.897,2533.13 841.5,2511C 821.208,2498.38 803.708,2482.55 789,2463.5C 762.54,2430.57 745.206,2393.24 737,2351.5C 728.604,2300.87 736.938,2253.21 762,2208.5C 812.427,2127.64 867.76,2050.31 928,1976.5C 939.667,1963.5 951.333,1950.5 963,1937.5C 975.562,1924.27 988.728,1911.77 1002.5,1900C 1021.17,1886 1039.83,1872 1058.5,1858C 1110.45,1811.71 1161.45,1764.38 1211.5,1716C 1254.39,1673.94 1297.06,1631.77 1339.5,1589.5 Z M 2339.5,1748.5 C 2340.38,1748.37 2341.04,1748.7 2341.5,1749.5C 2374.4,1815.77 2394.57,1885.77 2402,1959.5C 2414.26,2072.3 2402.93,2182.64 2368,2290.5C 2287.56,2510.47 2134.39,2586.97 1908.5,2520C 1834.25,2498.65 1771.42,2459.48 1720,2402.5C 1708.5,2388.66 1698.17,2374 1689,2358.5C 1688.25,2357.36 1688.42,2356.36 1689.5,2355.5C 1895.4,2243.34 2073.57,2096.67 2224,1915.5C 2266.47,1862.56 2304.97,1806.9 2339.5,1748.5 Z"/></g>
</svg>
