<?xml version="1.0" encoding="UTF-8"?>
<!DOCTYPE svg PUBLIC "-//W3C//DTD SVG 1.1//EN" "http://www.w3.org/Graphics/SVG/1.1/DTD/svg11.dtd">
<svg xmlns="http://www.w3.org/2000/svg" version="1.1" width="3000px" height="3000px" style="shape-rendering:geometricPrecision; text-rendering:geometricPrecision; image-rendering:optimizeQuality; fill-rule:evenodd; clip-rule:evenodd" xmlns:xlink="http://www.w3.org/1999/xlink">
<g><path style="opacity:0.995" fill="#000000" d="M 1052.5,325.5 C 1046.55,326.545 1040.88,328.712 1035.5,332C 998.637,357.195 970.804,390.028 952,430.5C 940.921,457.063 936.088,484.73 937.5,513.5C 904.189,506.67 870.522,502.504 836.5,501C 823.167,500.333 809.833,500.333 796.5,501C 783.866,502.493 771.199,503.66 758.5,504.5C 741.156,465.314 723.323,426.314 705,387.5C 691.734,349.638 700.901,318.472 732.5,294C 743.249,287.417 754.916,283.417 767.5,282C 851.803,278.705 934.47,288.705 1015.5,312C 1028.13,315.994 1040.46,320.494 1052.5,325.5 Z"/></g>
<g><path style="opacity:0.999" fill="#cbcbcb" d="M 1052.5,325.5 C 1067.65,324.581 1079.98,329.914 1089.5,341.5C 1152.9,421.893 1154.56,503.56 1094.5,586.5C 1122.2,616.216 1141.37,650.883 1152,690.5C 1164.18,736.191 1169.35,782.691 1167.5,830C 1167.33,844.5 1167.17,859 1167,873.5C 1164.17,906.468 1161.84,939.468 1160,972.5C 1109.91,1045.93 1049.41,1109.76 978.5,1164C 899.428,1223.91 814.428,1274.74 723.5,1316.5C 722.614,1317.32 722.281,1318.32 722.5,1319.5C 710.094,1274.82 700.094,1229.48 692.5,1183.5C 691.833,1183.17 691.167,1182.83 690.5,1182.5C 650.055,1192.75 609.055,1199.75 567.5,1203.5C 581.146,1119.4 570.979,1038.4 537,960.5C 507.31,898.792 464.477,847.959 408.5,808C 397.273,800.228 385.94,792.728 374.5,785.5C 426.817,744.373 476.65,700.04 524,652.5C 544.101,629.73 564.934,607.563 586.5,586C 635.635,542.092 692.968,514.926 758.5,504.5C 771.199,503.66 783.866,502.493 796.5,501C 809.833,500.333 823.167,500.333 836.5,501C 870.522,502.504 904.189,506.67 937.5,513.5C 936.088,484.73 940.921,457.063 952,430.5C 970.804,390.028 998.637,357.195 1035.5,332C 1040.88,328.712 1046.55,326.545 1052.5,325.5 Z"/></g>
<g><path style="opacity:0.998" fill="#000000" d="M 1089.5,341.5 C 1189.26,388.097 1258.42,463.097 1297,566.5C 1318.23,626.308 1329.56,687.974 1331,751.5C 1331.73,774.515 1331.39,797.515 1330,820.5C 1327.41,850.207 1324.41,879.874 1321,909.5C 1317.25,949.286 1318.25,988.952 1324,1028.5C 1329.43,1064.48 1341.77,1097.81 1361,1128.5C 1371.29,1141.79 1381.96,1154.79 1393,1167.5C 1411.89,1205.04 1406.06,1238.2 1375.5,1267C 1365.99,1273.37 1356.99,1280.2 1348.5,1287.5C 1305.46,1384.25 1250.96,1473.59 1185,1555.5C 1113.42,1643.58 1032.92,1722.25 943.5,1791.5C 924.985,1769.31 907.985,1745.98 892.5,1721.5C 892.744,1718.74 894.077,1716.57 896.5,1715C 1016.5,1620.35 1117.34,1508.85 1199,1380.5C 1223.97,1339.07 1246.47,1296.24 1266.5,1252C 1257.65,1245.07 1248.98,1237.91 1240.5,1230.5C 1124.24,1379.14 984.244,1499.47 820.5,1591.5C 806.959,1564.56 794.959,1536.89 784.5,1508.5C 942.29,1418.58 1075.79,1300.58 1185,1154.5C 1179.97,1139.4 1175.3,1124.06 1171,1108.5C 1170.67,1107.83 1170.33,1107.17 1170,1106.5C 1128.61,1153.23 1083.45,1195.73 1034.5,1234C 945.441,1301.73 849.441,1358.56 746.5,1404.5C 741.964,1389.56 737.631,1374.56 733.5,1359.5C 733.59,1356.85 732.924,1354.51 731.5,1352.5C 731.59,1349.85 730.924,1347.51 729.5,1345.5C 729.258,1341.52 728.258,1337.85 726.5,1334.5C 726.258,1330.52 725.258,1326.85 723.5,1323.5C 722.566,1322.43 722.232,1321.1 722.5,1319.5C 722.281,1318.32 722.614,1317.32 723.5,1316.5C 814.428,1274.74 899.428,1223.91 978.5,1164C 1049.41,1109.76 1109.91,1045.93 1160,972.5C 1161.84,939.468 1164.17,906.468 1167,873.5C 1167.17,859 1167.33,844.5 1167.5,830C 1169.35,782.691 1164.18,736.191 1152,690.5C 1141.37,650.883 1122.2,616.216 1094.5,586.5C 1154.56,503.56 1152.9,421.893 1089.5,341.5 Z"/></g>
<g><path style="opacity:1" fill="#838383" d="M 1036.5,388.5 C 1040.18,388.335 1043.85,388.501 1047.5,389C 1059.89,403.144 1067.06,419.644 1069,438.5C 1071.04,480.573 1063.71,520.906 1047,559.5C 1026.35,542.428 1002.85,531.095 976.5,525.5C 978.034,492.326 984.867,460.326 997,429.5C 1003.04,414.55 1012.54,402.383 1025.5,393C 1029.05,390.879 1032.72,389.379 1036.5,388.5 Z"/></g>
<g><path style="opacity:1" fill="#fdfdfd" d="M 797.5,678.5 C 772.682,649.174 741.682,639.674 704.5,650C 672.927,663.287 651.427,686.12 640,718.5C 628.809,754.104 631.809,788.438 649,821.5C 679.544,866.927 719.377,877.594 768.5,853.5C 769.239,853.369 769.906,853.536 770.5,854C 738.346,885.788 700.68,894.788 657.5,881C 622.058,864.548 599.224,837.381 589,799.5C 573.81,737.091 589.644,684.258 636.5,641C 672.63,612.89 711.297,608.89 752.5,629C 772.922,641.223 787.922,657.723 797.5,678.5 Z"/></g>
<g><path style="opacity:1" fill="#0e0606" d="M 797.5,678.5 C 805.931,692.624 811.097,707.958 813,724.5C 818.564,771.111 806.397,812.278 776.5,848C 773.593,849.609 770.927,851.442 768.5,853.5C 719.377,877.594 679.544,866.927 649,821.5C 631.809,788.438 628.809,754.104 640,718.5C 651.427,686.12 672.927,663.287 704.5,650C 741.682,639.674 772.682,649.174 797.5,678.5 Z"/></g>
<g><path style="opacity:1" fill="#e8e8e8" d="M 374.5,785.5 C 385.94,792.728 397.273,800.228 408.5,808C 464.477,847.959 507.31,898.792 537,960.5C 570.979,1038.4 581.146,1119.4 567.5,1203.5C 491.116,1211.8 414.45,1213.3 337.5,1208C 259.387,1198.18 202.554,1158.34 167,1088.5C 146.909,1046.87 141.909,1003.54 152,958.5C 157.609,938.757 168.109,922.257 183.5,909C 250.287,872.297 313.954,831.131 374.5,785.5 Z"/></g>
<g><path style="opacity:1" fill="#090909" d="M 449.5,1071.5 C 452.238,1070.96 454.072,1071.96 455,1074.5C 459.063,1121.77 437.563,1142.6 390.5,1137C 368.512,1131.68 355.345,1117.84 351,1095.5C 349.821,1089.2 349.487,1082.87 350,1076.5C 352.333,1073.83 354.667,1073.83 357,1076.5C 357.758,1117.93 378.591,1135.43 419.5,1129C 434.857,1124.98 444.023,1115.14 447,1099.5C 448.548,1091.51 448.715,1083.51 447.5,1075.5C 447.752,1073.93 448.418,1072.59 449.5,1071.5 Z"/></g>
<g><path style="opacity:0.999" fill="#cbcbcb" d="M 784.5,1508.5 C 770.474,1474.43 757.807,1439.76 746.5,1404.5C 849.441,1358.56 945.441,1301.73 1034.5,1234C 1083.45,1195.73 1128.61,1153.23 1170,1106.5C 1170.33,1107.17 1170.67,1107.83 1171,1108.5C 1175.3,1124.06 1179.97,1139.4 1185,1154.5C 1075.79,1300.58 942.29,1418.58 784.5,1508.5 Z"/></g>
<g><path style="opacity:0.999" fill="#cbcbcb" d="M 892.5,1721.5 C 865.445,1680.07 841.445,1636.74 820.5,1591.5C 984.244,1499.47 1124.24,1379.14 1240.5,1230.5C 1248.98,1237.91 1257.65,1245.07 1266.5,1252C 1246.47,1296.24 1223.97,1339.07 1199,1380.5C 1117.34,1508.85 1016.5,1620.35 896.5,1715C 894.077,1716.57 892.744,1718.74 892.5,1721.5 Z"/></g>
<g><path style="opacity:0.999" fill="#cbcbcb" d="M 1348.5,1287.5 C 1364.58,1290.73 1380.58,1293.73 1396.5,1296.5C 1343.8,1440.23 1275.97,1576.23 1193,1704.5C 1163.9,1748.38 1134.06,1791.72 1103.5,1834.5C 1101.8,1833.46 1100.13,1833.46 1098.5,1834.5C 1097.52,1837.09 1097.19,1839.75 1097.5,1842.5C 1082.86,1861.48 1068.2,1880.48 1053.5,1899.5C 1051.74,1898.93 1050.08,1898.09 1048.5,1897C 1015.7,1870.04 985.37,1840.54 957.5,1808.5C 952.108,1803.44 947.441,1797.77 943.5,1791.5C 1032.92,1722.25 1113.42,1643.58 1185,1555.5C 1250.96,1473.59 1305.46,1384.25 1348.5,1287.5 Z"/></g>
<g><path style="opacity:0.714" fill="#8a8a8a" d="M 1396.5,1296.5 C 1405.37,1296.93 1414.04,1297.93 1422.5,1299.5C 1413.58,1299.47 1404.92,1298.47 1396.5,1296.5 Z"/></g>
<g><path style="opacity:1" fill="#000000" d="M 1396.5,1296.5 C 1404.92,1298.47 1413.58,1299.47 1422.5,1299.5C 1444.13,1301.34 1465.8,1302.68 1487.5,1303.5C 1436.03,1457.19 1366.53,1601.86 1279,1737.5C 1261.06,1765.11 1242.73,1792.44 1224,1819.5C 1192.17,1860.5 1157.67,1899.16 1120.5,1935.5C 1114.92,1901.92 1109.26,1868.25 1103.5,1834.5C 1134.06,1791.72 1163.9,1748.38 1193,1704.5C 1275.97,1576.23 1343.8,1440.23 1396.5,1296.5 Z"/></g>
<g><path style="opacity:0.999" fill="#cbcbcb" d="M 1878.5,1301.5 C 1877.9,1398.99 1870.73,1495.99 1857,1592.5C 1831.75,1762.7 1790.91,1929.03 1734.5,2091.5C 1734.5,2091.83 1734.5,2092.17 1734.5,2092.5C 1712.49,2090.72 1690.49,2088.72 1668.5,2086.5C 1728.09,1885 1765.25,1679.33 1780,1469.5C 1783.9,1413.89 1786.4,1358.23 1787.5,1302.5C 1817.83,1301.96 1848.16,1301.62 1878.5,1301.5 Z"/></g>
<g><path style="opacity:1" fill="#000000" d="M 1878.5,1301.5 C 1906.5,1301.5 1934.5,1301.5 1962.5,1301.5C 1964.26,1302.46 1966.26,1302.79 1968.5,1302.5C 1966.29,1465.71 1947.79,1627.04 1913,1786.5C 1890.14,1890.61 1861.97,1993.27 1828.5,2094.5C 1797.13,2094.58 1765.79,2093.58 1734.5,2091.5C 1790.91,1929.03 1831.75,1762.7 1857,1592.5C 1870.73,1495.99 1877.9,1398.99 1878.5,1301.5 Z"/></g>
<g><path style="opacity:0.999" fill="#cbcbcb" d="M 1962.5,1301.5 C 2015.15,1302.92 2067.48,1307.58 2119.5,1315.5C 2096.47,1494.41 2053.64,1668.41 1991,1837.5C 1957.38,1927.07 1915.55,2012.4 1865.5,2093.5C 1853.25,2094.48 1840.91,2094.81 1828.5,2094.5C 1861.97,1993.27 1890.14,1890.61 1913,1786.5C 1947.79,1627.04 1966.29,1465.71 1968.5,1302.5C 1966.26,1302.79 1964.26,1302.46 1962.5,1301.5 Z"/></g>
<g><path style="opacity:1" fill="#cbcbcb" d="M 1487.5,1303.5 C 1502.17,1304.12 1516.84,1304.79 1531.5,1305.5C 1518.95,1529.4 1488.45,1750.73 1440,1969.5C 1435.81,1987.61 1431.31,2005.61 1426.5,2023.5C 1425.83,1996.17 1425.17,1968.83 1424.5,1941.5C 1424.44,1939.28 1423.27,1938.28 1421,1938.5C 1419.3,1938.39 1418.13,1939.05 1417.5,1940.5C 1416.83,1985.5 1416.17,2030.5 1415.5,2075.5C 1330.27,2016.65 1235.6,1985.98 1131.5,1983.5C 1130.08,1982.55 1128.41,1982.22 1126.5,1982.5C 1124.42,1966.84 1122.42,1951.18 1120.5,1935.5C 1157.67,1899.16 1192.17,1860.5 1224,1819.5C 1242.73,1792.44 1261.06,1765.11 1279,1737.5C 1366.53,1601.86 1436.03,1457.19 1487.5,1303.5 Z"/></g>
<g><path style="opacity:1" fill="#000000" d="M 1787.5,1302.5 C 1786.4,1358.23 1783.9,1413.89 1780,1469.5C 1765.25,1679.33 1728.09,1885 1668.5,2086.5C 1638.04,2083.73 1607.71,2080.07 1577.5,2075.5C 1631.12,1900.9 1666.62,1722.56 1684,1540.5C 1691.26,1465.33 1695.76,1389.99 1697.5,1314.5C 1698.48,1311.71 1698.81,1308.71 1698.5,1305.5C 1705.35,1305.82 1712.02,1305.49 1718.5,1304.5C 1741.5,1303.85 1764.5,1303.18 1787.5,1302.5 Z"/></g>
<g><path style="opacity:0.999" fill="#cbcbcb" d="M 1697.5,1304.5 C 1697.5,1307.83 1697.5,1311.17 1697.5,1314.5C 1695.76,1389.99 1691.26,1465.33 1684,1540.5C 1666.62,1722.56 1631.12,1900.9 1577.5,2075.5C 1551.26,2071.79 1525.26,2067.46 1499.5,2062.5C 1500.83,2062.5 1502.17,2062.5 1503.5,2062.5C 1567.19,1814 1606.53,1561.66 1621.5,1305.5C 1646.84,1305.42 1672.17,1305.09 1697.5,1304.5 Z"/></g>
<g><path style="opacity:0.832" fill="#373737" d="M 1697.5,1304.5 C 1704.5,1304.5 1711.5,1304.5 1718.5,1304.5C 1712.02,1305.49 1705.35,1305.82 1698.5,1305.5C 1698.81,1308.71 1698.48,1311.71 1697.5,1314.5C 1697.5,1311.17 1697.5,1307.83 1697.5,1304.5 Z"/></g>
<g><path style="opacity:1" fill="#000000" d="M 1531.5,1305.5 C 1561.5,1305.5 1591.5,1305.5 1621.5,1305.5C 1606.53,1561.66 1567.19,1814 1503.5,2062.5C 1502.17,2062.5 1500.83,2062.5 1499.5,2062.5C 1474.9,2058.65 1450.57,2053.65 1426.5,2047.5C 1424.18,2041.4 1423.85,2035.07 1425.5,2028.5C 1425.63,2026.78 1425.96,2025.12 1426.5,2023.5C 1431.31,2005.61 1435.81,1987.61 1440,1969.5C 1488.45,1750.73 1518.95,1529.4 1531.5,1305.5 Z"/></g>
<g><path style="opacity:1" fill="#000000" d="M 2119.5,1315.5 C 2149.34,1319.63 2178.68,1325.96 2207.5,1334.5C 2176.25,1556.57 2111.58,1768.23 2013.5,1969.5C 2005.85,1949.57 2000.69,1928.91 1998,1907.5C 1996.27,1905.4 1994.27,1905.07 1992,1906.5C 1991.4,1915.99 1992.4,1925.32 1995,1934.5C 1998.6,1950.13 2003.1,1965.46 2008.5,1980.5C 1990.25,2016.67 1971.25,2052.34 1951.5,2087.5C 1922.97,2091.39 1894.31,2093.39 1865.5,2093.5C 1915.55,2012.4 1957.38,1927.07 1991,1837.5C 2053.64,1668.41 2096.47,1494.41 2119.5,1315.5 Z"/></g>
<g><path style="opacity:0.031" fill="#9c9c9c" d="M 723.5,1323.5 C 725.258,1326.85 726.258,1330.52 726.5,1334.5C 724.742,1331.15 723.742,1327.48 723.5,1323.5 Z"/></g>
<g><path style="opacity:0.999" fill="#cbcbcb" d="M 2207.5,1334.5 C 2267.64,1349.91 2321.64,1376.91 2369.5,1415.5C 2368.5,1415.5 2367.5,1415.5 2366.5,1415.5C 2339.86,1485.45 2309.36,1553.79 2275,1620.5C 2203.51,1758.24 2123.01,1889.9 2033.5,2015.5C 2025.75,2000.66 2019.08,1985.33 2013.5,1969.5C 2111.58,1768.23 2176.25,1556.57 2207.5,1334.5 Z"/></g>
<g><path style="opacity:0.059" fill="#929292" d="M 726.5,1334.5 C 728.258,1337.85 729.258,1341.52 729.5,1345.5C 727.742,1342.15 726.742,1338.48 726.5,1334.5 Z"/></g>
<g><path style="opacity:0.043" fill="#9b9b9b" d="M 729.5,1345.5 C 730.924,1347.51 731.59,1349.85 731.5,1352.5C 730.076,1350.49 729.41,1348.15 729.5,1345.5 Z"/></g>
<g><path style="opacity:0.043" fill="#979797" d="M 731.5,1352.5 C 732.924,1354.51 733.59,1356.85 733.5,1359.5C 732.076,1357.49 731.41,1355.15 731.5,1352.5 Z"/></g>
<g><path style="opacity:1" fill="#010101" d="M 2369.5,1415.5 C 2395.43,1436.09 2417.43,1460.09 2435.5,1487.5C 2396.25,1582.36 2348.41,1672.36 2292,1757.5C 2262.06,1803.11 2231.73,1848.44 2201,1893.5C 2155.51,1951.83 2108.34,2008.83 2059.5,2064.5C 2049.55,2048.94 2040.88,2032.6 2033.5,2015.5C 2123.01,1889.9 2203.51,1758.24 2275,1620.5C 2309.36,1553.79 2339.86,1485.45 2366.5,1415.5C 2367.5,1415.5 2368.5,1415.5 2369.5,1415.5 Z"/></g>
<g><path style="opacity:0.996" fill="#cbcbcb" d="M 2435.5,1487.5 C 2468.17,1531.29 2489.34,1580.29 2499,1634.5C 2536.68,1649.51 2569.68,1671.51 2598,1700.5C 2615.59,1720.68 2628.26,1743.68 2636,1769.5C 2643.53,1817.28 2656.19,1863.61 2674,1908.5C 2677.66,1916.31 2681.49,1923.97 2685.5,1931.5C 2680.19,1937.65 2675.02,1943.98 2670,1950.5C 2665.62,1957.27 2661.78,1964.27 2658.5,1971.5C 2627.02,1940.79 2605.19,1904.13 2593,1861.5C 2586.53,1834.43 2577.86,1808.09 2567,1782.5C 2556.21,1759.05 2540.38,1739.89 2519.5,1725C 2515.42,1722.3 2511.09,1720.13 2506.5,1718.5C 2506.05,1701.14 2504.55,1683.8 2502,1666.5C 2501.6,1663.3 2500.44,1660.47 2498.5,1658C 2495.45,1656.93 2493.45,1657.93 2492.5,1661C 2499.08,1693.94 2500.25,1727.11 2496,1760.5C 2495.27,1769.56 2494.1,1778.56 2492.5,1787.5C 2492.2,1790.84 2493.53,1793.18 2496.5,1794.5C 2493.88,1808.91 2490.88,1823.24 2487.5,1837.5C 2435.52,1851.99 2386.19,1872.83 2339.5,1900C 2241.82,1956.47 2153.15,2024.97 2073.5,2105.5C 2072.5,2104.17 2071.5,2102.83 2070.5,2101.5C 2069.83,2101.5 2069.5,2101.17 2069.5,2100.5C 2070.83,2100.17 2070.83,2099.83 2069.5,2099.5C 2066.4,2089.97 2062.74,2080.64 2058.5,2071.5C 2060.6,2069.42 2060.94,2067.08 2059.5,2064.5C 2108.34,2008.83 2155.51,1951.83 2201,1893.5C 2231.73,1848.44 2262.06,1803.11 2292,1757.5C 2348.41,1672.36 2396.25,1582.36 2435.5,1487.5 Z"/></g>
<g><path style="opacity:0.969" fill="#4f4f4f" d="M 2506.5,1718.5 C 2506.17,1743.33 2504,1768 2500,1792.5C 2498.89,1793.31 2497.72,1793.97 2496.5,1794.5C 2493.53,1793.18 2492.2,1790.84 2492.5,1787.5C 2494.1,1778.56 2495.27,1769.56 2496,1760.5C 2500.25,1727.11 2499.08,1693.94 2492.5,1661C 2493.45,1657.93 2495.45,1656.93 2498.5,1658C 2500.44,1660.47 2501.6,1663.3 2502,1666.5C 2504.55,1683.8 2506.05,1701.14 2506.5,1718.5 Z"/></g>
<g><path style="opacity:0.996" fill="#838383" d="M 957.5,1808.5 C 985.37,1840.54 1015.7,1870.04 1048.5,1897C 1050.08,1898.09 1051.74,1898.93 1053.5,1899.5C 1071.72,1915.02 1091.39,1928.69 1112.5,1940.5C 1114.93,1955.16 1117.43,1969.83 1120,1984.5C 1121.27,1985.88 1122.77,1986.88 1124.5,1987.5C 1129.29,2011.47 1133.96,2035.47 1138.5,2059.5C 1140.47,2066.69 1141.8,2074.02 1142.5,2081.5C 1108.73,2098.21 1076.73,2117.71 1046.5,2140C 1033.28,2150.55 1021.45,2162.39 1011,2175.5C 1005.29,2187.64 1003.96,2200.31 1007,2213.5C 1010.3,2225.07 1014.97,2236.07 1021,2246.5C 1026.94,2256.77 1033.27,2266.77 1040,2276.5C 1055.72,2297.89 1071.06,2319.56 1086,2341.5C 1094.1,2353.38 1099.77,2366.38 1103,2380.5C 1104.27,2400.43 1100.6,2419.43 1092,2437.5C 1061.75,2497.53 1012.92,2529.86 945.5,2534.5C 926.21,2535.37 916.543,2526.21 916.5,2507C 918.334,2490 920.334,2473 922.5,2456C 921.821,2447.12 919.654,2438.62 916,2430.5C 908.761,2415.68 900.761,2401.35 892,2387.5C 871.246,2357.66 850.246,2327.99 829,2298.5C 813.076,2275 798.41,2250.66 785,2225.5C 777.307,2210.23 772.807,2194.06 771.5,2177C 773.878,2157.87 778.711,2139.37 786,2121.5C 798.573,2091.69 812.24,2062.35 827,2033.5C 867.987,1956.84 911.487,1881.84 957.5,1808.5 Z"/></g>
<g><path style="opacity:1" fill="#4c4c4c" d="M 1103.5,1834.5 C 1109.26,1868.25 1114.92,1901.92 1120.5,1935.5C 1122.42,1951.18 1124.42,1966.84 1126.5,1982.5C 1128.41,1982.22 1130.08,1982.55 1131.5,1983.5C 1127.78,1982.68 1125.44,1984.01 1124.5,1987.5C 1122.77,1986.88 1121.27,1985.88 1120,1984.5C 1117.43,1969.83 1114.93,1955.16 1112.5,1940.5C 1107.75,1907.76 1102.75,1875.09 1097.5,1842.5C 1097.19,1839.75 1097.52,1837.09 1098.5,1834.5C 1100.13,1833.46 1101.8,1833.46 1103.5,1834.5 Z"/></g>
<g><path style="opacity:1" fill="#010101" d="M 2487.5,1837.5 C 2480.51,1868.45 2471.51,1898.79 2460.5,1928.5C 2376.06,1964.36 2298.4,2010.86 2227.5,2068C 2185.17,2102.49 2145.17,2139.66 2107.5,2179.5C 2095.64,2155.11 2084.3,2130.44 2073.5,2105.5C 2153.15,2024.97 2241.82,1956.47 2339.5,1900C 2386.19,1872.83 2435.52,1851.99 2487.5,1837.5 Z"/></g>
<g><path style="opacity:1" fill="#020202" d="M 1097.5,1842.5 C 1102.75,1875.09 1107.75,1907.76 1112.5,1940.5C 1091.39,1928.69 1071.72,1915.02 1053.5,1899.5C 1068.2,1880.48 1082.86,1861.48 1097.5,1842.5 Z"/></g>
<g><path style="opacity:1" fill="#4c4c4c" d="M 2013.5,1969.5 C 2019.08,1985.33 2025.75,2000.66 2033.5,2015.5C 2040.88,2032.6 2049.55,2048.94 2059.5,2064.5C 2060.94,2067.08 2060.6,2069.42 2058.5,2071.5C 2055.67,2071.31 2053,2070.64 2050.5,2069.5C 2050.92,2068.78 2051.58,2068.28 2052.5,2068C 2044.01,2053.52 2035.68,2039.02 2027.5,2024.5C 2021.15,2009.77 2014.82,1995.1 2008.5,1980.5C 2003.1,1965.46 1998.6,1950.13 1995,1934.5C 1992.4,1925.32 1991.4,1915.99 1992,1906.5C 1994.27,1905.07 1996.27,1905.4 1998,1907.5C 2000.69,1928.91 2005.85,1949.57 2013.5,1969.5 Z"/></g>
<g><path style="opacity:0.99" fill="#000000" d="M 2658.5,1971.5 C 2661.78,1964.27 2665.62,1957.27 2670,1950.5C 2675.02,1943.98 2680.19,1937.65 2685.5,1931.5C 2712.41,1908.69 2742.74,1902.85 2776.5,1914C 2814.38,1928.88 2843.21,1954.05 2863,1989.5C 2879.55,2020.66 2891.38,2053.32 2898.5,2087.5C 2860.08,2095.38 2821.25,2099.71 2782,2100.5C 2764.73,2100.15 2747.57,2098.65 2730.5,2096C 2672.01,2085.2 2646.18,2050.37 2653,1991.5C 2654.53,1984.73 2656.36,1978.07 2658.5,1971.5 Z"/></g>
<g><path style="opacity:0.997" fill="#cbcbcb" d="M 2460.5,1928.5 C 2452.56,1951.5 2443.72,1974.16 2434,1996.5C 2419.39,2028.39 2403.72,2059.72 2387,2090.5C 2381.03,2108 2378.19,2126 2378.5,2144.5C 2339.14,2153.84 2300.47,2165.68 2262.5,2180C 2219.11,2196.18 2176.45,2214.02 2134.5,2233.5C 2125.47,2215.48 2116.47,2197.48 2107.5,2179.5C 2145.17,2139.66 2185.17,2102.49 2227.5,2068C 2298.4,2010.86 2376.06,1964.36 2460.5,1928.5 Z"/></g>
<g><path style="opacity:0.965" fill="#4d4d4d" d="M 1424.5,1941.5 C 1424.17,1970.67 1424.5,1999.67 1425.5,2028.5C 1423.85,2035.07 1424.18,2041.4 1426.5,2047.5C 1425.67,2058.33 1425.17,2069.33 1425,2080.5C 1424.33,2081.83 1423.33,2082.83 1422,2083.5C 1421.5,2115.16 1421.33,2146.83 1421.5,2178.5C 1420.83,2178.5 1420.5,2178.17 1420.5,2177.5C 1420.83,2145.83 1420.5,2114.16 1419.5,2082.5C 1417.72,2080.98 1417.05,2078.98 1417.5,2076.5C 1417.5,2031.17 1417.5,1985.83 1417.5,1940.5C 1418.13,1939.05 1419.3,1938.39 1421,1938.5C 1423.27,1938.28 1424.44,1939.28 1424.5,1941.5 Z"/></g>
<g><path style="opacity:1" fill="#ababab" d="M 1424.5,1941.5 C 1425.17,1968.83 1425.83,1996.17 1426.5,2023.5C 1425.96,2025.12 1425.63,2026.78 1425.5,2028.5C 1424.5,1999.67 1424.17,1970.67 1424.5,1941.5 Z"/></g>
<g><path style="opacity:1" fill="#cacaca" d="M 2008.5,1980.5 C 2014.82,1995.1 2021.15,2009.77 2027.5,2024.5C 2013.59,2043.32 1999.92,2062.32 1986.5,2081.5C 1985.12,2082.8 1983.45,2083.63 1981.5,2084C 1971.48,2085.06 1961.48,2086.23 1951.5,2087.5C 1971.25,2052.34 1990.25,2016.67 2008.5,1980.5 Z"/></g>
<g><path style="opacity:1" fill="#000000" d="M 1131.5,1983.5 C 1235.6,1985.98 1330.27,2016.65 1415.5,2075.5C 1415.84,2076.34 1416.51,2076.67 1417.5,2076.5C 1417.05,2078.98 1417.72,2080.98 1419.5,2082.5C 1420.5,2114.16 1420.83,2145.83 1420.5,2177.5C 1341.63,2103.1 1247.63,2063.76 1138.5,2059.5C 1133.96,2035.47 1129.29,2011.47 1124.5,1987.5C 1125.44,1984.01 1127.78,1982.68 1131.5,1983.5 Z"/></g>
<g><path style="opacity:1" fill="#929292" d="M 1417.5,1940.5 C 1417.5,1985.83 1417.5,2031.17 1417.5,2076.5C 1416.51,2076.67 1415.84,2076.34 1415.5,2075.5C 1416.17,2030.5 1416.83,1985.5 1417.5,1940.5 Z"/></g>
<g><path style="opacity:1" fill="#010101" d="M 2027.5,2024.5 C 2035.68,2039.02 2044.01,2053.52 2052.5,2068C 2051.58,2068.28 2050.92,2068.78 2050.5,2069.5C 2030.02,2074.6 2009.35,2078.93 1988.5,2082.5C 1987.58,2082.46 1986.92,2082.12 1986.5,2081.5C 1999.92,2062.32 2013.59,2043.32 2027.5,2024.5 Z"/></g>
<g><path style="opacity:0.997" fill="#cbcbcb" d="M 1138.5,2059.5 C 1247.63,2063.76 1341.63,2103.1 1420.5,2177.5C 1420.5,2178.17 1420.83,2178.5 1421.5,2178.5C 1421.83,2194.68 1421.5,2210.68 1420.5,2226.5C 1421.1,2219.71 1420.43,2213.21 1418.5,2207C 1346.28,2181.59 1272.28,2174.59 1196.5,2186C 1185.04,2187.66 1173.71,2189.83 1162.5,2192.5C 1156.16,2155.44 1149.49,2118.44 1142.5,2081.5C 1141.8,2074.02 1140.47,2066.69 1138.5,2059.5 Z"/></g>
<g><path style="opacity:0.996" fill="#828282" d="M 2050.5,2069.5 C 2053,2070.64 2055.67,2071.31 2058.5,2071.5C 2062.74,2080.64 2066.4,2089.97 2069.5,2099.5C 2069.5,2099.83 2069.5,2100.17 2069.5,2100.5C 2069.5,2101.17 2069.83,2101.5 2070.5,2101.5C 2076.27,2161.39 2082.61,2221.22 2089.5,2281C 2088.31,2300.26 2084.81,2319.09 2079,2337.5C 2064.17,2381.32 2045.84,2423.65 2024,2464.5C 2001.43,2506.73 1978.43,2548.73 1955,2590.5C 1951.41,2598.02 1948.08,2605.69 1945,2613.5C 1934.14,2635.35 1916.64,2648.52 1892.5,2653C 1869.02,2657.23 1845.35,2658.56 1821.5,2657C 1799.05,2656.43 1777.05,2653.1 1755.5,2647C 1736.46,2639.23 1730.63,2625.73 1738,2606.5C 1748.92,2585.25 1764.42,2568.08 1784.5,2555C 1793.78,2545.63 1800.94,2534.79 1806,2522.5C 1817.12,2496.14 1826.45,2469.14 1834,2441.5C 1844.98,2400.92 1855.64,2360.26 1866,2319.5C 1875.04,2288.48 1870.38,2259.82 1852,2233.5C 1846.37,2226.21 1840.37,2219.21 1834,2212.5C 1818.6,2199.1 1804.6,2184.43 1792,2168.5C 1776.3,2144.44 1762.13,2119.44 1749.5,2093.5C 1744.54,2092.51 1739.54,2092.17 1734.5,2092.5C 1734.5,2092.17 1734.5,2091.83 1734.5,2091.5C 1765.79,2093.58 1797.13,2094.58 1828.5,2094.5C 1840.91,2094.81 1853.25,2094.48 1865.5,2093.5C 1894.31,2093.39 1922.97,2091.39 1951.5,2087.5C 1961.48,2086.23 1971.48,2085.06 1981.5,2084C 1983.45,2083.63 1985.12,2082.8 1986.5,2081.5C 1986.92,2082.12 1987.58,2082.46 1988.5,2082.5C 2009.35,2078.93 2030.02,2074.6 2050.5,2069.5 Z"/></g>
<g><path style="opacity:0.998" fill="#010101" d="M 2378.5,2144.5 C 2379.98,2169.85 2381.64,2195.18 2383.5,2220.5C 2346.62,2230.63 2310.29,2242.46 2274.5,2256C 2237.47,2270.69 2200.8,2286.19 2164.5,2302.5C 2157.22,2278.32 2147.22,2255.32 2134.5,2233.5C 2176.45,2214.02 2219.11,2196.18 2262.5,2180C 2300.47,2165.68 2339.14,2153.84 2378.5,2144.5 Z"/></g>
<g><path style="opacity:1" fill="#010101" d="M 1420.5,2226.5 C 1420.5,2229.5 1420.5,2232.5 1420.5,2235.5C 1419.83,2253.17 1419.17,2270.83 1418.5,2288.5C 1350.63,2258.58 1279.96,2249.41 1206.5,2261C 1195.98,2262.47 1185.65,2264.64 1175.5,2267.5C 1171.28,2242.51 1166.95,2217.51 1162.5,2192.5C 1173.71,2189.83 1185.04,2187.66 1196.5,2186C 1272.28,2174.59 1346.28,2181.59 1418.5,2207C 1420.43,2213.21 1421.1,2219.71 1420.5,2226.5 Z"/></g>
<g><path style="opacity:0.996" fill="#cbcbcb" d="M 2383.5,2220.5 C 2389.78,2262.45 2393.78,2304.62 2395.5,2347C 2394.92,2355.69 2393.92,2364.19 2392.5,2372.5C 2388.96,2370.73 2384.96,2369.9 2380.5,2370C 2326.3,2367.54 2272.3,2369.87 2218.5,2377C 2202.13,2379.36 2185.8,2381.86 2169.5,2384.5C 2172.07,2356.88 2170.4,2329.55 2164.5,2302.5C 2200.8,2286.19 2237.47,2270.69 2274.5,2256C 2310.29,2242.46 2346.62,2230.63 2383.5,2220.5 Z"/></g>
<g><path style="opacity:0.997" fill="#cbcbcb" d="M 1418.5,2288.5 C 1418.84,2289.34 1419.51,2289.67 1420.5,2289.5C 1419.9,2319.17 1419.23,2348.84 1418.5,2378.5C 1342.97,2361.48 1266.97,2359.14 1190.5,2371.5C 1185.51,2336.97 1180.51,2302.3 1175.5,2267.5C 1185.65,2264.64 1195.98,2262.47 1206.5,2261C 1279.96,2249.41 1350.63,2258.58 1418.5,2288.5 Z"/></g>
<g><path style="opacity:0.652" fill="#404040" d="M 1420.5,2235.5 C 1420.5,2253.5 1420.5,2271.5 1420.5,2289.5C 1419.51,2289.67 1418.84,2289.34 1418.5,2288.5C 1419.17,2270.83 1419.83,2253.17 1420.5,2235.5 Z"/></g>
<g><path style="opacity:0.999" fill="#010101" d="M 1418.5,2378.5 C 1417.93,2404.5 1417.27,2430.5 1416.5,2456.5C 1344.53,2437.41 1271.86,2434.41 1198.5,2447.5C 1195.32,2422.23 1192.65,2396.89 1190.5,2371.5C 1266.97,2359.14 1342.97,2361.48 1418.5,2378.5 Z"/></g>
<g><path style="opacity:1" fill="#010101" d="M 2392.5,2372.5 C 2389.11,2397.05 2382.78,2420.72 2373.5,2443.5C 2367.93,2444.45 2362.26,2444.79 2356.5,2444.5C 2291.41,2443.33 2227.08,2449.66 2163.5,2463.5C 2165.5,2437.17 2167.5,2410.83 2169.5,2384.5C 2185.8,2381.86 2202.13,2379.36 2218.5,2377C 2272.3,2369.87 2326.3,2367.54 2380.5,2370C 2384.96,2369.9 2388.96,2370.73 2392.5,2372.5 Z"/></g>
<g><path style="opacity:0.996" fill="#cbcbcb" d="M 1416.5,2456.5 C 1414.56,2513.29 1410.73,2569.96 1405,2626.5C 1403.26,2645.56 1399.59,2664.22 1394,2682.5C 1392.64,2685.9 1390.81,2688.9 1388.5,2691.5C 1371.91,2663.24 1351.58,2637.74 1327.5,2615C 1304.46,2594.99 1277.79,2582.66 1247.5,2578C 1231.93,2576.56 1216.6,2577.73 1201.5,2581.5C 1203.75,2536.78 1202.75,2492.11 1198.5,2447.5C 1271.86,2434.41 1344.53,2437.41 1416.5,2456.5 Z"/></g>
<g><path style="opacity:0.995" fill="#cbcbcb" d="M 2356.5,2444.5 C 2361.64,2445.49 2366.97,2445.82 2372.5,2445.5C 2358.63,2483.26 2342.13,2519.93 2323,2555.5C 2300.72,2597.75 2276.05,2638.41 2249,2677.5C 2243.76,2683.25 2237.6,2687.58 2230.5,2690.5C 2211.81,2646.14 2180.81,2613.48 2137.5,2592.5C 2150.36,2550.33 2159.03,2507.33 2163.5,2463.5C 2227.08,2449.66 2291.41,2443.33 2356.5,2444.5 Z"/></g>
<g><path style="opacity:1" fill="#545454" d="M 2373.5,2443.5 C 2373.67,2444.49 2373.34,2445.16 2372.5,2445.5C 2366.97,2445.82 2361.64,2445.49 2356.5,2444.5C 2362.26,2444.79 2367.93,2444.45 2373.5,2443.5 Z"/></g>
<g><path style="opacity:1" fill="#010101" d="M 1388.5,2691.5 C 1377.87,2698.22 1366.2,2702.72 1353.5,2705C 1300.56,2714.56 1247.56,2714.89 1194.5,2706C 1181.13,2703.88 1168.8,2699.21 1157.5,2692C 1151.82,2686.79 1149.15,2680.29 1149.5,2672.5C 1149.78,2664.15 1151.61,2656.15 1155,2648.5C 1167.06,2623.7 1182.56,2601.36 1201.5,2581.5C 1216.6,2577.73 1231.93,2576.56 1247.5,2578C 1277.79,2582.66 1304.46,2594.99 1327.5,2615C 1351.58,2637.74 1371.91,2663.24 1388.5,2691.5 Z"/></g>
<g><path style="opacity:0.999" fill="#020202" d="M 2137.5,2592.5 C 2180.81,2613.48 2211.81,2646.14 2230.5,2690.5C 2219.08,2695.36 2207.08,2698.53 2194.5,2700C 2159.15,2704.41 2124.49,2701.41 2090.5,2691C 2079.67,2687.67 2070.17,2682.17 2062,2674.5C 2051.37,2659.11 2052.37,2644.45 2065,2630.5C 2086.08,2612.21 2110.25,2599.54 2137.5,2592.5 Z"/></g>
</svg>
