<?xml version="1.0" encoding="UTF-8"?>
<!DOCTYPE svg PUBLIC "-//W3C//DTD SVG 1.1//EN" "http://www.w3.org/Graphics/SVG/1.1/DTD/svg11.dtd">
<svg xmlns="http://www.w3.org/2000/svg" version="1.1" width="3000px" height="3000px" style="shape-rendering:geometricPrecision; text-rendering:geometricPrecision; image-rendering:optimizeQuality; fill-rule:evenodd; clip-rule:evenodd" xmlns:xlink="http://www.w3.org/1999/xlink">
<g><path style="opacity:0.999" fill="#df7076" d="M 2717.5,1167.5 C 2715.1,1167.61 2713.26,1166.61 2712,1164.5C 2708.92,1159.34 2705.58,1154.34 2702,1149.5C 2691.77,1138.8 2682.61,1127.47 2674.5,1115.5C 2672.07,1115.73 2670.4,1114.73 2669.5,1112.5C 2664.89,1106.22 2659.56,1100.56 2653.5,1095.5C 2650.61,1091.11 2646.95,1087.61 2642.5,1085C 2631.51,1075.01 2620.84,1064.68 2610.5,1054C 2603.2,1048.71 2595.86,1043.37 2588.5,1038C 2584.11,1033.94 2579.77,1029.94 2575.5,1026C 2548.57,1007.67 2521.57,989.339 2494.5,971C 2487.43,968.587 2481.09,964.92 2475.5,960C 2469.65,957.486 2464.32,954.153 2459.5,950C 2447.15,945.315 2435.48,939.315 2424.5,932C 2420.28,930.934 2416.61,928.934 2413.5,926C 2392.22,916.342 2371.22,906.342 2350.5,896C 2343.18,893.811 2336.18,890.978 2329.5,887.5C 2324.15,883.49 2318.15,880.824 2311.5,879.5C 2304.45,875.452 2297.12,871.952 2289.5,869C 2285.59,867.645 2281.59,866.645 2277.5,866C 2275.48,865.101 2273.82,863.767 2272.5,862C 2266.07,860.517 2259.74,859.017 2253.5,857.5C 2253.5,856.5 2253.5,855.5 2253.5,854.5C 2254.92,854.25 2255.92,853.417 2256.5,852C 2263.83,850.357 2271.16,848.857 2278.5,847.5C 2278.5,846.5 2278.5,845.5 2278.5,844.5C 2280.86,844.663 2283.19,844.497 2285.5,844C 2295.38,839.777 2305.71,836.61 2316.5,834.5C 2316.71,833.914 2317.04,833.414 2317.5,833C 2330.07,830.052 2342.4,826.552 2354.5,822.5C 2354.71,821.914 2355.04,821.414 2355.5,821C 2363.19,819.332 2370.52,816.999 2377.5,814C 2384.68,811.638 2392.01,810.138 2399.5,809.5C 2399.5,808.5 2399.5,807.5 2399.5,806.5C 2406.89,805.066 2414.22,803.733 2421.5,802.5C 2421.5,801.5 2421.5,800.5 2421.5,799.5C 2426.88,798.862 2432.21,797.862 2437.5,796.5C 2437.71,795.914 2438.04,795.414 2438.5,795C 2445.91,793.507 2452.91,791.174 2459.5,788C 2467.05,785.816 2474.72,784.316 2482.5,783.5C 2482.5,782.5 2482.5,781.5 2482.5,780.5C 2502.26,775.284 2521.92,769.617 2541.5,763.5C 2541.71,762.914 2542.04,762.414 2542.5,762C 2555.15,759.029 2567.48,755.529 2579.5,751.5C 2579.71,750.914 2580.04,750.414 2580.5,750C 2588.29,748.684 2595.62,746.35 2602.5,743C 2609.87,741.343 2617.21,739.51 2624.5,737.5C 2624.71,736.914 2625.04,736.414 2625.5,736C 2630.96,735.35 2635.96,733.683 2640.5,731C 2647.83,729.491 2655.16,727.657 2662.5,725.5C 2662.71,724.914 2663.04,724.414 2663.5,724C 2670.45,722.178 2677.45,720.678 2684.5,719.5C 2684.5,718.5 2684.5,717.5 2684.5,716.5C 2689.88,715.862 2695.21,714.862 2700.5,713.5C 2700.71,712.914 2701.04,712.414 2701.5,712C 2709.22,710.702 2716.55,708.368 2723.5,705C 2736.17,702.137 2748.51,698.637 2760.5,694.5C 2763.5,693.833 2766.5,693.167 2769.5,692.5C 2785.17,691.167 2800.83,691.167 2816.5,692.5C 2823.68,693.675 2830.68,695.508 2837.5,698C 2841.09,700.948 2845.09,703.281 2849.5,705C 2851.8,708.147 2854.8,710.314 2858.5,711.5C 2859.64,714.316 2861.64,715.982 2864.5,716.5C 2864.28,717.675 2864.61,718.675 2865.5,719.5C 2869.33,722.503 2872.83,725.837 2876,729.5C 2878.24,732.895 2879.74,736.561 2880.5,740.5C 2882.59,740.561 2884.09,741.561 2885,743.5C 2888.81,751.448 2891.64,759.782 2893.5,768.5C 2894.09,768.709 2894.59,769.043 2895,769.5C 2895.83,777.665 2896.67,785.831 2897.5,794C 2896.5,802.149 2895.84,810.316 2895.5,818.5C 2894.5,818.5 2893.5,818.5 2892.5,818.5C 2892.21,825.427 2890.71,832.094 2888,838.5C 2881.11,850.491 2874.94,862.825 2869.5,875.5C 2868.5,875.5 2867.5,875.5 2866.5,875.5C 2866.07,878.564 2865.41,881.564 2864.5,884.5C 2863.5,884.5 2862.5,884.5 2861.5,884.5C 2860.55,889.309 2859.05,893.976 2857,898.5C 2853.44,904.816 2849.94,911.149 2846.5,917.5C 2845.55,919.045 2845.21,920.712 2845.5,922.5C 2844.5,922.5 2843.5,922.5 2842.5,922.5C 2841.4,927.238 2840.07,931.905 2838.5,936.5C 2837.5,936.5 2836.5,936.5 2835.5,936.5C 2835.22,939.632 2834.38,942.632 2833,945.5C 2828.35,954.506 2823.85,963.506 2819.5,972.5C 2818.5,972.5 2817.5,972.5 2816.5,972.5C 2815.17,977.167 2813.83,981.833 2812.5,986.5C 2811.5,986.5 2810.5,986.5 2809.5,986.5C 2808.4,991.238 2807.07,995.905 2805.5,1000.5C 2804.5,1000.5 2803.5,1000.5 2802.5,1000.5C 2801.83,1003.83 2801.17,1007.17 2800.5,1010.5C 2799.5,1010.5 2798.5,1010.5 2797.5,1010.5C 2796.17,1015.17 2794.83,1019.83 2793.5,1024.5C 2792.5,1024.5 2791.5,1024.5 2790.5,1024.5C 2790.22,1027.63 2789.38,1030.63 2788,1033.5C 2783.34,1042.8 2778.67,1052.13 2774,1061.5C 2770.01,1064.87 2767.85,1069.21 2767.5,1074.5C 2766.5,1074.5 2765.5,1074.5 2764.5,1074.5C 2764.07,1077.56 2763.41,1080.56 2762.5,1083.5C 2761.5,1083.5 2760.5,1083.5 2759.5,1083.5C 2758.55,1088.31 2757.05,1092.98 2755,1097.5C 2749.87,1107.27 2744.7,1116.94 2739.5,1126.5C 2738.13,1129.42 2737.13,1132.42 2736.5,1135.5C 2735.5,1135.5 2734.5,1135.5 2733.5,1135.5C 2732.55,1140.31 2731.05,1144.98 2729,1149.5C 2725.73,1155.92 2721.9,1161.92 2717.5,1167.5 Z"/></g>
<g><path style="opacity:0.991" fill="#2975b9" d="M 2251.5,854.5 C 2251.9,856.966 2253.07,858.966 2255,860.5C 2261.87,862.469 2268.7,864.303 2275.5,866C 2277.93,867.145 2280.26,868.478 2282.5,870C 2292.32,872.884 2301.99,876.051 2311.5,879.5C 2312.9,880.931 2314.57,882.098 2316.5,883C 2321.07,883.96 2325.41,885.46 2329.5,887.5C 2336.18,890.978 2343.18,893.811 2350.5,896C 2371.22,906.342 2392.22,916.342 2413.5,926C 2416.61,928.934 2420.28,930.934 2424.5,932C 2435.48,939.315 2447.15,945.315 2459.5,950C 2464.32,954.153 2469.65,957.486 2475.5,960C 2481.09,964.92 2487.43,968.587 2494.5,971C 2521.57,989.339 2548.57,1007.67 2575.5,1026C 2579.77,1029.94 2584.11,1033.94 2588.5,1038C 2595.86,1043.37 2603.2,1048.71 2610.5,1054C 2620.84,1064.68 2631.51,1075.01 2642.5,1085C 2646.95,1087.61 2650.61,1091.11 2653.5,1095.5C 2658.08,1101.75 2663.41,1107.42 2669.5,1112.5C 2670.4,1114.73 2672.07,1115.73 2674.5,1115.5C 2682.61,1127.47 2691.77,1138.8 2702,1149.5C 2705.58,1154.34 2708.92,1159.34 2712,1164.5C 2713.26,1166.61 2715.1,1167.61 2717.5,1167.5C 2720.56,1171.28 2723.4,1175.28 2726,1179.5C 2726.49,1180.79 2726.66,1182.13 2726.5,1183.5C 2727.5,1183.5 2728.5,1183.5 2729.5,1183.5C 2730.83,1187.5 2732.17,1191.5 2733.5,1195.5C 2734.5,1195.5 2735.5,1195.5 2736.5,1195.5C 2736.47,1198.08 2737.13,1200.41 2738.5,1202.5C 2735.81,1203.78 2733.15,1203.44 2730.5,1201.5C 2710.6,1189.72 2690.6,1178.22 2670.5,1167C 2657.41,1161.63 2644.74,1155.3 2632.5,1148C 2630.83,1147.67 2629.17,1147.33 2627.5,1147C 2611.13,1136.43 2593.79,1127.76 2575.5,1121C 2573.34,1119.09 2571.01,1117.42 2568.5,1116C 2560.02,1111.84 2551.35,1108.17 2542.5,1105C 2530.16,1098.5 2517.83,1092 2505.5,1085.5C 2493.98,1082.07 2482.98,1077.57 2472.5,1072C 2459.63,1067.55 2447.3,1061.89 2435.5,1055C 2401.95,1041.73 2368.29,1028.73 2334.5,1016C 2328.84,1011.94 2322.51,1009.77 2315.5,1009.5C 2315.5,1008.5 2315.5,1007.5 2315.5,1006.5C 2299.79,1002.57 2284.46,997.403 2269.5,991C 2245.98,984.467 2222.98,976.467 2200.5,967C 2192.77,965.792 2185.44,963.458 2178.5,960C 2169.8,958.949 2161.47,956.615 2153.5,953C 2132.15,946.886 2110.82,940.553 2089.5,934C 2076.41,931.476 2063.41,928.143 2050.5,924C 2025.63,918.701 2001.29,912.368 1977.5,905C 1966.68,903.527 1956.02,901.36 1945.5,898.5C 1924.45,895.39 1903.45,891.557 1882.5,887C 1873.68,885.295 1864.68,884.295 1855.5,884C 1854.83,883.333 1854.17,882.667 1853.5,882C 1821.6,876.843 1789.6,871.843 1757.5,867C 1755.62,866.784 1753.95,866.117 1752.5,865C 1707.41,860.954 1662.41,856.287 1617.5,851C 1584.53,848.868 1551.53,847.368 1518.5,846.5C 1461.33,845.335 1404,845.168 1346.5,846C 1301.57,849.153 1256.57,852.153 1211.5,855C 1166.61,861.573 1121.61,867.24 1076.5,872C 1075.83,872.667 1075.17,873.333 1074.5,874C 1065.15,874.668 1055.82,875.501 1046.5,876.5C 1041.88,878.105 1037.21,879.605 1032.5,881C 1014.19,884.551 995.856,887.884 977.5,891C 975.347,891.099 973.681,891.933 972.5,893.5C 954.484,895.37 936.817,898.87 919.5,904C 899.771,906.97 880.437,911.636 861.5,918C 848.343,920.264 835.343,922.931 822.5,926C 817.388,929.257 811.721,930.923 805.5,931C 798.639,934.227 791.305,936.56 783.5,938C 779.581,939.862 775.581,941.529 771.5,943C 747.845,948.253 724.845,955.253 702.5,964C 679.709,971.042 657.043,978.708 634.5,987C 626.204,988.051 618.537,990.717 611.5,995C 604.044,996.107 597.044,998.274 590.5,1001.5C 590.5,1002.5 590.5,1003.5 590.5,1004.5C 584.371,1006.89 578.038,1008.72 571.5,1010C 565.145,1013.34 558.478,1015.67 551.5,1017C 525.874,1028.32 500.541,1039.82 475.5,1051.5C 455.003,1057.92 435.336,1066.25 416.5,1076.5C 405.525,1079.99 395.191,1084.82 385.5,1091C 382.379,1092.61 379.046,1093.44 375.5,1093.5C 375.5,1094.5 375.5,1095.5 375.5,1096.5C 372.413,1098.02 369.079,1098.68 365.5,1098.5C 365.5,1099.5 365.5,1100.5 365.5,1101.5C 358.032,1105.12 350.365,1108.29 342.5,1111C 337.528,1116.09 331.528,1119.42 324.5,1121C 311.216,1128.81 297.549,1135.81 283.5,1142C 277.094,1146.19 270.761,1150.53 264.5,1155C 262.833,1155.33 261.167,1155.67 259.5,1156C 255.193,1159.09 250.527,1161.59 245.5,1163.5C 243.703,1164.7 242.703,1166.36 242.5,1168.5C 236.63,1169.87 231.296,1172.37 226.5,1176C 224.866,1176.49 223.199,1176.66 221.5,1176.5C 221.5,1177.5 221.5,1178.5 221.5,1179.5C 215.89,1182.06 210.223,1184.73 204.5,1187.5C 187.989,1198.29 171.322,1208.79 154.5,1219C 153.207,1219.49 151.873,1219.66 150.5,1219.5C 150.719,1220.68 150.386,1221.68 149.5,1222.5C 146.314,1223.59 143.647,1225.43 141.5,1228C 138.986,1229.25 136.32,1229.75 133.5,1229.5C 137.614,1221.61 141.447,1213.61 145,1205.5C 148.613,1202.33 150.946,1198.33 152,1193.5C 153.314,1192.69 154.481,1191.69 155.5,1190.5C 158.229,1185.13 160.896,1179.8 163.5,1174.5C 164.5,1174.5 165.5,1174.5 166.5,1174.5C 167.833,1171.17 169.167,1167.83 170.5,1164.5C 174.065,1163.68 176.065,1161.34 176.5,1157.5C 177.524,1156.15 178.857,1155.48 180.5,1155.5C 181.31,1153.2 182.144,1150.87 183,1148.5C 186.482,1146.36 188.815,1143.36 190,1139.5C 195.785,1134.67 200.452,1129 204,1122.5C 206.142,1120.17 208.642,1118.51 211.5,1117.5C 212.5,1113.83 214.833,1111.5 218.5,1110.5C 220.542,1105.18 223.709,1100.51 228,1096.5C 234.652,1090.35 241.152,1084.01 247.5,1077.5C 250.541,1075.77 253.541,1074.1 256.5,1072.5C 257.5,1068.83 259.833,1066.5 263.5,1065.5C 263.48,1063.86 264.147,1062.52 265.5,1061.5C 267.986,1060.18 269.986,1058.35 271.5,1056C 272.938,1055.78 274.271,1055.28 275.5,1054.5C 278.503,1050.67 281.837,1047.17 285.5,1044C 289.87,1042.12 293.537,1039.28 296.5,1035.5C 298.045,1034.55 299.712,1034.21 301.5,1034.5C 301.976,1032.01 303.31,1030.01 305.5,1028.5C 313.152,1023.17 320.486,1017.51 327.5,1011.5C 331.343,1011.07 333.676,1009.07 334.5,1005.5C 338.5,1004.17 342.5,1002.83 346.5,1001.5C 346.48,999.857 347.147,998.524 348.5,997.5C 354.212,993.472 359.878,989.472 365.5,985.5C 368.252,983.664 371.252,982.664 374.5,982.5C 374.5,981.5 374.5,980.5 374.5,979.5C 379.514,977.519 384.181,974.852 388.5,971.5C 390.045,970.548 391.712,970.215 393.5,970.5C 393.5,969.5 393.5,968.5 393.5,967.5C 397.302,965.6 401.302,964.267 405.5,963.5C 405.561,961.408 406.561,959.908 408.5,959C 411.368,957.617 414.368,956.784 417.5,956.5C 417.281,955.325 417.614,954.325 418.5,953.5C 424.609,949.449 431.276,946.449 438.5,944.5C 438.5,943.5 438.5,942.5 438.5,941.5C 443.411,940.367 447.745,938.201 451.5,935C 454.368,933.617 457.368,932.784 460.5,932.5C 460.5,931.5 460.5,930.5 460.5,929.5C 465.095,927.929 469.762,926.596 474.5,925.5C 474.5,924.5 474.5,923.5 474.5,922.5C 479.167,921.167 483.833,919.833 488.5,918.5C 488.5,917.5 488.5,916.5 488.5,915.5C 493.238,914.404 497.905,913.071 502.5,911.5C 502.5,910.5 502.5,909.5 502.5,908.5C 505.833,907.833 509.167,907.167 512.5,906.5C 512.5,905.5 512.5,904.5 512.5,903.5C 518.13,902.683 523.13,900.516 527.5,897C 532.844,895.425 538.178,893.925 543.5,892.5C 543.5,891.5 543.5,890.5 543.5,889.5C 547.056,888.399 550.723,887.399 554.5,886.5C 559.526,882.893 565.192,880.893 571.5,880.5C 571.5,879.5 571.5,878.5 571.5,877.5C 577.167,876.167 582.833,874.833 588.5,873.5C 588.5,872.5 588.5,871.5 588.5,870.5C 590.924,870.808 593.257,870.474 595.5,869.5C 603.681,866.239 611.681,862.739 619.5,859C 630.659,855.779 641.659,852.279 652.5,848.5C 659.078,845.454 665.744,842.621 672.5,840C 679.078,838 685.744,836.5 692.5,835.5C 692.5,834.5 692.5,833.5 692.5,832.5C 699.619,831.467 706.619,829.801 713.5,827.5C 713.709,826.914 714.043,826.414 714.5,826C 717.553,825.821 720.553,825.321 723.5,824.5C 730.178,821.643 737.178,819.309 744.5,817.5C 747.768,816.513 751.102,816.18 754.5,816.5C 754.5,815.5 754.5,814.5 754.5,813.5C 770.394,808.619 786.728,804.785 803.5,802C 803.957,801.586 804.291,801.086 804.5,800.5C 810.5,799.167 816.5,797.833 822.5,796.5C 822.709,795.914 823.043,795.414 823.5,795C 832.775,793.03 842.109,791.53 851.5,790.5C 851.5,789.5 851.5,788.5 851.5,787.5C 861.741,786.172 872.075,784.838 882.5,783.5C 882.5,782.5 882.5,781.5 882.5,780.5C 901.266,776.752 920.266,773.752 939.5,771.5C 939.5,770.5 939.5,769.5 939.5,768.5C 952.151,766.986 964.818,765.653 977.5,764.5C 977.5,763.5 977.5,762.5 977.5,761.5C 990.813,759.979 1004.15,758.646 1017.5,757.5C 1017.5,756.5 1017.5,755.5 1017.5,754.5C 1038.62,751.529 1059.95,748.862 1081.5,746.5C 1087.8,745.504 1094.13,745.17 1100.5,745.5C 1100.5,744.5 1100.5,743.5 1100.5,742.5C 1120.2,741.356 1139.87,739.69 1159.5,737.5C 1159.71,736.914 1160.04,736.414 1160.5,736C 1177.5,734.928 1194.5,733.762 1211.5,732.5C 1211.71,731.914 1212.04,731.414 1212.5,731C 1233.98,730.021 1255.31,728.688 1276.5,727C 1292.16,726.5 1307.83,726.333 1323.5,726.5C 1323.5,725.5 1323.5,724.5 1323.5,723.5C 1363.48,723.917 1403.32,723.25 1443,721.5C 1483.49,723.033 1523.99,723.7 1564.5,723.5C 1564.5,724.5 1564.5,725.5 1564.5,726.5C 1601.53,727.113 1638.53,728.613 1675.5,731C 1675.96,731.414 1676.29,731.914 1676.5,732.5C 1713.22,736.504 1750.22,739.837 1787.5,742.5C 1787.5,743.5 1787.5,744.5 1787.5,745.5C 1793.87,745.17 1800.2,745.504 1806.5,746.5C 1827.36,748.642 1848.03,751.309 1868.5,754.5C 1868.5,755.5 1868.5,756.5 1868.5,757.5C 1882.52,758.67 1896.52,760.17 1910.5,762C 1910.96,762.414 1911.29,762.914 1911.5,763.5C 1923.88,765.71 1936.21,767.543 1948.5,769C 1948.96,769.414 1949.29,769.914 1949.5,770.5C 1960.15,772.442 1970.82,774.275 1981.5,776C 1981.96,776.414 1982.29,776.914 1982.5,777.5C 1989.62,778.444 1996.62,779.444 2003.5,780.5C 2003.5,781.5 2003.5,782.5 2003.5,783.5C 2013.87,784.546 2024.21,785.879 2034.5,787.5C 2034.5,788.5 2034.5,789.5 2034.5,790.5C 2047.52,791.319 2060.19,793.985 2072.5,798.5C 2075.43,799.484 2078.43,799.817 2081.5,799.5C 2081.5,800.5 2081.5,801.5 2081.5,802.5C 2090.24,803.405 2098.9,804.738 2107.5,806.5C 2107.5,807.5 2107.5,808.5 2107.5,809.5C 2115.94,810.314 2124.27,811.814 2132.5,814C 2132.96,814.414 2133.29,814.914 2133.5,815.5C 2146.35,818.63 2159.01,821.963 2171.5,825.5C 2171.5,826.5 2171.5,827.5 2171.5,828.5C 2179.27,829.392 2186.93,830.892 2194.5,833C 2194.96,833.414 2195.29,833.914 2195.5,834.5C 2204.55,836.559 2213.22,839.559 2221.5,843.5C 2223.74,844.474 2226.08,844.808 2228.5,844.5C 2228.5,845.5 2228.5,846.5 2228.5,847.5C 2235.62,848.68 2242.62,850.18 2249.5,852C 2250.07,852.995 2250.73,853.828 2251.5,854.5 Z"/></g>
<g><path style="opacity:1" fill="#69a3d7" d="M 1518.5,846.5 C 1551.53,847.368 1584.53,848.868 1617.5,851C 1662.41,856.287 1707.41,860.954 1752.5,865C 1753.95,866.117 1755.62,866.784 1757.5,867C 1789.6,871.843 1821.6,876.843 1853.5,882C 1854.17,882.667 1854.83,883.333 1855.5,884C 1864.68,884.295 1873.68,885.295 1882.5,887C 1903.45,891.557 1924.45,895.39 1945.5,898.5C 1956.02,901.36 1966.68,903.527 1977.5,905C 2001.29,912.368 2025.63,918.701 2050.5,924C 2063.41,928.143 2076.41,931.476 2089.5,934C 2110.82,940.553 2132.15,946.886 2153.5,953C 2161.47,956.615 2169.8,958.949 2178.5,960C 2185.44,963.458 2192.77,965.792 2200.5,967C 2222.98,976.467 2245.98,984.467 2269.5,991C 2284.46,997.403 2299.79,1002.57 2315.5,1006.5C 2315.5,1007.5 2315.5,1008.5 2315.5,1009.5C 2322.51,1009.77 2328.84,1011.94 2334.5,1016C 2368.29,1028.73 2401.95,1041.73 2435.5,1055C 2447.3,1061.89 2459.63,1067.55 2472.5,1072C 2482.98,1077.57 2493.98,1082.07 2505.5,1085.5C 2517.83,1092 2530.16,1098.5 2542.5,1105C 2551.35,1108.17 2560.02,1111.84 2568.5,1116C 2571.01,1117.42 2573.34,1119.09 2575.5,1121C 2593.79,1127.76 2611.13,1136.43 2627.5,1147C 2629.17,1147.33 2630.83,1147.67 2632.5,1148C 2644.74,1155.3 2657.41,1161.63 2670.5,1167C 2690.6,1178.22 2710.6,1189.72 2730.5,1201.5C 2733.15,1203.44 2735.81,1203.78 2738.5,1202.5C 2739.38,1202.37 2740.04,1202.7 2740.5,1203.5C 2745.56,1212.73 2750.4,1222.06 2755,1231.5C 2757.53,1236.57 2759.03,1241.9 2759.5,1247.5C 2760.5,1247.5 2761.5,1247.5 2762.5,1247.5C 2763.53,1251.43 2764.19,1255.43 2764.5,1259.5C 2765.5,1259.5 2766.5,1259.5 2767.5,1259.5C 2769.19,1265.75 2770.52,1272.09 2771.5,1278.5C 2772.5,1278.5 2773.5,1278.5 2774.5,1278.5C 2774.5,1281.5 2774.5,1284.5 2774.5,1287.5C 2774.5,1288.5 2774.5,1289.5 2774.5,1290.5C 2762.59,1287.8 2750.59,1285.46 2738.5,1283.5C 2730.63,1280.89 2722.63,1278.72 2714.5,1277C 2678.93,1271.68 2643.6,1265.35 2608.5,1258C 2603.31,1256.79 2598.31,1255.12 2593.5,1253C 2575.45,1250.87 2557.45,1248.53 2539.5,1246C 2534.93,1244.52 2530.26,1243.35 2525.5,1242.5C 2494.54,1238.76 2463.88,1233.93 2433.5,1228C 2417.37,1226.32 2401.37,1223.99 2385.5,1221C 2368.3,1220.16 2351.3,1217.83 2334.5,1214C 2295.69,1209.31 2257.03,1204.31 2218.5,1199C 2162.13,1194.07 2105.8,1188.74 2049.5,1183C 1991.2,1178.57 1932.86,1174.57 1874.5,1171C 1855.52,1169.67 1836.52,1168.83 1817.5,1168.5C 1761.04,1164.94 1704.38,1162.61 1647.5,1161.5C 1555.33,1160.17 1463.33,1160.17 1371.5,1161.5C 1339.5,1162.02 1307.5,1162.69 1275.5,1163.5C 1243.5,1164.33 1211.5,1165.17 1179.5,1166C 1126.19,1169.48 1072.86,1172.48 1019.5,1175C 1004.86,1176.65 990.194,1177.98 975.5,1179C 945.481,1180.35 915.481,1182.02 885.5,1184C 882.957,1184.14 880.623,1184.81 878.5,1186C 864.789,1186.44 851.122,1187.44 837.5,1189C 832.985,1189.61 828.652,1190.45 824.5,1191.5C 734.46,1201.47 644.46,1210.97 554.5,1220C 542.215,1222.06 529.881,1224.39 517.5,1227C 440.219,1237.08 363.219,1248.41 286.5,1261C 269.305,1264.62 251.972,1267.62 234.5,1270C 233.672,1270.91 232.672,1271.58 231.5,1272C 211.633,1276.21 191.633,1279.54 171.5,1282C 168.417,1283.92 165.083,1285.25 161.5,1286C 144.365,1289.98 127.032,1293.14 109.5,1295.5C 111.237,1289.27 112.737,1282.94 114,1276.5C 114.414,1276.04 114.914,1275.71 115.5,1275.5C 119.283,1265.7 122.617,1255.7 125.5,1245.5C 126.5,1245.5 127.5,1245.5 128.5,1245.5C 128.897,1239.69 130.564,1234.36 133.5,1229.5C 136.32,1229.75 138.986,1229.25 141.5,1228C 143.647,1225.43 146.314,1223.59 149.5,1222.5C 150.386,1221.68 150.719,1220.68 150.5,1219.5C 151.873,1219.66 153.207,1219.49 154.5,1219C 171.322,1208.79 187.989,1198.29 204.5,1187.5C 210.223,1184.73 215.89,1182.06 221.5,1179.5C 221.5,1178.5 221.5,1177.5 221.5,1176.5C 223.199,1176.66 224.866,1176.49 226.5,1176C 231.296,1172.37 236.63,1169.87 242.5,1168.5C 242.703,1166.36 243.703,1164.7 245.5,1163.5C 250.527,1161.59 255.193,1159.09 259.5,1156C 261.167,1155.67 262.833,1155.33 264.5,1155C 270.761,1150.53 277.094,1146.19 283.5,1142C 297.549,1135.81 311.216,1128.81 324.5,1121C 331.528,1119.42 337.528,1116.09 342.5,1111C 350.365,1108.29 358.032,1105.12 365.5,1101.5C 365.5,1100.5 365.5,1099.5 365.5,1098.5C 369.079,1098.68 372.413,1098.02 375.5,1096.5C 375.5,1095.5 375.5,1094.5 375.5,1093.5C 379.046,1093.44 382.379,1092.61 385.5,1091C 395.191,1084.82 405.525,1079.99 416.5,1076.5C 435.336,1066.25 455.003,1057.92 475.5,1051.5C 500.541,1039.82 525.874,1028.32 551.5,1017C 558.478,1015.67 565.145,1013.34 571.5,1010C 578.038,1008.72 584.371,1006.89 590.5,1004.5C 590.5,1003.5 590.5,1002.5 590.5,1001.5C 597.044,998.274 604.044,996.107 611.5,995C 618.537,990.717 626.204,988.051 634.5,987C 657.043,978.708 679.709,971.042 702.5,964C 724.845,955.253 747.845,948.253 771.5,943C 775.581,941.529 779.581,939.862 783.5,938C 791.305,936.56 798.639,934.227 805.5,931C 811.721,930.923 817.388,929.257 822.5,926C 835.343,922.931 848.343,920.264 861.5,918C 880.437,911.636 899.771,906.97 919.5,904C 936.817,898.87 954.484,895.37 972.5,893.5C 983.219,892.047 993.886,890.547 1004.5,889C 1008.02,887.904 1011.69,887.071 1015.5,886.5C 1015.71,885.914 1016.04,885.414 1016.5,885C 1029.58,884.118 1042.25,881.451 1054.5,877C 1063.5,876.286 1072.5,875.619 1081.5,875C 1120.15,868.68 1159.15,863.346 1198.5,859C 1215.05,857.524 1231.72,856.524 1248.5,856C 1259.93,855.09 1271.27,853.757 1282.5,852C 1315.41,850.119 1348.41,849.119 1381.5,849C 1382.31,848.692 1382.97,848.192 1383.5,847.5C 1428.5,846.5 1473.5,846.167 1518.5,846.5 Z"/></g>
<g><path style="opacity:1" fill="#7c739e" d="M 2251.5,854.5 C 2252.17,854.5 2252.83,854.5 2253.5,854.5C 2253.5,855.5 2253.5,856.5 2253.5,857.5C 2259.74,859.017 2266.07,860.517 2272.5,862C 2273.82,863.767 2275.48,865.101 2277.5,866C 2281.59,866.645 2285.59,867.645 2289.5,869C 2297.12,871.952 2304.45,875.452 2311.5,879.5C 2301.99,876.051 2292.32,872.884 2282.5,870C 2280.26,868.478 2277.93,867.145 2275.5,866C 2268.7,864.303 2261.87,862.469 2255,860.5C 2253.07,858.966 2251.9,856.966 2251.5,854.5 Z"/></g>
<g><path style="opacity:1" fill="#5795ce" d="M 1518.5,846.5 C 1473.5,846.167 1428.5,846.5 1383.5,847.5C 1382.97,848.192 1382.31,848.692 1381.5,849C 1348.41,849.119 1315.41,850.119 1282.5,852C 1271.27,853.757 1259.93,855.09 1248.5,856C 1231.72,856.524 1215.05,857.524 1198.5,859C 1159.15,863.346 1120.15,868.68 1081.5,875C 1072.5,875.619 1063.5,876.286 1054.5,877C 1042.25,881.451 1029.58,884.118 1016.5,885C 1016.04,885.414 1015.71,885.914 1015.5,886.5C 1011.69,887.071 1008.02,887.904 1004.5,889C 993.886,890.547 983.219,892.047 972.5,893.5C 973.681,891.933 975.347,891.099 977.5,891C 995.856,887.884 1014.19,884.551 1032.5,881C 1037.21,879.605 1041.88,878.105 1046.5,876.5C 1055.82,875.501 1065.15,874.668 1074.5,874C 1075.17,873.333 1075.83,872.667 1076.5,872C 1121.61,867.24 1166.61,861.573 1211.5,855C 1256.57,852.153 1301.57,849.153 1346.5,846C 1404,845.168 1461.33,845.335 1518.5,846.5 Z"/></g>
<g><path style="opacity:1" fill="#a2728d" d="M 2311.5,879.5 C 2318.15,880.824 2324.15,883.49 2329.5,887.5C 2325.41,885.46 2321.07,883.96 2316.5,883C 2314.57,882.098 2312.9,880.931 2311.5,879.5 Z"/></g>
<g><path style="opacity:1" fill="#877297" d="M 2653.5,1095.5 C 2659.56,1100.56 2664.89,1106.22 2669.5,1112.5C 2663.41,1107.42 2658.08,1101.75 2653.5,1095.5 Z"/></g>
<g><path style="opacity:1" fill="#2975ba" d="M 1371.5,1161.5 C 1452.5,1161.33 1533.5,1161.5 1614.5,1162C 1682.32,1163.51 1749.98,1165.68 1817.5,1168.5C 1836.52,1168.83 1855.52,1169.67 1874.5,1171C 1932.86,1174.57 1991.2,1178.57 2049.5,1183C 2105.8,1188.74 2162.13,1194.07 2218.5,1199C 2257.03,1204.31 2295.69,1209.31 2334.5,1214C 2351.3,1217.83 2368.3,1220.16 2385.5,1221C 2401.37,1223.99 2417.37,1226.32 2433.5,1228C 2463.88,1233.93 2494.54,1238.76 2525.5,1242.5C 2530.26,1243.35 2534.93,1244.52 2539.5,1246C 2557.45,1248.53 2575.45,1250.87 2593.5,1253C 2598.31,1255.12 2603.31,1256.79 2608.5,1258C 2643.6,1265.35 2678.93,1271.68 2714.5,1277C 2722.63,1278.72 2730.63,1280.89 2738.5,1283.5C 2750.59,1285.46 2762.59,1287.8 2774.5,1290.5C 2774.5,1289.5 2774.5,1288.5 2774.5,1287.5C 2776.08,1289.83 2777.25,1292.5 2778,1295.5C 2778.5,1297.47 2778.66,1299.47 2778.5,1301.5C 2778.5,1301.83 2778.5,1302.17 2778.5,1302.5C 2766.91,1300.45 2755.24,1298.78 2743.5,1297.5C 2738.25,1296 2732.92,1294.5 2727.5,1293C 2704.52,1291.59 2681.52,1290.76 2658.5,1290.5C 2643.51,1289.17 2628.18,1288.5 2612.5,1288.5C 2597.17,1288.67 2581.83,1288.83 2566.5,1289C 2562.64,1289.18 2558.98,1289.68 2555.5,1290.5C 2534.67,1292.5 2513.67,1294.33 2492.5,1296C 2490.94,1296.21 2489.61,1296.71 2488.5,1297.5C 2483.03,1297.25 2477.7,1297.91 2472.5,1299.5C 2459.16,1300.43 2446.16,1302.76 2433.5,1306.5C 2426.26,1306.63 2419.6,1308.3 2413.5,1311.5C 2405.57,1313.93 2397.57,1316.09 2389.5,1318C 2381.47,1321.39 2373.47,1324.72 2365.5,1328C 2363.87,1328.49 2362.2,1328.66 2360.5,1328.5C 2359.57,1331.92 2357.23,1333.75 2353.5,1334C 2326.67,1353.19 2327,1371.86 2354.5,1390C 2355.79,1390.49 2357.13,1390.66 2358.5,1390.5C 2358.5,1391.5 2358.5,1392.5 2358.5,1393.5C 2366.33,1395.89 2374,1398.89 2381.5,1402.5C 2384.24,1404.05 2386.91,1405.89 2389.5,1408C 2397.14,1409.83 2404.8,1411.33 2412.5,1412.5C 2412.5,1413.5 2412.5,1414.5 2412.5,1415.5C 2418.63,1415.69 2424.63,1416.36 2430.5,1417.5C 2437.11,1418.79 2443.78,1419.79 2450.5,1420.5C 2469.96,1424.61 2489.63,1427.61 2509.5,1429.5C 2509.41,1430.5 2509.75,1431.33 2510.5,1432C 2544.76,1434.18 2578.93,1435.68 2613,1436.5C 2640.51,1436.04 2668.01,1435.21 2695.5,1434C 2710.4,1433.01 2725.07,1431.51 2739.5,1429.5C 2739.5,1428.5 2739.5,1427.5 2739.5,1426.5C 2741.41,1426.78 2743.08,1426.45 2744.5,1425.5C 2757.13,1424.19 2769.63,1422.19 2782,1419.5C 2783.59,1419.61 2785.09,1419.94 2786.5,1420.5C 2786.67,1424.51 2786.5,1428.51 2786,1432.5C 2784.06,1434.81 2783.23,1437.47 2783.5,1440.5C 2763.46,1443.84 2743.46,1447.84 2723.5,1452.5C 2637.67,1466.98 2551.67,1480.64 2465.5,1493.5C 2391.81,1502.17 2318.15,1511.34 2244.5,1521C 2215.19,1523.55 2185.85,1525.89 2156.5,1528C 2154.38,1529.19 2152.04,1529.86 2149.5,1530C 2131.62,1531.24 2113.95,1533.08 2096.5,1535.5C 2070.24,1538.07 2043.91,1539.41 2017.5,1539.5C 2017.5,1540.5 2017.5,1541.5 2017.5,1542.5C 1939.79,1547.71 1862.13,1551.71 1784.5,1554.5C 1784.29,1555.09 1783.96,1555.59 1783.5,1556C 1759.17,1557.01 1734.84,1557.84 1710.5,1558.5C 1675.34,1557.89 1640.34,1558.72 1605.5,1561C 1507.84,1562.83 1410.17,1563 1312.5,1561.5C 1218.05,1559.82 1123.72,1555.82 1029.5,1549.5C 996.379,1548.23 963.379,1546.89 930.5,1545.5C 930.5,1544.5 930.5,1543.5 930.5,1542.5C 899.201,1539.45 867.867,1536.95 836.5,1535C 764.311,1527.7 692.311,1519.7 620.5,1511C 592.161,1506.52 563.827,1502.86 535.5,1500C 522.657,1498.41 509.99,1495.91 497.5,1492.5C 484.859,1491.55 472.525,1489.39 460.5,1486C 433.613,1483.46 406.946,1479.46 380.5,1474C 379.328,1473.58 378.328,1472.91 377.5,1472C 367.13,1471.37 356.797,1470.37 346.5,1469C 345.833,1468.33 345.167,1467.67 344.5,1467C 309.431,1459.6 274.097,1453.27 238.5,1448C 229.728,1444.94 220.728,1442.61 211.5,1441C 204.637,1439.28 197.637,1438.28 190.5,1438C 169.342,1432.46 148.008,1427.13 126.5,1422C 117.859,1420.27 109.192,1418.77 100.5,1417.5C 100.333,1391.83 100.5,1366.16 101,1340.5C 102.766,1327.9 104.766,1315.23 107,1302.5C 109.103,1300.7 109.936,1298.36 109.5,1295.5C 127.032,1293.14 144.365,1289.98 161.5,1286C 165.083,1285.25 168.417,1283.92 171.5,1282C 191.633,1279.54 211.633,1276.21 231.5,1272C 232.672,1271.58 233.672,1270.91 234.5,1270C 251.972,1267.62 269.305,1264.62 286.5,1261C 363.219,1248.41 440.219,1237.08 517.5,1227C 529.881,1224.39 542.215,1222.06 554.5,1220C 644.46,1210.97 734.46,1201.47 824.5,1191.5C 849.415,1188.79 874.415,1187.12 899.5,1186.5C 927.618,1182.25 955.951,1180.09 984.5,1180C 998.699,1178.4 1013.03,1177.06 1027.5,1176C 1069.15,1173.95 1110.82,1172.28 1152.5,1171C 1153.17,1170.33 1153.83,1169.67 1154.5,1169C 1195.04,1168.24 1235.37,1166.41 1275.5,1163.5C 1307.5,1162.69 1339.5,1162.02 1371.5,1161.5 Z"/></g>
<g><path style="opacity:1" fill="#3d83c3" d="M 1371.5,1161.5 C 1463.33,1160.17 1555.33,1160.17 1647.5,1161.5C 1704.38,1162.61 1761.04,1164.94 1817.5,1168.5C 1749.98,1165.68 1682.32,1163.51 1614.5,1162C 1533.5,1161.5 1452.5,1161.33 1371.5,1161.5 Z"/></g>
<g><path style="opacity:1" fill="#4387c5" d="M 1275.5,1163.5 C 1235.37,1166.41 1195.04,1168.24 1154.5,1169C 1153.83,1169.67 1153.17,1170.33 1152.5,1171C 1110.82,1172.28 1069.15,1173.95 1027.5,1176C 1013.03,1177.06 998.699,1178.4 984.5,1180C 955.951,1180.09 927.618,1182.25 899.5,1186.5C 874.415,1187.12 849.415,1188.79 824.5,1191.5C 828.652,1190.45 832.985,1189.61 837.5,1189C 851.122,1187.44 864.789,1186.44 878.5,1186C 880.623,1184.81 882.957,1184.14 885.5,1184C 915.481,1182.02 945.481,1180.35 975.5,1179C 990.194,1177.98 1004.86,1176.65 1019.5,1175C 1072.86,1172.48 1126.19,1169.48 1179.5,1166C 1211.5,1165.17 1243.5,1164.33 1275.5,1163.5 Z"/></g>
<g><path style="opacity:1" fill="#72739e" d="M 2658.5,1290.5 C 2624.17,1289.28 2589.84,1289.28 2555.5,1290.5C 2558.98,1289.68 2562.64,1289.18 2566.5,1289C 2581.83,1288.83 2597.17,1288.67 2612.5,1288.5C 2628.18,1288.5 2643.51,1289.17 2658.5,1290.5 Z"/></g>
<g><path style="opacity:0.999" fill="#df7077" d="M 2680.5,1292.5 C 2695.14,1294.62 2710.14,1295.96 2725.5,1296.5C 2728.83,1296.5 2732.17,1296.5 2735.5,1296.5C 2737.15,1297.93 2739.15,1298.76 2741.5,1299C 2752.16,1299.48 2762.66,1300.98 2773,1303.5C 2775.03,1303.49 2776.87,1303.16 2778.5,1302.5C 2778.5,1302.17 2778.5,1301.83 2778.5,1301.5C 2788.55,1303.67 2798.88,1305.34 2809.5,1306.5C 2809.5,1307.5 2809.5,1308.5 2809.5,1309.5C 2817.47,1310.54 2825.47,1311.88 2833.5,1313.5C 2833.5,1314.5 2833.5,1315.5 2833.5,1316.5C 2839.91,1317.48 2846.25,1318.81 2852.5,1320.5C 2852.5,1321.5 2852.5,1322.5 2852.5,1323.5C 2856.35,1323.48 2860.02,1324.31 2863.5,1326C 2867.09,1328.95 2871.09,1331.28 2875.5,1333C 2877.75,1336.42 2880.75,1338.92 2884.5,1340.5C 2885.43,1341.69 2885.76,1343.02 2885.5,1344.5C 2886.5,1344.5 2887.5,1344.5 2888.5,1344.5C 2888.68,1346.61 2889.68,1348.27 2891.5,1349.5C 2892.83,1357.17 2892.83,1364.83 2891.5,1372.5C 2889.86,1378.46 2886.19,1382.46 2880.5,1384.5C 2879.68,1388.07 2877.34,1390.07 2873.5,1390.5C 2872.31,1391.52 2871.31,1392.69 2870.5,1394C 2861.64,1397.91 2852.97,1401.91 2844.5,1406C 2837.09,1407.49 2830.09,1409.83 2823.5,1413C 2814.32,1415.54 2804.99,1417.04 2795.5,1417.5C 2795.5,1418.5 2795.5,1419.5 2795.5,1420.5C 2792.5,1420.5 2789.5,1420.5 2786.5,1420.5C 2785.09,1419.94 2783.59,1419.61 2782,1419.5C 2769.63,1422.19 2757.13,1424.19 2744.5,1425.5C 2725.26,1428.06 2705.93,1429.72 2686.5,1430.5C 2661.82,1432.05 2636.99,1432.71 2612,1432.5C 2593.83,1432.17 2575.67,1431.83 2557.5,1431.5C 2538.09,1430.65 2518.76,1429.15 2499.5,1427C 2492.38,1426.24 2485.38,1424.9 2478.5,1423C 2469.11,1422.47 2459.77,1421.64 2450.5,1420.5C 2446.33,1419.09 2441.99,1417.59 2437.5,1416C 2429.74,1414.81 2422.07,1413.31 2414.5,1411.5C 2409.47,1410.98 2404.47,1410.15 2399.5,1409C 2393.53,1406.5 2387.53,1404.34 2381.5,1402.5C 2374,1398.89 2366.33,1395.89 2358.5,1393.5C 2358.5,1392.5 2358.5,1391.5 2358.5,1390.5C 2357.13,1390.66 2355.79,1390.49 2354.5,1390C 2327,1371.86 2326.67,1353.19 2353.5,1334C 2357.23,1333.75 2359.57,1331.92 2360.5,1328.5C 2362.2,1328.66 2363.87,1328.49 2365.5,1328C 2373.47,1324.72 2381.47,1321.39 2389.5,1318C 2397.57,1316.09 2405.57,1313.93 2413.5,1311.5C 2416.19,1311.66 2418.85,1311.5 2421.5,1311C 2438.44,1306.77 2455.44,1302.94 2472.5,1299.5C 2477.7,1297.91 2483.03,1297.25 2488.5,1297.5C 2552.14,1291.84 2616.14,1290.18 2680.5,1292.5 Z"/></g>
<g><path style="opacity:1" fill="#5e73a7" d="M 2658.5,1290.5 C 2681.52,1290.76 2704.52,1291.59 2727.5,1293C 2732.92,1294.5 2738.25,1296 2743.5,1297.5C 2740.83,1297.17 2738.17,1296.83 2735.5,1296.5C 2732.17,1296.5 2728.83,1296.5 2725.5,1296.5C 2710.75,1294.07 2695.75,1292.74 2680.5,1292.5C 2673.17,1291.83 2665.83,1291.17 2658.5,1290.5 Z"/></g>
<g><path style="opacity:1" fill="#bc7183" d="M 2658.5,1290.5 C 2665.83,1291.17 2673.17,1291.83 2680.5,1292.5C 2616.14,1290.18 2552.14,1291.84 2488.5,1297.5C 2489.61,1296.71 2490.94,1296.21 2492.5,1296C 2513.67,1294.33 2534.67,1292.5 2555.5,1290.5C 2589.84,1289.28 2624.17,1289.28 2658.5,1290.5 Z"/></g>
<g><path style="opacity:1" fill="#bd7183" d="M 2680.5,1292.5 C 2695.75,1292.74 2710.75,1294.07 2725.5,1296.5C 2710.14,1295.96 2695.14,1294.62 2680.5,1292.5 Z"/></g>
<g><path style="opacity:1" fill="#8a7296" d="M 2735.5,1296.5 C 2738.17,1296.83 2740.83,1297.17 2743.5,1297.5C 2755.24,1298.78 2766.91,1300.45 2778.5,1302.5C 2776.87,1303.16 2775.03,1303.49 2773,1303.5C 2762.66,1300.98 2752.16,1299.48 2741.5,1299C 2739.15,1298.76 2737.15,1297.93 2735.5,1296.5 Z"/></g>
<g><path style="opacity:1" fill="#ad7189" d="M 2472.5,1299.5 C 2455.44,1302.94 2438.44,1306.77 2421.5,1311C 2418.85,1311.5 2416.19,1311.66 2413.5,1311.5C 2419.6,1308.3 2426.26,1306.63 2433.5,1306.5C 2446.16,1302.76 2459.16,1300.43 2472.5,1299.5 Z"/></g>
<g><path style="opacity:1" fill="#6a73a2" d="M 2381.5,1402.5 C 2387.53,1404.34 2393.53,1406.5 2399.5,1409C 2404.47,1410.15 2409.47,1410.98 2414.5,1411.5C 2414.58,1412.75 2415.24,1413.58 2416.5,1414C 2421.51,1414.29 2426.17,1415.46 2430.5,1417.5C 2424.63,1416.36 2418.63,1415.69 2412.5,1415.5C 2412.5,1414.5 2412.5,1413.5 2412.5,1412.5C 2404.8,1411.33 2397.14,1409.83 2389.5,1408C 2386.91,1405.89 2384.24,1404.05 2381.5,1402.5 Z"/></g>
<g><path style="opacity:1" fill="#bb7184" d="M 2414.5,1411.5 C 2422.07,1413.31 2429.74,1414.81 2437.5,1416C 2441.99,1417.59 2446.33,1419.09 2450.5,1420.5C 2443.78,1419.79 2437.11,1418.79 2430.5,1417.5C 2426.17,1415.46 2421.51,1414.29 2416.5,1414C 2415.24,1413.58 2414.58,1412.75 2414.5,1411.5 Z"/></g>
<g><path style="opacity:1" fill="#69a3d7" d="M 100.5,1417.5 C 109.192,1418.77 117.859,1420.27 126.5,1422C 148.008,1427.13 169.342,1432.46 190.5,1438C 197.637,1438.28 204.637,1439.28 211.5,1441C 220.728,1442.61 229.728,1444.94 238.5,1448C 274.097,1453.27 309.431,1459.6 344.5,1467C 345.167,1467.67 345.833,1468.33 346.5,1469C 356.797,1470.37 367.13,1471.37 377.5,1472C 378.328,1472.91 379.328,1473.58 380.5,1474C 406.946,1479.46 433.613,1483.46 460.5,1486C 472.525,1489.39 484.859,1491.55 497.5,1492.5C 509.99,1495.91 522.657,1498.41 535.5,1500C 563.827,1502.86 592.161,1506.52 620.5,1511C 692.311,1519.7 764.311,1527.7 836.5,1535C 867.867,1536.95 899.201,1539.45 930.5,1542.5C 930.5,1543.5 930.5,1544.5 930.5,1545.5C 963.379,1546.89 996.379,1548.23 1029.5,1549.5C 1056.69,1552.94 1084.02,1555.44 1111.5,1557C 1128.83,1557.33 1146.17,1557.67 1163.5,1558C 1183.93,1559.62 1204.26,1560.96 1224.5,1562C 1253.59,1562.02 1282.59,1562.68 1311.5,1564C 1360.67,1564.17 1409.83,1564.33 1459,1564.5C 1508.5,1564.5 1557.67,1563.83 1606.5,1562.5C 1641.18,1561.62 1675.85,1560.29 1710.5,1558.5C 1734.84,1557.84 1759.17,1557.01 1783.5,1556C 1783.96,1555.59 1784.29,1555.09 1784.5,1554.5C 1862.13,1551.71 1939.79,1547.71 2017.5,1542.5C 2017.5,1541.5 2017.5,1540.5 2017.5,1539.5C 2043.91,1539.41 2070.24,1538.07 2096.5,1535.5C 2134.73,1533.62 2172.73,1530.12 2210.5,1525C 2227,1524.83 2243.33,1523.83 2259.5,1522C 2260.31,1521.69 2260.97,1521.19 2261.5,1520.5C 2287.18,1517.53 2312.85,1514.7 2338.5,1512C 2352.74,1509.4 2367.07,1507.07 2381.5,1505C 2398.49,1503.21 2415.49,1501.54 2432.5,1500C 2443.72,1498.24 2454.72,1496.07 2465.5,1493.5C 2551.67,1480.64 2637.67,1466.98 2723.5,1452.5C 2743.46,1447.84 2763.46,1443.84 2783.5,1440.5C 2782.18,1446.41 2781.52,1452.41 2781.5,1458.5C 2780.5,1458.5 2779.5,1458.5 2778.5,1458.5C 2777.71,1466.95 2776.21,1475.28 2774,1483.5C 2770.83,1490.09 2768.49,1497.09 2767,1504.5C 2763.83,1508.18 2762.33,1512.52 2762.5,1517.5C 2761.5,1517.5 2760.5,1517.5 2759.5,1517.5C 2757.86,1522.79 2756.2,1528.12 2754.5,1533.5C 2753.07,1534.95 2752.07,1536.61 2751.5,1538.5C 2751.58,1536.75 2750.75,1535.75 2749,1535.5C 2745.92,1537.13 2742.75,1538.47 2739.5,1539.5C 2739.44,1541.59 2738.44,1543.09 2736.5,1544C 2726.28,1548.22 2716.94,1553.89 2708.5,1561C 2699.86,1564.73 2691.53,1568.89 2683.5,1573.5C 2683.5,1574.5 2683.5,1575.5 2683.5,1576.5C 2674.18,1580.58 2664.51,1583.91 2654.5,1586.5C 2654.5,1587.5 2654.5,1588.5 2654.5,1589.5C 2646.2,1593.55 2637.7,1597.55 2629,1601.5C 2623.77,1604.48 2618.6,1607.64 2613.5,1611C 2605.65,1613.59 2598.32,1617.26 2591.5,1622C 2573.07,1629.49 2555.07,1638.16 2537.5,1648C 2535.42,1648.19 2533.42,1648.69 2531.5,1649.5C 2529.85,1651.12 2527.85,1652.29 2525.5,1653C 2524.83,1654 2524.17,1655 2523.5,1656C 2518.09,1657.35 2512.75,1659.02 2507.5,1661C 2506.28,1662.59 2504.95,1664.09 2503.5,1665.5C 2485.74,1670.46 2469.08,1677.63 2453.5,1687C 2451.17,1687.33 2448.83,1687.67 2446.5,1688C 2443.54,1690.29 2440.21,1691.63 2436.5,1692C 2428.09,1695.06 2420.09,1699.06 2412.5,1704C 2402.5,1707 2392.5,1710 2382.5,1713C 2374.03,1715.95 2365.7,1719.62 2357.5,1724C 2355.19,1724.5 2352.86,1724.66 2350.5,1724.5C 2350.5,1725.5 2350.5,1726.5 2350.5,1727.5C 2348.8,1727.34 2347.13,1727.51 2345.5,1728C 2332.59,1733.78 2319.26,1738.45 2305.5,1742C 2297.24,1747.09 2288.24,1750.42 2278.5,1752C 2276.27,1752.97 2274.27,1754.3 2272.5,1756C 2260.4,1759.96 2248.06,1763.29 2235.5,1766C 2228,1770.21 2220,1772.54 2211.5,1773C 2196.9,1779.08 2181.56,1783.41 2165.5,1786C 2159.5,1788.34 2153.5,1790.67 2147.5,1793C 2141.75,1792.73 2136.75,1794.39 2132.5,1798C 2122.18,1799.02 2112.18,1801.36 2102.5,1805C 2085.82,1807.62 2069.48,1811.62 2053.5,1817C 2036.73,1819.97 2020.06,1823.3 2003.5,1827C 2000.69,1827.99 1998.03,1829.32 1995.5,1831C 1970.25,1834.49 1945.25,1839.15 1920.5,1845C 1907.87,1846.88 1895.2,1848.54 1882.5,1850C 1880.09,1851.58 1877.42,1852.58 1874.5,1853C 1840.35,1856.19 1806.35,1860.52 1772.5,1866C 1760.44,1866.17 1748.44,1867 1736.5,1868.5C 1705.79,1869.96 1675.12,1872.12 1644.5,1875C 1545,1878.86 1445.66,1878.03 1346.5,1872.5C 1346.29,1871.91 1345.96,1871.41 1345.5,1871C 1322.5,1869.75 1299.5,1868.59 1276.5,1867.5C 1249.57,1866.25 1222.9,1863.08 1196.5,1858C 1186.07,1858.47 1176.07,1856.81 1166.5,1853C 1153.26,1850.68 1139.93,1849.01 1126.5,1848C 1124.91,1847.14 1123.25,1846.47 1121.5,1846C 1101.78,1845.17 1082.44,1842.17 1063.5,1837C 1052.05,1835.51 1040.71,1833.84 1029.5,1832C 1018.94,1828.79 1008.28,1825.79 997.5,1823C 993.5,1822.67 989.5,1822.33 985.5,1822C 978.083,1818.94 970.416,1816.61 962.5,1815C 933.723,1809.44 905.389,1802.44 877.5,1794C 850.16,1787.63 823.494,1779.63 797.5,1770C 794.5,1769.67 791.5,1769.33 788.5,1769C 776.986,1763.96 764.986,1760.29 752.5,1758C 745.839,1755.67 739.172,1753.34 732.5,1751C 729.825,1749.33 727.159,1747.66 724.5,1746C 708.349,1741.73 692.349,1737.06 676.5,1732C 667.067,1727.36 657.067,1724.19 646.5,1722.5C 644.493,1721.09 642.493,1719.59 640.5,1718C 632.673,1715.2 624.673,1712.86 616.5,1711C 598.786,1703.18 580.786,1695.84 562.5,1689C 557.532,1685.19 551.865,1682.86 545.5,1682C 536.144,1677.43 526.477,1673.43 516.5,1670C 512.993,1667.75 509.327,1665.75 505.5,1664C 498.326,1661.84 491.326,1659.17 484.5,1656C 479.565,1652.45 474.232,1649.45 468.5,1647C 457.867,1642.69 447.201,1638.35 436.5,1634C 428.688,1629.15 420.355,1625.48 411.5,1623C 401.287,1615.23 389.954,1609.56 377.5,1606C 372.639,1602.76 367.639,1599.76 362.5,1597C 358.181,1596.12 354.348,1594.29 351,1591.5C 343.159,1589.12 335.992,1585.62 329.5,1581C 326.5,1580 323.5,1579 320.5,1578C 312.359,1573.39 304.026,1569.22 295.5,1565.5C 293.27,1563.55 290.937,1561.71 288.5,1560C 279.567,1556.03 270.9,1551.7 262.5,1547C 256.441,1543.65 250.774,1539.81 245.5,1535.5C 234.747,1531.3 224.08,1526.8 213.5,1522C 197.551,1511.04 180.884,1501.37 163.5,1493C 161.225,1489.6 158.225,1487.1 154.5,1485.5C 153.614,1484.68 153.281,1483.68 153.5,1482.5C 150.393,1482.65 147.393,1482.15 144.5,1481C 134.461,1475.8 124.794,1469.8 115.5,1463C 113.527,1462.5 111.527,1462.34 109.5,1462.5C 108.504,1462.59 107.671,1462.25 107,1461.5C 104.503,1446.85 102.336,1432.18 100.5,1417.5 Z"/></g>
<g><path style="opacity:1" fill="#b07188" d="M 2450.5,1420.5 C 2459.77,1421.64 2469.11,1422.47 2478.5,1423C 2485.38,1424.9 2492.38,1426.24 2499.5,1427C 2518.76,1429.15 2538.09,1430.65 2557.5,1431.5C 2575.67,1431.83 2593.83,1432.17 2612,1432.5C 2636.99,1432.71 2661.82,1432.05 2686.5,1430.5C 2665.11,1433.85 2643.44,1435.18 2621.5,1434.5C 2584.05,1434.78 2546.72,1433.12 2509.5,1429.5C 2489.63,1427.61 2469.96,1424.61 2450.5,1420.5 Z"/></g>
<g><path style="opacity:1" fill="#5773aa" d="M 2744.5,1425.5 C 2743.08,1426.45 2741.41,1426.78 2739.5,1426.5C 2739.5,1427.5 2739.5,1428.5 2739.5,1429.5C 2725.07,1431.51 2710.4,1433.01 2695.5,1434C 2668.01,1435.21 2640.51,1436.04 2613,1436.5C 2578.93,1435.68 2544.76,1434.18 2510.5,1432C 2509.75,1431.33 2509.41,1430.5 2509.5,1429.5C 2546.72,1433.12 2584.05,1434.78 2621.5,1434.5C 2643.44,1435.18 2665.11,1433.85 2686.5,1430.5C 2705.93,1429.72 2725.26,1428.06 2744.5,1425.5 Z"/></g>
<g><path style="opacity:0.995" fill="#2975b9" d="M 109.5,1462.5 C 111.527,1462.34 113.527,1462.5 115.5,1463C 124.794,1469.8 134.461,1475.8 144.5,1481C 147.393,1482.15 150.393,1482.65 153.5,1482.5C 153.281,1483.68 153.614,1484.68 154.5,1485.5C 158.225,1487.1 161.225,1489.6 163.5,1493C 180.884,1501.37 197.551,1511.04 213.5,1522C 224.08,1526.8 234.747,1531.3 245.5,1535.5C 250.774,1539.81 256.441,1543.65 262.5,1547C 270.9,1551.7 279.567,1556.03 288.5,1560C 290.937,1561.71 293.27,1563.55 295.5,1565.5C 304.026,1569.22 312.359,1573.39 320.5,1578C 323.5,1579 326.5,1580 329.5,1581C 335.992,1585.62 343.159,1589.12 351,1591.5C 354.348,1594.29 358.181,1596.12 362.5,1597C 367.639,1599.76 372.639,1602.76 377.5,1606C 389.954,1609.56 401.287,1615.23 411.5,1623C 420.355,1625.48 428.688,1629.15 436.5,1634C 447.201,1638.35 457.867,1642.69 468.5,1647C 474.232,1649.45 479.565,1652.45 484.5,1656C 491.326,1659.17 498.326,1661.84 505.5,1664C 509.327,1665.75 512.993,1667.75 516.5,1670C 526.477,1673.43 536.144,1677.43 545.5,1682C 551.865,1682.86 557.532,1685.19 562.5,1689C 580.786,1695.84 598.786,1703.18 616.5,1711C 624.673,1712.86 632.673,1715.2 640.5,1718C 642.493,1719.59 644.493,1721.09 646.5,1722.5C 657.067,1724.19 667.067,1727.36 676.5,1732C 692.349,1737.06 708.349,1741.73 724.5,1746C 727.159,1747.66 729.825,1749.33 732.5,1751C 739.172,1753.34 745.839,1755.67 752.5,1758C 764.986,1760.29 776.986,1763.96 788.5,1769C 791.5,1769.33 794.5,1769.67 797.5,1770C 823.494,1779.63 850.16,1787.63 877.5,1794C 905.389,1802.44 933.723,1809.44 962.5,1815C 970.416,1816.61 978.083,1818.94 985.5,1822C 989.5,1822.33 993.5,1822.67 997.5,1823C 1008.28,1825.79 1018.94,1828.79 1029.5,1832C 1040.71,1833.84 1052.05,1835.51 1063.5,1837C 1082.44,1842.17 1101.78,1845.17 1121.5,1846C 1123.25,1846.47 1124.91,1847.14 1126.5,1848C 1139.93,1849.01 1153.26,1850.68 1166.5,1853C 1176.07,1856.81 1186.07,1858.47 1196.5,1858C 1222.9,1863.08 1249.57,1866.25 1276.5,1867.5C 1296.28,1870.32 1316.28,1872.48 1336.5,1874C 1363.85,1875.33 1391.18,1877 1418.5,1879C 1508.57,1881.24 1598.57,1879.57 1688.5,1874C 1704.68,1872.4 1720.68,1870.57 1736.5,1868.5C 1748.44,1867 1760.44,1866.17 1772.5,1866C 1806.35,1860.52 1840.35,1856.19 1874.5,1853C 1877.42,1852.58 1880.09,1851.58 1882.5,1850C 1895.2,1848.54 1907.87,1846.88 1920.5,1845C 1945.25,1839.15 1970.25,1834.49 1995.5,1831C 1998.03,1829.32 2000.69,1827.99 2003.5,1827C 2020.06,1823.3 2036.73,1819.97 2053.5,1817C 2069.48,1811.62 2085.82,1807.62 2102.5,1805C 2112.18,1801.36 2122.18,1799.02 2132.5,1798C 2136.75,1794.39 2141.75,1792.73 2147.5,1793C 2153.5,1790.67 2159.5,1788.34 2165.5,1786C 2181.56,1783.41 2196.9,1779.08 2211.5,1773C 2220,1772.54 2228,1770.21 2235.5,1766C 2248.06,1763.29 2260.4,1759.96 2272.5,1756C 2274.27,1754.3 2276.27,1752.97 2278.5,1752C 2288.24,1750.42 2297.24,1747.09 2305.5,1742C 2319.26,1738.45 2332.59,1733.78 2345.5,1728C 2347.13,1727.51 2348.8,1727.34 2350.5,1727.5C 2350.5,1726.5 2350.5,1725.5 2350.5,1724.5C 2352.86,1724.66 2355.19,1724.5 2357.5,1724C 2365.7,1719.62 2374.03,1715.95 2382.5,1713C 2392.5,1710 2402.5,1707 2412.5,1704C 2420.09,1699.06 2428.09,1695.06 2436.5,1692C 2440.21,1691.63 2443.54,1690.29 2446.5,1688C 2448.83,1687.67 2451.17,1687.33 2453.5,1687C 2469.08,1677.63 2485.74,1670.46 2503.5,1665.5C 2504.95,1664.09 2506.28,1662.59 2507.5,1661C 2512.75,1659.02 2518.09,1657.35 2523.5,1656C 2524.17,1655 2524.83,1654 2525.5,1653C 2527.85,1652.29 2529.85,1651.12 2531.5,1649.5C 2533.42,1648.69 2535.42,1648.19 2537.5,1648C 2555.07,1638.16 2573.07,1629.49 2591.5,1622C 2598.32,1617.26 2605.65,1613.59 2613.5,1611C 2618.6,1607.64 2623.77,1604.48 2629,1601.5C 2637.7,1597.55 2646.2,1593.55 2654.5,1589.5C 2654.5,1588.5 2654.5,1587.5 2654.5,1586.5C 2664.51,1583.91 2674.18,1580.58 2683.5,1576.5C 2683.5,1575.5 2683.5,1574.5 2683.5,1573.5C 2691.53,1568.89 2699.86,1564.73 2708.5,1561C 2716.94,1553.89 2726.28,1548.22 2736.5,1544C 2738.44,1543.09 2739.44,1541.59 2739.5,1539.5C 2742.75,1538.47 2745.92,1537.13 2749,1535.5C 2750.75,1535.75 2751.58,1536.75 2751.5,1538.5C 2747.89,1545.33 2744.39,1552.33 2741,1559.5C 2740.01,1560.07 2739.17,1560.73 2738.5,1561.5C 2737.5,1561.5 2736.5,1561.5 2735.5,1561.5C 2734.38,1564.49 2732.54,1567.16 2730,1569.5C 2729.65,1571.25 2729.15,1572.91 2728.5,1574.5C 2724.64,1580.22 2720.48,1585.89 2716,1591.5C 2715.52,1592.45 2715.35,1593.45 2715.5,1594.5C 2713.93,1594.94 2712.76,1595.94 2712,1597.5C 2709.74,1603.47 2706.24,1608.47 2701.5,1612.5C 2699.46,1616.19 2697.46,1619.86 2695.5,1623.5C 2693.8,1623.53 2692.47,1624.19 2691.5,1625.5C 2689.06,1628.01 2686.39,1630.34 2683.5,1632.5C 2681.65,1636.21 2679.32,1639.55 2676.5,1642.5C 2675.66,1642.84 2675.33,1643.51 2675.5,1644.5C 2672.82,1645.86 2670.15,1647.19 2667.5,1648.5C 2667.5,1649.83 2667.5,1651.17 2667.5,1652.5C 2666.17,1652.5 2664.83,1652.5 2663.5,1652.5C 2663.76,1653.98 2663.43,1655.31 2662.5,1656.5C 2659.78,1660.2 2657.12,1663.87 2654.5,1667.5C 2648.2,1672.14 2642.53,1677.47 2637.5,1683.5C 2632.66,1688.5 2627.33,1693 2621.5,1697C 2620.03,1698.77 2618.7,1700.61 2617.5,1702.5C 2614.85,1703.5 2612.85,1705.16 2611.5,1707.5C 2608.14,1710.17 2604.47,1712.51 2600.5,1714.5C 2596.75,1718.22 2592.75,1721.72 2588.5,1725C 2587.69,1726.11 2587.03,1727.28 2586.5,1728.5C 2582.9,1729.87 2579.57,1731.7 2576.5,1734C 2560.91,1747.6 2544.25,1759.6 2526.5,1770C 2520.68,1774.9 2514.35,1778.73 2507.5,1781.5C 2507.71,1783.18 2507.05,1784.18 2505.5,1784.5C 2500.31,1785.96 2495.98,1788.79 2492.5,1793C 2486.87,1795.97 2481.54,1799.14 2476.5,1802.5C 2467.43,1807.21 2458.43,1812.21 2449.5,1817.5C 2445.52,1818.82 2441.68,1820.49 2438,1822.5C 2437.59,1822.04 2437.09,1821.71 2436.5,1821.5C 2435.21,1823.96 2433.21,1825.46 2430.5,1826C 2429.75,1826.67 2429.41,1827.5 2429.5,1828.5C 2426.16,1829.33 2423.5,1831.17 2421.5,1834C 2402.64,1841.16 2384.64,1849.83 2367.5,1860C 2360.61,1862.69 2353.61,1865.19 2346.5,1867.5C 2345.39,1868.89 2344.06,1870.06 2342.5,1871C 2331.19,1875.07 2320.02,1879.57 2309,1884.5C 2307.12,1885.62 2306.29,1887.29 2306.5,1889.5C 2301.75,1889.16 2297.75,1890.66 2294.5,1894C 2288.61,1896.06 2282.61,1897.56 2276.5,1898.5C 2276.5,1899.5 2276.5,1900.5 2276.5,1901.5C 2274.08,1901.19 2271.74,1901.53 2269.5,1902.5C 2261.13,1905.87 2252.8,1909.37 2244.5,1913C 2237.8,1914.7 2231.14,1916.53 2224.5,1918.5C 2219.63,1920.02 2214.96,1922.19 2210.5,1925C 2196.38,1929.72 2182.05,1933.88 2167.5,1937.5C 2167.29,1938.09 2166.96,1938.59 2166.5,1939C 2159.02,1941.16 2151.35,1942.66 2143.5,1943.5C 2143.5,1944.5 2143.5,1945.5 2143.5,1946.5C 2137.89,1947.55 2132.22,1948.22 2126.5,1948.5C 2126.5,1949.5 2126.5,1950.5 2126.5,1951.5C 2110.61,1956.38 2094.27,1960.21 2077.5,1963C 2077.04,1963.41 2076.71,1963.91 2076.5,1964.5C 2061.17,1968.82 2045.5,1972.48 2029.5,1975.5C 2028.97,1976.19 2028.31,1976.69 2027.5,1977C 2017.24,1979.11 2006.91,1980.61 1996.5,1981.5C 1996.5,1982.5 1996.5,1983.5 1996.5,1984.5C 1985.53,1986.07 1974.53,1987.4 1963.5,1988.5C 1963.5,1989.5 1963.5,1990.5 1963.5,1991.5C 1947.3,1993.33 1931.3,1996 1915.5,1999.5C 1910.88,2000.49 1906.21,2000.83 1901.5,2000.5C 1901.5,2001.5 1901.5,2002.5 1901.5,2003.5C 1890.99,2003.81 1880.65,2005.15 1870.5,2007.5C 1870.5,2007.17 1870.5,2006.83 1870.5,2006.5C 1869.49,2005.24 1867.99,2004.57 1866,2004.5C 1863.46,2004.34 1861.29,2005 1859.5,2006.5C 1854.66,2006.22 1849.99,2006.89 1845.5,2008.5C 1834.93,2009.81 1824.26,2010.64 1813.5,2011C 1812.75,2011.67 1812.41,2012.5 1812.5,2013.5C 1800.87,2014.6 1789.2,2015.6 1777.5,2016.5C 1777.14,2017.18 1776.8,2017.85 1776.5,2018.5C 1763.13,2019.5 1749.8,2020.84 1736.5,2022.5C 1720.88,2023.47 1705.21,2024.13 1689.5,2024.5C 1689.5,2025.5 1689.5,2026.5 1689.5,2027.5C 1679.79,2027.62 1670.12,2028.29 1660.5,2029.5C 1650.16,2029.33 1639.83,2029.5 1629.5,2030C 1626.42,2030.97 1623.42,2031.81 1620.5,2032.5C 1617.17,2032.5 1613.83,2032.5 1610.5,2032.5C 1603.09,2031.87 1596.09,2032.54 1589.5,2034.5C 1571.5,2034.33 1553.5,2034.5 1535.5,2035C 1534.94,2035.38 1534.61,2035.88 1534.5,2036.5C 1442.11,2037.49 1349.78,2036.16 1257.5,2032.5C 1255.34,2030.78 1252.68,2029.95 1249.5,2030C 1230.18,2028.74 1210.85,2027.91 1191.5,2027.5C 1191.39,2026.88 1191.06,2026.38 1190.5,2026C 1184.32,2025.83 1178.32,2025.33 1172.5,2024.5C 1158.56,2022.04 1144.23,2020.71 1129.5,2020.5C 1118.05,2019.29 1106.72,2017.96 1095.5,2016.5C 1087.26,2014.64 1078.93,2012.8 1070.5,2011C 1059.45,2010.54 1048.45,2009.7 1037.5,2008.5C 1032.96,2007.13 1028.3,2005.63 1023.5,2004C 1017.48,2003.64 1011.48,2003.14 1005.5,2002.5C 1004.17,2002.5 1002.83,2002.5 1001.5,2002.5C 999.708,2001.69 997.708,2001.19 995.5,2001C 994.833,2000.33 994.167,1999.67 993.5,1999C 978.815,1996.52 964.149,1994.52 949.5,1993C 948.748,1993.67 948.414,1994.5 948.5,1995.5C 929.649,1990.63 910.316,1986.8 890.5,1984C 890.043,1983.59 889.709,1983.09 889.5,1982.5C 879.533,1980.46 869.533,1978.63 859.5,1977C 859.043,1976.59 858.709,1976.09 858.5,1975.5C 849.196,1973.49 839.863,1971.65 830.5,1970C 830.043,1969.59 829.709,1969.09 829.5,1968.5C 823.589,1966.85 817.589,1965.85 811.5,1965.5C 811.5,1964.5 811.5,1963.5 811.5,1962.5C 802.72,1961.75 794.053,1960.25 785.5,1958C 785.043,1957.59 784.709,1957.09 784.5,1956.5C 773.197,1953.96 762.197,1950.96 751.5,1947.5C 748.572,1946.52 745.572,1946.18 742.5,1946.5C 742.5,1945.5 742.5,1944.5 742.5,1943.5C 735.455,1942.32 728.455,1940.82 721.5,1939C 714.132,1936.18 706.466,1933.84 698.5,1932C 693.962,1929.32 688.962,1927.65 683.5,1927C 672.194,1922.95 660.86,1918.78 649.5,1914.5C 647.257,1913.53 644.924,1913.19 642.5,1913.5C 642.5,1912.5 642.5,1911.5 642.5,1910.5C 638.086,1910.17 633.752,1909.34 629.5,1908C 624.108,1904.52 618.108,1902.36 611.5,1901.5C 611.5,1900.5 611.5,1899.5 611.5,1898.5C 607.086,1898.17 602.752,1897.34 598.5,1896C 596.275,1895.12 594.275,1893.96 592.5,1892.5C 587.276,1890.53 581.943,1888.86 576.5,1887.5C 576.5,1886.5 576.5,1885.5 576.5,1884.5C 572.427,1884.19 568.427,1883.53 564.5,1882.5C 564.5,1881.5 564.5,1880.5 564.5,1879.5C 558.712,1878.65 553.046,1877.32 547.5,1875.5C 547.5,1874.5 547.5,1873.5 547.5,1872.5C 541.977,1871.73 536.643,1870.39 531.5,1868.5C 531.5,1867.5 531.5,1866.5 531.5,1865.5C 522.595,1862.99 513.928,1859.99 505.5,1856.5C 505.5,1855.5 505.5,1854.5 505.5,1853.5C 500.691,1852.55 496.024,1851.05 491.5,1849C 484.787,1845.31 478.12,1841.65 471.5,1838C 470.207,1837.51 468.873,1837.34 467.5,1837.5C 467.5,1836.5 467.5,1835.5 467.5,1834.5C 464.017,1834.11 460.684,1833.11 457.5,1831.5C 452.429,1828.3 447.096,1825.63 441.5,1823.5C 441.5,1822.5 441.5,1821.5 441.5,1820.5C 435.002,1819.63 429.335,1816.97 424.5,1812.5C 422.955,1811.55 421.288,1811.21 419.5,1811.5C 419.5,1810.5 419.5,1809.5 419.5,1808.5C 414.793,1807.82 410.793,1805.82 407.5,1802.5C 404.945,1801.06 402.279,1799.89 399.5,1799C 397.561,1798.09 396.561,1796.59 396.5,1794.5C 391.644,1794.07 387.644,1792.07 384.5,1788.5C 380.657,1788.07 378.324,1786.07 377.5,1782.5C 373.372,1781.52 369.372,1780.19 365.5,1778.5C 365.5,1777.5 365.5,1776.5 365.5,1775.5C 363.712,1775.79 362.045,1775.45 360.5,1774.5C 356.457,1771.77 352.457,1769.1 348.5,1766.5C 348.5,1765.5 348.5,1764.5 348.5,1763.5C 346.712,1763.79 345.045,1763.45 343.5,1762.5C 337.359,1757.59 331.026,1752.93 324.5,1748.5C 323.311,1747.57 321.978,1747.24 320.5,1747.5C 320.5,1746.5 320.5,1745.5 320.5,1744.5C 317.646,1742.84 314.646,1741.34 311.5,1740C 305.429,1735.29 299.763,1730.13 294.5,1724.5C 291.951,1723.72 289.618,1722.55 287.5,1721C 284.988,1717.99 282.322,1715.16 279.5,1712.5C 274.481,1709.45 269.815,1706.12 265.5,1702.5C 265.719,1701.32 265.386,1700.32 264.5,1699.5C 259.232,1696.56 254.565,1692.89 250.5,1688.5C 249.614,1687.68 249.281,1686.68 249.5,1685.5C 246.5,1685.17 244.833,1683.5 244.5,1680.5C 240.833,1679.5 238.5,1677.17 237.5,1673.5C 233.833,1672.5 231.5,1670.17 230.5,1666.5C 227.813,1665.66 225.48,1664.16 223.5,1662C 220.56,1658.08 217.227,1654.58 213.5,1651.5C 211.914,1649.83 211.247,1647.83 211.5,1645.5C 208.5,1645.17 206.833,1643.5 206.5,1640.5C 204.857,1640.52 203.524,1639.85 202.5,1638.5C 198.941,1632.98 194.775,1627.98 190,1623.5C 188.451,1621.38 187.284,1619.05 186.5,1616.5C 182.447,1614.79 180.447,1611.79 180.5,1607.5C 178.857,1607.52 177.524,1606.85 176.5,1605.5C 173.18,1600.68 170.18,1595.68 167.5,1590.5C 166.476,1589.15 165.143,1588.48 163.5,1588.5C 163.785,1586.71 163.452,1585.05 162.5,1583.5C 159.745,1580.87 157.412,1577.87 155.5,1574.5C 154.548,1572.95 154.215,1571.29 154.5,1569.5C 153.5,1569.5 152.5,1569.5 151.5,1569.5C 150.167,1565.5 148.833,1561.5 147.5,1557.5C 146.5,1557.5 145.5,1557.5 144.5,1557.5C 143.87,1554.42 142.87,1551.42 141.5,1548.5C 135.736,1538.88 130.569,1528.88 126,1518.5C 123.941,1512.61 122.441,1506.61 121.5,1500.5C 120.5,1500.5 119.5,1500.5 118.5,1500.5C 117.833,1495.83 117.167,1491.17 116.5,1486.5C 115.5,1486.5 114.5,1486.5 113.5,1486.5C 111.624,1478.6 110.29,1470.6 109.5,1462.5 Z"/></g>
<g><path style="opacity:1" fill="#5594ce" d="M 2465.5,1493.5 C 2454.72,1496.07 2443.72,1498.24 2432.5,1500C 2415.49,1501.54 2398.49,1503.21 2381.5,1505C 2367.07,1507.07 2352.74,1509.4 2338.5,1512C 2312.85,1514.7 2287.18,1517.53 2261.5,1520.5C 2260.97,1521.19 2260.31,1521.69 2259.5,1522C 2243.33,1523.83 2227,1524.83 2210.5,1525C 2172.73,1530.12 2134.73,1533.62 2096.5,1535.5C 2113.95,1533.08 2131.62,1531.24 2149.5,1530C 2152.04,1529.86 2154.38,1529.19 2156.5,1528C 2185.85,1525.89 2215.19,1523.55 2244.5,1521C 2318.15,1511.34 2391.81,1502.17 2465.5,1493.5 Z"/></g>
<g><path style="opacity:1" fill="#5b99d1" d="M 1029.5,1549.5 C 1123.72,1555.82 1218.05,1559.82 1312.5,1561.5C 1353.65,1563.06 1394.99,1563.72 1436.5,1563.5C 1493.17,1563.22 1549.83,1562.89 1606.5,1562.5C 1557.67,1563.83 1508.5,1564.5 1459,1564.5C 1409.83,1564.33 1360.67,1564.17 1311.5,1564C 1282.59,1562.68 1253.59,1562.02 1224.5,1562C 1204.26,1560.96 1183.93,1559.62 1163.5,1558C 1146.17,1557.67 1128.83,1557.33 1111.5,1557C 1084.02,1555.44 1056.69,1552.94 1029.5,1549.5 Z"/></g>
<g><path style="opacity:1" fill="#4287c5" d="M 1710.5,1558.5 C 1675.85,1560.29 1641.18,1561.62 1606.5,1562.5C 1549.83,1562.89 1493.17,1563.22 1436.5,1563.5C 1394.99,1563.72 1353.65,1563.06 1312.5,1561.5C 1410.17,1563 1507.84,1562.83 1605.5,1561C 1640.34,1558.72 1675.34,1557.89 1710.5,1558.5 Z"/></g>
<g><path style="opacity:0.999" fill="#df7076" d="M 2738.5,1561.5 C 2738.5,1562.83 2738.5,1564.17 2738.5,1565.5C 2739.5,1565.5 2740.5,1565.5 2741.5,1565.5C 2746.02,1580.23 2749.69,1595.23 2752.5,1610.5C 2753.5,1610.5 2754.5,1610.5 2755.5,1610.5C 2756.53,1617.62 2758.2,1624.62 2760.5,1631.5C 2761.09,1631.71 2761.59,1632.04 2762,1632.5C 2767.52,1652.57 2773.35,1672.57 2779.5,1692.5C 2780.09,1692.71 2780.59,1693.04 2781,1693.5C 2781.65,1698.96 2783.32,1703.96 2786,1708.5C 2787.91,1715.74 2789.74,1723.07 2791.5,1730.5C 2792.09,1730.71 2792.59,1731.04 2793,1731.5C 2794.82,1738.38 2796.32,1745.38 2797.5,1752.5C 2798.5,1752.5 2799.5,1752.5 2800.5,1752.5C 2803.92,1764.98 2806.92,1777.64 2809.5,1790.5C 2810.5,1790.5 2811.5,1790.5 2812.5,1790.5C 2814.19,1798.1 2815.53,1805.77 2816.5,1813.5C 2817.5,1813.5 2818.5,1813.5 2819.5,1813.5C 2820.33,1818.47 2820.99,1823.47 2821.5,1828.5C 2822.5,1828.5 2823.5,1828.5 2824.5,1828.5C 2829.02,1843.23 2832.69,1858.23 2835.5,1873.5C 2836.5,1873.5 2837.5,1873.5 2838.5,1873.5C 2839.53,1880.62 2841.2,1887.62 2843.5,1894.5C 2844.09,1894.71 2844.59,1895.04 2845,1895.5C 2850.52,1915.57 2856.35,1935.57 2862.5,1955.5C 2863.09,1955.71 2863.59,1956.04 2864,1956.5C 2865.33,1964.36 2867.67,1971.69 2871,1978.5C 2874.86,2000.67 2874.19,2022.67 2869,2044.5C 2866.31,2047.63 2864.81,2051.29 2864.5,2055.5C 2863.5,2055.5 2862.5,2055.5 2861.5,2055.5C 2860.73,2059.7 2859.4,2063.7 2857.5,2067.5C 2856.5,2067.5 2855.5,2067.5 2854.5,2067.5C 2854.03,2072.05 2851.7,2075.05 2847.5,2076.5C 2847.72,2077.68 2847.39,2078.68 2846.5,2079.5C 2841.97,2084.13 2837.3,2088.63 2832.5,2093C 2829.11,2095.24 2825.44,2096.74 2821.5,2097.5C 2821.5,2098.5 2821.5,2099.5 2821.5,2100.5C 2814.45,2103.93 2807.12,2106.77 2799.5,2109C 2795.85,2109.5 2792.18,2109.67 2788.5,2109.5C 2788.5,2110.5 2788.5,2111.5 2788.5,2112.5C 2776.16,2112.67 2763.83,2112.5 2751.5,2112C 2751.04,2111.59 2750.71,2111.09 2750.5,2110.5C 2742.82,2108.71 2735.15,2106.88 2727.5,2105C 2724.8,2102.15 2721.47,2100.65 2717.5,2100.5C 2717.5,2099.5 2717.5,2098.5 2717.5,2097.5C 2712.8,2096.16 2708.13,2094.83 2703.5,2093.5C 2703.5,2092.5 2703.5,2091.5 2703.5,2090.5C 2700.37,2090.22 2697.37,2089.38 2694.5,2088C 2688.83,2084.33 2682.83,2081.33 2676.5,2079C 2674.26,2075.92 2671.26,2074.42 2667.5,2074.5C 2667.5,2073.5 2667.5,2072.5 2667.5,2071.5C 2662.83,2070.17 2658.17,2068.83 2653.5,2067.5C 2653.5,2066.5 2653.5,2065.5 2653.5,2064.5C 2648.76,2063.4 2644.1,2062.07 2639.5,2060.5C 2639.5,2059.5 2639.5,2058.5 2639.5,2057.5C 2636.17,2056.83 2632.83,2056.17 2629.5,2055.5C 2629.5,2054.5 2629.5,2053.5 2629.5,2052.5C 2624.87,2051.17 2620.2,2049.84 2615.5,2048.5C 2615.5,2047.5 2615.5,2046.5 2615.5,2045.5C 2613.71,2045.79 2612.05,2045.45 2610.5,2044.5C 2600.22,2039.19 2589.89,2034.19 2579.5,2029.5C 2579.5,2028.5 2579.5,2027.5 2579.5,2026.5C 2574.9,2024.93 2570.24,2023.6 2565.5,2022.5C 2565.5,2021.5 2565.5,2020.5 2565.5,2019.5C 2560.83,2018.17 2556.17,2016.83 2551.5,2015.5C 2551.5,2014.5 2551.5,2013.5 2551.5,2012.5C 2548.37,2012.22 2545.37,2011.38 2542.5,2010C 2532.74,2004.94 2523.07,1999.77 2513.5,1994.5C 2510.58,1993.13 2507.58,1992.13 2504.5,1991.5C 2504.5,1990.5 2504.5,1989.5 2504.5,1988.5C 2499.73,1987.31 2495.06,1985.81 2490.5,1984C 2486.29,1980.92 2481.96,1978.08 2477.5,1975.5C 2469.73,1972 2462.06,1968.67 2454.5,1965.5C 2454.5,1964.5 2454.5,1963.5 2454.5,1962.5C 2449.76,1961.4 2445.1,1960.07 2440.5,1958.5C 2440.5,1957.5 2440.5,1956.5 2440.5,1955.5C 2432.14,1953.09 2424.14,1950.09 2416.5,1946.5C 2416.5,1945.5 2416.5,1944.5 2416.5,1943.5C 2413.37,1943.22 2410.37,1942.38 2407.5,1941C 2400.08,1937.12 2392.74,1932.95 2385.5,1928.5C 2382.58,1927.13 2379.58,1926.13 2376.5,1925.5C 2376.5,1924.5 2376.5,1923.5 2376.5,1922.5C 2373.17,1921.83 2369.83,1921.17 2366.5,1920.5C 2366.5,1919.5 2366.5,1918.5 2366.5,1917.5C 2361.83,1916.17 2357.17,1914.83 2352.5,1913.5C 2352.5,1912.5 2352.5,1911.5 2352.5,1910.5C 2344.25,1907.87 2336.25,1904.87 2328.5,1901.5C 2328.5,1900.5 2328.5,1899.5 2328.5,1898.5C 2320.82,1896.09 2313.49,1893.09 2306.5,1889.5C 2306.29,1887.29 2307.12,1885.62 2309,1884.5C 2320.02,1879.57 2331.19,1875.07 2342.5,1871C 2344.06,1870.06 2345.39,1868.89 2346.5,1867.5C 2353.61,1865.19 2360.61,1862.69 2367.5,1860C 2384.64,1849.83 2402.64,1841.16 2421.5,1834C 2423.5,1831.17 2426.16,1829.33 2429.5,1828.5C 2432.86,1826.31 2436.53,1824.81 2440.5,1824C 2443.68,1821.98 2446.68,1819.81 2449.5,1817.5C 2458.43,1812.21 2467.43,1807.21 2476.5,1802.5C 2487.31,1798.27 2496.98,1792.27 2505.5,1784.5C 2507.05,1784.18 2507.71,1783.18 2507.5,1781.5C 2514.35,1778.73 2520.68,1774.9 2526.5,1770C 2544.25,1759.6 2560.91,1747.6 2576.5,1734C 2579.57,1731.7 2582.9,1729.87 2586.5,1728.5C 2591.64,1723.9 2597.3,1719.73 2603.5,1716C 2606.48,1713.37 2609.15,1710.53 2611.5,1707.5C 2612.85,1705.16 2614.85,1703.5 2617.5,1702.5C 2622.6,1698.25 2627.94,1694.08 2633.5,1690C 2634.23,1687.44 2635.57,1685.27 2637.5,1683.5C 2642.53,1677.47 2648.2,1672.14 2654.5,1667.5C 2661.33,1659.73 2668.33,1652.06 2675.5,1644.5C 2675.33,1643.51 2675.66,1642.84 2676.5,1642.5C 2678.14,1642.52 2679.48,1641.85 2680.5,1640.5C 2684.01,1635.29 2687.67,1630.29 2691.5,1625.5C 2692.47,1624.19 2693.8,1623.53 2695.5,1623.5C 2697.46,1619.86 2699.46,1616.19 2701.5,1612.5C 2706.24,1608.47 2709.74,1603.47 2712,1597.5C 2712.76,1595.94 2713.93,1594.94 2715.5,1594.5C 2719.05,1590.27 2722.55,1585.94 2726,1581.5C 2726.38,1578.94 2727.22,1576.61 2728.5,1574.5C 2729.15,1572.91 2729.65,1571.25 2730,1569.5C 2732.54,1567.16 2734.38,1564.49 2735.5,1561.5C 2736.5,1561.5 2737.5,1561.5 2738.5,1561.5 Z"/></g>
<g><path style="opacity:1" fill="#a2728d" d="M 2728.5,1574.5 C 2727.22,1576.61 2726.38,1578.94 2726,1581.5C 2722.55,1585.94 2719.05,1590.27 2715.5,1594.5C 2715.35,1593.45 2715.52,1592.45 2716,1591.5C 2720.48,1585.89 2724.64,1580.22 2728.5,1574.5 Z"/></g>
<g><path style="opacity:1" fill="#867298" d="M 2691.5,1625.5 C 2687.67,1630.29 2684.01,1635.29 2680.5,1640.5C 2679.48,1641.85 2678.14,1642.52 2676.5,1642.5C 2679.32,1639.55 2681.65,1636.21 2683.5,1632.5C 2686.39,1630.34 2689.06,1628.01 2691.5,1625.5 Z"/></g>
<g><path style="opacity:1" fill="#7a739e" d="M 2675.5,1644.5 C 2668.33,1652.06 2661.33,1659.73 2654.5,1667.5C 2657.12,1663.87 2659.78,1660.2 2662.5,1656.5C 2663.43,1655.31 2663.76,1653.98 2663.5,1652.5C 2664.83,1652.5 2666.17,1652.5 2667.5,1652.5C 2667.5,1651.17 2667.5,1649.83 2667.5,1648.5C 2670.15,1647.19 2672.82,1645.86 2675.5,1644.5 Z"/></g>
<g><path style="opacity:1" fill="#a9728b" d="M 2637.5,1683.5 C 2635.57,1685.27 2634.23,1687.44 2633.5,1690C 2627.94,1694.08 2622.6,1698.25 2617.5,1702.5C 2618.7,1700.61 2620.03,1698.77 2621.5,1697C 2627.33,1693 2632.66,1688.5 2637.5,1683.5 Z"/></g>
<g><path style="opacity:1" fill="#a3728d" d="M 2611.5,1707.5 C 2609.15,1710.53 2606.48,1713.37 2603.5,1716C 2597.3,1719.73 2591.64,1723.9 2586.5,1728.5C 2587.03,1727.28 2587.69,1726.11 2588.5,1725C 2592.75,1721.72 2596.75,1718.22 2600.5,1714.5C 2604.47,1712.51 2608.14,1710.17 2611.5,1707.5 Z"/></g>
<g><path style="opacity:1" fill="#a9728a" d="M 2505.5,1784.5 C 2496.98,1792.27 2487.31,1798.27 2476.5,1802.5C 2481.54,1799.14 2486.87,1795.97 2492.5,1793C 2495.98,1788.79 2500.31,1785.96 2505.5,1784.5 Z"/></g>
<g><path style="opacity:1" fill="#7f739c" d="M 2449.5,1817.5 C 2446.68,1819.81 2443.68,1821.98 2440.5,1824C 2436.53,1824.81 2432.86,1826.31 2429.5,1828.5C 2429.41,1827.5 2429.75,1826.67 2430.5,1826C 2433.21,1825.46 2435.21,1823.96 2436.5,1821.5C 2437.09,1821.71 2437.59,1822.04 2438,1822.5C 2441.68,1820.49 2445.52,1818.82 2449.5,1817.5 Z"/></g>
<g><path style="opacity:1" fill="#5a98d0" d="M 1276.5,1867.5 C 1299.5,1868.59 1322.5,1869.75 1345.5,1871C 1345.96,1871.41 1346.29,1871.91 1346.5,1872.5C 1445.66,1878.03 1545,1878.86 1644.5,1875C 1675.12,1872.12 1705.79,1869.96 1736.5,1868.5C 1720.68,1870.57 1704.68,1872.4 1688.5,1874C 1598.57,1879.57 1508.57,1881.24 1418.5,1879C 1391.18,1877 1363.85,1875.33 1336.5,1874C 1316.28,1872.48 1296.28,1870.32 1276.5,1867.5 Z"/></g>
<g><path style="opacity:0.994" fill="#f5ae32" d="M 948.5,1995.5 C 952.833,1995.5 957.167,1995.5 961.5,1995.5C 962.681,1997.07 964.347,1997.9 966.5,1998C 973.138,1999.16 979.805,1999.99 986.5,2000.5C 991.364,2001.9 996.364,2002.57 1001.5,2002.5C 1002.83,2002.5 1004.17,2002.5 1005.5,2002.5C 1015.72,2006.05 1026.39,2008.05 1037.5,2008.5C 1055.87,2011.76 1074.53,2014.43 1093.5,2016.5C 1094.81,2017.23 1096.14,2018.07 1097.5,2019C 1108.32,2019.43 1118.98,2020.26 1129.5,2021.5C 1132.5,2021.5 1135.5,2021.5 1138.5,2021.5C 1141.34,2023.4 1144.67,2024.07 1148.5,2023.5C 1150.83,2023.5 1153.17,2023.5 1155.5,2023.5C 1159.26,2024.83 1163.26,2025.67 1167.5,2026C 1175.51,2026.44 1183.51,2026.94 1191.5,2027.5C 1200.21,2028.08 1208.88,2029.08 1217.5,2030.5C 1230.64,2032.12 1243.97,2033.12 1257.5,2033.5C 1274.16,2034.39 1290.82,2035.05 1307.5,2035.5C 1307.61,2036.12 1307.94,2036.62 1308.5,2037C 1329.48,2038.33 1350.48,2038.83 1371.5,2038.5C 1371.83,2038.5 1372.17,2038.5 1372.5,2038.5C 1419.5,2041.16 1466.5,2041.16 1513.5,2038.5C 1535.06,2039.04 1556.39,2038.04 1577.5,2035.5C 1581.5,2035.5 1585.5,2035.5 1589.5,2035.5C 1608.15,2034.57 1626.82,2033.9 1645.5,2033.5C 1671.73,2031.2 1698.06,2028.7 1724.5,2026C 1727.1,2025.61 1729.44,2024.78 1731.5,2023.5C 1733.17,2023.5 1734.83,2023.5 1736.5,2023.5C 1748.12,2022.23 1759.79,2021.4 1771.5,2021C 1774.83,2019.92 1778.17,2019.08 1781.5,2018.5C 1784.83,2018.17 1788.17,2017.83 1791.5,2017.5C 1797.84,2017.67 1804.18,2017.5 1810.5,2017C 1815.32,2015.72 1820.32,2015.05 1825.5,2015C 1826.17,2014.33 1826.83,2013.67 1827.5,2013C 1836.96,2012.48 1846.29,2011.48 1855.5,2010C 1860.15,2007.69 1865.15,2006.85 1870.5,2007.5C 1870.5,2034.5 1870.5,2061.5 1870.5,2088.5C 1870.5,2089.17 1870.17,2089.5 1869.5,2089.5C 1868.88,2089.61 1868.38,2089.94 1868,2090.5C 1867.33,2117.17 1867.33,2143.83 1868,2170.5C 1868.67,2171.25 1869.5,2171.59 1870.5,2171.5C 1870.83,2199.17 1870.5,2226.84 1869.5,2254.5C 1867.95,2262.97 1865.28,2270.97 1861.5,2278.5C 1860.5,2278.5 1859.5,2278.5 1858.5,2278.5C 1858.34,2281.16 1857.34,2283.49 1855.5,2285.5C 1851.36,2289.22 1847.36,2293.05 1843.5,2297C 1839.47,2299.34 1835.47,2301.67 1831.5,2304C 1826.08,2305.28 1820.74,2306.61 1815.5,2308C 1544.83,2308.83 1274.17,2308.67 1003.5,2307.5C 984.107,2304.11 969.273,2294.11 959,2277.5C 958.51,2276.21 958.343,2274.87 958.5,2273.5C 957.5,2273.5 956.5,2273.5 955.5,2273.5C 954.977,2268.74 953.477,2264.4 951,2260.5C 950.828,2256.13 950.328,2251.8 949.5,2247.5C 948.5,2163.5 948.167,2079.5 948.5,1995.5 Z"/></g>
<g><path style="opacity:1" fill="#71868e" d="M 1001.5,2002.5 C 996.364,2002.57 991.364,2001.9 986.5,2000.5C 978.36,1998.47 970.027,1996.81 961.5,1995.5C 957.167,1995.5 952.833,1995.5 948.5,1995.5C 948.414,1994.5 948.748,1993.67 949.5,1993C 964.149,1994.52 978.815,1996.52 993.5,1999C 994.167,1999.67 994.833,2000.33 995.5,2001C 997.708,2001.19 999.708,2001.69 1001.5,2002.5 Z"/></g>
<g><path style="opacity:1" fill="#ba9d59" d="M 961.5,1995.5 C 970.027,1996.81 978.36,1998.47 986.5,2000.5C 979.805,1999.99 973.138,1999.16 966.5,1998C 964.347,1997.9 962.681,1997.07 961.5,1995.5 Z"/></g>
<g><path style="opacity:0.941" fill="#38383a" d="M 2027.5,2084.5 C 2026.13,2084.66 2024.79,2084.49 2023.5,2084C 2011.24,2070.91 1996.24,2062.91 1978.5,2060C 1977.43,2059.15 1976.43,2058.31 1975.5,2057.5C 1982.66,2043.52 1989.99,2029.52 1997.5,2015.5C 1998.45,2013.95 1998.79,2012.29 1998.5,2010.5C 1999.5,2010.5 2000.5,2010.5 2001.5,2010.5C 2001.83,2005.49 2004.16,2001.82 2008.5,1999.5C 2014.83,1998.17 2021.17,1998.17 2027.5,1999.5C 2030.68,2000.85 2033.68,2002.52 2036.5,2004.5C 2038.05,2005.45 2039.71,2005.79 2041.5,2005.5C 2041.5,2006.5 2041.5,2007.5 2041.5,2008.5C 2045.85,2008.92 2049.69,2010.59 2053,2013.5C 2054.14,2017.43 2054.98,2021.43 2055.5,2025.5C 2054.94,2029.22 2054.27,2032.88 2053.5,2036.5C 2052.5,2036.5 2051.5,2036.5 2050.5,2036.5C 2049.17,2041.17 2047.83,2045.83 2046.5,2050.5C 2045.5,2050.5 2044.5,2050.5 2043.5,2050.5C 2043.22,2053.63 2042.38,2056.63 2041,2059.5C 2036.77,2068 2032.27,2076.33 2027.5,2084.5 Z"/></g>
<g><path style="opacity:1" fill="#798987" d="M 1005.5,2002.5 C 1011.48,2003.14 1017.48,2003.64 1023.5,2004C 1028.3,2005.63 1032.96,2007.13 1037.5,2008.5C 1026.39,2008.05 1015.72,2006.05 1005.5,2002.5 Z"/></g>
<g><path style="opacity:1" fill="#6f878c" d="M 1870.5,2006.5 C 1866.83,2006.5 1863.17,2006.5 1859.5,2006.5C 1861.29,2005 1863.46,2004.34 1866,2004.5C 1867.99,2004.57 1869.49,2005.24 1870.5,2006.5 Z"/></g>
<g><path style="opacity:1" fill="#5c819a" d="M 1845.5,2008.5 C 1836.52,2010.35 1827.52,2012.01 1818.5,2013.5C 1816.5,2013.5 1814.5,2013.5 1812.5,2013.5C 1812.41,2012.5 1812.75,2011.67 1813.5,2011C 1824.26,2010.64 1834.93,2009.81 1845.5,2008.5 Z"/></g>
<g><path style="opacity:1" fill="#70878c" d="M 1037.5,2008.5 C 1048.45,2009.7 1059.45,2010.54 1070.5,2011C 1078.93,2012.8 1087.26,2014.64 1095.5,2016.5C 1094.83,2016.5 1094.17,2016.5 1093.5,2016.5C 1074.53,2014.43 1055.87,2011.76 1037.5,2008.5 Z"/></g>
<g><path style="opacity:1" fill="#788889" d="M 1812.5,2013.5 C 1814.5,2013.5 1816.5,2013.5 1818.5,2013.5C 1809.43,2014.31 1800.43,2015.65 1791.5,2017.5C 1788.17,2017.83 1784.83,2018.17 1781.5,2018.5C 1779.83,2018.5 1778.17,2018.5 1776.5,2018.5C 1776.8,2017.85 1777.14,2017.18 1777.5,2016.5C 1789.2,2015.6 1800.87,2014.6 1812.5,2013.5 Z"/></g>
<g><path style="opacity:1" fill="#d7a547" d="M 1859.5,2006.5 C 1863.17,2006.5 1866.83,2006.5 1870.5,2006.5C 1870.5,2006.83 1870.5,2007.17 1870.5,2007.5C 1865.15,2006.85 1860.15,2007.69 1855.5,2010C 1846.29,2011.48 1836.96,2012.48 1827.5,2013C 1826.83,2013.67 1826.17,2014.33 1825.5,2015C 1820.32,2015.05 1815.32,2015.72 1810.5,2017C 1804.18,2017.5 1797.84,2017.67 1791.5,2017.5C 1800.43,2015.65 1809.43,2014.31 1818.5,2013.5C 1827.52,2012.01 1836.52,2010.35 1845.5,2008.5C 1849.99,2006.89 1854.66,2006.22 1859.5,2006.5 Z"/></g>
<g><path style="opacity:1" fill="#b69b5d" d="M 1093.5,2016.5 C 1094.17,2016.5 1094.83,2016.5 1095.5,2016.5C 1106.72,2017.96 1118.05,2019.29 1129.5,2020.5C 1129.5,2020.83 1129.5,2021.17 1129.5,2021.5C 1118.98,2020.26 1108.32,2019.43 1097.5,2019C 1096.14,2018.07 1094.81,2017.23 1093.5,2016.5 Z"/></g>
<g><path style="opacity:1" fill="#5a819b" d="M 1129.5,2021.5 C 1129.5,2021.17 1129.5,2020.83 1129.5,2020.5C 1144.23,2020.71 1158.56,2022.04 1172.5,2024.5C 1166.86,2023.78 1161.2,2023.45 1155.5,2023.5C 1153.17,2023.5 1150.83,2023.5 1148.5,2023.5C 1145.46,2021.99 1142.12,2021.32 1138.5,2021.5C 1135.5,2021.5 1132.5,2021.5 1129.5,2021.5 Z"/></g>
<g><path style="opacity:1" fill="#a49669" d="M 1776.5,2018.5 C 1778.17,2018.5 1779.83,2018.5 1781.5,2018.5C 1778.17,2019.08 1774.83,2019.92 1771.5,2021C 1759.79,2021.4 1748.12,2022.23 1736.5,2023.5C 1736.5,2023.17 1736.5,2022.83 1736.5,2022.5C 1749.8,2020.84 1763.13,2019.5 1776.5,2018.5 Z"/></g>
<g><path style="opacity:1" fill="#9e956c" d="M 1138.5,2021.5 C 1142.12,2021.32 1145.46,2021.99 1148.5,2023.5C 1144.67,2024.07 1141.34,2023.4 1138.5,2021.5 Z"/></g>
<g><path style="opacity:1" fill="#8a8f7a" d="M 1155.5,2023.5 C 1161.2,2023.45 1166.86,2023.78 1172.5,2024.5C 1178.32,2025.33 1184.32,2025.83 1190.5,2026C 1191.06,2026.38 1191.39,2026.88 1191.5,2027.5C 1183.51,2026.94 1175.51,2026.44 1167.5,2026C 1163.26,2025.67 1159.26,2024.83 1155.5,2023.5 Z"/></g>
<g><path style="opacity:1" fill="#4f7ea1" d="M 1736.5,2022.5 C 1736.5,2022.83 1736.5,2023.17 1736.5,2023.5C 1734.83,2023.5 1733.17,2023.5 1731.5,2023.5C 1721.33,2024.25 1711.33,2025.25 1701.5,2026.5C 1697.5,2026.83 1693.5,2027.17 1689.5,2027.5C 1689.5,2026.5 1689.5,2025.5 1689.5,2024.5C 1705.21,2024.13 1720.88,2023.47 1736.5,2022.5 Z"/></g>
<g><path style="opacity:1" fill="#507ea1" d="M 1660.5,2029.5 C 1660.5,2029.83 1660.5,2030.17 1660.5,2030.5C 1655.64,2030.18 1650.97,2030.51 1646.5,2031.5C 1637.85,2032.15 1629.18,2032.48 1620.5,2032.5C 1623.42,2031.81 1626.42,2030.97 1629.5,2030C 1639.83,2029.5 1650.16,2029.33 1660.5,2029.5 Z"/></g>
<g><path style="opacity:1" fill="#909175" d="M 1701.5,2026.5 C 1700.05,2027.3 1698.38,2027.8 1696.5,2028C 1684.52,2029.16 1672.52,2030 1660.5,2030.5C 1660.5,2030.17 1660.5,2029.83 1660.5,2029.5C 1670.12,2028.29 1679.79,2027.62 1689.5,2027.5C 1693.5,2027.17 1697.5,2026.83 1701.5,2026.5 Z"/></g>
<g><path style="opacity:1" fill="#658494" d="M 1191.5,2027.5 C 1210.85,2027.91 1230.18,2028.74 1249.5,2030C 1252.68,2029.95 1255.34,2030.78 1257.5,2032.5C 1244.33,2031 1231,2030.33 1217.5,2030.5C 1208.88,2029.08 1200.21,2028.08 1191.5,2027.5 Z"/></g>
<g><path style="opacity:1" fill="#caa150" d="M 1731.5,2023.5 C 1729.44,2024.78 1727.1,2025.61 1724.5,2026C 1698.06,2028.7 1671.73,2031.2 1645.5,2033.5C 1645.83,2032.83 1646.17,2032.17 1646.5,2031.5C 1650.97,2030.51 1655.64,2030.18 1660.5,2030.5C 1672.52,2030 1684.52,2029.16 1696.5,2028C 1698.38,2027.8 1700.05,2027.3 1701.5,2026.5C 1711.33,2025.25 1721.33,2024.25 1731.5,2023.5 Z"/></g>
<g><path style="opacity:1" fill="#b39b5d" d="M 1217.5,2030.5 C 1231,2030.33 1244.33,2031 1257.5,2032.5C 1257.5,2032.83 1257.5,2033.17 1257.5,2033.5C 1243.97,2033.12 1230.64,2032.12 1217.5,2030.5 Z"/></g>
<g><path style="opacity:1" fill="#56809b" d="M 1610.5,2032.5 C 1603.72,2033.98 1596.72,2034.65 1589.5,2034.5C 1596.09,2032.54 1603.09,2031.87 1610.5,2032.5 Z"/></g>
<g><path style="opacity:1" fill="#537f9f" d="M 1589.5,2034.5 C 1589.5,2034.83 1589.5,2035.17 1589.5,2035.5C 1585.5,2035.5 1581.5,2035.5 1577.5,2035.5C 1563.16,2035.6 1548.83,2035.94 1534.5,2036.5C 1534.61,2035.88 1534.94,2035.38 1535.5,2035C 1553.5,2034.5 1571.5,2034.33 1589.5,2034.5 Z"/></g>
<g><path style="opacity:1" fill="#a69767" d="M 1646.5,2031.5 C 1646.17,2032.17 1645.83,2032.83 1645.5,2033.5C 1626.82,2033.9 1608.15,2034.57 1589.5,2035.5C 1589.5,2035.17 1589.5,2034.83 1589.5,2034.5C 1596.72,2034.65 1603.72,2033.98 1610.5,2032.5C 1613.83,2032.5 1617.17,2032.5 1620.5,2032.5C 1629.18,2032.48 1637.85,2032.15 1646.5,2031.5 Z"/></g>
<g><path style="opacity:1" fill="#668492" d="M 1257.5,2033.5 C 1257.5,2033.17 1257.5,2032.83 1257.5,2032.5C 1349.78,2036.16 1442.11,2037.49 1534.5,2036.5C 1527.5,2037.17 1520.5,2037.83 1513.5,2038.5C 1466.5,2038.5 1419.5,2038.5 1372.5,2038.5C 1372.17,2038.5 1371.83,2038.5 1371.5,2038.5C 1350.32,2037.65 1328.98,2036.65 1307.5,2035.5C 1290.82,2035.05 1274.16,2034.39 1257.5,2033.5 Z"/></g>
<g><path style="opacity:1" fill="#bb9d59" d="M 1307.5,2035.5 C 1328.98,2036.65 1350.32,2037.65 1371.5,2038.5C 1350.48,2038.83 1329.48,2038.33 1308.5,2037C 1307.94,2036.62 1307.61,2036.12 1307.5,2035.5 Z"/></g>
<g><path style="opacity:1" fill="#a99765" d="M 1577.5,2035.5 C 1556.39,2038.04 1535.06,2039.04 1513.5,2038.5C 1520.5,2037.83 1527.5,2037.17 1534.5,2036.5C 1548.83,2035.94 1563.16,2035.6 1577.5,2035.5 Z"/></g>
<g><path style="opacity:1" fill="#b89c5b" d="M 1372.5,2038.5 C 1419.5,2038.5 1466.5,2038.5 1513.5,2038.5C 1466.5,2041.16 1419.5,2041.16 1372.5,2038.5 Z"/></g>
<g><path style="opacity:0.975" fill="#000000" d="M 1975.5,2057.5 C 1976.43,2058.31 1977.43,2059.15 1978.5,2060C 1996.24,2062.91 2011.24,2070.91 2023.5,2084C 2024.79,2084.49 2026.13,2084.66 2027.5,2084.5C 2028.17,2085.83 2028.83,2087.17 2029.5,2088.5C 2028.39,2089.95 2028.22,2091.61 2029,2093.5C 2032.08,2098.11 2034.41,2103.11 2036,2108.5C 2036.67,2119.17 2036.67,2129.83 2036,2140.5C 2031.79,2150.42 2025.96,2159.26 2018.5,2167C 2017.85,2168.44 2017.52,2169.94 2017.5,2171.5C 2016.75,2173.1 2015.75,2174.6 2014.5,2176C 2011.11,2178.24 2007.44,2179.74 2003.5,2180.5C 2003.5,2181.5 2003.5,2182.5 2003.5,2183.5C 1998.55,2184.17 1993.89,2185.67 1989.5,2188C 1984.51,2188.5 1979.51,2188.67 1974.5,2188.5C 1970.75,2186.91 1966.75,2186.07 1962.5,2186C 1953.46,2182.54 1944.46,2178.87 1935.5,2175C 1933.13,2171.77 1930.13,2169.61 1926.5,2168.5C 1926.65,2167.45 1926.48,2166.45 1926,2165.5C 1913.44,2150.1 1908.44,2132.43 1911,2112.5C 1913.07,2104.24 1915.57,2096.24 1918.5,2088.5C 1919.87,2086.41 1920.53,2084.08 1920.5,2081.5C 1921.68,2081.72 1922.68,2081.39 1923.5,2080.5C 1926.5,2076.67 1929.84,2073.17 1933.5,2070C 1937.5,2067.67 1941.5,2065.34 1945.5,2063C 1951.7,2061.83 1957.7,2060.16 1963.5,2058C 1967.49,2057.5 1971.49,2057.33 1975.5,2057.5 Z"/></g>
<g><path style="opacity:1" fill="#f9cc7e" d="M 1281.5,2091.5 C 1181.83,2091.5 1082.17,2091.5 982.5,2091.5C 1032,2090.17 1081.83,2089.5 1132,2089.5C 1182.17,2089.5 1232,2090.17 1281.5,2091.5 Z"/></g>
<g><path style="opacity:1" fill="#facc7f" d="M 1789.5,2106.5 C 1787.86,2103.27 1785.86,2100.27 1783.5,2097.5C 1783.17,2096.5 1782.5,2095.83 1781.5,2095.5C 1780.55,2093.39 1778.88,2092.22 1776.5,2092C 1745.17,2091.5 1713.84,2091.33 1682.5,2091.5C 1697.99,2090.17 1713.82,2089.5 1730,2089.5C 1745.83,2089.83 1761.67,2090.17 1777.5,2090.5C 1784.23,2093.88 1788.23,2099.22 1789.5,2106.5 Z"/></g>
<g><path style="opacity:0.956" fill="#39393a" d="M 1870.5,2088.5 C 1886.5,2088.5 1902.5,2088.5 1918.5,2088.5C 1915.57,2096.24 1913.07,2104.24 1911,2112.5C 1908.44,2132.43 1913.44,2150.1 1926,2165.5C 1926.48,2166.45 1926.65,2167.45 1926.5,2168.5C 1930.13,2169.61 1933.13,2171.77 1935.5,2175C 1944.46,2178.87 1953.46,2182.54 1962.5,2186C 1966.75,2186.07 1970.75,2186.91 1974.5,2188.5C 1971.15,2194.53 1967.82,2200.53 1964.5,2206.5C 1963.55,2208.05 1963.21,2209.71 1963.5,2211.5C 1962.5,2211.5 1961.5,2211.5 1960.5,2211.5C 1959.4,2216.24 1958.07,2220.9 1956.5,2225.5C 1955.5,2225.5 1954.5,2225.5 1953.5,2225.5C 1952.55,2230.31 1951.05,2234.98 1949,2239.5C 1946.57,2242.02 1944.91,2245.02 1944,2248.5C 1937.19,2254.22 1929.36,2255.88 1920.5,2253.5C 1917.32,2252.15 1914.32,2250.48 1911.5,2248.5C 1909.95,2247.55 1908.29,2247.21 1906.5,2247.5C 1906.5,2246.5 1906.5,2245.5 1906.5,2244.5C 1902.3,2243.73 1898.3,2242.4 1894.5,2240.5C 1892.72,2232.94 1892.22,2225.28 1893,2217.5C 1894.09,2214.31 1895.93,2211.65 1898.5,2209.5C 1899.87,2206.58 1900.87,2203.58 1901.5,2200.5C 1902.5,2200.5 1903.5,2200.5 1904.5,2200.5C 1905.45,2195.69 1906.95,2191.02 1909,2186.5C 1912.2,2182.09 1914.7,2177.25 1916.5,2172C 1901.17,2171.5 1885.84,2171.33 1870.5,2171.5C 1869.51,2144.24 1869.18,2116.91 1869.5,2089.5C 1870.17,2089.5 1870.5,2089.17 1870.5,2088.5 Z"/></g>
<g><path style="opacity:0.958" fill="#38383a" d="M 2029.5,2088.5 C 2041.5,2088.5 2053.5,2088.5 2065.5,2088.5C 2065.5,2089.5 2065.5,2090.5 2065.5,2091.5C 2074,2092.33 2079,2096.99 2080.5,2105.5C 2081.83,2121.83 2081.83,2138.17 2080.5,2154.5C 2078.97,2162.1 2074.63,2167.44 2067.5,2170.5C 2050.85,2171.5 2034.18,2171.83 2017.5,2171.5C 2017.52,2169.94 2017.85,2168.44 2018.5,2167C 2025.96,2159.26 2031.79,2150.42 2036,2140.5C 2036.67,2129.83 2036.67,2119.17 2036,2108.5C 2034.41,2103.11 2032.08,2098.11 2029,2093.5C 2028.22,2091.61 2028.39,2089.95 2029.5,2088.5 Z"/></g>
<g><path style="opacity:1" fill="#fad28d" d="M 1444.5,2091.5 C 1414.83,2091.33 1385.16,2091.5 1355.5,2092C 1353.1,2092.19 1350.77,2092.69 1348.5,2093.5C 1346.22,2096.3 1343.55,2098.64 1340.5,2100.5C 1342.2,2095.13 1345.87,2091.8 1351.5,2090.5C 1367,2090.17 1382.5,2089.83 1398,2089.5C 1413.85,2089.5 1429.35,2090.17 1444.5,2091.5 Z"/></g>
<g><path style="opacity:1" fill="#fad18a" d="M 1608.5,2091.5 C 1577.17,2091.5 1545.83,2091.5 1514.5,2091.5C 1529.49,2090.17 1544.82,2089.5 1560.5,2089.5C 1575.83,2089.67 1591.17,2089.83 1606.5,2090C 1607.42,2090.28 1608.08,2090.78 1608.5,2091.5 Z"/></g>
<g><path style="opacity:1" fill="#fbe7c3" d="M 982.5,2091.5 C 1082.17,2091.5 1181.83,2091.5 1281.5,2091.5C 1282.49,2091.33 1283.16,2091.66 1283.5,2092.5C 1182.5,2092.33 1081.5,2092.5 980.5,2093C 979.529,2094.48 978.196,2095.31 976.5,2095.5C 977.478,2092.68 979.478,2091.34 982.5,2091.5 Z"/></g>
<g><path style="opacity:0.999" fill="#927036" d="M 1869.5,2089.5 C 1869.18,2116.91 1869.51,2144.24 1870.5,2171.5C 1869.5,2171.59 1868.67,2171.25 1868,2170.5C 1867.33,2143.83 1867.33,2117.17 1868,2090.5C 1868.38,2089.94 1868.88,2089.61 1869.5,2089.5 Z"/></g>
<g><path style="opacity:1" fill="#fefefe" d="M 1283.5,2092.5 C 1287.54,2093.85 1290.87,2096.18 1293.5,2099.5C 1293.46,2100.76 1293.96,2101.76 1295,2102.5C 1295.67,2139.83 1295.67,2177.17 1295,2214.5C 1293.96,2215.24 1293.46,2216.24 1293.5,2217.5C 1290.21,2221.77 1285.88,2224.44 1280.5,2225.5C 1231.33,2225.83 1182.17,2226.17 1133,2226.5C 1081.12,2226.46 1029.29,2225.8 977.5,2224.5C 977.167,2223.83 976.833,2223.17 976.5,2222.5C 974.114,2218.76 972.114,2214.76 970.5,2210.5C 969.167,2175.5 969.167,2140.5 970.5,2105.5C 971.255,2102.68 972.255,2100.01 973.5,2097.5C 974.29,2096.6 975.29,2095.93 976.5,2095.5C 978.196,2095.31 979.529,2094.48 980.5,2093C 1081.5,2092.5 1182.5,2092.33 1283.5,2092.5 Z"/></g>
<g><path style="opacity:1" fill="#fefefe" d="M 1444.5,2091.5 C 1445.87,2091.34 1447.21,2091.51 1448.5,2092C 1450.68,2094.34 1453.01,2096.51 1455.5,2098.5C 1457.07,2100.55 1458.07,2102.88 1458.5,2105.5C 1458.67,2140.5 1458.5,2175.5 1458,2210.5C 1456.99,2212.02 1456.49,2213.69 1456.5,2215.5C 1455.93,2217.26 1455.09,2218.92 1454,2220.5C 1451.65,2222.03 1449.48,2223.7 1447.5,2225.5C 1447.17,2225.5 1446.83,2225.5 1446.5,2225.5C 1415.21,2226.65 1383.88,2226.82 1352.5,2226C 1351.1,2224.73 1349.43,2224.23 1347.5,2224.5C 1346.06,2222.94 1344.39,2221.6 1342.5,2220.5C 1341.17,2217.17 1339.84,2213.84 1338.5,2210.5C 1338.33,2176.17 1338.5,2141.83 1339,2107.5C 1339.44,2105.13 1339.94,2102.8 1340.5,2100.5C 1343.55,2098.64 1346.22,2096.3 1348.5,2093.5C 1350.77,2092.69 1353.1,2092.19 1355.5,2092C 1385.16,2091.5 1414.83,2091.33 1444.5,2091.5 Z"/></g>
<g><path style="opacity:1" fill="#fefefe" d="M 1514.5,2091.5 C 1545.83,2091.5 1577.17,2091.5 1608.5,2091.5C 1609.98,2091.24 1611.31,2091.57 1612.5,2092.5C 1614.55,2094.87 1616.55,2097.21 1618.5,2099.5C 1619.89,2101.92 1620.72,2104.59 1621,2107.5C 1621.5,2142.5 1621.67,2177.5 1621.5,2212.5C 1618.77,2216.75 1615.77,2220.75 1612.5,2224.5C 1611.08,2224.71 1609.74,2225.21 1608.5,2226C 1577.17,2226.67 1545.83,2226.67 1514.5,2226C 1511.4,2224.72 1508.73,2222.89 1506.5,2220.5C 1504.58,2217.34 1503.25,2214.01 1502.5,2210.5C 1502.33,2174.83 1502.5,2139.17 1503,2103.5C 1505.14,2099.72 1507.97,2096.72 1511.5,2094.5C 1512.1,2093.1 1513.1,2092.1 1514.5,2091.5 Z"/></g>
<g><path style="opacity:1" fill="#fefefe" d="M 1781.5,2095.5 C 1782.5,2095.83 1783.17,2096.5 1783.5,2097.5C 1784.23,2100.02 1785.4,2102.35 1787,2104.5C 1787.67,2140.5 1787.67,2176.5 1787,2212.5C 1785.28,2216.88 1782.78,2220.71 1779.5,2224C 1777.5,2224.33 1775.5,2224.67 1773.5,2225C 1772.94,2225.38 1772.61,2225.88 1772.5,2226.5C 1742.5,2226.67 1712.5,2226.5 1682.5,2226C 1679.35,2224.34 1676.35,2222.51 1673.5,2220.5C 1673.5,2219.83 1673.5,2219.17 1673.5,2218.5C 1672.21,2198.26 1671.55,2177.92 1671.5,2157.5C 1671.83,2138.5 1672.17,2119.5 1672.5,2100.5C 1675.31,2098.86 1677.64,2096.69 1679.5,2094C 1712.5,2093.33 1745.5,2093.33 1778.5,2094C 1779.24,2095.04 1780.24,2095.54 1781.5,2095.5 Z"/></g>
<g><path style="opacity:1" fill="#fdf3e2" d="M 1783.5,2097.5 C 1785.86,2100.27 1787.86,2103.27 1789.5,2106.5C 1789.5,2106.83 1789.5,2107.17 1789.5,2107.5C 1789.5,2141.17 1789.5,2174.83 1789.5,2208.5C 1788.3,2214.88 1785.3,2220.38 1780.5,2225C 1777.88,2225.82 1775.22,2226.32 1772.5,2226.5C 1772.61,2225.88 1772.94,2225.38 1773.5,2225C 1775.5,2224.67 1777.5,2224.33 1779.5,2224C 1782.78,2220.71 1785.28,2216.88 1787,2212.5C 1787.67,2176.5 1787.67,2140.5 1787,2104.5C 1785.4,2102.35 1784.23,2100.02 1783.5,2097.5 Z"/></g>
<g><path style="opacity:1" fill="#fbe5bf" d="M 1618.5,2099.5 C 1620.74,2100.85 1622.07,2102.85 1622.5,2105.5C 1622.83,2141.34 1622.5,2177 1621.5,2212.5C 1621.67,2177.5 1621.5,2142.5 1621,2107.5C 1620.72,2104.59 1619.89,2101.92 1618.5,2099.5 Z"/></g>
<g><path style="opacity:1" fill="#f9d18b" d="M 1622.5,2105.5 C 1623.66,2141.33 1623.83,2177.33 1623,2213.5C 1620.91,2215.92 1619.24,2218.59 1618,2221.5C 1617.18,2222.82 1616.02,2223.49 1614.5,2223.5C 1613.83,2223.83 1613.17,2224.17 1612.5,2224.5C 1615.77,2220.75 1618.77,2216.75 1621.5,2212.5C 1622.5,2177 1622.83,2141.34 1622.5,2105.5 Z"/></g>
<g><path style="opacity:1" fill="#f8c774" d="M 1669.5,2103.5 C 1668.51,2139.76 1668.17,2176.09 1668.5,2212.5C 1667.83,2194.5 1667.5,2176.34 1667.5,2158C 1667.5,2139.49 1668.17,2121.32 1669.5,2103.5 Z"/></g>
<g><path style="opacity:1" fill="#fdeed4" d="M 1682.5,2091.5 C 1713.84,2091.33 1745.17,2091.5 1776.5,2092C 1778.88,2092.22 1780.55,2093.39 1781.5,2095.5C 1780.24,2095.54 1779.24,2095.04 1778.5,2094C 1745.5,2093.33 1712.5,2093.33 1679.5,2094C 1677.64,2096.69 1675.31,2098.86 1672.5,2100.5C 1672.17,2119.5 1671.83,2138.5 1671.5,2157.5C 1671.55,2177.92 1672.21,2198.26 1673.5,2218.5C 1670.46,2217.57 1668.79,2215.57 1668.5,2212.5C 1668.17,2176.09 1668.51,2139.76 1669.5,2103.5C 1670.74,2101.34 1671.74,2099 1672.5,2096.5C 1675.81,2094.87 1679.14,2093.21 1682.5,2091.5 Z"/></g>
<g><path style="opacity:1" fill="#f7c164" d="M 970.5,2101.5 C 970.539,2102.76 970.039,2103.76 969,2104.5C 968.5,2140.5 968.333,2176.5 968.5,2212.5C 967.502,2175.67 967.168,2138.67 967.5,2101.5C 968.5,2101.5 969.5,2101.5 970.5,2101.5 Z"/></g>
<g><path style="opacity:1" fill="#fce4bd" d="M 973.5,2097.5 C 972.255,2100.01 971.255,2102.68 970.5,2105.5C 969.167,2140.5 969.167,2175.5 970.5,2210.5C 972.114,2214.76 974.114,2218.76 976.5,2222.5C 972.692,2220.03 970.025,2216.7 968.5,2212.5C 968.333,2176.5 968.5,2140.5 969,2104.5C 970.039,2103.76 970.539,2102.76 970.5,2101.5C 970.738,2099.6 971.738,2098.26 973.5,2097.5 Z"/></g>
<g><path style="opacity:1" fill="#fbe0b2" d="M 1293.5,2099.5 C 1294.46,2099.95 1295.29,2100.62 1296,2101.5C 1296.33,2103.5 1296.67,2105.5 1297,2107.5C 1297.67,2141.83 1297.67,2176.17 1297,2210.5C 1297.04,2213.6 1295.88,2215.93 1293.5,2217.5C 1293.46,2216.24 1293.96,2215.24 1295,2214.5C 1295.67,2177.17 1295.67,2139.83 1295,2102.5C 1293.96,2101.76 1293.46,2100.76 1293.5,2099.5 Z"/></g>
<g><path style="opacity:1" fill="#f6b951" d="M 1337.5,2106.5 C 1337.17,2141.34 1337.5,2176 1338.5,2210.5C 1339.84,2213.84 1341.17,2217.17 1342.5,2220.5C 1340.86,2220.52 1339.52,2219.85 1338.5,2218.5C 1337.9,2215.7 1337.06,2213.03 1336,2210.5C 1335.83,2193.17 1335.67,2175.83 1335.5,2158.5C 1335.5,2140.82 1336.17,2123.49 1337.5,2106.5 Z"/></g>
<g><path style="opacity:1" fill="#f9d18c" d="M 1340.5,2100.5 C 1339.94,2102.8 1339.44,2105.13 1339,2107.5C 1338.5,2141.83 1338.33,2176.17 1338.5,2210.5C 1337.5,2176 1337.17,2141.34 1337.5,2106.5C 1337.91,2104.11 1338.91,2102.11 1340.5,2100.5 Z"/></g>
<g><path style="opacity:1" fill="#fbe4bd" d="M 1458.5,2105.5 C 1459.66,2141 1459.83,2176.66 1459,2212.5C 1458.15,2213.57 1457.31,2214.57 1456.5,2215.5C 1456.49,2213.69 1456.99,2212.02 1458,2210.5C 1458.5,2175.5 1458.67,2140.5 1458.5,2105.5 Z"/></g>
<g><path style="opacity:1" fill="#f8c163" d="M 1455.5,2098.5 C 1456.5,2098.5 1457.5,2098.5 1458.5,2098.5C 1458.49,2100.31 1458.99,2101.98 1460,2103.5C 1460.83,2141.17 1460.67,2178.84 1459.5,2216.5C 1456.9,2221.35 1452.9,2224.35 1447.5,2225.5C 1449.48,2223.7 1451.65,2222.03 1454,2220.5C 1455.09,2218.92 1455.93,2217.26 1456.5,2215.5C 1457.31,2214.57 1458.15,2213.57 1459,2212.5C 1459.83,2176.66 1459.66,2141 1458.5,2105.5C 1458.07,2102.88 1457.07,2100.55 1455.5,2098.5 Z"/></g>
<g><path style="opacity:1" fill="#f9cb7d" d="M 1501.5,2105.5 C 1501.17,2140.67 1501.5,2175.67 1502.5,2210.5C 1503.25,2214.01 1504.58,2217.34 1506.5,2220.5C 1504.96,2220.3 1503.62,2219.63 1502.5,2218.5C 1501.9,2215.7 1501.06,2213.03 1500,2210.5C 1499.83,2193 1499.67,2175.5 1499.5,2158C 1499.5,2140.15 1500.17,2122.65 1501.5,2105.5 Z"/></g>
<g><path style="opacity:1" fill="#fce6c1" d="M 1511.5,2094.5 C 1507.97,2096.72 1505.14,2099.72 1503,2103.5C 1502.5,2139.17 1502.33,2174.83 1502.5,2210.5C 1501.5,2175.67 1501.17,2140.67 1501.5,2105.5C 1502.46,2099.54 1505.8,2095.88 1511.5,2094.5 Z"/></g>
<g><path style="opacity:1" fill="#f9cf86" d="M 1789.5,2107.5 C 1790.83,2123.99 1791.5,2140.82 1791.5,2158C 1791.5,2175.18 1790.83,2192.01 1789.5,2208.5C 1789.5,2174.83 1789.5,2141.17 1789.5,2107.5 Z"/></g>
<g><path style="opacity:1" fill="#fbdba5" d="M 1293.5,2217.5 C 1293.65,2218.55 1293.48,2219.55 1293,2220.5C 1290.71,2222.05 1288.55,2223.72 1286.5,2225.5C 1285.71,2225.78 1285.04,2226.28 1284.5,2227C 1183.83,2227.67 1083.17,2227.67 982.5,2227C 981.956,2226.28 981.289,2225.78 980.5,2225.5C 979.209,2225.74 978.209,2225.4 977.5,2224.5C 1029.29,2225.8 1081.12,2226.46 1133,2226.5C 1182.17,2226.17 1231.33,2225.83 1280.5,2225.5C 1285.88,2224.44 1290.21,2221.77 1293.5,2217.5 Z"/></g>
<g><path style="opacity:1" fill="#fad9a0" d="M 1347.5,2224.5 C 1349.43,2224.23 1351.1,2224.73 1352.5,2226C 1383.88,2226.82 1415.21,2226.65 1446.5,2225.5C 1431.01,2226.83 1415.18,2227.5 1399,2227.5C 1383.17,2227.33 1367.33,2227.17 1351.5,2227C 1350.14,2226.07 1348.81,2225.23 1347.5,2224.5 Z"/></g>
<g><path style="opacity:1" fill="#fad9a1" d="M 1673.5,2220.5 C 1676.35,2222.51 1679.35,2224.34 1682.5,2226C 1712.5,2226.5 1742.5,2226.67 1772.5,2226.5C 1742.34,2227.66 1712,2227.83 1681.5,2227C 1678.09,2225.75 1675.42,2223.59 1673.5,2220.5 Z"/></g>
<g><path style="opacity:1" fill="#f6bc57" d="M 980.5,2225.5 C 981.289,2225.78 981.956,2226.28 982.5,2227C 1083.17,2227.67 1183.83,2227.67 1284.5,2227C 1285.04,2226.28 1285.71,2225.78 1286.5,2225.5C 1286.59,2226.5 1286.25,2227.33 1285.5,2228C 1184.17,2228.67 1082.83,2228.67 981.5,2228C 980.748,2227.33 980.414,2226.5 980.5,2225.5 Z"/></g>
<g><path style="opacity:1" fill="#f9c56f" d="M 1506.5,2220.5 C 1508.73,2222.89 1511.4,2224.72 1514.5,2226C 1545.83,2226.67 1577.17,2226.67 1608.5,2226C 1609.74,2225.21 1611.08,2224.71 1612.5,2224.5C 1613.17,2224.17 1613.83,2223.83 1614.5,2223.5C 1613.21,2226.4 1610.88,2227.9 1607.5,2228C 1575.5,2228.5 1543.5,2228.67 1511.5,2228.5C 1509.83,2225.83 1508.17,2223.17 1506.5,2220.5 Z"/></g>
</svg>
