<?xml version="1.0" encoding="UTF-8"?>
<!DOCTYPE svg PUBLIC "-//W3C//DTD SVG 1.1//EN" "http://www.w3.org/Graphics/SVG/1.1/DTD/svg11.dtd">
<svg xmlns="http://www.w3.org/2000/svg" version="1.1" width="3000px" height="3000px" style="shape-rendering:geometricPrecision; text-rendering:geometricPrecision; image-rendering:optimizeQuality; fill-rule:evenodd; clip-rule:evenodd" xmlns:xlink="http://www.w3.org/1999/xlink">
<g><path style="opacity:0.992" fill="#010101" d="M 1925.5,281.5 C 2022.23,346.636 2098.07,430.636 2153,533.5C 2191.53,607.416 2221.19,684.749 2242,765.5C 2275.38,899.47 2295.04,1035.47 2301,1173.5C 2307.18,1299.79 2308.18,1426.12 2304,1552.5C 2297.79,1728.86 2286.13,1904.86 2269,2080.5C 2251.26,2207.15 2203.59,2320.82 2126,2421.5C 2051.76,2516.1 1961.6,2591.26 1855.5,2647C 1836.86,2656.49 1818.2,2665.65 1799.5,2674.5C 1616.81,2754.77 1428.47,2770.93 1234.5,2723C 1202.58,2714.37 1171.25,2704.04 1140.5,2692C 1135.34,2689.59 1130.34,2686.92 1125.5,2684C 999.663,2653.37 895.163,2588.87 812,2490.5C 758.441,2425.78 715.774,2354.11 684,2275.5C 648.362,2187.25 622.029,2096.25 605,2002.5C 579.135,1856.99 565.468,1710.32 564,1562.5C 561.369,1348.5 572.035,1135.16 596,922.5C 609.362,811.019 633.695,702.019 669,595.5C 693.68,522.808 727.347,454.808 770,391.5C 855.749,269.466 972.249,193.299 1119.5,163C 1176.56,151.194 1234.23,144.86 1292.5,144C 1405.01,140.489 1516.68,148.489 1627.5,168C 1711.71,183.294 1792.05,209.96 1868.5,248C 1888.19,258.233 1907.19,269.399 1925.5,281.5 Z M 1068.5,246.5 C 1000.33,280.884 942.494,328.218 895,388.5C 842.199,458.423 802.199,535.423 775,619.5C 741.784,722.912 718.784,828.579 706,936.5C 680.758,1161.83 670.758,1387.83 676,1614.5C 679.212,1744.17 692.212,1872.84 715,2000.5C 733.114,2100.84 762.114,2197.84 802,2291.5C 833.946,2365.69 876.613,2432.69 930,2492.5C 958.02,2522.71 988.52,2549.71 1021.5,2573.5C 985.287,2555.23 951.954,2532.73 921.5,2506C 875.902,2465.43 837.402,2419.27 806,2367.5C 757.015,2284.17 720.681,2195.51 697,2101.5C 664.938,1973.4 645.271,1843.4 638,1711.5C 627.803,1519.72 629.803,1328.05 644,1136.5C 649.857,1030.46 661.857,925.123 680,820.5C 694.164,740.508 715.497,662.508 744,586.5C 773.13,508.847 814.463,438.847 868,376.5C 923.46,315.683 990.293,272.35 1068.5,246.5 Z M 1578.5,891.5 C 1597.84,899.336 1615.84,909.502 1632.5,922C 1668.56,951.632 1697.4,987.132 1719,1028.5C 1753.47,1097.23 1777.13,1169.56 1790,1245.5C 1822.17,1443.87 1813.84,1640.54 1765,1835.5C 1749.44,1896.95 1727.44,1955.95 1699,2012.5C 1677.36,2055.48 1648.86,2093.31 1613.5,2126C 1595.21,2141.32 1574.88,2153.32 1552.5,2162C 1545.39,2164.78 1538.05,2166.61 1530.5,2167.5C 1564.14,2144.03 1592.64,2115.36 1616,2081.5C 1647.3,2034.91 1672.3,1984.91 1691,1931.5C 1728.24,1823.85 1751.24,1713.18 1760,1599.5C 1770.68,1475.51 1765.68,1352.18 1745,1229.5C 1734.4,1169.71 1717.74,1111.71 1695,1055.5C 1677.32,1013.11 1654.32,974.105 1626,938.5C 1611.6,921.267 1595.77,905.601 1578.5,891.5 Z M 1384.5,2126.5 C 1356.09,2101.02 1331.93,2072.02 1312,2039.5C 1277.47,1979.43 1251.47,1915.76 1234,1848.5C 1186.62,1662.22 1176.29,1473.89 1203,1283.5C 1213.19,1213.39 1231.19,1145.39 1257,1079.5C 1273.98,1037.57 1296.31,998.907 1324,963.5C 1337.56,948.273 1352.06,934.106 1367.5,921C 1375.08,916.057 1382.41,910.891 1389.5,905.5C 1456.18,896.945 1512.84,916.612 1559.5,964.5C 1589.14,996.681 1612.64,1033.01 1630,1073.5C 1663.38,1156.02 1684.05,1241.68 1692,1330.5C 1707.48,1488.54 1697.15,1644.87 1661,1799.5C 1646.77,1859.87 1626.77,1918.2 1601,1974.5C 1582.18,2014.79 1557.68,2051.13 1527.5,2083.5C 1512.66,2098.18 1495.99,2110.35 1477.5,2120C 1447.31,2133.91 1416.31,2136.08 1384.5,2126.5 Z"/></g>
<g><path style="opacity:0.999" fill="#29a9e1" d="M 1026.5,2576.5 C 1026.16,2575.66 1025.49,2575.33 1024.5,2575.5C 1024.5,2574.83 1024.17,2574.5 1023.5,2574.5C 1023.16,2573.66 1022.49,2573.33 1021.5,2573.5C 988.52,2549.71 958.02,2522.71 930,2492.5C 876.613,2432.69 833.946,2365.69 802,2291.5C 762.114,2197.84 733.114,2100.84 715,2000.5C 692.212,1872.84 679.212,1744.17 676,1614.5C 670.758,1387.83 680.758,1161.83 706,936.5C 718.784,828.579 741.784,722.912 775,619.5C 802.199,535.423 842.199,458.423 895,388.5C 942.494,328.218 1000.33,280.884 1068.5,246.5C 1069.49,246.672 1070.16,246.338 1070.5,245.5C 1071.49,245.672 1072.16,245.338 1072.5,244.5C 1122.25,228.25 1173.25,218.084 1225.5,214C 1335.5,206.652 1445.17,209.985 1554.5,224C 1637.66,234.871 1717.99,256.205 1795.5,288C 1924.83,344.073 2023.33,433.907 2091,557.5C 2127.77,626.131 2156.1,698.131 2176,773.5C 2204.49,885.119 2222.83,998.452 2231,1113.5C 2240.43,1252.03 2243.1,1390.69 2239,1529.5C 2233.71,1701.87 2222.71,1873.87 2206,2045.5C 2193.89,2171.98 2148.89,2284.98 2071,2384.5C 1976.91,2500.5 1859.41,2584 1718.5,2635C 1577.73,2685.07 1434.07,2695.74 1287.5,2667C 1244.31,2657.82 1202.31,2644.82 1161.5,2628C 1157.99,2625.75 1154.33,2623.75 1150.5,2622C 1114.87,2613.1 1080.2,2601.43 1046.5,2587C 1039.65,2583.74 1032.98,2580.24 1026.5,2576.5 Z M 1578.5,891.5 C 1597.84,899.336 1615.84,909.502 1632.5,922C 1668.56,951.632 1697.4,987.132 1719,1028.5C 1753.47,1097.23 1777.13,1169.56 1790,1245.5C 1822.17,1443.87 1813.84,1640.54 1765,1835.5C 1749.44,1896.95 1727.44,1955.95 1699,2012.5C 1677.36,2055.48 1648.86,2093.31 1613.5,2126C 1595.21,2141.32 1574.88,2153.32 1552.5,2162C 1545.39,2164.78 1538.05,2166.61 1530.5,2167.5C 1564.14,2144.03 1592.64,2115.36 1616,2081.5C 1647.3,2034.91 1672.3,1984.91 1691,1931.5C 1728.24,1823.85 1751.24,1713.18 1760,1599.5C 1770.68,1475.51 1765.68,1352.18 1745,1229.5C 1734.4,1169.71 1717.74,1111.71 1695,1055.5C 1677.32,1013.11 1654.32,974.105 1626,938.5C 1611.6,921.267 1595.77,905.601 1578.5,891.5 Z M 1384.5,2126.5 C 1356.09,2101.02 1331.93,2072.02 1312,2039.5C 1277.47,1979.43 1251.47,1915.76 1234,1848.5C 1186.62,1662.22 1176.29,1473.89 1203,1283.5C 1213.19,1213.39 1231.19,1145.39 1257,1079.5C 1273.98,1037.57 1296.31,998.907 1324,963.5C 1337.56,948.273 1352.06,934.106 1367.5,921C 1375.08,916.057 1382.41,910.891 1389.5,905.5C 1456.18,896.945 1512.84,916.612 1559.5,964.5C 1589.14,996.681 1612.64,1033.01 1630,1073.5C 1663.38,1156.02 1684.05,1241.68 1692,1330.5C 1707.48,1488.54 1697.15,1644.87 1661,1799.5C 1646.77,1859.87 1626.77,1918.2 1601,1974.5C 1582.18,2014.79 1557.68,2051.13 1527.5,2083.5C 1512.66,2098.18 1495.99,2110.35 1477.5,2120C 1447.31,2133.91 1416.31,2136.08 1384.5,2126.5 Z"/></g>
<g><path style="opacity:0.99" fill="#29a9e1" d="M 1925.5,281.5 C 2010.95,324.091 2082.78,383.424 2141,459.5C 2186.37,521.225 2222.71,588.225 2250,660.5C 2282.56,749.089 2305.9,840.089 2320,933.5C 2337.22,1046.52 2347.22,1160.19 2350,1274.5C 2353.58,1423.94 2350.92,1573.28 2342,1722.5C 2335.32,1836.32 2326.66,1949.98 2316,2063.5C 2303.85,2179.31 2264.52,2284.64 2198,2379.5C 2096.32,2519.47 1963.49,2617.81 1799.5,2674.5C 1818.2,2665.65 1836.86,2656.49 1855.5,2647C 1961.6,2591.26 2051.76,2516.1 2126,2421.5C 2203.59,2320.82 2251.26,2207.15 2269,2080.5C 2286.13,1904.86 2297.79,1728.86 2304,1552.5C 2308.18,1426.12 2307.18,1299.79 2301,1173.5C 2295.04,1035.47 2275.38,899.47 2242,765.5C 2221.19,684.749 2191.53,607.416 2153,533.5C 2098.07,430.636 2022.23,346.636 1925.5,281.5 Z"/></g>
<g><path style="opacity:0.992" fill="#010101" d="M 1577.5,890.5 C 1577.5,891.167 1577.83,891.5 1578.5,891.5C 1595.77,905.601 1611.6,921.267 1626,938.5C 1654.32,974.105 1677.32,1013.11 1695,1055.5C 1717.74,1111.71 1734.4,1169.71 1745,1229.5C 1765.68,1352.18 1770.68,1475.51 1760,1599.5C 1751.24,1713.18 1728.24,1823.85 1691,1931.5C 1672.3,1984.91 1647.3,2034.91 1616,2081.5C 1592.64,2115.36 1564.14,2144.03 1530.5,2167.5C 1529.51,2167.33 1528.84,2167.66 1528.5,2168.5C 1457.44,2208.57 1386.44,2208.4 1315.5,2168C 1273.2,2140.03 1238.7,2104.53 1212,2061.5C 1172.03,1995.29 1142.37,1924.63 1123,1849.5C 1076.52,1665.64 1065.52,1479.64 1090,1291.5C 1099.59,1215.3 1117.92,1141.3 1145,1069.5C 1165.82,1015.1 1195.15,966.101 1233,922.5C 1311.49,840.572 1404.66,817.739 1512.5,854C 1520.74,857.119 1528.74,860.786 1536.5,865C 1550.56,873.021 1564.23,881.521 1577.5,890.5 Z M 1384.5,2126.5 C 1356.09,2101.02 1331.93,2072.02 1312,2039.5C 1277.47,1979.43 1251.47,1915.76 1234,1848.5C 1186.62,1662.22 1176.29,1473.89 1203,1283.5C 1213.19,1213.39 1231.19,1145.39 1257,1079.5C 1273.98,1037.57 1296.31,998.907 1324,963.5C 1337.56,948.273 1352.06,934.106 1367.5,921C 1375.08,916.057 1382.41,910.891 1389.5,905.5C 1456.18,896.945 1512.84,916.612 1559.5,964.5C 1589.14,996.681 1612.64,1033.01 1630,1073.5C 1663.38,1156.02 1684.05,1241.68 1692,1330.5C 1707.48,1488.54 1697.15,1644.87 1661,1799.5C 1646.77,1859.87 1626.77,1918.2 1601,1974.5C 1582.18,2014.79 1557.68,2051.13 1527.5,2083.5C 1512.66,2098.18 1495.99,2110.35 1477.5,2120C 1447.31,2133.91 1416.31,2136.08 1384.5,2126.5 Z"/></g>
<g><path style="opacity:0.991" fill="#29a9e1" d="M 1389.5,905.5 C 1382.41,910.891 1375.08,916.057 1367.5,921C 1352.06,934.106 1337.56,948.273 1324,963.5C 1296.31,998.907 1273.98,1037.57 1257,1079.5C 1231.19,1145.39 1213.19,1213.39 1203,1283.5C 1176.29,1473.89 1186.62,1662.22 1234,1848.5C 1251.47,1915.76 1277.47,1979.43 1312,2039.5C 1331.93,2072.02 1356.09,2101.02 1384.5,2126.5C 1361.95,2119.73 1341.95,2108.56 1324.5,2093C 1294.54,2064.88 1270.04,2032.71 1251,1996.5C 1215.19,1926.73 1189.52,1853.4 1174,1776.5C 1142.43,1620.53 1136.09,1463.53 1155,1305.5C 1163.05,1239.98 1177.71,1175.98 1199,1113.5C 1216.25,1062.99 1241.25,1016.99 1274,975.5C 1297.17,947.329 1325.67,926.496 1359.5,913C 1369.28,909.555 1379.28,907.055 1389.5,905.5 Z"/></g>
</svg>
