<?xml version="1.0" standalone="no"?>
<!DOCTYPE svg PUBLIC "-//W3C//DTD SVG 20010904//EN"
 "http://www.w3.org/TR/2001/REC-SVG-20010904/DTD/svg10.dtd">
<svg version="1.0" xmlns="http://www.w3.org/2000/svg"
 width="500.000000pt" height="500.000000pt" viewBox="0 0 500.000000 500.000000"
 preserveAspectRatio="xMidYMid meet">
<metadata>
Created by potrace 1.14, written by Peter Selinger 2001-2017
</metadata>
<g transform="translate(0.000000,500.000000) scale(0.100000,-0.100000)"
fill="#000000" stroke="none">
<path d="M121 4989 c-44 -17 -81 -51 -101 -89 -20 -39 -20 -65 -17 -2408 l2
-2368 28 -43 c18 -27 44 -50 70 -62 41 -18 105 -19 2397 -19 2292 0 2356 1
2397 19 26 12 52 35 70 62 l28 43 3 2363 c2 2585 6 2405 -54 2461 -59 55 101
52 -2446 51 -1449 0 -2362 -4 -2377 -10z"/>
</g>
</svg>
