<?xml version="1.0" standalone="no"?>
<!DOCTYPE svg PUBLIC "-//W3C//DTD SVG 20010904//EN"
 "http://www.w3.org/TR/2001/REC-SVG-20010904/DTD/svg10.dtd">
<svg version="1.0" xmlns="http://www.w3.org/2000/svg"
 width="1500.000000pt" height="1500.000000pt" viewBox="0 0 1500.000000 1500.000000"
 preserveAspectRatio="xMidYMid meet">
<metadata>
Created by potrace 1.14, written by Peter Selinger 2001-2017
</metadata>
<g transform="translate(0.000000,1500.000000) scale(0.100000,-0.100000)"
fill="#000000" stroke="none">
<path d="M435 14990 c-187 -37 -335 -168 -408 -358 l-22 -57 -3 -7040 c-2
-6428 -1 -7046 14 -7113 39 -180 164 -321 344 -392 l65 -25 7040 -3 c6428 -2
7046 -1 7113 14 180 39 325 168 391 347 l26 72 3 7025 c2 5124 -1 7043 -9
7092 -16 101 -77 218 -148 288 -75 73 -149 115 -247 140 -77 20 -125 20 -7098
19 -3862 -1 -7039 -5 -7061 -9z m6285 -3455 c333 -43 642 -129 930 -258 192
-86 479 -266 675 -423 124 -100 378 -344 487 -470 l73 -84 5 333 5 333 38 76
c63 129 186 223 322 249 84 16 238 5 309 -21 107 -41 185 -122 223 -233 17
-49 18 -226 24 -3107 5 -2730 7 -3064 21 -3135 60 -304 149 -449 323 -526 63
-28 213 -37 322 -19 314 50 683 291 1052 684 156 167 110 104 1421 1991 195
281 377 534 404 562 182 194 420 227 622 85 94 -67 159 -139 197 -220 28 -59
32 -77 32 -152 0 -77 -3 -91 -35 -155 -20 -38 -278 -419 -575 -845 -296 -426
-651 -937 -788 -1135 -326 -470 -472 -651 -729 -907 -411 -409 -768 -635
-1178 -747 -238 -65 -580 -89 -799 -57 -420 62 -733 304 -965 749 -123 234
-194 468 -235 771 l-16 119 -95 -119 c-124 -156 -462 -495 -620 -620 -662
-527 -1323 -811 -2080 -894 -163 -18 -543 -24 -706 -11 -591 46 -1150 246
-1616 578 -440 314 -869 799 -1159 1308 -276 486 -446 1024 -500 1579 -12 121
-13 126 -24 90 -6 -22 -20 -55 -29 -74 -34 -65 -156 -220 -249 -314 -107 -108
-176 -147 -300 -166 -99 -16 -163 -4 -276 52 -182 90 -263 228 -248 423 8 99
30 162 81 230 40 55 1127 1644 1731 2532 373 548 463 662 726 918 311 302 720
589 1049 736 399 178 844 281 1355 313 150 9 675 -3 795 -19z"/>
<path d="M5810 10649 c-545 -60 -1054 -274 -1459 -615 -405 -342 -776 -843
-996 -1349 -209 -479 -315 -1007 -315 -1569 0 -316 34 -564 114 -843 215 -748
807 -1456 1484 -1775 382 -181 819 -260 1262 -229 703 49 1271 313 1819 846
474 461 825 1039 1000 1645 152 529 182 1154 80 1665 -79 396 -255 793 -494
1114 -283 381 -601 654 -990 851 -235 119 -447 187 -735 236 -136 23 -188 27
-420 29 -146 2 -303 -1 -350 -6z"/>
</g>
</svg>
